M48
INCH,TZ
T1C0.040
T2C0.120
T3C0.120
%
G90
G05
T1
X030500Y-038500
X030500Y-039500
X030500Y-040500
X030500Y-041500
X030500Y-042500
X030500Y-043500
X030500Y-044500
X030500Y-045500
X030500Y-046500
X030500Y-047500
X030500Y-048500
X030500Y-049500
X030500Y-050500
X030500Y-051500
X030500Y-052500
X030500Y-053500
X033293Y-046000
X033500Y-037000
X034000Y-045293
X034000Y-046707
X034500Y-037000
X034707Y-046000
X035500Y-037000
X038500Y-042500
X038500Y-043500
X038500Y-044500
X038500Y-045500
X038500Y-046500
X038500Y-047500
X038500Y-048500
X038500Y-049500
X038500Y-050500
X038500Y-051500
X038500Y-052500
X038500Y-053500
X039293Y-040000
X039293Y-052000
X040000Y-039293
X040000Y-040707
X040000Y-051293
X040000Y-052707
X040707Y-040000
X040707Y-052000
X045293Y-046000
X046000Y-045293
X046000Y-046707
X046707Y-046000
T2
X043000Y-043000
X043000Y-049000
X049000Y-037000
X049000Y-055000
T3
X031000Y-037000
X031000Y-055000
X038000Y-037000
X038000Y-055000
T0
M30
