%TF.GenerationSoftware,KiCad,Pcbnew,4.0.6-e0-6349~53~ubuntu16.04.1*%
%TF.CreationDate,2017-04-03T21:37:27+05:30*%
%TF.ProjectId,feather_v3,666561746865725F76332E6B69636164,rev?*%
%TF.FileFunction,Legend,Top*%
%FSLAX46Y46*%
G04 Gerber Fmt 4.6, Leading zero omitted, Abs format (unit mm)*
G04 Created by KiCad (PCBNEW 4.0.6-e0-6349~53~ubuntu16.04.1) date Mon Apr  3 21:37:27 2017*
%MOMM*%
%LPD*%
G01*
G04 APERTURE LIST*
%ADD10C,0.101600*%
%ADD11C,0.152400*%
%ADD12C,0.150000*%
%ADD13C,0.254000*%
%ADD14C,0.010000*%
%ADD15C,0.002540*%
%ADD16C,0.127000*%
%ADD17C,0.203200*%
%ADD18C,0.304800*%
%ADD19R,2.178000X2.178000*%
%ADD20C,2.178000*%
%ADD21C,1.924000*%
%ADD22C,3.448000*%
%ADD23O,2.127200X2.432000*%
%ADD24R,1.924000X1.924000*%
%ADD25R,2.432000X1.924000*%
%ADD26C,1.797000*%
%ADD27C,6.000000*%
G04 APERTURE END LIST*
D10*
D11*
X80276097Y-95963619D02*
X80276097Y-96786095D01*
X80324478Y-96882857D01*
X80372859Y-96931238D01*
X80469621Y-96979619D01*
X80663144Y-96979619D01*
X80759906Y-96931238D01*
X80808287Y-96882857D01*
X80856668Y-96786095D01*
X80856668Y-95963619D01*
X81292097Y-96931238D02*
X81437240Y-96979619D01*
X81679144Y-96979619D01*
X81775906Y-96931238D01*
X81824287Y-96882857D01*
X81872668Y-96786095D01*
X81872668Y-96689333D01*
X81824287Y-96592571D01*
X81775906Y-96544190D01*
X81679144Y-96495810D01*
X81485621Y-96447429D01*
X81388859Y-96399048D01*
X81340478Y-96350667D01*
X81292097Y-96253905D01*
X81292097Y-96157143D01*
X81340478Y-96060381D01*
X81388859Y-96012000D01*
X81485621Y-95963619D01*
X81727525Y-95963619D01*
X81872668Y-96012000D01*
X82646763Y-96447429D02*
X82791906Y-96495810D01*
X82840287Y-96544190D01*
X82888668Y-96640952D01*
X82888668Y-96786095D01*
X82840287Y-96882857D01*
X82791906Y-96931238D01*
X82695144Y-96979619D01*
X82308097Y-96979619D01*
X82308097Y-95963619D01*
X82646763Y-95963619D01*
X82743525Y-96012000D01*
X82791906Y-96060381D01*
X82840287Y-96157143D01*
X82840287Y-96253905D01*
X82791906Y-96350667D01*
X82743525Y-96399048D01*
X82646763Y-96447429D01*
X82308097Y-96447429D01*
X84098192Y-96302286D02*
X83324097Y-96592571D01*
X84098192Y-96882857D01*
X91548857Y-96302286D02*
X92322952Y-96592571D01*
X91548857Y-96882857D01*
X93145428Y-96447429D02*
X93290571Y-96495810D01*
X93338952Y-96544190D01*
X93387333Y-96640952D01*
X93387333Y-96786095D01*
X93338952Y-96882857D01*
X93290571Y-96931238D01*
X93193809Y-96979619D01*
X92806762Y-96979619D01*
X92806762Y-95963619D01*
X93145428Y-95963619D01*
X93242190Y-96012000D01*
X93290571Y-96060381D01*
X93338952Y-96157143D01*
X93338952Y-96253905D01*
X93290571Y-96350667D01*
X93242190Y-96399048D01*
X93145428Y-96447429D01*
X92806762Y-96447429D01*
X93774381Y-96689333D02*
X94258190Y-96689333D01*
X93677619Y-96979619D02*
X94016286Y-95963619D01*
X94354952Y-96979619D01*
X94548476Y-95963619D02*
X95129047Y-95963619D01*
X94838762Y-96979619D02*
X94838762Y-95963619D01*
D12*
X98806000Y-135890000D02*
G75*
G03X98806000Y-135890000I-1016000J0D01*
G01*
X98806000Y-133350000D02*
G75*
G03X98806000Y-133350000I-1016000J0D01*
G01*
X98806000Y-130810000D02*
G75*
G03X98806000Y-130810000I-1016000J0D01*
G01*
X98806000Y-128270000D02*
G75*
G03X98806000Y-128270000I-1016000J0D01*
G01*
X98806000Y-125730000D02*
G75*
G03X98806000Y-125730000I-1016000J0D01*
G01*
X98806000Y-123190000D02*
G75*
G03X98806000Y-123190000I-1016000J0D01*
G01*
X98806000Y-120650000D02*
G75*
G03X98806000Y-120650000I-1016000J0D01*
G01*
X98806000Y-118110000D02*
G75*
G03X98806000Y-118110000I-1016000J0D01*
G01*
X98806000Y-115570000D02*
G75*
G03X98806000Y-115570000I-1016000J0D01*
G01*
X98806000Y-110490000D02*
G75*
G03X98806000Y-110490000I-1016000J0D01*
G01*
X78493907Y-135890000D02*
G75*
G03X78493907Y-135890000I-1023907J0D01*
G01*
X78486000Y-133350000D02*
G75*
G03X78486000Y-133350000I-1016000J0D01*
G01*
X78486000Y-130810000D02*
G75*
G03X78486000Y-130810000I-1016000J0D01*
G01*
X78486000Y-128270000D02*
G75*
G03X78486000Y-128270000I-1016000J0D01*
G01*
X78486000Y-120650000D02*
G75*
G03X78486000Y-120650000I-1016000J0D01*
G01*
X78486000Y-118110000D02*
G75*
G03X78486000Y-118110000I-1016000J0D01*
G01*
X78486000Y-115570000D02*
G75*
G03X78486000Y-115570000I-1016000J0D01*
G01*
X78486000Y-113030000D02*
G75*
G03X78486000Y-113030000I-1016000J0D01*
G01*
X78486000Y-110490000D02*
G75*
G03X78486000Y-110490000I-1016000J0D01*
G01*
X78486000Y-107950000D02*
G75*
G03X78486000Y-107950000I-1016000J0D01*
G01*
X78486000Y-102870000D02*
G75*
G03X78486000Y-102870000I-1016000J0D01*
G01*
X78486000Y-100330000D02*
G75*
G03X78486000Y-100330000I-1016000J0D01*
G01*
X78486000Y-97790000D02*
G75*
G03X78486000Y-97790000I-1016000J0D01*
G01*
X98552000Y-139700000D02*
G75*
G03X98552000Y-139700000I-2032000J0D01*
G01*
X80772000Y-139700000D02*
G75*
G03X80772000Y-139700000I-2032000J0D01*
G01*
X80772000Y-93980000D02*
G75*
G03X80772000Y-93980000I-2032000J0D01*
G01*
X98552000Y-93980000D02*
G75*
G03X98552000Y-93980000I-2032000J0D01*
G01*
X87630000Y-91440000D02*
X87630000Y-92964000D01*
X93980000Y-105918000D02*
X99060000Y-105918000D01*
X93980000Y-98298000D02*
X99060000Y-98298000D01*
X99060000Y-102108000D02*
X97282000Y-102108000D01*
X93980000Y-98298000D02*
X93980000Y-105918000D01*
X90170000Y-91440000D02*
X90170000Y-96520000D01*
X90170000Y-96520000D02*
X85090000Y-96520000D01*
X85090000Y-96520000D02*
X85090000Y-91440000D01*
X78740000Y-91440000D02*
G75*
G03X76200000Y-93980000I0J-2540000D01*
G01*
X99060000Y-93980000D02*
G75*
G03X96520000Y-91440000I-2540000J0D01*
G01*
X76200000Y-139700000D02*
G75*
G03X78740000Y-142240000I2540000J0D01*
G01*
X96520000Y-142240000D02*
G75*
G03X99060000Y-139700000I0J2540000D01*
G01*
X96520000Y-142240000D02*
X78740000Y-142240000D01*
X96520000Y-91440000D02*
X78740000Y-91440000D01*
X76200000Y-93980000D02*
X76200000Y-139700000D01*
X99060000Y-139700000D02*
X99060000Y-93980000D01*
X88900000Y-92710000D02*
X83820000Y-92710000D01*
X83820000Y-92710000D02*
X83820000Y-95250000D01*
X83820000Y-95250000D02*
X88900000Y-95250000D01*
X91720000Y-95530000D02*
X90170000Y-95530000D01*
X88900000Y-95250000D02*
X88900000Y-92710000D01*
X90170000Y-92430000D02*
X91720000Y-92430000D01*
X91720000Y-92430000D02*
X91720000Y-95530000D01*
D13*
X101600000Y-128487898D02*
X105192102Y-132080000D01*
X98007898Y-132080000D02*
X101600000Y-128487898D01*
X101600000Y-135672102D02*
X98007898Y-132080000D01*
X105192102Y-132080000D02*
X101600000Y-135672102D01*
D14*
G36*
X114580132Y-128015141D02*
X114769330Y-128015704D01*
X114951803Y-128016553D01*
X115124802Y-128017693D01*
X115285580Y-128019121D01*
X115431388Y-128020837D01*
X115559478Y-128022843D01*
X115667101Y-128025137D01*
X115751511Y-128027719D01*
X115809958Y-128030591D01*
X115839694Y-128033751D01*
X115841045Y-128034101D01*
X115914650Y-128069801D01*
X115968272Y-128122954D01*
X116001256Y-128187582D01*
X116012948Y-128257706D01*
X116002692Y-128327346D01*
X115969833Y-128390525D01*
X115913717Y-128441264D01*
X115887218Y-128455553D01*
X115824819Y-128484312D01*
X115824409Y-129966141D01*
X115824000Y-131447969D01*
X116251194Y-132188641D01*
X116341737Y-132345615D01*
X116444897Y-132524444D01*
X116557416Y-132719483D01*
X116676038Y-132925090D01*
X116797507Y-133135620D01*
X116918568Y-133345429D01*
X117035963Y-133548874D01*
X117146437Y-133740312D01*
X117195756Y-133825770D01*
X117284967Y-133980722D01*
X117369309Y-134127946D01*
X117447458Y-134265082D01*
X117518089Y-134389771D01*
X117579877Y-134499652D01*
X117631497Y-134592365D01*
X117671624Y-134665552D01*
X117698934Y-134716852D01*
X117712102Y-134743905D01*
X117713125Y-134747254D01*
X117705259Y-134767854D01*
X117682954Y-134812330D01*
X117648145Y-134877359D01*
X117602767Y-134959615D01*
X117548756Y-135055774D01*
X117488047Y-135162511D01*
X117422577Y-135276503D01*
X117354279Y-135394423D01*
X117285091Y-135512948D01*
X117216948Y-135628754D01*
X117151784Y-135738515D01*
X117091537Y-135838906D01*
X117038141Y-135926605D01*
X116993532Y-135998285D01*
X116959645Y-136050622D01*
X116938416Y-136080292D01*
X116934599Y-136084468D01*
X116887124Y-136128125D01*
X111712875Y-136128125D01*
X111665400Y-136084468D01*
X111648606Y-136062746D01*
X111618539Y-136017288D01*
X111577134Y-135951420D01*
X111526325Y-135868466D01*
X111468050Y-135771753D01*
X111404242Y-135664605D01*
X111336838Y-135550346D01*
X111267772Y-135432303D01*
X111198981Y-135313800D01*
X111132400Y-135198163D01*
X111069963Y-135088717D01*
X111013608Y-134988786D01*
X110965267Y-134901695D01*
X110926879Y-134830771D01*
X110900377Y-134779338D01*
X110887697Y-134750720D01*
X110886874Y-134746933D01*
X110893139Y-134731738D01*
X111391817Y-134731738D01*
X111666508Y-135207681D01*
X111941198Y-135683625D01*
X116658654Y-135683625D01*
X116933694Y-135206873D01*
X117208735Y-134730121D01*
X117100627Y-134544091D01*
X117052108Y-134460084D01*
X117001391Y-134371405D01*
X116954699Y-134288982D01*
X116920228Y-134227315D01*
X116847937Y-134096567D01*
X114832125Y-134096125D01*
X115127748Y-134393781D01*
X115207725Y-134474852D01*
X115280741Y-134549905D01*
X115343638Y-134615609D01*
X115393257Y-134668634D01*
X115426440Y-134705650D01*
X115439732Y-134722697D01*
X115447043Y-134760230D01*
X115434704Y-134795316D01*
X115409692Y-134831070D01*
X115369306Y-134875828D01*
X115320048Y-134923770D01*
X115268420Y-134969074D01*
X115220926Y-135005919D01*
X115184067Y-135028484D01*
X115169480Y-135032750D01*
X115147132Y-135022200D01*
X115105787Y-134990232D01*
X115044908Y-134936363D01*
X114963960Y-134860114D01*
X114862408Y-134761002D01*
X114820810Y-134719741D01*
X114506375Y-134406732D01*
X114506375Y-134841522D01*
X114506186Y-134972308D01*
X114505480Y-135075011D01*
X114504051Y-135153296D01*
X114501691Y-135210830D01*
X114498191Y-135251276D01*
X114493345Y-135278301D01*
X114486944Y-135295570D01*
X114480102Y-135305343D01*
X114463266Y-135318829D01*
X114437807Y-135327459D01*
X114397181Y-135332237D01*
X114334844Y-135334165D01*
X114290754Y-135334375D01*
X114217007Y-135333988D01*
X114168052Y-135331820D01*
X114136932Y-135326360D01*
X114116690Y-135316094D01*
X114100370Y-135299512D01*
X114094053Y-135291627D01*
X114083921Y-135277620D01*
X114076117Y-135261895D01*
X114070392Y-135240501D01*
X114066497Y-135209484D01*
X114064185Y-135164892D01*
X114063207Y-135102771D01*
X114063314Y-135019170D01*
X114064259Y-134910136D01*
X114065120Y-134831238D01*
X114066336Y-134719830D01*
X114067363Y-134619621D01*
X114068164Y-134534754D01*
X114068700Y-134469372D01*
X114068937Y-134427619D01*
X114068846Y-134413611D01*
X114057874Y-134424389D01*
X114027423Y-134454776D01*
X113980394Y-134501863D01*
X113919693Y-134562739D01*
X113848221Y-134634496D01*
X113768882Y-134714225D01*
X113767221Y-134715894D01*
X113685795Y-134796741D01*
X113609946Y-134870133D01*
X113543010Y-134932994D01*
X113488322Y-134982247D01*
X113449218Y-135014816D01*
X113429337Y-135027556D01*
X113408907Y-135028152D01*
X113384469Y-135017567D01*
X113351225Y-134992398D01*
X113304375Y-134949244D01*
X113266618Y-134912190D01*
X113204367Y-134847657D01*
X113164516Y-134799575D01*
X113144581Y-134764681D01*
X113141125Y-134747521D01*
X113146451Y-134729558D01*
X113163771Y-134702344D01*
X113195090Y-134663608D01*
X113242416Y-134611079D01*
X113307757Y-134542484D01*
X113393120Y-134455551D01*
X113446566Y-134401867D01*
X113752007Y-134096125D01*
X113324557Y-134096125D01*
X113185238Y-134096235D01*
X113074412Y-134095593D01*
X112988828Y-134092739D01*
X112925238Y-134086213D01*
X112880392Y-134074556D01*
X112851040Y-134056308D01*
X112833932Y-134030009D01*
X112825820Y-133994200D01*
X112823454Y-133947420D01*
X112823583Y-133888211D01*
X112823625Y-133871107D01*
X112823249Y-133809737D01*
X112824298Y-133760980D01*
X112830033Y-133723390D01*
X112843717Y-133695522D01*
X112868611Y-133675933D01*
X112907977Y-133663178D01*
X112965078Y-133655811D01*
X113043176Y-133652388D01*
X113145532Y-133651465D01*
X113275409Y-133651596D01*
X113319196Y-133651625D01*
X113751267Y-133651625D01*
X113438258Y-133337189D01*
X113348898Y-133246371D01*
X113271404Y-133165517D01*
X113208051Y-133097128D01*
X113161114Y-133043706D01*
X113132868Y-133007753D01*
X113125250Y-132992990D01*
X113136746Y-132966392D01*
X113167271Y-132925976D01*
X113210876Y-132877523D01*
X113261613Y-132826817D01*
X113313534Y-132779641D01*
X113360690Y-132741778D01*
X113397134Y-132719010D01*
X113411177Y-132715000D01*
X113430107Y-132721738D01*
X113461067Y-132743065D01*
X113505936Y-132780648D01*
X113566590Y-132836153D01*
X113644908Y-132911247D01*
X113742767Y-133007597D01*
X113759345Y-133024083D01*
X114069812Y-133333166D01*
X114065134Y-132908775D01*
X114063453Y-132770249D01*
X114062794Y-132660203D01*
X114064651Y-132575374D01*
X114070515Y-132512496D01*
X114081879Y-132468302D01*
X114100236Y-132439528D01*
X114127078Y-132422909D01*
X114163897Y-132415179D01*
X114212186Y-132413073D01*
X114273436Y-132413325D01*
X114291546Y-132413375D01*
X114371777Y-132414496D01*
X114426137Y-132418371D01*
X114460445Y-132425763D01*
X114480519Y-132437438D01*
X114481428Y-132438321D01*
X114488921Y-132449469D01*
X114494780Y-132468540D01*
X114499198Y-132499092D01*
X114502365Y-132544686D01*
X114504473Y-132608878D01*
X114505714Y-132695230D01*
X114506279Y-132807298D01*
X114506375Y-132902142D01*
X114506375Y-133341017D01*
X114820810Y-133028008D01*
X114924977Y-132925240D01*
X115009018Y-132844457D01*
X115074393Y-132784357D01*
X115122558Y-132743639D01*
X115154973Y-132721001D01*
X115171435Y-132715000D01*
X115203640Y-132727050D01*
X115251929Y-132761515D01*
X115311031Y-132814218D01*
X115377277Y-132880807D01*
X115420369Y-132932289D01*
X115442644Y-132972492D01*
X115446437Y-133005242D01*
X115439732Y-133025052D01*
X115424448Y-133044412D01*
X115389823Y-133082842D01*
X115339016Y-133137013D01*
X115275186Y-133203594D01*
X115201491Y-133279256D01*
X115127748Y-133353968D01*
X114832125Y-133651625D01*
X116588589Y-133651625D01*
X116557294Y-133600031D01*
X116522471Y-133541823D01*
X116476078Y-133463049D01*
X116419623Y-133366349D01*
X116354614Y-133254365D01*
X116282559Y-133129736D01*
X116204966Y-132995105D01*
X116123344Y-132853113D01*
X116039201Y-132706400D01*
X115954044Y-132557608D01*
X115869382Y-132409378D01*
X115786723Y-132264351D01*
X115707576Y-132125167D01*
X115633448Y-131994468D01*
X115565847Y-131874896D01*
X115506282Y-131769090D01*
X115456260Y-131679693D01*
X115417291Y-131609345D01*
X115390882Y-131560688D01*
X115378540Y-131536361D01*
X115377896Y-131534659D01*
X115375786Y-131511630D01*
X115373779Y-131459011D01*
X115371895Y-131378962D01*
X115370154Y-131273643D01*
X115368575Y-131145212D01*
X115367179Y-130995830D01*
X115365985Y-130827656D01*
X115365013Y-130642850D01*
X115364282Y-130443573D01*
X115363814Y-130231983D01*
X115363627Y-130010240D01*
X115363625Y-129980636D01*
X115363625Y-128476375D01*
X113236989Y-128476375D01*
X113228437Y-131548187D01*
X112884729Y-132143500D01*
X112795018Y-132298868D01*
X112695473Y-132471244D01*
X112590521Y-132652961D01*
X112484590Y-132836356D01*
X112382106Y-133013764D01*
X112287496Y-133177521D01*
X112219940Y-133294437D01*
X112074356Y-133546399D01*
X111942857Y-133774050D01*
X111825664Y-133977010D01*
X111722995Y-134154897D01*
X111635071Y-134307331D01*
X111562110Y-134433931D01*
X111504332Y-134534316D01*
X111461957Y-134608107D01*
X111435205Y-134654921D01*
X111430081Y-134663962D01*
X111391817Y-134731738D01*
X110893139Y-134731738D01*
X110894593Y-134728214D01*
X110916661Y-134685010D01*
X110951444Y-134620273D01*
X110997311Y-134536953D01*
X111052628Y-134437999D01*
X111115763Y-134326362D01*
X111185083Y-134204993D01*
X111229919Y-134127074D01*
X111316007Y-133977890D01*
X111408884Y-133816959D01*
X111504742Y-133650876D01*
X111599776Y-133486236D01*
X111690179Y-133329633D01*
X111772145Y-133187663D01*
X111838823Y-133072187D01*
X111910062Y-132948821D01*
X111993259Y-132804738D01*
X112084500Y-132646716D01*
X112179870Y-132481537D01*
X112275455Y-132315979D01*
X112367341Y-132156823D01*
X112440341Y-132030372D01*
X112776000Y-131448931D01*
X112775590Y-129966622D01*
X112775180Y-128484312D01*
X112712781Y-128455553D01*
X112647983Y-128410866D01*
X112606683Y-128351549D01*
X112588225Y-128283581D01*
X112591955Y-128212941D01*
X112617218Y-128145606D01*
X112663358Y-128087557D01*
X112729721Y-128044771D01*
X112758954Y-128034101D01*
X112785501Y-128030910D01*
X112841048Y-128028009D01*
X112922847Y-128025396D01*
X113028151Y-128023071D01*
X113154211Y-128021035D01*
X113298279Y-128019288D01*
X113457606Y-128017830D01*
X113629446Y-128016660D01*
X113811049Y-128015780D01*
X113999667Y-128015187D01*
X114192552Y-128014883D01*
X114386957Y-128014868D01*
X114580132Y-128015141D01*
X114580132Y-128015141D01*
G37*
X114580132Y-128015141D02*
X114769330Y-128015704D01*
X114951803Y-128016553D01*
X115124802Y-128017693D01*
X115285580Y-128019121D01*
X115431388Y-128020837D01*
X115559478Y-128022843D01*
X115667101Y-128025137D01*
X115751511Y-128027719D01*
X115809958Y-128030591D01*
X115839694Y-128033751D01*
X115841045Y-128034101D01*
X115914650Y-128069801D01*
X115968272Y-128122954D01*
X116001256Y-128187582D01*
X116012948Y-128257706D01*
X116002692Y-128327346D01*
X115969833Y-128390525D01*
X115913717Y-128441264D01*
X115887218Y-128455553D01*
X115824819Y-128484312D01*
X115824409Y-129966141D01*
X115824000Y-131447969D01*
X116251194Y-132188641D01*
X116341737Y-132345615D01*
X116444897Y-132524444D01*
X116557416Y-132719483D01*
X116676038Y-132925090D01*
X116797507Y-133135620D01*
X116918568Y-133345429D01*
X117035963Y-133548874D01*
X117146437Y-133740312D01*
X117195756Y-133825770D01*
X117284967Y-133980722D01*
X117369309Y-134127946D01*
X117447458Y-134265082D01*
X117518089Y-134389771D01*
X117579877Y-134499652D01*
X117631497Y-134592365D01*
X117671624Y-134665552D01*
X117698934Y-134716852D01*
X117712102Y-134743905D01*
X117713125Y-134747254D01*
X117705259Y-134767854D01*
X117682954Y-134812330D01*
X117648145Y-134877359D01*
X117602767Y-134959615D01*
X117548756Y-135055774D01*
X117488047Y-135162511D01*
X117422577Y-135276503D01*
X117354279Y-135394423D01*
X117285091Y-135512948D01*
X117216948Y-135628754D01*
X117151784Y-135738515D01*
X117091537Y-135838906D01*
X117038141Y-135926605D01*
X116993532Y-135998285D01*
X116959645Y-136050622D01*
X116938416Y-136080292D01*
X116934599Y-136084468D01*
X116887124Y-136128125D01*
X111712875Y-136128125D01*
X111665400Y-136084468D01*
X111648606Y-136062746D01*
X111618539Y-136017288D01*
X111577134Y-135951420D01*
X111526325Y-135868466D01*
X111468050Y-135771753D01*
X111404242Y-135664605D01*
X111336838Y-135550346D01*
X111267772Y-135432303D01*
X111198981Y-135313800D01*
X111132400Y-135198163D01*
X111069963Y-135088717D01*
X111013608Y-134988786D01*
X110965267Y-134901695D01*
X110926879Y-134830771D01*
X110900377Y-134779338D01*
X110887697Y-134750720D01*
X110886874Y-134746933D01*
X110893139Y-134731738D01*
X111391817Y-134731738D01*
X111666508Y-135207681D01*
X111941198Y-135683625D01*
X116658654Y-135683625D01*
X116933694Y-135206873D01*
X117208735Y-134730121D01*
X117100627Y-134544091D01*
X117052108Y-134460084D01*
X117001391Y-134371405D01*
X116954699Y-134288982D01*
X116920228Y-134227315D01*
X116847937Y-134096567D01*
X114832125Y-134096125D01*
X115127748Y-134393781D01*
X115207725Y-134474852D01*
X115280741Y-134549905D01*
X115343638Y-134615609D01*
X115393257Y-134668634D01*
X115426440Y-134705650D01*
X115439732Y-134722697D01*
X115447043Y-134760230D01*
X115434704Y-134795316D01*
X115409692Y-134831070D01*
X115369306Y-134875828D01*
X115320048Y-134923770D01*
X115268420Y-134969074D01*
X115220926Y-135005919D01*
X115184067Y-135028484D01*
X115169480Y-135032750D01*
X115147132Y-135022200D01*
X115105787Y-134990232D01*
X115044908Y-134936363D01*
X114963960Y-134860114D01*
X114862408Y-134761002D01*
X114820810Y-134719741D01*
X114506375Y-134406732D01*
X114506375Y-134841522D01*
X114506186Y-134972308D01*
X114505480Y-135075011D01*
X114504051Y-135153296D01*
X114501691Y-135210830D01*
X114498191Y-135251276D01*
X114493345Y-135278301D01*
X114486944Y-135295570D01*
X114480102Y-135305343D01*
X114463266Y-135318829D01*
X114437807Y-135327459D01*
X114397181Y-135332237D01*
X114334844Y-135334165D01*
X114290754Y-135334375D01*
X114217007Y-135333988D01*
X114168052Y-135331820D01*
X114136932Y-135326360D01*
X114116690Y-135316094D01*
X114100370Y-135299512D01*
X114094053Y-135291627D01*
X114083921Y-135277620D01*
X114076117Y-135261895D01*
X114070392Y-135240501D01*
X114066497Y-135209484D01*
X114064185Y-135164892D01*
X114063207Y-135102771D01*
X114063314Y-135019170D01*
X114064259Y-134910136D01*
X114065120Y-134831238D01*
X114066336Y-134719830D01*
X114067363Y-134619621D01*
X114068164Y-134534754D01*
X114068700Y-134469372D01*
X114068937Y-134427619D01*
X114068846Y-134413611D01*
X114057874Y-134424389D01*
X114027423Y-134454776D01*
X113980394Y-134501863D01*
X113919693Y-134562739D01*
X113848221Y-134634496D01*
X113768882Y-134714225D01*
X113767221Y-134715894D01*
X113685795Y-134796741D01*
X113609946Y-134870133D01*
X113543010Y-134932994D01*
X113488322Y-134982247D01*
X113449218Y-135014816D01*
X113429337Y-135027556D01*
X113408907Y-135028152D01*
X113384469Y-135017567D01*
X113351225Y-134992398D01*
X113304375Y-134949244D01*
X113266618Y-134912190D01*
X113204367Y-134847657D01*
X113164516Y-134799575D01*
X113144581Y-134764681D01*
X113141125Y-134747521D01*
X113146451Y-134729558D01*
X113163771Y-134702344D01*
X113195090Y-134663608D01*
X113242416Y-134611079D01*
X113307757Y-134542484D01*
X113393120Y-134455551D01*
X113446566Y-134401867D01*
X113752007Y-134096125D01*
X113324557Y-134096125D01*
X113185238Y-134096235D01*
X113074412Y-134095593D01*
X112988828Y-134092739D01*
X112925238Y-134086213D01*
X112880392Y-134074556D01*
X112851040Y-134056308D01*
X112833932Y-134030009D01*
X112825820Y-133994200D01*
X112823454Y-133947420D01*
X112823583Y-133888211D01*
X112823625Y-133871107D01*
X112823249Y-133809737D01*
X112824298Y-133760980D01*
X112830033Y-133723390D01*
X112843717Y-133695522D01*
X112868611Y-133675933D01*
X112907977Y-133663178D01*
X112965078Y-133655811D01*
X113043176Y-133652388D01*
X113145532Y-133651465D01*
X113275409Y-133651596D01*
X113319196Y-133651625D01*
X113751267Y-133651625D01*
X113438258Y-133337189D01*
X113348898Y-133246371D01*
X113271404Y-133165517D01*
X113208051Y-133097128D01*
X113161114Y-133043706D01*
X113132868Y-133007753D01*
X113125250Y-132992990D01*
X113136746Y-132966392D01*
X113167271Y-132925976D01*
X113210876Y-132877523D01*
X113261613Y-132826817D01*
X113313534Y-132779641D01*
X113360690Y-132741778D01*
X113397134Y-132719010D01*
X113411177Y-132715000D01*
X113430107Y-132721738D01*
X113461067Y-132743065D01*
X113505936Y-132780648D01*
X113566590Y-132836153D01*
X113644908Y-132911247D01*
X113742767Y-133007597D01*
X113759345Y-133024083D01*
X114069812Y-133333166D01*
X114065134Y-132908775D01*
X114063453Y-132770249D01*
X114062794Y-132660203D01*
X114064651Y-132575374D01*
X114070515Y-132512496D01*
X114081879Y-132468302D01*
X114100236Y-132439528D01*
X114127078Y-132422909D01*
X114163897Y-132415179D01*
X114212186Y-132413073D01*
X114273436Y-132413325D01*
X114291546Y-132413375D01*
X114371777Y-132414496D01*
X114426137Y-132418371D01*
X114460445Y-132425763D01*
X114480519Y-132437438D01*
X114481428Y-132438321D01*
X114488921Y-132449469D01*
X114494780Y-132468540D01*
X114499198Y-132499092D01*
X114502365Y-132544686D01*
X114504473Y-132608878D01*
X114505714Y-132695230D01*
X114506279Y-132807298D01*
X114506375Y-132902142D01*
X114506375Y-133341017D01*
X114820810Y-133028008D01*
X114924977Y-132925240D01*
X115009018Y-132844457D01*
X115074393Y-132784357D01*
X115122558Y-132743639D01*
X115154973Y-132721001D01*
X115171435Y-132715000D01*
X115203640Y-132727050D01*
X115251929Y-132761515D01*
X115311031Y-132814218D01*
X115377277Y-132880807D01*
X115420369Y-132932289D01*
X115442644Y-132972492D01*
X115446437Y-133005242D01*
X115439732Y-133025052D01*
X115424448Y-133044412D01*
X115389823Y-133082842D01*
X115339016Y-133137013D01*
X115275186Y-133203594D01*
X115201491Y-133279256D01*
X115127748Y-133353968D01*
X114832125Y-133651625D01*
X116588589Y-133651625D01*
X116557294Y-133600031D01*
X116522471Y-133541823D01*
X116476078Y-133463049D01*
X116419623Y-133366349D01*
X116354614Y-133254365D01*
X116282559Y-133129736D01*
X116204966Y-132995105D01*
X116123344Y-132853113D01*
X116039201Y-132706400D01*
X115954044Y-132557608D01*
X115869382Y-132409378D01*
X115786723Y-132264351D01*
X115707576Y-132125167D01*
X115633448Y-131994468D01*
X115565847Y-131874896D01*
X115506282Y-131769090D01*
X115456260Y-131679693D01*
X115417291Y-131609345D01*
X115390882Y-131560688D01*
X115378540Y-131536361D01*
X115377896Y-131534659D01*
X115375786Y-131511630D01*
X115373779Y-131459011D01*
X115371895Y-131378962D01*
X115370154Y-131273643D01*
X115368575Y-131145212D01*
X115367179Y-130995830D01*
X115365985Y-130827656D01*
X115365013Y-130642850D01*
X115364282Y-130443573D01*
X115363814Y-130231983D01*
X115363627Y-130010240D01*
X115363625Y-129980636D01*
X115363625Y-128476375D01*
X113236989Y-128476375D01*
X113228437Y-131548187D01*
X112884729Y-132143500D01*
X112795018Y-132298868D01*
X112695473Y-132471244D01*
X112590521Y-132652961D01*
X112484590Y-132836356D01*
X112382106Y-133013764D01*
X112287496Y-133177521D01*
X112219940Y-133294437D01*
X112074356Y-133546399D01*
X111942857Y-133774050D01*
X111825664Y-133977010D01*
X111722995Y-134154897D01*
X111635071Y-134307331D01*
X111562110Y-134433931D01*
X111504332Y-134534316D01*
X111461957Y-134608107D01*
X111435205Y-134654921D01*
X111430081Y-134663962D01*
X111391817Y-134731738D01*
X110893139Y-134731738D01*
X110894593Y-134728214D01*
X110916661Y-134685010D01*
X110951444Y-134620273D01*
X110997311Y-134536953D01*
X111052628Y-134437999D01*
X111115763Y-134326362D01*
X111185083Y-134204993D01*
X111229919Y-134127074D01*
X111316007Y-133977890D01*
X111408884Y-133816959D01*
X111504742Y-133650876D01*
X111599776Y-133486236D01*
X111690179Y-133329633D01*
X111772145Y-133187663D01*
X111838823Y-133072187D01*
X111910062Y-132948821D01*
X111993259Y-132804738D01*
X112084500Y-132646716D01*
X112179870Y-132481537D01*
X112275455Y-132315979D01*
X112367341Y-132156823D01*
X112440341Y-132030372D01*
X112776000Y-131448931D01*
X112775590Y-129966622D01*
X112775180Y-128484312D01*
X112712781Y-128455553D01*
X112647983Y-128410866D01*
X112606683Y-128351549D01*
X112588225Y-128283581D01*
X112591955Y-128212941D01*
X112617218Y-128145606D01*
X112663358Y-128087557D01*
X112729721Y-128044771D01*
X112758954Y-128034101D01*
X112785501Y-128030910D01*
X112841048Y-128028009D01*
X112922847Y-128025396D01*
X113028151Y-128023071D01*
X113154211Y-128021035D01*
X113298279Y-128019288D01*
X113457606Y-128017830D01*
X113629446Y-128016660D01*
X113811049Y-128015780D01*
X113999667Y-128015187D01*
X114192552Y-128014883D01*
X114386957Y-128014868D01*
X114580132Y-128015141D01*
D13*
X116840000Y-120432102D02*
X113247898Y-116840000D01*
X120432102Y-116840000D02*
X116840000Y-120432102D01*
X116840000Y-113247898D02*
X120432102Y-116840000D01*
X113247898Y-116840000D02*
X116840000Y-113247898D01*
D14*
G36*
X112819962Y-99536685D02*
X112922538Y-99550389D01*
X112980308Y-99556512D01*
X113069965Y-99562992D01*
X113184328Y-99569451D01*
X113316213Y-99575515D01*
X113458438Y-99580808D01*
X113563651Y-99583942D01*
X114067995Y-99597308D01*
X114179113Y-99708117D01*
X114246249Y-99774279D01*
X114327382Y-99853091D01*
X114407999Y-99930481D01*
X114431001Y-99952348D01*
X114571772Y-100085769D01*
X114585182Y-100404136D01*
X114589985Y-100522552D01*
X114592402Y-100609902D01*
X114591709Y-100674160D01*
X114587180Y-100723303D01*
X114578089Y-100765305D01*
X114563713Y-100808140D01*
X114543882Y-100858405D01*
X114520112Y-100917051D01*
X114499339Y-100957043D01*
X114474210Y-100981028D01*
X114437374Y-100991650D01*
X114381479Y-100991555D01*
X114299172Y-100983389D01*
X114221846Y-100974280D01*
X114137988Y-100962378D01*
X114054680Y-100947271D01*
X114006923Y-100936455D01*
X113933259Y-100917272D01*
X113860303Y-100898319D01*
X113845102Y-100894378D01*
X113785340Y-100867217D01*
X113709047Y-100814533D01*
X113640350Y-100756647D01*
X113635066Y-100752158D01*
X113838243Y-100752158D01*
X113839011Y-100754755D01*
X113866624Y-100767385D01*
X113923215Y-100784064D01*
X113999165Y-100802728D01*
X114084855Y-100821316D01*
X114170666Y-100837764D01*
X114246980Y-100850009D01*
X114304178Y-100855989D01*
X114312283Y-100856250D01*
X114372181Y-100855229D01*
X114405834Y-100845988D01*
X114426023Y-100822242D01*
X114438818Y-100794039D01*
X114463460Y-100714062D01*
X114463456Y-100642445D01*
X114436621Y-100569445D01*
X114380773Y-100485317D01*
X114365175Y-100465351D01*
X114310580Y-100400067D01*
X114269601Y-100360885D01*
X114234178Y-100341391D01*
X114202025Y-100335483D01*
X114139570Y-100338455D01*
X114095638Y-100354046D01*
X114077741Y-100378167D01*
X114085497Y-100398891D01*
X114099012Y-100433700D01*
X114077797Y-100457766D01*
X114025664Y-100466769D01*
X114025554Y-100466769D01*
X113994895Y-100470276D01*
X113970009Y-100485595D01*
X113944304Y-100519926D01*
X113911183Y-100580470D01*
X113898453Y-100605541D01*
X113867031Y-100671569D01*
X113845767Y-100723440D01*
X113838243Y-100752158D01*
X113635066Y-100752158D01*
X113559462Y-100687937D01*
X113463395Y-100613049D01*
X113370375Y-100546077D01*
X113352786Y-100534240D01*
X113248971Y-100458363D01*
X113138105Y-100362846D01*
X113063708Y-100290267D01*
X113259824Y-100290267D01*
X113273580Y-100309715D01*
X113276850Y-100313356D01*
X113306058Y-100339443D01*
X113359241Y-100381466D01*
X113428238Y-100433130D01*
X113488657Y-100476693D01*
X113567706Y-100534431D01*
X113640466Y-100590613D01*
X113697415Y-100637723D01*
X113723461Y-100661993D01*
X113763507Y-100698818D01*
X113795014Y-100719282D01*
X113801231Y-100720769D01*
X113819807Y-100704480D01*
X113848614Y-100661590D01*
X113881697Y-100601063D01*
X113884532Y-100595360D01*
X113916146Y-100528217D01*
X113930663Y-100486539D01*
X113930031Y-100461668D01*
X113918033Y-100446429D01*
X113893756Y-100413346D01*
X113893129Y-100410712D01*
X113950634Y-100410712D01*
X113965438Y-100426550D01*
X113968394Y-100428444D01*
X114007835Y-100445830D01*
X114031993Y-100434031D01*
X114035396Y-100429042D01*
X114034546Y-100405783D01*
X114008421Y-100393314D01*
X113972343Y-100397704D01*
X113950634Y-100410712D01*
X113893129Y-100410712D01*
X113889692Y-100396274D01*
X113872786Y-100372403D01*
X113828944Y-100341742D01*
X113768479Y-100309308D01*
X113701703Y-100280121D01*
X113638931Y-100259198D01*
X113592288Y-100251547D01*
X113539536Y-100246492D01*
X113502191Y-100234743D01*
X113502026Y-100234639D01*
X113468162Y-100229867D01*
X113408427Y-100236728D01*
X113359678Y-100247287D01*
X113296658Y-100264012D01*
X113265445Y-100276686D01*
X113259824Y-100290267D01*
X113063708Y-100290267D01*
X113016124Y-100243846D01*
X112878965Y-100097518D01*
X112811039Y-100021536D01*
X112729241Y-99916028D01*
X112703423Y-99867858D01*
X112862204Y-99867858D01*
X112864010Y-99881723D01*
X112867376Y-99888173D01*
X112893006Y-99922760D01*
X112938076Y-99973300D01*
X112995932Y-100033363D01*
X113059922Y-100096519D01*
X113123391Y-100156337D01*
X113179686Y-100206388D01*
X113222153Y-100240240D01*
X113243365Y-100251550D01*
X113280868Y-100245909D01*
X113336447Y-100232215D01*
X113353928Y-100227127D01*
X113412007Y-100204473D01*
X113431356Y-100193231D01*
X113518462Y-100193231D01*
X113535182Y-100207918D01*
X113567308Y-100212769D01*
X113604026Y-100206081D01*
X113616154Y-100193231D01*
X113599433Y-100178543D01*
X113567308Y-100173692D01*
X113530589Y-100180381D01*
X113518462Y-100193231D01*
X113431356Y-100193231D01*
X113457301Y-100178158D01*
X113464828Y-100171650D01*
X113478035Y-100153755D01*
X113476675Y-100133833D01*
X113456734Y-100104794D01*
X113414195Y-100059554D01*
X113384564Y-100029996D01*
X113310114Y-99962756D01*
X113253929Y-99926954D01*
X113223841Y-99919692D01*
X113178718Y-99912694D01*
X113155597Y-99900705D01*
X113127922Y-99889730D01*
X113072625Y-99878458D01*
X113001079Y-99869150D01*
X112992701Y-99868342D01*
X112936105Y-99863635D01*
X113188634Y-99863635D01*
X113203438Y-99879473D01*
X113206394Y-99881367D01*
X113247180Y-99898000D01*
X113276951Y-99895003D01*
X113284000Y-99881769D01*
X113268130Y-99854176D01*
X113230984Y-99845868D01*
X113210343Y-99850628D01*
X113188634Y-99863635D01*
X112936105Y-99863635D01*
X112919620Y-99862264D01*
X112878430Y-99861737D01*
X112862204Y-99867858D01*
X112703423Y-99867858D01*
X112670716Y-99806838D01*
X112649892Y-99754321D01*
X112622707Y-99671124D01*
X112764055Y-99671124D01*
X112764492Y-99694291D01*
X112779749Y-99738275D01*
X112788512Y-99757385D01*
X112808691Y-99795679D01*
X112829701Y-99818780D01*
X112861972Y-99831757D01*
X112915932Y-99839677D01*
X112967893Y-99844542D01*
X113065222Y-99849200D01*
X113131319Y-99842372D01*
X113158862Y-99832452D01*
X113222397Y-99817079D01*
X113269816Y-99820636D01*
X113314391Y-99835799D01*
X113331256Y-99863335D01*
X113332846Y-99885594D01*
X113346723Y-99926941D01*
X113382477Y-99981031D01*
X113431294Y-100038326D01*
X113484358Y-100089287D01*
X113532856Y-100124376D01*
X113562973Y-100134616D01*
X113612402Y-100143877D01*
X113651904Y-100166312D01*
X113669114Y-100193896D01*
X113667832Y-100202666D01*
X113678166Y-100225464D01*
X113716347Y-100256097D01*
X113773205Y-100289878D01*
X113839570Y-100322124D01*
X113906271Y-100348150D01*
X113964139Y-100363270D01*
X113986129Y-100365278D01*
X114039818Y-100360005D01*
X114077882Y-100346997D01*
X114080192Y-100345301D01*
X114100900Y-100310112D01*
X114104615Y-100286702D01*
X114104758Y-100286390D01*
X114171322Y-100286390D01*
X114173834Y-100292273D01*
X114202683Y-100309114D01*
X114237868Y-100303942D01*
X114249888Y-100292971D01*
X114245212Y-100273877D01*
X114218755Y-100260305D01*
X114187761Y-100259748D01*
X114180687Y-100262902D01*
X114171322Y-100286390D01*
X114104758Y-100286390D01*
X114121437Y-100250183D01*
X114143692Y-100237969D01*
X114170145Y-100217333D01*
X114180795Y-100188388D01*
X114201378Y-100188388D01*
X114217754Y-100222312D01*
X114246269Y-100235834D01*
X114281558Y-100253231D01*
X114296601Y-100298048D01*
X114296761Y-100299412D01*
X114312725Y-100346511D01*
X114346725Y-100405985D01*
X114374915Y-100444301D01*
X114446538Y-100531855D01*
X114452341Y-100388794D01*
X114453927Y-100315176D01*
X114452666Y-100255439D01*
X114448838Y-100221642D01*
X114448408Y-100220365D01*
X114421798Y-100191396D01*
X114371903Y-100161107D01*
X114313655Y-100136325D01*
X114261988Y-100123879D01*
X114240273Y-100125199D01*
X114208596Y-100150679D01*
X114201378Y-100188388D01*
X114180795Y-100188388D01*
X114182825Y-100182871D01*
X114179703Y-100150130D01*
X114158745Y-100134657D01*
X114157196Y-100134616D01*
X114122027Y-100123801D01*
X114094433Y-100107422D01*
X114069527Y-100082325D01*
X114071337Y-100076000D01*
X114133923Y-100076000D01*
X114161481Y-100092414D01*
X114183922Y-100095539D01*
X114215040Y-100087134D01*
X114221846Y-100076000D01*
X114205091Y-100061437D01*
X114171847Y-100056462D01*
X114138604Y-100062664D01*
X114133923Y-100076000D01*
X114071337Y-100076000D01*
X114076698Y-100057267D01*
X114083322Y-100048807D01*
X114128579Y-100021663D01*
X114187277Y-100020666D01*
X114244905Y-100044659D01*
X114266741Y-100063429D01*
X114309859Y-100101063D01*
X114361565Y-100134895D01*
X114410522Y-100158827D01*
X114445396Y-100166760D01*
X114453221Y-100163753D01*
X114444145Y-100146778D01*
X114410758Y-100108220D01*
X114357590Y-100052864D01*
X114289172Y-99985493D01*
X114241879Y-99940537D01*
X114017717Y-99730141D01*
X113636204Y-99717415D01*
X113496868Y-99711938D01*
X113351198Y-99704783D01*
X113211259Y-99696638D01*
X113089113Y-99688192D01*
X113015312Y-99681968D01*
X112922640Y-99674171D01*
X112844656Y-99669493D01*
X112789269Y-99668276D01*
X112764386Y-99670860D01*
X112764055Y-99671124D01*
X112622707Y-99671124D01*
X112621204Y-99666526D01*
X112610808Y-99602722D01*
X112622095Y-99560372D01*
X112658456Y-99536940D01*
X112723281Y-99529889D01*
X112819962Y-99536685D01*
X112819962Y-99536685D01*
G37*
X112819962Y-99536685D02*
X112922538Y-99550389D01*
X112980308Y-99556512D01*
X113069965Y-99562992D01*
X113184328Y-99569451D01*
X113316213Y-99575515D01*
X113458438Y-99580808D01*
X113563651Y-99583942D01*
X114067995Y-99597308D01*
X114179113Y-99708117D01*
X114246249Y-99774279D01*
X114327382Y-99853091D01*
X114407999Y-99930481D01*
X114431001Y-99952348D01*
X114571772Y-100085769D01*
X114585182Y-100404136D01*
X114589985Y-100522552D01*
X114592402Y-100609902D01*
X114591709Y-100674160D01*
X114587180Y-100723303D01*
X114578089Y-100765305D01*
X114563713Y-100808140D01*
X114543882Y-100858405D01*
X114520112Y-100917051D01*
X114499339Y-100957043D01*
X114474210Y-100981028D01*
X114437374Y-100991650D01*
X114381479Y-100991555D01*
X114299172Y-100983389D01*
X114221846Y-100974280D01*
X114137988Y-100962378D01*
X114054680Y-100947271D01*
X114006923Y-100936455D01*
X113933259Y-100917272D01*
X113860303Y-100898319D01*
X113845102Y-100894378D01*
X113785340Y-100867217D01*
X113709047Y-100814533D01*
X113640350Y-100756647D01*
X113635066Y-100752158D01*
X113838243Y-100752158D01*
X113839011Y-100754755D01*
X113866624Y-100767385D01*
X113923215Y-100784064D01*
X113999165Y-100802728D01*
X114084855Y-100821316D01*
X114170666Y-100837764D01*
X114246980Y-100850009D01*
X114304178Y-100855989D01*
X114312283Y-100856250D01*
X114372181Y-100855229D01*
X114405834Y-100845988D01*
X114426023Y-100822242D01*
X114438818Y-100794039D01*
X114463460Y-100714062D01*
X114463456Y-100642445D01*
X114436621Y-100569445D01*
X114380773Y-100485317D01*
X114365175Y-100465351D01*
X114310580Y-100400067D01*
X114269601Y-100360885D01*
X114234178Y-100341391D01*
X114202025Y-100335483D01*
X114139570Y-100338455D01*
X114095638Y-100354046D01*
X114077741Y-100378167D01*
X114085497Y-100398891D01*
X114099012Y-100433700D01*
X114077797Y-100457766D01*
X114025664Y-100466769D01*
X114025554Y-100466769D01*
X113994895Y-100470276D01*
X113970009Y-100485595D01*
X113944304Y-100519926D01*
X113911183Y-100580470D01*
X113898453Y-100605541D01*
X113867031Y-100671569D01*
X113845767Y-100723440D01*
X113838243Y-100752158D01*
X113635066Y-100752158D01*
X113559462Y-100687937D01*
X113463395Y-100613049D01*
X113370375Y-100546077D01*
X113352786Y-100534240D01*
X113248971Y-100458363D01*
X113138105Y-100362846D01*
X113063708Y-100290267D01*
X113259824Y-100290267D01*
X113273580Y-100309715D01*
X113276850Y-100313356D01*
X113306058Y-100339443D01*
X113359241Y-100381466D01*
X113428238Y-100433130D01*
X113488657Y-100476693D01*
X113567706Y-100534431D01*
X113640466Y-100590613D01*
X113697415Y-100637723D01*
X113723461Y-100661993D01*
X113763507Y-100698818D01*
X113795014Y-100719282D01*
X113801231Y-100720769D01*
X113819807Y-100704480D01*
X113848614Y-100661590D01*
X113881697Y-100601063D01*
X113884532Y-100595360D01*
X113916146Y-100528217D01*
X113930663Y-100486539D01*
X113930031Y-100461668D01*
X113918033Y-100446429D01*
X113893756Y-100413346D01*
X113893129Y-100410712D01*
X113950634Y-100410712D01*
X113965438Y-100426550D01*
X113968394Y-100428444D01*
X114007835Y-100445830D01*
X114031993Y-100434031D01*
X114035396Y-100429042D01*
X114034546Y-100405783D01*
X114008421Y-100393314D01*
X113972343Y-100397704D01*
X113950634Y-100410712D01*
X113893129Y-100410712D01*
X113889692Y-100396274D01*
X113872786Y-100372403D01*
X113828944Y-100341742D01*
X113768479Y-100309308D01*
X113701703Y-100280121D01*
X113638931Y-100259198D01*
X113592288Y-100251547D01*
X113539536Y-100246492D01*
X113502191Y-100234743D01*
X113502026Y-100234639D01*
X113468162Y-100229867D01*
X113408427Y-100236728D01*
X113359678Y-100247287D01*
X113296658Y-100264012D01*
X113265445Y-100276686D01*
X113259824Y-100290267D01*
X113063708Y-100290267D01*
X113016124Y-100243846D01*
X112878965Y-100097518D01*
X112811039Y-100021536D01*
X112729241Y-99916028D01*
X112703423Y-99867858D01*
X112862204Y-99867858D01*
X112864010Y-99881723D01*
X112867376Y-99888173D01*
X112893006Y-99922760D01*
X112938076Y-99973300D01*
X112995932Y-100033363D01*
X113059922Y-100096519D01*
X113123391Y-100156337D01*
X113179686Y-100206388D01*
X113222153Y-100240240D01*
X113243365Y-100251550D01*
X113280868Y-100245909D01*
X113336447Y-100232215D01*
X113353928Y-100227127D01*
X113412007Y-100204473D01*
X113431356Y-100193231D01*
X113518462Y-100193231D01*
X113535182Y-100207918D01*
X113567308Y-100212769D01*
X113604026Y-100206081D01*
X113616154Y-100193231D01*
X113599433Y-100178543D01*
X113567308Y-100173692D01*
X113530589Y-100180381D01*
X113518462Y-100193231D01*
X113431356Y-100193231D01*
X113457301Y-100178158D01*
X113464828Y-100171650D01*
X113478035Y-100153755D01*
X113476675Y-100133833D01*
X113456734Y-100104794D01*
X113414195Y-100059554D01*
X113384564Y-100029996D01*
X113310114Y-99962756D01*
X113253929Y-99926954D01*
X113223841Y-99919692D01*
X113178718Y-99912694D01*
X113155597Y-99900705D01*
X113127922Y-99889730D01*
X113072625Y-99878458D01*
X113001079Y-99869150D01*
X112992701Y-99868342D01*
X112936105Y-99863635D01*
X113188634Y-99863635D01*
X113203438Y-99879473D01*
X113206394Y-99881367D01*
X113247180Y-99898000D01*
X113276951Y-99895003D01*
X113284000Y-99881769D01*
X113268130Y-99854176D01*
X113230984Y-99845868D01*
X113210343Y-99850628D01*
X113188634Y-99863635D01*
X112936105Y-99863635D01*
X112919620Y-99862264D01*
X112878430Y-99861737D01*
X112862204Y-99867858D01*
X112703423Y-99867858D01*
X112670716Y-99806838D01*
X112649892Y-99754321D01*
X112622707Y-99671124D01*
X112764055Y-99671124D01*
X112764492Y-99694291D01*
X112779749Y-99738275D01*
X112788512Y-99757385D01*
X112808691Y-99795679D01*
X112829701Y-99818780D01*
X112861972Y-99831757D01*
X112915932Y-99839677D01*
X112967893Y-99844542D01*
X113065222Y-99849200D01*
X113131319Y-99842372D01*
X113158862Y-99832452D01*
X113222397Y-99817079D01*
X113269816Y-99820636D01*
X113314391Y-99835799D01*
X113331256Y-99863335D01*
X113332846Y-99885594D01*
X113346723Y-99926941D01*
X113382477Y-99981031D01*
X113431294Y-100038326D01*
X113484358Y-100089287D01*
X113532856Y-100124376D01*
X113562973Y-100134616D01*
X113612402Y-100143877D01*
X113651904Y-100166312D01*
X113669114Y-100193896D01*
X113667832Y-100202666D01*
X113678166Y-100225464D01*
X113716347Y-100256097D01*
X113773205Y-100289878D01*
X113839570Y-100322124D01*
X113906271Y-100348150D01*
X113964139Y-100363270D01*
X113986129Y-100365278D01*
X114039818Y-100360005D01*
X114077882Y-100346997D01*
X114080192Y-100345301D01*
X114100900Y-100310112D01*
X114104615Y-100286702D01*
X114104758Y-100286390D01*
X114171322Y-100286390D01*
X114173834Y-100292273D01*
X114202683Y-100309114D01*
X114237868Y-100303942D01*
X114249888Y-100292971D01*
X114245212Y-100273877D01*
X114218755Y-100260305D01*
X114187761Y-100259748D01*
X114180687Y-100262902D01*
X114171322Y-100286390D01*
X114104758Y-100286390D01*
X114121437Y-100250183D01*
X114143692Y-100237969D01*
X114170145Y-100217333D01*
X114180795Y-100188388D01*
X114201378Y-100188388D01*
X114217754Y-100222312D01*
X114246269Y-100235834D01*
X114281558Y-100253231D01*
X114296601Y-100298048D01*
X114296761Y-100299412D01*
X114312725Y-100346511D01*
X114346725Y-100405985D01*
X114374915Y-100444301D01*
X114446538Y-100531855D01*
X114452341Y-100388794D01*
X114453927Y-100315176D01*
X114452666Y-100255439D01*
X114448838Y-100221642D01*
X114448408Y-100220365D01*
X114421798Y-100191396D01*
X114371903Y-100161107D01*
X114313655Y-100136325D01*
X114261988Y-100123879D01*
X114240273Y-100125199D01*
X114208596Y-100150679D01*
X114201378Y-100188388D01*
X114180795Y-100188388D01*
X114182825Y-100182871D01*
X114179703Y-100150130D01*
X114158745Y-100134657D01*
X114157196Y-100134616D01*
X114122027Y-100123801D01*
X114094433Y-100107422D01*
X114069527Y-100082325D01*
X114071337Y-100076000D01*
X114133923Y-100076000D01*
X114161481Y-100092414D01*
X114183922Y-100095539D01*
X114215040Y-100087134D01*
X114221846Y-100076000D01*
X114205091Y-100061437D01*
X114171847Y-100056462D01*
X114138604Y-100062664D01*
X114133923Y-100076000D01*
X114071337Y-100076000D01*
X114076698Y-100057267D01*
X114083322Y-100048807D01*
X114128579Y-100021663D01*
X114187277Y-100020666D01*
X114244905Y-100044659D01*
X114266741Y-100063429D01*
X114309859Y-100101063D01*
X114361565Y-100134895D01*
X114410522Y-100158827D01*
X114445396Y-100166760D01*
X114453221Y-100163753D01*
X114444145Y-100146778D01*
X114410758Y-100108220D01*
X114357590Y-100052864D01*
X114289172Y-99985493D01*
X114241879Y-99940537D01*
X114017717Y-99730141D01*
X113636204Y-99717415D01*
X113496868Y-99711938D01*
X113351198Y-99704783D01*
X113211259Y-99696638D01*
X113089113Y-99688192D01*
X113015312Y-99681968D01*
X112922640Y-99674171D01*
X112844656Y-99669493D01*
X112789269Y-99668276D01*
X112764386Y-99670860D01*
X112764055Y-99671124D01*
X112622707Y-99671124D01*
X112621204Y-99666526D01*
X112610808Y-99602722D01*
X112622095Y-99560372D01*
X112658456Y-99536940D01*
X112723281Y-99529889D01*
X112819962Y-99536685D01*
G36*
X115744483Y-96267996D02*
X115806843Y-96286680D01*
X115848091Y-96310256D01*
X115882154Y-96349491D01*
X115912858Y-96398164D01*
X115939138Y-96444547D01*
X115957228Y-96486273D01*
X115969184Y-96532955D01*
X115977065Y-96594208D01*
X115982927Y-96679647D01*
X115986020Y-96740087D01*
X115994825Y-96875967D01*
X116008393Y-96997653D01*
X116028794Y-97115041D01*
X116058095Y-97238025D01*
X116098366Y-97376500D01*
X116151674Y-97540361D01*
X116155973Y-97553117D01*
X116206870Y-97715117D01*
X116239548Y-97848101D01*
X116254579Y-97957317D01*
X116252539Y-98048010D01*
X116234001Y-98125425D01*
X116221789Y-98154496D01*
X116196980Y-98197203D01*
X116161981Y-98237350D01*
X116111363Y-98279058D01*
X116039691Y-98326449D01*
X115941536Y-98383646D01*
X115862311Y-98427301D01*
X115753424Y-98487817D01*
X115647180Y-98549966D01*
X115537848Y-98617453D01*
X115419696Y-98693982D01*
X115286992Y-98783258D01*
X115134006Y-98888987D01*
X114973034Y-99002123D01*
X114845278Y-99091383D01*
X114743087Y-99160093D01*
X114661032Y-99211498D01*
X114593680Y-99248844D01*
X114535600Y-99275374D01*
X114486484Y-99292773D01*
X114420495Y-99312310D01*
X114371279Y-99325285D01*
X114348556Y-99329158D01*
X114348105Y-99328937D01*
X114349540Y-99308958D01*
X114356269Y-99256474D01*
X114367432Y-99177568D01*
X114371945Y-99147170D01*
X114496969Y-99147170D01*
X114502283Y-99151170D01*
X114519811Y-99128385D01*
X114535988Y-99101051D01*
X114567380Y-99043963D01*
X114611324Y-98962114D01*
X114665159Y-98860498D01*
X114726222Y-98744108D01*
X114790161Y-98621204D01*
X114855046Y-98494933D01*
X114914111Y-98378005D01*
X114964874Y-98275495D01*
X115004852Y-98192477D01*
X115031562Y-98134025D01*
X115042462Y-98105525D01*
X115055137Y-98080058D01*
X115105330Y-98080058D01*
X115111101Y-98099471D01*
X115131400Y-98099597D01*
X115165666Y-98080858D01*
X115174977Y-98066557D01*
X115169206Y-98047145D01*
X115148908Y-98047019D01*
X115114641Y-98065758D01*
X115105330Y-98080058D01*
X115055137Y-98080058D01*
X115065327Y-98059584D01*
X115091308Y-98036320D01*
X115122826Y-98016135D01*
X115143755Y-97991430D01*
X115159003Y-97952145D01*
X115173480Y-97888214D01*
X115179932Y-97854670D01*
X115191708Y-97779941D01*
X115192365Y-97733315D01*
X115181918Y-97705438D01*
X115180169Y-97703208D01*
X115169151Y-97676104D01*
X115176043Y-97664551D01*
X115220581Y-97664551D01*
X115228897Y-97671330D01*
X115251347Y-97672148D01*
X115290333Y-97665246D01*
X115305396Y-97654581D01*
X115308030Y-97631818D01*
X115286374Y-97625782D01*
X115252431Y-97638704D01*
X115245609Y-97643466D01*
X115220581Y-97664551D01*
X115176043Y-97664551D01*
X115187585Y-97645206D01*
X115195869Y-97636593D01*
X115213658Y-97607303D01*
X115694184Y-97607303D01*
X115714436Y-97613993D01*
X115723915Y-97614154D01*
X115757604Y-97602487D01*
X115765385Y-97584846D01*
X115756106Y-97558827D01*
X115748238Y-97555539D01*
X115722775Y-97568906D01*
X115706769Y-97584846D01*
X115694184Y-97607303D01*
X115213658Y-97607303D01*
X115220455Y-97596112D01*
X115241091Y-97534761D01*
X115255483Y-97465290D01*
X115261336Y-97400447D01*
X115256357Y-97352983D01*
X115249253Y-97339917D01*
X115243722Y-97316222D01*
X115245270Y-97314226D01*
X115303415Y-97314226D01*
X115323667Y-97320916D01*
X115333146Y-97321077D01*
X115366835Y-97309410D01*
X115374615Y-97291769D01*
X115365337Y-97265750D01*
X115357469Y-97262462D01*
X115332006Y-97275829D01*
X115316000Y-97291769D01*
X115303415Y-97314226D01*
X115245270Y-97314226D01*
X115269747Y-97282679D01*
X115281549Y-97272031D01*
X115314869Y-97230107D01*
X115353333Y-97162567D01*
X115391630Y-97081450D01*
X115424450Y-96998793D01*
X115446480Y-96926633D01*
X115452769Y-96883981D01*
X115470532Y-96829597D01*
X115535177Y-96829597D01*
X115540947Y-96849009D01*
X115561246Y-96849135D01*
X115595512Y-96830396D01*
X115604823Y-96816096D01*
X115599052Y-96796683D01*
X115578754Y-96796557D01*
X115544488Y-96815296D01*
X115535177Y-96829597D01*
X115470532Y-96829597D01*
X115470947Y-96828328D01*
X115521039Y-96785016D01*
X115585635Y-96762081D01*
X115633119Y-96758415D01*
X115656592Y-96774672D01*
X115659808Y-96781636D01*
X115658071Y-96825145D01*
X115620049Y-96863574D01*
X115550719Y-96893462D01*
X115513634Y-96906985D01*
X115486831Y-96926647D01*
X115463914Y-96960960D01*
X115438490Y-97018433D01*
X115418830Y-97068993D01*
X115360201Y-97222575D01*
X115425030Y-97234737D01*
X115477374Y-97236533D01*
X115482472Y-97235125D01*
X115612221Y-97235125D01*
X115624466Y-97242466D01*
X115642814Y-97242923D01*
X115681536Y-97235393D01*
X115696166Y-97224735D01*
X115698095Y-97201404D01*
X115676616Y-97192516D01*
X115645664Y-97201001D01*
X115632323Y-97211304D01*
X115612221Y-97235125D01*
X115482472Y-97235125D01*
X115537371Y-97219963D01*
X115598198Y-97192042D01*
X115662176Y-97162165D01*
X115701841Y-97151221D01*
X115725868Y-97157194D01*
X115730638Y-97161284D01*
X115742678Y-97193993D01*
X115725685Y-97228523D01*
X115688786Y-97258273D01*
X115641106Y-97276641D01*
X115591772Y-97277027D01*
X115577171Y-97272294D01*
X115521055Y-97260756D01*
X115465947Y-97268143D01*
X115428721Y-97291858D01*
X115426351Y-97295511D01*
X115397972Y-97322294D01*
X115350413Y-97349387D01*
X115343312Y-97352478D01*
X115297724Y-97377439D01*
X115279320Y-97409895D01*
X115276656Y-97443455D01*
X115273141Y-97501544D01*
X115265703Y-97546467D01*
X115263364Y-97568642D01*
X115274372Y-97583569D01*
X115304598Y-97592624D01*
X115359911Y-97597182D01*
X115446184Y-97598622D01*
X115488235Y-97598637D01*
X115580388Y-97594701D01*
X115639354Y-97582716D01*
X115664081Y-97568706D01*
X115714518Y-97536142D01*
X115765284Y-97522982D01*
X115804381Y-97530947D01*
X115817307Y-97546740D01*
X115814594Y-97585195D01*
X115784375Y-97619269D01*
X115738202Y-97643445D01*
X115687630Y-97652210D01*
X115644212Y-97640047D01*
X115636016Y-97633277D01*
X115605694Y-97624723D01*
X115549971Y-97624998D01*
X115481067Y-97632364D01*
X115411202Y-97645083D01*
X115352597Y-97661418D01*
X115318848Y-97678384D01*
X115277262Y-97706644D01*
X115255010Y-97717069D01*
X115230608Y-97745495D01*
X115208520Y-97812522D01*
X115198882Y-97857786D01*
X115186705Y-97927673D01*
X115183631Y-97969833D01*
X115190469Y-97994725D01*
X115208025Y-98012808D01*
X115211026Y-98015120D01*
X115248070Y-98034062D01*
X115269244Y-98035366D01*
X115297326Y-98030590D01*
X115354345Y-98024133D01*
X115430258Y-98017071D01*
X115470145Y-98013808D01*
X115575339Y-98002508D01*
X115587892Y-97999824D01*
X115730078Y-97999824D01*
X115746357Y-98004153D01*
X115764789Y-98001915D01*
X115803866Y-97987540D01*
X115819213Y-97970731D01*
X115814644Y-97950163D01*
X115789795Y-97948394D01*
X115757958Y-97964225D01*
X115744289Y-97977492D01*
X115730078Y-97999824D01*
X115587892Y-97999824D01*
X115647304Y-97987121D01*
X115691788Y-97966383D01*
X115694289Y-97964488D01*
X115747389Y-97932737D01*
X115791168Y-97916139D01*
X115837889Y-97916235D01*
X115859609Y-97939297D01*
X115852950Y-97975744D01*
X115823879Y-98008950D01*
X115786271Y-98031432D01*
X115739956Y-98038515D01*
X115678967Y-98034012D01*
X115602885Y-98029990D01*
X115512162Y-98032846D01*
X115416944Y-98041328D01*
X115327379Y-98054182D01*
X115253614Y-98070154D01*
X115205795Y-98087992D01*
X115198151Y-98093406D01*
X115152486Y-98122455D01*
X115111095Y-98138530D01*
X115093008Y-98146950D01*
X115072740Y-98165222D01*
X115047964Y-98197123D01*
X115016350Y-98246431D01*
X114975571Y-98316924D01*
X114923297Y-98412379D01*
X114857200Y-98536574D01*
X114807719Y-98630690D01*
X114742668Y-98755659D01*
X114684515Y-98869054D01*
X114635498Y-98966376D01*
X114597851Y-99043127D01*
X114573811Y-99094811D01*
X114565614Y-99116929D01*
X114565757Y-99117347D01*
X114584203Y-99110382D01*
X114627432Y-99084842D01*
X114688534Y-99045011D01*
X114744918Y-99006244D01*
X114932972Y-98875600D01*
X115117976Y-98749673D01*
X115294942Y-98631722D01*
X115458883Y-98525007D01*
X115604812Y-98432788D01*
X115727739Y-98358324D01*
X115796145Y-98319219D01*
X115885028Y-98267940D01*
X115966369Y-98216963D01*
X116031079Y-98172240D01*
X116069683Y-98140126D01*
X116106294Y-98088326D01*
X116125726Y-98024152D01*
X116127690Y-97943092D01*
X116111895Y-97840635D01*
X116078052Y-97712268D01*
X116033382Y-97575077D01*
X115979047Y-97411099D01*
X115938291Y-97269751D01*
X115908393Y-97138150D01*
X115886630Y-97003410D01*
X115870282Y-96852648D01*
X115863591Y-96771224D01*
X115854733Y-96663702D01*
X115846136Y-96587187D01*
X115836068Y-96533659D01*
X115822795Y-96495099D01*
X115804586Y-96463487D01*
X115793960Y-96448918D01*
X115749130Y-96404763D01*
X115699388Y-96385689D01*
X115643119Y-96393005D01*
X115578706Y-96428021D01*
X115504536Y-96492046D01*
X115418993Y-96586389D01*
X115320462Y-96712359D01*
X115207328Y-96871265D01*
X115127798Y-96988923D01*
X115078430Y-97072199D01*
X115021402Y-97185585D01*
X114955696Y-97331274D01*
X114880292Y-97511458D01*
X114850714Y-97584846D01*
X114671133Y-98034231D01*
X114592702Y-98542231D01*
X114571101Y-98681637D01*
X114550915Y-98810961D01*
X114533068Y-98924357D01*
X114518485Y-99015978D01*
X114508089Y-99079980D01*
X114503131Y-99108846D01*
X114496969Y-99147170D01*
X114371945Y-99147170D01*
X114382168Y-99078326D01*
X114399614Y-98964830D01*
X114399981Y-98962478D01*
X114417464Y-98847713D01*
X114432107Y-98746064D01*
X114443059Y-98663892D01*
X114449475Y-98607562D01*
X114450505Y-98583438D01*
X114450503Y-98583431D01*
X114438361Y-98589292D01*
X114411510Y-98622406D01*
X114374252Y-98675887D01*
X114330888Y-98742845D01*
X114285721Y-98816394D01*
X114243050Y-98889645D01*
X114207177Y-98955711D01*
X114182405Y-99007705D01*
X114177286Y-99020923D01*
X114155803Y-99091977D01*
X114139780Y-99162021D01*
X114136942Y-99179673D01*
X114133211Y-99226446D01*
X114143538Y-99246264D01*
X114174325Y-99250494D01*
X114176847Y-99250500D01*
X114225144Y-99262142D01*
X114251958Y-99300268D01*
X114260613Y-99369678D01*
X114260624Y-99371417D01*
X114264322Y-99406333D01*
X114278726Y-99439202D01*
X114309316Y-99477549D01*
X114361572Y-99528898D01*
X114402577Y-99566350D01*
X114530082Y-99683718D01*
X114635814Y-99787345D01*
X114729010Y-99887260D01*
X114818910Y-99993494D01*
X114914755Y-100116079D01*
X114941330Y-100151258D01*
X115010713Y-100244349D01*
X115059562Y-100312764D01*
X115091265Y-100362726D01*
X115109208Y-100400459D01*
X115116778Y-100432186D01*
X115117361Y-100464131D01*
X115116757Y-100473642D01*
X115109731Y-100526106D01*
X115094034Y-100550900D01*
X115062403Y-100559408D01*
X115062000Y-100559447D01*
X115009280Y-100554934D01*
X114977781Y-100543162D01*
X114954325Y-100519470D01*
X114915199Y-100469547D01*
X114865489Y-100400271D01*
X114810278Y-100318519D01*
X114799531Y-100302058D01*
X114733078Y-100202580D01*
X114677055Y-100127267D01*
X114622745Y-100066222D01*
X114561429Y-100009548D01*
X114492980Y-99954046D01*
X114385583Y-99865486D01*
X114284938Y-99773932D01*
X114196643Y-99685158D01*
X114126298Y-99604941D01*
X114079501Y-99539055D01*
X114067345Y-99514959D01*
X114048544Y-99474682D01*
X114032713Y-99466067D01*
X114010323Y-99483655D01*
X113995501Y-99494482D01*
X113972466Y-99502059D01*
X113935776Y-99506616D01*
X113879988Y-99508388D01*
X113799657Y-99507606D01*
X113689343Y-99504501D01*
X113597215Y-99501285D01*
X113448536Y-99495144D01*
X113284669Y-99487159D01*
X113120575Y-99478135D01*
X112971212Y-99468877D01*
X112891833Y-99463318D01*
X112743224Y-99450912D01*
X112624930Y-99435866D01*
X112528742Y-99414270D01*
X112446451Y-99382215D01*
X112369847Y-99335793D01*
X112290723Y-99271096D01*
X112200869Y-99184214D01*
X112111692Y-99091857D01*
X112043260Y-99020793D01*
X111952239Y-98927429D01*
X111843780Y-98816988D01*
X111723034Y-98694691D01*
X111595154Y-98565760D01*
X111465290Y-98435416D01*
X111377259Y-98347423D01*
X111233844Y-98203626D01*
X111116790Y-98084589D01*
X111024123Y-97988163D01*
X110953867Y-97912198D01*
X110904050Y-97854545D01*
X110884283Y-97828386D01*
X111047196Y-97828386D01*
X111525713Y-98313334D01*
X111648469Y-98437943D01*
X111771786Y-98563493D01*
X111890595Y-98684799D01*
X111999831Y-98796675D01*
X112094427Y-98893936D01*
X112169315Y-98971397D01*
X112199615Y-99002998D01*
X112299293Y-99105364D01*
X112382581Y-99183133D01*
X112457849Y-99240158D01*
X112533470Y-99280294D01*
X112617813Y-99307393D01*
X112719251Y-99325308D01*
X112846154Y-99337894D01*
X112942077Y-99344762D01*
X113064621Y-99352224D01*
X113191116Y-99358658D01*
X113315806Y-99363912D01*
X113432930Y-99367835D01*
X113536732Y-99370273D01*
X113621453Y-99371076D01*
X113681335Y-99370089D01*
X113710619Y-99367163D01*
X113712218Y-99365113D01*
X113682255Y-99347561D01*
X113622957Y-99320335D01*
X113541985Y-99286347D01*
X113446999Y-99248511D01*
X113345659Y-99209739D01*
X113245624Y-99172944D01*
X113154555Y-99141037D01*
X113080112Y-99116933D01*
X113029955Y-99103543D01*
X113020231Y-99101991D01*
X112943111Y-99096768D01*
X112845637Y-99093916D01*
X112738588Y-99093330D01*
X112632747Y-99094905D01*
X112538894Y-99098533D01*
X112467811Y-99104109D01*
X112443846Y-99107659D01*
X112382556Y-99110570D01*
X112337029Y-99096198D01*
X112314745Y-99069413D01*
X112317059Y-99060000D01*
X112365692Y-99060000D01*
X112382413Y-99074688D01*
X112414538Y-99079539D01*
X112451257Y-99072850D01*
X112463385Y-99060000D01*
X112456902Y-99054305D01*
X112959795Y-99054305D01*
X112962450Y-99061350D01*
X112986662Y-99077177D01*
X113016047Y-99076947D01*
X113030000Y-99061153D01*
X113014555Y-99033912D01*
X112982653Y-99026447D01*
X112971066Y-99030889D01*
X112959795Y-99054305D01*
X112456902Y-99054305D01*
X112446664Y-99045313D01*
X112414538Y-99040462D01*
X112377820Y-99047150D01*
X112365692Y-99060000D01*
X112317059Y-99060000D01*
X112323186Y-99035086D01*
X112326267Y-99031113D01*
X112357532Y-99009209D01*
X112405501Y-99008351D01*
X112423221Y-99011352D01*
X112483220Y-99019939D01*
X112560143Y-99026845D01*
X112645199Y-99031818D01*
X112729593Y-99034607D01*
X112804532Y-99034963D01*
X112861222Y-99032634D01*
X112890870Y-99027368D01*
X112893231Y-99024762D01*
X112877734Y-99005746D01*
X112836638Y-98972839D01*
X112778034Y-98931241D01*
X112710014Y-98886152D01*
X112640669Y-98842771D01*
X112578090Y-98806299D01*
X112530369Y-98781935D01*
X112505597Y-98774878D01*
X112504878Y-98775199D01*
X112476147Y-98776447D01*
X112426117Y-98765689D01*
X112401182Y-98757789D01*
X112314264Y-98733778D01*
X112252268Y-98730188D01*
X112219238Y-98747249D01*
X112219154Y-98747385D01*
X112191535Y-98761492D01*
X112142566Y-98766620D01*
X112089118Y-98761930D01*
X112064444Y-98755064D01*
X112038889Y-98730388D01*
X112036378Y-98705321D01*
X112092154Y-98705321D01*
X112108190Y-98728935D01*
X112142290Y-98741308D01*
X112157119Y-98740383D01*
X112171507Y-98722436D01*
X112412265Y-98722436D01*
X112414453Y-98727708D01*
X112439187Y-98743314D01*
X112473811Y-98746569D01*
X112499172Y-98737192D01*
X112502462Y-98728999D01*
X112488211Y-98702680D01*
X112481987Y-98697960D01*
X112451049Y-98692155D01*
X112422321Y-98702731D01*
X112412265Y-98722436D01*
X112171507Y-98722436D01*
X112172375Y-98721354D01*
X112172547Y-98717589D01*
X112157498Y-98700437D01*
X112126633Y-98692000D01*
X112099138Y-98695205D01*
X112092154Y-98705321D01*
X112036378Y-98705321D01*
X112035477Y-98696333D01*
X112053560Y-98670442D01*
X112067731Y-98666192D01*
X112134668Y-98666171D01*
X112191135Y-98676345D01*
X112218177Y-98690096D01*
X112250959Y-98703988D01*
X112297807Y-98707721D01*
X112339347Y-98701170D01*
X112354558Y-98690977D01*
X112345438Y-98671727D01*
X112311149Y-98637816D01*
X112259731Y-98595179D01*
X112199225Y-98549750D01*
X112137670Y-98507464D01*
X112083108Y-98474254D01*
X112043578Y-98456055D01*
X112033891Y-98454308D01*
X111984241Y-98443946D01*
X111956212Y-98430752D01*
X111921945Y-98418179D01*
X111889223Y-98434100D01*
X111879105Y-98442842D01*
X111834245Y-98463930D01*
X111777487Y-98467251D01*
X111724342Y-98454499D01*
X111690318Y-98427366D01*
X111687741Y-98421950D01*
X111688033Y-98415231D01*
X111740462Y-98415231D01*
X111757182Y-98429918D01*
X111789308Y-98434769D01*
X111826026Y-98428081D01*
X111838154Y-98415231D01*
X111821433Y-98400543D01*
X111789308Y-98395692D01*
X111752589Y-98402381D01*
X111740462Y-98415231D01*
X111688033Y-98415231D01*
X111689013Y-98392705D01*
X111994462Y-98392705D01*
X112010498Y-98416320D01*
X112044597Y-98428693D01*
X112059427Y-98427768D01*
X112074682Y-98408739D01*
X112074855Y-98404973D01*
X112059806Y-98387822D01*
X112028941Y-98379385D01*
X112001446Y-98382589D01*
X111994462Y-98392705D01*
X111689013Y-98392705D01*
X111689238Y-98387546D01*
X111721539Y-98367678D01*
X111778779Y-98363374D01*
X111855095Y-98375662D01*
X111891885Y-98386165D01*
X111927411Y-98390017D01*
X111935846Y-98378678D01*
X111918983Y-98357582D01*
X111874881Y-98328407D01*
X111813274Y-98295731D01*
X111743893Y-98264132D01*
X111676470Y-98238186D01*
X111620739Y-98222471D01*
X111598145Y-98219846D01*
X111540879Y-98211768D01*
X111495818Y-98192653D01*
X111470911Y-98167556D01*
X111472721Y-98161231D01*
X111525538Y-98161231D01*
X111542259Y-98175918D01*
X111574385Y-98180769D01*
X111611103Y-98174081D01*
X111623231Y-98161231D01*
X111606510Y-98146543D01*
X111574385Y-98141692D01*
X111537666Y-98148381D01*
X111525538Y-98161231D01*
X111472721Y-98161231D01*
X111478082Y-98142498D01*
X111484707Y-98134037D01*
X111523953Y-98110136D01*
X111576472Y-98104773D01*
X111629055Y-98115489D01*
X111668496Y-98139826D01*
X111681846Y-98170731D01*
X111698197Y-98193655D01*
X111740785Y-98226421D01*
X111799908Y-98263525D01*
X111865867Y-98299458D01*
X111928963Y-98328713D01*
X111979496Y-98345785D01*
X111994037Y-98347970D01*
X112067070Y-98352670D01*
X112110246Y-98359012D01*
X112132776Y-98369440D01*
X112143873Y-98386399D01*
X112144460Y-98387895D01*
X112142611Y-98422323D01*
X112131695Y-98434483D01*
X112131911Y-98452773D01*
X112158966Y-98484814D01*
X112205554Y-98525359D01*
X112264366Y-98569160D01*
X112328093Y-98610971D01*
X112389427Y-98645544D01*
X112441061Y-98667632D01*
X112463385Y-98672628D01*
X112522032Y-98688832D01*
X112550300Y-98721205D01*
X112577932Y-98755536D01*
X112631510Y-98801508D01*
X112702040Y-98853267D01*
X112780528Y-98904957D01*
X112857979Y-98950723D01*
X112925400Y-98984708D01*
X112973797Y-99001057D01*
X112981154Y-99001707D01*
X113047040Y-99010947D01*
X113083622Y-99039896D01*
X113091053Y-99056562D01*
X113111585Y-99074589D01*
X113160373Y-99102634D01*
X113229336Y-99136349D01*
X113284482Y-99160655D01*
X113417436Y-99216473D01*
X113517424Y-99257570D01*
X113587229Y-99285002D01*
X113629635Y-99299827D01*
X113647426Y-99303102D01*
X113645462Y-99297776D01*
X113617018Y-99275256D01*
X113559892Y-99234288D01*
X113478233Y-99177615D01*
X113434994Y-99148108D01*
X113681149Y-99148108D01*
X113698932Y-99172617D01*
X113751917Y-99214074D01*
X113807985Y-99251882D01*
X113879258Y-99300632D01*
X113938791Y-99345868D01*
X113978135Y-99380947D01*
X113988114Y-99393517D01*
X114009884Y-99426768D01*
X114018007Y-99424788D01*
X114009619Y-99389908D01*
X114005713Y-99379203D01*
X113996131Y-99328246D01*
X114005930Y-99307178D01*
X114012807Y-99278509D01*
X113984480Y-99245297D01*
X113924177Y-99210064D01*
X113838881Y-99176577D01*
X113751136Y-99150058D01*
X113698554Y-99140578D01*
X113681149Y-99148108D01*
X113434994Y-99148108D01*
X113376191Y-99107981D01*
X113257916Y-99028129D01*
X113127557Y-98940803D01*
X112989263Y-98848745D01*
X112847185Y-98754699D01*
X112705472Y-98661409D01*
X112568274Y-98571618D01*
X112439739Y-98488069D01*
X112324019Y-98413506D01*
X112225261Y-98350672D01*
X112147617Y-98302310D01*
X112095235Y-98271164D01*
X112081030Y-98263505D01*
X111981229Y-98214917D01*
X111864346Y-98160210D01*
X111737227Y-98102370D01*
X111606717Y-98044381D01*
X111479663Y-97989226D01*
X111362909Y-97939891D01*
X111263303Y-97899358D01*
X111187689Y-97870613D01*
X111154482Y-97859615D01*
X111047196Y-97828386D01*
X110884283Y-97828386D01*
X110872696Y-97813053D01*
X110857832Y-97785574D01*
X110856390Y-97780281D01*
X110855463Y-97729450D01*
X110880557Y-97701980D01*
X110936882Y-97692733D01*
X110945297Y-97692607D01*
X111013336Y-97697668D01*
X111095664Y-97714357D01*
X111195820Y-97743911D01*
X111317339Y-97787570D01*
X111463759Y-97846572D01*
X111638617Y-97922156D01*
X111773160Y-97982563D01*
X111909117Y-98044472D01*
X112022010Y-98096707D01*
X112117976Y-98142780D01*
X112203149Y-98186202D01*
X112283668Y-98230487D01*
X112365668Y-98279147D01*
X112455285Y-98335692D01*
X112558657Y-98403637D01*
X112681919Y-98486492D01*
X112831208Y-98587770D01*
X112834615Y-98590085D01*
X112971902Y-98683445D01*
X113104225Y-98773588D01*
X113226738Y-98857200D01*
X113334598Y-98930971D01*
X113422959Y-98991586D01*
X113486976Y-99035735D01*
X113513254Y-99054044D01*
X113568714Y-99090484D01*
X113607820Y-99111204D01*
X113623956Y-99112870D01*
X113623510Y-99109603D01*
X113617339Y-99091095D01*
X113622074Y-99082455D01*
X113645391Y-99083144D01*
X113694970Y-99092623D01*
X113737307Y-99101622D01*
X113829119Y-99126244D01*
X113917642Y-99158706D01*
X113993174Y-99194629D01*
X114046010Y-99229635D01*
X114062855Y-99248501D01*
X114080159Y-99273166D01*
X114085988Y-99274923D01*
X114089084Y-99251229D01*
X114094460Y-99202772D01*
X114097134Y-99177231D01*
X114116674Y-99065785D01*
X114154153Y-98956131D01*
X114213505Y-98838954D01*
X114292994Y-98713269D01*
X114342828Y-98637176D01*
X114383131Y-98570707D01*
X114409369Y-98521665D01*
X114417231Y-98499359D01*
X114405204Y-98457074D01*
X114375699Y-98402507D01*
X114338583Y-98351296D01*
X114303719Y-98319077D01*
X114303366Y-98318876D01*
X114282500Y-98297655D01*
X114292493Y-98278393D01*
X114318113Y-98275925D01*
X114353312Y-98300541D01*
X114391499Y-98343748D01*
X114426086Y-98397054D01*
X114450482Y-98451968D01*
X114458254Y-98492017D01*
X114461746Y-98499094D01*
X114470075Y-98472257D01*
X114482162Y-98416218D01*
X114496928Y-98335690D01*
X114504895Y-98288231D01*
X114525805Y-98161838D01*
X114542723Y-98066093D01*
X114557699Y-97993039D01*
X114572781Y-97934717D01*
X114590018Y-97883169D01*
X114611459Y-97830436D01*
X114638069Y-97770936D01*
X114665905Y-97706796D01*
X114703328Y-97616281D01*
X114746204Y-97509603D01*
X114790398Y-97396976D01*
X114808509Y-97349960D01*
X114848438Y-97247350D01*
X114883290Y-97163868D01*
X114917635Y-97091302D01*
X114956040Y-97021437D01*
X115003077Y-96946061D01*
X115063314Y-96856960D01*
X115141320Y-96745921D01*
X115156352Y-96724729D01*
X115238077Y-96610444D01*
X115302328Y-96523277D01*
X115353644Y-96458061D01*
X115396565Y-96409630D01*
X115435633Y-96372817D01*
X115475386Y-96342453D01*
X115514740Y-96316842D01*
X115637645Y-96240685D01*
X115744483Y-96267996D01*
X115744483Y-96267996D01*
G37*
X115744483Y-96267996D02*
X115806843Y-96286680D01*
X115848091Y-96310256D01*
X115882154Y-96349491D01*
X115912858Y-96398164D01*
X115939138Y-96444547D01*
X115957228Y-96486273D01*
X115969184Y-96532955D01*
X115977065Y-96594208D01*
X115982927Y-96679647D01*
X115986020Y-96740087D01*
X115994825Y-96875967D01*
X116008393Y-96997653D01*
X116028794Y-97115041D01*
X116058095Y-97238025D01*
X116098366Y-97376500D01*
X116151674Y-97540361D01*
X116155973Y-97553117D01*
X116206870Y-97715117D01*
X116239548Y-97848101D01*
X116254579Y-97957317D01*
X116252539Y-98048010D01*
X116234001Y-98125425D01*
X116221789Y-98154496D01*
X116196980Y-98197203D01*
X116161981Y-98237350D01*
X116111363Y-98279058D01*
X116039691Y-98326449D01*
X115941536Y-98383646D01*
X115862311Y-98427301D01*
X115753424Y-98487817D01*
X115647180Y-98549966D01*
X115537848Y-98617453D01*
X115419696Y-98693982D01*
X115286992Y-98783258D01*
X115134006Y-98888987D01*
X114973034Y-99002123D01*
X114845278Y-99091383D01*
X114743087Y-99160093D01*
X114661032Y-99211498D01*
X114593680Y-99248844D01*
X114535600Y-99275374D01*
X114486484Y-99292773D01*
X114420495Y-99312310D01*
X114371279Y-99325285D01*
X114348556Y-99329158D01*
X114348105Y-99328937D01*
X114349540Y-99308958D01*
X114356269Y-99256474D01*
X114367432Y-99177568D01*
X114371945Y-99147170D01*
X114496969Y-99147170D01*
X114502283Y-99151170D01*
X114519811Y-99128385D01*
X114535988Y-99101051D01*
X114567380Y-99043963D01*
X114611324Y-98962114D01*
X114665159Y-98860498D01*
X114726222Y-98744108D01*
X114790161Y-98621204D01*
X114855046Y-98494933D01*
X114914111Y-98378005D01*
X114964874Y-98275495D01*
X115004852Y-98192477D01*
X115031562Y-98134025D01*
X115042462Y-98105525D01*
X115055137Y-98080058D01*
X115105330Y-98080058D01*
X115111101Y-98099471D01*
X115131400Y-98099597D01*
X115165666Y-98080858D01*
X115174977Y-98066557D01*
X115169206Y-98047145D01*
X115148908Y-98047019D01*
X115114641Y-98065758D01*
X115105330Y-98080058D01*
X115055137Y-98080058D01*
X115065327Y-98059584D01*
X115091308Y-98036320D01*
X115122826Y-98016135D01*
X115143755Y-97991430D01*
X115159003Y-97952145D01*
X115173480Y-97888214D01*
X115179932Y-97854670D01*
X115191708Y-97779941D01*
X115192365Y-97733315D01*
X115181918Y-97705438D01*
X115180169Y-97703208D01*
X115169151Y-97676104D01*
X115176043Y-97664551D01*
X115220581Y-97664551D01*
X115228897Y-97671330D01*
X115251347Y-97672148D01*
X115290333Y-97665246D01*
X115305396Y-97654581D01*
X115308030Y-97631818D01*
X115286374Y-97625782D01*
X115252431Y-97638704D01*
X115245609Y-97643466D01*
X115220581Y-97664551D01*
X115176043Y-97664551D01*
X115187585Y-97645206D01*
X115195869Y-97636593D01*
X115213658Y-97607303D01*
X115694184Y-97607303D01*
X115714436Y-97613993D01*
X115723915Y-97614154D01*
X115757604Y-97602487D01*
X115765385Y-97584846D01*
X115756106Y-97558827D01*
X115748238Y-97555539D01*
X115722775Y-97568906D01*
X115706769Y-97584846D01*
X115694184Y-97607303D01*
X115213658Y-97607303D01*
X115220455Y-97596112D01*
X115241091Y-97534761D01*
X115255483Y-97465290D01*
X115261336Y-97400447D01*
X115256357Y-97352983D01*
X115249253Y-97339917D01*
X115243722Y-97316222D01*
X115245270Y-97314226D01*
X115303415Y-97314226D01*
X115323667Y-97320916D01*
X115333146Y-97321077D01*
X115366835Y-97309410D01*
X115374615Y-97291769D01*
X115365337Y-97265750D01*
X115357469Y-97262462D01*
X115332006Y-97275829D01*
X115316000Y-97291769D01*
X115303415Y-97314226D01*
X115245270Y-97314226D01*
X115269747Y-97282679D01*
X115281549Y-97272031D01*
X115314869Y-97230107D01*
X115353333Y-97162567D01*
X115391630Y-97081450D01*
X115424450Y-96998793D01*
X115446480Y-96926633D01*
X115452769Y-96883981D01*
X115470532Y-96829597D01*
X115535177Y-96829597D01*
X115540947Y-96849009D01*
X115561246Y-96849135D01*
X115595512Y-96830396D01*
X115604823Y-96816096D01*
X115599052Y-96796683D01*
X115578754Y-96796557D01*
X115544488Y-96815296D01*
X115535177Y-96829597D01*
X115470532Y-96829597D01*
X115470947Y-96828328D01*
X115521039Y-96785016D01*
X115585635Y-96762081D01*
X115633119Y-96758415D01*
X115656592Y-96774672D01*
X115659808Y-96781636D01*
X115658071Y-96825145D01*
X115620049Y-96863574D01*
X115550719Y-96893462D01*
X115513634Y-96906985D01*
X115486831Y-96926647D01*
X115463914Y-96960960D01*
X115438490Y-97018433D01*
X115418830Y-97068993D01*
X115360201Y-97222575D01*
X115425030Y-97234737D01*
X115477374Y-97236533D01*
X115482472Y-97235125D01*
X115612221Y-97235125D01*
X115624466Y-97242466D01*
X115642814Y-97242923D01*
X115681536Y-97235393D01*
X115696166Y-97224735D01*
X115698095Y-97201404D01*
X115676616Y-97192516D01*
X115645664Y-97201001D01*
X115632323Y-97211304D01*
X115612221Y-97235125D01*
X115482472Y-97235125D01*
X115537371Y-97219963D01*
X115598198Y-97192042D01*
X115662176Y-97162165D01*
X115701841Y-97151221D01*
X115725868Y-97157194D01*
X115730638Y-97161284D01*
X115742678Y-97193993D01*
X115725685Y-97228523D01*
X115688786Y-97258273D01*
X115641106Y-97276641D01*
X115591772Y-97277027D01*
X115577171Y-97272294D01*
X115521055Y-97260756D01*
X115465947Y-97268143D01*
X115428721Y-97291858D01*
X115426351Y-97295511D01*
X115397972Y-97322294D01*
X115350413Y-97349387D01*
X115343312Y-97352478D01*
X115297724Y-97377439D01*
X115279320Y-97409895D01*
X115276656Y-97443455D01*
X115273141Y-97501544D01*
X115265703Y-97546467D01*
X115263364Y-97568642D01*
X115274372Y-97583569D01*
X115304598Y-97592624D01*
X115359911Y-97597182D01*
X115446184Y-97598622D01*
X115488235Y-97598637D01*
X115580388Y-97594701D01*
X115639354Y-97582716D01*
X115664081Y-97568706D01*
X115714518Y-97536142D01*
X115765284Y-97522982D01*
X115804381Y-97530947D01*
X115817307Y-97546740D01*
X115814594Y-97585195D01*
X115784375Y-97619269D01*
X115738202Y-97643445D01*
X115687630Y-97652210D01*
X115644212Y-97640047D01*
X115636016Y-97633277D01*
X115605694Y-97624723D01*
X115549971Y-97624998D01*
X115481067Y-97632364D01*
X115411202Y-97645083D01*
X115352597Y-97661418D01*
X115318848Y-97678384D01*
X115277262Y-97706644D01*
X115255010Y-97717069D01*
X115230608Y-97745495D01*
X115208520Y-97812522D01*
X115198882Y-97857786D01*
X115186705Y-97927673D01*
X115183631Y-97969833D01*
X115190469Y-97994725D01*
X115208025Y-98012808D01*
X115211026Y-98015120D01*
X115248070Y-98034062D01*
X115269244Y-98035366D01*
X115297326Y-98030590D01*
X115354345Y-98024133D01*
X115430258Y-98017071D01*
X115470145Y-98013808D01*
X115575339Y-98002508D01*
X115587892Y-97999824D01*
X115730078Y-97999824D01*
X115746357Y-98004153D01*
X115764789Y-98001915D01*
X115803866Y-97987540D01*
X115819213Y-97970731D01*
X115814644Y-97950163D01*
X115789795Y-97948394D01*
X115757958Y-97964225D01*
X115744289Y-97977492D01*
X115730078Y-97999824D01*
X115587892Y-97999824D01*
X115647304Y-97987121D01*
X115691788Y-97966383D01*
X115694289Y-97964488D01*
X115747389Y-97932737D01*
X115791168Y-97916139D01*
X115837889Y-97916235D01*
X115859609Y-97939297D01*
X115852950Y-97975744D01*
X115823879Y-98008950D01*
X115786271Y-98031432D01*
X115739956Y-98038515D01*
X115678967Y-98034012D01*
X115602885Y-98029990D01*
X115512162Y-98032846D01*
X115416944Y-98041328D01*
X115327379Y-98054182D01*
X115253614Y-98070154D01*
X115205795Y-98087992D01*
X115198151Y-98093406D01*
X115152486Y-98122455D01*
X115111095Y-98138530D01*
X115093008Y-98146950D01*
X115072740Y-98165222D01*
X115047964Y-98197123D01*
X115016350Y-98246431D01*
X114975571Y-98316924D01*
X114923297Y-98412379D01*
X114857200Y-98536574D01*
X114807719Y-98630690D01*
X114742668Y-98755659D01*
X114684515Y-98869054D01*
X114635498Y-98966376D01*
X114597851Y-99043127D01*
X114573811Y-99094811D01*
X114565614Y-99116929D01*
X114565757Y-99117347D01*
X114584203Y-99110382D01*
X114627432Y-99084842D01*
X114688534Y-99045011D01*
X114744918Y-99006244D01*
X114932972Y-98875600D01*
X115117976Y-98749673D01*
X115294942Y-98631722D01*
X115458883Y-98525007D01*
X115604812Y-98432788D01*
X115727739Y-98358324D01*
X115796145Y-98319219D01*
X115885028Y-98267940D01*
X115966369Y-98216963D01*
X116031079Y-98172240D01*
X116069683Y-98140126D01*
X116106294Y-98088326D01*
X116125726Y-98024152D01*
X116127690Y-97943092D01*
X116111895Y-97840635D01*
X116078052Y-97712268D01*
X116033382Y-97575077D01*
X115979047Y-97411099D01*
X115938291Y-97269751D01*
X115908393Y-97138150D01*
X115886630Y-97003410D01*
X115870282Y-96852648D01*
X115863591Y-96771224D01*
X115854733Y-96663702D01*
X115846136Y-96587187D01*
X115836068Y-96533659D01*
X115822795Y-96495099D01*
X115804586Y-96463487D01*
X115793960Y-96448918D01*
X115749130Y-96404763D01*
X115699388Y-96385689D01*
X115643119Y-96393005D01*
X115578706Y-96428021D01*
X115504536Y-96492046D01*
X115418993Y-96586389D01*
X115320462Y-96712359D01*
X115207328Y-96871265D01*
X115127798Y-96988923D01*
X115078430Y-97072199D01*
X115021402Y-97185585D01*
X114955696Y-97331274D01*
X114880292Y-97511458D01*
X114850714Y-97584846D01*
X114671133Y-98034231D01*
X114592702Y-98542231D01*
X114571101Y-98681637D01*
X114550915Y-98810961D01*
X114533068Y-98924357D01*
X114518485Y-99015978D01*
X114508089Y-99079980D01*
X114503131Y-99108846D01*
X114496969Y-99147170D01*
X114371945Y-99147170D01*
X114382168Y-99078326D01*
X114399614Y-98964830D01*
X114399981Y-98962478D01*
X114417464Y-98847713D01*
X114432107Y-98746064D01*
X114443059Y-98663892D01*
X114449475Y-98607562D01*
X114450505Y-98583438D01*
X114450503Y-98583431D01*
X114438361Y-98589292D01*
X114411510Y-98622406D01*
X114374252Y-98675887D01*
X114330888Y-98742845D01*
X114285721Y-98816394D01*
X114243050Y-98889645D01*
X114207177Y-98955711D01*
X114182405Y-99007705D01*
X114177286Y-99020923D01*
X114155803Y-99091977D01*
X114139780Y-99162021D01*
X114136942Y-99179673D01*
X114133211Y-99226446D01*
X114143538Y-99246264D01*
X114174325Y-99250494D01*
X114176847Y-99250500D01*
X114225144Y-99262142D01*
X114251958Y-99300268D01*
X114260613Y-99369678D01*
X114260624Y-99371417D01*
X114264322Y-99406333D01*
X114278726Y-99439202D01*
X114309316Y-99477549D01*
X114361572Y-99528898D01*
X114402577Y-99566350D01*
X114530082Y-99683718D01*
X114635814Y-99787345D01*
X114729010Y-99887260D01*
X114818910Y-99993494D01*
X114914755Y-100116079D01*
X114941330Y-100151258D01*
X115010713Y-100244349D01*
X115059562Y-100312764D01*
X115091265Y-100362726D01*
X115109208Y-100400459D01*
X115116778Y-100432186D01*
X115117361Y-100464131D01*
X115116757Y-100473642D01*
X115109731Y-100526106D01*
X115094034Y-100550900D01*
X115062403Y-100559408D01*
X115062000Y-100559447D01*
X115009280Y-100554934D01*
X114977781Y-100543162D01*
X114954325Y-100519470D01*
X114915199Y-100469547D01*
X114865489Y-100400271D01*
X114810278Y-100318519D01*
X114799531Y-100302058D01*
X114733078Y-100202580D01*
X114677055Y-100127267D01*
X114622745Y-100066222D01*
X114561429Y-100009548D01*
X114492980Y-99954046D01*
X114385583Y-99865486D01*
X114284938Y-99773932D01*
X114196643Y-99685158D01*
X114126298Y-99604941D01*
X114079501Y-99539055D01*
X114067345Y-99514959D01*
X114048544Y-99474682D01*
X114032713Y-99466067D01*
X114010323Y-99483655D01*
X113995501Y-99494482D01*
X113972466Y-99502059D01*
X113935776Y-99506616D01*
X113879988Y-99508388D01*
X113799657Y-99507606D01*
X113689343Y-99504501D01*
X113597215Y-99501285D01*
X113448536Y-99495144D01*
X113284669Y-99487159D01*
X113120575Y-99478135D01*
X112971212Y-99468877D01*
X112891833Y-99463318D01*
X112743224Y-99450912D01*
X112624930Y-99435866D01*
X112528742Y-99414270D01*
X112446451Y-99382215D01*
X112369847Y-99335793D01*
X112290723Y-99271096D01*
X112200869Y-99184214D01*
X112111692Y-99091857D01*
X112043260Y-99020793D01*
X111952239Y-98927429D01*
X111843780Y-98816988D01*
X111723034Y-98694691D01*
X111595154Y-98565760D01*
X111465290Y-98435416D01*
X111377259Y-98347423D01*
X111233844Y-98203626D01*
X111116790Y-98084589D01*
X111024123Y-97988163D01*
X110953867Y-97912198D01*
X110904050Y-97854545D01*
X110884283Y-97828386D01*
X111047196Y-97828386D01*
X111525713Y-98313334D01*
X111648469Y-98437943D01*
X111771786Y-98563493D01*
X111890595Y-98684799D01*
X111999831Y-98796675D01*
X112094427Y-98893936D01*
X112169315Y-98971397D01*
X112199615Y-99002998D01*
X112299293Y-99105364D01*
X112382581Y-99183133D01*
X112457849Y-99240158D01*
X112533470Y-99280294D01*
X112617813Y-99307393D01*
X112719251Y-99325308D01*
X112846154Y-99337894D01*
X112942077Y-99344762D01*
X113064621Y-99352224D01*
X113191116Y-99358658D01*
X113315806Y-99363912D01*
X113432930Y-99367835D01*
X113536732Y-99370273D01*
X113621453Y-99371076D01*
X113681335Y-99370089D01*
X113710619Y-99367163D01*
X113712218Y-99365113D01*
X113682255Y-99347561D01*
X113622957Y-99320335D01*
X113541985Y-99286347D01*
X113446999Y-99248511D01*
X113345659Y-99209739D01*
X113245624Y-99172944D01*
X113154555Y-99141037D01*
X113080112Y-99116933D01*
X113029955Y-99103543D01*
X113020231Y-99101991D01*
X112943111Y-99096768D01*
X112845637Y-99093916D01*
X112738588Y-99093330D01*
X112632747Y-99094905D01*
X112538894Y-99098533D01*
X112467811Y-99104109D01*
X112443846Y-99107659D01*
X112382556Y-99110570D01*
X112337029Y-99096198D01*
X112314745Y-99069413D01*
X112317059Y-99060000D01*
X112365692Y-99060000D01*
X112382413Y-99074688D01*
X112414538Y-99079539D01*
X112451257Y-99072850D01*
X112463385Y-99060000D01*
X112456902Y-99054305D01*
X112959795Y-99054305D01*
X112962450Y-99061350D01*
X112986662Y-99077177D01*
X113016047Y-99076947D01*
X113030000Y-99061153D01*
X113014555Y-99033912D01*
X112982653Y-99026447D01*
X112971066Y-99030889D01*
X112959795Y-99054305D01*
X112456902Y-99054305D01*
X112446664Y-99045313D01*
X112414538Y-99040462D01*
X112377820Y-99047150D01*
X112365692Y-99060000D01*
X112317059Y-99060000D01*
X112323186Y-99035086D01*
X112326267Y-99031113D01*
X112357532Y-99009209D01*
X112405501Y-99008351D01*
X112423221Y-99011352D01*
X112483220Y-99019939D01*
X112560143Y-99026845D01*
X112645199Y-99031818D01*
X112729593Y-99034607D01*
X112804532Y-99034963D01*
X112861222Y-99032634D01*
X112890870Y-99027368D01*
X112893231Y-99024762D01*
X112877734Y-99005746D01*
X112836638Y-98972839D01*
X112778034Y-98931241D01*
X112710014Y-98886152D01*
X112640669Y-98842771D01*
X112578090Y-98806299D01*
X112530369Y-98781935D01*
X112505597Y-98774878D01*
X112504878Y-98775199D01*
X112476147Y-98776447D01*
X112426117Y-98765689D01*
X112401182Y-98757789D01*
X112314264Y-98733778D01*
X112252268Y-98730188D01*
X112219238Y-98747249D01*
X112219154Y-98747385D01*
X112191535Y-98761492D01*
X112142566Y-98766620D01*
X112089118Y-98761930D01*
X112064444Y-98755064D01*
X112038889Y-98730388D01*
X112036378Y-98705321D01*
X112092154Y-98705321D01*
X112108190Y-98728935D01*
X112142290Y-98741308D01*
X112157119Y-98740383D01*
X112171507Y-98722436D01*
X112412265Y-98722436D01*
X112414453Y-98727708D01*
X112439187Y-98743314D01*
X112473811Y-98746569D01*
X112499172Y-98737192D01*
X112502462Y-98728999D01*
X112488211Y-98702680D01*
X112481987Y-98697960D01*
X112451049Y-98692155D01*
X112422321Y-98702731D01*
X112412265Y-98722436D01*
X112171507Y-98722436D01*
X112172375Y-98721354D01*
X112172547Y-98717589D01*
X112157498Y-98700437D01*
X112126633Y-98692000D01*
X112099138Y-98695205D01*
X112092154Y-98705321D01*
X112036378Y-98705321D01*
X112035477Y-98696333D01*
X112053560Y-98670442D01*
X112067731Y-98666192D01*
X112134668Y-98666171D01*
X112191135Y-98676345D01*
X112218177Y-98690096D01*
X112250959Y-98703988D01*
X112297807Y-98707721D01*
X112339347Y-98701170D01*
X112354558Y-98690977D01*
X112345438Y-98671727D01*
X112311149Y-98637816D01*
X112259731Y-98595179D01*
X112199225Y-98549750D01*
X112137670Y-98507464D01*
X112083108Y-98474254D01*
X112043578Y-98456055D01*
X112033891Y-98454308D01*
X111984241Y-98443946D01*
X111956212Y-98430752D01*
X111921945Y-98418179D01*
X111889223Y-98434100D01*
X111879105Y-98442842D01*
X111834245Y-98463930D01*
X111777487Y-98467251D01*
X111724342Y-98454499D01*
X111690318Y-98427366D01*
X111687741Y-98421950D01*
X111688033Y-98415231D01*
X111740462Y-98415231D01*
X111757182Y-98429918D01*
X111789308Y-98434769D01*
X111826026Y-98428081D01*
X111838154Y-98415231D01*
X111821433Y-98400543D01*
X111789308Y-98395692D01*
X111752589Y-98402381D01*
X111740462Y-98415231D01*
X111688033Y-98415231D01*
X111689013Y-98392705D01*
X111994462Y-98392705D01*
X112010498Y-98416320D01*
X112044597Y-98428693D01*
X112059427Y-98427768D01*
X112074682Y-98408739D01*
X112074855Y-98404973D01*
X112059806Y-98387822D01*
X112028941Y-98379385D01*
X112001446Y-98382589D01*
X111994462Y-98392705D01*
X111689013Y-98392705D01*
X111689238Y-98387546D01*
X111721539Y-98367678D01*
X111778779Y-98363374D01*
X111855095Y-98375662D01*
X111891885Y-98386165D01*
X111927411Y-98390017D01*
X111935846Y-98378678D01*
X111918983Y-98357582D01*
X111874881Y-98328407D01*
X111813274Y-98295731D01*
X111743893Y-98264132D01*
X111676470Y-98238186D01*
X111620739Y-98222471D01*
X111598145Y-98219846D01*
X111540879Y-98211768D01*
X111495818Y-98192653D01*
X111470911Y-98167556D01*
X111472721Y-98161231D01*
X111525538Y-98161231D01*
X111542259Y-98175918D01*
X111574385Y-98180769D01*
X111611103Y-98174081D01*
X111623231Y-98161231D01*
X111606510Y-98146543D01*
X111574385Y-98141692D01*
X111537666Y-98148381D01*
X111525538Y-98161231D01*
X111472721Y-98161231D01*
X111478082Y-98142498D01*
X111484707Y-98134037D01*
X111523953Y-98110136D01*
X111576472Y-98104773D01*
X111629055Y-98115489D01*
X111668496Y-98139826D01*
X111681846Y-98170731D01*
X111698197Y-98193655D01*
X111740785Y-98226421D01*
X111799908Y-98263525D01*
X111865867Y-98299458D01*
X111928963Y-98328713D01*
X111979496Y-98345785D01*
X111994037Y-98347970D01*
X112067070Y-98352670D01*
X112110246Y-98359012D01*
X112132776Y-98369440D01*
X112143873Y-98386399D01*
X112144460Y-98387895D01*
X112142611Y-98422323D01*
X112131695Y-98434483D01*
X112131911Y-98452773D01*
X112158966Y-98484814D01*
X112205554Y-98525359D01*
X112264366Y-98569160D01*
X112328093Y-98610971D01*
X112389427Y-98645544D01*
X112441061Y-98667632D01*
X112463385Y-98672628D01*
X112522032Y-98688832D01*
X112550300Y-98721205D01*
X112577932Y-98755536D01*
X112631510Y-98801508D01*
X112702040Y-98853267D01*
X112780528Y-98904957D01*
X112857979Y-98950723D01*
X112925400Y-98984708D01*
X112973797Y-99001057D01*
X112981154Y-99001707D01*
X113047040Y-99010947D01*
X113083622Y-99039896D01*
X113091053Y-99056562D01*
X113111585Y-99074589D01*
X113160373Y-99102634D01*
X113229336Y-99136349D01*
X113284482Y-99160655D01*
X113417436Y-99216473D01*
X113517424Y-99257570D01*
X113587229Y-99285002D01*
X113629635Y-99299827D01*
X113647426Y-99303102D01*
X113645462Y-99297776D01*
X113617018Y-99275256D01*
X113559892Y-99234288D01*
X113478233Y-99177615D01*
X113434994Y-99148108D01*
X113681149Y-99148108D01*
X113698932Y-99172617D01*
X113751917Y-99214074D01*
X113807985Y-99251882D01*
X113879258Y-99300632D01*
X113938791Y-99345868D01*
X113978135Y-99380947D01*
X113988114Y-99393517D01*
X114009884Y-99426768D01*
X114018007Y-99424788D01*
X114009619Y-99389908D01*
X114005713Y-99379203D01*
X113996131Y-99328246D01*
X114005930Y-99307178D01*
X114012807Y-99278509D01*
X113984480Y-99245297D01*
X113924177Y-99210064D01*
X113838881Y-99176577D01*
X113751136Y-99150058D01*
X113698554Y-99140578D01*
X113681149Y-99148108D01*
X113434994Y-99148108D01*
X113376191Y-99107981D01*
X113257916Y-99028129D01*
X113127557Y-98940803D01*
X112989263Y-98848745D01*
X112847185Y-98754699D01*
X112705472Y-98661409D01*
X112568274Y-98571618D01*
X112439739Y-98488069D01*
X112324019Y-98413506D01*
X112225261Y-98350672D01*
X112147617Y-98302310D01*
X112095235Y-98271164D01*
X112081030Y-98263505D01*
X111981229Y-98214917D01*
X111864346Y-98160210D01*
X111737227Y-98102370D01*
X111606717Y-98044381D01*
X111479663Y-97989226D01*
X111362909Y-97939891D01*
X111263303Y-97899358D01*
X111187689Y-97870613D01*
X111154482Y-97859615D01*
X111047196Y-97828386D01*
X110884283Y-97828386D01*
X110872696Y-97813053D01*
X110857832Y-97785574D01*
X110856390Y-97780281D01*
X110855463Y-97729450D01*
X110880557Y-97701980D01*
X110936882Y-97692733D01*
X110945297Y-97692607D01*
X111013336Y-97697668D01*
X111095664Y-97714357D01*
X111195820Y-97743911D01*
X111317339Y-97787570D01*
X111463759Y-97846572D01*
X111638617Y-97922156D01*
X111773160Y-97982563D01*
X111909117Y-98044472D01*
X112022010Y-98096707D01*
X112117976Y-98142780D01*
X112203149Y-98186202D01*
X112283668Y-98230487D01*
X112365668Y-98279147D01*
X112455285Y-98335692D01*
X112558657Y-98403637D01*
X112681919Y-98486492D01*
X112831208Y-98587770D01*
X112834615Y-98590085D01*
X112971902Y-98683445D01*
X113104225Y-98773588D01*
X113226738Y-98857200D01*
X113334598Y-98930971D01*
X113422959Y-98991586D01*
X113486976Y-99035735D01*
X113513254Y-99054044D01*
X113568714Y-99090484D01*
X113607820Y-99111204D01*
X113623956Y-99112870D01*
X113623510Y-99109603D01*
X113617339Y-99091095D01*
X113622074Y-99082455D01*
X113645391Y-99083144D01*
X113694970Y-99092623D01*
X113737307Y-99101622D01*
X113829119Y-99126244D01*
X113917642Y-99158706D01*
X113993174Y-99194629D01*
X114046010Y-99229635D01*
X114062855Y-99248501D01*
X114080159Y-99273166D01*
X114085988Y-99274923D01*
X114089084Y-99251229D01*
X114094460Y-99202772D01*
X114097134Y-99177231D01*
X114116674Y-99065785D01*
X114154153Y-98956131D01*
X114213505Y-98838954D01*
X114292994Y-98713269D01*
X114342828Y-98637176D01*
X114383131Y-98570707D01*
X114409369Y-98521665D01*
X114417231Y-98499359D01*
X114405204Y-98457074D01*
X114375699Y-98402507D01*
X114338583Y-98351296D01*
X114303719Y-98319077D01*
X114303366Y-98318876D01*
X114282500Y-98297655D01*
X114292493Y-98278393D01*
X114318113Y-98275925D01*
X114353312Y-98300541D01*
X114391499Y-98343748D01*
X114426086Y-98397054D01*
X114450482Y-98451968D01*
X114458254Y-98492017D01*
X114461746Y-98499094D01*
X114470075Y-98472257D01*
X114482162Y-98416218D01*
X114496928Y-98335690D01*
X114504895Y-98288231D01*
X114525805Y-98161838D01*
X114542723Y-98066093D01*
X114557699Y-97993039D01*
X114572781Y-97934717D01*
X114590018Y-97883169D01*
X114611459Y-97830436D01*
X114638069Y-97770936D01*
X114665905Y-97706796D01*
X114703328Y-97616281D01*
X114746204Y-97509603D01*
X114790398Y-97396976D01*
X114808509Y-97349960D01*
X114848438Y-97247350D01*
X114883290Y-97163868D01*
X114917635Y-97091302D01*
X114956040Y-97021437D01*
X115003077Y-96946061D01*
X115063314Y-96856960D01*
X115141320Y-96745921D01*
X115156352Y-96724729D01*
X115238077Y-96610444D01*
X115302328Y-96523277D01*
X115353644Y-96458061D01*
X115396565Y-96409630D01*
X115435633Y-96372817D01*
X115475386Y-96342453D01*
X115514740Y-96316842D01*
X115637645Y-96240685D01*
X115744483Y-96267996D01*
G36*
X116348145Y-98306016D02*
X116348818Y-98306363D01*
X116416925Y-98353784D01*
X116493158Y-98426138D01*
X116568493Y-98513248D01*
X116633901Y-98604936D01*
X116669990Y-98668493D01*
X116694852Y-98720818D01*
X116712253Y-98765694D01*
X116723746Y-98812177D01*
X116730888Y-98869325D01*
X116735231Y-98946193D01*
X116738332Y-99051839D01*
X116738746Y-99069031D01*
X116740617Y-99185431D01*
X116739050Y-99278221D01*
X116732746Y-99360800D01*
X116720405Y-99446566D01*
X116700730Y-99548917D01*
X116685072Y-99622903D01*
X116657871Y-99746147D01*
X116634764Y-99839118D01*
X116612362Y-99909899D01*
X116587278Y-99966571D01*
X116556124Y-100017216D01*
X116515512Y-100069915D01*
X116480128Y-100111788D01*
X116435710Y-100165542D01*
X116403679Y-100208241D01*
X116390649Y-100231035D01*
X116390615Y-100231504D01*
X116373003Y-100242816D01*
X116325874Y-100259962D01*
X116257791Y-100280005D01*
X116221907Y-100289362D01*
X116136091Y-100312184D01*
X116056508Y-100335598D01*
X115996981Y-100355473D01*
X115985059Y-100360145D01*
X115915682Y-100381099D01*
X115841498Y-100385032D01*
X115753884Y-100371105D01*
X115644221Y-100338480D01*
X115599308Y-100322588D01*
X115505050Y-100286955D01*
X115391808Y-100242225D01*
X115276340Y-100195091D01*
X115206615Y-100165731D01*
X115109825Y-100122922D01*
X115035889Y-100085262D01*
X114973046Y-100044966D01*
X114909531Y-99994252D01*
X114833582Y-99925333D01*
X114810392Y-99903515D01*
X114631015Y-99734077D01*
X114646135Y-99668291D01*
X114776755Y-99668291D01*
X114786479Y-99697474D01*
X114822194Y-99742544D01*
X114877329Y-99797788D01*
X114945310Y-99857492D01*
X115019568Y-99915941D01*
X115093528Y-99967423D01*
X115160620Y-100006222D01*
X115171341Y-100011364D01*
X115277428Y-100058394D01*
X115391295Y-100105675D01*
X115506330Y-100150807D01*
X115615919Y-100191386D01*
X115713451Y-100225011D01*
X115792314Y-100249279D01*
X115845895Y-100261788D01*
X115863077Y-100262663D01*
X115918716Y-100249422D01*
X115968364Y-100233183D01*
X116005187Y-100216637D01*
X116017515Y-100205845D01*
X116017210Y-100205517D01*
X115998507Y-100195070D01*
X115950067Y-100169041D01*
X115876751Y-100130015D01*
X115783422Y-100080574D01*
X115674940Y-100023300D01*
X115597348Y-99982435D01*
X115447651Y-99904787D01*
X115329692Y-99846167D01*
X115241574Y-99805713D01*
X115181398Y-99782563D01*
X115147266Y-99775858D01*
X115143316Y-99776435D01*
X115103487Y-99774407D01*
X115085889Y-99749537D01*
X115087406Y-99742042D01*
X115229192Y-99742042D01*
X115242354Y-99755724D01*
X115284799Y-99783841D01*
X115350853Y-99823359D01*
X115434847Y-99871244D01*
X115531106Y-99924461D01*
X115633961Y-99979975D01*
X115737738Y-100034752D01*
X115836766Y-100085757D01*
X115925373Y-100129955D01*
X115997887Y-100164313D01*
X116048636Y-100185794D01*
X116069569Y-100191664D01*
X116111564Y-100187132D01*
X116172758Y-100173844D01*
X116206416Y-100164594D01*
X116274676Y-100137434D01*
X116328939Y-100096019D01*
X116374707Y-100042774D01*
X116411773Y-99992853D01*
X116435708Y-99956989D01*
X116441219Y-99944245D01*
X116421556Y-99937598D01*
X116370432Y-99922537D01*
X116294109Y-99900847D01*
X116198849Y-99874313D01*
X116115282Y-99851360D01*
X116007410Y-99821411D01*
X115911552Y-99793866D01*
X115834590Y-99770776D01*
X115783405Y-99754192D01*
X115766164Y-99747312D01*
X115726665Y-99741664D01*
X115682710Y-99751533D01*
X115628452Y-99762120D01*
X115589388Y-99748287D01*
X115553547Y-99737251D01*
X115493892Y-99729517D01*
X115421593Y-99725277D01*
X115347818Y-99724725D01*
X115283738Y-99728055D01*
X115240523Y-99735461D01*
X115229192Y-99742042D01*
X115087406Y-99742042D01*
X115092976Y-99714539D01*
X115140154Y-99714539D01*
X115143824Y-99739249D01*
X115163159Y-99740524D01*
X115187402Y-99731987D01*
X115207013Y-99717457D01*
X115635569Y-99717457D01*
X115655821Y-99724147D01*
X115665300Y-99724308D01*
X115693508Y-99714539D01*
X115763347Y-99714539D01*
X115782785Y-99724445D01*
X115832618Y-99742463D01*
X115905543Y-99766418D01*
X115994256Y-99794135D01*
X116091454Y-99823438D01*
X116189834Y-99852153D01*
X116282091Y-99878104D01*
X116360923Y-99899117D01*
X116419027Y-99913016D01*
X116444765Y-99917477D01*
X116470551Y-99903332D01*
X116488270Y-99875731D01*
X116499924Y-99841020D01*
X116517056Y-99781705D01*
X116536827Y-99708705D01*
X116556396Y-99632938D01*
X116572923Y-99565321D01*
X116583568Y-99516771D01*
X116586000Y-99500026D01*
X116568058Y-99493996D01*
X116520213Y-99491474D01*
X116451438Y-99492002D01*
X116370705Y-99495122D01*
X116286988Y-99500375D01*
X116209257Y-99507303D01*
X116146485Y-99515448D01*
X116107646Y-99524350D01*
X116107308Y-99524481D01*
X116048378Y-99544463D01*
X115999846Y-99557123D01*
X115956471Y-99572785D01*
X115901751Y-99601626D01*
X115845536Y-99637091D01*
X115797678Y-99672621D01*
X115768025Y-99701662D01*
X115763347Y-99714539D01*
X115693508Y-99714539D01*
X115698989Y-99712641D01*
X115706769Y-99695000D01*
X115697490Y-99668981D01*
X115689623Y-99665692D01*
X115664160Y-99679060D01*
X115648154Y-99695000D01*
X115635569Y-99717457D01*
X115207013Y-99717457D01*
X115215807Y-99710942D01*
X115208869Y-99691576D01*
X115179231Y-99685231D01*
X115147407Y-99697448D01*
X115140154Y-99714539D01*
X115092976Y-99714539D01*
X115093313Y-99712879D01*
X115119522Y-99682188D01*
X115170353Y-99654688D01*
X115221536Y-99647487D01*
X115259861Y-99661178D01*
X115269857Y-99675462D01*
X115295130Y-99692710D01*
X115347538Y-99703211D01*
X115415743Y-99707062D01*
X115488407Y-99704363D01*
X115554193Y-99695213D01*
X115601764Y-99679710D01*
X115612375Y-99672477D01*
X115654204Y-99651133D01*
X115714024Y-99638058D01*
X115731144Y-99636740D01*
X115804119Y-99622330D01*
X115882625Y-99589365D01*
X115953845Y-99545046D01*
X116004965Y-99496571D01*
X116010967Y-99486828D01*
X116062715Y-99486828D01*
X116068486Y-99506240D01*
X116088785Y-99506366D01*
X116123051Y-99487627D01*
X116132362Y-99473326D01*
X116126591Y-99453914D01*
X116106292Y-99453788D01*
X116072026Y-99472527D01*
X116062715Y-99486828D01*
X116010967Y-99486828D01*
X116017823Y-99475702D01*
X116054503Y-99435806D01*
X116085921Y-99422886D01*
X116181559Y-99422886D01*
X116201883Y-99451021D01*
X116247914Y-99465111D01*
X116324922Y-99469909D01*
X116379770Y-99470308D01*
X116472611Y-99468697D01*
X116533727Y-99463158D01*
X116570362Y-99452628D01*
X116586860Y-99439964D01*
X116595997Y-99412829D01*
X116605219Y-99359009D01*
X116613788Y-99287891D01*
X116620967Y-99208862D01*
X116626020Y-99131312D01*
X116628210Y-99064626D01*
X116626799Y-99018194D01*
X116621291Y-99001385D01*
X116599834Y-99007239D01*
X116551138Y-99022731D01*
X116484906Y-99044757D01*
X116470956Y-99049487D01*
X116357177Y-99097966D01*
X116276491Y-99156978D01*
X116223272Y-99231779D01*
X116196955Y-99305479D01*
X116181673Y-99375956D01*
X116181559Y-99422886D01*
X116085921Y-99422886D01*
X116095539Y-99418931D01*
X116137331Y-99402749D01*
X116158731Y-99367590D01*
X116165286Y-99339835D01*
X116176937Y-99285730D01*
X116188037Y-99246011D01*
X116188698Y-99244228D01*
X116184015Y-99221214D01*
X116159397Y-99216308D01*
X116116283Y-99205660D01*
X116105774Y-99177874D01*
X116110303Y-99170380D01*
X116163107Y-99170380D01*
X116183359Y-99177070D01*
X116192838Y-99177231D01*
X116226527Y-99165564D01*
X116234308Y-99147923D01*
X116225029Y-99121904D01*
X116217162Y-99118616D01*
X116191698Y-99131983D01*
X116175692Y-99147923D01*
X116163107Y-99170380D01*
X116110303Y-99170380D01*
X116129157Y-99139183D01*
X116141139Y-99127941D01*
X116191001Y-99085051D01*
X116139385Y-99003162D01*
X116104632Y-98953623D01*
X116076184Y-98931707D01*
X116043233Y-98929911D01*
X116035743Y-98931192D01*
X115982750Y-98930236D01*
X115955830Y-98907808D01*
X115955928Y-98906946D01*
X116114575Y-98906946D01*
X116134983Y-98958863D01*
X116169307Y-99013281D01*
X116210201Y-99058143D01*
X116243182Y-99079231D01*
X116279447Y-99079658D01*
X116340796Y-99067919D01*
X116416349Y-99047136D01*
X116495229Y-99020431D01*
X116566557Y-98990927D01*
X116588475Y-98980126D01*
X116607104Y-98949848D01*
X116607379Y-98893990D01*
X116590861Y-98820591D01*
X116559112Y-98737692D01*
X116530460Y-98681478D01*
X116489001Y-98612218D01*
X116454875Y-98573173D01*
X116420051Y-98563615D01*
X116376497Y-98582813D01*
X116316184Y-98630037D01*
X116282863Y-98658983D01*
X116223133Y-98713869D01*
X116175444Y-98762270D01*
X116147244Y-98796435D01*
X116143077Y-98804419D01*
X116125714Y-98848588D01*
X116115431Y-98869587D01*
X116114575Y-98906946D01*
X115955928Y-98906946D01*
X115958596Y-98883541D01*
X115999846Y-98883541D01*
X116012089Y-98902283D01*
X116047835Y-98890939D01*
X116057896Y-98884917D01*
X116075980Y-98863463D01*
X116073392Y-98853495D01*
X116045538Y-98847875D01*
X116013591Y-98861589D01*
X115999846Y-98883541D01*
X115958596Y-98883541D01*
X115959983Y-98871383D01*
X115979000Y-98846384D01*
X116022702Y-98816458D01*
X116061091Y-98806000D01*
X116096408Y-98792335D01*
X116149061Y-98755341D01*
X116210564Y-98701017D01*
X116213293Y-98698370D01*
X116272425Y-98642307D01*
X116326501Y-98593691D01*
X116364958Y-98561978D01*
X116368397Y-98559494D01*
X116413007Y-98528248D01*
X116369097Y-98481508D01*
X116330487Y-98448954D01*
X116297783Y-98434789D01*
X116296939Y-98434769D01*
X116274900Y-98445436D01*
X116224390Y-98475820D01*
X116149134Y-98523498D01*
X116052862Y-98586045D01*
X115939299Y-98661038D01*
X115812173Y-98746052D01*
X115675210Y-98838665D01*
X115660460Y-98848697D01*
X115475547Y-98974442D01*
X115320176Y-99080092D01*
X115191721Y-99167742D01*
X115087558Y-99239484D01*
X115005062Y-99297411D01*
X114941607Y-99343618D01*
X114894568Y-99380198D01*
X114861321Y-99409243D01*
X114839241Y-99432848D01*
X114825701Y-99453106D01*
X114818078Y-99472109D01*
X114813745Y-99491953D01*
X114810079Y-99514729D01*
X114807464Y-99528923D01*
X114793771Y-99594558D01*
X114781907Y-99647681D01*
X114776755Y-99668291D01*
X114646135Y-99668291D01*
X114677009Y-99533973D01*
X114696707Y-99450884D01*
X114713874Y-99383258D01*
X114726344Y-99339346D01*
X114731309Y-99326941D01*
X114751997Y-99312197D01*
X114801122Y-99278333D01*
X114874714Y-99228036D01*
X114968801Y-99163988D01*
X115079411Y-99088873D01*
X115202572Y-99005377D01*
X115334313Y-98916181D01*
X115470663Y-98823972D01*
X115607649Y-98731432D01*
X115741300Y-98641245D01*
X115867645Y-98556096D01*
X115982712Y-98478669D01*
X116082529Y-98411647D01*
X116163125Y-98357715D01*
X116220528Y-98319557D01*
X116250766Y-98299856D01*
X116253951Y-98297944D01*
X116296221Y-98288236D01*
X116348145Y-98306016D01*
X116348145Y-98306016D01*
G37*
X116348145Y-98306016D02*
X116348818Y-98306363D01*
X116416925Y-98353784D01*
X116493158Y-98426138D01*
X116568493Y-98513248D01*
X116633901Y-98604936D01*
X116669990Y-98668493D01*
X116694852Y-98720818D01*
X116712253Y-98765694D01*
X116723746Y-98812177D01*
X116730888Y-98869325D01*
X116735231Y-98946193D01*
X116738332Y-99051839D01*
X116738746Y-99069031D01*
X116740617Y-99185431D01*
X116739050Y-99278221D01*
X116732746Y-99360800D01*
X116720405Y-99446566D01*
X116700730Y-99548917D01*
X116685072Y-99622903D01*
X116657871Y-99746147D01*
X116634764Y-99839118D01*
X116612362Y-99909899D01*
X116587278Y-99966571D01*
X116556124Y-100017216D01*
X116515512Y-100069915D01*
X116480128Y-100111788D01*
X116435710Y-100165542D01*
X116403679Y-100208241D01*
X116390649Y-100231035D01*
X116390615Y-100231504D01*
X116373003Y-100242816D01*
X116325874Y-100259962D01*
X116257791Y-100280005D01*
X116221907Y-100289362D01*
X116136091Y-100312184D01*
X116056508Y-100335598D01*
X115996981Y-100355473D01*
X115985059Y-100360145D01*
X115915682Y-100381099D01*
X115841498Y-100385032D01*
X115753884Y-100371105D01*
X115644221Y-100338480D01*
X115599308Y-100322588D01*
X115505050Y-100286955D01*
X115391808Y-100242225D01*
X115276340Y-100195091D01*
X115206615Y-100165731D01*
X115109825Y-100122922D01*
X115035889Y-100085262D01*
X114973046Y-100044966D01*
X114909531Y-99994252D01*
X114833582Y-99925333D01*
X114810392Y-99903515D01*
X114631015Y-99734077D01*
X114646135Y-99668291D01*
X114776755Y-99668291D01*
X114786479Y-99697474D01*
X114822194Y-99742544D01*
X114877329Y-99797788D01*
X114945310Y-99857492D01*
X115019568Y-99915941D01*
X115093528Y-99967423D01*
X115160620Y-100006222D01*
X115171341Y-100011364D01*
X115277428Y-100058394D01*
X115391295Y-100105675D01*
X115506330Y-100150807D01*
X115615919Y-100191386D01*
X115713451Y-100225011D01*
X115792314Y-100249279D01*
X115845895Y-100261788D01*
X115863077Y-100262663D01*
X115918716Y-100249422D01*
X115968364Y-100233183D01*
X116005187Y-100216637D01*
X116017515Y-100205845D01*
X116017210Y-100205517D01*
X115998507Y-100195070D01*
X115950067Y-100169041D01*
X115876751Y-100130015D01*
X115783422Y-100080574D01*
X115674940Y-100023300D01*
X115597348Y-99982435D01*
X115447651Y-99904787D01*
X115329692Y-99846167D01*
X115241574Y-99805713D01*
X115181398Y-99782563D01*
X115147266Y-99775858D01*
X115143316Y-99776435D01*
X115103487Y-99774407D01*
X115085889Y-99749537D01*
X115087406Y-99742042D01*
X115229192Y-99742042D01*
X115242354Y-99755724D01*
X115284799Y-99783841D01*
X115350853Y-99823359D01*
X115434847Y-99871244D01*
X115531106Y-99924461D01*
X115633961Y-99979975D01*
X115737738Y-100034752D01*
X115836766Y-100085757D01*
X115925373Y-100129955D01*
X115997887Y-100164313D01*
X116048636Y-100185794D01*
X116069569Y-100191664D01*
X116111564Y-100187132D01*
X116172758Y-100173844D01*
X116206416Y-100164594D01*
X116274676Y-100137434D01*
X116328939Y-100096019D01*
X116374707Y-100042774D01*
X116411773Y-99992853D01*
X116435708Y-99956989D01*
X116441219Y-99944245D01*
X116421556Y-99937598D01*
X116370432Y-99922537D01*
X116294109Y-99900847D01*
X116198849Y-99874313D01*
X116115282Y-99851360D01*
X116007410Y-99821411D01*
X115911552Y-99793866D01*
X115834590Y-99770776D01*
X115783405Y-99754192D01*
X115766164Y-99747312D01*
X115726665Y-99741664D01*
X115682710Y-99751533D01*
X115628452Y-99762120D01*
X115589388Y-99748287D01*
X115553547Y-99737251D01*
X115493892Y-99729517D01*
X115421593Y-99725277D01*
X115347818Y-99724725D01*
X115283738Y-99728055D01*
X115240523Y-99735461D01*
X115229192Y-99742042D01*
X115087406Y-99742042D01*
X115092976Y-99714539D01*
X115140154Y-99714539D01*
X115143824Y-99739249D01*
X115163159Y-99740524D01*
X115187402Y-99731987D01*
X115207013Y-99717457D01*
X115635569Y-99717457D01*
X115655821Y-99724147D01*
X115665300Y-99724308D01*
X115693508Y-99714539D01*
X115763347Y-99714539D01*
X115782785Y-99724445D01*
X115832618Y-99742463D01*
X115905543Y-99766418D01*
X115994256Y-99794135D01*
X116091454Y-99823438D01*
X116189834Y-99852153D01*
X116282091Y-99878104D01*
X116360923Y-99899117D01*
X116419027Y-99913016D01*
X116444765Y-99917477D01*
X116470551Y-99903332D01*
X116488270Y-99875731D01*
X116499924Y-99841020D01*
X116517056Y-99781705D01*
X116536827Y-99708705D01*
X116556396Y-99632938D01*
X116572923Y-99565321D01*
X116583568Y-99516771D01*
X116586000Y-99500026D01*
X116568058Y-99493996D01*
X116520213Y-99491474D01*
X116451438Y-99492002D01*
X116370705Y-99495122D01*
X116286988Y-99500375D01*
X116209257Y-99507303D01*
X116146485Y-99515448D01*
X116107646Y-99524350D01*
X116107308Y-99524481D01*
X116048378Y-99544463D01*
X115999846Y-99557123D01*
X115956471Y-99572785D01*
X115901751Y-99601626D01*
X115845536Y-99637091D01*
X115797678Y-99672621D01*
X115768025Y-99701662D01*
X115763347Y-99714539D01*
X115693508Y-99714539D01*
X115698989Y-99712641D01*
X115706769Y-99695000D01*
X115697490Y-99668981D01*
X115689623Y-99665692D01*
X115664160Y-99679060D01*
X115648154Y-99695000D01*
X115635569Y-99717457D01*
X115207013Y-99717457D01*
X115215807Y-99710942D01*
X115208869Y-99691576D01*
X115179231Y-99685231D01*
X115147407Y-99697448D01*
X115140154Y-99714539D01*
X115092976Y-99714539D01*
X115093313Y-99712879D01*
X115119522Y-99682188D01*
X115170353Y-99654688D01*
X115221536Y-99647487D01*
X115259861Y-99661178D01*
X115269857Y-99675462D01*
X115295130Y-99692710D01*
X115347538Y-99703211D01*
X115415743Y-99707062D01*
X115488407Y-99704363D01*
X115554193Y-99695213D01*
X115601764Y-99679710D01*
X115612375Y-99672477D01*
X115654204Y-99651133D01*
X115714024Y-99638058D01*
X115731144Y-99636740D01*
X115804119Y-99622330D01*
X115882625Y-99589365D01*
X115953845Y-99545046D01*
X116004965Y-99496571D01*
X116010967Y-99486828D01*
X116062715Y-99486828D01*
X116068486Y-99506240D01*
X116088785Y-99506366D01*
X116123051Y-99487627D01*
X116132362Y-99473326D01*
X116126591Y-99453914D01*
X116106292Y-99453788D01*
X116072026Y-99472527D01*
X116062715Y-99486828D01*
X116010967Y-99486828D01*
X116017823Y-99475702D01*
X116054503Y-99435806D01*
X116085921Y-99422886D01*
X116181559Y-99422886D01*
X116201883Y-99451021D01*
X116247914Y-99465111D01*
X116324922Y-99469909D01*
X116379770Y-99470308D01*
X116472611Y-99468697D01*
X116533727Y-99463158D01*
X116570362Y-99452628D01*
X116586860Y-99439964D01*
X116595997Y-99412829D01*
X116605219Y-99359009D01*
X116613788Y-99287891D01*
X116620967Y-99208862D01*
X116626020Y-99131312D01*
X116628210Y-99064626D01*
X116626799Y-99018194D01*
X116621291Y-99001385D01*
X116599834Y-99007239D01*
X116551138Y-99022731D01*
X116484906Y-99044757D01*
X116470956Y-99049487D01*
X116357177Y-99097966D01*
X116276491Y-99156978D01*
X116223272Y-99231779D01*
X116196955Y-99305479D01*
X116181673Y-99375956D01*
X116181559Y-99422886D01*
X116085921Y-99422886D01*
X116095539Y-99418931D01*
X116137331Y-99402749D01*
X116158731Y-99367590D01*
X116165286Y-99339835D01*
X116176937Y-99285730D01*
X116188037Y-99246011D01*
X116188698Y-99244228D01*
X116184015Y-99221214D01*
X116159397Y-99216308D01*
X116116283Y-99205660D01*
X116105774Y-99177874D01*
X116110303Y-99170380D01*
X116163107Y-99170380D01*
X116183359Y-99177070D01*
X116192838Y-99177231D01*
X116226527Y-99165564D01*
X116234308Y-99147923D01*
X116225029Y-99121904D01*
X116217162Y-99118616D01*
X116191698Y-99131983D01*
X116175692Y-99147923D01*
X116163107Y-99170380D01*
X116110303Y-99170380D01*
X116129157Y-99139183D01*
X116141139Y-99127941D01*
X116191001Y-99085051D01*
X116139385Y-99003162D01*
X116104632Y-98953623D01*
X116076184Y-98931707D01*
X116043233Y-98929911D01*
X116035743Y-98931192D01*
X115982750Y-98930236D01*
X115955830Y-98907808D01*
X115955928Y-98906946D01*
X116114575Y-98906946D01*
X116134983Y-98958863D01*
X116169307Y-99013281D01*
X116210201Y-99058143D01*
X116243182Y-99079231D01*
X116279447Y-99079658D01*
X116340796Y-99067919D01*
X116416349Y-99047136D01*
X116495229Y-99020431D01*
X116566557Y-98990927D01*
X116588475Y-98980126D01*
X116607104Y-98949848D01*
X116607379Y-98893990D01*
X116590861Y-98820591D01*
X116559112Y-98737692D01*
X116530460Y-98681478D01*
X116489001Y-98612218D01*
X116454875Y-98573173D01*
X116420051Y-98563615D01*
X116376497Y-98582813D01*
X116316184Y-98630037D01*
X116282863Y-98658983D01*
X116223133Y-98713869D01*
X116175444Y-98762270D01*
X116147244Y-98796435D01*
X116143077Y-98804419D01*
X116125714Y-98848588D01*
X116115431Y-98869587D01*
X116114575Y-98906946D01*
X115955928Y-98906946D01*
X115958596Y-98883541D01*
X115999846Y-98883541D01*
X116012089Y-98902283D01*
X116047835Y-98890939D01*
X116057896Y-98884917D01*
X116075980Y-98863463D01*
X116073392Y-98853495D01*
X116045538Y-98847875D01*
X116013591Y-98861589D01*
X115999846Y-98883541D01*
X115958596Y-98883541D01*
X115959983Y-98871383D01*
X115979000Y-98846384D01*
X116022702Y-98816458D01*
X116061091Y-98806000D01*
X116096408Y-98792335D01*
X116149061Y-98755341D01*
X116210564Y-98701017D01*
X116213293Y-98698370D01*
X116272425Y-98642307D01*
X116326501Y-98593691D01*
X116364958Y-98561978D01*
X116368397Y-98559494D01*
X116413007Y-98528248D01*
X116369097Y-98481508D01*
X116330487Y-98448954D01*
X116297783Y-98434789D01*
X116296939Y-98434769D01*
X116274900Y-98445436D01*
X116224390Y-98475820D01*
X116149134Y-98523498D01*
X116052862Y-98586045D01*
X115939299Y-98661038D01*
X115812173Y-98746052D01*
X115675210Y-98838665D01*
X115660460Y-98848697D01*
X115475547Y-98974442D01*
X115320176Y-99080092D01*
X115191721Y-99167742D01*
X115087558Y-99239484D01*
X115005062Y-99297411D01*
X114941607Y-99343618D01*
X114894568Y-99380198D01*
X114861321Y-99409243D01*
X114839241Y-99432848D01*
X114825701Y-99453106D01*
X114818078Y-99472109D01*
X114813745Y-99491953D01*
X114810079Y-99514729D01*
X114807464Y-99528923D01*
X114793771Y-99594558D01*
X114781907Y-99647681D01*
X114776755Y-99668291D01*
X114646135Y-99668291D01*
X114677009Y-99533973D01*
X114696707Y-99450884D01*
X114713874Y-99383258D01*
X114726344Y-99339346D01*
X114731309Y-99326941D01*
X114751997Y-99312197D01*
X114801122Y-99278333D01*
X114874714Y-99228036D01*
X114968801Y-99163988D01*
X115079411Y-99088873D01*
X115202572Y-99005377D01*
X115334313Y-98916181D01*
X115470663Y-98823972D01*
X115607649Y-98731432D01*
X115741300Y-98641245D01*
X115867645Y-98556096D01*
X115982712Y-98478669D01*
X116082529Y-98411647D01*
X116163125Y-98357715D01*
X116220528Y-98319557D01*
X116250766Y-98299856D01*
X116253951Y-98297944D01*
X116296221Y-98288236D01*
X116348145Y-98306016D01*
D13*
X105192102Y-101600000D02*
X101600000Y-105192102D01*
X101600000Y-98007898D02*
X105192102Y-101600000D01*
X98007898Y-101600000D02*
X101600000Y-98007898D01*
X101600000Y-105192102D02*
X98007898Y-101600000D01*
X82767898Y-116840000D02*
X86360000Y-113247898D01*
X86360000Y-120432102D02*
X82767898Y-116840000D01*
X89952102Y-116840000D02*
X86360000Y-120432102D01*
X86360000Y-113247898D02*
X89952102Y-116840000D01*
D14*
G36*
X122422937Y-102584288D02*
X122877117Y-102584410D01*
X123292287Y-102584628D01*
X123670111Y-102584953D01*
X124012249Y-102585398D01*
X124320364Y-102585975D01*
X124596118Y-102586695D01*
X124841173Y-102587570D01*
X125057191Y-102588613D01*
X125245833Y-102589834D01*
X125408763Y-102591246D01*
X125547642Y-102592861D01*
X125664132Y-102594691D01*
X125759895Y-102596747D01*
X125836593Y-102599042D01*
X125895888Y-102601587D01*
X125939443Y-102604394D01*
X125968918Y-102607476D01*
X125985977Y-102610843D01*
X125991330Y-102613300D01*
X125995550Y-102618998D01*
X125999420Y-102629961D01*
X126002953Y-102647950D01*
X126006165Y-102674728D01*
X126009071Y-102712056D01*
X126011686Y-102761696D01*
X126014026Y-102825409D01*
X126016105Y-102904957D01*
X126017939Y-103002101D01*
X126019543Y-103118605D01*
X126020931Y-103256228D01*
X126022120Y-103416733D01*
X126023123Y-103601881D01*
X126023957Y-103813434D01*
X126024636Y-104053154D01*
X126025176Y-104322803D01*
X126025591Y-104624141D01*
X126025898Y-104958932D01*
X126026110Y-105328936D01*
X126026243Y-105735915D01*
X126026312Y-106181630D01*
X126026333Y-106667845D01*
X126026333Y-106688942D01*
X126026275Y-107199639D01*
X126026096Y-107669403D01*
X126025787Y-108099633D01*
X126025338Y-108491729D01*
X126024742Y-108847091D01*
X126023989Y-109167118D01*
X126023072Y-109453211D01*
X126021980Y-109706769D01*
X126020706Y-109929192D01*
X126019241Y-110121879D01*
X126017575Y-110286231D01*
X126015701Y-110423646D01*
X126013609Y-110535526D01*
X126011291Y-110623269D01*
X126008738Y-110688275D01*
X126005941Y-110731945D01*
X126002892Y-110755677D01*
X126000933Y-110760933D01*
X125988515Y-110764138D01*
X125957001Y-110767086D01*
X125904992Y-110769784D01*
X125831088Y-110772243D01*
X125733889Y-110774470D01*
X125611996Y-110776474D01*
X125464008Y-110778264D01*
X125288527Y-110779848D01*
X125084151Y-110781237D01*
X124849482Y-110782437D01*
X124583120Y-110783458D01*
X124283665Y-110784309D01*
X123949717Y-110784998D01*
X123579876Y-110785534D01*
X123172743Y-110785926D01*
X122726918Y-110786183D01*
X122241001Y-110786312D01*
X121928942Y-110786333D01*
X121441007Y-110786314D01*
X120993644Y-110786247D01*
X120585091Y-110786117D01*
X120213587Y-110785908D01*
X119877369Y-110785606D01*
X119574676Y-110785196D01*
X119303746Y-110784661D01*
X119062818Y-110783988D01*
X118850130Y-110783161D01*
X118663920Y-110782165D01*
X118502427Y-110780984D01*
X118363888Y-110779604D01*
X118246543Y-110778010D01*
X118148629Y-110776186D01*
X118068385Y-110774117D01*
X118004050Y-110771789D01*
X117953861Y-110769185D01*
X117916057Y-110766292D01*
X117888875Y-110763092D01*
X117870556Y-110759573D01*
X117859336Y-110755718D01*
X117853455Y-110751512D01*
X117853300Y-110751330D01*
X117849732Y-110741759D01*
X117846457Y-110720900D01*
X117843465Y-110687091D01*
X117840743Y-110638671D01*
X117838280Y-110573977D01*
X117836063Y-110491347D01*
X117834080Y-110389119D01*
X117832321Y-110265632D01*
X117830772Y-110119223D01*
X117829422Y-109948230D01*
X117828259Y-109750991D01*
X117827272Y-109525844D01*
X117826448Y-109271127D01*
X117826342Y-109225945D01*
X119912077Y-109225945D01*
X119945591Y-109350037D01*
X120013829Y-109458905D01*
X120114364Y-109546752D01*
X120230323Y-109603008D01*
X120353283Y-109631182D01*
X120495457Y-109641641D01*
X120637452Y-109634043D01*
X120746700Y-109612191D01*
X120804964Y-109586426D01*
X121291672Y-109586426D01*
X121310216Y-109595291D01*
X121354921Y-109598552D01*
X121433027Y-109597352D01*
X121455301Y-109596606D01*
X121630821Y-109590417D01*
X121727785Y-109429112D01*
X121777463Y-109348156D01*
X121824499Y-109274390D01*
X121860764Y-109220483D01*
X121868619Y-109209689D01*
X121912487Y-109151570D01*
X121986218Y-109254577D01*
X122039238Y-109332073D01*
X122097440Y-109422196D01*
X122132503Y-109479292D01*
X122205057Y-109601000D01*
X122380028Y-109601000D01*
X122460091Y-109599229D01*
X122520888Y-109594512D01*
X122552570Y-109587743D01*
X122554959Y-109585125D01*
X122543875Y-109557274D01*
X122513885Y-109502101D01*
X122469795Y-109427352D01*
X122416413Y-109340776D01*
X122358546Y-109250117D01*
X122300999Y-109163124D01*
X122299017Y-109160265D01*
X122738873Y-109160265D01*
X122751564Y-109290657D01*
X122798699Y-109411465D01*
X122848594Y-109481544D01*
X122895284Y-109519959D01*
X122966508Y-109562896D01*
X123046574Y-109601677D01*
X123105333Y-109623540D01*
X123167721Y-109634330D01*
X123256878Y-109639926D01*
X123357567Y-109640399D01*
X123454552Y-109635819D01*
X123532595Y-109626256D01*
X123553586Y-109621478D01*
X123686024Y-109565879D01*
X123792584Y-109483338D01*
X123870278Y-109379935D01*
X123916113Y-109261753D01*
X123927098Y-109134874D01*
X123900243Y-109005379D01*
X123879995Y-108957770D01*
X123845011Y-108894492D01*
X123803894Y-108841516D01*
X123746778Y-108788250D01*
X123663794Y-108724098D01*
X123659194Y-108720713D01*
X123668936Y-108704385D01*
X123701423Y-108667454D01*
X123737736Y-108629931D01*
X123821268Y-108520220D01*
X123869230Y-108399072D01*
X123882462Y-108273669D01*
X123861802Y-108151193D01*
X123808091Y-108038827D01*
X123722167Y-107943754D01*
X123651959Y-107896018D01*
X123594239Y-107866196D01*
X123543499Y-107847707D01*
X123486375Y-107837890D01*
X123409506Y-107834089D01*
X123338167Y-107833583D01*
X123213728Y-107837766D01*
X123118913Y-107852976D01*
X123041599Y-107883199D01*
X122969666Y-107932426D01*
X122928818Y-107968291D01*
X122845793Y-108071506D01*
X122795196Y-108191307D01*
X122777469Y-108318908D01*
X122793052Y-108445522D01*
X122842386Y-108562363D01*
X122895540Y-108631857D01*
X122978045Y-108718587D01*
X122901229Y-108793190D01*
X122814329Y-108903370D01*
X122760003Y-109028449D01*
X122738873Y-109160265D01*
X122299017Y-109160265D01*
X122248580Y-109087543D01*
X122232620Y-109065607D01*
X122126274Y-108921797D01*
X122330053Y-108615936D01*
X122396433Y-108515717D01*
X122453767Y-108428035D01*
X122498254Y-108358796D01*
X122526094Y-108313904D01*
X122533833Y-108299370D01*
X122514338Y-108294401D01*
X122462527Y-108290658D01*
X122388417Y-108288775D01*
X122364395Y-108288667D01*
X122194957Y-108288667D01*
X122065995Y-108489750D01*
X122014129Y-108569735D01*
X121970959Y-108634636D01*
X121941308Y-108677317D01*
X121930173Y-108690833D01*
X121916004Y-108674638D01*
X121882588Y-108630595D01*
X121834988Y-108565514D01*
X121780772Y-108489750D01*
X121638231Y-108288667D01*
X121460871Y-108288667D01*
X121395410Y-108287910D01*
X121347607Y-108288606D01*
X121318301Y-108295206D01*
X121308331Y-108312158D01*
X121318539Y-108343912D01*
X121349764Y-108394919D01*
X121402846Y-108469629D01*
X121478624Y-108572490D01*
X121526789Y-108637917D01*
X121594959Y-108731559D01*
X121653348Y-108813161D01*
X121697730Y-108876704D01*
X121723877Y-108916166D01*
X121729091Y-108926048D01*
X121717168Y-108948677D01*
X121686303Y-108992015D01*
X121663480Y-109021298D01*
X121624406Y-109072836D01*
X121572377Y-109145354D01*
X121512813Y-109230832D01*
X121451132Y-109321254D01*
X121392753Y-109408604D01*
X121343096Y-109484862D01*
X121307579Y-109542014D01*
X121292055Y-109570813D01*
X121291672Y-109586426D01*
X120804964Y-109586426D01*
X120880910Y-109552842D01*
X120984450Y-109465591D01*
X121055031Y-109353471D01*
X121090363Y-109219513D01*
X121094152Y-109152051D01*
X121078169Y-109017607D01*
X121028590Y-108905758D01*
X120941806Y-108809217D01*
X120912734Y-108785749D01*
X120826460Y-108719946D01*
X120914056Y-108623193D01*
X120992830Y-108510156D01*
X121038704Y-108386641D01*
X121051874Y-108260298D01*
X121032534Y-108138776D01*
X120980878Y-108029725D01*
X120897102Y-107940793D01*
X120896675Y-107940467D01*
X120774561Y-107872293D01*
X120632978Y-107833714D01*
X120482721Y-107824729D01*
X120334588Y-107845339D01*
X120199374Y-107895544D01*
X120128184Y-107940447D01*
X120051544Y-108022114D01*
X119992727Y-108130512D01*
X119958153Y-108251606D01*
X119951707Y-108326388D01*
X119965780Y-108455689D01*
X120011255Y-108562640D01*
X120083743Y-108649320D01*
X120156827Y-108718859D01*
X120082560Y-108784067D01*
X120028997Y-108843317D01*
X119977943Y-108919124D01*
X119958936Y-108955262D01*
X119915716Y-109092422D01*
X119912077Y-109225945D01*
X117826342Y-109225945D01*
X117825775Y-108985178D01*
X117825242Y-108666336D01*
X117824836Y-108312937D01*
X117824547Y-107923320D01*
X117824361Y-107495823D01*
X117824267Y-107028784D01*
X117824250Y-106688086D01*
X117824263Y-106202456D01*
X117824313Y-105757376D01*
X117824417Y-105351065D01*
X117824592Y-104981739D01*
X117824853Y-104647615D01*
X117825218Y-104346912D01*
X117825702Y-104077847D01*
X117826324Y-103838636D01*
X117827098Y-103627497D01*
X117828043Y-103442648D01*
X117829173Y-103282306D01*
X117830507Y-103144688D01*
X117832060Y-103028012D01*
X117833849Y-102930494D01*
X117835891Y-102850353D01*
X117837461Y-102806500D01*
X118046500Y-102806500D01*
X118046500Y-106574167D01*
X125814667Y-106574167D01*
X125814667Y-102806500D01*
X118046500Y-102806500D01*
X117837461Y-102806500D01*
X117838202Y-102785806D01*
X117840798Y-102735070D01*
X117843697Y-102696362D01*
X117846915Y-102667900D01*
X117850469Y-102647902D01*
X117854374Y-102634583D01*
X117858648Y-102626163D01*
X117862047Y-102622047D01*
X117867997Y-102617491D01*
X117877530Y-102613315D01*
X117892427Y-102609504D01*
X117914473Y-102606040D01*
X117945450Y-102602907D01*
X117987139Y-102600089D01*
X118041325Y-102597569D01*
X118109789Y-102595330D01*
X118194314Y-102593356D01*
X118296683Y-102591631D01*
X118418679Y-102590137D01*
X118562084Y-102588858D01*
X118728681Y-102587778D01*
X118920252Y-102586879D01*
X119138580Y-102586147D01*
X119385447Y-102585563D01*
X119662637Y-102585111D01*
X119971932Y-102584775D01*
X120315115Y-102584538D01*
X120693968Y-102584384D01*
X121110274Y-102584295D01*
X121565815Y-102584257D01*
X121928086Y-102584250D01*
X122422937Y-102584288D01*
X122422937Y-102584288D01*
G37*
X122422937Y-102584288D02*
X122877117Y-102584410D01*
X123292287Y-102584628D01*
X123670111Y-102584953D01*
X124012249Y-102585398D01*
X124320364Y-102585975D01*
X124596118Y-102586695D01*
X124841173Y-102587570D01*
X125057191Y-102588613D01*
X125245833Y-102589834D01*
X125408763Y-102591246D01*
X125547642Y-102592861D01*
X125664132Y-102594691D01*
X125759895Y-102596747D01*
X125836593Y-102599042D01*
X125895888Y-102601587D01*
X125939443Y-102604394D01*
X125968918Y-102607476D01*
X125985977Y-102610843D01*
X125991330Y-102613300D01*
X125995550Y-102618998D01*
X125999420Y-102629961D01*
X126002953Y-102647950D01*
X126006165Y-102674728D01*
X126009071Y-102712056D01*
X126011686Y-102761696D01*
X126014026Y-102825409D01*
X126016105Y-102904957D01*
X126017939Y-103002101D01*
X126019543Y-103118605D01*
X126020931Y-103256228D01*
X126022120Y-103416733D01*
X126023123Y-103601881D01*
X126023957Y-103813434D01*
X126024636Y-104053154D01*
X126025176Y-104322803D01*
X126025591Y-104624141D01*
X126025898Y-104958932D01*
X126026110Y-105328936D01*
X126026243Y-105735915D01*
X126026312Y-106181630D01*
X126026333Y-106667845D01*
X126026333Y-106688942D01*
X126026275Y-107199639D01*
X126026096Y-107669403D01*
X126025787Y-108099633D01*
X126025338Y-108491729D01*
X126024742Y-108847091D01*
X126023989Y-109167118D01*
X126023072Y-109453211D01*
X126021980Y-109706769D01*
X126020706Y-109929192D01*
X126019241Y-110121879D01*
X126017575Y-110286231D01*
X126015701Y-110423646D01*
X126013609Y-110535526D01*
X126011291Y-110623269D01*
X126008738Y-110688275D01*
X126005941Y-110731945D01*
X126002892Y-110755677D01*
X126000933Y-110760933D01*
X125988515Y-110764138D01*
X125957001Y-110767086D01*
X125904992Y-110769784D01*
X125831088Y-110772243D01*
X125733889Y-110774470D01*
X125611996Y-110776474D01*
X125464008Y-110778264D01*
X125288527Y-110779848D01*
X125084151Y-110781237D01*
X124849482Y-110782437D01*
X124583120Y-110783458D01*
X124283665Y-110784309D01*
X123949717Y-110784998D01*
X123579876Y-110785534D01*
X123172743Y-110785926D01*
X122726918Y-110786183D01*
X122241001Y-110786312D01*
X121928942Y-110786333D01*
X121441007Y-110786314D01*
X120993644Y-110786247D01*
X120585091Y-110786117D01*
X120213587Y-110785908D01*
X119877369Y-110785606D01*
X119574676Y-110785196D01*
X119303746Y-110784661D01*
X119062818Y-110783988D01*
X118850130Y-110783161D01*
X118663920Y-110782165D01*
X118502427Y-110780984D01*
X118363888Y-110779604D01*
X118246543Y-110778010D01*
X118148629Y-110776186D01*
X118068385Y-110774117D01*
X118004050Y-110771789D01*
X117953861Y-110769185D01*
X117916057Y-110766292D01*
X117888875Y-110763092D01*
X117870556Y-110759573D01*
X117859336Y-110755718D01*
X117853455Y-110751512D01*
X117853300Y-110751330D01*
X117849732Y-110741759D01*
X117846457Y-110720900D01*
X117843465Y-110687091D01*
X117840743Y-110638671D01*
X117838280Y-110573977D01*
X117836063Y-110491347D01*
X117834080Y-110389119D01*
X117832321Y-110265632D01*
X117830772Y-110119223D01*
X117829422Y-109948230D01*
X117828259Y-109750991D01*
X117827272Y-109525844D01*
X117826448Y-109271127D01*
X117826342Y-109225945D01*
X119912077Y-109225945D01*
X119945591Y-109350037D01*
X120013829Y-109458905D01*
X120114364Y-109546752D01*
X120230323Y-109603008D01*
X120353283Y-109631182D01*
X120495457Y-109641641D01*
X120637452Y-109634043D01*
X120746700Y-109612191D01*
X120804964Y-109586426D01*
X121291672Y-109586426D01*
X121310216Y-109595291D01*
X121354921Y-109598552D01*
X121433027Y-109597352D01*
X121455301Y-109596606D01*
X121630821Y-109590417D01*
X121727785Y-109429112D01*
X121777463Y-109348156D01*
X121824499Y-109274390D01*
X121860764Y-109220483D01*
X121868619Y-109209689D01*
X121912487Y-109151570D01*
X121986218Y-109254577D01*
X122039238Y-109332073D01*
X122097440Y-109422196D01*
X122132503Y-109479292D01*
X122205057Y-109601000D01*
X122380028Y-109601000D01*
X122460091Y-109599229D01*
X122520888Y-109594512D01*
X122552570Y-109587743D01*
X122554959Y-109585125D01*
X122543875Y-109557274D01*
X122513885Y-109502101D01*
X122469795Y-109427352D01*
X122416413Y-109340776D01*
X122358546Y-109250117D01*
X122300999Y-109163124D01*
X122299017Y-109160265D01*
X122738873Y-109160265D01*
X122751564Y-109290657D01*
X122798699Y-109411465D01*
X122848594Y-109481544D01*
X122895284Y-109519959D01*
X122966508Y-109562896D01*
X123046574Y-109601677D01*
X123105333Y-109623540D01*
X123167721Y-109634330D01*
X123256878Y-109639926D01*
X123357567Y-109640399D01*
X123454552Y-109635819D01*
X123532595Y-109626256D01*
X123553586Y-109621478D01*
X123686024Y-109565879D01*
X123792584Y-109483338D01*
X123870278Y-109379935D01*
X123916113Y-109261753D01*
X123927098Y-109134874D01*
X123900243Y-109005379D01*
X123879995Y-108957770D01*
X123845011Y-108894492D01*
X123803894Y-108841516D01*
X123746778Y-108788250D01*
X123663794Y-108724098D01*
X123659194Y-108720713D01*
X123668936Y-108704385D01*
X123701423Y-108667454D01*
X123737736Y-108629931D01*
X123821268Y-108520220D01*
X123869230Y-108399072D01*
X123882462Y-108273669D01*
X123861802Y-108151193D01*
X123808091Y-108038827D01*
X123722167Y-107943754D01*
X123651959Y-107896018D01*
X123594239Y-107866196D01*
X123543499Y-107847707D01*
X123486375Y-107837890D01*
X123409506Y-107834089D01*
X123338167Y-107833583D01*
X123213728Y-107837766D01*
X123118913Y-107852976D01*
X123041599Y-107883199D01*
X122969666Y-107932426D01*
X122928818Y-107968291D01*
X122845793Y-108071506D01*
X122795196Y-108191307D01*
X122777469Y-108318908D01*
X122793052Y-108445522D01*
X122842386Y-108562363D01*
X122895540Y-108631857D01*
X122978045Y-108718587D01*
X122901229Y-108793190D01*
X122814329Y-108903370D01*
X122760003Y-109028449D01*
X122738873Y-109160265D01*
X122299017Y-109160265D01*
X122248580Y-109087543D01*
X122232620Y-109065607D01*
X122126274Y-108921797D01*
X122330053Y-108615936D01*
X122396433Y-108515717D01*
X122453767Y-108428035D01*
X122498254Y-108358796D01*
X122526094Y-108313904D01*
X122533833Y-108299370D01*
X122514338Y-108294401D01*
X122462527Y-108290658D01*
X122388417Y-108288775D01*
X122364395Y-108288667D01*
X122194957Y-108288667D01*
X122065995Y-108489750D01*
X122014129Y-108569735D01*
X121970959Y-108634636D01*
X121941308Y-108677317D01*
X121930173Y-108690833D01*
X121916004Y-108674638D01*
X121882588Y-108630595D01*
X121834988Y-108565514D01*
X121780772Y-108489750D01*
X121638231Y-108288667D01*
X121460871Y-108288667D01*
X121395410Y-108287910D01*
X121347607Y-108288606D01*
X121318301Y-108295206D01*
X121308331Y-108312158D01*
X121318539Y-108343912D01*
X121349764Y-108394919D01*
X121402846Y-108469629D01*
X121478624Y-108572490D01*
X121526789Y-108637917D01*
X121594959Y-108731559D01*
X121653348Y-108813161D01*
X121697730Y-108876704D01*
X121723877Y-108916166D01*
X121729091Y-108926048D01*
X121717168Y-108948677D01*
X121686303Y-108992015D01*
X121663480Y-109021298D01*
X121624406Y-109072836D01*
X121572377Y-109145354D01*
X121512813Y-109230832D01*
X121451132Y-109321254D01*
X121392753Y-109408604D01*
X121343096Y-109484862D01*
X121307579Y-109542014D01*
X121292055Y-109570813D01*
X121291672Y-109586426D01*
X120804964Y-109586426D01*
X120880910Y-109552842D01*
X120984450Y-109465591D01*
X121055031Y-109353471D01*
X121090363Y-109219513D01*
X121094152Y-109152051D01*
X121078169Y-109017607D01*
X121028590Y-108905758D01*
X120941806Y-108809217D01*
X120912734Y-108785749D01*
X120826460Y-108719946D01*
X120914056Y-108623193D01*
X120992830Y-108510156D01*
X121038704Y-108386641D01*
X121051874Y-108260298D01*
X121032534Y-108138776D01*
X120980878Y-108029725D01*
X120897102Y-107940793D01*
X120896675Y-107940467D01*
X120774561Y-107872293D01*
X120632978Y-107833714D01*
X120482721Y-107824729D01*
X120334588Y-107845339D01*
X120199374Y-107895544D01*
X120128184Y-107940447D01*
X120051544Y-108022114D01*
X119992727Y-108130512D01*
X119958153Y-108251606D01*
X119951707Y-108326388D01*
X119965780Y-108455689D01*
X120011255Y-108562640D01*
X120083743Y-108649320D01*
X120156827Y-108718859D01*
X120082560Y-108784067D01*
X120028997Y-108843317D01*
X119977943Y-108919124D01*
X119958936Y-108955262D01*
X119915716Y-109092422D01*
X119912077Y-109225945D01*
X117826342Y-109225945D01*
X117825775Y-108985178D01*
X117825242Y-108666336D01*
X117824836Y-108312937D01*
X117824547Y-107923320D01*
X117824361Y-107495823D01*
X117824267Y-107028784D01*
X117824250Y-106688086D01*
X117824263Y-106202456D01*
X117824313Y-105757376D01*
X117824417Y-105351065D01*
X117824592Y-104981739D01*
X117824853Y-104647615D01*
X117825218Y-104346912D01*
X117825702Y-104077847D01*
X117826324Y-103838636D01*
X117827098Y-103627497D01*
X117828043Y-103442648D01*
X117829173Y-103282306D01*
X117830507Y-103144688D01*
X117832060Y-103028012D01*
X117833849Y-102930494D01*
X117835891Y-102850353D01*
X117837461Y-102806500D01*
X118046500Y-102806500D01*
X118046500Y-106574167D01*
X125814667Y-106574167D01*
X125814667Y-102806500D01*
X118046500Y-102806500D01*
X117837461Y-102806500D01*
X117838202Y-102785806D01*
X117840798Y-102735070D01*
X117843697Y-102696362D01*
X117846915Y-102667900D01*
X117850469Y-102647902D01*
X117854374Y-102634583D01*
X117858648Y-102626163D01*
X117862047Y-102622047D01*
X117867997Y-102617491D01*
X117877530Y-102613315D01*
X117892427Y-102609504D01*
X117914473Y-102606040D01*
X117945450Y-102602907D01*
X117987139Y-102600089D01*
X118041325Y-102597569D01*
X118109789Y-102595330D01*
X118194314Y-102593356D01*
X118296683Y-102591631D01*
X118418679Y-102590137D01*
X118562084Y-102588858D01*
X118728681Y-102587778D01*
X118920252Y-102586879D01*
X119138580Y-102586147D01*
X119385447Y-102585563D01*
X119662637Y-102585111D01*
X119971932Y-102584775D01*
X120315115Y-102584538D01*
X120693968Y-102584384D01*
X121110274Y-102584295D01*
X121565815Y-102584257D01*
X121928086Y-102584250D01*
X122422937Y-102584288D01*
G36*
X120511215Y-108880845D02*
X120633398Y-108942558D01*
X120719617Y-109013001D01*
X120767516Y-109089843D01*
X120777000Y-109144086D01*
X120757513Y-109227849D01*
X120701105Y-109294359D01*
X120610852Y-109340225D01*
X120594495Y-109345140D01*
X120532478Y-109360873D01*
X120489084Y-109364449D01*
X120442405Y-109355931D01*
X120405921Y-109345685D01*
X120323213Y-109304990D01*
X120261017Y-109242249D01*
X120234730Y-109185746D01*
X120233150Y-109109068D01*
X120257535Y-109019778D01*
X120302587Y-108933809D01*
X120330496Y-108897842D01*
X120389736Y-108831541D01*
X120511215Y-108880845D01*
X120511215Y-108880845D01*
G37*
X120511215Y-108880845D02*
X120633398Y-108942558D01*
X120719617Y-109013001D01*
X120767516Y-109089843D01*
X120777000Y-109144086D01*
X120757513Y-109227849D01*
X120701105Y-109294359D01*
X120610852Y-109340225D01*
X120594495Y-109345140D01*
X120532478Y-109360873D01*
X120489084Y-109364449D01*
X120442405Y-109355931D01*
X120405921Y-109345685D01*
X120323213Y-109304990D01*
X120261017Y-109242249D01*
X120234730Y-109185746D01*
X120233150Y-109109068D01*
X120257535Y-109019778D01*
X120302587Y-108933809D01*
X120330496Y-108897842D01*
X120389736Y-108831541D01*
X120511215Y-108880845D01*
G36*
X120578044Y-108124110D02*
X120628002Y-108143388D01*
X120672795Y-108181205D01*
X120719672Y-108245299D01*
X120732822Y-108315838D01*
X120713387Y-108402568D01*
X120702109Y-108431447D01*
X120655855Y-108521125D01*
X120605473Y-108570404D01*
X120545008Y-108581176D01*
X120468505Y-108555336D01*
X120412998Y-108523406D01*
X120331748Y-108453952D01*
X120285791Y-108376500D01*
X120273475Y-108298212D01*
X120293146Y-108226247D01*
X120343149Y-108167766D01*
X120421832Y-108129931D01*
X120506316Y-108119333D01*
X120578044Y-108124110D01*
X120578044Y-108124110D01*
G37*
X120578044Y-108124110D02*
X120628002Y-108143388D01*
X120672795Y-108181205D01*
X120719672Y-108245299D01*
X120732822Y-108315838D01*
X120713387Y-108402568D01*
X120702109Y-108431447D01*
X120655855Y-108521125D01*
X120605473Y-108570404D01*
X120545008Y-108581176D01*
X120468505Y-108555336D01*
X120412998Y-108523406D01*
X120331748Y-108453952D01*
X120285791Y-108376500D01*
X120273475Y-108298212D01*
X120293146Y-108226247D01*
X120343149Y-108167766D01*
X120421832Y-108129931D01*
X120506316Y-108119333D01*
X120578044Y-108124110D01*
G36*
X123252489Y-108851909D02*
X123314807Y-108873598D01*
X123391758Y-108909385D01*
X123399788Y-108913564D01*
X123510406Y-108984073D01*
X123579206Y-109057198D01*
X123606060Y-109132616D01*
X123590840Y-109210004D01*
X123543680Y-109278240D01*
X123491934Y-109315974D01*
X123419875Y-109348234D01*
X123349375Y-109366023D01*
X123327583Y-109367119D01*
X123295700Y-109359994D01*
X123241655Y-109343164D01*
X123221750Y-109336283D01*
X123133897Y-109291149D01*
X123082460Y-109228334D01*
X123063335Y-109142418D01*
X123063000Y-109126642D01*
X123074913Y-109053906D01*
X123105719Y-108976075D01*
X123148018Y-108906649D01*
X123194412Y-108859128D01*
X123215634Y-108848165D01*
X123252489Y-108851909D01*
X123252489Y-108851909D01*
G37*
X123252489Y-108851909D02*
X123314807Y-108873598D01*
X123391758Y-108909385D01*
X123399788Y-108913564D01*
X123510406Y-108984073D01*
X123579206Y-109057198D01*
X123606060Y-109132616D01*
X123590840Y-109210004D01*
X123543680Y-109278240D01*
X123491934Y-109315974D01*
X123419875Y-109348234D01*
X123349375Y-109366023D01*
X123327583Y-109367119D01*
X123295700Y-109359994D01*
X123241655Y-109343164D01*
X123221750Y-109336283D01*
X123133897Y-109291149D01*
X123082460Y-109228334D01*
X123063335Y-109142418D01*
X123063000Y-109126642D01*
X123074913Y-109053906D01*
X123105719Y-108976075D01*
X123148018Y-108906649D01*
X123194412Y-108859128D01*
X123215634Y-108848165D01*
X123252489Y-108851909D01*
G36*
X123415141Y-108124679D02*
X123465969Y-108144655D01*
X123497879Y-108171288D01*
X123540502Y-108241702D01*
X123551348Y-108328196D01*
X123531915Y-108420676D01*
X123483698Y-108509049D01*
X123440719Y-108556694D01*
X123391083Y-108602472D01*
X123292569Y-108552027D01*
X123191349Y-108486162D01*
X123129836Y-108411410D01*
X123105839Y-108324925D01*
X123105333Y-108308860D01*
X123123856Y-108226430D01*
X123176478Y-108165120D01*
X123258782Y-108128487D01*
X123340753Y-108119333D01*
X123415141Y-108124679D01*
X123415141Y-108124679D01*
G37*
X123415141Y-108124679D02*
X123465969Y-108144655D01*
X123497879Y-108171288D01*
X123540502Y-108241702D01*
X123551348Y-108328196D01*
X123531915Y-108420676D01*
X123483698Y-108509049D01*
X123440719Y-108556694D01*
X123391083Y-108602472D01*
X123292569Y-108552027D01*
X123191349Y-108486162D01*
X123129836Y-108411410D01*
X123105839Y-108324925D01*
X123105333Y-108308860D01*
X123123856Y-108226430D01*
X123176478Y-108165120D01*
X123258782Y-108128487D01*
X123340753Y-108119333D01*
X123415141Y-108124679D01*
G36*
X118850833Y-104507258D02*
X118851671Y-104720214D01*
X118854149Y-104897872D01*
X118858214Y-105038647D01*
X118863815Y-105140950D01*
X118870899Y-105203195D01*
X118874295Y-105216984D01*
X118919462Y-105285618D01*
X118995360Y-105329950D01*
X119095839Y-105346467D01*
X119100928Y-105346500D01*
X119195024Y-105327587D01*
X119267706Y-105273686D01*
X119313440Y-105189048D01*
X119315653Y-105181495D01*
X119321727Y-105138178D01*
X119327051Y-105057773D01*
X119331459Y-104945523D01*
X119334788Y-104806668D01*
X119336872Y-104646450D01*
X119337548Y-104483958D01*
X119337667Y-103864833D01*
X119676333Y-103864833D01*
X119676333Y-104527741D01*
X119675964Y-104723840D01*
X119674719Y-104882480D01*
X119672391Y-105008530D01*
X119668773Y-105106861D01*
X119663658Y-105182341D01*
X119656838Y-105239839D01*
X119648106Y-105284225D01*
X119643417Y-105301491D01*
X119585770Y-105424366D01*
X119495848Y-105524029D01*
X119380359Y-105593773D01*
X119334991Y-105609917D01*
X119228906Y-105630516D01*
X119101331Y-105639329D01*
X118971508Y-105636102D01*
X118858679Y-105620582D01*
X118841467Y-105616413D01*
X118764726Y-105580287D01*
X118683053Y-105516777D01*
X118608179Y-105437411D01*
X118551834Y-105353722D01*
X118534585Y-105314750D01*
X118525501Y-105277438D01*
X118517907Y-105219508D01*
X118511615Y-105137182D01*
X118506437Y-105026680D01*
X118502185Y-104884225D01*
X118498672Y-104706037D01*
X118496419Y-104547458D01*
X118487887Y-103864833D01*
X118850833Y-103864833D01*
X118850833Y-104507258D01*
X118850833Y-104507258D01*
G37*
X118850833Y-104507258D02*
X118851671Y-104720214D01*
X118854149Y-104897872D01*
X118858214Y-105038647D01*
X118863815Y-105140950D01*
X118870899Y-105203195D01*
X118874295Y-105216984D01*
X118919462Y-105285618D01*
X118995360Y-105329950D01*
X119095839Y-105346467D01*
X119100928Y-105346500D01*
X119195024Y-105327587D01*
X119267706Y-105273686D01*
X119313440Y-105189048D01*
X119315653Y-105181495D01*
X119321727Y-105138178D01*
X119327051Y-105057773D01*
X119331459Y-104945523D01*
X119334788Y-104806668D01*
X119336872Y-104646450D01*
X119337548Y-104483958D01*
X119337667Y-103864833D01*
X119676333Y-103864833D01*
X119676333Y-104527741D01*
X119675964Y-104723840D01*
X119674719Y-104882480D01*
X119672391Y-105008530D01*
X119668773Y-105106861D01*
X119663658Y-105182341D01*
X119656838Y-105239839D01*
X119648106Y-105284225D01*
X119643417Y-105301491D01*
X119585770Y-105424366D01*
X119495848Y-105524029D01*
X119380359Y-105593773D01*
X119334991Y-105609917D01*
X119228906Y-105630516D01*
X119101331Y-105639329D01*
X118971508Y-105636102D01*
X118858679Y-105620582D01*
X118841467Y-105616413D01*
X118764726Y-105580287D01*
X118683053Y-105516777D01*
X118608179Y-105437411D01*
X118551834Y-105353722D01*
X118534585Y-105314750D01*
X118525501Y-105277438D01*
X118517907Y-105219508D01*
X118511615Y-105137182D01*
X118506437Y-105026680D01*
X118502185Y-104884225D01*
X118498672Y-104706037D01*
X118496419Y-104547458D01*
X118487887Y-103864833D01*
X118850833Y-103864833D01*
X118850833Y-104507258D01*
G36*
X123444000Y-104742254D02*
X123445290Y-104927240D01*
X123449144Y-105071793D01*
X123455534Y-105175376D01*
X123464435Y-105237450D01*
X123468653Y-105250449D01*
X123513084Y-105305360D01*
X123584831Y-105332747D01*
X123685527Y-105332791D01*
X123816804Y-105305671D01*
X123858319Y-105293526D01*
X123882380Y-105290020D01*
X123898179Y-105303257D01*
X123909994Y-105341514D01*
X123922104Y-105413068D01*
X123922914Y-105418469D01*
X123943606Y-105556928D01*
X123857845Y-105591467D01*
X123768345Y-105616559D01*
X123658577Y-105631652D01*
X123544233Y-105636042D01*
X123441009Y-105629024D01*
X123372822Y-105613228D01*
X123293003Y-105576473D01*
X123229879Y-105529199D01*
X123181377Y-105466295D01*
X123145423Y-105382652D01*
X123119942Y-105273160D01*
X123102861Y-105132707D01*
X123092105Y-104956185D01*
X123090595Y-104917875D01*
X123077559Y-104563333D01*
X122724333Y-104563333D01*
X122724333Y-104288167D01*
X123444000Y-104288167D01*
X123444000Y-104742254D01*
X123444000Y-104742254D01*
G37*
X123444000Y-104742254D02*
X123445290Y-104927240D01*
X123449144Y-105071793D01*
X123455534Y-105175376D01*
X123464435Y-105237450D01*
X123468653Y-105250449D01*
X123513084Y-105305360D01*
X123584831Y-105332747D01*
X123685527Y-105332791D01*
X123816804Y-105305671D01*
X123858319Y-105293526D01*
X123882380Y-105290020D01*
X123898179Y-105303257D01*
X123909994Y-105341514D01*
X123922104Y-105413068D01*
X123922914Y-105418469D01*
X123943606Y-105556928D01*
X123857845Y-105591467D01*
X123768345Y-105616559D01*
X123658577Y-105631652D01*
X123544233Y-105636042D01*
X123441009Y-105629024D01*
X123372822Y-105613228D01*
X123293003Y-105576473D01*
X123229879Y-105529199D01*
X123181377Y-105466295D01*
X123145423Y-105382652D01*
X123119942Y-105273160D01*
X123102861Y-105132707D01*
X123092105Y-104956185D01*
X123090595Y-104917875D01*
X123077559Y-104563333D01*
X122724333Y-104563333D01*
X122724333Y-104288167D01*
X123444000Y-104288167D01*
X123444000Y-104742254D01*
G36*
X120353667Y-105325333D02*
X121094500Y-105325333D01*
X121094500Y-105600500D01*
X119993833Y-105600500D01*
X119993833Y-103864833D01*
X120353667Y-103864833D01*
X120353667Y-105325333D01*
X120353667Y-105325333D01*
G37*
X120353667Y-105325333D02*
X121094500Y-105325333D01*
X121094500Y-105600500D01*
X119993833Y-105600500D01*
X119993833Y-103864833D01*
X120353667Y-103864833D01*
X120353667Y-105325333D01*
G36*
X122550675Y-104007708D02*
X122544417Y-104150583D01*
X122089333Y-104162599D01*
X122089333Y-105600500D01*
X121750667Y-105600500D01*
X121750667Y-104161167D01*
X121285000Y-104161167D01*
X121285000Y-103864833D01*
X122556934Y-103864833D01*
X122550675Y-104007708D01*
X122550675Y-104007708D01*
G37*
X122550675Y-104007708D02*
X122544417Y-104150583D01*
X122089333Y-104162599D01*
X122089333Y-105600500D01*
X121750667Y-105600500D01*
X121750667Y-104161167D01*
X121285000Y-104161167D01*
X121285000Y-103864833D01*
X122556934Y-103864833D01*
X122550675Y-104007708D01*
G36*
X124617925Y-104251125D02*
X124741147Y-104637417D01*
X124865774Y-104251125D01*
X124990402Y-103864833D01*
X125137951Y-103864833D01*
X125216418Y-103866272D01*
X125261362Y-103872051D01*
X125281540Y-103884364D01*
X125285760Y-103901875D01*
X125287606Y-103934714D01*
X125292545Y-104001773D01*
X125299951Y-104095099D01*
X125309199Y-104206741D01*
X125316143Y-104288167D01*
X125327989Y-104435354D01*
X125339537Y-104596215D01*
X125349647Y-104753726D01*
X125357178Y-104890865D01*
X125358664Y-104923167D01*
X125364542Y-105051848D01*
X125371207Y-105186999D01*
X125377813Y-105311986D01*
X125383173Y-105404708D01*
X125395284Y-105600500D01*
X125074454Y-105600500D01*
X125068852Y-104961245D01*
X125063250Y-104321991D01*
X124968000Y-104654288D01*
X124872750Y-104986584D01*
X124743208Y-104986625D01*
X124613666Y-104986667D01*
X124428250Y-104319917D01*
X124422648Y-104960208D01*
X124417046Y-105600500D01*
X124097603Y-105600500D01*
X124109011Y-105457625D01*
X124114002Y-105383332D01*
X124119741Y-105279144D01*
X124125602Y-105157478D01*
X124130959Y-105030749D01*
X124132238Y-104997250D01*
X124138785Y-104841122D01*
X124147038Y-104674752D01*
X124156467Y-104506532D01*
X124166541Y-104344856D01*
X124176731Y-104198115D01*
X124186506Y-104074705D01*
X124195337Y-103983017D01*
X124197417Y-103965375D01*
X124209972Y-103864833D01*
X124494704Y-103864833D01*
X124617925Y-104251125D01*
X124617925Y-104251125D01*
G37*
X124617925Y-104251125D02*
X124741147Y-104637417D01*
X124865774Y-104251125D01*
X124990402Y-103864833D01*
X125137951Y-103864833D01*
X125216418Y-103866272D01*
X125261362Y-103872051D01*
X125281540Y-103884364D01*
X125285760Y-103901875D01*
X125287606Y-103934714D01*
X125292545Y-104001773D01*
X125299951Y-104095099D01*
X125309199Y-104206741D01*
X125316143Y-104288167D01*
X125327989Y-104435354D01*
X125339537Y-104596215D01*
X125349647Y-104753726D01*
X125357178Y-104890865D01*
X125358664Y-104923167D01*
X125364542Y-105051848D01*
X125371207Y-105186999D01*
X125377813Y-105311986D01*
X125383173Y-105404708D01*
X125395284Y-105600500D01*
X125074454Y-105600500D01*
X125068852Y-104961245D01*
X125063250Y-104321991D01*
X124968000Y-104654288D01*
X124872750Y-104986584D01*
X124743208Y-104986625D01*
X124613666Y-104986667D01*
X124428250Y-104319917D01*
X124422648Y-104960208D01*
X124417046Y-105600500D01*
X124097603Y-105600500D01*
X124109011Y-105457625D01*
X124114002Y-105383332D01*
X124119741Y-105279144D01*
X124125602Y-105157478D01*
X124130959Y-105030749D01*
X124132238Y-104997250D01*
X124138785Y-104841122D01*
X124147038Y-104674752D01*
X124156467Y-104506532D01*
X124166541Y-104344856D01*
X124176731Y-104198115D01*
X124186506Y-104074705D01*
X124195337Y-103983017D01*
X124197417Y-103965375D01*
X124209972Y-103864833D01*
X124494704Y-103864833D01*
X124617925Y-104251125D01*
G36*
X123312773Y-103710047D02*
X123373700Y-103760862D01*
X123413147Y-103829474D01*
X123426385Y-103907918D01*
X123408687Y-103988225D01*
X123360961Y-104056961D01*
X123283203Y-104108000D01*
X123196227Y-104120471D01*
X123108723Y-104094169D01*
X123064624Y-104064035D01*
X123022925Y-104022031D01*
X123003961Y-103976960D01*
X122999500Y-103909995D01*
X123011898Y-103812702D01*
X123051583Y-103745048D01*
X123122290Y-103701494D01*
X123145387Y-103693682D01*
X123235092Y-103684998D01*
X123312773Y-103710047D01*
X123312773Y-103710047D01*
G37*
X123312773Y-103710047D02*
X123373700Y-103760862D01*
X123413147Y-103829474D01*
X123426385Y-103907918D01*
X123408687Y-103988225D01*
X123360961Y-104056961D01*
X123283203Y-104108000D01*
X123196227Y-104120471D01*
X123108723Y-104094169D01*
X123064624Y-104064035D01*
X123022925Y-104022031D01*
X123003961Y-103976960D01*
X122999500Y-103909995D01*
X123011898Y-103812702D01*
X123051583Y-103745048D01*
X123122290Y-103701494D01*
X123145387Y-103693682D01*
X123235092Y-103684998D01*
X123312773Y-103710047D01*
D15*
G36*
X119895620Y-126824740D02*
X119931180Y-126804420D01*
X120009920Y-126756160D01*
X120121680Y-126682500D01*
X120253760Y-126596140D01*
X120385840Y-126504700D01*
X120495060Y-126433580D01*
X120571260Y-126382780D01*
X120601740Y-126365000D01*
X120619520Y-126372620D01*
X120683020Y-126403100D01*
X120771920Y-126448820D01*
X120825260Y-126476760D01*
X120909080Y-126512320D01*
X120952260Y-126519940D01*
X120957340Y-126509780D01*
X120987820Y-126446280D01*
X121036080Y-126337060D01*
X121099580Y-126192280D01*
X121173240Y-126022100D01*
X121249440Y-125839220D01*
X121328180Y-125653800D01*
X121401840Y-125476000D01*
X121465340Y-125315980D01*
X121518680Y-125183900D01*
X121554240Y-125095000D01*
X121566940Y-125056900D01*
X121561860Y-125046740D01*
X121521220Y-125006100D01*
X121447560Y-124952760D01*
X121290080Y-124823220D01*
X121132600Y-124630180D01*
X121038620Y-124409200D01*
X121005600Y-124162820D01*
X121033540Y-123934220D01*
X121122440Y-123715780D01*
X121274840Y-123520200D01*
X121460260Y-123372880D01*
X121676160Y-123281440D01*
X121920000Y-123250960D01*
X122151140Y-123276360D01*
X122374660Y-123365260D01*
X122572780Y-123515120D01*
X122656600Y-123611640D01*
X122770900Y-123809760D01*
X122834400Y-124023120D01*
X122842020Y-124079000D01*
X122831860Y-124312680D01*
X122763280Y-124536200D01*
X122638820Y-124736860D01*
X122468640Y-124901960D01*
X122445780Y-124917200D01*
X122367040Y-124978160D01*
X122313700Y-125018800D01*
X122270520Y-125051820D01*
X122570240Y-125770640D01*
X122618500Y-125884940D01*
X122699780Y-126083060D01*
X122770900Y-126250700D01*
X122829320Y-126385320D01*
X122869960Y-126476760D01*
X122887740Y-126512320D01*
X122887740Y-126514860D01*
X122915680Y-126519940D01*
X122969020Y-126499620D01*
X123070620Y-126451360D01*
X123136660Y-126415800D01*
X123212860Y-126380240D01*
X123248420Y-126365000D01*
X123276360Y-126382780D01*
X123350020Y-126428500D01*
X123456700Y-126499620D01*
X123586240Y-126588520D01*
X123708160Y-126672340D01*
X123819920Y-126746000D01*
X123901200Y-126799340D01*
X123941840Y-126819660D01*
X123946920Y-126819660D01*
X123982480Y-126799340D01*
X124048520Y-126746000D01*
X124145040Y-126654560D01*
X124284740Y-126517400D01*
X124305060Y-126494540D01*
X124419360Y-126380240D01*
X124510800Y-126283720D01*
X124574300Y-126212600D01*
X124597160Y-126182120D01*
X124597160Y-126182120D01*
X124576840Y-126144020D01*
X124523500Y-126060200D01*
X124449840Y-125945900D01*
X124358400Y-125813820D01*
X124119640Y-125468380D01*
X124251720Y-125140720D01*
X124292360Y-125041660D01*
X124343160Y-124919740D01*
X124381260Y-124833380D01*
X124399040Y-124795280D01*
X124434600Y-124782580D01*
X124523500Y-124762260D01*
X124653040Y-124734320D01*
X124807980Y-124706380D01*
X124955300Y-124678440D01*
X125087380Y-124653040D01*
X125183900Y-124635260D01*
X125227080Y-124627640D01*
X125237240Y-124620020D01*
X125247400Y-124599700D01*
X125252480Y-124553980D01*
X125255020Y-124472700D01*
X125257560Y-124345700D01*
X125257560Y-124162820D01*
X125257560Y-124142500D01*
X125255020Y-123967240D01*
X125252480Y-123827540D01*
X125247400Y-123736100D01*
X125242320Y-123700540D01*
X125242320Y-123700540D01*
X125199140Y-123690380D01*
X125105160Y-123670060D01*
X124973080Y-123644660D01*
X124815600Y-123614180D01*
X124805440Y-123611640D01*
X124647960Y-123581160D01*
X124513340Y-123553220D01*
X124421900Y-123532900D01*
X124383800Y-123520200D01*
X124373640Y-123510040D01*
X124343160Y-123446540D01*
X124297440Y-123350020D01*
X124244100Y-123230640D01*
X124193300Y-123106180D01*
X124150120Y-122994420D01*
X124119640Y-122910600D01*
X124109480Y-122872500D01*
X124109480Y-122872500D01*
X124134880Y-122834400D01*
X124188220Y-122753120D01*
X124264420Y-122638820D01*
X124358400Y-122504200D01*
X124363480Y-122494040D01*
X124454920Y-122361960D01*
X124528580Y-122247660D01*
X124576840Y-122166380D01*
X124597160Y-122130820D01*
X124594620Y-122128280D01*
X124566680Y-122090180D01*
X124498100Y-122013980D01*
X124401580Y-121912380D01*
X124284740Y-121793000D01*
X124246640Y-121757440D01*
X124117100Y-121630440D01*
X124025660Y-121546620D01*
X123969780Y-121503440D01*
X123944380Y-121493280D01*
X123941840Y-121493280D01*
X123901200Y-121518680D01*
X123817380Y-121574560D01*
X123703080Y-121650760D01*
X123568460Y-121742200D01*
X123558300Y-121749820D01*
X123426220Y-121841260D01*
X123314460Y-121914920D01*
X123235720Y-121968260D01*
X123200160Y-121988580D01*
X123195080Y-121988580D01*
X123139200Y-121973340D01*
X123045220Y-121940320D01*
X122928380Y-121894600D01*
X122803920Y-121843800D01*
X122692160Y-121798080D01*
X122608340Y-121759980D01*
X122570240Y-121737120D01*
X122567700Y-121734580D01*
X122555000Y-121686320D01*
X122532140Y-121587260D01*
X122501660Y-121450100D01*
X122471180Y-121285000D01*
X122466100Y-121259600D01*
X122435620Y-121099580D01*
X122410220Y-120970040D01*
X122392440Y-120878600D01*
X122382280Y-120840500D01*
X122359420Y-120835420D01*
X122283220Y-120830340D01*
X122163840Y-120827800D01*
X122021600Y-120825260D01*
X121869200Y-120825260D01*
X121721880Y-120830340D01*
X121597420Y-120832880D01*
X121505980Y-120840500D01*
X121467880Y-120848120D01*
X121467880Y-120850660D01*
X121452640Y-120898920D01*
X121432320Y-120997980D01*
X121404380Y-121137680D01*
X121371360Y-121300240D01*
X121366280Y-121330720D01*
X121335800Y-121488200D01*
X121310400Y-121617740D01*
X121290080Y-121709180D01*
X121279920Y-121744740D01*
X121267220Y-121752360D01*
X121201180Y-121780300D01*
X121094500Y-121823480D01*
X120962420Y-121876820D01*
X120657620Y-122001280D01*
X120281700Y-121744740D01*
X120248680Y-121721880D01*
X120114060Y-121627900D01*
X120002300Y-121554240D01*
X119926100Y-121505980D01*
X119893080Y-121488200D01*
X119890540Y-121488200D01*
X119852440Y-121521220D01*
X119778780Y-121589800D01*
X119677180Y-121688860D01*
X119560340Y-121808240D01*
X119471440Y-121894600D01*
X119369840Y-121998740D01*
X119303800Y-122069860D01*
X119268240Y-122115580D01*
X119255540Y-122143520D01*
X119258080Y-122161300D01*
X119283480Y-122199400D01*
X119336820Y-122283220D01*
X119415560Y-122394980D01*
X119507000Y-122529600D01*
X119580660Y-122638820D01*
X119661940Y-122765820D01*
X119715280Y-122854720D01*
X119733060Y-122897900D01*
X119727980Y-122918220D01*
X119702580Y-122989340D01*
X119659400Y-123101100D01*
X119600980Y-123233180D01*
X119471440Y-123530360D01*
X119278400Y-123568460D01*
X119159020Y-123588780D01*
X118993920Y-123621800D01*
X118836440Y-123652280D01*
X118590060Y-123700540D01*
X118582440Y-124604780D01*
X118620540Y-124620020D01*
X118656100Y-124630180D01*
X118747540Y-124650500D01*
X118877080Y-124675900D01*
X119032020Y-124703840D01*
X119161560Y-124729240D01*
X119293640Y-124754640D01*
X119390160Y-124772420D01*
X119430800Y-124782580D01*
X119440960Y-124795280D01*
X119473980Y-124858780D01*
X119522240Y-124960380D01*
X119573040Y-125082300D01*
X119626380Y-125209300D01*
X119672100Y-125326140D01*
X119705120Y-125415040D01*
X119717820Y-125463300D01*
X119700040Y-125496320D01*
X119649240Y-125575060D01*
X119578120Y-125684280D01*
X119486680Y-125816360D01*
X119397780Y-125945900D01*
X119321580Y-126060200D01*
X119270780Y-126138940D01*
X119247920Y-126177040D01*
X119258080Y-126202440D01*
X119311420Y-126265940D01*
X119410480Y-126367540D01*
X119557800Y-126512320D01*
X119580660Y-126535180D01*
X119697500Y-126649480D01*
X119796560Y-126740920D01*
X119865140Y-126801880D01*
X119895620Y-126824740D01*
X119895620Y-126824740D01*
G37*
X119895620Y-126824740D02*
X119931180Y-126804420D01*
X120009920Y-126756160D01*
X120121680Y-126682500D01*
X120253760Y-126596140D01*
X120385840Y-126504700D01*
X120495060Y-126433580D01*
X120571260Y-126382780D01*
X120601740Y-126365000D01*
X120619520Y-126372620D01*
X120683020Y-126403100D01*
X120771920Y-126448820D01*
X120825260Y-126476760D01*
X120909080Y-126512320D01*
X120952260Y-126519940D01*
X120957340Y-126509780D01*
X120987820Y-126446280D01*
X121036080Y-126337060D01*
X121099580Y-126192280D01*
X121173240Y-126022100D01*
X121249440Y-125839220D01*
X121328180Y-125653800D01*
X121401840Y-125476000D01*
X121465340Y-125315980D01*
X121518680Y-125183900D01*
X121554240Y-125095000D01*
X121566940Y-125056900D01*
X121561860Y-125046740D01*
X121521220Y-125006100D01*
X121447560Y-124952760D01*
X121290080Y-124823220D01*
X121132600Y-124630180D01*
X121038620Y-124409200D01*
X121005600Y-124162820D01*
X121033540Y-123934220D01*
X121122440Y-123715780D01*
X121274840Y-123520200D01*
X121460260Y-123372880D01*
X121676160Y-123281440D01*
X121920000Y-123250960D01*
X122151140Y-123276360D01*
X122374660Y-123365260D01*
X122572780Y-123515120D01*
X122656600Y-123611640D01*
X122770900Y-123809760D01*
X122834400Y-124023120D01*
X122842020Y-124079000D01*
X122831860Y-124312680D01*
X122763280Y-124536200D01*
X122638820Y-124736860D01*
X122468640Y-124901960D01*
X122445780Y-124917200D01*
X122367040Y-124978160D01*
X122313700Y-125018800D01*
X122270520Y-125051820D01*
X122570240Y-125770640D01*
X122618500Y-125884940D01*
X122699780Y-126083060D01*
X122770900Y-126250700D01*
X122829320Y-126385320D01*
X122869960Y-126476760D01*
X122887740Y-126512320D01*
X122887740Y-126514860D01*
X122915680Y-126519940D01*
X122969020Y-126499620D01*
X123070620Y-126451360D01*
X123136660Y-126415800D01*
X123212860Y-126380240D01*
X123248420Y-126365000D01*
X123276360Y-126382780D01*
X123350020Y-126428500D01*
X123456700Y-126499620D01*
X123586240Y-126588520D01*
X123708160Y-126672340D01*
X123819920Y-126746000D01*
X123901200Y-126799340D01*
X123941840Y-126819660D01*
X123946920Y-126819660D01*
X123982480Y-126799340D01*
X124048520Y-126746000D01*
X124145040Y-126654560D01*
X124284740Y-126517400D01*
X124305060Y-126494540D01*
X124419360Y-126380240D01*
X124510800Y-126283720D01*
X124574300Y-126212600D01*
X124597160Y-126182120D01*
X124597160Y-126182120D01*
X124576840Y-126144020D01*
X124523500Y-126060200D01*
X124449840Y-125945900D01*
X124358400Y-125813820D01*
X124119640Y-125468380D01*
X124251720Y-125140720D01*
X124292360Y-125041660D01*
X124343160Y-124919740D01*
X124381260Y-124833380D01*
X124399040Y-124795280D01*
X124434600Y-124782580D01*
X124523500Y-124762260D01*
X124653040Y-124734320D01*
X124807980Y-124706380D01*
X124955300Y-124678440D01*
X125087380Y-124653040D01*
X125183900Y-124635260D01*
X125227080Y-124627640D01*
X125237240Y-124620020D01*
X125247400Y-124599700D01*
X125252480Y-124553980D01*
X125255020Y-124472700D01*
X125257560Y-124345700D01*
X125257560Y-124162820D01*
X125257560Y-124142500D01*
X125255020Y-123967240D01*
X125252480Y-123827540D01*
X125247400Y-123736100D01*
X125242320Y-123700540D01*
X125242320Y-123700540D01*
X125199140Y-123690380D01*
X125105160Y-123670060D01*
X124973080Y-123644660D01*
X124815600Y-123614180D01*
X124805440Y-123611640D01*
X124647960Y-123581160D01*
X124513340Y-123553220D01*
X124421900Y-123532900D01*
X124383800Y-123520200D01*
X124373640Y-123510040D01*
X124343160Y-123446540D01*
X124297440Y-123350020D01*
X124244100Y-123230640D01*
X124193300Y-123106180D01*
X124150120Y-122994420D01*
X124119640Y-122910600D01*
X124109480Y-122872500D01*
X124109480Y-122872500D01*
X124134880Y-122834400D01*
X124188220Y-122753120D01*
X124264420Y-122638820D01*
X124358400Y-122504200D01*
X124363480Y-122494040D01*
X124454920Y-122361960D01*
X124528580Y-122247660D01*
X124576840Y-122166380D01*
X124597160Y-122130820D01*
X124594620Y-122128280D01*
X124566680Y-122090180D01*
X124498100Y-122013980D01*
X124401580Y-121912380D01*
X124284740Y-121793000D01*
X124246640Y-121757440D01*
X124117100Y-121630440D01*
X124025660Y-121546620D01*
X123969780Y-121503440D01*
X123944380Y-121493280D01*
X123941840Y-121493280D01*
X123901200Y-121518680D01*
X123817380Y-121574560D01*
X123703080Y-121650760D01*
X123568460Y-121742200D01*
X123558300Y-121749820D01*
X123426220Y-121841260D01*
X123314460Y-121914920D01*
X123235720Y-121968260D01*
X123200160Y-121988580D01*
X123195080Y-121988580D01*
X123139200Y-121973340D01*
X123045220Y-121940320D01*
X122928380Y-121894600D01*
X122803920Y-121843800D01*
X122692160Y-121798080D01*
X122608340Y-121759980D01*
X122570240Y-121737120D01*
X122567700Y-121734580D01*
X122555000Y-121686320D01*
X122532140Y-121587260D01*
X122501660Y-121450100D01*
X122471180Y-121285000D01*
X122466100Y-121259600D01*
X122435620Y-121099580D01*
X122410220Y-120970040D01*
X122392440Y-120878600D01*
X122382280Y-120840500D01*
X122359420Y-120835420D01*
X122283220Y-120830340D01*
X122163840Y-120827800D01*
X122021600Y-120825260D01*
X121869200Y-120825260D01*
X121721880Y-120830340D01*
X121597420Y-120832880D01*
X121505980Y-120840500D01*
X121467880Y-120848120D01*
X121467880Y-120850660D01*
X121452640Y-120898920D01*
X121432320Y-120997980D01*
X121404380Y-121137680D01*
X121371360Y-121300240D01*
X121366280Y-121330720D01*
X121335800Y-121488200D01*
X121310400Y-121617740D01*
X121290080Y-121709180D01*
X121279920Y-121744740D01*
X121267220Y-121752360D01*
X121201180Y-121780300D01*
X121094500Y-121823480D01*
X120962420Y-121876820D01*
X120657620Y-122001280D01*
X120281700Y-121744740D01*
X120248680Y-121721880D01*
X120114060Y-121627900D01*
X120002300Y-121554240D01*
X119926100Y-121505980D01*
X119893080Y-121488200D01*
X119890540Y-121488200D01*
X119852440Y-121521220D01*
X119778780Y-121589800D01*
X119677180Y-121688860D01*
X119560340Y-121808240D01*
X119471440Y-121894600D01*
X119369840Y-121998740D01*
X119303800Y-122069860D01*
X119268240Y-122115580D01*
X119255540Y-122143520D01*
X119258080Y-122161300D01*
X119283480Y-122199400D01*
X119336820Y-122283220D01*
X119415560Y-122394980D01*
X119507000Y-122529600D01*
X119580660Y-122638820D01*
X119661940Y-122765820D01*
X119715280Y-122854720D01*
X119733060Y-122897900D01*
X119727980Y-122918220D01*
X119702580Y-122989340D01*
X119659400Y-123101100D01*
X119600980Y-123233180D01*
X119471440Y-123530360D01*
X119278400Y-123568460D01*
X119159020Y-123588780D01*
X118993920Y-123621800D01*
X118836440Y-123652280D01*
X118590060Y-123700540D01*
X118582440Y-124604780D01*
X118620540Y-124620020D01*
X118656100Y-124630180D01*
X118747540Y-124650500D01*
X118877080Y-124675900D01*
X119032020Y-124703840D01*
X119161560Y-124729240D01*
X119293640Y-124754640D01*
X119390160Y-124772420D01*
X119430800Y-124782580D01*
X119440960Y-124795280D01*
X119473980Y-124858780D01*
X119522240Y-124960380D01*
X119573040Y-125082300D01*
X119626380Y-125209300D01*
X119672100Y-125326140D01*
X119705120Y-125415040D01*
X119717820Y-125463300D01*
X119700040Y-125496320D01*
X119649240Y-125575060D01*
X119578120Y-125684280D01*
X119486680Y-125816360D01*
X119397780Y-125945900D01*
X119321580Y-126060200D01*
X119270780Y-126138940D01*
X119247920Y-126177040D01*
X119258080Y-126202440D01*
X119311420Y-126265940D01*
X119410480Y-126367540D01*
X119557800Y-126512320D01*
X119580660Y-126535180D01*
X119697500Y-126649480D01*
X119796560Y-126740920D01*
X119865140Y-126801880D01*
X119895620Y-126824740D01*
D12*
X83258572Y-140249286D02*
X82858572Y-140249286D01*
X82858572Y-140877857D02*
X82858572Y-139677857D01*
X83430001Y-139677857D01*
X84344286Y-140820714D02*
X84230000Y-140877857D01*
X84001429Y-140877857D01*
X83887143Y-140820714D01*
X83830000Y-140706429D01*
X83830000Y-140249286D01*
X83887143Y-140135000D01*
X84001429Y-140077857D01*
X84230000Y-140077857D01*
X84344286Y-140135000D01*
X84401429Y-140249286D01*
X84401429Y-140363571D01*
X83830000Y-140477857D01*
X85430000Y-140877857D02*
X85430000Y-140249286D01*
X85372857Y-140135000D01*
X85258571Y-140077857D01*
X85030000Y-140077857D01*
X84915714Y-140135000D01*
X85430000Y-140820714D02*
X85315714Y-140877857D01*
X85030000Y-140877857D01*
X84915714Y-140820714D01*
X84858571Y-140706429D01*
X84858571Y-140592143D01*
X84915714Y-140477857D01*
X85030000Y-140420714D01*
X85315714Y-140420714D01*
X85430000Y-140363571D01*
X85830000Y-140077857D02*
X86287143Y-140077857D01*
X86001428Y-139677857D02*
X86001428Y-140706429D01*
X86058571Y-140820714D01*
X86172857Y-140877857D01*
X86287143Y-140877857D01*
X86687142Y-140877857D02*
X86687142Y-139677857D01*
X87201428Y-140877857D02*
X87201428Y-140249286D01*
X87144285Y-140135000D01*
X87029999Y-140077857D01*
X86858571Y-140077857D01*
X86744285Y-140135000D01*
X86687142Y-140192143D01*
X88229999Y-140820714D02*
X88115713Y-140877857D01*
X87887142Y-140877857D01*
X87772856Y-140820714D01*
X87715713Y-140706429D01*
X87715713Y-140249286D01*
X87772856Y-140135000D01*
X87887142Y-140077857D01*
X88115713Y-140077857D01*
X88229999Y-140135000D01*
X88287142Y-140249286D01*
X88287142Y-140363571D01*
X87715713Y-140477857D01*
X88801427Y-140877857D02*
X88801427Y-140077857D01*
X88801427Y-140306429D02*
X88858570Y-140192143D01*
X88915713Y-140135000D01*
X89029999Y-140077857D01*
X89144284Y-140077857D01*
X89258570Y-140992143D02*
X90172856Y-140992143D01*
X90458570Y-140877857D02*
X90458570Y-139677857D01*
X90858570Y-140535000D01*
X91258570Y-139677857D01*
X91258570Y-140877857D01*
X92058571Y-139677857D02*
X92172856Y-139677857D01*
X92287142Y-139735000D01*
X92344285Y-139792143D01*
X92401428Y-139906429D01*
X92458571Y-140135000D01*
X92458571Y-140420714D01*
X92401428Y-140649286D01*
X92344285Y-140763571D01*
X92287142Y-140820714D01*
X92172856Y-140877857D01*
X92058571Y-140877857D01*
X91944285Y-140820714D01*
X91887142Y-140763571D01*
X91829999Y-140649286D01*
X91772856Y-140420714D01*
X91772856Y-140135000D01*
X91829999Y-139906429D01*
X91887142Y-139792143D01*
X91944285Y-139735000D01*
X92058571Y-139677857D01*
D16*
X94288429Y-112612714D02*
X94288429Y-113229571D01*
X94324714Y-113302143D01*
X94361000Y-113338429D01*
X94433571Y-113374714D01*
X94578714Y-113374714D01*
X94651286Y-113338429D01*
X94687571Y-113302143D01*
X94723857Y-113229571D01*
X94723857Y-112612714D01*
X95050429Y-113338429D02*
X95159286Y-113374714D01*
X95340715Y-113374714D01*
X95413286Y-113338429D01*
X95449572Y-113302143D01*
X95485857Y-113229571D01*
X95485857Y-113157000D01*
X95449572Y-113084429D01*
X95413286Y-113048143D01*
X95340715Y-113011857D01*
X95195572Y-112975571D01*
X95123000Y-112939286D01*
X95086715Y-112903000D01*
X95050429Y-112830429D01*
X95050429Y-112757857D01*
X95086715Y-112685286D01*
X95123000Y-112649000D01*
X95195572Y-112612714D01*
X95377000Y-112612714D01*
X95485857Y-112649000D01*
X96066429Y-112975571D02*
X96175286Y-113011857D01*
X96211571Y-113048143D01*
X96247857Y-113120714D01*
X96247857Y-113229571D01*
X96211571Y-113302143D01*
X96175286Y-113338429D01*
X96102714Y-113374714D01*
X95812429Y-113374714D01*
X95812429Y-112612714D01*
X96066429Y-112612714D01*
X96139000Y-112649000D01*
X96175286Y-112685286D01*
X96211571Y-112757857D01*
X96211571Y-112830429D01*
X96175286Y-112903000D01*
X96139000Y-112939286D01*
X96066429Y-112975571D01*
X95812429Y-112975571D01*
X94687572Y-107895571D02*
X94796429Y-107931857D01*
X94832714Y-107968143D01*
X94869000Y-108040714D01*
X94869000Y-108149571D01*
X94832714Y-108222143D01*
X94796429Y-108258429D01*
X94723857Y-108294714D01*
X94433572Y-108294714D01*
X94433572Y-107532714D01*
X94687572Y-107532714D01*
X94760143Y-107569000D01*
X94796429Y-107605286D01*
X94832714Y-107677857D01*
X94832714Y-107750429D01*
X94796429Y-107823000D01*
X94760143Y-107859286D01*
X94687572Y-107895571D01*
X94433572Y-107895571D01*
X95159286Y-108077000D02*
X95522143Y-108077000D01*
X95086714Y-108294714D02*
X95340714Y-107532714D01*
X95594714Y-108294714D01*
X95739857Y-107532714D02*
X96175286Y-107532714D01*
X95957572Y-108294714D02*
X95957572Y-107532714D01*
X79447572Y-126074714D02*
X79447572Y-125312714D01*
X79701572Y-125857000D01*
X79955572Y-125312714D01*
X79955572Y-126074714D01*
X80463571Y-125312714D02*
X80608714Y-125312714D01*
X80681286Y-125349000D01*
X80753857Y-125421571D01*
X80790143Y-125566714D01*
X80790143Y-125820714D01*
X80753857Y-125965857D01*
X80681286Y-126038429D01*
X80608714Y-126074714D01*
X80463571Y-126074714D01*
X80391000Y-126038429D01*
X80318429Y-125965857D01*
X80282143Y-125820714D01*
X80282143Y-125566714D01*
X80318429Y-125421571D01*
X80391000Y-125349000D01*
X80463571Y-125312714D01*
X81080429Y-126038429D02*
X81189286Y-126074714D01*
X81370715Y-126074714D01*
X81443286Y-126038429D01*
X81479572Y-126002143D01*
X81515857Y-125929571D01*
X81515857Y-125857000D01*
X81479572Y-125784429D01*
X81443286Y-125748143D01*
X81370715Y-125711857D01*
X81225572Y-125675571D01*
X81153000Y-125639286D01*
X81116715Y-125603000D01*
X81080429Y-125530429D01*
X81080429Y-125457857D01*
X81116715Y-125385286D01*
X81153000Y-125349000D01*
X81225572Y-125312714D01*
X81407000Y-125312714D01*
X81515857Y-125349000D01*
X81842429Y-126074714D02*
X81842429Y-125312714D01*
X79665286Y-123498429D02*
X79774143Y-123534714D01*
X79955572Y-123534714D01*
X80028143Y-123498429D01*
X80064429Y-123462143D01*
X80100714Y-123389571D01*
X80100714Y-123317000D01*
X80064429Y-123244429D01*
X80028143Y-123208143D01*
X79955572Y-123171857D01*
X79810429Y-123135571D01*
X79737857Y-123099286D01*
X79701572Y-123063000D01*
X79665286Y-122990429D01*
X79665286Y-122917857D01*
X79701572Y-122845286D01*
X79737857Y-122809000D01*
X79810429Y-122772714D01*
X79991857Y-122772714D01*
X80100714Y-122809000D01*
X80862714Y-123462143D02*
X80826428Y-123498429D01*
X80717571Y-123534714D01*
X80645000Y-123534714D01*
X80536143Y-123498429D01*
X80463571Y-123425857D01*
X80427286Y-123353286D01*
X80391000Y-123208143D01*
X80391000Y-123099286D01*
X80427286Y-122954143D01*
X80463571Y-122881571D01*
X80536143Y-122809000D01*
X80645000Y-122772714D01*
X80717571Y-122772714D01*
X80826428Y-122809000D01*
X80862714Y-122845286D01*
X81189286Y-123534714D02*
X81189286Y-122772714D01*
X81624714Y-123534714D02*
X81298143Y-123099286D01*
X81624714Y-122772714D02*
X81189286Y-123208143D01*
X80064428Y-105029000D02*
X79991857Y-104992714D01*
X79883000Y-104992714D01*
X79774143Y-105029000D01*
X79701571Y-105101571D01*
X79665286Y-105174143D01*
X79629000Y-105319286D01*
X79629000Y-105428143D01*
X79665286Y-105573286D01*
X79701571Y-105645857D01*
X79774143Y-105718429D01*
X79883000Y-105754714D01*
X79955571Y-105754714D01*
X80064428Y-105718429D01*
X80100714Y-105682143D01*
X80100714Y-105428143D01*
X79955571Y-105428143D01*
X80427286Y-105754714D02*
X80427286Y-104992714D01*
X80862714Y-105754714D01*
X80862714Y-104992714D01*
X81225572Y-105754714D02*
X81225572Y-104992714D01*
X81407000Y-104992714D01*
X81515857Y-105029000D01*
X81588429Y-105101571D01*
X81624714Y-105174143D01*
X81661000Y-105319286D01*
X81661000Y-105428143D01*
X81624714Y-105573286D01*
X81588429Y-105645857D01*
X81515857Y-105718429D01*
X81407000Y-105754714D01*
X81225572Y-105754714D01*
D17*
X102292633Y-128342633D02*
X103011054Y-127624212D01*
X103113685Y-128205791D02*
X102634739Y-128684738D01*
X103045264Y-128274212D02*
X103113685Y-128274212D01*
X103216317Y-128308423D01*
X103318948Y-128411054D01*
X103353158Y-128513685D01*
X103318948Y-128616317D01*
X102942633Y-128992632D01*
X103763685Y-128855791D02*
X103045264Y-129574211D01*
X103729474Y-128890001D02*
X103832106Y-128924212D01*
X103968947Y-129061053D01*
X104003158Y-129163685D01*
X104003158Y-129232106D01*
X103968947Y-129334738D01*
X103763685Y-129540000D01*
X103661053Y-129574211D01*
X103592632Y-129574211D01*
X103490001Y-129540000D01*
X103353159Y-129403159D01*
X103318949Y-129300527D01*
X104721578Y-129813684D02*
X104242632Y-130292631D01*
X104413684Y-129505790D02*
X104037369Y-129882105D01*
X104003159Y-129984737D01*
X104037369Y-130087369D01*
X104140000Y-130189999D01*
X104242632Y-130224210D01*
X104311053Y-130224210D01*
X104961052Y-130053158D02*
X105234736Y-130326842D01*
X105303157Y-129916316D02*
X104687369Y-130532105D01*
X104653158Y-130634736D01*
X104687369Y-130737368D01*
X104755790Y-130805789D01*
X105611052Y-130361052D02*
X105679473Y-130361052D01*
X105782104Y-130395263D01*
X105953156Y-130566315D01*
X105987367Y-130668946D01*
X105987367Y-130737367D01*
X105953156Y-130839999D01*
X105884735Y-130908420D01*
X105747893Y-130976841D01*
X104926842Y-130976841D01*
X105371578Y-131421577D01*
D18*
X101509286Y-125149429D02*
X101509286Y-123625429D01*
X101872143Y-123625429D01*
X102089858Y-123698000D01*
X102235000Y-123843143D01*
X102307572Y-123988286D01*
X102380143Y-124278571D01*
X102380143Y-124496286D01*
X102307572Y-124786571D01*
X102235000Y-124931714D01*
X102089858Y-125076857D01*
X101872143Y-125149429D01*
X101509286Y-125149429D01*
X103033286Y-125149429D02*
X103033286Y-123625429D01*
X103396143Y-125294571D02*
X104557286Y-125294571D01*
X104847572Y-124714000D02*
X105573286Y-124714000D01*
X104702429Y-125149429D02*
X105210429Y-123625429D01*
X105718429Y-125149429D01*
X117583858Y-138938000D02*
X117438715Y-138865429D01*
X117221001Y-138865429D01*
X117003286Y-138938000D01*
X116858144Y-139083143D01*
X116785572Y-139228286D01*
X116713001Y-139518571D01*
X116713001Y-139736286D01*
X116785572Y-140026571D01*
X116858144Y-140171714D01*
X117003286Y-140316857D01*
X117221001Y-140389429D01*
X117366144Y-140389429D01*
X117583858Y-140316857D01*
X117656429Y-140244286D01*
X117656429Y-139736286D01*
X117366144Y-139736286D01*
X118309572Y-140389429D02*
X118309572Y-138865429D01*
X119180429Y-140389429D01*
X119180429Y-138865429D01*
X119906143Y-140389429D02*
X119906143Y-138865429D01*
X120269000Y-138865429D01*
X120486715Y-138938000D01*
X120631857Y-139083143D01*
X120704429Y-139228286D01*
X120777000Y-139518571D01*
X120777000Y-139736286D01*
X120704429Y-140026571D01*
X120631857Y-140171714D01*
X120486715Y-140316857D01*
X120269000Y-140389429D01*
X119906143Y-140389429D01*
X119724714Y-93145429D02*
X118999000Y-93145429D01*
X118926429Y-93871143D01*
X118999000Y-93798571D01*
X119144143Y-93726000D01*
X119507000Y-93726000D01*
X119652143Y-93798571D01*
X119724714Y-93871143D01*
X119797286Y-94016286D01*
X119797286Y-94379143D01*
X119724714Y-94524286D01*
X119652143Y-94596857D01*
X119507000Y-94669429D01*
X119144143Y-94669429D01*
X118999000Y-94596857D01*
X118926429Y-94524286D01*
X120232715Y-93145429D02*
X120740715Y-94669429D01*
X121248715Y-93145429D01*
X102380143Y-109764286D02*
X102307572Y-109836857D01*
X102089858Y-109909429D01*
X101944715Y-109909429D01*
X101727000Y-109836857D01*
X101581858Y-109691714D01*
X101509286Y-109546571D01*
X101436715Y-109256286D01*
X101436715Y-109038571D01*
X101509286Y-108748286D01*
X101581858Y-108603143D01*
X101727000Y-108458000D01*
X101944715Y-108385429D01*
X102089858Y-108385429D01*
X102307572Y-108458000D01*
X102380143Y-108530571D01*
X103033286Y-109909429D02*
X103033286Y-108385429D01*
X103396143Y-110054571D02*
X104557286Y-110054571D01*
X104847572Y-109474000D02*
X105573286Y-109474000D01*
X104702429Y-109909429D02*
X105210429Y-108385429D01*
X105718429Y-109909429D01*
D17*
X117532633Y-113102633D02*
X118251054Y-112384212D01*
X118353685Y-112965791D02*
X117874739Y-113444738D01*
X118285264Y-113034212D02*
X118353685Y-113034212D01*
X118456317Y-113068423D01*
X118558948Y-113171054D01*
X118593158Y-113273685D01*
X118558948Y-113376317D01*
X118182633Y-113752632D01*
X119003685Y-113615791D02*
X118285264Y-114334211D01*
X118969474Y-113650001D02*
X119072106Y-113684212D01*
X119208947Y-113821053D01*
X119243158Y-113923685D01*
X119243158Y-113992106D01*
X119208947Y-114094738D01*
X119003685Y-114300000D01*
X118901053Y-114334211D01*
X118832632Y-114334211D01*
X118730001Y-114300000D01*
X118593159Y-114163159D01*
X118558949Y-114060527D01*
X119961578Y-114573684D02*
X119482632Y-115052631D01*
X119653684Y-114265790D02*
X119277369Y-114642105D01*
X119243159Y-114744737D01*
X119277369Y-114847369D01*
X119380000Y-114949999D01*
X119482632Y-114984210D01*
X119551053Y-114984210D01*
X120201052Y-114813158D02*
X120474736Y-115086842D01*
X120543157Y-114676316D02*
X119927369Y-115292105D01*
X119893158Y-115394736D01*
X119927369Y-115497368D01*
X119995790Y-115565789D01*
X120611578Y-116181577D02*
X120201052Y-115771052D01*
X120406315Y-115976315D02*
X121124736Y-115257894D01*
X120953683Y-115292105D01*
X120816841Y-115292105D01*
X120714209Y-115257894D01*
X103025797Y-96582102D02*
X103162639Y-96718943D01*
X103196849Y-96821575D01*
X103196849Y-96958417D01*
X103094218Y-97129470D01*
X102854745Y-97368943D01*
X102683692Y-97471574D01*
X102546850Y-97471574D01*
X102444218Y-97437364D01*
X102307377Y-97300522D01*
X102273166Y-97197891D01*
X102273166Y-97061048D01*
X102375798Y-96889996D01*
X102615271Y-96650523D01*
X102786324Y-96547891D01*
X102923166Y-96547891D01*
X103025797Y-96582102D01*
X103710007Y-97745258D02*
X103231060Y-98224205D01*
X103402112Y-97437364D02*
X103025797Y-97813679D01*
X102991587Y-97916311D01*
X103025797Y-98018943D01*
X103128428Y-98121574D01*
X103231060Y-98155784D01*
X103299481Y-98155784D01*
X103949480Y-97984732D02*
X104223165Y-98258416D01*
X104291586Y-97847890D02*
X103675797Y-98463679D01*
X103641586Y-98566311D01*
X103675797Y-98668942D01*
X103744218Y-98737363D01*
X104462638Y-98497889D02*
X103744217Y-99216310D01*
X104428427Y-98532100D02*
X104531059Y-98566311D01*
X104667900Y-98703152D01*
X104702111Y-98805784D01*
X104702111Y-98874205D01*
X104667900Y-98976836D01*
X104462638Y-99182099D01*
X104360006Y-99216309D01*
X104291585Y-99216309D01*
X104188953Y-99182099D01*
X104052112Y-99045257D01*
X104017901Y-98942626D01*
X105420531Y-99455783D02*
X104941584Y-99934730D01*
X105112637Y-99147889D02*
X104736322Y-99524204D01*
X104702111Y-99626836D01*
X104736322Y-99729467D01*
X104838953Y-99832098D01*
X104941584Y-99866309D01*
X105010005Y-99866309D01*
X105660005Y-99695257D02*
X105933689Y-99968941D01*
X106002110Y-99558415D02*
X105386321Y-100174203D01*
X105352111Y-100276835D01*
X105386321Y-100379467D01*
X105454742Y-100447888D01*
X106070530Y-101063676D02*
X105660005Y-100653150D01*
X105865268Y-100858413D02*
X106583688Y-100139993D01*
X106412636Y-100174203D01*
X106275794Y-100174203D01*
X106173162Y-100139993D01*
X87497370Y-112110529D02*
X87634212Y-112247370D01*
X87668422Y-112350002D01*
X87668422Y-112486844D01*
X87565791Y-112657897D01*
X87326318Y-112897370D01*
X87155265Y-113000001D01*
X87018423Y-113000001D01*
X86915791Y-112965791D01*
X86778950Y-112828949D01*
X86744739Y-112726318D01*
X86744739Y-112589475D01*
X86847371Y-112418423D01*
X87086844Y-112178950D01*
X87257897Y-112076318D01*
X87394739Y-112076318D01*
X87497370Y-112110529D01*
X88181580Y-113273685D02*
X87702633Y-113752632D01*
X87873685Y-112965791D02*
X87497370Y-113342106D01*
X87463160Y-113444738D01*
X87497370Y-113547370D01*
X87600001Y-113650001D01*
X87702633Y-113684211D01*
X87771054Y-113684211D01*
X88421053Y-113513159D02*
X88694738Y-113786843D01*
X88763159Y-113376317D02*
X88147370Y-113992106D01*
X88113159Y-114094738D01*
X88147370Y-114197369D01*
X88215791Y-114265790D01*
X88934211Y-114026316D02*
X88215790Y-114744737D01*
X88900000Y-114060527D02*
X89002632Y-114094738D01*
X89139473Y-114231579D01*
X89173684Y-114334211D01*
X89173684Y-114402632D01*
X89139473Y-114505263D01*
X88934211Y-114710526D01*
X88831579Y-114744736D01*
X88763158Y-114744736D01*
X88660526Y-114710526D01*
X88523685Y-114573684D01*
X88489474Y-114471053D01*
X89892104Y-114984210D02*
X89413157Y-115463157D01*
X89584210Y-114676316D02*
X89207895Y-115052631D01*
X89173684Y-115155263D01*
X89207895Y-115257894D01*
X89310526Y-115360525D01*
X89413157Y-115394736D01*
X89481578Y-115394736D01*
X90131578Y-115223684D02*
X90405262Y-115497368D01*
X90473683Y-115086842D02*
X89857894Y-115702630D01*
X89823684Y-115805262D01*
X89857894Y-115907894D01*
X89926315Y-115976315D01*
X90781577Y-115531578D02*
X90849998Y-115531578D01*
X90952630Y-115565788D01*
X91123682Y-115736840D01*
X91157892Y-115839472D01*
X91157892Y-115907893D01*
X91123682Y-116010525D01*
X91055261Y-116078946D01*
X90918419Y-116147367D01*
X90097367Y-116147367D01*
X90542103Y-116592103D01*
D16*
X118944571Y-127598714D02*
X119060685Y-127598714D01*
X119118743Y-127635000D01*
X119176800Y-127707571D01*
X119205828Y-127852714D01*
X119205828Y-128106714D01*
X119176800Y-128251857D01*
X119118743Y-128324429D01*
X119060685Y-128360714D01*
X118944571Y-128360714D01*
X118886514Y-128324429D01*
X118828457Y-128251857D01*
X118799428Y-128106714D01*
X118799428Y-127852714D01*
X118828457Y-127707571D01*
X118886514Y-127635000D01*
X118944571Y-127598714D01*
X119467086Y-127852714D02*
X119467086Y-128614714D01*
X119467086Y-127889000D02*
X119525143Y-127852714D01*
X119641257Y-127852714D01*
X119699314Y-127889000D01*
X119728343Y-127925286D01*
X119757372Y-127997857D01*
X119757372Y-128215571D01*
X119728343Y-128288143D01*
X119699314Y-128324429D01*
X119641257Y-128360714D01*
X119525143Y-128360714D01*
X119467086Y-128324429D01*
X120250857Y-128324429D02*
X120192800Y-128360714D01*
X120076686Y-128360714D01*
X120018629Y-128324429D01*
X119989600Y-128251857D01*
X119989600Y-127961571D01*
X120018629Y-127889000D01*
X120076686Y-127852714D01*
X120192800Y-127852714D01*
X120250857Y-127889000D01*
X120279886Y-127961571D01*
X120279886Y-128034143D01*
X119989600Y-128106714D01*
X120541143Y-127852714D02*
X120541143Y-128360714D01*
X120541143Y-127925286D02*
X120570171Y-127889000D01*
X120628229Y-127852714D01*
X120715314Y-127852714D01*
X120773371Y-127889000D01*
X120802400Y-127961571D01*
X120802400Y-128360714D01*
X121092686Y-128360714D02*
X121092686Y-127598714D01*
X121092686Y-127961571D02*
X121441029Y-127961571D01*
X121441029Y-128360714D02*
X121441029Y-127598714D01*
X121992572Y-128360714D02*
X121992572Y-127961571D01*
X121963543Y-127889000D01*
X121905486Y-127852714D01*
X121789372Y-127852714D01*
X121731315Y-127889000D01*
X121992572Y-128324429D02*
X121934515Y-128360714D01*
X121789372Y-128360714D01*
X121731315Y-128324429D01*
X121702286Y-128251857D01*
X121702286Y-128179286D01*
X121731315Y-128106714D01*
X121789372Y-128070429D01*
X121934515Y-128070429D01*
X121992572Y-128034143D01*
X122282858Y-128360714D02*
X122282858Y-127852714D01*
X122282858Y-127997857D02*
X122311886Y-127925286D01*
X122340915Y-127889000D01*
X122398972Y-127852714D01*
X122457029Y-127852714D01*
X122921486Y-128360714D02*
X122921486Y-127598714D01*
X122921486Y-128324429D02*
X122863429Y-128360714D01*
X122747315Y-128360714D01*
X122689257Y-128324429D01*
X122660229Y-128288143D01*
X122631200Y-128215571D01*
X122631200Y-127997857D01*
X122660229Y-127925286D01*
X122689257Y-127889000D01*
X122747315Y-127852714D01*
X122863429Y-127852714D01*
X122921486Y-127889000D01*
X123153715Y-127852714D02*
X123269829Y-128360714D01*
X123385943Y-127997857D01*
X123502058Y-128360714D01*
X123618172Y-127852714D01*
X124111658Y-128360714D02*
X124111658Y-127961571D01*
X124082629Y-127889000D01*
X124024572Y-127852714D01*
X123908458Y-127852714D01*
X123850401Y-127889000D01*
X124111658Y-128324429D02*
X124053601Y-128360714D01*
X123908458Y-128360714D01*
X123850401Y-128324429D01*
X123821372Y-128251857D01*
X123821372Y-128179286D01*
X123850401Y-128106714D01*
X123908458Y-128070429D01*
X124053601Y-128070429D01*
X124111658Y-128034143D01*
X124401944Y-128360714D02*
X124401944Y-127852714D01*
X124401944Y-127997857D02*
X124430972Y-127925286D01*
X124460001Y-127889000D01*
X124518058Y-127852714D01*
X124576115Y-127852714D01*
X125011543Y-128324429D02*
X124953486Y-128360714D01*
X124837372Y-128360714D01*
X124779315Y-128324429D01*
X124750286Y-128251857D01*
X124750286Y-127961571D01*
X124779315Y-127889000D01*
X124837372Y-127852714D01*
X124953486Y-127852714D01*
X125011543Y-127889000D01*
X125040572Y-127961571D01*
X125040572Y-128034143D01*
X124750286Y-128106714D01*
%LPC*%
D19*
X77470000Y-105410000D03*
X97790000Y-107950000D03*
X97790000Y-113030000D03*
X77470000Y-123190000D03*
X77470000Y-125730000D03*
D20*
X77470000Y-97790000D03*
X77470000Y-100330000D03*
X77470000Y-102870000D03*
X77470000Y-107950000D03*
X77470000Y-110490000D03*
X77470000Y-113030000D03*
X77470000Y-115570000D03*
X77470000Y-118110000D03*
X77470000Y-120650000D03*
X77470000Y-128270000D03*
X77470000Y-130810000D03*
X77470000Y-133350000D03*
X77470000Y-135890000D03*
D21*
X97790000Y-135890000D03*
X97790000Y-133350000D03*
X97790000Y-130810000D03*
X97790000Y-128270000D03*
X97790000Y-125730000D03*
D20*
X97790000Y-123190000D03*
X97790000Y-120650000D03*
X97790000Y-118110000D03*
X97790000Y-115570000D03*
X97790000Y-110490000D03*
D22*
X78740000Y-93980000D03*
X78740000Y-139700000D03*
X96520000Y-139700000D03*
X96520000Y-93980000D03*
D23*
X90170000Y-93980000D03*
X87630000Y-93980000D03*
X85090000Y-93980000D03*
D24*
X87630000Y-96520000D03*
D25*
X85344000Y-96520000D03*
X89916000Y-96520000D03*
D26*
X101600000Y-130283949D03*
X99803949Y-132080000D03*
X101600000Y-133876051D03*
X103396051Y-132080000D03*
D27*
X109220002Y-124460000D03*
X124460000Y-139700000D03*
X124460000Y-93980000D03*
X109220000Y-109220000D03*
D26*
X116840000Y-118636051D03*
X118636051Y-116840000D03*
X116840000Y-115043949D03*
X115043949Y-116840000D03*
X103396051Y-101600000D03*
X101600000Y-99803949D03*
X99803949Y-101600000D03*
X101600000Y-103396051D03*
X84563949Y-116840000D03*
X86360000Y-118636051D03*
X88156051Y-116840000D03*
X86360000Y-115043949D03*
M02*
