%TF.GenerationSoftware,KiCad,Pcbnew,4.0.6-e0-6349~53~ubuntu16.04.1*%
%TF.CreationDate,2017-03-19T18:17:34+05:30*%
%TF.ProjectId,feather_v3,666561746865725F76332E6B69636164,rev?*%
%TF.FileFunction,Copper,L2,Bot,Signal*%
%FSLAX46Y46*%
G04 Gerber Fmt 4.6, Leading zero omitted, Abs format (unit mm)*
G04 Created by KiCad (PCBNEW 4.0.6-e0-6349~53~ubuntu16.04.1) date Sun Mar 19 18:17:34 2017*
%MOMM*%
%LPD*%
G01*
G04 APERTURE LIST*
%ADD10C,0.101600*%
%ADD11R,1.778000X1.778000*%
%ADD12C,1.778000*%
%ADD13C,1.524000*%
%ADD14O,1.727200X2.032000*%
%ADD15C,1.397000*%
%ADD16C,5.600000*%
%ADD17C,0.762000*%
%ADD18C,0.254000*%
G04 APERTURE END LIST*
D10*
D11*
X77470000Y-105410000D03*
X97790000Y-107950000D03*
X97790000Y-113030000D03*
X77470000Y-123190000D03*
X77470000Y-125730000D03*
D12*
X77470000Y-97790000D03*
X77470000Y-100330000D03*
X77470000Y-102870000D03*
X77470000Y-107950000D03*
X77470000Y-110490000D03*
X77470000Y-113030000D03*
X77470000Y-115570000D03*
X77470000Y-118110000D03*
X77470000Y-120650000D03*
X77470000Y-128270000D03*
X77470000Y-130810000D03*
X77470000Y-133350000D03*
X77470000Y-135890000D03*
D13*
X97790000Y-135890000D03*
X97790000Y-133350000D03*
X97790000Y-130810000D03*
X97790000Y-128270000D03*
X97790000Y-125730000D03*
D12*
X97790000Y-123190000D03*
X97790000Y-120650000D03*
X97790000Y-118110000D03*
X97790000Y-115570000D03*
X97790000Y-110490000D03*
D14*
X90170000Y-93980000D03*
X87630000Y-93980000D03*
X85090000Y-93980000D03*
D15*
X101600000Y-130283949D03*
X99803949Y-132080000D03*
X101600000Y-133876051D03*
X103396051Y-132080000D03*
D16*
X109220002Y-124460000D03*
X124460000Y-139700000D03*
X124460000Y-93980000D03*
X109220000Y-109220000D03*
D15*
X116840000Y-118636051D03*
X118636051Y-116840000D03*
X116840000Y-115043949D03*
X115043949Y-116840000D03*
X103396051Y-101600000D03*
X101600000Y-99803949D03*
X99803949Y-101600000D03*
X101600000Y-103396051D03*
X84563949Y-116840000D03*
X86360000Y-118636051D03*
X88156051Y-116840000D03*
X86360000Y-115043949D03*
D17*
X82550000Y-114826051D02*
X82550000Y-116840000D01*
X82550000Y-116840000D02*
X82550000Y-135255000D01*
X84563949Y-116840000D02*
X82550000Y-116840000D01*
X86563201Y-137363201D02*
X86995000Y-137363201D01*
X86995000Y-137363201D02*
X100761799Y-137363201D01*
X82550000Y-135255000D02*
X84658201Y-137363201D01*
X84658201Y-137363201D02*
X86995000Y-137363201D01*
X100761799Y-137363201D02*
X101600000Y-137363201D01*
X101600000Y-137363201D02*
X110693201Y-137363201D01*
X101600000Y-133876051D02*
X101600000Y-137363201D01*
X110693201Y-137363201D02*
X113030000Y-139700000D01*
X124460000Y-123190000D02*
X124460000Y-116840000D01*
X124460000Y-116840000D02*
X124460000Y-102870000D01*
X118636051Y-116840000D02*
X124460000Y-116840000D01*
X124460000Y-102870000D02*
X118745000Y-97155000D01*
X118745000Y-97155000D02*
X115570000Y-97155000D01*
X124460000Y-123190000D02*
X124460000Y-122663949D01*
X124460000Y-139700000D02*
X124460000Y-123190000D01*
X115570000Y-97155000D02*
X104248949Y-97155000D01*
X104248949Y-97155000D02*
X101600000Y-99803949D01*
X113030000Y-139700000D02*
X124460000Y-139700000D01*
X82550000Y-107315000D02*
X82550000Y-114826051D01*
X80645000Y-105410000D02*
X82550000Y-107315000D01*
X77470000Y-105410000D02*
X80645000Y-105410000D01*
D18*
G36*
X121549646Y-92031688D02*
X121025597Y-93293739D01*
X121024405Y-94660266D01*
X121546250Y-95923229D01*
X122511688Y-96890354D01*
X123773739Y-97414403D01*
X125140266Y-97415595D01*
X126403229Y-96893750D01*
X126925000Y-96372889D01*
X126925000Y-137215524D01*
X126844934Y-137135458D01*
X126732734Y-137247658D01*
X126414499Y-136793797D01*
X125153566Y-136267064D01*
X123787044Y-136262965D01*
X122522973Y-136782122D01*
X122505501Y-136793797D01*
X122187265Y-137247660D01*
X124460000Y-139520395D01*
X124474143Y-139506253D01*
X124653748Y-139685858D01*
X124639605Y-139700000D01*
X124653748Y-139714143D01*
X124474143Y-139893748D01*
X124460000Y-139879605D01*
X124445858Y-139893748D01*
X124266253Y-139714143D01*
X124280395Y-139700000D01*
X122007660Y-137427265D01*
X121553797Y-137745501D01*
X121027064Y-139006434D01*
X121022965Y-140372956D01*
X121542122Y-141637027D01*
X121553797Y-141654499D01*
X122007658Y-141972734D01*
X121895458Y-142084934D01*
X121975524Y-142165000D01*
X78809931Y-142165000D01*
X77802007Y-141964512D01*
X77006817Y-141433183D01*
X76475488Y-140637993D01*
X76373959Y-140127567D01*
X76580626Y-140127567D01*
X76908622Y-140921377D01*
X77515428Y-141529244D01*
X78308664Y-141858624D01*
X79167567Y-141859374D01*
X79961377Y-141531378D01*
X80569244Y-140924572D01*
X80898624Y-140131336D01*
X80898627Y-140127567D01*
X94360626Y-140127567D01*
X94688622Y-140921377D01*
X95295428Y-141529244D01*
X96088664Y-141858624D01*
X96947567Y-141859374D01*
X97741377Y-141531378D01*
X98349244Y-140924572D01*
X98678624Y-140131336D01*
X98679374Y-139272433D01*
X98351378Y-138478623D01*
X97744572Y-137870756D01*
X96951336Y-137541376D01*
X96092433Y-137540626D01*
X95298623Y-137868622D01*
X94690756Y-138475428D01*
X94361376Y-139268664D01*
X94360626Y-140127567D01*
X80898627Y-140127567D01*
X80899374Y-139272433D01*
X80571378Y-138478623D01*
X79964572Y-137870756D01*
X79171336Y-137541376D01*
X78312433Y-137540626D01*
X77518623Y-137868622D01*
X76910756Y-138475428D01*
X76581376Y-139268664D01*
X76580626Y-140127567D01*
X76373959Y-140127567D01*
X76275000Y-139630069D01*
X76275000Y-136850058D01*
X76605596Y-137181231D01*
X77165528Y-137413735D01*
X77771812Y-137414264D01*
X78332149Y-137182738D01*
X78761231Y-136754404D01*
X78993735Y-136194472D01*
X78994264Y-135588188D01*
X78762738Y-135027851D01*
X78355263Y-134619664D01*
X78761231Y-134214404D01*
X78993735Y-133654472D01*
X78994264Y-133048188D01*
X78762738Y-132487851D01*
X78355263Y-132079664D01*
X78761231Y-131674404D01*
X78993735Y-131114472D01*
X78994264Y-130508188D01*
X78762738Y-129947851D01*
X78355263Y-129539664D01*
X78761231Y-129134404D01*
X78993735Y-128574472D01*
X78994264Y-127968188D01*
X78762738Y-127407851D01*
X78580052Y-127224846D01*
X78594317Y-127222162D01*
X78810441Y-127083090D01*
X78955431Y-126870890D01*
X79006440Y-126619000D01*
X79006440Y-124841000D01*
X78962162Y-124605683D01*
X78867834Y-124459093D01*
X78955431Y-124330890D01*
X79006440Y-124079000D01*
X79006440Y-122301000D01*
X78962162Y-122065683D01*
X78823090Y-121849559D01*
X78610890Y-121704569D01*
X78577506Y-121697809D01*
X78761231Y-121514404D01*
X78993735Y-120954472D01*
X78994264Y-120348188D01*
X78762738Y-119787851D01*
X78355263Y-119379664D01*
X78761231Y-118974404D01*
X78993735Y-118414472D01*
X78994264Y-117808188D01*
X78762738Y-117247851D01*
X78692210Y-117177199D01*
X83246801Y-117177199D01*
X83476103Y-117655582D01*
X83871020Y-118009800D01*
X84226750Y-118157148D01*
X84436949Y-118034141D01*
X84436949Y-116967000D01*
X83369808Y-116967000D01*
X83246801Y-117177199D01*
X78692210Y-117177199D01*
X78355263Y-116839664D01*
X78692714Y-116502801D01*
X83246801Y-116502801D01*
X83369808Y-116713000D01*
X84436949Y-116713000D01*
X84436949Y-116646251D01*
X84578090Y-116646251D01*
X84757698Y-116825859D01*
X84870557Y-116713000D01*
X85758090Y-116713000D01*
X85881097Y-116502801D01*
X85753141Y-116235851D01*
X86093587Y-116377217D01*
X86624086Y-116377680D01*
X86962130Y-116238003D01*
X86822783Y-116573587D01*
X86822320Y-117104086D01*
X86961997Y-117442130D01*
X86626413Y-117302783D01*
X86095914Y-117302320D01*
X85774211Y-117435245D01*
X85881097Y-117177199D01*
X85758090Y-116967000D01*
X84870557Y-116967000D01*
X84757698Y-116854141D01*
X84578090Y-117033749D01*
X84690949Y-117146608D01*
X84690949Y-118034141D01*
X84901148Y-118157148D01*
X85168098Y-118029192D01*
X85026732Y-118369638D01*
X85026269Y-118900137D01*
X85228854Y-119390431D01*
X85603647Y-119765878D01*
X86093587Y-119969319D01*
X86624086Y-119969782D01*
X87114380Y-119767197D01*
X87489827Y-119392404D01*
X87693268Y-118902464D01*
X87693731Y-118371965D01*
X87554054Y-118033921D01*
X87889638Y-118173268D01*
X88420137Y-118173731D01*
X88910431Y-117971146D01*
X89285878Y-117596353D01*
X89489319Y-117106413D01*
X89489782Y-116575914D01*
X89287197Y-116085620D01*
X88912404Y-115710173D01*
X88422464Y-115506732D01*
X87891965Y-115506269D01*
X87553921Y-115645946D01*
X87693268Y-115310362D01*
X87693731Y-114779863D01*
X87491146Y-114289569D01*
X87116353Y-113914122D01*
X86626413Y-113710681D01*
X86095914Y-113710218D01*
X85605620Y-113912803D01*
X85230173Y-114287596D01*
X85026732Y-114777536D01*
X85026269Y-115308035D01*
X85159194Y-115629738D01*
X84901148Y-115522852D01*
X84690949Y-115645859D01*
X84690949Y-116533392D01*
X84578090Y-116646251D01*
X84436949Y-116646251D01*
X84436949Y-115645859D01*
X84226750Y-115522852D01*
X83748367Y-115752154D01*
X83394149Y-116147071D01*
X83246801Y-116502801D01*
X78692714Y-116502801D01*
X78761231Y-116434404D01*
X78993735Y-115874472D01*
X78994264Y-115268188D01*
X78762738Y-114707851D01*
X78355263Y-114299664D01*
X78761231Y-113894404D01*
X78993735Y-113334472D01*
X78994264Y-112728188D01*
X78762738Y-112167851D01*
X78355263Y-111759664D01*
X78761231Y-111354404D01*
X78993735Y-110794472D01*
X78994264Y-110188188D01*
X78762738Y-109627851D01*
X78355263Y-109219664D01*
X78761231Y-108814404D01*
X78993735Y-108254472D01*
X78994264Y-107648188D01*
X78762738Y-107087851D01*
X78735934Y-107061000D01*
X96253560Y-107061000D01*
X96253560Y-108839000D01*
X96297838Y-109074317D01*
X96436910Y-109290441D01*
X96649110Y-109435431D01*
X96682494Y-109442191D01*
X96498769Y-109625596D01*
X96266265Y-110185528D01*
X96265736Y-110791812D01*
X96497262Y-111352149D01*
X96679948Y-111535154D01*
X96665683Y-111537838D01*
X96449559Y-111676910D01*
X96304569Y-111889110D01*
X96253560Y-112141000D01*
X96253560Y-113919000D01*
X96297838Y-114154317D01*
X96436910Y-114370441D01*
X96649110Y-114515431D01*
X96682494Y-114522191D01*
X96498769Y-114705596D01*
X96266265Y-115265528D01*
X96265736Y-115871812D01*
X96497262Y-116432149D01*
X96904737Y-116840336D01*
X96498769Y-117245596D01*
X96266265Y-117805528D01*
X96265736Y-118411812D01*
X96497262Y-118972149D01*
X96904737Y-119380336D01*
X96498769Y-119785596D01*
X96266265Y-120345528D01*
X96265736Y-120951812D01*
X96497262Y-121512149D01*
X96904737Y-121920336D01*
X96498769Y-122325596D01*
X96266265Y-122885528D01*
X96265736Y-123491812D01*
X96497262Y-124052149D01*
X96925596Y-124481231D01*
X97039519Y-124528536D01*
X96999697Y-124544990D01*
X96606371Y-124937630D01*
X96393243Y-125450900D01*
X96392758Y-126006661D01*
X96604990Y-126520303D01*
X96997630Y-126913629D01*
X97205512Y-126999949D01*
X96999697Y-127084990D01*
X96606371Y-127477630D01*
X96393243Y-127990900D01*
X96392758Y-128546661D01*
X96604990Y-129060303D01*
X96997630Y-129453629D01*
X97205512Y-129539949D01*
X96999697Y-129624990D01*
X96606371Y-130017630D01*
X96393243Y-130530900D01*
X96392758Y-131086661D01*
X96604990Y-131600303D01*
X96997630Y-131993629D01*
X97205512Y-132079949D01*
X96999697Y-132164990D01*
X96606371Y-132557630D01*
X96393243Y-133070900D01*
X96392758Y-133626661D01*
X96604990Y-134140303D01*
X96997630Y-134533629D01*
X97205512Y-134619949D01*
X96999697Y-134704990D01*
X96606371Y-135097630D01*
X96393243Y-135610900D01*
X96392758Y-136166661D01*
X96604990Y-136680303D01*
X96997630Y-137073629D01*
X97510900Y-137286757D01*
X98066661Y-137287242D01*
X98580303Y-137075010D01*
X98973629Y-136682370D01*
X99186757Y-136169100D01*
X99187242Y-135613339D01*
X98975010Y-135099697D01*
X98582370Y-134706371D01*
X98374488Y-134620051D01*
X98580303Y-134535010D01*
X98902625Y-134213250D01*
X100282852Y-134213250D01*
X100512154Y-134691633D01*
X100907071Y-135045851D01*
X101262801Y-135193199D01*
X101473000Y-135070192D01*
X101473000Y-134003051D01*
X101727000Y-134003051D01*
X101727000Y-135070192D01*
X101937199Y-135193199D01*
X102415582Y-134963897D01*
X102769800Y-134568980D01*
X102917148Y-134213250D01*
X102794141Y-134003051D01*
X101727000Y-134003051D01*
X101473000Y-134003051D01*
X100405859Y-134003051D01*
X100282852Y-134213250D01*
X98902625Y-134213250D01*
X98973629Y-134142370D01*
X99186757Y-133629100D01*
X99187072Y-133267743D01*
X99537536Y-133413268D01*
X100068035Y-133413731D01*
X100389738Y-133280806D01*
X100282852Y-133538852D01*
X100405859Y-133749051D01*
X101293392Y-133749051D01*
X101406251Y-133861910D01*
X101585859Y-133682302D01*
X101473000Y-133569443D01*
X101473000Y-132681910D01*
X101262801Y-132558903D01*
X100995851Y-132686859D01*
X101137217Y-132346413D01*
X101137680Y-131815914D01*
X100998003Y-131477870D01*
X101333587Y-131617217D01*
X101864086Y-131617680D01*
X102202130Y-131478003D01*
X102062783Y-131813587D01*
X102062320Y-132344086D01*
X102195245Y-132665789D01*
X101937199Y-132558903D01*
X101727000Y-132681910D01*
X101727000Y-133569443D01*
X101614141Y-133682302D01*
X101793749Y-133861910D01*
X101906608Y-133749051D01*
X102794141Y-133749051D01*
X102917148Y-133538852D01*
X102789192Y-133271902D01*
X103129638Y-133413268D01*
X103660137Y-133413731D01*
X104150431Y-133211146D01*
X104525878Y-132836353D01*
X104729319Y-132346413D01*
X104729782Y-131815914D01*
X104527197Y-131325620D01*
X104152404Y-130950173D01*
X103662464Y-130746732D01*
X103131965Y-130746269D01*
X102793921Y-130885946D01*
X102933268Y-130550362D01*
X102933731Y-130019863D01*
X102731146Y-129529569D01*
X102356353Y-129154122D01*
X101866413Y-128950681D01*
X101335914Y-128950218D01*
X100845620Y-129152803D01*
X100470173Y-129527596D01*
X100266732Y-130017536D01*
X100266269Y-130548035D01*
X100405946Y-130886079D01*
X100070362Y-130746732D01*
X99539863Y-130746269D01*
X99186929Y-130892098D01*
X99187242Y-130533339D01*
X98975010Y-130019697D01*
X98582370Y-129626371D01*
X98374488Y-129540051D01*
X98580303Y-129455010D01*
X98973629Y-129062370D01*
X99186757Y-128549100D01*
X99187242Y-127993339D01*
X98975010Y-127479697D01*
X98582370Y-127086371D01*
X98374488Y-127000051D01*
X98580303Y-126915010D01*
X98973629Y-126522370D01*
X99186757Y-126009100D01*
X99187242Y-125453339D01*
X99057884Y-125140266D01*
X105784407Y-125140266D01*
X106306252Y-126403229D01*
X107271690Y-127370354D01*
X108533741Y-127894403D01*
X109900268Y-127895595D01*
X111163231Y-127373750D01*
X112130356Y-126408312D01*
X112654405Y-125146261D01*
X112655597Y-123779734D01*
X112133752Y-122516771D01*
X111168314Y-121549646D01*
X109906263Y-121025597D01*
X108539736Y-121024405D01*
X107276773Y-121546250D01*
X106309648Y-122511688D01*
X105785599Y-123773739D01*
X105784407Y-125140266D01*
X99057884Y-125140266D01*
X98975010Y-124939697D01*
X98582370Y-124546371D01*
X98540361Y-124528928D01*
X98652149Y-124482738D01*
X99081231Y-124054404D01*
X99313735Y-123494472D01*
X99314264Y-122888188D01*
X99082738Y-122327851D01*
X98675263Y-121919664D01*
X99081231Y-121514404D01*
X99313735Y-120954472D01*
X99314264Y-120348188D01*
X99082738Y-119787851D01*
X98675263Y-119379664D01*
X99081231Y-118974404D01*
X99313735Y-118414472D01*
X99314264Y-117808188D01*
X99082738Y-117247851D01*
X98939224Y-117104086D01*
X113710218Y-117104086D01*
X113912803Y-117594380D01*
X114287596Y-117969827D01*
X114777536Y-118173268D01*
X115308035Y-118173731D01*
X115646079Y-118034054D01*
X115506732Y-118369638D01*
X115506269Y-118900137D01*
X115708854Y-119390431D01*
X116083647Y-119765878D01*
X116573587Y-119969319D01*
X117104086Y-119969782D01*
X117594380Y-119767197D01*
X117969827Y-119392404D01*
X118173268Y-118902464D01*
X118173731Y-118371965D01*
X118040806Y-118050262D01*
X118298852Y-118157148D01*
X118509051Y-118034141D01*
X118509051Y-117146608D01*
X118621910Y-117033749D01*
X118555161Y-116967000D01*
X118763051Y-116967000D01*
X118763051Y-118034141D01*
X118973250Y-118157148D01*
X119451633Y-117927846D01*
X119805851Y-117532929D01*
X119953199Y-117177199D01*
X119830192Y-116967000D01*
X118763051Y-116967000D01*
X118555161Y-116967000D01*
X118442302Y-116854141D01*
X118329443Y-116967000D01*
X117441910Y-116967000D01*
X117318903Y-117177199D01*
X117446859Y-117444149D01*
X117106413Y-117302783D01*
X116575914Y-117302320D01*
X116237870Y-117441997D01*
X116377217Y-117106413D01*
X116377680Y-116575914D01*
X116238003Y-116237870D01*
X116573587Y-116377217D01*
X117104086Y-116377680D01*
X117425789Y-116244755D01*
X117318903Y-116502801D01*
X117441910Y-116713000D01*
X118329443Y-116713000D01*
X118442302Y-116825859D01*
X118621910Y-116646251D01*
X118509051Y-116533392D01*
X118509051Y-115645859D01*
X118763051Y-115645859D01*
X118763051Y-116713000D01*
X119830192Y-116713000D01*
X119953199Y-116502801D01*
X119723897Y-116024418D01*
X119328980Y-115670200D01*
X118973250Y-115522852D01*
X118763051Y-115645859D01*
X118509051Y-115645859D01*
X118298852Y-115522852D01*
X118031902Y-115650808D01*
X118173268Y-115310362D01*
X118173731Y-114779863D01*
X117971146Y-114289569D01*
X117596353Y-113914122D01*
X117106413Y-113710681D01*
X116575914Y-113710218D01*
X116085620Y-113912803D01*
X115710173Y-114287596D01*
X115506732Y-114777536D01*
X115506269Y-115308035D01*
X115645946Y-115646079D01*
X115310362Y-115506732D01*
X114779863Y-115506269D01*
X114289569Y-115708854D01*
X113914122Y-116083647D01*
X113710681Y-116573587D01*
X113710218Y-117104086D01*
X98939224Y-117104086D01*
X98675263Y-116839664D01*
X99081231Y-116434404D01*
X99313735Y-115874472D01*
X99314264Y-115268188D01*
X99082738Y-114707851D01*
X98900052Y-114524846D01*
X98914317Y-114522162D01*
X99130441Y-114383090D01*
X99275431Y-114170890D01*
X99326440Y-113919000D01*
X99326440Y-112141000D01*
X99282162Y-111905683D01*
X99143090Y-111689559D01*
X98930890Y-111544569D01*
X98897506Y-111537809D01*
X99081231Y-111354404D01*
X99313735Y-110794472D01*
X99314264Y-110188188D01*
X99195298Y-109900266D01*
X105784405Y-109900266D01*
X106306250Y-111163229D01*
X107271688Y-112130354D01*
X108533739Y-112654403D01*
X109900266Y-112655595D01*
X111163229Y-112133750D01*
X112130354Y-111168312D01*
X112654403Y-109906261D01*
X112655595Y-108539734D01*
X112133750Y-107276771D01*
X111168312Y-106309646D01*
X109906261Y-105785597D01*
X108539734Y-105784405D01*
X107276771Y-106306250D01*
X106309646Y-107271688D01*
X105785597Y-108533739D01*
X105784405Y-109900266D01*
X99195298Y-109900266D01*
X99082738Y-109627851D01*
X98900052Y-109444846D01*
X98914317Y-109442162D01*
X99130441Y-109303090D01*
X99275431Y-109090890D01*
X99326440Y-108839000D01*
X99326440Y-107061000D01*
X99282162Y-106825683D01*
X99143090Y-106609559D01*
X98930890Y-106464569D01*
X98679000Y-106413560D01*
X96901000Y-106413560D01*
X96665683Y-106457838D01*
X96449559Y-106596910D01*
X96304569Y-106809110D01*
X96253560Y-107061000D01*
X78735934Y-107061000D01*
X78572926Y-106897708D01*
X78718699Y-106837327D01*
X78897327Y-106658698D01*
X78994000Y-106425309D01*
X78994000Y-105695750D01*
X78835250Y-105537000D01*
X77597000Y-105537000D01*
X77597000Y-105557000D01*
X77343000Y-105557000D01*
X77343000Y-105537000D01*
X77323000Y-105537000D01*
X77323000Y-105283000D01*
X77343000Y-105283000D01*
X77343000Y-105263000D01*
X77597000Y-105263000D01*
X77597000Y-105283000D01*
X78835250Y-105283000D01*
X78994000Y-105124250D01*
X78994000Y-104394691D01*
X78897327Y-104161302D01*
X78718699Y-103982673D01*
X78572989Y-103922318D01*
X78761231Y-103734404D01*
X78993735Y-103174472D01*
X78994264Y-102568188D01*
X78762738Y-102007851D01*
X78619224Y-101864086D01*
X98470218Y-101864086D01*
X98672803Y-102354380D01*
X99047596Y-102729827D01*
X99537536Y-102933268D01*
X100068035Y-102933731D01*
X100406079Y-102794054D01*
X100266732Y-103129638D01*
X100266269Y-103660137D01*
X100468854Y-104150431D01*
X100843647Y-104525878D01*
X101333587Y-104729319D01*
X101864086Y-104729782D01*
X102354380Y-104527197D01*
X102729827Y-104152404D01*
X102933268Y-103662464D01*
X102933731Y-103131965D01*
X102794054Y-102793921D01*
X103129638Y-102933268D01*
X103660137Y-102933731D01*
X104150431Y-102731146D01*
X104525878Y-102356353D01*
X104729319Y-101866413D01*
X104729782Y-101335914D01*
X104527197Y-100845620D01*
X104152404Y-100470173D01*
X103662464Y-100266732D01*
X103131965Y-100266269D01*
X102810262Y-100399194D01*
X102917148Y-100141148D01*
X102794141Y-99930949D01*
X101906608Y-99930949D01*
X101793749Y-99818090D01*
X101614141Y-99997698D01*
X101727000Y-100110557D01*
X101727000Y-100998090D01*
X101937199Y-101121097D01*
X102204149Y-100993141D01*
X102062783Y-101333587D01*
X102062320Y-101864086D01*
X102201997Y-102202130D01*
X101866413Y-102062783D01*
X101335914Y-102062320D01*
X100997870Y-102201997D01*
X101137217Y-101866413D01*
X101137680Y-101335914D01*
X101004755Y-101014211D01*
X101262801Y-101121097D01*
X101473000Y-100998090D01*
X101473000Y-100110557D01*
X101585859Y-99997698D01*
X101406251Y-99818090D01*
X101293392Y-99930949D01*
X100405859Y-99930949D01*
X100282852Y-100141148D01*
X100410808Y-100408098D01*
X100070362Y-100266732D01*
X99539863Y-100266269D01*
X99049569Y-100468854D01*
X98674122Y-100843647D01*
X98470681Y-101333587D01*
X98470218Y-101864086D01*
X78619224Y-101864086D01*
X78355263Y-101599664D01*
X78761231Y-101194404D01*
X78993735Y-100634472D01*
X78994264Y-100028188D01*
X78762738Y-99467851D01*
X78761639Y-99466750D01*
X100282852Y-99466750D01*
X100405859Y-99676949D01*
X101473000Y-99676949D01*
X101473000Y-98609808D01*
X101727000Y-98609808D01*
X101727000Y-99676949D01*
X102794141Y-99676949D01*
X102917148Y-99466750D01*
X102687846Y-98988367D01*
X102292929Y-98634149D01*
X101937199Y-98486801D01*
X101727000Y-98609808D01*
X101473000Y-98609808D01*
X101262801Y-98486801D01*
X100784418Y-98716103D01*
X100430200Y-99111020D01*
X100282852Y-99466750D01*
X78761639Y-99466750D01*
X78355263Y-99059664D01*
X78761231Y-98654404D01*
X78993735Y-98094472D01*
X78994264Y-97488188D01*
X78762738Y-96927851D01*
X78334404Y-96498769D01*
X77774472Y-96266265D01*
X77168188Y-96265736D01*
X76607851Y-96497262D01*
X76275000Y-96829533D01*
X76275000Y-94407567D01*
X76580626Y-94407567D01*
X76908622Y-95201377D01*
X77515428Y-95809244D01*
X78308664Y-96138624D01*
X79167567Y-96139374D01*
X79961377Y-95811378D01*
X80569244Y-95204572D01*
X80898624Y-94411336D01*
X80899161Y-93795255D01*
X83591400Y-93795255D01*
X83591400Y-94164745D01*
X83705474Y-94738234D01*
X84030330Y-95224415D01*
X84516511Y-95549271D01*
X85090000Y-95663345D01*
X85663489Y-95549271D01*
X86149670Y-95224415D01*
X86360000Y-94909634D01*
X86570330Y-95224415D01*
X87056511Y-95549271D01*
X87630000Y-95663345D01*
X88203489Y-95549271D01*
X88689670Y-95224415D01*
X88900000Y-94909634D01*
X89110330Y-95224415D01*
X89596511Y-95549271D01*
X90170000Y-95663345D01*
X90743489Y-95549271D01*
X91229670Y-95224415D01*
X91554526Y-94738234D01*
X91620299Y-94407567D01*
X94360626Y-94407567D01*
X94688622Y-95201377D01*
X95295428Y-95809244D01*
X96088664Y-96138624D01*
X96947567Y-96139374D01*
X97741377Y-95811378D01*
X98349244Y-95204572D01*
X98678624Y-94411336D01*
X98679374Y-93552433D01*
X98351378Y-92758623D01*
X97744572Y-92150756D01*
X96951336Y-91821376D01*
X96092433Y-91820626D01*
X95298623Y-92148622D01*
X94690756Y-92755428D01*
X94361376Y-93548664D01*
X94360626Y-94407567D01*
X91620299Y-94407567D01*
X91668600Y-94164745D01*
X91668600Y-93795255D01*
X91554526Y-93221766D01*
X91229670Y-92735585D01*
X90743489Y-92410729D01*
X90170000Y-92296655D01*
X89596511Y-92410729D01*
X89110330Y-92735585D01*
X88900000Y-93050366D01*
X88689670Y-92735585D01*
X88203489Y-92410729D01*
X87630000Y-92296655D01*
X87056511Y-92410729D01*
X86570330Y-92735585D01*
X86360000Y-93050366D01*
X86149670Y-92735585D01*
X85663489Y-92410729D01*
X85090000Y-92296655D01*
X84516511Y-92410729D01*
X84030330Y-92735585D01*
X83705474Y-93221766D01*
X83591400Y-93795255D01*
X80899161Y-93795255D01*
X80899374Y-93552433D01*
X80571378Y-92758623D01*
X79964572Y-92150756D01*
X79171336Y-91821376D01*
X78312433Y-91820626D01*
X77518623Y-92148622D01*
X76910756Y-92755428D01*
X76581376Y-93548664D01*
X76580626Y-94407567D01*
X76275000Y-94407567D01*
X76275000Y-94049931D01*
X76475488Y-93042007D01*
X77006817Y-92246817D01*
X77802007Y-91715488D01*
X78809931Y-91515000D01*
X122067237Y-91515000D01*
X121549646Y-92031688D01*
X121549646Y-92031688D01*
G37*
X121549646Y-92031688D02*
X121025597Y-93293739D01*
X121024405Y-94660266D01*
X121546250Y-95923229D01*
X122511688Y-96890354D01*
X123773739Y-97414403D01*
X125140266Y-97415595D01*
X126403229Y-96893750D01*
X126925000Y-96372889D01*
X126925000Y-137215524D01*
X126844934Y-137135458D01*
X126732734Y-137247658D01*
X126414499Y-136793797D01*
X125153566Y-136267064D01*
X123787044Y-136262965D01*
X122522973Y-136782122D01*
X122505501Y-136793797D01*
X122187265Y-137247660D01*
X124460000Y-139520395D01*
X124474143Y-139506253D01*
X124653748Y-139685858D01*
X124639605Y-139700000D01*
X124653748Y-139714143D01*
X124474143Y-139893748D01*
X124460000Y-139879605D01*
X124445858Y-139893748D01*
X124266253Y-139714143D01*
X124280395Y-139700000D01*
X122007660Y-137427265D01*
X121553797Y-137745501D01*
X121027064Y-139006434D01*
X121022965Y-140372956D01*
X121542122Y-141637027D01*
X121553797Y-141654499D01*
X122007658Y-141972734D01*
X121895458Y-142084934D01*
X121975524Y-142165000D01*
X78809931Y-142165000D01*
X77802007Y-141964512D01*
X77006817Y-141433183D01*
X76475488Y-140637993D01*
X76373959Y-140127567D01*
X76580626Y-140127567D01*
X76908622Y-140921377D01*
X77515428Y-141529244D01*
X78308664Y-141858624D01*
X79167567Y-141859374D01*
X79961377Y-141531378D01*
X80569244Y-140924572D01*
X80898624Y-140131336D01*
X80898627Y-140127567D01*
X94360626Y-140127567D01*
X94688622Y-140921377D01*
X95295428Y-141529244D01*
X96088664Y-141858624D01*
X96947567Y-141859374D01*
X97741377Y-141531378D01*
X98349244Y-140924572D01*
X98678624Y-140131336D01*
X98679374Y-139272433D01*
X98351378Y-138478623D01*
X97744572Y-137870756D01*
X96951336Y-137541376D01*
X96092433Y-137540626D01*
X95298623Y-137868622D01*
X94690756Y-138475428D01*
X94361376Y-139268664D01*
X94360626Y-140127567D01*
X80898627Y-140127567D01*
X80899374Y-139272433D01*
X80571378Y-138478623D01*
X79964572Y-137870756D01*
X79171336Y-137541376D01*
X78312433Y-137540626D01*
X77518623Y-137868622D01*
X76910756Y-138475428D01*
X76581376Y-139268664D01*
X76580626Y-140127567D01*
X76373959Y-140127567D01*
X76275000Y-139630069D01*
X76275000Y-136850058D01*
X76605596Y-137181231D01*
X77165528Y-137413735D01*
X77771812Y-137414264D01*
X78332149Y-137182738D01*
X78761231Y-136754404D01*
X78993735Y-136194472D01*
X78994264Y-135588188D01*
X78762738Y-135027851D01*
X78355263Y-134619664D01*
X78761231Y-134214404D01*
X78993735Y-133654472D01*
X78994264Y-133048188D01*
X78762738Y-132487851D01*
X78355263Y-132079664D01*
X78761231Y-131674404D01*
X78993735Y-131114472D01*
X78994264Y-130508188D01*
X78762738Y-129947851D01*
X78355263Y-129539664D01*
X78761231Y-129134404D01*
X78993735Y-128574472D01*
X78994264Y-127968188D01*
X78762738Y-127407851D01*
X78580052Y-127224846D01*
X78594317Y-127222162D01*
X78810441Y-127083090D01*
X78955431Y-126870890D01*
X79006440Y-126619000D01*
X79006440Y-124841000D01*
X78962162Y-124605683D01*
X78867834Y-124459093D01*
X78955431Y-124330890D01*
X79006440Y-124079000D01*
X79006440Y-122301000D01*
X78962162Y-122065683D01*
X78823090Y-121849559D01*
X78610890Y-121704569D01*
X78577506Y-121697809D01*
X78761231Y-121514404D01*
X78993735Y-120954472D01*
X78994264Y-120348188D01*
X78762738Y-119787851D01*
X78355263Y-119379664D01*
X78761231Y-118974404D01*
X78993735Y-118414472D01*
X78994264Y-117808188D01*
X78762738Y-117247851D01*
X78692210Y-117177199D01*
X83246801Y-117177199D01*
X83476103Y-117655582D01*
X83871020Y-118009800D01*
X84226750Y-118157148D01*
X84436949Y-118034141D01*
X84436949Y-116967000D01*
X83369808Y-116967000D01*
X83246801Y-117177199D01*
X78692210Y-117177199D01*
X78355263Y-116839664D01*
X78692714Y-116502801D01*
X83246801Y-116502801D01*
X83369808Y-116713000D01*
X84436949Y-116713000D01*
X84436949Y-116646251D01*
X84578090Y-116646251D01*
X84757698Y-116825859D01*
X84870557Y-116713000D01*
X85758090Y-116713000D01*
X85881097Y-116502801D01*
X85753141Y-116235851D01*
X86093587Y-116377217D01*
X86624086Y-116377680D01*
X86962130Y-116238003D01*
X86822783Y-116573587D01*
X86822320Y-117104086D01*
X86961997Y-117442130D01*
X86626413Y-117302783D01*
X86095914Y-117302320D01*
X85774211Y-117435245D01*
X85881097Y-117177199D01*
X85758090Y-116967000D01*
X84870557Y-116967000D01*
X84757698Y-116854141D01*
X84578090Y-117033749D01*
X84690949Y-117146608D01*
X84690949Y-118034141D01*
X84901148Y-118157148D01*
X85168098Y-118029192D01*
X85026732Y-118369638D01*
X85026269Y-118900137D01*
X85228854Y-119390431D01*
X85603647Y-119765878D01*
X86093587Y-119969319D01*
X86624086Y-119969782D01*
X87114380Y-119767197D01*
X87489827Y-119392404D01*
X87693268Y-118902464D01*
X87693731Y-118371965D01*
X87554054Y-118033921D01*
X87889638Y-118173268D01*
X88420137Y-118173731D01*
X88910431Y-117971146D01*
X89285878Y-117596353D01*
X89489319Y-117106413D01*
X89489782Y-116575914D01*
X89287197Y-116085620D01*
X88912404Y-115710173D01*
X88422464Y-115506732D01*
X87891965Y-115506269D01*
X87553921Y-115645946D01*
X87693268Y-115310362D01*
X87693731Y-114779863D01*
X87491146Y-114289569D01*
X87116353Y-113914122D01*
X86626413Y-113710681D01*
X86095914Y-113710218D01*
X85605620Y-113912803D01*
X85230173Y-114287596D01*
X85026732Y-114777536D01*
X85026269Y-115308035D01*
X85159194Y-115629738D01*
X84901148Y-115522852D01*
X84690949Y-115645859D01*
X84690949Y-116533392D01*
X84578090Y-116646251D01*
X84436949Y-116646251D01*
X84436949Y-115645859D01*
X84226750Y-115522852D01*
X83748367Y-115752154D01*
X83394149Y-116147071D01*
X83246801Y-116502801D01*
X78692714Y-116502801D01*
X78761231Y-116434404D01*
X78993735Y-115874472D01*
X78994264Y-115268188D01*
X78762738Y-114707851D01*
X78355263Y-114299664D01*
X78761231Y-113894404D01*
X78993735Y-113334472D01*
X78994264Y-112728188D01*
X78762738Y-112167851D01*
X78355263Y-111759664D01*
X78761231Y-111354404D01*
X78993735Y-110794472D01*
X78994264Y-110188188D01*
X78762738Y-109627851D01*
X78355263Y-109219664D01*
X78761231Y-108814404D01*
X78993735Y-108254472D01*
X78994264Y-107648188D01*
X78762738Y-107087851D01*
X78735934Y-107061000D01*
X96253560Y-107061000D01*
X96253560Y-108839000D01*
X96297838Y-109074317D01*
X96436910Y-109290441D01*
X96649110Y-109435431D01*
X96682494Y-109442191D01*
X96498769Y-109625596D01*
X96266265Y-110185528D01*
X96265736Y-110791812D01*
X96497262Y-111352149D01*
X96679948Y-111535154D01*
X96665683Y-111537838D01*
X96449559Y-111676910D01*
X96304569Y-111889110D01*
X96253560Y-112141000D01*
X96253560Y-113919000D01*
X96297838Y-114154317D01*
X96436910Y-114370441D01*
X96649110Y-114515431D01*
X96682494Y-114522191D01*
X96498769Y-114705596D01*
X96266265Y-115265528D01*
X96265736Y-115871812D01*
X96497262Y-116432149D01*
X96904737Y-116840336D01*
X96498769Y-117245596D01*
X96266265Y-117805528D01*
X96265736Y-118411812D01*
X96497262Y-118972149D01*
X96904737Y-119380336D01*
X96498769Y-119785596D01*
X96266265Y-120345528D01*
X96265736Y-120951812D01*
X96497262Y-121512149D01*
X96904737Y-121920336D01*
X96498769Y-122325596D01*
X96266265Y-122885528D01*
X96265736Y-123491812D01*
X96497262Y-124052149D01*
X96925596Y-124481231D01*
X97039519Y-124528536D01*
X96999697Y-124544990D01*
X96606371Y-124937630D01*
X96393243Y-125450900D01*
X96392758Y-126006661D01*
X96604990Y-126520303D01*
X96997630Y-126913629D01*
X97205512Y-126999949D01*
X96999697Y-127084990D01*
X96606371Y-127477630D01*
X96393243Y-127990900D01*
X96392758Y-128546661D01*
X96604990Y-129060303D01*
X96997630Y-129453629D01*
X97205512Y-129539949D01*
X96999697Y-129624990D01*
X96606371Y-130017630D01*
X96393243Y-130530900D01*
X96392758Y-131086661D01*
X96604990Y-131600303D01*
X96997630Y-131993629D01*
X97205512Y-132079949D01*
X96999697Y-132164990D01*
X96606371Y-132557630D01*
X96393243Y-133070900D01*
X96392758Y-133626661D01*
X96604990Y-134140303D01*
X96997630Y-134533629D01*
X97205512Y-134619949D01*
X96999697Y-134704990D01*
X96606371Y-135097630D01*
X96393243Y-135610900D01*
X96392758Y-136166661D01*
X96604990Y-136680303D01*
X96997630Y-137073629D01*
X97510900Y-137286757D01*
X98066661Y-137287242D01*
X98580303Y-137075010D01*
X98973629Y-136682370D01*
X99186757Y-136169100D01*
X99187242Y-135613339D01*
X98975010Y-135099697D01*
X98582370Y-134706371D01*
X98374488Y-134620051D01*
X98580303Y-134535010D01*
X98902625Y-134213250D01*
X100282852Y-134213250D01*
X100512154Y-134691633D01*
X100907071Y-135045851D01*
X101262801Y-135193199D01*
X101473000Y-135070192D01*
X101473000Y-134003051D01*
X101727000Y-134003051D01*
X101727000Y-135070192D01*
X101937199Y-135193199D01*
X102415582Y-134963897D01*
X102769800Y-134568980D01*
X102917148Y-134213250D01*
X102794141Y-134003051D01*
X101727000Y-134003051D01*
X101473000Y-134003051D01*
X100405859Y-134003051D01*
X100282852Y-134213250D01*
X98902625Y-134213250D01*
X98973629Y-134142370D01*
X99186757Y-133629100D01*
X99187072Y-133267743D01*
X99537536Y-133413268D01*
X100068035Y-133413731D01*
X100389738Y-133280806D01*
X100282852Y-133538852D01*
X100405859Y-133749051D01*
X101293392Y-133749051D01*
X101406251Y-133861910D01*
X101585859Y-133682302D01*
X101473000Y-133569443D01*
X101473000Y-132681910D01*
X101262801Y-132558903D01*
X100995851Y-132686859D01*
X101137217Y-132346413D01*
X101137680Y-131815914D01*
X100998003Y-131477870D01*
X101333587Y-131617217D01*
X101864086Y-131617680D01*
X102202130Y-131478003D01*
X102062783Y-131813587D01*
X102062320Y-132344086D01*
X102195245Y-132665789D01*
X101937199Y-132558903D01*
X101727000Y-132681910D01*
X101727000Y-133569443D01*
X101614141Y-133682302D01*
X101793749Y-133861910D01*
X101906608Y-133749051D01*
X102794141Y-133749051D01*
X102917148Y-133538852D01*
X102789192Y-133271902D01*
X103129638Y-133413268D01*
X103660137Y-133413731D01*
X104150431Y-133211146D01*
X104525878Y-132836353D01*
X104729319Y-132346413D01*
X104729782Y-131815914D01*
X104527197Y-131325620D01*
X104152404Y-130950173D01*
X103662464Y-130746732D01*
X103131965Y-130746269D01*
X102793921Y-130885946D01*
X102933268Y-130550362D01*
X102933731Y-130019863D01*
X102731146Y-129529569D01*
X102356353Y-129154122D01*
X101866413Y-128950681D01*
X101335914Y-128950218D01*
X100845620Y-129152803D01*
X100470173Y-129527596D01*
X100266732Y-130017536D01*
X100266269Y-130548035D01*
X100405946Y-130886079D01*
X100070362Y-130746732D01*
X99539863Y-130746269D01*
X99186929Y-130892098D01*
X99187242Y-130533339D01*
X98975010Y-130019697D01*
X98582370Y-129626371D01*
X98374488Y-129540051D01*
X98580303Y-129455010D01*
X98973629Y-129062370D01*
X99186757Y-128549100D01*
X99187242Y-127993339D01*
X98975010Y-127479697D01*
X98582370Y-127086371D01*
X98374488Y-127000051D01*
X98580303Y-126915010D01*
X98973629Y-126522370D01*
X99186757Y-126009100D01*
X99187242Y-125453339D01*
X99057884Y-125140266D01*
X105784407Y-125140266D01*
X106306252Y-126403229D01*
X107271690Y-127370354D01*
X108533741Y-127894403D01*
X109900268Y-127895595D01*
X111163231Y-127373750D01*
X112130356Y-126408312D01*
X112654405Y-125146261D01*
X112655597Y-123779734D01*
X112133752Y-122516771D01*
X111168314Y-121549646D01*
X109906263Y-121025597D01*
X108539736Y-121024405D01*
X107276773Y-121546250D01*
X106309648Y-122511688D01*
X105785599Y-123773739D01*
X105784407Y-125140266D01*
X99057884Y-125140266D01*
X98975010Y-124939697D01*
X98582370Y-124546371D01*
X98540361Y-124528928D01*
X98652149Y-124482738D01*
X99081231Y-124054404D01*
X99313735Y-123494472D01*
X99314264Y-122888188D01*
X99082738Y-122327851D01*
X98675263Y-121919664D01*
X99081231Y-121514404D01*
X99313735Y-120954472D01*
X99314264Y-120348188D01*
X99082738Y-119787851D01*
X98675263Y-119379664D01*
X99081231Y-118974404D01*
X99313735Y-118414472D01*
X99314264Y-117808188D01*
X99082738Y-117247851D01*
X98939224Y-117104086D01*
X113710218Y-117104086D01*
X113912803Y-117594380D01*
X114287596Y-117969827D01*
X114777536Y-118173268D01*
X115308035Y-118173731D01*
X115646079Y-118034054D01*
X115506732Y-118369638D01*
X115506269Y-118900137D01*
X115708854Y-119390431D01*
X116083647Y-119765878D01*
X116573587Y-119969319D01*
X117104086Y-119969782D01*
X117594380Y-119767197D01*
X117969827Y-119392404D01*
X118173268Y-118902464D01*
X118173731Y-118371965D01*
X118040806Y-118050262D01*
X118298852Y-118157148D01*
X118509051Y-118034141D01*
X118509051Y-117146608D01*
X118621910Y-117033749D01*
X118555161Y-116967000D01*
X118763051Y-116967000D01*
X118763051Y-118034141D01*
X118973250Y-118157148D01*
X119451633Y-117927846D01*
X119805851Y-117532929D01*
X119953199Y-117177199D01*
X119830192Y-116967000D01*
X118763051Y-116967000D01*
X118555161Y-116967000D01*
X118442302Y-116854141D01*
X118329443Y-116967000D01*
X117441910Y-116967000D01*
X117318903Y-117177199D01*
X117446859Y-117444149D01*
X117106413Y-117302783D01*
X116575914Y-117302320D01*
X116237870Y-117441997D01*
X116377217Y-117106413D01*
X116377680Y-116575914D01*
X116238003Y-116237870D01*
X116573587Y-116377217D01*
X117104086Y-116377680D01*
X117425789Y-116244755D01*
X117318903Y-116502801D01*
X117441910Y-116713000D01*
X118329443Y-116713000D01*
X118442302Y-116825859D01*
X118621910Y-116646251D01*
X118509051Y-116533392D01*
X118509051Y-115645859D01*
X118763051Y-115645859D01*
X118763051Y-116713000D01*
X119830192Y-116713000D01*
X119953199Y-116502801D01*
X119723897Y-116024418D01*
X119328980Y-115670200D01*
X118973250Y-115522852D01*
X118763051Y-115645859D01*
X118509051Y-115645859D01*
X118298852Y-115522852D01*
X118031902Y-115650808D01*
X118173268Y-115310362D01*
X118173731Y-114779863D01*
X117971146Y-114289569D01*
X117596353Y-113914122D01*
X117106413Y-113710681D01*
X116575914Y-113710218D01*
X116085620Y-113912803D01*
X115710173Y-114287596D01*
X115506732Y-114777536D01*
X115506269Y-115308035D01*
X115645946Y-115646079D01*
X115310362Y-115506732D01*
X114779863Y-115506269D01*
X114289569Y-115708854D01*
X113914122Y-116083647D01*
X113710681Y-116573587D01*
X113710218Y-117104086D01*
X98939224Y-117104086D01*
X98675263Y-116839664D01*
X99081231Y-116434404D01*
X99313735Y-115874472D01*
X99314264Y-115268188D01*
X99082738Y-114707851D01*
X98900052Y-114524846D01*
X98914317Y-114522162D01*
X99130441Y-114383090D01*
X99275431Y-114170890D01*
X99326440Y-113919000D01*
X99326440Y-112141000D01*
X99282162Y-111905683D01*
X99143090Y-111689559D01*
X98930890Y-111544569D01*
X98897506Y-111537809D01*
X99081231Y-111354404D01*
X99313735Y-110794472D01*
X99314264Y-110188188D01*
X99195298Y-109900266D01*
X105784405Y-109900266D01*
X106306250Y-111163229D01*
X107271688Y-112130354D01*
X108533739Y-112654403D01*
X109900266Y-112655595D01*
X111163229Y-112133750D01*
X112130354Y-111168312D01*
X112654403Y-109906261D01*
X112655595Y-108539734D01*
X112133750Y-107276771D01*
X111168312Y-106309646D01*
X109906261Y-105785597D01*
X108539734Y-105784405D01*
X107276771Y-106306250D01*
X106309646Y-107271688D01*
X105785597Y-108533739D01*
X105784405Y-109900266D01*
X99195298Y-109900266D01*
X99082738Y-109627851D01*
X98900052Y-109444846D01*
X98914317Y-109442162D01*
X99130441Y-109303090D01*
X99275431Y-109090890D01*
X99326440Y-108839000D01*
X99326440Y-107061000D01*
X99282162Y-106825683D01*
X99143090Y-106609559D01*
X98930890Y-106464569D01*
X98679000Y-106413560D01*
X96901000Y-106413560D01*
X96665683Y-106457838D01*
X96449559Y-106596910D01*
X96304569Y-106809110D01*
X96253560Y-107061000D01*
X78735934Y-107061000D01*
X78572926Y-106897708D01*
X78718699Y-106837327D01*
X78897327Y-106658698D01*
X78994000Y-106425309D01*
X78994000Y-105695750D01*
X78835250Y-105537000D01*
X77597000Y-105537000D01*
X77597000Y-105557000D01*
X77343000Y-105557000D01*
X77343000Y-105537000D01*
X77323000Y-105537000D01*
X77323000Y-105283000D01*
X77343000Y-105283000D01*
X77343000Y-105263000D01*
X77597000Y-105263000D01*
X77597000Y-105283000D01*
X78835250Y-105283000D01*
X78994000Y-105124250D01*
X78994000Y-104394691D01*
X78897327Y-104161302D01*
X78718699Y-103982673D01*
X78572989Y-103922318D01*
X78761231Y-103734404D01*
X78993735Y-103174472D01*
X78994264Y-102568188D01*
X78762738Y-102007851D01*
X78619224Y-101864086D01*
X98470218Y-101864086D01*
X98672803Y-102354380D01*
X99047596Y-102729827D01*
X99537536Y-102933268D01*
X100068035Y-102933731D01*
X100406079Y-102794054D01*
X100266732Y-103129638D01*
X100266269Y-103660137D01*
X100468854Y-104150431D01*
X100843647Y-104525878D01*
X101333587Y-104729319D01*
X101864086Y-104729782D01*
X102354380Y-104527197D01*
X102729827Y-104152404D01*
X102933268Y-103662464D01*
X102933731Y-103131965D01*
X102794054Y-102793921D01*
X103129638Y-102933268D01*
X103660137Y-102933731D01*
X104150431Y-102731146D01*
X104525878Y-102356353D01*
X104729319Y-101866413D01*
X104729782Y-101335914D01*
X104527197Y-100845620D01*
X104152404Y-100470173D01*
X103662464Y-100266732D01*
X103131965Y-100266269D01*
X102810262Y-100399194D01*
X102917148Y-100141148D01*
X102794141Y-99930949D01*
X101906608Y-99930949D01*
X101793749Y-99818090D01*
X101614141Y-99997698D01*
X101727000Y-100110557D01*
X101727000Y-100998090D01*
X101937199Y-101121097D01*
X102204149Y-100993141D01*
X102062783Y-101333587D01*
X102062320Y-101864086D01*
X102201997Y-102202130D01*
X101866413Y-102062783D01*
X101335914Y-102062320D01*
X100997870Y-102201997D01*
X101137217Y-101866413D01*
X101137680Y-101335914D01*
X101004755Y-101014211D01*
X101262801Y-101121097D01*
X101473000Y-100998090D01*
X101473000Y-100110557D01*
X101585859Y-99997698D01*
X101406251Y-99818090D01*
X101293392Y-99930949D01*
X100405859Y-99930949D01*
X100282852Y-100141148D01*
X100410808Y-100408098D01*
X100070362Y-100266732D01*
X99539863Y-100266269D01*
X99049569Y-100468854D01*
X98674122Y-100843647D01*
X98470681Y-101333587D01*
X98470218Y-101864086D01*
X78619224Y-101864086D01*
X78355263Y-101599664D01*
X78761231Y-101194404D01*
X78993735Y-100634472D01*
X78994264Y-100028188D01*
X78762738Y-99467851D01*
X78761639Y-99466750D01*
X100282852Y-99466750D01*
X100405859Y-99676949D01*
X101473000Y-99676949D01*
X101473000Y-98609808D01*
X101727000Y-98609808D01*
X101727000Y-99676949D01*
X102794141Y-99676949D01*
X102917148Y-99466750D01*
X102687846Y-98988367D01*
X102292929Y-98634149D01*
X101937199Y-98486801D01*
X101727000Y-98609808D01*
X101473000Y-98609808D01*
X101262801Y-98486801D01*
X100784418Y-98716103D01*
X100430200Y-99111020D01*
X100282852Y-99466750D01*
X78761639Y-99466750D01*
X78355263Y-99059664D01*
X78761231Y-98654404D01*
X78993735Y-98094472D01*
X78994264Y-97488188D01*
X78762738Y-96927851D01*
X78334404Y-96498769D01*
X77774472Y-96266265D01*
X77168188Y-96265736D01*
X76607851Y-96497262D01*
X76275000Y-96829533D01*
X76275000Y-94407567D01*
X76580626Y-94407567D01*
X76908622Y-95201377D01*
X77515428Y-95809244D01*
X78308664Y-96138624D01*
X79167567Y-96139374D01*
X79961377Y-95811378D01*
X80569244Y-95204572D01*
X80898624Y-94411336D01*
X80899161Y-93795255D01*
X83591400Y-93795255D01*
X83591400Y-94164745D01*
X83705474Y-94738234D01*
X84030330Y-95224415D01*
X84516511Y-95549271D01*
X85090000Y-95663345D01*
X85663489Y-95549271D01*
X86149670Y-95224415D01*
X86360000Y-94909634D01*
X86570330Y-95224415D01*
X87056511Y-95549271D01*
X87630000Y-95663345D01*
X88203489Y-95549271D01*
X88689670Y-95224415D01*
X88900000Y-94909634D01*
X89110330Y-95224415D01*
X89596511Y-95549271D01*
X90170000Y-95663345D01*
X90743489Y-95549271D01*
X91229670Y-95224415D01*
X91554526Y-94738234D01*
X91620299Y-94407567D01*
X94360626Y-94407567D01*
X94688622Y-95201377D01*
X95295428Y-95809244D01*
X96088664Y-96138624D01*
X96947567Y-96139374D01*
X97741377Y-95811378D01*
X98349244Y-95204572D01*
X98678624Y-94411336D01*
X98679374Y-93552433D01*
X98351378Y-92758623D01*
X97744572Y-92150756D01*
X96951336Y-91821376D01*
X96092433Y-91820626D01*
X95298623Y-92148622D01*
X94690756Y-92755428D01*
X94361376Y-93548664D01*
X94360626Y-94407567D01*
X91620299Y-94407567D01*
X91668600Y-94164745D01*
X91668600Y-93795255D01*
X91554526Y-93221766D01*
X91229670Y-92735585D01*
X90743489Y-92410729D01*
X90170000Y-92296655D01*
X89596511Y-92410729D01*
X89110330Y-92735585D01*
X88900000Y-93050366D01*
X88689670Y-92735585D01*
X88203489Y-92410729D01*
X87630000Y-92296655D01*
X87056511Y-92410729D01*
X86570330Y-92735585D01*
X86360000Y-93050366D01*
X86149670Y-92735585D01*
X85663489Y-92410729D01*
X85090000Y-92296655D01*
X84516511Y-92410729D01*
X84030330Y-92735585D01*
X83705474Y-93221766D01*
X83591400Y-93795255D01*
X80899161Y-93795255D01*
X80899374Y-93552433D01*
X80571378Y-92758623D01*
X79964572Y-92150756D01*
X79171336Y-91821376D01*
X78312433Y-91820626D01*
X77518623Y-92148622D01*
X76910756Y-92755428D01*
X76581376Y-93548664D01*
X76580626Y-94407567D01*
X76275000Y-94407567D01*
X76275000Y-94049931D01*
X76475488Y-93042007D01*
X77006817Y-92246817D01*
X77802007Y-91715488D01*
X78809931Y-91515000D01*
X122067237Y-91515000D01*
X121549646Y-92031688D01*
M02*
