<?xml version="1.0" standalone="no"?>
 <!DOCTYPE svg PUBLIC "-//W3C//DTD SVG 1.1//EN" 
 "http://www.w3.org/Graphics/SVG/1.1/DTD/svg11.dtd"> 
<svg xmlns="http://www.w3.org/2000/svg" version="1.1" 
    width="8.67918cm" height="8.75792cm" viewBox="0 0 34170 34480 ">
<title>SVG Picture created as ultim8-brd.svg date 2016/02/18 17:44:13 </title>
  <desc>Picture generated by PCBNEW </desc>
<g style="fill:#000000; fill-opacity:1;stroke:#000000; stroke-opacity:1;
stroke-linecap:round; stroke-linejoin:round; "
 transform="translate(0 0) scale(1 1)">
</g>
<g style="fill:#000000; fill-opacity:0.0; 
stroke:#000000; stroke-width:-0.000393701; stroke-opacity:1; 
stroke-linecap:round; stroke-linejoin:round;">
</g>
<g style="fill:#848484; fill-opacity:0.0; 
stroke:#848484; stroke-width:-0.000393701; stroke-opacity:1; 
stroke-linecap:round; stroke-linejoin:round;">
</g>
<g style="fill:#848484; fill-opacity:0.0; 
stroke:#848484; stroke-width:75; stroke-opacity:1; 
stroke-linecap:round; stroke-linejoin:round;">
<path d="M23604 17133
L23304 17133
L23304 17229
L23319 17286
L23347 17324
L23376 17343
L23433 17362
L23476 17362
L23533 17343
L23561 17324
L23590 17286
L23604 17229
L23604 17133
" />
<path d="M23304 17610
L23304 17686
L23319 17724
L23347 17762
L23404 17781
L23504 17781
L23561 17762
L23590 17724
L23604 17686
L23604 17610
L23590 17571
L23561 17533
L23504 17514
L23404 17514
L23347 17533
L23319 17571
L23304 17610
" />
<path d="M23633 17857
L23633 18162
" />
<path d="M23604 18257
L23304 18257
" />
<path d="M23447 18257
L23447 18486
" />
<path d="M23604 18486
L23304 18486
" />
<path d="M24566 17362
L24580 17343
L24594 17286
L24594 17248
L24580 17190
L24551 17152
L24523 17133
L24466 17114
L24423 17114
L24366 17133
L24337 17152
L24309 17190
L24294 17248
L24294 17286
L24309 17343
L24323 17362
" />
<path d="M24294 17610
L24294 17686
L24309 17724
L24337 17762
L24394 17781
L24494 17781
L24551 17762
L24580 17724
L24594 17686
L24594 17610
L24580 17571
L24551 17533
L24494 17514
L24394 17514
L24337 17533
L24309 17571
L24294 17610
" />
<path d="M24623 17857
L24623 18162
" />
<path d="M24594 18257
L24294 18257
" />
<path d="M24437 18257
L24437 18486
" />
<path d="M24594 18486
L24294 18486
" />
<path d="M25299 17505
L25284 17467
L25284 17410
L25299 17352
L25327 17314
L25356 17295
L25413 17276
L25456 17276
L25513 17295
L25541 17314
L25570 17352
L25584 17410
L25584 17448
L25570 17505
L25556 17524
L25456 17524
L25456 17448
" />
<path d="M25584 17695
L25284 17695
L25584 17924
L25284 17924
" />
<path d="M25584 18114
L25284 18114
L25284 18210
L25299 18267
L25327 18305
L25356 18324
L25413 18343
L25456 18343
L25513 18324
L25541 18305
L25570 18267
L25584 18210
L25584 18114
" />
<path d="M19582 22405
L19582 22105
L19487 22105
L19430 22120
L19392 22148
L19373 22177
L19354 22234
L19354 22277
L19373 22334
L19392 22362
L19430 22391
L19487 22405
L19582 22405
" />
<path d="M19182 22405
L19182 22105
" />
<path d="M19087 22434
L18782 22434
" />
<path d="M18706 22320
L18516 22320
" />
<path d="M18744 22405
L18611 22105
L18478 22405
" />
<path d="M19354 23367
L19373 23381
L19430 23395
L19468 23395
L19525 23381
L19563 23352
L19582 23324
L19601 23267
L19601 23224
L19582 23167
L19563 23138
L19525 23110
L19468 23095
L19430 23095
L19373 23110
L19354 23124
" />
<path d="M19182 23395
L19182 23095
" />
<path d="M19087 23424
L18782 23424
" />
<path d="M18706 23310
L18516 23310
" />
<path d="M18744 23395
L18611 23095
L18478 23395
" />
<path d="M19363 24100
L19401 24085
L19459 24085
L19516 24100
L19554 24128
L19573 24157
L19592 24214
L19592 24257
L19573 24314
L19554 24342
L19516 24371
L19459 24385
L19420 24385
L19363 24371
L19344 24357
L19344 24257
L19420 24257
" />
<path d="M19173 24385
L19173 24085
L18944 24385
L18944 24085
" />
<path d="M18754 24385
L18754 24085
L18659 24085
L18601 24100
L18563 24128
L18544 24157
L18525 24214
L18525 24257
L18544 24314
L18563 24342
L18601 24371
L18659 24385
L18754 24385
" />
<path d="M5269 17405
L5254 17367
L5254 17310
L5269 17252
L5297 17214
L5326 17195
L5383 17176
L5426 17176
L5483 17195
L5511 17214
L5540 17252
L5554 17310
L5554 17348
L5540 17405
L5526 17424
L5426 17424
L5426 17348
" />
<path d="M5554 17595
L5254 17595
L5554 17824
L5254 17824
" />
<path d="M5554 18014
L5254 18014
L5254 18110
L5269 18167
L5297 18205
L5326 18224
L5383 18243
L5426 18243
L5483 18224
L5511 18205
L5540 18167
L5554 18110
L5554 18014
" />
<path d="M6516 17414
L6530 17395
L6544 17338
L6544 17300
L6530 17243
L6501 17205
L6473 17186
L6416 17167
L6373 17167
L6316 17186
L6287 17205
L6259 17243
L6244 17300
L6244 17338
L6259 17395
L6273 17414
" />
<path d="M6544 17586
L6244 17586
" />
<path d="M6573 17681
L6573 17986
" />
<path d="M6459 18062
L6459 18252
" />
<path d="M6544 18024
L6244 18157
L6544 18290
" />
<path d="M7534 17186
L7234 17186
L7234 17281
L7249 17338
L7277 17376
L7306 17395
L7363 17414
L7406 17414
L7463 17395
L7491 17376
L7520 17338
L7534 17281
L7534 17186
" />
<path d="M7534 17586
L7234 17586
" />
<path d="M7563 17681
L7563 17986
" />
<path d="M7449 18062
L7449 18252
" />
<path d="M7534 18024
L7234 18157
L7534 18290
" />
<path d="M19163 4120
L19201 4105
L19259 4105
L19316 4120
L19354 4148
L19373 4177
L19392 4234
L19392 4277
L19373 4334
L19354 4362
L19316 4391
L19259 4405
L19220 4405
L19163 4391
L19144 4377
L19144 4277
L19220 4277
" />
<path d="M18973 4405
L18973 4105
L18744 4405
L18744 4105
" />
<path d="M18554 4405
L18554 4105
L18459 4105
L18401 4120
L18363 4148
L18344 4177
L18325 4234
L18325 4277
L18344 4334
L18363 4362
L18401 4391
L18459 4405
L18554 4405
" />
<path d="M19306 5367
L19325 5381
L19382 5395
L19420 5395
L19478 5381
L19516 5352
L19535 5324
L19554 5267
L19554 5224
L19535 5167
L19516 5138
L19478 5110
L19420 5095
L19382 5095
L19325 5110
L19306 5124
" />
<path d="M19059 5095
L18982 5095
L18944 5110
L18906 5138
L18887 5195
L18887 5295
L18906 5352
L18944 5381
L18982 5395
L19059 5395
L19097 5381
L19135 5352
L19154 5295
L19154 5195
L19135 5138
L19097 5110
L19059 5095
" />
<path d="M18811 5424
L18506 5424
" />
<path d="M18411 5395
L18411 5095
" />
<path d="M18411 5238
L18182 5238
" />
<path d="M18182 5395
L18182 5095
" />
<path d="M19535 6385
L19535 6085
L19439 6085
L19382 6100
L19344 6128
L19325 6157
L19306 6214
L19306 6257
L19325 6314
L19344 6342
L19382 6371
L19439 6385
L19535 6385
" />
<path d="M19059 6085
L18982 6085
L18944 6100
L18906 6128
L18887 6185
L18887 6285
L18906 6342
L18944 6371
L18982 6385
L19059 6385
L19097 6371
L19135 6342
L19154 6285
L19154 6185
L19135 6128
L19097 6100
L19059 6085
" />
<path d="M18811 6414
L18506 6414
" />
<path d="M18411 6385
L18411 6085
" />
<path d="M18411 6228
L18182 6228
" />
<path d="M18182 6385
L18182 6085
" />
</g>
<g style="fill:#848484; fill-opacity:0.0; 
stroke:#848484; stroke-width:60; stroke-opacity:1; 
stroke-linecap:round; stroke-linejoin:round;">
<path d="M15034 13510
L15034 14210
" />
<path d="M15884 13510
L15884 14210
" />
<path d="M15034 14660
L15034 15010
" />
<path d="M15884 15010
L15884 14660
" />
<path d="M15884 14210
L15034 14210
" />
<path d="M15884 13510
L15034 13510
" />
<path d="M15884 15010
L15034 15010
" />
<path d="M12034 13510
L12034 14210
" />
<path d="M12884 13510
L12884 14210
" />
<path d="M12034 14660
L12034 15010
" />
<path d="M12884 15010
L12884 14660
" />
<path d="M12884 14210
L12034 14210
" />
<path d="M12884 13510
L12034 13510
" />
<path d="M12884 15010
L12034 15010
" />
</g>
<g style="fill:#848484; fill-opacity:1.0; 
stroke:#848484; stroke-width:1; stroke-opacity:1; 
stroke-linecap:round; stroke-linejoin:round;">
<polyline style="fill-rule:evenodd;"
points="25156,6141
25142,6133
25111,6114
25067,6085
25015,6051
24963,6015
24920,5987
24890,5967
24878,5960
24871,5963
24846,5975
24811,5993
24790,6004
24757,6018
24740,6021
24738,6017
24726,5992
24707,5949
24682,5892
24653,5825
24623,5753
24592,5680
24563,5610
24538,5547
24517,5495
24503,5460
24498,5445
24500,5441
24516,5425
24545,5404
24607,5353
24669,5277
24706,5190
24719,5093
24708,5003
24673,4917
24613,4840
24540,4782
24455,4746
24359,4734
24268,4744
24180,4779
24102,4838
24069,4876
24024,4954
23999,5038
23996,5060
24000,5152
24027,5240
24076,5319
24143,5384
24152,5390
24183,5414
24204,5430
24221,5443
24103,5726
24084,5771
24052,5849
24024,5915
24001,5968
23985,6004
23978,6018
23978,6019
23967,6021
23946,6013
23906,5994
23880,5980
23850,5966
23836,5960
23825,5967
23796,5985
23754,6013
23703,6048
23655,6081
23611,6110
23579,6131
23563,6139
23561,6139
23547,6131
23521,6110
23483,6074
23428,6020
23420,6011
23375,5966
23339,5928
23314,5900
23305,5888
23305,5888
23313,5873
23334,5840
23363,5795
23399,5743
23493,5607
23441,5478
23425,5439
23405,5391
23390,5357
23383,5342
23369,5337
23334,5329
23283,5318
23222,5307
23164,5296
23112,5286
23074,5279
23057,5276
23053,5273
23049,5265
23047,5247
23046,5215
23045,5165
23045,5093
23045,5085
23046,5016
23047,4961
23049,4925
23051,4911
23051,4911
23068,4907
23105,4899
23157,4889
23219,4877
23223,4876
23285,4864
23338,4853
23374,4845
23389,4840
23393,4836
23405,4811
23423,4773
23444,4726
23464,4677
23481,4633
23493,4600
23497,4585
23497,4585
23487,4570
23466,4538
23436,4493
23399,4440
23397,4436
23361,4384
23332,4339
23313,4307
23305,4293
23306,4292
23317,4277
23344,4247
23382,4207
23428,4160
23443,4146
23494,4096
23530,4063
23552,4046
23562,4042
23563,4042
23579,4052
23612,4074
23657,4104
23710,4140
23714,4143
23766,4179
23810,4208
23841,4229
23855,4237
23857,4237
23879,4231
23916,4218
23962,4200
24011,4180
24055,4162
24088,4147
24103,4138
24104,4137
24109,4118
24118,4079
24130,4025
24142,3960
24144,3950
24156,3887
24166,3836
24173,3800
24177,3785
24186,3783
24216,3781
24263,3780
24319,3779
24379,3779
24437,3781
24486,3782
24522,3785
24537,3788
24537,3789
24543,3808
24551,3847
24562,3902
24575,3966
24577,3978
24589,4040
24599,4091
24607,4127
24611,4141
24616,4144
24642,4155
24684,4172
24736,4193
24856,4242
25004,4141
25017,4132
25070,4095
25114,4066
25144,4047
25157,4040
25158,4040
25173,4053
25202,4080
25242,4119
25288,4166
25323,4200
25363,4241
25389,4269
25403,4287
25408,4298
25407,4305
25397,4320
25376,4353
25345,4397
25309,4450
25280,4493
25248,4543
25227,4578
25220,4595
25222,4603
25232,4631
25249,4675
25272,4727
25323,4844
25399,4859
25446,4867
25511,4880
25573,4892
25670,4911
25673,5267
25658,5273
25644,5277
25608,5285
25557,5295
25496,5306
25445,5316
25393,5326
25355,5333
25339,5337
25335,5342
25322,5367
25303,5407
25283,5455
25262,5505
25244,5551
25231,5586
25226,5605
25233,5618
25253,5649
25281,5692
25317,5744
25352,5795
25382,5840
25402,5871
25411,5886
25407,5896
25386,5921
25347,5961
25289,6018
25280,6027
25234,6072
25195,6108
25168,6132
25156,6141
" /> 
</g>
<g style="fill:#848484; fill-opacity:1.0; 
stroke:#848484; stroke-width:3.93701; stroke-opacity:1; 
stroke-linecap:round; stroke-linejoin:round;">
<polyline style="fill-rule:evenodd;"
points="6561,19876
6462,19876
6366,19876
6276,19877
6191,19878
6115,19879
6047,19880
5991,19881
5947,19882
5916,19884
5900,19885
5900,19886
5861,19904
5833,19932
5815,19966
5809,20003
5815,20040
5832,20073
5861,20099
5875,20107
5908,20122
5908,20900
5909,21678
5684,22067
5637,22149
5583,22243
5524,22345
5461,22453
5398,22564
5334,22674
5272,22781
5214,22881
5188,22926
5142,23007
5097,23085
5056,23157
5019,23222
4987,23280
4960,23328
4939,23367
4924,23394
4917,23408
4917,23410
4921,23420
4933,23444
4951,23478
4975,23521
5003,23572
5035,23628
5069,23687
5105,23749
5142,23812
5177,23872
5212,23930
5243,23983
5271,24029
5295,24066
5312,24094
5324,24109
5326,24112
5350,24135
8067,24135
8092,24112
8100,24100
8116,24076
8138,24042
8165,23998
8195,23947
8229,23891
8264,23831
8300,23769
8336,23707
8371,23646
8404,23589
8434,23536
8459,23491
8479,23453
8493,23426
8500,23411
8500,23409
8497,23401
8235,23401
8091,23651
7947,23901
5470,23901
5326,23651
5182,23401
5238,23303
5264,23259
5290,23212
5315,23169
5333,23137
5371,23068
5900,23068
6429,23068
6274,23224
6232,23267
6194,23306
6161,23341
6135,23368
6117,23388
6110,23397
6106,23416
6113,23435
6126,23454
6147,23477
6173,23502
6200,23526
6225,23545
6244,23557
6252,23560
6264,23554
6286,23537
6318,23509
6360,23469
6413,23417
6435,23395
6600,23231
6600,23459
6600,23528
6601,23582
6601,23623
6603,23653
6605,23674
6607,23688
6610,23697
6614,23703
6623,23710
6636,23714
6658,23717
6690,23718
6713,23718
6752,23718
6778,23716
6794,23714
6805,23708
6813,23700
6817,23695
6822,23688
6826,23680
6829,23669
6831,23652
6832,23629
6833,23596
6833,23552
6832,23495
6832,23454
6831,23395
6831,23343
6830,23298
6830,23264
6830,23242
6830,23234
6836,23240
6852,23256
6876,23281
6908,23313
6946,23350
6987,23392
6988,23393
7031,23436
7071,23474
7106,23507
7135,23533
7155,23550
7166,23557
7176,23557
7189,23552
7207,23538
7231,23516
7251,23496
7284,23462
7305,23437
7315,23419
7317,23410
7314,23400
7305,23386
7289,23366
7264,23338
7229,23302
7185,23257
7157,23228
6996,23068
7221,23068
7294,23068
7352,23068
7397,23066
7430,23063
7454,23057
7469,23047
7478,23033
7482,23014
7484,22990
7484,22959
7484,22950
7484,22917
7483,22892
7480,22872
7473,22858
7460,22847
7439,22841
7409,22837
7368,22835
7315,22834
7246,22834
7223,22835
6997,22835
7161,22669
7208,22622
7248,22579
7282,22543
7306,22515
7321,22497
7325,22489
7319,22475
7303,22454
7280,22428
7254,22402
7226,22377
7202,22357
7182,22345
7175,22343
7165,22346
7149,22358
7125,22377
7094,22406
7052,22446
7001,22496
6992,22505
6829,22667
6832,22445
6833,22372
6833,22314
6832,22270
6829,22237
6823,22213
6813,22198
6799,22190
6780,22185
6755,22184
6722,22184
6713,22185
6671,22185
6642,22187
6624,22191
6614,22197
6613,22198
6609,22203
6606,22213
6604,22229
6602,22253
6601,22287
6601,22332
6600,22391
6600,22441
6600,22671
6435,22507
6380,22453
6336,22411
6302,22379
6277,22358
6260,22346
6251,22343
6234,22349
6209,22367
6178,22395
6143,22430
6120,22457
6109,22478
6107,22495
6110,22506
6118,22516
6136,22536
6163,22564
6197,22599
6235,22639
6274,22678
6429,22835
5507,22835
5524,22807
5542,22777
5566,22736
5596,22685
5630,22626
5668,22561
5709,22490
5751,22415
5796,22338
5840,22260
5885,22182
5928,22106
5970,22033
6009,21965
6044,21902
6075,21846
6102,21799
6122,21762
6136,21737
6142,21724
6143,21723
6144,21711
6145,21684
6146,21642
6147,21586
6148,21519
6148,21440
6149,21352
6149,21255
6150,21150
6150,21039
6150,20923
6150,20907
6150,20118
7267,20118
7269,20924
7271,21730
7451,22043
7499,22124
7551,22215
7606,22310
7662,22407
7715,22500
7765,22586
7800,22647
7877,22779
7946,22899
8007,23005
8061,23099
8107,23179
8146,23245
8176,23298
8198,23337
8212,23361
8215,23366
8235,23401
8497,23401
8496,23400
8485,23377
8466,23343
8442,23299
8413,23247
8380,23189
8344,23125
8320,23084
8275,23006
8226,22921
8176,22834
8126,22748
8079,22665
8036,22591
8001,22530
7963,22466
7919,22390
7872,22307
7821,22220
7771,22133
7723,22050
7685,21983
7509,21678
7509,20122
7542,20107
7576,20083
7597,20052
7607,20017
7605,19980
7592,19944
7568,19914
7533,19891
7517,19886
7504,19884
7474,19882
7431,19881
7376,19880
7310,19879
7234,19878
7151,19877
7061,19877
6965,19876
6866,19876
6765,19876
6663,19876
6561,19876
" /> 
<polyline style="fill-rule:evenodd;"
points="25021,24266
24934,24278
24884,24283
24808,24289
24710,24294
24598,24299
24476,24304
24387,24306
23956,24318
23862,24412
23804,24469
23735,24536
23666,24602
23647,24621
23527,24735
23515,25006
23511,25107
23509,25182
23510,25236
23514,25278
23521,25314
23534,25351
23551,25394
23571,25444
23589,25478
23610,25498
23641,25507
23689,25507
23759,25500
23825,25492
23897,25482
23968,25469
24009,25460
24071,25444
24134,25428
24147,25424
24198,25401
24263,25356
24321,25307
24326,25303
24152,25303
24152,25305
24128,25316
24080,25330
24015,25346
23942,25362
23869,25376
23804,25386
23755,25392
23748,25392
23697,25391
23668,25383
23651,25363
23640,25339
23619,25270
23619,25209
23642,25147
23690,25075
23703,25058
23750,25003
23784,24969
23815,24953
23842,24948
23895,24950
23933,24963
23948,24984
23942,25002
23930,25031
23948,25052
23993,25060
23993,25060
24019,25062
24040,25076
24062,25105
24090,25156
24101,25178
24128,25234
24146,25278
24152,25303
24326,25303
24390,25248
24472,25184
24552,25127
24567,25117
24655,25052
24750,24971
24813,24909
24646,24909
24634,24926
24631,24929
24606,24951
24561,24987
24502,25031
24451,25068
24383,25117
24321,25165
24273,25205
24250,25226
24216,25257
24189,25275
24184,25276
24168,25262
24144,25226
24115,25174
24113,25169
24086,25112
24074,25076
24074,25055
24084,25042
24105,25014
24106,25012
24057,25012
24044,25025
24041,25027
24008,25042
23987,25032
23984,25027
23985,25007
24007,24997
24038,25001
24057,25012
24106,25012
24109,24999
24123,24979
24160,24953
24212,24925
24269,24900
24322,24882
24362,24876
24407,24872
24439,24862
24439,24861
24468,24857
24519,24863
24561,24872
24614,24887
24641,24897
24646,24909
24813,24909
24854,24869
24971,24745
25029,24680
25098,24590
25120,24549
24985,24549
24983,24560
24981,24566
24959,24595
24920,24639
24871,24690
24816,24744
24762,24795
24714,24837
24678,24866
24660,24876
24628,24871
24580,24859
24566,24855
24516,24836
24500,24826
24425,24826
24411,24839
24384,24843
24352,24837
24342,24826
24356,24814
24384,24810
24415,24815
24425,24826
24500,24826
24477,24813
24471,24808
24460,24792
24461,24775
24478,24751
24514,24712
24539,24687
24603,24630
24651,24599
24677,24593
24715,24587
24735,24577
24758,24567
24806,24558
24867,24550
24874,24549
24922,24545
24707,24545
24694,24559
24691,24560
24657,24574
24631,24572
24625,24560
24639,24537
24670,24530
24688,24534
24707,24545
24922,24545
24936,24544
24971,24543
24985,24549
25120,24549
25148,24497
25166,24452
25189,24381
25069,24381
25068,24401
25055,24438
25048,24454
25031,24487
25013,24507
24985,24518
24939,24525
24895,24529
24812,24533
24755,24527
24732,24518
24678,24505
24637,24508
24599,24521
24585,24545
24584,24564
24572,24599
24541,24645
24500,24694
24454,24738
24413,24767
24387,24776
24345,24784
24311,24803
24297,24827
24298,24834
24289,24854
24256,24880
24208,24909
24151,24936
24094,24958
24045,24971
24026,24973
23980,24968
23948,24957
23946,24956
23928,24926
23925,24906
23925,24906
23868,24906
23866,24911
23842,24925
23812,24921
23801,24911
23805,24895
23828,24883
23854,24883
23860,24886
23868,24906
23925,24906
23911,24875
23892,24864
23869,24847
23860,24822
23843,24822
23829,24851
23804,24863
23774,24877
23761,24916
23761,24917
23748,24957
23719,25008
23695,25040
23634,25115
23629,24993
23627,24930
23628,24879
23632,24850
23632,24849
23655,24825
23697,24799
23747,24778
23791,24767
23809,24768
23837,24790
23843,24822
23860,24822
23859,24817
23861,24789
23879,24776
23880,24776
23910,24767
23934,24753
23955,24732
23954,24726
23900,24726
23877,24740
23858,24743
23831,24736
23825,24726
23840,24714
23868,24710
23896,24715
23900,24726
23954,24726
23949,24710
23943,24703
23905,24680
23855,24679
23806,24699
23787,24715
23750,24748
23706,24776
23664,24797
23635,24804
23628,24801
23636,24787
23664,24754
23709,24706
23768,24649
23808,24611
23999,24431
24325,24420
24444,24416
24568,24410
24687,24403
24791,24395
24854,24390
24933,24383
25000,24379
25047,24378
25068,24381
25069,24381
25189,24381
25191,24377
25199,24322
25190,24286
25159,24266
25104,24260
25021,24266
" /> 
<polyline style="fill-rule:evenodd;"
points="22526,21478
22473,21494
22438,21514
22409,21547
22383,21589
22360,21628
22345,21664
22335,21704
22328,21756
22323,21829
22320,21881
22313,21996
22301,22100
22284,22200
22259,22305
22225,22423
22179,22563
22175,22574
22132,22712
22104,22826
22091,22919
22093,22996
22109,23062
22119,23087
22140,23124
22170,23158
22213,23193
22275,23234
22358,23283
22426,23320
22519,23371
22609,23424
22703,23482
22803,23547
22917,23623
23047,23714
23184,23810
23293,23886
23381,23945
23451,23989
23508,24021
23558,24043
23599,24058
23656,24075
23698,24086
23717,24089
23718,24089
23716,24072
23711,24027
23701,23960
23697,23934
23591,23934
23586,23937
23571,23918
23557,23895
23530,23846
23493,23776
23447,23689
23395,23590
23340,23485
23285,23377
23235,23278
23191,23190
23157,23119
23135,23070
23125,23045
23114,23024
23072,23024
23067,23040
23049,23040
23020,23024
23012,23012
23017,22996
23034,22995
23064,23011
23072,23024
23114,23024
23106,23006
23084,22986
23057,22969
23039,22948
23026,22914
23013,22860
23008,22831
22998,22768
22997,22728
23006,22704
23008,22702
23017,22679
23011,22669
22973,22669
22966,22675
22947,22676
22914,22670
22901,22661
22899,22641
22917,22636
22946,22647
22952,22651
22973,22669
23011,22669
23001,22653
22994,22645
22979,22620
22569,22620
22552,22626
22544,22626
22515,22616
22509,22601
22516,22579
22523,22576
22545,22588
22559,22601
22569,22620
22979,22620
22973,22611
22956,22558
22944,22499
22939,22444
22943,22403
22949,22392
22954,22372
22952,22370
22903,22370
22885,22376
22877,22376
22849,22366
22842,22351
22850,22329
22857,22326
22878,22338
22892,22351
22903,22370
22952,22370
22931,22343
22921,22334
22893,22299
22860,22241
22827,22172
22799,22101
22781,22040
22775,22003
22760,21957
22705,21957
22700,21973
22683,21974
22653,21958
22646,21945
22650,21929
22668,21929
22697,21945
22705,21957
22760,21957
22760,21956
22717,21919
22662,21899
22621,21896
22601,21910
22599,21916
22600,21953
22633,21986
22692,22011
22723,22023
22746,22040
22766,22069
22787,22118
22804,22161
22854,22292
22799,22303
22754,22304
22750,22303
22639,22303
22629,22309
22613,22310
22580,22303
22568,22294
22566,22274
22584,22267
22611,22274
22622,22283
22639,22303
22750,22303
22703,22290
22651,22266
22597,22241
22563,22231
22542,22236
22538,22240
22528,22268
22542,22297
22574,22323
22615,22338
22657,22339
22669,22335
22717,22325
22764,22331
22796,22351
22798,22354
22822,22377
22863,22400
22869,22403
22907,22424
22923,22452
22925,22481
22928,22530
22935,22568
22937,22587
22927,22600
22902,22608
22854,22612
22781,22613
22745,22613
22666,22610
22616,22599
22595,22587
22552,22560
22509,22548
22475,22555
22464,22569
22467,22601
22492,22631
22532,22651
22575,22659
22612,22648
22619,22642
22645,22635
22692,22635
22751,22642
22811,22653
22861,22666
22889,22681
22925,22705
22944,22714
22965,22738
22984,22795
22992,22834
23002,22894
23005,22930
22999,22951
22984,22966
22981,22968
22950,22984
22932,22985
22908,22981
22859,22976
22794,22970
22760,22967
22671,22957
22660,22955
22539,22955
22525,22959
22509,22957
22476,22945
22463,22930
22467,22913
22488,22911
22515,22925
22527,22936
22539,22955
22660,22955
22609,22944
22571,22927
22569,22925
22524,22898
22487,22884
22447,22884
22428,22904
22434,22935
22459,22963
22491,22982
22530,22988
22582,22984
22647,22981
22725,22983
22806,22991
22882,23002
22945,23015
22986,23030
22992,23035
23031,23060
23067,23073
23082,23081
23099,23096
23121,23123
23147,23166
23182,23226
23227,23307
23283,23413
23325,23493
23381,23600
23431,23697
23472,23780
23504,23845
23525,23889
23532,23908
23532,23908
23516,23902
23479,23881
23427,23847
23379,23814
23219,23702
23061,23595
22910,23494
22770,23403
22646,23324
22541,23261
22482,23228
22406,23184
22337,23140
22282,23102
22249,23075
22218,23031
22201,22976
22199,22907
22213,22819
22242,22710
22280,22593
22326,22453
22361,22332
22387,22220
22405,22105
22419,21977
22425,21907
22432,21815
22440,21750
22448,21704
22460,21672
22475,21645
22484,21632
22522,21595
22565,21578
22613,21585
22668,21614
22731,21669
22804,21749
22888,21857
22985,21992
23052,22093
23095,22164
23143,22261
23199,22385
23264,22539
23289,22601
23442,22985
23509,23418
23527,23537
23545,23647
23560,23744
23572,23822
23581,23877
23585,23901
23591,23934
23697,23934
23688,23875
23674,23778
23673,23776
23658,23678
23646,23592
23637,23522
23631,23474
23630,23453
23630,23453
23641,23458
23663,23486
23695,23532
23732,23589
23771,23652
23807,23714
23838,23771
23859,23815
23863,23826
23882,23887
23895,23947
23898,23962
23901,24001
23892,24018
23866,24022
23864,24022
23822,24032
23800,24064
23792,24124
23792,24125
23789,24155
23777,24183
23751,24216
23706,24259
23671,24291
23562,24392
23472,24480
23393,24565
23316,24656
23234,24760
23211,24790
23152,24870
23111,24928
23084,24971
23068,25003
23062,25030
23061,25057
23062,25065
23068,25110
23081,25131
23108,25139
23109,25139
23154,25135
23180,25125
23200,25104
23234,25062
23276,25003
23323,24933
23332,24919
23389,24834
23437,24770
23483,24718
23536,24669
23594,24622
23686,24547
23771,24468
23847,24393
23907,24324
23947,24268
23957,24248
23973,24213
23987,24206
24006,24221
24018,24230
24038,24237
24069,24240
24117,24242
24185,24241
24279,24239
24358,24236
24485,24231
24625,24224
24765,24216
24892,24208
24960,24204
25087,24193
25187,24180
25269,24162
25340,24134
25405,24095
25472,24040
25549,23965
25625,23887
25684,23826
25761,23746
25854,23652
25957,23548
26066,23438
26177,23327
26252,23252
26374,23129
26474,23027
26553,22945
26613,22880
26655,22831
26672,22809
26533,22809
26125,23223
26020,23329
25915,23436
25814,23539
25721,23635
25640,23718
25576,23784
25550,23811
25465,23898
25394,23965
25330,24013
25265,24047
25193,24071
25107,24086
24999,24097
24917,24102
24812,24109
24704,24114
24598,24119
24498,24122
24410,24124
24337,24125
24286,24124
24261,24122
24260,24120
24285,24105
24336,24082
24405,24053
24486,24020
24573,23987
24658,23956
24736,23929
24799,23908
24842,23897
24850,23895
24916,23891
24999,23888
25090,23888
25181,23889
25261,23892
25321,23897
25342,23900
25394,23903
25433,23890
25452,23868
25450,23860
25409,23860
25394,23872
25367,23876
25336,23870
25325,23860
25331,23855
24902,23855
24900,23861
24879,23874
24854,23874
24842,23860
24855,23837
24882,23831
24892,23835
24902,23855
25331,23855
25339,23847
25367,23843
25398,23849
25409,23860
25450,23860
25445,23838
25442,23835
25416,23816
25375,23815
25359,23818
25308,23825
25243,23831
25170,23835
25098,23838
25034,23838
24986,23836
24961,23832
24959,23829
24972,23813
25007,23785
25057,23750
25115,23711
25174,23674
25227,23643
25268,23622
25289,23616
25290,23617
25314,23618
25357,23608
25378,23602
25452,23581
25505,23578
25533,23593
25534,23593
25557,23605
25599,23609
25644,23605
25666,23599
25687,23578
25689,23557
25642,23557
25628,23577
25599,23588
25586,23587
25574,23572
25369,23572
25367,23576
25346,23589
25316,23592
25295,23584
25292,23577
25304,23555
25309,23551
25336,23546
25360,23555
25369,23572
25574,23572
25573,23571
25573,23567
25586,23553
25612,23546
25636,23548
25642,23557
25689,23557
25690,23549
25675,23527
25663,23524
25606,23524
25557,23532
25534,23544
25506,23556
25466,23559
25431,23553
25418,23545
25426,23528
25455,23499
25499,23463
25551,23424
25603,23388
25650,23360
25683,23344
25692,23343
25734,23334
25758,23323
25787,23312
25815,23326
25824,23333
25862,23351
25910,23354
25956,23343
25985,23320
25987,23315
25987,23310
25942,23310
25928,23322
25900,23326
25869,23320
25859,23310
25873,23297
25900,23293
25932,23299
25942,23310
25987,23310
25986,23290
25725,23290
25712,23310
25682,23321
25670,23320
25657,23304
25657,23301
25669,23286
25696,23279
25719,23282
25725,23290
25986,23290
25986,23286
25958,23269
25909,23265
25844,23276
25813,23285
25782,23288
25775,23278
25790,23260
25827,23235
25880,23208
25939,23181
25996,23158
26044,23145
26063,23143
26112,23136
26151,23120
26172,23098
26170,23093
26125,23093
26111,23105
26084,23110
26052,23104
26042,23093
26056,23080
26084,23076
26115,23082
26125,23093
26170,23093
26166,23077
26160,23070
26127,23049
26082,23045
26037,23054
26003,23075
25992,23101
25978,23120
25942,23148
25891,23180
25835,23211
25781,23236
25738,23250
25726,23252
25663,23256
25626,23262
25607,23270
25598,23285
25597,23286
25599,23316
25608,23326
25608,23342
25585,23369
25545,23403
25495,23441
25441,23476
25388,23506
25344,23525
25325,23529
25275,23543
25251,23571
25228,23600
25182,23639
25122,23683
25055,23727
24989,23766
24931,23795
24890,23809
24884,23810
24827,23818
24796,23842
24790,23857
24772,23872
24731,23896
24672,23925
24625,23945
24511,23993
24426,24028
24367,24051
24330,24064
24315,24067
24317,24062
24341,24043
24390,24008
24460,23960
24496,23935
24286,23935
24271,23956
24226,23991
24178,24023
24117,24065
24067,24103
24033,24133
24025,24144
24006,24172
23999,24171
24006,24141
24010,24132
24018,24088
24009,24070
24004,24046
24028,24018
24079,23988
24152,23959
24227,23936
24272,23928
24286,23935
24496,23935
24547,23900
24647,23832
24759,23758
24877,23679
24998,23599
25119,23519
25236,23443
25345,23372
25444,23308
25528,23254
25595,23213
25639,23187
25651,23180
25737,23139
25836,23092
25945,23043
26056,22993
26164,22946
26264,22904
26349,22869
26413,22845
26442,22836
26533,22809
26672,22809
26682,22796
26695,22772
26696,22768
26697,22725
26675,22701
26627,22693
26620,22693
26562,22697
26492,22712
26406,22737
26303,22774
26178,22824
26029,22889
25914,22940
25798,22993
25702,23038
25620,23077
25547,23114
25479,23152
25409,23193
25332,23242
25244,23300
25139,23370
25011,23457
25009,23459
24891,23538
24779,23615
24674,23687
24582,23749
24507,23801
24452,23839
24430,23854
24382,23886
24349,23903
24335,23905
24336,23902
24341,23886
24337,23879
24317,23879
24275,23887
24239,23895
24160,23916
24085,23944
24020,23974
23975,24004
23961,24020
23946,24041
23941,24043
23938,24023
23934,23981
23932,23960
23915,23864
23883,23771
23832,23671
23765,23564
23722,23499
23688,23442
23665,23400
23659,23381
23669,23345
23694,23299
23726,23255
23755,23227
23756,23227
23773,23209
23765,23193
23743,23191
23713,23212
23680,23249
23651,23294
23630,23341
23624,23375
23621,23381
23613,23358
23603,23310
23591,23242
23584,23201
23566,23093
23552,23012
23539,22949
23526,22900
23511,22856
23493,22811
23470,22760
23446,22705
23415,22628
23378,22537
23340,22441
23325,22401
23291,22313
23261,22242
23232,22180
23199,22121
23159,22056
23107,21980
23041,21886
23028,21867
22958,21770
22904,21696
22860,21640
22823,21599
22790,21567
22756,21541
22722,21520
22618,21455
22526,21478
" /> 
<polyline style="fill-rule:evenodd;"
points="22011,23216
22011,23217
21953,23257
21888,23319
21823,23393
21768,23471
21737,23526
21716,23570
21701,23608
21691,23648
21685,23697
21681,23762
21679,23853
21678,23867
21677,23966
21678,24046
21683,24116
21694,24189
21711,24277
21724,24340
21747,24445
21767,24524
21786,24584
21807,24633
21834,24676
21869,24721
21899,24757
21937,24803
21964,24839
21975,24858
21975,24859
21990,24868
22030,24883
22089,24900
22119,24908
22192,24928
22260,24948
22311,24965
22321,24969
22380,24986
22444,24990
22518,24978
22612,24950
22650,24937
22731,24906
22827,24868
22926,24828
22985,24803
23068,24766
23131,24734
23184,24700
23239,24656
23303,24598
23323,24579
23476,24435
23463,24378
23352,24378
23344,24403
23313,24442
23266,24489
23208,24540
23145,24590
23082,24634
23024,24667
23015,24671
22925,24711
22828,24751
22730,24790
22636,24825
22553,24853
22486,24874
22440,24885
22425,24885
22378,24874
22335,24860
22304,24846
22293,24837
22294,24837
22310,24828
22351,24806
22414,24772
22493,24730
22586,24681
22652,24646
22780,24580
22880,24530
22955,24496
23007,24476
23036,24470
23039,24471
23073,24469
23088,24448
23087,24441
22966,24441
22955,24453
22918,24477
22862,24511
22791,24552
22708,24597
22621,24644
22532,24691
22448,24734
22372,24772
22310,24801
22267,24820
22249,24825
22213,24821
22161,24810
22132,24802
22074,24779
22028,24743
21989,24698
21957,24655
21937,24625
21932,24614
21949,24608
21992,24595
22058,24577
22139,24554
22210,24535
22302,24509
22384,24486
22450,24466
22493,24452
22508,24446
22542,24441
22579,24449
22625,24458
22659,24447
22689,24437
22740,24431
22802,24427
22865,24427
22919,24429
22956,24436
22966,24441
23087,24441
23082,24418
23042,24418
23039,24439
23022,24440
23002,24433
22985,24420
22619,24420
22602,24426
22594,24426
22570,24418
22510,24418
22494,24426
22451,24442
22389,24462
22313,24486
22230,24511
22146,24535
22068,24557
22001,24575
21951,24587
21929,24591
21907,24579
21892,24555
21882,24526
21867,24475
21850,24413
21834,24348
21820,24291
21811,24249
21809,24235
21824,24230
21865,24228
21923,24228
21992,24231
22064,24235
22130,24241
22183,24248
22217,24256
22217,24256
22267,24273
22309,24284
22346,24297
22392,24322
22440,24352
22481,24382
22506,24407
22510,24418
22570,24418
22565,24416
22559,24401
22566,24379
22573,24376
22595,24388
22609,24401
22619,24420
22985,24420
22977,24415
22983,24398
23009,24393
23036,24403
23042,24418
23082,24418
23082,24416
23059,24390
23016,24367
22972,24361
22940,24372
22931,24385
22910,24399
22865,24408
22807,24411
22745,24409
22689,24401
22648,24388
22639,24382
22603,24364
22552,24353
22538,24351
22476,24339
22409,24311
22348,24273
22304,24232
22299,24224
22255,24224
22250,24240
22233,24240
22203,24224
22196,24212
22200,24196
22218,24195
22247,24211
22255,24224
22299,24224
22293,24214
22262,24180
22235,24169
22154,24169
22136,24193
22097,24205
22031,24209
21984,24210
21905,24208
21853,24203
21822,24194
21808,24184
21800,24160
21792,24115
21785,24054
21779,23986
21774,23920
21773,23863
21774,23824
21778,23810
21797,23814
21838,23828
21895,23846
21907,23851
22004,23892
22073,23942
22118,24006
22140,24069
22153,24129
22154,24169
22235,24169
22227,24166
22191,24152
22173,24122
22167,24098
22157,24052
22148,24018
22147,24017
22151,23997
22172,23993
22209,23984
22218,23960
22214,23954
22169,23954
22152,23959
22144,23960
22115,23950
22109,23935
22116,23912
22123,23910
22145,23921
22159,23935
22169,23954
22214,23954
22198,23927
22188,23917
22145,23881
22190,23811
22219,23769
22243,23750
22272,23749
22278,23750
22323,23749
22346,23730
22346,23729
22211,23729
22193,23773
22164,23820
22129,23858
22101,23876
22070,23876
22018,23866
21953,23849
21886,23826
21825,23801
21806,23791
21791,23766
21790,23718
21804,23655
21831,23585
21856,23537
21891,23478
21920,23444
21950,23436
21987,23452
22039,23493
22067,23517
22118,23564
22159,23606
22183,23635
22186,23641
22201,23679
22210,23697
22211,23729
22346,23729
22344,23709
22309,23709
22298,23725
22268,23715
22259,23710
22244,23692
22246,23683
22270,23679
22297,23690
22309,23709
22344,23709
22343,23699
22326,23677
22289,23652
22256,23643
22226,23631
22181,23600
22129,23553
22126,23551
22076,23503
22030,23462
21997,23435
21994,23433
21956,23406
21994,23366
22027,23338
22054,23326
22055,23326
22074,23335
22117,23361
22181,23402
22263,23455
22360,23519
22469,23592
22585,23671
22598,23679
22756,23787
22888,23877
22998,23951
23087,24013
23157,24062
23211,24101
23251,24133
23280,24157
23299,24178
23310,24195
23317,24211
23320,24228
23323,24247
23326,24260
23337,24315
23347,24361
23352,24378
23463,24378
23437,24264
23420,24193
23406,24135
23395,24098
23391,24087
23373,24075
23331,24046
23268,24003
23188,23948
23094,23884
22989,23813
22876,23737
22760,23658
22643,23579
22529,23502
22421,23430
22323,23364
22238,23306
22169,23260
22120,23228
22095,23211
22092,23209
22056,23201
22011,23216
" /> 
</g>
<g style="fill:#848484; fill-opacity:1.0; 
stroke:#848484; stroke-width:100; stroke-opacity:1; 
stroke-linecap:round; stroke-linejoin:round;">
</g>
<g style="fill:#848484; fill-opacity:0.0; 
stroke:#848484; stroke-width:100; stroke-opacity:1; 
stroke-linecap:round; stroke-linejoin:round;">
<path d="M11959 4860
L11959 4660
" />
<path d="M11959 5860
L11959 5660
" />
<path d="M12959 6660
L12959 6760
" />
<path d="M12959 6760
L11959 6760
" />
<path d="M11959 6760
L11959 6660
" />
<path d="M12959 5660
L12959 5860
" />
<path d="M12959 4660
L12959 4860
" />
<path d="M11959 3860
L11959 3760
" />
<path d="M11959 3760
L12959 3760
" />
<path d="M12959 3760
L12959 3860
" />
</g>
<g style="fill:#848484; fill-opacity:0.0; 
stroke:#848484; stroke-width:150; stroke-opacity:1; 
stroke-linecap:round; stroke-linejoin:round;">
<path d="M14059 3860
L14159 3860
" />
<path d="M14059 3860
L14059 4660
" />
<path d="M14059 4660
L14859 4660
" />
<path d="M14859 4660
L14859 3860
" />
<path d="M14859 3860
L14159 3860
" />
<path d="M14159 3860
L14159 4560
" />
<path d="M14159 4560
L14759 4560
" />
<path d="M14759 4560
L14759 3960
" />
<path d="M14759 3960
L14259 3960
" />
<path d="M14259 3960
L14259 4460
" />
<path d="M14259 4460
L14659 4460
" />
<path d="M14659 4460
L14659 4060
" />
<path d="M14659 4060
L14359 4060
" />
<path d="M14359 4060
L14359 4360
" />
<path d="M14359 4360
L14559 4360
" />
<path d="M14559 4360
L14559 4160
" />
<path d="M14559 4160
L14459 4160
" />
<path d="M14459 4160
L14459 4260
" />
</g>
<g style="fill:#848484; fill-opacity:0.0; 
stroke:#848484; stroke-width:60; stroke-opacity:1; 
stroke-linecap:round; stroke-linejoin:round;">
<path d="M17859 6160
L17959 6260
" />
<path d="M17959 6260
L17859 6360
" />
<path d="M17859 5160
L17959 5260
" />
<path d="M17959 5260
L17859 5360
" />
<path d="M17859 4160
L17959 4260
" />
<path d="M17959 4260
L17859 4360
" />
<path d="M14959 6160
L17859 6160
" />
<path d="M17859 6160
L17859 6360
" />
<path d="M17859 6360
L14959 6360
" />
<path d="M14959 5160
L17859 5160
" />
<path d="M17859 5160
L17859 5360
" />
<path d="M17859 5360
L14959 5360
" />
<path d="M14959 4160
L17859 4160
" />
<path d="M17859 4160
L17859 4360
" />
<path d="M17859 4360
L14959 4360
" />
<path d="M13959 5760
L14959 5760
" />
<path d="M13959 4760
L14959 4760
" />
<path d="M13959 3760
L13959 6760
" />
<path d="M13959 6760
L14959 6760
" />
<path d="M14959 6760
L14959 3760
" />
<path d="M14959 3760
L13959 3760
" />
</g>
<g style="fill:#848484; fill-opacity:0.0; 
stroke:#848484; stroke-width:100; stroke-opacity:1; 
stroke-linecap:round; stroke-linejoin:round;">
<path d="M11959 22860
L11959 22660
" />
<path d="M11959 23860
L11959 23660
" />
<path d="M12959 24660
L12959 24760
" />
<path d="M12959 24760
L11959 24760
" />
<path d="M11959 24760
L11959 24660
" />
<path d="M12959 23660
L12959 23860
" />
<path d="M12959 22660
L12959 22860
" />
<path d="M11959 21860
L11959 21760
" />
<path d="M11959 21760
L12959 21760
" />
<path d="M12959 21760
L12959 21860
" />
</g>
<g style="fill:#848484; fill-opacity:0.0; 
stroke:#848484; stroke-width:150; stroke-opacity:1; 
stroke-linecap:round; stroke-linejoin:round;">
<path d="M14059 21860
L14159 21860
" />
<path d="M14059 21860
L14059 22660
" />
<path d="M14059 22660
L14859 22660
" />
<path d="M14859 22660
L14859 21860
" />
<path d="M14859 21860
L14159 21860
" />
<path d="M14159 21860
L14159 22560
" />
<path d="M14159 22560
L14759 22560
" />
<path d="M14759 22560
L14759 21960
" />
<path d="M14759 21960
L14259 21960
" />
<path d="M14259 21960
L14259 22460
" />
<path d="M14259 22460
L14659 22460
" />
<path d="M14659 22460
L14659 22060
" />
<path d="M14659 22060
L14359 22060
" />
<path d="M14359 22060
L14359 22360
" />
<path d="M14359 22360
L14559 22360
" />
<path d="M14559 22360
L14559 22160
" />
<path d="M14559 22160
L14459 22160
" />
<path d="M14459 22160
L14459 22260
" />
</g>
<g style="fill:#848484; fill-opacity:0.0; 
stroke:#848484; stroke-width:60; stroke-opacity:1; 
stroke-linecap:round; stroke-linejoin:round;">
<path d="M17859 24160
L17959 24260
" />
<path d="M17959 24260
L17859 24360
" />
<path d="M17859 23160
L17959 23260
" />
<path d="M17959 23260
L17859 23360
" />
<path d="M17859 22160
L17959 22260
" />
<path d="M17959 22260
L17859 22360
" />
<path d="M14959 24160
L17859 24160
" />
<path d="M17859 24160
L17859 24360
" />
<path d="M17859 24360
L14959 24360
" />
<path d="M14959 23160
L17859 23160
" />
<path d="M17859 23160
L17859 23360
" />
<path d="M17859 23360
L14959 23360
" />
<path d="M14959 22160
L17859 22160
" />
<path d="M17859 22160
L17859 22360
" />
<path d="M17859 22360
L14959 22360
" />
<path d="M13959 23760
L14959 23760
" />
<path d="M13959 22760
L14959 22760
" />
<path d="M13959 21760
L13959 24760
" />
<path d="M13959 24760
L14959 24760
" />
<path d="M14959 24760
L14959 21760
" />
<path d="M14959 21760
L13959 21760
" />
</g>
<g style="fill:#848484; fill-opacity:0.0; 
stroke:#848484; stroke-width:100; stroke-opacity:1; 
stroke-linecap:round; stroke-linejoin:round;">
<path d="M24859 10760
L25059 10760
" />
<path d="M23859 10760
L24059 10760
" />
<path d="M23059 11760
L22959 11760
" />
<path d="M22959 11760
L22959 10760
" />
<path d="M22959 10760
L23059 10760
" />
<path d="M24059 11760
L23859 11760
" />
<path d="M25059 11760
L24859 11760
" />
<path d="M25859 10760
L25959 10760
" />
<path d="M25959 10760
L25959 11760
" />
<path d="M25959 11760
L25859 11760
" />
</g>
<g style="fill:#848484; fill-opacity:0.0; 
stroke:#848484; stroke-width:150; stroke-opacity:1; 
stroke-linecap:round; stroke-linejoin:round;">
<path d="M25859 12860
L25859 12960
" />
<path d="M25859 12860
L25059 12860
" />
<path d="M25059 12860
L25059 13660
" />
<path d="M25059 13660
L25859 13660
" />
<path d="M25859 13660
L25859 12960
" />
<path d="M25859 12960
L25159 12960
" />
<path d="M25159 12960
L25159 13560
" />
<path d="M25159 13560
L25759 13560
" />
<path d="M25759 13560
L25759 13060
" />
<path d="M25759 13060
L25259 13060
" />
<path d="M25259 13060
L25259 13460
" />
<path d="M25259 13460
L25659 13460
" />
<path d="M25659 13460
L25659 13160
" />
<path d="M25659 13160
L25359 13160
" />
<path d="M25359 13160
L25359 13360
" />
<path d="M25359 13360
L25559 13360
" />
<path d="M25559 13360
L25559 13260
" />
<path d="M25559 13260
L25459 13260
" />
</g>
<g style="fill:#848484; fill-opacity:0.0; 
stroke:#848484; stroke-width:60; stroke-opacity:1; 
stroke-linecap:round; stroke-linejoin:round;">
<path d="M23559 16660
L23459 16760
" />
<path d="M23459 16760
L23359 16660
" />
<path d="M24559 16660
L24459 16760
" />
<path d="M24459 16760
L24359 16660
" />
<path d="M25559 16660
L25459 16760
" />
<path d="M25459 16760
L25359 16660
" />
<path d="M23559 13760
L23559 16660
" />
<path d="M23559 16660
L23359 16660
" />
<path d="M23359 16660
L23359 13760
" />
<path d="M24559 13760
L24559 16660
" />
<path d="M24559 16660
L24359 16660
" />
<path d="M24359 16660
L24359 13760
" />
<path d="M25559 13760
L25559 16660
" />
<path d="M25559 16660
L25359 16660
" />
<path d="M25359 16660
L25359 13760
" />
<path d="M23959 12760
L23959 13760
" />
<path d="M24959 12760
L24959 13760
" />
<path d="M25959 12760
L22959 12760
" />
<path d="M22959 12760
L22959 13760
" />
<path d="M22959 13760
L25959 13760
" />
<path d="M25959 13760
L25959 12760
" />
</g>
<g style="fill:#848484; fill-opacity:0.0; 
stroke:#848484; stroke-width:100; stroke-opacity:1; 
stroke-linecap:round; stroke-linejoin:round;">
<path d="M6859 10760
L7059 10760
" />
<path d="M5859 10760
L6059 10760
" />
<path d="M5059 11760
L4959 11760
" />
<path d="M4959 11760
L4959 10760
" />
<path d="M4959 10760
L5059 10760
" />
<path d="M6059 11760
L5859 11760
" />
<path d="M7059 11760
L6859 11760
" />
<path d="M7859 10760
L7959 10760
" />
<path d="M7959 10760
L7959 11760
" />
<path d="M7959 11760
L7859 11760
" />
</g>
<g style="fill:#848484; fill-opacity:0.0; 
stroke:#848484; stroke-width:150; stroke-opacity:1; 
stroke-linecap:round; stroke-linejoin:round;">
<path d="M7859 12860
L7859 12960
" />
<path d="M7859 12860
L7059 12860
" />
<path d="M7059 12860
L7059 13660
" />
<path d="M7059 13660
L7859 13660
" />
<path d="M7859 13660
L7859 12960
" />
<path d="M7859 12960
L7159 12960
" />
<path d="M7159 12960
L7159 13560
" />
<path d="M7159 13560
L7759 13560
" />
<path d="M7759 13560
L7759 13060
" />
<path d="M7759 13060
L7259 13060
" />
<path d="M7259 13060
L7259 13460
" />
<path d="M7259 13460
L7659 13460
" />
<path d="M7659 13460
L7659 13160
" />
<path d="M7659 13160
L7359 13160
" />
<path d="M7359 13160
L7359 13360
" />
<path d="M7359 13360
L7559 13360
" />
<path d="M7559 13360
L7559 13260
" />
<path d="M7559 13260
L7459 13260
" />
</g>
<g style="fill:#848484; fill-opacity:0.0; 
stroke:#848484; stroke-width:60; stroke-opacity:1; 
stroke-linecap:round; stroke-linejoin:round;">
<path d="M5559 16660
L5459 16760
" />
<path d="M5459 16760
L5359 16660
" />
<path d="M6559 16660
L6459 16760
" />
<path d="M6459 16760
L6359 16660
" />
<path d="M7559 16660
L7459 16760
" />
<path d="M7459 16760
L7359 16660
" />
<path d="M5559 13760
L5559 16660
" />
<path d="M5559 16660
L5359 16660
" />
<path d="M5359 16660
L5359 13760
" />
<path d="M6559 13760
L6559 16660
" />
<path d="M6559 16660
L6359 16660
" />
<path d="M6359 16660
L6359 13760
" />
<path d="M7559 13760
L7559 16660
" />
<path d="M7559 16660
L7359 16660
" />
<path d="M7359 16660
L7359 13760
" />
<path d="M5959 12760
L5959 13760
" />
<path d="M6959 12760
L6959 13760
" />
<path d="M7959 12760
L4959 12760
" />
<path d="M4959 12760
L4959 13760
" />
<path d="M4959 13760
L7959 13760
" />
<path d="M7959 13760
L7959 12760
" />
</g>
<g style="fill:#848484; fill-opacity:0.0; 
stroke:#848484; stroke-width:50; stroke-opacity:1; 
stroke-linecap:round; stroke-linejoin:round;">
<path d="M8634 14685
L10284 14685
" />
<path d="M8634 14735
L10284 14735
" />
<path d="M8634 14785
L10284 14785
" />
<path d="M10284 14835
L8634 14835
" />
<path d="M8634 14885
L10284 14885
" />
<path d="M10284 14935
L8634 14935
" />
<path d="M8634 14985
L10284 14985
" />
<path d="M8634 15685
L8634 15035
" />
<path d="M8634 15035
L10284 15035
" />
<path d="M10284 15035
L10284 15685
" />
<path d="M10234 15710
L10234 15085
" />
<path d="M10234 15085
L8684 15085
" />
<path d="M8684 15085
L8684 15685
" />
<path d="M8734 15710
L8734 15135
" />
<path d="M8734 15135
L10184 15135
" />
<path d="M10184 15135
L10184 15710
" />
<path d="M8734 12810
L8609 12810
" />
<path d="M10184 15710
L10309 15710
" />
<path d="M10309 15710
L10309 12810
" />
<path d="M10309 12810
L10184 12810
" />
<path d="M8609 12810
L8609 15710
" />
<path d="M8609 15710
L8734 15710
" />
<path d="M17634 14685
L19284 14685
" />
<path d="M17634 14735
L19284 14735
" />
<path d="M17634 14785
L19284 14785
" />
<path d="M19284 14835
L17634 14835
" />
<path d="M17634 14885
L19284 14885
" />
<path d="M19284 14935
L17634 14935
" />
<path d="M17634 14985
L19284 14985
" />
<path d="M17634 15685
L17634 15035
" />
<path d="M17634 15035
L19284 15035
" />
<path d="M19284 15035
L19284 15685
" />
<path d="M19234 15710
L19234 15085
" />
<path d="M19234 15085
L17684 15085
" />
<path d="M17684 15085
L17684 15685
" />
<path d="M17734 15710
L17734 15135
" />
<path d="M17734 15135
L19184 15135
" />
<path d="M19184 15135
L19184 15710
" />
<path d="M17734 12810
L17609 12810
" />
<path d="M19184 15710
L19309 15710
" />
<path d="M19309 15710
L19309 12810
" />
<path d="M19309 12810
L19184 12810
" />
<path d="M17609 12810
L17609 15710
" />
<path d="M17609 15710
L17734 15710
" />
</g>
<g style="fill:#848484; fill-opacity:0.0; 
stroke:#848484; stroke-width:80; stroke-opacity:1; 
stroke-linecap:round; stroke-linejoin:round;">
<path d="M11254 17940
L11254 17540
L11101 17540
L11063 17560
L11044 17579
L11025 17617
L11025 17674
L11044 17712
L11063 17731
L11101 17750
L11254 17750
" />
<path d="M10892 17540
L10644 17540
L10778 17693
L10720 17693
L10682 17712
L10663 17731
L10644 17769
L10644 17864
L10663 17902
L10682 17921
L10720 17940
L10835 17940
L10873 17921
L10892 17902
" />
</g>
<g style="fill:#848484; fill-opacity:0.0; 
stroke:#848484; stroke-width:200; stroke-opacity:1; 
stroke-linecap:round; stroke-linejoin:round;">
<path d="M13899 17212
L14375 17212
L14423 17688
L14375 17640
L14280 17593
L14042 17593
L13947 17640
L13899 17688
L13851 17783
L13851 18021
L13899 18117
L13947 18164
L14042 18212
L14280 18212
L14375 18164
L14423 18117
" />
<path d="M13566 17212
L13232 18212
L12899 17212
" />
</g>
<g style="fill:#848484; fill-opacity:0.0; 
stroke:#848484; stroke-width:80; stroke-opacity:1; 
stroke-linecap:round; stroke-linejoin:round;">
<path d="M20254 8940
L20254 8540
L20101 8540
L20063 8560
L20044 8579
L20025 8617
L20025 8674
L20044 8712
L20063 8731
L20101 8750
L20254 8750
" />
<path d="M19682 8674
L19682 8940
" />
<path d="M19778 8521
L19873 8807
L19625 8807
" />
</g>
<g style="fill:#848484; fill-opacity:0.0; 
stroke:#848484; stroke-width:200; stroke-opacity:1; 
stroke-linecap:round; stroke-linejoin:round;">
<path d="M17170 10360
L17266 10312
L17409 10312
L17551 10360
L17647 10455
L17694 10550
L17742 10740
L17742 10883
L17694 11074
L17647 11169
L17551 11264
L17409 11312
L17313 11312
L17170 11264
L17123 11217
L17123 10883
L17313 10883
" />
<path d="M16694 11312
L16694 10312
L16123 11312
L16123 10312
" />
<path d="M15647 11312
L15647 10312
L15409 10312
L15266 10360
L15170 10455
L15123 10550
L15075 10740
L15075 10883
L15123 11074
L15170 11169
L15266 11264
L15409 11312
L15647 11312
" />
</g>
<g style="fill:#848484; fill-opacity:0.0; 
stroke:#848484; stroke-width:50; stroke-opacity:1; 
stroke-linecap:round; stroke-linejoin:round;">
<path d="M25530 6445
L25484 6445
L25461 6460
L25439 6488
L25427 6545
L25427 6645
L25439 6702
L25461 6731
L25484 6745
L25530 6745
L25553 6731
L25576 6702
L25587 6645
L25587 6545
L25576 6488
L25553 6460
L25530 6445
" />
<path d="M25324 6545
L25324 6845
" />
<path d="M25324 6560
L25301 6545
L25256 6545
L25233 6560
L25221 6574
L25210 6602
L25210 6688
L25221 6717
L25233 6731
L25256 6745
L25301 6745
L25324 6731
" />
<path d="M25016 6731
L25039 6745
L25084 6745
L25107 6731
L25119 6702
L25119 6588
L25107 6560
L25084 6545
L25039 6545
L25016 6560
L25004 6588
L25004 6617
L25119 6645
" />
<path d="M24901 6545
L24901 6745
" />
<path d="M24901 6574
L24890 6560
L24867 6545
L24833 6545
L24810 6560
L24799 6588
L24799 6745
" />
<path d="M24684 6745
L24684 6445
" />
<path d="M24684 6588
L24547 6588
" />
<path d="M24547 6745
L24547 6445
" />
<path d="M24330 6745
L24330 6588
L24341 6560
L24364 6545
L24410 6545
L24433 6560
" />
<path d="M24330 6731
L24353 6745
L24410 6745
L24433 6731
L24444 6702
L24444 6674
L24433 6645
L24410 6631
L24353 6631
L24330 6617
" />
<path d="M24216 6745
L24216 6545
" />
<path d="M24216 6602
L24204 6574
L24193 6560
L24170 6545
L24147 6545
" />
<path d="M23964 6745
L23964 6445
" />
<path d="M23964 6731
L23987 6745
L24033 6745
L24056 6731
L24067 6717
L24079 6688
L24079 6602
L24067 6574
L24056 6560
L24033 6545
L23987 6545
L23964 6560
" />
<path d="M23873 6545
L23827 6745
L23781 6602
L23736 6745
L23690 6545
" />
<path d="M23496 6745
L23496 6588
L23507 6560
L23530 6545
L23576 6545
L23599 6560
" />
<path d="M23496 6731
L23519 6745
L23576 6745
L23599 6731
L23610 6702
L23610 6674
L23599 6645
L23576 6631
L23519 6631
L23496 6617
" />
<path d="M23381 6745
L23381 6545
" />
<path d="M23381 6602
L23370 6574
L23359 6560
L23336 6545
L23313 6545
" />
<path d="M23141 6731
L23164 6745
L23210 6745
L23233 6731
L23244 6702
L23244 6588
L23233 6560
L23210 6545
L23164 6545
L23141 6560
L23130 6588
L23130 6617
L23244 6645
" />
</g>
<g style="fill:#848484; fill-opacity:0.0; 
stroke:#848484; stroke-width:100; stroke-opacity:1; 
stroke-linecap:round; stroke-linejoin:round;">
<path d="M9292 24836
L9292 24336
L9125 24693
L8959 24336
L8959 24836
" />
<path d="M8506 24836
L8506 24574
L8530 24526
L8578 24502
L8673 24502
L8720 24526
" />
<path d="M8506 24812
L8554 24836
L8673 24836
L8720 24812
L8744 24764
L8744 24717
L8720 24669
L8673 24645
L8554 24645
L8506 24621
" />
<path d="M8268 24502
L8268 24836
" />
<path d="M8268 24550
L8244 24526
L8197 24502
L8125 24502
L8078 24526
L8054 24574
L8054 24836
" />
<path d="M7816 24836
L7816 24502
" />
<path d="M7816 24336
L7839 24360
L7816 24383
L7792 24360
L7816 24336
L7816 24383
" />
<path d="M7363 24836
L7363 24574
L7387 24526
L7435 24502
L7530 24502
L7578 24526
" />
<path d="M7363 24812
L7411 24836
L7530 24836
L7578 24812
L7601 24764
L7601 24717
L7578 24669
L7530 24645
L7411 24645
L7363 24621
" />
<path d="M6911 24812
L6959 24836
L7054 24836
L7101 24812
L7125 24788
L7149 24740
L7149 24598
L7125 24550
L7101 24526
L7054 24502
L6959 24502
L6911 24526
" />
<path d="M6482 24836
L6482 24574
L6506 24526
L6554 24502
L6649 24502
L6697 24526
" />
<path d="M6482 24812
L6530 24836
L6649 24836
L6697 24812
L6720 24764
L6720 24717
L6697 24669
L6649 24645
L6530 24645
L6482 24621
" />
<path d="M6173 24836
L6220 24812
L6244 24764
L6244 24336
" />
<path d="M5363 24836
L5601 24836
L5601 24336
" />
<path d="M4982 24836
L4982 24574
L5006 24526
L5054 24502
L5149 24502
L5197 24526
" />
<path d="M4982 24812
L5030 24836
L5149 24836
L5197 24812
L5220 24764
L5220 24717
L5197 24669
L5149 24645
L5030 24645
L4982 24621
" />
<path d="M4744 24836
L4744 24336
" />
<path d="M4744 24526
L4697 24502
L4601 24502
L4554 24526
L4530 24550
L4506 24598
L4506 24740
L4530 24788
L4554 24812
L4601 24836
L4697 24836
L4744 24812
" />
<path d="M4316 24812
L4268 24836
L4173 24836
L4125 24812
L4101 24764
L4101 24740
L4125 24693
L4173 24669
L4244 24669
L4292 24645
L4316 24598
L4316 24574
L4292 24526
L4244 24502
L4173 24502
L4125 24526
" />
<path d="M26280 21586
L26161 22086
L26066 21729
L25970 22086
L25851 21586
" />
<path d="M25709 21752
L25589 22086
" />
<path d="M25470 21752
L25589 22086
L25637 22205
L25661 22229
L25709 22252
" />
<path d="M25209 22086
L25256 22062
L25280 22038
L25304 21990
L25304 21848
L25280 21800
L25256 21776
L25209 21752
L25137 21752
L25090 21776
L25066 21800
L25042 21848
L25042 21990
L25066 22038
L25090 22062
L25137 22086
L25209 22086
" />
<path d="M24756 22086
L24804 22062
L24828 22014
L24828 21586
" />
<path d="M24351 21752
L24351 22086
" />
<path d="M24566 21752
L24566 22014
L24542 22062
L24494 22086
L24423 22086
L24375 22062
L24351 22038
" />
<path d="M24113 22086
L24113 21752
" />
<path d="M24113 21800
L24089 21776
L24042 21752
L23970 21752
L23923 21776
L23899 21824
L23899 22086
" />
<path d="M23899 21824
L23875 21776
L23828 21752
L23756 21752
L23709 21776
L23685 21824
L23685 22086
" />
</g>
<g style="fill:#848484; fill-opacity:0.0; 
stroke:#848484; stroke-width:80; stroke-opacity:1; 
stroke-linecap:round; stroke-linejoin:round;">
<path d="M16704 4940
L16704 4540
L16551 4540
L16513 4560
L16494 4579
L16475 4617
L16475 4674
L16494 4712
L16513 4731
L16551 4750
L16704 4750
" />
<path d="M16132 4540
L16209 4540
L16247 4560
L16266 4579
L16304 4636
L16323 4712
L16323 4864
L16304 4902
L16285 4921
L16247 4940
L16170 4940
L16132 4921
L16113 4902
L16094 4864
L16094 4769
L16113 4731
L16132 4712
L16170 4693
L16247 4693
L16285 4712
L16304 4731
L16323 4769
" />
<path d="M17409 5540
L17332 5540
L17294 5560
L17256 5598
L17237 5674
L17237 5807
L17256 5883
L17294 5921
L17332 5940
L17409 5940
L17447 5921
L17485 5883
L17504 5807
L17504 5674
L17485 5598
L17447 5560
L17409 5540
" />
<path d="M16894 5674
L16894 5940
" />
<path d="M17066 5674
L17066 5883
L17047 5921
L17009 5940
L16951 5940
L16913 5921
L16894 5902
" />
<path d="M16761 5674
L16609 5674
" />
<path d="M16704 5540
L16704 5883
L16685 5921
L16647 5940
L16609 5940
" />
<path d="M16475 5674
L16475 6074
" />
<path d="M16475 5693
L16437 5674
L16361 5674
L16323 5693
L16304 5712
L16285 5750
L16285 5864
L16304 5902
L16323 5921
L16361 5940
L16437 5940
L16475 5921
" />
<path d="M15942 5674
L15942 5940
" />
<path d="M16113 5674
L16113 5883
L16094 5921
L16056 5940
L15999 5940
L15961 5921
L15942 5902
" />
<path d="M15809 5674
L15656 5674
" />
<path d="M15751 5540
L15751 5883
L15732 5921
L15694 5940
L15656 5940
" />
<path d="M15542 5579
L15523 5560
L15485 5540
L15390 5540
L15351 5560
L15332 5579
L15313 5617
L15313 5655
L15332 5712
L15561 5940
L15313 5940
" />
<path d="M16704 23940
L16704 23540
L16551 23540
L16513 23560
L16494 23579
L16475 23617
L16475 23674
L16494 23712
L16513 23731
L16551 23750
L16704 23750
" />
<path d="M16113 23540
L16304 23540
L16323 23731
L16304 23712
L16266 23693
L16170 23693
L16132 23712
L16113 23731
L16094 23769
L16094 23864
L16113 23902
L16132 23921
L16170 23940
L16266 23940
L16304 23921
L16323 23902
" />
<path d="M17256 22940
L17256 22540
" />
<path d="M17066 22674
L17066 22940
" />
<path d="M17066 22712
L17047 22693
L17009 22674
L16951 22674
L16913 22693
L16894 22731
L16894 22940
" />
<path d="M16704 22674
L16704 23074
" />
<path d="M16704 22693
L16666 22674
L16590 22674
L16551 22693
L16532 22712
L16513 22750
L16513 22864
L16532 22902
L16551 22921
L16590 22940
L16666 22940
L16704 22921
" />
<path d="M16170 22674
L16170 22940
" />
<path d="M16342 22674
L16342 22883
L16323 22921
L16285 22940
L16228 22940
L16190 22921
L16170 22902
" />
<path d="M16037 22674
L15885 22674
" />
<path d="M15980 22540
L15980 22883
L15961 22921
L15923 22940
L15885 22940
" />
<path d="M15770 22579
L15751 22560
L15713 22540
L15618 22540
L15580 22560
L15561 22579
L15542 22617
L15542 22655
L15561 22712
L15790 22940
L15542 22940
" />
<path d="M25240 14814
L24840 14814
L24840 14967
L24859 15005
L24878 15024
L24916 15043
L24973 15043
L25011 15024
L25030 15005
L25049 14967
L25049 14814
" />
<path d="M24878 15195
L24859 15214
L24840 15252
L24840 15348
L24859 15386
L24878 15405
L24916 15424
L24954 15424
L25011 15405
L25240 15176
L25240 15424
" />
<path d="M23740 14160
L23740 14236
L23759 14274
L23797 14312
L23873 14331
L24006 14331
L24082 14312
L24120 14274
L24140 14236
L24140 14160
L24120 14121
L24082 14083
L24006 14064
L23873 14064
L23797 14083
L23759 14121
L23740 14160
" />
<path d="M23873 14674
L24140 14674
" />
<path d="M23873 14502
L24082 14502
L24120 14521
L24140 14560
L24140 14617
L24120 14655
L24101 14674
" />
<path d="M23873 14807
L23873 14960
" />
<path d="M23740 14864
L24082 14864
L24120 14883
L24140 14921
L24140 14960
" />
<path d="M23873 15093
L24273 15093
" />
<path d="M23892 15093
L23873 15131
L23873 15207
L23892 15245
L23911 15264
L23949 15283
L24063 15283
L24101 15264
L24120 15245
L24140 15207
L24140 15131
L24120 15093
" />
<path d="M23873 15626
L24140 15626
" />
<path d="M23873 15455
L24082 15455
L24120 15474
L24140 15512
L24140 15569
L24120 15607
L24101 15626
" />
<path d="M23873 15760
L23873 15912
" />
<path d="M23740 15817
L24082 15817
L24120 15836
L24140 15874
L24140 15912
" />
<path d="M24140 16255
L24140 16026
" />
<path d="M24140 16140
L23740 16140
L23797 16102
L23835 16064
L23854 16026
" />
<path d="M6190 14864
L5790 14864
L5790 15017
L5809 15055
L5828 15074
L5866 15093
L5923 15093
L5961 15074
L5980 15055
L5999 15017
L5999 14864
" />
<path d="M6190 15474
L6190 15245
" />
<path d="M6190 15360
L5790 15360
L5847 15321
L5885 15283
L5904 15245
" />
<path d="M7140 14362
L6740 14362
" />
<path d="M6873 14552
L7140 14552
" />
<path d="M6911 14552
L6892 14571
L6873 14610
L6873 14667
L6892 14705
L6930 14724
L7140 14724
" />
<path d="M6873 14914
L7273 14914
" />
<path d="M6892 14914
L6873 14952
L6873 15029
L6892 15067
L6911 15086
L6949 15105
L7063 15105
L7101 15086
L7120 15067
L7140 15029
L7140 14952
L7120 14914
" />
<path d="M6873 15448
L7140 15448
" />
<path d="M6873 15276
L7082 15276
L7120 15295
L7140 15333
L7140 15390
L7120 15429
L7101 15448
" />
<path d="M6873 15581
L6873 15733
" />
<path d="M6740 15638
L7082 15638
L7120 15657
L7140 15695
L7140 15733
" />
<path d="M7140 16076
L7140 15848
" />
<path d="M7140 15962
L6740 15962
L6797 15924
L6835 15886
L6854 15848
" />
</g>
<g style="fill:#848484; fill-opacity:0.0; 
stroke:#848484; stroke-width:60; stroke-opacity:1; 
stroke-linecap:round; stroke-linejoin:round;">
<path d="M8280 15470
L8280 15699
" />
<path d="M8394 15585
L8166 15585
" />
<path d="M17280 15470
L17280 15699
" />
<path d="M17394 15585
L17166 15585
" />
</g>
<g style="fill:#000000; fill-opacity:0.0; 
stroke:#000000; stroke-width:60; stroke-opacity:1; 
stroke-linecap:round; stroke-linejoin:round;">
</g>
<g style="fill:#848484; fill-opacity:0.0; 
stroke:#848484; stroke-width:60; stroke-opacity:1; 
stroke-linecap:round; stroke-linejoin:round;">
</g>
<g style="fill:#848484; fill-opacity:0.0; 
stroke:#848484; stroke-width:80; stroke-opacity:1; 
stroke-linecap:round; stroke-linejoin:round;">
<path d="M640 26607
L640 26569
L659 26531
L678 26512
L716 26493
L792 26474
L887 26474
L963 26493
L1001 26512
L1020 26531
L1040 26569
L1040 26607
L1020 26645
L1001 26664
L963 26683
L887 26702
L792 26702
L716 26683
L678 26664
L659 26645
L640 26607
" />
<path d="M1001 26302
L1020 26283
L1040 26302
L1020 26321
L1001 26302
L1040 26302
" />
<path d="M640 26036
L640 25998
L659 25960
L678 25940
L716 25921
L792 25902
L887 25902
L963 25921
L1001 25940
L1020 25960
L1040 25998
L1040 26036
L1020 26074
L1001 26093
L963 26112
L887 26131
L792 26131
L716 26112
L678 26093
L659 26074
L640 26036
" />
<path d="M640 25540
L640 25731
L830 25750
L811 25731
L792 25693
L792 25598
L811 25560
L830 25540
L868 25521
L963 25521
L1001 25540
L1020 25560
L1040 25598
L1040 25693
L1020 25731
L1001 25750
" />
<path d="M640 25369
L716 25369
" />
<path d="M640 25217
L716 25217
" />
<path d="M1959 26260
L1959 25760
" />
<path d="M9459 26260
L1239 26260
" />
<path d="M9459 25760
L1239 25760
" />
<path d="M1959 25760
L2189 26203
" />
<path d="M1959 25760
L1728 26203
" />
<path d="M1959 26260
L2189 25816
" />
<path d="M1959 26260
L1728 25816
" />
<path d="M8911 28640
L8949 28640
L8987 28660
L9006 28679
L9025 28717
L9044 28793
L9044 28888
L9025 28964
L9006 29002
L8987 29021
L8949 29040
L8911 29040
L8873 29021
L8854 29002
L8835 28964
L8816 28888
L8816 28793
L8835 28717
L8854 28679
L8873 28660
L8911 28640
" />
<path d="M9216 29002
L9235 29021
L9216 29040
L9197 29021
L9216 29002
L9216 29040
" />
<path d="M9616 29040
L9387 29040
" />
<path d="M9501 29040
L9501 28640
L9463 28698
L9425 28736
L9387 28755
" />
<path d="M9863 28640
L9901 28640
L9940 28660
L9959 28679
L9978 28717
L9997 28793
L9997 28888
L9978 28964
L9959 29002
L9940 29021
L9901 29040
L9863 29040
L9825 29021
L9806 29002
L9787 28964
L9768 28888
L9768 28793
L9787 28717
L9806 28679
L9825 28660
L9863 28640
" />
<path d="M10149 28640
L10149 28717
" />
<path d="M10301 28640
L10301 28717
" />
<path d="M8959 27760
L9959 27760
" />
<path d="M8959 26760
L8959 28480
" />
<path d="M9959 26760
L9959 28480
" />
<path d="M9959 27760
L9515 27990
" />
<path d="M9959 27760
L9515 27529
" />
<path d="M8959 27760
L9402 27990
" />
<path d="M8959 27760
L9402 27529
" />
<path d="M4811 27900
L4849 27900
L4887 27919
L4906 27939
L4925 27977
L4944 28053
L4944 28148
L4925 28224
L4906 28262
L4887 28281
L4849 28300
L4811 28300
L4773 28281
L4754 28262
L4735 28224
L4716 28148
L4716 28053
L4735 27977
L4754 27939
L4773 27919
L4811 27900
" />
<path d="M5116 28262
L5135 28281
L5116 28300
L5097 28281
L5116 28262
L5116 28300
" />
<path d="M5497 27900
L5306 27900
L5287 28091
L5306 28072
L5344 28053
L5440 28053
L5478 28072
L5497 28091
L5516 28129
L5516 28224
L5497 28262
L5478 28281
L5440 28300
L5344 28300
L5306 28281
L5287 28262
" />
<path d="M5878 27900
L5687 27900
L5668 28091
L5687 28072
L5725 28053
L5820 28053
L5859 28072
L5878 28091
L5897 28129
L5897 28224
L5878 28262
L5859 28281
L5820 28300
L5725 28300
L5687 28281
L5668 28262
" />
<path d="M6049 27900
L6049 27977
" />
<path d="M6201 27900
L6201 27977
" />
<path d="M3459 27759
L8959 27759
" />
<path d="M3459 26760
L3459 28479
" />
<path d="M8959 26760
L8959 28479
" />
<path d="M8959 27759
L8515 27990
" />
<path d="M8959 27759
L8515 27529
" />
<path d="M3459 27759
L3902 27990
" />
<path d="M3459 27759
L3902 27529
" />
<path d="M1380 5907
L1380 5869
L1399 5831
L1418 5812
L1456 5793
L1532 5774
L1627 5774
L1703 5793
L1741 5812
L1760 5831
L1780 5869
L1780 5907
L1760 5945
L1741 5964
L1703 5983
L1627 6002
L1532 6002
L1456 5983
L1418 5964
L1399 5945
L1380 5907
" />
<path d="M1741 5602
L1760 5583
L1780 5602
L1760 5621
L1741 5602
L1780 5602
" />
<path d="M1380 5450
L1380 5202
L1532 5336
L1532 5279
L1551 5240
L1570 5221
L1608 5202
L1703 5202
L1741 5221
L1760 5240
L1780 5279
L1780 5393
L1760 5431
L1741 5450
" />
<path d="M1380 4955
L1380 4917
L1399 4879
L1418 4860
L1456 4840
L1532 4821
L1627 4821
L1703 4840
L1741 4860
L1760 4879
L1780 4917
L1780 4955
L1760 4993
L1741 5012
L1703 5031
L1627 5050
L1532 5050
L1456 5031
L1418 5012
L1399 4993
L1380 4955
" />
<path d="M1380 4669
L1456 4669
" />
<path d="M1380 4517
L1456 4517
" />
<path d="M1959 6760
L1959 3760
" />
<path d="M2959 6760
L1239 6760
" />
<path d="M2959 3760
L1239 3760
" />
<path d="M1959 3760
L2189 4203
" />
<path d="M1959 3760
L1728 4203
" />
<path d="M1959 6760
L2189 6316
" />
<path d="M1959 6760
L1728 6316
" />
<path d="M1380 3657
L1380 3619
L1399 3581
L1418 3562
L1456 3543
L1532 3524
L1627 3524
L1703 3543
L1741 3562
L1760 3581
L1780 3619
L1780 3657
L1760 3695
L1741 3714
L1703 3733
L1627 3752
L1532 3752
L1456 3733
L1418 3714
L1399 3695
L1380 3657
" />
<path d="M1741 3352
L1760 3333
L1780 3352
L1760 3371
L1741 3352
L1780 3352
" />
<path d="M1780 2952
L1780 3181
" />
<path d="M1780 3067
L1380 3067
L1437 3105
L1475 3143
L1494 3181
" />
<path d="M1380 2590
L1380 2781
L1570 2800
L1551 2781
L1532 2743
L1532 2648
L1551 2610
L1570 2590
L1608 2571
L1703 2571
L1741 2590
L1760 2610
L1780 2648
L1780 2743
L1760 2781
L1741 2800
" />
<path d="M1380 2419
L1456 2419
" />
<path d="M1380 2267
L1456 2267
" />
<path d="M1959 3760
L1959 2260
" />
<path d="M2959 3760
L1239 3760
" />
<path d="M2959 2260
L1239 2260
" />
<path d="M1959 2260
L2189 2703
" />
<path d="M1959 2260
L1728 2703
" />
<path d="M1959 3760
L2189 3316
" />
<path d="M1959 3760
L1728 3316
" />
<path d="M5811 180
L5849 180
L5887 200
L5906 219
L5925 257
L5944 333
L5944 428
L5925 504
L5906 542
L5887 561
L5849 580
L5811 580
L5773 561
L5754 542
L5735 504
L5716 428
L5716 333
L5735 257
L5754 219
L5773 200
L5811 180
" />
<path d="M6116 542
L6135 561
L6116 580
L6097 561
L6116 542
L6116 580
" />
<path d="M6268 180
L6516 180
L6382 333
L6440 333
L6478 352
L6497 371
L6516 409
L6516 504
L6497 542
L6478 561
L6440 580
L6325 580
L6287 561
L6268 542
" />
<path d="M6763 180
L6801 180
L6840 200
L6859 219
L6878 257
L6897 333
L6897 428
L6878 504
L6859 542
L6840 561
L6801 580
L6763 580
L6725 561
L6706 542
L6687 504
L6668 428
L6668 333
L6687 257
L6706 219
L6725 200
L6763 180
" />
<path d="M7049 180
L7049 257
" />
<path d="M7201 180
L7201 257
" />
<path d="M4959 760
L7959 760
" />
<path d="M4959 1760
L4959 40
" />
<path d="M7959 1760
L7959 40
" />
<path d="M7959 760
L7515 990
" />
<path d="M7959 760
L7515 529
" />
<path d="M4959 760
L5402 990
" />
<path d="M4959 760
L5402 529
" />
<path d="M3561 180
L3599 180
L3637 200
L3656 219
L3675 257
L3694 333
L3694 428
L3675 504
L3656 542
L3637 561
L3599 580
L3561 580
L3523 561
L3504 542
L3485 504
L3466 428
L3466 333
L3485 257
L3504 219
L3523 200
L3561 180
" />
<path d="M3866 542
L3885 561
L3866 580
L3847 561
L3866 542
L3866 580
" />
<path d="M4266 580
L4037 580
" />
<path d="M4151 580
L4151 180
L4113 238
L4075 276
L4037 295
" />
<path d="M4628 180
L4437 180
L4418 371
L4437 352
L4475 333
L4570 333
L4609 352
L4628 371
L4647 409
L4647 504
L4628 542
L4609 561
L4570 580
L4475 580
L4437 561
L4418 542
" />
<path d="M4799 180
L4799 257
" />
<path d="M4951 180
L4951 257
" />
<path d="M3459 760
L4959 760
" />
<path d="M3459 1760
L3459 40
" />
<path d="M4959 1760
L4959 40
" />
<path d="M4959 760
L4515 990
" />
<path d="M4959 760
L4515 529
" />
<path d="M3459 760
L3902 990
" />
<path d="M3459 760
L3902 529
" />
<path d="M29100 25407
L29100 25369
L29119 25331
L29138 25312
L29176 25293
L29252 25274
L29347 25274
L29423 25293
L29461 25312
L29480 25331
L29500 25369
L29500 25407
L29480 25445
L29461 25464
L29423 25483
L29347 25502
L29252 25502
L29176 25483
L29138 25464
L29119 25445
L29100 25407
" />
<path d="M29461 25102
L29480 25083
L29500 25102
L29480 25121
L29461 25102
L29500 25102
" />
<path d="M29100 24950
L29100 24702
L29252 24836
L29252 24779
L29271 24740
L29290 24721
L29328 24702
L29423 24702
L29461 24721
L29480 24740
L29500 24779
L29500 24893
L29480 24931
L29461 24950
" />
<path d="M29100 24455
L29100 24417
L29119 24379
L29138 24360
L29176 24340
L29252 24321
L29347 24321
L29423 24340
L29461 24360
L29480 24379
L29500 24417
L29500 24455
L29480 24493
L29461 24512
L29423 24531
L29347 24550
L29252 24550
L29176 24531
L29138 24512
L29119 24493
L29100 24455
" />
<path d="M29100 24169
L29176 24169
" />
<path d="M29100 24017
L29176 24017
" />
<path d="M28959 26260
L28959 23260
" />
<path d="M27959 26260
L29679 26260
" />
<path d="M27959 23260
L29679 23260
" />
<path d="M28959 23260
L29189 23703
" />
<path d="M28959 23260
L28728 23703
" />
<path d="M28959 26260
L29189 25816
" />
<path d="M28959 26260
L28728 25816
" />
<path d="M29100 4407
L29100 4369
L29119 4331
L29138 4312
L29176 4293
L29252 4274
L29347 4274
L29423 4293
L29461 4312
L29480 4331
L29500 4369
L29500 4407
L29480 4445
L29461 4464
L29423 4483
L29347 4502
L29252 4502
L29176 4483
L29138 4464
L29119 4445
L29100 4407
" />
<path d="M29461 4102
L29480 4083
L29500 4102
L29480 4121
L29461 4102
L29500 4102
" />
<path d="M29100 3950
L29100 3702
L29252 3836
L29252 3779
L29271 3740
L29290 3721
L29328 3702
L29423 3702
L29461 3721
L29480 3740
L29500 3779
L29500 3893
L29480 3931
L29461 3950
" />
<path d="M29100 3455
L29100 3417
L29119 3379
L29138 3360
L29176 3340
L29252 3321
L29347 3321
L29423 3340
L29461 3360
L29480 3379
L29500 3417
L29500 3455
L29480 3493
L29461 3512
L29423 3531
L29347 3550
L29252 3550
L29176 3531
L29138 3512
L29119 3493
L29100 3455
" />
<path d="M29100 3169
L29176 3169
" />
<path d="M29100 3017
L29176 3017
" />
<path d="M28959 5260
L28959 2260
" />
<path d="M27959 5260
L29679 5260
" />
<path d="M27959 2260
L29679 2260
" />
<path d="M28959 2260
L29189 2703
" />
<path d="M28959 2260
L28728 2703
" />
<path d="M28959 5260
L29189 4816
" />
<path d="M28959 5260
L28728 4816
" />
<path d="M29100 8157
L29100 8119
L29119 8081
L29138 8062
L29176 8043
L29252 8024
L29347 8024
L29423 8043
L29461 8062
L29480 8081
L29500 8119
L29500 8157
L29480 8195
L29461 8214
L29423 8233
L29347 8252
L29252 8252
L29176 8233
L29138 8214
L29119 8195
L29100 8157
" />
<path d="M29461 7852
L29480 7833
L29500 7852
L29480 7871
L29461 7852
L29500 7852
" />
<path d="M29233 7490
L29500 7490
" />
<path d="M29080 7586
L29366 7681
L29366 7433
" />
<path d="M29100 7090
L29100 7281
L29290 7300
L29271 7281
L29252 7243
L29252 7148
L29271 7110
L29290 7090
L29328 7071
L29423 7071
L29461 7090
L29480 7110
L29500 7148
L29500 7243
L29480 7281
L29461 7300
" />
<path d="M29100 6919
L29176 6919
" />
<path d="M29100 6767
L29176 6767
" />
<path d="M28959 9760
L28959 5260
" />
<path d="M18159 9760
L29679 9760
" />
<path d="M18159 5260
L29679 5260
" />
<path d="M28959 5260
L29189 5703
" />
<path d="M28959 5260
L28728 5703
" />
<path d="M28959 9760
L29189 9316
" />
<path d="M28959 9760
L28728 9316
" />
<path d="M29100 21657
L29100 21619
L29119 21581
L29138 21562
L29176 21543
L29252 21524
L29347 21524
L29423 21543
L29461 21562
L29480 21581
L29500 21619
L29500 21657
L29480 21695
L29461 21714
L29423 21733
L29347 21752
L29252 21752
L29176 21733
L29138 21714
L29119 21695
L29100 21657
" />
<path d="M29461 21352
L29480 21333
L29500 21352
L29480 21371
L29461 21352
L29500 21352
" />
<path d="M29233 20990
L29500 20990
" />
<path d="M29080 21086
L29366 21181
L29366 20933
" />
<path d="M29100 20590
L29100 20781
L29290 20800
L29271 20781
L29252 20743
L29252 20648
L29271 20610
L29290 20590
L29328 20571
L29423 20571
L29461 20590
L29480 20610
L29500 20648
L29500 20743
L29480 20781
L29461 20800
" />
<path d="M29100 20419
L29176 20419
" />
<path d="M29100 20267
L29176 20267
" />
<path d="M28959 23260
L28959 18760
" />
<path d="M18159 23260
L29679 23260
" />
<path d="M18159 18760
L29679 18760
" />
<path d="M28959 18760
L29189 19203
" />
<path d="M28959 18760
L28728 19203
" />
<path d="M28959 23260
L29189 22816
" />
<path d="M28959 23260
L28728 22816
" />
<path d="M29100 12657
L29100 12619
L29119 12581
L29138 12562
L29176 12543
L29252 12524
L29347 12524
L29423 12543
L29461 12562
L29480 12581
L29500 12619
L29500 12657
L29480 12695
L29461 12714
L29423 12733
L29347 12752
L29252 12752
L29176 12733
L29138 12714
L29119 12695
L29100 12657
" />
<path d="M29461 12352
L29480 12333
L29500 12352
L29480 12371
L29461 12352
L29500 12352
" />
<path d="M29233 11990
L29500 11990
" />
<path d="M29080 12086
L29366 12181
L29366 11933
" />
<path d="M29100 11590
L29100 11781
L29290 11800
L29271 11781
L29252 11743
L29252 11648
L29271 11610
L29290 11590
L29328 11571
L29423 11571
L29461 11590
L29480 11610
L29500 11648
L29500 11743
L29480 11781
L29461 11800
" />
<path d="M29100 11419
L29176 11419
" />
<path d="M29100 11267
L29176 11267
" />
<path d="M28959 14260
L28959 9760
" />
<path d="M19959 14260
L29679 14260
" />
<path d="M19959 9760
L29679 9760
" />
<path d="M28959 9760
L29189 10203
" />
<path d="M28959 9760
L28728 10203
" />
<path d="M28959 14260
L29189 13816
" />
<path d="M28959 14260
L28728 13816
" />
<path d="M29100 17157
L29100 17119
L29119 17081
L29138 17062
L29176 17043
L29252 17024
L29347 17024
L29423 17043
L29461 17062
L29480 17081
L29500 17119
L29500 17157
L29480 17195
L29461 17214
L29423 17233
L29347 17252
L29252 17252
L29176 17233
L29138 17214
L29119 17195
L29100 17157
" />
<path d="M29461 16852
L29480 16833
L29500 16852
L29480 16871
L29461 16852
L29500 16852
" />
<path d="M29233 16490
L29500 16490
" />
<path d="M29080 16586
L29366 16681
L29366 16433
" />
<path d="M29100 16090
L29100 16281
L29290 16300
L29271 16281
L29252 16243
L29252 16148
L29271 16110
L29290 16090
L29328 16071
L29423 16071
L29461 16090
L29480 16110
L29500 16148
L29500 16243
L29480 16281
L29461 16300
" />
<path d="M29100 15919
L29176 15919
" />
<path d="M29100 15767
L29176 15767
" />
<path d="M28959 18760
L28959 14260
" />
<path d="M10959 18760
L29679 18760
" />
<path d="M10959 14260
L29679 14260
" />
<path d="M28959 14260
L29189 14703
" />
<path d="M28959 14260
L28728 14703
" />
<path d="M28959 18760
L29189 18316
" />
<path d="M28959 18760
L28728 18316
" />
<path d="M33138 15002
L33119 14983
L33100 14945
L33100 14850
L33119 14812
L33138 14793
L33176 14774
L33214 14774
L33271 14793
L33500 15021
L33500 14774
" />
<path d="M33461 14602
L33480 14583
L33500 14602
L33480 14621
L33461 14602
L33500 14602
" />
<path d="M33100 14221
L33100 14412
L33290 14431
L33271 14412
L33252 14374
L33252 14279
L33271 14240
L33290 14221
L33328 14202
L33423 14202
L33461 14221
L33480 14240
L33500 14279
L33500 14374
L33480 14412
L33461 14431
" />
<path d="M33100 13955
L33100 13917
L33119 13879
L33138 13860
L33176 13840
L33252 13821
L33347 13821
L33423 13840
L33461 13860
L33480 13879
L33500 13917
L33500 13955
L33480 13993
L33461 14012
L33423 14031
L33347 14050
L33252 14050
L33176 14031
L33138 14012
L33119 13993
L33100 13955
" />
<path d="M33100 13669
L33176 13669
" />
<path d="M33100 13517
L33176 13517
" />
<path d="M32959 26760
L32959 1760
" />
<path d="M27959 26760
L33679 26760
" />
<path d="M27959 1760
L33679 1760
" />
<path d="M32959 1760
L33189 2203
" />
<path d="M32959 1760
L32728 2203
" />
<path d="M32959 26760
L33189 26316
" />
<path d="M32959 26760
L32728 26316
" />
<path d="M31138 15002
L31119 14983
L31100 14945
L31100 14850
L31119 14812
L31138 14793
L31176 14774
L31214 14774
L31271 14793
L31500 15021
L31500 14774
" />
<path d="M31461 14602
L31480 14583
L31500 14602
L31480 14621
L31461 14602
L31500 14602
" />
<path d="M31233 14240
L31500 14240
" />
<path d="M31080 14336
L31366 14431
L31366 14183
" />
<path d="M31100 13955
L31100 13917
L31119 13879
L31138 13860
L31176 13840
L31252 13821
L31347 13821
L31423 13840
L31461 13860
L31480 13879
L31500 13917
L31500 13955
L31480 13993
L31461 14012
L31423 14031
L31347 14050
L31252 14050
L31176 14031
L31138 14012
L31119 13993
L31100 13955
" />
<path d="M31100 13669
L31176 13669
" />
<path d="M31100 13517
L31176 13517
" />
<path d="M30959 26260
L30959 2260
" />
<path d="M27959 26260
L31679 26260
" />
<path d="M27959 2260
L31679 2260
" />
<path d="M30959 2260
L31189 2703
" />
<path d="M30959 2260
L30728 2703
" />
<path d="M30959 26260
L31189 25816
" />
<path d="M30959 26260
L30728 25816
" />
<path d="M24654 29900
L24692 29900
L24730 29920
L24749 29939
L24768 29977
L24787 30053
L24787 30148
L24768 30224
L24749 30262
L24730 30281
L24692 30300
L24654 30300
L24616 30281
L24597 30262
L24578 30224
L24559 30148
L24559 30053
L24578 29977
L24597 29939
L24616 29920
L24654 29900
" />
<path d="M24959 30262
L24978 30281
L24959 30300
L24940 30281
L24959 30262
L24959 30300
" />
<path d="M25111 29900
L25359 29900
L25225 30053
L25282 30053
L25320 30072
L25340 30091
L25359 30129
L25359 30224
L25340 30262
L25320 30281
L25282 30300
L25168 30300
L25130 30281
L25111 30262
" />
<path d="M25606 29900
L25644 29900
L25682 29920
L25701 29939
L25720 29977
L25740 30053
L25740 30148
L25720 30224
L25701 30262
L25682 30281
L25644 30300
L25606 30300
L25568 30281
L25549 30262
L25530 30224
L25511 30148
L25511 30053
L25530 29977
L25549 29939
L25568 29920
L25606 29900
" />
<path d="M25987 29900
L26025 29900
L26063 29920
L26082 29939
L26101 29977
L26120 30053
L26120 30148
L26101 30224
L26082 30262
L26063 30281
L26025 30300
L25987 30300
L25949 30281
L25930 30262
L25911 30224
L25892 30148
L25892 30053
L25911 29977
L25930 29939
L25949 29920
L25987 29900
" />
<path d="M26368 29900
L26406 29900
L26444 29920
L26463 29939
L26482 29977
L26501 30053
L26501 30148
L26482 30224
L26463 30262
L26444 30281
L26406 30300
L26368 30300
L26330 30281
L26311 30262
L26292 30224
L26273 30148
L26273 30053
L26292 29977
L26311 29939
L26330 29920
L26368 29900
" />
<path d="M26978 30300
L26978 30034
" />
<path d="M26978 29900
L26959 29920
L26978 29939
L26997 29920
L26978 29900
L26978 29939
" />
<path d="M27168 30034
L27168 30300
" />
<path d="M27168 30072
L27187 30053
L27225 30034
L27282 30034
L27320 30053
L27340 30091
L27340 30300
" />
<path d="M27459 29760
L24459 29760
" />
<path d="M27459 26760
L27459 30480
" />
<path d="M24459 26760
L24459 30480
" />
<path d="M24459 29760
L24902 29529
" />
<path d="M24459 29760
L24902 29990
" />
<path d="M27459 29760
L27015 29529
" />
<path d="M27459 29760
L27015 29990
" />
<path d="M3654 29900
L3692 29900
L3730 29920
L3749 29939
L3768 29977
L3787 30053
L3787 30148
L3768 30224
L3749 30262
L3730 30281
L3692 30300
L3654 30300
L3616 30281
L3597 30262
L3578 30224
L3559 30148
L3559 30053
L3578 29977
L3597 29939
L3616 29920
L3654 29900
" />
<path d="M3959 30262
L3978 30281
L3959 30300
L3940 30281
L3959 30262
L3959 30300
" />
<path d="M4111 29900
L4359 29900
L4225 30053
L4282 30053
L4320 30072
L4340 30091
L4359 30129
L4359 30224
L4340 30262
L4320 30281
L4282 30300
L4168 30300
L4130 30281
L4111 30262
" />
<path d="M4606 29900
L4644 29900
L4682 29920
L4701 29939
L4720 29977
L4740 30053
L4740 30148
L4720 30224
L4701 30262
L4682 30281
L4644 30300
L4606 30300
L4568 30281
L4549 30262
L4530 30224
L4511 30148
L4511 30053
L4530 29977
L4549 29939
L4568 29920
L4606 29900
" />
<path d="M4987 29900
L5025 29900
L5063 29920
L5082 29939
L5101 29977
L5120 30053
L5120 30148
L5101 30224
L5082 30262
L5063 30281
L5025 30300
L4987 30300
L4949 30281
L4930 30262
L4911 30224
L4892 30148
L4892 30053
L4911 29977
L4930 29939
L4949 29920
L4987 29900
" />
<path d="M5368 29900
L5406 29900
L5444 29920
L5463 29939
L5482 29977
L5501 30053
L5501 30148
L5482 30224
L5463 30262
L5444 30281
L5406 30300
L5368 30300
L5330 30281
L5311 30262
L5292 30224
L5273 30148
L5273 30053
L5292 29977
L5311 29939
L5330 29920
L5368 29900
" />
<path d="M5978 30300
L5978 30034
" />
<path d="M5978 29900
L5959 29920
L5978 29939
L5997 29920
L5978 29900
L5978 29939
" />
<path d="M6168 30034
L6168 30300
" />
<path d="M6168 30072
L6187 30053
L6225 30034
L6282 30034
L6320 30053
L6340 30091
L6340 30300
" />
<path d="M3459 29760
L6459 29760
" />
<path d="M3459 26760
L3459 30480
" />
<path d="M6459 26760
L6459 30480
" />
<path d="M6459 29760
L6015 29990
" />
<path d="M6459 29760
L6015 29529
" />
<path d="M3459 29760
L3902 29990
" />
<path d="M3459 29760
L3902 29529
" />
<path d="M20904 29900
L20942 29900
L20980 29920
L20999 29939
L21018 29977
L21037 30053
L21037 30148
L21018 30224
L20999 30262
L20980 30281
L20942 30300
L20904 30300
L20866 30281
L20847 30262
L20828 30224
L20809 30148
L20809 30053
L20828 29977
L20847 29939
L20866 29920
L20904 29900
" />
<path d="M21209 30262
L21228 30281
L21209 30300
L21190 30281
L21209 30262
L21209 30300
" />
<path d="M21570 30034
L21570 30300
" />
<path d="M21475 29881
L21380 30167
L21628 30167
" />
<path d="M21970 29900
L21780 29900
L21761 30091
L21780 30072
L21818 30053
L21913 30053
L21951 30072
L21970 30091
L21990 30129
L21990 30224
L21970 30262
L21951 30281
L21913 30300
L21818 30300
L21780 30281
L21761 30262
" />
<path d="M22237 29900
L22275 29900
L22313 29920
L22332 29939
L22351 29977
L22370 30053
L22370 30148
L22351 30224
L22332 30262
L22313 30281
L22275 30300
L22237 30300
L22199 30281
L22180 30262
L22161 30224
L22142 30148
L22142 30053
L22161 29977
L22180 29939
L22199 29920
L22237 29900
" />
<path d="M22618 29900
L22656 29900
L22694 29920
L22713 29939
L22732 29977
L22751 30053
L22751 30148
L22732 30224
L22713 30262
L22694 30281
L22656 30300
L22618 30300
L22580 30281
L22561 30262
L22542 30224
L22523 30148
L22523 30053
L22542 29977
L22561 29939
L22580 29920
L22618 29900
" />
<path d="M23228 30300
L23228 30034
" />
<path d="M23228 29900
L23209 29920
L23228 29939
L23247 29920
L23228 29900
L23228 29939
" />
<path d="M23418 30034
L23418 30300
" />
<path d="M23418 30072
L23437 30053
L23475 30034
L23532 30034
L23570 30053
L23590 30091
L23590 30300
" />
<path d="M24459 29760
L19959 29760
" />
<path d="M24459 16960
L24459 30480
" />
<path d="M19959 16960
L19959 30480
" />
<path d="M19959 29760
L20402 29529
" />
<path d="M19959 29760
L20402 29990
" />
<path d="M24459 29760
L24015 29529
" />
<path d="M24459 29760
L24015 29990
" />
<path d="M7404 29900
L7442 29900
L7480 29920
L7499 29939
L7518 29977
L7537 30053
L7537 30148
L7518 30224
L7499 30262
L7480 30281
L7442 30300
L7404 30300
L7366 30281
L7347 30262
L7328 30224
L7309 30148
L7309 30053
L7328 29977
L7347 29939
L7366 29920
L7404 29900
" />
<path d="M7709 30262
L7728 30281
L7709 30300
L7690 30281
L7709 30262
L7709 30300
" />
<path d="M8070 30034
L8070 30300
" />
<path d="M7975 29881
L7880 30167
L8128 30167
" />
<path d="M8470 29900
L8280 29900
L8261 30091
L8280 30072
L8318 30053
L8413 30053
L8451 30072
L8470 30091
L8490 30129
L8490 30224
L8470 30262
L8451 30281
L8413 30300
L8318 30300
L8280 30281
L8261 30262
" />
<path d="M8737 29900
L8775 29900
L8813 29920
L8832 29939
L8851 29977
L8870 30053
L8870 30148
L8851 30224
L8832 30262
L8813 30281
L8775 30300
L8737 30300
L8699 30281
L8680 30262
L8661 30224
L8642 30148
L8642 30053
L8661 29977
L8680 29939
L8699 29920
L8737 29900
" />
<path d="M9118 29900
L9156 29900
L9194 29920
L9213 29939
L9232 29977
L9251 30053
L9251 30148
L9232 30224
L9213 30262
L9194 30281
L9156 30300
L9118 30300
L9080 30281
L9061 30262
L9042 30224
L9023 30148
L9023 30053
L9042 29977
L9061 29939
L9080 29920
L9118 29900
" />
<path d="M9728 30300
L9728 30034
" />
<path d="M9728 29900
L9709 29920
L9728 29939
L9747 29920
L9728 29900
L9728 29939
" />
<path d="M9918 30034
L9918 30300
" />
<path d="M9918 30072
L9937 30053
L9975 30034
L10032 30034
L10070 30053
L10090 30091
L10090 30300
" />
<path d="M6459 29760
L10959 29760
" />
<path d="M6459 16960
L6459 30480
" />
<path d="M10959 16960
L10959 30480
" />
<path d="M10959 29760
L10515 29990
" />
<path d="M10959 29760
L10515 29529
" />
<path d="M6459 29760
L6902 29990
" />
<path d="M6459 29760
L6902 29529
" />
<path d="M16404 29900
L16442 29900
L16480 29920
L16499 29939
L16518 29977
L16537 30053
L16537 30148
L16518 30224
L16499 30262
L16480 30281
L16442 30300
L16404 30300
L16366 30281
L16347 30262
L16328 30224
L16309 30148
L16309 30053
L16328 29977
L16347 29939
L16366 29920
L16404 29900
" />
<path d="M16709 30262
L16728 30281
L16709 30300
L16690 30281
L16709 30262
L16709 30300
" />
<path d="M17070 30034
L17070 30300
" />
<path d="M16975 29881
L16880 30167
L17128 30167
" />
<path d="M17470 29900
L17280 29900
L17261 30091
L17280 30072
L17318 30053
L17413 30053
L17451 30072
L17470 30091
L17490 30129
L17490 30224
L17470 30262
L17451 30281
L17413 30300
L17318 30300
L17280 30281
L17261 30262
" />
<path d="M17737 29900
L17775 29900
L17813 29920
L17832 29939
L17851 29977
L17870 30053
L17870 30148
L17851 30224
L17832 30262
L17813 30281
L17775 30300
L17737 30300
L17699 30281
L17680 30262
L17661 30224
L17642 30148
L17642 30053
L17661 29977
L17680 29939
L17699 29920
L17737 29900
" />
<path d="M18118 29900
L18156 29900
L18194 29920
L18213 29939
L18232 29977
L18251 30053
L18251 30148
L18232 30224
L18213 30262
L18194 30281
L18156 30300
L18118 30300
L18080 30281
L18061 30262
L18042 30224
L18023 30148
L18023 30053
L18042 29977
L18061 29939
L18080 29920
L18118 29900
" />
<path d="M18728 30300
L18728 30034
" />
<path d="M18728 29900
L18709 29920
L18728 29939
L18747 29920
L18728 29900
L18728 29939
" />
<path d="M18918 30034
L18918 30300
" />
<path d="M18918 30072
L18937 30053
L18975 30034
L19032 30034
L19070 30053
L19090 30091
L19090 30300
" />
<path d="M19959 29760
L15459 29760
" />
<path d="M19959 9760
L19959 30480
" />
<path d="M15459 9760
L15459 30480
" />
<path d="M15459 29760
L15902 29529
" />
<path d="M15459 29760
L15902 29990
" />
<path d="M19959 29760
L19515 29529
" />
<path d="M19959 29760
L19515 29990
" />
<path d="M11904 29900
L11942 29900
L11980 29920
L11999 29939
L12018 29977
L12037 30053
L12037 30148
L12018 30224
L11999 30262
L11980 30281
L11942 30300
L11904 30300
L11866 30281
L11847 30262
L11828 30224
L11809 30148
L11809 30053
L11828 29977
L11847 29939
L11866 29920
L11904 29900
" />
<path d="M12209 30262
L12228 30281
L12209 30300
L12190 30281
L12209 30262
L12209 30300
" />
<path d="M12570 30034
L12570 30300
" />
<path d="M12475 29881
L12380 30167
L12628 30167
" />
<path d="M12970 29900
L12780 29900
L12761 30091
L12780 30072
L12818 30053
L12913 30053
L12951 30072
L12970 30091
L12990 30129
L12990 30224
L12970 30262
L12951 30281
L12913 30300
L12818 30300
L12780 30281
L12761 30262
" />
<path d="M13237 29900
L13275 29900
L13313 29920
L13332 29939
L13351 29977
L13370 30053
L13370 30148
L13351 30224
L13332 30262
L13313 30281
L13275 30300
L13237 30300
L13199 30281
L13180 30262
L13161 30224
L13142 30148
L13142 30053
L13161 29977
L13180 29939
L13199 29920
L13237 29900
" />
<path d="M13618 29900
L13656 29900
L13694 29920
L13713 29939
L13732 29977
L13751 30053
L13751 30148
L13732 30224
L13713 30262
L13694 30281
L13656 30300
L13618 30300
L13580 30281
L13561 30262
L13542 30224
L13523 30148
L13523 30053
L13542 29977
L13561 29939
L13580 29920
L13618 29900
" />
<path d="M14228 30300
L14228 30034
" />
<path d="M14228 29900
L14209 29920
L14228 29939
L14247 29920
L14228 29900
L14228 29939
" />
<path d="M14418 30034
L14418 30300
" />
<path d="M14418 30072
L14437 30053
L14475 30034
L14532 30034
L14570 30053
L14590 30091
L14590 30300
" />
<path d="M10959 29760
L15459 29760
" />
<path d="M10959 18760
L10959 30480
" />
<path d="M15459 18760
L15459 30480
" />
<path d="M15459 29760
L15015 29990
" />
<path d="M15459 29760
L15015 29529
" />
<path d="M10959 29760
L11402 29990
" />
<path d="M10959 29760
L11402 29529
" />
<path d="M14059 33939
L14078 33920
L14116 33900
L14211 33900
L14249 33920
L14268 33939
L14287 33977
L14287 34015
L14268 34072
L14040 34300
L14287 34300
" />
<path d="M14459 34262
L14478 34281
L14459 34300
L14440 34281
L14459 34262
L14459 34300
" />
<path d="M14840 33900
L14649 33900
L14630 34091
L14649 34072
L14687 34053
L14782 34053
L14820 34072
L14840 34091
L14859 34129
L14859 34224
L14840 34262
L14820 34281
L14782 34300
L14687 34300
L14649 34281
L14630 34262
" />
<path d="M15106 33900
L15144 33900
L15182 33920
L15201 33939
L15220 33977
L15240 34053
L15240 34148
L15220 34224
L15201 34262
L15182 34281
L15144 34300
L15106 34300
L15068 34281
L15049 34262
L15030 34224
L15011 34148
L15011 34053
L15030 33977
L15049 33939
L15068 33920
L15106 33900
" />
<path d="M15487 33900
L15525 33900
L15563 33920
L15582 33939
L15601 33977
L15620 34053
L15620 34148
L15601 34224
L15582 34262
L15563 34281
L15525 34300
L15487 34300
L15449 34281
L15430 34262
L15411 34224
L15392 34148
L15392 34053
L15411 33977
L15430 33939
L15449 33920
L15487 33900
" />
<path d="M15868 33900
L15906 33900
L15944 33920
L15963 33939
L15982 33977
L16001 34053
L16001 34148
L15982 34224
L15963 34262
L15944 34281
L15906 34300
L15868 34300
L15830 34281
L15811 34262
L15792 34224
L15773 34148
L15773 34053
L15792 33977
L15811 33939
L15830 33920
L15868 33900
" />
<path d="M16478 34300
L16478 34034
" />
<path d="M16478 33900
L16459 33920
L16478 33939
L16497 33920
L16478 33900
L16478 33939
" />
<path d="M16668 34034
L16668 34300
" />
<path d="M16668 34072
L16687 34053
L16725 34034
L16782 34034
L16820 34053
L16840 34091
L16840 34300
" />
<path d="M2959 33760
L27959 33760
" />
<path d="M2959 20960
L2959 34480
" />
<path d="M27959 20960
L27959 34480
" />
<path d="M27959 33760
L27515 33990
" />
<path d="M27959 33760
L27515 33529
" />
<path d="M2959 33760
L3402 33990
" />
<path d="M2959 33760
L3402 33529
" />
<path d="M14059 31939
L14078 31920
L14116 31900
L14211 31900
L14249 31920
L14268 31939
L14287 31977
L14287 32015
L14268 32072
L14040 32300
L14287 32300
" />
<path d="M14459 32262
L14478 32281
L14459 32300
L14440 32281
L14459 32262
L14459 32300
" />
<path d="M14820 32034
L14820 32300
" />
<path d="M14725 31881
L14630 32167
L14878 32167
" />
<path d="M15106 31900
L15144 31900
L15182 31920
L15201 31939
L15220 31977
L15240 32053
L15240 32148
L15220 32224
L15201 32262
L15182 32281
L15144 32300
L15106 32300
L15068 32281
L15049 32262
L15030 32224
L15011 32148
L15011 32053
L15030 31977
L15049 31939
L15068 31920
L15106 31900
" />
<path d="M15487 31900
L15525 31900
L15563 31920
L15582 31939
L15601 31977
L15620 32053
L15620 32148
L15601 32224
L15582 32262
L15563 32281
L15525 32300
L15487 32300
L15449 32281
L15430 32262
L15411 32224
L15392 32148
L15392 32053
L15411 31977
L15430 31939
L15449 31920
L15487 31900
" />
<path d="M15868 31900
L15906 31900
L15944 31920
L15963 31939
L15982 31977
L16001 32053
L16001 32148
L15982 32224
L15963 32262
L15944 32281
L15906 32300
L15868 32300
L15830 32281
L15811 32262
L15792 32224
L15773 32148
L15773 32053
L15792 31977
L15811 31939
L15830 31920
L15868 31900
" />
<path d="M16478 32300
L16478 32034
" />
<path d="M16478 31900
L16459 31920
L16478 31939
L16497 31920
L16478 31900
L16478 31939
" />
<path d="M16668 32034
L16668 32300
" />
<path d="M16668 32072
L16687 32053
L16725 32034
L16782 32034
L16820 32053
L16840 32091
L16840 32300
" />
<path d="M3459 31760
L27459 31760
" />
<path d="M3459 26760
L3459 32480
" />
<path d="M27459 26760
L27459 32480
" />
<path d="M27459 31760
L27015 31990
" />
<path d="M27459 31760
L27015 31529
" />
<path d="M3459 31760
L3902 31990
" />
<path d="M3459 31760
L3902 31529
" />
</g>
<g style="fill:#848484; fill-opacity:0.0; 
stroke:#848484; stroke-width:100; stroke-opacity:1; 
stroke-linecap:round; stroke-linejoin:round;">
<path d="M7959 3160
L7959 4360
" />
<circle cx="4959.05" cy="6760" r="350" /> 
<path d="M4359 6760
L5559 6760
" />
<path d="M4959 6160
L4959 7360
" />
<path d="M4959 3160
L4959 4360
" />
<path d="M4359 3760
L5559 3760
" />
<circle cx="4959.05" cy="3760" r="350" /> 
<path d="M7359 3760
L8559 3760
" />
<circle cx="7959.05" cy="3760" r="350" /> 
</g>
<g style="fill:#000000; fill-opacity:0.0; 
stroke:#000000; stroke-width:100; stroke-opacity:1; 
stroke-linecap:round; stroke-linejoin:round;">
</g>
<g style="fill:#C2C200; fill-opacity:0.0; 
stroke:#C2C200; stroke-width:100; stroke-opacity:1; 
stroke-linecap:round; stroke-linejoin:round;">
<path d="M3459 21010
L3459 26260
" />
<path d="M3459 9010
L3459 19510
" />
<path d="M3459 2260
L3459 7510
" />
<path d="M8709 2260
L3459 2260
" />
<path d="M20709 2260
L10209 2260
" />
<path d="M27459 2260
L22209 2260
" />
<path d="M27459 7510
L27459 2260
" />
<path d="M27459 19510
L27459 9010
" />
<path d="M27459 26260
L27459 21010
" />
<path d="M3209.05 19760 A250 250 0.0 0 0 3459.05 19510 " />
<path d="M3459.05 21010 A250 250 0.0 0 0 3209.05 20760 " />
<path d="M2959.05 20510 A250 250 0.0 0 0 3209.05 20760 " />
<path d="M3209.05 19760 A250 250 0.0 0 0 2959.05 20010 " />
<path d="M2959 20010
L2959 20510
" />
<path d="M3459.05 7510 A250 250 0.0 0 0 3709.05 7760 " />
<path d="M3709.05 8760 A250 250 0.0 0 0 3459.05 9010 " />
<path d="M3709.05 8760 A250 250 0.0 0 0 3959.05 8510 " />
<path d="M3959.05 8010 A250 250 0.0 0 0 3709.05 7760 " />
<path d="M3959 8010
L3959 8510
" />
<path d="M9959.05 2010 A250 250 0.0 0 0 10209 2260 " />
<path d="M8709.05 2260 A250 250 0.0 0 0 8959.05 2010 " />
<path d="M9209.05 1760 A250 250 0.0 0 0 8959.05 2010 " />
<path d="M9959.05 2010 A250 250 0.0 0 0 9709.05 1760 " />
<path d="M9209 1760
L9709 1760
" />
<path d="M22209 2260 A250 250 0.0 0 0 21959 2510 " />
<path d="M20959 2510 A250 250 0.0 0 0 20709 2260 " />
<path d="M21709 2760 A250 250 0.0 0 0 21959 2510 " />
<path d="M20959 2510 A250 250 0.0 0 0 21209 2760 " />
<path d="M21209 2760
L21709 2760
" />
<path d="M27709 8760 A250 250 0.0 0 0 27459 9010 " />
<path d="M27459 7510 A250 250 0.0 0 0 27709 7760 " />
<path d="M27959 8010 A250 250 0.0 0 0 27709 7760 " />
<path d="M27709 8760 A250 250 0.0 0 0 27959 8510 " />
<path d="M27959 8010
L27959 8510
" />
<path d="M27209 19760 A250 250 0.0 0 0 27459 19510 " />
<path d="M27459 21010 A250 250 0.0 0 0 27209 20760 " />
<path d="M26959 20510 A250 250 0.0 0 0 27209 20760 " />
<path d="M27209 19760 A250 250 0.0 0 0 26959 20010 " />
<path d="M26959 20010
L26959 20510
" />
<path d="M22209 26260
L27459 26260
" />
<path d="M20709 26260
L10209 26260
" />
<path d="M22209 26260 A250 250 0.0 0 0 21959 26510 " />
<path d="M20959 26510 A250 250 0.0 0 0 20709 26260 " />
<path d="M20959 26510 A250 250 0.0 0 0 21209 26760 " />
<path d="M21709 26760 A250 250 0.0 0 0 21959 26510 " />
<path d="M21209 26760
L21709 26760
" />
<path d="M8709 26260
L3459 26260
" />
<path d="M9209 25760
L9709 25760
" />
<path d="M9959.05 26010 A250 250 0.0 0 0 9709.05 25760 " />
<path d="M9209.05 25760 A250 250 0.0 0 0 8959.05 26010 " />
<path d="M9959.05 26010 A250 250 0.0 0 0 10209 26260 " />
<path d="M8709.05 26260 A250 250 0.0 0 0 8959.05 26010 " />
</g> 
</svg>
