M48
INCH,TZ
T1C0.020
T2C0.120
T3C0.020
%
G90
G05
T1
X024000Y022000
X024000Y021500
X024000Y021000
X024000Y020500
X024000Y020000
X024000Y019500
X024000Y019000
X024000Y018500
X024000Y018000
X024000Y004000
X024000Y003500
X024000Y003000
X024000Y002500
X024000Y002000
X024000Y001500
X024000Y001000
X024000Y000500
X024000Y000000
X048000Y022000
X048000Y021500
X048000Y021000
X048000Y020500
X048000Y020000
X048000Y019500
X048000Y019000
X048000Y018500
X048000Y018000
X048000Y004000
X048000Y003500
X048000Y003000
X048000Y002500
X048000Y002000
X048000Y001500
X048000Y001000
X048000Y000500
X048000Y000000
X072000Y022000
X072000Y021500
X072000Y021000
X072000Y020500
X072000Y020000
X072000Y019500
X072000Y019000
X072000Y018500
X072000Y018000
X072000Y016000
X072000Y015500
X072000Y015000
X072000Y014500
X072000Y014000
X072000Y013500
X072000Y013000
X072000Y012500
X072000Y012000
X072000Y010000
X072000Y009500
X072000Y009000
X072000Y008500
X072000Y008000
X072000Y007500
X072000Y007000
X072000Y006500
X072000Y006000
X072000Y004000
X072000Y003500
X072000Y003000
X072000Y002500
X072000Y002000
X072000Y001500
X072000Y001000
X072000Y000500
X072000Y000000
T2
X003000Y020000
X003000Y014000
X003000Y008000
X003000Y002000
X009000Y020000
X009000Y014000
X009000Y008000
X009000Y002000
X015000Y020000
X015000Y014000
X015000Y008000
X015000Y002000
X021000Y020000
X021000Y014000
X021000Y008000
X021000Y002000
X027000Y020000
X027000Y014000
X027000Y008000
X027000Y002000
X033000Y020000
X033000Y014000
X033000Y008000
X033000Y002000
X039000Y020000
X039000Y014000
X039000Y008000
X039000Y002000
X045000Y020000
X045000Y014000
X045000Y008000
X045000Y002000
X051000Y020000
X051000Y014000
X051000Y008000
X051000Y002000
X057000Y020000
X057000Y014000
X057000Y008000
X057000Y002000
X063000Y020000
X063000Y014000
X063000Y008000
X063000Y002000
X069000Y020000
X069000Y014000
X069000Y008000
X069000Y002000
X075000Y020000
X075000Y014000
X075000Y008000
X075000Y002000
T3
X002685Y017866
X002685Y017000
X002685Y016134
X002685Y011866
X002685Y011000
X002685Y010134
X002685Y005866
X002685Y005000
X002685Y004134
X003000Y017866
X003000Y017000
X003000Y016134
X003000Y011866
X003000Y011000
X003000Y010134
X003000Y005866
X003000Y005000
X003000Y004134
X003315Y017866
X003315Y017000
X003315Y016134
X003315Y011866
X003315Y011000
X003315Y010134
X003315Y005866
X003315Y005000
X003315Y004134
X011567Y014315
X011567Y014000
X011567Y013685
X011567Y008315
X011567Y008000
X011567Y007685
X012433Y014315
X012433Y014000
X012433Y013685
X012433Y008315
X012433Y008000
X012433Y007685
X026685Y017866
X026685Y017000
X026685Y016134
X026685Y011866
X026685Y011000
X026685Y010134
X026685Y005866
X026685Y005000
X026685Y004134
X027000Y017866
X027000Y017000
X027000Y016134
X027000Y011866
X027000Y011000
X027000Y010134
X027000Y005866
X027000Y005000
X027000Y004134
X027315Y017866
X027315Y017000
X027315Y016134
X027315Y011866
X027315Y011000
X027315Y010134
X027315Y005866
X027315Y005000
X027315Y004134
X035567Y014315
X035567Y014000
X035567Y013685
X035567Y008315
X035567Y008000
X035567Y007685
X036433Y014315
X036433Y014000
X036433Y013685
X036433Y008315
X036433Y008000
X036433Y007685
X050685Y017866
X050685Y017000
X050685Y016134
X050685Y011866
X050685Y011000
X050685Y010134
X050685Y005866
X050685Y005000
X050685Y004134
X051000Y017866
X051000Y017000
X051000Y016134
X051000Y011866
X051000Y011000
X051000Y010134
X051000Y005866
X051000Y005000
X051000Y004134
X051315Y017866
X051315Y017000
X051315Y016134
X051315Y011866
X051315Y011000
X051315Y010134
X051315Y005866
X051315Y005000
X051315Y004134
X059567Y014315
X059567Y014000
X059567Y013685
X059567Y008315
X059567Y008000
X059567Y007685
X060433Y014315
X060433Y014000
X060433Y013685
X060433Y008315
X060433Y008000
X060433Y007685
X074685Y017866
X074685Y017000
X074685Y016134
X074685Y011866
X074685Y011000
X074685Y010134
X074685Y005866
X074685Y005000
X074685Y004134
X075000Y017866
X075000Y017000
X075000Y016134
X075000Y011866
X075000Y011000
X075000Y010134
X075000Y005866
X075000Y005000
X075000Y004134
X075315Y017866
X075315Y017000
X075315Y016134
X075315Y011866
X075315Y011000
X075315Y010134
X075315Y005866
X075315Y005000
X075315Y004134
T0
M30
