%TF.GenerationSoftware,KiCad,Pcbnew,4.0.6-e0-6349~53~ubuntu16.04.1*%
%TF.CreationDate,2017-04-03T22:53:03+05:30*%
%TF.ProjectId,ultim_bus,756C74696D5F6275732E6B696361645F,rev?*%
%TF.FileFunction,Soldermask,Top*%
%FSLAX46Y46*%
G04 Gerber Fmt 4.6, Leading zero omitted, Abs format (unit mm)*
G04 Created by KiCad (PCBNEW 4.0.6-e0-6349~53~ubuntu16.04.1) date Mon Apr  3 22:53:03 2017*
%MOMM*%
%LPD*%
G01*
G04 APERTURE LIST*
%ADD10C,0.101600*%
%ADD11C,0.900000*%
%ADD12C,6.496000*%
%ADD13R,6.496000X6.496000*%
%ADD14C,6.000000*%
G04 APERTURE END LIST*
D10*
D11*
X118280000Y-60960000D03*
X120480000Y-60960000D03*
X118280000Y-60160000D03*
X118280000Y-61760000D03*
X120480000Y-61760000D03*
X120480000Y-60160000D03*
D12*
X96520000Y-60960000D03*
D11*
X179240000Y-60960000D03*
X181440000Y-60960000D03*
X179240000Y-60160000D03*
X179240000Y-61760000D03*
X181440000Y-61760000D03*
X181440000Y-60160000D03*
D12*
X203200000Y-60960000D03*
X218440000Y-60960000D03*
X157480000Y-60960000D03*
X142240000Y-60960000D03*
X81280000Y-60960000D03*
X35560000Y-60960000D03*
D11*
X57320000Y-60960000D03*
X59520000Y-60960000D03*
X57320000Y-60160000D03*
X57320000Y-61760000D03*
X59520000Y-61760000D03*
X59520000Y-60160000D03*
X179240000Y-45720000D03*
X181440000Y-45720000D03*
X179240000Y-44920000D03*
X179240000Y-46520000D03*
X181440000Y-46520000D03*
X181440000Y-44920000D03*
X118280000Y-45720000D03*
X120480000Y-45720000D03*
X118280000Y-44920000D03*
X118280000Y-46520000D03*
X120480000Y-46520000D03*
X120480000Y-44920000D03*
X57320000Y-45720000D03*
X59520000Y-45720000D03*
X57320000Y-44920000D03*
X57320000Y-46520000D03*
X59520000Y-46520000D03*
X59520000Y-44920000D03*
D12*
X218440000Y-76200000D03*
X50800000Y-30480000D03*
X66040000Y-30480000D03*
X111760000Y-30480000D03*
X127000000Y-30480000D03*
X172720000Y-30480000D03*
X187960000Y-30480000D03*
X218440000Y-30480000D03*
X218440000Y-45720000D03*
D13*
X35560000Y-30480000D03*
X81280000Y-30480000D03*
X96520000Y-30480000D03*
X142240000Y-30480000D03*
X157480000Y-30480000D03*
X203200000Y-30480000D03*
X50800000Y-60960000D03*
X66040000Y-60960000D03*
X111760000Y-60960000D03*
X127000000Y-60960000D03*
X172720000Y-60960000D03*
X187960000Y-60960000D03*
D14*
X35560000Y-45720000D03*
D13*
X50800000Y-45720000D03*
X66040000Y-45720000D03*
D14*
X81280000Y-45720000D03*
X96520000Y-45720000D03*
D13*
X111760000Y-45720000D03*
X127000000Y-45720000D03*
D14*
X142240000Y-45720000D03*
X157480000Y-45720000D03*
D13*
X172720000Y-45720000D03*
X187960000Y-45720000D03*
D14*
X203200000Y-45720000D03*
D13*
X35560000Y-76200000D03*
D14*
X50800000Y-76200000D03*
X66040000Y-76200000D03*
D13*
X81280000Y-76200000D03*
X96520000Y-76200000D03*
D14*
X111760000Y-76200000D03*
X127000000Y-76200000D03*
D13*
X142240000Y-76200000D03*
X157480000Y-76200000D03*
D14*
X172720000Y-76200000D03*
X187960000Y-76200000D03*
D13*
X203200000Y-76200000D03*
D11*
X35560000Y-35900000D03*
X35560000Y-40300000D03*
X36360000Y-35900000D03*
X34760000Y-35900000D03*
X34760000Y-40300000D03*
X36360000Y-40300000D03*
X35560000Y-38100000D03*
X36360000Y-38100000D03*
X34760000Y-38100000D03*
X96520000Y-35900000D03*
X96520000Y-40300000D03*
X97320000Y-35900000D03*
X95720000Y-35900000D03*
X95720000Y-40300000D03*
X97320000Y-40300000D03*
X96520000Y-38100000D03*
X97320000Y-38100000D03*
X95720000Y-38100000D03*
X157480000Y-35900000D03*
X157480000Y-40300000D03*
X158280000Y-35900000D03*
X156680000Y-35900000D03*
X156680000Y-40300000D03*
X158280000Y-40300000D03*
X157480000Y-38100000D03*
X158280000Y-38100000D03*
X156680000Y-38100000D03*
X218440000Y-35900000D03*
X218440000Y-40300000D03*
X219240000Y-35900000D03*
X217640000Y-35900000D03*
X217640000Y-40300000D03*
X219240000Y-40300000D03*
X218440000Y-38100000D03*
X219240000Y-38100000D03*
X217640000Y-38100000D03*
X35560000Y-51140000D03*
X35560000Y-55540000D03*
X36360000Y-51140000D03*
X34760000Y-51140000D03*
X34760000Y-55540000D03*
X36360000Y-55540000D03*
X35560000Y-53340000D03*
X36360000Y-53340000D03*
X34760000Y-53340000D03*
X96520000Y-51140000D03*
X96520000Y-55540000D03*
X97320000Y-51140000D03*
X95720000Y-51140000D03*
X95720000Y-55540000D03*
X97320000Y-55540000D03*
X96520000Y-53340000D03*
X97320000Y-53340000D03*
X95720000Y-53340000D03*
X157480000Y-51140000D03*
X157480000Y-55540000D03*
X158280000Y-51140000D03*
X156680000Y-51140000D03*
X156680000Y-55540000D03*
X158280000Y-55540000D03*
X157480000Y-53340000D03*
X158280000Y-53340000D03*
X156680000Y-53340000D03*
X218440000Y-51140000D03*
X218440000Y-55540000D03*
X219240000Y-51140000D03*
X217640000Y-51140000D03*
X217640000Y-55540000D03*
X219240000Y-55540000D03*
X218440000Y-53340000D03*
X219240000Y-53340000D03*
X217640000Y-53340000D03*
X35560000Y-66380000D03*
X35560000Y-70780000D03*
X36360000Y-66380000D03*
X34760000Y-66380000D03*
X34760000Y-70780000D03*
X36360000Y-70780000D03*
X35560000Y-68580000D03*
X36360000Y-68580000D03*
X34760000Y-68580000D03*
X96520000Y-66380000D03*
X96520000Y-70780000D03*
X97320000Y-66380000D03*
X95720000Y-66380000D03*
X95720000Y-70780000D03*
X97320000Y-70780000D03*
X96520000Y-68580000D03*
X97320000Y-68580000D03*
X95720000Y-68580000D03*
X157480000Y-66380000D03*
X157480000Y-70780000D03*
X158280000Y-66380000D03*
X156680000Y-66380000D03*
X156680000Y-70780000D03*
X158280000Y-70780000D03*
X157480000Y-68580000D03*
X158280000Y-68580000D03*
X156680000Y-68580000D03*
X218440000Y-66380000D03*
X218440000Y-70780000D03*
X219240000Y-66380000D03*
X217640000Y-66380000D03*
X217640000Y-70780000D03*
X219240000Y-70780000D03*
X218440000Y-68580000D03*
X219240000Y-68580000D03*
X217640000Y-68580000D03*
M02*
