%FSLAX45Y45*%
G04 Gerber Fmt 4.5, Leading zero omitted, Abs format (unit mm)*
G04 Created by KiCad (PCBNEW 4.0.2-4+6225~38~ubuntu15.04.1-stable) date Wed Feb 24 14:53:05 2016*
%MOMM*%
G01*
G04 APERTURE LIST*
%ADD10C,0.127000*%
%ADD11C,0.254000*%
%ADD12C,0.200000*%
%ADD13C,0.300000*%
G04 APERTURE END LIST*
D10*
D11*
X4419600Y0D02*
X1676400Y0D01*
X6096000Y0D02*
X4724400Y0D01*
X6096000Y1371600D02*
X6096000Y0D01*
X6096000Y4419600D02*
X6096000Y1676400D01*
X6096000Y6096000D02*
X6096000Y4724400D01*
X4724400Y6096000D02*
X6096000Y6096000D01*
X1676400Y6096000D02*
X4419600Y6096000D01*
X0Y6096000D02*
X1371600Y6096000D01*
X0Y4724400D02*
X0Y6096000D01*
X0Y1676400D02*
X0Y4419600D01*
X0Y0D02*
X0Y1371600D01*
X1371600Y0D02*
X0Y0D01*
X6096000Y1676400D02*
G75*
G03X5943600Y1524000I0J-152400D01*
G01*
X5943600Y1524000D02*
G75*
G03X6096000Y1371600I152400J0D01*
G01*
X6096000Y4724400D02*
G75*
G03X5943600Y4572000I0J-152400D01*
G01*
X5943600Y4572000D02*
G75*
G03X6096000Y4419600I152400J0D01*
G01*
X4419600Y6096000D02*
G75*
G03X4572000Y5943600I152400J0D01*
G01*
X4572000Y5943600D02*
G75*
G03X4724400Y6096000I0J152400D01*
G01*
X1371600Y6096000D02*
G75*
G03X1524000Y5943600I152400J0D01*
G01*
X1524000Y5943600D02*
G75*
G03X1676400Y6096000I0J152400D01*
G01*
X0Y4419600D02*
G75*
G03X152400Y4572000I0J152400D01*
G01*
X152400Y4572000D02*
G75*
G03X0Y4724400I-152400J0D01*
G01*
X0Y1371600D02*
G75*
G03X152400Y1524000I0J152400D01*
G01*
X152400Y1524000D02*
G75*
G03X0Y1676400I-152400J0D01*
G01*
X1676400Y0D02*
G75*
G03X1524000Y152400I-152400J0D01*
G01*
X1524000Y152400D02*
G75*
G03X1371600Y0I0J-152400D01*
G01*
X4572000Y152400D02*
G75*
G03X4419600Y0I0J-152400D01*
G01*
X4724400Y0D02*
G75*
G03X4572000Y152400I-152400J0D01*
G01*
D12*
X184150Y361950D02*
X247650Y298450D01*
X247650Y361950D02*
X184150Y298450D01*
X349250Y438150D02*
X412750Y374650D01*
X412750Y438150D02*
X349250Y374650D01*
X730250Y5937250D02*
X793750Y5873750D01*
X793750Y5937250D02*
X730250Y5873750D01*
X730250Y5619750D02*
X793750Y5556250D01*
X793750Y5619750D02*
X730250Y5556250D01*
X730250Y2368550D02*
X793750Y2305050D01*
X793750Y2368550D02*
X730250Y2305050D01*
X730250Y2000250D02*
X793750Y1936750D01*
X793750Y2000250D02*
X730250Y1936750D01*
X1479550Y1174750D02*
X1543050Y1111250D01*
X1543050Y1174750D02*
X1479550Y1111250D01*
X2254250Y5937250D02*
X2317750Y5873750D01*
X2317750Y5937250D02*
X2254250Y5873750D01*
X2254250Y5619750D02*
X2317750Y5556250D01*
X2317750Y5619750D02*
X2254250Y5556250D01*
X2254250Y3240750D02*
X2317750Y3177250D01*
X2317750Y3240750D02*
X2254250Y3177250D01*
X2254250Y2686050D02*
X2317750Y2622550D01*
X2317750Y2686050D02*
X2254250Y2622550D01*
X2254250Y1047750D02*
X2317750Y984250D01*
X2317750Y1047750D02*
X2254250Y984250D01*
X3778250Y5937250D02*
X3841750Y5873750D01*
X3841750Y5937250D02*
X3778250Y5873750D01*
X3778250Y5619750D02*
X3841750Y5556250D01*
X3841750Y5619750D02*
X3778250Y5556250D01*
X3778250Y3054350D02*
X3841750Y2990850D01*
X3841750Y3054350D02*
X3778250Y2990850D01*
X3778250Y2317750D02*
X3841750Y2254250D01*
X3841750Y2317750D02*
X3778250Y2254250D01*
X3778250Y1555750D02*
X3841750Y1492250D01*
X3841750Y1555750D02*
X3778250Y1492250D01*
X5302250Y5937250D02*
X5365750Y5873750D01*
X5365750Y5937250D02*
X5302250Y5873750D01*
X5302250Y5619750D02*
X5365750Y5556250D01*
X5365750Y5619750D02*
X5302250Y5556250D01*
X5302250Y2478750D02*
X5365750Y2415250D01*
X5365750Y2478750D02*
X5302250Y2415250D01*
X5695950Y463550D02*
X5759450Y400050D01*
X5759450Y463550D02*
X5695950Y400050D01*
X5848350Y361950D02*
X5911850Y298450D01*
X5911850Y361950D02*
X5848350Y298450D01*
X314400Y4178300D02*
G75*
G03X314400Y4178300I-35000J0D01*
G01*
X314400Y3429000D02*
G75*
G03X314400Y3429000I-35000J0D01*
G01*
X576000Y5635000D02*
G75*
G03X576000Y5635000I-35000J0D01*
G01*
X576000Y4873000D02*
G75*
G03X576000Y4873000I-35000J0D01*
G01*
X576000Y2587000D02*
G75*
G03X576000Y2587000I-35000J0D01*
G01*
X576000Y1825000D02*
G75*
G03X576000Y1825000I-35000J0D01*
G01*
X576000Y1063000D02*
G75*
G03X576000Y1063000I-35000J0D01*
G01*
X576000Y301000D02*
G75*
G03X576000Y301000I-35000J0D01*
G01*
X1018000Y5795000D02*
G75*
G03X1018000Y5795000I-35000J0D01*
G01*
X1018000Y5033000D02*
G75*
G03X1018000Y5033000I-35000J0D01*
G01*
X1018000Y2747000D02*
G75*
G03X1018000Y2747000I-35000J0D01*
G01*
X1018000Y1985000D02*
G75*
G03X1018000Y1985000I-35000J0D01*
G01*
X1018000Y1223000D02*
G75*
G03X1018000Y1223000I-35000J0D01*
G01*
X1018000Y461000D02*
G75*
G03X1018000Y461000I-35000J0D01*
G01*
X1292300Y3429000D02*
G75*
G03X1292300Y3429000I-35000J0D01*
G01*
X1330400Y4178300D02*
G75*
G03X1330400Y4178300I-35000J0D01*
G01*
X2100000Y5635000D02*
G75*
G03X2100000Y5635000I-35000J0D01*
G01*
X2100000Y4873000D02*
G75*
G03X2100000Y4873000I-35000J0D01*
G01*
X2100000Y4111000D02*
G75*
G03X2100000Y4111000I-35000J0D01*
G01*
X2100000Y3349000D02*
G75*
G03X2100000Y3349000I-35000J0D01*
G01*
X2100000Y2587000D02*
G75*
G03X2100000Y2587000I-35000J0D01*
G01*
X2100000Y1063000D02*
G75*
G03X2100000Y1063000I-35000J0D01*
G01*
X2100000Y301000D02*
G75*
G03X2100000Y301000I-35000J0D01*
G01*
X2371800Y1219200D02*
G75*
G03X2371800Y1219200I-35000J0D01*
G01*
X2542000Y5795000D02*
G75*
G03X2542000Y5795000I-35000J0D01*
G01*
X2542000Y5033000D02*
G75*
G03X2542000Y5033000I-35000J0D01*
G01*
X2542000Y4271000D02*
G75*
G03X2542000Y4271000I-35000J0D01*
G01*
X2542000Y3509000D02*
G75*
G03X2542000Y3509000I-35000J0D01*
G01*
X2542000Y2747000D02*
G75*
G03X2542000Y2747000I-35000J0D01*
G01*
X2542000Y1985000D02*
G75*
G03X2542000Y1985000I-35000J0D01*
G01*
X2542000Y1223000D02*
G75*
G03X2542000Y1223000I-35000J0D01*
G01*
X2542000Y461000D02*
G75*
G03X2542000Y461000I-35000J0D01*
G01*
X3624000Y5635000D02*
G75*
G03X3624000Y5635000I-35000J0D01*
G01*
X3624000Y4873000D02*
G75*
G03X3624000Y4873000I-35000J0D01*
G01*
X3624000Y4111000D02*
G75*
G03X3624000Y4111000I-35000J0D01*
G01*
X3624000Y3349000D02*
G75*
G03X3624000Y3349000I-35000J0D01*
G01*
X3624000Y2587000D02*
G75*
G03X3624000Y2587000I-35000J0D01*
G01*
X3624000Y1825000D02*
G75*
G03X3624000Y1825000I-35000J0D01*
G01*
X3624000Y1063000D02*
G75*
G03X3624000Y1063000I-35000J0D01*
G01*
X3624000Y301000D02*
G75*
G03X3624000Y301000I-35000J0D01*
G01*
X3705300Y4229100D02*
G75*
G03X3705300Y4229100I-35000J0D01*
G01*
X4066000Y5795000D02*
G75*
G03X4066000Y5795000I-35000J0D01*
G01*
X4066000Y5033000D02*
G75*
G03X4066000Y5033000I-35000J0D01*
G01*
X4066000Y3509000D02*
G75*
G03X4066000Y3509000I-35000J0D01*
G01*
X4066000Y2747000D02*
G75*
G03X4066000Y2747000I-35000J0D01*
G01*
X4066000Y1985000D02*
G75*
G03X4066000Y1985000I-35000J0D01*
G01*
X4066000Y1223000D02*
G75*
G03X4066000Y1223000I-35000J0D01*
G01*
X4066000Y461000D02*
G75*
G03X4066000Y461000I-35000J0D01*
G01*
X4873700Y4203700D02*
G75*
G03X4873700Y4203700I-35000J0D01*
G01*
X4899100Y3429000D02*
G75*
G03X4899100Y3429000I-35000J0D01*
G01*
X5148000Y5635000D02*
G75*
G03X5148000Y5635000I-35000J0D01*
G01*
X5148000Y4873000D02*
G75*
G03X5148000Y4873000I-35000J0D01*
G01*
X5148000Y2587000D02*
G75*
G03X5148000Y2587000I-35000J0D01*
G01*
X5148000Y1825000D02*
G75*
G03X5148000Y1825000I-35000J0D01*
G01*
X5148000Y1063000D02*
G75*
G03X5148000Y1063000I-35000J0D01*
G01*
X5148000Y301000D02*
G75*
G03X5148000Y301000I-35000J0D01*
G01*
X5590000Y5795000D02*
G75*
G03X5590000Y5795000I-35000J0D01*
G01*
X5590000Y5033000D02*
G75*
G03X5590000Y5033000I-35000J0D01*
G01*
X5590000Y2747000D02*
G75*
G03X5590000Y2747000I-35000J0D01*
G01*
X5590000Y1985000D02*
G75*
G03X5590000Y1985000I-35000J0D01*
G01*
X5590000Y1223000D02*
G75*
G03X5590000Y1223000I-35000J0D01*
G01*
X5590000Y461000D02*
G75*
G03X5590000Y461000I-35000J0D01*
G01*
X5826200Y4191000D02*
G75*
G03X5826200Y4191000I-35000J0D01*
G01*
X5838900Y3416300D02*
G75*
G03X5838900Y3416300I-35000J0D01*
G01*
X1905000Y1965000D02*
X1905000Y1845000D01*
X1845000Y1905000D02*
X1965000Y1905000D01*
X4191000Y4251000D02*
X4191000Y4131000D01*
X4131000Y4191000D02*
X4251000Y4191000D01*
D13*
X258728Y-478414D02*
X258728Y-178414D01*
X330157Y-178414D01*
X373014Y-192700D01*
X401586Y-221271D01*
X415871Y-249843D01*
X430157Y-306986D01*
X430157Y-349843D01*
X415871Y-406986D01*
X401586Y-435557D01*
X373014Y-464129D01*
X330157Y-478414D01*
X258728Y-478414D01*
X558729Y-478414D02*
X558729Y-278414D01*
X558729Y-335557D02*
X573014Y-306986D01*
X587300Y-292700D01*
X615871Y-278414D01*
X644443Y-278414D01*
X744443Y-478414D02*
X744443Y-278414D01*
X744443Y-178414D02*
X730157Y-192700D01*
X744443Y-206986D01*
X758728Y-192700D01*
X744443Y-178414D01*
X744443Y-206986D01*
X930157Y-478414D02*
X901586Y-464129D01*
X887300Y-435557D01*
X887300Y-178414D01*
X1087300Y-478414D02*
X1058729Y-464129D01*
X1044443Y-435557D01*
X1044443Y-178414D01*
X1430157Y-478414D02*
X1430157Y-178414D01*
X1530157Y-392700D01*
X1630157Y-178414D01*
X1630157Y-478414D01*
X1901586Y-478414D02*
X1901586Y-321272D01*
X1887300Y-292700D01*
X1858728Y-278414D01*
X1801586Y-278414D01*
X1773014Y-292700D01*
X1901586Y-464129D02*
X1873014Y-478414D01*
X1801586Y-478414D01*
X1773014Y-464129D01*
X1758728Y-435557D01*
X1758728Y-406986D01*
X1773014Y-378414D01*
X1801586Y-364129D01*
X1873014Y-364129D01*
X1901586Y-349843D01*
X2044443Y-278414D02*
X2044443Y-578414D01*
X2044443Y-292700D02*
X2073014Y-278414D01*
X2130157Y-278414D01*
X2158729Y-292700D01*
X2173014Y-306986D01*
X2187300Y-335557D01*
X2187300Y-421271D01*
X2173014Y-449843D01*
X2158729Y-464129D01*
X2130157Y-478414D01*
X2073014Y-478414D01*
X2044443Y-464129D01*
X2315871Y-449843D02*
X2330157Y-464129D01*
X2315871Y-478414D01*
X2301586Y-464129D01*
X2315871Y-449843D01*
X2315871Y-478414D01*
X2315871Y-292700D02*
X2330157Y-306986D01*
X2315871Y-321272D01*
X2301586Y-306986D01*
X2315871Y-292700D01*
X2315871Y-321272D01*
X-76200Y-940950D02*
X-12700Y-1004450D01*
X-12700Y-940950D02*
X-76200Y-1004450D01*
X315871Y-808414D02*
X344443Y-808414D01*
X373014Y-822700D01*
X387300Y-836986D01*
X401586Y-865557D01*
X415871Y-922700D01*
X415871Y-994129D01*
X401586Y-1051272D01*
X387300Y-1079843D01*
X373014Y-1094129D01*
X344443Y-1108414D01*
X315871Y-1108414D01*
X287300Y-1094129D01*
X273014Y-1079843D01*
X258728Y-1051272D01*
X244443Y-994129D01*
X244443Y-922700D01*
X258728Y-865557D01*
X273014Y-836986D01*
X287300Y-822700D01*
X315871Y-808414D01*
X544443Y-1079843D02*
X558729Y-1094129D01*
X544443Y-1108414D01*
X530157Y-1094129D01*
X544443Y-1079843D01*
X544443Y-1108414D01*
X815871Y-808414D02*
X758728Y-808414D01*
X730157Y-822700D01*
X715871Y-836986D01*
X687300Y-879843D01*
X673014Y-936986D01*
X673014Y-1051272D01*
X687300Y-1079843D01*
X701586Y-1094129D01*
X730157Y-1108414D01*
X787300Y-1108414D01*
X815871Y-1094129D01*
X830157Y-1079843D01*
X844443Y-1051272D01*
X844443Y-979843D01*
X830157Y-951271D01*
X815871Y-936986D01*
X787300Y-922700D01*
X730157Y-922700D01*
X701586Y-936986D01*
X687300Y-951271D01*
X673014Y-979843D01*
X1101586Y-908414D02*
X1101586Y-1108414D01*
X1030157Y-794129D02*
X958728Y-1008414D01*
X1144443Y-1008414D01*
X1258729Y-1108414D02*
X1258729Y-908414D01*
X1258729Y-936986D02*
X1273014Y-922700D01*
X1301586Y-908414D01*
X1344443Y-908414D01*
X1373014Y-922700D01*
X1387300Y-951271D01*
X1387300Y-1108414D01*
X1387300Y-951271D02*
X1401586Y-922700D01*
X1430157Y-908414D01*
X1473014Y-908414D01*
X1501586Y-922700D01*
X1515871Y-951271D01*
X1515871Y-1108414D01*
X1658728Y-1108414D02*
X1658728Y-908414D01*
X1658728Y-936986D02*
X1673014Y-922700D01*
X1701586Y-908414D01*
X1744443Y-908414D01*
X1773014Y-922700D01*
X1787300Y-951271D01*
X1787300Y-1108414D01*
X1787300Y-951271D02*
X1801586Y-922700D01*
X1830157Y-908414D01*
X1873014Y-908414D01*
X1901586Y-922700D01*
X1915871Y-951271D01*
X1915871Y-1108414D01*
X2501586Y-794129D02*
X2244443Y-1179843D01*
X2887300Y-808414D02*
X2915871Y-808414D01*
X2944443Y-822700D01*
X2958728Y-836986D01*
X2973014Y-865557D01*
X2987300Y-922700D01*
X2987300Y-994129D01*
X2973014Y-1051272D01*
X2958728Y-1079843D01*
X2944443Y-1094129D01*
X2915871Y-1108414D01*
X2887300Y-1108414D01*
X2858728Y-1094129D01*
X2844443Y-1079843D01*
X2830157Y-1051272D01*
X2815871Y-994129D01*
X2815871Y-922700D01*
X2830157Y-865557D01*
X2844443Y-836986D01*
X2858728Y-822700D01*
X2887300Y-808414D01*
X3115871Y-1079843D02*
X3130157Y-1094129D01*
X3115871Y-1108414D01*
X3101586Y-1094129D01*
X3115871Y-1079843D01*
X3115871Y-1108414D01*
X3315871Y-808414D02*
X3344443Y-808414D01*
X3373014Y-822700D01*
X3387300Y-836986D01*
X3401585Y-865557D01*
X3415871Y-922700D01*
X3415871Y-994129D01*
X3401585Y-1051272D01*
X3387300Y-1079843D01*
X3373014Y-1094129D01*
X3344443Y-1108414D01*
X3315871Y-1108414D01*
X3287300Y-1094129D01*
X3273014Y-1079843D01*
X3258728Y-1051272D01*
X3244443Y-994129D01*
X3244443Y-922700D01*
X3258728Y-865557D01*
X3273014Y-836986D01*
X3287300Y-822700D01*
X3315871Y-808414D01*
X3530157Y-836986D02*
X3544443Y-822700D01*
X3573014Y-808414D01*
X3644443Y-808414D01*
X3673014Y-822700D01*
X3687300Y-836986D01*
X3701585Y-865557D01*
X3701585Y-894129D01*
X3687300Y-936986D01*
X3515871Y-1108414D01*
X3701585Y-1108414D01*
X3973014Y-808414D02*
X3830157Y-808414D01*
X3815871Y-951271D01*
X3830157Y-936986D01*
X3858728Y-922700D01*
X3930157Y-922700D01*
X3958728Y-936986D01*
X3973014Y-951271D01*
X3987300Y-979843D01*
X3987300Y-1051272D01*
X3973014Y-1079843D01*
X3958728Y-1094129D01*
X3930157Y-1108414D01*
X3858728Y-1108414D01*
X3830157Y-1094129D01*
X3815871Y-1079843D01*
X4101586Y-808414D02*
X4101586Y-865557D01*
X4215871Y-808414D02*
X4215871Y-865557D01*
X4658728Y-1222700D02*
X4644443Y-1208414D01*
X4615871Y-1165557D01*
X4601586Y-1136986D01*
X4587300Y-1094129D01*
X4573014Y-1022700D01*
X4573014Y-965557D01*
X4587300Y-894129D01*
X4601586Y-851271D01*
X4615871Y-822700D01*
X4644443Y-779843D01*
X4658728Y-765557D01*
X4758728Y-836986D02*
X4773014Y-822700D01*
X4801586Y-808414D01*
X4873014Y-808414D01*
X4901586Y-822700D01*
X4915871Y-836986D01*
X4930157Y-865557D01*
X4930157Y-894129D01*
X4915871Y-936986D01*
X4744443Y-1108414D01*
X4930157Y-1108414D01*
X5044443Y-836986D02*
X5058728Y-822700D01*
X5087300Y-808414D01*
X5158728Y-808414D01*
X5187300Y-822700D01*
X5201586Y-836986D01*
X5215871Y-865557D01*
X5215871Y-894129D01*
X5201586Y-936986D01*
X5030157Y-1108414D01*
X5215871Y-1108414D01*
X5573014Y-1108414D02*
X5573014Y-808414D01*
X5701585Y-1108414D02*
X5701585Y-951271D01*
X5687300Y-922700D01*
X5658728Y-908414D01*
X5615871Y-908414D01*
X5587300Y-922700D01*
X5573014Y-936986D01*
X5887300Y-1108414D02*
X5858728Y-1094129D01*
X5844443Y-1079843D01*
X5830157Y-1051272D01*
X5830157Y-965557D01*
X5844443Y-936986D01*
X5858728Y-922700D01*
X5887300Y-908414D01*
X5930157Y-908414D01*
X5958728Y-922700D01*
X5973014Y-936986D01*
X5987300Y-965557D01*
X5987300Y-1051272D01*
X5973014Y-1079843D01*
X5958728Y-1094129D01*
X5930157Y-1108414D01*
X5887300Y-1108414D01*
X6158728Y-1108414D02*
X6130157Y-1094129D01*
X6115871Y-1065557D01*
X6115871Y-808414D01*
X6387300Y-1094129D02*
X6358728Y-1108414D01*
X6301586Y-1108414D01*
X6273014Y-1094129D01*
X6258728Y-1065557D01*
X6258728Y-951271D01*
X6273014Y-922700D01*
X6301586Y-908414D01*
X6358728Y-908414D01*
X6387300Y-922700D01*
X6401586Y-951271D01*
X6401586Y-979843D01*
X6258728Y-1008414D01*
X6515871Y-1094129D02*
X6544443Y-1108414D01*
X6601586Y-1108414D01*
X6630157Y-1094129D01*
X6644443Y-1065557D01*
X6644443Y-1051272D01*
X6630157Y-1022700D01*
X6601586Y-1008414D01*
X6558728Y-1008414D01*
X6530157Y-994129D01*
X6515871Y-965557D01*
X6515871Y-951271D01*
X6530157Y-922700D01*
X6558728Y-908414D01*
X6601586Y-908414D01*
X6630157Y-922700D01*
X6744443Y-1222700D02*
X6758728Y-1208414D01*
X6787300Y-1165557D01*
X6801586Y-1136986D01*
X6815871Y-1094129D01*
X6830157Y-1022700D01*
X6830157Y-965557D01*
X6815871Y-894129D01*
X6801586Y-851271D01*
X6787300Y-822700D01*
X6758728Y-779843D01*
X6744443Y-765557D01*
X-12700Y-1368700D02*
G75*
G03X-12700Y-1368700I-35000J0D01*
G01*
X315871Y-1204414D02*
X344443Y-1204414D01*
X373014Y-1218700D01*
X387300Y-1232986D01*
X401586Y-1261557D01*
X415871Y-1318700D01*
X415871Y-1390129D01*
X401586Y-1447271D01*
X387300Y-1475843D01*
X373014Y-1490129D01*
X344443Y-1504414D01*
X315871Y-1504414D01*
X287300Y-1490129D01*
X273014Y-1475843D01*
X258728Y-1447271D01*
X244443Y-1390129D01*
X244443Y-1318700D01*
X258728Y-1261557D01*
X273014Y-1232986D01*
X287300Y-1218700D01*
X315871Y-1204414D01*
X544443Y-1475843D02*
X558729Y-1490129D01*
X544443Y-1504414D01*
X530157Y-1490129D01*
X544443Y-1475843D01*
X544443Y-1504414D01*
X658728Y-1204414D02*
X858728Y-1204414D01*
X730157Y-1504414D01*
X1030157Y-1204414D02*
X1058729Y-1204414D01*
X1087300Y-1218700D01*
X1101586Y-1232986D01*
X1115871Y-1261557D01*
X1130157Y-1318700D01*
X1130157Y-1390129D01*
X1115871Y-1447271D01*
X1101586Y-1475843D01*
X1087300Y-1490129D01*
X1058729Y-1504414D01*
X1030157Y-1504414D01*
X1001586Y-1490129D01*
X987300Y-1475843D01*
X973014Y-1447271D01*
X958728Y-1390129D01*
X958728Y-1318700D01*
X973014Y-1261557D01*
X987300Y-1232986D01*
X1001586Y-1218700D01*
X1030157Y-1204414D01*
X1258729Y-1504414D02*
X1258729Y-1304414D01*
X1258729Y-1332986D02*
X1273014Y-1318700D01*
X1301586Y-1304414D01*
X1344443Y-1304414D01*
X1373014Y-1318700D01*
X1387300Y-1347272D01*
X1387300Y-1504414D01*
X1387300Y-1347272D02*
X1401586Y-1318700D01*
X1430157Y-1304414D01*
X1473014Y-1304414D01*
X1501586Y-1318700D01*
X1515871Y-1347272D01*
X1515871Y-1504414D01*
X1658728Y-1504414D02*
X1658728Y-1304414D01*
X1658728Y-1332986D02*
X1673014Y-1318700D01*
X1701586Y-1304414D01*
X1744443Y-1304414D01*
X1773014Y-1318700D01*
X1787300Y-1347272D01*
X1787300Y-1504414D01*
X1787300Y-1347272D02*
X1801586Y-1318700D01*
X1830157Y-1304414D01*
X1873014Y-1304414D01*
X1901586Y-1318700D01*
X1915871Y-1347272D01*
X1915871Y-1504414D01*
X2501586Y-1190129D02*
X2244443Y-1575843D01*
X2887300Y-1204414D02*
X2915871Y-1204414D01*
X2944443Y-1218700D01*
X2958728Y-1232986D01*
X2973014Y-1261557D01*
X2987300Y-1318700D01*
X2987300Y-1390129D01*
X2973014Y-1447271D01*
X2958728Y-1475843D01*
X2944443Y-1490129D01*
X2915871Y-1504414D01*
X2887300Y-1504414D01*
X2858728Y-1490129D01*
X2844443Y-1475843D01*
X2830157Y-1447271D01*
X2815871Y-1390129D01*
X2815871Y-1318700D01*
X2830157Y-1261557D01*
X2844443Y-1232986D01*
X2858728Y-1218700D01*
X2887300Y-1204414D01*
X3115871Y-1475843D02*
X3130157Y-1490129D01*
X3115871Y-1504414D01*
X3101586Y-1490129D01*
X3115871Y-1475843D01*
X3115871Y-1504414D01*
X3315871Y-1204414D02*
X3344443Y-1204414D01*
X3373014Y-1218700D01*
X3387300Y-1232986D01*
X3401585Y-1261557D01*
X3415871Y-1318700D01*
X3415871Y-1390129D01*
X3401585Y-1447271D01*
X3387300Y-1475843D01*
X3373014Y-1490129D01*
X3344443Y-1504414D01*
X3315871Y-1504414D01*
X3287300Y-1490129D01*
X3273014Y-1475843D01*
X3258728Y-1447271D01*
X3244443Y-1390129D01*
X3244443Y-1318700D01*
X3258728Y-1261557D01*
X3273014Y-1232986D01*
X3287300Y-1218700D01*
X3315871Y-1204414D01*
X3530157Y-1232986D02*
X3544443Y-1218700D01*
X3573014Y-1204414D01*
X3644443Y-1204414D01*
X3673014Y-1218700D01*
X3687300Y-1232986D01*
X3701585Y-1261557D01*
X3701585Y-1290129D01*
X3687300Y-1332986D01*
X3515871Y-1504414D01*
X3701585Y-1504414D01*
X3873014Y-1332986D02*
X3844443Y-1318700D01*
X3830157Y-1304414D01*
X3815871Y-1275843D01*
X3815871Y-1261557D01*
X3830157Y-1232986D01*
X3844443Y-1218700D01*
X3873014Y-1204414D01*
X3930157Y-1204414D01*
X3958728Y-1218700D01*
X3973014Y-1232986D01*
X3987300Y-1261557D01*
X3987300Y-1275843D01*
X3973014Y-1304414D01*
X3958728Y-1318700D01*
X3930157Y-1332986D01*
X3873014Y-1332986D01*
X3844443Y-1347272D01*
X3830157Y-1361557D01*
X3815871Y-1390129D01*
X3815871Y-1447271D01*
X3830157Y-1475843D01*
X3844443Y-1490129D01*
X3873014Y-1504414D01*
X3930157Y-1504414D01*
X3958728Y-1490129D01*
X3973014Y-1475843D01*
X3987300Y-1447271D01*
X3987300Y-1390129D01*
X3973014Y-1361557D01*
X3958728Y-1347272D01*
X3930157Y-1332986D01*
X4101586Y-1204414D02*
X4101586Y-1261557D01*
X4215871Y-1204414D02*
X4215871Y-1261557D01*
X4658728Y-1618700D02*
X4644443Y-1604414D01*
X4615871Y-1561557D01*
X4601586Y-1532986D01*
X4587300Y-1490129D01*
X4573014Y-1418700D01*
X4573014Y-1361557D01*
X4587300Y-1290129D01*
X4601586Y-1247272D01*
X4615871Y-1218700D01*
X4644443Y-1175843D01*
X4658728Y-1161557D01*
X4901586Y-1204414D02*
X4844443Y-1204414D01*
X4815871Y-1218700D01*
X4801586Y-1232986D01*
X4773014Y-1275843D01*
X4758728Y-1332986D01*
X4758728Y-1447271D01*
X4773014Y-1475843D01*
X4787300Y-1490129D01*
X4815871Y-1504414D01*
X4873014Y-1504414D01*
X4901586Y-1490129D01*
X4915871Y-1475843D01*
X4930157Y-1447271D01*
X4930157Y-1375843D01*
X4915871Y-1347272D01*
X4901586Y-1332986D01*
X4873014Y-1318700D01*
X4815871Y-1318700D01*
X4787300Y-1332986D01*
X4773014Y-1347272D01*
X4758728Y-1375843D01*
X5187300Y-1304414D02*
X5187300Y-1504414D01*
X5115871Y-1190129D02*
X5044443Y-1404414D01*
X5230157Y-1404414D01*
X5573014Y-1504414D02*
X5573014Y-1204414D01*
X5701585Y-1504414D02*
X5701585Y-1347272D01*
X5687300Y-1318700D01*
X5658728Y-1304414D01*
X5615871Y-1304414D01*
X5587300Y-1318700D01*
X5573014Y-1332986D01*
X5887300Y-1504414D02*
X5858728Y-1490129D01*
X5844443Y-1475843D01*
X5830157Y-1447271D01*
X5830157Y-1361557D01*
X5844443Y-1332986D01*
X5858728Y-1318700D01*
X5887300Y-1304414D01*
X5930157Y-1304414D01*
X5958728Y-1318700D01*
X5973014Y-1332986D01*
X5987300Y-1361557D01*
X5987300Y-1447271D01*
X5973014Y-1475843D01*
X5958728Y-1490129D01*
X5930157Y-1504414D01*
X5887300Y-1504414D01*
X6158728Y-1504414D02*
X6130157Y-1490129D01*
X6115871Y-1461557D01*
X6115871Y-1204414D01*
X6387300Y-1490129D02*
X6358728Y-1504414D01*
X6301586Y-1504414D01*
X6273014Y-1490129D01*
X6258728Y-1461557D01*
X6258728Y-1347272D01*
X6273014Y-1318700D01*
X6301586Y-1304414D01*
X6358728Y-1304414D01*
X6387300Y-1318700D01*
X6401586Y-1347272D01*
X6401586Y-1375843D01*
X6258728Y-1404414D01*
X6515871Y-1490129D02*
X6544443Y-1504414D01*
X6601586Y-1504414D01*
X6630157Y-1490129D01*
X6644443Y-1461557D01*
X6644443Y-1447271D01*
X6630157Y-1418700D01*
X6601586Y-1404414D01*
X6558728Y-1404414D01*
X6530157Y-1390129D01*
X6515871Y-1361557D01*
X6515871Y-1347272D01*
X6530157Y-1318700D01*
X6558728Y-1304414D01*
X6601586Y-1304414D01*
X6630157Y-1318700D01*
X6744443Y-1618700D02*
X6758728Y-1604414D01*
X6787300Y-1561557D01*
X6801586Y-1532986D01*
X6815871Y-1490129D01*
X6830157Y-1418700D01*
X6830157Y-1361557D01*
X6815871Y-1290129D01*
X6801586Y-1247272D01*
X6787300Y-1218700D01*
X6758728Y-1175843D01*
X6744443Y-1161557D01*
X-72700Y-1704700D02*
X-72700Y-1824700D01*
X-132700Y-1764700D02*
X-12700Y-1764700D01*
X415871Y-1900414D02*
X244443Y-1900414D01*
X330157Y-1900414D02*
X330157Y-1600414D01*
X301586Y-1643271D01*
X273014Y-1671843D01*
X244443Y-1686129D01*
X544443Y-1871843D02*
X558729Y-1886129D01*
X544443Y-1900414D01*
X530157Y-1886129D01*
X544443Y-1871843D01*
X544443Y-1900414D01*
X673014Y-1628986D02*
X687300Y-1614700D01*
X715871Y-1600414D01*
X787300Y-1600414D01*
X815871Y-1614700D01*
X830157Y-1628986D01*
X844443Y-1657557D01*
X844443Y-1686129D01*
X830157Y-1728986D01*
X658728Y-1900414D01*
X844443Y-1900414D01*
X1030157Y-1600414D02*
X1058729Y-1600414D01*
X1087300Y-1614700D01*
X1101586Y-1628986D01*
X1115871Y-1657557D01*
X1130157Y-1714700D01*
X1130157Y-1786129D01*
X1115871Y-1843271D01*
X1101586Y-1871843D01*
X1087300Y-1886129D01*
X1058729Y-1900414D01*
X1030157Y-1900414D01*
X1001586Y-1886129D01*
X987300Y-1871843D01*
X973014Y-1843271D01*
X958728Y-1786129D01*
X958728Y-1714700D01*
X973014Y-1657557D01*
X987300Y-1628986D01*
X1001586Y-1614700D01*
X1030157Y-1600414D01*
X1258729Y-1900414D02*
X1258729Y-1700414D01*
X1258729Y-1728986D02*
X1273014Y-1714700D01*
X1301586Y-1700414D01*
X1344443Y-1700414D01*
X1373014Y-1714700D01*
X1387300Y-1743271D01*
X1387300Y-1900414D01*
X1387300Y-1743271D02*
X1401586Y-1714700D01*
X1430157Y-1700414D01*
X1473014Y-1700414D01*
X1501586Y-1714700D01*
X1515871Y-1743271D01*
X1515871Y-1900414D01*
X1658728Y-1900414D02*
X1658728Y-1700414D01*
X1658728Y-1728986D02*
X1673014Y-1714700D01*
X1701586Y-1700414D01*
X1744443Y-1700414D01*
X1773014Y-1714700D01*
X1787300Y-1743271D01*
X1787300Y-1900414D01*
X1787300Y-1743271D02*
X1801586Y-1714700D01*
X1830157Y-1700414D01*
X1873014Y-1700414D01*
X1901586Y-1714700D01*
X1915871Y-1743271D01*
X1915871Y-1900414D01*
X2501586Y-1586129D02*
X2244443Y-1971843D01*
X2887300Y-1600414D02*
X2915871Y-1600414D01*
X2944443Y-1614700D01*
X2958728Y-1628986D01*
X2973014Y-1657557D01*
X2987300Y-1714700D01*
X2987300Y-1786129D01*
X2973014Y-1843271D01*
X2958728Y-1871843D01*
X2944443Y-1886129D01*
X2915871Y-1900414D01*
X2887300Y-1900414D01*
X2858728Y-1886129D01*
X2844443Y-1871843D01*
X2830157Y-1843271D01*
X2815871Y-1786129D01*
X2815871Y-1714700D01*
X2830157Y-1657557D01*
X2844443Y-1628986D01*
X2858728Y-1614700D01*
X2887300Y-1600414D01*
X3115871Y-1871843D02*
X3130157Y-1886129D01*
X3115871Y-1900414D01*
X3101586Y-1886129D01*
X3115871Y-1871843D01*
X3115871Y-1900414D01*
X3315871Y-1600414D02*
X3344443Y-1600414D01*
X3373014Y-1614700D01*
X3387300Y-1628986D01*
X3401585Y-1657557D01*
X3415871Y-1714700D01*
X3415871Y-1786129D01*
X3401585Y-1843271D01*
X3387300Y-1871843D01*
X3373014Y-1886129D01*
X3344443Y-1900414D01*
X3315871Y-1900414D01*
X3287300Y-1886129D01*
X3273014Y-1871843D01*
X3258728Y-1843271D01*
X3244443Y-1786129D01*
X3244443Y-1714700D01*
X3258728Y-1657557D01*
X3273014Y-1628986D01*
X3287300Y-1614700D01*
X3315871Y-1600414D01*
X3673014Y-1700414D02*
X3673014Y-1900414D01*
X3601585Y-1586129D02*
X3530157Y-1800414D01*
X3715871Y-1800414D01*
X3801585Y-1600414D02*
X4001585Y-1600414D01*
X3873014Y-1900414D01*
X4101586Y-1600414D02*
X4101586Y-1657557D01*
X4215871Y-1600414D02*
X4215871Y-1657557D01*
X4658728Y-2014700D02*
X4644443Y-2000414D01*
X4615871Y-1957557D01*
X4601586Y-1928986D01*
X4587300Y-1886129D01*
X4573014Y-1814700D01*
X4573014Y-1757557D01*
X4587300Y-1686129D01*
X4601586Y-1643271D01*
X4615871Y-1614700D01*
X4644443Y-1571843D01*
X4658728Y-1557557D01*
X4758728Y-1628986D02*
X4773014Y-1614700D01*
X4801586Y-1600414D01*
X4873014Y-1600414D01*
X4901586Y-1614700D01*
X4915871Y-1628986D01*
X4930157Y-1657557D01*
X4930157Y-1686129D01*
X4915871Y-1728986D01*
X4744443Y-1900414D01*
X4930157Y-1900414D01*
X5287300Y-1900414D02*
X5287300Y-1600414D01*
X5415871Y-1900414D02*
X5415871Y-1743271D01*
X5401586Y-1714700D01*
X5373014Y-1700414D01*
X5330157Y-1700414D01*
X5301586Y-1714700D01*
X5287300Y-1728986D01*
X5601585Y-1900414D02*
X5573014Y-1886129D01*
X5558728Y-1871843D01*
X5544443Y-1843271D01*
X5544443Y-1757557D01*
X5558728Y-1728986D01*
X5573014Y-1714700D01*
X5601585Y-1700414D01*
X5644443Y-1700414D01*
X5673014Y-1714700D01*
X5687300Y-1728986D01*
X5701585Y-1757557D01*
X5701585Y-1843271D01*
X5687300Y-1871843D01*
X5673014Y-1886129D01*
X5644443Y-1900414D01*
X5601585Y-1900414D01*
X5873014Y-1900414D02*
X5844443Y-1886129D01*
X5830157Y-1857557D01*
X5830157Y-1600414D01*
X6101586Y-1886129D02*
X6073014Y-1900414D01*
X6015871Y-1900414D01*
X5987300Y-1886129D01*
X5973014Y-1857557D01*
X5973014Y-1743271D01*
X5987300Y-1714700D01*
X6015871Y-1700414D01*
X6073014Y-1700414D01*
X6101586Y-1714700D01*
X6115871Y-1743271D01*
X6115871Y-1771843D01*
X5973014Y-1800414D01*
X6230157Y-1886129D02*
X6258728Y-1900414D01*
X6315871Y-1900414D01*
X6344443Y-1886129D01*
X6358728Y-1857557D01*
X6358728Y-1843271D01*
X6344443Y-1814700D01*
X6315871Y-1800414D01*
X6273014Y-1800414D01*
X6244443Y-1786129D01*
X6230157Y-1757557D01*
X6230157Y-1743271D01*
X6244443Y-1714700D01*
X6273014Y-1700414D01*
X6315871Y-1700414D01*
X6344443Y-1714700D01*
X6458728Y-2014700D02*
X6473014Y-2000414D01*
X6501586Y-1957557D01*
X6515871Y-1928986D01*
X6530157Y-1886129D01*
X6544443Y-1814700D01*
X6544443Y-1757557D01*
X6530157Y-1686129D01*
X6515871Y-1643271D01*
X6501586Y-1614700D01*
X6473014Y-1571843D01*
X6458728Y-1557557D01*
M02*
