G04 #@! TF.FileFunction,Soldermask,Top*
%FSLAX46Y46*%
G04 Gerber Fmt 4.6, Leading zero omitted, Abs format (unit mm)*
G04 Created by KiCad (PCBNEW 4.0.2-4+6225~38~ubuntu15.04.1-stable) date Fri Mar 18 16:27:35 2016*
%MOMM*%
G01*
G04 APERTURE LIST*
%ADD10C,0.254000*%
%ADD11C,1.708000*%
%ADD12C,6.108000*%
%ADD13C,1.905000*%
G04 APERTURE END LIST*
D10*
G36*
X53113834Y11854264D02*
X54462994Y13203424D01*
X55812154Y11854264D01*
X54462994Y10505104D01*
X53113834Y11854264D01*
X53113834Y11854264D01*
G37*
G36*
X56225104Y8742994D02*
X57574264Y10092154D01*
X58923424Y8742994D01*
X57574264Y7393834D01*
X56225104Y8742994D01*
X56225104Y8742994D01*
G37*
G36*
X57391831Y9909720D02*
X58670280Y11188169D01*
X60019439Y9839010D01*
X58740990Y8560561D01*
X57391831Y9909720D01*
X57391831Y9909720D01*
G37*
G36*
X54280561Y13020990D02*
X55559010Y14299439D01*
X56908169Y12950280D01*
X55629720Y11671831D01*
X54280561Y13020990D01*
X54280561Y13020990D01*
G37*
G36*
X55376576Y14117006D02*
X56725736Y15466166D01*
X58074896Y14117006D01*
X56725736Y12767846D01*
X55376576Y14117006D01*
X55376576Y14117006D01*
G37*
G36*
X58487846Y11005736D02*
X59837006Y12354896D01*
X61186166Y11005736D01*
X59837006Y9656576D01*
X58487846Y11005736D01*
X58487846Y11005736D01*
G37*
D11*
X55452944Y11005736D03*
X56725736Y9732944D03*
D10*
G36*
X37873834Y42334264D02*
X39222994Y43683424D01*
X40572154Y42334264D01*
X39222994Y40985104D01*
X37873834Y42334264D01*
X37873834Y42334264D01*
G37*
G36*
X40985104Y39222994D02*
X42334264Y40572154D01*
X43683424Y39222994D01*
X42334264Y37873834D01*
X40985104Y39222994D01*
X40985104Y39222994D01*
G37*
G36*
X42151831Y40389720D02*
X43430280Y41668169D01*
X44779439Y40319010D01*
X43500990Y39040561D01*
X42151831Y40389720D01*
X42151831Y40389720D01*
G37*
G36*
X39040561Y43500990D02*
X40319010Y44779439D01*
X41668169Y43430280D01*
X40389720Y42151831D01*
X39040561Y43500990D01*
X39040561Y43500990D01*
G37*
G36*
X40136576Y44597006D02*
X41485736Y45946166D01*
X42834896Y44597006D01*
X41485736Y43247846D01*
X40136576Y44597006D01*
X40136576Y44597006D01*
G37*
G36*
X43247846Y41485736D02*
X44597006Y42834896D01*
X45946166Y41485736D01*
X44597006Y40136576D01*
X43247846Y41485736D01*
X43247846Y41485736D01*
G37*
D11*
X40212944Y41485736D03*
X41485736Y40212944D03*
D10*
G36*
X57574264Y7846166D02*
X58923424Y6497006D01*
X57574264Y5147846D01*
X56225104Y6497006D01*
X57574264Y7846166D01*
X57574264Y7846166D01*
G37*
G36*
X54462994Y4734896D02*
X55812154Y3385736D01*
X54462994Y2036576D01*
X53113834Y3385736D01*
X54462994Y4734896D01*
X54462994Y4734896D01*
G37*
G36*
X55629720Y3568169D02*
X56908169Y2289720D01*
X55559010Y940561D01*
X54280561Y2219010D01*
X55629720Y3568169D01*
X55629720Y3568169D01*
G37*
G36*
X58740990Y6679439D02*
X60019439Y5400990D01*
X58670280Y4051831D01*
X57391831Y5330280D01*
X58740990Y6679439D01*
X58740990Y6679439D01*
G37*
G36*
X59837006Y5583424D02*
X61186166Y4234264D01*
X59837006Y2885104D01*
X58487846Y4234264D01*
X59837006Y5583424D01*
X59837006Y5583424D01*
G37*
G36*
X56725736Y2472154D02*
X58074896Y1122994D01*
X56725736Y-226166D01*
X55376576Y1122994D01*
X56725736Y2472154D01*
X56725736Y2472154D01*
G37*
D11*
X56725736Y5507056D03*
X55452944Y4234264D03*
D10*
G36*
X53566166Y3385736D02*
X52217006Y2036576D01*
X50867846Y3385736D01*
X52217006Y4734896D01*
X53566166Y3385736D01*
X53566166Y3385736D01*
G37*
G36*
X50454896Y6497006D02*
X49105736Y5147846D01*
X47756576Y6497006D01*
X49105736Y7846166D01*
X50454896Y6497006D01*
X50454896Y6497006D01*
G37*
G36*
X49288169Y5330280D02*
X48009720Y4051831D01*
X46660561Y5400990D01*
X47939010Y6679439D01*
X49288169Y5330280D01*
X49288169Y5330280D01*
G37*
G36*
X52399439Y2219010D02*
X51120990Y940561D01*
X49771831Y2289720D01*
X51050280Y3568169D01*
X52399439Y2219010D01*
X52399439Y2219010D01*
G37*
G36*
X51303424Y1122994D02*
X49954264Y-226166D01*
X48605104Y1122994D01*
X49954264Y2472154D01*
X51303424Y1122994D01*
X51303424Y1122994D01*
G37*
G36*
X48192154Y4234264D02*
X46842994Y2885104D01*
X45493834Y4234264D01*
X46842994Y5583424D01*
X48192154Y4234264D01*
X48192154Y4234264D01*
G37*
D11*
X51227056Y4234264D03*
X49954264Y5507056D03*
D10*
G36*
X42334264Y7846166D02*
X43683424Y6497006D01*
X42334264Y5147846D01*
X40985104Y6497006D01*
X42334264Y7846166D01*
X42334264Y7846166D01*
G37*
G36*
X39222994Y4734896D02*
X40572154Y3385736D01*
X39222994Y2036576D01*
X37873834Y3385736D01*
X39222994Y4734896D01*
X39222994Y4734896D01*
G37*
G36*
X40389720Y3568169D02*
X41668169Y2289720D01*
X40319010Y940561D01*
X39040561Y2219010D01*
X40389720Y3568169D01*
X40389720Y3568169D01*
G37*
G36*
X43500990Y6679439D02*
X44779439Y5400990D01*
X43430280Y4051831D01*
X42151831Y5330280D01*
X43500990Y6679439D01*
X43500990Y6679439D01*
G37*
G36*
X44597006Y5583424D02*
X45946166Y4234264D01*
X44597006Y2885104D01*
X43247846Y4234264D01*
X44597006Y5583424D01*
X44597006Y5583424D01*
G37*
G36*
X41485736Y2472154D02*
X42834896Y1122994D01*
X41485736Y-226166D01*
X40136576Y1122994D01*
X41485736Y2472154D01*
X41485736Y2472154D01*
G37*
D11*
X41485736Y5507056D03*
X40212944Y4234264D03*
D10*
G36*
X38326166Y3385736D02*
X36977006Y2036576D01*
X35627846Y3385736D01*
X36977006Y4734896D01*
X38326166Y3385736D01*
X38326166Y3385736D01*
G37*
G36*
X35214896Y6497006D02*
X33865736Y5147846D01*
X32516576Y6497006D01*
X33865736Y7846166D01*
X35214896Y6497006D01*
X35214896Y6497006D01*
G37*
G36*
X34048169Y5330280D02*
X32769720Y4051831D01*
X31420561Y5400990D01*
X32699010Y6679439D01*
X34048169Y5330280D01*
X34048169Y5330280D01*
G37*
G36*
X37159439Y2219010D02*
X35880990Y940561D01*
X34531831Y2289720D01*
X35810280Y3568169D01*
X37159439Y2219010D01*
X37159439Y2219010D01*
G37*
G36*
X36063424Y1122994D02*
X34714264Y-226166D01*
X33365104Y1122994D01*
X34714264Y2472154D01*
X36063424Y1122994D01*
X36063424Y1122994D01*
G37*
G36*
X32952154Y4234264D02*
X31602994Y2885104D01*
X30253834Y4234264D01*
X31602994Y5583424D01*
X32952154Y4234264D01*
X32952154Y4234264D01*
G37*
D11*
X35987056Y4234264D03*
X34714264Y5507056D03*
D10*
G36*
X27094264Y7846166D02*
X28443424Y6497006D01*
X27094264Y5147846D01*
X25745104Y6497006D01*
X27094264Y7846166D01*
X27094264Y7846166D01*
G37*
G36*
X23982994Y4734896D02*
X25332154Y3385736D01*
X23982994Y2036576D01*
X22633834Y3385736D01*
X23982994Y4734896D01*
X23982994Y4734896D01*
G37*
G36*
X25149720Y3568169D02*
X26428169Y2289720D01*
X25079010Y940561D01*
X23800561Y2219010D01*
X25149720Y3568169D01*
X25149720Y3568169D01*
G37*
G36*
X28260990Y6679439D02*
X29539439Y5400990D01*
X28190280Y4051831D01*
X26911831Y5330280D01*
X28260990Y6679439D01*
X28260990Y6679439D01*
G37*
G36*
X29357006Y5583424D02*
X30706166Y4234264D01*
X29357006Y2885104D01*
X28007846Y4234264D01*
X29357006Y5583424D01*
X29357006Y5583424D01*
G37*
G36*
X26245736Y2472154D02*
X27594896Y1122994D01*
X26245736Y-226166D01*
X24896576Y1122994D01*
X26245736Y2472154D01*
X26245736Y2472154D01*
G37*
D11*
X26245736Y5507056D03*
X24972944Y4234264D03*
D10*
G36*
X23086166Y3385736D02*
X21737006Y2036576D01*
X20387846Y3385736D01*
X21737006Y4734896D01*
X23086166Y3385736D01*
X23086166Y3385736D01*
G37*
G36*
X19974896Y6497006D02*
X18625736Y5147846D01*
X17276576Y6497006D01*
X18625736Y7846166D01*
X19974896Y6497006D01*
X19974896Y6497006D01*
G37*
G36*
X18808169Y5330280D02*
X17529720Y4051831D01*
X16180561Y5400990D01*
X17459010Y6679439D01*
X18808169Y5330280D01*
X18808169Y5330280D01*
G37*
G36*
X21919439Y2219010D02*
X20640990Y940561D01*
X19291831Y2289720D01*
X20570280Y3568169D01*
X21919439Y2219010D01*
X21919439Y2219010D01*
G37*
G36*
X20823424Y1122994D02*
X19474264Y-226166D01*
X18125104Y1122994D01*
X19474264Y2472154D01*
X20823424Y1122994D01*
X20823424Y1122994D01*
G37*
G36*
X17712154Y4234264D02*
X16362994Y2885104D01*
X15013834Y4234264D01*
X16362994Y5583424D01*
X17712154Y4234264D01*
X17712154Y4234264D01*
G37*
D11*
X20747056Y4234264D03*
X19474264Y5507056D03*
D10*
G36*
X11854264Y7846166D02*
X13203424Y6497006D01*
X11854264Y5147846D01*
X10505104Y6497006D01*
X11854264Y7846166D01*
X11854264Y7846166D01*
G37*
G36*
X8742994Y4734896D02*
X10092154Y3385736D01*
X8742994Y2036576D01*
X7393834Y3385736D01*
X8742994Y4734896D01*
X8742994Y4734896D01*
G37*
G36*
X9909720Y3568169D02*
X11188169Y2289720D01*
X9839010Y940561D01*
X8560561Y2219010D01*
X9909720Y3568169D01*
X9909720Y3568169D01*
G37*
G36*
X13020990Y6679439D02*
X14299439Y5400990D01*
X12950280Y4051831D01*
X11671831Y5330280D01*
X13020990Y6679439D01*
X13020990Y6679439D01*
G37*
G36*
X14117006Y5583424D02*
X15466166Y4234264D01*
X14117006Y2885104D01*
X12767846Y4234264D01*
X14117006Y5583424D01*
X14117006Y5583424D01*
G37*
G36*
X11005736Y2472154D02*
X12354896Y1122994D01*
X11005736Y-226166D01*
X9656576Y1122994D01*
X11005736Y2472154D01*
X11005736Y2472154D01*
G37*
D11*
X11005736Y5507056D03*
X9732944Y4234264D03*
D10*
G36*
X7846166Y3385736D02*
X6497006Y2036576D01*
X5147846Y3385736D01*
X6497006Y4734896D01*
X7846166Y3385736D01*
X7846166Y3385736D01*
G37*
G36*
X4734896Y6497006D02*
X3385736Y5147846D01*
X2036576Y6497006D01*
X3385736Y7846166D01*
X4734896Y6497006D01*
X4734896Y6497006D01*
G37*
G36*
X3568169Y5330280D02*
X2289720Y4051831D01*
X940561Y5400990D01*
X2219010Y6679439D01*
X3568169Y5330280D01*
X3568169Y5330280D01*
G37*
G36*
X6679439Y2219010D02*
X5400990Y940561D01*
X4051831Y2289720D01*
X5330280Y3568169D01*
X6679439Y2219010D01*
X6679439Y2219010D01*
G37*
G36*
X5583424Y1122994D02*
X4234264Y-226166D01*
X2885104Y1122994D01*
X4234264Y2472154D01*
X5583424Y1122994D01*
X5583424Y1122994D01*
G37*
G36*
X2472154Y4234264D02*
X1122994Y2885104D01*
X-226166Y4234264D01*
X1122994Y5583424D01*
X2472154Y4234264D01*
X2472154Y4234264D01*
G37*
D11*
X5507056Y4234264D03*
X4234264Y5507056D03*
D10*
G36*
X3385736Y22633834D02*
X2036576Y23982994D01*
X3385736Y25332154D01*
X4734896Y23982994D01*
X3385736Y22633834D01*
X3385736Y22633834D01*
G37*
G36*
X6497006Y25745104D02*
X5147846Y27094264D01*
X6497006Y28443424D01*
X7846166Y27094264D01*
X6497006Y25745104D01*
X6497006Y25745104D01*
G37*
G36*
X5330280Y26911831D02*
X4051831Y28190280D01*
X5400990Y29539439D01*
X6679439Y28260990D01*
X5330280Y26911831D01*
X5330280Y26911831D01*
G37*
G36*
X2219010Y23800561D02*
X940561Y25079010D01*
X2289720Y26428169D01*
X3568169Y25149720D01*
X2219010Y23800561D01*
X2219010Y23800561D01*
G37*
G36*
X1122994Y24896576D02*
X-226166Y26245736D01*
X1122994Y27594896D01*
X2472154Y26245736D01*
X1122994Y24896576D01*
X1122994Y24896576D01*
G37*
G36*
X4234264Y28007846D02*
X2885104Y29357006D01*
X4234264Y30706166D01*
X5583424Y29357006D01*
X4234264Y28007846D01*
X4234264Y28007846D01*
G37*
D11*
X4234264Y24972944D03*
X5507056Y26245736D03*
D10*
G36*
X3385736Y7393834D02*
X2036576Y8742994D01*
X3385736Y10092154D01*
X4734896Y8742994D01*
X3385736Y7393834D01*
X3385736Y7393834D01*
G37*
G36*
X6497006Y10505104D02*
X5147846Y11854264D01*
X6497006Y13203424D01*
X7846166Y11854264D01*
X6497006Y10505104D01*
X6497006Y10505104D01*
G37*
G36*
X5330280Y11671831D02*
X4051831Y12950280D01*
X5400990Y14299439D01*
X6679439Y13020990D01*
X5330280Y11671831D01*
X5330280Y11671831D01*
G37*
G36*
X2219010Y8560561D02*
X940561Y9839010D01*
X2289720Y11188169D01*
X3568169Y9909720D01*
X2219010Y8560561D01*
X2219010Y8560561D01*
G37*
G36*
X1122994Y9656576D02*
X-226166Y11005736D01*
X1122994Y12354896D01*
X2472154Y11005736D01*
X1122994Y9656576D01*
X1122994Y9656576D01*
G37*
G36*
X4234264Y12767846D02*
X2885104Y14117006D01*
X4234264Y15466166D01*
X5583424Y14117006D01*
X4234264Y12767846D01*
X4234264Y12767846D01*
G37*
D11*
X4234264Y9732944D03*
X5507056Y11005736D03*
D10*
G36*
X7846166Y18625736D02*
X6497006Y17276576D01*
X5147846Y18625736D01*
X6497006Y19974896D01*
X7846166Y18625736D01*
X7846166Y18625736D01*
G37*
G36*
X4734896Y21737006D02*
X3385736Y20387846D01*
X2036576Y21737006D01*
X3385736Y23086166D01*
X4734896Y21737006D01*
X4734896Y21737006D01*
G37*
G36*
X3568169Y20570280D02*
X2289720Y19291831D01*
X940561Y20640990D01*
X2219010Y21919439D01*
X3568169Y20570280D01*
X3568169Y20570280D01*
G37*
G36*
X6679439Y17459010D02*
X5400990Y16180561D01*
X4051831Y17529720D01*
X5330280Y18808169D01*
X6679439Y17459010D01*
X6679439Y17459010D01*
G37*
G36*
X5583424Y16362994D02*
X4234264Y15013834D01*
X2885104Y16362994D01*
X4234264Y17712154D01*
X5583424Y16362994D01*
X5583424Y16362994D01*
G37*
G36*
X2472154Y19474264D02*
X1122994Y18125104D01*
X-226166Y19474264D01*
X1122994Y20823424D01*
X2472154Y19474264D01*
X2472154Y19474264D01*
G37*
D11*
X5507056Y19474264D03*
X4234264Y20747056D03*
D10*
G36*
X7846166Y49105736D02*
X6497006Y47756576D01*
X5147846Y49105736D01*
X6497006Y50454896D01*
X7846166Y49105736D01*
X7846166Y49105736D01*
G37*
G36*
X4734896Y52217006D02*
X3385736Y50867846D01*
X2036576Y52217006D01*
X3385736Y53566166D01*
X4734896Y52217006D01*
X4734896Y52217006D01*
G37*
G36*
X3568169Y51050280D02*
X2289720Y49771831D01*
X940561Y51120990D01*
X2219010Y52399439D01*
X3568169Y51050280D01*
X3568169Y51050280D01*
G37*
G36*
X6679439Y47939010D02*
X5400990Y46660561D01*
X4051831Y48009720D01*
X5330280Y49288169D01*
X6679439Y47939010D01*
X6679439Y47939010D01*
G37*
G36*
X5583424Y46842994D02*
X4234264Y45493834D01*
X2885104Y46842994D01*
X4234264Y48192154D01*
X5583424Y46842994D01*
X5583424Y46842994D01*
G37*
G36*
X2472154Y49954264D02*
X1122994Y48605104D01*
X-226166Y49954264D01*
X1122994Y51303424D01*
X2472154Y49954264D01*
X2472154Y49954264D01*
G37*
D11*
X5507056Y49954264D03*
X4234264Y51227056D03*
D10*
G36*
X3385736Y53113834D02*
X2036576Y54462994D01*
X3385736Y55812154D01*
X4734896Y54462994D01*
X3385736Y53113834D01*
X3385736Y53113834D01*
G37*
G36*
X6497006Y56225104D02*
X5147846Y57574264D01*
X6497006Y58923424D01*
X7846166Y57574264D01*
X6497006Y56225104D01*
X6497006Y56225104D01*
G37*
G36*
X5330280Y57391831D02*
X4051831Y58670280D01*
X5400990Y60019439D01*
X6679439Y58740990D01*
X5330280Y57391831D01*
X5330280Y57391831D01*
G37*
G36*
X2219010Y54280561D02*
X940561Y55559010D01*
X2289720Y56908169D01*
X3568169Y55629720D01*
X2219010Y54280561D01*
X2219010Y54280561D01*
G37*
G36*
X1122994Y55376576D02*
X-226166Y56725736D01*
X1122994Y58074896D01*
X2472154Y56725736D01*
X1122994Y55376576D01*
X1122994Y55376576D01*
G37*
G36*
X4234264Y58487846D02*
X2885104Y59837006D01*
X4234264Y61186166D01*
X5583424Y59837006D01*
X4234264Y58487846D01*
X4234264Y58487846D01*
G37*
D11*
X4234264Y55452944D03*
X5507056Y56725736D03*
D10*
G36*
X7393834Y57574264D02*
X8742994Y58923424D01*
X10092154Y57574264D01*
X8742994Y56225104D01*
X7393834Y57574264D01*
X7393834Y57574264D01*
G37*
G36*
X10505104Y54462994D02*
X11854264Y55812154D01*
X13203424Y54462994D01*
X11854264Y53113834D01*
X10505104Y54462994D01*
X10505104Y54462994D01*
G37*
G36*
X11671831Y55629720D02*
X12950280Y56908169D01*
X14299439Y55559010D01*
X13020990Y54280561D01*
X11671831Y55629720D01*
X11671831Y55629720D01*
G37*
G36*
X8560561Y58740990D02*
X9839010Y60019439D01*
X11188169Y58670280D01*
X9909720Y57391831D01*
X8560561Y58740990D01*
X8560561Y58740990D01*
G37*
G36*
X9656576Y59837006D02*
X11005736Y61186166D01*
X12354896Y59837006D01*
X11005736Y58487846D01*
X9656576Y59837006D01*
X9656576Y59837006D01*
G37*
G36*
X12767846Y56725736D02*
X14117006Y58074896D01*
X15466166Y56725736D01*
X14117006Y55376576D01*
X12767846Y56725736D01*
X12767846Y56725736D01*
G37*
D11*
X9732944Y56725736D03*
X11005736Y55452944D03*
D10*
G36*
X11854264Y53566166D02*
X13203424Y52217006D01*
X11854264Y50867846D01*
X10505104Y52217006D01*
X11854264Y53566166D01*
X11854264Y53566166D01*
G37*
G36*
X8742994Y50454896D02*
X10092154Y49105736D01*
X8742994Y47756576D01*
X7393834Y49105736D01*
X8742994Y50454896D01*
X8742994Y50454896D01*
G37*
G36*
X9909720Y49288169D02*
X11188169Y48009720D01*
X9839010Y46660561D01*
X8560561Y47939010D01*
X9909720Y49288169D01*
X9909720Y49288169D01*
G37*
G36*
X13020990Y52399439D02*
X14299439Y51120990D01*
X12950280Y49771831D01*
X11671831Y51050280D01*
X13020990Y52399439D01*
X13020990Y52399439D01*
G37*
G36*
X14117006Y51303424D02*
X15466166Y49954264D01*
X14117006Y48605104D01*
X12767846Y49954264D01*
X14117006Y51303424D01*
X14117006Y51303424D01*
G37*
G36*
X11005736Y48192154D02*
X12354896Y46842994D01*
X11005736Y45493834D01*
X9656576Y46842994D01*
X11005736Y48192154D01*
X11005736Y48192154D01*
G37*
D11*
X11005736Y51227056D03*
X9732944Y49954264D03*
D10*
G36*
X7393834Y27094264D02*
X8742994Y28443424D01*
X10092154Y27094264D01*
X8742994Y25745104D01*
X7393834Y27094264D01*
X7393834Y27094264D01*
G37*
G36*
X10505104Y23982994D02*
X11854264Y25332154D01*
X13203424Y23982994D01*
X11854264Y22633834D01*
X10505104Y23982994D01*
X10505104Y23982994D01*
G37*
G36*
X11671831Y25149720D02*
X12950280Y26428169D01*
X14299439Y25079010D01*
X13020990Y23800561D01*
X11671831Y25149720D01*
X11671831Y25149720D01*
G37*
G36*
X8560561Y28260990D02*
X9839010Y29539439D01*
X11188169Y28190280D01*
X9909720Y26911831D01*
X8560561Y28260990D01*
X8560561Y28260990D01*
G37*
G36*
X9656576Y29357006D02*
X11005736Y30706166D01*
X12354896Y29357006D01*
X11005736Y28007846D01*
X9656576Y29357006D01*
X9656576Y29357006D01*
G37*
G36*
X12767846Y26245736D02*
X14117006Y27594896D01*
X15466166Y26245736D01*
X14117006Y24896576D01*
X12767846Y26245736D01*
X12767846Y26245736D01*
G37*
D11*
X9732944Y26245736D03*
X11005736Y24972944D03*
D10*
G36*
X11854264Y23086166D02*
X13203424Y21737006D01*
X11854264Y20387846D01*
X10505104Y21737006D01*
X11854264Y23086166D01*
X11854264Y23086166D01*
G37*
G36*
X8742994Y19974896D02*
X10092154Y18625736D01*
X8742994Y17276576D01*
X7393834Y18625736D01*
X8742994Y19974896D01*
X8742994Y19974896D01*
G37*
G36*
X9909720Y18808169D02*
X11188169Y17529720D01*
X9839010Y16180561D01*
X8560561Y17459010D01*
X9909720Y18808169D01*
X9909720Y18808169D01*
G37*
G36*
X13020990Y21919439D02*
X14299439Y20640990D01*
X12950280Y19291831D01*
X11671831Y20570280D01*
X13020990Y21919439D01*
X13020990Y21919439D01*
G37*
G36*
X14117006Y20823424D02*
X15466166Y19474264D01*
X14117006Y18125104D01*
X12767846Y19474264D01*
X14117006Y20823424D01*
X14117006Y20823424D01*
G37*
G36*
X11005736Y17712154D02*
X12354896Y16362994D01*
X11005736Y15013834D01*
X9656576Y16362994D01*
X11005736Y17712154D01*
X11005736Y17712154D01*
G37*
D11*
X11005736Y20747056D03*
X9732944Y19474264D03*
D10*
G36*
X7393834Y11854264D02*
X8742994Y13203424D01*
X10092154Y11854264D01*
X8742994Y10505104D01*
X7393834Y11854264D01*
X7393834Y11854264D01*
G37*
G36*
X10505104Y8742994D02*
X11854264Y10092154D01*
X13203424Y8742994D01*
X11854264Y7393834D01*
X10505104Y8742994D01*
X10505104Y8742994D01*
G37*
G36*
X11671831Y9909720D02*
X12950280Y11188169D01*
X14299439Y9839010D01*
X13020990Y8560561D01*
X11671831Y9909720D01*
X11671831Y9909720D01*
G37*
G36*
X8560561Y13020990D02*
X9839010Y14299439D01*
X11188169Y12950280D01*
X9909720Y11671831D01*
X8560561Y13020990D01*
X8560561Y13020990D01*
G37*
G36*
X9656576Y14117006D02*
X11005736Y15466166D01*
X12354896Y14117006D01*
X11005736Y12767846D01*
X9656576Y14117006D01*
X9656576Y14117006D01*
G37*
G36*
X12767846Y11005736D02*
X14117006Y12354896D01*
X15466166Y11005736D01*
X14117006Y9656576D01*
X12767846Y11005736D01*
X12767846Y11005736D01*
G37*
D11*
X9732944Y11005736D03*
X11005736Y9732944D03*
D10*
G36*
X18625736Y7393834D02*
X17276576Y8742994D01*
X18625736Y10092154D01*
X19974896Y8742994D01*
X18625736Y7393834D01*
X18625736Y7393834D01*
G37*
G36*
X21737006Y10505104D02*
X20387846Y11854264D01*
X21737006Y13203424D01*
X23086166Y11854264D01*
X21737006Y10505104D01*
X21737006Y10505104D01*
G37*
G36*
X20570280Y11671831D02*
X19291831Y12950280D01*
X20640990Y14299439D01*
X21919439Y13020990D01*
X20570280Y11671831D01*
X20570280Y11671831D01*
G37*
G36*
X17459010Y8560561D02*
X16180561Y9839010D01*
X17529720Y11188169D01*
X18808169Y9909720D01*
X17459010Y8560561D01*
X17459010Y8560561D01*
G37*
G36*
X16362994Y9656576D02*
X15013834Y11005736D01*
X16362994Y12354896D01*
X17712154Y11005736D01*
X16362994Y9656576D01*
X16362994Y9656576D01*
G37*
G36*
X19474264Y12767846D02*
X18125104Y14117006D01*
X19474264Y15466166D01*
X20823424Y14117006D01*
X19474264Y12767846D01*
X19474264Y12767846D01*
G37*
D11*
X19474264Y9732944D03*
X20747056Y11005736D03*
D10*
G36*
X18625736Y22633834D02*
X17276576Y23982994D01*
X18625736Y25332154D01*
X19974896Y23982994D01*
X18625736Y22633834D01*
X18625736Y22633834D01*
G37*
G36*
X21737006Y25745104D02*
X20387846Y27094264D01*
X21737006Y28443424D01*
X23086166Y27094264D01*
X21737006Y25745104D01*
X21737006Y25745104D01*
G37*
G36*
X20570280Y26911831D02*
X19291831Y28190280D01*
X20640990Y29539439D01*
X21919439Y28260990D01*
X20570280Y26911831D01*
X20570280Y26911831D01*
G37*
G36*
X17459010Y23800561D02*
X16180561Y25079010D01*
X17529720Y26428169D01*
X18808169Y25149720D01*
X17459010Y23800561D01*
X17459010Y23800561D01*
G37*
G36*
X16362994Y24896576D02*
X15013834Y26245736D01*
X16362994Y27594896D01*
X17712154Y26245736D01*
X16362994Y24896576D01*
X16362994Y24896576D01*
G37*
G36*
X19474264Y28007846D02*
X18125104Y29357006D01*
X19474264Y30706166D01*
X20823424Y29357006D01*
X19474264Y28007846D01*
X19474264Y28007846D01*
G37*
D11*
X19474264Y24972944D03*
X20747056Y26245736D03*
D10*
G36*
X23086166Y33865736D02*
X21737006Y32516576D01*
X20387846Y33865736D01*
X21737006Y35214896D01*
X23086166Y33865736D01*
X23086166Y33865736D01*
G37*
G36*
X19974896Y36977006D02*
X18625736Y35627846D01*
X17276576Y36977006D01*
X18625736Y38326166D01*
X19974896Y36977006D01*
X19974896Y36977006D01*
G37*
G36*
X18808169Y35810280D02*
X17529720Y34531831D01*
X16180561Y35880990D01*
X17459010Y37159439D01*
X18808169Y35810280D01*
X18808169Y35810280D01*
G37*
G36*
X21919439Y32699010D02*
X20640990Y31420561D01*
X19291831Y32769720D01*
X20570280Y34048169D01*
X21919439Y32699010D01*
X21919439Y32699010D01*
G37*
G36*
X20823424Y31602994D02*
X19474264Y30253834D01*
X18125104Y31602994D01*
X19474264Y32952154D01*
X20823424Y31602994D01*
X20823424Y31602994D01*
G37*
G36*
X17712154Y34714264D02*
X16362994Y33365104D01*
X15013834Y34714264D01*
X16362994Y36063424D01*
X17712154Y34714264D01*
X17712154Y34714264D01*
G37*
D11*
X20747056Y34714264D03*
X19474264Y35987056D03*
D10*
G36*
X18625736Y37873834D02*
X17276576Y39222994D01*
X18625736Y40572154D01*
X19974896Y39222994D01*
X18625736Y37873834D01*
X18625736Y37873834D01*
G37*
G36*
X21737006Y40985104D02*
X20387846Y42334264D01*
X21737006Y43683424D01*
X23086166Y42334264D01*
X21737006Y40985104D01*
X21737006Y40985104D01*
G37*
G36*
X20570280Y42151831D02*
X19291831Y43430280D01*
X20640990Y44779439D01*
X21919439Y43500990D01*
X20570280Y42151831D01*
X20570280Y42151831D01*
G37*
G36*
X17459010Y39040561D02*
X16180561Y40319010D01*
X17529720Y41668169D01*
X18808169Y40389720D01*
X17459010Y39040561D01*
X17459010Y39040561D01*
G37*
G36*
X16362994Y40136576D02*
X15013834Y41485736D01*
X16362994Y42834896D01*
X17712154Y41485736D01*
X16362994Y40136576D01*
X16362994Y40136576D01*
G37*
G36*
X19474264Y43247846D02*
X18125104Y44597006D01*
X19474264Y45946166D01*
X20823424Y44597006D01*
X19474264Y43247846D01*
X19474264Y43247846D01*
G37*
D11*
X19474264Y40212944D03*
X20747056Y41485736D03*
D10*
G36*
X18625736Y53113834D02*
X17276576Y54462994D01*
X18625736Y55812154D01*
X19974896Y54462994D01*
X18625736Y53113834D01*
X18625736Y53113834D01*
G37*
G36*
X21737006Y56225104D02*
X20387846Y57574264D01*
X21737006Y58923424D01*
X23086166Y57574264D01*
X21737006Y56225104D01*
X21737006Y56225104D01*
G37*
G36*
X20570280Y57391831D02*
X19291831Y58670280D01*
X20640990Y60019439D01*
X21919439Y58740990D01*
X20570280Y57391831D01*
X20570280Y57391831D01*
G37*
G36*
X17459010Y54280561D02*
X16180561Y55559010D01*
X17529720Y56908169D01*
X18808169Y55629720D01*
X17459010Y54280561D01*
X17459010Y54280561D01*
G37*
G36*
X16362994Y55376576D02*
X15013834Y56725736D01*
X16362994Y58074896D01*
X17712154Y56725736D01*
X16362994Y55376576D01*
X16362994Y55376576D01*
G37*
G36*
X19474264Y58487846D02*
X18125104Y59837006D01*
X19474264Y61186166D01*
X20823424Y59837006D01*
X19474264Y58487846D01*
X19474264Y58487846D01*
G37*
D11*
X19474264Y55452944D03*
X20747056Y56725736D03*
D10*
G36*
X22633834Y57574264D02*
X23982994Y58923424D01*
X25332154Y57574264D01*
X23982994Y56225104D01*
X22633834Y57574264D01*
X22633834Y57574264D01*
G37*
G36*
X25745104Y54462994D02*
X27094264Y55812154D01*
X28443424Y54462994D01*
X27094264Y53113834D01*
X25745104Y54462994D01*
X25745104Y54462994D01*
G37*
G36*
X26911831Y55629720D02*
X28190280Y56908169D01*
X29539439Y55559010D01*
X28260990Y54280561D01*
X26911831Y55629720D01*
X26911831Y55629720D01*
G37*
G36*
X23800561Y58740990D02*
X25079010Y60019439D01*
X26428169Y58670280D01*
X25149720Y57391831D01*
X23800561Y58740990D01*
X23800561Y58740990D01*
G37*
G36*
X24896576Y59837006D02*
X26245736Y61186166D01*
X27594896Y59837006D01*
X26245736Y58487846D01*
X24896576Y59837006D01*
X24896576Y59837006D01*
G37*
G36*
X28007846Y56725736D02*
X29357006Y58074896D01*
X30706166Y56725736D01*
X29357006Y55376576D01*
X28007846Y56725736D01*
X28007846Y56725736D01*
G37*
D11*
X24972944Y56725736D03*
X26245736Y55452944D03*
D10*
G36*
X27094264Y53566166D02*
X28443424Y52217006D01*
X27094264Y50867846D01*
X25745104Y52217006D01*
X27094264Y53566166D01*
X27094264Y53566166D01*
G37*
G36*
X23982994Y50454896D02*
X25332154Y49105736D01*
X23982994Y47756576D01*
X22633834Y49105736D01*
X23982994Y50454896D01*
X23982994Y50454896D01*
G37*
G36*
X25149720Y49288169D02*
X26428169Y48009720D01*
X25079010Y46660561D01*
X23800561Y47939010D01*
X25149720Y49288169D01*
X25149720Y49288169D01*
G37*
G36*
X28260990Y52399439D02*
X29539439Y51120990D01*
X28190280Y49771831D01*
X26911831Y51050280D01*
X28260990Y52399439D01*
X28260990Y52399439D01*
G37*
G36*
X29357006Y51303424D02*
X30706166Y49954264D01*
X29357006Y48605104D01*
X28007846Y49954264D01*
X29357006Y51303424D01*
X29357006Y51303424D01*
G37*
G36*
X26245736Y48192154D02*
X27594896Y46842994D01*
X26245736Y45493834D01*
X24896576Y46842994D01*
X26245736Y48192154D01*
X26245736Y48192154D01*
G37*
D11*
X26245736Y51227056D03*
X24972944Y49954264D03*
D10*
G36*
X22633834Y42334264D02*
X23982994Y43683424D01*
X25332154Y42334264D01*
X23982994Y40985104D01*
X22633834Y42334264D01*
X22633834Y42334264D01*
G37*
G36*
X25745104Y39222994D02*
X27094264Y40572154D01*
X28443424Y39222994D01*
X27094264Y37873834D01*
X25745104Y39222994D01*
X25745104Y39222994D01*
G37*
G36*
X26911831Y40389720D02*
X28190280Y41668169D01*
X29539439Y40319010D01*
X28260990Y39040561D01*
X26911831Y40389720D01*
X26911831Y40389720D01*
G37*
G36*
X23800561Y43500990D02*
X25079010Y44779439D01*
X26428169Y43430280D01*
X25149720Y42151831D01*
X23800561Y43500990D01*
X23800561Y43500990D01*
G37*
G36*
X24896576Y44597006D02*
X26245736Y45946166D01*
X27594896Y44597006D01*
X26245736Y43247846D01*
X24896576Y44597006D01*
X24896576Y44597006D01*
G37*
G36*
X28007846Y41485736D02*
X29357006Y42834896D01*
X30706166Y41485736D01*
X29357006Y40136576D01*
X28007846Y41485736D01*
X28007846Y41485736D01*
G37*
D11*
X24972944Y41485736D03*
X26245736Y40212944D03*
D10*
G36*
X27094264Y38326166D02*
X28443424Y36977006D01*
X27094264Y35627846D01*
X25745104Y36977006D01*
X27094264Y38326166D01*
X27094264Y38326166D01*
G37*
G36*
X23982994Y35214896D02*
X25332154Y33865736D01*
X23982994Y32516576D01*
X22633834Y33865736D01*
X23982994Y35214896D01*
X23982994Y35214896D01*
G37*
G36*
X25149720Y34048169D02*
X26428169Y32769720D01*
X25079010Y31420561D01*
X23800561Y32699010D01*
X25149720Y34048169D01*
X25149720Y34048169D01*
G37*
G36*
X28260990Y37159439D02*
X29539439Y35880990D01*
X28190280Y34531831D01*
X26911831Y35810280D01*
X28260990Y37159439D01*
X28260990Y37159439D01*
G37*
G36*
X29357006Y36063424D02*
X30706166Y34714264D01*
X29357006Y33365104D01*
X28007846Y34714264D01*
X29357006Y36063424D01*
X29357006Y36063424D01*
G37*
G36*
X26245736Y32952154D02*
X27594896Y31602994D01*
X26245736Y30253834D01*
X24896576Y31602994D01*
X26245736Y32952154D01*
X26245736Y32952154D01*
G37*
D11*
X26245736Y35987056D03*
X24972944Y34714264D03*
D10*
G36*
X22633834Y27094264D02*
X23982994Y28443424D01*
X25332154Y27094264D01*
X23982994Y25745104D01*
X22633834Y27094264D01*
X22633834Y27094264D01*
G37*
G36*
X25745104Y23982994D02*
X27094264Y25332154D01*
X28443424Y23982994D01*
X27094264Y22633834D01*
X25745104Y23982994D01*
X25745104Y23982994D01*
G37*
G36*
X26911831Y25149720D02*
X28190280Y26428169D01*
X29539439Y25079010D01*
X28260990Y23800561D01*
X26911831Y25149720D01*
X26911831Y25149720D01*
G37*
G36*
X23800561Y28260990D02*
X25079010Y29539439D01*
X26428169Y28190280D01*
X25149720Y26911831D01*
X23800561Y28260990D01*
X23800561Y28260990D01*
G37*
G36*
X24896576Y29357006D02*
X26245736Y30706166D01*
X27594896Y29357006D01*
X26245736Y28007846D01*
X24896576Y29357006D01*
X24896576Y29357006D01*
G37*
G36*
X28007846Y26245736D02*
X29357006Y27594896D01*
X30706166Y26245736D01*
X29357006Y24896576D01*
X28007846Y26245736D01*
X28007846Y26245736D01*
G37*
D11*
X24972944Y26245736D03*
X26245736Y24972944D03*
D10*
G36*
X27094264Y23086166D02*
X28443424Y21737006D01*
X27094264Y20387846D01*
X25745104Y21737006D01*
X27094264Y23086166D01*
X27094264Y23086166D01*
G37*
G36*
X23982994Y19974896D02*
X25332154Y18625736D01*
X23982994Y17276576D01*
X22633834Y18625736D01*
X23982994Y19974896D01*
X23982994Y19974896D01*
G37*
G36*
X25149720Y18808169D02*
X26428169Y17529720D01*
X25079010Y16180561D01*
X23800561Y17459010D01*
X25149720Y18808169D01*
X25149720Y18808169D01*
G37*
G36*
X28260990Y21919439D02*
X29539439Y20640990D01*
X28190280Y19291831D01*
X26911831Y20570280D01*
X28260990Y21919439D01*
X28260990Y21919439D01*
G37*
G36*
X29357006Y20823424D02*
X30706166Y19474264D01*
X29357006Y18125104D01*
X28007846Y19474264D01*
X29357006Y20823424D01*
X29357006Y20823424D01*
G37*
G36*
X26245736Y17712154D02*
X27594896Y16362994D01*
X26245736Y15013834D01*
X24896576Y16362994D01*
X26245736Y17712154D01*
X26245736Y17712154D01*
G37*
D11*
X26245736Y20747056D03*
X24972944Y19474264D03*
D10*
G36*
X22633834Y11854264D02*
X23982994Y13203424D01*
X25332154Y11854264D01*
X23982994Y10505104D01*
X22633834Y11854264D01*
X22633834Y11854264D01*
G37*
G36*
X25745104Y8742994D02*
X27094264Y10092154D01*
X28443424Y8742994D01*
X27094264Y7393834D01*
X25745104Y8742994D01*
X25745104Y8742994D01*
G37*
G36*
X26911831Y9909720D02*
X28190280Y11188169D01*
X29539439Y9839010D01*
X28260990Y8560561D01*
X26911831Y9909720D01*
X26911831Y9909720D01*
G37*
G36*
X23800561Y13020990D02*
X25079010Y14299439D01*
X26428169Y12950280D01*
X25149720Y11671831D01*
X23800561Y13020990D01*
X23800561Y13020990D01*
G37*
G36*
X24896576Y14117006D02*
X26245736Y15466166D01*
X27594896Y14117006D01*
X26245736Y12767846D01*
X24896576Y14117006D01*
X24896576Y14117006D01*
G37*
G36*
X28007846Y11005736D02*
X29357006Y12354896D01*
X30706166Y11005736D01*
X29357006Y9656576D01*
X28007846Y11005736D01*
X28007846Y11005736D01*
G37*
D11*
X24972944Y11005736D03*
X26245736Y9732944D03*
D10*
G36*
X33865736Y7393834D02*
X32516576Y8742994D01*
X33865736Y10092154D01*
X35214896Y8742994D01*
X33865736Y7393834D01*
X33865736Y7393834D01*
G37*
G36*
X36977006Y10505104D02*
X35627846Y11854264D01*
X36977006Y13203424D01*
X38326166Y11854264D01*
X36977006Y10505104D01*
X36977006Y10505104D01*
G37*
G36*
X35810280Y11671831D02*
X34531831Y12950280D01*
X35880990Y14299439D01*
X37159439Y13020990D01*
X35810280Y11671831D01*
X35810280Y11671831D01*
G37*
G36*
X32699010Y8560561D02*
X31420561Y9839010D01*
X32769720Y11188169D01*
X34048169Y9909720D01*
X32699010Y8560561D01*
X32699010Y8560561D01*
G37*
G36*
X31602994Y9656576D02*
X30253834Y11005736D01*
X31602994Y12354896D01*
X32952154Y11005736D01*
X31602994Y9656576D01*
X31602994Y9656576D01*
G37*
G36*
X34714264Y12767846D02*
X33365104Y14117006D01*
X34714264Y15466166D01*
X36063424Y14117006D01*
X34714264Y12767846D01*
X34714264Y12767846D01*
G37*
D11*
X34714264Y9732944D03*
X35987056Y11005736D03*
D10*
G36*
X38326166Y18625736D02*
X36977006Y17276576D01*
X35627846Y18625736D01*
X36977006Y19974896D01*
X38326166Y18625736D01*
X38326166Y18625736D01*
G37*
G36*
X35214896Y21737006D02*
X33865736Y20387846D01*
X32516576Y21737006D01*
X33865736Y23086166D01*
X35214896Y21737006D01*
X35214896Y21737006D01*
G37*
G36*
X34048169Y20570280D02*
X32769720Y19291831D01*
X31420561Y20640990D01*
X32699010Y21919439D01*
X34048169Y20570280D01*
X34048169Y20570280D01*
G37*
G36*
X37159439Y17459010D02*
X35880990Y16180561D01*
X34531831Y17529720D01*
X35810280Y18808169D01*
X37159439Y17459010D01*
X37159439Y17459010D01*
G37*
G36*
X36063424Y16362994D02*
X34714264Y15013834D01*
X33365104Y16362994D01*
X34714264Y17712154D01*
X36063424Y16362994D01*
X36063424Y16362994D01*
G37*
G36*
X32952154Y19474264D02*
X31602994Y18125104D01*
X30253834Y19474264D01*
X31602994Y20823424D01*
X32952154Y19474264D01*
X32952154Y19474264D01*
G37*
D11*
X35987056Y19474264D03*
X34714264Y20747056D03*
D10*
G36*
X33865736Y22633834D02*
X32516576Y23982994D01*
X33865736Y25332154D01*
X35214896Y23982994D01*
X33865736Y22633834D01*
X33865736Y22633834D01*
G37*
G36*
X36977006Y25745104D02*
X35627846Y27094264D01*
X36977006Y28443424D01*
X38326166Y27094264D01*
X36977006Y25745104D01*
X36977006Y25745104D01*
G37*
G36*
X35810280Y26911831D02*
X34531831Y28190280D01*
X35880990Y29539439D01*
X37159439Y28260990D01*
X35810280Y26911831D01*
X35810280Y26911831D01*
G37*
G36*
X32699010Y23800561D02*
X31420561Y25079010D01*
X32769720Y26428169D01*
X34048169Y25149720D01*
X32699010Y23800561D01*
X32699010Y23800561D01*
G37*
G36*
X31602994Y24896576D02*
X30253834Y26245736D01*
X31602994Y27594896D01*
X32952154Y26245736D01*
X31602994Y24896576D01*
X31602994Y24896576D01*
G37*
G36*
X34714264Y28007846D02*
X33365104Y29357006D01*
X34714264Y30706166D01*
X36063424Y29357006D01*
X34714264Y28007846D01*
X34714264Y28007846D01*
G37*
D11*
X34714264Y24972944D03*
X35987056Y26245736D03*
D10*
G36*
X38326166Y33865736D02*
X36977006Y32516576D01*
X35627846Y33865736D01*
X36977006Y35214896D01*
X38326166Y33865736D01*
X38326166Y33865736D01*
G37*
G36*
X35214896Y36977006D02*
X33865736Y35627846D01*
X32516576Y36977006D01*
X33865736Y38326166D01*
X35214896Y36977006D01*
X35214896Y36977006D01*
G37*
G36*
X34048169Y35810280D02*
X32769720Y34531831D01*
X31420561Y35880990D01*
X32699010Y37159439D01*
X34048169Y35810280D01*
X34048169Y35810280D01*
G37*
G36*
X37159439Y32699010D02*
X35880990Y31420561D01*
X34531831Y32769720D01*
X35810280Y34048169D01*
X37159439Y32699010D01*
X37159439Y32699010D01*
G37*
G36*
X36063424Y31602994D02*
X34714264Y30253834D01*
X33365104Y31602994D01*
X34714264Y32952154D01*
X36063424Y31602994D01*
X36063424Y31602994D01*
G37*
G36*
X32952154Y34714264D02*
X31602994Y33365104D01*
X30253834Y34714264D01*
X31602994Y36063424D01*
X32952154Y34714264D01*
X32952154Y34714264D01*
G37*
D11*
X35987056Y34714264D03*
X34714264Y35987056D03*
D10*
G36*
X38326166Y49105736D02*
X36977006Y47756576D01*
X35627846Y49105736D01*
X36977006Y50454896D01*
X38326166Y49105736D01*
X38326166Y49105736D01*
G37*
G36*
X35214896Y52217006D02*
X33865736Y50867846D01*
X32516576Y52217006D01*
X33865736Y53566166D01*
X35214896Y52217006D01*
X35214896Y52217006D01*
G37*
G36*
X34048169Y51050280D02*
X32769720Y49771831D01*
X31420561Y51120990D01*
X32699010Y52399439D01*
X34048169Y51050280D01*
X34048169Y51050280D01*
G37*
G36*
X37159439Y47939010D02*
X35880990Y46660561D01*
X34531831Y48009720D01*
X35810280Y49288169D01*
X37159439Y47939010D01*
X37159439Y47939010D01*
G37*
G36*
X36063424Y46842994D02*
X34714264Y45493834D01*
X33365104Y46842994D01*
X34714264Y48192154D01*
X36063424Y46842994D01*
X36063424Y46842994D01*
G37*
G36*
X32952154Y49954264D02*
X31602994Y48605104D01*
X30253834Y49954264D01*
X31602994Y51303424D01*
X32952154Y49954264D01*
X32952154Y49954264D01*
G37*
D11*
X35987056Y49954264D03*
X34714264Y51227056D03*
D10*
G36*
X33865736Y53113834D02*
X32516576Y54462994D01*
X33865736Y55812154D01*
X35214896Y54462994D01*
X33865736Y53113834D01*
X33865736Y53113834D01*
G37*
G36*
X36977006Y56225104D02*
X35627846Y57574264D01*
X36977006Y58923424D01*
X38326166Y57574264D01*
X36977006Y56225104D01*
X36977006Y56225104D01*
G37*
G36*
X35810280Y57391831D02*
X34531831Y58670280D01*
X35880990Y60019439D01*
X37159439Y58740990D01*
X35810280Y57391831D01*
X35810280Y57391831D01*
G37*
G36*
X32699010Y54280561D02*
X31420561Y55559010D01*
X32769720Y56908169D01*
X34048169Y55629720D01*
X32699010Y54280561D01*
X32699010Y54280561D01*
G37*
G36*
X31602994Y55376576D02*
X30253834Y56725736D01*
X31602994Y58074896D01*
X32952154Y56725736D01*
X31602994Y55376576D01*
X31602994Y55376576D01*
G37*
G36*
X34714264Y58487846D02*
X33365104Y59837006D01*
X34714264Y61186166D01*
X36063424Y59837006D01*
X34714264Y58487846D01*
X34714264Y58487846D01*
G37*
D11*
X34714264Y55452944D03*
X35987056Y56725736D03*
D10*
G36*
X37873834Y57574264D02*
X39222994Y58923424D01*
X40572154Y57574264D01*
X39222994Y56225104D01*
X37873834Y57574264D01*
X37873834Y57574264D01*
G37*
G36*
X40985104Y54462994D02*
X42334264Y55812154D01*
X43683424Y54462994D01*
X42334264Y53113834D01*
X40985104Y54462994D01*
X40985104Y54462994D01*
G37*
G36*
X42151831Y55629720D02*
X43430280Y56908169D01*
X44779439Y55559010D01*
X43500990Y54280561D01*
X42151831Y55629720D01*
X42151831Y55629720D01*
G37*
G36*
X39040561Y58740990D02*
X40319010Y60019439D01*
X41668169Y58670280D01*
X40389720Y57391831D01*
X39040561Y58740990D01*
X39040561Y58740990D01*
G37*
G36*
X40136576Y59837006D02*
X41485736Y61186166D01*
X42834896Y59837006D01*
X41485736Y58487846D01*
X40136576Y59837006D01*
X40136576Y59837006D01*
G37*
G36*
X43247846Y56725736D02*
X44597006Y58074896D01*
X45946166Y56725736D01*
X44597006Y55376576D01*
X43247846Y56725736D01*
X43247846Y56725736D01*
G37*
D11*
X40212944Y56725736D03*
X41485736Y55452944D03*
D10*
G36*
X42334264Y53566166D02*
X43683424Y52217006D01*
X42334264Y50867846D01*
X40985104Y52217006D01*
X42334264Y53566166D01*
X42334264Y53566166D01*
G37*
G36*
X39222994Y50454896D02*
X40572154Y49105736D01*
X39222994Y47756576D01*
X37873834Y49105736D01*
X39222994Y50454896D01*
X39222994Y50454896D01*
G37*
G36*
X40389720Y49288169D02*
X41668169Y48009720D01*
X40319010Y46660561D01*
X39040561Y47939010D01*
X40389720Y49288169D01*
X40389720Y49288169D01*
G37*
G36*
X43500990Y52399439D02*
X44779439Y51120990D01*
X43430280Y49771831D01*
X42151831Y51050280D01*
X43500990Y52399439D01*
X43500990Y52399439D01*
G37*
G36*
X44597006Y51303424D02*
X45946166Y49954264D01*
X44597006Y48605104D01*
X43247846Y49954264D01*
X44597006Y51303424D01*
X44597006Y51303424D01*
G37*
G36*
X41485736Y48192154D02*
X42834896Y46842994D01*
X41485736Y45493834D01*
X40136576Y46842994D01*
X41485736Y48192154D01*
X41485736Y48192154D01*
G37*
D11*
X41485736Y51227056D03*
X40212944Y49954264D03*
D10*
G36*
X42334264Y38326166D02*
X43683424Y36977006D01*
X42334264Y35627846D01*
X40985104Y36977006D01*
X42334264Y38326166D01*
X42334264Y38326166D01*
G37*
G36*
X39222994Y35214896D02*
X40572154Y33865736D01*
X39222994Y32516576D01*
X37873834Y33865736D01*
X39222994Y35214896D01*
X39222994Y35214896D01*
G37*
G36*
X40389720Y34048169D02*
X41668169Y32769720D01*
X40319010Y31420561D01*
X39040561Y32699010D01*
X40389720Y34048169D01*
X40389720Y34048169D01*
G37*
G36*
X43500990Y37159439D02*
X44779439Y35880990D01*
X43430280Y34531831D01*
X42151831Y35810280D01*
X43500990Y37159439D01*
X43500990Y37159439D01*
G37*
G36*
X44597006Y36063424D02*
X45946166Y34714264D01*
X44597006Y33365104D01*
X43247846Y34714264D01*
X44597006Y36063424D01*
X44597006Y36063424D01*
G37*
G36*
X41485736Y32952154D02*
X42834896Y31602994D01*
X41485736Y30253834D01*
X40136576Y31602994D01*
X41485736Y32952154D01*
X41485736Y32952154D01*
G37*
D11*
X41485736Y35987056D03*
X40212944Y34714264D03*
D10*
G36*
X37873834Y27094264D02*
X39222994Y28443424D01*
X40572154Y27094264D01*
X39222994Y25745104D01*
X37873834Y27094264D01*
X37873834Y27094264D01*
G37*
G36*
X40985104Y23982994D02*
X42334264Y25332154D01*
X43683424Y23982994D01*
X42334264Y22633834D01*
X40985104Y23982994D01*
X40985104Y23982994D01*
G37*
G36*
X42151831Y25149720D02*
X43430280Y26428169D01*
X44779439Y25079010D01*
X43500990Y23800561D01*
X42151831Y25149720D01*
X42151831Y25149720D01*
G37*
G36*
X39040561Y28260990D02*
X40319010Y29539439D01*
X41668169Y28190280D01*
X40389720Y26911831D01*
X39040561Y28260990D01*
X39040561Y28260990D01*
G37*
G36*
X40136576Y29357006D02*
X41485736Y30706166D01*
X42834896Y29357006D01*
X41485736Y28007846D01*
X40136576Y29357006D01*
X40136576Y29357006D01*
G37*
G36*
X43247846Y26245736D02*
X44597006Y27594896D01*
X45946166Y26245736D01*
X44597006Y24896576D01*
X43247846Y26245736D01*
X43247846Y26245736D01*
G37*
D11*
X40212944Y26245736D03*
X41485736Y24972944D03*
D10*
G36*
X42334264Y23086166D02*
X43683424Y21737006D01*
X42334264Y20387846D01*
X40985104Y21737006D01*
X42334264Y23086166D01*
X42334264Y23086166D01*
G37*
G36*
X39222994Y19974896D02*
X40572154Y18625736D01*
X39222994Y17276576D01*
X37873834Y18625736D01*
X39222994Y19974896D01*
X39222994Y19974896D01*
G37*
G36*
X40389720Y18808169D02*
X41668169Y17529720D01*
X40319010Y16180561D01*
X39040561Y17459010D01*
X40389720Y18808169D01*
X40389720Y18808169D01*
G37*
G36*
X43500990Y21919439D02*
X44779439Y20640990D01*
X43430280Y19291831D01*
X42151831Y20570280D01*
X43500990Y21919439D01*
X43500990Y21919439D01*
G37*
G36*
X44597006Y20823424D02*
X45946166Y19474264D01*
X44597006Y18125104D01*
X43247846Y19474264D01*
X44597006Y20823424D01*
X44597006Y20823424D01*
G37*
G36*
X41485736Y17712154D02*
X42834896Y16362994D01*
X41485736Y15013834D01*
X40136576Y16362994D01*
X41485736Y17712154D01*
X41485736Y17712154D01*
G37*
D11*
X41485736Y20747056D03*
X40212944Y19474264D03*
D10*
G36*
X37873834Y11854264D02*
X39222994Y13203424D01*
X40572154Y11854264D01*
X39222994Y10505104D01*
X37873834Y11854264D01*
X37873834Y11854264D01*
G37*
G36*
X40985104Y8742994D02*
X42334264Y10092154D01*
X43683424Y8742994D01*
X42334264Y7393834D01*
X40985104Y8742994D01*
X40985104Y8742994D01*
G37*
G36*
X42151831Y9909720D02*
X43430280Y11188169D01*
X44779439Y9839010D01*
X43500990Y8560561D01*
X42151831Y9909720D01*
X42151831Y9909720D01*
G37*
G36*
X39040561Y13020990D02*
X40319010Y14299439D01*
X41668169Y12950280D01*
X40389720Y11671831D01*
X39040561Y13020990D01*
X39040561Y13020990D01*
G37*
G36*
X40136576Y14117006D02*
X41485736Y15466166D01*
X42834896Y14117006D01*
X41485736Y12767846D01*
X40136576Y14117006D01*
X40136576Y14117006D01*
G37*
G36*
X43247846Y11005736D02*
X44597006Y12354896D01*
X45946166Y11005736D01*
X44597006Y9656576D01*
X43247846Y11005736D01*
X43247846Y11005736D01*
G37*
D11*
X40212944Y11005736D03*
X41485736Y9732944D03*
D10*
G36*
X49105736Y7393834D02*
X47756576Y8742994D01*
X49105736Y10092154D01*
X50454896Y8742994D01*
X49105736Y7393834D01*
X49105736Y7393834D01*
G37*
G36*
X52217006Y10505104D02*
X50867846Y11854264D01*
X52217006Y13203424D01*
X53566166Y11854264D01*
X52217006Y10505104D01*
X52217006Y10505104D01*
G37*
G36*
X51050280Y11671831D02*
X49771831Y12950280D01*
X51120990Y14299439D01*
X52399439Y13020990D01*
X51050280Y11671831D01*
X51050280Y11671831D01*
G37*
G36*
X47939010Y8560561D02*
X46660561Y9839010D01*
X48009720Y11188169D01*
X49288169Y9909720D01*
X47939010Y8560561D01*
X47939010Y8560561D01*
G37*
G36*
X46842994Y9656576D02*
X45493834Y11005736D01*
X46842994Y12354896D01*
X48192154Y11005736D01*
X46842994Y9656576D01*
X46842994Y9656576D01*
G37*
G36*
X49954264Y12767846D02*
X48605104Y14117006D01*
X49954264Y15466166D01*
X51303424Y14117006D01*
X49954264Y12767846D01*
X49954264Y12767846D01*
G37*
D11*
X49954264Y9732944D03*
X51227056Y11005736D03*
D10*
G36*
X53566166Y18625736D02*
X52217006Y17276576D01*
X50867846Y18625736D01*
X52217006Y19974896D01*
X53566166Y18625736D01*
X53566166Y18625736D01*
G37*
G36*
X50454896Y21737006D02*
X49105736Y20387846D01*
X47756576Y21737006D01*
X49105736Y23086166D01*
X50454896Y21737006D01*
X50454896Y21737006D01*
G37*
G36*
X49288169Y20570280D02*
X48009720Y19291831D01*
X46660561Y20640990D01*
X47939010Y21919439D01*
X49288169Y20570280D01*
X49288169Y20570280D01*
G37*
G36*
X52399439Y17459010D02*
X51120990Y16180561D01*
X49771831Y17529720D01*
X51050280Y18808169D01*
X52399439Y17459010D01*
X52399439Y17459010D01*
G37*
G36*
X51303424Y16362994D02*
X49954264Y15013834D01*
X48605104Y16362994D01*
X49954264Y17712154D01*
X51303424Y16362994D01*
X51303424Y16362994D01*
G37*
G36*
X48192154Y19474264D02*
X46842994Y18125104D01*
X45493834Y19474264D01*
X46842994Y20823424D01*
X48192154Y19474264D01*
X48192154Y19474264D01*
G37*
D11*
X51227056Y19474264D03*
X49954264Y20747056D03*
D10*
G36*
X49105736Y22633834D02*
X47756576Y23982994D01*
X49105736Y25332154D01*
X50454896Y23982994D01*
X49105736Y22633834D01*
X49105736Y22633834D01*
G37*
G36*
X52217006Y25745104D02*
X50867846Y27094264D01*
X52217006Y28443424D01*
X53566166Y27094264D01*
X52217006Y25745104D01*
X52217006Y25745104D01*
G37*
G36*
X51050280Y26911831D02*
X49771831Y28190280D01*
X51120990Y29539439D01*
X52399439Y28260990D01*
X51050280Y26911831D01*
X51050280Y26911831D01*
G37*
G36*
X47939010Y23800561D02*
X46660561Y25079010D01*
X48009720Y26428169D01*
X49288169Y25149720D01*
X47939010Y23800561D01*
X47939010Y23800561D01*
G37*
G36*
X46842994Y24896576D02*
X45493834Y26245736D01*
X46842994Y27594896D01*
X48192154Y26245736D01*
X46842994Y24896576D01*
X46842994Y24896576D01*
G37*
G36*
X49954264Y28007846D02*
X48605104Y29357006D01*
X49954264Y30706166D01*
X51303424Y29357006D01*
X49954264Y28007846D01*
X49954264Y28007846D01*
G37*
D11*
X49954264Y24972944D03*
X51227056Y26245736D03*
D10*
G36*
X53566166Y49105736D02*
X52217006Y47756576D01*
X50867846Y49105736D01*
X52217006Y50454896D01*
X53566166Y49105736D01*
X53566166Y49105736D01*
G37*
G36*
X50454896Y52217006D02*
X49105736Y50867846D01*
X47756576Y52217006D01*
X49105736Y53566166D01*
X50454896Y52217006D01*
X50454896Y52217006D01*
G37*
G36*
X49288169Y51050280D02*
X48009720Y49771831D01*
X46660561Y51120990D01*
X47939010Y52399439D01*
X49288169Y51050280D01*
X49288169Y51050280D01*
G37*
G36*
X52399439Y47939010D02*
X51120990Y46660561D01*
X49771831Y48009720D01*
X51050280Y49288169D01*
X52399439Y47939010D01*
X52399439Y47939010D01*
G37*
G36*
X51303424Y46842994D02*
X49954264Y45493834D01*
X48605104Y46842994D01*
X49954264Y48192154D01*
X51303424Y46842994D01*
X51303424Y46842994D01*
G37*
G36*
X48192154Y49954264D02*
X46842994Y48605104D01*
X45493834Y49954264D01*
X46842994Y51303424D01*
X48192154Y49954264D01*
X48192154Y49954264D01*
G37*
D11*
X51227056Y49954264D03*
X49954264Y51227056D03*
D10*
G36*
X49105736Y53113834D02*
X47756576Y54462994D01*
X49105736Y55812154D01*
X50454896Y54462994D01*
X49105736Y53113834D01*
X49105736Y53113834D01*
G37*
G36*
X52217006Y56225104D02*
X50867846Y57574264D01*
X52217006Y58923424D01*
X53566166Y57574264D01*
X52217006Y56225104D01*
X52217006Y56225104D01*
G37*
G36*
X51050280Y57391831D02*
X49771831Y58670280D01*
X51120990Y60019439D01*
X52399439Y58740990D01*
X51050280Y57391831D01*
X51050280Y57391831D01*
G37*
G36*
X47939010Y54280561D02*
X46660561Y55559010D01*
X48009720Y56908169D01*
X49288169Y55629720D01*
X47939010Y54280561D01*
X47939010Y54280561D01*
G37*
G36*
X46842994Y55376576D02*
X45493834Y56725736D01*
X46842994Y58074896D01*
X48192154Y56725736D01*
X46842994Y55376576D01*
X46842994Y55376576D01*
G37*
G36*
X49954264Y58487846D02*
X48605104Y59837006D01*
X49954264Y61186166D01*
X51303424Y59837006D01*
X49954264Y58487846D01*
X49954264Y58487846D01*
G37*
D11*
X49954264Y55452944D03*
X51227056Y56725736D03*
D10*
G36*
X53113834Y57574264D02*
X54462994Y58923424D01*
X55812154Y57574264D01*
X54462994Y56225104D01*
X53113834Y57574264D01*
X53113834Y57574264D01*
G37*
G36*
X56225104Y54462994D02*
X57574264Y55812154D01*
X58923424Y54462994D01*
X57574264Y53113834D01*
X56225104Y54462994D01*
X56225104Y54462994D01*
G37*
G36*
X57391831Y55629720D02*
X58670280Y56908169D01*
X60019439Y55559010D01*
X58740990Y54280561D01*
X57391831Y55629720D01*
X57391831Y55629720D01*
G37*
G36*
X54280561Y58740990D02*
X55559010Y60019439D01*
X56908169Y58670280D01*
X55629720Y57391831D01*
X54280561Y58740990D01*
X54280561Y58740990D01*
G37*
G36*
X55376576Y59837006D02*
X56725736Y61186166D01*
X58074896Y59837006D01*
X56725736Y58487846D01*
X55376576Y59837006D01*
X55376576Y59837006D01*
G37*
G36*
X58487846Y56725736D02*
X59837006Y58074896D01*
X61186166Y56725736D01*
X59837006Y55376576D01*
X58487846Y56725736D01*
X58487846Y56725736D01*
G37*
D11*
X55452944Y56725736D03*
X56725736Y55452944D03*
D10*
G36*
X57574264Y53566166D02*
X58923424Y52217006D01*
X57574264Y50867846D01*
X56225104Y52217006D01*
X57574264Y53566166D01*
X57574264Y53566166D01*
G37*
G36*
X54462994Y50454896D02*
X55812154Y49105736D01*
X54462994Y47756576D01*
X53113834Y49105736D01*
X54462994Y50454896D01*
X54462994Y50454896D01*
G37*
G36*
X55629720Y49288169D02*
X56908169Y48009720D01*
X55559010Y46660561D01*
X54280561Y47939010D01*
X55629720Y49288169D01*
X55629720Y49288169D01*
G37*
G36*
X58740990Y52399439D02*
X60019439Y51120990D01*
X58670280Y49771831D01*
X57391831Y51050280D01*
X58740990Y52399439D01*
X58740990Y52399439D01*
G37*
G36*
X59837006Y51303424D02*
X61186166Y49954264D01*
X59837006Y48605104D01*
X58487846Y49954264D01*
X59837006Y51303424D01*
X59837006Y51303424D01*
G37*
G36*
X56725736Y48192154D02*
X58074896Y46842994D01*
X56725736Y45493834D01*
X55376576Y46842994D01*
X56725736Y48192154D01*
X56725736Y48192154D01*
G37*
D11*
X56725736Y51227056D03*
X55452944Y49954264D03*
D10*
G36*
X53113834Y27094264D02*
X54462994Y28443424D01*
X55812154Y27094264D01*
X54462994Y25745104D01*
X53113834Y27094264D01*
X53113834Y27094264D01*
G37*
G36*
X56225104Y23982994D02*
X57574264Y25332154D01*
X58923424Y23982994D01*
X57574264Y22633834D01*
X56225104Y23982994D01*
X56225104Y23982994D01*
G37*
G36*
X57391831Y25149720D02*
X58670280Y26428169D01*
X60019439Y25079010D01*
X58740990Y23800561D01*
X57391831Y25149720D01*
X57391831Y25149720D01*
G37*
G36*
X54280561Y28260990D02*
X55559010Y29539439D01*
X56908169Y28190280D01*
X55629720Y26911831D01*
X54280561Y28260990D01*
X54280561Y28260990D01*
G37*
G36*
X55376576Y29357006D02*
X56725736Y30706166D01*
X58074896Y29357006D01*
X56725736Y28007846D01*
X55376576Y29357006D01*
X55376576Y29357006D01*
G37*
G36*
X58487846Y26245736D02*
X59837006Y27594896D01*
X61186166Y26245736D01*
X59837006Y24896576D01*
X58487846Y26245736D01*
X58487846Y26245736D01*
G37*
D11*
X55452944Y26245736D03*
X56725736Y24972944D03*
D10*
G36*
X57574264Y23086166D02*
X58923424Y21737006D01*
X57574264Y20387846D01*
X56225104Y21737006D01*
X57574264Y23086166D01*
X57574264Y23086166D01*
G37*
G36*
X54462994Y19974896D02*
X55812154Y18625736D01*
X54462994Y17276576D01*
X53113834Y18625736D01*
X54462994Y19974896D01*
X54462994Y19974896D01*
G37*
G36*
X55629720Y18808169D02*
X56908169Y17529720D01*
X55559010Y16180561D01*
X54280561Y17459010D01*
X55629720Y18808169D01*
X55629720Y18808169D01*
G37*
G36*
X58740990Y21919439D02*
X60019439Y20640990D01*
X58670280Y19291831D01*
X57391831Y20570280D01*
X58740990Y21919439D01*
X58740990Y21919439D01*
G37*
G36*
X59837006Y20823424D02*
X61186166Y19474264D01*
X59837006Y18125104D01*
X58487846Y19474264D01*
X59837006Y20823424D01*
X59837006Y20823424D01*
G37*
G36*
X56725736Y17712154D02*
X58074896Y16362994D01*
X56725736Y15013834D01*
X55376576Y16362994D01*
X56725736Y17712154D01*
X56725736Y17712154D01*
G37*
D11*
X56725736Y20747056D03*
X55452944Y19474264D03*
D10*
G36*
X7846166Y33865736D02*
X6497006Y32516576D01*
X5147846Y33865736D01*
X6497006Y35214896D01*
X7846166Y33865736D01*
X7846166Y33865736D01*
G37*
G36*
X4734896Y36977006D02*
X3385736Y35627846D01*
X2036576Y36977006D01*
X3385736Y38326166D01*
X4734896Y36977006D01*
X4734896Y36977006D01*
G37*
G36*
X3568169Y35810280D02*
X2289720Y34531831D01*
X940561Y35880990D01*
X2219010Y37159439D01*
X3568169Y35810280D01*
X3568169Y35810280D01*
G37*
G36*
X6679439Y32699010D02*
X5400990Y31420561D01*
X4051831Y32769720D01*
X5330280Y34048169D01*
X6679439Y32699010D01*
X6679439Y32699010D01*
G37*
G36*
X5583424Y31602994D02*
X4234264Y30253834D01*
X2885104Y31602994D01*
X4234264Y32952154D01*
X5583424Y31602994D01*
X5583424Y31602994D01*
G37*
G36*
X2472154Y34714264D02*
X1122994Y33365104D01*
X-226166Y34714264D01*
X1122994Y36063424D01*
X2472154Y34714264D01*
X2472154Y34714264D01*
G37*
D11*
X5507056Y34714264D03*
X4234264Y35987056D03*
D10*
G36*
X3385736Y37873834D02*
X2036576Y39222994D01*
X3385736Y40572154D01*
X4734896Y39222994D01*
X3385736Y37873834D01*
X3385736Y37873834D01*
G37*
G36*
X6497006Y40985104D02*
X5147846Y42334264D01*
X6497006Y43683424D01*
X7846166Y42334264D01*
X6497006Y40985104D01*
X6497006Y40985104D01*
G37*
G36*
X5330280Y42151831D02*
X4051831Y43430280D01*
X5400990Y44779439D01*
X6679439Y43500990D01*
X5330280Y42151831D01*
X5330280Y42151831D01*
G37*
G36*
X2219010Y39040561D02*
X940561Y40319010D01*
X2289720Y41668169D01*
X3568169Y40389720D01*
X2219010Y39040561D01*
X2219010Y39040561D01*
G37*
G36*
X1122994Y40136576D02*
X-226166Y41485736D01*
X1122994Y42834896D01*
X2472154Y41485736D01*
X1122994Y40136576D01*
X1122994Y40136576D01*
G37*
G36*
X4234264Y43247846D02*
X2885104Y44597006D01*
X4234264Y45946166D01*
X5583424Y44597006D01*
X4234264Y43247846D01*
X4234264Y43247846D01*
G37*
D11*
X4234264Y40212944D03*
X5507056Y41485736D03*
D10*
G36*
X7393834Y42334264D02*
X8742994Y43683424D01*
X10092154Y42334264D01*
X8742994Y40985104D01*
X7393834Y42334264D01*
X7393834Y42334264D01*
G37*
G36*
X10505104Y39222994D02*
X11854264Y40572154D01*
X13203424Y39222994D01*
X11854264Y37873834D01*
X10505104Y39222994D01*
X10505104Y39222994D01*
G37*
G36*
X11671831Y40389720D02*
X12950280Y41668169D01*
X14299439Y40319010D01*
X13020990Y39040561D01*
X11671831Y40389720D01*
X11671831Y40389720D01*
G37*
G36*
X8560561Y43500990D02*
X9839010Y44779439D01*
X11188169Y43430280D01*
X9909720Y42151831D01*
X8560561Y43500990D01*
X8560561Y43500990D01*
G37*
G36*
X9656576Y44597006D02*
X11005736Y45946166D01*
X12354896Y44597006D01*
X11005736Y43247846D01*
X9656576Y44597006D01*
X9656576Y44597006D01*
G37*
G36*
X12767846Y41485736D02*
X14117006Y42834896D01*
X15466166Y41485736D01*
X14117006Y40136576D01*
X12767846Y41485736D01*
X12767846Y41485736D01*
G37*
D11*
X9732944Y41485736D03*
X11005736Y40212944D03*
D10*
G36*
X11854264Y38326166D02*
X13203424Y36977006D01*
X11854264Y35627846D01*
X10505104Y36977006D01*
X11854264Y38326166D01*
X11854264Y38326166D01*
G37*
G36*
X8742994Y35214896D02*
X10092154Y33865736D01*
X8742994Y32516576D01*
X7393834Y33865736D01*
X8742994Y35214896D01*
X8742994Y35214896D01*
G37*
G36*
X9909720Y34048169D02*
X11188169Y32769720D01*
X9839010Y31420561D01*
X8560561Y32699010D01*
X9909720Y34048169D01*
X9909720Y34048169D01*
G37*
G36*
X13020990Y37159439D02*
X14299439Y35880990D01*
X12950280Y34531831D01*
X11671831Y35810280D01*
X13020990Y37159439D01*
X13020990Y37159439D01*
G37*
G36*
X14117006Y36063424D02*
X15466166Y34714264D01*
X14117006Y33365104D01*
X12767846Y34714264D01*
X14117006Y36063424D01*
X14117006Y36063424D01*
G37*
G36*
X11005736Y32952154D02*
X12354896Y31602994D01*
X11005736Y30253834D01*
X9656576Y31602994D01*
X11005736Y32952154D01*
X11005736Y32952154D01*
G37*
D11*
X11005736Y35987056D03*
X9732944Y34714264D03*
D10*
G36*
X23086166Y18625736D02*
X21737006Y17276576D01*
X20387846Y18625736D01*
X21737006Y19974896D01*
X23086166Y18625736D01*
X23086166Y18625736D01*
G37*
G36*
X19974896Y21737006D02*
X18625736Y20387846D01*
X17276576Y21737006D01*
X18625736Y23086166D01*
X19974896Y21737006D01*
X19974896Y21737006D01*
G37*
G36*
X18808169Y20570280D02*
X17529720Y19291831D01*
X16180561Y20640990D01*
X17459010Y21919439D01*
X18808169Y20570280D01*
X18808169Y20570280D01*
G37*
G36*
X21919439Y17459010D02*
X20640990Y16180561D01*
X19291831Y17529720D01*
X20570280Y18808169D01*
X21919439Y17459010D01*
X21919439Y17459010D01*
G37*
G36*
X20823424Y16362994D02*
X19474264Y15013834D01*
X18125104Y16362994D01*
X19474264Y17712154D01*
X20823424Y16362994D01*
X20823424Y16362994D01*
G37*
G36*
X17712154Y19474264D02*
X16362994Y18125104D01*
X15013834Y19474264D01*
X16362994Y20823424D01*
X17712154Y19474264D01*
X17712154Y19474264D01*
G37*
D11*
X20747056Y19474264D03*
X19474264Y20747056D03*
D10*
G36*
X33865736Y37873834D02*
X32516576Y39222994D01*
X33865736Y40572154D01*
X35214896Y39222994D01*
X33865736Y37873834D01*
X33865736Y37873834D01*
G37*
G36*
X36977006Y40985104D02*
X35627846Y42334264D01*
X36977006Y43683424D01*
X38326166Y42334264D01*
X36977006Y40985104D01*
X36977006Y40985104D01*
G37*
G36*
X35810280Y42151831D02*
X34531831Y43430280D01*
X35880990Y44779439D01*
X37159439Y43500990D01*
X35810280Y42151831D01*
X35810280Y42151831D01*
G37*
G36*
X32699010Y39040561D02*
X31420561Y40319010D01*
X32769720Y41668169D01*
X34048169Y40389720D01*
X32699010Y39040561D01*
X32699010Y39040561D01*
G37*
G36*
X31602994Y40136576D02*
X30253834Y41485736D01*
X31602994Y42834896D01*
X32952154Y41485736D01*
X31602994Y40136576D01*
X31602994Y40136576D01*
G37*
G36*
X34714264Y43247846D02*
X33365104Y44597006D01*
X34714264Y45946166D01*
X36063424Y44597006D01*
X34714264Y43247846D01*
X34714264Y43247846D01*
G37*
D11*
X34714264Y40212944D03*
X35987056Y41485736D03*
D10*
G36*
X53566166Y33865736D02*
X52217006Y32516576D01*
X50867846Y33865736D01*
X52217006Y35214896D01*
X53566166Y33865736D01*
X53566166Y33865736D01*
G37*
G36*
X50454896Y36977006D02*
X49105736Y35627846D01*
X47756576Y36977006D01*
X49105736Y38326166D01*
X50454896Y36977006D01*
X50454896Y36977006D01*
G37*
G36*
X49288169Y35810280D02*
X48009720Y34531831D01*
X46660561Y35880990D01*
X47939010Y37159439D01*
X49288169Y35810280D01*
X49288169Y35810280D01*
G37*
G36*
X52399439Y32699010D02*
X51120990Y31420561D01*
X49771831Y32769720D01*
X51050280Y34048169D01*
X52399439Y32699010D01*
X52399439Y32699010D01*
G37*
G36*
X51303424Y31602994D02*
X49954264Y30253834D01*
X48605104Y31602994D01*
X49954264Y32952154D01*
X51303424Y31602994D01*
X51303424Y31602994D01*
G37*
G36*
X48192154Y34714264D02*
X46842994Y33365104D01*
X45493834Y34714264D01*
X46842994Y36063424D01*
X48192154Y34714264D01*
X48192154Y34714264D01*
G37*
D11*
X51227056Y34714264D03*
X49954264Y35987056D03*
D10*
G36*
X49105736Y37873834D02*
X47756576Y39222994D01*
X49105736Y40572154D01*
X50454896Y39222994D01*
X49105736Y37873834D01*
X49105736Y37873834D01*
G37*
G36*
X52217006Y40985104D02*
X50867846Y42334264D01*
X52217006Y43683424D01*
X53566166Y42334264D01*
X52217006Y40985104D01*
X52217006Y40985104D01*
G37*
G36*
X51050280Y42151831D02*
X49771831Y43430280D01*
X51120990Y44779439D01*
X52399439Y43500990D01*
X51050280Y42151831D01*
X51050280Y42151831D01*
G37*
G36*
X47939010Y39040561D02*
X46660561Y40319010D01*
X48009720Y41668169D01*
X49288169Y40389720D01*
X47939010Y39040561D01*
X47939010Y39040561D01*
G37*
G36*
X46842994Y40136576D02*
X45493834Y41485736D01*
X46842994Y42834896D01*
X48192154Y41485736D01*
X46842994Y40136576D01*
X46842994Y40136576D01*
G37*
G36*
X49954264Y43247846D02*
X48605104Y44597006D01*
X49954264Y45946166D01*
X51303424Y44597006D01*
X49954264Y43247846D01*
X49954264Y43247846D01*
G37*
D11*
X49954264Y40212944D03*
X51227056Y41485736D03*
D10*
G36*
X53113834Y42334264D02*
X54462994Y43683424D01*
X55812154Y42334264D01*
X54462994Y40985104D01*
X53113834Y42334264D01*
X53113834Y42334264D01*
G37*
G36*
X56225104Y39222994D02*
X57574264Y40572154D01*
X58923424Y39222994D01*
X57574264Y37873834D01*
X56225104Y39222994D01*
X56225104Y39222994D01*
G37*
G36*
X57391831Y40389720D02*
X58670280Y41668169D01*
X60019439Y40319010D01*
X58740990Y39040561D01*
X57391831Y40389720D01*
X57391831Y40389720D01*
G37*
G36*
X54280561Y43500990D02*
X55559010Y44779439D01*
X56908169Y43430280D01*
X55629720Y42151831D01*
X54280561Y43500990D01*
X54280561Y43500990D01*
G37*
G36*
X55376576Y44597006D02*
X56725736Y45946166D01*
X58074896Y44597006D01*
X56725736Y43247846D01*
X55376576Y44597006D01*
X55376576Y44597006D01*
G37*
G36*
X58487846Y41485736D02*
X59837006Y42834896D01*
X61186166Y41485736D01*
X59837006Y40136576D01*
X58487846Y41485736D01*
X58487846Y41485736D01*
G37*
D11*
X55452944Y41485736D03*
X56725736Y40212944D03*
D10*
G36*
X57574264Y38326166D02*
X58923424Y36977006D01*
X57574264Y35627846D01*
X56225104Y36977006D01*
X57574264Y38326166D01*
X57574264Y38326166D01*
G37*
G36*
X54462994Y35214896D02*
X55812154Y33865736D01*
X54462994Y32516576D01*
X53113834Y33865736D01*
X54462994Y35214896D01*
X54462994Y35214896D01*
G37*
G36*
X55629720Y34048169D02*
X56908169Y32769720D01*
X55559010Y31420561D01*
X54280561Y32699010D01*
X55629720Y34048169D01*
X55629720Y34048169D01*
G37*
G36*
X58740990Y37159439D02*
X60019439Y35880990D01*
X58670280Y34531831D01*
X57391831Y35810280D01*
X58740990Y37159439D01*
X58740990Y37159439D01*
G37*
G36*
X59837006Y36063424D02*
X61186166Y34714264D01*
X59837006Y33365104D01*
X58487846Y34714264D01*
X59837006Y36063424D01*
X59837006Y36063424D01*
G37*
G36*
X56725736Y32952154D02*
X58074896Y31602994D01*
X56725736Y30253834D01*
X55376576Y31602994D01*
X56725736Y32952154D01*
X56725736Y32952154D01*
G37*
D11*
X56725736Y35987056D03*
X55452944Y34714264D03*
D10*
G36*
X23086166Y49105736D02*
X21737006Y47756576D01*
X20387846Y49105736D01*
X21737006Y50454896D01*
X23086166Y49105736D01*
X23086166Y49105736D01*
G37*
G36*
X19974896Y52217006D02*
X18625736Y50867846D01*
X17276576Y52217006D01*
X18625736Y53566166D01*
X19974896Y52217006D01*
X19974896Y52217006D01*
G37*
G36*
X18808169Y51050280D02*
X17529720Y49771831D01*
X16180561Y51120990D01*
X17459010Y52399439D01*
X18808169Y51050280D01*
X18808169Y51050280D01*
G37*
G36*
X21919439Y47939010D02*
X20640990Y46660561D01*
X19291831Y48009720D01*
X20570280Y49288169D01*
X21919439Y47939010D01*
X21919439Y47939010D01*
G37*
G36*
X20823424Y46842994D02*
X19474264Y45493834D01*
X18125104Y46842994D01*
X19474264Y48192154D01*
X20823424Y46842994D01*
X20823424Y46842994D01*
G37*
G36*
X17712154Y49954264D02*
X16362994Y48605104D01*
X15013834Y49954264D01*
X16362994Y51303424D01*
X17712154Y49954264D01*
X17712154Y49954264D01*
G37*
D11*
X20747056Y49954264D03*
X19474264Y51227056D03*
D12*
X53340000Y7620000D03*
X53340000Y53340000D03*
X38100000Y22860000D03*
X22860000Y22860000D03*
X7620000Y53340000D03*
X7620000Y7620000D03*
X22860000Y38100000D03*
X38100000Y38100000D03*
D13*
X45720000Y33020000D03*
X45720000Y30480000D03*
X45720000Y27940000D03*
X33020000Y15240000D03*
X30480000Y15240000D03*
X27940000Y15240000D03*
X27940000Y45720000D03*
X30480000Y45720000D03*
X33020000Y45720000D03*
X15240000Y27940000D03*
X15240000Y30480000D03*
X15240000Y33020000D03*
M02*
