%TF.GenerationSoftware,KiCad,Pcbnew,4.0.5-e0-6337~49~ubuntu16.04.1*%
%TF.CreationDate,2017-01-03T21:19:26+05:30*%
%TF.ProjectId,feather_v2,666561746865725F76322E6B69636164,rev?*%
%TF.FileFunction,Soldermask,Bot*%
%FSLAX46Y46*%
G04 Gerber Fmt 4.6, Leading zero omitted, Abs format (unit mm)*
G04 Created by KiCad (PCBNEW 4.0.5-e0-6337~49~ubuntu16.04.1) date Tue Jan  3 21:19:26 2017*
%MOMM*%
%LPD*%
G01*
G04 APERTURE LIST*
%ADD10C,0.101600*%
%ADD11C,1.797000*%
%ADD12C,3.448000*%
%ADD13R,2.178000X2.178000*%
%ADD14C,2.178000*%
%ADD15O,2.432000X2.127200*%
%ADD16R,1.924000X1.924000*%
%ADD17R,1.924000X2.432000*%
G04 APERTURE END LIST*
D10*
D11*
X116840000Y-99803949D03*
X118636051Y-101600000D03*
X116840000Y-103396051D03*
X115043949Y-101600000D03*
X84563949Y-101600000D03*
X86360000Y-99803949D03*
X88156051Y-101600000D03*
X86360000Y-103396051D03*
D12*
X109220000Y-93980000D03*
X93980000Y-109220000D03*
D13*
X90170000Y-111760000D03*
X92710000Y-91440000D03*
X97790000Y-91440000D03*
X107950000Y-111760000D03*
X110490000Y-111760000D03*
D14*
X82550000Y-111760000D03*
X85090000Y-111760000D03*
X87630000Y-111760000D03*
X92710000Y-111760000D03*
X95250000Y-111760000D03*
X97790000Y-111760000D03*
X100330000Y-111760000D03*
X102870000Y-111760000D03*
X105410000Y-111760000D03*
X113030000Y-111760000D03*
X115570000Y-111760000D03*
X118110000Y-111760000D03*
X120650000Y-111760000D03*
X120650000Y-91440000D03*
X118110000Y-91440000D03*
X115570000Y-91440000D03*
X113030000Y-91440000D03*
X110490000Y-91440000D03*
X107950000Y-91440000D03*
X105410000Y-91440000D03*
X102870000Y-91440000D03*
X100330000Y-91440000D03*
X95250000Y-91440000D03*
D12*
X78740000Y-110490000D03*
X124460000Y-110490000D03*
X124460000Y-92710000D03*
X78740000Y-92710000D03*
D15*
X124460000Y-99060000D03*
X124460000Y-101600000D03*
X124460000Y-104140000D03*
D16*
X121920000Y-101600000D03*
D17*
X121920000Y-103886000D03*
X121920000Y-99314000D03*
D15*
X78740000Y-104140000D03*
X78740000Y-101600000D03*
X78740000Y-99060000D03*
D16*
X81280000Y-101600000D03*
D17*
X81280000Y-99314000D03*
X81280000Y-103886000D03*
M02*
