%TF.GenerationSoftware,KiCad,Pcbnew,4.0.5-e0-6337~49~ubuntu16.04.1*%
%TF.CreationDate,2017-01-03T21:19:26+05:30*%
%TF.ProjectId,feather_v2,666561746865725F76322E6B69636164,rev?*%
%TF.FileFunction,Copper,L1,Top,Signal*%
%FSLAX46Y46*%
G04 Gerber Fmt 4.6, Leading zero omitted, Abs format (unit mm)*
G04 Created by KiCad (PCBNEW 4.0.5-e0-6337~49~ubuntu16.04.1) date Tue Jan  3 21:19:26 2017*
%MOMM*%
%LPD*%
G01*
G04 APERTURE LIST*
%ADD10C,0.101600*%
%ADD11C,1.397000*%
%ADD12R,1.778000X1.778000*%
%ADD13C,1.778000*%
%ADD14O,2.032000X1.727200*%
%ADD15C,0.762000*%
G04 APERTURE END LIST*
D10*
D11*
X116840000Y-99803949D03*
X118636051Y-101600000D03*
X116840000Y-103396051D03*
X115043949Y-101600000D03*
X84563949Y-101600000D03*
X86360000Y-99803949D03*
X88156051Y-101600000D03*
X86360000Y-103396051D03*
D12*
X90170000Y-111760000D03*
X92710000Y-91440000D03*
X97790000Y-91440000D03*
X107950000Y-111760000D03*
X110490000Y-111760000D03*
D13*
X82550000Y-111760000D03*
X85090000Y-111760000D03*
X87630000Y-111760000D03*
X92710000Y-111760000D03*
X95250000Y-111760000D03*
X97790000Y-111760000D03*
X100330000Y-111760000D03*
X102870000Y-111760000D03*
X105410000Y-111760000D03*
X113030000Y-111760000D03*
X115570000Y-111760000D03*
X118110000Y-111760000D03*
X120650000Y-111760000D03*
X120650000Y-91440000D03*
X118110000Y-91440000D03*
X115570000Y-91440000D03*
X113030000Y-91440000D03*
X110490000Y-91440000D03*
X107950000Y-91440000D03*
X105410000Y-91440000D03*
X102870000Y-91440000D03*
X100330000Y-91440000D03*
X95250000Y-91440000D03*
D14*
X124460000Y-99060000D03*
X124460000Y-101600000D03*
X124460000Y-104140000D03*
X78740000Y-104140000D03*
X78740000Y-101600000D03*
X78740000Y-99060000D03*
D15*
X97790000Y-96901000D02*
X82804000Y-96901000D01*
X82804000Y-96901000D02*
X81407000Y-98298000D01*
X81407000Y-98298000D02*
X81407000Y-103251000D01*
X81407000Y-103251000D02*
X80518000Y-104140000D01*
X80518000Y-104140000D02*
X78740000Y-104140000D01*
X97790000Y-96901000D02*
X120396000Y-96901000D01*
X97790000Y-91440000D02*
X97790000Y-96901000D01*
X120396000Y-96901000D02*
X121920000Y-98425000D01*
X121920000Y-98425000D02*
X121920000Y-103378000D01*
X121920000Y-103378000D02*
X122682000Y-104140000D01*
X122682000Y-104140000D02*
X124460000Y-104140000D01*
X97790004Y-91440004D02*
X97790000Y-91440000D01*
X92710004Y-91440004D02*
X92710000Y-91440000D01*
X110490000Y-111760000D02*
X110490000Y-109746051D01*
X110490000Y-109746051D02*
X116840000Y-103396051D01*
X107950000Y-111760000D02*
X107950000Y-108693949D01*
X107950000Y-108693949D02*
X115043949Y-101600000D01*
M02*
