G04 #@! TF.FileFunction,Legend,Bot*
%FSLAX46Y46*%
G04 Gerber Fmt 4.6, Leading zero omitted, Abs format (unit mm)*
G04 Created by KiCad (PCBNEW 4.0.5-e0-6337~49~ubuntu16.04.1) date Sun Feb  5 13:00:35 2017*
%MOMM*%
%LPD*%
G01*
G04 APERTURE LIST*
%ADD10C,0.101600*%
%ADD11C,0.152400*%
%ADD12C,0.254000*%
%ADD13C,0.150000*%
%ADD14C,1.797000*%
%ADD15C,3.448000*%
%ADD16R,2.178000X2.178000*%
%ADD17C,2.178000*%
%ADD18O,2.432000X2.127200*%
%ADD19R,1.924000X1.924000*%
%ADD20R,1.924000X2.432000*%
G04 APERTURE END LIST*
D10*
D11*
X121720429Y-94197715D02*
X121768810Y-94342858D01*
X121817190Y-94391239D01*
X121913952Y-94439620D01*
X122059095Y-94439620D01*
X122155857Y-94391239D01*
X122204238Y-94342858D01*
X122252619Y-94246096D01*
X122252619Y-93859049D01*
X121236619Y-93859049D01*
X121236619Y-94197715D01*
X121285000Y-94294477D01*
X121333381Y-94342858D01*
X121430143Y-94391239D01*
X121526905Y-94391239D01*
X121623667Y-94342858D01*
X121672048Y-94294477D01*
X121720429Y-94197715D01*
X121720429Y-93859049D01*
X121962333Y-94826668D02*
X121962333Y-95310477D01*
X122252619Y-94729906D02*
X121236619Y-95068573D01*
X122252619Y-95407239D01*
X121236619Y-95600763D02*
X121236619Y-96181334D01*
X122252619Y-95891049D02*
X121236619Y-95891049D01*
X121575286Y-97294096D02*
X121865571Y-96520001D01*
X122155857Y-97294096D01*
X121575286Y-105518856D02*
X121865571Y-106292951D01*
X122155857Y-105518856D01*
X121236619Y-106776761D02*
X122059095Y-106776761D01*
X122155857Y-106825142D01*
X122204238Y-106873523D01*
X122252619Y-106970285D01*
X122252619Y-107163808D01*
X122204238Y-107260570D01*
X122155857Y-107308951D01*
X122059095Y-107357332D01*
X121236619Y-107357332D01*
X122204238Y-107792761D02*
X122252619Y-107937904D01*
X122252619Y-108179808D01*
X122204238Y-108276570D01*
X122155857Y-108324951D01*
X122059095Y-108373332D01*
X121962333Y-108373332D01*
X121865571Y-108324951D01*
X121817190Y-108276570D01*
X121768810Y-108179808D01*
X121720429Y-107986285D01*
X121672048Y-107889523D01*
X121623667Y-107841142D01*
X121526905Y-107792761D01*
X121430143Y-107792761D01*
X121333381Y-107841142D01*
X121285000Y-107889523D01*
X121236619Y-107986285D01*
X121236619Y-108228189D01*
X121285000Y-108373332D01*
X121720429Y-109147427D02*
X121768810Y-109292570D01*
X121817190Y-109340951D01*
X121913952Y-109389332D01*
X122059095Y-109389332D01*
X122155857Y-109340951D01*
X122204238Y-109292570D01*
X122252619Y-109195808D01*
X122252619Y-108808761D01*
X121236619Y-108808761D01*
X121236619Y-109147427D01*
X121285000Y-109244189D01*
X121333381Y-109292570D01*
X121430143Y-109340951D01*
X121526905Y-109340951D01*
X121623667Y-109292570D01*
X121672048Y-109244189D01*
X121720429Y-109147427D01*
X121720429Y-108808761D01*
X81207429Y-94197715D02*
X81255810Y-94342858D01*
X81304190Y-94391239D01*
X81400952Y-94439620D01*
X81546095Y-94439620D01*
X81642857Y-94391239D01*
X81691238Y-94342858D01*
X81739619Y-94246096D01*
X81739619Y-93859049D01*
X80723619Y-93859049D01*
X80723619Y-94197715D01*
X80772000Y-94294477D01*
X80820381Y-94342858D01*
X80917143Y-94391239D01*
X81013905Y-94391239D01*
X81110667Y-94342858D01*
X81159048Y-94294477D01*
X81207429Y-94197715D01*
X81207429Y-93859049D01*
X81449333Y-94826668D02*
X81449333Y-95310477D01*
X81739619Y-94729906D02*
X80723619Y-95068573D01*
X81739619Y-95407239D01*
X80723619Y-95600763D02*
X80723619Y-96181334D01*
X81739619Y-95891049D02*
X80723619Y-95891049D01*
X81062286Y-97294096D02*
X81352571Y-96520001D01*
X81642857Y-97294096D01*
X81062286Y-105518856D02*
X81352571Y-106292951D01*
X81642857Y-105518856D01*
X80723619Y-106776761D02*
X81546095Y-106776761D01*
X81642857Y-106825142D01*
X81691238Y-106873523D01*
X81739619Y-106970285D01*
X81739619Y-107163808D01*
X81691238Y-107260570D01*
X81642857Y-107308951D01*
X81546095Y-107357332D01*
X80723619Y-107357332D01*
X81691238Y-107792761D02*
X81739619Y-107937904D01*
X81739619Y-108179808D01*
X81691238Y-108276570D01*
X81642857Y-108324951D01*
X81546095Y-108373332D01*
X81449333Y-108373332D01*
X81352571Y-108324951D01*
X81304190Y-108276570D01*
X81255810Y-108179808D01*
X81207429Y-107986285D01*
X81159048Y-107889523D01*
X81110667Y-107841142D01*
X81013905Y-107792761D01*
X80917143Y-107792761D01*
X80820381Y-107841142D01*
X80772000Y-107889523D01*
X80723619Y-107986285D01*
X80723619Y-108228189D01*
X80772000Y-108373332D01*
X81207429Y-109147427D02*
X81255810Y-109292570D01*
X81304190Y-109340951D01*
X81400952Y-109389332D01*
X81546095Y-109389332D01*
X81642857Y-109340951D01*
X81691238Y-109292570D01*
X81739619Y-109195808D01*
X81739619Y-108808761D01*
X80723619Y-108808761D01*
X80723619Y-109147427D01*
X80772000Y-109244189D01*
X80820381Y-109292570D01*
X80917143Y-109340951D01*
X81013905Y-109340951D01*
X81110667Y-109292570D01*
X81159048Y-109244189D01*
X81207429Y-109147427D01*
X81207429Y-108808761D01*
D12*
X116840000Y-98007898D02*
X113247898Y-101600000D01*
X120432102Y-101600000D02*
X116840000Y-98007898D01*
X116840000Y-105192102D02*
X120432102Y-101600000D01*
X113247898Y-101600000D02*
X116840000Y-105192102D01*
X82767898Y-101600000D02*
X86360000Y-105192102D01*
X86360000Y-98007898D02*
X82767898Y-101600000D01*
X89952102Y-101600000D02*
X86360000Y-98007898D01*
X86360000Y-105192102D02*
X89952102Y-101600000D01*
D13*
X125730000Y-100330000D02*
X125730000Y-105410000D01*
X125730000Y-105410000D02*
X123190000Y-105410000D01*
X123190000Y-105410000D02*
X123190000Y-100330000D01*
X122910000Y-97510000D02*
X122910000Y-99060000D01*
X123190000Y-100330000D02*
X125730000Y-100330000D01*
X126010000Y-99060000D02*
X126010000Y-97510000D01*
X126010000Y-97510000D02*
X122910000Y-97510000D01*
X77470000Y-102870000D02*
X77470000Y-97790000D01*
X77470000Y-97790000D02*
X80010000Y-97790000D01*
X80010000Y-97790000D02*
X80010000Y-102870000D01*
X80290000Y-105690000D02*
X80290000Y-104140000D01*
X80010000Y-102870000D02*
X77470000Y-102870000D01*
X77190000Y-104140000D02*
X77190000Y-105690000D01*
X77190000Y-105690000D02*
X80290000Y-105690000D01*
D11*
X115155262Y-105645261D02*
X115873682Y-104926841D01*
X115292103Y-104824209D02*
X114813157Y-105303156D01*
X115223682Y-104892630D02*
X115223682Y-104824209D01*
X115189472Y-104721578D01*
X115086841Y-104618947D01*
X114984209Y-104584736D01*
X114881578Y-104618947D01*
X114505262Y-104995262D01*
X114642104Y-104174210D02*
X113923683Y-104892630D01*
X114607893Y-104208420D02*
X114573683Y-104105789D01*
X114436841Y-103968947D01*
X114334210Y-103934737D01*
X114265789Y-103934737D01*
X114163157Y-103968947D01*
X113957895Y-104174210D01*
X113923684Y-104276841D01*
X113923684Y-104345262D01*
X113957895Y-104447894D01*
X114094736Y-104584736D01*
X114197368Y-104618946D01*
X113684210Y-103216316D02*
X113205264Y-103695263D01*
X113992104Y-103524210D02*
X113615789Y-103900526D01*
X113513158Y-103934736D01*
X113410526Y-103900526D01*
X113307895Y-103797895D01*
X113273685Y-103695263D01*
X113273685Y-103626842D01*
X113444737Y-102976843D02*
X113171052Y-102703158D01*
X113581579Y-102634737D02*
X112965790Y-103250526D01*
X112863158Y-103284737D01*
X112760527Y-103250526D01*
X112692106Y-103182105D01*
X89960524Y-102292634D02*
X89823683Y-102429475D01*
X89789472Y-102532107D01*
X89789472Y-102668949D01*
X89892104Y-102840002D01*
X90131577Y-103079475D01*
X90302630Y-103182106D01*
X90439472Y-103182106D01*
X90542103Y-103147896D01*
X90678945Y-103011055D01*
X90713155Y-102908423D01*
X90713155Y-102771581D01*
X90610524Y-102600528D01*
X90371051Y-102361055D01*
X90199998Y-102258424D01*
X90063156Y-102258424D01*
X89960524Y-102292634D01*
X89276315Y-103455791D02*
X89755262Y-103934738D01*
X89584209Y-103147897D02*
X89960524Y-103524212D01*
X89994735Y-103626843D01*
X89960524Y-103729475D01*
X89857894Y-103832106D01*
X89755262Y-103866316D01*
X89686841Y-103866316D01*
X89036841Y-103695264D02*
X88763157Y-103968949D01*
X88694736Y-103558422D02*
X89310525Y-104174211D01*
X89344736Y-104276843D01*
X89310525Y-104379474D01*
X89242104Y-104447896D01*
X88523684Y-104208422D02*
X89242105Y-104926842D01*
X88557895Y-104242632D02*
X88455263Y-104276843D01*
X88318422Y-104413684D01*
X88284211Y-104516316D01*
X88284211Y-104584737D01*
X88318422Y-104687369D01*
X88523684Y-104892631D01*
X88626316Y-104926842D01*
X88694737Y-104926842D01*
X88797368Y-104892631D01*
X88934210Y-104755790D01*
X88968420Y-104653158D01*
X87565791Y-105166315D02*
X88044737Y-105645262D01*
X87873685Y-104858421D02*
X88250000Y-105234736D01*
X88284210Y-105337368D01*
X88250000Y-105440000D01*
X88147369Y-105542630D01*
X88044737Y-105576841D01*
X87976316Y-105576841D01*
X87326317Y-105405789D02*
X87052633Y-105679473D01*
X86984212Y-105268947D02*
X87600000Y-105884736D01*
X87634211Y-105987367D01*
X87600000Y-106089999D01*
X87531579Y-106158420D01*
D13*
X125293333Y-106132381D02*
X125293333Y-106846667D01*
X125340953Y-106989524D01*
X125436191Y-107084762D01*
X125579048Y-107132381D01*
X125674286Y-107132381D01*
X124817143Y-107132381D02*
X124817143Y-106132381D01*
X124436190Y-106132381D01*
X124340952Y-106180000D01*
X124293333Y-106227619D01*
X124245714Y-106322857D01*
X124245714Y-106465714D01*
X124293333Y-106560952D01*
X124340952Y-106608571D01*
X124436190Y-106656190D01*
X124817143Y-106656190D01*
X123293333Y-107132381D02*
X123864762Y-107132381D01*
X123579048Y-107132381D02*
X123579048Y-106132381D01*
X123674286Y-106275238D01*
X123769524Y-106370476D01*
X123864762Y-106418095D01*
X79446333Y-106132381D02*
X79446333Y-106846667D01*
X79493953Y-106989524D01*
X79589191Y-107084762D01*
X79732048Y-107132381D01*
X79827286Y-107132381D01*
X78970143Y-107132381D02*
X78970143Y-106132381D01*
X78589190Y-106132381D01*
X78493952Y-106180000D01*
X78446333Y-106227619D01*
X78398714Y-106322857D01*
X78398714Y-106465714D01*
X78446333Y-106560952D01*
X78493952Y-106608571D01*
X78589190Y-106656190D01*
X78970143Y-106656190D01*
X78017762Y-106227619D02*
X77970143Y-106180000D01*
X77874905Y-106132381D01*
X77636809Y-106132381D01*
X77541571Y-106180000D01*
X77493952Y-106227619D01*
X77446333Y-106322857D01*
X77446333Y-106418095D01*
X77493952Y-106560952D01*
X78065381Y-107132381D01*
X77446333Y-107132381D01*
%LPC*%
D14*
X116840000Y-99803949D03*
X118636051Y-101600000D03*
X116840000Y-103396051D03*
X115043949Y-101600000D03*
X84563949Y-101600000D03*
X86360000Y-99803949D03*
X88156051Y-101600000D03*
X86360000Y-103396051D03*
D15*
X109220000Y-93980000D03*
X93980000Y-109220000D03*
D16*
X90170000Y-111760000D03*
X92710000Y-91440000D03*
X97790000Y-91440000D03*
X107950000Y-111760000D03*
X110490000Y-111760000D03*
D17*
X82550000Y-111760000D03*
X85090000Y-111760000D03*
X87630000Y-111760000D03*
X92710000Y-111760000D03*
X95250000Y-111760000D03*
X97790000Y-111760000D03*
X100330000Y-111760000D03*
X102870000Y-111760000D03*
X105410000Y-111760000D03*
X113030000Y-111760000D03*
X115570000Y-111760000D03*
X118110000Y-111760000D03*
X120650000Y-111760000D03*
X120650000Y-91440000D03*
X118110000Y-91440000D03*
X115570000Y-91440000D03*
X113030000Y-91440000D03*
X110490000Y-91440000D03*
X107950000Y-91440000D03*
X105410000Y-91440000D03*
X102870000Y-91440000D03*
X100330000Y-91440000D03*
X95250000Y-91440000D03*
D15*
X78740000Y-110490000D03*
X124460000Y-110490000D03*
X124460000Y-92710000D03*
X78740000Y-92710000D03*
D18*
X124460000Y-99060000D03*
X124460000Y-101600000D03*
X124460000Y-104140000D03*
D19*
X121920000Y-101600000D03*
D20*
X121920000Y-103886000D03*
X121920000Y-99314000D03*
D18*
X78740000Y-104140000D03*
X78740000Y-101600000D03*
X78740000Y-99060000D03*
D19*
X81280000Y-101600000D03*
D20*
X81280000Y-99314000D03*
X81280000Y-103886000D03*
M02*
