%TF.GenerationSoftware,KiCad,Pcbnew,4.0.5-e0-6337~49~ubuntu16.04.1*%
%TF.CreationDate,2017-01-01T02:05:38+05:30*%
%TF.ProjectId,feather_v2,666561746865725F76322E6B69636164,rev?*%
%TF.FileFunction,Legend,Top*%
%FSLAX46Y46*%
G04 Gerber Fmt 4.6, Leading zero omitted, Abs format (unit mm)*
G04 Created by KiCad (PCBNEW 4.0.5-e0-6337~49~ubuntu16.04.1) date Sun Jan  1 02:05:38 2017*
%MOMM*%
%LPD*%
G01*
G04 APERTURE LIST*
%ADD10C,0.101600*%
%ADD11C,0.010000*%
%ADD12C,0.150000*%
%ADD13C,0.152400*%
G04 APERTURE END LIST*
D10*
D11*
G36*
X103885141Y-101319868D02*
X103885704Y-101130670D01*
X103886553Y-100948197D01*
X103887693Y-100775198D01*
X103889121Y-100614420D01*
X103890837Y-100468612D01*
X103892843Y-100340522D01*
X103895137Y-100232899D01*
X103897719Y-100148489D01*
X103900591Y-100090042D01*
X103903751Y-100060306D01*
X103904101Y-100058955D01*
X103939801Y-99985350D01*
X103992954Y-99931728D01*
X104057582Y-99898744D01*
X104127706Y-99887052D01*
X104197346Y-99897308D01*
X104260525Y-99930167D01*
X104311264Y-99986283D01*
X104325553Y-100012782D01*
X104354312Y-100075181D01*
X105836141Y-100075591D01*
X107317969Y-100076000D01*
X108058641Y-99648806D01*
X108215615Y-99558263D01*
X108394444Y-99455103D01*
X108589483Y-99342584D01*
X108795090Y-99223962D01*
X109005620Y-99102493D01*
X109215429Y-98981432D01*
X109418874Y-98864037D01*
X109610312Y-98753563D01*
X109695770Y-98704244D01*
X109850722Y-98615033D01*
X109997946Y-98530691D01*
X110135082Y-98452542D01*
X110259771Y-98381911D01*
X110369652Y-98320123D01*
X110462365Y-98268503D01*
X110535552Y-98228376D01*
X110586852Y-98201066D01*
X110613905Y-98187898D01*
X110617254Y-98186875D01*
X110637854Y-98194741D01*
X110682330Y-98217046D01*
X110747359Y-98251855D01*
X110829615Y-98297233D01*
X110925774Y-98351244D01*
X111032511Y-98411953D01*
X111146503Y-98477423D01*
X111264423Y-98545721D01*
X111382948Y-98614909D01*
X111498754Y-98683052D01*
X111608515Y-98748216D01*
X111708906Y-98808463D01*
X111796605Y-98861859D01*
X111868285Y-98906468D01*
X111920622Y-98940355D01*
X111950292Y-98961584D01*
X111954468Y-98965401D01*
X111998125Y-99012876D01*
X111998125Y-104187125D01*
X111954468Y-104234600D01*
X111932746Y-104251394D01*
X111887288Y-104281461D01*
X111821420Y-104322866D01*
X111738466Y-104373675D01*
X111641753Y-104431950D01*
X111534605Y-104495758D01*
X111420346Y-104563162D01*
X111302303Y-104632228D01*
X111183800Y-104701019D01*
X111068163Y-104767600D01*
X110958717Y-104830037D01*
X110858786Y-104886392D01*
X110771695Y-104934733D01*
X110700771Y-104973121D01*
X110649338Y-104999623D01*
X110620720Y-105012303D01*
X110616933Y-105013126D01*
X110601738Y-105006861D01*
X110601738Y-104508183D01*
X111077681Y-104233492D01*
X111553625Y-103958802D01*
X111553625Y-99241346D01*
X111076873Y-98966306D01*
X110600121Y-98691265D01*
X110414091Y-98799373D01*
X110330084Y-98847892D01*
X110241405Y-98898609D01*
X110158982Y-98945301D01*
X110097315Y-98979772D01*
X109966567Y-99052063D01*
X109966125Y-101067875D01*
X110263781Y-100772252D01*
X110344852Y-100692275D01*
X110419905Y-100619259D01*
X110485609Y-100556362D01*
X110538634Y-100506743D01*
X110575650Y-100473560D01*
X110592697Y-100460268D01*
X110630230Y-100452957D01*
X110665316Y-100465296D01*
X110701070Y-100490308D01*
X110745828Y-100530694D01*
X110793770Y-100579952D01*
X110839074Y-100631580D01*
X110875919Y-100679074D01*
X110898484Y-100715933D01*
X110902750Y-100730520D01*
X110892200Y-100752868D01*
X110860232Y-100794213D01*
X110806363Y-100855092D01*
X110730114Y-100936040D01*
X110631002Y-101037592D01*
X110589741Y-101079190D01*
X110276732Y-101393625D01*
X110711522Y-101393625D01*
X110842308Y-101393814D01*
X110945011Y-101394520D01*
X111023296Y-101395949D01*
X111080830Y-101398309D01*
X111121276Y-101401809D01*
X111148301Y-101406655D01*
X111165570Y-101413056D01*
X111175343Y-101419898D01*
X111188829Y-101436734D01*
X111197459Y-101462193D01*
X111202237Y-101502819D01*
X111204165Y-101565156D01*
X111204375Y-101609246D01*
X111203988Y-101682993D01*
X111201820Y-101731948D01*
X111196360Y-101763068D01*
X111186094Y-101783310D01*
X111169512Y-101799630D01*
X111161627Y-101805947D01*
X111147620Y-101816079D01*
X111131895Y-101823883D01*
X111110501Y-101829608D01*
X111079484Y-101833503D01*
X111034892Y-101835815D01*
X110972771Y-101836793D01*
X110889170Y-101836686D01*
X110780136Y-101835741D01*
X110701238Y-101834880D01*
X110589830Y-101833664D01*
X110489621Y-101832637D01*
X110404754Y-101831836D01*
X110339372Y-101831300D01*
X110297619Y-101831063D01*
X110283611Y-101831154D01*
X110294389Y-101842126D01*
X110324776Y-101872577D01*
X110371863Y-101919606D01*
X110432739Y-101980307D01*
X110504496Y-102051779D01*
X110584225Y-102131118D01*
X110585894Y-102132779D01*
X110666741Y-102214205D01*
X110740133Y-102290054D01*
X110802994Y-102356990D01*
X110852247Y-102411678D01*
X110884816Y-102450782D01*
X110897556Y-102470663D01*
X110898152Y-102491093D01*
X110887567Y-102515531D01*
X110862398Y-102548775D01*
X110819244Y-102595625D01*
X110782190Y-102633382D01*
X110717657Y-102695633D01*
X110669575Y-102735484D01*
X110634681Y-102755419D01*
X110617521Y-102758875D01*
X110599558Y-102753549D01*
X110572344Y-102736229D01*
X110533608Y-102704910D01*
X110481079Y-102657584D01*
X110412484Y-102592243D01*
X110325551Y-102506880D01*
X110271867Y-102453434D01*
X109966125Y-102147993D01*
X109966125Y-102575443D01*
X109966235Y-102714762D01*
X109965593Y-102825588D01*
X109962739Y-102911172D01*
X109956213Y-102974762D01*
X109944556Y-103019608D01*
X109926308Y-103048960D01*
X109900009Y-103066068D01*
X109864200Y-103074180D01*
X109817420Y-103076546D01*
X109758211Y-103076417D01*
X109741107Y-103076375D01*
X109679737Y-103076751D01*
X109630980Y-103075702D01*
X109593390Y-103069967D01*
X109565522Y-103056283D01*
X109545933Y-103031389D01*
X109533178Y-102992023D01*
X109525811Y-102934922D01*
X109522388Y-102856824D01*
X109521465Y-102754468D01*
X109521596Y-102624591D01*
X109521625Y-102580804D01*
X109521625Y-102148733D01*
X109207189Y-102461742D01*
X109116371Y-102551102D01*
X109035517Y-102628596D01*
X108967128Y-102691949D01*
X108913706Y-102738886D01*
X108877753Y-102767132D01*
X108862990Y-102774750D01*
X108836392Y-102763254D01*
X108795976Y-102732729D01*
X108747523Y-102689124D01*
X108696817Y-102638387D01*
X108649641Y-102586466D01*
X108611778Y-102539310D01*
X108589010Y-102502866D01*
X108585000Y-102488823D01*
X108591738Y-102469893D01*
X108613065Y-102438933D01*
X108650648Y-102394064D01*
X108706153Y-102333410D01*
X108781247Y-102255092D01*
X108877597Y-102157233D01*
X108894083Y-102140655D01*
X109203166Y-101830188D01*
X108778775Y-101834866D01*
X108640249Y-101836547D01*
X108530203Y-101837206D01*
X108445374Y-101835349D01*
X108382496Y-101829485D01*
X108338302Y-101818121D01*
X108309528Y-101799764D01*
X108292909Y-101772922D01*
X108285179Y-101736103D01*
X108283073Y-101687814D01*
X108283325Y-101626564D01*
X108283375Y-101608454D01*
X108284496Y-101528223D01*
X108288371Y-101473863D01*
X108295763Y-101439555D01*
X108307438Y-101419481D01*
X108308321Y-101418572D01*
X108319469Y-101411079D01*
X108338540Y-101405220D01*
X108369092Y-101400802D01*
X108414686Y-101397635D01*
X108478878Y-101395527D01*
X108565230Y-101394286D01*
X108677298Y-101393721D01*
X108772142Y-101393625D01*
X109211017Y-101393625D01*
X108898008Y-101079190D01*
X108795240Y-100975023D01*
X108714457Y-100890982D01*
X108654357Y-100825607D01*
X108613639Y-100777442D01*
X108591001Y-100745027D01*
X108585000Y-100728565D01*
X108597050Y-100696360D01*
X108631515Y-100648071D01*
X108684218Y-100588969D01*
X108750807Y-100522723D01*
X108802289Y-100479631D01*
X108842492Y-100457356D01*
X108875242Y-100453563D01*
X108895052Y-100460268D01*
X108914412Y-100475552D01*
X108952842Y-100510177D01*
X109007013Y-100560984D01*
X109073594Y-100624814D01*
X109149256Y-100698509D01*
X109223968Y-100772252D01*
X109521625Y-101067875D01*
X109521625Y-99311411D01*
X109470031Y-99342706D01*
X109411823Y-99377529D01*
X109333049Y-99423922D01*
X109236349Y-99480377D01*
X109124365Y-99545386D01*
X108999736Y-99617441D01*
X108865105Y-99695034D01*
X108723113Y-99776656D01*
X108576400Y-99860799D01*
X108427608Y-99945956D01*
X108279378Y-100030618D01*
X108134351Y-100113277D01*
X107995167Y-100192424D01*
X107864468Y-100266552D01*
X107744896Y-100334153D01*
X107639090Y-100393718D01*
X107549693Y-100443740D01*
X107479345Y-100482709D01*
X107430688Y-100509118D01*
X107406361Y-100521460D01*
X107404659Y-100522104D01*
X107381630Y-100524214D01*
X107329011Y-100526221D01*
X107248962Y-100528105D01*
X107143643Y-100529846D01*
X107015212Y-100531425D01*
X106865830Y-100532821D01*
X106697656Y-100534015D01*
X106512850Y-100534987D01*
X106313573Y-100535718D01*
X106101983Y-100536186D01*
X105880240Y-100536373D01*
X105850636Y-100536375D01*
X104346375Y-100536375D01*
X104346375Y-102663011D01*
X107418187Y-102671563D01*
X108013500Y-103015271D01*
X108168868Y-103104982D01*
X108341244Y-103204527D01*
X108522961Y-103309479D01*
X108706356Y-103415410D01*
X108883764Y-103517894D01*
X109047521Y-103612504D01*
X109164437Y-103680060D01*
X109416399Y-103825644D01*
X109644050Y-103957143D01*
X109847010Y-104074336D01*
X110024897Y-104177005D01*
X110177331Y-104264929D01*
X110303931Y-104337890D01*
X110404316Y-104395668D01*
X110478107Y-104438043D01*
X110524921Y-104464795D01*
X110533962Y-104469919D01*
X110601738Y-104508183D01*
X110601738Y-105006861D01*
X110598214Y-105005407D01*
X110555010Y-104983339D01*
X110490273Y-104948556D01*
X110406953Y-104902689D01*
X110307999Y-104847372D01*
X110196362Y-104784237D01*
X110074993Y-104714917D01*
X109997074Y-104670081D01*
X109847890Y-104583993D01*
X109686959Y-104491116D01*
X109520876Y-104395258D01*
X109356236Y-104300224D01*
X109199633Y-104209821D01*
X109057663Y-104127855D01*
X108942187Y-104061177D01*
X108818821Y-103989938D01*
X108674738Y-103906741D01*
X108516716Y-103815500D01*
X108351537Y-103720130D01*
X108185979Y-103624545D01*
X108026823Y-103532659D01*
X107900372Y-103459659D01*
X107318931Y-103124000D01*
X105836622Y-103124410D01*
X104354312Y-103124820D01*
X104325553Y-103187219D01*
X104280866Y-103252017D01*
X104221549Y-103293317D01*
X104153581Y-103311775D01*
X104082941Y-103308045D01*
X104015606Y-103282782D01*
X103957557Y-103236642D01*
X103914771Y-103170279D01*
X103904101Y-103141046D01*
X103900910Y-103114499D01*
X103898009Y-103058952D01*
X103895396Y-102977153D01*
X103893071Y-102871849D01*
X103891035Y-102745789D01*
X103889288Y-102601721D01*
X103887830Y-102442394D01*
X103886660Y-102270554D01*
X103885780Y-102088951D01*
X103885187Y-101900333D01*
X103884883Y-101707448D01*
X103884868Y-101513043D01*
X103885141Y-101319868D01*
X103885141Y-101319868D01*
G37*
X103885141Y-101319868D02*
X103885704Y-101130670D01*
X103886553Y-100948197D01*
X103887693Y-100775198D01*
X103889121Y-100614420D01*
X103890837Y-100468612D01*
X103892843Y-100340522D01*
X103895137Y-100232899D01*
X103897719Y-100148489D01*
X103900591Y-100090042D01*
X103903751Y-100060306D01*
X103904101Y-100058955D01*
X103939801Y-99985350D01*
X103992954Y-99931728D01*
X104057582Y-99898744D01*
X104127706Y-99887052D01*
X104197346Y-99897308D01*
X104260525Y-99930167D01*
X104311264Y-99986283D01*
X104325553Y-100012782D01*
X104354312Y-100075181D01*
X105836141Y-100075591D01*
X107317969Y-100076000D01*
X108058641Y-99648806D01*
X108215615Y-99558263D01*
X108394444Y-99455103D01*
X108589483Y-99342584D01*
X108795090Y-99223962D01*
X109005620Y-99102493D01*
X109215429Y-98981432D01*
X109418874Y-98864037D01*
X109610312Y-98753563D01*
X109695770Y-98704244D01*
X109850722Y-98615033D01*
X109997946Y-98530691D01*
X110135082Y-98452542D01*
X110259771Y-98381911D01*
X110369652Y-98320123D01*
X110462365Y-98268503D01*
X110535552Y-98228376D01*
X110586852Y-98201066D01*
X110613905Y-98187898D01*
X110617254Y-98186875D01*
X110637854Y-98194741D01*
X110682330Y-98217046D01*
X110747359Y-98251855D01*
X110829615Y-98297233D01*
X110925774Y-98351244D01*
X111032511Y-98411953D01*
X111146503Y-98477423D01*
X111264423Y-98545721D01*
X111382948Y-98614909D01*
X111498754Y-98683052D01*
X111608515Y-98748216D01*
X111708906Y-98808463D01*
X111796605Y-98861859D01*
X111868285Y-98906468D01*
X111920622Y-98940355D01*
X111950292Y-98961584D01*
X111954468Y-98965401D01*
X111998125Y-99012876D01*
X111998125Y-104187125D01*
X111954468Y-104234600D01*
X111932746Y-104251394D01*
X111887288Y-104281461D01*
X111821420Y-104322866D01*
X111738466Y-104373675D01*
X111641753Y-104431950D01*
X111534605Y-104495758D01*
X111420346Y-104563162D01*
X111302303Y-104632228D01*
X111183800Y-104701019D01*
X111068163Y-104767600D01*
X110958717Y-104830037D01*
X110858786Y-104886392D01*
X110771695Y-104934733D01*
X110700771Y-104973121D01*
X110649338Y-104999623D01*
X110620720Y-105012303D01*
X110616933Y-105013126D01*
X110601738Y-105006861D01*
X110601738Y-104508183D01*
X111077681Y-104233492D01*
X111553625Y-103958802D01*
X111553625Y-99241346D01*
X111076873Y-98966306D01*
X110600121Y-98691265D01*
X110414091Y-98799373D01*
X110330084Y-98847892D01*
X110241405Y-98898609D01*
X110158982Y-98945301D01*
X110097315Y-98979772D01*
X109966567Y-99052063D01*
X109966125Y-101067875D01*
X110263781Y-100772252D01*
X110344852Y-100692275D01*
X110419905Y-100619259D01*
X110485609Y-100556362D01*
X110538634Y-100506743D01*
X110575650Y-100473560D01*
X110592697Y-100460268D01*
X110630230Y-100452957D01*
X110665316Y-100465296D01*
X110701070Y-100490308D01*
X110745828Y-100530694D01*
X110793770Y-100579952D01*
X110839074Y-100631580D01*
X110875919Y-100679074D01*
X110898484Y-100715933D01*
X110902750Y-100730520D01*
X110892200Y-100752868D01*
X110860232Y-100794213D01*
X110806363Y-100855092D01*
X110730114Y-100936040D01*
X110631002Y-101037592D01*
X110589741Y-101079190D01*
X110276732Y-101393625D01*
X110711522Y-101393625D01*
X110842308Y-101393814D01*
X110945011Y-101394520D01*
X111023296Y-101395949D01*
X111080830Y-101398309D01*
X111121276Y-101401809D01*
X111148301Y-101406655D01*
X111165570Y-101413056D01*
X111175343Y-101419898D01*
X111188829Y-101436734D01*
X111197459Y-101462193D01*
X111202237Y-101502819D01*
X111204165Y-101565156D01*
X111204375Y-101609246D01*
X111203988Y-101682993D01*
X111201820Y-101731948D01*
X111196360Y-101763068D01*
X111186094Y-101783310D01*
X111169512Y-101799630D01*
X111161627Y-101805947D01*
X111147620Y-101816079D01*
X111131895Y-101823883D01*
X111110501Y-101829608D01*
X111079484Y-101833503D01*
X111034892Y-101835815D01*
X110972771Y-101836793D01*
X110889170Y-101836686D01*
X110780136Y-101835741D01*
X110701238Y-101834880D01*
X110589830Y-101833664D01*
X110489621Y-101832637D01*
X110404754Y-101831836D01*
X110339372Y-101831300D01*
X110297619Y-101831063D01*
X110283611Y-101831154D01*
X110294389Y-101842126D01*
X110324776Y-101872577D01*
X110371863Y-101919606D01*
X110432739Y-101980307D01*
X110504496Y-102051779D01*
X110584225Y-102131118D01*
X110585894Y-102132779D01*
X110666741Y-102214205D01*
X110740133Y-102290054D01*
X110802994Y-102356990D01*
X110852247Y-102411678D01*
X110884816Y-102450782D01*
X110897556Y-102470663D01*
X110898152Y-102491093D01*
X110887567Y-102515531D01*
X110862398Y-102548775D01*
X110819244Y-102595625D01*
X110782190Y-102633382D01*
X110717657Y-102695633D01*
X110669575Y-102735484D01*
X110634681Y-102755419D01*
X110617521Y-102758875D01*
X110599558Y-102753549D01*
X110572344Y-102736229D01*
X110533608Y-102704910D01*
X110481079Y-102657584D01*
X110412484Y-102592243D01*
X110325551Y-102506880D01*
X110271867Y-102453434D01*
X109966125Y-102147993D01*
X109966125Y-102575443D01*
X109966235Y-102714762D01*
X109965593Y-102825588D01*
X109962739Y-102911172D01*
X109956213Y-102974762D01*
X109944556Y-103019608D01*
X109926308Y-103048960D01*
X109900009Y-103066068D01*
X109864200Y-103074180D01*
X109817420Y-103076546D01*
X109758211Y-103076417D01*
X109741107Y-103076375D01*
X109679737Y-103076751D01*
X109630980Y-103075702D01*
X109593390Y-103069967D01*
X109565522Y-103056283D01*
X109545933Y-103031389D01*
X109533178Y-102992023D01*
X109525811Y-102934922D01*
X109522388Y-102856824D01*
X109521465Y-102754468D01*
X109521596Y-102624591D01*
X109521625Y-102580804D01*
X109521625Y-102148733D01*
X109207189Y-102461742D01*
X109116371Y-102551102D01*
X109035517Y-102628596D01*
X108967128Y-102691949D01*
X108913706Y-102738886D01*
X108877753Y-102767132D01*
X108862990Y-102774750D01*
X108836392Y-102763254D01*
X108795976Y-102732729D01*
X108747523Y-102689124D01*
X108696817Y-102638387D01*
X108649641Y-102586466D01*
X108611778Y-102539310D01*
X108589010Y-102502866D01*
X108585000Y-102488823D01*
X108591738Y-102469893D01*
X108613065Y-102438933D01*
X108650648Y-102394064D01*
X108706153Y-102333410D01*
X108781247Y-102255092D01*
X108877597Y-102157233D01*
X108894083Y-102140655D01*
X109203166Y-101830188D01*
X108778775Y-101834866D01*
X108640249Y-101836547D01*
X108530203Y-101837206D01*
X108445374Y-101835349D01*
X108382496Y-101829485D01*
X108338302Y-101818121D01*
X108309528Y-101799764D01*
X108292909Y-101772922D01*
X108285179Y-101736103D01*
X108283073Y-101687814D01*
X108283325Y-101626564D01*
X108283375Y-101608454D01*
X108284496Y-101528223D01*
X108288371Y-101473863D01*
X108295763Y-101439555D01*
X108307438Y-101419481D01*
X108308321Y-101418572D01*
X108319469Y-101411079D01*
X108338540Y-101405220D01*
X108369092Y-101400802D01*
X108414686Y-101397635D01*
X108478878Y-101395527D01*
X108565230Y-101394286D01*
X108677298Y-101393721D01*
X108772142Y-101393625D01*
X109211017Y-101393625D01*
X108898008Y-101079190D01*
X108795240Y-100975023D01*
X108714457Y-100890982D01*
X108654357Y-100825607D01*
X108613639Y-100777442D01*
X108591001Y-100745027D01*
X108585000Y-100728565D01*
X108597050Y-100696360D01*
X108631515Y-100648071D01*
X108684218Y-100588969D01*
X108750807Y-100522723D01*
X108802289Y-100479631D01*
X108842492Y-100457356D01*
X108875242Y-100453563D01*
X108895052Y-100460268D01*
X108914412Y-100475552D01*
X108952842Y-100510177D01*
X109007013Y-100560984D01*
X109073594Y-100624814D01*
X109149256Y-100698509D01*
X109223968Y-100772252D01*
X109521625Y-101067875D01*
X109521625Y-99311411D01*
X109470031Y-99342706D01*
X109411823Y-99377529D01*
X109333049Y-99423922D01*
X109236349Y-99480377D01*
X109124365Y-99545386D01*
X108999736Y-99617441D01*
X108865105Y-99695034D01*
X108723113Y-99776656D01*
X108576400Y-99860799D01*
X108427608Y-99945956D01*
X108279378Y-100030618D01*
X108134351Y-100113277D01*
X107995167Y-100192424D01*
X107864468Y-100266552D01*
X107744896Y-100334153D01*
X107639090Y-100393718D01*
X107549693Y-100443740D01*
X107479345Y-100482709D01*
X107430688Y-100509118D01*
X107406361Y-100521460D01*
X107404659Y-100522104D01*
X107381630Y-100524214D01*
X107329011Y-100526221D01*
X107248962Y-100528105D01*
X107143643Y-100529846D01*
X107015212Y-100531425D01*
X106865830Y-100532821D01*
X106697656Y-100534015D01*
X106512850Y-100534987D01*
X106313573Y-100535718D01*
X106101983Y-100536186D01*
X105880240Y-100536373D01*
X105850636Y-100536375D01*
X104346375Y-100536375D01*
X104346375Y-102663011D01*
X107418187Y-102671563D01*
X108013500Y-103015271D01*
X108168868Y-103104982D01*
X108341244Y-103204527D01*
X108522961Y-103309479D01*
X108706356Y-103415410D01*
X108883764Y-103517894D01*
X109047521Y-103612504D01*
X109164437Y-103680060D01*
X109416399Y-103825644D01*
X109644050Y-103957143D01*
X109847010Y-104074336D01*
X110024897Y-104177005D01*
X110177331Y-104264929D01*
X110303931Y-104337890D01*
X110404316Y-104395668D01*
X110478107Y-104438043D01*
X110524921Y-104464795D01*
X110533962Y-104469919D01*
X110601738Y-104508183D01*
X110601738Y-105006861D01*
X110598214Y-105005407D01*
X110555010Y-104983339D01*
X110490273Y-104948556D01*
X110406953Y-104902689D01*
X110307999Y-104847372D01*
X110196362Y-104784237D01*
X110074993Y-104714917D01*
X109997074Y-104670081D01*
X109847890Y-104583993D01*
X109686959Y-104491116D01*
X109520876Y-104395258D01*
X109356236Y-104300224D01*
X109199633Y-104209821D01*
X109057663Y-104127855D01*
X108942187Y-104061177D01*
X108818821Y-103989938D01*
X108674738Y-103906741D01*
X108516716Y-103815500D01*
X108351537Y-103720130D01*
X108185979Y-103624545D01*
X108026823Y-103532659D01*
X107900372Y-103459659D01*
X107318931Y-103124000D01*
X105836622Y-103124410D01*
X104354312Y-103124820D01*
X104325553Y-103187219D01*
X104280866Y-103252017D01*
X104221549Y-103293317D01*
X104153581Y-103311775D01*
X104082941Y-103308045D01*
X104015606Y-103282782D01*
X103957557Y-103236642D01*
X103914771Y-103170279D01*
X103904101Y-103141046D01*
X103900910Y-103114499D01*
X103898009Y-103058952D01*
X103895396Y-102977153D01*
X103893071Y-102871849D01*
X103891035Y-102745789D01*
X103889288Y-102601721D01*
X103887830Y-102442394D01*
X103886660Y-102270554D01*
X103885780Y-102088951D01*
X103885187Y-101900333D01*
X103884883Y-101707448D01*
X103884868Y-101513043D01*
X103885141Y-101319868D01*
G36*
X123115522Y-102983612D02*
X123197745Y-102920770D01*
X123242924Y-102884250D01*
X123310903Y-102825435D01*
X123396337Y-102749135D01*
X123493882Y-102660167D01*
X123598193Y-102563341D01*
X123674806Y-102491160D01*
X124040882Y-102143986D01*
X124197808Y-102143768D01*
X124292064Y-102143079D01*
X124405162Y-102141438D01*
X124516890Y-102139156D01*
X124548617Y-102138354D01*
X124742500Y-102133156D01*
X124977102Y-102348794D01*
X125064231Y-102429130D01*
X125127706Y-102489187D01*
X125172653Y-102535114D01*
X125204200Y-102573066D01*
X125227471Y-102609194D01*
X125247595Y-102649648D01*
X125269115Y-102699214D01*
X125293776Y-102757491D01*
X125307366Y-102800458D01*
X125306557Y-102835187D01*
X125288021Y-102868745D01*
X125248430Y-102908201D01*
X125184456Y-102960627D01*
X125123337Y-103008864D01*
X125055625Y-103059744D01*
X124986035Y-103107970D01*
X124944617Y-103134091D01*
X124878965Y-103172615D01*
X124813975Y-103210801D01*
X124800440Y-103218763D01*
X124738976Y-103241815D01*
X124647775Y-103258509D01*
X124558268Y-103266154D01*
X124551357Y-103266716D01*
X124695025Y-103123048D01*
X124697404Y-103124341D01*
X124725860Y-103113747D01*
X124777670Y-103085525D01*
X124844572Y-103045017D01*
X124918308Y-102997569D01*
X124990616Y-102948522D01*
X125053237Y-102903218D01*
X125097910Y-102867002D01*
X125103826Y-102861455D01*
X125145458Y-102818379D01*
X125162720Y-102788048D01*
X125160205Y-102756982D01*
X125149310Y-102727992D01*
X125110182Y-102654015D01*
X125059538Y-102603377D01*
X124988944Y-102570733D01*
X124889966Y-102550736D01*
X124864819Y-102547648D01*
X124780052Y-102540089D01*
X124723369Y-102541360D01*
X124684537Y-102552623D01*
X124657624Y-102571181D01*
X124615563Y-102617445D01*
X124595523Y-102659534D01*
X124599924Y-102689246D01*
X124620062Y-102698415D01*
X124654233Y-102713473D01*
X124656249Y-102745491D01*
X124625751Y-102788721D01*
X124625673Y-102788799D01*
X124606474Y-102812958D01*
X124599709Y-102841387D01*
X124605809Y-102883839D01*
X124625200Y-102950070D01*
X124633926Y-102976799D01*
X124658396Y-103045707D01*
X124680038Y-103097421D01*
X124695025Y-103123048D01*
X124551357Y-103266716D01*
X124452486Y-103274765D01*
X124331602Y-103289741D01*
X124218471Y-103308159D01*
X124197664Y-103312227D01*
X124070602Y-103331982D01*
X123924667Y-103342835D01*
X123820740Y-103344121D01*
X123959415Y-103205446D01*
X123982893Y-103209470D01*
X123987780Y-103209733D01*
X124026880Y-103207526D01*
X124094201Y-103199635D01*
X124179521Y-103187378D01*
X124253047Y-103175459D01*
X124349770Y-103160390D01*
X124440946Y-103148668D01*
X124514527Y-103141711D01*
X124550105Y-103140455D01*
X124604461Y-103138177D01*
X124641211Y-103130369D01*
X124646658Y-103127024D01*
X124648275Y-103102371D01*
X124638317Y-103051673D01*
X124618911Y-102985481D01*
X124616883Y-102979444D01*
X124591760Y-102909612D01*
X124572555Y-102869876D01*
X124554521Y-102852737D01*
X124535262Y-102850445D01*
X124494702Y-102844218D01*
X124492396Y-102842799D01*
X124533059Y-102802137D01*
X124554726Y-102802868D01*
X124558155Y-102802117D01*
X124598338Y-102786522D01*
X124607077Y-102761096D01*
X124605956Y-102755162D01*
X124588908Y-102739317D01*
X124561618Y-102748973D01*
X124539211Y-102777588D01*
X124533059Y-102802137D01*
X124492396Y-102842799D01*
X124479757Y-102835020D01*
X124450923Y-102830095D01*
X124398242Y-102839415D01*
X124332552Y-102859236D01*
X124264696Y-102885816D01*
X124205515Y-102915407D01*
X124167123Y-102942979D01*
X124126247Y-102976706D01*
X124091533Y-102994805D01*
X124091342Y-102994848D01*
X124064023Y-103015419D01*
X124026635Y-103062510D01*
X123999631Y-103104447D01*
X123966895Y-103160835D01*
X123953786Y-103191868D01*
X123959415Y-103205446D01*
X123820740Y-103344121D01*
X123754268Y-103344943D01*
X123553813Y-103338459D01*
X123452054Y-103332763D01*
X123319609Y-103315998D01*
X123267291Y-103300192D01*
X123379567Y-103187917D01*
X123390648Y-103196444D01*
X123397589Y-103198625D01*
X123440168Y-103204958D01*
X123507775Y-103208826D01*
X123591156Y-103210387D01*
X123681062Y-103209797D01*
X123768239Y-103207216D01*
X123843437Y-103202800D01*
X123897403Y-103196709D01*
X123920399Y-103189707D01*
X123942929Y-103159199D01*
X123972546Y-103110216D01*
X123981309Y-103094257D01*
X124006359Y-103037170D01*
X124012091Y-103015539D01*
X124073685Y-102953946D01*
X124095893Y-102952509D01*
X124122039Y-102933222D01*
X124143274Y-102902530D01*
X124142763Y-102884867D01*
X124120554Y-102886305D01*
X124094408Y-102905591D01*
X124073173Y-102936285D01*
X124073685Y-102953946D01*
X124012091Y-103015539D01*
X124019779Y-102986535D01*
X124020499Y-102976611D01*
X124017185Y-102954619D01*
X124002136Y-102941493D01*
X123967502Y-102935060D01*
X123905433Y-102933150D01*
X123863580Y-102933202D01*
X123763390Y-102938300D01*
X123698345Y-102952713D01*
X123671935Y-102968853D01*
X123635080Y-102995812D01*
X123610253Y-103003683D01*
X123582923Y-103015492D01*
X123535852Y-103046622D01*
X123478680Y-103090631D01*
X123472184Y-103095984D01*
X123428836Y-103132675D01*
X123607401Y-102954110D01*
X123629068Y-102954841D01*
X123632498Y-102954090D01*
X123673099Y-102937012D01*
X123692031Y-102913841D01*
X123687658Y-102899499D01*
X123656925Y-102891210D01*
X123624784Y-102911601D01*
X123613555Y-102929562D01*
X123607401Y-102954110D01*
X123428836Y-103132675D01*
X123416210Y-103143362D01*
X123386712Y-103172115D01*
X123379567Y-103187917D01*
X123267291Y-103300192D01*
X123201016Y-103280172D01*
X123149157Y-103257762D01*
X123071105Y-103218155D01*
X123171053Y-103118207D01*
X123187743Y-103134280D01*
X123229633Y-103154593D01*
X123249342Y-103161909D01*
X123290689Y-103174718D01*
X123321880Y-103176197D01*
X123353875Y-103162554D01*
X123397631Y-103129999D01*
X123437813Y-103096697D01*
X123509929Y-103031169D01*
X123551838Y-102979603D01*
X123564300Y-102953112D01*
X123598355Y-102897316D01*
X123634401Y-102866301D01*
X123676642Y-102845504D01*
X123708038Y-102853049D01*
X123724902Y-102867664D01*
X123763951Y-102887088D01*
X123827481Y-102900054D01*
X123902513Y-102906049D01*
X123976070Y-102904562D01*
X124035175Y-102895080D01*
X124063711Y-102881025D01*
X124105212Y-102852622D01*
X124149008Y-102840554D01*
X124180682Y-102847889D01*
X124185977Y-102854997D01*
X124209404Y-102863811D01*
X124258063Y-102858473D01*
X124322155Y-102842155D01*
X124391883Y-102818030D01*
X124457451Y-102789268D01*
X124509061Y-102759041D01*
X124526031Y-102744911D01*
X124560266Y-102703219D01*
X124577983Y-102667105D01*
X124578417Y-102664273D01*
X124568178Y-102624748D01*
X124554251Y-102605567D01*
X124554132Y-102605246D01*
X124601200Y-102558178D01*
X124607136Y-102560561D01*
X124639443Y-102552070D01*
X124660666Y-102523534D01*
X124661408Y-102507277D01*
X124644600Y-102497082D01*
X124616295Y-102506193D01*
X124593985Y-102527715D01*
X124591213Y-102534947D01*
X124601200Y-102558178D01*
X124554132Y-102605246D01*
X124540323Y-102567850D01*
X124547423Y-102543476D01*
X124551537Y-102510179D01*
X124538600Y-102482181D01*
X124553155Y-102467627D01*
X124588722Y-102480035D01*
X124618447Y-102469434D01*
X124655701Y-102456782D01*
X124698029Y-102477836D01*
X124699106Y-102478687D01*
X124743699Y-102500703D01*
X124809795Y-102518716D01*
X124856822Y-102525876D01*
X124969377Y-102537141D01*
X124872321Y-102431878D01*
X124821386Y-102378701D01*
X124778254Y-102337352D01*
X124751649Y-102316161D01*
X124750442Y-102315562D01*
X124711142Y-102313894D01*
X124654443Y-102327757D01*
X124595732Y-102351421D01*
X124550398Y-102379155D01*
X124535976Y-102395443D01*
X124531594Y-102435859D01*
X124553155Y-102467627D01*
X124538600Y-102482181D01*
X124536134Y-102476845D01*
X124510775Y-102455901D01*
X124485015Y-102459780D01*
X124483891Y-102460846D01*
X124451375Y-102478067D01*
X124420281Y-102485997D01*
X124384924Y-102485862D01*
X124381731Y-102480110D01*
X124425986Y-102435855D01*
X124457079Y-102427975D01*
X124475157Y-102414316D01*
X124491218Y-102386369D01*
X124488157Y-102373684D01*
X124466012Y-102375234D01*
X124438987Y-102395223D01*
X124419866Y-102423115D01*
X124425986Y-102435855D01*
X124381731Y-102480110D01*
X124372276Y-102463073D01*
X124370978Y-102452407D01*
X124383785Y-102401211D01*
X124424586Y-102359001D01*
X124482301Y-102335217D01*
X124511014Y-102333049D01*
X124568114Y-102329171D01*
X124628599Y-102316533D01*
X124680139Y-102298837D01*
X124710408Y-102279787D01*
X124713815Y-102272128D01*
X124695394Y-102266542D01*
X124644521Y-102262886D01*
X124567783Y-102261339D01*
X124471766Y-102262079D01*
X124406536Y-102263731D01*
X124099257Y-102273465D01*
X123820488Y-102534237D01*
X123718090Y-102628890D01*
X123610026Y-102726835D01*
X123505315Y-102820027D01*
X123412972Y-102900425D01*
X123356386Y-102948209D01*
X123285344Y-103008225D01*
X123226893Y-103060060D01*
X123186868Y-103098364D01*
X123171100Y-103117786D01*
X123171053Y-103118207D01*
X123071105Y-103218155D01*
X123066791Y-103215967D01*
X123014323Y-103178202D01*
X122992358Y-103140274D01*
X123001501Y-103097994D01*
X123042353Y-103047170D01*
X123115522Y-102983612D01*
X123115522Y-102983612D01*
G37*
X123115522Y-102983612D02*
X123197745Y-102920770D01*
X123242924Y-102884250D01*
X123310903Y-102825435D01*
X123396337Y-102749135D01*
X123493882Y-102660167D01*
X123598193Y-102563341D01*
X123674806Y-102491160D01*
X124040882Y-102143986D01*
X124197808Y-102143768D01*
X124292064Y-102143079D01*
X124405162Y-102141438D01*
X124516890Y-102139156D01*
X124548617Y-102138354D01*
X124742500Y-102133156D01*
X124977102Y-102348794D01*
X125064231Y-102429130D01*
X125127706Y-102489187D01*
X125172653Y-102535114D01*
X125204200Y-102573066D01*
X125227471Y-102609194D01*
X125247595Y-102649648D01*
X125269115Y-102699214D01*
X125293776Y-102757491D01*
X125307366Y-102800458D01*
X125306557Y-102835187D01*
X125288021Y-102868745D01*
X125248430Y-102908201D01*
X125184456Y-102960627D01*
X125123337Y-103008864D01*
X125055625Y-103059744D01*
X124986035Y-103107970D01*
X124944617Y-103134091D01*
X124878965Y-103172615D01*
X124813975Y-103210801D01*
X124800440Y-103218763D01*
X124738976Y-103241815D01*
X124647775Y-103258509D01*
X124558268Y-103266154D01*
X124551357Y-103266716D01*
X124695025Y-103123048D01*
X124697404Y-103124341D01*
X124725860Y-103113747D01*
X124777670Y-103085525D01*
X124844572Y-103045017D01*
X124918308Y-102997569D01*
X124990616Y-102948522D01*
X125053237Y-102903218D01*
X125097910Y-102867002D01*
X125103826Y-102861455D01*
X125145458Y-102818379D01*
X125162720Y-102788048D01*
X125160205Y-102756982D01*
X125149310Y-102727992D01*
X125110182Y-102654015D01*
X125059538Y-102603377D01*
X124988944Y-102570733D01*
X124889966Y-102550736D01*
X124864819Y-102547648D01*
X124780052Y-102540089D01*
X124723369Y-102541360D01*
X124684537Y-102552623D01*
X124657624Y-102571181D01*
X124615563Y-102617445D01*
X124595523Y-102659534D01*
X124599924Y-102689246D01*
X124620062Y-102698415D01*
X124654233Y-102713473D01*
X124656249Y-102745491D01*
X124625751Y-102788721D01*
X124625673Y-102788799D01*
X124606474Y-102812958D01*
X124599709Y-102841387D01*
X124605809Y-102883839D01*
X124625200Y-102950070D01*
X124633926Y-102976799D01*
X124658396Y-103045707D01*
X124680038Y-103097421D01*
X124695025Y-103123048D01*
X124551357Y-103266716D01*
X124452486Y-103274765D01*
X124331602Y-103289741D01*
X124218471Y-103308159D01*
X124197664Y-103312227D01*
X124070602Y-103331982D01*
X123924667Y-103342835D01*
X123820740Y-103344121D01*
X123959415Y-103205446D01*
X123982893Y-103209470D01*
X123987780Y-103209733D01*
X124026880Y-103207526D01*
X124094201Y-103199635D01*
X124179521Y-103187378D01*
X124253047Y-103175459D01*
X124349770Y-103160390D01*
X124440946Y-103148668D01*
X124514527Y-103141711D01*
X124550105Y-103140455D01*
X124604461Y-103138177D01*
X124641211Y-103130369D01*
X124646658Y-103127024D01*
X124648275Y-103102371D01*
X124638317Y-103051673D01*
X124618911Y-102985481D01*
X124616883Y-102979444D01*
X124591760Y-102909612D01*
X124572555Y-102869876D01*
X124554521Y-102852737D01*
X124535262Y-102850445D01*
X124494702Y-102844218D01*
X124492396Y-102842799D01*
X124533059Y-102802137D01*
X124554726Y-102802868D01*
X124558155Y-102802117D01*
X124598338Y-102786522D01*
X124607077Y-102761096D01*
X124605956Y-102755162D01*
X124588908Y-102739317D01*
X124561618Y-102748973D01*
X124539211Y-102777588D01*
X124533059Y-102802137D01*
X124492396Y-102842799D01*
X124479757Y-102835020D01*
X124450923Y-102830095D01*
X124398242Y-102839415D01*
X124332552Y-102859236D01*
X124264696Y-102885816D01*
X124205515Y-102915407D01*
X124167123Y-102942979D01*
X124126247Y-102976706D01*
X124091533Y-102994805D01*
X124091342Y-102994848D01*
X124064023Y-103015419D01*
X124026635Y-103062510D01*
X123999631Y-103104447D01*
X123966895Y-103160835D01*
X123953786Y-103191868D01*
X123959415Y-103205446D01*
X123820740Y-103344121D01*
X123754268Y-103344943D01*
X123553813Y-103338459D01*
X123452054Y-103332763D01*
X123319609Y-103315998D01*
X123267291Y-103300192D01*
X123379567Y-103187917D01*
X123390648Y-103196444D01*
X123397589Y-103198625D01*
X123440168Y-103204958D01*
X123507775Y-103208826D01*
X123591156Y-103210387D01*
X123681062Y-103209797D01*
X123768239Y-103207216D01*
X123843437Y-103202800D01*
X123897403Y-103196709D01*
X123920399Y-103189707D01*
X123942929Y-103159199D01*
X123972546Y-103110216D01*
X123981309Y-103094257D01*
X124006359Y-103037170D01*
X124012091Y-103015539D01*
X124073685Y-102953946D01*
X124095893Y-102952509D01*
X124122039Y-102933222D01*
X124143274Y-102902530D01*
X124142763Y-102884867D01*
X124120554Y-102886305D01*
X124094408Y-102905591D01*
X124073173Y-102936285D01*
X124073685Y-102953946D01*
X124012091Y-103015539D01*
X124019779Y-102986535D01*
X124020499Y-102976611D01*
X124017185Y-102954619D01*
X124002136Y-102941493D01*
X123967502Y-102935060D01*
X123905433Y-102933150D01*
X123863580Y-102933202D01*
X123763390Y-102938300D01*
X123698345Y-102952713D01*
X123671935Y-102968853D01*
X123635080Y-102995812D01*
X123610253Y-103003683D01*
X123582923Y-103015492D01*
X123535852Y-103046622D01*
X123478680Y-103090631D01*
X123472184Y-103095984D01*
X123428836Y-103132675D01*
X123607401Y-102954110D01*
X123629068Y-102954841D01*
X123632498Y-102954090D01*
X123673099Y-102937012D01*
X123692031Y-102913841D01*
X123687658Y-102899499D01*
X123656925Y-102891210D01*
X123624784Y-102911601D01*
X123613555Y-102929562D01*
X123607401Y-102954110D01*
X123428836Y-103132675D01*
X123416210Y-103143362D01*
X123386712Y-103172115D01*
X123379567Y-103187917D01*
X123267291Y-103300192D01*
X123201016Y-103280172D01*
X123149157Y-103257762D01*
X123071105Y-103218155D01*
X123171053Y-103118207D01*
X123187743Y-103134280D01*
X123229633Y-103154593D01*
X123249342Y-103161909D01*
X123290689Y-103174718D01*
X123321880Y-103176197D01*
X123353875Y-103162554D01*
X123397631Y-103129999D01*
X123437813Y-103096697D01*
X123509929Y-103031169D01*
X123551838Y-102979603D01*
X123564300Y-102953112D01*
X123598355Y-102897316D01*
X123634401Y-102866301D01*
X123676642Y-102845504D01*
X123708038Y-102853049D01*
X123724902Y-102867664D01*
X123763951Y-102887088D01*
X123827481Y-102900054D01*
X123902513Y-102906049D01*
X123976070Y-102904562D01*
X124035175Y-102895080D01*
X124063711Y-102881025D01*
X124105212Y-102852622D01*
X124149008Y-102840554D01*
X124180682Y-102847889D01*
X124185977Y-102854997D01*
X124209404Y-102863811D01*
X124258063Y-102858473D01*
X124322155Y-102842155D01*
X124391883Y-102818030D01*
X124457451Y-102789268D01*
X124509061Y-102759041D01*
X124526031Y-102744911D01*
X124560266Y-102703219D01*
X124577983Y-102667105D01*
X124578417Y-102664273D01*
X124568178Y-102624748D01*
X124554251Y-102605567D01*
X124554132Y-102605246D01*
X124601200Y-102558178D01*
X124607136Y-102560561D01*
X124639443Y-102552070D01*
X124660666Y-102523534D01*
X124661408Y-102507277D01*
X124644600Y-102497082D01*
X124616295Y-102506193D01*
X124593985Y-102527715D01*
X124591213Y-102534947D01*
X124601200Y-102558178D01*
X124554132Y-102605246D01*
X124540323Y-102567850D01*
X124547423Y-102543476D01*
X124551537Y-102510179D01*
X124538600Y-102482181D01*
X124553155Y-102467627D01*
X124588722Y-102480035D01*
X124618447Y-102469434D01*
X124655701Y-102456782D01*
X124698029Y-102477836D01*
X124699106Y-102478687D01*
X124743699Y-102500703D01*
X124809795Y-102518716D01*
X124856822Y-102525876D01*
X124969377Y-102537141D01*
X124872321Y-102431878D01*
X124821386Y-102378701D01*
X124778254Y-102337352D01*
X124751649Y-102316161D01*
X124750442Y-102315562D01*
X124711142Y-102313894D01*
X124654443Y-102327757D01*
X124595732Y-102351421D01*
X124550398Y-102379155D01*
X124535976Y-102395443D01*
X124531594Y-102435859D01*
X124553155Y-102467627D01*
X124538600Y-102482181D01*
X124536134Y-102476845D01*
X124510775Y-102455901D01*
X124485015Y-102459780D01*
X124483891Y-102460846D01*
X124451375Y-102478067D01*
X124420281Y-102485997D01*
X124384924Y-102485862D01*
X124381731Y-102480110D01*
X124425986Y-102435855D01*
X124457079Y-102427975D01*
X124475157Y-102414316D01*
X124491218Y-102386369D01*
X124488157Y-102373684D01*
X124466012Y-102375234D01*
X124438987Y-102395223D01*
X124419866Y-102423115D01*
X124425986Y-102435855D01*
X124381731Y-102480110D01*
X124372276Y-102463073D01*
X124370978Y-102452407D01*
X124383785Y-102401211D01*
X124424586Y-102359001D01*
X124482301Y-102335217D01*
X124511014Y-102333049D01*
X124568114Y-102329171D01*
X124628599Y-102316533D01*
X124680139Y-102298837D01*
X124710408Y-102279787D01*
X124713815Y-102272128D01*
X124695394Y-102266542D01*
X124644521Y-102262886D01*
X124567783Y-102261339D01*
X124471766Y-102262079D01*
X124406536Y-102263731D01*
X124099257Y-102273465D01*
X123820488Y-102534237D01*
X123718090Y-102628890D01*
X123610026Y-102726835D01*
X123505315Y-102820027D01*
X123412972Y-102900425D01*
X123356386Y-102948209D01*
X123285344Y-103008225D01*
X123226893Y-103060060D01*
X123186868Y-103098364D01*
X123171100Y-103117786D01*
X123171053Y-103118207D01*
X123071105Y-103218155D01*
X123066791Y-103215967D01*
X123014323Y-103178202D01*
X122992358Y-103140274D01*
X123001501Y-103097994D01*
X123042353Y-103047170D01*
X123115522Y-102983612D01*
G36*
X122872159Y-98604351D02*
X122929466Y-98573468D01*
X122975303Y-98560972D01*
X123027133Y-98564629D01*
X123083261Y-98577335D01*
X123134641Y-98591550D01*
X123176937Y-98608263D01*
X123218401Y-98632818D01*
X123267286Y-98670558D01*
X123331845Y-98726827D01*
X123376770Y-98767378D01*
X123479078Y-98857233D01*
X123574717Y-98933684D01*
X123672148Y-99002264D01*
X123779830Y-99068508D01*
X123906223Y-99137949D01*
X124059784Y-99216122D01*
X124071844Y-99222102D01*
X124222385Y-99300663D01*
X124339526Y-99371590D01*
X124427381Y-99438189D01*
X124490069Y-99503761D01*
X124531701Y-99571610D01*
X124543622Y-99600802D01*
X124556278Y-99648543D01*
X124559918Y-99701679D01*
X124553618Y-99766964D01*
X124536448Y-99851154D01*
X124507487Y-99961004D01*
X124482335Y-100047894D01*
X124448131Y-100167680D01*
X124416952Y-100286751D01*
X124387363Y-100411781D01*
X124357931Y-100549442D01*
X124327223Y-100706405D01*
X124293807Y-100889344D01*
X124259982Y-101083168D01*
X124232761Y-101236621D01*
X124209086Y-101357467D01*
X124187413Y-101451837D01*
X124166196Y-101525870D01*
X124143887Y-101585698D01*
X124121459Y-101632731D01*
X124088613Y-101693207D01*
X124062987Y-101737183D01*
X124049658Y-101755989D01*
X124049183Y-101756152D01*
X124036070Y-101741010D01*
X124003716Y-101699140D01*
X123955815Y-101635452D01*
X123937511Y-101610766D01*
X124025917Y-101522360D01*
X124032503Y-101521431D01*
X124028785Y-101492926D01*
X124020896Y-101462159D01*
X124002726Y-101399594D01*
X123975923Y-101310645D01*
X123942137Y-101200724D01*
X123903015Y-101075246D01*
X123861321Y-100943128D01*
X123817914Y-100807961D01*
X123776999Y-100683515D01*
X123740408Y-100575134D01*
X123709974Y-100488163D01*
X123687529Y-100427944D01*
X123675084Y-100400084D01*
X123666039Y-100373114D01*
X123701531Y-100337622D01*
X123719338Y-100347268D01*
X123733781Y-100333004D01*
X123744760Y-100295524D01*
X123741232Y-100278828D01*
X123723425Y-100269182D01*
X123708983Y-100283446D01*
X123698003Y-100320927D01*
X123701531Y-100337622D01*
X123666039Y-100373114D01*
X123658767Y-100351431D01*
X123660688Y-100316610D01*
X123668702Y-100280050D01*
X123666032Y-100247782D01*
X123649035Y-100209221D01*
X123614066Y-100153779D01*
X123594909Y-100125497D01*
X123550394Y-100064329D01*
X123517889Y-100030895D01*
X123490790Y-100018570D01*
X123487977Y-100018230D01*
X123461020Y-100006855D01*
X123457724Y-99993813D01*
X123489218Y-99962319D01*
X123499891Y-99961233D01*
X123516344Y-99945937D01*
X123539031Y-99913489D01*
X123542141Y-99895296D01*
X123527908Y-99877338D01*
X123508326Y-99888383D01*
X123493462Y-99921522D01*
X123492006Y-99929713D01*
X123489218Y-99962319D01*
X123457724Y-99993813D01*
X123452207Y-99971972D01*
X123451974Y-99960024D01*
X123443842Y-99926734D01*
X123783625Y-99586951D01*
X123802676Y-99577361D01*
X123809492Y-99570773D01*
X123825064Y-99538701D01*
X123818092Y-99520725D01*
X123793133Y-99508888D01*
X123785244Y-99512127D01*
X123776691Y-99539583D01*
X123776645Y-99562173D01*
X123783625Y-99586951D01*
X123443842Y-99926734D01*
X123440735Y-99914015D01*
X123411945Y-99856041D01*
X123372998Y-99796741D01*
X123331286Y-99746752D01*
X123294203Y-99716710D01*
X123279941Y-99712494D01*
X123259275Y-99699651D01*
X123258958Y-99697145D01*
X123300073Y-99656030D01*
X123319124Y-99646440D01*
X123325940Y-99639851D01*
X123341512Y-99607780D01*
X123334539Y-99589804D01*
X123309581Y-99577967D01*
X123301692Y-99581205D01*
X123293139Y-99608662D01*
X123293092Y-99631251D01*
X123300073Y-99656030D01*
X123258958Y-99697145D01*
X123253959Y-99657530D01*
X123254775Y-99641655D01*
X123248691Y-99588449D01*
X123228131Y-99513493D01*
X123197853Y-99429055D01*
X123162613Y-99347400D01*
X123127166Y-99280798D01*
X123101453Y-99246191D01*
X123075558Y-99195176D01*
X123121269Y-99149465D01*
X123139075Y-99159111D01*
X123153518Y-99144847D01*
X123164497Y-99107367D01*
X123160969Y-99090671D01*
X123143162Y-99081025D01*
X123128720Y-99095288D01*
X123117740Y-99132769D01*
X123121269Y-99149465D01*
X123075558Y-99195176D01*
X123074954Y-99193985D01*
X123079748Y-99127938D01*
X123109207Y-99066045D01*
X123140191Y-99029876D01*
X123168284Y-99024774D01*
X123175483Y-99027424D01*
X123205020Y-99059418D01*
X123205308Y-99113477D01*
X123177418Y-99183634D01*
X123160757Y-99219420D01*
X123155708Y-99252275D01*
X123163766Y-99292743D01*
X123186428Y-99351360D01*
X123208278Y-99401013D01*
X123275420Y-99551069D01*
X123329860Y-99513828D01*
X123368143Y-99478085D01*
X123370752Y-99473485D01*
X123462499Y-99381738D01*
X123476348Y-99378270D01*
X123489645Y-99365620D01*
X123511701Y-99332915D01*
X123514510Y-99315033D01*
X123499377Y-99297172D01*
X123477904Y-99306075D01*
X123462017Y-99333961D01*
X123459869Y-99350680D01*
X123462499Y-99381738D01*
X123370752Y-99473485D01*
X123398851Y-99423944D01*
X123422119Y-99361190D01*
X123446232Y-99294824D01*
X123466541Y-99259038D01*
X123487754Y-99246272D01*
X123494019Y-99245791D01*
X123525661Y-99260406D01*
X123538062Y-99296839D01*
X123533007Y-99343967D01*
X123512280Y-99390670D01*
X123477668Y-99425827D01*
X123463997Y-99432805D01*
X123416159Y-99464326D01*
X123382415Y-99508517D01*
X123372861Y-99551609D01*
X123373768Y-99555867D01*
X123372640Y-99594873D01*
X123358168Y-99647660D01*
X123355333Y-99654867D01*
X123340747Y-99704752D01*
X123350683Y-99740716D01*
X123372530Y-99766330D01*
X123411120Y-99809891D01*
X123437626Y-99846915D01*
X123451652Y-99864249D01*
X123469991Y-99867021D01*
X123497767Y-99852050D01*
X123540102Y-99816161D01*
X123602124Y-99756175D01*
X123631869Y-99726451D01*
X123694248Y-99658506D01*
X123727469Y-99608336D01*
X123735047Y-99580945D01*
X123747685Y-99522254D01*
X123774276Y-99477052D01*
X123807554Y-99455038D01*
X123827862Y-99457066D01*
X123853135Y-99486176D01*
X123855861Y-99531638D01*
X123840307Y-99581382D01*
X123810745Y-99623340D01*
X123771443Y-99645440D01*
X123760860Y-99646449D01*
X123733371Y-99661841D01*
X123694163Y-99701437D01*
X123650649Y-99755368D01*
X123610241Y-99813764D01*
X123580352Y-99866755D01*
X123568484Y-99902616D01*
X123559061Y-99952004D01*
X123550698Y-99975110D01*
X123553544Y-100012465D01*
X123585320Y-100075479D01*
X123610512Y-100114301D01*
X123651319Y-100172329D01*
X123678957Y-100204314D01*
X123701393Y-100217080D01*
X123726594Y-100217453D01*
X123730351Y-100216966D01*
X123769939Y-100204166D01*
X123785833Y-100190115D01*
X123802313Y-100166881D01*
X123838066Y-100121997D01*
X123886751Y-100063325D01*
X123912648Y-100032813D01*
X123979041Y-99950439D01*
X123986020Y-99939665D01*
X124086560Y-99839125D01*
X124101132Y-99830675D01*
X124112583Y-99816059D01*
X124130050Y-99778262D01*
X124129016Y-99755525D01*
X124111242Y-99744212D01*
X124092420Y-99760532D01*
X124081102Y-99794238D01*
X124080818Y-99813285D01*
X124086560Y-99839125D01*
X123986020Y-99939665D01*
X124019048Y-99888672D01*
X124035839Y-99842553D01*
X124036267Y-99839445D01*
X124051363Y-99779446D01*
X124070583Y-99736753D01*
X124103688Y-99703784D01*
X124135353Y-99704733D01*
X124156417Y-99735214D01*
X124159341Y-99779250D01*
X124148645Y-99821740D01*
X124120904Y-99859498D01*
X124074594Y-99899440D01*
X124017952Y-99950394D01*
X123955820Y-100016564D01*
X123894489Y-100089891D01*
X123840246Y-100162313D01*
X123799380Y-100225766D01*
X123778180Y-100272193D01*
X123776603Y-100281426D01*
X123764854Y-100334257D01*
X123746953Y-100374892D01*
X123740117Y-100393635D01*
X123738706Y-100420887D01*
X123743744Y-100460963D01*
X123756256Y-100518184D01*
X123777267Y-100596865D01*
X123807800Y-100701325D01*
X123848882Y-100835882D01*
X123880444Y-100937420D01*
X123922812Y-101071785D01*
X123961874Y-101193088D01*
X123996031Y-101296565D01*
X124023681Y-101377457D01*
X124043229Y-101431001D01*
X124053072Y-101452437D01*
X124053469Y-101452632D01*
X124061587Y-101434664D01*
X124074095Y-101386037D01*
X124089136Y-101314666D01*
X124101593Y-101247384D01*
X124142188Y-101022031D01*
X124183962Y-100802169D01*
X124225692Y-100593631D01*
X124266157Y-100402249D01*
X124304136Y-100233853D01*
X124338404Y-100094276D01*
X124359123Y-100018254D01*
X124385713Y-99919145D01*
X124407184Y-99825582D01*
X124421317Y-99748201D01*
X124425906Y-99698196D01*
X124415165Y-99635680D01*
X124383528Y-99576562D01*
X124327599Y-99517855D01*
X124243982Y-99456575D01*
X124129282Y-99389737D01*
X124000687Y-99324315D01*
X123846316Y-99246785D01*
X123717549Y-99175656D01*
X123603352Y-99103741D01*
X123492688Y-99023854D01*
X123374523Y-98928809D01*
X123312217Y-98875965D01*
X123229924Y-98806199D01*
X123169740Y-98758174D01*
X123124771Y-98727443D01*
X123088120Y-98709562D01*
X123052891Y-98700085D01*
X123035075Y-98697297D01*
X122972154Y-98697774D01*
X122923493Y-98719460D01*
X122888878Y-98764421D01*
X122868091Y-98834728D01*
X122860918Y-98932447D01*
X122867140Y-99059645D01*
X122886543Y-99218392D01*
X122918908Y-99410753D01*
X122945869Y-99550186D01*
X122969846Y-99643979D01*
X123009697Y-99764480D01*
X123066253Y-99913959D01*
X123140344Y-100094687D01*
X123171322Y-100167495D01*
X123362102Y-100612241D01*
X123665854Y-101026910D01*
X123749154Y-101140760D01*
X123826327Y-101246479D01*
X123893890Y-101339282D01*
X123948364Y-101414380D01*
X123986269Y-101466987D01*
X124003175Y-101490904D01*
X124025917Y-101522360D01*
X123937511Y-101610766D01*
X123896060Y-101554857D01*
X123828142Y-101462267D01*
X123826739Y-101460344D01*
X123757950Y-101366831D01*
X123696427Y-101284600D01*
X123646067Y-101218751D01*
X123610773Y-101174383D01*
X123594443Y-101156597D01*
X123594437Y-101156593D01*
X123589995Y-101169323D01*
X123594424Y-101211725D01*
X123605895Y-101275887D01*
X123622579Y-101353896D01*
X123642648Y-101437841D01*
X123664271Y-101519811D01*
X123685621Y-101591892D01*
X123704870Y-101646174D01*
X123710596Y-101659140D01*
X123745648Y-101724574D01*
X123783847Y-101785432D01*
X123794322Y-101799921D01*
X123824757Y-101835633D01*
X123846073Y-101842344D01*
X123870834Y-101823565D01*
X123872622Y-101821786D01*
X123915005Y-101795867D01*
X123960924Y-101803866D01*
X124016125Y-101846826D01*
X124017362Y-101848048D01*
X124044666Y-101870123D01*
X124078093Y-101883179D01*
X124126839Y-101888664D01*
X124200099Y-101888023D01*
X124255576Y-101885511D01*
X124428728Y-101878343D01*
X124576767Y-101876854D01*
X124713317Y-101881605D01*
X124852005Y-101893155D01*
X125006458Y-101912063D01*
X125050125Y-101918147D01*
X125165011Y-101934911D01*
X125247929Y-101948746D01*
X125305675Y-101961658D01*
X125345044Y-101975651D01*
X125372831Y-101992733D01*
X125395832Y-102014909D01*
X125402130Y-102022061D01*
X125434260Y-102064127D01*
X125440692Y-102092759D01*
X125424342Y-102121141D01*
X125424085Y-102121454D01*
X125383615Y-102155541D01*
X125353017Y-102169490D01*
X125319679Y-102169323D01*
X125256712Y-102161689D01*
X125172576Y-102147854D01*
X125075728Y-102129086D01*
X125056489Y-102125046D01*
X124939158Y-102101694D01*
X124846290Y-102088054D01*
X124764722Y-102083291D01*
X124681290Y-102086574D01*
X124593643Y-102095729D01*
X124455081Y-102109048D01*
X124319176Y-102115477D01*
X124193969Y-102115138D01*
X124087506Y-102108157D01*
X124007827Y-102094659D01*
X123982193Y-102086217D01*
X123940418Y-102071031D01*
X123923132Y-102076133D01*
X123919737Y-102104402D01*
X123916912Y-102122538D01*
X123905981Y-102144184D01*
X123883260Y-102173350D01*
X123845065Y-102214052D01*
X123787709Y-102270301D01*
X123707510Y-102346109D01*
X123640092Y-102408980D01*
X123530617Y-102509769D01*
X123409100Y-102619994D01*
X123286687Y-102729646D01*
X123174525Y-102828715D01*
X123114464Y-102880913D01*
X123000610Y-102977223D01*
X122906324Y-103050231D01*
X122823038Y-103102975D01*
X122742183Y-103138497D01*
X122655191Y-103159839D01*
X122553494Y-103170041D01*
X122428523Y-103172142D01*
X122300159Y-103169894D01*
X122201520Y-103168033D01*
X122071140Y-103166376D01*
X121916355Y-103164974D01*
X121744497Y-103163878D01*
X121562905Y-103163134D01*
X121378910Y-103162795D01*
X121254442Y-103162822D01*
X121051352Y-103162552D01*
X120884411Y-103161150D01*
X120750702Y-103158492D01*
X120647308Y-103154455D01*
X120571315Y-103148914D01*
X120538841Y-103144394D01*
X120654038Y-103029197D01*
X121335310Y-103033745D01*
X121510224Y-103035055D01*
X121686199Y-103036634D01*
X121855986Y-103038399D01*
X122012336Y-103040266D01*
X122147999Y-103042151D01*
X122255726Y-103043970D01*
X122299497Y-103044890D01*
X122442364Y-103046791D01*
X122556248Y-103042888D01*
X122649793Y-103029988D01*
X122731646Y-103004897D01*
X122810447Y-102964419D01*
X122894843Y-102905359D01*
X122993476Y-102824525D01*
X123066161Y-102761554D01*
X123158089Y-102680178D01*
X123252084Y-102595282D01*
X123343968Y-102510828D01*
X123429561Y-102430783D01*
X123504684Y-102359108D01*
X123565159Y-102299769D01*
X123606804Y-102256728D01*
X123625442Y-102233952D01*
X123625123Y-102231372D01*
X123591525Y-102240148D01*
X123530343Y-102262826D01*
X123449054Y-102296049D01*
X123355135Y-102336460D01*
X123256060Y-102380702D01*
X123159307Y-102425420D01*
X123072350Y-102467254D01*
X123002667Y-102502849D01*
X122957732Y-102528847D01*
X122949759Y-102534625D01*
X122891533Y-102585464D01*
X122820592Y-102652372D01*
X122744483Y-102727653D01*
X122670756Y-102803607D01*
X122606957Y-102872537D01*
X122560637Y-102926743D01*
X122546201Y-102946199D01*
X122504921Y-102991596D01*
X122462566Y-103013626D01*
X122427869Y-103010443D01*
X122422849Y-103002151D01*
X122457238Y-102967762D01*
X122479447Y-102966325D01*
X122505593Y-102947039D01*
X122526828Y-102916345D01*
X122526317Y-102898683D01*
X122517706Y-102899240D01*
X122873305Y-102543641D01*
X122880164Y-102546745D01*
X122908476Y-102540816D01*
X122929091Y-102519875D01*
X122927790Y-102498841D01*
X122897606Y-102490500D01*
X122869769Y-102507779D01*
X122864717Y-102519114D01*
X122873305Y-102543641D01*
X122517706Y-102899240D01*
X122504108Y-102900121D01*
X122477962Y-102919408D01*
X122456727Y-102950100D01*
X122457238Y-102967762D01*
X122422849Y-103002151D01*
X122409565Y-102980202D01*
X122408934Y-102975214D01*
X122415553Y-102937618D01*
X122448866Y-102903092D01*
X122463518Y-102892684D01*
X122512015Y-102856330D01*
X122571291Y-102806821D01*
X122634951Y-102750193D01*
X122696599Y-102692490D01*
X122749841Y-102639752D01*
X122788280Y-102598019D01*
X122805520Y-102573331D01*
X122805347Y-102569819D01*
X122780943Y-102567331D01*
X122728615Y-102573121D01*
X122657761Y-102585146D01*
X122577781Y-102601361D01*
X122498072Y-102619720D01*
X122428032Y-102638181D01*
X122377060Y-102654696D01*
X122354554Y-102667223D01*
X122354272Y-102667958D01*
X122334839Y-102689157D01*
X122291855Y-102716926D01*
X122268637Y-102728972D01*
X122190199Y-102773454D01*
X122143823Y-102814753D01*
X122132531Y-102850173D01*
X122132567Y-102850328D01*
X122123013Y-102879833D01*
X122092013Y-102918085D01*
X122050903Y-102952562D01*
X122028601Y-102965154D01*
X121993082Y-102965776D01*
X121973582Y-102949827D01*
X122013021Y-102910387D01*
X122041058Y-102915745D01*
X122073919Y-102900382D01*
X122083751Y-102889242D01*
X122081234Y-102866378D01*
X122251476Y-102696136D01*
X122256751Y-102698317D01*
X122285276Y-102691863D01*
X122312060Y-102669681D01*
X122323363Y-102645118D01*
X122319896Y-102636998D01*
X122291208Y-102628465D01*
X122283470Y-102629528D01*
X122257489Y-102647300D01*
X122244653Y-102675092D01*
X122251476Y-102696136D01*
X122081234Y-102866378D01*
X122081083Y-102864999D01*
X122078542Y-102862215D01*
X122055773Y-102860728D01*
X122027982Y-102876587D01*
X122010807Y-102898295D01*
X122013021Y-102910387D01*
X121973582Y-102949827D01*
X121966589Y-102944108D01*
X121961068Y-102913014D01*
X121968083Y-102899988D01*
X122015400Y-102852642D01*
X122062522Y-102819908D01*
X122091367Y-102810510D01*
X122124371Y-102797152D01*
X122160137Y-102766665D01*
X122184878Y-102732660D01*
X122188426Y-102714697D01*
X122168365Y-102707534D01*
X122120141Y-102707801D01*
X122053634Y-102714010D01*
X121978727Y-102724671D01*
X121905300Y-102738296D01*
X121843236Y-102753394D01*
X121802415Y-102768478D01*
X121794330Y-102774092D01*
X121751895Y-102801873D01*
X121722746Y-102812363D01*
X121689625Y-102827703D01*
X121677745Y-102862099D01*
X121676772Y-102875435D01*
X121659963Y-102922067D01*
X121622177Y-102964549D01*
X121575581Y-102993111D01*
X121532336Y-102997984D01*
X121526684Y-102995977D01*
X121522140Y-102991019D01*
X121559213Y-102953946D01*
X121581421Y-102952509D01*
X121607568Y-102933222D01*
X121628802Y-102902530D01*
X121628291Y-102884867D01*
X121606082Y-102886305D01*
X121579936Y-102905591D01*
X121558702Y-102936285D01*
X121559213Y-102953946D01*
X121522140Y-102991019D01*
X121506905Y-102974398D01*
X121722890Y-102758413D01*
X121750927Y-102763772D01*
X121783788Y-102748409D01*
X121793620Y-102737269D01*
X121790951Y-102713026D01*
X121788411Y-102710241D01*
X121765642Y-102708755D01*
X121737851Y-102724614D01*
X121720675Y-102746321D01*
X121722890Y-102758413D01*
X121506905Y-102974398D01*
X121503416Y-102970591D01*
X121512207Y-102933702D01*
X121549639Y-102890183D01*
X121612291Y-102844909D01*
X121645732Y-102826321D01*
X121673577Y-102803924D01*
X121671523Y-102789942D01*
X121644682Y-102786949D01*
X121592868Y-102797504D01*
X121526199Y-102817961D01*
X121454796Y-102844677D01*
X121388774Y-102874006D01*
X121338254Y-102902301D01*
X121320421Y-102916421D01*
X121274216Y-102951203D01*
X121228837Y-102969549D01*
X121193479Y-102969415D01*
X121190286Y-102963662D01*
X121227633Y-102926315D01*
X121249842Y-102924877D01*
X121275989Y-102905591D01*
X121297223Y-102874898D01*
X121296713Y-102857236D01*
X121274503Y-102858673D01*
X121248357Y-102877959D01*
X121227123Y-102908653D01*
X121227633Y-102926315D01*
X121190286Y-102963662D01*
X121180831Y-102946625D01*
X121179533Y-102935958D01*
X121190383Y-102891306D01*
X121223727Y-102850378D01*
X121268487Y-102820773D01*
X121313584Y-102810093D01*
X121344877Y-102822506D01*
X121372649Y-102827154D01*
X121425932Y-102820209D01*
X121493975Y-102804639D01*
X121566024Y-102783408D01*
X121631326Y-102759478D01*
X121679130Y-102735818D01*
X121690957Y-102727081D01*
X121745922Y-102678762D01*
X121780937Y-102652717D01*
X121804242Y-102644159D01*
X121824080Y-102648304D01*
X121825553Y-102648947D01*
X121848590Y-102674599D01*
X121849470Y-102690916D01*
X121862555Y-102703696D01*
X121904342Y-102707222D01*
X121965955Y-102702949D01*
X122038513Y-102692334D01*
X122113140Y-102676837D01*
X122180956Y-102657914D01*
X122233086Y-102637022D01*
X122252404Y-102624770D01*
X122305331Y-102594758D01*
X122348211Y-102597660D01*
X122392025Y-102602397D01*
X122462418Y-102597019D01*
X122548889Y-102583746D01*
X122640939Y-102564797D01*
X122728067Y-102542392D01*
X122799772Y-102518749D01*
X122845554Y-102496088D01*
X122851216Y-102491346D01*
X122904338Y-102451291D01*
X122950675Y-102445893D01*
X122967714Y-102452424D01*
X122994980Y-102450652D01*
X123049309Y-102435985D01*
X123121913Y-102411061D01*
X123178094Y-102389253D01*
X123311576Y-102334710D01*
X123411338Y-102293068D01*
X123480095Y-102263106D01*
X123520564Y-102243603D01*
X123535460Y-102233339D01*
X123530305Y-102230961D01*
X123494268Y-102235150D01*
X123424905Y-102246576D01*
X123327089Y-102264243D01*
X123275650Y-102273953D01*
X123449708Y-102099896D01*
X123479613Y-102104652D01*
X123546394Y-102096500D01*
X123612774Y-102083588D01*
X123697643Y-102067662D01*
X123771726Y-102057553D01*
X123824351Y-102054537D01*
X123840295Y-102056369D01*
X123879201Y-102064487D01*
X123883545Y-102057343D01*
X123852950Y-102038611D01*
X123842618Y-102033803D01*
X123799811Y-102004546D01*
X123791842Y-101982720D01*
X123776433Y-101957585D01*
X123732918Y-101954131D01*
X123665364Y-101971858D01*
X123581372Y-102008493D01*
X123500575Y-102051786D01*
X123456691Y-102082264D01*
X123449708Y-102099896D01*
X123275650Y-102273953D01*
X123205696Y-102287159D01*
X123065599Y-102314328D01*
X122911673Y-102344757D01*
X122748789Y-102377451D01*
X122581824Y-102411415D01*
X122415652Y-102445655D01*
X122255147Y-102479177D01*
X122105181Y-102510987D01*
X121970630Y-102540089D01*
X121856367Y-102565491D01*
X121767268Y-102586197D01*
X121708204Y-102601213D01*
X121692744Y-102605842D01*
X121587817Y-102642055D01*
X121466485Y-102686020D01*
X121335699Y-102735008D01*
X121202410Y-102786288D01*
X121073569Y-102837128D01*
X120956126Y-102884800D01*
X120857033Y-102926571D01*
X120783240Y-102959713D01*
X120751983Y-102975417D01*
X120654038Y-103029197D01*
X120538841Y-103144394D01*
X120519805Y-103141745D01*
X120489864Y-103132825D01*
X120485102Y-103130102D01*
X120448504Y-103094815D01*
X120446824Y-103057646D01*
X120480113Y-103011280D01*
X120485974Y-103005240D01*
X120537663Y-102960708D01*
X120607679Y-102914294D01*
X120699398Y-102864371D01*
X120816196Y-102809316D01*
X120961452Y-102747502D01*
X121138541Y-102677305D01*
X121276391Y-102624883D01*
X121416304Y-102572523D01*
X121533067Y-102529631D01*
X121633504Y-102494351D01*
X121724434Y-102464829D01*
X121812684Y-102439208D01*
X121905074Y-102415633D01*
X122008426Y-102392247D01*
X122129566Y-102367197D01*
X122275313Y-102338625D01*
X122452490Y-102304676D01*
X122456536Y-102303904D01*
X122619628Y-102272843D01*
X122776936Y-102243017D01*
X122922688Y-102215510D01*
X123051120Y-102191405D01*
X123156462Y-102171786D01*
X123232947Y-102157737D01*
X123264475Y-102152102D01*
X123329458Y-102138653D01*
X123371762Y-102125652D01*
X123384349Y-102115420D01*
X123381724Y-102113425D01*
X123364273Y-102104702D01*
X123361512Y-102095244D01*
X123378487Y-102079244D01*
X123420247Y-102050889D01*
X123456547Y-102027315D01*
X123538878Y-101979805D01*
X123624428Y-101940164D01*
X123703238Y-101912156D01*
X123765352Y-101899548D01*
X123790603Y-101900977D01*
X123820280Y-101906182D01*
X123825644Y-101903303D01*
X123811079Y-101884359D01*
X123780616Y-101846294D01*
X123764447Y-101826343D01*
X123699460Y-101733722D01*
X123648424Y-101629683D01*
X123607536Y-101504858D01*
X123574870Y-101359778D01*
X123556302Y-101270734D01*
X123537800Y-101195235D01*
X123521675Y-101142004D01*
X123511462Y-101120672D01*
X123473057Y-101099276D01*
X123413610Y-101081555D01*
X123351153Y-101071588D01*
X123303718Y-101073459D01*
X123303326Y-101073566D01*
X123273566Y-101073315D01*
X123267012Y-101052629D01*
X123283383Y-101032767D01*
X123325679Y-101025284D01*
X123383233Y-101028834D01*
X123445383Y-101042070D01*
X123501463Y-101063650D01*
X123535278Y-101086473D01*
X123542751Y-101089008D01*
X123529664Y-101064142D01*
X123498585Y-101015969D01*
X123452085Y-100948586D01*
X123424160Y-100909394D01*
X123349572Y-100805235D01*
X123293833Y-100725571D01*
X123252765Y-100663324D01*
X123222190Y-100611419D01*
X123197929Y-100562781D01*
X123175802Y-100510332D01*
X123152545Y-100449443D01*
X123126874Y-100384406D01*
X123089332Y-100293941D01*
X123044218Y-100188190D01*
X122995828Y-100077301D01*
X122975389Y-100031249D01*
X122931067Y-99930459D01*
X122896681Y-99846784D01*
X122869654Y-99771186D01*
X122847409Y-99694628D01*
X122827370Y-99608069D01*
X122806960Y-99502471D01*
X122783602Y-99368796D01*
X122779246Y-99343182D01*
X122756223Y-99204582D01*
X122740019Y-99097513D01*
X122730190Y-99015112D01*
X122726294Y-98950517D01*
X122727888Y-98896861D01*
X122734527Y-98847281D01*
X122744245Y-98801343D01*
X122777301Y-98660585D01*
X122872159Y-98604351D01*
X122872159Y-98604351D01*
G37*
X122872159Y-98604351D02*
X122929466Y-98573468D01*
X122975303Y-98560972D01*
X123027133Y-98564629D01*
X123083261Y-98577335D01*
X123134641Y-98591550D01*
X123176937Y-98608263D01*
X123218401Y-98632818D01*
X123267286Y-98670558D01*
X123331845Y-98726827D01*
X123376770Y-98767378D01*
X123479078Y-98857233D01*
X123574717Y-98933684D01*
X123672148Y-99002264D01*
X123779830Y-99068508D01*
X123906223Y-99137949D01*
X124059784Y-99216122D01*
X124071844Y-99222102D01*
X124222385Y-99300663D01*
X124339526Y-99371590D01*
X124427381Y-99438189D01*
X124490069Y-99503761D01*
X124531701Y-99571610D01*
X124543622Y-99600802D01*
X124556278Y-99648543D01*
X124559918Y-99701679D01*
X124553618Y-99766964D01*
X124536448Y-99851154D01*
X124507487Y-99961004D01*
X124482335Y-100047894D01*
X124448131Y-100167680D01*
X124416952Y-100286751D01*
X124387363Y-100411781D01*
X124357931Y-100549442D01*
X124327223Y-100706405D01*
X124293807Y-100889344D01*
X124259982Y-101083168D01*
X124232761Y-101236621D01*
X124209086Y-101357467D01*
X124187413Y-101451837D01*
X124166196Y-101525870D01*
X124143887Y-101585698D01*
X124121459Y-101632731D01*
X124088613Y-101693207D01*
X124062987Y-101737183D01*
X124049658Y-101755989D01*
X124049183Y-101756152D01*
X124036070Y-101741010D01*
X124003716Y-101699140D01*
X123955815Y-101635452D01*
X123937511Y-101610766D01*
X124025917Y-101522360D01*
X124032503Y-101521431D01*
X124028785Y-101492926D01*
X124020896Y-101462159D01*
X124002726Y-101399594D01*
X123975923Y-101310645D01*
X123942137Y-101200724D01*
X123903015Y-101075246D01*
X123861321Y-100943128D01*
X123817914Y-100807961D01*
X123776999Y-100683515D01*
X123740408Y-100575134D01*
X123709974Y-100488163D01*
X123687529Y-100427944D01*
X123675084Y-100400084D01*
X123666039Y-100373114D01*
X123701531Y-100337622D01*
X123719338Y-100347268D01*
X123733781Y-100333004D01*
X123744760Y-100295524D01*
X123741232Y-100278828D01*
X123723425Y-100269182D01*
X123708983Y-100283446D01*
X123698003Y-100320927D01*
X123701531Y-100337622D01*
X123666039Y-100373114D01*
X123658767Y-100351431D01*
X123660688Y-100316610D01*
X123668702Y-100280050D01*
X123666032Y-100247782D01*
X123649035Y-100209221D01*
X123614066Y-100153779D01*
X123594909Y-100125497D01*
X123550394Y-100064329D01*
X123517889Y-100030895D01*
X123490790Y-100018570D01*
X123487977Y-100018230D01*
X123461020Y-100006855D01*
X123457724Y-99993813D01*
X123489218Y-99962319D01*
X123499891Y-99961233D01*
X123516344Y-99945937D01*
X123539031Y-99913489D01*
X123542141Y-99895296D01*
X123527908Y-99877338D01*
X123508326Y-99888383D01*
X123493462Y-99921522D01*
X123492006Y-99929713D01*
X123489218Y-99962319D01*
X123457724Y-99993813D01*
X123452207Y-99971972D01*
X123451974Y-99960024D01*
X123443842Y-99926734D01*
X123783625Y-99586951D01*
X123802676Y-99577361D01*
X123809492Y-99570773D01*
X123825064Y-99538701D01*
X123818092Y-99520725D01*
X123793133Y-99508888D01*
X123785244Y-99512127D01*
X123776691Y-99539583D01*
X123776645Y-99562173D01*
X123783625Y-99586951D01*
X123443842Y-99926734D01*
X123440735Y-99914015D01*
X123411945Y-99856041D01*
X123372998Y-99796741D01*
X123331286Y-99746752D01*
X123294203Y-99716710D01*
X123279941Y-99712494D01*
X123259275Y-99699651D01*
X123258958Y-99697145D01*
X123300073Y-99656030D01*
X123319124Y-99646440D01*
X123325940Y-99639851D01*
X123341512Y-99607780D01*
X123334539Y-99589804D01*
X123309581Y-99577967D01*
X123301692Y-99581205D01*
X123293139Y-99608662D01*
X123293092Y-99631251D01*
X123300073Y-99656030D01*
X123258958Y-99697145D01*
X123253959Y-99657530D01*
X123254775Y-99641655D01*
X123248691Y-99588449D01*
X123228131Y-99513493D01*
X123197853Y-99429055D01*
X123162613Y-99347400D01*
X123127166Y-99280798D01*
X123101453Y-99246191D01*
X123075558Y-99195176D01*
X123121269Y-99149465D01*
X123139075Y-99159111D01*
X123153518Y-99144847D01*
X123164497Y-99107367D01*
X123160969Y-99090671D01*
X123143162Y-99081025D01*
X123128720Y-99095288D01*
X123117740Y-99132769D01*
X123121269Y-99149465D01*
X123075558Y-99195176D01*
X123074954Y-99193985D01*
X123079748Y-99127938D01*
X123109207Y-99066045D01*
X123140191Y-99029876D01*
X123168284Y-99024774D01*
X123175483Y-99027424D01*
X123205020Y-99059418D01*
X123205308Y-99113477D01*
X123177418Y-99183634D01*
X123160757Y-99219420D01*
X123155708Y-99252275D01*
X123163766Y-99292743D01*
X123186428Y-99351360D01*
X123208278Y-99401013D01*
X123275420Y-99551069D01*
X123329860Y-99513828D01*
X123368143Y-99478085D01*
X123370752Y-99473485D01*
X123462499Y-99381738D01*
X123476348Y-99378270D01*
X123489645Y-99365620D01*
X123511701Y-99332915D01*
X123514510Y-99315033D01*
X123499377Y-99297172D01*
X123477904Y-99306075D01*
X123462017Y-99333961D01*
X123459869Y-99350680D01*
X123462499Y-99381738D01*
X123370752Y-99473485D01*
X123398851Y-99423944D01*
X123422119Y-99361190D01*
X123446232Y-99294824D01*
X123466541Y-99259038D01*
X123487754Y-99246272D01*
X123494019Y-99245791D01*
X123525661Y-99260406D01*
X123538062Y-99296839D01*
X123533007Y-99343967D01*
X123512280Y-99390670D01*
X123477668Y-99425827D01*
X123463997Y-99432805D01*
X123416159Y-99464326D01*
X123382415Y-99508517D01*
X123372861Y-99551609D01*
X123373768Y-99555867D01*
X123372640Y-99594873D01*
X123358168Y-99647660D01*
X123355333Y-99654867D01*
X123340747Y-99704752D01*
X123350683Y-99740716D01*
X123372530Y-99766330D01*
X123411120Y-99809891D01*
X123437626Y-99846915D01*
X123451652Y-99864249D01*
X123469991Y-99867021D01*
X123497767Y-99852050D01*
X123540102Y-99816161D01*
X123602124Y-99756175D01*
X123631869Y-99726451D01*
X123694248Y-99658506D01*
X123727469Y-99608336D01*
X123735047Y-99580945D01*
X123747685Y-99522254D01*
X123774276Y-99477052D01*
X123807554Y-99455038D01*
X123827862Y-99457066D01*
X123853135Y-99486176D01*
X123855861Y-99531638D01*
X123840307Y-99581382D01*
X123810745Y-99623340D01*
X123771443Y-99645440D01*
X123760860Y-99646449D01*
X123733371Y-99661841D01*
X123694163Y-99701437D01*
X123650649Y-99755368D01*
X123610241Y-99813764D01*
X123580352Y-99866755D01*
X123568484Y-99902616D01*
X123559061Y-99952004D01*
X123550698Y-99975110D01*
X123553544Y-100012465D01*
X123585320Y-100075479D01*
X123610512Y-100114301D01*
X123651319Y-100172329D01*
X123678957Y-100204314D01*
X123701393Y-100217080D01*
X123726594Y-100217453D01*
X123730351Y-100216966D01*
X123769939Y-100204166D01*
X123785833Y-100190115D01*
X123802313Y-100166881D01*
X123838066Y-100121997D01*
X123886751Y-100063325D01*
X123912648Y-100032813D01*
X123979041Y-99950439D01*
X123986020Y-99939665D01*
X124086560Y-99839125D01*
X124101132Y-99830675D01*
X124112583Y-99816059D01*
X124130050Y-99778262D01*
X124129016Y-99755525D01*
X124111242Y-99744212D01*
X124092420Y-99760532D01*
X124081102Y-99794238D01*
X124080818Y-99813285D01*
X124086560Y-99839125D01*
X123986020Y-99939665D01*
X124019048Y-99888672D01*
X124035839Y-99842553D01*
X124036267Y-99839445D01*
X124051363Y-99779446D01*
X124070583Y-99736753D01*
X124103688Y-99703784D01*
X124135353Y-99704733D01*
X124156417Y-99735214D01*
X124159341Y-99779250D01*
X124148645Y-99821740D01*
X124120904Y-99859498D01*
X124074594Y-99899440D01*
X124017952Y-99950394D01*
X123955820Y-100016564D01*
X123894489Y-100089891D01*
X123840246Y-100162313D01*
X123799380Y-100225766D01*
X123778180Y-100272193D01*
X123776603Y-100281426D01*
X123764854Y-100334257D01*
X123746953Y-100374892D01*
X123740117Y-100393635D01*
X123738706Y-100420887D01*
X123743744Y-100460963D01*
X123756256Y-100518184D01*
X123777267Y-100596865D01*
X123807800Y-100701325D01*
X123848882Y-100835882D01*
X123880444Y-100937420D01*
X123922812Y-101071785D01*
X123961874Y-101193088D01*
X123996031Y-101296565D01*
X124023681Y-101377457D01*
X124043229Y-101431001D01*
X124053072Y-101452437D01*
X124053469Y-101452632D01*
X124061587Y-101434664D01*
X124074095Y-101386037D01*
X124089136Y-101314666D01*
X124101593Y-101247384D01*
X124142188Y-101022031D01*
X124183962Y-100802169D01*
X124225692Y-100593631D01*
X124266157Y-100402249D01*
X124304136Y-100233853D01*
X124338404Y-100094276D01*
X124359123Y-100018254D01*
X124385713Y-99919145D01*
X124407184Y-99825582D01*
X124421317Y-99748201D01*
X124425906Y-99698196D01*
X124415165Y-99635680D01*
X124383528Y-99576562D01*
X124327599Y-99517855D01*
X124243982Y-99456575D01*
X124129282Y-99389737D01*
X124000687Y-99324315D01*
X123846316Y-99246785D01*
X123717549Y-99175656D01*
X123603352Y-99103741D01*
X123492688Y-99023854D01*
X123374523Y-98928809D01*
X123312217Y-98875965D01*
X123229924Y-98806199D01*
X123169740Y-98758174D01*
X123124771Y-98727443D01*
X123088120Y-98709562D01*
X123052891Y-98700085D01*
X123035075Y-98697297D01*
X122972154Y-98697774D01*
X122923493Y-98719460D01*
X122888878Y-98764421D01*
X122868091Y-98834728D01*
X122860918Y-98932447D01*
X122867140Y-99059645D01*
X122886543Y-99218392D01*
X122918908Y-99410753D01*
X122945869Y-99550186D01*
X122969846Y-99643979D01*
X123009697Y-99764480D01*
X123066253Y-99913959D01*
X123140344Y-100094687D01*
X123171322Y-100167495D01*
X123362102Y-100612241D01*
X123665854Y-101026910D01*
X123749154Y-101140760D01*
X123826327Y-101246479D01*
X123893890Y-101339282D01*
X123948364Y-101414380D01*
X123986269Y-101466987D01*
X124003175Y-101490904D01*
X124025917Y-101522360D01*
X123937511Y-101610766D01*
X123896060Y-101554857D01*
X123828142Y-101462267D01*
X123826739Y-101460344D01*
X123757950Y-101366831D01*
X123696427Y-101284600D01*
X123646067Y-101218751D01*
X123610773Y-101174383D01*
X123594443Y-101156597D01*
X123594437Y-101156593D01*
X123589995Y-101169323D01*
X123594424Y-101211725D01*
X123605895Y-101275887D01*
X123622579Y-101353896D01*
X123642648Y-101437841D01*
X123664271Y-101519811D01*
X123685621Y-101591892D01*
X123704870Y-101646174D01*
X123710596Y-101659140D01*
X123745648Y-101724574D01*
X123783847Y-101785432D01*
X123794322Y-101799921D01*
X123824757Y-101835633D01*
X123846073Y-101842344D01*
X123870834Y-101823565D01*
X123872622Y-101821786D01*
X123915005Y-101795867D01*
X123960924Y-101803866D01*
X124016125Y-101846826D01*
X124017362Y-101848048D01*
X124044666Y-101870123D01*
X124078093Y-101883179D01*
X124126839Y-101888664D01*
X124200099Y-101888023D01*
X124255576Y-101885511D01*
X124428728Y-101878343D01*
X124576767Y-101876854D01*
X124713317Y-101881605D01*
X124852005Y-101893155D01*
X125006458Y-101912063D01*
X125050125Y-101918147D01*
X125165011Y-101934911D01*
X125247929Y-101948746D01*
X125305675Y-101961658D01*
X125345044Y-101975651D01*
X125372831Y-101992733D01*
X125395832Y-102014909D01*
X125402130Y-102022061D01*
X125434260Y-102064127D01*
X125440692Y-102092759D01*
X125424342Y-102121141D01*
X125424085Y-102121454D01*
X125383615Y-102155541D01*
X125353017Y-102169490D01*
X125319679Y-102169323D01*
X125256712Y-102161689D01*
X125172576Y-102147854D01*
X125075728Y-102129086D01*
X125056489Y-102125046D01*
X124939158Y-102101694D01*
X124846290Y-102088054D01*
X124764722Y-102083291D01*
X124681290Y-102086574D01*
X124593643Y-102095729D01*
X124455081Y-102109048D01*
X124319176Y-102115477D01*
X124193969Y-102115138D01*
X124087506Y-102108157D01*
X124007827Y-102094659D01*
X123982193Y-102086217D01*
X123940418Y-102071031D01*
X123923132Y-102076133D01*
X123919737Y-102104402D01*
X123916912Y-102122538D01*
X123905981Y-102144184D01*
X123883260Y-102173350D01*
X123845065Y-102214052D01*
X123787709Y-102270301D01*
X123707510Y-102346109D01*
X123640092Y-102408980D01*
X123530617Y-102509769D01*
X123409100Y-102619994D01*
X123286687Y-102729646D01*
X123174525Y-102828715D01*
X123114464Y-102880913D01*
X123000610Y-102977223D01*
X122906324Y-103050231D01*
X122823038Y-103102975D01*
X122742183Y-103138497D01*
X122655191Y-103159839D01*
X122553494Y-103170041D01*
X122428523Y-103172142D01*
X122300159Y-103169894D01*
X122201520Y-103168033D01*
X122071140Y-103166376D01*
X121916355Y-103164974D01*
X121744497Y-103163878D01*
X121562905Y-103163134D01*
X121378910Y-103162795D01*
X121254442Y-103162822D01*
X121051352Y-103162552D01*
X120884411Y-103161150D01*
X120750702Y-103158492D01*
X120647308Y-103154455D01*
X120571315Y-103148914D01*
X120538841Y-103144394D01*
X120654038Y-103029197D01*
X121335310Y-103033745D01*
X121510224Y-103035055D01*
X121686199Y-103036634D01*
X121855986Y-103038399D01*
X122012336Y-103040266D01*
X122147999Y-103042151D01*
X122255726Y-103043970D01*
X122299497Y-103044890D01*
X122442364Y-103046791D01*
X122556248Y-103042888D01*
X122649793Y-103029988D01*
X122731646Y-103004897D01*
X122810447Y-102964419D01*
X122894843Y-102905359D01*
X122993476Y-102824525D01*
X123066161Y-102761554D01*
X123158089Y-102680178D01*
X123252084Y-102595282D01*
X123343968Y-102510828D01*
X123429561Y-102430783D01*
X123504684Y-102359108D01*
X123565159Y-102299769D01*
X123606804Y-102256728D01*
X123625442Y-102233952D01*
X123625123Y-102231372D01*
X123591525Y-102240148D01*
X123530343Y-102262826D01*
X123449054Y-102296049D01*
X123355135Y-102336460D01*
X123256060Y-102380702D01*
X123159307Y-102425420D01*
X123072350Y-102467254D01*
X123002667Y-102502849D01*
X122957732Y-102528847D01*
X122949759Y-102534625D01*
X122891533Y-102585464D01*
X122820592Y-102652372D01*
X122744483Y-102727653D01*
X122670756Y-102803607D01*
X122606957Y-102872537D01*
X122560637Y-102926743D01*
X122546201Y-102946199D01*
X122504921Y-102991596D01*
X122462566Y-103013626D01*
X122427869Y-103010443D01*
X122422849Y-103002151D01*
X122457238Y-102967762D01*
X122479447Y-102966325D01*
X122505593Y-102947039D01*
X122526828Y-102916345D01*
X122526317Y-102898683D01*
X122517706Y-102899240D01*
X122873305Y-102543641D01*
X122880164Y-102546745D01*
X122908476Y-102540816D01*
X122929091Y-102519875D01*
X122927790Y-102498841D01*
X122897606Y-102490500D01*
X122869769Y-102507779D01*
X122864717Y-102519114D01*
X122873305Y-102543641D01*
X122517706Y-102899240D01*
X122504108Y-102900121D01*
X122477962Y-102919408D01*
X122456727Y-102950100D01*
X122457238Y-102967762D01*
X122422849Y-103002151D01*
X122409565Y-102980202D01*
X122408934Y-102975214D01*
X122415553Y-102937618D01*
X122448866Y-102903092D01*
X122463518Y-102892684D01*
X122512015Y-102856330D01*
X122571291Y-102806821D01*
X122634951Y-102750193D01*
X122696599Y-102692490D01*
X122749841Y-102639752D01*
X122788280Y-102598019D01*
X122805520Y-102573331D01*
X122805347Y-102569819D01*
X122780943Y-102567331D01*
X122728615Y-102573121D01*
X122657761Y-102585146D01*
X122577781Y-102601361D01*
X122498072Y-102619720D01*
X122428032Y-102638181D01*
X122377060Y-102654696D01*
X122354554Y-102667223D01*
X122354272Y-102667958D01*
X122334839Y-102689157D01*
X122291855Y-102716926D01*
X122268637Y-102728972D01*
X122190199Y-102773454D01*
X122143823Y-102814753D01*
X122132531Y-102850173D01*
X122132567Y-102850328D01*
X122123013Y-102879833D01*
X122092013Y-102918085D01*
X122050903Y-102952562D01*
X122028601Y-102965154D01*
X121993082Y-102965776D01*
X121973582Y-102949827D01*
X122013021Y-102910387D01*
X122041058Y-102915745D01*
X122073919Y-102900382D01*
X122083751Y-102889242D01*
X122081234Y-102866378D01*
X122251476Y-102696136D01*
X122256751Y-102698317D01*
X122285276Y-102691863D01*
X122312060Y-102669681D01*
X122323363Y-102645118D01*
X122319896Y-102636998D01*
X122291208Y-102628465D01*
X122283470Y-102629528D01*
X122257489Y-102647300D01*
X122244653Y-102675092D01*
X122251476Y-102696136D01*
X122081234Y-102866378D01*
X122081083Y-102864999D01*
X122078542Y-102862215D01*
X122055773Y-102860728D01*
X122027982Y-102876587D01*
X122010807Y-102898295D01*
X122013021Y-102910387D01*
X121973582Y-102949827D01*
X121966589Y-102944108D01*
X121961068Y-102913014D01*
X121968083Y-102899988D01*
X122015400Y-102852642D01*
X122062522Y-102819908D01*
X122091367Y-102810510D01*
X122124371Y-102797152D01*
X122160137Y-102766665D01*
X122184878Y-102732660D01*
X122188426Y-102714697D01*
X122168365Y-102707534D01*
X122120141Y-102707801D01*
X122053634Y-102714010D01*
X121978727Y-102724671D01*
X121905300Y-102738296D01*
X121843236Y-102753394D01*
X121802415Y-102768478D01*
X121794330Y-102774092D01*
X121751895Y-102801873D01*
X121722746Y-102812363D01*
X121689625Y-102827703D01*
X121677745Y-102862099D01*
X121676772Y-102875435D01*
X121659963Y-102922067D01*
X121622177Y-102964549D01*
X121575581Y-102993111D01*
X121532336Y-102997984D01*
X121526684Y-102995977D01*
X121522140Y-102991019D01*
X121559213Y-102953946D01*
X121581421Y-102952509D01*
X121607568Y-102933222D01*
X121628802Y-102902530D01*
X121628291Y-102884867D01*
X121606082Y-102886305D01*
X121579936Y-102905591D01*
X121558702Y-102936285D01*
X121559213Y-102953946D01*
X121522140Y-102991019D01*
X121506905Y-102974398D01*
X121722890Y-102758413D01*
X121750927Y-102763772D01*
X121783788Y-102748409D01*
X121793620Y-102737269D01*
X121790951Y-102713026D01*
X121788411Y-102710241D01*
X121765642Y-102708755D01*
X121737851Y-102724614D01*
X121720675Y-102746321D01*
X121722890Y-102758413D01*
X121506905Y-102974398D01*
X121503416Y-102970591D01*
X121512207Y-102933702D01*
X121549639Y-102890183D01*
X121612291Y-102844909D01*
X121645732Y-102826321D01*
X121673577Y-102803924D01*
X121671523Y-102789942D01*
X121644682Y-102786949D01*
X121592868Y-102797504D01*
X121526199Y-102817961D01*
X121454796Y-102844677D01*
X121388774Y-102874006D01*
X121338254Y-102902301D01*
X121320421Y-102916421D01*
X121274216Y-102951203D01*
X121228837Y-102969549D01*
X121193479Y-102969415D01*
X121190286Y-102963662D01*
X121227633Y-102926315D01*
X121249842Y-102924877D01*
X121275989Y-102905591D01*
X121297223Y-102874898D01*
X121296713Y-102857236D01*
X121274503Y-102858673D01*
X121248357Y-102877959D01*
X121227123Y-102908653D01*
X121227633Y-102926315D01*
X121190286Y-102963662D01*
X121180831Y-102946625D01*
X121179533Y-102935958D01*
X121190383Y-102891306D01*
X121223727Y-102850378D01*
X121268487Y-102820773D01*
X121313584Y-102810093D01*
X121344877Y-102822506D01*
X121372649Y-102827154D01*
X121425932Y-102820209D01*
X121493975Y-102804639D01*
X121566024Y-102783408D01*
X121631326Y-102759478D01*
X121679130Y-102735818D01*
X121690957Y-102727081D01*
X121745922Y-102678762D01*
X121780937Y-102652717D01*
X121804242Y-102644159D01*
X121824080Y-102648304D01*
X121825553Y-102648947D01*
X121848590Y-102674599D01*
X121849470Y-102690916D01*
X121862555Y-102703696D01*
X121904342Y-102707222D01*
X121965955Y-102702949D01*
X122038513Y-102692334D01*
X122113140Y-102676837D01*
X122180956Y-102657914D01*
X122233086Y-102637022D01*
X122252404Y-102624770D01*
X122305331Y-102594758D01*
X122348211Y-102597660D01*
X122392025Y-102602397D01*
X122462418Y-102597019D01*
X122548889Y-102583746D01*
X122640939Y-102564797D01*
X122728067Y-102542392D01*
X122799772Y-102518749D01*
X122845554Y-102496088D01*
X122851216Y-102491346D01*
X122904338Y-102451291D01*
X122950675Y-102445893D01*
X122967714Y-102452424D01*
X122994980Y-102450652D01*
X123049309Y-102435985D01*
X123121913Y-102411061D01*
X123178094Y-102389253D01*
X123311576Y-102334710D01*
X123411338Y-102293068D01*
X123480095Y-102263106D01*
X123520564Y-102243603D01*
X123535460Y-102233339D01*
X123530305Y-102230961D01*
X123494268Y-102235150D01*
X123424905Y-102246576D01*
X123327089Y-102264243D01*
X123275650Y-102273953D01*
X123449708Y-102099896D01*
X123479613Y-102104652D01*
X123546394Y-102096500D01*
X123612774Y-102083588D01*
X123697643Y-102067662D01*
X123771726Y-102057553D01*
X123824351Y-102054537D01*
X123840295Y-102056369D01*
X123879201Y-102064487D01*
X123883545Y-102057343D01*
X123852950Y-102038611D01*
X123842618Y-102033803D01*
X123799811Y-102004546D01*
X123791842Y-101982720D01*
X123776433Y-101957585D01*
X123732918Y-101954131D01*
X123665364Y-101971858D01*
X123581372Y-102008493D01*
X123500575Y-102051786D01*
X123456691Y-102082264D01*
X123449708Y-102099896D01*
X123275650Y-102273953D01*
X123205696Y-102287159D01*
X123065599Y-102314328D01*
X122911673Y-102344757D01*
X122748789Y-102377451D01*
X122581824Y-102411415D01*
X122415652Y-102445655D01*
X122255147Y-102479177D01*
X122105181Y-102510987D01*
X121970630Y-102540089D01*
X121856367Y-102565491D01*
X121767268Y-102586197D01*
X121708204Y-102601213D01*
X121692744Y-102605842D01*
X121587817Y-102642055D01*
X121466485Y-102686020D01*
X121335699Y-102735008D01*
X121202410Y-102786288D01*
X121073569Y-102837128D01*
X120956126Y-102884800D01*
X120857033Y-102926571D01*
X120783240Y-102959713D01*
X120751983Y-102975417D01*
X120654038Y-103029197D01*
X120538841Y-103144394D01*
X120519805Y-103141745D01*
X120489864Y-103132825D01*
X120485102Y-103130102D01*
X120448504Y-103094815D01*
X120446824Y-103057646D01*
X120480113Y-103011280D01*
X120485974Y-103005240D01*
X120537663Y-102960708D01*
X120607679Y-102914294D01*
X120699398Y-102864371D01*
X120816196Y-102809316D01*
X120961452Y-102747502D01*
X121138541Y-102677305D01*
X121276391Y-102624883D01*
X121416304Y-102572523D01*
X121533067Y-102529631D01*
X121633504Y-102494351D01*
X121724434Y-102464829D01*
X121812684Y-102439208D01*
X121905074Y-102415633D01*
X122008426Y-102392247D01*
X122129566Y-102367197D01*
X122275313Y-102338625D01*
X122452490Y-102304676D01*
X122456536Y-102303904D01*
X122619628Y-102272843D01*
X122776936Y-102243017D01*
X122922688Y-102215510D01*
X123051120Y-102191405D01*
X123156462Y-102171786D01*
X123232947Y-102157737D01*
X123264475Y-102152102D01*
X123329458Y-102138653D01*
X123371762Y-102125652D01*
X123384349Y-102115420D01*
X123381724Y-102113425D01*
X123364273Y-102104702D01*
X123361512Y-102095244D01*
X123378487Y-102079244D01*
X123420247Y-102050889D01*
X123456547Y-102027315D01*
X123538878Y-101979805D01*
X123624428Y-101940164D01*
X123703238Y-101912156D01*
X123765352Y-101899548D01*
X123790603Y-101900977D01*
X123820280Y-101906182D01*
X123825644Y-101903303D01*
X123811079Y-101884359D01*
X123780616Y-101846294D01*
X123764447Y-101826343D01*
X123699460Y-101733722D01*
X123648424Y-101629683D01*
X123607536Y-101504858D01*
X123574870Y-101359778D01*
X123556302Y-101270734D01*
X123537800Y-101195235D01*
X123521675Y-101142004D01*
X123511462Y-101120672D01*
X123473057Y-101099276D01*
X123413610Y-101081555D01*
X123351153Y-101071588D01*
X123303718Y-101073459D01*
X123303326Y-101073566D01*
X123273566Y-101073315D01*
X123267012Y-101052629D01*
X123283383Y-101032767D01*
X123325679Y-101025284D01*
X123383233Y-101028834D01*
X123445383Y-101042070D01*
X123501463Y-101063650D01*
X123535278Y-101086473D01*
X123542751Y-101089008D01*
X123529664Y-101064142D01*
X123498585Y-101015969D01*
X123452085Y-100948586D01*
X123424160Y-100909394D01*
X123349572Y-100805235D01*
X123293833Y-100725571D01*
X123252765Y-100663324D01*
X123222190Y-100611419D01*
X123197929Y-100562781D01*
X123175802Y-100510332D01*
X123152545Y-100449443D01*
X123126874Y-100384406D01*
X123089332Y-100293941D01*
X123044218Y-100188190D01*
X122995828Y-100077301D01*
X122975389Y-100031249D01*
X122931067Y-99930459D01*
X122896681Y-99846784D01*
X122869654Y-99771186D01*
X122847409Y-99694628D01*
X122827370Y-99608069D01*
X122806960Y-99502471D01*
X122783602Y-99368796D01*
X122779246Y-99343182D01*
X122756223Y-99204582D01*
X122740019Y-99097513D01*
X122730190Y-99015112D01*
X122726294Y-98950517D01*
X122727888Y-98896861D01*
X122734527Y-98847281D01*
X122744245Y-98801343D01*
X122777301Y-98660585D01*
X122872159Y-98604351D01*
G36*
X124740110Y-99618596D02*
X124740831Y-99618365D01*
X124822522Y-99603738D01*
X124927589Y-99600995D01*
X125042455Y-99609321D01*
X125153538Y-99627904D01*
X125223999Y-99647327D01*
X125278578Y-99666746D01*
X125322615Y-99686174D01*
X125363610Y-99710915D01*
X125409070Y-99746275D01*
X125466495Y-99797558D01*
X125543390Y-99870068D01*
X125555840Y-99881932D01*
X125639470Y-99962916D01*
X125703974Y-100029637D01*
X125757909Y-100092487D01*
X125809828Y-100161859D01*
X125868289Y-100248144D01*
X125909533Y-100311532D01*
X125977446Y-100417913D01*
X126026847Y-100499992D01*
X126061056Y-100565882D01*
X126083392Y-100623693D01*
X126097175Y-100681533D01*
X126105721Y-100747514D01*
X126110310Y-100802143D01*
X126116911Y-100871561D01*
X126124455Y-100924403D01*
X126131359Y-100949735D01*
X126131666Y-100950090D01*
X126127212Y-100970543D01*
X126106011Y-101015992D01*
X126072041Y-101078307D01*
X126053284Y-101110297D01*
X126008740Y-101187115D01*
X125969023Y-101259945D01*
X125940985Y-101316091D01*
X125935858Y-101327825D01*
X125901618Y-101391698D01*
X125851943Y-101446935D01*
X125780142Y-101499040D01*
X125679530Y-101553514D01*
X125636534Y-101574035D01*
X125544687Y-101615489D01*
X125432984Y-101663934D01*
X125318007Y-101712254D01*
X125247944Y-101740796D01*
X125149232Y-101778967D01*
X125070322Y-101804618D01*
X124997392Y-101820561D01*
X124916619Y-101829612D01*
X124814182Y-101834583D01*
X124782357Y-101835554D01*
X124535707Y-101842581D01*
X124499881Y-101785372D01*
X124592243Y-101693010D01*
X124619755Y-101706770D01*
X124676878Y-101713385D01*
X124754928Y-101713462D01*
X124845215Y-101707609D01*
X124939053Y-101696430D01*
X125027754Y-101680536D01*
X125102630Y-101660530D01*
X125113847Y-101656585D01*
X125222117Y-101614825D01*
X125336066Y-101567742D01*
X125449321Y-101518313D01*
X125555506Y-101469515D01*
X125648248Y-101424326D01*
X125721173Y-101385722D01*
X125767905Y-101356680D01*
X125780674Y-101345149D01*
X125810653Y-101296443D01*
X125834277Y-101249854D01*
X125848615Y-101212117D01*
X125849701Y-101195768D01*
X125849254Y-101195752D01*
X125828642Y-101201590D01*
X125775984Y-101217437D01*
X125696546Y-101241684D01*
X125595593Y-101272717D01*
X125478385Y-101308927D01*
X125394624Y-101334896D01*
X125233866Y-101385843D01*
X125109006Y-101427802D01*
X125018092Y-101461505D01*
X124959172Y-101487687D01*
X124930296Y-101507081D01*
X124927911Y-101510282D01*
X124898313Y-101537011D01*
X124868284Y-101531869D01*
X124864057Y-101525496D01*
X124964314Y-101425239D01*
X124983296Y-101425606D01*
X125033191Y-101415475D01*
X125107842Y-101396711D01*
X125201094Y-101371178D01*
X125306790Y-101340743D01*
X125418773Y-101307268D01*
X125530888Y-101272619D01*
X125636977Y-101238662D01*
X125730885Y-101207260D01*
X125806455Y-101180280D01*
X125857529Y-101159584D01*
X125876482Y-101148933D01*
X125902972Y-101116033D01*
X125936847Y-101063367D01*
X125954106Y-101033026D01*
X125983168Y-100965554D01*
X125992253Y-100897900D01*
X125986966Y-100827887D01*
X125977876Y-100766378D01*
X125969441Y-100724093D01*
X125964326Y-100711185D01*
X125945722Y-100720389D01*
X125898922Y-100745889D01*
X125829617Y-100784521D01*
X125743495Y-100833117D01*
X125668174Y-100875978D01*
X125570720Y-100931078D01*
X125483461Y-100979382D01*
X125412714Y-101017476D01*
X125364794Y-101041942D01*
X125347737Y-101049268D01*
X125315814Y-101073205D01*
X125291711Y-101111264D01*
X125260831Y-101157116D01*
X125223427Y-101174957D01*
X125190280Y-101192497D01*
X125142629Y-101229211D01*
X125088508Y-101277336D01*
X125035951Y-101329112D01*
X124992994Y-101376778D01*
X124967673Y-101412573D01*
X124964314Y-101425239D01*
X124864057Y-101525496D01*
X124848548Y-101502110D01*
X124881908Y-101468750D01*
X124901975Y-101483628D01*
X124916549Y-101470858D01*
X124927655Y-101447679D01*
X124931247Y-101423537D01*
X125234282Y-101120502D01*
X125253333Y-101110913D01*
X125260150Y-101104324D01*
X125273188Y-101077470D01*
X125322572Y-101028086D01*
X125343321Y-101021346D01*
X125391299Y-100998850D01*
X125459803Y-100964223D01*
X125542132Y-100921092D01*
X125631581Y-100873083D01*
X125721451Y-100823822D01*
X125805037Y-100776937D01*
X125875638Y-100736053D01*
X125926552Y-100704795D01*
X125947906Y-100689750D01*
X125956137Y-100661514D01*
X125949149Y-100629468D01*
X125932846Y-100596683D01*
X125903018Y-100542627D01*
X125865379Y-100477028D01*
X125825641Y-100409615D01*
X125789515Y-100350117D01*
X125762712Y-100308259D01*
X125752591Y-100294699D01*
X125735641Y-100303122D01*
X125700026Y-100335171D01*
X125651768Y-100384175D01*
X125596887Y-100443468D01*
X125541405Y-100506379D01*
X125491340Y-100566242D01*
X125452712Y-100616388D01*
X125431544Y-100650146D01*
X125431397Y-100650478D01*
X125403857Y-100706277D01*
X125378492Y-100749546D01*
X125358896Y-100791292D01*
X125340596Y-100850378D01*
X125325924Y-100915206D01*
X125317207Y-100974170D01*
X125316774Y-101015673D01*
X125322572Y-101028086D01*
X125273188Y-101077470D01*
X125275721Y-101072252D01*
X125268749Y-101054277D01*
X125243789Y-101042440D01*
X125235901Y-101045677D01*
X125227348Y-101073135D01*
X125227302Y-101095724D01*
X125234282Y-101120502D01*
X124931247Y-101423537D01*
X124932859Y-101412712D01*
X124914259Y-101403924D01*
X124888815Y-101420395D01*
X124874951Y-101451537D01*
X124881908Y-101468750D01*
X124848548Y-101502110D01*
X124847612Y-101500698D01*
X124844443Y-101460464D01*
X124860940Y-101405075D01*
X124892040Y-101363792D01*
X124928821Y-101346373D01*
X124945990Y-101349405D01*
X124976057Y-101343730D01*
X125020540Y-101314098D01*
X125071491Y-101268592D01*
X125120964Y-101215303D01*
X125161012Y-101162315D01*
X125183687Y-101117715D01*
X125186076Y-101105097D01*
X125200561Y-101060427D01*
X125233615Y-101008883D01*
X125244788Y-100995845D01*
X125286200Y-100934055D01*
X125318402Y-100855233D01*
X125337424Y-100773534D01*
X125339295Y-100703110D01*
X125336649Y-100691977D01*
X125373241Y-100655385D01*
X125391048Y-100665031D01*
X125405490Y-100650766D01*
X125416470Y-100613286D01*
X125412941Y-100596590D01*
X125395134Y-100586944D01*
X125380691Y-100601209D01*
X125369712Y-100638689D01*
X125373241Y-100655385D01*
X125336649Y-100691977D01*
X125333630Y-100679261D01*
X125331356Y-100625114D01*
X125344436Y-100593762D01*
X125412062Y-100526136D01*
X125446328Y-100531659D01*
X125488840Y-100509074D01*
X125546686Y-100458013D01*
X125585751Y-100419512D01*
X125650260Y-100352724D01*
X125689559Y-100305592D01*
X125708018Y-100272242D01*
X125710729Y-100251621D01*
X125698003Y-100225973D01*
X125666467Y-100181395D01*
X125622238Y-100125048D01*
X125571433Y-100064090D01*
X125520170Y-100005681D01*
X125474564Y-99956978D01*
X125440734Y-99925143D01*
X125424954Y-99917152D01*
X125413921Y-99936464D01*
X125390442Y-99981852D01*
X125359183Y-100044260D01*
X125352664Y-100057468D01*
X125306490Y-100172202D01*
X125291164Y-100270984D01*
X125306425Y-100361507D01*
X125339930Y-100432230D01*
X125378958Y-100492871D01*
X125412062Y-100526136D01*
X125344436Y-100593762D01*
X125348440Y-100584165D01*
X125366549Y-100543171D01*
X125356820Y-100503178D01*
X125341830Y-100478917D01*
X125311810Y-100432420D01*
X125291573Y-100396486D01*
X125290780Y-100394758D01*
X125271195Y-100381796D01*
X125250319Y-100395734D01*
X125212303Y-100418691D01*
X125185225Y-100406474D01*
X125183128Y-100397973D01*
X125220466Y-100360635D01*
X125239517Y-100351045D01*
X125246333Y-100344456D01*
X125261905Y-100312385D01*
X125254933Y-100294409D01*
X125229974Y-100282572D01*
X125222086Y-100285810D01*
X125213532Y-100313267D01*
X125213485Y-100335856D01*
X125220466Y-100360635D01*
X125183128Y-100397973D01*
X125174400Y-100362582D01*
X125174923Y-100346160D01*
X125179853Y-100280574D01*
X125085451Y-100259168D01*
X125025848Y-100248713D01*
X124990235Y-100253331D01*
X124965665Y-100275361D01*
X124961275Y-100281563D01*
X124923127Y-100318359D01*
X124888233Y-100321535D01*
X124887692Y-100320857D01*
X124999873Y-100208676D01*
X125051014Y-100230956D01*
X125113764Y-100245165D01*
X125174403Y-100247971D01*
X125212636Y-100239561D01*
X125238581Y-100214220D01*
X125273660Y-100162539D01*
X125312389Y-100094419D01*
X125349282Y-100019759D01*
X125378856Y-99948460D01*
X125386717Y-99925324D01*
X125378480Y-99890742D01*
X125339177Y-99851050D01*
X125275596Y-99810829D01*
X125194527Y-99774660D01*
X125134518Y-99755171D01*
X125056228Y-99735513D01*
X125004488Y-99732035D01*
X124973105Y-99749900D01*
X124955883Y-99794273D01*
X124946628Y-99870313D01*
X124943534Y-99914342D01*
X124940109Y-99995388D01*
X124940612Y-100063334D01*
X124944830Y-100107433D01*
X124947529Y-100116025D01*
X124966484Y-100159534D01*
X124974061Y-100181654D01*
X124999873Y-100208676D01*
X124887692Y-100320857D01*
X124873029Y-100302420D01*
X124902197Y-100273252D01*
X124924107Y-100277847D01*
X124941362Y-100244550D01*
X124944218Y-100233177D01*
X124941835Y-100205220D01*
X124932956Y-100200001D01*
X124909287Y-100215723D01*
X124896394Y-100248010D01*
X124902197Y-100273252D01*
X124873029Y-100302420D01*
X124865413Y-100292842D01*
X124861183Y-100261718D01*
X124870924Y-100209656D01*
X124890674Y-100175115D01*
X124905985Y-100140480D01*
X124917057Y-100077090D01*
X124922133Y-99995188D01*
X124922191Y-99991387D01*
X124924362Y-99909931D01*
X124928222Y-99837317D01*
X124932991Y-99787699D01*
X124933666Y-99783511D01*
X124943116Y-99729873D01*
X124879017Y-99727872D01*
X124828696Y-99732154D01*
X124795555Y-99745263D01*
X124794944Y-99745846D01*
X124786903Y-99768972D01*
X124772672Y-99826173D01*
X124753171Y-99913101D01*
X124729324Y-100025403D01*
X124702051Y-100158732D01*
X124672273Y-100308737D01*
X124640913Y-100471072D01*
X124637577Y-100488596D01*
X124595739Y-100708264D01*
X124560581Y-100892834D01*
X124531727Y-101045643D01*
X124508802Y-101170027D01*
X124491429Y-101269321D01*
X124479233Y-101346864D01*
X124471837Y-101405991D01*
X124468866Y-101450038D01*
X124469944Y-101482342D01*
X124474695Y-101506241D01*
X124482742Y-101525069D01*
X124493709Y-101542164D01*
X124507222Y-101560862D01*
X124515410Y-101572747D01*
X124552138Y-101628841D01*
X124581313Y-101674794D01*
X124592243Y-101693010D01*
X124499881Y-101785372D01*
X124426735Y-101668564D01*
X124381911Y-101595883D01*
X124346231Y-101535925D01*
X124323998Y-101496057D01*
X124318737Y-101483774D01*
X124322940Y-101458720D01*
X124333732Y-101400038D01*
X124350204Y-101312435D01*
X124371444Y-101200617D01*
X124396543Y-101069289D01*
X124424590Y-100923161D01*
X124454674Y-100766935D01*
X124485887Y-100605319D01*
X124517315Y-100443020D01*
X124548049Y-100284742D01*
X124577178Y-100135194D01*
X124603794Y-99999080D01*
X124626984Y-99881107D01*
X124645838Y-99785981D01*
X124659446Y-99718409D01*
X124666897Y-99683097D01*
X124667797Y-99679493D01*
X124690822Y-99642739D01*
X124740110Y-99618596D01*
X124740110Y-99618596D01*
G37*
X124740110Y-99618596D02*
X124740831Y-99618365D01*
X124822522Y-99603738D01*
X124927589Y-99600995D01*
X125042455Y-99609321D01*
X125153538Y-99627904D01*
X125223999Y-99647327D01*
X125278578Y-99666746D01*
X125322615Y-99686174D01*
X125363610Y-99710915D01*
X125409070Y-99746275D01*
X125466495Y-99797558D01*
X125543390Y-99870068D01*
X125555840Y-99881932D01*
X125639470Y-99962916D01*
X125703974Y-100029637D01*
X125757909Y-100092487D01*
X125809828Y-100161859D01*
X125868289Y-100248144D01*
X125909533Y-100311532D01*
X125977446Y-100417913D01*
X126026847Y-100499992D01*
X126061056Y-100565882D01*
X126083392Y-100623693D01*
X126097175Y-100681533D01*
X126105721Y-100747514D01*
X126110310Y-100802143D01*
X126116911Y-100871561D01*
X126124455Y-100924403D01*
X126131359Y-100949735D01*
X126131666Y-100950090D01*
X126127212Y-100970543D01*
X126106011Y-101015992D01*
X126072041Y-101078307D01*
X126053284Y-101110297D01*
X126008740Y-101187115D01*
X125969023Y-101259945D01*
X125940985Y-101316091D01*
X125935858Y-101327825D01*
X125901618Y-101391698D01*
X125851943Y-101446935D01*
X125780142Y-101499040D01*
X125679530Y-101553514D01*
X125636534Y-101574035D01*
X125544687Y-101615489D01*
X125432984Y-101663934D01*
X125318007Y-101712254D01*
X125247944Y-101740796D01*
X125149232Y-101778967D01*
X125070322Y-101804618D01*
X124997392Y-101820561D01*
X124916619Y-101829612D01*
X124814182Y-101834583D01*
X124782357Y-101835554D01*
X124535707Y-101842581D01*
X124499881Y-101785372D01*
X124592243Y-101693010D01*
X124619755Y-101706770D01*
X124676878Y-101713385D01*
X124754928Y-101713462D01*
X124845215Y-101707609D01*
X124939053Y-101696430D01*
X125027754Y-101680536D01*
X125102630Y-101660530D01*
X125113847Y-101656585D01*
X125222117Y-101614825D01*
X125336066Y-101567742D01*
X125449321Y-101518313D01*
X125555506Y-101469515D01*
X125648248Y-101424326D01*
X125721173Y-101385722D01*
X125767905Y-101356680D01*
X125780674Y-101345149D01*
X125810653Y-101296443D01*
X125834277Y-101249854D01*
X125848615Y-101212117D01*
X125849701Y-101195768D01*
X125849254Y-101195752D01*
X125828642Y-101201590D01*
X125775984Y-101217437D01*
X125696546Y-101241684D01*
X125595593Y-101272717D01*
X125478385Y-101308927D01*
X125394624Y-101334896D01*
X125233866Y-101385843D01*
X125109006Y-101427802D01*
X125018092Y-101461505D01*
X124959172Y-101487687D01*
X124930296Y-101507081D01*
X124927911Y-101510282D01*
X124898313Y-101537011D01*
X124868284Y-101531869D01*
X124864057Y-101525496D01*
X124964314Y-101425239D01*
X124983296Y-101425606D01*
X125033191Y-101415475D01*
X125107842Y-101396711D01*
X125201094Y-101371178D01*
X125306790Y-101340743D01*
X125418773Y-101307268D01*
X125530888Y-101272619D01*
X125636977Y-101238662D01*
X125730885Y-101207260D01*
X125806455Y-101180280D01*
X125857529Y-101159584D01*
X125876482Y-101148933D01*
X125902972Y-101116033D01*
X125936847Y-101063367D01*
X125954106Y-101033026D01*
X125983168Y-100965554D01*
X125992253Y-100897900D01*
X125986966Y-100827887D01*
X125977876Y-100766378D01*
X125969441Y-100724093D01*
X125964326Y-100711185D01*
X125945722Y-100720389D01*
X125898922Y-100745889D01*
X125829617Y-100784521D01*
X125743495Y-100833117D01*
X125668174Y-100875978D01*
X125570720Y-100931078D01*
X125483461Y-100979382D01*
X125412714Y-101017476D01*
X125364794Y-101041942D01*
X125347737Y-101049268D01*
X125315814Y-101073205D01*
X125291711Y-101111264D01*
X125260831Y-101157116D01*
X125223427Y-101174957D01*
X125190280Y-101192497D01*
X125142629Y-101229211D01*
X125088508Y-101277336D01*
X125035951Y-101329112D01*
X124992994Y-101376778D01*
X124967673Y-101412573D01*
X124964314Y-101425239D01*
X124864057Y-101525496D01*
X124848548Y-101502110D01*
X124881908Y-101468750D01*
X124901975Y-101483628D01*
X124916549Y-101470858D01*
X124927655Y-101447679D01*
X124931247Y-101423537D01*
X125234282Y-101120502D01*
X125253333Y-101110913D01*
X125260150Y-101104324D01*
X125273188Y-101077470D01*
X125322572Y-101028086D01*
X125343321Y-101021346D01*
X125391299Y-100998850D01*
X125459803Y-100964223D01*
X125542132Y-100921092D01*
X125631581Y-100873083D01*
X125721451Y-100823822D01*
X125805037Y-100776937D01*
X125875638Y-100736053D01*
X125926552Y-100704795D01*
X125947906Y-100689750D01*
X125956137Y-100661514D01*
X125949149Y-100629468D01*
X125932846Y-100596683D01*
X125903018Y-100542627D01*
X125865379Y-100477028D01*
X125825641Y-100409615D01*
X125789515Y-100350117D01*
X125762712Y-100308259D01*
X125752591Y-100294699D01*
X125735641Y-100303122D01*
X125700026Y-100335171D01*
X125651768Y-100384175D01*
X125596887Y-100443468D01*
X125541405Y-100506379D01*
X125491340Y-100566242D01*
X125452712Y-100616388D01*
X125431544Y-100650146D01*
X125431397Y-100650478D01*
X125403857Y-100706277D01*
X125378492Y-100749546D01*
X125358896Y-100791292D01*
X125340596Y-100850378D01*
X125325924Y-100915206D01*
X125317207Y-100974170D01*
X125316774Y-101015673D01*
X125322572Y-101028086D01*
X125273188Y-101077470D01*
X125275721Y-101072252D01*
X125268749Y-101054277D01*
X125243789Y-101042440D01*
X125235901Y-101045677D01*
X125227348Y-101073135D01*
X125227302Y-101095724D01*
X125234282Y-101120502D01*
X124931247Y-101423537D01*
X124932859Y-101412712D01*
X124914259Y-101403924D01*
X124888815Y-101420395D01*
X124874951Y-101451537D01*
X124881908Y-101468750D01*
X124848548Y-101502110D01*
X124847612Y-101500698D01*
X124844443Y-101460464D01*
X124860940Y-101405075D01*
X124892040Y-101363792D01*
X124928821Y-101346373D01*
X124945990Y-101349405D01*
X124976057Y-101343730D01*
X125020540Y-101314098D01*
X125071491Y-101268592D01*
X125120964Y-101215303D01*
X125161012Y-101162315D01*
X125183687Y-101117715D01*
X125186076Y-101105097D01*
X125200561Y-101060427D01*
X125233615Y-101008883D01*
X125244788Y-100995845D01*
X125286200Y-100934055D01*
X125318402Y-100855233D01*
X125337424Y-100773534D01*
X125339295Y-100703110D01*
X125336649Y-100691977D01*
X125373241Y-100655385D01*
X125391048Y-100665031D01*
X125405490Y-100650766D01*
X125416470Y-100613286D01*
X125412941Y-100596590D01*
X125395134Y-100586944D01*
X125380691Y-100601209D01*
X125369712Y-100638689D01*
X125373241Y-100655385D01*
X125336649Y-100691977D01*
X125333630Y-100679261D01*
X125331356Y-100625114D01*
X125344436Y-100593762D01*
X125412062Y-100526136D01*
X125446328Y-100531659D01*
X125488840Y-100509074D01*
X125546686Y-100458013D01*
X125585751Y-100419512D01*
X125650260Y-100352724D01*
X125689559Y-100305592D01*
X125708018Y-100272242D01*
X125710729Y-100251621D01*
X125698003Y-100225973D01*
X125666467Y-100181395D01*
X125622238Y-100125048D01*
X125571433Y-100064090D01*
X125520170Y-100005681D01*
X125474564Y-99956978D01*
X125440734Y-99925143D01*
X125424954Y-99917152D01*
X125413921Y-99936464D01*
X125390442Y-99981852D01*
X125359183Y-100044260D01*
X125352664Y-100057468D01*
X125306490Y-100172202D01*
X125291164Y-100270984D01*
X125306425Y-100361507D01*
X125339930Y-100432230D01*
X125378958Y-100492871D01*
X125412062Y-100526136D01*
X125344436Y-100593762D01*
X125348440Y-100584165D01*
X125366549Y-100543171D01*
X125356820Y-100503178D01*
X125341830Y-100478917D01*
X125311810Y-100432420D01*
X125291573Y-100396486D01*
X125290780Y-100394758D01*
X125271195Y-100381796D01*
X125250319Y-100395734D01*
X125212303Y-100418691D01*
X125185225Y-100406474D01*
X125183128Y-100397973D01*
X125220466Y-100360635D01*
X125239517Y-100351045D01*
X125246333Y-100344456D01*
X125261905Y-100312385D01*
X125254933Y-100294409D01*
X125229974Y-100282572D01*
X125222086Y-100285810D01*
X125213532Y-100313267D01*
X125213485Y-100335856D01*
X125220466Y-100360635D01*
X125183128Y-100397973D01*
X125174400Y-100362582D01*
X125174923Y-100346160D01*
X125179853Y-100280574D01*
X125085451Y-100259168D01*
X125025848Y-100248713D01*
X124990235Y-100253331D01*
X124965665Y-100275361D01*
X124961275Y-100281563D01*
X124923127Y-100318359D01*
X124888233Y-100321535D01*
X124887692Y-100320857D01*
X124999873Y-100208676D01*
X125051014Y-100230956D01*
X125113764Y-100245165D01*
X125174403Y-100247971D01*
X125212636Y-100239561D01*
X125238581Y-100214220D01*
X125273660Y-100162539D01*
X125312389Y-100094419D01*
X125349282Y-100019759D01*
X125378856Y-99948460D01*
X125386717Y-99925324D01*
X125378480Y-99890742D01*
X125339177Y-99851050D01*
X125275596Y-99810829D01*
X125194527Y-99774660D01*
X125134518Y-99755171D01*
X125056228Y-99735513D01*
X125004488Y-99732035D01*
X124973105Y-99749900D01*
X124955883Y-99794273D01*
X124946628Y-99870313D01*
X124943534Y-99914342D01*
X124940109Y-99995388D01*
X124940612Y-100063334D01*
X124944830Y-100107433D01*
X124947529Y-100116025D01*
X124966484Y-100159534D01*
X124974061Y-100181654D01*
X124999873Y-100208676D01*
X124887692Y-100320857D01*
X124873029Y-100302420D01*
X124902197Y-100273252D01*
X124924107Y-100277847D01*
X124941362Y-100244550D01*
X124944218Y-100233177D01*
X124941835Y-100205220D01*
X124932956Y-100200001D01*
X124909287Y-100215723D01*
X124896394Y-100248010D01*
X124902197Y-100273252D01*
X124873029Y-100302420D01*
X124865413Y-100292842D01*
X124861183Y-100261718D01*
X124870924Y-100209656D01*
X124890674Y-100175115D01*
X124905985Y-100140480D01*
X124917057Y-100077090D01*
X124922133Y-99995188D01*
X124922191Y-99991387D01*
X124924362Y-99909931D01*
X124928222Y-99837317D01*
X124932991Y-99787699D01*
X124933666Y-99783511D01*
X124943116Y-99729873D01*
X124879017Y-99727872D01*
X124828696Y-99732154D01*
X124795555Y-99745263D01*
X124794944Y-99745846D01*
X124786903Y-99768972D01*
X124772672Y-99826173D01*
X124753171Y-99913101D01*
X124729324Y-100025403D01*
X124702051Y-100158732D01*
X124672273Y-100308737D01*
X124640913Y-100471072D01*
X124637577Y-100488596D01*
X124595739Y-100708264D01*
X124560581Y-100892834D01*
X124531727Y-101045643D01*
X124508802Y-101170027D01*
X124491429Y-101269321D01*
X124479233Y-101346864D01*
X124471837Y-101405991D01*
X124468866Y-101450038D01*
X124469944Y-101482342D01*
X124474695Y-101506241D01*
X124482742Y-101525069D01*
X124493709Y-101542164D01*
X124507222Y-101560862D01*
X124515410Y-101572747D01*
X124552138Y-101628841D01*
X124581313Y-101674794D01*
X124592243Y-101693010D01*
X124499881Y-101785372D01*
X124426735Y-101668564D01*
X124381911Y-101595883D01*
X124346231Y-101535925D01*
X124323998Y-101496057D01*
X124318737Y-101483774D01*
X124322940Y-101458720D01*
X124333732Y-101400038D01*
X124350204Y-101312435D01*
X124371444Y-101200617D01*
X124396543Y-101069289D01*
X124424590Y-100923161D01*
X124454674Y-100766935D01*
X124485887Y-100605319D01*
X124517315Y-100443020D01*
X124548049Y-100284742D01*
X124577178Y-100135194D01*
X124603794Y-99999080D01*
X124626984Y-99881107D01*
X124645838Y-99785981D01*
X124659446Y-99718409D01*
X124666897Y-99683097D01*
X124667797Y-99679493D01*
X124690822Y-99642739D01*
X124740110Y-99618596D01*
D12*
X121412000Y-91440000D02*
G75*
G03X121412000Y-91440000I-762000J0D01*
G01*
X118872000Y-91440000D02*
G75*
G03X118872000Y-91440000I-762000J0D01*
G01*
X116332000Y-91440000D02*
G75*
G03X116332000Y-91440000I-762000J0D01*
G01*
X113792000Y-91440000D02*
G75*
G03X113792000Y-91440000I-762000J0D01*
G01*
X111252000Y-91440000D02*
G75*
G03X111252000Y-91440000I-762000J0D01*
G01*
X108712000Y-91440000D02*
G75*
G03X108712000Y-91440000I-762000J0D01*
G01*
X106172000Y-91440000D02*
G75*
G03X106172000Y-91440000I-762000J0D01*
G01*
X103632000Y-91440000D02*
G75*
G03X103632000Y-91440000I-762000J0D01*
G01*
X101092000Y-91440000D02*
G75*
G03X101092000Y-91440000I-762000J0D01*
G01*
X96012000Y-91440000D02*
G75*
G03X96012000Y-91440000I-762000J0D01*
G01*
X121412000Y-111760000D02*
G75*
G03X121412000Y-111760000I-762000J0D01*
G01*
X118872000Y-111760000D02*
G75*
G03X118872000Y-111760000I-762000J0D01*
G01*
X116332000Y-111760000D02*
G75*
G03X116332000Y-111760000I-762000J0D01*
G01*
X113792000Y-111760000D02*
G75*
G03X113792000Y-111760000I-762000J0D01*
G01*
X106172000Y-111760000D02*
G75*
G03X106172000Y-111760000I-762000J0D01*
G01*
X103632000Y-111760000D02*
G75*
G03X103632000Y-111760000I-762000J0D01*
G01*
X101092000Y-111760000D02*
G75*
G03X101092000Y-111760000I-762000J0D01*
G01*
X98552000Y-111760000D02*
G75*
G03X98552000Y-111760000I-762000J0D01*
G01*
X96012000Y-111760000D02*
G75*
G03X96012000Y-111760000I-762000J0D01*
G01*
X93472000Y-111760000D02*
G75*
G03X93472000Y-111760000I-762000J0D01*
G01*
X88392000Y-111760000D02*
G75*
G03X88392000Y-111760000I-762000J0D01*
G01*
X85852000Y-111760000D02*
G75*
G03X85852000Y-111760000I-762000J0D01*
G01*
X83312000Y-111760000D02*
G75*
G03X83312000Y-111760000I-762000J0D01*
G01*
X125755151Y-92710000D02*
G75*
G03X125755151Y-92710000I-1295151J0D01*
G01*
X125755151Y-110490000D02*
G75*
G03X125755151Y-110490000I-1295151J0D01*
G01*
X80787813Y-110490000D02*
G75*
G03X80787813Y-110490000I-2047813J0D01*
G01*
X80787813Y-92710000D02*
G75*
G03X80787813Y-92710000I-2047813J0D01*
G01*
X76200000Y-101600000D02*
X77724000Y-101600000D01*
X90678000Y-95250000D02*
X90678000Y-90170000D01*
X83058000Y-95250000D02*
X83058000Y-90170000D01*
X86868000Y-90170000D02*
X86868000Y-91948000D01*
X83058000Y-95250000D02*
X90678000Y-95250000D01*
X76200000Y-99060000D02*
X81280000Y-99060000D01*
X81280000Y-99060000D02*
X81280000Y-104140000D01*
X81280000Y-104140000D02*
X76200000Y-104140000D01*
X76200000Y-110490000D02*
G75*
G03X78740000Y-113030000I2540000J0D01*
G01*
X78740000Y-90170000D02*
G75*
G03X76200000Y-92710000I0J-2540000D01*
G01*
X124460000Y-113030000D02*
G75*
G03X127000000Y-110490000I0J2540000D01*
G01*
X127000000Y-92710000D02*
G75*
G03X124460000Y-90170000I-2540000J0D01*
G01*
X127000000Y-92710000D02*
X127000000Y-110490000D01*
X76200000Y-92710000D02*
X76200000Y-110490000D01*
X78740000Y-113030000D02*
X124460000Y-113030000D01*
X124460000Y-90170000D02*
X78740000Y-90170000D01*
D13*
X81842429Y-105301142D02*
X81842429Y-105639808D01*
X82374619Y-105639808D02*
X81358619Y-105639808D01*
X81358619Y-105155999D01*
X82326238Y-104381904D02*
X82374619Y-104478666D01*
X82374619Y-104672189D01*
X82326238Y-104768951D01*
X82229476Y-104817332D01*
X81842429Y-104817332D01*
X81745667Y-104768951D01*
X81697286Y-104672189D01*
X81697286Y-104478666D01*
X81745667Y-104381904D01*
X81842429Y-104333523D01*
X81939190Y-104333523D01*
X82035952Y-104817332D01*
X82374619Y-103462666D02*
X81842429Y-103462666D01*
X81745667Y-103511047D01*
X81697286Y-103607809D01*
X81697286Y-103801332D01*
X81745667Y-103898094D01*
X82326238Y-103462666D02*
X82374619Y-103559428D01*
X82374619Y-103801332D01*
X82326238Y-103898094D01*
X82229476Y-103946475D01*
X82132714Y-103946475D01*
X82035952Y-103898094D01*
X81987571Y-103801332D01*
X81987571Y-103559428D01*
X81939190Y-103462666D01*
X81697286Y-103123999D02*
X81697286Y-102736951D01*
X81358619Y-102978856D02*
X82229476Y-102978856D01*
X82326238Y-102930475D01*
X82374619Y-102833713D01*
X82374619Y-102736951D01*
X82374619Y-102398285D02*
X81358619Y-102398285D01*
X82374619Y-101962857D02*
X81842429Y-101962857D01*
X81745667Y-102011238D01*
X81697286Y-102108000D01*
X81697286Y-102253142D01*
X81745667Y-102349904D01*
X81794048Y-102398285D01*
X82326238Y-101092000D02*
X82374619Y-101188762D01*
X82374619Y-101382285D01*
X82326238Y-101479047D01*
X82229476Y-101527428D01*
X81842429Y-101527428D01*
X81745667Y-101479047D01*
X81697286Y-101382285D01*
X81697286Y-101188762D01*
X81745667Y-101092000D01*
X81842429Y-101043619D01*
X81939190Y-101043619D01*
X82035952Y-101527428D01*
X82374619Y-100608190D02*
X81697286Y-100608190D01*
X81890810Y-100608190D02*
X81794048Y-100559809D01*
X81745667Y-100511428D01*
X81697286Y-100414666D01*
X81697286Y-100317905D01*
X82471381Y-100221143D02*
X82471381Y-99447048D01*
X82374619Y-99205143D02*
X81358619Y-99205143D01*
X82084333Y-98866477D01*
X81358619Y-98527810D01*
X82374619Y-98527810D01*
X81358619Y-97850476D02*
X81358619Y-97753715D01*
X81407000Y-97656953D01*
X81455381Y-97608572D01*
X81552143Y-97560191D01*
X81745667Y-97511810D01*
X81987571Y-97511810D01*
X82181095Y-97560191D01*
X82277857Y-97608572D01*
X82326238Y-97656953D01*
X82374619Y-97753715D01*
X82374619Y-97850476D01*
X82326238Y-97947238D01*
X82277857Y-97995619D01*
X82181095Y-98044000D01*
X81987571Y-98092381D01*
X81745667Y-98092381D01*
X81552143Y-98044000D01*
X81455381Y-97995619D01*
X81407000Y-97947238D01*
X81358619Y-97850476D01*
X97233619Y-95897095D02*
X98056095Y-95897095D01*
X98152857Y-95848714D01*
X98201238Y-95800333D01*
X98249619Y-95703571D01*
X98249619Y-95510048D01*
X98201238Y-95413286D01*
X98152857Y-95364905D01*
X98056095Y-95316524D01*
X97233619Y-95316524D01*
X98201238Y-94881095D02*
X98249619Y-94735952D01*
X98249619Y-94494048D01*
X98201238Y-94397286D01*
X98152857Y-94348905D01*
X98056095Y-94300524D01*
X97959333Y-94300524D01*
X97862571Y-94348905D01*
X97814190Y-94397286D01*
X97765810Y-94494048D01*
X97717429Y-94687571D01*
X97669048Y-94784333D01*
X97620667Y-94832714D01*
X97523905Y-94881095D01*
X97427143Y-94881095D01*
X97330381Y-94832714D01*
X97282000Y-94784333D01*
X97233619Y-94687571D01*
X97233619Y-94445667D01*
X97282000Y-94300524D01*
X97717429Y-93526429D02*
X97765810Y-93381286D01*
X97814190Y-93332905D01*
X97910952Y-93284524D01*
X98056095Y-93284524D01*
X98152857Y-93332905D01*
X98201238Y-93381286D01*
X98249619Y-93478048D01*
X98249619Y-93865095D01*
X97233619Y-93865095D01*
X97233619Y-93526429D01*
X97282000Y-93429667D01*
X97330381Y-93381286D01*
X97427143Y-93332905D01*
X97523905Y-93332905D01*
X97620667Y-93381286D01*
X97669048Y-93429667D01*
X97717429Y-93526429D01*
X97717429Y-93865095D01*
X92637429Y-95364905D02*
X92685810Y-95219762D01*
X92734190Y-95171381D01*
X92830952Y-95123000D01*
X92976095Y-95123000D01*
X93072857Y-95171381D01*
X93121238Y-95219762D01*
X93169619Y-95316524D01*
X93169619Y-95703571D01*
X92153619Y-95703571D01*
X92153619Y-95364905D01*
X92202000Y-95268143D01*
X92250381Y-95219762D01*
X92347143Y-95171381D01*
X92443905Y-95171381D01*
X92540667Y-95219762D01*
X92589048Y-95268143D01*
X92637429Y-95364905D01*
X92637429Y-95703571D01*
X92879333Y-94735952D02*
X92879333Y-94252143D01*
X93169619Y-94832714D02*
X92153619Y-94494047D01*
X93169619Y-94155381D01*
X92153619Y-93961857D02*
X92153619Y-93381286D01*
X93169619Y-93671571D02*
X92153619Y-93671571D01*
X110949619Y-110181571D02*
X109933619Y-110181571D01*
X110659333Y-109842905D01*
X109933619Y-109504238D01*
X110949619Y-109504238D01*
X109933619Y-108826904D02*
X109933619Y-108633381D01*
X109982000Y-108536619D01*
X110078762Y-108439857D01*
X110272286Y-108391476D01*
X110610952Y-108391476D01*
X110804476Y-108439857D01*
X110901238Y-108536619D01*
X110949619Y-108633381D01*
X110949619Y-108826904D01*
X110901238Y-108923666D01*
X110804476Y-109020428D01*
X110610952Y-109068809D01*
X110272286Y-109068809D01*
X110078762Y-109020428D01*
X109982000Y-108923666D01*
X109933619Y-108826904D01*
X110901238Y-108004428D02*
X110949619Y-107859285D01*
X110949619Y-107617381D01*
X110901238Y-107520619D01*
X110852857Y-107472238D01*
X110756095Y-107423857D01*
X110659333Y-107423857D01*
X110562571Y-107472238D01*
X110514190Y-107520619D01*
X110465810Y-107617381D01*
X110417429Y-107810904D01*
X110369048Y-107907666D01*
X110320667Y-107956047D01*
X110223905Y-108004428D01*
X110127143Y-108004428D01*
X110030381Y-107956047D01*
X109982000Y-107907666D01*
X109933619Y-107810904D01*
X109933619Y-107569000D01*
X109982000Y-107423857D01*
X110949619Y-106988428D02*
X109933619Y-106988428D01*
X108361238Y-109891285D02*
X108409619Y-109746142D01*
X108409619Y-109504238D01*
X108361238Y-109407476D01*
X108312857Y-109359095D01*
X108216095Y-109310714D01*
X108119333Y-109310714D01*
X108022571Y-109359095D01*
X107974190Y-109407476D01*
X107925810Y-109504238D01*
X107877429Y-109697761D01*
X107829048Y-109794523D01*
X107780667Y-109842904D01*
X107683905Y-109891285D01*
X107587143Y-109891285D01*
X107490381Y-109842904D01*
X107442000Y-109794523D01*
X107393619Y-109697761D01*
X107393619Y-109455857D01*
X107442000Y-109310714D01*
X108312857Y-108294714D02*
X108361238Y-108343095D01*
X108409619Y-108488238D01*
X108409619Y-108585000D01*
X108361238Y-108730142D01*
X108264476Y-108826904D01*
X108167714Y-108875285D01*
X107974190Y-108923666D01*
X107829048Y-108923666D01*
X107635524Y-108875285D01*
X107538762Y-108826904D01*
X107442000Y-108730142D01*
X107393619Y-108585000D01*
X107393619Y-108488238D01*
X107442000Y-108343095D01*
X107490381Y-108294714D01*
X108409619Y-107859285D02*
X107393619Y-107859285D01*
X108409619Y-107278714D02*
X107829048Y-107714142D01*
X107393619Y-107278714D02*
X107974190Y-107859285D01*
X89662000Y-109359095D02*
X89613619Y-109455857D01*
X89613619Y-109601000D01*
X89662000Y-109746142D01*
X89758762Y-109842904D01*
X89855524Y-109891285D01*
X90049048Y-109939666D01*
X90194190Y-109939666D01*
X90387714Y-109891285D01*
X90484476Y-109842904D01*
X90581238Y-109746142D01*
X90629619Y-109601000D01*
X90629619Y-109504238D01*
X90581238Y-109359095D01*
X90532857Y-109310714D01*
X90194190Y-109310714D01*
X90194190Y-109504238D01*
X90629619Y-108875285D02*
X89613619Y-108875285D01*
X90629619Y-108294714D01*
X89613619Y-108294714D01*
X90629619Y-107810904D02*
X89613619Y-107810904D01*
X89613619Y-107568999D01*
X89662000Y-107423857D01*
X89758762Y-107327095D01*
X89855524Y-107278714D01*
X90049048Y-107230333D01*
X90194190Y-107230333D01*
X90387714Y-107278714D01*
X90484476Y-107327095D01*
X90581238Y-107423857D01*
X90629619Y-107568999D01*
X90629619Y-107810904D01*
M02*
