%TF.GenerationSoftware,KiCad,Pcbnew,4.0.5-e0-6337~49~ubuntu16.04.1*%
%TF.CreationDate,2017-01-01T02:05:38+05:30*%
%TF.ProjectId,feather_v2,666561746865725F76322E6B69636164,rev?*%
%TF.FileFunction,Copper,L2,Bot,Signal*%
%FSLAX46Y46*%
G04 Gerber Fmt 4.6, Leading zero omitted, Abs format (unit mm)*
G04 Created by KiCad (PCBNEW 4.0.5-e0-6337~49~ubuntu16.04.1) date Sun Jan  1 02:05:38 2017*
%MOMM*%
%LPD*%
G01*
G04 APERTURE LIST*
%ADD10C,0.101600*%
%ADD11R,1.727200X2.032000*%
%ADD12O,1.727200X2.032000*%
%ADD13C,1.397000*%
%ADD14R,1.778000X1.778000*%
%ADD15C,1.778000*%
%ADD16C,0.762000*%
G04 APERTURE END LIST*
D10*
D11*
X97790004Y-101600001D03*
D12*
X95250004Y-101600001D03*
X92710004Y-101600001D03*
D13*
X116840000Y-99803949D03*
X118636051Y-101600000D03*
X116840000Y-103396051D03*
X115043949Y-101600000D03*
X84563949Y-101600000D03*
X86360000Y-99803949D03*
X88156051Y-101600000D03*
X86360000Y-103396051D03*
D14*
X90170000Y-111760000D03*
X92710000Y-91440000D03*
X97790000Y-91440000D03*
X107950000Y-111760000D03*
X110490000Y-111760000D03*
D15*
X82550000Y-111760000D03*
X85090000Y-111760000D03*
X87630000Y-111760000D03*
X92710000Y-111760000D03*
X95250000Y-111760000D03*
X97790000Y-111760000D03*
X100330000Y-111760000D03*
X102870000Y-111760000D03*
X105410000Y-111760000D03*
X113030000Y-111760000D03*
X115570000Y-111760000D03*
X118110000Y-111760000D03*
X120650000Y-111760000D03*
X120650000Y-91440000D03*
X118110000Y-91440000D03*
X115570000Y-91440000D03*
X113030000Y-91440000D03*
X110490000Y-91440000D03*
X107950000Y-91440000D03*
X105410000Y-91440000D03*
X102870000Y-91440000D03*
X100330000Y-91440000D03*
X95250000Y-91440000D03*
D16*
X85725000Y-106045000D02*
X90170000Y-106045000D01*
X90170000Y-106045000D02*
X117475000Y-106045000D01*
X90170000Y-111760000D02*
X90170000Y-106045000D01*
X117475000Y-106045000D02*
X118636051Y-104883949D01*
X118636051Y-104883949D02*
X118636051Y-101600000D01*
X84563949Y-104883949D02*
X85725000Y-106045000D01*
X84563949Y-101600000D02*
X84563949Y-104883949D01*
M02*
