%TF.GenerationSoftware,KiCad,Pcbnew,4.0.6-e0-6349~53~ubuntu16.04.1*%
%TF.CreationDate,2017-04-03T21:19:36+05:30*%
%TF.ProjectId,feather_v2,666561746865725F76322E6B69636164,rev?*%
%TF.FileFunction,Legend,Top*%
%FSLAX46Y46*%
G04 Gerber Fmt 4.6, Leading zero omitted, Abs format (unit mm)*
G04 Created by KiCad (PCBNEW 4.0.6-e0-6349~53~ubuntu16.04.1) date Mon Apr  3 21:19:36 2017*
%MOMM*%
%LPD*%
G01*
G04 APERTURE LIST*
%ADD10C,0.101600*%
%ADD11C,0.010000*%
%ADD12C,0.150000*%
%ADD13C,0.152400*%
%ADD14C,1.797000*%
%ADD15C,3.448000*%
%ADD16R,2.178000X2.178000*%
%ADD17C,2.178000*%
%ADD18O,2.432000X2.127200*%
G04 APERTURE END LIST*
D10*
D11*
G36*
X103885141Y-101319868D02*
X103885704Y-101130670D01*
X103886553Y-100948197D01*
X103887693Y-100775198D01*
X103889121Y-100614420D01*
X103890837Y-100468612D01*
X103892843Y-100340522D01*
X103895137Y-100232899D01*
X103897719Y-100148489D01*
X103900591Y-100090042D01*
X103903751Y-100060306D01*
X103904101Y-100058955D01*
X103939801Y-99985350D01*
X103992954Y-99931728D01*
X104057582Y-99898744D01*
X104127706Y-99887052D01*
X104197346Y-99897308D01*
X104260525Y-99930167D01*
X104311264Y-99986283D01*
X104325553Y-100012782D01*
X104354312Y-100075181D01*
X105836141Y-100075591D01*
X107317969Y-100076000D01*
X108058641Y-99648806D01*
X108215615Y-99558263D01*
X108394444Y-99455103D01*
X108589483Y-99342584D01*
X108795090Y-99223962D01*
X109005620Y-99102493D01*
X109215429Y-98981432D01*
X109418874Y-98864037D01*
X109610312Y-98753563D01*
X109695770Y-98704244D01*
X109850722Y-98615033D01*
X109997946Y-98530691D01*
X110135082Y-98452542D01*
X110259771Y-98381911D01*
X110369652Y-98320123D01*
X110462365Y-98268503D01*
X110535552Y-98228376D01*
X110586852Y-98201066D01*
X110613905Y-98187898D01*
X110617254Y-98186875D01*
X110637854Y-98194741D01*
X110682330Y-98217046D01*
X110747359Y-98251855D01*
X110829615Y-98297233D01*
X110925774Y-98351244D01*
X111032511Y-98411953D01*
X111146503Y-98477423D01*
X111264423Y-98545721D01*
X111382948Y-98614909D01*
X111498754Y-98683052D01*
X111608515Y-98748216D01*
X111708906Y-98808463D01*
X111796605Y-98861859D01*
X111868285Y-98906468D01*
X111920622Y-98940355D01*
X111950292Y-98961584D01*
X111954468Y-98965401D01*
X111998125Y-99012876D01*
X111998125Y-104187125D01*
X111954468Y-104234600D01*
X111932746Y-104251394D01*
X111887288Y-104281461D01*
X111821420Y-104322866D01*
X111738466Y-104373675D01*
X111641753Y-104431950D01*
X111534605Y-104495758D01*
X111420346Y-104563162D01*
X111302303Y-104632228D01*
X111183800Y-104701019D01*
X111068163Y-104767600D01*
X110958717Y-104830037D01*
X110858786Y-104886392D01*
X110771695Y-104934733D01*
X110700771Y-104973121D01*
X110649338Y-104999623D01*
X110620720Y-105012303D01*
X110616933Y-105013126D01*
X110601738Y-105006861D01*
X110601738Y-104508183D01*
X111077681Y-104233492D01*
X111553625Y-103958802D01*
X111553625Y-99241346D01*
X111076873Y-98966306D01*
X110600121Y-98691265D01*
X110414091Y-98799373D01*
X110330084Y-98847892D01*
X110241405Y-98898609D01*
X110158982Y-98945301D01*
X110097315Y-98979772D01*
X109966567Y-99052063D01*
X109966125Y-101067875D01*
X110263781Y-100772252D01*
X110344852Y-100692275D01*
X110419905Y-100619259D01*
X110485609Y-100556362D01*
X110538634Y-100506743D01*
X110575650Y-100473560D01*
X110592697Y-100460268D01*
X110630230Y-100452957D01*
X110665316Y-100465296D01*
X110701070Y-100490308D01*
X110745828Y-100530694D01*
X110793770Y-100579952D01*
X110839074Y-100631580D01*
X110875919Y-100679074D01*
X110898484Y-100715933D01*
X110902750Y-100730520D01*
X110892200Y-100752868D01*
X110860232Y-100794213D01*
X110806363Y-100855092D01*
X110730114Y-100936040D01*
X110631002Y-101037592D01*
X110589741Y-101079190D01*
X110276732Y-101393625D01*
X110711522Y-101393625D01*
X110842308Y-101393814D01*
X110945011Y-101394520D01*
X111023296Y-101395949D01*
X111080830Y-101398309D01*
X111121276Y-101401809D01*
X111148301Y-101406655D01*
X111165570Y-101413056D01*
X111175343Y-101419898D01*
X111188829Y-101436734D01*
X111197459Y-101462193D01*
X111202237Y-101502819D01*
X111204165Y-101565156D01*
X111204375Y-101609246D01*
X111203988Y-101682993D01*
X111201820Y-101731948D01*
X111196360Y-101763068D01*
X111186094Y-101783310D01*
X111169512Y-101799630D01*
X111161627Y-101805947D01*
X111147620Y-101816079D01*
X111131895Y-101823883D01*
X111110501Y-101829608D01*
X111079484Y-101833503D01*
X111034892Y-101835815D01*
X110972771Y-101836793D01*
X110889170Y-101836686D01*
X110780136Y-101835741D01*
X110701238Y-101834880D01*
X110589830Y-101833664D01*
X110489621Y-101832637D01*
X110404754Y-101831836D01*
X110339372Y-101831300D01*
X110297619Y-101831063D01*
X110283611Y-101831154D01*
X110294389Y-101842126D01*
X110324776Y-101872577D01*
X110371863Y-101919606D01*
X110432739Y-101980307D01*
X110504496Y-102051779D01*
X110584225Y-102131118D01*
X110585894Y-102132779D01*
X110666741Y-102214205D01*
X110740133Y-102290054D01*
X110802994Y-102356990D01*
X110852247Y-102411678D01*
X110884816Y-102450782D01*
X110897556Y-102470663D01*
X110898152Y-102491093D01*
X110887567Y-102515531D01*
X110862398Y-102548775D01*
X110819244Y-102595625D01*
X110782190Y-102633382D01*
X110717657Y-102695633D01*
X110669575Y-102735484D01*
X110634681Y-102755419D01*
X110617521Y-102758875D01*
X110599558Y-102753549D01*
X110572344Y-102736229D01*
X110533608Y-102704910D01*
X110481079Y-102657584D01*
X110412484Y-102592243D01*
X110325551Y-102506880D01*
X110271867Y-102453434D01*
X109966125Y-102147993D01*
X109966125Y-102575443D01*
X109966235Y-102714762D01*
X109965593Y-102825588D01*
X109962739Y-102911172D01*
X109956213Y-102974762D01*
X109944556Y-103019608D01*
X109926308Y-103048960D01*
X109900009Y-103066068D01*
X109864200Y-103074180D01*
X109817420Y-103076546D01*
X109758211Y-103076417D01*
X109741107Y-103076375D01*
X109679737Y-103076751D01*
X109630980Y-103075702D01*
X109593390Y-103069967D01*
X109565522Y-103056283D01*
X109545933Y-103031389D01*
X109533178Y-102992023D01*
X109525811Y-102934922D01*
X109522388Y-102856824D01*
X109521465Y-102754468D01*
X109521596Y-102624591D01*
X109521625Y-102580804D01*
X109521625Y-102148733D01*
X109207189Y-102461742D01*
X109116371Y-102551102D01*
X109035517Y-102628596D01*
X108967128Y-102691949D01*
X108913706Y-102738886D01*
X108877753Y-102767132D01*
X108862990Y-102774750D01*
X108836392Y-102763254D01*
X108795976Y-102732729D01*
X108747523Y-102689124D01*
X108696817Y-102638387D01*
X108649641Y-102586466D01*
X108611778Y-102539310D01*
X108589010Y-102502866D01*
X108585000Y-102488823D01*
X108591738Y-102469893D01*
X108613065Y-102438933D01*
X108650648Y-102394064D01*
X108706153Y-102333410D01*
X108781247Y-102255092D01*
X108877597Y-102157233D01*
X108894083Y-102140655D01*
X109203166Y-101830188D01*
X108778775Y-101834866D01*
X108640249Y-101836547D01*
X108530203Y-101837206D01*
X108445374Y-101835349D01*
X108382496Y-101829485D01*
X108338302Y-101818121D01*
X108309528Y-101799764D01*
X108292909Y-101772922D01*
X108285179Y-101736103D01*
X108283073Y-101687814D01*
X108283325Y-101626564D01*
X108283375Y-101608454D01*
X108284496Y-101528223D01*
X108288371Y-101473863D01*
X108295763Y-101439555D01*
X108307438Y-101419481D01*
X108308321Y-101418572D01*
X108319469Y-101411079D01*
X108338540Y-101405220D01*
X108369092Y-101400802D01*
X108414686Y-101397635D01*
X108478878Y-101395527D01*
X108565230Y-101394286D01*
X108677298Y-101393721D01*
X108772142Y-101393625D01*
X109211017Y-101393625D01*
X108898008Y-101079190D01*
X108795240Y-100975023D01*
X108714457Y-100890982D01*
X108654357Y-100825607D01*
X108613639Y-100777442D01*
X108591001Y-100745027D01*
X108585000Y-100728565D01*
X108597050Y-100696360D01*
X108631515Y-100648071D01*
X108684218Y-100588969D01*
X108750807Y-100522723D01*
X108802289Y-100479631D01*
X108842492Y-100457356D01*
X108875242Y-100453563D01*
X108895052Y-100460268D01*
X108914412Y-100475552D01*
X108952842Y-100510177D01*
X109007013Y-100560984D01*
X109073594Y-100624814D01*
X109149256Y-100698509D01*
X109223968Y-100772252D01*
X109521625Y-101067875D01*
X109521625Y-99311411D01*
X109470031Y-99342706D01*
X109411823Y-99377529D01*
X109333049Y-99423922D01*
X109236349Y-99480377D01*
X109124365Y-99545386D01*
X108999736Y-99617441D01*
X108865105Y-99695034D01*
X108723113Y-99776656D01*
X108576400Y-99860799D01*
X108427608Y-99945956D01*
X108279378Y-100030618D01*
X108134351Y-100113277D01*
X107995167Y-100192424D01*
X107864468Y-100266552D01*
X107744896Y-100334153D01*
X107639090Y-100393718D01*
X107549693Y-100443740D01*
X107479345Y-100482709D01*
X107430688Y-100509118D01*
X107406361Y-100521460D01*
X107404659Y-100522104D01*
X107381630Y-100524214D01*
X107329011Y-100526221D01*
X107248962Y-100528105D01*
X107143643Y-100529846D01*
X107015212Y-100531425D01*
X106865830Y-100532821D01*
X106697656Y-100534015D01*
X106512850Y-100534987D01*
X106313573Y-100535718D01*
X106101983Y-100536186D01*
X105880240Y-100536373D01*
X105850636Y-100536375D01*
X104346375Y-100536375D01*
X104346375Y-102663011D01*
X107418187Y-102671563D01*
X108013500Y-103015271D01*
X108168868Y-103104982D01*
X108341244Y-103204527D01*
X108522961Y-103309479D01*
X108706356Y-103415410D01*
X108883764Y-103517894D01*
X109047521Y-103612504D01*
X109164437Y-103680060D01*
X109416399Y-103825644D01*
X109644050Y-103957143D01*
X109847010Y-104074336D01*
X110024897Y-104177005D01*
X110177331Y-104264929D01*
X110303931Y-104337890D01*
X110404316Y-104395668D01*
X110478107Y-104438043D01*
X110524921Y-104464795D01*
X110533962Y-104469919D01*
X110601738Y-104508183D01*
X110601738Y-105006861D01*
X110598214Y-105005407D01*
X110555010Y-104983339D01*
X110490273Y-104948556D01*
X110406953Y-104902689D01*
X110307999Y-104847372D01*
X110196362Y-104784237D01*
X110074993Y-104714917D01*
X109997074Y-104670081D01*
X109847890Y-104583993D01*
X109686959Y-104491116D01*
X109520876Y-104395258D01*
X109356236Y-104300224D01*
X109199633Y-104209821D01*
X109057663Y-104127855D01*
X108942187Y-104061177D01*
X108818821Y-103989938D01*
X108674738Y-103906741D01*
X108516716Y-103815500D01*
X108351537Y-103720130D01*
X108185979Y-103624545D01*
X108026823Y-103532659D01*
X107900372Y-103459659D01*
X107318931Y-103124000D01*
X105836622Y-103124410D01*
X104354312Y-103124820D01*
X104325553Y-103187219D01*
X104280866Y-103252017D01*
X104221549Y-103293317D01*
X104153581Y-103311775D01*
X104082941Y-103308045D01*
X104015606Y-103282782D01*
X103957557Y-103236642D01*
X103914771Y-103170279D01*
X103904101Y-103141046D01*
X103900910Y-103114499D01*
X103898009Y-103058952D01*
X103895396Y-102977153D01*
X103893071Y-102871849D01*
X103891035Y-102745789D01*
X103889288Y-102601721D01*
X103887830Y-102442394D01*
X103886660Y-102270554D01*
X103885780Y-102088951D01*
X103885187Y-101900333D01*
X103884883Y-101707448D01*
X103884868Y-101513043D01*
X103885141Y-101319868D01*
X103885141Y-101319868D01*
G37*
X103885141Y-101319868D02*
X103885704Y-101130670D01*
X103886553Y-100948197D01*
X103887693Y-100775198D01*
X103889121Y-100614420D01*
X103890837Y-100468612D01*
X103892843Y-100340522D01*
X103895137Y-100232899D01*
X103897719Y-100148489D01*
X103900591Y-100090042D01*
X103903751Y-100060306D01*
X103904101Y-100058955D01*
X103939801Y-99985350D01*
X103992954Y-99931728D01*
X104057582Y-99898744D01*
X104127706Y-99887052D01*
X104197346Y-99897308D01*
X104260525Y-99930167D01*
X104311264Y-99986283D01*
X104325553Y-100012782D01*
X104354312Y-100075181D01*
X105836141Y-100075591D01*
X107317969Y-100076000D01*
X108058641Y-99648806D01*
X108215615Y-99558263D01*
X108394444Y-99455103D01*
X108589483Y-99342584D01*
X108795090Y-99223962D01*
X109005620Y-99102493D01*
X109215429Y-98981432D01*
X109418874Y-98864037D01*
X109610312Y-98753563D01*
X109695770Y-98704244D01*
X109850722Y-98615033D01*
X109997946Y-98530691D01*
X110135082Y-98452542D01*
X110259771Y-98381911D01*
X110369652Y-98320123D01*
X110462365Y-98268503D01*
X110535552Y-98228376D01*
X110586852Y-98201066D01*
X110613905Y-98187898D01*
X110617254Y-98186875D01*
X110637854Y-98194741D01*
X110682330Y-98217046D01*
X110747359Y-98251855D01*
X110829615Y-98297233D01*
X110925774Y-98351244D01*
X111032511Y-98411953D01*
X111146503Y-98477423D01*
X111264423Y-98545721D01*
X111382948Y-98614909D01*
X111498754Y-98683052D01*
X111608515Y-98748216D01*
X111708906Y-98808463D01*
X111796605Y-98861859D01*
X111868285Y-98906468D01*
X111920622Y-98940355D01*
X111950292Y-98961584D01*
X111954468Y-98965401D01*
X111998125Y-99012876D01*
X111998125Y-104187125D01*
X111954468Y-104234600D01*
X111932746Y-104251394D01*
X111887288Y-104281461D01*
X111821420Y-104322866D01*
X111738466Y-104373675D01*
X111641753Y-104431950D01*
X111534605Y-104495758D01*
X111420346Y-104563162D01*
X111302303Y-104632228D01*
X111183800Y-104701019D01*
X111068163Y-104767600D01*
X110958717Y-104830037D01*
X110858786Y-104886392D01*
X110771695Y-104934733D01*
X110700771Y-104973121D01*
X110649338Y-104999623D01*
X110620720Y-105012303D01*
X110616933Y-105013126D01*
X110601738Y-105006861D01*
X110601738Y-104508183D01*
X111077681Y-104233492D01*
X111553625Y-103958802D01*
X111553625Y-99241346D01*
X111076873Y-98966306D01*
X110600121Y-98691265D01*
X110414091Y-98799373D01*
X110330084Y-98847892D01*
X110241405Y-98898609D01*
X110158982Y-98945301D01*
X110097315Y-98979772D01*
X109966567Y-99052063D01*
X109966125Y-101067875D01*
X110263781Y-100772252D01*
X110344852Y-100692275D01*
X110419905Y-100619259D01*
X110485609Y-100556362D01*
X110538634Y-100506743D01*
X110575650Y-100473560D01*
X110592697Y-100460268D01*
X110630230Y-100452957D01*
X110665316Y-100465296D01*
X110701070Y-100490308D01*
X110745828Y-100530694D01*
X110793770Y-100579952D01*
X110839074Y-100631580D01*
X110875919Y-100679074D01*
X110898484Y-100715933D01*
X110902750Y-100730520D01*
X110892200Y-100752868D01*
X110860232Y-100794213D01*
X110806363Y-100855092D01*
X110730114Y-100936040D01*
X110631002Y-101037592D01*
X110589741Y-101079190D01*
X110276732Y-101393625D01*
X110711522Y-101393625D01*
X110842308Y-101393814D01*
X110945011Y-101394520D01*
X111023296Y-101395949D01*
X111080830Y-101398309D01*
X111121276Y-101401809D01*
X111148301Y-101406655D01*
X111165570Y-101413056D01*
X111175343Y-101419898D01*
X111188829Y-101436734D01*
X111197459Y-101462193D01*
X111202237Y-101502819D01*
X111204165Y-101565156D01*
X111204375Y-101609246D01*
X111203988Y-101682993D01*
X111201820Y-101731948D01*
X111196360Y-101763068D01*
X111186094Y-101783310D01*
X111169512Y-101799630D01*
X111161627Y-101805947D01*
X111147620Y-101816079D01*
X111131895Y-101823883D01*
X111110501Y-101829608D01*
X111079484Y-101833503D01*
X111034892Y-101835815D01*
X110972771Y-101836793D01*
X110889170Y-101836686D01*
X110780136Y-101835741D01*
X110701238Y-101834880D01*
X110589830Y-101833664D01*
X110489621Y-101832637D01*
X110404754Y-101831836D01*
X110339372Y-101831300D01*
X110297619Y-101831063D01*
X110283611Y-101831154D01*
X110294389Y-101842126D01*
X110324776Y-101872577D01*
X110371863Y-101919606D01*
X110432739Y-101980307D01*
X110504496Y-102051779D01*
X110584225Y-102131118D01*
X110585894Y-102132779D01*
X110666741Y-102214205D01*
X110740133Y-102290054D01*
X110802994Y-102356990D01*
X110852247Y-102411678D01*
X110884816Y-102450782D01*
X110897556Y-102470663D01*
X110898152Y-102491093D01*
X110887567Y-102515531D01*
X110862398Y-102548775D01*
X110819244Y-102595625D01*
X110782190Y-102633382D01*
X110717657Y-102695633D01*
X110669575Y-102735484D01*
X110634681Y-102755419D01*
X110617521Y-102758875D01*
X110599558Y-102753549D01*
X110572344Y-102736229D01*
X110533608Y-102704910D01*
X110481079Y-102657584D01*
X110412484Y-102592243D01*
X110325551Y-102506880D01*
X110271867Y-102453434D01*
X109966125Y-102147993D01*
X109966125Y-102575443D01*
X109966235Y-102714762D01*
X109965593Y-102825588D01*
X109962739Y-102911172D01*
X109956213Y-102974762D01*
X109944556Y-103019608D01*
X109926308Y-103048960D01*
X109900009Y-103066068D01*
X109864200Y-103074180D01*
X109817420Y-103076546D01*
X109758211Y-103076417D01*
X109741107Y-103076375D01*
X109679737Y-103076751D01*
X109630980Y-103075702D01*
X109593390Y-103069967D01*
X109565522Y-103056283D01*
X109545933Y-103031389D01*
X109533178Y-102992023D01*
X109525811Y-102934922D01*
X109522388Y-102856824D01*
X109521465Y-102754468D01*
X109521596Y-102624591D01*
X109521625Y-102580804D01*
X109521625Y-102148733D01*
X109207189Y-102461742D01*
X109116371Y-102551102D01*
X109035517Y-102628596D01*
X108967128Y-102691949D01*
X108913706Y-102738886D01*
X108877753Y-102767132D01*
X108862990Y-102774750D01*
X108836392Y-102763254D01*
X108795976Y-102732729D01*
X108747523Y-102689124D01*
X108696817Y-102638387D01*
X108649641Y-102586466D01*
X108611778Y-102539310D01*
X108589010Y-102502866D01*
X108585000Y-102488823D01*
X108591738Y-102469893D01*
X108613065Y-102438933D01*
X108650648Y-102394064D01*
X108706153Y-102333410D01*
X108781247Y-102255092D01*
X108877597Y-102157233D01*
X108894083Y-102140655D01*
X109203166Y-101830188D01*
X108778775Y-101834866D01*
X108640249Y-101836547D01*
X108530203Y-101837206D01*
X108445374Y-101835349D01*
X108382496Y-101829485D01*
X108338302Y-101818121D01*
X108309528Y-101799764D01*
X108292909Y-101772922D01*
X108285179Y-101736103D01*
X108283073Y-101687814D01*
X108283325Y-101626564D01*
X108283375Y-101608454D01*
X108284496Y-101528223D01*
X108288371Y-101473863D01*
X108295763Y-101439555D01*
X108307438Y-101419481D01*
X108308321Y-101418572D01*
X108319469Y-101411079D01*
X108338540Y-101405220D01*
X108369092Y-101400802D01*
X108414686Y-101397635D01*
X108478878Y-101395527D01*
X108565230Y-101394286D01*
X108677298Y-101393721D01*
X108772142Y-101393625D01*
X109211017Y-101393625D01*
X108898008Y-101079190D01*
X108795240Y-100975023D01*
X108714457Y-100890982D01*
X108654357Y-100825607D01*
X108613639Y-100777442D01*
X108591001Y-100745027D01*
X108585000Y-100728565D01*
X108597050Y-100696360D01*
X108631515Y-100648071D01*
X108684218Y-100588969D01*
X108750807Y-100522723D01*
X108802289Y-100479631D01*
X108842492Y-100457356D01*
X108875242Y-100453563D01*
X108895052Y-100460268D01*
X108914412Y-100475552D01*
X108952842Y-100510177D01*
X109007013Y-100560984D01*
X109073594Y-100624814D01*
X109149256Y-100698509D01*
X109223968Y-100772252D01*
X109521625Y-101067875D01*
X109521625Y-99311411D01*
X109470031Y-99342706D01*
X109411823Y-99377529D01*
X109333049Y-99423922D01*
X109236349Y-99480377D01*
X109124365Y-99545386D01*
X108999736Y-99617441D01*
X108865105Y-99695034D01*
X108723113Y-99776656D01*
X108576400Y-99860799D01*
X108427608Y-99945956D01*
X108279378Y-100030618D01*
X108134351Y-100113277D01*
X107995167Y-100192424D01*
X107864468Y-100266552D01*
X107744896Y-100334153D01*
X107639090Y-100393718D01*
X107549693Y-100443740D01*
X107479345Y-100482709D01*
X107430688Y-100509118D01*
X107406361Y-100521460D01*
X107404659Y-100522104D01*
X107381630Y-100524214D01*
X107329011Y-100526221D01*
X107248962Y-100528105D01*
X107143643Y-100529846D01*
X107015212Y-100531425D01*
X106865830Y-100532821D01*
X106697656Y-100534015D01*
X106512850Y-100534987D01*
X106313573Y-100535718D01*
X106101983Y-100536186D01*
X105880240Y-100536373D01*
X105850636Y-100536375D01*
X104346375Y-100536375D01*
X104346375Y-102663011D01*
X107418187Y-102671563D01*
X108013500Y-103015271D01*
X108168868Y-103104982D01*
X108341244Y-103204527D01*
X108522961Y-103309479D01*
X108706356Y-103415410D01*
X108883764Y-103517894D01*
X109047521Y-103612504D01*
X109164437Y-103680060D01*
X109416399Y-103825644D01*
X109644050Y-103957143D01*
X109847010Y-104074336D01*
X110024897Y-104177005D01*
X110177331Y-104264929D01*
X110303931Y-104337890D01*
X110404316Y-104395668D01*
X110478107Y-104438043D01*
X110524921Y-104464795D01*
X110533962Y-104469919D01*
X110601738Y-104508183D01*
X110601738Y-105006861D01*
X110598214Y-105005407D01*
X110555010Y-104983339D01*
X110490273Y-104948556D01*
X110406953Y-104902689D01*
X110307999Y-104847372D01*
X110196362Y-104784237D01*
X110074993Y-104714917D01*
X109997074Y-104670081D01*
X109847890Y-104583993D01*
X109686959Y-104491116D01*
X109520876Y-104395258D01*
X109356236Y-104300224D01*
X109199633Y-104209821D01*
X109057663Y-104127855D01*
X108942187Y-104061177D01*
X108818821Y-103989938D01*
X108674738Y-103906741D01*
X108516716Y-103815500D01*
X108351537Y-103720130D01*
X108185979Y-103624545D01*
X108026823Y-103532659D01*
X107900372Y-103459659D01*
X107318931Y-103124000D01*
X105836622Y-103124410D01*
X104354312Y-103124820D01*
X104325553Y-103187219D01*
X104280866Y-103252017D01*
X104221549Y-103293317D01*
X104153581Y-103311775D01*
X104082941Y-103308045D01*
X104015606Y-103282782D01*
X103957557Y-103236642D01*
X103914771Y-103170279D01*
X103904101Y-103141046D01*
X103900910Y-103114499D01*
X103898009Y-103058952D01*
X103895396Y-102977153D01*
X103893071Y-102871849D01*
X103891035Y-102745789D01*
X103889288Y-102601721D01*
X103887830Y-102442394D01*
X103886660Y-102270554D01*
X103885780Y-102088951D01*
X103885187Y-101900333D01*
X103884883Y-101707448D01*
X103884868Y-101513043D01*
X103885141Y-101319868D01*
G36*
X98477522Y-102983612D02*
X98559745Y-102920770D01*
X98604924Y-102884250D01*
X98672903Y-102825435D01*
X98758337Y-102749135D01*
X98855882Y-102660167D01*
X98960193Y-102563341D01*
X99036806Y-102491160D01*
X99402882Y-102143986D01*
X99559808Y-102143768D01*
X99654064Y-102143079D01*
X99767162Y-102141438D01*
X99878890Y-102139156D01*
X99910617Y-102138354D01*
X100104500Y-102133156D01*
X100339102Y-102348794D01*
X100426231Y-102429130D01*
X100489706Y-102489187D01*
X100534653Y-102535114D01*
X100566200Y-102573066D01*
X100589471Y-102609194D01*
X100609595Y-102649648D01*
X100631115Y-102699214D01*
X100655776Y-102757491D01*
X100669366Y-102800458D01*
X100668557Y-102835187D01*
X100650021Y-102868745D01*
X100610430Y-102908201D01*
X100546456Y-102960627D01*
X100485337Y-103008864D01*
X100417625Y-103059744D01*
X100348035Y-103107970D01*
X100306617Y-103134091D01*
X100240965Y-103172615D01*
X100175975Y-103210801D01*
X100162440Y-103218763D01*
X100100976Y-103241815D01*
X100009775Y-103258509D01*
X99920268Y-103266154D01*
X99913357Y-103266716D01*
X100057025Y-103123048D01*
X100059404Y-103124341D01*
X100087860Y-103113747D01*
X100139670Y-103085525D01*
X100206572Y-103045017D01*
X100280308Y-102997569D01*
X100352616Y-102948522D01*
X100415237Y-102903218D01*
X100459910Y-102867002D01*
X100465826Y-102861455D01*
X100507458Y-102818379D01*
X100524720Y-102788048D01*
X100522205Y-102756982D01*
X100511310Y-102727992D01*
X100472182Y-102654015D01*
X100421538Y-102603377D01*
X100350944Y-102570733D01*
X100251966Y-102550736D01*
X100226819Y-102547648D01*
X100142052Y-102540089D01*
X100085369Y-102541360D01*
X100046537Y-102552623D01*
X100019624Y-102571181D01*
X99977563Y-102617445D01*
X99957523Y-102659534D01*
X99961924Y-102689246D01*
X99982062Y-102698415D01*
X100016233Y-102713473D01*
X100018249Y-102745491D01*
X99987751Y-102788721D01*
X99987673Y-102788799D01*
X99968474Y-102812958D01*
X99961709Y-102841387D01*
X99967809Y-102883839D01*
X99987200Y-102950070D01*
X99995926Y-102976799D01*
X100020396Y-103045707D01*
X100042038Y-103097421D01*
X100057025Y-103123048D01*
X99913357Y-103266716D01*
X99814486Y-103274765D01*
X99693602Y-103289741D01*
X99580471Y-103308159D01*
X99559664Y-103312227D01*
X99432602Y-103331982D01*
X99286667Y-103342835D01*
X99182740Y-103344121D01*
X99321415Y-103205446D01*
X99344893Y-103209470D01*
X99349780Y-103209733D01*
X99388880Y-103207526D01*
X99456201Y-103199635D01*
X99541521Y-103187378D01*
X99615047Y-103175459D01*
X99711770Y-103160390D01*
X99802946Y-103148668D01*
X99876527Y-103141711D01*
X99912105Y-103140455D01*
X99966461Y-103138177D01*
X100003211Y-103130369D01*
X100008658Y-103127024D01*
X100010275Y-103102371D01*
X100000317Y-103051673D01*
X99980911Y-102985481D01*
X99978883Y-102979444D01*
X99953760Y-102909612D01*
X99934555Y-102869876D01*
X99916521Y-102852737D01*
X99897262Y-102850445D01*
X99856702Y-102844218D01*
X99854396Y-102842799D01*
X99895059Y-102802137D01*
X99916726Y-102802868D01*
X99920155Y-102802117D01*
X99960338Y-102786522D01*
X99969077Y-102761096D01*
X99967956Y-102755162D01*
X99950908Y-102739317D01*
X99923618Y-102748973D01*
X99901211Y-102777588D01*
X99895059Y-102802137D01*
X99854396Y-102842799D01*
X99841757Y-102835020D01*
X99812923Y-102830095D01*
X99760242Y-102839415D01*
X99694552Y-102859236D01*
X99626696Y-102885816D01*
X99567515Y-102915407D01*
X99529123Y-102942979D01*
X99488247Y-102976706D01*
X99453533Y-102994805D01*
X99453342Y-102994848D01*
X99426023Y-103015419D01*
X99388635Y-103062510D01*
X99361631Y-103104447D01*
X99328895Y-103160835D01*
X99315786Y-103191868D01*
X99321415Y-103205446D01*
X99182740Y-103344121D01*
X99116268Y-103344943D01*
X98915813Y-103338459D01*
X98814054Y-103332763D01*
X98681609Y-103315998D01*
X98629291Y-103300192D01*
X98741567Y-103187917D01*
X98752648Y-103196444D01*
X98759589Y-103198625D01*
X98802168Y-103204958D01*
X98869775Y-103208826D01*
X98953156Y-103210387D01*
X99043062Y-103209797D01*
X99130239Y-103207216D01*
X99205437Y-103202800D01*
X99259403Y-103196709D01*
X99282399Y-103189707D01*
X99304929Y-103159199D01*
X99334546Y-103110216D01*
X99343309Y-103094257D01*
X99368359Y-103037170D01*
X99374091Y-103015539D01*
X99435685Y-102953946D01*
X99457893Y-102952509D01*
X99484039Y-102933222D01*
X99505274Y-102902530D01*
X99504763Y-102884867D01*
X99482554Y-102886305D01*
X99456408Y-102905591D01*
X99435173Y-102936285D01*
X99435685Y-102953946D01*
X99374091Y-103015539D01*
X99381779Y-102986535D01*
X99382499Y-102976611D01*
X99379185Y-102954619D01*
X99364136Y-102941493D01*
X99329502Y-102935060D01*
X99267433Y-102933150D01*
X99225580Y-102933202D01*
X99125390Y-102938300D01*
X99060345Y-102952713D01*
X99033935Y-102968853D01*
X98997080Y-102995812D01*
X98972253Y-103003683D01*
X98944923Y-103015492D01*
X98897852Y-103046622D01*
X98840680Y-103090631D01*
X98834184Y-103095984D01*
X98790836Y-103132675D01*
X98969401Y-102954110D01*
X98991068Y-102954841D01*
X98994498Y-102954090D01*
X99035099Y-102937012D01*
X99054031Y-102913841D01*
X99049658Y-102899499D01*
X99018925Y-102891210D01*
X98986784Y-102911601D01*
X98975555Y-102929562D01*
X98969401Y-102954110D01*
X98790836Y-103132675D01*
X98778210Y-103143362D01*
X98748712Y-103172115D01*
X98741567Y-103187917D01*
X98629291Y-103300192D01*
X98563016Y-103280172D01*
X98511157Y-103257762D01*
X98433105Y-103218155D01*
X98533053Y-103118207D01*
X98549743Y-103134280D01*
X98591633Y-103154593D01*
X98611342Y-103161909D01*
X98652689Y-103174718D01*
X98683880Y-103176197D01*
X98715875Y-103162554D01*
X98759631Y-103129999D01*
X98799813Y-103096697D01*
X98871929Y-103031169D01*
X98913838Y-102979603D01*
X98926300Y-102953112D01*
X98960355Y-102897316D01*
X98996401Y-102866301D01*
X99038642Y-102845504D01*
X99070038Y-102853049D01*
X99086902Y-102867664D01*
X99125951Y-102887088D01*
X99189481Y-102900054D01*
X99264513Y-102906049D01*
X99338070Y-102904562D01*
X99397175Y-102895080D01*
X99425711Y-102881025D01*
X99467212Y-102852622D01*
X99511008Y-102840554D01*
X99542682Y-102847889D01*
X99547977Y-102854997D01*
X99571404Y-102863811D01*
X99620063Y-102858473D01*
X99684155Y-102842155D01*
X99753883Y-102818030D01*
X99819451Y-102789268D01*
X99871061Y-102759041D01*
X99888031Y-102744911D01*
X99922266Y-102703219D01*
X99939983Y-102667105D01*
X99940417Y-102664273D01*
X99930178Y-102624748D01*
X99916251Y-102605567D01*
X99916132Y-102605246D01*
X99963200Y-102558178D01*
X99969136Y-102560561D01*
X100001443Y-102552070D01*
X100022666Y-102523534D01*
X100023408Y-102507277D01*
X100006600Y-102497082D01*
X99978295Y-102506193D01*
X99955985Y-102527715D01*
X99953213Y-102534947D01*
X99963200Y-102558178D01*
X99916132Y-102605246D01*
X99902323Y-102567850D01*
X99909423Y-102543476D01*
X99913537Y-102510179D01*
X99900600Y-102482181D01*
X99915155Y-102467627D01*
X99950722Y-102480035D01*
X99980447Y-102469434D01*
X100017701Y-102456782D01*
X100060029Y-102477836D01*
X100061106Y-102478687D01*
X100105699Y-102500703D01*
X100171795Y-102518716D01*
X100218822Y-102525876D01*
X100331377Y-102537141D01*
X100234321Y-102431878D01*
X100183386Y-102378701D01*
X100140254Y-102337352D01*
X100113649Y-102316161D01*
X100112442Y-102315562D01*
X100073142Y-102313894D01*
X100016443Y-102327757D01*
X99957732Y-102351421D01*
X99912398Y-102379155D01*
X99897976Y-102395443D01*
X99893594Y-102435859D01*
X99915155Y-102467627D01*
X99900600Y-102482181D01*
X99898134Y-102476845D01*
X99872775Y-102455901D01*
X99847015Y-102459780D01*
X99845891Y-102460846D01*
X99813375Y-102478067D01*
X99782281Y-102485997D01*
X99746924Y-102485862D01*
X99743731Y-102480110D01*
X99787986Y-102435855D01*
X99819079Y-102427975D01*
X99837157Y-102414316D01*
X99853218Y-102386369D01*
X99850157Y-102373684D01*
X99828012Y-102375234D01*
X99800987Y-102395223D01*
X99781866Y-102423115D01*
X99787986Y-102435855D01*
X99743731Y-102480110D01*
X99734276Y-102463073D01*
X99732978Y-102452407D01*
X99745785Y-102401211D01*
X99786586Y-102359001D01*
X99844301Y-102335217D01*
X99873014Y-102333049D01*
X99930114Y-102329171D01*
X99990599Y-102316533D01*
X100042139Y-102298837D01*
X100072408Y-102279787D01*
X100075815Y-102272128D01*
X100057394Y-102266542D01*
X100006521Y-102262886D01*
X99929783Y-102261339D01*
X99833766Y-102262079D01*
X99768536Y-102263731D01*
X99461257Y-102273465D01*
X99182488Y-102534237D01*
X99080090Y-102628890D01*
X98972026Y-102726835D01*
X98867315Y-102820027D01*
X98774972Y-102900425D01*
X98718386Y-102948209D01*
X98647344Y-103008225D01*
X98588893Y-103060060D01*
X98548868Y-103098364D01*
X98533100Y-103117786D01*
X98533053Y-103118207D01*
X98433105Y-103218155D01*
X98428791Y-103215967D01*
X98376323Y-103178202D01*
X98354358Y-103140274D01*
X98363501Y-103097994D01*
X98404353Y-103047170D01*
X98477522Y-102983612D01*
X98477522Y-102983612D01*
G37*
X98477522Y-102983612D02*
X98559745Y-102920770D01*
X98604924Y-102884250D01*
X98672903Y-102825435D01*
X98758337Y-102749135D01*
X98855882Y-102660167D01*
X98960193Y-102563341D01*
X99036806Y-102491160D01*
X99402882Y-102143986D01*
X99559808Y-102143768D01*
X99654064Y-102143079D01*
X99767162Y-102141438D01*
X99878890Y-102139156D01*
X99910617Y-102138354D01*
X100104500Y-102133156D01*
X100339102Y-102348794D01*
X100426231Y-102429130D01*
X100489706Y-102489187D01*
X100534653Y-102535114D01*
X100566200Y-102573066D01*
X100589471Y-102609194D01*
X100609595Y-102649648D01*
X100631115Y-102699214D01*
X100655776Y-102757491D01*
X100669366Y-102800458D01*
X100668557Y-102835187D01*
X100650021Y-102868745D01*
X100610430Y-102908201D01*
X100546456Y-102960627D01*
X100485337Y-103008864D01*
X100417625Y-103059744D01*
X100348035Y-103107970D01*
X100306617Y-103134091D01*
X100240965Y-103172615D01*
X100175975Y-103210801D01*
X100162440Y-103218763D01*
X100100976Y-103241815D01*
X100009775Y-103258509D01*
X99920268Y-103266154D01*
X99913357Y-103266716D01*
X100057025Y-103123048D01*
X100059404Y-103124341D01*
X100087860Y-103113747D01*
X100139670Y-103085525D01*
X100206572Y-103045017D01*
X100280308Y-102997569D01*
X100352616Y-102948522D01*
X100415237Y-102903218D01*
X100459910Y-102867002D01*
X100465826Y-102861455D01*
X100507458Y-102818379D01*
X100524720Y-102788048D01*
X100522205Y-102756982D01*
X100511310Y-102727992D01*
X100472182Y-102654015D01*
X100421538Y-102603377D01*
X100350944Y-102570733D01*
X100251966Y-102550736D01*
X100226819Y-102547648D01*
X100142052Y-102540089D01*
X100085369Y-102541360D01*
X100046537Y-102552623D01*
X100019624Y-102571181D01*
X99977563Y-102617445D01*
X99957523Y-102659534D01*
X99961924Y-102689246D01*
X99982062Y-102698415D01*
X100016233Y-102713473D01*
X100018249Y-102745491D01*
X99987751Y-102788721D01*
X99987673Y-102788799D01*
X99968474Y-102812958D01*
X99961709Y-102841387D01*
X99967809Y-102883839D01*
X99987200Y-102950070D01*
X99995926Y-102976799D01*
X100020396Y-103045707D01*
X100042038Y-103097421D01*
X100057025Y-103123048D01*
X99913357Y-103266716D01*
X99814486Y-103274765D01*
X99693602Y-103289741D01*
X99580471Y-103308159D01*
X99559664Y-103312227D01*
X99432602Y-103331982D01*
X99286667Y-103342835D01*
X99182740Y-103344121D01*
X99321415Y-103205446D01*
X99344893Y-103209470D01*
X99349780Y-103209733D01*
X99388880Y-103207526D01*
X99456201Y-103199635D01*
X99541521Y-103187378D01*
X99615047Y-103175459D01*
X99711770Y-103160390D01*
X99802946Y-103148668D01*
X99876527Y-103141711D01*
X99912105Y-103140455D01*
X99966461Y-103138177D01*
X100003211Y-103130369D01*
X100008658Y-103127024D01*
X100010275Y-103102371D01*
X100000317Y-103051673D01*
X99980911Y-102985481D01*
X99978883Y-102979444D01*
X99953760Y-102909612D01*
X99934555Y-102869876D01*
X99916521Y-102852737D01*
X99897262Y-102850445D01*
X99856702Y-102844218D01*
X99854396Y-102842799D01*
X99895059Y-102802137D01*
X99916726Y-102802868D01*
X99920155Y-102802117D01*
X99960338Y-102786522D01*
X99969077Y-102761096D01*
X99967956Y-102755162D01*
X99950908Y-102739317D01*
X99923618Y-102748973D01*
X99901211Y-102777588D01*
X99895059Y-102802137D01*
X99854396Y-102842799D01*
X99841757Y-102835020D01*
X99812923Y-102830095D01*
X99760242Y-102839415D01*
X99694552Y-102859236D01*
X99626696Y-102885816D01*
X99567515Y-102915407D01*
X99529123Y-102942979D01*
X99488247Y-102976706D01*
X99453533Y-102994805D01*
X99453342Y-102994848D01*
X99426023Y-103015419D01*
X99388635Y-103062510D01*
X99361631Y-103104447D01*
X99328895Y-103160835D01*
X99315786Y-103191868D01*
X99321415Y-103205446D01*
X99182740Y-103344121D01*
X99116268Y-103344943D01*
X98915813Y-103338459D01*
X98814054Y-103332763D01*
X98681609Y-103315998D01*
X98629291Y-103300192D01*
X98741567Y-103187917D01*
X98752648Y-103196444D01*
X98759589Y-103198625D01*
X98802168Y-103204958D01*
X98869775Y-103208826D01*
X98953156Y-103210387D01*
X99043062Y-103209797D01*
X99130239Y-103207216D01*
X99205437Y-103202800D01*
X99259403Y-103196709D01*
X99282399Y-103189707D01*
X99304929Y-103159199D01*
X99334546Y-103110216D01*
X99343309Y-103094257D01*
X99368359Y-103037170D01*
X99374091Y-103015539D01*
X99435685Y-102953946D01*
X99457893Y-102952509D01*
X99484039Y-102933222D01*
X99505274Y-102902530D01*
X99504763Y-102884867D01*
X99482554Y-102886305D01*
X99456408Y-102905591D01*
X99435173Y-102936285D01*
X99435685Y-102953946D01*
X99374091Y-103015539D01*
X99381779Y-102986535D01*
X99382499Y-102976611D01*
X99379185Y-102954619D01*
X99364136Y-102941493D01*
X99329502Y-102935060D01*
X99267433Y-102933150D01*
X99225580Y-102933202D01*
X99125390Y-102938300D01*
X99060345Y-102952713D01*
X99033935Y-102968853D01*
X98997080Y-102995812D01*
X98972253Y-103003683D01*
X98944923Y-103015492D01*
X98897852Y-103046622D01*
X98840680Y-103090631D01*
X98834184Y-103095984D01*
X98790836Y-103132675D01*
X98969401Y-102954110D01*
X98991068Y-102954841D01*
X98994498Y-102954090D01*
X99035099Y-102937012D01*
X99054031Y-102913841D01*
X99049658Y-102899499D01*
X99018925Y-102891210D01*
X98986784Y-102911601D01*
X98975555Y-102929562D01*
X98969401Y-102954110D01*
X98790836Y-103132675D01*
X98778210Y-103143362D01*
X98748712Y-103172115D01*
X98741567Y-103187917D01*
X98629291Y-103300192D01*
X98563016Y-103280172D01*
X98511157Y-103257762D01*
X98433105Y-103218155D01*
X98533053Y-103118207D01*
X98549743Y-103134280D01*
X98591633Y-103154593D01*
X98611342Y-103161909D01*
X98652689Y-103174718D01*
X98683880Y-103176197D01*
X98715875Y-103162554D01*
X98759631Y-103129999D01*
X98799813Y-103096697D01*
X98871929Y-103031169D01*
X98913838Y-102979603D01*
X98926300Y-102953112D01*
X98960355Y-102897316D01*
X98996401Y-102866301D01*
X99038642Y-102845504D01*
X99070038Y-102853049D01*
X99086902Y-102867664D01*
X99125951Y-102887088D01*
X99189481Y-102900054D01*
X99264513Y-102906049D01*
X99338070Y-102904562D01*
X99397175Y-102895080D01*
X99425711Y-102881025D01*
X99467212Y-102852622D01*
X99511008Y-102840554D01*
X99542682Y-102847889D01*
X99547977Y-102854997D01*
X99571404Y-102863811D01*
X99620063Y-102858473D01*
X99684155Y-102842155D01*
X99753883Y-102818030D01*
X99819451Y-102789268D01*
X99871061Y-102759041D01*
X99888031Y-102744911D01*
X99922266Y-102703219D01*
X99939983Y-102667105D01*
X99940417Y-102664273D01*
X99930178Y-102624748D01*
X99916251Y-102605567D01*
X99916132Y-102605246D01*
X99963200Y-102558178D01*
X99969136Y-102560561D01*
X100001443Y-102552070D01*
X100022666Y-102523534D01*
X100023408Y-102507277D01*
X100006600Y-102497082D01*
X99978295Y-102506193D01*
X99955985Y-102527715D01*
X99953213Y-102534947D01*
X99963200Y-102558178D01*
X99916132Y-102605246D01*
X99902323Y-102567850D01*
X99909423Y-102543476D01*
X99913537Y-102510179D01*
X99900600Y-102482181D01*
X99915155Y-102467627D01*
X99950722Y-102480035D01*
X99980447Y-102469434D01*
X100017701Y-102456782D01*
X100060029Y-102477836D01*
X100061106Y-102478687D01*
X100105699Y-102500703D01*
X100171795Y-102518716D01*
X100218822Y-102525876D01*
X100331377Y-102537141D01*
X100234321Y-102431878D01*
X100183386Y-102378701D01*
X100140254Y-102337352D01*
X100113649Y-102316161D01*
X100112442Y-102315562D01*
X100073142Y-102313894D01*
X100016443Y-102327757D01*
X99957732Y-102351421D01*
X99912398Y-102379155D01*
X99897976Y-102395443D01*
X99893594Y-102435859D01*
X99915155Y-102467627D01*
X99900600Y-102482181D01*
X99898134Y-102476845D01*
X99872775Y-102455901D01*
X99847015Y-102459780D01*
X99845891Y-102460846D01*
X99813375Y-102478067D01*
X99782281Y-102485997D01*
X99746924Y-102485862D01*
X99743731Y-102480110D01*
X99787986Y-102435855D01*
X99819079Y-102427975D01*
X99837157Y-102414316D01*
X99853218Y-102386369D01*
X99850157Y-102373684D01*
X99828012Y-102375234D01*
X99800987Y-102395223D01*
X99781866Y-102423115D01*
X99787986Y-102435855D01*
X99743731Y-102480110D01*
X99734276Y-102463073D01*
X99732978Y-102452407D01*
X99745785Y-102401211D01*
X99786586Y-102359001D01*
X99844301Y-102335217D01*
X99873014Y-102333049D01*
X99930114Y-102329171D01*
X99990599Y-102316533D01*
X100042139Y-102298837D01*
X100072408Y-102279787D01*
X100075815Y-102272128D01*
X100057394Y-102266542D01*
X100006521Y-102262886D01*
X99929783Y-102261339D01*
X99833766Y-102262079D01*
X99768536Y-102263731D01*
X99461257Y-102273465D01*
X99182488Y-102534237D01*
X99080090Y-102628890D01*
X98972026Y-102726835D01*
X98867315Y-102820027D01*
X98774972Y-102900425D01*
X98718386Y-102948209D01*
X98647344Y-103008225D01*
X98588893Y-103060060D01*
X98548868Y-103098364D01*
X98533100Y-103117786D01*
X98533053Y-103118207D01*
X98433105Y-103218155D01*
X98428791Y-103215967D01*
X98376323Y-103178202D01*
X98354358Y-103140274D01*
X98363501Y-103097994D01*
X98404353Y-103047170D01*
X98477522Y-102983612D01*
G36*
X98234159Y-98604351D02*
X98291466Y-98573468D01*
X98337303Y-98560972D01*
X98389133Y-98564629D01*
X98445261Y-98577335D01*
X98496641Y-98591550D01*
X98538937Y-98608263D01*
X98580401Y-98632818D01*
X98629286Y-98670558D01*
X98693845Y-98726827D01*
X98738770Y-98767378D01*
X98841078Y-98857233D01*
X98936717Y-98933684D01*
X99034148Y-99002264D01*
X99141830Y-99068508D01*
X99268223Y-99137949D01*
X99421784Y-99216122D01*
X99433844Y-99222102D01*
X99584385Y-99300663D01*
X99701526Y-99371590D01*
X99789381Y-99438189D01*
X99852069Y-99503761D01*
X99893701Y-99571610D01*
X99905622Y-99600802D01*
X99918278Y-99648543D01*
X99921918Y-99701679D01*
X99915618Y-99766964D01*
X99898448Y-99851154D01*
X99869487Y-99961004D01*
X99844335Y-100047894D01*
X99810131Y-100167680D01*
X99778952Y-100286751D01*
X99749363Y-100411781D01*
X99719931Y-100549442D01*
X99689223Y-100706405D01*
X99655807Y-100889344D01*
X99621982Y-101083168D01*
X99594761Y-101236621D01*
X99571086Y-101357467D01*
X99549413Y-101451837D01*
X99528196Y-101525870D01*
X99505887Y-101585698D01*
X99483459Y-101632731D01*
X99450613Y-101693207D01*
X99424987Y-101737183D01*
X99411658Y-101755989D01*
X99411183Y-101756152D01*
X99398070Y-101741010D01*
X99365716Y-101699140D01*
X99317815Y-101635452D01*
X99299511Y-101610766D01*
X99387917Y-101522360D01*
X99394503Y-101521431D01*
X99390785Y-101492926D01*
X99382896Y-101462159D01*
X99364726Y-101399594D01*
X99337923Y-101310645D01*
X99304137Y-101200724D01*
X99265015Y-101075246D01*
X99223321Y-100943128D01*
X99179914Y-100807961D01*
X99138999Y-100683515D01*
X99102408Y-100575134D01*
X99071974Y-100488163D01*
X99049529Y-100427944D01*
X99037084Y-100400084D01*
X99028039Y-100373114D01*
X99063531Y-100337622D01*
X99081338Y-100347268D01*
X99095781Y-100333004D01*
X99106760Y-100295524D01*
X99103232Y-100278828D01*
X99085425Y-100269182D01*
X99070983Y-100283446D01*
X99060003Y-100320927D01*
X99063531Y-100337622D01*
X99028039Y-100373114D01*
X99020767Y-100351431D01*
X99022688Y-100316610D01*
X99030702Y-100280050D01*
X99028032Y-100247782D01*
X99011035Y-100209221D01*
X98976066Y-100153779D01*
X98956909Y-100125497D01*
X98912394Y-100064329D01*
X98879889Y-100030895D01*
X98852790Y-100018570D01*
X98849977Y-100018230D01*
X98823020Y-100006855D01*
X98819724Y-99993813D01*
X98851218Y-99962319D01*
X98861891Y-99961233D01*
X98878344Y-99945937D01*
X98901031Y-99913489D01*
X98904141Y-99895296D01*
X98889908Y-99877338D01*
X98870326Y-99888383D01*
X98855462Y-99921522D01*
X98854006Y-99929713D01*
X98851218Y-99962319D01*
X98819724Y-99993813D01*
X98814207Y-99971972D01*
X98813974Y-99960024D01*
X98805842Y-99926734D01*
X99145625Y-99586951D01*
X99164676Y-99577361D01*
X99171492Y-99570773D01*
X99187064Y-99538701D01*
X99180092Y-99520725D01*
X99155133Y-99508888D01*
X99147244Y-99512127D01*
X99138691Y-99539583D01*
X99138645Y-99562173D01*
X99145625Y-99586951D01*
X98805842Y-99926734D01*
X98802735Y-99914015D01*
X98773945Y-99856041D01*
X98734998Y-99796741D01*
X98693286Y-99746752D01*
X98656203Y-99716710D01*
X98641941Y-99712494D01*
X98621275Y-99699651D01*
X98620958Y-99697145D01*
X98662073Y-99656030D01*
X98681124Y-99646440D01*
X98687940Y-99639851D01*
X98703512Y-99607780D01*
X98696539Y-99589804D01*
X98671581Y-99577967D01*
X98663692Y-99581205D01*
X98655139Y-99608662D01*
X98655092Y-99631251D01*
X98662073Y-99656030D01*
X98620958Y-99697145D01*
X98615959Y-99657530D01*
X98616775Y-99641655D01*
X98610691Y-99588449D01*
X98590131Y-99513493D01*
X98559853Y-99429055D01*
X98524613Y-99347400D01*
X98489166Y-99280798D01*
X98463453Y-99246191D01*
X98437558Y-99195176D01*
X98483269Y-99149465D01*
X98501075Y-99159111D01*
X98515518Y-99144847D01*
X98526497Y-99107367D01*
X98522969Y-99090671D01*
X98505162Y-99081025D01*
X98490720Y-99095288D01*
X98479740Y-99132769D01*
X98483269Y-99149465D01*
X98437558Y-99195176D01*
X98436954Y-99193985D01*
X98441748Y-99127938D01*
X98471207Y-99066045D01*
X98502191Y-99029876D01*
X98530284Y-99024774D01*
X98537483Y-99027424D01*
X98567020Y-99059418D01*
X98567308Y-99113477D01*
X98539418Y-99183634D01*
X98522757Y-99219420D01*
X98517708Y-99252275D01*
X98525766Y-99292743D01*
X98548428Y-99351360D01*
X98570278Y-99401013D01*
X98637420Y-99551069D01*
X98691860Y-99513828D01*
X98730143Y-99478085D01*
X98732752Y-99473485D01*
X98824499Y-99381738D01*
X98838348Y-99378270D01*
X98851645Y-99365620D01*
X98873701Y-99332915D01*
X98876510Y-99315033D01*
X98861377Y-99297172D01*
X98839904Y-99306075D01*
X98824017Y-99333961D01*
X98821869Y-99350680D01*
X98824499Y-99381738D01*
X98732752Y-99473485D01*
X98760851Y-99423944D01*
X98784119Y-99361190D01*
X98808232Y-99294824D01*
X98828541Y-99259038D01*
X98849754Y-99246272D01*
X98856019Y-99245791D01*
X98887661Y-99260406D01*
X98900062Y-99296839D01*
X98895007Y-99343967D01*
X98874280Y-99390670D01*
X98839668Y-99425827D01*
X98825997Y-99432805D01*
X98778159Y-99464326D01*
X98744415Y-99508517D01*
X98734861Y-99551609D01*
X98735768Y-99555867D01*
X98734640Y-99594873D01*
X98720168Y-99647660D01*
X98717333Y-99654867D01*
X98702747Y-99704752D01*
X98712683Y-99740716D01*
X98734530Y-99766330D01*
X98773120Y-99809891D01*
X98799626Y-99846915D01*
X98813652Y-99864249D01*
X98831991Y-99867021D01*
X98859767Y-99852050D01*
X98902102Y-99816161D01*
X98964124Y-99756175D01*
X98993869Y-99726451D01*
X99056248Y-99658506D01*
X99089469Y-99608336D01*
X99097047Y-99580945D01*
X99109685Y-99522254D01*
X99136276Y-99477052D01*
X99169554Y-99455038D01*
X99189862Y-99457066D01*
X99215135Y-99486176D01*
X99217861Y-99531638D01*
X99202307Y-99581382D01*
X99172745Y-99623340D01*
X99133443Y-99645440D01*
X99122860Y-99646449D01*
X99095371Y-99661841D01*
X99056163Y-99701437D01*
X99012649Y-99755368D01*
X98972241Y-99813764D01*
X98942352Y-99866755D01*
X98930484Y-99902616D01*
X98921061Y-99952004D01*
X98912698Y-99975110D01*
X98915544Y-100012465D01*
X98947320Y-100075479D01*
X98972512Y-100114301D01*
X99013319Y-100172329D01*
X99040957Y-100204314D01*
X99063393Y-100217080D01*
X99088594Y-100217453D01*
X99092351Y-100216966D01*
X99131939Y-100204166D01*
X99147833Y-100190115D01*
X99164313Y-100166881D01*
X99200066Y-100121997D01*
X99248751Y-100063325D01*
X99274648Y-100032813D01*
X99341041Y-99950439D01*
X99348020Y-99939665D01*
X99448560Y-99839125D01*
X99463132Y-99830675D01*
X99474583Y-99816059D01*
X99492050Y-99778262D01*
X99491016Y-99755525D01*
X99473242Y-99744212D01*
X99454420Y-99760532D01*
X99443102Y-99794238D01*
X99442818Y-99813285D01*
X99448560Y-99839125D01*
X99348020Y-99939665D01*
X99381048Y-99888672D01*
X99397839Y-99842553D01*
X99398267Y-99839445D01*
X99413363Y-99779446D01*
X99432583Y-99736753D01*
X99465688Y-99703784D01*
X99497353Y-99704733D01*
X99518417Y-99735214D01*
X99521341Y-99779250D01*
X99510645Y-99821740D01*
X99482904Y-99859498D01*
X99436594Y-99899440D01*
X99379952Y-99950394D01*
X99317820Y-100016564D01*
X99256489Y-100089891D01*
X99202246Y-100162313D01*
X99161380Y-100225766D01*
X99140180Y-100272193D01*
X99138603Y-100281426D01*
X99126854Y-100334257D01*
X99108953Y-100374892D01*
X99102117Y-100393635D01*
X99100706Y-100420887D01*
X99105744Y-100460963D01*
X99118256Y-100518184D01*
X99139267Y-100596865D01*
X99169800Y-100701325D01*
X99210882Y-100835882D01*
X99242444Y-100937420D01*
X99284812Y-101071785D01*
X99323874Y-101193088D01*
X99358031Y-101296565D01*
X99385681Y-101377457D01*
X99405229Y-101431001D01*
X99415072Y-101452437D01*
X99415469Y-101452632D01*
X99423587Y-101434664D01*
X99436095Y-101386037D01*
X99451136Y-101314666D01*
X99463593Y-101247384D01*
X99504188Y-101022031D01*
X99545962Y-100802169D01*
X99587692Y-100593631D01*
X99628157Y-100402249D01*
X99666136Y-100233853D01*
X99700404Y-100094276D01*
X99721123Y-100018254D01*
X99747713Y-99919145D01*
X99769184Y-99825582D01*
X99783317Y-99748201D01*
X99787906Y-99698196D01*
X99777165Y-99635680D01*
X99745528Y-99576562D01*
X99689599Y-99517855D01*
X99605982Y-99456575D01*
X99491282Y-99389737D01*
X99362687Y-99324315D01*
X99208316Y-99246785D01*
X99079549Y-99175656D01*
X98965352Y-99103741D01*
X98854688Y-99023854D01*
X98736523Y-98928809D01*
X98674217Y-98875965D01*
X98591924Y-98806199D01*
X98531740Y-98758174D01*
X98486771Y-98727443D01*
X98450120Y-98709562D01*
X98414891Y-98700085D01*
X98397075Y-98697297D01*
X98334154Y-98697774D01*
X98285493Y-98719460D01*
X98250878Y-98764421D01*
X98230091Y-98834728D01*
X98222918Y-98932447D01*
X98229140Y-99059645D01*
X98248543Y-99218392D01*
X98280908Y-99410753D01*
X98307869Y-99550186D01*
X98331846Y-99643979D01*
X98371697Y-99764480D01*
X98428253Y-99913959D01*
X98502344Y-100094687D01*
X98533322Y-100167495D01*
X98724102Y-100612241D01*
X99027854Y-101026910D01*
X99111154Y-101140760D01*
X99188327Y-101246479D01*
X99255890Y-101339282D01*
X99310364Y-101414380D01*
X99348269Y-101466987D01*
X99365175Y-101490904D01*
X99387917Y-101522360D01*
X99299511Y-101610766D01*
X99258060Y-101554857D01*
X99190142Y-101462267D01*
X99188739Y-101460344D01*
X99119950Y-101366831D01*
X99058427Y-101284600D01*
X99008067Y-101218751D01*
X98972773Y-101174383D01*
X98956443Y-101156597D01*
X98956437Y-101156593D01*
X98951995Y-101169323D01*
X98956424Y-101211725D01*
X98967895Y-101275887D01*
X98984579Y-101353896D01*
X99004648Y-101437841D01*
X99026271Y-101519811D01*
X99047621Y-101591892D01*
X99066870Y-101646174D01*
X99072596Y-101659140D01*
X99107648Y-101724574D01*
X99145847Y-101785432D01*
X99156322Y-101799921D01*
X99186757Y-101835633D01*
X99208073Y-101842344D01*
X99232834Y-101823565D01*
X99234622Y-101821786D01*
X99277005Y-101795867D01*
X99322924Y-101803866D01*
X99378125Y-101846826D01*
X99379362Y-101848048D01*
X99406666Y-101870123D01*
X99440093Y-101883179D01*
X99488839Y-101888664D01*
X99562099Y-101888023D01*
X99617576Y-101885511D01*
X99790728Y-101878343D01*
X99938767Y-101876854D01*
X100075317Y-101881605D01*
X100214005Y-101893155D01*
X100368458Y-101912063D01*
X100412125Y-101918147D01*
X100527011Y-101934911D01*
X100609929Y-101948746D01*
X100667675Y-101961658D01*
X100707044Y-101975651D01*
X100734831Y-101992733D01*
X100757832Y-102014909D01*
X100764130Y-102022061D01*
X100796260Y-102064127D01*
X100802692Y-102092759D01*
X100786342Y-102121141D01*
X100786085Y-102121454D01*
X100745615Y-102155541D01*
X100715017Y-102169490D01*
X100681679Y-102169323D01*
X100618712Y-102161689D01*
X100534576Y-102147854D01*
X100437728Y-102129086D01*
X100418489Y-102125046D01*
X100301158Y-102101694D01*
X100208290Y-102088054D01*
X100126722Y-102083291D01*
X100043290Y-102086574D01*
X99955643Y-102095729D01*
X99817081Y-102109048D01*
X99681176Y-102115477D01*
X99555969Y-102115138D01*
X99449506Y-102108157D01*
X99369827Y-102094659D01*
X99344193Y-102086217D01*
X99302418Y-102071031D01*
X99285132Y-102076133D01*
X99281737Y-102104402D01*
X99278912Y-102122538D01*
X99267981Y-102144184D01*
X99245260Y-102173350D01*
X99207065Y-102214052D01*
X99149709Y-102270301D01*
X99069510Y-102346109D01*
X99002092Y-102408980D01*
X98892617Y-102509769D01*
X98771100Y-102619994D01*
X98648687Y-102729646D01*
X98536525Y-102828715D01*
X98476464Y-102880913D01*
X98362610Y-102977223D01*
X98268324Y-103050231D01*
X98185038Y-103102975D01*
X98104183Y-103138497D01*
X98017191Y-103159839D01*
X97915494Y-103170041D01*
X97790523Y-103172142D01*
X97662159Y-103169894D01*
X97563520Y-103168033D01*
X97433140Y-103166376D01*
X97278355Y-103164974D01*
X97106497Y-103163878D01*
X96924905Y-103163134D01*
X96740910Y-103162795D01*
X96616442Y-103162822D01*
X96413352Y-103162552D01*
X96246411Y-103161150D01*
X96112702Y-103158492D01*
X96009308Y-103154455D01*
X95933315Y-103148914D01*
X95900841Y-103144394D01*
X96016038Y-103029197D01*
X96697310Y-103033745D01*
X96872224Y-103035055D01*
X97048199Y-103036634D01*
X97217986Y-103038399D01*
X97374336Y-103040266D01*
X97509999Y-103042151D01*
X97617726Y-103043970D01*
X97661497Y-103044890D01*
X97804364Y-103046791D01*
X97918248Y-103042888D01*
X98011793Y-103029988D01*
X98093646Y-103004897D01*
X98172447Y-102964419D01*
X98256843Y-102905359D01*
X98355476Y-102824525D01*
X98428161Y-102761554D01*
X98520089Y-102680178D01*
X98614084Y-102595282D01*
X98705968Y-102510828D01*
X98791561Y-102430783D01*
X98866684Y-102359108D01*
X98927159Y-102299769D01*
X98968804Y-102256728D01*
X98987442Y-102233952D01*
X98987123Y-102231372D01*
X98953525Y-102240148D01*
X98892343Y-102262826D01*
X98811054Y-102296049D01*
X98717135Y-102336460D01*
X98618060Y-102380702D01*
X98521307Y-102425420D01*
X98434350Y-102467254D01*
X98364667Y-102502849D01*
X98319732Y-102528847D01*
X98311759Y-102534625D01*
X98253533Y-102585464D01*
X98182592Y-102652372D01*
X98106483Y-102727653D01*
X98032756Y-102803607D01*
X97968957Y-102872537D01*
X97922637Y-102926743D01*
X97908201Y-102946199D01*
X97866921Y-102991596D01*
X97824566Y-103013626D01*
X97789869Y-103010443D01*
X97784849Y-103002151D01*
X97819238Y-102967762D01*
X97841447Y-102966325D01*
X97867593Y-102947039D01*
X97888828Y-102916345D01*
X97888317Y-102898683D01*
X97879706Y-102899240D01*
X98235305Y-102543641D01*
X98242164Y-102546745D01*
X98270476Y-102540816D01*
X98291091Y-102519875D01*
X98289790Y-102498841D01*
X98259606Y-102490500D01*
X98231769Y-102507779D01*
X98226717Y-102519114D01*
X98235305Y-102543641D01*
X97879706Y-102899240D01*
X97866108Y-102900121D01*
X97839962Y-102919408D01*
X97818727Y-102950100D01*
X97819238Y-102967762D01*
X97784849Y-103002151D01*
X97771565Y-102980202D01*
X97770934Y-102975214D01*
X97777553Y-102937618D01*
X97810866Y-102903092D01*
X97825518Y-102892684D01*
X97874015Y-102856330D01*
X97933291Y-102806821D01*
X97996951Y-102750193D01*
X98058599Y-102692490D01*
X98111841Y-102639752D01*
X98150280Y-102598019D01*
X98167520Y-102573331D01*
X98167347Y-102569819D01*
X98142943Y-102567331D01*
X98090615Y-102573121D01*
X98019761Y-102585146D01*
X97939781Y-102601361D01*
X97860072Y-102619720D01*
X97790032Y-102638181D01*
X97739060Y-102654696D01*
X97716554Y-102667223D01*
X97716272Y-102667958D01*
X97696839Y-102689157D01*
X97653855Y-102716926D01*
X97630637Y-102728972D01*
X97552199Y-102773454D01*
X97505823Y-102814753D01*
X97494531Y-102850173D01*
X97494567Y-102850328D01*
X97485013Y-102879833D01*
X97454013Y-102918085D01*
X97412903Y-102952562D01*
X97390601Y-102965154D01*
X97355082Y-102965776D01*
X97335582Y-102949827D01*
X97375021Y-102910387D01*
X97403058Y-102915745D01*
X97435919Y-102900382D01*
X97445751Y-102889242D01*
X97443234Y-102866378D01*
X97613476Y-102696136D01*
X97618751Y-102698317D01*
X97647276Y-102691863D01*
X97674060Y-102669681D01*
X97685363Y-102645118D01*
X97681896Y-102636998D01*
X97653208Y-102628465D01*
X97645470Y-102629528D01*
X97619489Y-102647300D01*
X97606653Y-102675092D01*
X97613476Y-102696136D01*
X97443234Y-102866378D01*
X97443083Y-102864999D01*
X97440542Y-102862215D01*
X97417773Y-102860728D01*
X97389982Y-102876587D01*
X97372807Y-102898295D01*
X97375021Y-102910387D01*
X97335582Y-102949827D01*
X97328589Y-102944108D01*
X97323068Y-102913014D01*
X97330083Y-102899988D01*
X97377400Y-102852642D01*
X97424522Y-102819908D01*
X97453367Y-102810510D01*
X97486371Y-102797152D01*
X97522137Y-102766665D01*
X97546878Y-102732660D01*
X97550426Y-102714697D01*
X97530365Y-102707534D01*
X97482141Y-102707801D01*
X97415634Y-102714010D01*
X97340727Y-102724671D01*
X97267300Y-102738296D01*
X97205236Y-102753394D01*
X97164415Y-102768478D01*
X97156330Y-102774092D01*
X97113895Y-102801873D01*
X97084746Y-102812363D01*
X97051625Y-102827703D01*
X97039745Y-102862099D01*
X97038772Y-102875435D01*
X97021963Y-102922067D01*
X96984177Y-102964549D01*
X96937581Y-102993111D01*
X96894336Y-102997984D01*
X96888684Y-102995977D01*
X96884140Y-102991019D01*
X96921213Y-102953946D01*
X96943421Y-102952509D01*
X96969568Y-102933222D01*
X96990802Y-102902530D01*
X96990291Y-102884867D01*
X96968082Y-102886305D01*
X96941936Y-102905591D01*
X96920702Y-102936285D01*
X96921213Y-102953946D01*
X96884140Y-102991019D01*
X96868905Y-102974398D01*
X97084890Y-102758413D01*
X97112927Y-102763772D01*
X97145788Y-102748409D01*
X97155620Y-102737269D01*
X97152951Y-102713026D01*
X97150411Y-102710241D01*
X97127642Y-102708755D01*
X97099851Y-102724614D01*
X97082675Y-102746321D01*
X97084890Y-102758413D01*
X96868905Y-102974398D01*
X96865416Y-102970591D01*
X96874207Y-102933702D01*
X96911639Y-102890183D01*
X96974291Y-102844909D01*
X97007732Y-102826321D01*
X97035577Y-102803924D01*
X97033523Y-102789942D01*
X97006682Y-102786949D01*
X96954868Y-102797504D01*
X96888199Y-102817961D01*
X96816796Y-102844677D01*
X96750774Y-102874006D01*
X96700254Y-102902301D01*
X96682421Y-102916421D01*
X96636216Y-102951203D01*
X96590837Y-102969549D01*
X96555479Y-102969415D01*
X96552286Y-102963662D01*
X96589633Y-102926315D01*
X96611842Y-102924877D01*
X96637989Y-102905591D01*
X96659223Y-102874898D01*
X96658713Y-102857236D01*
X96636503Y-102858673D01*
X96610357Y-102877959D01*
X96589123Y-102908653D01*
X96589633Y-102926315D01*
X96552286Y-102963662D01*
X96542831Y-102946625D01*
X96541533Y-102935958D01*
X96552383Y-102891306D01*
X96585727Y-102850378D01*
X96630487Y-102820773D01*
X96675584Y-102810093D01*
X96706877Y-102822506D01*
X96734649Y-102827154D01*
X96787932Y-102820209D01*
X96855975Y-102804639D01*
X96928024Y-102783408D01*
X96993326Y-102759478D01*
X97041130Y-102735818D01*
X97052957Y-102727081D01*
X97107922Y-102678762D01*
X97142937Y-102652717D01*
X97166242Y-102644159D01*
X97186080Y-102648304D01*
X97187553Y-102648947D01*
X97210590Y-102674599D01*
X97211470Y-102690916D01*
X97224555Y-102703696D01*
X97266342Y-102707222D01*
X97327955Y-102702949D01*
X97400513Y-102692334D01*
X97475140Y-102676837D01*
X97542956Y-102657914D01*
X97595086Y-102637022D01*
X97614404Y-102624770D01*
X97667331Y-102594758D01*
X97710211Y-102597660D01*
X97754025Y-102602397D01*
X97824418Y-102597019D01*
X97910889Y-102583746D01*
X98002939Y-102564797D01*
X98090067Y-102542392D01*
X98161772Y-102518749D01*
X98207554Y-102496088D01*
X98213216Y-102491346D01*
X98266338Y-102451291D01*
X98312675Y-102445893D01*
X98329714Y-102452424D01*
X98356980Y-102450652D01*
X98411309Y-102435985D01*
X98483913Y-102411061D01*
X98540094Y-102389253D01*
X98673576Y-102334710D01*
X98773338Y-102293068D01*
X98842095Y-102263106D01*
X98882564Y-102243603D01*
X98897460Y-102233339D01*
X98892305Y-102230961D01*
X98856268Y-102235150D01*
X98786905Y-102246576D01*
X98689089Y-102264243D01*
X98637650Y-102273953D01*
X98811708Y-102099896D01*
X98841613Y-102104652D01*
X98908394Y-102096500D01*
X98974774Y-102083588D01*
X99059643Y-102067662D01*
X99133726Y-102057553D01*
X99186351Y-102054537D01*
X99202295Y-102056369D01*
X99241201Y-102064487D01*
X99245545Y-102057343D01*
X99214950Y-102038611D01*
X99204618Y-102033803D01*
X99161811Y-102004546D01*
X99153842Y-101982720D01*
X99138433Y-101957585D01*
X99094918Y-101954131D01*
X99027364Y-101971858D01*
X98943372Y-102008493D01*
X98862575Y-102051786D01*
X98818691Y-102082264D01*
X98811708Y-102099896D01*
X98637650Y-102273953D01*
X98567696Y-102287159D01*
X98427599Y-102314328D01*
X98273673Y-102344757D01*
X98110789Y-102377451D01*
X97943824Y-102411415D01*
X97777652Y-102445655D01*
X97617147Y-102479177D01*
X97467181Y-102510987D01*
X97332630Y-102540089D01*
X97218367Y-102565491D01*
X97129268Y-102586197D01*
X97070204Y-102601213D01*
X97054744Y-102605842D01*
X96949817Y-102642055D01*
X96828485Y-102686020D01*
X96697699Y-102735008D01*
X96564410Y-102786288D01*
X96435569Y-102837128D01*
X96318126Y-102884800D01*
X96219033Y-102926571D01*
X96145240Y-102959713D01*
X96113983Y-102975417D01*
X96016038Y-103029197D01*
X95900841Y-103144394D01*
X95881805Y-103141745D01*
X95851864Y-103132825D01*
X95847102Y-103130102D01*
X95810504Y-103094815D01*
X95808824Y-103057646D01*
X95842113Y-103011280D01*
X95847974Y-103005240D01*
X95899663Y-102960708D01*
X95969679Y-102914294D01*
X96061398Y-102864371D01*
X96178196Y-102809316D01*
X96323452Y-102747502D01*
X96500541Y-102677305D01*
X96638391Y-102624883D01*
X96778304Y-102572523D01*
X96895067Y-102529631D01*
X96995504Y-102494351D01*
X97086434Y-102464829D01*
X97174684Y-102439208D01*
X97267074Y-102415633D01*
X97370426Y-102392247D01*
X97491566Y-102367197D01*
X97637313Y-102338625D01*
X97814490Y-102304676D01*
X97818536Y-102303904D01*
X97981628Y-102272843D01*
X98138936Y-102243017D01*
X98284688Y-102215510D01*
X98413120Y-102191405D01*
X98518462Y-102171786D01*
X98594947Y-102157737D01*
X98626475Y-102152102D01*
X98691458Y-102138653D01*
X98733762Y-102125652D01*
X98746349Y-102115420D01*
X98743724Y-102113425D01*
X98726273Y-102104702D01*
X98723512Y-102095244D01*
X98740487Y-102079244D01*
X98782247Y-102050889D01*
X98818547Y-102027315D01*
X98900878Y-101979805D01*
X98986428Y-101940164D01*
X99065238Y-101912156D01*
X99127352Y-101899548D01*
X99152603Y-101900977D01*
X99182280Y-101906182D01*
X99187644Y-101903303D01*
X99173079Y-101884359D01*
X99142616Y-101846294D01*
X99126447Y-101826343D01*
X99061460Y-101733722D01*
X99010424Y-101629683D01*
X98969536Y-101504858D01*
X98936870Y-101359778D01*
X98918302Y-101270734D01*
X98899800Y-101195235D01*
X98883675Y-101142004D01*
X98873462Y-101120672D01*
X98835057Y-101099276D01*
X98775610Y-101081555D01*
X98713153Y-101071588D01*
X98665718Y-101073459D01*
X98665326Y-101073566D01*
X98635566Y-101073315D01*
X98629012Y-101052629D01*
X98645383Y-101032767D01*
X98687679Y-101025284D01*
X98745233Y-101028834D01*
X98807383Y-101042070D01*
X98863463Y-101063650D01*
X98897278Y-101086473D01*
X98904751Y-101089008D01*
X98891664Y-101064142D01*
X98860585Y-101015969D01*
X98814085Y-100948586D01*
X98786160Y-100909394D01*
X98711572Y-100805235D01*
X98655833Y-100725571D01*
X98614765Y-100663324D01*
X98584190Y-100611419D01*
X98559929Y-100562781D01*
X98537802Y-100510332D01*
X98514545Y-100449443D01*
X98488874Y-100384406D01*
X98451332Y-100293941D01*
X98406218Y-100188190D01*
X98357828Y-100077301D01*
X98337389Y-100031249D01*
X98293067Y-99930459D01*
X98258681Y-99846784D01*
X98231654Y-99771186D01*
X98209409Y-99694628D01*
X98189370Y-99608069D01*
X98168960Y-99502471D01*
X98145602Y-99368796D01*
X98141246Y-99343182D01*
X98118223Y-99204582D01*
X98102019Y-99097513D01*
X98092190Y-99015112D01*
X98088294Y-98950517D01*
X98089888Y-98896861D01*
X98096527Y-98847281D01*
X98106245Y-98801343D01*
X98139301Y-98660585D01*
X98234159Y-98604351D01*
X98234159Y-98604351D01*
G37*
X98234159Y-98604351D02*
X98291466Y-98573468D01*
X98337303Y-98560972D01*
X98389133Y-98564629D01*
X98445261Y-98577335D01*
X98496641Y-98591550D01*
X98538937Y-98608263D01*
X98580401Y-98632818D01*
X98629286Y-98670558D01*
X98693845Y-98726827D01*
X98738770Y-98767378D01*
X98841078Y-98857233D01*
X98936717Y-98933684D01*
X99034148Y-99002264D01*
X99141830Y-99068508D01*
X99268223Y-99137949D01*
X99421784Y-99216122D01*
X99433844Y-99222102D01*
X99584385Y-99300663D01*
X99701526Y-99371590D01*
X99789381Y-99438189D01*
X99852069Y-99503761D01*
X99893701Y-99571610D01*
X99905622Y-99600802D01*
X99918278Y-99648543D01*
X99921918Y-99701679D01*
X99915618Y-99766964D01*
X99898448Y-99851154D01*
X99869487Y-99961004D01*
X99844335Y-100047894D01*
X99810131Y-100167680D01*
X99778952Y-100286751D01*
X99749363Y-100411781D01*
X99719931Y-100549442D01*
X99689223Y-100706405D01*
X99655807Y-100889344D01*
X99621982Y-101083168D01*
X99594761Y-101236621D01*
X99571086Y-101357467D01*
X99549413Y-101451837D01*
X99528196Y-101525870D01*
X99505887Y-101585698D01*
X99483459Y-101632731D01*
X99450613Y-101693207D01*
X99424987Y-101737183D01*
X99411658Y-101755989D01*
X99411183Y-101756152D01*
X99398070Y-101741010D01*
X99365716Y-101699140D01*
X99317815Y-101635452D01*
X99299511Y-101610766D01*
X99387917Y-101522360D01*
X99394503Y-101521431D01*
X99390785Y-101492926D01*
X99382896Y-101462159D01*
X99364726Y-101399594D01*
X99337923Y-101310645D01*
X99304137Y-101200724D01*
X99265015Y-101075246D01*
X99223321Y-100943128D01*
X99179914Y-100807961D01*
X99138999Y-100683515D01*
X99102408Y-100575134D01*
X99071974Y-100488163D01*
X99049529Y-100427944D01*
X99037084Y-100400084D01*
X99028039Y-100373114D01*
X99063531Y-100337622D01*
X99081338Y-100347268D01*
X99095781Y-100333004D01*
X99106760Y-100295524D01*
X99103232Y-100278828D01*
X99085425Y-100269182D01*
X99070983Y-100283446D01*
X99060003Y-100320927D01*
X99063531Y-100337622D01*
X99028039Y-100373114D01*
X99020767Y-100351431D01*
X99022688Y-100316610D01*
X99030702Y-100280050D01*
X99028032Y-100247782D01*
X99011035Y-100209221D01*
X98976066Y-100153779D01*
X98956909Y-100125497D01*
X98912394Y-100064329D01*
X98879889Y-100030895D01*
X98852790Y-100018570D01*
X98849977Y-100018230D01*
X98823020Y-100006855D01*
X98819724Y-99993813D01*
X98851218Y-99962319D01*
X98861891Y-99961233D01*
X98878344Y-99945937D01*
X98901031Y-99913489D01*
X98904141Y-99895296D01*
X98889908Y-99877338D01*
X98870326Y-99888383D01*
X98855462Y-99921522D01*
X98854006Y-99929713D01*
X98851218Y-99962319D01*
X98819724Y-99993813D01*
X98814207Y-99971972D01*
X98813974Y-99960024D01*
X98805842Y-99926734D01*
X99145625Y-99586951D01*
X99164676Y-99577361D01*
X99171492Y-99570773D01*
X99187064Y-99538701D01*
X99180092Y-99520725D01*
X99155133Y-99508888D01*
X99147244Y-99512127D01*
X99138691Y-99539583D01*
X99138645Y-99562173D01*
X99145625Y-99586951D01*
X98805842Y-99926734D01*
X98802735Y-99914015D01*
X98773945Y-99856041D01*
X98734998Y-99796741D01*
X98693286Y-99746752D01*
X98656203Y-99716710D01*
X98641941Y-99712494D01*
X98621275Y-99699651D01*
X98620958Y-99697145D01*
X98662073Y-99656030D01*
X98681124Y-99646440D01*
X98687940Y-99639851D01*
X98703512Y-99607780D01*
X98696539Y-99589804D01*
X98671581Y-99577967D01*
X98663692Y-99581205D01*
X98655139Y-99608662D01*
X98655092Y-99631251D01*
X98662073Y-99656030D01*
X98620958Y-99697145D01*
X98615959Y-99657530D01*
X98616775Y-99641655D01*
X98610691Y-99588449D01*
X98590131Y-99513493D01*
X98559853Y-99429055D01*
X98524613Y-99347400D01*
X98489166Y-99280798D01*
X98463453Y-99246191D01*
X98437558Y-99195176D01*
X98483269Y-99149465D01*
X98501075Y-99159111D01*
X98515518Y-99144847D01*
X98526497Y-99107367D01*
X98522969Y-99090671D01*
X98505162Y-99081025D01*
X98490720Y-99095288D01*
X98479740Y-99132769D01*
X98483269Y-99149465D01*
X98437558Y-99195176D01*
X98436954Y-99193985D01*
X98441748Y-99127938D01*
X98471207Y-99066045D01*
X98502191Y-99029876D01*
X98530284Y-99024774D01*
X98537483Y-99027424D01*
X98567020Y-99059418D01*
X98567308Y-99113477D01*
X98539418Y-99183634D01*
X98522757Y-99219420D01*
X98517708Y-99252275D01*
X98525766Y-99292743D01*
X98548428Y-99351360D01*
X98570278Y-99401013D01*
X98637420Y-99551069D01*
X98691860Y-99513828D01*
X98730143Y-99478085D01*
X98732752Y-99473485D01*
X98824499Y-99381738D01*
X98838348Y-99378270D01*
X98851645Y-99365620D01*
X98873701Y-99332915D01*
X98876510Y-99315033D01*
X98861377Y-99297172D01*
X98839904Y-99306075D01*
X98824017Y-99333961D01*
X98821869Y-99350680D01*
X98824499Y-99381738D01*
X98732752Y-99473485D01*
X98760851Y-99423944D01*
X98784119Y-99361190D01*
X98808232Y-99294824D01*
X98828541Y-99259038D01*
X98849754Y-99246272D01*
X98856019Y-99245791D01*
X98887661Y-99260406D01*
X98900062Y-99296839D01*
X98895007Y-99343967D01*
X98874280Y-99390670D01*
X98839668Y-99425827D01*
X98825997Y-99432805D01*
X98778159Y-99464326D01*
X98744415Y-99508517D01*
X98734861Y-99551609D01*
X98735768Y-99555867D01*
X98734640Y-99594873D01*
X98720168Y-99647660D01*
X98717333Y-99654867D01*
X98702747Y-99704752D01*
X98712683Y-99740716D01*
X98734530Y-99766330D01*
X98773120Y-99809891D01*
X98799626Y-99846915D01*
X98813652Y-99864249D01*
X98831991Y-99867021D01*
X98859767Y-99852050D01*
X98902102Y-99816161D01*
X98964124Y-99756175D01*
X98993869Y-99726451D01*
X99056248Y-99658506D01*
X99089469Y-99608336D01*
X99097047Y-99580945D01*
X99109685Y-99522254D01*
X99136276Y-99477052D01*
X99169554Y-99455038D01*
X99189862Y-99457066D01*
X99215135Y-99486176D01*
X99217861Y-99531638D01*
X99202307Y-99581382D01*
X99172745Y-99623340D01*
X99133443Y-99645440D01*
X99122860Y-99646449D01*
X99095371Y-99661841D01*
X99056163Y-99701437D01*
X99012649Y-99755368D01*
X98972241Y-99813764D01*
X98942352Y-99866755D01*
X98930484Y-99902616D01*
X98921061Y-99952004D01*
X98912698Y-99975110D01*
X98915544Y-100012465D01*
X98947320Y-100075479D01*
X98972512Y-100114301D01*
X99013319Y-100172329D01*
X99040957Y-100204314D01*
X99063393Y-100217080D01*
X99088594Y-100217453D01*
X99092351Y-100216966D01*
X99131939Y-100204166D01*
X99147833Y-100190115D01*
X99164313Y-100166881D01*
X99200066Y-100121997D01*
X99248751Y-100063325D01*
X99274648Y-100032813D01*
X99341041Y-99950439D01*
X99348020Y-99939665D01*
X99448560Y-99839125D01*
X99463132Y-99830675D01*
X99474583Y-99816059D01*
X99492050Y-99778262D01*
X99491016Y-99755525D01*
X99473242Y-99744212D01*
X99454420Y-99760532D01*
X99443102Y-99794238D01*
X99442818Y-99813285D01*
X99448560Y-99839125D01*
X99348020Y-99939665D01*
X99381048Y-99888672D01*
X99397839Y-99842553D01*
X99398267Y-99839445D01*
X99413363Y-99779446D01*
X99432583Y-99736753D01*
X99465688Y-99703784D01*
X99497353Y-99704733D01*
X99518417Y-99735214D01*
X99521341Y-99779250D01*
X99510645Y-99821740D01*
X99482904Y-99859498D01*
X99436594Y-99899440D01*
X99379952Y-99950394D01*
X99317820Y-100016564D01*
X99256489Y-100089891D01*
X99202246Y-100162313D01*
X99161380Y-100225766D01*
X99140180Y-100272193D01*
X99138603Y-100281426D01*
X99126854Y-100334257D01*
X99108953Y-100374892D01*
X99102117Y-100393635D01*
X99100706Y-100420887D01*
X99105744Y-100460963D01*
X99118256Y-100518184D01*
X99139267Y-100596865D01*
X99169800Y-100701325D01*
X99210882Y-100835882D01*
X99242444Y-100937420D01*
X99284812Y-101071785D01*
X99323874Y-101193088D01*
X99358031Y-101296565D01*
X99385681Y-101377457D01*
X99405229Y-101431001D01*
X99415072Y-101452437D01*
X99415469Y-101452632D01*
X99423587Y-101434664D01*
X99436095Y-101386037D01*
X99451136Y-101314666D01*
X99463593Y-101247384D01*
X99504188Y-101022031D01*
X99545962Y-100802169D01*
X99587692Y-100593631D01*
X99628157Y-100402249D01*
X99666136Y-100233853D01*
X99700404Y-100094276D01*
X99721123Y-100018254D01*
X99747713Y-99919145D01*
X99769184Y-99825582D01*
X99783317Y-99748201D01*
X99787906Y-99698196D01*
X99777165Y-99635680D01*
X99745528Y-99576562D01*
X99689599Y-99517855D01*
X99605982Y-99456575D01*
X99491282Y-99389737D01*
X99362687Y-99324315D01*
X99208316Y-99246785D01*
X99079549Y-99175656D01*
X98965352Y-99103741D01*
X98854688Y-99023854D01*
X98736523Y-98928809D01*
X98674217Y-98875965D01*
X98591924Y-98806199D01*
X98531740Y-98758174D01*
X98486771Y-98727443D01*
X98450120Y-98709562D01*
X98414891Y-98700085D01*
X98397075Y-98697297D01*
X98334154Y-98697774D01*
X98285493Y-98719460D01*
X98250878Y-98764421D01*
X98230091Y-98834728D01*
X98222918Y-98932447D01*
X98229140Y-99059645D01*
X98248543Y-99218392D01*
X98280908Y-99410753D01*
X98307869Y-99550186D01*
X98331846Y-99643979D01*
X98371697Y-99764480D01*
X98428253Y-99913959D01*
X98502344Y-100094687D01*
X98533322Y-100167495D01*
X98724102Y-100612241D01*
X99027854Y-101026910D01*
X99111154Y-101140760D01*
X99188327Y-101246479D01*
X99255890Y-101339282D01*
X99310364Y-101414380D01*
X99348269Y-101466987D01*
X99365175Y-101490904D01*
X99387917Y-101522360D01*
X99299511Y-101610766D01*
X99258060Y-101554857D01*
X99190142Y-101462267D01*
X99188739Y-101460344D01*
X99119950Y-101366831D01*
X99058427Y-101284600D01*
X99008067Y-101218751D01*
X98972773Y-101174383D01*
X98956443Y-101156597D01*
X98956437Y-101156593D01*
X98951995Y-101169323D01*
X98956424Y-101211725D01*
X98967895Y-101275887D01*
X98984579Y-101353896D01*
X99004648Y-101437841D01*
X99026271Y-101519811D01*
X99047621Y-101591892D01*
X99066870Y-101646174D01*
X99072596Y-101659140D01*
X99107648Y-101724574D01*
X99145847Y-101785432D01*
X99156322Y-101799921D01*
X99186757Y-101835633D01*
X99208073Y-101842344D01*
X99232834Y-101823565D01*
X99234622Y-101821786D01*
X99277005Y-101795867D01*
X99322924Y-101803866D01*
X99378125Y-101846826D01*
X99379362Y-101848048D01*
X99406666Y-101870123D01*
X99440093Y-101883179D01*
X99488839Y-101888664D01*
X99562099Y-101888023D01*
X99617576Y-101885511D01*
X99790728Y-101878343D01*
X99938767Y-101876854D01*
X100075317Y-101881605D01*
X100214005Y-101893155D01*
X100368458Y-101912063D01*
X100412125Y-101918147D01*
X100527011Y-101934911D01*
X100609929Y-101948746D01*
X100667675Y-101961658D01*
X100707044Y-101975651D01*
X100734831Y-101992733D01*
X100757832Y-102014909D01*
X100764130Y-102022061D01*
X100796260Y-102064127D01*
X100802692Y-102092759D01*
X100786342Y-102121141D01*
X100786085Y-102121454D01*
X100745615Y-102155541D01*
X100715017Y-102169490D01*
X100681679Y-102169323D01*
X100618712Y-102161689D01*
X100534576Y-102147854D01*
X100437728Y-102129086D01*
X100418489Y-102125046D01*
X100301158Y-102101694D01*
X100208290Y-102088054D01*
X100126722Y-102083291D01*
X100043290Y-102086574D01*
X99955643Y-102095729D01*
X99817081Y-102109048D01*
X99681176Y-102115477D01*
X99555969Y-102115138D01*
X99449506Y-102108157D01*
X99369827Y-102094659D01*
X99344193Y-102086217D01*
X99302418Y-102071031D01*
X99285132Y-102076133D01*
X99281737Y-102104402D01*
X99278912Y-102122538D01*
X99267981Y-102144184D01*
X99245260Y-102173350D01*
X99207065Y-102214052D01*
X99149709Y-102270301D01*
X99069510Y-102346109D01*
X99002092Y-102408980D01*
X98892617Y-102509769D01*
X98771100Y-102619994D01*
X98648687Y-102729646D01*
X98536525Y-102828715D01*
X98476464Y-102880913D01*
X98362610Y-102977223D01*
X98268324Y-103050231D01*
X98185038Y-103102975D01*
X98104183Y-103138497D01*
X98017191Y-103159839D01*
X97915494Y-103170041D01*
X97790523Y-103172142D01*
X97662159Y-103169894D01*
X97563520Y-103168033D01*
X97433140Y-103166376D01*
X97278355Y-103164974D01*
X97106497Y-103163878D01*
X96924905Y-103163134D01*
X96740910Y-103162795D01*
X96616442Y-103162822D01*
X96413352Y-103162552D01*
X96246411Y-103161150D01*
X96112702Y-103158492D01*
X96009308Y-103154455D01*
X95933315Y-103148914D01*
X95900841Y-103144394D01*
X96016038Y-103029197D01*
X96697310Y-103033745D01*
X96872224Y-103035055D01*
X97048199Y-103036634D01*
X97217986Y-103038399D01*
X97374336Y-103040266D01*
X97509999Y-103042151D01*
X97617726Y-103043970D01*
X97661497Y-103044890D01*
X97804364Y-103046791D01*
X97918248Y-103042888D01*
X98011793Y-103029988D01*
X98093646Y-103004897D01*
X98172447Y-102964419D01*
X98256843Y-102905359D01*
X98355476Y-102824525D01*
X98428161Y-102761554D01*
X98520089Y-102680178D01*
X98614084Y-102595282D01*
X98705968Y-102510828D01*
X98791561Y-102430783D01*
X98866684Y-102359108D01*
X98927159Y-102299769D01*
X98968804Y-102256728D01*
X98987442Y-102233952D01*
X98987123Y-102231372D01*
X98953525Y-102240148D01*
X98892343Y-102262826D01*
X98811054Y-102296049D01*
X98717135Y-102336460D01*
X98618060Y-102380702D01*
X98521307Y-102425420D01*
X98434350Y-102467254D01*
X98364667Y-102502849D01*
X98319732Y-102528847D01*
X98311759Y-102534625D01*
X98253533Y-102585464D01*
X98182592Y-102652372D01*
X98106483Y-102727653D01*
X98032756Y-102803607D01*
X97968957Y-102872537D01*
X97922637Y-102926743D01*
X97908201Y-102946199D01*
X97866921Y-102991596D01*
X97824566Y-103013626D01*
X97789869Y-103010443D01*
X97784849Y-103002151D01*
X97819238Y-102967762D01*
X97841447Y-102966325D01*
X97867593Y-102947039D01*
X97888828Y-102916345D01*
X97888317Y-102898683D01*
X97879706Y-102899240D01*
X98235305Y-102543641D01*
X98242164Y-102546745D01*
X98270476Y-102540816D01*
X98291091Y-102519875D01*
X98289790Y-102498841D01*
X98259606Y-102490500D01*
X98231769Y-102507779D01*
X98226717Y-102519114D01*
X98235305Y-102543641D01*
X97879706Y-102899240D01*
X97866108Y-102900121D01*
X97839962Y-102919408D01*
X97818727Y-102950100D01*
X97819238Y-102967762D01*
X97784849Y-103002151D01*
X97771565Y-102980202D01*
X97770934Y-102975214D01*
X97777553Y-102937618D01*
X97810866Y-102903092D01*
X97825518Y-102892684D01*
X97874015Y-102856330D01*
X97933291Y-102806821D01*
X97996951Y-102750193D01*
X98058599Y-102692490D01*
X98111841Y-102639752D01*
X98150280Y-102598019D01*
X98167520Y-102573331D01*
X98167347Y-102569819D01*
X98142943Y-102567331D01*
X98090615Y-102573121D01*
X98019761Y-102585146D01*
X97939781Y-102601361D01*
X97860072Y-102619720D01*
X97790032Y-102638181D01*
X97739060Y-102654696D01*
X97716554Y-102667223D01*
X97716272Y-102667958D01*
X97696839Y-102689157D01*
X97653855Y-102716926D01*
X97630637Y-102728972D01*
X97552199Y-102773454D01*
X97505823Y-102814753D01*
X97494531Y-102850173D01*
X97494567Y-102850328D01*
X97485013Y-102879833D01*
X97454013Y-102918085D01*
X97412903Y-102952562D01*
X97390601Y-102965154D01*
X97355082Y-102965776D01*
X97335582Y-102949827D01*
X97375021Y-102910387D01*
X97403058Y-102915745D01*
X97435919Y-102900382D01*
X97445751Y-102889242D01*
X97443234Y-102866378D01*
X97613476Y-102696136D01*
X97618751Y-102698317D01*
X97647276Y-102691863D01*
X97674060Y-102669681D01*
X97685363Y-102645118D01*
X97681896Y-102636998D01*
X97653208Y-102628465D01*
X97645470Y-102629528D01*
X97619489Y-102647300D01*
X97606653Y-102675092D01*
X97613476Y-102696136D01*
X97443234Y-102866378D01*
X97443083Y-102864999D01*
X97440542Y-102862215D01*
X97417773Y-102860728D01*
X97389982Y-102876587D01*
X97372807Y-102898295D01*
X97375021Y-102910387D01*
X97335582Y-102949827D01*
X97328589Y-102944108D01*
X97323068Y-102913014D01*
X97330083Y-102899988D01*
X97377400Y-102852642D01*
X97424522Y-102819908D01*
X97453367Y-102810510D01*
X97486371Y-102797152D01*
X97522137Y-102766665D01*
X97546878Y-102732660D01*
X97550426Y-102714697D01*
X97530365Y-102707534D01*
X97482141Y-102707801D01*
X97415634Y-102714010D01*
X97340727Y-102724671D01*
X97267300Y-102738296D01*
X97205236Y-102753394D01*
X97164415Y-102768478D01*
X97156330Y-102774092D01*
X97113895Y-102801873D01*
X97084746Y-102812363D01*
X97051625Y-102827703D01*
X97039745Y-102862099D01*
X97038772Y-102875435D01*
X97021963Y-102922067D01*
X96984177Y-102964549D01*
X96937581Y-102993111D01*
X96894336Y-102997984D01*
X96888684Y-102995977D01*
X96884140Y-102991019D01*
X96921213Y-102953946D01*
X96943421Y-102952509D01*
X96969568Y-102933222D01*
X96990802Y-102902530D01*
X96990291Y-102884867D01*
X96968082Y-102886305D01*
X96941936Y-102905591D01*
X96920702Y-102936285D01*
X96921213Y-102953946D01*
X96884140Y-102991019D01*
X96868905Y-102974398D01*
X97084890Y-102758413D01*
X97112927Y-102763772D01*
X97145788Y-102748409D01*
X97155620Y-102737269D01*
X97152951Y-102713026D01*
X97150411Y-102710241D01*
X97127642Y-102708755D01*
X97099851Y-102724614D01*
X97082675Y-102746321D01*
X97084890Y-102758413D01*
X96868905Y-102974398D01*
X96865416Y-102970591D01*
X96874207Y-102933702D01*
X96911639Y-102890183D01*
X96974291Y-102844909D01*
X97007732Y-102826321D01*
X97035577Y-102803924D01*
X97033523Y-102789942D01*
X97006682Y-102786949D01*
X96954868Y-102797504D01*
X96888199Y-102817961D01*
X96816796Y-102844677D01*
X96750774Y-102874006D01*
X96700254Y-102902301D01*
X96682421Y-102916421D01*
X96636216Y-102951203D01*
X96590837Y-102969549D01*
X96555479Y-102969415D01*
X96552286Y-102963662D01*
X96589633Y-102926315D01*
X96611842Y-102924877D01*
X96637989Y-102905591D01*
X96659223Y-102874898D01*
X96658713Y-102857236D01*
X96636503Y-102858673D01*
X96610357Y-102877959D01*
X96589123Y-102908653D01*
X96589633Y-102926315D01*
X96552286Y-102963662D01*
X96542831Y-102946625D01*
X96541533Y-102935958D01*
X96552383Y-102891306D01*
X96585727Y-102850378D01*
X96630487Y-102820773D01*
X96675584Y-102810093D01*
X96706877Y-102822506D01*
X96734649Y-102827154D01*
X96787932Y-102820209D01*
X96855975Y-102804639D01*
X96928024Y-102783408D01*
X96993326Y-102759478D01*
X97041130Y-102735818D01*
X97052957Y-102727081D01*
X97107922Y-102678762D01*
X97142937Y-102652717D01*
X97166242Y-102644159D01*
X97186080Y-102648304D01*
X97187553Y-102648947D01*
X97210590Y-102674599D01*
X97211470Y-102690916D01*
X97224555Y-102703696D01*
X97266342Y-102707222D01*
X97327955Y-102702949D01*
X97400513Y-102692334D01*
X97475140Y-102676837D01*
X97542956Y-102657914D01*
X97595086Y-102637022D01*
X97614404Y-102624770D01*
X97667331Y-102594758D01*
X97710211Y-102597660D01*
X97754025Y-102602397D01*
X97824418Y-102597019D01*
X97910889Y-102583746D01*
X98002939Y-102564797D01*
X98090067Y-102542392D01*
X98161772Y-102518749D01*
X98207554Y-102496088D01*
X98213216Y-102491346D01*
X98266338Y-102451291D01*
X98312675Y-102445893D01*
X98329714Y-102452424D01*
X98356980Y-102450652D01*
X98411309Y-102435985D01*
X98483913Y-102411061D01*
X98540094Y-102389253D01*
X98673576Y-102334710D01*
X98773338Y-102293068D01*
X98842095Y-102263106D01*
X98882564Y-102243603D01*
X98897460Y-102233339D01*
X98892305Y-102230961D01*
X98856268Y-102235150D01*
X98786905Y-102246576D01*
X98689089Y-102264243D01*
X98637650Y-102273953D01*
X98811708Y-102099896D01*
X98841613Y-102104652D01*
X98908394Y-102096500D01*
X98974774Y-102083588D01*
X99059643Y-102067662D01*
X99133726Y-102057553D01*
X99186351Y-102054537D01*
X99202295Y-102056369D01*
X99241201Y-102064487D01*
X99245545Y-102057343D01*
X99214950Y-102038611D01*
X99204618Y-102033803D01*
X99161811Y-102004546D01*
X99153842Y-101982720D01*
X99138433Y-101957585D01*
X99094918Y-101954131D01*
X99027364Y-101971858D01*
X98943372Y-102008493D01*
X98862575Y-102051786D01*
X98818691Y-102082264D01*
X98811708Y-102099896D01*
X98637650Y-102273953D01*
X98567696Y-102287159D01*
X98427599Y-102314328D01*
X98273673Y-102344757D01*
X98110789Y-102377451D01*
X97943824Y-102411415D01*
X97777652Y-102445655D01*
X97617147Y-102479177D01*
X97467181Y-102510987D01*
X97332630Y-102540089D01*
X97218367Y-102565491D01*
X97129268Y-102586197D01*
X97070204Y-102601213D01*
X97054744Y-102605842D01*
X96949817Y-102642055D01*
X96828485Y-102686020D01*
X96697699Y-102735008D01*
X96564410Y-102786288D01*
X96435569Y-102837128D01*
X96318126Y-102884800D01*
X96219033Y-102926571D01*
X96145240Y-102959713D01*
X96113983Y-102975417D01*
X96016038Y-103029197D01*
X95900841Y-103144394D01*
X95881805Y-103141745D01*
X95851864Y-103132825D01*
X95847102Y-103130102D01*
X95810504Y-103094815D01*
X95808824Y-103057646D01*
X95842113Y-103011280D01*
X95847974Y-103005240D01*
X95899663Y-102960708D01*
X95969679Y-102914294D01*
X96061398Y-102864371D01*
X96178196Y-102809316D01*
X96323452Y-102747502D01*
X96500541Y-102677305D01*
X96638391Y-102624883D01*
X96778304Y-102572523D01*
X96895067Y-102529631D01*
X96995504Y-102494351D01*
X97086434Y-102464829D01*
X97174684Y-102439208D01*
X97267074Y-102415633D01*
X97370426Y-102392247D01*
X97491566Y-102367197D01*
X97637313Y-102338625D01*
X97814490Y-102304676D01*
X97818536Y-102303904D01*
X97981628Y-102272843D01*
X98138936Y-102243017D01*
X98284688Y-102215510D01*
X98413120Y-102191405D01*
X98518462Y-102171786D01*
X98594947Y-102157737D01*
X98626475Y-102152102D01*
X98691458Y-102138653D01*
X98733762Y-102125652D01*
X98746349Y-102115420D01*
X98743724Y-102113425D01*
X98726273Y-102104702D01*
X98723512Y-102095244D01*
X98740487Y-102079244D01*
X98782247Y-102050889D01*
X98818547Y-102027315D01*
X98900878Y-101979805D01*
X98986428Y-101940164D01*
X99065238Y-101912156D01*
X99127352Y-101899548D01*
X99152603Y-101900977D01*
X99182280Y-101906182D01*
X99187644Y-101903303D01*
X99173079Y-101884359D01*
X99142616Y-101846294D01*
X99126447Y-101826343D01*
X99061460Y-101733722D01*
X99010424Y-101629683D01*
X98969536Y-101504858D01*
X98936870Y-101359778D01*
X98918302Y-101270734D01*
X98899800Y-101195235D01*
X98883675Y-101142004D01*
X98873462Y-101120672D01*
X98835057Y-101099276D01*
X98775610Y-101081555D01*
X98713153Y-101071588D01*
X98665718Y-101073459D01*
X98665326Y-101073566D01*
X98635566Y-101073315D01*
X98629012Y-101052629D01*
X98645383Y-101032767D01*
X98687679Y-101025284D01*
X98745233Y-101028834D01*
X98807383Y-101042070D01*
X98863463Y-101063650D01*
X98897278Y-101086473D01*
X98904751Y-101089008D01*
X98891664Y-101064142D01*
X98860585Y-101015969D01*
X98814085Y-100948586D01*
X98786160Y-100909394D01*
X98711572Y-100805235D01*
X98655833Y-100725571D01*
X98614765Y-100663324D01*
X98584190Y-100611419D01*
X98559929Y-100562781D01*
X98537802Y-100510332D01*
X98514545Y-100449443D01*
X98488874Y-100384406D01*
X98451332Y-100293941D01*
X98406218Y-100188190D01*
X98357828Y-100077301D01*
X98337389Y-100031249D01*
X98293067Y-99930459D01*
X98258681Y-99846784D01*
X98231654Y-99771186D01*
X98209409Y-99694628D01*
X98189370Y-99608069D01*
X98168960Y-99502471D01*
X98145602Y-99368796D01*
X98141246Y-99343182D01*
X98118223Y-99204582D01*
X98102019Y-99097513D01*
X98092190Y-99015112D01*
X98088294Y-98950517D01*
X98089888Y-98896861D01*
X98096527Y-98847281D01*
X98106245Y-98801343D01*
X98139301Y-98660585D01*
X98234159Y-98604351D01*
G36*
X100102110Y-99618596D02*
X100102831Y-99618365D01*
X100184522Y-99603738D01*
X100289589Y-99600995D01*
X100404455Y-99609321D01*
X100515538Y-99627904D01*
X100585999Y-99647327D01*
X100640578Y-99666746D01*
X100684615Y-99686174D01*
X100725610Y-99710915D01*
X100771070Y-99746275D01*
X100828495Y-99797558D01*
X100905390Y-99870068D01*
X100917840Y-99881932D01*
X101001470Y-99962916D01*
X101065974Y-100029637D01*
X101119909Y-100092487D01*
X101171828Y-100161859D01*
X101230289Y-100248144D01*
X101271533Y-100311532D01*
X101339446Y-100417913D01*
X101388847Y-100499992D01*
X101423056Y-100565882D01*
X101445392Y-100623693D01*
X101459175Y-100681533D01*
X101467721Y-100747514D01*
X101472310Y-100802143D01*
X101478911Y-100871561D01*
X101486455Y-100924403D01*
X101493359Y-100949735D01*
X101493666Y-100950090D01*
X101489212Y-100970543D01*
X101468011Y-101015992D01*
X101434041Y-101078307D01*
X101415284Y-101110297D01*
X101370740Y-101187115D01*
X101331023Y-101259945D01*
X101302985Y-101316091D01*
X101297858Y-101327825D01*
X101263618Y-101391698D01*
X101213943Y-101446935D01*
X101142142Y-101499040D01*
X101041530Y-101553514D01*
X100998534Y-101574035D01*
X100906687Y-101615489D01*
X100794984Y-101663934D01*
X100680007Y-101712254D01*
X100609944Y-101740796D01*
X100511232Y-101778967D01*
X100432322Y-101804618D01*
X100359392Y-101820561D01*
X100278619Y-101829612D01*
X100176182Y-101834583D01*
X100144357Y-101835554D01*
X99897707Y-101842581D01*
X99861881Y-101785372D01*
X99954243Y-101693010D01*
X99981755Y-101706770D01*
X100038878Y-101713385D01*
X100116928Y-101713462D01*
X100207215Y-101707609D01*
X100301053Y-101696430D01*
X100389754Y-101680536D01*
X100464630Y-101660530D01*
X100475847Y-101656585D01*
X100584117Y-101614825D01*
X100698066Y-101567742D01*
X100811321Y-101518313D01*
X100917506Y-101469515D01*
X101010248Y-101424326D01*
X101083173Y-101385722D01*
X101129905Y-101356680D01*
X101142674Y-101345149D01*
X101172653Y-101296443D01*
X101196277Y-101249854D01*
X101210615Y-101212117D01*
X101211701Y-101195768D01*
X101211254Y-101195752D01*
X101190642Y-101201590D01*
X101137984Y-101217437D01*
X101058546Y-101241684D01*
X100957593Y-101272717D01*
X100840385Y-101308927D01*
X100756624Y-101334896D01*
X100595866Y-101385843D01*
X100471006Y-101427802D01*
X100380092Y-101461505D01*
X100321172Y-101487687D01*
X100292296Y-101507081D01*
X100289911Y-101510282D01*
X100260313Y-101537011D01*
X100230284Y-101531869D01*
X100226057Y-101525496D01*
X100326314Y-101425239D01*
X100345296Y-101425606D01*
X100395191Y-101415475D01*
X100469842Y-101396711D01*
X100563094Y-101371178D01*
X100668790Y-101340743D01*
X100780773Y-101307268D01*
X100892888Y-101272619D01*
X100998977Y-101238662D01*
X101092885Y-101207260D01*
X101168455Y-101180280D01*
X101219529Y-101159584D01*
X101238482Y-101148933D01*
X101264972Y-101116033D01*
X101298847Y-101063367D01*
X101316106Y-101033026D01*
X101345168Y-100965554D01*
X101354253Y-100897900D01*
X101348966Y-100827887D01*
X101339876Y-100766378D01*
X101331441Y-100724093D01*
X101326326Y-100711185D01*
X101307722Y-100720389D01*
X101260922Y-100745889D01*
X101191617Y-100784521D01*
X101105495Y-100833117D01*
X101030174Y-100875978D01*
X100932720Y-100931078D01*
X100845461Y-100979382D01*
X100774714Y-101017476D01*
X100726794Y-101041942D01*
X100709737Y-101049268D01*
X100677814Y-101073205D01*
X100653711Y-101111264D01*
X100622831Y-101157116D01*
X100585427Y-101174957D01*
X100552280Y-101192497D01*
X100504629Y-101229211D01*
X100450508Y-101277336D01*
X100397951Y-101329112D01*
X100354994Y-101376778D01*
X100329673Y-101412573D01*
X100326314Y-101425239D01*
X100226057Y-101525496D01*
X100210548Y-101502110D01*
X100243908Y-101468750D01*
X100263975Y-101483628D01*
X100278549Y-101470858D01*
X100289655Y-101447679D01*
X100293247Y-101423537D01*
X100596282Y-101120502D01*
X100615333Y-101110913D01*
X100622150Y-101104324D01*
X100635188Y-101077470D01*
X100684572Y-101028086D01*
X100705321Y-101021346D01*
X100753299Y-100998850D01*
X100821803Y-100964223D01*
X100904132Y-100921092D01*
X100993581Y-100873083D01*
X101083451Y-100823822D01*
X101167037Y-100776937D01*
X101237638Y-100736053D01*
X101288552Y-100704795D01*
X101309906Y-100689750D01*
X101318137Y-100661514D01*
X101311149Y-100629468D01*
X101294846Y-100596683D01*
X101265018Y-100542627D01*
X101227379Y-100477028D01*
X101187641Y-100409615D01*
X101151515Y-100350117D01*
X101124712Y-100308259D01*
X101114591Y-100294699D01*
X101097641Y-100303122D01*
X101062026Y-100335171D01*
X101013768Y-100384175D01*
X100958887Y-100443468D01*
X100903405Y-100506379D01*
X100853340Y-100566242D01*
X100814712Y-100616388D01*
X100793544Y-100650146D01*
X100793397Y-100650478D01*
X100765857Y-100706277D01*
X100740492Y-100749546D01*
X100720896Y-100791292D01*
X100702596Y-100850378D01*
X100687924Y-100915206D01*
X100679207Y-100974170D01*
X100678774Y-101015673D01*
X100684572Y-101028086D01*
X100635188Y-101077470D01*
X100637721Y-101072252D01*
X100630749Y-101054277D01*
X100605789Y-101042440D01*
X100597901Y-101045677D01*
X100589348Y-101073135D01*
X100589302Y-101095724D01*
X100596282Y-101120502D01*
X100293247Y-101423537D01*
X100294859Y-101412712D01*
X100276259Y-101403924D01*
X100250815Y-101420395D01*
X100236951Y-101451537D01*
X100243908Y-101468750D01*
X100210548Y-101502110D01*
X100209612Y-101500698D01*
X100206443Y-101460464D01*
X100222940Y-101405075D01*
X100254040Y-101363792D01*
X100290821Y-101346373D01*
X100307990Y-101349405D01*
X100338057Y-101343730D01*
X100382540Y-101314098D01*
X100433491Y-101268592D01*
X100482964Y-101215303D01*
X100523012Y-101162315D01*
X100545687Y-101117715D01*
X100548076Y-101105097D01*
X100562561Y-101060427D01*
X100595615Y-101008883D01*
X100606788Y-100995845D01*
X100648200Y-100934055D01*
X100680402Y-100855233D01*
X100699424Y-100773534D01*
X100701295Y-100703110D01*
X100698649Y-100691977D01*
X100735241Y-100655385D01*
X100753048Y-100665031D01*
X100767490Y-100650766D01*
X100778470Y-100613286D01*
X100774941Y-100596590D01*
X100757134Y-100586944D01*
X100742691Y-100601209D01*
X100731712Y-100638689D01*
X100735241Y-100655385D01*
X100698649Y-100691977D01*
X100695630Y-100679261D01*
X100693356Y-100625114D01*
X100706436Y-100593762D01*
X100774062Y-100526136D01*
X100808328Y-100531659D01*
X100850840Y-100509074D01*
X100908686Y-100458013D01*
X100947751Y-100419512D01*
X101012260Y-100352724D01*
X101051559Y-100305592D01*
X101070018Y-100272242D01*
X101072729Y-100251621D01*
X101060003Y-100225973D01*
X101028467Y-100181395D01*
X100984238Y-100125048D01*
X100933433Y-100064090D01*
X100882170Y-100005681D01*
X100836564Y-99956978D01*
X100802734Y-99925143D01*
X100786954Y-99917152D01*
X100775921Y-99936464D01*
X100752442Y-99981852D01*
X100721183Y-100044260D01*
X100714664Y-100057468D01*
X100668490Y-100172202D01*
X100653164Y-100270984D01*
X100668425Y-100361507D01*
X100701930Y-100432230D01*
X100740958Y-100492871D01*
X100774062Y-100526136D01*
X100706436Y-100593762D01*
X100710440Y-100584165D01*
X100728549Y-100543171D01*
X100718820Y-100503178D01*
X100703830Y-100478917D01*
X100673810Y-100432420D01*
X100653573Y-100396486D01*
X100652780Y-100394758D01*
X100633195Y-100381796D01*
X100612319Y-100395734D01*
X100574303Y-100418691D01*
X100547225Y-100406474D01*
X100545128Y-100397973D01*
X100582466Y-100360635D01*
X100601517Y-100351045D01*
X100608333Y-100344456D01*
X100623905Y-100312385D01*
X100616933Y-100294409D01*
X100591974Y-100282572D01*
X100584086Y-100285810D01*
X100575532Y-100313267D01*
X100575485Y-100335856D01*
X100582466Y-100360635D01*
X100545128Y-100397973D01*
X100536400Y-100362582D01*
X100536923Y-100346160D01*
X100541853Y-100280574D01*
X100447451Y-100259168D01*
X100387848Y-100248713D01*
X100352235Y-100253331D01*
X100327665Y-100275361D01*
X100323275Y-100281563D01*
X100285127Y-100318359D01*
X100250233Y-100321535D01*
X100249692Y-100320857D01*
X100361873Y-100208676D01*
X100413014Y-100230956D01*
X100475764Y-100245165D01*
X100536403Y-100247971D01*
X100574636Y-100239561D01*
X100600581Y-100214220D01*
X100635660Y-100162539D01*
X100674389Y-100094419D01*
X100711282Y-100019759D01*
X100740856Y-99948460D01*
X100748717Y-99925324D01*
X100740480Y-99890742D01*
X100701177Y-99851050D01*
X100637596Y-99810829D01*
X100556527Y-99774660D01*
X100496518Y-99755171D01*
X100418228Y-99735513D01*
X100366488Y-99732035D01*
X100335105Y-99749900D01*
X100317883Y-99794273D01*
X100308628Y-99870313D01*
X100305534Y-99914342D01*
X100302109Y-99995388D01*
X100302612Y-100063334D01*
X100306830Y-100107433D01*
X100309529Y-100116025D01*
X100328484Y-100159534D01*
X100336061Y-100181654D01*
X100361873Y-100208676D01*
X100249692Y-100320857D01*
X100235029Y-100302420D01*
X100264197Y-100273252D01*
X100286107Y-100277847D01*
X100303362Y-100244550D01*
X100306218Y-100233177D01*
X100303835Y-100205220D01*
X100294956Y-100200001D01*
X100271287Y-100215723D01*
X100258394Y-100248010D01*
X100264197Y-100273252D01*
X100235029Y-100302420D01*
X100227413Y-100292842D01*
X100223183Y-100261718D01*
X100232924Y-100209656D01*
X100252674Y-100175115D01*
X100267985Y-100140480D01*
X100279057Y-100077090D01*
X100284133Y-99995188D01*
X100284191Y-99991387D01*
X100286362Y-99909931D01*
X100290222Y-99837317D01*
X100294991Y-99787699D01*
X100295666Y-99783511D01*
X100305116Y-99729873D01*
X100241017Y-99727872D01*
X100190696Y-99732154D01*
X100157555Y-99745263D01*
X100156944Y-99745846D01*
X100148903Y-99768972D01*
X100134672Y-99826173D01*
X100115171Y-99913101D01*
X100091324Y-100025403D01*
X100064051Y-100158732D01*
X100034273Y-100308737D01*
X100002913Y-100471072D01*
X99999577Y-100488596D01*
X99957739Y-100708264D01*
X99922581Y-100892834D01*
X99893727Y-101045643D01*
X99870802Y-101170027D01*
X99853429Y-101269321D01*
X99841233Y-101346864D01*
X99833837Y-101405991D01*
X99830866Y-101450038D01*
X99831944Y-101482342D01*
X99836695Y-101506241D01*
X99844742Y-101525069D01*
X99855709Y-101542164D01*
X99869222Y-101560862D01*
X99877410Y-101572747D01*
X99914138Y-101628841D01*
X99943313Y-101674794D01*
X99954243Y-101693010D01*
X99861881Y-101785372D01*
X99788735Y-101668564D01*
X99743911Y-101595883D01*
X99708231Y-101535925D01*
X99685998Y-101496057D01*
X99680737Y-101483774D01*
X99684940Y-101458720D01*
X99695732Y-101400038D01*
X99712204Y-101312435D01*
X99733444Y-101200617D01*
X99758543Y-101069289D01*
X99786590Y-100923161D01*
X99816674Y-100766935D01*
X99847887Y-100605319D01*
X99879315Y-100443020D01*
X99910049Y-100284742D01*
X99939178Y-100135194D01*
X99965794Y-99999080D01*
X99988984Y-99881107D01*
X100007838Y-99785981D01*
X100021446Y-99718409D01*
X100028897Y-99683097D01*
X100029797Y-99679493D01*
X100052822Y-99642739D01*
X100102110Y-99618596D01*
X100102110Y-99618596D01*
G37*
X100102110Y-99618596D02*
X100102831Y-99618365D01*
X100184522Y-99603738D01*
X100289589Y-99600995D01*
X100404455Y-99609321D01*
X100515538Y-99627904D01*
X100585999Y-99647327D01*
X100640578Y-99666746D01*
X100684615Y-99686174D01*
X100725610Y-99710915D01*
X100771070Y-99746275D01*
X100828495Y-99797558D01*
X100905390Y-99870068D01*
X100917840Y-99881932D01*
X101001470Y-99962916D01*
X101065974Y-100029637D01*
X101119909Y-100092487D01*
X101171828Y-100161859D01*
X101230289Y-100248144D01*
X101271533Y-100311532D01*
X101339446Y-100417913D01*
X101388847Y-100499992D01*
X101423056Y-100565882D01*
X101445392Y-100623693D01*
X101459175Y-100681533D01*
X101467721Y-100747514D01*
X101472310Y-100802143D01*
X101478911Y-100871561D01*
X101486455Y-100924403D01*
X101493359Y-100949735D01*
X101493666Y-100950090D01*
X101489212Y-100970543D01*
X101468011Y-101015992D01*
X101434041Y-101078307D01*
X101415284Y-101110297D01*
X101370740Y-101187115D01*
X101331023Y-101259945D01*
X101302985Y-101316091D01*
X101297858Y-101327825D01*
X101263618Y-101391698D01*
X101213943Y-101446935D01*
X101142142Y-101499040D01*
X101041530Y-101553514D01*
X100998534Y-101574035D01*
X100906687Y-101615489D01*
X100794984Y-101663934D01*
X100680007Y-101712254D01*
X100609944Y-101740796D01*
X100511232Y-101778967D01*
X100432322Y-101804618D01*
X100359392Y-101820561D01*
X100278619Y-101829612D01*
X100176182Y-101834583D01*
X100144357Y-101835554D01*
X99897707Y-101842581D01*
X99861881Y-101785372D01*
X99954243Y-101693010D01*
X99981755Y-101706770D01*
X100038878Y-101713385D01*
X100116928Y-101713462D01*
X100207215Y-101707609D01*
X100301053Y-101696430D01*
X100389754Y-101680536D01*
X100464630Y-101660530D01*
X100475847Y-101656585D01*
X100584117Y-101614825D01*
X100698066Y-101567742D01*
X100811321Y-101518313D01*
X100917506Y-101469515D01*
X101010248Y-101424326D01*
X101083173Y-101385722D01*
X101129905Y-101356680D01*
X101142674Y-101345149D01*
X101172653Y-101296443D01*
X101196277Y-101249854D01*
X101210615Y-101212117D01*
X101211701Y-101195768D01*
X101211254Y-101195752D01*
X101190642Y-101201590D01*
X101137984Y-101217437D01*
X101058546Y-101241684D01*
X100957593Y-101272717D01*
X100840385Y-101308927D01*
X100756624Y-101334896D01*
X100595866Y-101385843D01*
X100471006Y-101427802D01*
X100380092Y-101461505D01*
X100321172Y-101487687D01*
X100292296Y-101507081D01*
X100289911Y-101510282D01*
X100260313Y-101537011D01*
X100230284Y-101531869D01*
X100226057Y-101525496D01*
X100326314Y-101425239D01*
X100345296Y-101425606D01*
X100395191Y-101415475D01*
X100469842Y-101396711D01*
X100563094Y-101371178D01*
X100668790Y-101340743D01*
X100780773Y-101307268D01*
X100892888Y-101272619D01*
X100998977Y-101238662D01*
X101092885Y-101207260D01*
X101168455Y-101180280D01*
X101219529Y-101159584D01*
X101238482Y-101148933D01*
X101264972Y-101116033D01*
X101298847Y-101063367D01*
X101316106Y-101033026D01*
X101345168Y-100965554D01*
X101354253Y-100897900D01*
X101348966Y-100827887D01*
X101339876Y-100766378D01*
X101331441Y-100724093D01*
X101326326Y-100711185D01*
X101307722Y-100720389D01*
X101260922Y-100745889D01*
X101191617Y-100784521D01*
X101105495Y-100833117D01*
X101030174Y-100875978D01*
X100932720Y-100931078D01*
X100845461Y-100979382D01*
X100774714Y-101017476D01*
X100726794Y-101041942D01*
X100709737Y-101049268D01*
X100677814Y-101073205D01*
X100653711Y-101111264D01*
X100622831Y-101157116D01*
X100585427Y-101174957D01*
X100552280Y-101192497D01*
X100504629Y-101229211D01*
X100450508Y-101277336D01*
X100397951Y-101329112D01*
X100354994Y-101376778D01*
X100329673Y-101412573D01*
X100326314Y-101425239D01*
X100226057Y-101525496D01*
X100210548Y-101502110D01*
X100243908Y-101468750D01*
X100263975Y-101483628D01*
X100278549Y-101470858D01*
X100289655Y-101447679D01*
X100293247Y-101423537D01*
X100596282Y-101120502D01*
X100615333Y-101110913D01*
X100622150Y-101104324D01*
X100635188Y-101077470D01*
X100684572Y-101028086D01*
X100705321Y-101021346D01*
X100753299Y-100998850D01*
X100821803Y-100964223D01*
X100904132Y-100921092D01*
X100993581Y-100873083D01*
X101083451Y-100823822D01*
X101167037Y-100776937D01*
X101237638Y-100736053D01*
X101288552Y-100704795D01*
X101309906Y-100689750D01*
X101318137Y-100661514D01*
X101311149Y-100629468D01*
X101294846Y-100596683D01*
X101265018Y-100542627D01*
X101227379Y-100477028D01*
X101187641Y-100409615D01*
X101151515Y-100350117D01*
X101124712Y-100308259D01*
X101114591Y-100294699D01*
X101097641Y-100303122D01*
X101062026Y-100335171D01*
X101013768Y-100384175D01*
X100958887Y-100443468D01*
X100903405Y-100506379D01*
X100853340Y-100566242D01*
X100814712Y-100616388D01*
X100793544Y-100650146D01*
X100793397Y-100650478D01*
X100765857Y-100706277D01*
X100740492Y-100749546D01*
X100720896Y-100791292D01*
X100702596Y-100850378D01*
X100687924Y-100915206D01*
X100679207Y-100974170D01*
X100678774Y-101015673D01*
X100684572Y-101028086D01*
X100635188Y-101077470D01*
X100637721Y-101072252D01*
X100630749Y-101054277D01*
X100605789Y-101042440D01*
X100597901Y-101045677D01*
X100589348Y-101073135D01*
X100589302Y-101095724D01*
X100596282Y-101120502D01*
X100293247Y-101423537D01*
X100294859Y-101412712D01*
X100276259Y-101403924D01*
X100250815Y-101420395D01*
X100236951Y-101451537D01*
X100243908Y-101468750D01*
X100210548Y-101502110D01*
X100209612Y-101500698D01*
X100206443Y-101460464D01*
X100222940Y-101405075D01*
X100254040Y-101363792D01*
X100290821Y-101346373D01*
X100307990Y-101349405D01*
X100338057Y-101343730D01*
X100382540Y-101314098D01*
X100433491Y-101268592D01*
X100482964Y-101215303D01*
X100523012Y-101162315D01*
X100545687Y-101117715D01*
X100548076Y-101105097D01*
X100562561Y-101060427D01*
X100595615Y-101008883D01*
X100606788Y-100995845D01*
X100648200Y-100934055D01*
X100680402Y-100855233D01*
X100699424Y-100773534D01*
X100701295Y-100703110D01*
X100698649Y-100691977D01*
X100735241Y-100655385D01*
X100753048Y-100665031D01*
X100767490Y-100650766D01*
X100778470Y-100613286D01*
X100774941Y-100596590D01*
X100757134Y-100586944D01*
X100742691Y-100601209D01*
X100731712Y-100638689D01*
X100735241Y-100655385D01*
X100698649Y-100691977D01*
X100695630Y-100679261D01*
X100693356Y-100625114D01*
X100706436Y-100593762D01*
X100774062Y-100526136D01*
X100808328Y-100531659D01*
X100850840Y-100509074D01*
X100908686Y-100458013D01*
X100947751Y-100419512D01*
X101012260Y-100352724D01*
X101051559Y-100305592D01*
X101070018Y-100272242D01*
X101072729Y-100251621D01*
X101060003Y-100225973D01*
X101028467Y-100181395D01*
X100984238Y-100125048D01*
X100933433Y-100064090D01*
X100882170Y-100005681D01*
X100836564Y-99956978D01*
X100802734Y-99925143D01*
X100786954Y-99917152D01*
X100775921Y-99936464D01*
X100752442Y-99981852D01*
X100721183Y-100044260D01*
X100714664Y-100057468D01*
X100668490Y-100172202D01*
X100653164Y-100270984D01*
X100668425Y-100361507D01*
X100701930Y-100432230D01*
X100740958Y-100492871D01*
X100774062Y-100526136D01*
X100706436Y-100593762D01*
X100710440Y-100584165D01*
X100728549Y-100543171D01*
X100718820Y-100503178D01*
X100703830Y-100478917D01*
X100673810Y-100432420D01*
X100653573Y-100396486D01*
X100652780Y-100394758D01*
X100633195Y-100381796D01*
X100612319Y-100395734D01*
X100574303Y-100418691D01*
X100547225Y-100406474D01*
X100545128Y-100397973D01*
X100582466Y-100360635D01*
X100601517Y-100351045D01*
X100608333Y-100344456D01*
X100623905Y-100312385D01*
X100616933Y-100294409D01*
X100591974Y-100282572D01*
X100584086Y-100285810D01*
X100575532Y-100313267D01*
X100575485Y-100335856D01*
X100582466Y-100360635D01*
X100545128Y-100397973D01*
X100536400Y-100362582D01*
X100536923Y-100346160D01*
X100541853Y-100280574D01*
X100447451Y-100259168D01*
X100387848Y-100248713D01*
X100352235Y-100253331D01*
X100327665Y-100275361D01*
X100323275Y-100281563D01*
X100285127Y-100318359D01*
X100250233Y-100321535D01*
X100249692Y-100320857D01*
X100361873Y-100208676D01*
X100413014Y-100230956D01*
X100475764Y-100245165D01*
X100536403Y-100247971D01*
X100574636Y-100239561D01*
X100600581Y-100214220D01*
X100635660Y-100162539D01*
X100674389Y-100094419D01*
X100711282Y-100019759D01*
X100740856Y-99948460D01*
X100748717Y-99925324D01*
X100740480Y-99890742D01*
X100701177Y-99851050D01*
X100637596Y-99810829D01*
X100556527Y-99774660D01*
X100496518Y-99755171D01*
X100418228Y-99735513D01*
X100366488Y-99732035D01*
X100335105Y-99749900D01*
X100317883Y-99794273D01*
X100308628Y-99870313D01*
X100305534Y-99914342D01*
X100302109Y-99995388D01*
X100302612Y-100063334D01*
X100306830Y-100107433D01*
X100309529Y-100116025D01*
X100328484Y-100159534D01*
X100336061Y-100181654D01*
X100361873Y-100208676D01*
X100249692Y-100320857D01*
X100235029Y-100302420D01*
X100264197Y-100273252D01*
X100286107Y-100277847D01*
X100303362Y-100244550D01*
X100306218Y-100233177D01*
X100303835Y-100205220D01*
X100294956Y-100200001D01*
X100271287Y-100215723D01*
X100258394Y-100248010D01*
X100264197Y-100273252D01*
X100235029Y-100302420D01*
X100227413Y-100292842D01*
X100223183Y-100261718D01*
X100232924Y-100209656D01*
X100252674Y-100175115D01*
X100267985Y-100140480D01*
X100279057Y-100077090D01*
X100284133Y-99995188D01*
X100284191Y-99991387D01*
X100286362Y-99909931D01*
X100290222Y-99837317D01*
X100294991Y-99787699D01*
X100295666Y-99783511D01*
X100305116Y-99729873D01*
X100241017Y-99727872D01*
X100190696Y-99732154D01*
X100157555Y-99745263D01*
X100156944Y-99745846D01*
X100148903Y-99768972D01*
X100134672Y-99826173D01*
X100115171Y-99913101D01*
X100091324Y-100025403D01*
X100064051Y-100158732D01*
X100034273Y-100308737D01*
X100002913Y-100471072D01*
X99999577Y-100488596D01*
X99957739Y-100708264D01*
X99922581Y-100892834D01*
X99893727Y-101045643D01*
X99870802Y-101170027D01*
X99853429Y-101269321D01*
X99841233Y-101346864D01*
X99833837Y-101405991D01*
X99830866Y-101450038D01*
X99831944Y-101482342D01*
X99836695Y-101506241D01*
X99844742Y-101525069D01*
X99855709Y-101542164D01*
X99869222Y-101560862D01*
X99877410Y-101572747D01*
X99914138Y-101628841D01*
X99943313Y-101674794D01*
X99954243Y-101693010D01*
X99861881Y-101785372D01*
X99788735Y-101668564D01*
X99743911Y-101595883D01*
X99708231Y-101535925D01*
X99685998Y-101496057D01*
X99680737Y-101483774D01*
X99684940Y-101458720D01*
X99695732Y-101400038D01*
X99712204Y-101312435D01*
X99733444Y-101200617D01*
X99758543Y-101069289D01*
X99786590Y-100923161D01*
X99816674Y-100766935D01*
X99847887Y-100605319D01*
X99879315Y-100443020D01*
X99910049Y-100284742D01*
X99939178Y-100135194D01*
X99965794Y-99999080D01*
X99988984Y-99881107D01*
X100007838Y-99785981D01*
X100021446Y-99718409D01*
X100028897Y-99683097D01*
X100029797Y-99679493D01*
X100052822Y-99642739D01*
X100102110Y-99618596D01*
D12*
X121412000Y-91440000D02*
G75*
G03X121412000Y-91440000I-762000J0D01*
G01*
X118872000Y-91440000D02*
G75*
G03X118872000Y-91440000I-762000J0D01*
G01*
X116332000Y-91440000D02*
G75*
G03X116332000Y-91440000I-762000J0D01*
G01*
X113792000Y-91440000D02*
G75*
G03X113792000Y-91440000I-762000J0D01*
G01*
X111252000Y-91440000D02*
G75*
G03X111252000Y-91440000I-762000J0D01*
G01*
X108712000Y-91440000D02*
G75*
G03X108712000Y-91440000I-762000J0D01*
G01*
X106172000Y-91440000D02*
G75*
G03X106172000Y-91440000I-762000J0D01*
G01*
X103632000Y-91440000D02*
G75*
G03X103632000Y-91440000I-762000J0D01*
G01*
X101092000Y-91440000D02*
G75*
G03X101092000Y-91440000I-762000J0D01*
G01*
X96012000Y-91440000D02*
G75*
G03X96012000Y-91440000I-762000J0D01*
G01*
X121412000Y-111760000D02*
G75*
G03X121412000Y-111760000I-762000J0D01*
G01*
X118872000Y-111760000D02*
G75*
G03X118872000Y-111760000I-762000J0D01*
G01*
X116332000Y-111760000D02*
G75*
G03X116332000Y-111760000I-762000J0D01*
G01*
X113792000Y-111760000D02*
G75*
G03X113792000Y-111760000I-762000J0D01*
G01*
X106172000Y-111760000D02*
G75*
G03X106172000Y-111760000I-762000J0D01*
G01*
X103632000Y-111760000D02*
G75*
G03X103632000Y-111760000I-762000J0D01*
G01*
X101092000Y-111760000D02*
G75*
G03X101092000Y-111760000I-762000J0D01*
G01*
X98552000Y-111760000D02*
G75*
G03X98552000Y-111760000I-762000J0D01*
G01*
X96012000Y-111760000D02*
G75*
G03X96012000Y-111760000I-762000J0D01*
G01*
X93472000Y-111760000D02*
G75*
G03X93472000Y-111760000I-762000J0D01*
G01*
X88392000Y-111760000D02*
G75*
G03X88392000Y-111760000I-762000J0D01*
G01*
X85852000Y-111760000D02*
G75*
G03X85852000Y-111760000I-762000J0D01*
G01*
X83312000Y-111760000D02*
G75*
G03X83312000Y-111760000I-762000J0D01*
G01*
X125755151Y-92710000D02*
G75*
G03X125755151Y-92710000I-1295151J0D01*
G01*
X125755151Y-110490000D02*
G75*
G03X125755151Y-110490000I-1295151J0D01*
G01*
X80787813Y-110490000D02*
G75*
G03X80787813Y-110490000I-2047813J0D01*
G01*
X80787813Y-92710000D02*
G75*
G03X80787813Y-92710000I-2047813J0D01*
G01*
X76200000Y-101600000D02*
X77724000Y-101600000D01*
X90678000Y-95250000D02*
X90678000Y-90170000D01*
X83058000Y-95250000D02*
X83058000Y-90170000D01*
X86868000Y-90170000D02*
X86868000Y-91948000D01*
X83058000Y-95250000D02*
X90678000Y-95250000D01*
X76200000Y-99060000D02*
X81280000Y-99060000D01*
X81280000Y-99060000D02*
X81280000Y-104140000D01*
X81280000Y-104140000D02*
X76200000Y-104140000D01*
X76200000Y-110490000D02*
G75*
G03X78740000Y-113030000I2540000J0D01*
G01*
X78740000Y-90170000D02*
G75*
G03X76200000Y-92710000I0J-2540000D01*
G01*
X124460000Y-113030000D02*
G75*
G03X127000000Y-110490000I0J2540000D01*
G01*
X127000000Y-92710000D02*
G75*
G03X124460000Y-90170000I-2540000J0D01*
G01*
X127000000Y-92710000D02*
X127000000Y-110490000D01*
X76200000Y-92710000D02*
X76200000Y-110490000D01*
X78740000Y-113030000D02*
X124460000Y-113030000D01*
X124460000Y-90170000D02*
X78740000Y-90170000D01*
D13*
X94288429Y-105301142D02*
X94288429Y-105639808D01*
X94820619Y-105639808D02*
X93804619Y-105639808D01*
X93804619Y-105155999D01*
X94772238Y-104381904D02*
X94820619Y-104478666D01*
X94820619Y-104672189D01*
X94772238Y-104768951D01*
X94675476Y-104817332D01*
X94288429Y-104817332D01*
X94191667Y-104768951D01*
X94143286Y-104672189D01*
X94143286Y-104478666D01*
X94191667Y-104381904D01*
X94288429Y-104333523D01*
X94385190Y-104333523D01*
X94481952Y-104817332D01*
X94820619Y-103462666D02*
X94288429Y-103462666D01*
X94191667Y-103511047D01*
X94143286Y-103607809D01*
X94143286Y-103801332D01*
X94191667Y-103898094D01*
X94772238Y-103462666D02*
X94820619Y-103559428D01*
X94820619Y-103801332D01*
X94772238Y-103898094D01*
X94675476Y-103946475D01*
X94578714Y-103946475D01*
X94481952Y-103898094D01*
X94433571Y-103801332D01*
X94433571Y-103559428D01*
X94385190Y-103462666D01*
X94143286Y-103123999D02*
X94143286Y-102736951D01*
X93804619Y-102978856D02*
X94675476Y-102978856D01*
X94772238Y-102930475D01*
X94820619Y-102833713D01*
X94820619Y-102736951D01*
X94820619Y-102398285D02*
X93804619Y-102398285D01*
X94820619Y-101962857D02*
X94288429Y-101962857D01*
X94191667Y-102011238D01*
X94143286Y-102108000D01*
X94143286Y-102253142D01*
X94191667Y-102349904D01*
X94240048Y-102398285D01*
X94772238Y-101092000D02*
X94820619Y-101188762D01*
X94820619Y-101382285D01*
X94772238Y-101479047D01*
X94675476Y-101527428D01*
X94288429Y-101527428D01*
X94191667Y-101479047D01*
X94143286Y-101382285D01*
X94143286Y-101188762D01*
X94191667Y-101092000D01*
X94288429Y-101043619D01*
X94385190Y-101043619D01*
X94481952Y-101527428D01*
X94820619Y-100608190D02*
X94143286Y-100608190D01*
X94336810Y-100608190D02*
X94240048Y-100559809D01*
X94191667Y-100511428D01*
X94143286Y-100414666D01*
X94143286Y-100317905D01*
X94917381Y-100221143D02*
X94917381Y-99447048D01*
X94820619Y-99205143D02*
X93804619Y-99205143D01*
X94530333Y-98866477D01*
X93804619Y-98527810D01*
X94820619Y-98527810D01*
X93804619Y-97850476D02*
X93804619Y-97753715D01*
X93853000Y-97656953D01*
X93901381Y-97608572D01*
X93998143Y-97560191D01*
X94191667Y-97511810D01*
X94433571Y-97511810D01*
X94627095Y-97560191D01*
X94723857Y-97608572D01*
X94772238Y-97656953D01*
X94820619Y-97753715D01*
X94820619Y-97850476D01*
X94772238Y-97947238D01*
X94723857Y-97995619D01*
X94627095Y-98044000D01*
X94433571Y-98092381D01*
X94191667Y-98092381D01*
X93998143Y-98044000D01*
X93901381Y-97995619D01*
X93853000Y-97947238D01*
X93804619Y-97850476D01*
X97233619Y-95897095D02*
X98056095Y-95897095D01*
X98152857Y-95848714D01*
X98201238Y-95800333D01*
X98249619Y-95703571D01*
X98249619Y-95510048D01*
X98201238Y-95413286D01*
X98152857Y-95364905D01*
X98056095Y-95316524D01*
X97233619Y-95316524D01*
X98201238Y-94881095D02*
X98249619Y-94735952D01*
X98249619Y-94494048D01*
X98201238Y-94397286D01*
X98152857Y-94348905D01*
X98056095Y-94300524D01*
X97959333Y-94300524D01*
X97862571Y-94348905D01*
X97814190Y-94397286D01*
X97765810Y-94494048D01*
X97717429Y-94687571D01*
X97669048Y-94784333D01*
X97620667Y-94832714D01*
X97523905Y-94881095D01*
X97427143Y-94881095D01*
X97330381Y-94832714D01*
X97282000Y-94784333D01*
X97233619Y-94687571D01*
X97233619Y-94445667D01*
X97282000Y-94300524D01*
X97717429Y-93526429D02*
X97765810Y-93381286D01*
X97814190Y-93332905D01*
X97910952Y-93284524D01*
X98056095Y-93284524D01*
X98152857Y-93332905D01*
X98201238Y-93381286D01*
X98249619Y-93478048D01*
X98249619Y-93865095D01*
X97233619Y-93865095D01*
X97233619Y-93526429D01*
X97282000Y-93429667D01*
X97330381Y-93381286D01*
X97427143Y-93332905D01*
X97523905Y-93332905D01*
X97620667Y-93381286D01*
X97669048Y-93429667D01*
X97717429Y-93526429D01*
X97717429Y-93865095D01*
X92637429Y-95364905D02*
X92685810Y-95219762D01*
X92734190Y-95171381D01*
X92830952Y-95123000D01*
X92976095Y-95123000D01*
X93072857Y-95171381D01*
X93121238Y-95219762D01*
X93169619Y-95316524D01*
X93169619Y-95703571D01*
X92153619Y-95703571D01*
X92153619Y-95364905D01*
X92202000Y-95268143D01*
X92250381Y-95219762D01*
X92347143Y-95171381D01*
X92443905Y-95171381D01*
X92540667Y-95219762D01*
X92589048Y-95268143D01*
X92637429Y-95364905D01*
X92637429Y-95703571D01*
X92879333Y-94735952D02*
X92879333Y-94252143D01*
X93169619Y-94832714D02*
X92153619Y-94494047D01*
X93169619Y-94155381D01*
X92153619Y-93961857D02*
X92153619Y-93381286D01*
X93169619Y-93671571D02*
X92153619Y-93671571D01*
X110949619Y-110181571D02*
X109933619Y-110181571D01*
X110659333Y-109842905D01*
X109933619Y-109504238D01*
X110949619Y-109504238D01*
X109933619Y-108826904D02*
X109933619Y-108633381D01*
X109982000Y-108536619D01*
X110078762Y-108439857D01*
X110272286Y-108391476D01*
X110610952Y-108391476D01*
X110804476Y-108439857D01*
X110901238Y-108536619D01*
X110949619Y-108633381D01*
X110949619Y-108826904D01*
X110901238Y-108923666D01*
X110804476Y-109020428D01*
X110610952Y-109068809D01*
X110272286Y-109068809D01*
X110078762Y-109020428D01*
X109982000Y-108923666D01*
X109933619Y-108826904D01*
X110901238Y-108004428D02*
X110949619Y-107859285D01*
X110949619Y-107617381D01*
X110901238Y-107520619D01*
X110852857Y-107472238D01*
X110756095Y-107423857D01*
X110659333Y-107423857D01*
X110562571Y-107472238D01*
X110514190Y-107520619D01*
X110465810Y-107617381D01*
X110417429Y-107810904D01*
X110369048Y-107907666D01*
X110320667Y-107956047D01*
X110223905Y-108004428D01*
X110127143Y-108004428D01*
X110030381Y-107956047D01*
X109982000Y-107907666D01*
X109933619Y-107810904D01*
X109933619Y-107569000D01*
X109982000Y-107423857D01*
X110949619Y-106988428D02*
X109933619Y-106988428D01*
X108361238Y-109891285D02*
X108409619Y-109746142D01*
X108409619Y-109504238D01*
X108361238Y-109407476D01*
X108312857Y-109359095D01*
X108216095Y-109310714D01*
X108119333Y-109310714D01*
X108022571Y-109359095D01*
X107974190Y-109407476D01*
X107925810Y-109504238D01*
X107877429Y-109697761D01*
X107829048Y-109794523D01*
X107780667Y-109842904D01*
X107683905Y-109891285D01*
X107587143Y-109891285D01*
X107490381Y-109842904D01*
X107442000Y-109794523D01*
X107393619Y-109697761D01*
X107393619Y-109455857D01*
X107442000Y-109310714D01*
X108312857Y-108294714D02*
X108361238Y-108343095D01*
X108409619Y-108488238D01*
X108409619Y-108585000D01*
X108361238Y-108730142D01*
X108264476Y-108826904D01*
X108167714Y-108875285D01*
X107974190Y-108923666D01*
X107829048Y-108923666D01*
X107635524Y-108875285D01*
X107538762Y-108826904D01*
X107442000Y-108730142D01*
X107393619Y-108585000D01*
X107393619Y-108488238D01*
X107442000Y-108343095D01*
X107490381Y-108294714D01*
X108409619Y-107859285D02*
X107393619Y-107859285D01*
X108409619Y-107278714D02*
X107829048Y-107714142D01*
X107393619Y-107278714D02*
X107974190Y-107859285D01*
X89662000Y-109359095D02*
X89613619Y-109455857D01*
X89613619Y-109601000D01*
X89662000Y-109746142D01*
X89758762Y-109842904D01*
X89855524Y-109891285D01*
X90049048Y-109939666D01*
X90194190Y-109939666D01*
X90387714Y-109891285D01*
X90484476Y-109842904D01*
X90581238Y-109746142D01*
X90629619Y-109601000D01*
X90629619Y-109504238D01*
X90581238Y-109359095D01*
X90532857Y-109310714D01*
X90194190Y-109310714D01*
X90194190Y-109504238D01*
X90629619Y-108875285D02*
X89613619Y-108875285D01*
X90629619Y-108294714D01*
X89613619Y-108294714D01*
X90629619Y-107810904D02*
X89613619Y-107810904D01*
X89613619Y-107568999D01*
X89662000Y-107423857D01*
X89758762Y-107327095D01*
X89855524Y-107278714D01*
X90049048Y-107230333D01*
X90194190Y-107230333D01*
X90387714Y-107278714D01*
X90484476Y-107327095D01*
X90581238Y-107423857D01*
X90629619Y-107568999D01*
X90629619Y-107810904D01*
%LPC*%
D14*
X116840000Y-99803949D03*
X118636051Y-101600000D03*
X116840000Y-103396051D03*
X115043949Y-101600000D03*
X84563949Y-101600000D03*
X86360000Y-99803949D03*
X88156051Y-101600000D03*
X86360000Y-103396051D03*
D15*
X109220000Y-93980000D03*
X93980000Y-109220000D03*
D16*
X90170000Y-111760000D03*
X92710000Y-91440000D03*
X97790000Y-91440000D03*
X107950000Y-111760000D03*
X110490000Y-111760000D03*
D17*
X82550000Y-111760000D03*
X85090000Y-111760000D03*
X87630000Y-111760000D03*
X92710000Y-111760000D03*
X95250000Y-111760000D03*
X97790000Y-111760000D03*
X100330000Y-111760000D03*
X102870000Y-111760000D03*
X105410000Y-111760000D03*
X113030000Y-111760000D03*
X115570000Y-111760000D03*
X118110000Y-111760000D03*
X120650000Y-111760000D03*
X120650000Y-91440000D03*
X118110000Y-91440000D03*
X115570000Y-91440000D03*
X113030000Y-91440000D03*
X110490000Y-91440000D03*
X107950000Y-91440000D03*
X105410000Y-91440000D03*
X102870000Y-91440000D03*
X100330000Y-91440000D03*
X95250000Y-91440000D03*
D15*
X78740000Y-110490000D03*
X124460000Y-110490000D03*
X124460000Y-92710000D03*
X78740000Y-92710000D03*
D18*
X124460000Y-99060000D03*
X124460000Y-101600000D03*
X124460000Y-104140000D03*
X78740000Y-104140000D03*
X78740000Y-101600000D03*
X78740000Y-99060000D03*
M02*
