G04 #@! TF.FileFunction,Copper,L2,Bot,Signal*
%FSLAX46Y46*%
G04 Gerber Fmt 4.6, Leading zero omitted, Abs format (unit mm)*
G04 Created by KiCad (PCBNEW 4.0.5-e0-6337~49~ubuntu16.04.1) date Sun Feb  5 13:00:35 2017*
%MOMM*%
%LPD*%
G01*
G04 APERTURE LIST*
%ADD10C,0.101600*%
%ADD11C,1.397000*%
%ADD12R,1.778000X1.778000*%
%ADD13C,1.778000*%
%ADD14O,2.032000X1.727200*%
%ADD15R,1.524000X1.524000*%
%ADD16R,1.524000X2.032000*%
%ADD17C,0.762000*%
G04 APERTURE END LIST*
D10*
D11*
X116840000Y-99803949D03*
X118636051Y-101600000D03*
X116840000Y-103396051D03*
X115043949Y-101600000D03*
X84563949Y-101600000D03*
X86360000Y-99803949D03*
X88156051Y-101600000D03*
X86360000Y-103396051D03*
D12*
X90170000Y-111760000D03*
X92710000Y-91440000D03*
X97790000Y-91440000D03*
X107950000Y-111760000D03*
X110490000Y-111760000D03*
D13*
X82550000Y-111760000D03*
X85090000Y-111760000D03*
X87630000Y-111760000D03*
X92710000Y-111760000D03*
X95250000Y-111760000D03*
X97790000Y-111760000D03*
X100330000Y-111760000D03*
X102870000Y-111760000D03*
X105410000Y-111760000D03*
X113030000Y-111760000D03*
X115570000Y-111760000D03*
X118110000Y-111760000D03*
X120650000Y-111760000D03*
X120650000Y-91440000D03*
X118110000Y-91440000D03*
X115570000Y-91440000D03*
X113030000Y-91440000D03*
X110490000Y-91440000D03*
X107950000Y-91440000D03*
X105410000Y-91440000D03*
X102870000Y-91440000D03*
X100330000Y-91440000D03*
X95250000Y-91440000D03*
D14*
X124460000Y-99060000D03*
X124460000Y-101600000D03*
X124460000Y-104140000D03*
D15*
X121920000Y-101600000D03*
D16*
X121920000Y-103886000D03*
X121920000Y-99314000D03*
D14*
X78740000Y-104140000D03*
X78740000Y-101600000D03*
X78740000Y-99060000D03*
D15*
X81280000Y-101600000D03*
D16*
X81280000Y-99314000D03*
X81280000Y-103886000D03*
D17*
X78740000Y-104140000D02*
X81280000Y-104140000D01*
X124460000Y-104140000D02*
X121920000Y-104140000D01*
X119107949Y-99803949D02*
X120904000Y-101600000D01*
X120904000Y-101600000D02*
X121920000Y-101600000D01*
X116840000Y-99803949D02*
X119107949Y-99803949D01*
X86360000Y-99803949D02*
X116840000Y-99803949D01*
X86360000Y-99803949D02*
X84092051Y-99803949D01*
X84092051Y-99803949D02*
X83185000Y-100711000D01*
X81280000Y-101600000D02*
X82296000Y-101600000D01*
X82296000Y-101600000D02*
X83185000Y-100711000D01*
X78740000Y-101600000D02*
X81280000Y-101600000D01*
X124460000Y-101600000D02*
X121920000Y-101600000D01*
X123926600Y-96901000D02*
X92710000Y-96901000D01*
X92710000Y-96901000D02*
X79273400Y-96901000D01*
X92710000Y-91440000D02*
X92710000Y-96901000D01*
X124460000Y-99060000D02*
X124460000Y-97434400D01*
X124460000Y-97434400D02*
X123926600Y-96901000D01*
X79273400Y-96901000D02*
X78740000Y-97434400D01*
X78740000Y-97434400D02*
X78740000Y-99060000D01*
X124460000Y-99060000D02*
X121920000Y-99060000D01*
X78740000Y-99060000D02*
X81280000Y-99060000D01*
X86233000Y-105791000D02*
X90170000Y-105791000D01*
X90170000Y-105791000D02*
X116967000Y-105791000D01*
X90170000Y-111760000D02*
X90170000Y-105791000D01*
X116967000Y-105791000D02*
X118636051Y-104121949D01*
X118636051Y-104121949D02*
X118636051Y-101600000D01*
X84563949Y-104121949D02*
X86233000Y-105791000D01*
X84563949Y-101600000D02*
X84563949Y-104121949D01*
M02*
