M48
INCH,TZ
T1C0.040
T2C0.120
%
G90
G05
T1
X031000Y-039000
X031000Y-040000
X031000Y-041000
X032500Y-044000
X033293Y-040000
X033500Y-044000
X034000Y-039293
X034000Y-040707
X034500Y-044000
X034707Y-040000
X035500Y-044000
X036500Y-036000
X036500Y-044000
X037500Y-036000
X037500Y-044000
X038500Y-036000
X038500Y-044000
X039500Y-036000
X039500Y-044000
X040500Y-036000
X040500Y-044000
X041500Y-036000
X041500Y-044000
X042500Y-036000
X042500Y-044000
X043500Y-036000
X043500Y-044000
X044500Y-036000
X044500Y-044000
X045293Y-040000
X045500Y-036000
X045500Y-044000
X046000Y-039293
X046000Y-040707
X046500Y-036000
X046500Y-044000
X046707Y-040000
X047500Y-036000
X047500Y-044000
X049000Y-039000
X049000Y-040000
X049000Y-041000
T2
X031000Y-036500
X031000Y-043500
X037000Y-043000
X043000Y-037000
X049000Y-036500
X049000Y-043500
T0
M30
