M48
;DRILL file {KiCad 4.0.1-3.201512221401+6198~38~ubuntu15.10.1-stable} date Sun Feb 21 18:27:13 2016
;FORMAT={2:4/ absolute / inch / keep zeros}
FMAT,2
INCH,TZ
T1C0.025
T2C0.028
T3C0.047
%
G90
G05
M72
T1
X000650Y012000
X000750Y020750
X001000Y018100
X001000Y006100
X001250Y020750
X001500Y002250
X002000Y003250
X002150Y012000
X002600Y006100
X002700Y018100
X004500Y012000
X006000Y012000
X007200Y012000
X010200Y012000
X012950Y012000
X015000Y012000
X019200Y012000
T2
X001185Y018870
X001185Y012870
X001185Y006870
X001185Y000870
X001815Y023130
X001815Y017130
X001815Y011130
X001815Y005130
X004185Y018870
X004185Y012870
X004185Y006870
X004185Y000870
X004500Y007500
X004815Y023130
X004815Y017130
X004815Y011130
X004815Y005130
X007185Y018870
X007185Y012870
X007185Y000870
X007815Y023130
X007815Y017130
X007815Y011130
X007815Y005130
X010185Y018870
X010185Y012870
X010185Y006870
X010185Y000870
X010815Y023130
X010815Y017130
X010815Y011130
X010815Y005130
X013185Y018870
X013185Y012870
X013185Y006870
X013185Y000870
X013815Y023130
X013815Y017130
X013815Y011130
X013815Y005130
X016185Y018870
X016185Y012870
X016185Y006870
X016185Y000870
X016815Y023130
X016815Y017130
X016815Y011130
X016815Y005130
X019185Y018870
X019185Y012870
X019185Y006870
X019185Y000870
X019815Y023130
X019815Y017130
X019815Y011130
X019815Y005130
X022185Y018870
X022185Y012870
X022185Y006870
X022185Y000870
X022815Y023130
X022815Y017130
X022815Y011130
X022815Y005130
T3
X007500Y007500
X016500Y016500
T0
M30
