G04 #@! TF.FileFunction,Soldermask,Top*
%FSLAX46Y46*%
G04 Gerber Fmt 4.6, Leading zero omitted, Abs format (unit mm)*
G04 Created by KiCad (PCBNEW 4.0.1-3.201512221401+6198~38~ubuntu15.10.1-stable) date Wed Feb 24 00:02:00 2016*
%MOMM*%
G01*
G04 APERTURE LIST*
%ADD10C,0.152400*%
%ADD11C,0.254000*%
%ADD12R,1.908000X1.908000*%
%ADD13R,1.808000X1.908000*%
%ADD14C,1.908000*%
G04 APERTURE END LIST*
D10*
D11*
X44196000Y0D02*
X16764000Y0D01*
X60960000Y0D02*
X47244000Y0D01*
X60960000Y13716000D02*
X60960000Y0D01*
X60960000Y44196000D02*
X60960000Y16764000D01*
X60960000Y60960000D02*
X60960000Y47244000D01*
X47244000Y60960000D02*
X60960000Y60960000D01*
X16764000Y60960000D02*
X44196000Y60960000D01*
X0Y60960000D02*
X13716000Y60960000D01*
X0Y47244000D02*
X0Y60960000D01*
X0Y16764000D02*
X0Y44196000D01*
X0Y0D02*
X0Y13716000D01*
X13716000Y0D02*
X0Y0D01*
X60960000Y16764000D02*
G75*
G03X59436000Y15240000I0J-1524000D01*
G01*
X59436000Y15240000D02*
G75*
G03X60960000Y13716000I1524000J0D01*
G01*
X60960000Y47244000D02*
G75*
G03X59436000Y45720000I0J-1524000D01*
G01*
X59436000Y45720000D02*
G75*
G03X60960000Y44196000I1524000J0D01*
G01*
X44196000Y60960000D02*
G75*
G03X45720000Y59436000I1524000J0D01*
G01*
X45720000Y59436000D02*
G75*
G03X47244000Y60960000I0J1524000D01*
G01*
X13716000Y60960000D02*
G75*
G03X15240000Y59436000I1524000J0D01*
G01*
X15240000Y59436000D02*
G75*
G03X16764000Y60960000I0J1524000D01*
G01*
X0Y44196000D02*
G75*
G03X1524000Y45720000I0J1524000D01*
G01*
X1524000Y45720000D02*
G75*
G03X0Y47244000I-1524000J0D01*
G01*
X0Y13716000D02*
G75*
G03X1524000Y15240000I0J1524000D01*
G01*
X1524000Y15240000D02*
G75*
G03X0Y16764000I-1524000J0D01*
G01*
X16764000Y0D02*
G75*
G03X15240000Y1524000I-1524000J0D01*
G01*
X15240000Y1524000D02*
G75*
G03X13716000Y0I0J-1524000D01*
G01*
X45720000Y1524000D02*
G75*
G03X44196000Y0I0J-1524000D01*
G01*
X47244000Y0D02*
G75*
G03X45720000Y1524000I-1524000J0D01*
G01*
D12*
X51130000Y39710000D03*
X51130000Y44110000D03*
D13*
X49530000Y44110000D03*
X49530000Y39710000D03*
D12*
X47930000Y39710000D03*
X47930000Y44110000D03*
D14*
X48387000Y42037000D03*
D12*
X9830000Y6010000D03*
X9830000Y1610000D03*
D13*
X11430000Y1610000D03*
X11430000Y6010000D03*
D12*
X13030000Y6010000D03*
X13030000Y1610000D03*
D14*
X9830000Y4610000D03*
D12*
X55550000Y6010000D03*
X55550000Y1610000D03*
D13*
X57150000Y1610000D03*
X57150000Y6010000D03*
D12*
X58750000Y6010000D03*
X58750000Y1610000D03*
D14*
X55550000Y4610000D03*
D12*
X55550000Y13630000D03*
X55550000Y9230000D03*
D13*
X57150000Y9230000D03*
X57150000Y13630000D03*
D12*
X58750000Y13630000D03*
X58750000Y9230000D03*
D14*
X55550000Y12230000D03*
D12*
X55550000Y21250000D03*
X55550000Y16850000D03*
D13*
X57150000Y16850000D03*
X57150000Y21250000D03*
D12*
X58750000Y21250000D03*
X58750000Y16850000D03*
D14*
X55550000Y19850000D03*
D12*
X55550000Y28870000D03*
X55550000Y24470000D03*
D13*
X57150000Y24470000D03*
X57150000Y28870000D03*
D12*
X58750000Y28870000D03*
X58750000Y24470000D03*
D14*
X55550000Y27470000D03*
D12*
X55550000Y36490000D03*
X55550000Y32090000D03*
D13*
X57150000Y32090000D03*
X57150000Y36490000D03*
D12*
X58750000Y36490000D03*
X58750000Y32090000D03*
D14*
X55550000Y35090000D03*
D12*
X55550000Y44110000D03*
X55550000Y39710000D03*
D13*
X57150000Y39710000D03*
X57150000Y44110000D03*
D12*
X58750000Y44110000D03*
X58750000Y39710000D03*
D14*
X55550000Y42710000D03*
D12*
X55550000Y51730000D03*
X55550000Y47330000D03*
D13*
X57150000Y47330000D03*
X57150000Y51730000D03*
D12*
X58750000Y51730000D03*
X58750000Y47330000D03*
D14*
X55550000Y50330000D03*
D12*
X55550000Y59350000D03*
X55550000Y54950000D03*
D13*
X57150000Y54950000D03*
X57150000Y59350000D03*
D12*
X58750000Y59350000D03*
X58750000Y54950000D03*
D14*
X55550000Y57950000D03*
D12*
X51130000Y54950000D03*
X51130000Y59350000D03*
D13*
X49530000Y59350000D03*
X49530000Y54950000D03*
D12*
X47930000Y54950000D03*
X47930000Y59350000D03*
D14*
X51130000Y56350000D03*
D12*
X51130000Y47330000D03*
X51130000Y51730000D03*
D13*
X49530000Y51730000D03*
X49530000Y47330000D03*
D12*
X47930000Y47330000D03*
X47930000Y51730000D03*
D14*
X51130000Y48730000D03*
D12*
X51130000Y32090000D03*
X51130000Y36490000D03*
D13*
X49530000Y36490000D03*
X49530000Y32090000D03*
D12*
X47930000Y32090000D03*
X47930000Y36490000D03*
D14*
X48641000Y34290000D03*
D12*
X51130000Y24470000D03*
X51130000Y28870000D03*
D13*
X49530000Y28870000D03*
X49530000Y24470000D03*
D12*
X47930000Y24470000D03*
X47930000Y28870000D03*
D14*
X51130000Y25870000D03*
D12*
X51130000Y16850000D03*
X51130000Y21250000D03*
D13*
X49530000Y21250000D03*
X49530000Y16850000D03*
D12*
X47930000Y16850000D03*
X47930000Y21250000D03*
D14*
X51130000Y18250000D03*
D12*
X51130000Y9230000D03*
X51130000Y13630000D03*
D13*
X49530000Y13630000D03*
X49530000Y9230000D03*
D12*
X47930000Y9230000D03*
X47930000Y13630000D03*
D14*
X51130000Y10630000D03*
D12*
X51130000Y1610000D03*
X51130000Y6010000D03*
D13*
X49530000Y6010000D03*
X49530000Y1610000D03*
D12*
X47930000Y1610000D03*
X47930000Y6010000D03*
D14*
X51130000Y3010000D03*
D12*
X40310000Y6010000D03*
X40310000Y1610000D03*
D13*
X41910000Y1610000D03*
X41910000Y6010000D03*
D12*
X43510000Y6010000D03*
X43510000Y1610000D03*
D14*
X40310000Y4610000D03*
D12*
X40310000Y13630000D03*
X40310000Y9230000D03*
D13*
X41910000Y9230000D03*
X41910000Y13630000D03*
D12*
X43510000Y13630000D03*
X43510000Y9230000D03*
D14*
X40310000Y12230000D03*
D12*
X40310000Y21250000D03*
X40310000Y16850000D03*
D13*
X41910000Y16850000D03*
X41910000Y21250000D03*
D12*
X43510000Y21250000D03*
X43510000Y16850000D03*
D14*
X40310000Y19850000D03*
D12*
X40310000Y28870000D03*
X40310000Y24470000D03*
D13*
X41910000Y24470000D03*
X41910000Y28870000D03*
D12*
X43510000Y28870000D03*
X43510000Y24470000D03*
D14*
X40310000Y27470000D03*
D12*
X40310000Y36490000D03*
X40310000Y32090000D03*
D13*
X41910000Y32090000D03*
X41910000Y36490000D03*
D12*
X43510000Y36490000D03*
X43510000Y32090000D03*
D14*
X40310000Y35090000D03*
D12*
X40310000Y44110000D03*
X40310000Y39710000D03*
D13*
X41910000Y39710000D03*
X41910000Y44110000D03*
D12*
X43510000Y44110000D03*
X43510000Y39710000D03*
D14*
X40310000Y42710000D03*
D12*
X40310000Y51730000D03*
X40310000Y47330000D03*
D13*
X41910000Y47330000D03*
X41910000Y51730000D03*
D12*
X43510000Y51730000D03*
X43510000Y47330000D03*
D14*
X40310000Y50330000D03*
D12*
X40310000Y59350000D03*
X40310000Y54950000D03*
D13*
X41910000Y54950000D03*
X41910000Y59350000D03*
D12*
X43510000Y59350000D03*
X43510000Y54950000D03*
D14*
X40310000Y57950000D03*
D12*
X35890000Y54950000D03*
X35890000Y59350000D03*
D13*
X34290000Y59350000D03*
X34290000Y54950000D03*
D12*
X32690000Y54950000D03*
X32690000Y59350000D03*
D14*
X35890000Y56350000D03*
D12*
X35890000Y47330000D03*
X35890000Y51730000D03*
D13*
X34290000Y51730000D03*
X34290000Y47330000D03*
D12*
X32690000Y47330000D03*
X32690000Y51730000D03*
D14*
X35890000Y48730000D03*
D12*
X35890000Y39710000D03*
X35890000Y44110000D03*
D13*
X34290000Y44110000D03*
X34290000Y39710000D03*
D12*
X32690000Y39710000D03*
X32690000Y44110000D03*
D14*
X35890000Y41110000D03*
D12*
X35890000Y32090000D03*
X35890000Y36490000D03*
D13*
X34290000Y36490000D03*
X34290000Y32090000D03*
D12*
X32690000Y32090000D03*
X32690000Y36490000D03*
D14*
X35890000Y33490000D03*
D12*
X35890000Y24470000D03*
X35890000Y28870000D03*
D13*
X34290000Y28870000D03*
X34290000Y24470000D03*
D12*
X32690000Y24470000D03*
X32690000Y28870000D03*
D14*
X35890000Y25870000D03*
D12*
X35890000Y16850000D03*
X35890000Y21250000D03*
D13*
X34290000Y21250000D03*
X34290000Y16850000D03*
D12*
X32690000Y16850000D03*
X32690000Y21250000D03*
D14*
X35890000Y18250000D03*
D12*
X35890000Y9230000D03*
X35890000Y13630000D03*
D13*
X34290000Y13630000D03*
X34290000Y9230000D03*
D12*
X32690000Y9230000D03*
X32690000Y13630000D03*
D14*
X35890000Y10630000D03*
D12*
X35890000Y1610000D03*
X35890000Y6010000D03*
D13*
X34290000Y6010000D03*
X34290000Y1610000D03*
D12*
X32690000Y1610000D03*
X32690000Y6010000D03*
D14*
X35890000Y3010000D03*
D12*
X25070000Y6010000D03*
X25070000Y1610000D03*
D13*
X26670000Y1610000D03*
X26670000Y6010000D03*
D12*
X28270000Y6010000D03*
X28270000Y1610000D03*
D14*
X25070000Y4610000D03*
D12*
X25070000Y13630000D03*
X25070000Y9230000D03*
D13*
X26670000Y9230000D03*
X26670000Y13630000D03*
D12*
X28270000Y13630000D03*
X28270000Y9230000D03*
D14*
X25070000Y12230000D03*
D12*
X25070000Y21250000D03*
X25070000Y16850000D03*
D13*
X26670000Y16850000D03*
X26670000Y21250000D03*
D12*
X28270000Y21250000D03*
X28270000Y16850000D03*
D14*
X25070000Y19850000D03*
D12*
X25070000Y28870000D03*
X25070000Y24470000D03*
D13*
X26670000Y24470000D03*
X26670000Y28870000D03*
D12*
X28270000Y28870000D03*
X28270000Y24470000D03*
D14*
X25070000Y27470000D03*
D12*
X25070000Y36490000D03*
X25070000Y32090000D03*
D13*
X26670000Y32090000D03*
X26670000Y36490000D03*
D12*
X28270000Y36490000D03*
X28270000Y32090000D03*
D14*
X25070000Y35090000D03*
D12*
X25070000Y44110000D03*
X25070000Y39710000D03*
D13*
X26670000Y39710000D03*
X26670000Y44110000D03*
D12*
X28270000Y44110000D03*
X28270000Y39710000D03*
D14*
X25070000Y42710000D03*
D12*
X25070000Y51730000D03*
X25070000Y47330000D03*
D13*
X26670000Y47330000D03*
X26670000Y51730000D03*
D12*
X28270000Y51730000D03*
X28270000Y47330000D03*
D14*
X25070000Y50330000D03*
D12*
X25070000Y59350000D03*
X25070000Y54950000D03*
D13*
X26670000Y54950000D03*
X26670000Y59350000D03*
D12*
X28270000Y59350000D03*
X28270000Y54950000D03*
D14*
X25070000Y57950000D03*
D12*
X20650000Y54950000D03*
X20650000Y59350000D03*
D13*
X19050000Y59350000D03*
X19050000Y54950000D03*
D12*
X17450000Y54950000D03*
X17450000Y59350000D03*
D14*
X20650000Y56350000D03*
D12*
X20650000Y47330000D03*
X20650000Y51730000D03*
D13*
X19050000Y51730000D03*
X19050000Y47330000D03*
D12*
X17450000Y47330000D03*
X17450000Y51730000D03*
D14*
X20650000Y48730000D03*
D12*
X20650000Y39710000D03*
X20650000Y44110000D03*
D13*
X19050000Y44110000D03*
X19050000Y39710000D03*
D12*
X17450000Y39710000D03*
X17450000Y44110000D03*
D14*
X20650000Y41110000D03*
D12*
X20650000Y32090000D03*
X20650000Y36490000D03*
D13*
X19050000Y36490000D03*
X19050000Y32090000D03*
D12*
X17450000Y32090000D03*
X17450000Y36490000D03*
D14*
X20650000Y33490000D03*
D12*
X20650000Y24470000D03*
X20650000Y28870000D03*
D13*
X19050000Y28870000D03*
X19050000Y24470000D03*
D12*
X17450000Y24470000D03*
X17450000Y28870000D03*
D14*
X20650000Y25870000D03*
D12*
X20650000Y16850000D03*
X20650000Y21250000D03*
D13*
X19050000Y21250000D03*
X19050000Y16850000D03*
D12*
X17450000Y16850000D03*
X17450000Y21250000D03*
D14*
X23368000Y12192000D03*
D12*
X20650000Y9230000D03*
X20650000Y13630000D03*
D13*
X19050000Y13630000D03*
X19050000Y9230000D03*
D12*
X17450000Y9230000D03*
X17450000Y13630000D03*
D14*
X20650000Y10630000D03*
D12*
X20650000Y1610000D03*
X20650000Y6010000D03*
D13*
X19050000Y6010000D03*
X19050000Y1610000D03*
D12*
X17450000Y1610000D03*
X17450000Y6010000D03*
D14*
X20650000Y3010000D03*
D12*
X9830000Y13630000D03*
X9830000Y9230000D03*
D13*
X11430000Y9230000D03*
X11430000Y13630000D03*
D12*
X13030000Y13630000D03*
X13030000Y9230000D03*
D14*
X9830000Y12230000D03*
D12*
X9830000Y21250000D03*
X9830000Y16850000D03*
D13*
X11430000Y16850000D03*
X11430000Y21250000D03*
D12*
X13030000Y21250000D03*
X13030000Y16850000D03*
D14*
X9830000Y19850000D03*
D12*
X9830000Y28870000D03*
X9830000Y24470000D03*
D13*
X11430000Y24470000D03*
X11430000Y28870000D03*
D12*
X13030000Y28870000D03*
X13030000Y24470000D03*
D14*
X9830000Y27470000D03*
D12*
X9830000Y36490000D03*
X9830000Y32090000D03*
D13*
X11430000Y32090000D03*
X11430000Y36490000D03*
D12*
X13030000Y36490000D03*
X13030000Y32090000D03*
D14*
X12573000Y34290000D03*
D12*
X9830000Y44110000D03*
X9830000Y39710000D03*
D13*
X11430000Y39710000D03*
X11430000Y44110000D03*
D12*
X13030000Y44110000D03*
X13030000Y39710000D03*
D14*
X9906000Y45466000D03*
D12*
X9830000Y51730000D03*
X9830000Y47330000D03*
D13*
X11430000Y47330000D03*
X11430000Y51730000D03*
D12*
X13030000Y51730000D03*
X13030000Y47330000D03*
D14*
X9830000Y50330000D03*
D12*
X9830000Y59350000D03*
X9830000Y54950000D03*
D13*
X11430000Y54950000D03*
X11430000Y59350000D03*
D12*
X13030000Y59350000D03*
X13030000Y54950000D03*
D14*
X9830000Y57950000D03*
D12*
X5410000Y54950000D03*
X5410000Y59350000D03*
D13*
X3810000Y59350000D03*
X3810000Y54950000D03*
D12*
X2210000Y54950000D03*
X2210000Y59350000D03*
D14*
X5410000Y56350000D03*
D12*
X5410000Y47330000D03*
X5410000Y51730000D03*
D13*
X3810000Y51730000D03*
X3810000Y47330000D03*
D12*
X2210000Y47330000D03*
X2210000Y51730000D03*
D14*
X5410000Y48730000D03*
D12*
X5410000Y39710000D03*
X5410000Y44110000D03*
D13*
X3810000Y44110000D03*
X3810000Y39710000D03*
D12*
X2210000Y39710000D03*
X2210000Y44110000D03*
D14*
X5410000Y41110000D03*
D12*
X5410000Y32090000D03*
X5410000Y36490000D03*
D13*
X3810000Y36490000D03*
X3810000Y32090000D03*
D12*
X2210000Y32090000D03*
X2210000Y36490000D03*
D14*
X5410000Y33490000D03*
D12*
X5410000Y16850000D03*
X5410000Y21250000D03*
D13*
X3810000Y21250000D03*
X3810000Y16850000D03*
D12*
X2210000Y16850000D03*
X2210000Y21250000D03*
D14*
X5410000Y18250000D03*
D12*
X5410000Y9230000D03*
X5410000Y13630000D03*
D13*
X3810000Y13630000D03*
X3810000Y9230000D03*
D12*
X2210000Y9230000D03*
X2210000Y13630000D03*
D14*
X5410000Y10630000D03*
D12*
X5410000Y1610000D03*
X5410000Y6010000D03*
D13*
X3810000Y6010000D03*
X3810000Y1610000D03*
D12*
X2210000Y1610000D03*
X2210000Y6010000D03*
D14*
X5410000Y3010000D03*
D12*
X5410000Y24470000D03*
X5410000Y28870000D03*
D13*
X3810000Y28870000D03*
X3810000Y24470000D03*
D12*
X2210000Y24470000D03*
X2210000Y28870000D03*
D14*
X5410000Y25870000D03*
M02*
