G04 #@! TF.FileFunction,Soldermask,Bot*
%FSLAX46Y46*%
G04 Gerber Fmt 4.6, Leading zero omitted, Abs format (unit mm)*
G04 Created by KiCad (PCBNEW 4.0.2-4+6225~38~ubuntu15.04.1-stable) date Thu Feb 18 17:46:05 2016*
%MOMM*%
G01*
G04 APERTURE LIST*
%ADD10C,0.152400*%
%ADD11C,0.254000*%
%ADD12R,1.930400X1.574800*%
%ADD13C,9.008000*%
%ADD14R,8.128000X2.413000*%
%ADD15R,2.413000X8.128000*%
%ADD16C,1.908000*%
%ADD17R,3.556000X3.556000*%
G04 APERTURE END LIST*
D10*
D11*
X1270000Y14605000D02*
X1270000Y1270000D01*
X1270000Y45085000D02*
X1270000Y18415000D01*
X1270000Y62230000D02*
X1270000Y48895000D01*
X14605000Y62230000D02*
X1270000Y62230000D01*
X45085000Y62230000D02*
X18415000Y62230000D01*
X62230000Y62230000D02*
X48895000Y62230000D01*
X62230000Y48895000D02*
X62230000Y62230000D01*
X62230000Y18415000D02*
X62230000Y45085000D01*
X62230000Y1270000D02*
X62230000Y14605000D01*
X635000Y17780000D02*
G75*
G03X1270000Y18415000I0J635000D01*
G01*
X1270000Y14605000D02*
G75*
G03X635000Y15240000I-635000J0D01*
G01*
X0Y15875000D02*
G75*
G03X635000Y15240000I635000J0D01*
G01*
X635000Y17780000D02*
G75*
G03X0Y17145000I0J-635000D01*
G01*
X0Y17145000D02*
X0Y15875000D01*
X1270000Y48895000D02*
G75*
G03X1905000Y48260000I635000J0D01*
G01*
X1905000Y45720000D02*
G75*
G03X1270000Y45085000I0J-635000D01*
G01*
X1905000Y45720000D02*
G75*
G03X2540000Y46355000I0J635000D01*
G01*
X2540000Y47625000D02*
G75*
G03X1905000Y48260000I-635000J0D01*
G01*
X2540000Y47625000D02*
X2540000Y46355000D01*
X17780000Y62865000D02*
G75*
G03X18415000Y62230000I635000J0D01*
G01*
X14605000Y62230000D02*
G75*
G03X15240000Y62865000I0J635000D01*
G01*
X15875000Y63500000D02*
G75*
G03X15240000Y62865000I0J-635000D01*
G01*
X17780000Y62865000D02*
G75*
G03X17145000Y63500000I-635000J0D01*
G01*
X15875000Y63500000D02*
X17145000Y63500000D01*
X48895000Y62230000D02*
G75*
G03X48260000Y61595000I0J-635000D01*
G01*
X45720000Y61595000D02*
G75*
G03X45085000Y62230000I-635000J0D01*
G01*
X47625000Y60960000D02*
G75*
G03X48260000Y61595000I0J635000D01*
G01*
X45720000Y61595000D02*
G75*
G03X46355000Y60960000I635000J0D01*
G01*
X46355000Y60960000D02*
X47625000Y60960000D01*
X62865000Y45720000D02*
G75*
G03X62230000Y45085000I0J-635000D01*
G01*
X62230000Y48895000D02*
G75*
G03X62865000Y48260000I635000J0D01*
G01*
X63500000Y47625000D02*
G75*
G03X62865000Y48260000I-635000J0D01*
G01*
X62865000Y45720000D02*
G75*
G03X63500000Y46355000I0J635000D01*
G01*
X63500000Y47625000D02*
X63500000Y46355000D01*
X61595000Y17780000D02*
G75*
G03X62230000Y18415000I0J635000D01*
G01*
X62230000Y14605000D02*
G75*
G03X61595000Y15240000I-635000J0D01*
G01*
X60960000Y15875000D02*
G75*
G03X61595000Y15240000I635000J0D01*
G01*
X61595000Y17780000D02*
G75*
G03X60960000Y17145000I0J-635000D01*
G01*
X60960000Y17145000D02*
X60960000Y15875000D01*
X48895000Y1270000D02*
X62230000Y1270000D01*
X45085000Y1270000D02*
X18415000Y1270000D01*
X48895000Y1270000D02*
G75*
G03X48260000Y635000I0J-635000D01*
G01*
X45720000Y635000D02*
G75*
G03X45085000Y1270000I-635000J0D01*
G01*
X45720000Y635000D02*
G75*
G03X46355000Y0I635000J0D01*
G01*
X47625000Y0D02*
G75*
G03X48260000Y635000I0J635000D01*
G01*
X46355000Y0D02*
X47625000Y0D01*
X14605000Y1270000D02*
X1270000Y1270000D01*
X15875000Y2540000D02*
X17145000Y2540000D01*
X17780000Y1905000D02*
G75*
G03X17145000Y2540000I-635000J0D01*
G01*
X15875000Y2540000D02*
G75*
G03X15240000Y1905000I0J-635000D01*
G01*
X17780000Y1905000D02*
G75*
G03X18415000Y1270000I635000J0D01*
G01*
X14605000Y1270000D02*
G75*
G03X15240000Y1905000I0J635000D01*
G01*
D12*
X31750000Y32766000D03*
X31750000Y30734000D03*
X24130000Y32766000D03*
X24130000Y30734000D03*
D13*
X20320000Y20320000D03*
X43180000Y43180000D03*
D14*
X24130000Y57150000D03*
X24130000Y54610000D03*
X24130000Y52070000D03*
X24130000Y11430000D03*
X24130000Y8890000D03*
X24130000Y6350000D03*
D15*
X57150000Y39370000D03*
X54610000Y39370000D03*
X52070000Y39370000D03*
X11430000Y39370000D03*
X8890000Y39370000D03*
X6350000Y39370000D03*
D16*
X27140000Y3480000D03*
X4280000Y3480000D03*
X11900000Y3480000D03*
X19520000Y3480000D03*
X34760000Y3480000D03*
X42380000Y3480000D03*
X50000000Y3480000D03*
X57620000Y3480000D03*
X59220000Y14300000D03*
X51600000Y14300000D03*
X43980000Y14300000D03*
X36360000Y14300000D03*
X28740000Y14300000D03*
X21120000Y14300000D03*
X13500000Y14300000D03*
X4280000Y18720000D03*
X11900000Y18720000D03*
X12700000Y20320000D03*
X27140000Y18720000D03*
X34760000Y18720000D03*
X42380000Y18720000D03*
X50000000Y18720000D03*
X57620000Y18720000D03*
X59220000Y29540000D03*
X51600000Y29540000D03*
X43980000Y29540000D03*
X36360000Y29540000D03*
X28740000Y29540000D03*
X21120000Y29540000D03*
X13500000Y29540000D03*
X5880000Y29540000D03*
X4280000Y33960000D03*
X11900000Y33960000D03*
X19520000Y33960000D03*
X27140000Y33960000D03*
X34760000Y33960000D03*
X42380000Y33960000D03*
X50000000Y33960000D03*
X57620000Y33960000D03*
X59220000Y44780000D03*
X51600000Y44780000D03*
X43980000Y44780000D03*
X36360000Y44780000D03*
X28740000Y44780000D03*
X21120000Y44780000D03*
X13500000Y44780000D03*
X5880000Y44780000D03*
X4280000Y49200000D03*
X11900000Y49200000D03*
X19520000Y49200000D03*
X27140000Y49200000D03*
X34760000Y49200000D03*
X42380000Y49200000D03*
X50000000Y49200000D03*
X57620000Y49200000D03*
X59220000Y60020000D03*
X51600000Y60020000D03*
X43980000Y60020000D03*
X36360000Y60020000D03*
X28740000Y60020000D03*
X21120000Y60020000D03*
X13500000Y60020000D03*
X5880000Y60020000D03*
X5880000Y14300000D03*
D17*
X16510000Y27686000D03*
X16510000Y35814000D03*
X39370000Y27686000D03*
X39370000Y35814000D03*
M02*
