M48
INCH,TZ
T1C0.025
T2C0.028
T3C0.047
%
G90
G05
T1
X000850Y001300
X001500Y001600
X003000Y023250
X003000Y022000
X003000Y009200
X003000Y007750
X005950Y004500
X009000Y023250
X009000Y022000
X009000Y012634
X009000Y010450
X009000Y004000
X015000Y023250
X015000Y022000
X015000Y011900
X015000Y009000
X015000Y006000
X021000Y023250
X021000Y022000
X021000Y009634
X022550Y001700
X023150Y001300
T2
X001100Y016450
X001100Y013500
X002130Y022185
X002130Y019185
X002130Y010185
X002130Y007185
X002130Y004185
X002130Y001185
X003870Y022815
X003870Y019815
X003870Y010815
X003870Y007815
X003870Y004815
X003870Y001815
X004950Y013500
X005100Y016450
X008130Y022185
X008130Y019185
X008130Y016185
X008130Y013185
X008130Y010185
X008130Y004185
X008130Y001185
X009200Y004800
X009870Y022815
X009870Y019815
X009870Y016815
X009870Y013815
X009870Y010815
X009870Y007815
X009870Y004815
X009870Y001815
X014130Y022185
X014130Y019185
X014130Y016185
X014130Y013185
X014130Y010185
X014130Y007185
X014130Y004185
X014130Y001185
X014450Y016650
X015870Y022815
X015870Y019815
X015870Y013815
X015870Y010815
X015870Y007815
X015870Y004815
X015870Y001815
X019050Y016550
X019150Y013500
X020130Y022185
X020130Y019185
X020130Y010185
X020130Y007185
X020130Y004185
X020130Y001185
X021870Y022815
X021870Y019815
X021870Y010815
X021870Y007815
X021870Y004815
X021870Y001815
X022800Y016500
X022850Y013450
T3
X007500Y007500
X016500Y016500
T0
M30
