G04 #@! TF.FileFunction,Copper,L2,Bot,Signal*
%FSLAX46Y46*%
G04 Gerber Fmt 4.6, Leading zero omitted, Abs format (unit mm)*
G04 Created by KiCad (PCBNEW 4.0.1-3.201512221401+6198~38~ubuntu15.10.1-stable) date Sun Feb 21 18:27:51 2016*
%MOMM*%
G01*
G04 APERTURE LIST*
%ADD10C,0.152400*%
%ADD11C,0.254000*%
%ADD12R,1.422400X1.066800*%
%ADD13C,8.500000*%
%ADD14R,7.620000X1.905000*%
%ADD15R,1.905000X7.620000*%
%ADD16C,1.400000*%
%ADD17R,3.048000X3.048000*%
%ADD18C,0.889000*%
%ADD19C,0.635000*%
G04 APERTURE END LIST*
D10*
D11*
X44196000Y0D02*
X16764000Y0D01*
X60960000Y0D02*
X47244000Y0D01*
X60960000Y13716000D02*
X60960000Y0D01*
X60960000Y44196000D02*
X60960000Y16764000D01*
X60960000Y60960000D02*
X60960000Y47244000D01*
X47244000Y60960000D02*
X60960000Y60960000D01*
X16764000Y60960000D02*
X44196000Y60960000D01*
X0Y60960000D02*
X13716000Y60960000D01*
X0Y47244000D02*
X0Y60960000D01*
X0Y16764000D02*
X0Y44196000D01*
X0Y0D02*
X0Y13716000D01*
X13716000Y0D02*
X0Y0D01*
X60960000Y16764000D02*
G75*
G03X59436000Y15240000I0J-1524000D01*
G01*
X59436000Y15240000D02*
G75*
G03X60960000Y13716000I1524000J0D01*
G01*
X60960000Y47244000D02*
G75*
G03X59436000Y45720000I0J-1524000D01*
G01*
X59436000Y45720000D02*
G75*
G03X60960000Y44196000I1524000J0D01*
G01*
X44196000Y60960000D02*
G75*
G03X45720000Y59436000I1524000J0D01*
G01*
X45720000Y59436000D02*
G75*
G03X47244000Y60960000I0J1524000D01*
G01*
X13716000Y60960000D02*
G75*
G03X15240000Y59436000I1524000J0D01*
G01*
X15240000Y59436000D02*
G75*
G03X16764000Y60960000I0J1524000D01*
G01*
X0Y44196000D02*
G75*
G03X1524000Y45720000I0J1524000D01*
G01*
X1524000Y45720000D02*
G75*
G03X0Y47244000I-1524000J0D01*
G01*
X0Y13716000D02*
G75*
G03X1524000Y15240000I0J1524000D01*
G01*
X1524000Y15240000D02*
G75*
G03X0Y16764000I-1524000J0D01*
G01*
X16764000Y0D02*
G75*
G03X15240000Y1524000I-1524000J0D01*
G01*
X15240000Y1524000D02*
G75*
G03X13716000Y0I0J-1524000D01*
G01*
X45720000Y1524000D02*
G75*
G03X44196000Y0I0J-1524000D01*
G01*
X47244000Y0D02*
G75*
G03X45720000Y1524000I-1524000J0D01*
G01*
D12*
X30480000Y31496000D03*
X30480000Y29464000D03*
X22860000Y31496000D03*
X22860000Y29464000D03*
D13*
X19050000Y19050000D03*
X41910000Y41910000D03*
D14*
X22860000Y55880000D03*
X22860000Y53340000D03*
X22860000Y50800000D03*
X22860000Y10160000D03*
X22860000Y7620000D03*
X22860000Y5080000D03*
D15*
X55880000Y38100000D03*
X53340000Y38100000D03*
X50800000Y38100000D03*
X10160000Y38100000D03*
X7620000Y38100000D03*
X5080000Y38100000D03*
D16*
X25870000Y2210000D03*
X3010000Y2210000D03*
X10630000Y2210000D03*
X18250000Y2210000D03*
X33490000Y2210000D03*
X41110000Y2210000D03*
X48730000Y2210000D03*
X56350000Y2210000D03*
X57950000Y13030000D03*
X50330000Y13030000D03*
X42710000Y13030000D03*
X35090000Y13030000D03*
X27470000Y13030000D03*
X19850000Y13030000D03*
X12230000Y13030000D03*
X3010000Y17450000D03*
X10630000Y17450000D03*
X11430000Y19050000D03*
X25870000Y17450000D03*
X33490000Y17450000D03*
X41110000Y17450000D03*
X48730000Y17450000D03*
X56350000Y17450000D03*
X57950000Y28270000D03*
X50330000Y28270000D03*
X42710000Y28270000D03*
X35090000Y28270000D03*
X27470000Y28270000D03*
X19850000Y28270000D03*
X12230000Y28270000D03*
X4610000Y28270000D03*
X3010000Y32690000D03*
X10630000Y32690000D03*
X18250000Y32690000D03*
X25870000Y32690000D03*
X33490000Y32690000D03*
X41110000Y32690000D03*
X48730000Y32690000D03*
X56350000Y32690000D03*
X57950000Y43510000D03*
X50330000Y43510000D03*
X42710000Y43510000D03*
X35090000Y43510000D03*
X27470000Y43510000D03*
X19850000Y43510000D03*
X12230000Y43510000D03*
X4610000Y43510000D03*
X3010000Y47930000D03*
X10630000Y47930000D03*
X18250000Y47930000D03*
X25870000Y47930000D03*
X33490000Y47930000D03*
X41110000Y47930000D03*
X48730000Y47930000D03*
X56350000Y47930000D03*
X57950000Y58750000D03*
X50330000Y58750000D03*
X42710000Y58750000D03*
X35090000Y58750000D03*
X27470000Y58750000D03*
X19850000Y58750000D03*
X12230000Y58750000D03*
X4610000Y58750000D03*
X4610000Y13030000D03*
D17*
X15240000Y26416000D03*
X15240000Y34544000D03*
X38100000Y26416000D03*
X38100000Y34544000D03*
D18*
X5080000Y8255004D03*
X1905000Y52705000D03*
X6858000Y45974000D03*
X2540000Y45974000D03*
X6604000Y15494000D03*
X2540000Y15494000D03*
X11429998Y30480000D03*
X38100000Y30480000D03*
X18288000Y30480000D03*
X32893000Y30480000D03*
X25908000Y30480000D03*
X15240000Y30480000D03*
X1651000Y30480000D03*
X48768000Y30480000D03*
X5461000Y30480000D03*
X3810000Y5715000D03*
X3175000Y52705000D03*
D11*
X10160000Y38100000D02*
X10160000Y34290000D01*
X8255000Y32385000D02*
X10160000Y34290000D01*
X8255000Y32385000D02*
X8255000Y10795000D01*
X8255000Y10795000D02*
X7620000Y10160000D01*
X7620000Y10160000D02*
X5715000Y10160000D01*
X5080000Y9525000D02*
X5080000Y8255004D01*
X5715000Y10160000D02*
X5080000Y9525000D01*
X16509996Y8255004D02*
X17779992Y9525000D01*
X17779992Y9525000D02*
X17780000Y9525000D01*
X5080000Y8255004D02*
X16509996Y8255004D01*
X22860000Y10160000D02*
X18415000Y10160000D01*
X18415000Y10160000D02*
X17780000Y9525000D01*
X22860000Y50800000D02*
X2540000Y50800000D01*
X2540000Y50800000D02*
X1905000Y51435000D01*
X1905000Y51435000D02*
X1905000Y52705000D01*
X50800000Y38100000D02*
X50800000Y41910000D01*
X50800000Y41910000D02*
X52705000Y43815000D01*
X52705000Y43815000D02*
X52705000Y52070000D01*
X52705000Y52070000D02*
X52070000Y52705000D01*
X52070000Y52705000D02*
X29210000Y52705000D01*
X29210000Y52705000D02*
X27305000Y50800000D01*
X27305000Y50800000D02*
X22860000Y50800000D01*
X22860000Y50800000D02*
X20002500Y50800000D01*
D19*
X2540000Y45974000D02*
X6858000Y45974000D01*
X2540000Y15494000D02*
X6604000Y15494000D01*
X19050000Y19050000D02*
X14224000Y19050000D01*
X10160000Y29210002D02*
X11429998Y30480000D01*
X14224000Y19050000D02*
X10160000Y23114000D01*
X10160000Y23114000D02*
X10160000Y29210002D01*
X19050000Y19050000D02*
X24130000Y19050000D01*
X24130000Y19050000D02*
X30480000Y25400000D01*
X30480000Y25400000D02*
X30480000Y29464000D01*
X38100000Y26416000D02*
X38100000Y16764000D01*
X38100000Y16764000D02*
X36644001Y15308001D01*
X36644001Y15308001D02*
X22791999Y15308001D01*
X22791999Y15308001D02*
X19050000Y19050000D01*
X19050000Y19050000D02*
X19050000Y24384000D01*
X18288000Y25146000D02*
X18288000Y30480000D01*
X19050000Y24384000D02*
X18288000Y25146000D01*
X38100000Y26416000D02*
X38100000Y30480000D01*
X30480000Y29464000D02*
X31877000Y29464000D01*
X31877000Y29464000D02*
X32893000Y30480000D01*
X22860000Y29464000D02*
X24892000Y29464000D01*
X24892000Y29464000D02*
X25908000Y30480000D01*
X15240000Y26416000D02*
X15240000Y30480000D01*
X5461000Y30480000D02*
X1651000Y30480000D01*
X38100000Y26416000D02*
X47625000Y26416000D01*
X48768000Y27559000D02*
X48768000Y30480000D01*
X47625000Y26416000D02*
X48768000Y27559000D01*
X22860000Y29464000D02*
X22860000Y22860000D01*
X22860000Y22860000D02*
X19050000Y19050000D01*
X15240000Y26416000D02*
X15240000Y22860000D01*
X15240000Y22860000D02*
X19050000Y19050000D01*
D11*
X7620000Y38100000D02*
X7620000Y11430000D01*
X7620000Y11430000D02*
X6985000Y10795000D01*
X6985000Y10795000D02*
X4445000Y10795000D01*
X4445000Y10795000D02*
X3810000Y10160000D01*
X3810000Y10160000D02*
X3810000Y6985000D01*
X3810000Y5715000D02*
X3810000Y6985000D01*
X5080000Y6985000D02*
X3810000Y6985000D01*
X5715000Y7620000D02*
X5080000Y6985000D01*
X22860000Y7620000D02*
X5715000Y7620000D01*
X3175000Y52705000D02*
X3175000Y52070000D01*
X3175000Y52070000D02*
X3810000Y51435000D01*
X18415000Y53340000D02*
X22860000Y53340000D01*
X3810000Y51435000D02*
X16510000Y51435000D01*
X16510000Y51435000D02*
X18415000Y53340000D01*
X22860000Y53340000D02*
X52705000Y53340000D01*
X52705000Y53340000D02*
X53340000Y52705000D01*
X53340000Y52705000D02*
X53340000Y38100000D01*
G36*
X13198428Y59953446D02*
X13528788Y59459027D01*
X13528789Y59459024D01*
X13633907Y59353907D01*
X13739024Y59248789D01*
X13739027Y59248788D01*
X14233446Y58918428D01*
X14508132Y58804649D01*
X14508136Y58804649D01*
X15091341Y58688642D01*
X15388659Y58688642D01*
X15971869Y58804650D01*
X16085647Y58851779D01*
X16246554Y58918428D01*
X16283146Y58942878D01*
X18502581Y58942878D01*
X18531336Y58412560D01*
X18678958Y58056169D01*
X18914725Y57994331D01*
X19670395Y58750000D01*
X20029605Y58750000D01*
X20785275Y57994331D01*
X21021042Y58056169D01*
X21197419Y58557122D01*
X21176503Y58942878D01*
X26122581Y58942878D01*
X26151336Y58412560D01*
X26298958Y58056169D01*
X26534725Y57994331D01*
X27290395Y58750000D01*
X27649605Y58750000D01*
X28405275Y57994331D01*
X28641042Y58056169D01*
X28817419Y58557122D01*
X28796503Y58942878D01*
X33742581Y58942878D01*
X33771336Y58412560D01*
X33918958Y58056169D01*
X34154725Y57994331D01*
X34910395Y58750000D01*
X35269605Y58750000D01*
X36025275Y57994331D01*
X36261042Y58056169D01*
X36437419Y58557122D01*
X36416503Y58942878D01*
X41362581Y58942878D01*
X41391336Y58412560D01*
X41538958Y58056169D01*
X41774725Y57994331D01*
X42530395Y58750000D01*
X42889605Y58750000D01*
X43645275Y57994331D01*
X43881042Y58056169D01*
X44057419Y58557122D01*
X44028664Y59087440D01*
X43881042Y59443831D01*
X43645275Y59505669D01*
X42889605Y58750000D01*
X42530395Y58750000D01*
X41774725Y59505669D01*
X41538958Y59443831D01*
X41362581Y58942878D01*
X36416503Y58942878D01*
X36408664Y59087440D01*
X36261042Y59443831D01*
X36025275Y59505669D01*
X35269605Y58750000D01*
X34910395Y58750000D01*
X34154725Y59505669D01*
X33918958Y59443831D01*
X33742581Y58942878D01*
X28796503Y58942878D01*
X28788664Y59087440D01*
X28641042Y59443831D01*
X28405275Y59505669D01*
X27649605Y58750000D01*
X27290395Y58750000D01*
X26534725Y59505669D01*
X26298958Y59443831D01*
X26122581Y58942878D01*
X21176503Y58942878D01*
X21168664Y59087440D01*
X21021042Y59443831D01*
X20785275Y59505669D01*
X20029605Y58750000D01*
X19670395Y58750000D01*
X18914725Y59505669D01*
X18678958Y59443831D01*
X18502581Y58942878D01*
X16283146Y58942878D01*
X16740973Y59248788D01*
X16740976Y59248789D01*
X16846093Y59353907D01*
X16951211Y59459024D01*
X16951212Y59459027D01*
X17102385Y59685275D01*
X19094331Y59685275D01*
X19850000Y58929605D01*
X20605669Y59685275D01*
X26714331Y59685275D01*
X27470000Y58929605D01*
X28225669Y59685275D01*
X34334331Y59685275D01*
X35090000Y58929605D01*
X35845669Y59685275D01*
X41954331Y59685275D01*
X42710000Y58929605D01*
X43465669Y59685275D01*
X43403831Y59921042D01*
X42902878Y60097419D01*
X42372560Y60068664D01*
X42016169Y59921042D01*
X41954331Y59685275D01*
X35845669Y59685275D01*
X35783831Y59921042D01*
X35282878Y60097419D01*
X34752560Y60068664D01*
X34396169Y59921042D01*
X34334331Y59685275D01*
X28225669Y59685275D01*
X28163831Y59921042D01*
X27662878Y60097419D01*
X27132560Y60068664D01*
X26776169Y59921042D01*
X26714331Y59685275D01*
X20605669Y59685275D01*
X20543831Y59921042D01*
X20042878Y60097419D01*
X19512560Y60068664D01*
X19156169Y59921042D01*
X19094331Y59685275D01*
X17102385Y59685275D01*
X17281572Y59953446D01*
X17382870Y60198000D01*
X43577131Y60198000D01*
X43678428Y59953446D01*
X44008788Y59459027D01*
X44008789Y59459024D01*
X44113907Y59353907D01*
X44219024Y59248789D01*
X44219027Y59248788D01*
X44713446Y58918428D01*
X44988132Y58804649D01*
X44988136Y58804649D01*
X45571341Y58688642D01*
X45868659Y58688642D01*
X46451869Y58804650D01*
X46565647Y58851779D01*
X46726554Y58918428D01*
X46763146Y58942878D01*
X48982581Y58942878D01*
X49011336Y58412560D01*
X49158958Y58056169D01*
X49394725Y57994331D01*
X50150395Y58750000D01*
X50509605Y58750000D01*
X51265275Y57994331D01*
X51501042Y58056169D01*
X51677419Y58557122D01*
X51656503Y58942878D01*
X56602581Y58942878D01*
X56631336Y58412560D01*
X56778958Y58056169D01*
X57014725Y57994331D01*
X57770395Y58750000D01*
X58129605Y58750000D01*
X58885275Y57994331D01*
X59121042Y58056169D01*
X59297419Y58557122D01*
X59268664Y59087440D01*
X59121042Y59443831D01*
X58885275Y59505669D01*
X58129605Y58750000D01*
X57770395Y58750000D01*
X57014725Y59505669D01*
X56778958Y59443831D01*
X56602581Y58942878D01*
X51656503Y58942878D01*
X51648664Y59087440D01*
X51501042Y59443831D01*
X51265275Y59505669D01*
X50509605Y58750000D01*
X50150395Y58750000D01*
X49394725Y59505669D01*
X49158958Y59443831D01*
X48982581Y58942878D01*
X46763146Y58942878D01*
X47220973Y59248788D01*
X47220976Y59248789D01*
X47326093Y59353907D01*
X47431211Y59459024D01*
X47431212Y59459027D01*
X47582385Y59685275D01*
X49574331Y59685275D01*
X50330000Y58929605D01*
X51085669Y59685275D01*
X57194331Y59685275D01*
X57950000Y58929605D01*
X58705669Y59685275D01*
X58643831Y59921042D01*
X58142878Y60097419D01*
X57612560Y60068664D01*
X57256169Y59921042D01*
X57194331Y59685275D01*
X51085669Y59685275D01*
X51023831Y59921042D01*
X50522878Y60097419D01*
X49992560Y60068664D01*
X49636169Y59921042D01*
X49574331Y59685275D01*
X47582385Y59685275D01*
X47761572Y59953446D01*
X47862870Y60198000D01*
X60198000Y60198000D01*
X60198000Y47862870D01*
X59953446Y47761572D01*
X59459027Y47431212D01*
X59459024Y47431211D01*
X59353907Y47326093D01*
X59248789Y47220976D01*
X59248789Y47220975D01*
X58918428Y46726554D01*
X58859666Y46584689D01*
X58804650Y46451869D01*
X58688642Y45868659D01*
X58688642Y45571341D01*
X58804650Y44988132D01*
X58918428Y44713446D01*
X59248788Y44219027D01*
X59248789Y44219024D01*
X59353907Y44113907D01*
X59459024Y44008789D01*
X59459027Y44008788D01*
X59953446Y43678428D01*
X60198000Y43577130D01*
X60198000Y17382870D01*
X59953446Y17281572D01*
X59459027Y16951212D01*
X59459024Y16951211D01*
X59353907Y16846093D01*
X59248789Y16740976D01*
X59248789Y16740975D01*
X58918428Y16246554D01*
X58859666Y16104689D01*
X58804650Y15971869D01*
X58688642Y15388659D01*
X58688642Y15091341D01*
X58804650Y14508132D01*
X58918428Y14233446D01*
X59248788Y13739027D01*
X59248789Y13739024D01*
X59353907Y13633907D01*
X59459024Y13528789D01*
X59459027Y13528788D01*
X59953446Y13198428D01*
X60198000Y13097130D01*
X60198000Y762000D01*
X47862870Y762000D01*
X47761572Y1006554D01*
X47582387Y1274725D01*
X47974331Y1274725D01*
X48036169Y1038958D01*
X48537122Y862581D01*
X49067440Y891336D01*
X49423831Y1038958D01*
X49485669Y1274725D01*
X55594331Y1274725D01*
X55656169Y1038958D01*
X56157122Y862581D01*
X56687440Y891336D01*
X57043831Y1038958D01*
X57105669Y1274725D01*
X56350000Y2030395D01*
X55594331Y1274725D01*
X49485669Y1274725D01*
X48730000Y2030395D01*
X47974331Y1274725D01*
X47582387Y1274725D01*
X47431211Y1500975D01*
X47431211Y1500976D01*
X47326093Y1606093D01*
X47220976Y1711211D01*
X47220973Y1711212D01*
X46726554Y2041572D01*
X46565647Y2108221D01*
X46451869Y2155350D01*
X45868659Y2271358D01*
X45571341Y2271358D01*
X44988136Y2155351D01*
X44713446Y2041572D01*
X44219027Y1711212D01*
X44219024Y1711211D01*
X44113907Y1606093D01*
X44008789Y1500976D01*
X44008789Y1500975D01*
X43678428Y1006554D01*
X43618793Y862581D01*
X43577131Y762000D01*
X17382870Y762000D01*
X17281572Y1006554D01*
X17102387Y1274725D01*
X17494331Y1274725D01*
X17556169Y1038958D01*
X18057122Y862581D01*
X18587440Y891336D01*
X18943831Y1038958D01*
X19005669Y1274725D01*
X25114331Y1274725D01*
X25176169Y1038958D01*
X25677122Y862581D01*
X26207440Y891336D01*
X26563831Y1038958D01*
X26625669Y1274725D01*
X32734331Y1274725D01*
X32796169Y1038958D01*
X33297122Y862581D01*
X33827440Y891336D01*
X34183831Y1038958D01*
X34245669Y1274725D01*
X40354331Y1274725D01*
X40416169Y1038958D01*
X40917122Y862581D01*
X41447440Y891336D01*
X41803831Y1038958D01*
X41865669Y1274725D01*
X41110000Y2030395D01*
X40354331Y1274725D01*
X34245669Y1274725D01*
X33490000Y2030395D01*
X32734331Y1274725D01*
X26625669Y1274725D01*
X25870000Y2030395D01*
X25114331Y1274725D01*
X19005669Y1274725D01*
X18250000Y2030395D01*
X17494331Y1274725D01*
X17102387Y1274725D01*
X16951211Y1500975D01*
X16951211Y1500976D01*
X16846093Y1606093D01*
X16740976Y1711211D01*
X16740973Y1711212D01*
X16246554Y2041572D01*
X16085647Y2108221D01*
X15971869Y2155350D01*
X15388659Y2271358D01*
X15091341Y2271358D01*
X14508136Y2155351D01*
X14233446Y2041572D01*
X13739027Y1711212D01*
X13739024Y1711211D01*
X13633907Y1606093D01*
X13528789Y1500976D01*
X13528789Y1500975D01*
X13198428Y1006554D01*
X13138793Y862581D01*
X13097131Y762000D01*
X762000Y762000D01*
X762000Y1274725D01*
X2254331Y1274725D01*
X2316169Y1038958D01*
X2817122Y862581D01*
X3347440Y891336D01*
X3703831Y1038958D01*
X3765669Y1274725D01*
X9874331Y1274725D01*
X9936169Y1038958D01*
X10437122Y862581D01*
X10967440Y891336D01*
X11323831Y1038958D01*
X11385669Y1274725D01*
X10630000Y2030395D01*
X9874331Y1274725D01*
X3765669Y1274725D01*
X3010000Y2030395D01*
X2254331Y1274725D01*
X762000Y1274725D01*
X762000Y2402878D01*
X1662581Y2402878D01*
X1691336Y1872560D01*
X1838958Y1516169D01*
X2074725Y1454331D01*
X2830395Y2210000D01*
X3189605Y2210000D01*
X3945275Y1454331D01*
X4181042Y1516169D01*
X4357419Y2017122D01*
X4336503Y2402878D01*
X9282581Y2402878D01*
X9311336Y1872560D01*
X9458958Y1516169D01*
X9694725Y1454331D01*
X10450395Y2210000D01*
X10809605Y2210000D01*
X11565275Y1454331D01*
X11801042Y1516169D01*
X11977419Y2017122D01*
X11956503Y2402878D01*
X16902581Y2402878D01*
X16931336Y1872560D01*
X17078958Y1516169D01*
X17314725Y1454331D01*
X18070395Y2210000D01*
X18429605Y2210000D01*
X19185275Y1454331D01*
X19421042Y1516169D01*
X19597419Y2017122D01*
X19576503Y2402878D01*
X24522581Y2402878D01*
X24551336Y1872560D01*
X24698958Y1516169D01*
X24934725Y1454331D01*
X25690395Y2210000D01*
X26049605Y2210000D01*
X26805275Y1454331D01*
X27041042Y1516169D01*
X27217419Y2017122D01*
X27196503Y2402878D01*
X32142581Y2402878D01*
X32171336Y1872560D01*
X32318958Y1516169D01*
X32554725Y1454331D01*
X33310395Y2210000D01*
X33669605Y2210000D01*
X34425275Y1454331D01*
X34661042Y1516169D01*
X34837419Y2017122D01*
X34816503Y2402878D01*
X39762581Y2402878D01*
X39791336Y1872560D01*
X39938958Y1516169D01*
X40174725Y1454331D01*
X40930395Y2210000D01*
X41289605Y2210000D01*
X42045275Y1454331D01*
X42281042Y1516169D01*
X42457419Y2017122D01*
X42436503Y2402878D01*
X47382581Y2402878D01*
X47411336Y1872560D01*
X47558958Y1516169D01*
X47794725Y1454331D01*
X48550395Y2210000D01*
X48909605Y2210000D01*
X49665275Y1454331D01*
X49901042Y1516169D01*
X50077419Y2017122D01*
X50056503Y2402878D01*
X55002581Y2402878D01*
X55031336Y1872560D01*
X55178958Y1516169D01*
X55414725Y1454331D01*
X56170395Y2210000D01*
X56529605Y2210000D01*
X57285275Y1454331D01*
X57521042Y1516169D01*
X57697419Y2017122D01*
X57668664Y2547440D01*
X57521042Y2903831D01*
X57285275Y2965669D01*
X56529605Y2210000D01*
X56170395Y2210000D01*
X55414725Y2965669D01*
X55178958Y2903831D01*
X55002581Y2402878D01*
X50056503Y2402878D01*
X50048664Y2547440D01*
X49901042Y2903831D01*
X49665275Y2965669D01*
X48909605Y2210000D01*
X48550395Y2210000D01*
X47794725Y2965669D01*
X47558958Y2903831D01*
X47382581Y2402878D01*
X42436503Y2402878D01*
X42428664Y2547440D01*
X42281042Y2903831D01*
X42045275Y2965669D01*
X41289605Y2210000D01*
X40930395Y2210000D01*
X40174725Y2965669D01*
X39938958Y2903831D01*
X39762581Y2402878D01*
X34816503Y2402878D01*
X34808664Y2547440D01*
X34661042Y2903831D01*
X34425275Y2965669D01*
X33669605Y2210000D01*
X33310395Y2210000D01*
X32554725Y2965669D01*
X32318958Y2903831D01*
X32142581Y2402878D01*
X27196503Y2402878D01*
X27188664Y2547440D01*
X27041042Y2903831D01*
X26805275Y2965669D01*
X26049605Y2210000D01*
X25690395Y2210000D01*
X24934725Y2965669D01*
X24698958Y2903831D01*
X24522581Y2402878D01*
X19576503Y2402878D01*
X19568664Y2547440D01*
X19421042Y2903831D01*
X19185275Y2965669D01*
X18429605Y2210000D01*
X18070395Y2210000D01*
X17314725Y2965669D01*
X17078958Y2903831D01*
X16902581Y2402878D01*
X11956503Y2402878D01*
X11948664Y2547440D01*
X11801042Y2903831D01*
X11565275Y2965669D01*
X10809605Y2210000D01*
X10450395Y2210000D01*
X9694725Y2965669D01*
X9458958Y2903831D01*
X9282581Y2402878D01*
X4336503Y2402878D01*
X4328664Y2547440D01*
X4181042Y2903831D01*
X3945275Y2965669D01*
X3189605Y2210000D01*
X2830395Y2210000D01*
X2074725Y2965669D01*
X1838958Y2903831D01*
X1662581Y2402878D01*
X762000Y2402878D01*
X762000Y3145275D01*
X2254331Y3145275D01*
X3010000Y2389605D01*
X3765669Y3145275D01*
X9874331Y3145275D01*
X10630000Y2389605D01*
X11385669Y3145275D01*
X17494331Y3145275D01*
X18250000Y2389605D01*
X19005669Y3145275D01*
X18943831Y3381042D01*
X18442878Y3557419D01*
X17912560Y3528664D01*
X17556169Y3381042D01*
X17494331Y3145275D01*
X11385669Y3145275D01*
X11323831Y3381042D01*
X10822878Y3557419D01*
X10292560Y3528664D01*
X9936169Y3381042D01*
X9874331Y3145275D01*
X3765669Y3145275D01*
X3703831Y3381042D01*
X3202878Y3557419D01*
X2672560Y3528664D01*
X2316169Y3381042D01*
X2254331Y3145275D01*
X762000Y3145275D01*
X762000Y12094725D01*
X3854331Y12094725D01*
X3916169Y11858958D01*
X4417122Y11682581D01*
X4947440Y11711336D01*
X5303831Y11858958D01*
X5365669Y12094725D01*
X4610000Y12850395D01*
X3854331Y12094725D01*
X762000Y12094725D01*
X762000Y13097131D01*
X845647Y13131779D01*
X1006554Y13198428D01*
X1043146Y13222878D01*
X3262581Y13222878D01*
X3291336Y12692560D01*
X3438958Y12336169D01*
X3674725Y12274331D01*
X4430395Y13030000D01*
X4789605Y13030000D01*
X5545275Y12274331D01*
X5781042Y12336169D01*
X5957419Y12837122D01*
X5928664Y13367440D01*
X5781042Y13723831D01*
X5545275Y13785669D01*
X4789605Y13030000D01*
X4430395Y13030000D01*
X3674725Y13785669D01*
X3438958Y13723831D01*
X3262581Y13222878D01*
X1043146Y13222878D01*
X1500973Y13528788D01*
X1500976Y13528789D01*
X1606093Y13633907D01*
X1711211Y13739024D01*
X1711212Y13739027D01*
X1862385Y13965275D01*
X3854331Y13965275D01*
X4610000Y13209605D01*
X5365669Y13965275D01*
X5303831Y14201042D01*
X4802878Y14377419D01*
X4272560Y14348664D01*
X3916169Y14201042D01*
X3854331Y13965275D01*
X1862385Y13965275D01*
X2041572Y14233446D01*
X2147124Y14488271D01*
X2324332Y14414687D01*
X2753784Y14414313D01*
X3061600Y14541500D01*
X6082934Y14541500D01*
X6388332Y14414687D01*
X6817784Y14414313D01*
X6858000Y14430930D01*
X6858000Y11745631D01*
X6669370Y11557000D01*
X4445000Y11557000D01*
X4153395Y11498996D01*
X4054377Y11432834D01*
X3906185Y11333816D01*
X3271186Y10698816D01*
X3271185Y10698815D01*
X3106004Y10451605D01*
X3048000Y10160000D01*
X3048000Y6479642D01*
X2895378Y6327286D01*
X2730687Y5930668D01*
X2730313Y5501216D01*
X2894311Y5104311D01*
X3197714Y4800378D01*
X3594332Y4635687D01*
X4023784Y4635313D01*
X4408440Y4794250D01*
X18415000Y4794250D01*
X18415000Y4001191D01*
X18511673Y3767802D01*
X18690301Y3589173D01*
X18923690Y3492500D01*
X22574250Y3492500D01*
X22733000Y3651250D01*
X22733000Y4953000D01*
X22987000Y4953000D01*
X22987000Y3651250D01*
X23145750Y3492500D01*
X25445252Y3492500D01*
X25176169Y3381042D01*
X25114331Y3145275D01*
X25870000Y2389605D01*
X26625669Y3145275D01*
X32734331Y3145275D01*
X33490000Y2389605D01*
X34245669Y3145275D01*
X40354331Y3145275D01*
X41110000Y2389605D01*
X41865669Y3145275D01*
X47974331Y3145275D01*
X48730000Y2389605D01*
X49485669Y3145275D01*
X55594331Y3145275D01*
X56350000Y2389605D01*
X57105669Y3145275D01*
X57043831Y3381042D01*
X56542878Y3557419D01*
X56012560Y3528664D01*
X55656169Y3381042D01*
X55594331Y3145275D01*
X49485669Y3145275D01*
X49423831Y3381042D01*
X48922878Y3557419D01*
X48392560Y3528664D01*
X48036169Y3381042D01*
X47974331Y3145275D01*
X41865669Y3145275D01*
X41803831Y3381042D01*
X41302878Y3557419D01*
X40772560Y3528664D01*
X40416169Y3381042D01*
X40354331Y3145275D01*
X34245669Y3145275D01*
X34183831Y3381042D01*
X33682878Y3557419D01*
X33152560Y3528664D01*
X32796169Y3381042D01*
X32734331Y3145275D01*
X26625669Y3145275D01*
X26563831Y3381042D01*
X26247264Y3492500D01*
X26796310Y3492500D01*
X27029699Y3589173D01*
X27208327Y3767802D01*
X27305000Y4001191D01*
X27305000Y4794250D01*
X27146250Y4953000D01*
X22987000Y4953000D01*
X22733000Y4953000D01*
X18573750Y4953000D01*
X18415000Y4794250D01*
X4408440Y4794250D01*
X4420689Y4799311D01*
X4724622Y5102714D01*
X4889313Y5499332D01*
X4889687Y5928784D01*
X4768119Y6223000D01*
X5080000Y6223000D01*
X5371605Y6281004D01*
X5618815Y6446185D01*
X6030631Y6858000D01*
X18402560Y6858000D01*
X18402560Y6667500D01*
X18446838Y6432183D01*
X18496359Y6355226D01*
X18415000Y6158809D01*
X18415000Y5365750D01*
X18573750Y5207000D01*
X22733000Y5207000D01*
X22733000Y5227000D01*
X22987000Y5227000D01*
X22987000Y5207000D01*
X27146250Y5207000D01*
X27305000Y5365750D01*
X27305000Y6158809D01*
X27224219Y6353831D01*
X27266431Y6415610D01*
X27317440Y6667500D01*
X27317440Y8572500D01*
X27273162Y8807817D01*
X27220920Y8889003D01*
X27266431Y8955610D01*
X27317440Y9207500D01*
X27317440Y11112500D01*
X27273162Y11347817D01*
X27134090Y11563941D01*
X26921890Y11708931D01*
X26670000Y11759940D01*
X20304780Y11759940D01*
X20543831Y11858958D01*
X20605669Y12094725D01*
X26714331Y12094725D01*
X26776169Y11858958D01*
X27277122Y11682581D01*
X27807440Y11711336D01*
X28163831Y11858958D01*
X28225669Y12094725D01*
X34334331Y12094725D01*
X34396169Y11858958D01*
X34897122Y11682581D01*
X35427440Y11711336D01*
X35783831Y11858958D01*
X35845669Y12094725D01*
X41954331Y12094725D01*
X42016169Y11858958D01*
X42517122Y11682581D01*
X43047440Y11711336D01*
X43403831Y11858958D01*
X43465669Y12094725D01*
X49574331Y12094725D01*
X49636169Y11858958D01*
X50137122Y11682581D01*
X50667440Y11711336D01*
X51023831Y11858958D01*
X51085669Y12094725D01*
X57194331Y12094725D01*
X57256169Y11858958D01*
X57757122Y11682581D01*
X58287440Y11711336D01*
X58643831Y11858958D01*
X58705669Y12094725D01*
X57950000Y12850395D01*
X57194331Y12094725D01*
X51085669Y12094725D01*
X50330000Y12850395D01*
X49574331Y12094725D01*
X43465669Y12094725D01*
X42710000Y12850395D01*
X41954331Y12094725D01*
X35845669Y12094725D01*
X35090000Y12850395D01*
X34334331Y12094725D01*
X28225669Y12094725D01*
X27470000Y12850395D01*
X26714331Y12094725D01*
X20605669Y12094725D01*
X19850000Y12850395D01*
X19094331Y12094725D01*
X19156169Y11858958D01*
X19437404Y11759940D01*
X19050000Y11759940D01*
X18814683Y11715662D01*
X18598559Y11576590D01*
X18453569Y11364390D01*
X18402560Y11112500D01*
X18402560Y10919526D01*
X18123395Y10863996D01*
X18024377Y10797834D01*
X17876185Y10698816D01*
X17241204Y10063834D01*
X17241177Y10063816D01*
X16194366Y9017004D01*
X5844642Y9017004D01*
X5842000Y9019650D01*
X5842000Y9209370D01*
X6030631Y9398000D01*
X7620000Y9398000D01*
X7911605Y9456004D01*
X8158815Y9621185D01*
X8793816Y10256185D01*
X8924391Y10451605D01*
X8958996Y10503395D01*
X9017000Y10795000D01*
X9017000Y12094725D01*
X11474331Y12094725D01*
X11536169Y11858958D01*
X12037122Y11682581D01*
X12567440Y11711336D01*
X12923831Y11858958D01*
X12985669Y12094725D01*
X12230000Y12850395D01*
X11474331Y12094725D01*
X9017000Y12094725D01*
X9017000Y13222878D01*
X10882581Y13222878D01*
X10911336Y12692560D01*
X11058958Y12336169D01*
X11294725Y12274331D01*
X12050395Y13030000D01*
X12409605Y13030000D01*
X13165275Y12274331D01*
X13401042Y12336169D01*
X13577419Y12837122D01*
X13556503Y13222878D01*
X18502581Y13222878D01*
X18531336Y12692560D01*
X18678958Y12336169D01*
X18914725Y12274331D01*
X19670395Y13030000D01*
X20029605Y13030000D01*
X20785275Y12274331D01*
X21021042Y12336169D01*
X21197419Y12837122D01*
X21176503Y13222878D01*
X26122581Y13222878D01*
X26151336Y12692560D01*
X26298958Y12336169D01*
X26534725Y12274331D01*
X27290395Y13030000D01*
X27649605Y13030000D01*
X28405275Y12274331D01*
X28641042Y12336169D01*
X28817419Y12837122D01*
X28796503Y13222878D01*
X33742581Y13222878D01*
X33771336Y12692560D01*
X33918958Y12336169D01*
X34154725Y12274331D01*
X34910395Y13030000D01*
X35269605Y13030000D01*
X36025275Y12274331D01*
X36261042Y12336169D01*
X36437419Y12837122D01*
X36416503Y13222878D01*
X41362581Y13222878D01*
X41391336Y12692560D01*
X41538958Y12336169D01*
X41774725Y12274331D01*
X42530395Y13030000D01*
X42889605Y13030000D01*
X43645275Y12274331D01*
X43881042Y12336169D01*
X44057419Y12837122D01*
X44036503Y13222878D01*
X48982581Y13222878D01*
X49011336Y12692560D01*
X49158958Y12336169D01*
X49394725Y12274331D01*
X50150395Y13030000D01*
X50509605Y13030000D01*
X51265275Y12274331D01*
X51501042Y12336169D01*
X51677419Y12837122D01*
X51656503Y13222878D01*
X56602581Y13222878D01*
X56631336Y12692560D01*
X56778958Y12336169D01*
X57014725Y12274331D01*
X57770395Y13030000D01*
X58129605Y13030000D01*
X58885275Y12274331D01*
X59121042Y12336169D01*
X59297419Y12837122D01*
X59268664Y13367440D01*
X59121042Y13723831D01*
X58885275Y13785669D01*
X58129605Y13030000D01*
X57770395Y13030000D01*
X57014725Y13785669D01*
X56778958Y13723831D01*
X56602581Y13222878D01*
X51656503Y13222878D01*
X51648664Y13367440D01*
X51501042Y13723831D01*
X51265275Y13785669D01*
X50509605Y13030000D01*
X50150395Y13030000D01*
X49394725Y13785669D01*
X49158958Y13723831D01*
X48982581Y13222878D01*
X44036503Y13222878D01*
X44028664Y13367440D01*
X43881042Y13723831D01*
X43645275Y13785669D01*
X42889605Y13030000D01*
X42530395Y13030000D01*
X41774725Y13785669D01*
X41538958Y13723831D01*
X41362581Y13222878D01*
X36416503Y13222878D01*
X36408664Y13367440D01*
X36261042Y13723831D01*
X36025275Y13785669D01*
X35269605Y13030000D01*
X34910395Y13030000D01*
X34154725Y13785669D01*
X33918958Y13723831D01*
X33742581Y13222878D01*
X28796503Y13222878D01*
X28788664Y13367440D01*
X28641042Y13723831D01*
X28405275Y13785669D01*
X27649605Y13030000D01*
X27290395Y13030000D01*
X26534725Y13785669D01*
X26298958Y13723831D01*
X26122581Y13222878D01*
X21176503Y13222878D01*
X21168664Y13367440D01*
X21021042Y13723831D01*
X20785275Y13785669D01*
X20029605Y13030000D01*
X19670395Y13030000D01*
X18914725Y13785669D01*
X18678958Y13723831D01*
X18502581Y13222878D01*
X13556503Y13222878D01*
X13548664Y13367440D01*
X13401042Y13723831D01*
X13165275Y13785669D01*
X12409605Y13030000D01*
X12050395Y13030000D01*
X11294725Y13785669D01*
X11058958Y13723831D01*
X10882581Y13222878D01*
X9017000Y13222878D01*
X9017000Y13965275D01*
X11474331Y13965275D01*
X12230000Y13209605D01*
X12985669Y13965275D01*
X12923831Y14201042D01*
X12422878Y14377419D01*
X11892560Y14348664D01*
X11536169Y14201042D01*
X11474331Y13965275D01*
X9017000Y13965275D01*
X9017000Y16514725D01*
X9874331Y16514725D01*
X9936169Y16278958D01*
X10437122Y16102581D01*
X10967440Y16131336D01*
X11323831Y16278958D01*
X11385669Y16514725D01*
X10630000Y17270395D01*
X9874331Y16514725D01*
X9017000Y16514725D01*
X9017000Y17642878D01*
X9282581Y17642878D01*
X9311336Y17112560D01*
X9458958Y16756169D01*
X9694725Y16694331D01*
X10450395Y17450000D01*
X9694725Y18205669D01*
X9458958Y18143831D01*
X9282581Y17642878D01*
X9017000Y17642878D01*
X9017000Y18385275D01*
X9874331Y18385275D01*
X10630000Y17629605D01*
X10644143Y17643747D01*
X10823748Y17464142D01*
X10809605Y17450000D01*
X11565275Y16694331D01*
X11801042Y16756169D01*
X11977419Y17257122D01*
X11948664Y17787440D01*
X11941960Y17803625D01*
X12123831Y17878958D01*
X12185669Y18114725D01*
X11430000Y18870395D01*
X11415858Y18856252D01*
X11236252Y19035858D01*
X11250395Y19050000D01*
X10494725Y19805669D01*
X10258958Y19743831D01*
X10082581Y19242878D01*
X10111336Y18712560D01*
X10118040Y18696375D01*
X9936169Y18621042D01*
X9874331Y18385275D01*
X9017000Y18385275D01*
X9017000Y29210002D01*
X9207500Y29210002D01*
X9207500Y23114000D01*
X9280005Y22749494D01*
X9486481Y22440481D01*
X11534344Y20392618D01*
X11092560Y20368664D01*
X10736169Y20221042D01*
X10674331Y19985275D01*
X11430000Y19229605D01*
X11444142Y19243748D01*
X11623748Y19064142D01*
X11609605Y19050000D01*
X12365275Y18294331D01*
X12601042Y18356169D01*
X12777419Y18857122D01*
X12760654Y19166308D01*
X13550481Y18376481D01*
X13859494Y18170005D01*
X14164177Y18109399D01*
X14164154Y18082576D01*
X14906284Y16286485D01*
X16279257Y14911113D01*
X18074050Y14165850D01*
X19146693Y14164914D01*
X19094331Y13965275D01*
X19850000Y13209605D01*
X20605669Y13965275D01*
X20543831Y14201042D01*
X20307812Y14284140D01*
X21813515Y14906284D01*
X21830111Y14922851D01*
X22118480Y14634482D01*
X22427493Y14428006D01*
X22791999Y14355501D01*
X27258652Y14355501D01*
X27132560Y14348664D01*
X26776169Y14201042D01*
X26714331Y13965275D01*
X27470000Y13209605D01*
X28225669Y13965275D01*
X28163831Y14201042D01*
X27725130Y14355501D01*
X34878652Y14355501D01*
X34752560Y14348664D01*
X34396169Y14201042D01*
X34334331Y13965275D01*
X35090000Y13209605D01*
X35845669Y13965275D01*
X41954331Y13965275D01*
X42710000Y13209605D01*
X43465669Y13965275D01*
X49574331Y13965275D01*
X50330000Y13209605D01*
X51085669Y13965275D01*
X57194331Y13965275D01*
X57950000Y13209605D01*
X58705669Y13965275D01*
X58643831Y14201042D01*
X58142878Y14377419D01*
X57612560Y14348664D01*
X57256169Y14201042D01*
X57194331Y13965275D01*
X51085669Y13965275D01*
X51023831Y14201042D01*
X50522878Y14377419D01*
X49992560Y14348664D01*
X49636169Y14201042D01*
X49574331Y13965275D01*
X43465669Y13965275D01*
X43403831Y14201042D01*
X42902878Y14377419D01*
X42372560Y14348664D01*
X42016169Y14201042D01*
X41954331Y13965275D01*
X35845669Y13965275D01*
X35783831Y14201042D01*
X35345130Y14355501D01*
X36644001Y14355501D01*
X37008507Y14428006D01*
X37317520Y14634482D01*
X38773520Y16090481D01*
X38904485Y16286485D01*
X38979995Y16399494D01*
X39002915Y16514725D01*
X40354331Y16514725D01*
X40416169Y16278958D01*
X40917122Y16102581D01*
X41447440Y16131336D01*
X41803831Y16278958D01*
X41865669Y16514725D01*
X47974331Y16514725D01*
X48036169Y16278958D01*
X48537122Y16102581D01*
X49067440Y16131336D01*
X49423831Y16278958D01*
X49485669Y16514725D01*
X55594331Y16514725D01*
X55656169Y16278958D01*
X56157122Y16102581D01*
X56687440Y16131336D01*
X57043831Y16278958D01*
X57105669Y16514725D01*
X56350000Y17270395D01*
X55594331Y16514725D01*
X49485669Y16514725D01*
X48730000Y17270395D01*
X47974331Y16514725D01*
X41865669Y16514725D01*
X41110000Y17270395D01*
X40354331Y16514725D01*
X39002915Y16514725D01*
X39052500Y16764000D01*
X39052500Y17642878D01*
X39762581Y17642878D01*
X39791336Y17112560D01*
X39938958Y16756169D01*
X40174725Y16694331D01*
X40930395Y17450000D01*
X41289605Y17450000D01*
X42045275Y16694331D01*
X42281042Y16756169D01*
X42457419Y17257122D01*
X42436503Y17642878D01*
X47382581Y17642878D01*
X47411336Y17112560D01*
X47558958Y16756169D01*
X47794725Y16694331D01*
X48550395Y17450000D01*
X48909605Y17450000D01*
X49665275Y16694331D01*
X49901042Y16756169D01*
X50077419Y17257122D01*
X50056503Y17642878D01*
X55002581Y17642878D01*
X55031336Y17112560D01*
X55178958Y16756169D01*
X55414725Y16694331D01*
X56170395Y17450000D01*
X56529605Y17450000D01*
X57285275Y16694331D01*
X57521042Y16756169D01*
X57697419Y17257122D01*
X57668664Y17787440D01*
X57521042Y18143831D01*
X57285275Y18205669D01*
X56529605Y17450000D01*
X56170395Y17450000D01*
X55414725Y18205669D01*
X55178958Y18143831D01*
X55002581Y17642878D01*
X50056503Y17642878D01*
X50048664Y17787440D01*
X49901042Y18143831D01*
X49665275Y18205669D01*
X48909605Y17450000D01*
X48550395Y17450000D01*
X47794725Y18205669D01*
X47558958Y18143831D01*
X47382581Y17642878D01*
X42436503Y17642878D01*
X42428664Y17787440D01*
X42281042Y18143831D01*
X42045275Y18205669D01*
X41289605Y17450000D01*
X40930395Y17450000D01*
X40174725Y18205669D01*
X39938958Y18143831D01*
X39762581Y17642878D01*
X39052500Y17642878D01*
X39052500Y18385275D01*
X40354331Y18385275D01*
X41110000Y17629605D01*
X41865669Y18385275D01*
X47974331Y18385275D01*
X48730000Y17629605D01*
X49485669Y18385275D01*
X55594331Y18385275D01*
X56350000Y17629605D01*
X57105669Y18385275D01*
X57043831Y18621042D01*
X56542878Y18797419D01*
X56012560Y18768664D01*
X55656169Y18621042D01*
X55594331Y18385275D01*
X49485669Y18385275D01*
X49423831Y18621042D01*
X48922878Y18797419D01*
X48392560Y18768664D01*
X48036169Y18621042D01*
X47974331Y18385275D01*
X41865669Y18385275D01*
X41803831Y18621042D01*
X41302878Y18797419D01*
X40772560Y18768664D01*
X40416169Y18621042D01*
X40354331Y18385275D01*
X39052500Y18385275D01*
X39052500Y24244560D01*
X39624000Y24244560D01*
X39859317Y24288838D01*
X40075441Y24427910D01*
X40220431Y24640110D01*
X40271440Y24892000D01*
X40271440Y25463500D01*
X47625000Y25463500D01*
X47989506Y25536005D01*
X48298519Y25742481D01*
X49441519Y26885481D01*
X49621508Y27154854D01*
X49636169Y27098958D01*
X50137122Y26922581D01*
X50667440Y26951336D01*
X51023831Y27098958D01*
X51085669Y27334725D01*
X57194331Y27334725D01*
X57256169Y27098958D01*
X57757122Y26922581D01*
X58287440Y26951336D01*
X58643831Y27098958D01*
X58705669Y27334725D01*
X57950000Y28090395D01*
X57194331Y27334725D01*
X51085669Y27334725D01*
X50330000Y28090395D01*
X50315858Y28076252D01*
X50136252Y28255858D01*
X50150395Y28270000D01*
X50509605Y28270000D01*
X51265275Y27514331D01*
X51501042Y27576169D01*
X51677419Y28077122D01*
X51656503Y28462878D01*
X56602581Y28462878D01*
X56631336Y27932560D01*
X56778958Y27576169D01*
X57014725Y27514331D01*
X57770395Y28270000D01*
X58129605Y28270000D01*
X58885275Y27514331D01*
X59121042Y27576169D01*
X59297419Y28077122D01*
X59268664Y28607440D01*
X59121042Y28963831D01*
X58885275Y29025669D01*
X58129605Y28270000D01*
X57770395Y28270000D01*
X57014725Y29025669D01*
X56778958Y28963831D01*
X56602581Y28462878D01*
X51656503Y28462878D01*
X51648664Y28607440D01*
X51501042Y28963831D01*
X51265275Y29025669D01*
X50509605Y28270000D01*
X50150395Y28270000D01*
X50136252Y28284142D01*
X50315858Y28463748D01*
X50330000Y28449605D01*
X51085669Y29205275D01*
X57194331Y29205275D01*
X57950000Y28449605D01*
X58705669Y29205275D01*
X58643831Y29441042D01*
X58142878Y29617419D01*
X57612560Y29588664D01*
X57256169Y29441042D01*
X57194331Y29205275D01*
X51085669Y29205275D01*
X51023831Y29441042D01*
X50522878Y29617419D01*
X49992560Y29588664D01*
X49720500Y29475973D01*
X49720500Y29958934D01*
X49847313Y30264332D01*
X49847687Y30693784D01*
X49683689Y31090689D01*
X49380286Y31394622D01*
X49252130Y31447837D01*
X49423831Y31518958D01*
X49485669Y31754725D01*
X55594331Y31754725D01*
X55656169Y31518958D01*
X56157122Y31342581D01*
X56687440Y31371336D01*
X57043831Y31518958D01*
X57105669Y31754725D01*
X56350000Y32510395D01*
X55594331Y31754725D01*
X49485669Y31754725D01*
X48730000Y32510395D01*
X47974331Y31754725D01*
X48036169Y31518958D01*
X48262655Y31439216D01*
X48157311Y31395689D01*
X47853378Y31092286D01*
X47688687Y30695668D01*
X47688313Y30266216D01*
X47815500Y29958400D01*
X47815500Y27953538D01*
X47230462Y27368500D01*
X43729944Y27368500D01*
X43760526Y27399082D01*
X43645277Y27514331D01*
X43881042Y27576169D01*
X44057419Y28077122D01*
X44028664Y28607440D01*
X43881042Y28963831D01*
X43645275Y29025669D01*
X42889605Y28270000D01*
X42903748Y28255858D01*
X42724142Y28076252D01*
X42710000Y28090395D01*
X42695858Y28076252D01*
X42516252Y28255858D01*
X42530395Y28270000D01*
X41774725Y29025669D01*
X41538958Y28963831D01*
X41362581Y28462878D01*
X41391336Y27932560D01*
X41538958Y27576169D01*
X41774723Y27514331D01*
X41659474Y27399082D01*
X41690056Y27368500D01*
X40271440Y27368500D01*
X40271440Y27940000D01*
X40227162Y28175317D01*
X40088090Y28391441D01*
X39875890Y28536431D01*
X39624000Y28587440D01*
X39052500Y28587440D01*
X39052500Y29205275D01*
X41954331Y29205275D01*
X42710000Y28449605D01*
X43465669Y29205275D01*
X43403831Y29441042D01*
X42902878Y29617419D01*
X42372560Y29588664D01*
X42016169Y29441042D01*
X41954331Y29205275D01*
X39052500Y29205275D01*
X39052500Y29958934D01*
X39179313Y30264332D01*
X39179687Y30693784D01*
X39015689Y31090689D01*
X38712286Y31394622D01*
X38315668Y31559313D01*
X37886216Y31559687D01*
X37489311Y31395689D01*
X37185378Y31092286D01*
X37020687Y30695668D01*
X37020313Y30266216D01*
X37147500Y29958400D01*
X37147500Y28587440D01*
X36576000Y28587440D01*
X36411428Y28556474D01*
X36408664Y28607440D01*
X36261042Y28963831D01*
X36025275Y29025669D01*
X35269605Y28270000D01*
X35283748Y28255858D01*
X35104142Y28076252D01*
X35090000Y28090395D01*
X34334331Y27334725D01*
X34396169Y27098958D01*
X34897122Y26922581D01*
X35427440Y26951336D01*
X35783831Y27098958D01*
X35845669Y27334723D01*
X35928560Y27251832D01*
X35928560Y24892000D01*
X35972838Y24656683D01*
X36111910Y24440559D01*
X36324110Y24295569D01*
X36576000Y24244560D01*
X37147500Y24244560D01*
X37147500Y17158539D01*
X36249463Y16260501D01*
X34139272Y16260501D01*
X34183831Y16278958D01*
X34245669Y16514725D01*
X33490000Y17270395D01*
X32734331Y16514725D01*
X32796169Y16278958D01*
X32848591Y16260501D01*
X26519272Y16260501D01*
X26563831Y16278958D01*
X26625669Y16514725D01*
X25870000Y17270395D01*
X25114331Y16514725D01*
X25176169Y16278958D01*
X25228591Y16260501D01*
X23186537Y16260501D01*
X23178325Y16268713D01*
X23188887Y16279257D01*
X23755111Y17642878D01*
X24522581Y17642878D01*
X24551336Y17112560D01*
X24698958Y16756169D01*
X24934725Y16694331D01*
X25690395Y17450000D01*
X26049605Y17450000D01*
X26805275Y16694331D01*
X27041042Y16756169D01*
X27217419Y17257122D01*
X27196503Y17642878D01*
X32142581Y17642878D01*
X32171336Y17112560D01*
X32318958Y16756169D01*
X32554725Y16694331D01*
X33310395Y17450000D01*
X33669605Y17450000D01*
X34425275Y16694331D01*
X34661042Y16756169D01*
X34837419Y17257122D01*
X34808664Y17787440D01*
X34661042Y18143831D01*
X34425275Y18205669D01*
X33669605Y17450000D01*
X33310395Y17450000D01*
X32554725Y18205669D01*
X32318958Y18143831D01*
X32142581Y17642878D01*
X27196503Y17642878D01*
X27188664Y17787440D01*
X27041042Y18143831D01*
X26805275Y18205669D01*
X26049605Y17450000D01*
X25690395Y17450000D01*
X24934725Y18205669D01*
X24698958Y18143831D01*
X24522581Y17642878D01*
X23755111Y17642878D01*
X23934150Y18074050D01*
X23934170Y18097500D01*
X24130000Y18097500D01*
X24494506Y18170005D01*
X24803519Y18376481D01*
X24812313Y18385275D01*
X25114331Y18385275D01*
X25870000Y17629605D01*
X26625669Y18385275D01*
X32734331Y18385275D01*
X33490000Y17629605D01*
X34245669Y18385275D01*
X34183831Y18621042D01*
X33682878Y18797419D01*
X33152560Y18768664D01*
X32796169Y18621042D01*
X32734331Y18385275D01*
X26625669Y18385275D01*
X26563831Y18621042D01*
X26062878Y18797419D01*
X25532560Y18768664D01*
X25176169Y18621042D01*
X25114331Y18385275D01*
X24812313Y18385275D01*
X31153519Y24726481D01*
X31359995Y25035494D01*
X31432500Y25400000D01*
X31432500Y28331288D01*
X31636996Y28462878D01*
X33742581Y28462878D01*
X33771336Y27932560D01*
X33918958Y27576169D01*
X34154725Y27514331D01*
X34910395Y28270000D01*
X34154725Y29025669D01*
X33918958Y28963831D01*
X33742581Y28462878D01*
X31636996Y28462878D01*
X31642641Y28466510D01*
X31673381Y28511500D01*
X31877000Y28511500D01*
X32241506Y28584005D01*
X32550519Y28790481D01*
X32965313Y29205275D01*
X34334331Y29205275D01*
X35090000Y28449605D01*
X35845669Y29205275D01*
X35783831Y29441042D01*
X35282878Y29617419D01*
X34752560Y29588664D01*
X34396169Y29441042D01*
X34334331Y29205275D01*
X32965313Y29205275D01*
X33198069Y29438031D01*
X33503689Y29564311D01*
X33807622Y29867714D01*
X33972313Y30264332D01*
X33972687Y30693784D01*
X33808689Y31090689D01*
X33543880Y31355961D01*
X33827440Y31371336D01*
X34183831Y31518958D01*
X34245669Y31754725D01*
X40354331Y31754725D01*
X40416169Y31518958D01*
X40917122Y31342581D01*
X41447440Y31371336D01*
X41803831Y31518958D01*
X41865669Y31754725D01*
X41110000Y32510395D01*
X40354331Y31754725D01*
X34245669Y31754725D01*
X33490000Y32510395D01*
X32734331Y31754725D01*
X32785511Y31559594D01*
X32679216Y31559687D01*
X32282311Y31395689D01*
X31978378Y31092286D01*
X31850653Y30784691D01*
X31772422Y30706460D01*
X31826200Y30836291D01*
X31826200Y31210250D01*
X31667450Y31369000D01*
X30607000Y31369000D01*
X30607000Y31349000D01*
X30353000Y31349000D01*
X30353000Y31369000D01*
X29292550Y31369000D01*
X29133800Y31210250D01*
X29133800Y30836291D01*
X29230473Y30602902D01*
X29350536Y30482839D01*
X29317359Y30461490D01*
X29172369Y30249290D01*
X29121360Y29997400D01*
X29121360Y28930600D01*
X29165638Y28695283D01*
X29304710Y28479159D01*
X29516910Y28334169D01*
X29527500Y28332024D01*
X29527500Y25794538D01*
X23881621Y20148659D01*
X23193716Y21813515D01*
X23177149Y21830111D01*
X23533519Y22186481D01*
X23739995Y22495494D01*
X23812500Y22860000D01*
X23812500Y27334725D01*
X26714331Y27334725D01*
X26776169Y27098958D01*
X27277122Y26922581D01*
X27807440Y26951336D01*
X28163831Y27098958D01*
X28225669Y27334725D01*
X27470000Y28090395D01*
X26714331Y27334725D01*
X23812500Y27334725D01*
X23812500Y28331288D01*
X24016996Y28462878D01*
X26122581Y28462878D01*
X26151336Y27932560D01*
X26298958Y27576169D01*
X26534725Y27514331D01*
X27290395Y28270000D01*
X27649605Y28270000D01*
X28405275Y27514331D01*
X28641042Y27576169D01*
X28817419Y28077122D01*
X28788664Y28607440D01*
X28641042Y28963831D01*
X28405275Y29025669D01*
X27649605Y28270000D01*
X27290395Y28270000D01*
X26534725Y29025669D01*
X26298958Y28963831D01*
X26122581Y28462878D01*
X24016996Y28462878D01*
X24022641Y28466510D01*
X24053381Y28511500D01*
X24892000Y28511500D01*
X25256506Y28584005D01*
X25565519Y28790481D01*
X25980313Y29205275D01*
X26714331Y29205275D01*
X27470000Y28449605D01*
X28225669Y29205275D01*
X28163831Y29441042D01*
X27662878Y29617419D01*
X27132560Y29588664D01*
X26776169Y29441042D01*
X26714331Y29205275D01*
X25980313Y29205275D01*
X26213069Y29438031D01*
X26518689Y29564311D01*
X26822622Y29867714D01*
X26987313Y30264332D01*
X26987687Y30693784D01*
X26823689Y31090689D01*
X26520286Y31394622D01*
X26392130Y31447837D01*
X26563831Y31518958D01*
X26625669Y31754725D01*
X25870000Y32510395D01*
X25114331Y31754725D01*
X25176169Y31518958D01*
X25402655Y31439216D01*
X25297311Y31395689D01*
X24993378Y31092286D01*
X24865653Y30784691D01*
X24497462Y30416500D01*
X24056101Y30416500D01*
X24035290Y30448841D01*
X23987868Y30481243D01*
X24109527Y30602902D01*
X24206200Y30836291D01*
X24206200Y31210250D01*
X24047450Y31369000D01*
X22987000Y31369000D01*
X22987000Y31349000D01*
X22733000Y31349000D01*
X22733000Y31369000D01*
X21672550Y31369000D01*
X21513800Y31210250D01*
X21513800Y30836291D01*
X21610473Y30602902D01*
X21730536Y30482839D01*
X21697359Y30461490D01*
X21552369Y30249290D01*
X21501360Y29997400D01*
X21501360Y28930600D01*
X21545638Y28695283D01*
X21684710Y28479159D01*
X21896910Y28334169D01*
X21907500Y28332024D01*
X21907500Y23254538D01*
X21831287Y23178325D01*
X21820743Y23188887D01*
X20025950Y23934150D01*
X20002500Y23934170D01*
X20002500Y24384000D01*
X19929995Y24748506D01*
X19723519Y25057519D01*
X19240500Y25540538D01*
X19240500Y27069266D01*
X19657122Y26922581D01*
X20187440Y26951336D01*
X20543831Y27098958D01*
X20605669Y27334725D01*
X19850000Y28090395D01*
X19835858Y28076252D01*
X19656252Y28255858D01*
X19670395Y28270000D01*
X20029605Y28270000D01*
X20785275Y27514331D01*
X21021042Y27576169D01*
X21197419Y28077122D01*
X21168664Y28607440D01*
X21021042Y28963831D01*
X20785275Y29025669D01*
X20029605Y28270000D01*
X19670395Y28270000D01*
X19656252Y28284142D01*
X19835858Y28463748D01*
X19850000Y28449605D01*
X20605669Y29205275D01*
X20543831Y29441042D01*
X20042878Y29617419D01*
X19512560Y29588664D01*
X19240500Y29475973D01*
X19240500Y29958934D01*
X19367313Y30264332D01*
X19367687Y30693784D01*
X19203689Y31090689D01*
X18900286Y31394622D01*
X18772130Y31447837D01*
X18943831Y31518958D01*
X19005669Y31754725D01*
X18250000Y32510395D01*
X17494331Y31754725D01*
X17556169Y31518958D01*
X17782655Y31439216D01*
X17677311Y31395689D01*
X17373378Y31092286D01*
X17208687Y30695668D01*
X17208313Y30266216D01*
X17335500Y29958400D01*
X17335500Y28224521D01*
X17228090Y28391441D01*
X17015890Y28536431D01*
X16764000Y28587440D01*
X16192500Y28587440D01*
X16192500Y29958934D01*
X16319313Y30264332D01*
X16319687Y30693784D01*
X16155689Y31090689D01*
X15852286Y31394622D01*
X15455668Y31559313D01*
X15026216Y31559687D01*
X14629311Y31395689D01*
X14325378Y31092286D01*
X14160687Y30695668D01*
X14160313Y30266216D01*
X14287500Y29958400D01*
X14287500Y28587440D01*
X13716000Y28587440D01*
X13551428Y28556474D01*
X13548664Y28607440D01*
X13401042Y28963831D01*
X13165275Y29025669D01*
X12409605Y28270000D01*
X12423748Y28255858D01*
X12244142Y28076252D01*
X12230000Y28090395D01*
X11474331Y27334725D01*
X11536169Y27098958D01*
X12037122Y26922581D01*
X12567440Y26951336D01*
X12923831Y27098958D01*
X12985669Y27334723D01*
X13068560Y27251832D01*
X13068560Y24892000D01*
X13112838Y24656683D01*
X13251910Y24440559D01*
X13464110Y24295569D01*
X13716000Y24244560D01*
X14287500Y24244560D01*
X14287500Y22860000D01*
X14360005Y22495494D01*
X14566481Y22186481D01*
X14921675Y21831287D01*
X14911113Y21820743D01*
X14291790Y20329248D01*
X11112500Y23508538D01*
X11112500Y27562126D01*
X11294725Y27514331D01*
X12050395Y28270000D01*
X12036252Y28284142D01*
X12215858Y28463748D01*
X12230000Y28449605D01*
X12985669Y29205275D01*
X12923831Y29441042D01*
X12422878Y29617419D01*
X12074992Y29598556D01*
X12344620Y29867714D01*
X12509311Y30264332D01*
X12509685Y30693784D01*
X12345687Y31090689D01*
X12042284Y31394622D01*
X11645666Y31559313D01*
X11334487Y31559584D01*
X11385669Y31754725D01*
X10630000Y32510395D01*
X9874331Y31754725D01*
X9936169Y31518958D01*
X10437122Y31342581D01*
X10785004Y31361444D01*
X10515376Y31092286D01*
X10387651Y30784691D01*
X9486481Y29883521D01*
X9280005Y29574508D01*
X9207500Y29210002D01*
X9017000Y29210002D01*
X9017000Y32069370D01*
X9310763Y32363133D01*
X9311336Y32352560D01*
X9458958Y31996169D01*
X9694725Y31934331D01*
X10450395Y32690000D01*
X10809605Y32690000D01*
X11565275Y31934331D01*
X11801042Y31996169D01*
X11977419Y32497122D01*
X11948664Y33027440D01*
X11801042Y33383831D01*
X11565275Y33445669D01*
X10809605Y32690000D01*
X10450395Y32690000D01*
X10436252Y32704142D01*
X10615858Y32883748D01*
X10630000Y32869605D01*
X11385669Y33625275D01*
X11366388Y33698788D01*
X11563941Y33825910D01*
X11708931Y34038110D01*
X11753510Y34258250D01*
X13081000Y34258250D01*
X13081000Y32893691D01*
X13177673Y32660302D01*
X13356301Y32481673D01*
X13589690Y32385000D01*
X14954250Y32385000D01*
X15113000Y32543750D01*
X15113000Y34417000D01*
X15367000Y34417000D01*
X15367000Y32543750D01*
X15525750Y32385000D01*
X16890310Y32385000D01*
X16928714Y32400908D01*
X16931336Y32352560D01*
X17078958Y31996169D01*
X17314725Y31934331D01*
X18070395Y32690000D01*
X18429605Y32690000D01*
X19185275Y31934331D01*
X19421042Y31996169D01*
X19477213Y32155709D01*
X21513800Y32155709D01*
X21513800Y31781750D01*
X21672550Y31623000D01*
X22733000Y31623000D01*
X22733000Y32505650D01*
X22987000Y32505650D01*
X22987000Y31623000D01*
X24047450Y31623000D01*
X24206200Y31781750D01*
X24206200Y32155709D01*
X24109527Y32389098D01*
X23930899Y32567727D01*
X23697510Y32664400D01*
X23145750Y32664400D01*
X22987000Y32505650D01*
X22733000Y32505650D01*
X22574250Y32664400D01*
X22022490Y32664400D01*
X21789101Y32567727D01*
X21610473Y32389098D01*
X21513800Y32155709D01*
X19477213Y32155709D01*
X19597419Y32497122D01*
X19576503Y32882878D01*
X24522581Y32882878D01*
X24551336Y32352560D01*
X24698958Y31996169D01*
X24934725Y31934331D01*
X25690395Y32690000D01*
X26049605Y32690000D01*
X26805275Y31934331D01*
X27041042Y31996169D01*
X27097213Y32155709D01*
X29133800Y32155709D01*
X29133800Y31781750D01*
X29292550Y31623000D01*
X30353000Y31623000D01*
X30353000Y32505650D01*
X30607000Y32505650D01*
X30607000Y31623000D01*
X31667450Y31623000D01*
X31826200Y31781750D01*
X31826200Y32155709D01*
X31729527Y32389098D01*
X31550899Y32567727D01*
X31317510Y32664400D01*
X30765750Y32664400D01*
X30607000Y32505650D01*
X30353000Y32505650D01*
X30194250Y32664400D01*
X29642490Y32664400D01*
X29409101Y32567727D01*
X29230473Y32389098D01*
X29133800Y32155709D01*
X27097213Y32155709D01*
X27217419Y32497122D01*
X27196503Y32882878D01*
X32142581Y32882878D01*
X32171336Y32352560D01*
X32318958Y31996169D01*
X32554725Y31934331D01*
X33310395Y32690000D01*
X33669605Y32690000D01*
X34425275Y31934331D01*
X34661042Y31996169D01*
X34837419Y32497122D01*
X34808664Y33027440D01*
X34661042Y33383831D01*
X34425275Y33445669D01*
X33669605Y32690000D01*
X33310395Y32690000D01*
X32554725Y33445669D01*
X32318958Y33383831D01*
X32142581Y32882878D01*
X27196503Y32882878D01*
X27188664Y33027440D01*
X27041042Y33383831D01*
X26805275Y33445669D01*
X26049605Y32690000D01*
X25690395Y32690000D01*
X24934725Y33445669D01*
X24698958Y33383831D01*
X24522581Y32882878D01*
X19576503Y32882878D01*
X19568664Y33027440D01*
X19421042Y33383831D01*
X19185275Y33445669D01*
X18429605Y32690000D01*
X18070395Y32690000D01*
X18056252Y32704142D01*
X18235858Y32883748D01*
X18250000Y32869605D01*
X19005669Y33625275D01*
X25114331Y33625275D01*
X25870000Y32869605D01*
X26625669Y33625275D01*
X32734331Y33625275D01*
X33490000Y32869605D01*
X34245669Y33625275D01*
X34183831Y33861042D01*
X33682878Y34037419D01*
X33152560Y34008664D01*
X32796169Y33861042D01*
X32734331Y33625275D01*
X26625669Y33625275D01*
X26563831Y33861042D01*
X26062878Y34037419D01*
X25532560Y34008664D01*
X25176169Y33861042D01*
X25114331Y33625275D01*
X19005669Y33625275D01*
X18943831Y33861042D01*
X18442878Y34037419D01*
X17912560Y34008664D01*
X17556169Y33861042D01*
X17494331Y33625277D01*
X17399000Y33720608D01*
X17399000Y34258250D01*
X35941000Y34258250D01*
X35941000Y32893691D01*
X36037673Y32660302D01*
X36216301Y32481673D01*
X36449690Y32385000D01*
X37814250Y32385000D01*
X37973000Y32543750D01*
X37973000Y34417000D01*
X38227000Y34417000D01*
X38227000Y32543750D01*
X38385750Y32385000D01*
X39750310Y32385000D01*
X39788714Y32400908D01*
X39791336Y32352560D01*
X39938958Y31996169D01*
X40174725Y31934331D01*
X40930395Y32690000D01*
X41289605Y32690000D01*
X42045275Y31934331D01*
X42281042Y31996169D01*
X42457419Y32497122D01*
X42436503Y32882878D01*
X47382581Y32882878D01*
X47411336Y32352560D01*
X47558958Y31996169D01*
X47794725Y31934331D01*
X48550395Y32690000D01*
X48909605Y32690000D01*
X49665275Y31934331D01*
X49901042Y31996169D01*
X50077419Y32497122D01*
X50056503Y32882878D01*
X55002581Y32882878D01*
X55031336Y32352560D01*
X55178958Y31996169D01*
X55414725Y31934331D01*
X56170395Y32690000D01*
X56529605Y32690000D01*
X57285275Y31934331D01*
X57521042Y31996169D01*
X57697419Y32497122D01*
X57668664Y33027440D01*
X57521042Y33383831D01*
X57285275Y33445669D01*
X56529605Y32690000D01*
X56170395Y32690000D01*
X55414725Y33445669D01*
X55178958Y33383831D01*
X55002581Y32882878D01*
X50056503Y32882878D01*
X50048664Y33027440D01*
X49901042Y33383831D01*
X49665275Y33445669D01*
X48909605Y32690000D01*
X48550395Y32690000D01*
X47794725Y33445669D01*
X47558958Y33383831D01*
X47382581Y32882878D01*
X42436503Y32882878D01*
X42428664Y33027440D01*
X42281042Y33383831D01*
X42045275Y33445669D01*
X41289605Y32690000D01*
X40930395Y32690000D01*
X40916252Y32704142D01*
X41095858Y32883748D01*
X41110000Y32869605D01*
X41865669Y33625275D01*
X41803831Y33861042D01*
X41302878Y34037419D01*
X40772560Y34008664D01*
X40416169Y33861042D01*
X40354331Y33625277D01*
X40259000Y33720608D01*
X40259000Y34258250D01*
X40100250Y34417000D01*
X38227000Y34417000D01*
X37973000Y34417000D01*
X36099750Y34417000D01*
X35941000Y34258250D01*
X17399000Y34258250D01*
X17240250Y34417000D01*
X15367000Y34417000D01*
X15113000Y34417000D01*
X13239750Y34417000D01*
X13081000Y34258250D01*
X11753510Y34258250D01*
X11759940Y34290000D01*
X11759940Y36194309D01*
X13081000Y36194309D01*
X13081000Y34829750D01*
X13239750Y34671000D01*
X15113000Y34671000D01*
X15113000Y36544250D01*
X15367000Y36544250D01*
X15367000Y34671000D01*
X17240250Y34671000D01*
X17399000Y34829750D01*
X17399000Y36194309D01*
X35941000Y36194309D01*
X35941000Y34829750D01*
X36099750Y34671000D01*
X37973000Y34671000D01*
X37973000Y36544250D01*
X38227000Y36544250D01*
X38227000Y34671000D01*
X40100250Y34671000D01*
X40259000Y34829750D01*
X40259000Y36194309D01*
X40162327Y36427698D01*
X39983699Y36606327D01*
X39750310Y36703000D01*
X38385750Y36703000D01*
X38227000Y36544250D01*
X37973000Y36544250D01*
X37814250Y36703000D01*
X36449690Y36703000D01*
X36216301Y36606327D01*
X36037673Y36427698D01*
X35941000Y36194309D01*
X17399000Y36194309D01*
X17302327Y36427698D01*
X17123699Y36606327D01*
X16890310Y36703000D01*
X15525750Y36703000D01*
X15367000Y36544250D01*
X15113000Y36544250D01*
X14954250Y36703000D01*
X13589690Y36703000D01*
X13356301Y36606327D01*
X13177673Y36427698D01*
X13081000Y36194309D01*
X11759940Y36194309D01*
X11759940Y38411745D01*
X38591350Y38411745D01*
X39086113Y37807188D01*
X40871147Y37038840D01*
X42814337Y37012083D01*
X44619850Y37730990D01*
X44733887Y37807188D01*
X45228650Y38411745D01*
X41910000Y41730395D01*
X38591350Y38411745D01*
X11759940Y38411745D01*
X11759940Y41005663D01*
X37012083Y41005663D01*
X37730990Y39200150D01*
X37807188Y39086113D01*
X38411745Y38591350D01*
X41730395Y41910000D01*
X38411745Y45228650D01*
X37807188Y44733887D01*
X37038840Y42948853D01*
X37012083Y41005663D01*
X11759940Y41005663D01*
X11759940Y41910000D01*
X11715662Y42145317D01*
X11607136Y42313972D01*
X12037122Y42162581D01*
X12567440Y42191336D01*
X12923831Y42338958D01*
X12985669Y42574725D01*
X19094331Y42574725D01*
X19156169Y42338958D01*
X19657122Y42162581D01*
X20187440Y42191336D01*
X20543831Y42338958D01*
X20605669Y42574725D01*
X26714331Y42574725D01*
X26776169Y42338958D01*
X27277122Y42162581D01*
X27807440Y42191336D01*
X28163831Y42338958D01*
X28225669Y42574725D01*
X34334331Y42574725D01*
X34396169Y42338958D01*
X34897122Y42162581D01*
X35427440Y42191336D01*
X35783831Y42338958D01*
X35845669Y42574725D01*
X35090000Y43330395D01*
X34334331Y42574725D01*
X28225669Y42574725D01*
X27470000Y43330395D01*
X26714331Y42574725D01*
X20605669Y42574725D01*
X19850000Y43330395D01*
X19094331Y42574725D01*
X12985669Y42574725D01*
X12230000Y43330395D01*
X11474331Y42574725D01*
X11520159Y42399999D01*
X11364390Y42506431D01*
X11112500Y42557440D01*
X9207500Y42557440D01*
X8972183Y42513162D01*
X8890997Y42460920D01*
X8824390Y42506431D01*
X8572500Y42557440D01*
X6667500Y42557440D01*
X6432183Y42513162D01*
X6355226Y42463641D01*
X6158809Y42545000D01*
X5365750Y42545000D01*
X5355072Y42534322D01*
X5365669Y42574725D01*
X4610000Y43330395D01*
X3854331Y42574725D01*
X3875755Y42493043D01*
X3767802Y42448327D01*
X3589173Y42269699D01*
X3492500Y42036310D01*
X3492500Y38385750D01*
X3651250Y38227000D01*
X4953000Y38227000D01*
X4953000Y38247000D01*
X5207000Y38247000D01*
X5207000Y38227000D01*
X5227000Y38227000D01*
X5227000Y37973000D01*
X5207000Y37973000D01*
X5207000Y33813750D01*
X5365750Y33655000D01*
X6158809Y33655000D01*
X6353831Y33735781D01*
X6415610Y33693569D01*
X6667500Y33642560D01*
X6858000Y33642560D01*
X6858000Y16557396D01*
X6819668Y16573313D01*
X6390216Y16573687D01*
X6082400Y16446500D01*
X3747775Y16446500D01*
X3765669Y16514725D01*
X3010000Y17270395D01*
X2304193Y16564587D01*
X1931864Y16410744D01*
X1711211Y16740975D01*
X1711211Y16740976D01*
X1606093Y16846093D01*
X1500976Y16951211D01*
X1500973Y16951212D01*
X1006554Y17281572D01*
X845647Y17348221D01*
X762000Y17382869D01*
X762000Y17642878D01*
X1662581Y17642878D01*
X1691336Y17112560D01*
X1838958Y16756169D01*
X2074725Y16694331D01*
X2830395Y17450000D01*
X3189605Y17450000D01*
X3945275Y16694331D01*
X4181042Y16756169D01*
X4357419Y17257122D01*
X4328664Y17787440D01*
X4181042Y18143831D01*
X3945275Y18205669D01*
X3189605Y17450000D01*
X2830395Y17450000D01*
X2074725Y18205669D01*
X1838958Y18143831D01*
X1662581Y17642878D01*
X762000Y17642878D01*
X762000Y18385275D01*
X2254331Y18385275D01*
X3010000Y17629605D01*
X3765669Y18385275D01*
X3703831Y18621042D01*
X3202878Y18797419D01*
X2672560Y18768664D01*
X2316169Y18621042D01*
X2254331Y18385275D01*
X762000Y18385275D01*
X762000Y27334725D01*
X3854331Y27334725D01*
X3916169Y27098958D01*
X4417122Y26922581D01*
X4947440Y26951336D01*
X5303831Y27098958D01*
X5365669Y27334725D01*
X4610000Y28090395D01*
X3854331Y27334725D01*
X762000Y27334725D01*
X762000Y28462878D01*
X3262581Y28462878D01*
X3291336Y27932560D01*
X3438958Y27576169D01*
X3674725Y27514331D01*
X4430395Y28270000D01*
X4789605Y28270000D01*
X5545275Y27514331D01*
X5781042Y27576169D01*
X5957419Y28077122D01*
X5928664Y28607440D01*
X5781042Y28963831D01*
X5545275Y29025669D01*
X4789605Y28270000D01*
X4430395Y28270000D01*
X3674725Y29025669D01*
X3438958Y28963831D01*
X3262581Y28462878D01*
X762000Y28462878D01*
X762000Y29842575D01*
X1038714Y29565378D01*
X1435332Y29400687D01*
X1864784Y29400313D01*
X2172600Y29527500D01*
X4124897Y29527500D01*
X3916169Y29441042D01*
X3854331Y29205275D01*
X4610000Y28449605D01*
X5365669Y29205275D01*
X5314431Y29400627D01*
X5674784Y29400313D01*
X6071689Y29564311D01*
X6375622Y29867714D01*
X6540313Y30264332D01*
X6540687Y30693784D01*
X6376689Y31090689D01*
X6073286Y31394622D01*
X5676668Y31559313D01*
X5247216Y31559687D01*
X4939400Y31432500D01*
X3495103Y31432500D01*
X3703831Y31518958D01*
X3765669Y31754725D01*
X3010000Y32510395D01*
X2254331Y31754725D01*
X2316169Y31518958D01*
X2561730Y31432500D01*
X2172066Y31432500D01*
X1866668Y31559313D01*
X1437216Y31559687D01*
X1040311Y31395689D01*
X762000Y31117863D01*
X762000Y32882878D01*
X1662581Y32882878D01*
X1691336Y32352560D01*
X1838958Y31996169D01*
X2074725Y31934331D01*
X2830395Y32690000D01*
X3189605Y32690000D01*
X3945275Y31934331D01*
X4181042Y31996169D01*
X4357419Y32497122D01*
X4328664Y33027440D01*
X4181042Y33383831D01*
X3945275Y33445669D01*
X3189605Y32690000D01*
X2830395Y32690000D01*
X2074725Y33445669D01*
X1838958Y33383831D01*
X1662581Y32882878D01*
X762000Y32882878D01*
X762000Y33625275D01*
X2254331Y33625275D01*
X3010000Y32869605D01*
X3765669Y33625275D01*
X3719972Y33799503D01*
X3767802Y33751673D01*
X4001191Y33655000D01*
X4794250Y33655000D01*
X4953000Y33813750D01*
X4953000Y37973000D01*
X3651250Y37973000D01*
X3492500Y37814250D01*
X3492500Y34163690D01*
X3589173Y33930301D01*
X3633762Y33885712D01*
X3202878Y34037419D01*
X2672560Y34008664D01*
X2316169Y33861042D01*
X2254331Y33625275D01*
X762000Y33625275D01*
X762000Y43577131D01*
X845647Y43611779D01*
X1006554Y43678428D01*
X1043146Y43702878D01*
X3262581Y43702878D01*
X3291336Y43172560D01*
X3438958Y42816169D01*
X3674725Y42754331D01*
X4430395Y43510000D01*
X4789605Y43510000D01*
X5545275Y42754331D01*
X5781042Y42816169D01*
X5957419Y43317122D01*
X5936503Y43702878D01*
X10882581Y43702878D01*
X10911336Y43172560D01*
X11058958Y42816169D01*
X11294725Y42754331D01*
X12050395Y43510000D01*
X12409605Y43510000D01*
X13165275Y42754331D01*
X13401042Y42816169D01*
X13577419Y43317122D01*
X13556503Y43702878D01*
X18502581Y43702878D01*
X18531336Y43172560D01*
X18678958Y42816169D01*
X18914725Y42754331D01*
X19670395Y43510000D01*
X20029605Y43510000D01*
X20785275Y42754331D01*
X21021042Y42816169D01*
X21197419Y43317122D01*
X21176503Y43702878D01*
X26122581Y43702878D01*
X26151336Y43172560D01*
X26298958Y42816169D01*
X26534725Y42754331D01*
X27290395Y43510000D01*
X27649605Y43510000D01*
X28405275Y42754331D01*
X28641042Y42816169D01*
X28817419Y43317122D01*
X28796503Y43702878D01*
X33742581Y43702878D01*
X33771336Y43172560D01*
X33918958Y42816169D01*
X34154725Y42754331D01*
X34910395Y43510000D01*
X35269605Y43510000D01*
X36025275Y42754331D01*
X36261042Y42816169D01*
X36437419Y43317122D01*
X36408664Y43847440D01*
X36261042Y44203831D01*
X36025275Y44265669D01*
X35269605Y43510000D01*
X34910395Y43510000D01*
X34154725Y44265669D01*
X33918958Y44203831D01*
X33742581Y43702878D01*
X28796503Y43702878D01*
X28788664Y43847440D01*
X28641042Y44203831D01*
X28405275Y44265669D01*
X27649605Y43510000D01*
X27290395Y43510000D01*
X26534725Y44265669D01*
X26298958Y44203831D01*
X26122581Y43702878D01*
X21176503Y43702878D01*
X21168664Y43847440D01*
X21021042Y44203831D01*
X20785275Y44265669D01*
X20029605Y43510000D01*
X19670395Y43510000D01*
X18914725Y44265669D01*
X18678958Y44203831D01*
X18502581Y43702878D01*
X13556503Y43702878D01*
X13548664Y43847440D01*
X13401042Y44203831D01*
X13165275Y44265669D01*
X12409605Y43510000D01*
X12050395Y43510000D01*
X11294725Y44265669D01*
X11058958Y44203831D01*
X10882581Y43702878D01*
X5936503Y43702878D01*
X5928664Y43847440D01*
X5781042Y44203831D01*
X5545275Y44265669D01*
X4789605Y43510000D01*
X4430395Y43510000D01*
X3674725Y44265669D01*
X3438958Y44203831D01*
X3262581Y43702878D01*
X1043146Y43702878D01*
X1500973Y44008788D01*
X1500976Y44008789D01*
X1606093Y44113907D01*
X1711211Y44219024D01*
X1711212Y44219027D01*
X1862385Y44445275D01*
X3854331Y44445275D01*
X4610000Y43689605D01*
X5365669Y44445275D01*
X11474331Y44445275D01*
X12230000Y43689605D01*
X12985669Y44445275D01*
X19094331Y44445275D01*
X19850000Y43689605D01*
X20605669Y44445275D01*
X26714331Y44445275D01*
X27470000Y43689605D01*
X28225669Y44445275D01*
X34334331Y44445275D01*
X35090000Y43689605D01*
X35845669Y44445275D01*
X35783831Y44681042D01*
X35282878Y44857419D01*
X34752560Y44828664D01*
X34396169Y44681042D01*
X34334331Y44445275D01*
X28225669Y44445275D01*
X28163831Y44681042D01*
X27662878Y44857419D01*
X27132560Y44828664D01*
X26776169Y44681042D01*
X26714331Y44445275D01*
X20605669Y44445275D01*
X20543831Y44681042D01*
X20042878Y44857419D01*
X19512560Y44828664D01*
X19156169Y44681042D01*
X19094331Y44445275D01*
X12985669Y44445275D01*
X12923831Y44681042D01*
X12422878Y44857419D01*
X11892560Y44828664D01*
X11536169Y44681042D01*
X11474331Y44445275D01*
X5365669Y44445275D01*
X5303831Y44681042D01*
X4802878Y44857419D01*
X4272560Y44828664D01*
X3916169Y44681042D01*
X3854331Y44445275D01*
X1862385Y44445275D01*
X2041572Y44713446D01*
X2147124Y44968271D01*
X2324332Y44894687D01*
X2753784Y44894313D01*
X3061600Y45021500D01*
X6336934Y45021500D01*
X6642332Y44894687D01*
X7071784Y44894313D01*
X7468689Y45058311D01*
X7772622Y45361714D01*
X7791947Y45408255D01*
X38591350Y45408255D01*
X41910000Y42089605D01*
X42122068Y42301673D01*
X42387739Y42208134D01*
X42089605Y41910000D01*
X45408255Y38591350D01*
X46012812Y39086113D01*
X46781160Y40871147D01*
X46807917Y42814337D01*
X46454124Y43702878D01*
X48982581Y43702878D01*
X49011336Y43172560D01*
X49158958Y42816169D01*
X49394725Y42754331D01*
X50150395Y43510000D01*
X49394725Y44265669D01*
X49158958Y44203831D01*
X48982581Y43702878D01*
X46454124Y43702878D01*
X46158522Y44445275D01*
X49574331Y44445275D01*
X50330000Y43689605D01*
X51085669Y44445275D01*
X51023831Y44681042D01*
X50522878Y44857419D01*
X49992560Y44828664D01*
X49636169Y44681042D01*
X49574331Y44445275D01*
X46158522Y44445275D01*
X46089010Y44619850D01*
X46012812Y44733887D01*
X45408255Y45228650D01*
X44028190Y43848585D01*
X43922980Y44102585D01*
X45228650Y45408255D01*
X44733887Y46012812D01*
X42948853Y46781160D01*
X41813754Y46796790D01*
X41865669Y46994725D01*
X47974331Y46994725D01*
X48036169Y46758958D01*
X48537122Y46582581D01*
X49067440Y46611336D01*
X49423831Y46758958D01*
X49485669Y46994725D01*
X48730000Y47750395D01*
X47974331Y46994725D01*
X41865669Y46994725D01*
X41110000Y47750395D01*
X40354331Y46994725D01*
X40416169Y46758958D01*
X40663767Y46671783D01*
X39200150Y46089010D01*
X39086113Y46012812D01*
X38591350Y45408255D01*
X7791947Y45408255D01*
X7937313Y45758332D01*
X7937687Y46187784D01*
X7773689Y46584689D01*
X7470286Y46888622D01*
X7214763Y46994725D01*
X9874331Y46994725D01*
X9936169Y46758958D01*
X10437122Y46582581D01*
X10967440Y46611336D01*
X11323831Y46758958D01*
X11385669Y46994725D01*
X17494331Y46994725D01*
X17556169Y46758958D01*
X18057122Y46582581D01*
X18587440Y46611336D01*
X18943831Y46758958D01*
X19005669Y46994725D01*
X25114331Y46994725D01*
X25176169Y46758958D01*
X25677122Y46582581D01*
X26207440Y46611336D01*
X26563831Y46758958D01*
X26625669Y46994725D01*
X32734331Y46994725D01*
X32796169Y46758958D01*
X33297122Y46582581D01*
X33827440Y46611336D01*
X34183831Y46758958D01*
X34245669Y46994725D01*
X33490000Y47750395D01*
X32734331Y46994725D01*
X26625669Y46994725D01*
X25870000Y47750395D01*
X25114331Y46994725D01*
X19005669Y46994725D01*
X18250000Y47750395D01*
X17494331Y46994725D01*
X11385669Y46994725D01*
X10630000Y47750395D01*
X9874331Y46994725D01*
X7214763Y46994725D01*
X7073668Y47053313D01*
X6644216Y47053687D01*
X6336400Y46926500D01*
X3747775Y46926500D01*
X3765669Y46994725D01*
X3010000Y47750395D01*
X2304193Y47044587D01*
X1931864Y46890744D01*
X1711211Y47220975D01*
X1711211Y47220976D01*
X1606093Y47326093D01*
X1500976Y47431211D01*
X1500973Y47431212D01*
X1006554Y47761572D01*
X845647Y47828221D01*
X762000Y47862869D01*
X762000Y48122878D01*
X1662581Y48122878D01*
X1691336Y47592560D01*
X1838958Y47236169D01*
X2074725Y47174331D01*
X2830395Y47930000D01*
X3189605Y47930000D01*
X3945275Y47174331D01*
X4181042Y47236169D01*
X4357419Y47737122D01*
X4336503Y48122878D01*
X9282581Y48122878D01*
X9311336Y47592560D01*
X9458958Y47236169D01*
X9694725Y47174331D01*
X10450395Y47930000D01*
X10809605Y47930000D01*
X11565275Y47174331D01*
X11801042Y47236169D01*
X11977419Y47737122D01*
X11956503Y48122878D01*
X16902581Y48122878D01*
X16931336Y47592560D01*
X17078958Y47236169D01*
X17314725Y47174331D01*
X18070395Y47930000D01*
X18429605Y47930000D01*
X19185275Y47174331D01*
X19421042Y47236169D01*
X19597419Y47737122D01*
X19576503Y48122878D01*
X24522581Y48122878D01*
X24551336Y47592560D01*
X24698958Y47236169D01*
X24934725Y47174331D01*
X25690395Y47930000D01*
X26049605Y47930000D01*
X26805275Y47174331D01*
X27041042Y47236169D01*
X27217419Y47737122D01*
X27196503Y48122878D01*
X32142581Y48122878D01*
X32171336Y47592560D01*
X32318958Y47236169D01*
X32554725Y47174331D01*
X33310395Y47930000D01*
X33669605Y47930000D01*
X34425275Y47174331D01*
X34661042Y47236169D01*
X34837419Y47737122D01*
X34816503Y48122878D01*
X39762581Y48122878D01*
X39791336Y47592560D01*
X39938958Y47236169D01*
X40174725Y47174331D01*
X40930395Y47930000D01*
X41289605Y47930000D01*
X42045275Y47174331D01*
X42281042Y47236169D01*
X42457419Y47737122D01*
X42436503Y48122878D01*
X47382581Y48122878D01*
X47411336Y47592560D01*
X47558958Y47236169D01*
X47794725Y47174331D01*
X48550395Y47930000D01*
X48909605Y47930000D01*
X49665275Y47174331D01*
X49901042Y47236169D01*
X50077419Y47737122D01*
X50048664Y48267440D01*
X49901042Y48623831D01*
X49665275Y48685669D01*
X48909605Y47930000D01*
X48550395Y47930000D01*
X47794725Y48685669D01*
X47558958Y48623831D01*
X47382581Y48122878D01*
X42436503Y48122878D01*
X42428664Y48267440D01*
X42281042Y48623831D01*
X42045275Y48685669D01*
X41289605Y47930000D01*
X40930395Y47930000D01*
X40174725Y48685669D01*
X39938958Y48623831D01*
X39762581Y48122878D01*
X34816503Y48122878D01*
X34808664Y48267440D01*
X34661042Y48623831D01*
X34425275Y48685669D01*
X33669605Y47930000D01*
X33310395Y47930000D01*
X32554725Y48685669D01*
X32318958Y48623831D01*
X32142581Y48122878D01*
X27196503Y48122878D01*
X27188664Y48267440D01*
X27041042Y48623831D01*
X26805275Y48685669D01*
X26049605Y47930000D01*
X25690395Y47930000D01*
X24934725Y48685669D01*
X24698958Y48623831D01*
X24522581Y48122878D01*
X19576503Y48122878D01*
X19568664Y48267440D01*
X19421042Y48623831D01*
X19185275Y48685669D01*
X18429605Y47930000D01*
X18070395Y47930000D01*
X17314725Y48685669D01*
X17078958Y48623831D01*
X16902581Y48122878D01*
X11956503Y48122878D01*
X11948664Y48267440D01*
X11801042Y48623831D01*
X11565275Y48685669D01*
X10809605Y47930000D01*
X10450395Y47930000D01*
X9694725Y48685669D01*
X9458958Y48623831D01*
X9282581Y48122878D01*
X4336503Y48122878D01*
X4328664Y48267440D01*
X4181042Y48623831D01*
X3945275Y48685669D01*
X3189605Y47930000D01*
X2830395Y47930000D01*
X2074725Y48685669D01*
X1838958Y48623831D01*
X1662581Y48122878D01*
X762000Y48122878D01*
X762000Y48865275D01*
X2254331Y48865275D01*
X3010000Y48109605D01*
X3765669Y48865275D01*
X9874331Y48865275D01*
X10630000Y48109605D01*
X11385669Y48865275D01*
X17494331Y48865275D01*
X18250000Y48109605D01*
X19005669Y48865275D01*
X18943831Y49101042D01*
X18442878Y49277419D01*
X17912560Y49248664D01*
X17556169Y49101042D01*
X17494331Y48865275D01*
X11385669Y48865275D01*
X11323831Y49101042D01*
X10822878Y49277419D01*
X10292560Y49248664D01*
X9936169Y49101042D01*
X9874331Y48865275D01*
X3765669Y48865275D01*
X3703831Y49101042D01*
X3202878Y49277419D01*
X2672560Y49248664D01*
X2316169Y49101042D01*
X2254331Y48865275D01*
X762000Y48865275D01*
X762000Y52491216D01*
X825313Y52491216D01*
X989311Y52094311D01*
X1143000Y51940354D01*
X1143000Y51435000D01*
X1201004Y51143395D01*
X1235610Y51091604D01*
X1366185Y50896185D01*
X2001185Y50261184D01*
X2149377Y50162166D01*
X2248395Y50096004D01*
X2540000Y50038000D01*
X18402560Y50038000D01*
X18402560Y49847500D01*
X18446838Y49612183D01*
X18585910Y49396059D01*
X18798110Y49251069D01*
X19050000Y49200060D01*
X25415220Y49200060D01*
X25176169Y49101042D01*
X25114331Y48865275D01*
X25870000Y48109605D01*
X26625669Y48865275D01*
X32734331Y48865275D01*
X33490000Y48109605D01*
X34245669Y48865275D01*
X40354331Y48865275D01*
X41110000Y48109605D01*
X41865669Y48865275D01*
X47974331Y48865275D01*
X48730000Y48109605D01*
X49485669Y48865275D01*
X49423831Y49101042D01*
X48922878Y49277419D01*
X48392560Y49248664D01*
X48036169Y49101042D01*
X47974331Y48865275D01*
X41865669Y48865275D01*
X41803831Y49101042D01*
X41302878Y49277419D01*
X40772560Y49248664D01*
X40416169Y49101042D01*
X40354331Y48865275D01*
X34245669Y48865275D01*
X34183831Y49101042D01*
X33682878Y49277419D01*
X33152560Y49248664D01*
X32796169Y49101042D01*
X32734331Y48865275D01*
X26625669Y48865275D01*
X26563831Y49101042D01*
X26282596Y49200060D01*
X26670000Y49200060D01*
X26905317Y49244338D01*
X27121441Y49383410D01*
X27266431Y49595610D01*
X27317440Y49847500D01*
X27317440Y50040474D01*
X27596605Y50096004D01*
X27843815Y50261185D01*
X29525630Y51943000D01*
X51754370Y51943000D01*
X51943000Y51754369D01*
X51943000Y44130630D01*
X51649237Y43836867D01*
X51648664Y43847440D01*
X51501042Y44203831D01*
X51265275Y44265669D01*
X50509605Y43510000D01*
X50523748Y43495858D01*
X50344142Y43316252D01*
X50330000Y43330395D01*
X49574331Y42574725D01*
X49593612Y42501212D01*
X49396059Y42374090D01*
X49251069Y42161890D01*
X49200060Y41910000D01*
X49200060Y34290000D01*
X49244338Y34054683D01*
X49352864Y33886028D01*
X48922878Y34037419D01*
X48392560Y34008664D01*
X48036169Y33861042D01*
X47974331Y33625275D01*
X48730000Y32869605D01*
X49485669Y33625275D01*
X49439841Y33800001D01*
X49595610Y33693569D01*
X49847500Y33642560D01*
X51752500Y33642560D01*
X51987817Y33686838D01*
X52069003Y33739080D01*
X52135610Y33693569D01*
X52387500Y33642560D01*
X54292500Y33642560D01*
X54527817Y33686838D01*
X54604774Y33736359D01*
X54801191Y33655000D01*
X55594250Y33655000D01*
X55604928Y33665678D01*
X55594331Y33625275D01*
X56350000Y32869605D01*
X57105669Y33625275D01*
X57084245Y33706957D01*
X57192198Y33751673D01*
X57370827Y33930301D01*
X57467500Y34163690D01*
X57467500Y37814250D01*
X57308750Y37973000D01*
X56007000Y37973000D01*
X56007000Y37953000D01*
X55753000Y37953000D01*
X55753000Y37973000D01*
X55733000Y37973000D01*
X55733000Y38227000D01*
X55753000Y38227000D01*
X55753000Y42386250D01*
X56007000Y42386250D01*
X56007000Y38227000D01*
X57308750Y38227000D01*
X57467500Y38385750D01*
X57467500Y42036310D01*
X57370827Y42269699D01*
X57326238Y42314288D01*
X57757122Y42162581D01*
X58287440Y42191336D01*
X58643831Y42338958D01*
X58705669Y42574725D01*
X57950000Y43330395D01*
X57194331Y42574725D01*
X57240028Y42400497D01*
X57192198Y42448327D01*
X56958809Y42545000D01*
X56165750Y42545000D01*
X56007000Y42386250D01*
X55753000Y42386250D01*
X55594250Y42545000D01*
X54801191Y42545000D01*
X54606169Y42464219D01*
X54544390Y42506431D01*
X54292500Y42557440D01*
X54102000Y42557440D01*
X54102000Y43702878D01*
X56602581Y43702878D01*
X56631336Y43172560D01*
X56778958Y42816169D01*
X57014725Y42754331D01*
X57770395Y43510000D01*
X58129605Y43510000D01*
X58885275Y42754331D01*
X59121042Y42816169D01*
X59297419Y43317122D01*
X59268664Y43847440D01*
X59121042Y44203831D01*
X58885275Y44265669D01*
X58129605Y43510000D01*
X57770395Y43510000D01*
X57014725Y44265669D01*
X56778958Y44203831D01*
X56602581Y43702878D01*
X54102000Y43702878D01*
X54102000Y44445275D01*
X57194331Y44445275D01*
X57950000Y43689605D01*
X58705669Y44445275D01*
X58643831Y44681042D01*
X58142878Y44857419D01*
X57612560Y44828664D01*
X57256169Y44681042D01*
X57194331Y44445275D01*
X54102000Y44445275D01*
X54102000Y46994725D01*
X55594331Y46994725D01*
X55656169Y46758958D01*
X56157122Y46582581D01*
X56687440Y46611336D01*
X57043831Y46758958D01*
X57105669Y46994725D01*
X56350000Y47750395D01*
X55594331Y46994725D01*
X54102000Y46994725D01*
X54102000Y48122878D01*
X55002581Y48122878D01*
X55031336Y47592560D01*
X55178958Y47236169D01*
X55414725Y47174331D01*
X56170395Y47930000D01*
X56529605Y47930000D01*
X57285275Y47174331D01*
X57521042Y47236169D01*
X57697419Y47737122D01*
X57668664Y48267440D01*
X57521042Y48623831D01*
X57285275Y48685669D01*
X56529605Y47930000D01*
X56170395Y47930000D01*
X55414725Y48685669D01*
X55178958Y48623831D01*
X55002581Y48122878D01*
X54102000Y48122878D01*
X54102000Y48865275D01*
X55594331Y48865275D01*
X56350000Y48109605D01*
X57105669Y48865275D01*
X57043831Y49101042D01*
X56542878Y49277419D01*
X56012560Y49248664D01*
X55656169Y49101042D01*
X55594331Y48865275D01*
X54102000Y48865275D01*
X54102000Y52705000D01*
X54043996Y52996605D01*
X53977834Y53095623D01*
X53878816Y53243815D01*
X53243815Y53878815D01*
X52996605Y54043996D01*
X52705000Y54102000D01*
X27317440Y54102000D01*
X27317440Y54292500D01*
X27273162Y54527817D01*
X27223641Y54604774D01*
X27305000Y54801191D01*
X27305000Y55594250D01*
X27146250Y55753000D01*
X22987000Y55753000D01*
X22987000Y55733000D01*
X22733000Y55733000D01*
X22733000Y55753000D01*
X18573750Y55753000D01*
X18415000Y55594250D01*
X18415000Y54801191D01*
X18495781Y54606169D01*
X18453569Y54544390D01*
X18402560Y54292500D01*
X18402560Y54099526D01*
X18123395Y54043996D01*
X17876185Y53878815D01*
X16194370Y52197000D01*
X4132926Y52197000D01*
X4254313Y52489332D01*
X4254687Y52918784D01*
X4090689Y53315689D01*
X3787286Y53619622D01*
X3390668Y53784313D01*
X2961216Y53784687D01*
X2564311Y53620689D01*
X2540224Y53596644D01*
X2517286Y53619622D01*
X2120668Y53784313D01*
X1691216Y53784687D01*
X1294311Y53620689D01*
X990378Y53317286D01*
X825687Y52920668D01*
X825313Y52491216D01*
X762000Y52491216D01*
X762000Y56958809D01*
X18415000Y56958809D01*
X18415000Y56165750D01*
X18573750Y56007000D01*
X22733000Y56007000D01*
X22733000Y57308750D01*
X22987000Y57308750D01*
X22987000Y56007000D01*
X27146250Y56007000D01*
X27305000Y56165750D01*
X27305000Y56958809D01*
X27208327Y57192198D01*
X27029699Y57370827D01*
X26796310Y57467500D01*
X23145750Y57467500D01*
X22987000Y57308750D01*
X22733000Y57308750D01*
X22574250Y57467500D01*
X20274748Y57467500D01*
X20543831Y57578958D01*
X20605669Y57814725D01*
X26714331Y57814725D01*
X26776169Y57578958D01*
X27277122Y57402581D01*
X27807440Y57431336D01*
X28163831Y57578958D01*
X28225669Y57814725D01*
X34334331Y57814725D01*
X34396169Y57578958D01*
X34897122Y57402581D01*
X35427440Y57431336D01*
X35783831Y57578958D01*
X35845669Y57814725D01*
X41954331Y57814725D01*
X42016169Y57578958D01*
X42517122Y57402581D01*
X43047440Y57431336D01*
X43403831Y57578958D01*
X43465669Y57814725D01*
X49574331Y57814725D01*
X49636169Y57578958D01*
X50137122Y57402581D01*
X50667440Y57431336D01*
X51023831Y57578958D01*
X51085669Y57814725D01*
X57194331Y57814725D01*
X57256169Y57578958D01*
X57757122Y57402581D01*
X58287440Y57431336D01*
X58643831Y57578958D01*
X58705669Y57814725D01*
X57950000Y58570395D01*
X57194331Y57814725D01*
X51085669Y57814725D01*
X50330000Y58570395D01*
X49574331Y57814725D01*
X43465669Y57814725D01*
X42710000Y58570395D01*
X41954331Y57814725D01*
X35845669Y57814725D01*
X35090000Y58570395D01*
X34334331Y57814725D01*
X28225669Y57814725D01*
X27470000Y58570395D01*
X26714331Y57814725D01*
X20605669Y57814725D01*
X19850000Y58570395D01*
X19094331Y57814725D01*
X19156169Y57578958D01*
X19472736Y57467500D01*
X18923690Y57467500D01*
X18690301Y57370827D01*
X18511673Y57192198D01*
X18415000Y56958809D01*
X762000Y56958809D01*
X762000Y57814725D01*
X3854331Y57814725D01*
X3916169Y57578958D01*
X4417122Y57402581D01*
X4947440Y57431336D01*
X5303831Y57578958D01*
X5365669Y57814725D01*
X11474331Y57814725D01*
X11536169Y57578958D01*
X12037122Y57402581D01*
X12567440Y57431336D01*
X12923831Y57578958D01*
X12985669Y57814725D01*
X12230000Y58570395D01*
X11474331Y57814725D01*
X5365669Y57814725D01*
X4610000Y58570395D01*
X3854331Y57814725D01*
X762000Y57814725D01*
X762000Y58942878D01*
X3262581Y58942878D01*
X3291336Y58412560D01*
X3438958Y58056169D01*
X3674725Y57994331D01*
X4430395Y58750000D01*
X4789605Y58750000D01*
X5545275Y57994331D01*
X5781042Y58056169D01*
X5957419Y58557122D01*
X5936503Y58942878D01*
X10882581Y58942878D01*
X10911336Y58412560D01*
X11058958Y58056169D01*
X11294725Y57994331D01*
X12050395Y58750000D01*
X12409605Y58750000D01*
X13165275Y57994331D01*
X13401042Y58056169D01*
X13577419Y58557122D01*
X13548664Y59087440D01*
X13401042Y59443831D01*
X13165275Y59505669D01*
X12409605Y58750000D01*
X12050395Y58750000D01*
X11294725Y59505669D01*
X11058958Y59443831D01*
X10882581Y58942878D01*
X5936503Y58942878D01*
X5928664Y59087440D01*
X5781042Y59443831D01*
X5545275Y59505669D01*
X4789605Y58750000D01*
X4430395Y58750000D01*
X3674725Y59505669D01*
X3438958Y59443831D01*
X3262581Y58942878D01*
X762000Y58942878D01*
X762000Y59685275D01*
X3854331Y59685275D01*
X4610000Y58929605D01*
X5365669Y59685275D01*
X11474331Y59685275D01*
X12230000Y58929605D01*
X12985669Y59685275D01*
X12923831Y59921042D01*
X12422878Y60097419D01*
X11892560Y60068664D01*
X11536169Y59921042D01*
X11474331Y59685275D01*
X5365669Y59685275D01*
X5303831Y59921042D01*
X4802878Y60097419D01*
X4272560Y60068664D01*
X3916169Y59921042D01*
X3854331Y59685275D01*
X762000Y59685275D01*
X762000Y60198000D01*
X13097131Y60198000D01*
X13198428Y59953446D01*
X13198428Y59953446D01*
G37*
X13198428Y59953446D02*
X13528788Y59459027D01*
X13528789Y59459024D01*
X13633907Y59353907D01*
X13739024Y59248789D01*
X13739027Y59248788D01*
X14233446Y58918428D01*
X14508132Y58804649D01*
X14508136Y58804649D01*
X15091341Y58688642D01*
X15388659Y58688642D01*
X15971869Y58804650D01*
X16085647Y58851779D01*
X16246554Y58918428D01*
X16283146Y58942878D01*
X18502581Y58942878D01*
X18531336Y58412560D01*
X18678958Y58056169D01*
X18914725Y57994331D01*
X19670395Y58750000D01*
X20029605Y58750000D01*
X20785275Y57994331D01*
X21021042Y58056169D01*
X21197419Y58557122D01*
X21176503Y58942878D01*
X26122581Y58942878D01*
X26151336Y58412560D01*
X26298958Y58056169D01*
X26534725Y57994331D01*
X27290395Y58750000D01*
X27649605Y58750000D01*
X28405275Y57994331D01*
X28641042Y58056169D01*
X28817419Y58557122D01*
X28796503Y58942878D01*
X33742581Y58942878D01*
X33771336Y58412560D01*
X33918958Y58056169D01*
X34154725Y57994331D01*
X34910395Y58750000D01*
X35269605Y58750000D01*
X36025275Y57994331D01*
X36261042Y58056169D01*
X36437419Y58557122D01*
X36416503Y58942878D01*
X41362581Y58942878D01*
X41391336Y58412560D01*
X41538958Y58056169D01*
X41774725Y57994331D01*
X42530395Y58750000D01*
X42889605Y58750000D01*
X43645275Y57994331D01*
X43881042Y58056169D01*
X44057419Y58557122D01*
X44028664Y59087440D01*
X43881042Y59443831D01*
X43645275Y59505669D01*
X42889605Y58750000D01*
X42530395Y58750000D01*
X41774725Y59505669D01*
X41538958Y59443831D01*
X41362581Y58942878D01*
X36416503Y58942878D01*
X36408664Y59087440D01*
X36261042Y59443831D01*
X36025275Y59505669D01*
X35269605Y58750000D01*
X34910395Y58750000D01*
X34154725Y59505669D01*
X33918958Y59443831D01*
X33742581Y58942878D01*
X28796503Y58942878D01*
X28788664Y59087440D01*
X28641042Y59443831D01*
X28405275Y59505669D01*
X27649605Y58750000D01*
X27290395Y58750000D01*
X26534725Y59505669D01*
X26298958Y59443831D01*
X26122581Y58942878D01*
X21176503Y58942878D01*
X21168664Y59087440D01*
X21021042Y59443831D01*
X20785275Y59505669D01*
X20029605Y58750000D01*
X19670395Y58750000D01*
X18914725Y59505669D01*
X18678958Y59443831D01*
X18502581Y58942878D01*
X16283146Y58942878D01*
X16740973Y59248788D01*
X16740976Y59248789D01*
X16846093Y59353907D01*
X16951211Y59459024D01*
X16951212Y59459027D01*
X17102385Y59685275D01*
X19094331Y59685275D01*
X19850000Y58929605D01*
X20605669Y59685275D01*
X26714331Y59685275D01*
X27470000Y58929605D01*
X28225669Y59685275D01*
X34334331Y59685275D01*
X35090000Y58929605D01*
X35845669Y59685275D01*
X41954331Y59685275D01*
X42710000Y58929605D01*
X43465669Y59685275D01*
X43403831Y59921042D01*
X42902878Y60097419D01*
X42372560Y60068664D01*
X42016169Y59921042D01*
X41954331Y59685275D01*
X35845669Y59685275D01*
X35783831Y59921042D01*
X35282878Y60097419D01*
X34752560Y60068664D01*
X34396169Y59921042D01*
X34334331Y59685275D01*
X28225669Y59685275D01*
X28163831Y59921042D01*
X27662878Y60097419D01*
X27132560Y60068664D01*
X26776169Y59921042D01*
X26714331Y59685275D01*
X20605669Y59685275D01*
X20543831Y59921042D01*
X20042878Y60097419D01*
X19512560Y60068664D01*
X19156169Y59921042D01*
X19094331Y59685275D01*
X17102385Y59685275D01*
X17281572Y59953446D01*
X17382870Y60198000D01*
X43577131Y60198000D01*
X43678428Y59953446D01*
X44008788Y59459027D01*
X44008789Y59459024D01*
X44113907Y59353907D01*
X44219024Y59248789D01*
X44219027Y59248788D01*
X44713446Y58918428D01*
X44988132Y58804649D01*
X44988136Y58804649D01*
X45571341Y58688642D01*
X45868659Y58688642D01*
X46451869Y58804650D01*
X46565647Y58851779D01*
X46726554Y58918428D01*
X46763146Y58942878D01*
X48982581Y58942878D01*
X49011336Y58412560D01*
X49158958Y58056169D01*
X49394725Y57994331D01*
X50150395Y58750000D01*
X50509605Y58750000D01*
X51265275Y57994331D01*
X51501042Y58056169D01*
X51677419Y58557122D01*
X51656503Y58942878D01*
X56602581Y58942878D01*
X56631336Y58412560D01*
X56778958Y58056169D01*
X57014725Y57994331D01*
X57770395Y58750000D01*
X58129605Y58750000D01*
X58885275Y57994331D01*
X59121042Y58056169D01*
X59297419Y58557122D01*
X59268664Y59087440D01*
X59121042Y59443831D01*
X58885275Y59505669D01*
X58129605Y58750000D01*
X57770395Y58750000D01*
X57014725Y59505669D01*
X56778958Y59443831D01*
X56602581Y58942878D01*
X51656503Y58942878D01*
X51648664Y59087440D01*
X51501042Y59443831D01*
X51265275Y59505669D01*
X50509605Y58750000D01*
X50150395Y58750000D01*
X49394725Y59505669D01*
X49158958Y59443831D01*
X48982581Y58942878D01*
X46763146Y58942878D01*
X47220973Y59248788D01*
X47220976Y59248789D01*
X47326093Y59353907D01*
X47431211Y59459024D01*
X47431212Y59459027D01*
X47582385Y59685275D01*
X49574331Y59685275D01*
X50330000Y58929605D01*
X51085669Y59685275D01*
X57194331Y59685275D01*
X57950000Y58929605D01*
X58705669Y59685275D01*
X58643831Y59921042D01*
X58142878Y60097419D01*
X57612560Y60068664D01*
X57256169Y59921042D01*
X57194331Y59685275D01*
X51085669Y59685275D01*
X51023831Y59921042D01*
X50522878Y60097419D01*
X49992560Y60068664D01*
X49636169Y59921042D01*
X49574331Y59685275D01*
X47582385Y59685275D01*
X47761572Y59953446D01*
X47862870Y60198000D01*
X60198000Y60198000D01*
X60198000Y47862870D01*
X59953446Y47761572D01*
X59459027Y47431212D01*
X59459024Y47431211D01*
X59353907Y47326093D01*
X59248789Y47220976D01*
X59248789Y47220975D01*
X58918428Y46726554D01*
X58859666Y46584689D01*
X58804650Y46451869D01*
X58688642Y45868659D01*
X58688642Y45571341D01*
X58804650Y44988132D01*
X58918428Y44713446D01*
X59248788Y44219027D01*
X59248789Y44219024D01*
X59353907Y44113907D01*
X59459024Y44008789D01*
X59459027Y44008788D01*
X59953446Y43678428D01*
X60198000Y43577130D01*
X60198000Y17382870D01*
X59953446Y17281572D01*
X59459027Y16951212D01*
X59459024Y16951211D01*
X59353907Y16846093D01*
X59248789Y16740976D01*
X59248789Y16740975D01*
X58918428Y16246554D01*
X58859666Y16104689D01*
X58804650Y15971869D01*
X58688642Y15388659D01*
X58688642Y15091341D01*
X58804650Y14508132D01*
X58918428Y14233446D01*
X59248788Y13739027D01*
X59248789Y13739024D01*
X59353907Y13633907D01*
X59459024Y13528789D01*
X59459027Y13528788D01*
X59953446Y13198428D01*
X60198000Y13097130D01*
X60198000Y762000D01*
X47862870Y762000D01*
X47761572Y1006554D01*
X47582387Y1274725D01*
X47974331Y1274725D01*
X48036169Y1038958D01*
X48537122Y862581D01*
X49067440Y891336D01*
X49423831Y1038958D01*
X49485669Y1274725D01*
X55594331Y1274725D01*
X55656169Y1038958D01*
X56157122Y862581D01*
X56687440Y891336D01*
X57043831Y1038958D01*
X57105669Y1274725D01*
X56350000Y2030395D01*
X55594331Y1274725D01*
X49485669Y1274725D01*
X48730000Y2030395D01*
X47974331Y1274725D01*
X47582387Y1274725D01*
X47431211Y1500975D01*
X47431211Y1500976D01*
X47326093Y1606093D01*
X47220976Y1711211D01*
X47220973Y1711212D01*
X46726554Y2041572D01*
X46565647Y2108221D01*
X46451869Y2155350D01*
X45868659Y2271358D01*
X45571341Y2271358D01*
X44988136Y2155351D01*
X44713446Y2041572D01*
X44219027Y1711212D01*
X44219024Y1711211D01*
X44113907Y1606093D01*
X44008789Y1500976D01*
X44008789Y1500975D01*
X43678428Y1006554D01*
X43618793Y862581D01*
X43577131Y762000D01*
X17382870Y762000D01*
X17281572Y1006554D01*
X17102387Y1274725D01*
X17494331Y1274725D01*
X17556169Y1038958D01*
X18057122Y862581D01*
X18587440Y891336D01*
X18943831Y1038958D01*
X19005669Y1274725D01*
X25114331Y1274725D01*
X25176169Y1038958D01*
X25677122Y862581D01*
X26207440Y891336D01*
X26563831Y1038958D01*
X26625669Y1274725D01*
X32734331Y1274725D01*
X32796169Y1038958D01*
X33297122Y862581D01*
X33827440Y891336D01*
X34183831Y1038958D01*
X34245669Y1274725D01*
X40354331Y1274725D01*
X40416169Y1038958D01*
X40917122Y862581D01*
X41447440Y891336D01*
X41803831Y1038958D01*
X41865669Y1274725D01*
X41110000Y2030395D01*
X40354331Y1274725D01*
X34245669Y1274725D01*
X33490000Y2030395D01*
X32734331Y1274725D01*
X26625669Y1274725D01*
X25870000Y2030395D01*
X25114331Y1274725D01*
X19005669Y1274725D01*
X18250000Y2030395D01*
X17494331Y1274725D01*
X17102387Y1274725D01*
X16951211Y1500975D01*
X16951211Y1500976D01*
X16846093Y1606093D01*
X16740976Y1711211D01*
X16740973Y1711212D01*
X16246554Y2041572D01*
X16085647Y2108221D01*
X15971869Y2155350D01*
X15388659Y2271358D01*
X15091341Y2271358D01*
X14508136Y2155351D01*
X14233446Y2041572D01*
X13739027Y1711212D01*
X13739024Y1711211D01*
X13633907Y1606093D01*
X13528789Y1500976D01*
X13528789Y1500975D01*
X13198428Y1006554D01*
X13138793Y862581D01*
X13097131Y762000D01*
X762000Y762000D01*
X762000Y1274725D01*
X2254331Y1274725D01*
X2316169Y1038958D01*
X2817122Y862581D01*
X3347440Y891336D01*
X3703831Y1038958D01*
X3765669Y1274725D01*
X9874331Y1274725D01*
X9936169Y1038958D01*
X10437122Y862581D01*
X10967440Y891336D01*
X11323831Y1038958D01*
X11385669Y1274725D01*
X10630000Y2030395D01*
X9874331Y1274725D01*
X3765669Y1274725D01*
X3010000Y2030395D01*
X2254331Y1274725D01*
X762000Y1274725D01*
X762000Y2402878D01*
X1662581Y2402878D01*
X1691336Y1872560D01*
X1838958Y1516169D01*
X2074725Y1454331D01*
X2830395Y2210000D01*
X3189605Y2210000D01*
X3945275Y1454331D01*
X4181042Y1516169D01*
X4357419Y2017122D01*
X4336503Y2402878D01*
X9282581Y2402878D01*
X9311336Y1872560D01*
X9458958Y1516169D01*
X9694725Y1454331D01*
X10450395Y2210000D01*
X10809605Y2210000D01*
X11565275Y1454331D01*
X11801042Y1516169D01*
X11977419Y2017122D01*
X11956503Y2402878D01*
X16902581Y2402878D01*
X16931336Y1872560D01*
X17078958Y1516169D01*
X17314725Y1454331D01*
X18070395Y2210000D01*
X18429605Y2210000D01*
X19185275Y1454331D01*
X19421042Y1516169D01*
X19597419Y2017122D01*
X19576503Y2402878D01*
X24522581Y2402878D01*
X24551336Y1872560D01*
X24698958Y1516169D01*
X24934725Y1454331D01*
X25690395Y2210000D01*
X26049605Y2210000D01*
X26805275Y1454331D01*
X27041042Y1516169D01*
X27217419Y2017122D01*
X27196503Y2402878D01*
X32142581Y2402878D01*
X32171336Y1872560D01*
X32318958Y1516169D01*
X32554725Y1454331D01*
X33310395Y2210000D01*
X33669605Y2210000D01*
X34425275Y1454331D01*
X34661042Y1516169D01*
X34837419Y2017122D01*
X34816503Y2402878D01*
X39762581Y2402878D01*
X39791336Y1872560D01*
X39938958Y1516169D01*
X40174725Y1454331D01*
X40930395Y2210000D01*
X41289605Y2210000D01*
X42045275Y1454331D01*
X42281042Y1516169D01*
X42457419Y2017122D01*
X42436503Y2402878D01*
X47382581Y2402878D01*
X47411336Y1872560D01*
X47558958Y1516169D01*
X47794725Y1454331D01*
X48550395Y2210000D01*
X48909605Y2210000D01*
X49665275Y1454331D01*
X49901042Y1516169D01*
X50077419Y2017122D01*
X50056503Y2402878D01*
X55002581Y2402878D01*
X55031336Y1872560D01*
X55178958Y1516169D01*
X55414725Y1454331D01*
X56170395Y2210000D01*
X56529605Y2210000D01*
X57285275Y1454331D01*
X57521042Y1516169D01*
X57697419Y2017122D01*
X57668664Y2547440D01*
X57521042Y2903831D01*
X57285275Y2965669D01*
X56529605Y2210000D01*
X56170395Y2210000D01*
X55414725Y2965669D01*
X55178958Y2903831D01*
X55002581Y2402878D01*
X50056503Y2402878D01*
X50048664Y2547440D01*
X49901042Y2903831D01*
X49665275Y2965669D01*
X48909605Y2210000D01*
X48550395Y2210000D01*
X47794725Y2965669D01*
X47558958Y2903831D01*
X47382581Y2402878D01*
X42436503Y2402878D01*
X42428664Y2547440D01*
X42281042Y2903831D01*
X42045275Y2965669D01*
X41289605Y2210000D01*
X40930395Y2210000D01*
X40174725Y2965669D01*
X39938958Y2903831D01*
X39762581Y2402878D01*
X34816503Y2402878D01*
X34808664Y2547440D01*
X34661042Y2903831D01*
X34425275Y2965669D01*
X33669605Y2210000D01*
X33310395Y2210000D01*
X32554725Y2965669D01*
X32318958Y2903831D01*
X32142581Y2402878D01*
X27196503Y2402878D01*
X27188664Y2547440D01*
X27041042Y2903831D01*
X26805275Y2965669D01*
X26049605Y2210000D01*
X25690395Y2210000D01*
X24934725Y2965669D01*
X24698958Y2903831D01*
X24522581Y2402878D01*
X19576503Y2402878D01*
X19568664Y2547440D01*
X19421042Y2903831D01*
X19185275Y2965669D01*
X18429605Y2210000D01*
X18070395Y2210000D01*
X17314725Y2965669D01*
X17078958Y2903831D01*
X16902581Y2402878D01*
X11956503Y2402878D01*
X11948664Y2547440D01*
X11801042Y2903831D01*
X11565275Y2965669D01*
X10809605Y2210000D01*
X10450395Y2210000D01*
X9694725Y2965669D01*
X9458958Y2903831D01*
X9282581Y2402878D01*
X4336503Y2402878D01*
X4328664Y2547440D01*
X4181042Y2903831D01*
X3945275Y2965669D01*
X3189605Y2210000D01*
X2830395Y2210000D01*
X2074725Y2965669D01*
X1838958Y2903831D01*
X1662581Y2402878D01*
X762000Y2402878D01*
X762000Y3145275D01*
X2254331Y3145275D01*
X3010000Y2389605D01*
X3765669Y3145275D01*
X9874331Y3145275D01*
X10630000Y2389605D01*
X11385669Y3145275D01*
X17494331Y3145275D01*
X18250000Y2389605D01*
X19005669Y3145275D01*
X18943831Y3381042D01*
X18442878Y3557419D01*
X17912560Y3528664D01*
X17556169Y3381042D01*
X17494331Y3145275D01*
X11385669Y3145275D01*
X11323831Y3381042D01*
X10822878Y3557419D01*
X10292560Y3528664D01*
X9936169Y3381042D01*
X9874331Y3145275D01*
X3765669Y3145275D01*
X3703831Y3381042D01*
X3202878Y3557419D01*
X2672560Y3528664D01*
X2316169Y3381042D01*
X2254331Y3145275D01*
X762000Y3145275D01*
X762000Y12094725D01*
X3854331Y12094725D01*
X3916169Y11858958D01*
X4417122Y11682581D01*
X4947440Y11711336D01*
X5303831Y11858958D01*
X5365669Y12094725D01*
X4610000Y12850395D01*
X3854331Y12094725D01*
X762000Y12094725D01*
X762000Y13097131D01*
X845647Y13131779D01*
X1006554Y13198428D01*
X1043146Y13222878D01*
X3262581Y13222878D01*
X3291336Y12692560D01*
X3438958Y12336169D01*
X3674725Y12274331D01*
X4430395Y13030000D01*
X4789605Y13030000D01*
X5545275Y12274331D01*
X5781042Y12336169D01*
X5957419Y12837122D01*
X5928664Y13367440D01*
X5781042Y13723831D01*
X5545275Y13785669D01*
X4789605Y13030000D01*
X4430395Y13030000D01*
X3674725Y13785669D01*
X3438958Y13723831D01*
X3262581Y13222878D01*
X1043146Y13222878D01*
X1500973Y13528788D01*
X1500976Y13528789D01*
X1606093Y13633907D01*
X1711211Y13739024D01*
X1711212Y13739027D01*
X1862385Y13965275D01*
X3854331Y13965275D01*
X4610000Y13209605D01*
X5365669Y13965275D01*
X5303831Y14201042D01*
X4802878Y14377419D01*
X4272560Y14348664D01*
X3916169Y14201042D01*
X3854331Y13965275D01*
X1862385Y13965275D01*
X2041572Y14233446D01*
X2147124Y14488271D01*
X2324332Y14414687D01*
X2753784Y14414313D01*
X3061600Y14541500D01*
X6082934Y14541500D01*
X6388332Y14414687D01*
X6817784Y14414313D01*
X6858000Y14430930D01*
X6858000Y11745631D01*
X6669370Y11557000D01*
X4445000Y11557000D01*
X4153395Y11498996D01*
X4054377Y11432834D01*
X3906185Y11333816D01*
X3271186Y10698816D01*
X3271185Y10698815D01*
X3106004Y10451605D01*
X3048000Y10160000D01*
X3048000Y6479642D01*
X2895378Y6327286D01*
X2730687Y5930668D01*
X2730313Y5501216D01*
X2894311Y5104311D01*
X3197714Y4800378D01*
X3594332Y4635687D01*
X4023784Y4635313D01*
X4408440Y4794250D01*
X18415000Y4794250D01*
X18415000Y4001191D01*
X18511673Y3767802D01*
X18690301Y3589173D01*
X18923690Y3492500D01*
X22574250Y3492500D01*
X22733000Y3651250D01*
X22733000Y4953000D01*
X22987000Y4953000D01*
X22987000Y3651250D01*
X23145750Y3492500D01*
X25445252Y3492500D01*
X25176169Y3381042D01*
X25114331Y3145275D01*
X25870000Y2389605D01*
X26625669Y3145275D01*
X32734331Y3145275D01*
X33490000Y2389605D01*
X34245669Y3145275D01*
X40354331Y3145275D01*
X41110000Y2389605D01*
X41865669Y3145275D01*
X47974331Y3145275D01*
X48730000Y2389605D01*
X49485669Y3145275D01*
X55594331Y3145275D01*
X56350000Y2389605D01*
X57105669Y3145275D01*
X57043831Y3381042D01*
X56542878Y3557419D01*
X56012560Y3528664D01*
X55656169Y3381042D01*
X55594331Y3145275D01*
X49485669Y3145275D01*
X49423831Y3381042D01*
X48922878Y3557419D01*
X48392560Y3528664D01*
X48036169Y3381042D01*
X47974331Y3145275D01*
X41865669Y3145275D01*
X41803831Y3381042D01*
X41302878Y3557419D01*
X40772560Y3528664D01*
X40416169Y3381042D01*
X40354331Y3145275D01*
X34245669Y3145275D01*
X34183831Y3381042D01*
X33682878Y3557419D01*
X33152560Y3528664D01*
X32796169Y3381042D01*
X32734331Y3145275D01*
X26625669Y3145275D01*
X26563831Y3381042D01*
X26247264Y3492500D01*
X26796310Y3492500D01*
X27029699Y3589173D01*
X27208327Y3767802D01*
X27305000Y4001191D01*
X27305000Y4794250D01*
X27146250Y4953000D01*
X22987000Y4953000D01*
X22733000Y4953000D01*
X18573750Y4953000D01*
X18415000Y4794250D01*
X4408440Y4794250D01*
X4420689Y4799311D01*
X4724622Y5102714D01*
X4889313Y5499332D01*
X4889687Y5928784D01*
X4768119Y6223000D01*
X5080000Y6223000D01*
X5371605Y6281004D01*
X5618815Y6446185D01*
X6030631Y6858000D01*
X18402560Y6858000D01*
X18402560Y6667500D01*
X18446838Y6432183D01*
X18496359Y6355226D01*
X18415000Y6158809D01*
X18415000Y5365750D01*
X18573750Y5207000D01*
X22733000Y5207000D01*
X22733000Y5227000D01*
X22987000Y5227000D01*
X22987000Y5207000D01*
X27146250Y5207000D01*
X27305000Y5365750D01*
X27305000Y6158809D01*
X27224219Y6353831D01*
X27266431Y6415610D01*
X27317440Y6667500D01*
X27317440Y8572500D01*
X27273162Y8807817D01*
X27220920Y8889003D01*
X27266431Y8955610D01*
X27317440Y9207500D01*
X27317440Y11112500D01*
X27273162Y11347817D01*
X27134090Y11563941D01*
X26921890Y11708931D01*
X26670000Y11759940D01*
X20304780Y11759940D01*
X20543831Y11858958D01*
X20605669Y12094725D01*
X26714331Y12094725D01*
X26776169Y11858958D01*
X27277122Y11682581D01*
X27807440Y11711336D01*
X28163831Y11858958D01*
X28225669Y12094725D01*
X34334331Y12094725D01*
X34396169Y11858958D01*
X34897122Y11682581D01*
X35427440Y11711336D01*
X35783831Y11858958D01*
X35845669Y12094725D01*
X41954331Y12094725D01*
X42016169Y11858958D01*
X42517122Y11682581D01*
X43047440Y11711336D01*
X43403831Y11858958D01*
X43465669Y12094725D01*
X49574331Y12094725D01*
X49636169Y11858958D01*
X50137122Y11682581D01*
X50667440Y11711336D01*
X51023831Y11858958D01*
X51085669Y12094725D01*
X57194331Y12094725D01*
X57256169Y11858958D01*
X57757122Y11682581D01*
X58287440Y11711336D01*
X58643831Y11858958D01*
X58705669Y12094725D01*
X57950000Y12850395D01*
X57194331Y12094725D01*
X51085669Y12094725D01*
X50330000Y12850395D01*
X49574331Y12094725D01*
X43465669Y12094725D01*
X42710000Y12850395D01*
X41954331Y12094725D01*
X35845669Y12094725D01*
X35090000Y12850395D01*
X34334331Y12094725D01*
X28225669Y12094725D01*
X27470000Y12850395D01*
X26714331Y12094725D01*
X20605669Y12094725D01*
X19850000Y12850395D01*
X19094331Y12094725D01*
X19156169Y11858958D01*
X19437404Y11759940D01*
X19050000Y11759940D01*
X18814683Y11715662D01*
X18598559Y11576590D01*
X18453569Y11364390D01*
X18402560Y11112500D01*
X18402560Y10919526D01*
X18123395Y10863996D01*
X18024377Y10797834D01*
X17876185Y10698816D01*
X17241204Y10063834D01*
X17241177Y10063816D01*
X16194366Y9017004D01*
X5844642Y9017004D01*
X5842000Y9019650D01*
X5842000Y9209370D01*
X6030631Y9398000D01*
X7620000Y9398000D01*
X7911605Y9456004D01*
X8158815Y9621185D01*
X8793816Y10256185D01*
X8924391Y10451605D01*
X8958996Y10503395D01*
X9017000Y10795000D01*
X9017000Y12094725D01*
X11474331Y12094725D01*
X11536169Y11858958D01*
X12037122Y11682581D01*
X12567440Y11711336D01*
X12923831Y11858958D01*
X12985669Y12094725D01*
X12230000Y12850395D01*
X11474331Y12094725D01*
X9017000Y12094725D01*
X9017000Y13222878D01*
X10882581Y13222878D01*
X10911336Y12692560D01*
X11058958Y12336169D01*
X11294725Y12274331D01*
X12050395Y13030000D01*
X12409605Y13030000D01*
X13165275Y12274331D01*
X13401042Y12336169D01*
X13577419Y12837122D01*
X13556503Y13222878D01*
X18502581Y13222878D01*
X18531336Y12692560D01*
X18678958Y12336169D01*
X18914725Y12274331D01*
X19670395Y13030000D01*
X20029605Y13030000D01*
X20785275Y12274331D01*
X21021042Y12336169D01*
X21197419Y12837122D01*
X21176503Y13222878D01*
X26122581Y13222878D01*
X26151336Y12692560D01*
X26298958Y12336169D01*
X26534725Y12274331D01*
X27290395Y13030000D01*
X27649605Y13030000D01*
X28405275Y12274331D01*
X28641042Y12336169D01*
X28817419Y12837122D01*
X28796503Y13222878D01*
X33742581Y13222878D01*
X33771336Y12692560D01*
X33918958Y12336169D01*
X34154725Y12274331D01*
X34910395Y13030000D01*
X35269605Y13030000D01*
X36025275Y12274331D01*
X36261042Y12336169D01*
X36437419Y12837122D01*
X36416503Y13222878D01*
X41362581Y13222878D01*
X41391336Y12692560D01*
X41538958Y12336169D01*
X41774725Y12274331D01*
X42530395Y13030000D01*
X42889605Y13030000D01*
X43645275Y12274331D01*
X43881042Y12336169D01*
X44057419Y12837122D01*
X44036503Y13222878D01*
X48982581Y13222878D01*
X49011336Y12692560D01*
X49158958Y12336169D01*
X49394725Y12274331D01*
X50150395Y13030000D01*
X50509605Y13030000D01*
X51265275Y12274331D01*
X51501042Y12336169D01*
X51677419Y12837122D01*
X51656503Y13222878D01*
X56602581Y13222878D01*
X56631336Y12692560D01*
X56778958Y12336169D01*
X57014725Y12274331D01*
X57770395Y13030000D01*
X58129605Y13030000D01*
X58885275Y12274331D01*
X59121042Y12336169D01*
X59297419Y12837122D01*
X59268664Y13367440D01*
X59121042Y13723831D01*
X58885275Y13785669D01*
X58129605Y13030000D01*
X57770395Y13030000D01*
X57014725Y13785669D01*
X56778958Y13723831D01*
X56602581Y13222878D01*
X51656503Y13222878D01*
X51648664Y13367440D01*
X51501042Y13723831D01*
X51265275Y13785669D01*
X50509605Y13030000D01*
X50150395Y13030000D01*
X49394725Y13785669D01*
X49158958Y13723831D01*
X48982581Y13222878D01*
X44036503Y13222878D01*
X44028664Y13367440D01*
X43881042Y13723831D01*
X43645275Y13785669D01*
X42889605Y13030000D01*
X42530395Y13030000D01*
X41774725Y13785669D01*
X41538958Y13723831D01*
X41362581Y13222878D01*
X36416503Y13222878D01*
X36408664Y13367440D01*
X36261042Y13723831D01*
X36025275Y13785669D01*
X35269605Y13030000D01*
X34910395Y13030000D01*
X34154725Y13785669D01*
X33918958Y13723831D01*
X33742581Y13222878D01*
X28796503Y13222878D01*
X28788664Y13367440D01*
X28641042Y13723831D01*
X28405275Y13785669D01*
X27649605Y13030000D01*
X27290395Y13030000D01*
X26534725Y13785669D01*
X26298958Y13723831D01*
X26122581Y13222878D01*
X21176503Y13222878D01*
X21168664Y13367440D01*
X21021042Y13723831D01*
X20785275Y13785669D01*
X20029605Y13030000D01*
X19670395Y13030000D01*
X18914725Y13785669D01*
X18678958Y13723831D01*
X18502581Y13222878D01*
X13556503Y13222878D01*
X13548664Y13367440D01*
X13401042Y13723831D01*
X13165275Y13785669D01*
X12409605Y13030000D01*
X12050395Y13030000D01*
X11294725Y13785669D01*
X11058958Y13723831D01*
X10882581Y13222878D01*
X9017000Y13222878D01*
X9017000Y13965275D01*
X11474331Y13965275D01*
X12230000Y13209605D01*
X12985669Y13965275D01*
X12923831Y14201042D01*
X12422878Y14377419D01*
X11892560Y14348664D01*
X11536169Y14201042D01*
X11474331Y13965275D01*
X9017000Y13965275D01*
X9017000Y16514725D01*
X9874331Y16514725D01*
X9936169Y16278958D01*
X10437122Y16102581D01*
X10967440Y16131336D01*
X11323831Y16278958D01*
X11385669Y16514725D01*
X10630000Y17270395D01*
X9874331Y16514725D01*
X9017000Y16514725D01*
X9017000Y17642878D01*
X9282581Y17642878D01*
X9311336Y17112560D01*
X9458958Y16756169D01*
X9694725Y16694331D01*
X10450395Y17450000D01*
X9694725Y18205669D01*
X9458958Y18143831D01*
X9282581Y17642878D01*
X9017000Y17642878D01*
X9017000Y18385275D01*
X9874331Y18385275D01*
X10630000Y17629605D01*
X10644143Y17643747D01*
X10823748Y17464142D01*
X10809605Y17450000D01*
X11565275Y16694331D01*
X11801042Y16756169D01*
X11977419Y17257122D01*
X11948664Y17787440D01*
X11941960Y17803625D01*
X12123831Y17878958D01*
X12185669Y18114725D01*
X11430000Y18870395D01*
X11415858Y18856252D01*
X11236252Y19035858D01*
X11250395Y19050000D01*
X10494725Y19805669D01*
X10258958Y19743831D01*
X10082581Y19242878D01*
X10111336Y18712560D01*
X10118040Y18696375D01*
X9936169Y18621042D01*
X9874331Y18385275D01*
X9017000Y18385275D01*
X9017000Y29210002D01*
X9207500Y29210002D01*
X9207500Y23114000D01*
X9280005Y22749494D01*
X9486481Y22440481D01*
X11534344Y20392618D01*
X11092560Y20368664D01*
X10736169Y20221042D01*
X10674331Y19985275D01*
X11430000Y19229605D01*
X11444142Y19243748D01*
X11623748Y19064142D01*
X11609605Y19050000D01*
X12365275Y18294331D01*
X12601042Y18356169D01*
X12777419Y18857122D01*
X12760654Y19166308D01*
X13550481Y18376481D01*
X13859494Y18170005D01*
X14164177Y18109399D01*
X14164154Y18082576D01*
X14906284Y16286485D01*
X16279257Y14911113D01*
X18074050Y14165850D01*
X19146693Y14164914D01*
X19094331Y13965275D01*
X19850000Y13209605D01*
X20605669Y13965275D01*
X20543831Y14201042D01*
X20307812Y14284140D01*
X21813515Y14906284D01*
X21830111Y14922851D01*
X22118480Y14634482D01*
X22427493Y14428006D01*
X22791999Y14355501D01*
X27258652Y14355501D01*
X27132560Y14348664D01*
X26776169Y14201042D01*
X26714331Y13965275D01*
X27470000Y13209605D01*
X28225669Y13965275D01*
X28163831Y14201042D01*
X27725130Y14355501D01*
X34878652Y14355501D01*
X34752560Y14348664D01*
X34396169Y14201042D01*
X34334331Y13965275D01*
X35090000Y13209605D01*
X35845669Y13965275D01*
X41954331Y13965275D01*
X42710000Y13209605D01*
X43465669Y13965275D01*
X49574331Y13965275D01*
X50330000Y13209605D01*
X51085669Y13965275D01*
X57194331Y13965275D01*
X57950000Y13209605D01*
X58705669Y13965275D01*
X58643831Y14201042D01*
X58142878Y14377419D01*
X57612560Y14348664D01*
X57256169Y14201042D01*
X57194331Y13965275D01*
X51085669Y13965275D01*
X51023831Y14201042D01*
X50522878Y14377419D01*
X49992560Y14348664D01*
X49636169Y14201042D01*
X49574331Y13965275D01*
X43465669Y13965275D01*
X43403831Y14201042D01*
X42902878Y14377419D01*
X42372560Y14348664D01*
X42016169Y14201042D01*
X41954331Y13965275D01*
X35845669Y13965275D01*
X35783831Y14201042D01*
X35345130Y14355501D01*
X36644001Y14355501D01*
X37008507Y14428006D01*
X37317520Y14634482D01*
X38773520Y16090481D01*
X38904485Y16286485D01*
X38979995Y16399494D01*
X39002915Y16514725D01*
X40354331Y16514725D01*
X40416169Y16278958D01*
X40917122Y16102581D01*
X41447440Y16131336D01*
X41803831Y16278958D01*
X41865669Y16514725D01*
X47974331Y16514725D01*
X48036169Y16278958D01*
X48537122Y16102581D01*
X49067440Y16131336D01*
X49423831Y16278958D01*
X49485669Y16514725D01*
X55594331Y16514725D01*
X55656169Y16278958D01*
X56157122Y16102581D01*
X56687440Y16131336D01*
X57043831Y16278958D01*
X57105669Y16514725D01*
X56350000Y17270395D01*
X55594331Y16514725D01*
X49485669Y16514725D01*
X48730000Y17270395D01*
X47974331Y16514725D01*
X41865669Y16514725D01*
X41110000Y17270395D01*
X40354331Y16514725D01*
X39002915Y16514725D01*
X39052500Y16764000D01*
X39052500Y17642878D01*
X39762581Y17642878D01*
X39791336Y17112560D01*
X39938958Y16756169D01*
X40174725Y16694331D01*
X40930395Y17450000D01*
X41289605Y17450000D01*
X42045275Y16694331D01*
X42281042Y16756169D01*
X42457419Y17257122D01*
X42436503Y17642878D01*
X47382581Y17642878D01*
X47411336Y17112560D01*
X47558958Y16756169D01*
X47794725Y16694331D01*
X48550395Y17450000D01*
X48909605Y17450000D01*
X49665275Y16694331D01*
X49901042Y16756169D01*
X50077419Y17257122D01*
X50056503Y17642878D01*
X55002581Y17642878D01*
X55031336Y17112560D01*
X55178958Y16756169D01*
X55414725Y16694331D01*
X56170395Y17450000D01*
X56529605Y17450000D01*
X57285275Y16694331D01*
X57521042Y16756169D01*
X57697419Y17257122D01*
X57668664Y17787440D01*
X57521042Y18143831D01*
X57285275Y18205669D01*
X56529605Y17450000D01*
X56170395Y17450000D01*
X55414725Y18205669D01*
X55178958Y18143831D01*
X55002581Y17642878D01*
X50056503Y17642878D01*
X50048664Y17787440D01*
X49901042Y18143831D01*
X49665275Y18205669D01*
X48909605Y17450000D01*
X48550395Y17450000D01*
X47794725Y18205669D01*
X47558958Y18143831D01*
X47382581Y17642878D01*
X42436503Y17642878D01*
X42428664Y17787440D01*
X42281042Y18143831D01*
X42045275Y18205669D01*
X41289605Y17450000D01*
X40930395Y17450000D01*
X40174725Y18205669D01*
X39938958Y18143831D01*
X39762581Y17642878D01*
X39052500Y17642878D01*
X39052500Y18385275D01*
X40354331Y18385275D01*
X41110000Y17629605D01*
X41865669Y18385275D01*
X47974331Y18385275D01*
X48730000Y17629605D01*
X49485669Y18385275D01*
X55594331Y18385275D01*
X56350000Y17629605D01*
X57105669Y18385275D01*
X57043831Y18621042D01*
X56542878Y18797419D01*
X56012560Y18768664D01*
X55656169Y18621042D01*
X55594331Y18385275D01*
X49485669Y18385275D01*
X49423831Y18621042D01*
X48922878Y18797419D01*
X48392560Y18768664D01*
X48036169Y18621042D01*
X47974331Y18385275D01*
X41865669Y18385275D01*
X41803831Y18621042D01*
X41302878Y18797419D01*
X40772560Y18768664D01*
X40416169Y18621042D01*
X40354331Y18385275D01*
X39052500Y18385275D01*
X39052500Y24244560D01*
X39624000Y24244560D01*
X39859317Y24288838D01*
X40075441Y24427910D01*
X40220431Y24640110D01*
X40271440Y24892000D01*
X40271440Y25463500D01*
X47625000Y25463500D01*
X47989506Y25536005D01*
X48298519Y25742481D01*
X49441519Y26885481D01*
X49621508Y27154854D01*
X49636169Y27098958D01*
X50137122Y26922581D01*
X50667440Y26951336D01*
X51023831Y27098958D01*
X51085669Y27334725D01*
X57194331Y27334725D01*
X57256169Y27098958D01*
X57757122Y26922581D01*
X58287440Y26951336D01*
X58643831Y27098958D01*
X58705669Y27334725D01*
X57950000Y28090395D01*
X57194331Y27334725D01*
X51085669Y27334725D01*
X50330000Y28090395D01*
X50315858Y28076252D01*
X50136252Y28255858D01*
X50150395Y28270000D01*
X50509605Y28270000D01*
X51265275Y27514331D01*
X51501042Y27576169D01*
X51677419Y28077122D01*
X51656503Y28462878D01*
X56602581Y28462878D01*
X56631336Y27932560D01*
X56778958Y27576169D01*
X57014725Y27514331D01*
X57770395Y28270000D01*
X58129605Y28270000D01*
X58885275Y27514331D01*
X59121042Y27576169D01*
X59297419Y28077122D01*
X59268664Y28607440D01*
X59121042Y28963831D01*
X58885275Y29025669D01*
X58129605Y28270000D01*
X57770395Y28270000D01*
X57014725Y29025669D01*
X56778958Y28963831D01*
X56602581Y28462878D01*
X51656503Y28462878D01*
X51648664Y28607440D01*
X51501042Y28963831D01*
X51265275Y29025669D01*
X50509605Y28270000D01*
X50150395Y28270000D01*
X50136252Y28284142D01*
X50315858Y28463748D01*
X50330000Y28449605D01*
X51085669Y29205275D01*
X57194331Y29205275D01*
X57950000Y28449605D01*
X58705669Y29205275D01*
X58643831Y29441042D01*
X58142878Y29617419D01*
X57612560Y29588664D01*
X57256169Y29441042D01*
X57194331Y29205275D01*
X51085669Y29205275D01*
X51023831Y29441042D01*
X50522878Y29617419D01*
X49992560Y29588664D01*
X49720500Y29475973D01*
X49720500Y29958934D01*
X49847313Y30264332D01*
X49847687Y30693784D01*
X49683689Y31090689D01*
X49380286Y31394622D01*
X49252130Y31447837D01*
X49423831Y31518958D01*
X49485669Y31754725D01*
X55594331Y31754725D01*
X55656169Y31518958D01*
X56157122Y31342581D01*
X56687440Y31371336D01*
X57043831Y31518958D01*
X57105669Y31754725D01*
X56350000Y32510395D01*
X55594331Y31754725D01*
X49485669Y31754725D01*
X48730000Y32510395D01*
X47974331Y31754725D01*
X48036169Y31518958D01*
X48262655Y31439216D01*
X48157311Y31395689D01*
X47853378Y31092286D01*
X47688687Y30695668D01*
X47688313Y30266216D01*
X47815500Y29958400D01*
X47815500Y27953538D01*
X47230462Y27368500D01*
X43729944Y27368500D01*
X43760526Y27399082D01*
X43645277Y27514331D01*
X43881042Y27576169D01*
X44057419Y28077122D01*
X44028664Y28607440D01*
X43881042Y28963831D01*
X43645275Y29025669D01*
X42889605Y28270000D01*
X42903748Y28255858D01*
X42724142Y28076252D01*
X42710000Y28090395D01*
X42695858Y28076252D01*
X42516252Y28255858D01*
X42530395Y28270000D01*
X41774725Y29025669D01*
X41538958Y28963831D01*
X41362581Y28462878D01*
X41391336Y27932560D01*
X41538958Y27576169D01*
X41774723Y27514331D01*
X41659474Y27399082D01*
X41690056Y27368500D01*
X40271440Y27368500D01*
X40271440Y27940000D01*
X40227162Y28175317D01*
X40088090Y28391441D01*
X39875890Y28536431D01*
X39624000Y28587440D01*
X39052500Y28587440D01*
X39052500Y29205275D01*
X41954331Y29205275D01*
X42710000Y28449605D01*
X43465669Y29205275D01*
X43403831Y29441042D01*
X42902878Y29617419D01*
X42372560Y29588664D01*
X42016169Y29441042D01*
X41954331Y29205275D01*
X39052500Y29205275D01*
X39052500Y29958934D01*
X39179313Y30264332D01*
X39179687Y30693784D01*
X39015689Y31090689D01*
X38712286Y31394622D01*
X38315668Y31559313D01*
X37886216Y31559687D01*
X37489311Y31395689D01*
X37185378Y31092286D01*
X37020687Y30695668D01*
X37020313Y30266216D01*
X37147500Y29958400D01*
X37147500Y28587440D01*
X36576000Y28587440D01*
X36411428Y28556474D01*
X36408664Y28607440D01*
X36261042Y28963831D01*
X36025275Y29025669D01*
X35269605Y28270000D01*
X35283748Y28255858D01*
X35104142Y28076252D01*
X35090000Y28090395D01*
X34334331Y27334725D01*
X34396169Y27098958D01*
X34897122Y26922581D01*
X35427440Y26951336D01*
X35783831Y27098958D01*
X35845669Y27334723D01*
X35928560Y27251832D01*
X35928560Y24892000D01*
X35972838Y24656683D01*
X36111910Y24440559D01*
X36324110Y24295569D01*
X36576000Y24244560D01*
X37147500Y24244560D01*
X37147500Y17158539D01*
X36249463Y16260501D01*
X34139272Y16260501D01*
X34183831Y16278958D01*
X34245669Y16514725D01*
X33490000Y17270395D01*
X32734331Y16514725D01*
X32796169Y16278958D01*
X32848591Y16260501D01*
X26519272Y16260501D01*
X26563831Y16278958D01*
X26625669Y16514725D01*
X25870000Y17270395D01*
X25114331Y16514725D01*
X25176169Y16278958D01*
X25228591Y16260501D01*
X23186537Y16260501D01*
X23178325Y16268713D01*
X23188887Y16279257D01*
X23755111Y17642878D01*
X24522581Y17642878D01*
X24551336Y17112560D01*
X24698958Y16756169D01*
X24934725Y16694331D01*
X25690395Y17450000D01*
X26049605Y17450000D01*
X26805275Y16694331D01*
X27041042Y16756169D01*
X27217419Y17257122D01*
X27196503Y17642878D01*
X32142581Y17642878D01*
X32171336Y17112560D01*
X32318958Y16756169D01*
X32554725Y16694331D01*
X33310395Y17450000D01*
X33669605Y17450000D01*
X34425275Y16694331D01*
X34661042Y16756169D01*
X34837419Y17257122D01*
X34808664Y17787440D01*
X34661042Y18143831D01*
X34425275Y18205669D01*
X33669605Y17450000D01*
X33310395Y17450000D01*
X32554725Y18205669D01*
X32318958Y18143831D01*
X32142581Y17642878D01*
X27196503Y17642878D01*
X27188664Y17787440D01*
X27041042Y18143831D01*
X26805275Y18205669D01*
X26049605Y17450000D01*
X25690395Y17450000D01*
X24934725Y18205669D01*
X24698958Y18143831D01*
X24522581Y17642878D01*
X23755111Y17642878D01*
X23934150Y18074050D01*
X23934170Y18097500D01*
X24130000Y18097500D01*
X24494506Y18170005D01*
X24803519Y18376481D01*
X24812313Y18385275D01*
X25114331Y18385275D01*
X25870000Y17629605D01*
X26625669Y18385275D01*
X32734331Y18385275D01*
X33490000Y17629605D01*
X34245669Y18385275D01*
X34183831Y18621042D01*
X33682878Y18797419D01*
X33152560Y18768664D01*
X32796169Y18621042D01*
X32734331Y18385275D01*
X26625669Y18385275D01*
X26563831Y18621042D01*
X26062878Y18797419D01*
X25532560Y18768664D01*
X25176169Y18621042D01*
X25114331Y18385275D01*
X24812313Y18385275D01*
X31153519Y24726481D01*
X31359995Y25035494D01*
X31432500Y25400000D01*
X31432500Y28331288D01*
X31636996Y28462878D01*
X33742581Y28462878D01*
X33771336Y27932560D01*
X33918958Y27576169D01*
X34154725Y27514331D01*
X34910395Y28270000D01*
X34154725Y29025669D01*
X33918958Y28963831D01*
X33742581Y28462878D01*
X31636996Y28462878D01*
X31642641Y28466510D01*
X31673381Y28511500D01*
X31877000Y28511500D01*
X32241506Y28584005D01*
X32550519Y28790481D01*
X32965313Y29205275D01*
X34334331Y29205275D01*
X35090000Y28449605D01*
X35845669Y29205275D01*
X35783831Y29441042D01*
X35282878Y29617419D01*
X34752560Y29588664D01*
X34396169Y29441042D01*
X34334331Y29205275D01*
X32965313Y29205275D01*
X33198069Y29438031D01*
X33503689Y29564311D01*
X33807622Y29867714D01*
X33972313Y30264332D01*
X33972687Y30693784D01*
X33808689Y31090689D01*
X33543880Y31355961D01*
X33827440Y31371336D01*
X34183831Y31518958D01*
X34245669Y31754725D01*
X40354331Y31754725D01*
X40416169Y31518958D01*
X40917122Y31342581D01*
X41447440Y31371336D01*
X41803831Y31518958D01*
X41865669Y31754725D01*
X41110000Y32510395D01*
X40354331Y31754725D01*
X34245669Y31754725D01*
X33490000Y32510395D01*
X32734331Y31754725D01*
X32785511Y31559594D01*
X32679216Y31559687D01*
X32282311Y31395689D01*
X31978378Y31092286D01*
X31850653Y30784691D01*
X31772422Y30706460D01*
X31826200Y30836291D01*
X31826200Y31210250D01*
X31667450Y31369000D01*
X30607000Y31369000D01*
X30607000Y31349000D01*
X30353000Y31349000D01*
X30353000Y31369000D01*
X29292550Y31369000D01*
X29133800Y31210250D01*
X29133800Y30836291D01*
X29230473Y30602902D01*
X29350536Y30482839D01*
X29317359Y30461490D01*
X29172369Y30249290D01*
X29121360Y29997400D01*
X29121360Y28930600D01*
X29165638Y28695283D01*
X29304710Y28479159D01*
X29516910Y28334169D01*
X29527500Y28332024D01*
X29527500Y25794538D01*
X23881621Y20148659D01*
X23193716Y21813515D01*
X23177149Y21830111D01*
X23533519Y22186481D01*
X23739995Y22495494D01*
X23812500Y22860000D01*
X23812500Y27334725D01*
X26714331Y27334725D01*
X26776169Y27098958D01*
X27277122Y26922581D01*
X27807440Y26951336D01*
X28163831Y27098958D01*
X28225669Y27334725D01*
X27470000Y28090395D01*
X26714331Y27334725D01*
X23812500Y27334725D01*
X23812500Y28331288D01*
X24016996Y28462878D01*
X26122581Y28462878D01*
X26151336Y27932560D01*
X26298958Y27576169D01*
X26534725Y27514331D01*
X27290395Y28270000D01*
X27649605Y28270000D01*
X28405275Y27514331D01*
X28641042Y27576169D01*
X28817419Y28077122D01*
X28788664Y28607440D01*
X28641042Y28963831D01*
X28405275Y29025669D01*
X27649605Y28270000D01*
X27290395Y28270000D01*
X26534725Y29025669D01*
X26298958Y28963831D01*
X26122581Y28462878D01*
X24016996Y28462878D01*
X24022641Y28466510D01*
X24053381Y28511500D01*
X24892000Y28511500D01*
X25256506Y28584005D01*
X25565519Y28790481D01*
X25980313Y29205275D01*
X26714331Y29205275D01*
X27470000Y28449605D01*
X28225669Y29205275D01*
X28163831Y29441042D01*
X27662878Y29617419D01*
X27132560Y29588664D01*
X26776169Y29441042D01*
X26714331Y29205275D01*
X25980313Y29205275D01*
X26213069Y29438031D01*
X26518689Y29564311D01*
X26822622Y29867714D01*
X26987313Y30264332D01*
X26987687Y30693784D01*
X26823689Y31090689D01*
X26520286Y31394622D01*
X26392130Y31447837D01*
X26563831Y31518958D01*
X26625669Y31754725D01*
X25870000Y32510395D01*
X25114331Y31754725D01*
X25176169Y31518958D01*
X25402655Y31439216D01*
X25297311Y31395689D01*
X24993378Y31092286D01*
X24865653Y30784691D01*
X24497462Y30416500D01*
X24056101Y30416500D01*
X24035290Y30448841D01*
X23987868Y30481243D01*
X24109527Y30602902D01*
X24206200Y30836291D01*
X24206200Y31210250D01*
X24047450Y31369000D01*
X22987000Y31369000D01*
X22987000Y31349000D01*
X22733000Y31349000D01*
X22733000Y31369000D01*
X21672550Y31369000D01*
X21513800Y31210250D01*
X21513800Y30836291D01*
X21610473Y30602902D01*
X21730536Y30482839D01*
X21697359Y30461490D01*
X21552369Y30249290D01*
X21501360Y29997400D01*
X21501360Y28930600D01*
X21545638Y28695283D01*
X21684710Y28479159D01*
X21896910Y28334169D01*
X21907500Y28332024D01*
X21907500Y23254538D01*
X21831287Y23178325D01*
X21820743Y23188887D01*
X20025950Y23934150D01*
X20002500Y23934170D01*
X20002500Y24384000D01*
X19929995Y24748506D01*
X19723519Y25057519D01*
X19240500Y25540538D01*
X19240500Y27069266D01*
X19657122Y26922581D01*
X20187440Y26951336D01*
X20543831Y27098958D01*
X20605669Y27334725D01*
X19850000Y28090395D01*
X19835858Y28076252D01*
X19656252Y28255858D01*
X19670395Y28270000D01*
X20029605Y28270000D01*
X20785275Y27514331D01*
X21021042Y27576169D01*
X21197419Y28077122D01*
X21168664Y28607440D01*
X21021042Y28963831D01*
X20785275Y29025669D01*
X20029605Y28270000D01*
X19670395Y28270000D01*
X19656252Y28284142D01*
X19835858Y28463748D01*
X19850000Y28449605D01*
X20605669Y29205275D01*
X20543831Y29441042D01*
X20042878Y29617419D01*
X19512560Y29588664D01*
X19240500Y29475973D01*
X19240500Y29958934D01*
X19367313Y30264332D01*
X19367687Y30693784D01*
X19203689Y31090689D01*
X18900286Y31394622D01*
X18772130Y31447837D01*
X18943831Y31518958D01*
X19005669Y31754725D01*
X18250000Y32510395D01*
X17494331Y31754725D01*
X17556169Y31518958D01*
X17782655Y31439216D01*
X17677311Y31395689D01*
X17373378Y31092286D01*
X17208687Y30695668D01*
X17208313Y30266216D01*
X17335500Y29958400D01*
X17335500Y28224521D01*
X17228090Y28391441D01*
X17015890Y28536431D01*
X16764000Y28587440D01*
X16192500Y28587440D01*
X16192500Y29958934D01*
X16319313Y30264332D01*
X16319687Y30693784D01*
X16155689Y31090689D01*
X15852286Y31394622D01*
X15455668Y31559313D01*
X15026216Y31559687D01*
X14629311Y31395689D01*
X14325378Y31092286D01*
X14160687Y30695668D01*
X14160313Y30266216D01*
X14287500Y29958400D01*
X14287500Y28587440D01*
X13716000Y28587440D01*
X13551428Y28556474D01*
X13548664Y28607440D01*
X13401042Y28963831D01*
X13165275Y29025669D01*
X12409605Y28270000D01*
X12423748Y28255858D01*
X12244142Y28076252D01*
X12230000Y28090395D01*
X11474331Y27334725D01*
X11536169Y27098958D01*
X12037122Y26922581D01*
X12567440Y26951336D01*
X12923831Y27098958D01*
X12985669Y27334723D01*
X13068560Y27251832D01*
X13068560Y24892000D01*
X13112838Y24656683D01*
X13251910Y24440559D01*
X13464110Y24295569D01*
X13716000Y24244560D01*
X14287500Y24244560D01*
X14287500Y22860000D01*
X14360005Y22495494D01*
X14566481Y22186481D01*
X14921675Y21831287D01*
X14911113Y21820743D01*
X14291790Y20329248D01*
X11112500Y23508538D01*
X11112500Y27562126D01*
X11294725Y27514331D01*
X12050395Y28270000D01*
X12036252Y28284142D01*
X12215858Y28463748D01*
X12230000Y28449605D01*
X12985669Y29205275D01*
X12923831Y29441042D01*
X12422878Y29617419D01*
X12074992Y29598556D01*
X12344620Y29867714D01*
X12509311Y30264332D01*
X12509685Y30693784D01*
X12345687Y31090689D01*
X12042284Y31394622D01*
X11645666Y31559313D01*
X11334487Y31559584D01*
X11385669Y31754725D01*
X10630000Y32510395D01*
X9874331Y31754725D01*
X9936169Y31518958D01*
X10437122Y31342581D01*
X10785004Y31361444D01*
X10515376Y31092286D01*
X10387651Y30784691D01*
X9486481Y29883521D01*
X9280005Y29574508D01*
X9207500Y29210002D01*
X9017000Y29210002D01*
X9017000Y32069370D01*
X9310763Y32363133D01*
X9311336Y32352560D01*
X9458958Y31996169D01*
X9694725Y31934331D01*
X10450395Y32690000D01*
X10809605Y32690000D01*
X11565275Y31934331D01*
X11801042Y31996169D01*
X11977419Y32497122D01*
X11948664Y33027440D01*
X11801042Y33383831D01*
X11565275Y33445669D01*
X10809605Y32690000D01*
X10450395Y32690000D01*
X10436252Y32704142D01*
X10615858Y32883748D01*
X10630000Y32869605D01*
X11385669Y33625275D01*
X11366388Y33698788D01*
X11563941Y33825910D01*
X11708931Y34038110D01*
X11753510Y34258250D01*
X13081000Y34258250D01*
X13081000Y32893691D01*
X13177673Y32660302D01*
X13356301Y32481673D01*
X13589690Y32385000D01*
X14954250Y32385000D01*
X15113000Y32543750D01*
X15113000Y34417000D01*
X15367000Y34417000D01*
X15367000Y32543750D01*
X15525750Y32385000D01*
X16890310Y32385000D01*
X16928714Y32400908D01*
X16931336Y32352560D01*
X17078958Y31996169D01*
X17314725Y31934331D01*
X18070395Y32690000D01*
X18429605Y32690000D01*
X19185275Y31934331D01*
X19421042Y31996169D01*
X19477213Y32155709D01*
X21513800Y32155709D01*
X21513800Y31781750D01*
X21672550Y31623000D01*
X22733000Y31623000D01*
X22733000Y32505650D01*
X22987000Y32505650D01*
X22987000Y31623000D01*
X24047450Y31623000D01*
X24206200Y31781750D01*
X24206200Y32155709D01*
X24109527Y32389098D01*
X23930899Y32567727D01*
X23697510Y32664400D01*
X23145750Y32664400D01*
X22987000Y32505650D01*
X22733000Y32505650D01*
X22574250Y32664400D01*
X22022490Y32664400D01*
X21789101Y32567727D01*
X21610473Y32389098D01*
X21513800Y32155709D01*
X19477213Y32155709D01*
X19597419Y32497122D01*
X19576503Y32882878D01*
X24522581Y32882878D01*
X24551336Y32352560D01*
X24698958Y31996169D01*
X24934725Y31934331D01*
X25690395Y32690000D01*
X26049605Y32690000D01*
X26805275Y31934331D01*
X27041042Y31996169D01*
X27097213Y32155709D01*
X29133800Y32155709D01*
X29133800Y31781750D01*
X29292550Y31623000D01*
X30353000Y31623000D01*
X30353000Y32505650D01*
X30607000Y32505650D01*
X30607000Y31623000D01*
X31667450Y31623000D01*
X31826200Y31781750D01*
X31826200Y32155709D01*
X31729527Y32389098D01*
X31550899Y32567727D01*
X31317510Y32664400D01*
X30765750Y32664400D01*
X30607000Y32505650D01*
X30353000Y32505650D01*
X30194250Y32664400D01*
X29642490Y32664400D01*
X29409101Y32567727D01*
X29230473Y32389098D01*
X29133800Y32155709D01*
X27097213Y32155709D01*
X27217419Y32497122D01*
X27196503Y32882878D01*
X32142581Y32882878D01*
X32171336Y32352560D01*
X32318958Y31996169D01*
X32554725Y31934331D01*
X33310395Y32690000D01*
X33669605Y32690000D01*
X34425275Y31934331D01*
X34661042Y31996169D01*
X34837419Y32497122D01*
X34808664Y33027440D01*
X34661042Y33383831D01*
X34425275Y33445669D01*
X33669605Y32690000D01*
X33310395Y32690000D01*
X32554725Y33445669D01*
X32318958Y33383831D01*
X32142581Y32882878D01*
X27196503Y32882878D01*
X27188664Y33027440D01*
X27041042Y33383831D01*
X26805275Y33445669D01*
X26049605Y32690000D01*
X25690395Y32690000D01*
X24934725Y33445669D01*
X24698958Y33383831D01*
X24522581Y32882878D01*
X19576503Y32882878D01*
X19568664Y33027440D01*
X19421042Y33383831D01*
X19185275Y33445669D01*
X18429605Y32690000D01*
X18070395Y32690000D01*
X18056252Y32704142D01*
X18235858Y32883748D01*
X18250000Y32869605D01*
X19005669Y33625275D01*
X25114331Y33625275D01*
X25870000Y32869605D01*
X26625669Y33625275D01*
X32734331Y33625275D01*
X33490000Y32869605D01*
X34245669Y33625275D01*
X34183831Y33861042D01*
X33682878Y34037419D01*
X33152560Y34008664D01*
X32796169Y33861042D01*
X32734331Y33625275D01*
X26625669Y33625275D01*
X26563831Y33861042D01*
X26062878Y34037419D01*
X25532560Y34008664D01*
X25176169Y33861042D01*
X25114331Y33625275D01*
X19005669Y33625275D01*
X18943831Y33861042D01*
X18442878Y34037419D01*
X17912560Y34008664D01*
X17556169Y33861042D01*
X17494331Y33625277D01*
X17399000Y33720608D01*
X17399000Y34258250D01*
X35941000Y34258250D01*
X35941000Y32893691D01*
X36037673Y32660302D01*
X36216301Y32481673D01*
X36449690Y32385000D01*
X37814250Y32385000D01*
X37973000Y32543750D01*
X37973000Y34417000D01*
X38227000Y34417000D01*
X38227000Y32543750D01*
X38385750Y32385000D01*
X39750310Y32385000D01*
X39788714Y32400908D01*
X39791336Y32352560D01*
X39938958Y31996169D01*
X40174725Y31934331D01*
X40930395Y32690000D01*
X41289605Y32690000D01*
X42045275Y31934331D01*
X42281042Y31996169D01*
X42457419Y32497122D01*
X42436503Y32882878D01*
X47382581Y32882878D01*
X47411336Y32352560D01*
X47558958Y31996169D01*
X47794725Y31934331D01*
X48550395Y32690000D01*
X48909605Y32690000D01*
X49665275Y31934331D01*
X49901042Y31996169D01*
X50077419Y32497122D01*
X50056503Y32882878D01*
X55002581Y32882878D01*
X55031336Y32352560D01*
X55178958Y31996169D01*
X55414725Y31934331D01*
X56170395Y32690000D01*
X56529605Y32690000D01*
X57285275Y31934331D01*
X57521042Y31996169D01*
X57697419Y32497122D01*
X57668664Y33027440D01*
X57521042Y33383831D01*
X57285275Y33445669D01*
X56529605Y32690000D01*
X56170395Y32690000D01*
X55414725Y33445669D01*
X55178958Y33383831D01*
X55002581Y32882878D01*
X50056503Y32882878D01*
X50048664Y33027440D01*
X49901042Y33383831D01*
X49665275Y33445669D01*
X48909605Y32690000D01*
X48550395Y32690000D01*
X47794725Y33445669D01*
X47558958Y33383831D01*
X47382581Y32882878D01*
X42436503Y32882878D01*
X42428664Y33027440D01*
X42281042Y33383831D01*
X42045275Y33445669D01*
X41289605Y32690000D01*
X40930395Y32690000D01*
X40916252Y32704142D01*
X41095858Y32883748D01*
X41110000Y32869605D01*
X41865669Y33625275D01*
X41803831Y33861042D01*
X41302878Y34037419D01*
X40772560Y34008664D01*
X40416169Y33861042D01*
X40354331Y33625277D01*
X40259000Y33720608D01*
X40259000Y34258250D01*
X40100250Y34417000D01*
X38227000Y34417000D01*
X37973000Y34417000D01*
X36099750Y34417000D01*
X35941000Y34258250D01*
X17399000Y34258250D01*
X17240250Y34417000D01*
X15367000Y34417000D01*
X15113000Y34417000D01*
X13239750Y34417000D01*
X13081000Y34258250D01*
X11753510Y34258250D01*
X11759940Y34290000D01*
X11759940Y36194309D01*
X13081000Y36194309D01*
X13081000Y34829750D01*
X13239750Y34671000D01*
X15113000Y34671000D01*
X15113000Y36544250D01*
X15367000Y36544250D01*
X15367000Y34671000D01*
X17240250Y34671000D01*
X17399000Y34829750D01*
X17399000Y36194309D01*
X35941000Y36194309D01*
X35941000Y34829750D01*
X36099750Y34671000D01*
X37973000Y34671000D01*
X37973000Y36544250D01*
X38227000Y36544250D01*
X38227000Y34671000D01*
X40100250Y34671000D01*
X40259000Y34829750D01*
X40259000Y36194309D01*
X40162327Y36427698D01*
X39983699Y36606327D01*
X39750310Y36703000D01*
X38385750Y36703000D01*
X38227000Y36544250D01*
X37973000Y36544250D01*
X37814250Y36703000D01*
X36449690Y36703000D01*
X36216301Y36606327D01*
X36037673Y36427698D01*
X35941000Y36194309D01*
X17399000Y36194309D01*
X17302327Y36427698D01*
X17123699Y36606327D01*
X16890310Y36703000D01*
X15525750Y36703000D01*
X15367000Y36544250D01*
X15113000Y36544250D01*
X14954250Y36703000D01*
X13589690Y36703000D01*
X13356301Y36606327D01*
X13177673Y36427698D01*
X13081000Y36194309D01*
X11759940Y36194309D01*
X11759940Y38411745D01*
X38591350Y38411745D01*
X39086113Y37807188D01*
X40871147Y37038840D01*
X42814337Y37012083D01*
X44619850Y37730990D01*
X44733887Y37807188D01*
X45228650Y38411745D01*
X41910000Y41730395D01*
X38591350Y38411745D01*
X11759940Y38411745D01*
X11759940Y41005663D01*
X37012083Y41005663D01*
X37730990Y39200150D01*
X37807188Y39086113D01*
X38411745Y38591350D01*
X41730395Y41910000D01*
X38411745Y45228650D01*
X37807188Y44733887D01*
X37038840Y42948853D01*
X37012083Y41005663D01*
X11759940Y41005663D01*
X11759940Y41910000D01*
X11715662Y42145317D01*
X11607136Y42313972D01*
X12037122Y42162581D01*
X12567440Y42191336D01*
X12923831Y42338958D01*
X12985669Y42574725D01*
X19094331Y42574725D01*
X19156169Y42338958D01*
X19657122Y42162581D01*
X20187440Y42191336D01*
X20543831Y42338958D01*
X20605669Y42574725D01*
X26714331Y42574725D01*
X26776169Y42338958D01*
X27277122Y42162581D01*
X27807440Y42191336D01*
X28163831Y42338958D01*
X28225669Y42574725D01*
X34334331Y42574725D01*
X34396169Y42338958D01*
X34897122Y42162581D01*
X35427440Y42191336D01*
X35783831Y42338958D01*
X35845669Y42574725D01*
X35090000Y43330395D01*
X34334331Y42574725D01*
X28225669Y42574725D01*
X27470000Y43330395D01*
X26714331Y42574725D01*
X20605669Y42574725D01*
X19850000Y43330395D01*
X19094331Y42574725D01*
X12985669Y42574725D01*
X12230000Y43330395D01*
X11474331Y42574725D01*
X11520159Y42399999D01*
X11364390Y42506431D01*
X11112500Y42557440D01*
X9207500Y42557440D01*
X8972183Y42513162D01*
X8890997Y42460920D01*
X8824390Y42506431D01*
X8572500Y42557440D01*
X6667500Y42557440D01*
X6432183Y42513162D01*
X6355226Y42463641D01*
X6158809Y42545000D01*
X5365750Y42545000D01*
X5355072Y42534322D01*
X5365669Y42574725D01*
X4610000Y43330395D01*
X3854331Y42574725D01*
X3875755Y42493043D01*
X3767802Y42448327D01*
X3589173Y42269699D01*
X3492500Y42036310D01*
X3492500Y38385750D01*
X3651250Y38227000D01*
X4953000Y38227000D01*
X4953000Y38247000D01*
X5207000Y38247000D01*
X5207000Y38227000D01*
X5227000Y38227000D01*
X5227000Y37973000D01*
X5207000Y37973000D01*
X5207000Y33813750D01*
X5365750Y33655000D01*
X6158809Y33655000D01*
X6353831Y33735781D01*
X6415610Y33693569D01*
X6667500Y33642560D01*
X6858000Y33642560D01*
X6858000Y16557396D01*
X6819668Y16573313D01*
X6390216Y16573687D01*
X6082400Y16446500D01*
X3747775Y16446500D01*
X3765669Y16514725D01*
X3010000Y17270395D01*
X2304193Y16564587D01*
X1931864Y16410744D01*
X1711211Y16740975D01*
X1711211Y16740976D01*
X1606093Y16846093D01*
X1500976Y16951211D01*
X1500973Y16951212D01*
X1006554Y17281572D01*
X845647Y17348221D01*
X762000Y17382869D01*
X762000Y17642878D01*
X1662581Y17642878D01*
X1691336Y17112560D01*
X1838958Y16756169D01*
X2074725Y16694331D01*
X2830395Y17450000D01*
X3189605Y17450000D01*
X3945275Y16694331D01*
X4181042Y16756169D01*
X4357419Y17257122D01*
X4328664Y17787440D01*
X4181042Y18143831D01*
X3945275Y18205669D01*
X3189605Y17450000D01*
X2830395Y17450000D01*
X2074725Y18205669D01*
X1838958Y18143831D01*
X1662581Y17642878D01*
X762000Y17642878D01*
X762000Y18385275D01*
X2254331Y18385275D01*
X3010000Y17629605D01*
X3765669Y18385275D01*
X3703831Y18621042D01*
X3202878Y18797419D01*
X2672560Y18768664D01*
X2316169Y18621042D01*
X2254331Y18385275D01*
X762000Y18385275D01*
X762000Y27334725D01*
X3854331Y27334725D01*
X3916169Y27098958D01*
X4417122Y26922581D01*
X4947440Y26951336D01*
X5303831Y27098958D01*
X5365669Y27334725D01*
X4610000Y28090395D01*
X3854331Y27334725D01*
X762000Y27334725D01*
X762000Y28462878D01*
X3262581Y28462878D01*
X3291336Y27932560D01*
X3438958Y27576169D01*
X3674725Y27514331D01*
X4430395Y28270000D01*
X4789605Y28270000D01*
X5545275Y27514331D01*
X5781042Y27576169D01*
X5957419Y28077122D01*
X5928664Y28607440D01*
X5781042Y28963831D01*
X5545275Y29025669D01*
X4789605Y28270000D01*
X4430395Y28270000D01*
X3674725Y29025669D01*
X3438958Y28963831D01*
X3262581Y28462878D01*
X762000Y28462878D01*
X762000Y29842575D01*
X1038714Y29565378D01*
X1435332Y29400687D01*
X1864784Y29400313D01*
X2172600Y29527500D01*
X4124897Y29527500D01*
X3916169Y29441042D01*
X3854331Y29205275D01*
X4610000Y28449605D01*
X5365669Y29205275D01*
X5314431Y29400627D01*
X5674784Y29400313D01*
X6071689Y29564311D01*
X6375622Y29867714D01*
X6540313Y30264332D01*
X6540687Y30693784D01*
X6376689Y31090689D01*
X6073286Y31394622D01*
X5676668Y31559313D01*
X5247216Y31559687D01*
X4939400Y31432500D01*
X3495103Y31432500D01*
X3703831Y31518958D01*
X3765669Y31754725D01*
X3010000Y32510395D01*
X2254331Y31754725D01*
X2316169Y31518958D01*
X2561730Y31432500D01*
X2172066Y31432500D01*
X1866668Y31559313D01*
X1437216Y31559687D01*
X1040311Y31395689D01*
X762000Y31117863D01*
X762000Y32882878D01*
X1662581Y32882878D01*
X1691336Y32352560D01*
X1838958Y31996169D01*
X2074725Y31934331D01*
X2830395Y32690000D01*
X3189605Y32690000D01*
X3945275Y31934331D01*
X4181042Y31996169D01*
X4357419Y32497122D01*
X4328664Y33027440D01*
X4181042Y33383831D01*
X3945275Y33445669D01*
X3189605Y32690000D01*
X2830395Y32690000D01*
X2074725Y33445669D01*
X1838958Y33383831D01*
X1662581Y32882878D01*
X762000Y32882878D01*
X762000Y33625275D01*
X2254331Y33625275D01*
X3010000Y32869605D01*
X3765669Y33625275D01*
X3719972Y33799503D01*
X3767802Y33751673D01*
X4001191Y33655000D01*
X4794250Y33655000D01*
X4953000Y33813750D01*
X4953000Y37973000D01*
X3651250Y37973000D01*
X3492500Y37814250D01*
X3492500Y34163690D01*
X3589173Y33930301D01*
X3633762Y33885712D01*
X3202878Y34037419D01*
X2672560Y34008664D01*
X2316169Y33861042D01*
X2254331Y33625275D01*
X762000Y33625275D01*
X762000Y43577131D01*
X845647Y43611779D01*
X1006554Y43678428D01*
X1043146Y43702878D01*
X3262581Y43702878D01*
X3291336Y43172560D01*
X3438958Y42816169D01*
X3674725Y42754331D01*
X4430395Y43510000D01*
X4789605Y43510000D01*
X5545275Y42754331D01*
X5781042Y42816169D01*
X5957419Y43317122D01*
X5936503Y43702878D01*
X10882581Y43702878D01*
X10911336Y43172560D01*
X11058958Y42816169D01*
X11294725Y42754331D01*
X12050395Y43510000D01*
X12409605Y43510000D01*
X13165275Y42754331D01*
X13401042Y42816169D01*
X13577419Y43317122D01*
X13556503Y43702878D01*
X18502581Y43702878D01*
X18531336Y43172560D01*
X18678958Y42816169D01*
X18914725Y42754331D01*
X19670395Y43510000D01*
X20029605Y43510000D01*
X20785275Y42754331D01*
X21021042Y42816169D01*
X21197419Y43317122D01*
X21176503Y43702878D01*
X26122581Y43702878D01*
X26151336Y43172560D01*
X26298958Y42816169D01*
X26534725Y42754331D01*
X27290395Y43510000D01*
X27649605Y43510000D01*
X28405275Y42754331D01*
X28641042Y42816169D01*
X28817419Y43317122D01*
X28796503Y43702878D01*
X33742581Y43702878D01*
X33771336Y43172560D01*
X33918958Y42816169D01*
X34154725Y42754331D01*
X34910395Y43510000D01*
X35269605Y43510000D01*
X36025275Y42754331D01*
X36261042Y42816169D01*
X36437419Y43317122D01*
X36408664Y43847440D01*
X36261042Y44203831D01*
X36025275Y44265669D01*
X35269605Y43510000D01*
X34910395Y43510000D01*
X34154725Y44265669D01*
X33918958Y44203831D01*
X33742581Y43702878D01*
X28796503Y43702878D01*
X28788664Y43847440D01*
X28641042Y44203831D01*
X28405275Y44265669D01*
X27649605Y43510000D01*
X27290395Y43510000D01*
X26534725Y44265669D01*
X26298958Y44203831D01*
X26122581Y43702878D01*
X21176503Y43702878D01*
X21168664Y43847440D01*
X21021042Y44203831D01*
X20785275Y44265669D01*
X20029605Y43510000D01*
X19670395Y43510000D01*
X18914725Y44265669D01*
X18678958Y44203831D01*
X18502581Y43702878D01*
X13556503Y43702878D01*
X13548664Y43847440D01*
X13401042Y44203831D01*
X13165275Y44265669D01*
X12409605Y43510000D01*
X12050395Y43510000D01*
X11294725Y44265669D01*
X11058958Y44203831D01*
X10882581Y43702878D01*
X5936503Y43702878D01*
X5928664Y43847440D01*
X5781042Y44203831D01*
X5545275Y44265669D01*
X4789605Y43510000D01*
X4430395Y43510000D01*
X3674725Y44265669D01*
X3438958Y44203831D01*
X3262581Y43702878D01*
X1043146Y43702878D01*
X1500973Y44008788D01*
X1500976Y44008789D01*
X1606093Y44113907D01*
X1711211Y44219024D01*
X1711212Y44219027D01*
X1862385Y44445275D01*
X3854331Y44445275D01*
X4610000Y43689605D01*
X5365669Y44445275D01*
X11474331Y44445275D01*
X12230000Y43689605D01*
X12985669Y44445275D01*
X19094331Y44445275D01*
X19850000Y43689605D01*
X20605669Y44445275D01*
X26714331Y44445275D01*
X27470000Y43689605D01*
X28225669Y44445275D01*
X34334331Y44445275D01*
X35090000Y43689605D01*
X35845669Y44445275D01*
X35783831Y44681042D01*
X35282878Y44857419D01*
X34752560Y44828664D01*
X34396169Y44681042D01*
X34334331Y44445275D01*
X28225669Y44445275D01*
X28163831Y44681042D01*
X27662878Y44857419D01*
X27132560Y44828664D01*
X26776169Y44681042D01*
X26714331Y44445275D01*
X20605669Y44445275D01*
X20543831Y44681042D01*
X20042878Y44857419D01*
X19512560Y44828664D01*
X19156169Y44681042D01*
X19094331Y44445275D01*
X12985669Y44445275D01*
X12923831Y44681042D01*
X12422878Y44857419D01*
X11892560Y44828664D01*
X11536169Y44681042D01*
X11474331Y44445275D01*
X5365669Y44445275D01*
X5303831Y44681042D01*
X4802878Y44857419D01*
X4272560Y44828664D01*
X3916169Y44681042D01*
X3854331Y44445275D01*
X1862385Y44445275D01*
X2041572Y44713446D01*
X2147124Y44968271D01*
X2324332Y44894687D01*
X2753784Y44894313D01*
X3061600Y45021500D01*
X6336934Y45021500D01*
X6642332Y44894687D01*
X7071784Y44894313D01*
X7468689Y45058311D01*
X7772622Y45361714D01*
X7791947Y45408255D01*
X38591350Y45408255D01*
X41910000Y42089605D01*
X42122068Y42301673D01*
X42387739Y42208134D01*
X42089605Y41910000D01*
X45408255Y38591350D01*
X46012812Y39086113D01*
X46781160Y40871147D01*
X46807917Y42814337D01*
X46454124Y43702878D01*
X48982581Y43702878D01*
X49011336Y43172560D01*
X49158958Y42816169D01*
X49394725Y42754331D01*
X50150395Y43510000D01*
X49394725Y44265669D01*
X49158958Y44203831D01*
X48982581Y43702878D01*
X46454124Y43702878D01*
X46158522Y44445275D01*
X49574331Y44445275D01*
X50330000Y43689605D01*
X51085669Y44445275D01*
X51023831Y44681042D01*
X50522878Y44857419D01*
X49992560Y44828664D01*
X49636169Y44681042D01*
X49574331Y44445275D01*
X46158522Y44445275D01*
X46089010Y44619850D01*
X46012812Y44733887D01*
X45408255Y45228650D01*
X44028190Y43848585D01*
X43922980Y44102585D01*
X45228650Y45408255D01*
X44733887Y46012812D01*
X42948853Y46781160D01*
X41813754Y46796790D01*
X41865669Y46994725D01*
X47974331Y46994725D01*
X48036169Y46758958D01*
X48537122Y46582581D01*
X49067440Y46611336D01*
X49423831Y46758958D01*
X49485669Y46994725D01*
X48730000Y47750395D01*
X47974331Y46994725D01*
X41865669Y46994725D01*
X41110000Y47750395D01*
X40354331Y46994725D01*
X40416169Y46758958D01*
X40663767Y46671783D01*
X39200150Y46089010D01*
X39086113Y46012812D01*
X38591350Y45408255D01*
X7791947Y45408255D01*
X7937313Y45758332D01*
X7937687Y46187784D01*
X7773689Y46584689D01*
X7470286Y46888622D01*
X7214763Y46994725D01*
X9874331Y46994725D01*
X9936169Y46758958D01*
X10437122Y46582581D01*
X10967440Y46611336D01*
X11323831Y46758958D01*
X11385669Y46994725D01*
X17494331Y46994725D01*
X17556169Y46758958D01*
X18057122Y46582581D01*
X18587440Y46611336D01*
X18943831Y46758958D01*
X19005669Y46994725D01*
X25114331Y46994725D01*
X25176169Y46758958D01*
X25677122Y46582581D01*
X26207440Y46611336D01*
X26563831Y46758958D01*
X26625669Y46994725D01*
X32734331Y46994725D01*
X32796169Y46758958D01*
X33297122Y46582581D01*
X33827440Y46611336D01*
X34183831Y46758958D01*
X34245669Y46994725D01*
X33490000Y47750395D01*
X32734331Y46994725D01*
X26625669Y46994725D01*
X25870000Y47750395D01*
X25114331Y46994725D01*
X19005669Y46994725D01*
X18250000Y47750395D01*
X17494331Y46994725D01*
X11385669Y46994725D01*
X10630000Y47750395D01*
X9874331Y46994725D01*
X7214763Y46994725D01*
X7073668Y47053313D01*
X6644216Y47053687D01*
X6336400Y46926500D01*
X3747775Y46926500D01*
X3765669Y46994725D01*
X3010000Y47750395D01*
X2304193Y47044587D01*
X1931864Y46890744D01*
X1711211Y47220975D01*
X1711211Y47220976D01*
X1606093Y47326093D01*
X1500976Y47431211D01*
X1500973Y47431212D01*
X1006554Y47761572D01*
X845647Y47828221D01*
X762000Y47862869D01*
X762000Y48122878D01*
X1662581Y48122878D01*
X1691336Y47592560D01*
X1838958Y47236169D01*
X2074725Y47174331D01*
X2830395Y47930000D01*
X3189605Y47930000D01*
X3945275Y47174331D01*
X4181042Y47236169D01*
X4357419Y47737122D01*
X4336503Y48122878D01*
X9282581Y48122878D01*
X9311336Y47592560D01*
X9458958Y47236169D01*
X9694725Y47174331D01*
X10450395Y47930000D01*
X10809605Y47930000D01*
X11565275Y47174331D01*
X11801042Y47236169D01*
X11977419Y47737122D01*
X11956503Y48122878D01*
X16902581Y48122878D01*
X16931336Y47592560D01*
X17078958Y47236169D01*
X17314725Y47174331D01*
X18070395Y47930000D01*
X18429605Y47930000D01*
X19185275Y47174331D01*
X19421042Y47236169D01*
X19597419Y47737122D01*
X19576503Y48122878D01*
X24522581Y48122878D01*
X24551336Y47592560D01*
X24698958Y47236169D01*
X24934725Y47174331D01*
X25690395Y47930000D01*
X26049605Y47930000D01*
X26805275Y47174331D01*
X27041042Y47236169D01*
X27217419Y47737122D01*
X27196503Y48122878D01*
X32142581Y48122878D01*
X32171336Y47592560D01*
X32318958Y47236169D01*
X32554725Y47174331D01*
X33310395Y47930000D01*
X33669605Y47930000D01*
X34425275Y47174331D01*
X34661042Y47236169D01*
X34837419Y47737122D01*
X34816503Y48122878D01*
X39762581Y48122878D01*
X39791336Y47592560D01*
X39938958Y47236169D01*
X40174725Y47174331D01*
X40930395Y47930000D01*
X41289605Y47930000D01*
X42045275Y47174331D01*
X42281042Y47236169D01*
X42457419Y47737122D01*
X42436503Y48122878D01*
X47382581Y48122878D01*
X47411336Y47592560D01*
X47558958Y47236169D01*
X47794725Y47174331D01*
X48550395Y47930000D01*
X48909605Y47930000D01*
X49665275Y47174331D01*
X49901042Y47236169D01*
X50077419Y47737122D01*
X50048664Y48267440D01*
X49901042Y48623831D01*
X49665275Y48685669D01*
X48909605Y47930000D01*
X48550395Y47930000D01*
X47794725Y48685669D01*
X47558958Y48623831D01*
X47382581Y48122878D01*
X42436503Y48122878D01*
X42428664Y48267440D01*
X42281042Y48623831D01*
X42045275Y48685669D01*
X41289605Y47930000D01*
X40930395Y47930000D01*
X40174725Y48685669D01*
X39938958Y48623831D01*
X39762581Y48122878D01*
X34816503Y48122878D01*
X34808664Y48267440D01*
X34661042Y48623831D01*
X34425275Y48685669D01*
X33669605Y47930000D01*
X33310395Y47930000D01*
X32554725Y48685669D01*
X32318958Y48623831D01*
X32142581Y48122878D01*
X27196503Y48122878D01*
X27188664Y48267440D01*
X27041042Y48623831D01*
X26805275Y48685669D01*
X26049605Y47930000D01*
X25690395Y47930000D01*
X24934725Y48685669D01*
X24698958Y48623831D01*
X24522581Y48122878D01*
X19576503Y48122878D01*
X19568664Y48267440D01*
X19421042Y48623831D01*
X19185275Y48685669D01*
X18429605Y47930000D01*
X18070395Y47930000D01*
X17314725Y48685669D01*
X17078958Y48623831D01*
X16902581Y48122878D01*
X11956503Y48122878D01*
X11948664Y48267440D01*
X11801042Y48623831D01*
X11565275Y48685669D01*
X10809605Y47930000D01*
X10450395Y47930000D01*
X9694725Y48685669D01*
X9458958Y48623831D01*
X9282581Y48122878D01*
X4336503Y48122878D01*
X4328664Y48267440D01*
X4181042Y48623831D01*
X3945275Y48685669D01*
X3189605Y47930000D01*
X2830395Y47930000D01*
X2074725Y48685669D01*
X1838958Y48623831D01*
X1662581Y48122878D01*
X762000Y48122878D01*
X762000Y48865275D01*
X2254331Y48865275D01*
X3010000Y48109605D01*
X3765669Y48865275D01*
X9874331Y48865275D01*
X10630000Y48109605D01*
X11385669Y48865275D01*
X17494331Y48865275D01*
X18250000Y48109605D01*
X19005669Y48865275D01*
X18943831Y49101042D01*
X18442878Y49277419D01*
X17912560Y49248664D01*
X17556169Y49101042D01*
X17494331Y48865275D01*
X11385669Y48865275D01*
X11323831Y49101042D01*
X10822878Y49277419D01*
X10292560Y49248664D01*
X9936169Y49101042D01*
X9874331Y48865275D01*
X3765669Y48865275D01*
X3703831Y49101042D01*
X3202878Y49277419D01*
X2672560Y49248664D01*
X2316169Y49101042D01*
X2254331Y48865275D01*
X762000Y48865275D01*
X762000Y52491216D01*
X825313Y52491216D01*
X989311Y52094311D01*
X1143000Y51940354D01*
X1143000Y51435000D01*
X1201004Y51143395D01*
X1235610Y51091604D01*
X1366185Y50896185D01*
X2001185Y50261184D01*
X2149377Y50162166D01*
X2248395Y50096004D01*
X2540000Y50038000D01*
X18402560Y50038000D01*
X18402560Y49847500D01*
X18446838Y49612183D01*
X18585910Y49396059D01*
X18798110Y49251069D01*
X19050000Y49200060D01*
X25415220Y49200060D01*
X25176169Y49101042D01*
X25114331Y48865275D01*
X25870000Y48109605D01*
X26625669Y48865275D01*
X32734331Y48865275D01*
X33490000Y48109605D01*
X34245669Y48865275D01*
X40354331Y48865275D01*
X41110000Y48109605D01*
X41865669Y48865275D01*
X47974331Y48865275D01*
X48730000Y48109605D01*
X49485669Y48865275D01*
X49423831Y49101042D01*
X48922878Y49277419D01*
X48392560Y49248664D01*
X48036169Y49101042D01*
X47974331Y48865275D01*
X41865669Y48865275D01*
X41803831Y49101042D01*
X41302878Y49277419D01*
X40772560Y49248664D01*
X40416169Y49101042D01*
X40354331Y48865275D01*
X34245669Y48865275D01*
X34183831Y49101042D01*
X33682878Y49277419D01*
X33152560Y49248664D01*
X32796169Y49101042D01*
X32734331Y48865275D01*
X26625669Y48865275D01*
X26563831Y49101042D01*
X26282596Y49200060D01*
X26670000Y49200060D01*
X26905317Y49244338D01*
X27121441Y49383410D01*
X27266431Y49595610D01*
X27317440Y49847500D01*
X27317440Y50040474D01*
X27596605Y50096004D01*
X27843815Y50261185D01*
X29525630Y51943000D01*
X51754370Y51943000D01*
X51943000Y51754369D01*
X51943000Y44130630D01*
X51649237Y43836867D01*
X51648664Y43847440D01*
X51501042Y44203831D01*
X51265275Y44265669D01*
X50509605Y43510000D01*
X50523748Y43495858D01*
X50344142Y43316252D01*
X50330000Y43330395D01*
X49574331Y42574725D01*
X49593612Y42501212D01*
X49396059Y42374090D01*
X49251069Y42161890D01*
X49200060Y41910000D01*
X49200060Y34290000D01*
X49244338Y34054683D01*
X49352864Y33886028D01*
X48922878Y34037419D01*
X48392560Y34008664D01*
X48036169Y33861042D01*
X47974331Y33625275D01*
X48730000Y32869605D01*
X49485669Y33625275D01*
X49439841Y33800001D01*
X49595610Y33693569D01*
X49847500Y33642560D01*
X51752500Y33642560D01*
X51987817Y33686838D01*
X52069003Y33739080D01*
X52135610Y33693569D01*
X52387500Y33642560D01*
X54292500Y33642560D01*
X54527817Y33686838D01*
X54604774Y33736359D01*
X54801191Y33655000D01*
X55594250Y33655000D01*
X55604928Y33665678D01*
X55594331Y33625275D01*
X56350000Y32869605D01*
X57105669Y33625275D01*
X57084245Y33706957D01*
X57192198Y33751673D01*
X57370827Y33930301D01*
X57467500Y34163690D01*
X57467500Y37814250D01*
X57308750Y37973000D01*
X56007000Y37973000D01*
X56007000Y37953000D01*
X55753000Y37953000D01*
X55753000Y37973000D01*
X55733000Y37973000D01*
X55733000Y38227000D01*
X55753000Y38227000D01*
X55753000Y42386250D01*
X56007000Y42386250D01*
X56007000Y38227000D01*
X57308750Y38227000D01*
X57467500Y38385750D01*
X57467500Y42036310D01*
X57370827Y42269699D01*
X57326238Y42314288D01*
X57757122Y42162581D01*
X58287440Y42191336D01*
X58643831Y42338958D01*
X58705669Y42574725D01*
X57950000Y43330395D01*
X57194331Y42574725D01*
X57240028Y42400497D01*
X57192198Y42448327D01*
X56958809Y42545000D01*
X56165750Y42545000D01*
X56007000Y42386250D01*
X55753000Y42386250D01*
X55594250Y42545000D01*
X54801191Y42545000D01*
X54606169Y42464219D01*
X54544390Y42506431D01*
X54292500Y42557440D01*
X54102000Y42557440D01*
X54102000Y43702878D01*
X56602581Y43702878D01*
X56631336Y43172560D01*
X56778958Y42816169D01*
X57014725Y42754331D01*
X57770395Y43510000D01*
X58129605Y43510000D01*
X58885275Y42754331D01*
X59121042Y42816169D01*
X59297419Y43317122D01*
X59268664Y43847440D01*
X59121042Y44203831D01*
X58885275Y44265669D01*
X58129605Y43510000D01*
X57770395Y43510000D01*
X57014725Y44265669D01*
X56778958Y44203831D01*
X56602581Y43702878D01*
X54102000Y43702878D01*
X54102000Y44445275D01*
X57194331Y44445275D01*
X57950000Y43689605D01*
X58705669Y44445275D01*
X58643831Y44681042D01*
X58142878Y44857419D01*
X57612560Y44828664D01*
X57256169Y44681042D01*
X57194331Y44445275D01*
X54102000Y44445275D01*
X54102000Y46994725D01*
X55594331Y46994725D01*
X55656169Y46758958D01*
X56157122Y46582581D01*
X56687440Y46611336D01*
X57043831Y46758958D01*
X57105669Y46994725D01*
X56350000Y47750395D01*
X55594331Y46994725D01*
X54102000Y46994725D01*
X54102000Y48122878D01*
X55002581Y48122878D01*
X55031336Y47592560D01*
X55178958Y47236169D01*
X55414725Y47174331D01*
X56170395Y47930000D01*
X56529605Y47930000D01*
X57285275Y47174331D01*
X57521042Y47236169D01*
X57697419Y47737122D01*
X57668664Y48267440D01*
X57521042Y48623831D01*
X57285275Y48685669D01*
X56529605Y47930000D01*
X56170395Y47930000D01*
X55414725Y48685669D01*
X55178958Y48623831D01*
X55002581Y48122878D01*
X54102000Y48122878D01*
X54102000Y48865275D01*
X55594331Y48865275D01*
X56350000Y48109605D01*
X57105669Y48865275D01*
X57043831Y49101042D01*
X56542878Y49277419D01*
X56012560Y49248664D01*
X55656169Y49101042D01*
X55594331Y48865275D01*
X54102000Y48865275D01*
X54102000Y52705000D01*
X54043996Y52996605D01*
X53977834Y53095623D01*
X53878816Y53243815D01*
X53243815Y53878815D01*
X52996605Y54043996D01*
X52705000Y54102000D01*
X27317440Y54102000D01*
X27317440Y54292500D01*
X27273162Y54527817D01*
X27223641Y54604774D01*
X27305000Y54801191D01*
X27305000Y55594250D01*
X27146250Y55753000D01*
X22987000Y55753000D01*
X22987000Y55733000D01*
X22733000Y55733000D01*
X22733000Y55753000D01*
X18573750Y55753000D01*
X18415000Y55594250D01*
X18415000Y54801191D01*
X18495781Y54606169D01*
X18453569Y54544390D01*
X18402560Y54292500D01*
X18402560Y54099526D01*
X18123395Y54043996D01*
X17876185Y53878815D01*
X16194370Y52197000D01*
X4132926Y52197000D01*
X4254313Y52489332D01*
X4254687Y52918784D01*
X4090689Y53315689D01*
X3787286Y53619622D01*
X3390668Y53784313D01*
X2961216Y53784687D01*
X2564311Y53620689D01*
X2540224Y53596644D01*
X2517286Y53619622D01*
X2120668Y53784313D01*
X1691216Y53784687D01*
X1294311Y53620689D01*
X990378Y53317286D01*
X825687Y52920668D01*
X825313Y52491216D01*
X762000Y52491216D01*
X762000Y56958809D01*
X18415000Y56958809D01*
X18415000Y56165750D01*
X18573750Y56007000D01*
X22733000Y56007000D01*
X22733000Y57308750D01*
X22987000Y57308750D01*
X22987000Y56007000D01*
X27146250Y56007000D01*
X27305000Y56165750D01*
X27305000Y56958809D01*
X27208327Y57192198D01*
X27029699Y57370827D01*
X26796310Y57467500D01*
X23145750Y57467500D01*
X22987000Y57308750D01*
X22733000Y57308750D01*
X22574250Y57467500D01*
X20274748Y57467500D01*
X20543831Y57578958D01*
X20605669Y57814725D01*
X26714331Y57814725D01*
X26776169Y57578958D01*
X27277122Y57402581D01*
X27807440Y57431336D01*
X28163831Y57578958D01*
X28225669Y57814725D01*
X34334331Y57814725D01*
X34396169Y57578958D01*
X34897122Y57402581D01*
X35427440Y57431336D01*
X35783831Y57578958D01*
X35845669Y57814725D01*
X41954331Y57814725D01*
X42016169Y57578958D01*
X42517122Y57402581D01*
X43047440Y57431336D01*
X43403831Y57578958D01*
X43465669Y57814725D01*
X49574331Y57814725D01*
X49636169Y57578958D01*
X50137122Y57402581D01*
X50667440Y57431336D01*
X51023831Y57578958D01*
X51085669Y57814725D01*
X57194331Y57814725D01*
X57256169Y57578958D01*
X57757122Y57402581D01*
X58287440Y57431336D01*
X58643831Y57578958D01*
X58705669Y57814725D01*
X57950000Y58570395D01*
X57194331Y57814725D01*
X51085669Y57814725D01*
X50330000Y58570395D01*
X49574331Y57814725D01*
X43465669Y57814725D01*
X42710000Y58570395D01*
X41954331Y57814725D01*
X35845669Y57814725D01*
X35090000Y58570395D01*
X34334331Y57814725D01*
X28225669Y57814725D01*
X27470000Y58570395D01*
X26714331Y57814725D01*
X20605669Y57814725D01*
X19850000Y58570395D01*
X19094331Y57814725D01*
X19156169Y57578958D01*
X19472736Y57467500D01*
X18923690Y57467500D01*
X18690301Y57370827D01*
X18511673Y57192198D01*
X18415000Y56958809D01*
X762000Y56958809D01*
X762000Y57814725D01*
X3854331Y57814725D01*
X3916169Y57578958D01*
X4417122Y57402581D01*
X4947440Y57431336D01*
X5303831Y57578958D01*
X5365669Y57814725D01*
X11474331Y57814725D01*
X11536169Y57578958D01*
X12037122Y57402581D01*
X12567440Y57431336D01*
X12923831Y57578958D01*
X12985669Y57814725D01*
X12230000Y58570395D01*
X11474331Y57814725D01*
X5365669Y57814725D01*
X4610000Y58570395D01*
X3854331Y57814725D01*
X762000Y57814725D01*
X762000Y58942878D01*
X3262581Y58942878D01*
X3291336Y58412560D01*
X3438958Y58056169D01*
X3674725Y57994331D01*
X4430395Y58750000D01*
X4789605Y58750000D01*
X5545275Y57994331D01*
X5781042Y58056169D01*
X5957419Y58557122D01*
X5936503Y58942878D01*
X10882581Y58942878D01*
X10911336Y58412560D01*
X11058958Y58056169D01*
X11294725Y57994331D01*
X12050395Y58750000D01*
X12409605Y58750000D01*
X13165275Y57994331D01*
X13401042Y58056169D01*
X13577419Y58557122D01*
X13548664Y59087440D01*
X13401042Y59443831D01*
X13165275Y59505669D01*
X12409605Y58750000D01*
X12050395Y58750000D01*
X11294725Y59505669D01*
X11058958Y59443831D01*
X10882581Y58942878D01*
X5936503Y58942878D01*
X5928664Y59087440D01*
X5781042Y59443831D01*
X5545275Y59505669D01*
X4789605Y58750000D01*
X4430395Y58750000D01*
X3674725Y59505669D01*
X3438958Y59443831D01*
X3262581Y58942878D01*
X762000Y58942878D01*
X762000Y59685275D01*
X3854331Y59685275D01*
X4610000Y58929605D01*
X5365669Y59685275D01*
X11474331Y59685275D01*
X12230000Y58929605D01*
X12985669Y59685275D01*
X12923831Y59921042D01*
X12422878Y60097419D01*
X11892560Y60068664D01*
X11536169Y59921042D01*
X11474331Y59685275D01*
X5365669Y59685275D01*
X5303831Y59921042D01*
X4802878Y60097419D01*
X4272560Y60068664D01*
X3916169Y59921042D01*
X3854331Y59685275D01*
X762000Y59685275D01*
X762000Y60198000D01*
X13097131Y60198000D01*
X13198428Y59953446D01*
M02*
