G04 #@! TF.FileFunction,Legend,Bot*
%FSLAX46Y46*%
G04 Gerber Fmt 4.6, Leading zero omitted, Abs format (unit mm)*
G04 Created by KiCad (PCBNEW 4.0.1-3.201512221401+6198~38~ubuntu15.10.1-stable) date Thu Feb 18 21:59:59 2016*
%MOMM*%
G01*
G04 APERTURE LIST*
%ADD10C,0.152400*%
%ADD11C,0.254000*%
%ADD12C,0.190500*%
%ADD13C,0.002540*%
%ADD14C,0.010000*%
%ADD15C,0.381000*%
%ADD16C,0.127000*%
%ADD17C,0.508000*%
%ADD18C,0.203200*%
%ADD19R,1.930400X1.574800*%
%ADD20C,9.008000*%
%ADD21R,8.128000X2.413000*%
%ADD22R,2.413000X8.128000*%
%ADD23C,1.908000*%
%ADD24R,3.556000X3.556000*%
G04 APERTURE END LIST*
D10*
D11*
X44196000Y0D02*
X16764000Y0D01*
X60960000Y0D02*
X47244000Y0D01*
X60960000Y13716000D02*
X60960000Y0D01*
X60960000Y44196000D02*
X60960000Y16764000D01*
X60960000Y60960000D02*
X60960000Y47244000D01*
X47244000Y60960000D02*
X60960000Y60960000D01*
X16764000Y60960000D02*
X44196000Y60960000D01*
X0Y60960000D02*
X13716000Y60960000D01*
X0Y47244000D02*
X0Y60960000D01*
X0Y16764000D02*
X0Y44196000D01*
X0Y0D02*
X0Y13716000D01*
X13716000Y0D02*
X0Y0D01*
X60960000Y16764000D02*
G75*
G03X59436000Y15240000I0J-1524000D01*
G01*
X59436000Y15240000D02*
G75*
G03X60960000Y13716000I1524000J0D01*
G01*
X60960000Y47244000D02*
G75*
G03X59436000Y45720000I0J-1524000D01*
G01*
X59436000Y45720000D02*
G75*
G03X60960000Y44196000I1524000J0D01*
G01*
X44196000Y60960000D02*
G75*
G03X45720000Y59436000I1524000J0D01*
G01*
X45720000Y59436000D02*
G75*
G03X47244000Y60960000I0J1524000D01*
G01*
X13716000Y60960000D02*
G75*
G03X15240000Y59436000I1524000J0D01*
G01*
X15240000Y59436000D02*
G75*
G03X16764000Y60960000I0J1524000D01*
G01*
X0Y44196000D02*
G75*
G03X1524000Y45720000I0J1524000D01*
G01*
X1524000Y45720000D02*
G75*
G03X0Y47244000I-1524000J0D01*
G01*
X0Y13716000D02*
G75*
G03X1524000Y15240000I0J1524000D01*
G01*
X1524000Y15240000D02*
G75*
G03X0Y16764000I-1524000J0D01*
G01*
X16764000Y0D02*
G75*
G03X15240000Y1524000I-1524000J0D01*
G01*
X15240000Y1524000D02*
G75*
G03X13716000Y0I0J-1524000D01*
G01*
X45720000Y1524000D02*
G75*
G03X44196000Y0I0J-1524000D01*
G01*
X47244000Y0D02*
G75*
G03X45720000Y1524000I-1524000J0D01*
G01*
D12*
X51170114Y23180523D02*
X50408114Y23180523D01*
X50408114Y22938618D01*
X50444400Y22793476D01*
X50516971Y22696714D01*
X50589543Y22648333D01*
X50734686Y22599952D01*
X50843543Y22599952D01*
X50988686Y22648333D01*
X51061257Y22696714D01*
X51133829Y22793476D01*
X51170114Y22938618D01*
X51170114Y23180523D01*
X50408114Y21970999D02*
X50408114Y21777476D01*
X50444400Y21680714D01*
X50516971Y21583952D01*
X50662114Y21535571D01*
X50916114Y21535571D01*
X51061257Y21583952D01*
X51133829Y21680714D01*
X51170114Y21777476D01*
X51170114Y21970999D01*
X51133829Y22067761D01*
X51061257Y22164523D01*
X50916114Y22212904D01*
X50662114Y22212904D01*
X50516971Y22164523D01*
X50444400Y22067761D01*
X50408114Y21970999D01*
X51242686Y21342047D02*
X51242686Y20567952D01*
X51170114Y20326047D02*
X50408114Y20326047D01*
X50770971Y20326047D02*
X50770971Y19745476D01*
X51170114Y19745476D02*
X50408114Y19745476D01*
X53612143Y22599952D02*
X53648429Y22648333D01*
X53684714Y22793476D01*
X53684714Y22890238D01*
X53648429Y23035380D01*
X53575857Y23132142D01*
X53503286Y23180523D01*
X53358143Y23228904D01*
X53249286Y23228904D01*
X53104143Y23180523D01*
X53031571Y23132142D01*
X52959000Y23035380D01*
X52922714Y22890238D01*
X52922714Y22793476D01*
X52959000Y22648333D01*
X52995286Y22599952D01*
X52922714Y21970999D02*
X52922714Y21777476D01*
X52959000Y21680714D01*
X53031571Y21583952D01*
X53176714Y21535571D01*
X53430714Y21535571D01*
X53575857Y21583952D01*
X53648429Y21680714D01*
X53684714Y21777476D01*
X53684714Y21970999D01*
X53648429Y22067761D01*
X53575857Y22164523D01*
X53430714Y22212904D01*
X53176714Y22212904D01*
X53031571Y22164523D01*
X52959000Y22067761D01*
X52922714Y21970999D01*
X53757286Y21342047D02*
X53757286Y20567952D01*
X53684714Y20326047D02*
X52922714Y20326047D01*
X53285571Y20326047D02*
X53285571Y19745476D01*
X53684714Y19745476D02*
X52922714Y19745476D01*
X55473600Y22237095D02*
X55437314Y22333857D01*
X55437314Y22479000D01*
X55473600Y22624142D01*
X55546171Y22720904D01*
X55618743Y22769285D01*
X55763886Y22817666D01*
X55872743Y22817666D01*
X56017886Y22769285D01*
X56090457Y22720904D01*
X56163029Y22624142D01*
X56199314Y22479000D01*
X56199314Y22382238D01*
X56163029Y22237095D01*
X56126743Y22188714D01*
X55872743Y22188714D01*
X55872743Y22382238D01*
X56199314Y21753285D02*
X55437314Y21753285D01*
X56199314Y21172714D01*
X55437314Y21172714D01*
X56199314Y20688904D02*
X55437314Y20688904D01*
X55437314Y20446999D01*
X55473600Y20301857D01*
X55546171Y20205095D01*
X55618743Y20156714D01*
X55763886Y20108333D01*
X55872743Y20108333D01*
X56017886Y20156714D01*
X56090457Y20205095D01*
X56163029Y20301857D01*
X56199314Y20446999D01*
X56199314Y20688904D01*
X40954476Y9789886D02*
X40954476Y10551886D01*
X40712571Y10551886D01*
X40567429Y10515600D01*
X40470667Y10443029D01*
X40422286Y10370457D01*
X40373905Y10225314D01*
X40373905Y10116457D01*
X40422286Y9971314D01*
X40470667Y9898743D01*
X40567429Y9826171D01*
X40712571Y9789886D01*
X40954476Y9789886D01*
X39938476Y9789886D02*
X39938476Y10551886D01*
X39696571Y9717314D02*
X38922476Y9717314D01*
X38728952Y10007600D02*
X38245143Y10007600D01*
X38825714Y9789886D02*
X38487047Y10551886D01*
X38148381Y9789886D01*
X40373905Y7347857D02*
X40422286Y7311571D01*
X40567429Y7275286D01*
X40664191Y7275286D01*
X40809333Y7311571D01*
X40906095Y7384143D01*
X40954476Y7456714D01*
X41002857Y7601857D01*
X41002857Y7710714D01*
X40954476Y7855857D01*
X40906095Y7928429D01*
X40809333Y8001000D01*
X40664191Y8037286D01*
X40567429Y8037286D01*
X40422286Y8001000D01*
X40373905Y7964714D01*
X39938476Y7275286D02*
X39938476Y8037286D01*
X39696571Y7202714D02*
X38922476Y7202714D01*
X38728952Y7493000D02*
X38245143Y7493000D01*
X38825714Y7275286D02*
X38487047Y8037286D01*
X38148381Y7275286D01*
X40398095Y5486400D02*
X40494857Y5522686D01*
X40640000Y5522686D01*
X40785142Y5486400D01*
X40881904Y5413829D01*
X40930285Y5341257D01*
X40978666Y5196114D01*
X40978666Y5087257D01*
X40930285Y4942114D01*
X40881904Y4869543D01*
X40785142Y4796971D01*
X40640000Y4760686D01*
X40543238Y4760686D01*
X40398095Y4796971D01*
X40349714Y4833257D01*
X40349714Y5087257D01*
X40543238Y5087257D01*
X39914285Y4760686D02*
X39914285Y5522686D01*
X39333714Y4760686D01*
X39333714Y5522686D01*
X38849904Y4760686D02*
X38849904Y5522686D01*
X38607999Y5522686D01*
X38462857Y5486400D01*
X38366095Y5413829D01*
X38317714Y5341257D01*
X38269333Y5196114D01*
X38269333Y5087257D01*
X38317714Y4942114D01*
X38366095Y4869543D01*
X38462857Y4796971D01*
X38607999Y4760686D01*
X38849904Y4760686D01*
X4597400Y22491095D02*
X4561114Y22587857D01*
X4561114Y22733000D01*
X4597400Y22878142D01*
X4669971Y22974904D01*
X4742543Y23023285D01*
X4887686Y23071666D01*
X4996543Y23071666D01*
X5141686Y23023285D01*
X5214257Y22974904D01*
X5286829Y22878142D01*
X5323114Y22733000D01*
X5323114Y22636238D01*
X5286829Y22491095D01*
X5250543Y22442714D01*
X4996543Y22442714D01*
X4996543Y22636238D01*
X5323114Y22007285D02*
X4561114Y22007285D01*
X5323114Y21426714D01*
X4561114Y21426714D01*
X5323114Y20942904D02*
X4561114Y20942904D01*
X4561114Y20700999D01*
X4597400Y20555857D01*
X4669971Y20459095D01*
X4742543Y20410714D01*
X4887686Y20362333D01*
X4996543Y20362333D01*
X5141686Y20410714D01*
X5214257Y20459095D01*
X5286829Y20555857D01*
X5323114Y20700999D01*
X5323114Y20942904D01*
X7765143Y22466905D02*
X7801429Y22515286D01*
X7837714Y22660429D01*
X7837714Y22757191D01*
X7801429Y22902333D01*
X7728857Y22999095D01*
X7656286Y23047476D01*
X7511143Y23095857D01*
X7402286Y23095857D01*
X7257143Y23047476D01*
X7184571Y22999095D01*
X7112000Y22902333D01*
X7075714Y22757191D01*
X7075714Y22660429D01*
X7112000Y22515286D01*
X7148286Y22466905D01*
X7837714Y22031476D02*
X7075714Y22031476D01*
X7910286Y21789571D02*
X7910286Y21015476D01*
X7620000Y20821952D02*
X7620000Y20338143D01*
X7837714Y20918714D02*
X7075714Y20580047D01*
X7837714Y20241381D01*
X10352314Y23047476D02*
X9590314Y23047476D01*
X9590314Y22805571D01*
X9626600Y22660429D01*
X9699171Y22563667D01*
X9771743Y22515286D01*
X9916886Y22466905D01*
X10025743Y22466905D01*
X10170886Y22515286D01*
X10243457Y22563667D01*
X10316029Y22660429D01*
X10352314Y22805571D01*
X10352314Y23047476D01*
X10352314Y22031476D02*
X9590314Y22031476D01*
X10424886Y21789571D02*
X10424886Y21015476D01*
X10134600Y20821952D02*
X10134600Y20338143D01*
X10352314Y20918714D02*
X9590314Y20580047D01*
X10352314Y20241381D01*
X39890095Y56235600D02*
X39986857Y56271886D01*
X40132000Y56271886D01*
X40277142Y56235600D01*
X40373904Y56163029D01*
X40422285Y56090457D01*
X40470666Y55945314D01*
X40470666Y55836457D01*
X40422285Y55691314D01*
X40373904Y55618743D01*
X40277142Y55546171D01*
X40132000Y55509886D01*
X40035238Y55509886D01*
X39890095Y55546171D01*
X39841714Y55582457D01*
X39841714Y55836457D01*
X40035238Y55836457D01*
X39406285Y55509886D02*
X39406285Y56271886D01*
X38825714Y55509886D01*
X38825714Y56271886D01*
X38341904Y55509886D02*
X38341904Y56271886D01*
X38099999Y56271886D01*
X37954857Y56235600D01*
X37858095Y56163029D01*
X37809714Y56090457D01*
X37761333Y55945314D01*
X37761333Y55836457D01*
X37809714Y55691314D01*
X37858095Y55618743D01*
X37954857Y55546171D01*
X38099999Y55509886D01*
X38341904Y55509886D01*
X40252952Y53067857D02*
X40301333Y53031571D01*
X40446476Y52995286D01*
X40543238Y52995286D01*
X40688380Y53031571D01*
X40785142Y53104143D01*
X40833523Y53176714D01*
X40881904Y53321857D01*
X40881904Y53430714D01*
X40833523Y53575857D01*
X40785142Y53648429D01*
X40688380Y53721000D01*
X40543238Y53757286D01*
X40446476Y53757286D01*
X40301333Y53721000D01*
X40252952Y53684714D01*
X39623999Y53757286D02*
X39430476Y53757286D01*
X39333714Y53721000D01*
X39236952Y53648429D01*
X39188571Y53503286D01*
X39188571Y53249286D01*
X39236952Y53104143D01*
X39333714Y53031571D01*
X39430476Y52995286D01*
X39623999Y52995286D01*
X39720761Y53031571D01*
X39817523Y53104143D01*
X39865904Y53249286D01*
X39865904Y53503286D01*
X39817523Y53648429D01*
X39720761Y53721000D01*
X39623999Y53757286D01*
X38995047Y52922714D02*
X38220952Y52922714D01*
X37979047Y52995286D02*
X37979047Y53757286D01*
X37979047Y53394429D02*
X37398476Y53394429D01*
X37398476Y52995286D02*
X37398476Y53757286D01*
X40833523Y50480686D02*
X40833523Y51242686D01*
X40591618Y51242686D01*
X40446476Y51206400D01*
X40349714Y51133829D01*
X40301333Y51061257D01*
X40252952Y50916114D01*
X40252952Y50807257D01*
X40301333Y50662114D01*
X40349714Y50589543D01*
X40446476Y50516971D01*
X40591618Y50480686D01*
X40833523Y50480686D01*
X39623999Y51242686D02*
X39430476Y51242686D01*
X39333714Y51206400D01*
X39236952Y51133829D01*
X39188571Y50988686D01*
X39188571Y50734686D01*
X39236952Y50589543D01*
X39333714Y50516971D01*
X39430476Y50480686D01*
X39623999Y50480686D01*
X39720761Y50516971D01*
X39817523Y50589543D01*
X39865904Y50734686D01*
X39865904Y50988686D01*
X39817523Y51133829D01*
X39720761Y51206400D01*
X39623999Y51242686D01*
X38995047Y50408114D02*
X38220952Y50408114D01*
X37979047Y50480686D02*
X37979047Y51242686D01*
X37979047Y50879829D02*
X37398476Y50879829D01*
X37398476Y50480686D02*
X37398476Y51242686D01*
D10*
X29400500Y32385000D02*
X29400500Y30607000D01*
X31559500Y32385000D02*
X31559500Y30607000D01*
X29400500Y29464000D02*
X29400500Y28575000D01*
X31559500Y28575000D02*
X31559500Y29464000D01*
X31559500Y30607000D02*
X29400500Y30607000D01*
X31559500Y32385000D02*
X29400500Y32385000D01*
X31559500Y28575000D02*
X29400500Y28575000D01*
X21780500Y32385000D02*
X21780500Y30607000D01*
X23939500Y32385000D02*
X23939500Y30607000D01*
X21780500Y29464000D02*
X21780500Y28575000D01*
X23939500Y28575000D02*
X23939500Y29464000D01*
X23939500Y30607000D02*
X21780500Y30607000D01*
X23939500Y32385000D02*
X21780500Y32385000D01*
X23939500Y28575000D02*
X21780500Y28575000D01*
D13*
G36*
X55110380Y51102260D02*
X55074820Y51122580D01*
X54996080Y51170840D01*
X54884320Y51244500D01*
X54752240Y51330860D01*
X54620160Y51422300D01*
X54510940Y51493420D01*
X54434740Y51544220D01*
X54404260Y51562000D01*
X54386480Y51554380D01*
X54322980Y51523900D01*
X54234080Y51478180D01*
X54180740Y51450240D01*
X54096920Y51414680D01*
X54053740Y51407060D01*
X54048660Y51417220D01*
X54018180Y51480720D01*
X53969920Y51589940D01*
X53906420Y51734720D01*
X53832760Y51904900D01*
X53756560Y52087780D01*
X53677820Y52273200D01*
X53604160Y52451000D01*
X53540660Y52611020D01*
X53487320Y52743100D01*
X53451760Y52832000D01*
X53439060Y52870100D01*
X53444140Y52880260D01*
X53484780Y52920900D01*
X53558440Y52974240D01*
X53715920Y53103780D01*
X53873400Y53296820D01*
X53967380Y53517800D01*
X54000400Y53764180D01*
X53972460Y53992780D01*
X53883560Y54211220D01*
X53731160Y54406800D01*
X53545740Y54554120D01*
X53329840Y54645560D01*
X53086000Y54676040D01*
X52854860Y54650640D01*
X52631340Y54561740D01*
X52433220Y54411880D01*
X52349400Y54315360D01*
X52235100Y54117240D01*
X52171600Y53903880D01*
X52163980Y53848000D01*
X52174140Y53614320D01*
X52242720Y53390800D01*
X52367180Y53190140D01*
X52537360Y53025040D01*
X52560220Y53009800D01*
X52638960Y52948840D01*
X52692300Y52908200D01*
X52735480Y52875180D01*
X52435760Y52156360D01*
X52387500Y52042060D01*
X52306220Y51843940D01*
X52235100Y51676300D01*
X52176680Y51541680D01*
X52136040Y51450240D01*
X52118260Y51414680D01*
X52118260Y51412140D01*
X52090320Y51407060D01*
X52036980Y51427380D01*
X51935380Y51475640D01*
X51869340Y51511200D01*
X51793140Y51546760D01*
X51757580Y51562000D01*
X51729640Y51544220D01*
X51655980Y51498500D01*
X51549300Y51427380D01*
X51419760Y51338480D01*
X51297840Y51254660D01*
X51186080Y51181000D01*
X51104800Y51127660D01*
X51064160Y51107340D01*
X51059080Y51107340D01*
X51023520Y51127660D01*
X50957480Y51181000D01*
X50860960Y51272440D01*
X50721260Y51409600D01*
X50700940Y51432460D01*
X50586640Y51546760D01*
X50495200Y51643280D01*
X50431700Y51714400D01*
X50408840Y51744880D01*
X50408840Y51744880D01*
X50429160Y51782980D01*
X50482500Y51866800D01*
X50556160Y51981100D01*
X50647600Y52113180D01*
X50886360Y52458620D01*
X50754280Y52786280D01*
X50713640Y52885340D01*
X50662840Y53007260D01*
X50624740Y53093620D01*
X50606960Y53131720D01*
X50571400Y53144420D01*
X50482500Y53164740D01*
X50352960Y53192680D01*
X50198020Y53220620D01*
X50050700Y53248560D01*
X49918620Y53273960D01*
X49822100Y53291740D01*
X49778920Y53299360D01*
X49768760Y53306980D01*
X49758600Y53327300D01*
X49753520Y53373020D01*
X49750980Y53454300D01*
X49748440Y53581300D01*
X49748440Y53764180D01*
X49748440Y53784500D01*
X49750980Y53959760D01*
X49753520Y54099460D01*
X49758600Y54190900D01*
X49763680Y54226460D01*
X49763680Y54226460D01*
X49806860Y54236620D01*
X49900840Y54256940D01*
X50032920Y54282340D01*
X50190400Y54312820D01*
X50200560Y54315360D01*
X50358040Y54345840D01*
X50492660Y54373780D01*
X50584100Y54394100D01*
X50622200Y54406800D01*
X50632360Y54416960D01*
X50662840Y54480460D01*
X50708560Y54576980D01*
X50761900Y54696360D01*
X50812700Y54820820D01*
X50855880Y54932580D01*
X50886360Y55016400D01*
X50896520Y55054500D01*
X50896520Y55054500D01*
X50871120Y55092600D01*
X50817780Y55173880D01*
X50741580Y55288180D01*
X50647600Y55422800D01*
X50642520Y55432960D01*
X50551080Y55565040D01*
X50477420Y55679340D01*
X50429160Y55760620D01*
X50408840Y55796180D01*
X50411380Y55798720D01*
X50439320Y55836820D01*
X50507900Y55913020D01*
X50604420Y56014620D01*
X50721260Y56134000D01*
X50759360Y56169560D01*
X50888900Y56296560D01*
X50980340Y56380380D01*
X51036220Y56423560D01*
X51061620Y56433720D01*
X51064160Y56433720D01*
X51104800Y56408320D01*
X51188620Y56352440D01*
X51302920Y56276240D01*
X51437540Y56184800D01*
X51447700Y56177180D01*
X51579780Y56085740D01*
X51691540Y56012080D01*
X51770280Y55958740D01*
X51805840Y55938420D01*
X51810920Y55938420D01*
X51866800Y55953660D01*
X51960780Y55986680D01*
X52077620Y56032400D01*
X52202080Y56083200D01*
X52313840Y56128920D01*
X52397660Y56167020D01*
X52435760Y56189880D01*
X52438300Y56192420D01*
X52451000Y56240680D01*
X52473860Y56339740D01*
X52504340Y56476900D01*
X52534820Y56642000D01*
X52539900Y56667400D01*
X52570380Y56827420D01*
X52595780Y56956960D01*
X52613560Y57048400D01*
X52623720Y57086500D01*
X52646580Y57091580D01*
X52722780Y57096660D01*
X52842160Y57099200D01*
X52984400Y57101740D01*
X53136800Y57101740D01*
X53284120Y57096660D01*
X53408580Y57094120D01*
X53500020Y57086500D01*
X53538120Y57078880D01*
X53538120Y57076340D01*
X53553360Y57028080D01*
X53573680Y56929020D01*
X53601620Y56789320D01*
X53634640Y56626760D01*
X53639720Y56596280D01*
X53670200Y56438800D01*
X53695600Y56309260D01*
X53715920Y56217820D01*
X53726080Y56182260D01*
X53738780Y56174640D01*
X53804820Y56146700D01*
X53911500Y56103520D01*
X54043580Y56050180D01*
X54348380Y55925720D01*
X54724300Y56182260D01*
X54757320Y56205120D01*
X54891940Y56299100D01*
X55003700Y56372760D01*
X55079900Y56421020D01*
X55112920Y56438800D01*
X55115460Y56438800D01*
X55153560Y56405780D01*
X55227220Y56337200D01*
X55328820Y56238140D01*
X55445660Y56118760D01*
X55534560Y56032400D01*
X55636160Y55928260D01*
X55702200Y55857140D01*
X55737760Y55811420D01*
X55750460Y55783480D01*
X55747920Y55765700D01*
X55722520Y55727600D01*
X55669180Y55643780D01*
X55590440Y55532020D01*
X55499000Y55397400D01*
X55425340Y55288180D01*
X55344060Y55161180D01*
X55290720Y55072280D01*
X55272940Y55029100D01*
X55278020Y55008780D01*
X55303420Y54937660D01*
X55346600Y54825900D01*
X55405020Y54693820D01*
X55534560Y54396640D01*
X55727600Y54358540D01*
X55846980Y54338220D01*
X56012080Y54305200D01*
X56169560Y54274720D01*
X56415940Y54226460D01*
X56423560Y53322220D01*
X56385460Y53306980D01*
X56349900Y53296820D01*
X56258460Y53276500D01*
X56128920Y53251100D01*
X55973980Y53223160D01*
X55844440Y53197760D01*
X55712360Y53172360D01*
X55615840Y53154580D01*
X55575200Y53144420D01*
X55565040Y53131720D01*
X55532020Y53068220D01*
X55483760Y52966620D01*
X55432960Y52844700D01*
X55379620Y52717700D01*
X55333900Y52600860D01*
X55300880Y52511960D01*
X55288180Y52463700D01*
X55305960Y52430680D01*
X55356760Y52351940D01*
X55427880Y52242720D01*
X55519320Y52110640D01*
X55608220Y51981100D01*
X55684420Y51866800D01*
X55735220Y51788060D01*
X55758080Y51749960D01*
X55747920Y51724560D01*
X55694580Y51661060D01*
X55595520Y51559460D01*
X55448200Y51414680D01*
X55425340Y51391820D01*
X55308500Y51277520D01*
X55209440Y51186080D01*
X55140860Y51125120D01*
X55110380Y51102260D01*
X55110380Y51102260D01*
G37*
X55110380Y51102260D02*
X55074820Y51122580D01*
X54996080Y51170840D01*
X54884320Y51244500D01*
X54752240Y51330860D01*
X54620160Y51422300D01*
X54510940Y51493420D01*
X54434740Y51544220D01*
X54404260Y51562000D01*
X54386480Y51554380D01*
X54322980Y51523900D01*
X54234080Y51478180D01*
X54180740Y51450240D01*
X54096920Y51414680D01*
X54053740Y51407060D01*
X54048660Y51417220D01*
X54018180Y51480720D01*
X53969920Y51589940D01*
X53906420Y51734720D01*
X53832760Y51904900D01*
X53756560Y52087780D01*
X53677820Y52273200D01*
X53604160Y52451000D01*
X53540660Y52611020D01*
X53487320Y52743100D01*
X53451760Y52832000D01*
X53439060Y52870100D01*
X53444140Y52880260D01*
X53484780Y52920900D01*
X53558440Y52974240D01*
X53715920Y53103780D01*
X53873400Y53296820D01*
X53967380Y53517800D01*
X54000400Y53764180D01*
X53972460Y53992780D01*
X53883560Y54211220D01*
X53731160Y54406800D01*
X53545740Y54554120D01*
X53329840Y54645560D01*
X53086000Y54676040D01*
X52854860Y54650640D01*
X52631340Y54561740D01*
X52433220Y54411880D01*
X52349400Y54315360D01*
X52235100Y54117240D01*
X52171600Y53903880D01*
X52163980Y53848000D01*
X52174140Y53614320D01*
X52242720Y53390800D01*
X52367180Y53190140D01*
X52537360Y53025040D01*
X52560220Y53009800D01*
X52638960Y52948840D01*
X52692300Y52908200D01*
X52735480Y52875180D01*
X52435760Y52156360D01*
X52387500Y52042060D01*
X52306220Y51843940D01*
X52235100Y51676300D01*
X52176680Y51541680D01*
X52136040Y51450240D01*
X52118260Y51414680D01*
X52118260Y51412140D01*
X52090320Y51407060D01*
X52036980Y51427380D01*
X51935380Y51475640D01*
X51869340Y51511200D01*
X51793140Y51546760D01*
X51757580Y51562000D01*
X51729640Y51544220D01*
X51655980Y51498500D01*
X51549300Y51427380D01*
X51419760Y51338480D01*
X51297840Y51254660D01*
X51186080Y51181000D01*
X51104800Y51127660D01*
X51064160Y51107340D01*
X51059080Y51107340D01*
X51023520Y51127660D01*
X50957480Y51181000D01*
X50860960Y51272440D01*
X50721260Y51409600D01*
X50700940Y51432460D01*
X50586640Y51546760D01*
X50495200Y51643280D01*
X50431700Y51714400D01*
X50408840Y51744880D01*
X50408840Y51744880D01*
X50429160Y51782980D01*
X50482500Y51866800D01*
X50556160Y51981100D01*
X50647600Y52113180D01*
X50886360Y52458620D01*
X50754280Y52786280D01*
X50713640Y52885340D01*
X50662840Y53007260D01*
X50624740Y53093620D01*
X50606960Y53131720D01*
X50571400Y53144420D01*
X50482500Y53164740D01*
X50352960Y53192680D01*
X50198020Y53220620D01*
X50050700Y53248560D01*
X49918620Y53273960D01*
X49822100Y53291740D01*
X49778920Y53299360D01*
X49768760Y53306980D01*
X49758600Y53327300D01*
X49753520Y53373020D01*
X49750980Y53454300D01*
X49748440Y53581300D01*
X49748440Y53764180D01*
X49748440Y53784500D01*
X49750980Y53959760D01*
X49753520Y54099460D01*
X49758600Y54190900D01*
X49763680Y54226460D01*
X49763680Y54226460D01*
X49806860Y54236620D01*
X49900840Y54256940D01*
X50032920Y54282340D01*
X50190400Y54312820D01*
X50200560Y54315360D01*
X50358040Y54345840D01*
X50492660Y54373780D01*
X50584100Y54394100D01*
X50622200Y54406800D01*
X50632360Y54416960D01*
X50662840Y54480460D01*
X50708560Y54576980D01*
X50761900Y54696360D01*
X50812700Y54820820D01*
X50855880Y54932580D01*
X50886360Y55016400D01*
X50896520Y55054500D01*
X50896520Y55054500D01*
X50871120Y55092600D01*
X50817780Y55173880D01*
X50741580Y55288180D01*
X50647600Y55422800D01*
X50642520Y55432960D01*
X50551080Y55565040D01*
X50477420Y55679340D01*
X50429160Y55760620D01*
X50408840Y55796180D01*
X50411380Y55798720D01*
X50439320Y55836820D01*
X50507900Y55913020D01*
X50604420Y56014620D01*
X50721260Y56134000D01*
X50759360Y56169560D01*
X50888900Y56296560D01*
X50980340Y56380380D01*
X51036220Y56423560D01*
X51061620Y56433720D01*
X51064160Y56433720D01*
X51104800Y56408320D01*
X51188620Y56352440D01*
X51302920Y56276240D01*
X51437540Y56184800D01*
X51447700Y56177180D01*
X51579780Y56085740D01*
X51691540Y56012080D01*
X51770280Y55958740D01*
X51805840Y55938420D01*
X51810920Y55938420D01*
X51866800Y55953660D01*
X51960780Y55986680D01*
X52077620Y56032400D01*
X52202080Y56083200D01*
X52313840Y56128920D01*
X52397660Y56167020D01*
X52435760Y56189880D01*
X52438300Y56192420D01*
X52451000Y56240680D01*
X52473860Y56339740D01*
X52504340Y56476900D01*
X52534820Y56642000D01*
X52539900Y56667400D01*
X52570380Y56827420D01*
X52595780Y56956960D01*
X52613560Y57048400D01*
X52623720Y57086500D01*
X52646580Y57091580D01*
X52722780Y57096660D01*
X52842160Y57099200D01*
X52984400Y57101740D01*
X53136800Y57101740D01*
X53284120Y57096660D01*
X53408580Y57094120D01*
X53500020Y57086500D01*
X53538120Y57078880D01*
X53538120Y57076340D01*
X53553360Y57028080D01*
X53573680Y56929020D01*
X53601620Y56789320D01*
X53634640Y56626760D01*
X53639720Y56596280D01*
X53670200Y56438800D01*
X53695600Y56309260D01*
X53715920Y56217820D01*
X53726080Y56182260D01*
X53738780Y56174640D01*
X53804820Y56146700D01*
X53911500Y56103520D01*
X54043580Y56050180D01*
X54348380Y55925720D01*
X54724300Y56182260D01*
X54757320Y56205120D01*
X54891940Y56299100D01*
X55003700Y56372760D01*
X55079900Y56421020D01*
X55112920Y56438800D01*
X55115460Y56438800D01*
X55153560Y56405780D01*
X55227220Y56337200D01*
X55328820Y56238140D01*
X55445660Y56118760D01*
X55534560Y56032400D01*
X55636160Y55928260D01*
X55702200Y55857140D01*
X55737760Y55811420D01*
X55750460Y55783480D01*
X55747920Y55765700D01*
X55722520Y55727600D01*
X55669180Y55643780D01*
X55590440Y55532020D01*
X55499000Y55397400D01*
X55425340Y55288180D01*
X55344060Y55161180D01*
X55290720Y55072280D01*
X55272940Y55029100D01*
X55278020Y55008780D01*
X55303420Y54937660D01*
X55346600Y54825900D01*
X55405020Y54693820D01*
X55534560Y54396640D01*
X55727600Y54358540D01*
X55846980Y54338220D01*
X56012080Y54305200D01*
X56169560Y54274720D01*
X56415940Y54226460D01*
X56423560Y53322220D01*
X56385460Y53306980D01*
X56349900Y53296820D01*
X56258460Y53276500D01*
X56128920Y53251100D01*
X55973980Y53223160D01*
X55844440Y53197760D01*
X55712360Y53172360D01*
X55615840Y53154580D01*
X55575200Y53144420D01*
X55565040Y53131720D01*
X55532020Y53068220D01*
X55483760Y52966620D01*
X55432960Y52844700D01*
X55379620Y52717700D01*
X55333900Y52600860D01*
X55300880Y52511960D01*
X55288180Y52463700D01*
X55305960Y52430680D01*
X55356760Y52351940D01*
X55427880Y52242720D01*
X55519320Y52110640D01*
X55608220Y51981100D01*
X55684420Y51866800D01*
X55735220Y51788060D01*
X55758080Y51749960D01*
X55747920Y51724560D01*
X55694580Y51661060D01*
X55595520Y51559460D01*
X55448200Y51414680D01*
X55425340Y51391820D01*
X55308500Y51277520D01*
X55209440Y51186080D01*
X55140860Y51125120D01*
X55110380Y51102260D01*
D14*
G36*
X7881490Y16214811D02*
X7629226Y16214061D01*
X7385928Y16212928D01*
X7155263Y16211409D01*
X6940893Y16209505D01*
X6746482Y16207216D01*
X6575696Y16204542D01*
X6432197Y16201484D01*
X6319651Y16198040D01*
X6241722Y16194212D01*
X6202073Y16189998D01*
X6200272Y16189531D01*
X6102133Y16141931D01*
X6030637Y16071060D01*
X5986658Y15984890D01*
X5971069Y15891392D01*
X5984743Y15798538D01*
X6028555Y15714299D01*
X6103377Y15646647D01*
X6138708Y15627595D01*
X6221908Y15589250D01*
X6222454Y13613478D01*
X6223000Y11637707D01*
X5653407Y10650145D01*
X5532683Y10440846D01*
X5395137Y10202407D01*
X5245112Y9942355D01*
X5086949Y9668213D01*
X4924989Y9387506D01*
X4763575Y9107761D01*
X4607048Y8836500D01*
X4459749Y8581250D01*
X4393991Y8467306D01*
X4275044Y8260703D01*
X4162588Y8064405D01*
X4058389Y7881556D01*
X3964214Y7715305D01*
X3881830Y7568797D01*
X3813003Y7445179D01*
X3759500Y7347596D01*
X3723087Y7279197D01*
X3705530Y7243126D01*
X3704166Y7238660D01*
X3714653Y7211194D01*
X3744393Y7151892D01*
X3790806Y7065187D01*
X3851310Y6955512D01*
X3923324Y6827300D01*
X4004269Y6684984D01*
X4091564Y6532995D01*
X4182627Y6375768D01*
X4274878Y6217735D01*
X4365736Y6063327D01*
X4452620Y5916980D01*
X4532950Y5783124D01*
X4604145Y5666193D01*
X4663624Y5570620D01*
X4708806Y5500836D01*
X4737111Y5461276D01*
X4742200Y5455708D01*
X4805501Y5397500D01*
X11704499Y5397500D01*
X11767800Y5455708D01*
X11790191Y5484671D01*
X11830281Y5545282D01*
X11885488Y5633106D01*
X11953232Y5743711D01*
X12030933Y5872662D01*
X12116010Y6015526D01*
X12205882Y6167871D01*
X12297969Y6325262D01*
X12389691Y6483265D01*
X12478466Y6637448D01*
X12561715Y6783377D01*
X12636856Y6916618D01*
X12701309Y7032739D01*
X12752494Y7127305D01*
X12787830Y7195882D01*
X12804737Y7234039D01*
X12805833Y7239089D01*
X12797480Y7259349D01*
X12132576Y7259349D01*
X11766322Y6624758D01*
X11400068Y5990166D01*
X5110128Y5990166D01*
X4743407Y6625836D01*
X4376685Y7261505D01*
X4520830Y7509544D01*
X4585522Y7621554D01*
X4653145Y7739793D01*
X4715401Y7849690D01*
X4761362Y7931913D01*
X4857750Y8106243D01*
X6201624Y8106538D01*
X7545499Y8106833D01*
X7151335Y7709958D01*
X7044699Y7601863D01*
X6947344Y7501792D01*
X6863481Y7414187D01*
X6797323Y7343487D01*
X6753080Y7294132D01*
X6735357Y7271404D01*
X6725608Y7221359D01*
X6742060Y7174578D01*
X6775409Y7126906D01*
X6829258Y7067228D01*
X6894935Y7003306D01*
X6963772Y6942901D01*
X7027098Y6893774D01*
X7076243Y6863688D01*
X7095693Y6858000D01*
X7125490Y6872066D01*
X7180617Y6914690D01*
X7261789Y6986515D01*
X7369719Y7088181D01*
X7505122Y7220330D01*
X7560585Y7275345D01*
X7979833Y7692689D01*
X7979833Y7112970D01*
X7980085Y6938588D01*
X7981025Y6801651D01*
X7982931Y6697271D01*
X7986078Y6620560D01*
X7990744Y6566631D01*
X7997206Y6530598D01*
X8005740Y6507573D01*
X8014864Y6494542D01*
X8037311Y6476560D01*
X8071256Y6465053D01*
X8125424Y6458683D01*
X8208540Y6456113D01*
X8267327Y6455833D01*
X8365657Y6456349D01*
X8430930Y6459239D01*
X8472424Y6466520D01*
X8499413Y6480207D01*
X8521173Y6502317D01*
X8529595Y6512830D01*
X8543104Y6531506D01*
X8553510Y6552472D01*
X8561144Y6580998D01*
X8566336Y6622354D01*
X8569419Y6681810D01*
X8570723Y6764637D01*
X8570580Y6876105D01*
X8569321Y7021484D01*
X8568173Y7126681D01*
X8566551Y7275226D01*
X8565181Y7408838D01*
X8564114Y7521994D01*
X8563399Y7609169D01*
X8563084Y7664840D01*
X8563204Y7683517D01*
X8577833Y7669147D01*
X8618436Y7628631D01*
X8681140Y7565849D01*
X8762075Y7484680D01*
X8857371Y7389004D01*
X8963157Y7282700D01*
X8965371Y7280474D01*
X9073939Y7172678D01*
X9175071Y7074822D01*
X9264319Y6991007D01*
X9337236Y6925336D01*
X9389375Y6881911D01*
X9415883Y6864925D01*
X9443124Y6864130D01*
X9475707Y6878243D01*
X9520033Y6911801D01*
X9582500Y6969341D01*
X9632841Y7018746D01*
X9715844Y7104790D01*
X9768977Y7168899D01*
X9795558Y7215424D01*
X9800166Y7238305D01*
X9793064Y7262256D01*
X9769971Y7298541D01*
X9728213Y7350188D01*
X9665111Y7420227D01*
X9577990Y7511688D01*
X9464172Y7627598D01*
X9392912Y7699176D01*
X8985657Y8106833D01*
X9555589Y8106833D01*
X9741348Y8106686D01*
X9889117Y8107542D01*
X10003228Y8111347D01*
X10088015Y8120048D01*
X10147810Y8135591D01*
X10186946Y8159921D01*
X10209756Y8194987D01*
X10220572Y8242733D01*
X10223728Y8305105D01*
X10223555Y8384051D01*
X10223500Y8406856D01*
X10224000Y8488683D01*
X10222602Y8553693D01*
X10214955Y8603813D01*
X10196710Y8640969D01*
X10163518Y8667088D01*
X10111029Y8684095D01*
X10034895Y8693918D01*
X9930765Y8698482D01*
X9794290Y8699713D01*
X9621120Y8699538D01*
X9562738Y8699500D01*
X8986644Y8699500D01*
X9403988Y9118748D01*
X9523135Y9239838D01*
X9626460Y9347644D01*
X9710931Y9438829D01*
X9773514Y9510058D01*
X9811175Y9557995D01*
X9821333Y9577680D01*
X9806004Y9613143D01*
X9765304Y9667031D01*
X9707164Y9731635D01*
X9639515Y9799243D01*
X9570288Y9862145D01*
X9507413Y9912629D01*
X9458821Y9942986D01*
X9440096Y9948333D01*
X9414856Y9939348D01*
X9373576Y9910912D01*
X9313751Y9860802D01*
X9232879Y9786796D01*
X9128455Y9686670D01*
X8997976Y9558203D01*
X8975873Y9536222D01*
X8561916Y9124111D01*
X8568153Y9689966D01*
X8570396Y9874668D01*
X8571274Y10021395D01*
X8568798Y10134500D01*
X8560979Y10218338D01*
X8545827Y10277263D01*
X8521351Y10315628D01*
X8485562Y10337787D01*
X8436470Y10348094D01*
X8372085Y10350902D01*
X8290418Y10350565D01*
X8266271Y10350500D01*
X8159297Y10349004D01*
X8086816Y10343838D01*
X8041072Y10333981D01*
X8014307Y10318416D01*
X8013095Y10317238D01*
X8003105Y10302374D01*
X7995292Y10276946D01*
X7989402Y10236209D01*
X7985179Y10175418D01*
X7982368Y10089828D01*
X7980713Y9974693D01*
X7979961Y9825268D01*
X7979833Y9698810D01*
X7979833Y9113644D01*
X7560585Y9530988D01*
X7421697Y9668012D01*
X7309642Y9775723D01*
X7222476Y9855856D01*
X7158255Y9910147D01*
X7115035Y9940332D01*
X7093086Y9948333D01*
X7050146Y9932266D01*
X6985761Y9886313D01*
X6906958Y9816041D01*
X6818630Y9727257D01*
X6761173Y9658613D01*
X6731473Y9605009D01*
X6726416Y9561344D01*
X6735357Y9534929D01*
X6755735Y9509117D01*
X6801902Y9457877D01*
X6869644Y9385649D01*
X6954751Y9296873D01*
X7053011Y9195991D01*
X7151335Y9096375D01*
X7545499Y8699500D01*
X5203547Y8699500D01*
X5245274Y8768291D01*
X5291704Y8845901D01*
X5353562Y8950934D01*
X5428835Y9079867D01*
X5515514Y9229180D01*
X5611587Y9395351D01*
X5715044Y9574859D01*
X5823874Y9764182D01*
X5936065Y9959799D01*
X6049607Y10158188D01*
X6162490Y10355828D01*
X6272701Y10549198D01*
X6378232Y10734776D01*
X6477069Y10909041D01*
X6567203Y11068471D01*
X6646624Y11209545D01*
X6713319Y11328742D01*
X6765278Y11422539D01*
X6800490Y11487416D01*
X6816945Y11519851D01*
X6817804Y11522121D01*
X6820618Y11552826D01*
X6823294Y11622984D01*
X6825805Y11729716D01*
X6828127Y11870142D01*
X6830232Y12041383D01*
X6832094Y12240560D01*
X6833686Y12464791D01*
X6834982Y12711199D01*
X6835956Y12976902D01*
X6836580Y13259022D01*
X6836830Y13554679D01*
X6836833Y13594152D01*
X6836833Y15599833D01*
X9672347Y15599833D01*
X9678048Y13551958D01*
X9683750Y11504083D01*
X10142027Y10710333D01*
X10261642Y10503175D01*
X10394369Y10273341D01*
X10534305Y10031051D01*
X10675546Y9786524D01*
X10812192Y9549980D01*
X10938337Y9331637D01*
X11028413Y9175750D01*
X11222525Y8839800D01*
X11397856Y8536266D01*
X11554114Y8265653D01*
X11691006Y8028470D01*
X11808238Y7825225D01*
X11905520Y7656425D01*
X11982557Y7522577D01*
X12039056Y7424190D01*
X12074726Y7361771D01*
X12081558Y7349716D01*
X12132576Y7259349D01*
X12797480Y7259349D01*
X12795542Y7264048D01*
X12766118Y7321652D01*
X12719740Y7407968D01*
X12658584Y7519062D01*
X12584828Y7651001D01*
X12500648Y7799849D01*
X12408221Y7961675D01*
X12348440Y8065567D01*
X12233656Y8264480D01*
X12109821Y8479054D01*
X11982009Y8700498D01*
X11855297Y8920018D01*
X11734760Y9128821D01*
X11625473Y9318115D01*
X11536568Y9472083D01*
X11441583Y9636571D01*
X11330654Y9828682D01*
X11208999Y10039377D01*
X11081839Y10259617D01*
X10954392Y10480360D01*
X10831878Y10692568D01*
X10734544Y10861170D01*
X10287000Y11636424D01*
X10288092Y15589250D01*
X10371292Y15627595D01*
X10457689Y15687178D01*
X10512755Y15766267D01*
X10537365Y15856891D01*
X10532392Y15951078D01*
X10498708Y16040857D01*
X10437188Y16118256D01*
X10348705Y16175304D01*
X10309727Y16189531D01*
X10274332Y16193785D01*
X10200269Y16197654D01*
X10091203Y16201138D01*
X9950798Y16204238D01*
X9782718Y16206952D01*
X9590627Y16209282D01*
X9378191Y16211226D01*
X9149071Y16212786D01*
X8906934Y16213960D01*
X8655443Y16214750D01*
X8398263Y16215155D01*
X8139057Y16215175D01*
X7881490Y16214811D01*
X7881490Y16214811D01*
G37*
X7881490Y16214811D02*
X7629226Y16214061D01*
X7385928Y16212928D01*
X7155263Y16211409D01*
X6940893Y16209505D01*
X6746482Y16207216D01*
X6575696Y16204542D01*
X6432197Y16201484D01*
X6319651Y16198040D01*
X6241722Y16194212D01*
X6202073Y16189998D01*
X6200272Y16189531D01*
X6102133Y16141931D01*
X6030637Y16071060D01*
X5986658Y15984890D01*
X5971069Y15891392D01*
X5984743Y15798538D01*
X6028555Y15714299D01*
X6103377Y15646647D01*
X6138708Y15627595D01*
X6221908Y15589250D01*
X6222454Y13613478D01*
X6223000Y11637707D01*
X5653407Y10650145D01*
X5532683Y10440846D01*
X5395137Y10202407D01*
X5245112Y9942355D01*
X5086949Y9668213D01*
X4924989Y9387506D01*
X4763575Y9107761D01*
X4607048Y8836500D01*
X4459749Y8581250D01*
X4393991Y8467306D01*
X4275044Y8260703D01*
X4162588Y8064405D01*
X4058389Y7881556D01*
X3964214Y7715305D01*
X3881830Y7568797D01*
X3813003Y7445179D01*
X3759500Y7347596D01*
X3723087Y7279197D01*
X3705530Y7243126D01*
X3704166Y7238660D01*
X3714653Y7211194D01*
X3744393Y7151892D01*
X3790806Y7065187D01*
X3851310Y6955512D01*
X3923324Y6827300D01*
X4004269Y6684984D01*
X4091564Y6532995D01*
X4182627Y6375768D01*
X4274878Y6217735D01*
X4365736Y6063327D01*
X4452620Y5916980D01*
X4532950Y5783124D01*
X4604145Y5666193D01*
X4663624Y5570620D01*
X4708806Y5500836D01*
X4737111Y5461276D01*
X4742200Y5455708D01*
X4805501Y5397500D01*
X11704499Y5397500D01*
X11767800Y5455708D01*
X11790191Y5484671D01*
X11830281Y5545282D01*
X11885488Y5633106D01*
X11953232Y5743711D01*
X12030933Y5872662D01*
X12116010Y6015526D01*
X12205882Y6167871D01*
X12297969Y6325262D01*
X12389691Y6483265D01*
X12478466Y6637448D01*
X12561715Y6783377D01*
X12636856Y6916618D01*
X12701309Y7032739D01*
X12752494Y7127305D01*
X12787830Y7195882D01*
X12804737Y7234039D01*
X12805833Y7239089D01*
X12797480Y7259349D01*
X12132576Y7259349D01*
X11766322Y6624758D01*
X11400068Y5990166D01*
X5110128Y5990166D01*
X4743407Y6625836D01*
X4376685Y7261505D01*
X4520830Y7509544D01*
X4585522Y7621554D01*
X4653145Y7739793D01*
X4715401Y7849690D01*
X4761362Y7931913D01*
X4857750Y8106243D01*
X6201624Y8106538D01*
X7545499Y8106833D01*
X7151335Y7709958D01*
X7044699Y7601863D01*
X6947344Y7501792D01*
X6863481Y7414187D01*
X6797323Y7343487D01*
X6753080Y7294132D01*
X6735357Y7271404D01*
X6725608Y7221359D01*
X6742060Y7174578D01*
X6775409Y7126906D01*
X6829258Y7067228D01*
X6894935Y7003306D01*
X6963772Y6942901D01*
X7027098Y6893774D01*
X7076243Y6863688D01*
X7095693Y6858000D01*
X7125490Y6872066D01*
X7180617Y6914690D01*
X7261789Y6986515D01*
X7369719Y7088181D01*
X7505122Y7220330D01*
X7560585Y7275345D01*
X7979833Y7692689D01*
X7979833Y7112970D01*
X7980085Y6938588D01*
X7981025Y6801651D01*
X7982931Y6697271D01*
X7986078Y6620560D01*
X7990744Y6566631D01*
X7997206Y6530598D01*
X8005740Y6507573D01*
X8014864Y6494542D01*
X8037311Y6476560D01*
X8071256Y6465053D01*
X8125424Y6458683D01*
X8208540Y6456113D01*
X8267327Y6455833D01*
X8365657Y6456349D01*
X8430930Y6459239D01*
X8472424Y6466520D01*
X8499413Y6480207D01*
X8521173Y6502317D01*
X8529595Y6512830D01*
X8543104Y6531506D01*
X8553510Y6552472D01*
X8561144Y6580998D01*
X8566336Y6622354D01*
X8569419Y6681810D01*
X8570723Y6764637D01*
X8570580Y6876105D01*
X8569321Y7021484D01*
X8568173Y7126681D01*
X8566551Y7275226D01*
X8565181Y7408838D01*
X8564114Y7521994D01*
X8563399Y7609169D01*
X8563084Y7664840D01*
X8563204Y7683517D01*
X8577833Y7669147D01*
X8618436Y7628631D01*
X8681140Y7565849D01*
X8762075Y7484680D01*
X8857371Y7389004D01*
X8963157Y7282700D01*
X8965371Y7280474D01*
X9073939Y7172678D01*
X9175071Y7074822D01*
X9264319Y6991007D01*
X9337236Y6925336D01*
X9389375Y6881911D01*
X9415883Y6864925D01*
X9443124Y6864130D01*
X9475707Y6878243D01*
X9520033Y6911801D01*
X9582500Y6969341D01*
X9632841Y7018746D01*
X9715844Y7104790D01*
X9768977Y7168899D01*
X9795558Y7215424D01*
X9800166Y7238305D01*
X9793064Y7262256D01*
X9769971Y7298541D01*
X9728213Y7350188D01*
X9665111Y7420227D01*
X9577990Y7511688D01*
X9464172Y7627598D01*
X9392912Y7699176D01*
X8985657Y8106833D01*
X9555589Y8106833D01*
X9741348Y8106686D01*
X9889117Y8107542D01*
X10003228Y8111347D01*
X10088015Y8120048D01*
X10147810Y8135591D01*
X10186946Y8159921D01*
X10209756Y8194987D01*
X10220572Y8242733D01*
X10223728Y8305105D01*
X10223555Y8384051D01*
X10223500Y8406856D01*
X10224000Y8488683D01*
X10222602Y8553693D01*
X10214955Y8603813D01*
X10196710Y8640969D01*
X10163518Y8667088D01*
X10111029Y8684095D01*
X10034895Y8693918D01*
X9930765Y8698482D01*
X9794290Y8699713D01*
X9621120Y8699538D01*
X9562738Y8699500D01*
X8986644Y8699500D01*
X9403988Y9118748D01*
X9523135Y9239838D01*
X9626460Y9347644D01*
X9710931Y9438829D01*
X9773514Y9510058D01*
X9811175Y9557995D01*
X9821333Y9577680D01*
X9806004Y9613143D01*
X9765304Y9667031D01*
X9707164Y9731635D01*
X9639515Y9799243D01*
X9570288Y9862145D01*
X9507413Y9912629D01*
X9458821Y9942986D01*
X9440096Y9948333D01*
X9414856Y9939348D01*
X9373576Y9910912D01*
X9313751Y9860802D01*
X9232879Y9786796D01*
X9128455Y9686670D01*
X8997976Y9558203D01*
X8975873Y9536222D01*
X8561916Y9124111D01*
X8568153Y9689966D01*
X8570396Y9874668D01*
X8571274Y10021395D01*
X8568798Y10134500D01*
X8560979Y10218338D01*
X8545827Y10277263D01*
X8521351Y10315628D01*
X8485562Y10337787D01*
X8436470Y10348094D01*
X8372085Y10350902D01*
X8290418Y10350565D01*
X8266271Y10350500D01*
X8159297Y10349004D01*
X8086816Y10343838D01*
X8041072Y10333981D01*
X8014307Y10318416D01*
X8013095Y10317238D01*
X8003105Y10302374D01*
X7995292Y10276946D01*
X7989402Y10236209D01*
X7985179Y10175418D01*
X7982368Y10089828D01*
X7980713Y9974693D01*
X7979961Y9825268D01*
X7979833Y9698810D01*
X7979833Y9113644D01*
X7560585Y9530988D01*
X7421697Y9668012D01*
X7309642Y9775723D01*
X7222476Y9855856D01*
X7158255Y9910147D01*
X7115035Y9940332D01*
X7093086Y9948333D01*
X7050146Y9932266D01*
X6985761Y9886313D01*
X6906958Y9816041D01*
X6818630Y9727257D01*
X6761173Y9658613D01*
X6731473Y9605009D01*
X6726416Y9561344D01*
X6735357Y9534929D01*
X6755735Y9509117D01*
X6801902Y9457877D01*
X6869644Y9385649D01*
X6954751Y9296873D01*
X7053011Y9195991D01*
X7151335Y9096375D01*
X7545499Y8699500D01*
X5203547Y8699500D01*
X5245274Y8768291D01*
X5291704Y8845901D01*
X5353562Y8950934D01*
X5428835Y9079867D01*
X5515514Y9229180D01*
X5611587Y9395351D01*
X5715044Y9574859D01*
X5823874Y9764182D01*
X5936065Y9959799D01*
X6049607Y10158188D01*
X6162490Y10355828D01*
X6272701Y10549198D01*
X6378232Y10734776D01*
X6477069Y10909041D01*
X6567203Y11068471D01*
X6646624Y11209545D01*
X6713319Y11328742D01*
X6765278Y11422539D01*
X6800490Y11487416D01*
X6816945Y11519851D01*
X6817804Y11522121D01*
X6820618Y11552826D01*
X6823294Y11622984D01*
X6825805Y11729716D01*
X6828127Y11870142D01*
X6830232Y12041383D01*
X6832094Y12240560D01*
X6833686Y12464791D01*
X6834982Y12711199D01*
X6835956Y12976902D01*
X6836580Y13259022D01*
X6836830Y13554679D01*
X6836833Y13594152D01*
X6836833Y15599833D01*
X9672347Y15599833D01*
X9678048Y13551958D01*
X9683750Y11504083D01*
X10142027Y10710333D01*
X10261642Y10503175D01*
X10394369Y10273341D01*
X10534305Y10031051D01*
X10675546Y9786524D01*
X10812192Y9549980D01*
X10938337Y9331637D01*
X11028413Y9175750D01*
X11222525Y8839800D01*
X11397856Y8536266D01*
X11554114Y8265653D01*
X11691006Y8028470D01*
X11808238Y7825225D01*
X11905520Y7656425D01*
X11982557Y7522577D01*
X12039056Y7424190D01*
X12074726Y7361771D01*
X12081558Y7349716D01*
X12132576Y7259349D01*
X12797480Y7259349D01*
X12795542Y7264048D01*
X12766118Y7321652D01*
X12719740Y7407968D01*
X12658584Y7519062D01*
X12584828Y7651001D01*
X12500648Y7799849D01*
X12408221Y7961675D01*
X12348440Y8065567D01*
X12233656Y8264480D01*
X12109821Y8479054D01*
X11982009Y8700498D01*
X11855297Y8920018D01*
X11734760Y9128821D01*
X11625473Y9318115D01*
X11536568Y9472083D01*
X11441583Y9636571D01*
X11330654Y9828682D01*
X11208999Y10039377D01*
X11081839Y10259617D01*
X10954392Y10480360D01*
X10831878Y10692568D01*
X10734544Y10861170D01*
X10287000Y11636424D01*
X10288092Y15589250D01*
X10371292Y15627595D01*
X10457689Y15687178D01*
X10512755Y15766267D01*
X10537365Y15856891D01*
X10532392Y15951078D01*
X10498708Y16040857D01*
X10437188Y16118256D01*
X10348705Y16175304D01*
X10309727Y16189531D01*
X10274332Y16193785D01*
X10200269Y16197654D01*
X10091203Y16201138D01*
X9950798Y16204238D01*
X9782718Y16206952D01*
X9590627Y16209282D01*
X9378191Y16211226D01*
X9149071Y16212786D01*
X8906934Y16213960D01*
X8655443Y16214750D01*
X8398263Y16215155D01*
X8139057Y16215175D01*
X7881490Y16214811D01*
G36*
X54768750Y5063183D02*
X54546500Y5033492D01*
X54421333Y5020224D01*
X54227075Y5006185D01*
X53979290Y4992189D01*
X53693539Y4979050D01*
X53385385Y4967583D01*
X53157422Y4960794D01*
X52064677Y4931833D01*
X51823922Y4691747D01*
X51678461Y4548396D01*
X51502673Y4377636D01*
X51328003Y4209958D01*
X51278164Y4162580D01*
X50973161Y3873500D01*
X50944106Y3183706D01*
X50933700Y2927138D01*
X50928462Y2737880D01*
X50929965Y2598653D01*
X50939778Y2492177D01*
X50959473Y2401174D01*
X50990622Y2308363D01*
X51033590Y2199456D01*
X51085090Y2072391D01*
X51130099Y1985740D01*
X51184544Y1933773D01*
X51264356Y1910758D01*
X51385463Y1910964D01*
X51563795Y1928658D01*
X51731334Y1948395D01*
X51913027Y1974182D01*
X52093528Y2006912D01*
X52197000Y2030347D01*
X52356606Y2071910D01*
X52514677Y2112976D01*
X52547612Y2121515D01*
X52677098Y2180364D01*
X52842398Y2294513D01*
X52991242Y2419933D01*
X53002690Y2429658D01*
X52562474Y2429658D01*
X52560810Y2424032D01*
X52500981Y2396666D01*
X52378367Y2360529D01*
X52213810Y2320089D01*
X52028149Y2279816D01*
X51842224Y2244179D01*
X51676877Y2217647D01*
X51552947Y2204690D01*
X51535386Y2204126D01*
X51405607Y2206338D01*
X51332694Y2226360D01*
X51288952Y2277810D01*
X51261229Y2338917D01*
X51207836Y2512199D01*
X51207846Y2667369D01*
X51265988Y2825537D01*
X51386992Y3007813D01*
X51420787Y3051073D01*
X51539076Y3192521D01*
X51627866Y3277415D01*
X51704615Y3319652D01*
X51774279Y3332454D01*
X51909599Y3326014D01*
X52004784Y3292234D01*
X52043561Y3239972D01*
X52026756Y3195069D01*
X51997473Y3119650D01*
X52043441Y3067507D01*
X52156394Y3048000D01*
X52156633Y3048000D01*
X52223062Y3040403D01*
X52276980Y3007212D01*
X52332676Y2932827D01*
X52404436Y2801648D01*
X52432019Y2747328D01*
X52500099Y2604268D01*
X52546172Y2491881D01*
X52562474Y2429658D01*
X53002690Y2429658D01*
X53166500Y2568803D01*
X53374645Y2731062D01*
X53576188Y2876168D01*
X53614297Y2901815D01*
X53839229Y3066215D01*
X54079440Y3273166D01*
X54240634Y3430421D01*
X53815715Y3430421D01*
X53785911Y3388285D01*
X53778825Y3380396D01*
X53715542Y3323873D01*
X53600312Y3232824D01*
X53450819Y3120885D01*
X53319910Y3026500D01*
X53148638Y2901400D01*
X52990990Y2779672D01*
X52867601Y2677600D01*
X52811168Y2625016D01*
X52724403Y2545228D01*
X52656137Y2500889D01*
X52642666Y2497667D01*
X52602419Y2532960D01*
X52540003Y2625890D01*
X52468323Y2757030D01*
X52462181Y2769388D01*
X52393684Y2914864D01*
X52362230Y3005166D01*
X52363600Y3059052D01*
X52389595Y3092072D01*
X52442196Y3163751D01*
X52443554Y3169457D01*
X52318960Y3169457D01*
X52286884Y3135142D01*
X52280481Y3131038D01*
X52195024Y3093369D01*
X52142682Y3118933D01*
X52135308Y3129742D01*
X52137151Y3180138D01*
X52193755Y3207154D01*
X52271925Y3197641D01*
X52318960Y3169457D01*
X52443554Y3169457D01*
X52451000Y3200741D01*
X52487630Y3252460D01*
X52582622Y3318893D01*
X52713630Y3389166D01*
X52858311Y3452406D01*
X52994317Y3497739D01*
X53095377Y3514315D01*
X53209673Y3525268D01*
X53290587Y3550724D01*
X53290944Y3550949D01*
X53364315Y3561288D01*
X53493741Y3546423D01*
X53599364Y3523545D01*
X53735909Y3487308D01*
X53803537Y3459848D01*
X53815715Y3430421D01*
X54240634Y3430421D01*
X54343733Y3531000D01*
X54640910Y3848045D01*
X54788083Y4012672D01*
X54965312Y4241272D01*
X55021253Y4345642D01*
X54677225Y4345642D01*
X54673311Y4315600D01*
X54666020Y4301626D01*
X54610488Y4226687D01*
X54512836Y4117183D01*
X54387480Y3987047D01*
X54248837Y3850209D01*
X54111321Y3720603D01*
X53989348Y3612161D01*
X53897335Y3538814D01*
X53851376Y3514309D01*
X53770121Y3526530D01*
X53649698Y3556201D01*
X53611823Y3567226D01*
X53485985Y3616310D01*
X53444061Y3640667D01*
X53255334Y3640667D01*
X53219106Y3608844D01*
X53149500Y3598333D01*
X53069943Y3612825D01*
X53043667Y3640667D01*
X53079895Y3672490D01*
X53149500Y3683000D01*
X53229058Y3668509D01*
X53255334Y3640667D01*
X53444061Y3640667D01*
X53387848Y3673325D01*
X53371540Y3687426D01*
X53342925Y3726197D01*
X53345871Y3769363D01*
X53389077Y3832279D01*
X53481244Y3930300D01*
X53545445Y3994343D01*
X53706754Y4140030D01*
X53828488Y4217601D01*
X53893678Y4233333D01*
X53991444Y4248498D01*
X54041540Y4274473D01*
X54101503Y4298253D01*
X54221312Y4322674D01*
X54376329Y4342843D01*
X54394481Y4344592D01*
X54517095Y4354791D01*
X53969960Y4354791D01*
X53937884Y4320476D01*
X53931481Y4316371D01*
X53843111Y4280334D01*
X53778606Y4286826D01*
X53763334Y4315502D01*
X53797719Y4375286D01*
X53878201Y4393286D01*
X53922925Y4382974D01*
X53969960Y4354791D01*
X54517095Y4354791D01*
X54552825Y4357763D01*
X54642068Y4358905D01*
X54677225Y4345642D01*
X55021253Y4345642D01*
X55092116Y4477852D01*
X55137234Y4591637D01*
X55196135Y4771898D01*
X54889881Y4771898D01*
X54888935Y4721704D01*
X54855878Y4626404D01*
X54836891Y4584999D01*
X54793169Y4502030D01*
X54747648Y4451977D01*
X54677729Y4423860D01*
X54560814Y4406700D01*
X54448232Y4396160D01*
X54237353Y4386067D01*
X54094142Y4400862D01*
X54034465Y4422355D01*
X53896806Y4455663D01*
X53794067Y4447956D01*
X53697486Y4415103D01*
X53660947Y4355440D01*
X53657500Y4307213D01*
X53627434Y4217628D01*
X53549967Y4100433D01*
X53444198Y3976295D01*
X53329224Y3865879D01*
X53224145Y3789852D01*
X53158892Y3767667D01*
X53051796Y3747601D01*
X52966209Y3698992D01*
X52928920Y3639225D01*
X52931698Y3620224D01*
X52909308Y3570828D01*
X52826581Y3504458D01*
X52703389Y3431264D01*
X52559598Y3361398D01*
X52415079Y3305010D01*
X52289699Y3272250D01*
X52242055Y3267898D01*
X52125728Y3279323D01*
X52043256Y3307507D01*
X52038250Y3311181D01*
X51993383Y3387424D01*
X51985334Y3438147D01*
X51985024Y3438821D01*
X51840802Y3438821D01*
X51835359Y3426075D01*
X51772855Y3389587D01*
X51696619Y3400793D01*
X51670575Y3424564D01*
X51680707Y3465934D01*
X51738032Y3495340D01*
X51805184Y3496547D01*
X51820511Y3489712D01*
X51840802Y3438821D01*
X51985024Y3438821D01*
X51948888Y3517272D01*
X51900667Y3543734D01*
X51843353Y3588446D01*
X51820278Y3651160D01*
X51775681Y3651160D01*
X51740201Y3577657D01*
X51678417Y3548361D01*
X51601957Y3510668D01*
X51569364Y3413563D01*
X51569018Y3410607D01*
X51534429Y3308559D01*
X51460764Y3179700D01*
X51399685Y3096681D01*
X51244500Y2906981D01*
X51231929Y3216946D01*
X51228492Y3376453D01*
X51231225Y3505883D01*
X51239519Y3579110D01*
X51240450Y3581876D01*
X51298105Y3644642D01*
X51406211Y3710268D01*
X51532414Y3763962D01*
X51644360Y3790930D01*
X51691408Y3788069D01*
X51760043Y3732863D01*
X51775681Y3651160D01*
X51820278Y3651160D01*
X51815879Y3663114D01*
X51822645Y3734052D01*
X51868053Y3767577D01*
X51871409Y3767667D01*
X51947610Y3791098D01*
X52007395Y3826586D01*
X52061359Y3880963D01*
X52057438Y3894667D01*
X51921834Y3894667D01*
X51862124Y3859104D01*
X51813502Y3852333D01*
X51746080Y3870543D01*
X51731334Y3894667D01*
X51767637Y3926220D01*
X51839666Y3937000D01*
X51911691Y3923562D01*
X51921834Y3894667D01*
X52057438Y3894667D01*
X52045822Y3935256D01*
X52031469Y3953586D01*
X51933414Y4012398D01*
X51806233Y4014558D01*
X51681374Y3962573D01*
X51634062Y3921905D01*
X51540639Y3840364D01*
X51428610Y3767061D01*
X51322536Y3715209D01*
X51246975Y3698020D01*
X51230021Y3704535D01*
X51249687Y3741314D01*
X51322025Y3824857D01*
X51437221Y3944796D01*
X51585461Y4090766D01*
X51687929Y4188171D01*
X52173614Y4644028D01*
X53000224Y4671601D01*
X53302120Y4683467D01*
X53617737Y4698970D01*
X53920939Y4716617D01*
X54185589Y4734917D01*
X54345490Y4748403D01*
X54546281Y4765297D01*
X54715245Y4775432D01*
X54835250Y4778070D01*
X54889163Y4772470D01*
X54889881Y4771898D01*
X55196135Y4771898D01*
X55199391Y4781860D01*
X55221916Y4920103D01*
X55197460Y5011862D01*
X55118679Y5062631D01*
X54978224Y5077907D01*
X54768750Y5063183D01*
X54768750Y5063183D01*
G37*
X54768750Y5063183D02*
X54546500Y5033492D01*
X54421333Y5020224D01*
X54227075Y5006185D01*
X53979290Y4992189D01*
X53693539Y4979050D01*
X53385385Y4967583D01*
X53157422Y4960794D01*
X52064677Y4931833D01*
X51823922Y4691747D01*
X51678461Y4548396D01*
X51502673Y4377636D01*
X51328003Y4209958D01*
X51278164Y4162580D01*
X50973161Y3873500D01*
X50944106Y3183706D01*
X50933700Y2927138D01*
X50928462Y2737880D01*
X50929965Y2598653D01*
X50939778Y2492177D01*
X50959473Y2401174D01*
X50990622Y2308363D01*
X51033590Y2199456D01*
X51085090Y2072391D01*
X51130099Y1985740D01*
X51184544Y1933773D01*
X51264356Y1910758D01*
X51385463Y1910964D01*
X51563795Y1928658D01*
X51731334Y1948395D01*
X51913027Y1974182D01*
X52093528Y2006912D01*
X52197000Y2030347D01*
X52356606Y2071910D01*
X52514677Y2112976D01*
X52547612Y2121515D01*
X52677098Y2180364D01*
X52842398Y2294513D01*
X52991242Y2419933D01*
X53002690Y2429658D01*
X52562474Y2429658D01*
X52560810Y2424032D01*
X52500981Y2396666D01*
X52378367Y2360529D01*
X52213810Y2320089D01*
X52028149Y2279816D01*
X51842224Y2244179D01*
X51676877Y2217647D01*
X51552947Y2204690D01*
X51535386Y2204126D01*
X51405607Y2206338D01*
X51332694Y2226360D01*
X51288952Y2277810D01*
X51261229Y2338917D01*
X51207836Y2512199D01*
X51207846Y2667369D01*
X51265988Y2825537D01*
X51386992Y3007813D01*
X51420787Y3051073D01*
X51539076Y3192521D01*
X51627866Y3277415D01*
X51704615Y3319652D01*
X51774279Y3332454D01*
X51909599Y3326014D01*
X52004784Y3292234D01*
X52043561Y3239972D01*
X52026756Y3195069D01*
X51997473Y3119650D01*
X52043441Y3067507D01*
X52156394Y3048000D01*
X52156633Y3048000D01*
X52223062Y3040403D01*
X52276980Y3007212D01*
X52332676Y2932827D01*
X52404436Y2801648D01*
X52432019Y2747328D01*
X52500099Y2604268D01*
X52546172Y2491881D01*
X52562474Y2429658D01*
X53002690Y2429658D01*
X53166500Y2568803D01*
X53374645Y2731062D01*
X53576188Y2876168D01*
X53614297Y2901815D01*
X53839229Y3066215D01*
X54079440Y3273166D01*
X54240634Y3430421D01*
X53815715Y3430421D01*
X53785911Y3388285D01*
X53778825Y3380396D01*
X53715542Y3323873D01*
X53600312Y3232824D01*
X53450819Y3120885D01*
X53319910Y3026500D01*
X53148638Y2901400D01*
X52990990Y2779672D01*
X52867601Y2677600D01*
X52811168Y2625016D01*
X52724403Y2545228D01*
X52656137Y2500889D01*
X52642666Y2497667D01*
X52602419Y2532960D01*
X52540003Y2625890D01*
X52468323Y2757030D01*
X52462181Y2769388D01*
X52393684Y2914864D01*
X52362230Y3005166D01*
X52363600Y3059052D01*
X52389595Y3092072D01*
X52442196Y3163751D01*
X52443554Y3169457D01*
X52318960Y3169457D01*
X52286884Y3135142D01*
X52280481Y3131038D01*
X52195024Y3093369D01*
X52142682Y3118933D01*
X52135308Y3129742D01*
X52137151Y3180138D01*
X52193755Y3207154D01*
X52271925Y3197641D01*
X52318960Y3169457D01*
X52443554Y3169457D01*
X52451000Y3200741D01*
X52487630Y3252460D01*
X52582622Y3318893D01*
X52713630Y3389166D01*
X52858311Y3452406D01*
X52994317Y3497739D01*
X53095377Y3514315D01*
X53209673Y3525268D01*
X53290587Y3550724D01*
X53290944Y3550949D01*
X53364315Y3561288D01*
X53493741Y3546423D01*
X53599364Y3523545D01*
X53735909Y3487308D01*
X53803537Y3459848D01*
X53815715Y3430421D01*
X54240634Y3430421D01*
X54343733Y3531000D01*
X54640910Y3848045D01*
X54788083Y4012672D01*
X54965312Y4241272D01*
X55021253Y4345642D01*
X54677225Y4345642D01*
X54673311Y4315600D01*
X54666020Y4301626D01*
X54610488Y4226687D01*
X54512836Y4117183D01*
X54387480Y3987047D01*
X54248837Y3850209D01*
X54111321Y3720603D01*
X53989348Y3612161D01*
X53897335Y3538814D01*
X53851376Y3514309D01*
X53770121Y3526530D01*
X53649698Y3556201D01*
X53611823Y3567226D01*
X53485985Y3616310D01*
X53444061Y3640667D01*
X53255334Y3640667D01*
X53219106Y3608844D01*
X53149500Y3598333D01*
X53069943Y3612825D01*
X53043667Y3640667D01*
X53079895Y3672490D01*
X53149500Y3683000D01*
X53229058Y3668509D01*
X53255334Y3640667D01*
X53444061Y3640667D01*
X53387848Y3673325D01*
X53371540Y3687426D01*
X53342925Y3726197D01*
X53345871Y3769363D01*
X53389077Y3832279D01*
X53481244Y3930300D01*
X53545445Y3994343D01*
X53706754Y4140030D01*
X53828488Y4217601D01*
X53893678Y4233333D01*
X53991444Y4248498D01*
X54041540Y4274473D01*
X54101503Y4298253D01*
X54221312Y4322674D01*
X54376329Y4342843D01*
X54394481Y4344592D01*
X54517095Y4354791D01*
X53969960Y4354791D01*
X53937884Y4320476D01*
X53931481Y4316371D01*
X53843111Y4280334D01*
X53778606Y4286826D01*
X53763334Y4315502D01*
X53797719Y4375286D01*
X53878201Y4393286D01*
X53922925Y4382974D01*
X53969960Y4354791D01*
X54517095Y4354791D01*
X54552825Y4357763D01*
X54642068Y4358905D01*
X54677225Y4345642D01*
X55021253Y4345642D01*
X55092116Y4477852D01*
X55137234Y4591637D01*
X55196135Y4771898D01*
X54889881Y4771898D01*
X54888935Y4721704D01*
X54855878Y4626404D01*
X54836891Y4584999D01*
X54793169Y4502030D01*
X54747648Y4451977D01*
X54677729Y4423860D01*
X54560814Y4406700D01*
X54448232Y4396160D01*
X54237353Y4386067D01*
X54094142Y4400862D01*
X54034465Y4422355D01*
X53896806Y4455663D01*
X53794067Y4447956D01*
X53697486Y4415103D01*
X53660947Y4355440D01*
X53657500Y4307213D01*
X53627434Y4217628D01*
X53549967Y4100433D01*
X53444198Y3976295D01*
X53329224Y3865879D01*
X53224145Y3789852D01*
X53158892Y3767667D01*
X53051796Y3747601D01*
X52966209Y3698992D01*
X52928920Y3639225D01*
X52931698Y3620224D01*
X52909308Y3570828D01*
X52826581Y3504458D01*
X52703389Y3431264D01*
X52559598Y3361398D01*
X52415079Y3305010D01*
X52289699Y3272250D01*
X52242055Y3267898D01*
X52125728Y3279323D01*
X52043256Y3307507D01*
X52038250Y3311181D01*
X51993383Y3387424D01*
X51985334Y3438147D01*
X51985024Y3438821D01*
X51840802Y3438821D01*
X51835359Y3426075D01*
X51772855Y3389587D01*
X51696619Y3400793D01*
X51670575Y3424564D01*
X51680707Y3465934D01*
X51738032Y3495340D01*
X51805184Y3496547D01*
X51820511Y3489712D01*
X51840802Y3438821D01*
X51985024Y3438821D01*
X51948888Y3517272D01*
X51900667Y3543734D01*
X51843353Y3588446D01*
X51820278Y3651160D01*
X51775681Y3651160D01*
X51740201Y3577657D01*
X51678417Y3548361D01*
X51601957Y3510668D01*
X51569364Y3413563D01*
X51569018Y3410607D01*
X51534429Y3308559D01*
X51460764Y3179700D01*
X51399685Y3096681D01*
X51244500Y2906981D01*
X51231929Y3216946D01*
X51228492Y3376453D01*
X51231225Y3505883D01*
X51239519Y3579110D01*
X51240450Y3581876D01*
X51298105Y3644642D01*
X51406211Y3710268D01*
X51532414Y3763962D01*
X51644360Y3790930D01*
X51691408Y3788069D01*
X51760043Y3732863D01*
X51775681Y3651160D01*
X51820278Y3651160D01*
X51815879Y3663114D01*
X51822645Y3734052D01*
X51868053Y3767577D01*
X51871409Y3767667D01*
X51947610Y3791098D01*
X52007395Y3826586D01*
X52061359Y3880963D01*
X52057438Y3894667D01*
X51921834Y3894667D01*
X51862124Y3859104D01*
X51813502Y3852333D01*
X51746080Y3870543D01*
X51731334Y3894667D01*
X51767637Y3926220D01*
X51839666Y3937000D01*
X51911691Y3923562D01*
X51921834Y3894667D01*
X52057438Y3894667D01*
X52045822Y3935256D01*
X52031469Y3953586D01*
X51933414Y4012398D01*
X51806233Y4014558D01*
X51681374Y3962573D01*
X51634062Y3921905D01*
X51540639Y3840364D01*
X51428610Y3767061D01*
X51322536Y3715209D01*
X51246975Y3698020D01*
X51230021Y3704535D01*
X51249687Y3741314D01*
X51322025Y3824857D01*
X51437221Y3944796D01*
X51585461Y4090766D01*
X51687929Y4188171D01*
X52173614Y4644028D01*
X53000224Y4671601D01*
X53302120Y4683467D01*
X53617737Y4698970D01*
X53920939Y4716617D01*
X54185589Y4734917D01*
X54345490Y4748403D01*
X54546281Y4765297D01*
X54715245Y4775432D01*
X54835250Y4778070D01*
X54889163Y4772470D01*
X54889881Y4771898D01*
X55196135Y4771898D01*
X55199391Y4781860D01*
X55221916Y4920103D01*
X55197460Y5011862D01*
X55118679Y5062631D01*
X54978224Y5077907D01*
X54768750Y5063183D01*
G36*
X48432287Y12145342D02*
X48297175Y12104860D01*
X48207803Y12053778D01*
X48134000Y11968770D01*
X48067474Y11863312D01*
X48010535Y11762815D01*
X47971340Y11672410D01*
X47945434Y11571265D01*
X47928359Y11438549D01*
X47915658Y11253433D01*
X47908958Y11122478D01*
X47889881Y10828073D01*
X47860482Y10564419D01*
X47816280Y10310079D01*
X47752794Y10043613D01*
X47665541Y9743583D01*
X47550041Y9388551D01*
X47540725Y9360914D01*
X47430448Y9009915D01*
X47359647Y8721781D01*
X47327079Y8485147D01*
X47331500Y8288646D01*
X47371665Y8120912D01*
X47398125Y8057925D01*
X47451878Y7965393D01*
X47527707Y7878410D01*
X47637382Y7788042D01*
X47792669Y7685361D01*
X48005339Y7561434D01*
X48176993Y7466848D01*
X48412916Y7335729D01*
X48643111Y7201073D01*
X48879997Y7054852D01*
X49135993Y6889040D01*
X49423517Y6695607D01*
X49754988Y6466528D01*
X50103759Y6221400D01*
X50380566Y6028005D01*
X50601978Y5879133D01*
X50779765Y5767755D01*
X50925694Y5686839D01*
X51051534Y5629357D01*
X51157952Y5591660D01*
X51300928Y5549329D01*
X51407562Y5521216D01*
X51456796Y5512824D01*
X51457773Y5513304D01*
X51454665Y5556592D01*
X51440084Y5670308D01*
X51415898Y5841269D01*
X51406119Y5907133D01*
X51135234Y5907133D01*
X51123720Y5898464D01*
X51085744Y5947833D01*
X51050693Y6007056D01*
X50982678Y6130747D01*
X50887465Y6308086D01*
X50770823Y6528254D01*
X50638519Y6780432D01*
X50499984Y7046724D01*
X50359401Y7320311D01*
X50231426Y7573655D01*
X50121440Y7795762D01*
X50034821Y7975635D01*
X49976949Y8102279D01*
X49953334Y8164031D01*
X49925872Y8219207D01*
X49817118Y8219207D01*
X49804614Y8177147D01*
X49760634Y8176874D01*
X49686390Y8217475D01*
X49666216Y8248460D01*
X49678720Y8290520D01*
X49722700Y8290793D01*
X49796944Y8250192D01*
X49817118Y8219207D01*
X49925872Y8219207D01*
X49903791Y8263569D01*
X49847500Y8313973D01*
X49779210Y8357709D01*
X49733866Y8411234D01*
X49700828Y8496354D01*
X49669461Y8634871D01*
X49655482Y8707549D01*
X49629967Y8869462D01*
X49628543Y8970485D01*
X49651178Y9030884D01*
X49654967Y9035717D01*
X49678841Y9094441D01*
X49663906Y9119474D01*
X49567408Y9119474D01*
X49549390Y9104786D01*
X49500749Y9103013D01*
X49416280Y9117968D01*
X49383642Y9141075D01*
X49377936Y9190395D01*
X49424856Y9203473D01*
X49498400Y9175476D01*
X49513181Y9165157D01*
X49567408Y9119474D01*
X49663906Y9119474D01*
X49638899Y9161387D01*
X49620952Y9180049D01*
X49582409Y9243510D01*
X48541268Y9243510D01*
X48497389Y9229015D01*
X48476851Y9228667D01*
X48403858Y9253945D01*
X48387000Y9292167D01*
X48407105Y9348542D01*
X48424150Y9355667D01*
X48479321Y9326704D01*
X48514000Y9292167D01*
X48541268Y9243510D01*
X49582409Y9243510D01*
X49567681Y9267759D01*
X49522969Y9400686D01*
X49491787Y9551206D01*
X49479105Y9691698D01*
X49489893Y9794538D01*
X49505286Y9822847D01*
X49517270Y9874187D01*
X49513916Y9878510D01*
X49387934Y9878510D01*
X49344056Y9864015D01*
X49323517Y9863667D01*
X49250525Y9888945D01*
X49233667Y9927167D01*
X49253771Y9983542D01*
X49270817Y9990667D01*
X49325988Y9961704D01*
X49360667Y9927167D01*
X49387934Y9878510D01*
X49513916Y9878510D01*
X49460882Y9946863D01*
X49435311Y9969933D01*
X49363119Y10060770D01*
X49279780Y10207105D01*
X49196802Y10382859D01*
X49125693Y10561949D01*
X49077960Y10718295D01*
X49064334Y10810708D01*
X49025846Y10928541D01*
X48885785Y10928541D01*
X48873281Y10886480D01*
X48829301Y10886207D01*
X48755057Y10926808D01*
X48734883Y10957793D01*
X48747387Y10999853D01*
X48791367Y11000126D01*
X48865611Y10959525D01*
X48885785Y10928541D01*
X49025846Y10928541D01*
X49024948Y10931289D01*
X48916417Y11025133D01*
X48776458Y11074825D01*
X48673577Y11082768D01*
X48622719Y11047545D01*
X48615750Y11032456D01*
X48619514Y10938186D01*
X48701895Y10854923D01*
X48852109Y10790166D01*
X48932460Y10760867D01*
X48990534Y10718265D01*
X49040187Y10643921D01*
X49095272Y10519396D01*
X49137870Y10409848D01*
X49264898Y10077087D01*
X49124436Y10050736D01*
X49011024Y10046846D01*
X48999981Y10049896D01*
X48718855Y10049896D01*
X48692324Y10033990D01*
X48652570Y10033000D01*
X48568672Y10049315D01*
X48536975Y10072408D01*
X48532795Y10122958D01*
X48579333Y10142217D01*
X48646396Y10123831D01*
X48675301Y10101509D01*
X48718855Y10049896D01*
X48999981Y10049896D01*
X48881030Y10082748D01*
X48749237Y10143243D01*
X48610619Y10207976D01*
X48524679Y10231689D01*
X48472621Y10218746D01*
X48462286Y10209885D01*
X48436199Y10139016D01*
X48473016Y10064200D01*
X48552964Y9999742D01*
X48656270Y9959944D01*
X48763162Y9959109D01*
X48794797Y9969364D01*
X48916380Y9994363D01*
X49035782Y9978357D01*
X49116439Y9926974D01*
X49121574Y9919059D01*
X49183061Y9861030D01*
X49286106Y9802329D01*
X49301490Y9795632D01*
X49400265Y9741549D01*
X49440141Y9671228D01*
X49445912Y9598515D01*
X49453529Y9472655D01*
X49469644Y9375322D01*
X49474711Y9327275D01*
X49450861Y9294934D01*
X49385372Y9275316D01*
X49265526Y9265439D01*
X49078601Y9262320D01*
X48987491Y9262286D01*
X48787827Y9270815D01*
X48660068Y9296783D01*
X48606491Y9327138D01*
X48497212Y9397693D01*
X48387218Y9426205D01*
X48302508Y9408948D01*
X48274502Y9374730D01*
X48280380Y9291411D01*
X48345855Y9217585D01*
X48445896Y9165203D01*
X48555468Y9146213D01*
X48649540Y9172565D01*
X48667300Y9187233D01*
X48732998Y9205767D01*
X48853731Y9205172D01*
X49003023Y9189212D01*
X49154396Y9161654D01*
X49281374Y9126262D01*
X49354496Y9089503D01*
X49444599Y9028272D01*
X49492813Y9005683D01*
X49545684Y8944095D01*
X49593541Y8798869D01*
X49614423Y8700797D01*
X49640807Y8549375D01*
X49647467Y8458029D01*
X49632652Y8404097D01*
X49594613Y8364917D01*
X49588110Y8359907D01*
X49507849Y8318866D01*
X49461971Y8316041D01*
X49401127Y8326388D01*
X49277586Y8340379D01*
X49113108Y8355679D01*
X49026685Y8362749D01*
X48798767Y8387234D01*
X48771570Y8393049D01*
X48463499Y8393049D01*
X48428228Y8383668D01*
X48388291Y8388518D01*
X48303624Y8419664D01*
X48270372Y8456083D01*
X48280273Y8500648D01*
X48334112Y8504480D01*
X48403091Y8470180D01*
X48432708Y8441434D01*
X48463499Y8393049D01*
X48771570Y8393049D01*
X48642842Y8420572D01*
X48546460Y8465505D01*
X48541041Y8469610D01*
X48425990Y8538404D01*
X48331137Y8574366D01*
X48229908Y8574158D01*
X48182848Y8524190D01*
X48197275Y8445222D01*
X48260263Y8373275D01*
X48341748Y8324565D01*
X48442097Y8309218D01*
X48574239Y8318974D01*
X48739082Y8327689D01*
X48935649Y8321500D01*
X49141954Y8303123D01*
X49336012Y8275273D01*
X49495837Y8240666D01*
X49599444Y8202019D01*
X49616006Y8190288D01*
X49714947Y8127348D01*
X49804627Y8092518D01*
X49843817Y8074275D01*
X49887731Y8034686D01*
X49941413Y7965567D01*
X50009909Y7858733D01*
X50098264Y7705999D01*
X50211524Y7499179D01*
X50354734Y7230090D01*
X50461942Y7026173D01*
X50602886Y6755405D01*
X50728884Y6509717D01*
X50835089Y6298853D01*
X50916657Y6132558D01*
X50968744Y6020577D01*
X50986504Y5972655D01*
X50986194Y5971749D01*
X50946228Y5986839D01*
X50852565Y6042176D01*
X50720178Y6128477D01*
X50598012Y6212472D01*
X50190562Y6495534D01*
X49789720Y6768376D01*
X49406292Y7023936D01*
X49051086Y7255152D01*
X48734909Y7454960D01*
X48468566Y7616298D01*
X48320353Y7701025D01*
X48127772Y7812131D01*
X47951534Y7922581D01*
X47811329Y8019481D01*
X47727686Y8089061D01*
X47648363Y8201295D01*
X47606260Y8340339D01*
X47602006Y8515968D01*
X47636228Y8737959D01*
X47709555Y9016086D01*
X47806340Y9313333D01*
X47924065Y9668619D01*
X48012369Y9974873D01*
X48077149Y10260009D01*
X48124301Y10551944D01*
X48159723Y10878595D01*
X48174221Y11055015D01*
X48193413Y11287979D01*
X48212039Y11453761D01*
X48233854Y11569739D01*
X48262611Y11653286D01*
X48302064Y11721779D01*
X48325088Y11753345D01*
X48422218Y11849014D01*
X48529993Y11890341D01*
X48651910Y11874489D01*
X48791471Y11798621D01*
X48952173Y11659900D01*
X49137516Y11455491D01*
X49350999Y11182556D01*
X49596122Y10838259D01*
X49768437Y10583333D01*
X49875403Y10402903D01*
X49998963Y10157232D01*
X50141326Y9841573D01*
X50304701Y9451175D01*
X50368787Y9292167D01*
X50757878Y8318500D01*
X50927812Y7217833D01*
X50974614Y6915788D01*
X51018351Y6635586D01*
X51057019Y6389894D01*
X51088617Y6191380D01*
X51111141Y6052711D01*
X51121883Y5990167D01*
X51135234Y5907133D01*
X51406119Y5907133D01*
X51383971Y6056295D01*
X51346170Y6302203D01*
X51345374Y6307299D01*
X51307494Y6555955D01*
X51275770Y6776196D01*
X51252038Y6954234D01*
X51238138Y7076283D01*
X51235907Y7128552D01*
X51235911Y7128566D01*
X51262219Y7115868D01*
X51320396Y7044120D01*
X51401121Y6928246D01*
X51495075Y6783170D01*
X51592939Y6623814D01*
X51685393Y6465103D01*
X51763116Y6321959D01*
X51816789Y6209307D01*
X51827881Y6180667D01*
X51874427Y6026716D01*
X51909143Y5874956D01*
X51915293Y5836708D01*
X51923376Y5735367D01*
X51901002Y5692428D01*
X51834296Y5683264D01*
X51828832Y5683250D01*
X51724188Y5658026D01*
X51666092Y5575420D01*
X51647339Y5425032D01*
X51647315Y5421264D01*
X51639303Y5345612D01*
X51608094Y5274395D01*
X51541815Y5191311D01*
X51428594Y5080055D01*
X51339750Y4998909D01*
X51063489Y4744610D01*
X50834404Y4520087D01*
X50632479Y4303604D01*
X50437695Y4073429D01*
X50230032Y3807829D01*
X50172453Y3731609D01*
X50022123Y3529910D01*
X49916282Y3381678D01*
X49847592Y3273427D01*
X49808716Y3191674D01*
X49792315Y3122932D01*
X49791051Y3053717D01*
X49792360Y3033109D01*
X49807583Y2919438D01*
X49841593Y2865717D01*
X49910127Y2847284D01*
X49911000Y2847198D01*
X50025226Y2856976D01*
X50093474Y2882483D01*
X50144296Y2933815D01*
X50229069Y3041982D01*
X50336775Y3192081D01*
X50456397Y3369208D01*
X50479684Y3404874D01*
X50623665Y3620411D01*
X50745047Y3783589D01*
X50862719Y3915852D01*
X50995572Y4038646D01*
X51143877Y4158902D01*
X51376571Y4350781D01*
X51594636Y4549148D01*
X51785940Y4741491D01*
X51938355Y4915295D01*
X52039749Y5058047D01*
X52066087Y5110257D01*
X52106822Y5197523D01*
X52141122Y5216188D01*
X52189635Y5178080D01*
X52221749Y5154622D01*
X52271656Y5138207D01*
X52351152Y5128332D01*
X52472027Y5124493D01*
X52646076Y5126188D01*
X52885092Y5132914D01*
X53084701Y5139884D01*
X53406839Y5153188D01*
X53761884Y5170489D01*
X54117422Y5190041D01*
X54441041Y5210101D01*
X54613029Y5222146D01*
X54935014Y5249024D01*
X55191318Y5281624D01*
X55399726Y5328416D01*
X55578024Y5397868D01*
X55743998Y5498449D01*
X55915434Y5638627D01*
X56110117Y5826870D01*
X56303334Y6026976D01*
X56451603Y6180949D01*
X56648816Y6383237D01*
X56883811Y6622526D01*
X57145427Y6887504D01*
X57422501Y7166855D01*
X57703871Y7449265D01*
X57894607Y7639918D01*
X58205338Y7951478D01*
X58458955Y8209391D01*
X58659734Y8418313D01*
X58811954Y8582904D01*
X58919892Y8707820D01*
X58962721Y8764498D01*
X58609743Y8764498D01*
X57572955Y7713777D01*
X57306983Y7443790D01*
X57039798Y7171765D01*
X56782377Y6908935D01*
X56545699Y6666537D01*
X56340742Y6455805D01*
X56178484Y6287974D01*
X56112834Y6219505D01*
X55896866Y5997713D01*
X55716409Y5829213D01*
X55553327Y5705658D01*
X55389482Y5618697D01*
X55206738Y5559982D01*
X54986956Y5521166D01*
X54712000Y5493897D01*
X54504167Y5479016D01*
X54238656Y5462849D01*
X53964582Y5448908D01*
X53694422Y5437523D01*
X53440651Y5429025D01*
X53215747Y5423741D01*
X53032185Y5422003D01*
X52902441Y5424140D01*
X52838993Y5430481D01*
X52835528Y5434923D01*
X52900449Y5472952D01*
X53028927Y5531942D01*
X53204366Y5605581D01*
X53410169Y5687559D01*
X53629740Y5771566D01*
X53846482Y5851289D01*
X54043798Y5920419D01*
X54205091Y5972646D01*
X54313765Y6001657D01*
X54334834Y6005019D01*
X54501926Y6016337D01*
X54713120Y6022515D01*
X54945059Y6023785D01*
X55174381Y6020374D01*
X55377729Y6012513D01*
X55531743Y6000432D01*
X55583667Y5992739D01*
X55716462Y5986432D01*
X55815105Y6017572D01*
X55863387Y6075605D01*
X55858372Y6096000D01*
X55753000Y6096000D01*
X55716772Y6064177D01*
X55647167Y6053667D01*
X55567610Y6068158D01*
X55541334Y6096000D01*
X55555380Y6108339D01*
X54465779Y6108339D01*
X54460026Y6093075D01*
X54407567Y6058785D01*
X54343899Y6059281D01*
X54313667Y6093502D01*
X54347131Y6152524D01*
X54416253Y6168699D01*
X54441358Y6159073D01*
X54465779Y6108339D01*
X55555380Y6108339D01*
X55577562Y6127823D01*
X55647167Y6138333D01*
X55726725Y6123842D01*
X55753000Y6096000D01*
X55858372Y6096000D01*
X55845098Y6149980D01*
X55838423Y6158590D01*
X55770680Y6206047D01*
X55666749Y6207907D01*
X55628354Y6201404D01*
X55498358Y6182799D01*
X55331690Y6167837D01*
X55147403Y6157062D01*
X54964549Y6151018D01*
X54802182Y6150247D01*
X54679353Y6155294D01*
X54615116Y6166703D01*
X54610000Y6172350D01*
X54643577Y6213552D01*
X54732618Y6284850D01*
X54859593Y6374979D01*
X55006970Y6472671D01*
X55157218Y6566662D01*
X55292806Y6645686D01*
X55396201Y6698475D01*
X55449873Y6713765D01*
X55451432Y6713069D01*
X55513682Y6710365D01*
X55622081Y6733673D01*
X55676105Y6750790D01*
X55864428Y6802814D01*
X55998752Y6810594D01*
X56070318Y6773627D01*
X56070500Y6773333D01*
X56130342Y6742768D01*
X56236440Y6731658D01*
X56352244Y6741819D01*
X56405705Y6756696D01*
X56461074Y6810159D01*
X56466515Y6864472D01*
X56345667Y6864472D01*
X56310922Y6813307D01*
X56237040Y6786500D01*
X56204909Y6788503D01*
X56173735Y6827389D01*
X55652092Y6827389D01*
X55647352Y6815966D01*
X55593762Y6782153D01*
X55518743Y6775100D01*
X55463793Y6795418D01*
X55456667Y6813168D01*
X55487543Y6870193D01*
X55501028Y6880420D01*
X55568061Y6892998D01*
X55630304Y6870084D01*
X55652092Y6827389D01*
X56173735Y6827389D01*
X56171855Y6829733D01*
X56171482Y6837892D01*
X56204087Y6875053D01*
X56270961Y6893334D01*
X56330535Y6886391D01*
X56345667Y6864472D01*
X56466515Y6864472D01*
X56468466Y6883945D01*
X56429287Y6940043D01*
X56398584Y6949251D01*
X56253553Y6949297D01*
X56131207Y6927253D01*
X56072617Y6897460D01*
X56001588Y6867360D01*
X55900086Y6859271D01*
X55810081Y6873466D01*
X55777124Y6895549D01*
X55796884Y6937259D01*
X55871177Y7010733D01*
X55982583Y7103113D01*
X56113680Y7201542D01*
X56247049Y7293162D01*
X56365267Y7365116D01*
X56450916Y7404547D01*
X56471903Y7408333D01*
X56579478Y7430785D01*
X56640207Y7459371D01*
X56714454Y7486613D01*
X56785351Y7452117D01*
X56807273Y7433175D01*
X56904470Y7387485D01*
X57027445Y7380290D01*
X57142594Y7407920D01*
X57216311Y7466708D01*
X57221894Y7478442D01*
X57221261Y7493000D01*
X57107667Y7493000D01*
X57071439Y7461177D01*
X57001834Y7450667D01*
X56922276Y7465158D01*
X56896000Y7493000D01*
X56932229Y7524823D01*
X57001834Y7535333D01*
X57081391Y7520842D01*
X57107667Y7493000D01*
X57221261Y7493000D01*
X57219138Y7541806D01*
X56557334Y7541806D01*
X56522589Y7490641D01*
X56448706Y7463833D01*
X56416575Y7465836D01*
X56383522Y7507067D01*
X56383149Y7515225D01*
X56415754Y7552386D01*
X56482628Y7570667D01*
X56542202Y7563724D01*
X56557334Y7541806D01*
X57219138Y7541806D01*
X57218651Y7552984D01*
X57148666Y7596032D01*
X57024645Y7605357D01*
X56859294Y7578733D01*
X56779584Y7555977D01*
X56702610Y7547630D01*
X56684334Y7572197D01*
X56720871Y7617906D01*
X56816424Y7681118D01*
X56949907Y7751916D01*
X57100233Y7820382D01*
X57246315Y7876598D01*
X57367066Y7910646D01*
X57416019Y7916333D01*
X57540096Y7933836D01*
X57637728Y7975253D01*
X57691693Y8029629D01*
X57687772Y8043333D01*
X57573334Y8043333D01*
X57537106Y8011511D01*
X57467500Y8001000D01*
X57387943Y8015491D01*
X57361667Y8043333D01*
X57397895Y8075156D01*
X57467500Y8085667D01*
X57547058Y8071176D01*
X57573334Y8043333D01*
X57687772Y8043333D01*
X57676156Y8083922D01*
X57661802Y8102253D01*
X57576768Y8154038D01*
X57462978Y8165659D01*
X57349048Y8142441D01*
X57263592Y8089710D01*
X57234667Y8022749D01*
X57199239Y7973082D01*
X57106967Y7902087D01*
X56978867Y7821697D01*
X56835955Y7743842D01*
X56699247Y7680455D01*
X56589760Y7643466D01*
X56558253Y7638732D01*
X56400015Y7628549D01*
X56306468Y7614808D01*
X56257651Y7592214D01*
X56233609Y7555469D01*
X56232337Y7552228D01*
X56236344Y7477633D01*
X56259995Y7451288D01*
X56259528Y7411659D01*
X56200906Y7342236D01*
X56099966Y7254390D01*
X55972541Y7159487D01*
X55834466Y7068898D01*
X55701575Y6993989D01*
X55589701Y6946131D01*
X55541334Y6935307D01*
X55414264Y6900197D01*
X55353017Y6830055D01*
X55293148Y6755673D01*
X55177063Y6656065D01*
X55024248Y6543921D01*
X54854190Y6431926D01*
X54686379Y6332768D01*
X54540300Y6259134D01*
X54435441Y6223710D01*
X54419500Y6222302D01*
X54276748Y6202281D01*
X54197486Y6139559D01*
X54181387Y6103449D01*
X54136900Y6064392D01*
X54031191Y6003626D01*
X53881772Y5930577D01*
X53762289Y5877915D01*
X53474223Y5756975D01*
X53257582Y5667932D01*
X53106337Y5608496D01*
X53014457Y5576376D01*
X52975910Y5569280D01*
X52980167Y5580820D01*
X53041795Y5629613D01*
X53165569Y5718377D01*
X53342496Y5841168D01*
X53436181Y5905100D01*
X52902844Y5905100D01*
X52864313Y5851997D01*
X52749513Y5762173D01*
X52628032Y5680255D01*
X52473609Y5574632D01*
X52344621Y5476620D01*
X52259375Y5400615D01*
X52237753Y5373380D01*
X52190586Y5301336D01*
X52172986Y5305625D01*
X52191160Y5381200D01*
X52199621Y5404394D01*
X52220383Y5514800D01*
X52199152Y5560449D01*
X52184251Y5622564D01*
X52245627Y5694525D01*
X52376285Y5770862D01*
X52561092Y5843417D01*
X52751206Y5900875D01*
X52865133Y5921414D01*
X52902844Y5905100D01*
X53436181Y5905100D01*
X53563586Y5992042D01*
X53819849Y6165054D01*
X54102294Y6354261D01*
X54401930Y6553720D01*
X54709765Y6757485D01*
X55016810Y6959613D01*
X55314074Y7154161D01*
X55592565Y7335183D01*
X55843293Y7496737D01*
X56057268Y7632878D01*
X56225497Y7737662D01*
X56338991Y7805145D01*
X56369769Y7821739D01*
X56586004Y7927015D01*
X56839250Y8045545D01*
X57114675Y8170865D01*
X57397446Y8296509D01*
X57672731Y8416010D01*
X57925697Y8522904D01*
X58141511Y8610724D01*
X58305340Y8673005D01*
X58377289Y8696835D01*
X58609743Y8764498D01*
X58962721Y8764498D01*
X58987825Y8797718D01*
X59020031Y8857257D01*
X59023155Y8868726D01*
X59025165Y8978858D01*
X58970794Y9038377D01*
X58848756Y9058413D01*
X58830524Y9058685D01*
X58683107Y9047719D01*
X58504728Y9011561D01*
X58287724Y8947527D01*
X58024432Y8852933D01*
X57707189Y8725095D01*
X57328331Y8561329D01*
X57036820Y8430447D01*
X56742246Y8296310D01*
X56497644Y8183135D01*
X56289720Y8083311D01*
X56105177Y7989228D01*
X55930720Y7893278D01*
X55753054Y7787849D01*
X55558882Y7665334D01*
X55334910Y7518121D01*
X55067842Y7338601D01*
X54744383Y7119165D01*
X54737000Y7114149D01*
X54439546Y6911869D01*
X54152847Y6716560D01*
X53887401Y6535400D01*
X53653705Y6375564D01*
X53462256Y6244230D01*
X53323552Y6148575D01*
X53266617Y6108906D01*
X53146453Y6029952D01*
X53061724Y5985059D01*
X53026762Y5981448D01*
X53027729Y5988527D01*
X53041099Y6028627D01*
X53030841Y6047348D01*
X52980319Y6045855D01*
X52872898Y6025316D01*
X52781168Y6005819D01*
X52582243Y5952471D01*
X52390443Y5882138D01*
X52226791Y5804305D01*
X52112311Y5728459D01*
X52075816Y5687582D01*
X52038323Y5634140D01*
X52025694Y5630333D01*
X52018986Y5681670D01*
X52007337Y5786662D01*
X52001543Y5842000D01*
X51959207Y6083467D01*
X51878001Y6321051D01*
X51749407Y6574933D01*
X51577180Y6847251D01*
X51469206Y7012118D01*
X51381884Y7156135D01*
X51325034Y7262394D01*
X51308000Y7310722D01*
X51334059Y7402341D01*
X51397985Y7520568D01*
X51478405Y7631525D01*
X51553944Y7701333D01*
X51554708Y7701768D01*
X51599918Y7747749D01*
X51578266Y7789482D01*
X51522755Y7794829D01*
X51446491Y7741495D01*
X51363752Y7647880D01*
X51288815Y7532383D01*
X51235957Y7413403D01*
X51219116Y7326630D01*
X51211550Y7311296D01*
X51193504Y7369443D01*
X51167316Y7490861D01*
X51135323Y7665339D01*
X51118062Y7768167D01*
X51072757Y8042019D01*
X51036100Y8249465D01*
X51003652Y8407748D01*
X50970974Y8534113D01*
X50933628Y8645801D01*
X50887173Y8760057D01*
X50829518Y8888972D01*
X50769207Y9027942D01*
X50688122Y9224058D01*
X50595224Y9455193D01*
X50499471Y9699220D01*
X50460231Y9801087D01*
X50373717Y10023408D01*
X50298205Y10204285D01*
X50223792Y10361513D01*
X50140580Y10512887D01*
X50038667Y10676202D01*
X49908154Y10869255D01*
X49739140Y11109839D01*
X49706571Y11155753D01*
X49529500Y11403372D01*
X49390291Y11592234D01*
X49279106Y11733534D01*
X49186109Y11838468D01*
X49101463Y11918231D01*
X49015331Y11984019D01*
X48930063Y12039509D01*
X48663770Y12204517D01*
X48432287Y12145342D01*
X48432287Y12145342D01*
G37*
X48432287Y12145342D02*
X48297175Y12104860D01*
X48207803Y12053778D01*
X48134000Y11968770D01*
X48067474Y11863312D01*
X48010535Y11762815D01*
X47971340Y11672410D01*
X47945434Y11571265D01*
X47928359Y11438549D01*
X47915658Y11253433D01*
X47908958Y11122478D01*
X47889881Y10828073D01*
X47860482Y10564419D01*
X47816280Y10310079D01*
X47752794Y10043613D01*
X47665541Y9743583D01*
X47550041Y9388551D01*
X47540725Y9360914D01*
X47430448Y9009915D01*
X47359647Y8721781D01*
X47327079Y8485147D01*
X47331500Y8288646D01*
X47371665Y8120912D01*
X47398125Y8057925D01*
X47451878Y7965393D01*
X47527707Y7878410D01*
X47637382Y7788042D01*
X47792669Y7685361D01*
X48005339Y7561434D01*
X48176993Y7466848D01*
X48412916Y7335729D01*
X48643111Y7201073D01*
X48879997Y7054852D01*
X49135993Y6889040D01*
X49423517Y6695607D01*
X49754988Y6466528D01*
X50103759Y6221400D01*
X50380566Y6028005D01*
X50601978Y5879133D01*
X50779765Y5767755D01*
X50925694Y5686839D01*
X51051534Y5629357D01*
X51157952Y5591660D01*
X51300928Y5549329D01*
X51407562Y5521216D01*
X51456796Y5512824D01*
X51457773Y5513304D01*
X51454665Y5556592D01*
X51440084Y5670308D01*
X51415898Y5841269D01*
X51406119Y5907133D01*
X51135234Y5907133D01*
X51123720Y5898464D01*
X51085744Y5947833D01*
X51050693Y6007056D01*
X50982678Y6130747D01*
X50887465Y6308086D01*
X50770823Y6528254D01*
X50638519Y6780432D01*
X50499984Y7046724D01*
X50359401Y7320311D01*
X50231426Y7573655D01*
X50121440Y7795762D01*
X50034821Y7975635D01*
X49976949Y8102279D01*
X49953334Y8164031D01*
X49925872Y8219207D01*
X49817118Y8219207D01*
X49804614Y8177147D01*
X49760634Y8176874D01*
X49686390Y8217475D01*
X49666216Y8248460D01*
X49678720Y8290520D01*
X49722700Y8290793D01*
X49796944Y8250192D01*
X49817118Y8219207D01*
X49925872Y8219207D01*
X49903791Y8263569D01*
X49847500Y8313973D01*
X49779210Y8357709D01*
X49733866Y8411234D01*
X49700828Y8496354D01*
X49669461Y8634871D01*
X49655482Y8707549D01*
X49629967Y8869462D01*
X49628543Y8970485D01*
X49651178Y9030884D01*
X49654967Y9035717D01*
X49678841Y9094441D01*
X49663906Y9119474D01*
X49567408Y9119474D01*
X49549390Y9104786D01*
X49500749Y9103013D01*
X49416280Y9117968D01*
X49383642Y9141075D01*
X49377936Y9190395D01*
X49424856Y9203473D01*
X49498400Y9175476D01*
X49513181Y9165157D01*
X49567408Y9119474D01*
X49663906Y9119474D01*
X49638899Y9161387D01*
X49620952Y9180049D01*
X49582409Y9243510D01*
X48541268Y9243510D01*
X48497389Y9229015D01*
X48476851Y9228667D01*
X48403858Y9253945D01*
X48387000Y9292167D01*
X48407105Y9348542D01*
X48424150Y9355667D01*
X48479321Y9326704D01*
X48514000Y9292167D01*
X48541268Y9243510D01*
X49582409Y9243510D01*
X49567681Y9267759D01*
X49522969Y9400686D01*
X49491787Y9551206D01*
X49479105Y9691698D01*
X49489893Y9794538D01*
X49505286Y9822847D01*
X49517270Y9874187D01*
X49513916Y9878510D01*
X49387934Y9878510D01*
X49344056Y9864015D01*
X49323517Y9863667D01*
X49250525Y9888945D01*
X49233667Y9927167D01*
X49253771Y9983542D01*
X49270817Y9990667D01*
X49325988Y9961704D01*
X49360667Y9927167D01*
X49387934Y9878510D01*
X49513916Y9878510D01*
X49460882Y9946863D01*
X49435311Y9969933D01*
X49363119Y10060770D01*
X49279780Y10207105D01*
X49196802Y10382859D01*
X49125693Y10561949D01*
X49077960Y10718295D01*
X49064334Y10810708D01*
X49025846Y10928541D01*
X48885785Y10928541D01*
X48873281Y10886480D01*
X48829301Y10886207D01*
X48755057Y10926808D01*
X48734883Y10957793D01*
X48747387Y10999853D01*
X48791367Y11000126D01*
X48865611Y10959525D01*
X48885785Y10928541D01*
X49025846Y10928541D01*
X49024948Y10931289D01*
X48916417Y11025133D01*
X48776458Y11074825D01*
X48673577Y11082768D01*
X48622719Y11047545D01*
X48615750Y11032456D01*
X48619514Y10938186D01*
X48701895Y10854923D01*
X48852109Y10790166D01*
X48932460Y10760867D01*
X48990534Y10718265D01*
X49040187Y10643921D01*
X49095272Y10519396D01*
X49137870Y10409848D01*
X49264898Y10077087D01*
X49124436Y10050736D01*
X49011024Y10046846D01*
X48999981Y10049896D01*
X48718855Y10049896D01*
X48692324Y10033990D01*
X48652570Y10033000D01*
X48568672Y10049315D01*
X48536975Y10072408D01*
X48532795Y10122958D01*
X48579333Y10142217D01*
X48646396Y10123831D01*
X48675301Y10101509D01*
X48718855Y10049896D01*
X48999981Y10049896D01*
X48881030Y10082748D01*
X48749237Y10143243D01*
X48610619Y10207976D01*
X48524679Y10231689D01*
X48472621Y10218746D01*
X48462286Y10209885D01*
X48436199Y10139016D01*
X48473016Y10064200D01*
X48552964Y9999742D01*
X48656270Y9959944D01*
X48763162Y9959109D01*
X48794797Y9969364D01*
X48916380Y9994363D01*
X49035782Y9978357D01*
X49116439Y9926974D01*
X49121574Y9919059D01*
X49183061Y9861030D01*
X49286106Y9802329D01*
X49301490Y9795632D01*
X49400265Y9741549D01*
X49440141Y9671228D01*
X49445912Y9598515D01*
X49453529Y9472655D01*
X49469644Y9375322D01*
X49474711Y9327275D01*
X49450861Y9294934D01*
X49385372Y9275316D01*
X49265526Y9265439D01*
X49078601Y9262320D01*
X48987491Y9262286D01*
X48787827Y9270815D01*
X48660068Y9296783D01*
X48606491Y9327138D01*
X48497212Y9397693D01*
X48387218Y9426205D01*
X48302508Y9408948D01*
X48274502Y9374730D01*
X48280380Y9291411D01*
X48345855Y9217585D01*
X48445896Y9165203D01*
X48555468Y9146213D01*
X48649540Y9172565D01*
X48667300Y9187233D01*
X48732998Y9205767D01*
X48853731Y9205172D01*
X49003023Y9189212D01*
X49154396Y9161654D01*
X49281374Y9126262D01*
X49354496Y9089503D01*
X49444599Y9028272D01*
X49492813Y9005683D01*
X49545684Y8944095D01*
X49593541Y8798869D01*
X49614423Y8700797D01*
X49640807Y8549375D01*
X49647467Y8458029D01*
X49632652Y8404097D01*
X49594613Y8364917D01*
X49588110Y8359907D01*
X49507849Y8318866D01*
X49461971Y8316041D01*
X49401127Y8326388D01*
X49277586Y8340379D01*
X49113108Y8355679D01*
X49026685Y8362749D01*
X48798767Y8387234D01*
X48771570Y8393049D01*
X48463499Y8393049D01*
X48428228Y8383668D01*
X48388291Y8388518D01*
X48303624Y8419664D01*
X48270372Y8456083D01*
X48280273Y8500648D01*
X48334112Y8504480D01*
X48403091Y8470180D01*
X48432708Y8441434D01*
X48463499Y8393049D01*
X48771570Y8393049D01*
X48642842Y8420572D01*
X48546460Y8465505D01*
X48541041Y8469610D01*
X48425990Y8538404D01*
X48331137Y8574366D01*
X48229908Y8574158D01*
X48182848Y8524190D01*
X48197275Y8445222D01*
X48260263Y8373275D01*
X48341748Y8324565D01*
X48442097Y8309218D01*
X48574239Y8318974D01*
X48739082Y8327689D01*
X48935649Y8321500D01*
X49141954Y8303123D01*
X49336012Y8275273D01*
X49495837Y8240666D01*
X49599444Y8202019D01*
X49616006Y8190288D01*
X49714947Y8127348D01*
X49804627Y8092518D01*
X49843817Y8074275D01*
X49887731Y8034686D01*
X49941413Y7965567D01*
X50009909Y7858733D01*
X50098264Y7705999D01*
X50211524Y7499179D01*
X50354734Y7230090D01*
X50461942Y7026173D01*
X50602886Y6755405D01*
X50728884Y6509717D01*
X50835089Y6298853D01*
X50916657Y6132558D01*
X50968744Y6020577D01*
X50986504Y5972655D01*
X50986194Y5971749D01*
X50946228Y5986839D01*
X50852565Y6042176D01*
X50720178Y6128477D01*
X50598012Y6212472D01*
X50190562Y6495534D01*
X49789720Y6768376D01*
X49406292Y7023936D01*
X49051086Y7255152D01*
X48734909Y7454960D01*
X48468566Y7616298D01*
X48320353Y7701025D01*
X48127772Y7812131D01*
X47951534Y7922581D01*
X47811329Y8019481D01*
X47727686Y8089061D01*
X47648363Y8201295D01*
X47606260Y8340339D01*
X47602006Y8515968D01*
X47636228Y8737959D01*
X47709555Y9016086D01*
X47806340Y9313333D01*
X47924065Y9668619D01*
X48012369Y9974873D01*
X48077149Y10260009D01*
X48124301Y10551944D01*
X48159723Y10878595D01*
X48174221Y11055015D01*
X48193413Y11287979D01*
X48212039Y11453761D01*
X48233854Y11569739D01*
X48262611Y11653286D01*
X48302064Y11721779D01*
X48325088Y11753345D01*
X48422218Y11849014D01*
X48529993Y11890341D01*
X48651910Y11874489D01*
X48791471Y11798621D01*
X48952173Y11659900D01*
X49137516Y11455491D01*
X49350999Y11182556D01*
X49596122Y10838259D01*
X49768437Y10583333D01*
X49875403Y10402903D01*
X49998963Y10157232D01*
X50141326Y9841573D01*
X50304701Y9451175D01*
X50368787Y9292167D01*
X50757878Y8318500D01*
X50927812Y7217833D01*
X50974614Y6915788D01*
X51018351Y6635586D01*
X51057019Y6389894D01*
X51088617Y6191380D01*
X51111141Y6052711D01*
X51121883Y5990167D01*
X51135234Y5907133D01*
X51406119Y5907133D01*
X51383971Y6056295D01*
X51346170Y6302203D01*
X51345374Y6307299D01*
X51307494Y6555955D01*
X51275770Y6776196D01*
X51252038Y6954234D01*
X51238138Y7076283D01*
X51235907Y7128552D01*
X51235911Y7128566D01*
X51262219Y7115868D01*
X51320396Y7044120D01*
X51401121Y6928246D01*
X51495075Y6783170D01*
X51592939Y6623814D01*
X51685393Y6465103D01*
X51763116Y6321959D01*
X51816789Y6209307D01*
X51827881Y6180667D01*
X51874427Y6026716D01*
X51909143Y5874956D01*
X51915293Y5836708D01*
X51923376Y5735367D01*
X51901002Y5692428D01*
X51834296Y5683264D01*
X51828832Y5683250D01*
X51724188Y5658026D01*
X51666092Y5575420D01*
X51647339Y5425032D01*
X51647315Y5421264D01*
X51639303Y5345612D01*
X51608094Y5274395D01*
X51541815Y5191311D01*
X51428594Y5080055D01*
X51339750Y4998909D01*
X51063489Y4744610D01*
X50834404Y4520087D01*
X50632479Y4303604D01*
X50437695Y4073429D01*
X50230032Y3807829D01*
X50172453Y3731609D01*
X50022123Y3529910D01*
X49916282Y3381678D01*
X49847592Y3273427D01*
X49808716Y3191674D01*
X49792315Y3122932D01*
X49791051Y3053717D01*
X49792360Y3033109D01*
X49807583Y2919438D01*
X49841593Y2865717D01*
X49910127Y2847284D01*
X49911000Y2847198D01*
X50025226Y2856976D01*
X50093474Y2882483D01*
X50144296Y2933815D01*
X50229069Y3041982D01*
X50336775Y3192081D01*
X50456397Y3369208D01*
X50479684Y3404874D01*
X50623665Y3620411D01*
X50745047Y3783589D01*
X50862719Y3915852D01*
X50995572Y4038646D01*
X51143877Y4158902D01*
X51376571Y4350781D01*
X51594636Y4549148D01*
X51785940Y4741491D01*
X51938355Y4915295D01*
X52039749Y5058047D01*
X52066087Y5110257D01*
X52106822Y5197523D01*
X52141122Y5216188D01*
X52189635Y5178080D01*
X52221749Y5154622D01*
X52271656Y5138207D01*
X52351152Y5128332D01*
X52472027Y5124493D01*
X52646076Y5126188D01*
X52885092Y5132914D01*
X53084701Y5139884D01*
X53406839Y5153188D01*
X53761884Y5170489D01*
X54117422Y5190041D01*
X54441041Y5210101D01*
X54613029Y5222146D01*
X54935014Y5249024D01*
X55191318Y5281624D01*
X55399726Y5328416D01*
X55578024Y5397868D01*
X55743998Y5498449D01*
X55915434Y5638627D01*
X56110117Y5826870D01*
X56303334Y6026976D01*
X56451603Y6180949D01*
X56648816Y6383237D01*
X56883811Y6622526D01*
X57145427Y6887504D01*
X57422501Y7166855D01*
X57703871Y7449265D01*
X57894607Y7639918D01*
X58205338Y7951478D01*
X58458955Y8209391D01*
X58659734Y8418313D01*
X58811954Y8582904D01*
X58919892Y8707820D01*
X58962721Y8764498D01*
X58609743Y8764498D01*
X57572955Y7713777D01*
X57306983Y7443790D01*
X57039798Y7171765D01*
X56782377Y6908935D01*
X56545699Y6666537D01*
X56340742Y6455805D01*
X56178484Y6287974D01*
X56112834Y6219505D01*
X55896866Y5997713D01*
X55716409Y5829213D01*
X55553327Y5705658D01*
X55389482Y5618697D01*
X55206738Y5559982D01*
X54986956Y5521166D01*
X54712000Y5493897D01*
X54504167Y5479016D01*
X54238656Y5462849D01*
X53964582Y5448908D01*
X53694422Y5437523D01*
X53440651Y5429025D01*
X53215747Y5423741D01*
X53032185Y5422003D01*
X52902441Y5424140D01*
X52838993Y5430481D01*
X52835528Y5434923D01*
X52900449Y5472952D01*
X53028927Y5531942D01*
X53204366Y5605581D01*
X53410169Y5687559D01*
X53629740Y5771566D01*
X53846482Y5851289D01*
X54043798Y5920419D01*
X54205091Y5972646D01*
X54313765Y6001657D01*
X54334834Y6005019D01*
X54501926Y6016337D01*
X54713120Y6022515D01*
X54945059Y6023785D01*
X55174381Y6020374D01*
X55377729Y6012513D01*
X55531743Y6000432D01*
X55583667Y5992739D01*
X55716462Y5986432D01*
X55815105Y6017572D01*
X55863387Y6075605D01*
X55858372Y6096000D01*
X55753000Y6096000D01*
X55716772Y6064177D01*
X55647167Y6053667D01*
X55567610Y6068158D01*
X55541334Y6096000D01*
X55555380Y6108339D01*
X54465779Y6108339D01*
X54460026Y6093075D01*
X54407567Y6058785D01*
X54343899Y6059281D01*
X54313667Y6093502D01*
X54347131Y6152524D01*
X54416253Y6168699D01*
X54441358Y6159073D01*
X54465779Y6108339D01*
X55555380Y6108339D01*
X55577562Y6127823D01*
X55647167Y6138333D01*
X55726725Y6123842D01*
X55753000Y6096000D01*
X55858372Y6096000D01*
X55845098Y6149980D01*
X55838423Y6158590D01*
X55770680Y6206047D01*
X55666749Y6207907D01*
X55628354Y6201404D01*
X55498358Y6182799D01*
X55331690Y6167837D01*
X55147403Y6157062D01*
X54964549Y6151018D01*
X54802182Y6150247D01*
X54679353Y6155294D01*
X54615116Y6166703D01*
X54610000Y6172350D01*
X54643577Y6213552D01*
X54732618Y6284850D01*
X54859593Y6374979D01*
X55006970Y6472671D01*
X55157218Y6566662D01*
X55292806Y6645686D01*
X55396201Y6698475D01*
X55449873Y6713765D01*
X55451432Y6713069D01*
X55513682Y6710365D01*
X55622081Y6733673D01*
X55676105Y6750790D01*
X55864428Y6802814D01*
X55998752Y6810594D01*
X56070318Y6773627D01*
X56070500Y6773333D01*
X56130342Y6742768D01*
X56236440Y6731658D01*
X56352244Y6741819D01*
X56405705Y6756696D01*
X56461074Y6810159D01*
X56466515Y6864472D01*
X56345667Y6864472D01*
X56310922Y6813307D01*
X56237040Y6786500D01*
X56204909Y6788503D01*
X56173735Y6827389D01*
X55652092Y6827389D01*
X55647352Y6815966D01*
X55593762Y6782153D01*
X55518743Y6775100D01*
X55463793Y6795418D01*
X55456667Y6813168D01*
X55487543Y6870193D01*
X55501028Y6880420D01*
X55568061Y6892998D01*
X55630304Y6870084D01*
X55652092Y6827389D01*
X56173735Y6827389D01*
X56171855Y6829733D01*
X56171482Y6837892D01*
X56204087Y6875053D01*
X56270961Y6893334D01*
X56330535Y6886391D01*
X56345667Y6864472D01*
X56466515Y6864472D01*
X56468466Y6883945D01*
X56429287Y6940043D01*
X56398584Y6949251D01*
X56253553Y6949297D01*
X56131207Y6927253D01*
X56072617Y6897460D01*
X56001588Y6867360D01*
X55900086Y6859271D01*
X55810081Y6873466D01*
X55777124Y6895549D01*
X55796884Y6937259D01*
X55871177Y7010733D01*
X55982583Y7103113D01*
X56113680Y7201542D01*
X56247049Y7293162D01*
X56365267Y7365116D01*
X56450916Y7404547D01*
X56471903Y7408333D01*
X56579478Y7430785D01*
X56640207Y7459371D01*
X56714454Y7486613D01*
X56785351Y7452117D01*
X56807273Y7433175D01*
X56904470Y7387485D01*
X57027445Y7380290D01*
X57142594Y7407920D01*
X57216311Y7466708D01*
X57221894Y7478442D01*
X57221261Y7493000D01*
X57107667Y7493000D01*
X57071439Y7461177D01*
X57001834Y7450667D01*
X56922276Y7465158D01*
X56896000Y7493000D01*
X56932229Y7524823D01*
X57001834Y7535333D01*
X57081391Y7520842D01*
X57107667Y7493000D01*
X57221261Y7493000D01*
X57219138Y7541806D01*
X56557334Y7541806D01*
X56522589Y7490641D01*
X56448706Y7463833D01*
X56416575Y7465836D01*
X56383522Y7507067D01*
X56383149Y7515225D01*
X56415754Y7552386D01*
X56482628Y7570667D01*
X56542202Y7563724D01*
X56557334Y7541806D01*
X57219138Y7541806D01*
X57218651Y7552984D01*
X57148666Y7596032D01*
X57024645Y7605357D01*
X56859294Y7578733D01*
X56779584Y7555977D01*
X56702610Y7547630D01*
X56684334Y7572197D01*
X56720871Y7617906D01*
X56816424Y7681118D01*
X56949907Y7751916D01*
X57100233Y7820382D01*
X57246315Y7876598D01*
X57367066Y7910646D01*
X57416019Y7916333D01*
X57540096Y7933836D01*
X57637728Y7975253D01*
X57691693Y8029629D01*
X57687772Y8043333D01*
X57573334Y8043333D01*
X57537106Y8011511D01*
X57467500Y8001000D01*
X57387943Y8015491D01*
X57361667Y8043333D01*
X57397895Y8075156D01*
X57467500Y8085667D01*
X57547058Y8071176D01*
X57573334Y8043333D01*
X57687772Y8043333D01*
X57676156Y8083922D01*
X57661802Y8102253D01*
X57576768Y8154038D01*
X57462978Y8165659D01*
X57349048Y8142441D01*
X57263592Y8089710D01*
X57234667Y8022749D01*
X57199239Y7973082D01*
X57106967Y7902087D01*
X56978867Y7821697D01*
X56835955Y7743842D01*
X56699247Y7680455D01*
X56589760Y7643466D01*
X56558253Y7638732D01*
X56400015Y7628549D01*
X56306468Y7614808D01*
X56257651Y7592214D01*
X56233609Y7555469D01*
X56232337Y7552228D01*
X56236344Y7477633D01*
X56259995Y7451288D01*
X56259528Y7411659D01*
X56200906Y7342236D01*
X56099966Y7254390D01*
X55972541Y7159487D01*
X55834466Y7068898D01*
X55701575Y6993989D01*
X55589701Y6946131D01*
X55541334Y6935307D01*
X55414264Y6900197D01*
X55353017Y6830055D01*
X55293148Y6755673D01*
X55177063Y6656065D01*
X55024248Y6543921D01*
X54854190Y6431926D01*
X54686379Y6332768D01*
X54540300Y6259134D01*
X54435441Y6223710D01*
X54419500Y6222302D01*
X54276748Y6202281D01*
X54197486Y6139559D01*
X54181387Y6103449D01*
X54136900Y6064392D01*
X54031191Y6003626D01*
X53881772Y5930577D01*
X53762289Y5877915D01*
X53474223Y5756975D01*
X53257582Y5667932D01*
X53106337Y5608496D01*
X53014457Y5576376D01*
X52975910Y5569280D01*
X52980167Y5580820D01*
X53041795Y5629613D01*
X53165569Y5718377D01*
X53342496Y5841168D01*
X53436181Y5905100D01*
X52902844Y5905100D01*
X52864313Y5851997D01*
X52749513Y5762173D01*
X52628032Y5680255D01*
X52473609Y5574632D01*
X52344621Y5476620D01*
X52259375Y5400615D01*
X52237753Y5373380D01*
X52190586Y5301336D01*
X52172986Y5305625D01*
X52191160Y5381200D01*
X52199621Y5404394D01*
X52220383Y5514800D01*
X52199152Y5560449D01*
X52184251Y5622564D01*
X52245627Y5694525D01*
X52376285Y5770862D01*
X52561092Y5843417D01*
X52751206Y5900875D01*
X52865133Y5921414D01*
X52902844Y5905100D01*
X53436181Y5905100D01*
X53563586Y5992042D01*
X53819849Y6165054D01*
X54102294Y6354261D01*
X54401930Y6553720D01*
X54709765Y6757485D01*
X55016810Y6959613D01*
X55314074Y7154161D01*
X55592565Y7335183D01*
X55843293Y7496737D01*
X56057268Y7632878D01*
X56225497Y7737662D01*
X56338991Y7805145D01*
X56369769Y7821739D01*
X56586004Y7927015D01*
X56839250Y8045545D01*
X57114675Y8170865D01*
X57397446Y8296509D01*
X57672731Y8416010D01*
X57925697Y8522904D01*
X58141511Y8610724D01*
X58305340Y8673005D01*
X58377289Y8696835D01*
X58609743Y8764498D01*
X58962721Y8764498D01*
X58987825Y8797718D01*
X59020031Y8857257D01*
X59023155Y8868726D01*
X59025165Y8978858D01*
X58970794Y9038377D01*
X58848756Y9058413D01*
X58830524Y9058685D01*
X58683107Y9047719D01*
X58504728Y9011561D01*
X58287724Y8947527D01*
X58024432Y8852933D01*
X57707189Y8725095D01*
X57328331Y8561329D01*
X57036820Y8430447D01*
X56742246Y8296310D01*
X56497644Y8183135D01*
X56289720Y8083311D01*
X56105177Y7989228D01*
X55930720Y7893278D01*
X55753054Y7787849D01*
X55558882Y7665334D01*
X55334910Y7518121D01*
X55067842Y7338601D01*
X54744383Y7119165D01*
X54737000Y7114149D01*
X54439546Y6911869D01*
X54152847Y6716560D01*
X53887401Y6535400D01*
X53653705Y6375564D01*
X53462256Y6244230D01*
X53323552Y6148575D01*
X53266617Y6108906D01*
X53146453Y6029952D01*
X53061724Y5985059D01*
X53026762Y5981448D01*
X53027729Y5988527D01*
X53041099Y6028627D01*
X53030841Y6047348D01*
X52980319Y6045855D01*
X52872898Y6025316D01*
X52781168Y6005819D01*
X52582243Y5952471D01*
X52390443Y5882138D01*
X52226791Y5804305D01*
X52112311Y5728459D01*
X52075816Y5687582D01*
X52038323Y5634140D01*
X52025694Y5630333D01*
X52018986Y5681670D01*
X52007337Y5786662D01*
X52001543Y5842000D01*
X51959207Y6083467D01*
X51878001Y6321051D01*
X51749407Y6574933D01*
X51577180Y6847251D01*
X51469206Y7012118D01*
X51381884Y7156135D01*
X51325034Y7262394D01*
X51308000Y7310722D01*
X51334059Y7402341D01*
X51397985Y7520568D01*
X51478405Y7631525D01*
X51553944Y7701333D01*
X51554708Y7701768D01*
X51599918Y7747749D01*
X51578266Y7789482D01*
X51522755Y7794829D01*
X51446491Y7741495D01*
X51363752Y7647880D01*
X51288815Y7532383D01*
X51235957Y7413403D01*
X51219116Y7326630D01*
X51211550Y7311296D01*
X51193504Y7369443D01*
X51167316Y7490861D01*
X51135323Y7665339D01*
X51118062Y7768167D01*
X51072757Y8042019D01*
X51036100Y8249465D01*
X51003652Y8407748D01*
X50970974Y8534113D01*
X50933628Y8645801D01*
X50887173Y8760057D01*
X50829518Y8888972D01*
X50769207Y9027942D01*
X50688122Y9224058D01*
X50595224Y9455193D01*
X50499471Y9699220D01*
X50460231Y9801087D01*
X50373717Y10023408D01*
X50298205Y10204285D01*
X50223792Y10361513D01*
X50140580Y10512887D01*
X50038667Y10676202D01*
X49908154Y10869255D01*
X49739140Y11109839D01*
X49706571Y11155753D01*
X49529500Y11403372D01*
X49390291Y11592234D01*
X49279106Y11733534D01*
X49186109Y11838468D01*
X49101463Y11918231D01*
X49015331Y11984019D01*
X48930063Y12039509D01*
X48663770Y12204517D01*
X48432287Y12145342D01*
G36*
X47124352Y7729633D02*
X47122894Y7728881D01*
X46975330Y7626136D01*
X46810157Y7469368D01*
X46646933Y7280630D01*
X46505214Y7081973D01*
X46427022Y6944266D01*
X46373154Y6830895D01*
X46335453Y6733664D01*
X46310550Y6632950D01*
X46295077Y6509130D01*
X46285666Y6342582D01*
X46278948Y6113683D01*
X46278051Y6076433D01*
X46273996Y5824232D01*
X46277392Y5623187D01*
X46291052Y5444267D01*
X46317790Y5258441D01*
X46360418Y5036679D01*
X46394345Y4876378D01*
X46453280Y4609349D01*
X46503345Y4407911D01*
X46551882Y4254553D01*
X46606230Y4131763D01*
X46673732Y4022033D01*
X46761725Y3907851D01*
X46838390Y3817127D01*
X46934628Y3700659D01*
X47004030Y3608145D01*
X47032260Y3558758D01*
X47032334Y3557741D01*
X47070495Y3533233D01*
X47172608Y3496083D01*
X47320119Y3452656D01*
X47397869Y3432384D01*
X47583803Y3382936D01*
X47756234Y3332204D01*
X47885209Y3289142D01*
X47911039Y3279019D01*
X48061355Y3233620D01*
X48222088Y3225098D01*
X48411918Y3255273D01*
X48649523Y3325961D01*
X48746834Y3360394D01*
X48951058Y3437597D01*
X49196416Y3534512D01*
X49446598Y3636636D01*
X49597667Y3700249D01*
X49807379Y3793003D01*
X49967573Y3874600D01*
X50103735Y3961906D01*
X50241351Y4071788D01*
X50405906Y4221112D01*
X50456150Y4268385D01*
X50844800Y4635500D01*
X50812039Y4778036D01*
X50529030Y4778036D01*
X50507962Y4714807D01*
X50430579Y4617156D01*
X50311121Y4497460D01*
X50163828Y4368102D01*
X50002937Y4241461D01*
X49842689Y4129917D01*
X49697324Y4045852D01*
X49674095Y4034713D01*
X49444239Y3932814D01*
X49197527Y3830370D01*
X48948286Y3732585D01*
X48710843Y3644664D01*
X48499524Y3571811D01*
X48328654Y3519230D01*
X48212561Y3492127D01*
X48175334Y3490230D01*
X48054783Y3518919D01*
X47947213Y3554104D01*
X47867428Y3589953D01*
X47840718Y3613337D01*
X47841379Y3614048D01*
X47881902Y3636683D01*
X47986855Y3693077D01*
X48145706Y3777634D01*
X48347920Y3884757D01*
X48582965Y4008850D01*
X48751080Y4097391D01*
X49075424Y4265628D01*
X49331001Y4392639D01*
X49521923Y4480290D01*
X49652304Y4530447D01*
X49726257Y4544976D01*
X49734815Y4543725D01*
X49821112Y4548118D01*
X49859241Y4602004D01*
X49855953Y4618242D01*
X49548751Y4618242D01*
X49520233Y4588599D01*
X49428270Y4527679D01*
X49285151Y4442056D01*
X49103166Y4338305D01*
X48894603Y4223002D01*
X48671752Y4102722D01*
X48446901Y3984038D01*
X48232341Y3873528D01*
X48040359Y3777764D01*
X47883245Y3703323D01*
X47773289Y3656780D01*
X47727934Y3644061D01*
X47636945Y3653882D01*
X47504359Y3682671D01*
X47431432Y3702714D01*
X47283536Y3761559D01*
X47165965Y3851292D01*
X47066801Y3966656D01*
X46986492Y4074820D01*
X46934634Y4152524D01*
X46922693Y4180137D01*
X46965296Y4194539D01*
X47076064Y4227170D01*
X47241430Y4274165D01*
X47447827Y4331656D01*
X47628890Y4381386D01*
X47862611Y4446277D01*
X48070304Y4505958D01*
X48237056Y4555986D01*
X48347957Y4591917D01*
X48385312Y4606824D01*
X48470893Y4619062D01*
X48566129Y4597678D01*
X48683687Y4574740D01*
X48768326Y4604713D01*
X48845981Y4628623D01*
X48975233Y4645381D01*
X49131883Y4654567D01*
X49291728Y4655763D01*
X49430567Y4648548D01*
X49524200Y4632502D01*
X49548751Y4618242D01*
X49855953Y4618242D01*
X49843884Y4677833D01*
X49741667Y4677833D01*
X49733714Y4624295D01*
X49691822Y4621531D01*
X49639296Y4640029D01*
X49596805Y4671510D01*
X48668268Y4671510D01*
X48624389Y4657015D01*
X48603851Y4656667D01*
X48542732Y4677833D01*
X48391414Y4677833D01*
X48349299Y4656370D01*
X48241327Y4617331D01*
X48083324Y4565428D01*
X47891112Y4505376D01*
X47680516Y4441885D01*
X47467361Y4379670D01*
X47267470Y4323442D01*
X47096667Y4277914D01*
X46970776Y4247800D01*
X46915010Y4238133D01*
X46859140Y4268782D01*
X46820750Y4328583D01*
X46795499Y4403791D01*
X46758378Y4532306D01*
X46715542Y4690472D01*
X46673143Y4854634D01*
X46637334Y5001139D01*
X46614269Y5106329D01*
X46609000Y5142611D01*
X46647875Y5155676D01*
X46751539Y5161140D01*
X46900551Y5159996D01*
X47075472Y5153236D01*
X47256861Y5141854D01*
X47425278Y5126843D01*
X47561282Y5109197D01*
X47645434Y5089908D01*
X47646167Y5089625D01*
X47773848Y5046330D01*
X47879000Y5018901D01*
X47972981Y4984966D01*
X48091541Y4922477D01*
X48213338Y4845638D01*
X48317032Y4768655D01*
X48381279Y4705733D01*
X48391414Y4677833D01*
X48542732Y4677833D01*
X48530858Y4681945D01*
X48514000Y4720167D01*
X48534105Y4776542D01*
X48551150Y4783667D01*
X48606321Y4754704D01*
X48641000Y4720167D01*
X48668268Y4671510D01*
X49596805Y4671510D01*
X49577751Y4685626D01*
X49592784Y4727587D01*
X49657000Y4741333D01*
X49725953Y4714864D01*
X49741667Y4677833D01*
X49843884Y4677833D01*
X49843155Y4681430D01*
X49786370Y4747927D01*
X49676235Y4807511D01*
X49565339Y4823111D01*
X49482301Y4793448D01*
X49460643Y4762500D01*
X49405885Y4725128D01*
X49292335Y4702377D01*
X49144558Y4694032D01*
X48987118Y4699880D01*
X48844582Y4719705D01*
X48741512Y4753296D01*
X48718521Y4768967D01*
X48627892Y4815211D01*
X48498282Y4843541D01*
X48461188Y4846397D01*
X48303076Y4877619D01*
X48132981Y4949042D01*
X47978669Y5045068D01*
X47867910Y5150097D01*
X47854904Y5171207D01*
X47742785Y5171207D01*
X47730281Y5129147D01*
X47686301Y5128874D01*
X47612057Y5169475D01*
X47591883Y5200460D01*
X47604387Y5242520D01*
X47648367Y5242793D01*
X47722611Y5202192D01*
X47742785Y5171207D01*
X47854904Y5171207D01*
X47840051Y5195312D01*
X47760577Y5281754D01*
X47692503Y5309748D01*
X47485289Y5309748D01*
X47441254Y5248789D01*
X47341520Y5218259D01*
X47174670Y5207865D01*
X47055831Y5207000D01*
X46854676Y5210490D01*
X46722259Y5222491D01*
X46642882Y5245306D01*
X46607137Y5272745D01*
X46587340Y5331537D01*
X46567360Y5448148D01*
X46548793Y5602237D01*
X46533238Y5773465D01*
X46522290Y5941492D01*
X46517546Y6085977D01*
X46520603Y6186581D01*
X46532537Y6223000D01*
X46579028Y6210317D01*
X46684535Y6176750D01*
X46828038Y6129027D01*
X46858262Y6118778D01*
X47104784Y6013741D01*
X47279603Y5885881D01*
X47394910Y5723812D01*
X47451932Y5564129D01*
X47485043Y5411430D01*
X47485289Y5309748D01*
X47692503Y5309748D01*
X47671665Y5318317D01*
X47581117Y5353378D01*
X47534751Y5429556D01*
X47520548Y5489692D01*
X47495303Y5606919D01*
X47471254Y5692977D01*
X47469822Y5696840D01*
X47479968Y5746702D01*
X47533306Y5757333D01*
X47626720Y5780403D01*
X47649491Y5840606D01*
X47639679Y5856843D01*
X47525268Y5856843D01*
X47481389Y5842348D01*
X47460851Y5842000D01*
X47387858Y5867279D01*
X47371000Y5905500D01*
X47391105Y5961875D01*
X47408150Y5969000D01*
X47463321Y5940037D01*
X47498000Y5905500D01*
X47525268Y5856843D01*
X47639679Y5856843D01*
X47598827Y5924438D01*
X47572867Y5948795D01*
X47464832Y6041722D01*
X47576666Y6219148D01*
X47651965Y6326485D01*
X47713602Y6373968D01*
X47784996Y6377860D01*
X47801225Y6375084D01*
X47916042Y6377156D01*
X47974369Y6425749D01*
X47974156Y6427618D01*
X47630421Y6427618D01*
X47586204Y6315130D01*
X47511834Y6197224D01*
X47423232Y6100023D01*
X47351773Y6054334D01*
X47273198Y6053408D01*
X47140276Y6078842D01*
X46976577Y6123872D01*
X46805671Y6181732D01*
X46651128Y6245658D01*
X46603639Y6269062D01*
X46563275Y6334663D01*
X46562680Y6455688D01*
X46598468Y6614719D01*
X46667257Y6794335D01*
X46729338Y6916132D01*
X46819165Y7066195D01*
X46893105Y7150791D01*
X46968557Y7171501D01*
X47062923Y7129907D01*
X47193602Y7027587D01*
X47265798Y6964870D01*
X47395211Y6845951D01*
X47498539Y6741082D01*
X47559639Y6667059D01*
X47568666Y6649759D01*
X47606288Y6554060D01*
X47628567Y6508562D01*
X47630421Y6427618D01*
X47974156Y6427618D01*
X47968375Y6478329D01*
X47879000Y6478329D01*
X47852474Y6437720D01*
X47775024Y6462299D01*
X47753226Y6475347D01*
X47714043Y6521831D01*
X47719651Y6543428D01*
X47780001Y6555605D01*
X47849220Y6525891D01*
X47879000Y6478329D01*
X47968375Y6478329D01*
X47965371Y6504671D01*
X47924166Y6558834D01*
X47829479Y6623674D01*
X47746302Y6646333D01*
X47669783Y6675941D01*
X47555701Y6756096D01*
X47422444Y6873797D01*
X47416533Y6879533D01*
X47288413Y7001001D01*
X47171247Y7106337D01*
X47087924Y7175049D01*
X47080474Y7180431D01*
X46983819Y7248131D01*
X47078956Y7349399D01*
X47162612Y7419934D01*
X47233470Y7450624D01*
X47235299Y7450667D01*
X47283050Y7427556D01*
X47392490Y7361724D01*
X47555543Y7258422D01*
X47764133Y7122903D01*
X48010187Y6960419D01*
X48285627Y6776220D01*
X48582378Y6575560D01*
X48614336Y6553823D01*
X49014982Y6281376D01*
X49351620Y6052467D01*
X49629938Y5862560D01*
X49855625Y5707119D01*
X50034367Y5581609D01*
X50171852Y5481494D01*
X50273769Y5402239D01*
X50345804Y5339307D01*
X50393646Y5288163D01*
X50422981Y5244271D01*
X50439499Y5203097D01*
X50448885Y5160103D01*
X50456829Y5110755D01*
X50462494Y5080000D01*
X50492164Y4937792D01*
X50517869Y4822691D01*
X50529030Y4778036D01*
X50812039Y4778036D01*
X50745147Y5069059D01*
X50702468Y5249085D01*
X50665274Y5395608D01*
X50638255Y5490751D01*
X50627497Y5517627D01*
X50582674Y5549574D01*
X50476236Y5622945D01*
X50316787Y5731923D01*
X50112932Y5870693D01*
X49873278Y6033441D01*
X49606428Y6214351D01*
X49320989Y6407608D01*
X49025565Y6607395D01*
X48728761Y6807899D01*
X48439183Y7003303D01*
X48165436Y7187792D01*
X47916124Y7355551D01*
X47699854Y7500764D01*
X47525230Y7617617D01*
X47400857Y7700294D01*
X47335341Y7742979D01*
X47328441Y7747121D01*
X47236854Y7768155D01*
X47124352Y7729633D01*
X47124352Y7729633D01*
G37*
X47124352Y7729633D02*
X47122894Y7728881D01*
X46975330Y7626136D01*
X46810157Y7469368D01*
X46646933Y7280630D01*
X46505214Y7081973D01*
X46427022Y6944266D01*
X46373154Y6830895D01*
X46335453Y6733664D01*
X46310550Y6632950D01*
X46295077Y6509130D01*
X46285666Y6342582D01*
X46278948Y6113683D01*
X46278051Y6076433D01*
X46273996Y5824232D01*
X46277392Y5623187D01*
X46291052Y5444267D01*
X46317790Y5258441D01*
X46360418Y5036679D01*
X46394345Y4876378D01*
X46453280Y4609349D01*
X46503345Y4407911D01*
X46551882Y4254553D01*
X46606230Y4131763D01*
X46673732Y4022033D01*
X46761725Y3907851D01*
X46838390Y3817127D01*
X46934628Y3700659D01*
X47004030Y3608145D01*
X47032260Y3558758D01*
X47032334Y3557741D01*
X47070495Y3533233D01*
X47172608Y3496083D01*
X47320119Y3452656D01*
X47397869Y3432384D01*
X47583803Y3382936D01*
X47756234Y3332204D01*
X47885209Y3289142D01*
X47911039Y3279019D01*
X48061355Y3233620D01*
X48222088Y3225098D01*
X48411918Y3255273D01*
X48649523Y3325961D01*
X48746834Y3360394D01*
X48951058Y3437597D01*
X49196416Y3534512D01*
X49446598Y3636636D01*
X49597667Y3700249D01*
X49807379Y3793003D01*
X49967573Y3874600D01*
X50103735Y3961906D01*
X50241351Y4071788D01*
X50405906Y4221112D01*
X50456150Y4268385D01*
X50844800Y4635500D01*
X50812039Y4778036D01*
X50529030Y4778036D01*
X50507962Y4714807D01*
X50430579Y4617156D01*
X50311121Y4497460D01*
X50163828Y4368102D01*
X50002937Y4241461D01*
X49842689Y4129917D01*
X49697324Y4045852D01*
X49674095Y4034713D01*
X49444239Y3932814D01*
X49197527Y3830370D01*
X48948286Y3732585D01*
X48710843Y3644664D01*
X48499524Y3571811D01*
X48328654Y3519230D01*
X48212561Y3492127D01*
X48175334Y3490230D01*
X48054783Y3518919D01*
X47947213Y3554104D01*
X47867428Y3589953D01*
X47840718Y3613337D01*
X47841379Y3614048D01*
X47881902Y3636683D01*
X47986855Y3693077D01*
X48145706Y3777634D01*
X48347920Y3884757D01*
X48582965Y4008850D01*
X48751080Y4097391D01*
X49075424Y4265628D01*
X49331001Y4392639D01*
X49521923Y4480290D01*
X49652304Y4530447D01*
X49726257Y4544976D01*
X49734815Y4543725D01*
X49821112Y4548118D01*
X49859241Y4602004D01*
X49855953Y4618242D01*
X49548751Y4618242D01*
X49520233Y4588599D01*
X49428270Y4527679D01*
X49285151Y4442056D01*
X49103166Y4338305D01*
X48894603Y4223002D01*
X48671752Y4102722D01*
X48446901Y3984038D01*
X48232341Y3873528D01*
X48040359Y3777764D01*
X47883245Y3703323D01*
X47773289Y3656780D01*
X47727934Y3644061D01*
X47636945Y3653882D01*
X47504359Y3682671D01*
X47431432Y3702714D01*
X47283536Y3761559D01*
X47165965Y3851292D01*
X47066801Y3966656D01*
X46986492Y4074820D01*
X46934634Y4152524D01*
X46922693Y4180137D01*
X46965296Y4194539D01*
X47076064Y4227170D01*
X47241430Y4274165D01*
X47447827Y4331656D01*
X47628890Y4381386D01*
X47862611Y4446277D01*
X48070304Y4505958D01*
X48237056Y4555986D01*
X48347957Y4591917D01*
X48385312Y4606824D01*
X48470893Y4619062D01*
X48566129Y4597678D01*
X48683687Y4574740D01*
X48768326Y4604713D01*
X48845981Y4628623D01*
X48975233Y4645381D01*
X49131883Y4654567D01*
X49291728Y4655763D01*
X49430567Y4648548D01*
X49524200Y4632502D01*
X49548751Y4618242D01*
X49855953Y4618242D01*
X49843884Y4677833D01*
X49741667Y4677833D01*
X49733714Y4624295D01*
X49691822Y4621531D01*
X49639296Y4640029D01*
X49596805Y4671510D01*
X48668268Y4671510D01*
X48624389Y4657015D01*
X48603851Y4656667D01*
X48542732Y4677833D01*
X48391414Y4677833D01*
X48349299Y4656370D01*
X48241327Y4617331D01*
X48083324Y4565428D01*
X47891112Y4505376D01*
X47680516Y4441885D01*
X47467361Y4379670D01*
X47267470Y4323442D01*
X47096667Y4277914D01*
X46970776Y4247800D01*
X46915010Y4238133D01*
X46859140Y4268782D01*
X46820750Y4328583D01*
X46795499Y4403791D01*
X46758378Y4532306D01*
X46715542Y4690472D01*
X46673143Y4854634D01*
X46637334Y5001139D01*
X46614269Y5106329D01*
X46609000Y5142611D01*
X46647875Y5155676D01*
X46751539Y5161140D01*
X46900551Y5159996D01*
X47075472Y5153236D01*
X47256861Y5141854D01*
X47425278Y5126843D01*
X47561282Y5109197D01*
X47645434Y5089908D01*
X47646167Y5089625D01*
X47773848Y5046330D01*
X47879000Y5018901D01*
X47972981Y4984966D01*
X48091541Y4922477D01*
X48213338Y4845638D01*
X48317032Y4768655D01*
X48381279Y4705733D01*
X48391414Y4677833D01*
X48542732Y4677833D01*
X48530858Y4681945D01*
X48514000Y4720167D01*
X48534105Y4776542D01*
X48551150Y4783667D01*
X48606321Y4754704D01*
X48641000Y4720167D01*
X48668268Y4671510D01*
X49596805Y4671510D01*
X49577751Y4685626D01*
X49592784Y4727587D01*
X49657000Y4741333D01*
X49725953Y4714864D01*
X49741667Y4677833D01*
X49843884Y4677833D01*
X49843155Y4681430D01*
X49786370Y4747927D01*
X49676235Y4807511D01*
X49565339Y4823111D01*
X49482301Y4793448D01*
X49460643Y4762500D01*
X49405885Y4725128D01*
X49292335Y4702377D01*
X49144558Y4694032D01*
X48987118Y4699880D01*
X48844582Y4719705D01*
X48741512Y4753296D01*
X48718521Y4768967D01*
X48627892Y4815211D01*
X48498282Y4843541D01*
X48461188Y4846397D01*
X48303076Y4877619D01*
X48132981Y4949042D01*
X47978669Y5045068D01*
X47867910Y5150097D01*
X47854904Y5171207D01*
X47742785Y5171207D01*
X47730281Y5129147D01*
X47686301Y5128874D01*
X47612057Y5169475D01*
X47591883Y5200460D01*
X47604387Y5242520D01*
X47648367Y5242793D01*
X47722611Y5202192D01*
X47742785Y5171207D01*
X47854904Y5171207D01*
X47840051Y5195312D01*
X47760577Y5281754D01*
X47692503Y5309748D01*
X47485289Y5309748D01*
X47441254Y5248789D01*
X47341520Y5218259D01*
X47174670Y5207865D01*
X47055831Y5207000D01*
X46854676Y5210490D01*
X46722259Y5222491D01*
X46642882Y5245306D01*
X46607137Y5272745D01*
X46587340Y5331537D01*
X46567360Y5448148D01*
X46548793Y5602237D01*
X46533238Y5773465D01*
X46522290Y5941492D01*
X46517546Y6085977D01*
X46520603Y6186581D01*
X46532537Y6223000D01*
X46579028Y6210317D01*
X46684535Y6176750D01*
X46828038Y6129027D01*
X46858262Y6118778D01*
X47104784Y6013741D01*
X47279603Y5885881D01*
X47394910Y5723812D01*
X47451932Y5564129D01*
X47485043Y5411430D01*
X47485289Y5309748D01*
X47692503Y5309748D01*
X47671665Y5318317D01*
X47581117Y5353378D01*
X47534751Y5429556D01*
X47520548Y5489692D01*
X47495303Y5606919D01*
X47471254Y5692977D01*
X47469822Y5696840D01*
X47479968Y5746702D01*
X47533306Y5757333D01*
X47626720Y5780403D01*
X47649491Y5840606D01*
X47639679Y5856843D01*
X47525268Y5856843D01*
X47481389Y5842348D01*
X47460851Y5842000D01*
X47387858Y5867279D01*
X47371000Y5905500D01*
X47391105Y5961875D01*
X47408150Y5969000D01*
X47463321Y5940037D01*
X47498000Y5905500D01*
X47525268Y5856843D01*
X47639679Y5856843D01*
X47598827Y5924438D01*
X47572867Y5948795D01*
X47464832Y6041722D01*
X47576666Y6219148D01*
X47651965Y6326485D01*
X47713602Y6373968D01*
X47784996Y6377860D01*
X47801225Y6375084D01*
X47916042Y6377156D01*
X47974369Y6425749D01*
X47974156Y6427618D01*
X47630421Y6427618D01*
X47586204Y6315130D01*
X47511834Y6197224D01*
X47423232Y6100023D01*
X47351773Y6054334D01*
X47273198Y6053408D01*
X47140276Y6078842D01*
X46976577Y6123872D01*
X46805671Y6181732D01*
X46651128Y6245658D01*
X46603639Y6269062D01*
X46563275Y6334663D01*
X46562680Y6455688D01*
X46598468Y6614719D01*
X46667257Y6794335D01*
X46729338Y6916132D01*
X46819165Y7066195D01*
X46893105Y7150791D01*
X46968557Y7171501D01*
X47062923Y7129907D01*
X47193602Y7027587D01*
X47265798Y6964870D01*
X47395211Y6845951D01*
X47498539Y6741082D01*
X47559639Y6667059D01*
X47568666Y6649759D01*
X47606288Y6554060D01*
X47628567Y6508562D01*
X47630421Y6427618D01*
X47974156Y6427618D01*
X47968375Y6478329D01*
X47879000Y6478329D01*
X47852474Y6437720D01*
X47775024Y6462299D01*
X47753226Y6475347D01*
X47714043Y6521831D01*
X47719651Y6543428D01*
X47780001Y6555605D01*
X47849220Y6525891D01*
X47879000Y6478329D01*
X47968375Y6478329D01*
X47965371Y6504671D01*
X47924166Y6558834D01*
X47829479Y6623674D01*
X47746302Y6646333D01*
X47669783Y6675941D01*
X47555701Y6756096D01*
X47422444Y6873797D01*
X47416533Y6879533D01*
X47288413Y7001001D01*
X47171247Y7106337D01*
X47087924Y7175049D01*
X47080474Y7180431D01*
X46983819Y7248131D01*
X47078956Y7349399D01*
X47162612Y7419934D01*
X47233470Y7450624D01*
X47235299Y7450667D01*
X47283050Y7427556D01*
X47392490Y7361724D01*
X47555543Y7258422D01*
X47764133Y7122903D01*
X48010187Y6960419D01*
X48285627Y6776220D01*
X48582378Y6575560D01*
X48614336Y6553823D01*
X49014982Y6281376D01*
X49351620Y6052467D01*
X49629938Y5862560D01*
X49855625Y5707119D01*
X50034367Y5581609D01*
X50171852Y5481494D01*
X50273769Y5402239D01*
X50345804Y5339307D01*
X50393646Y5288163D01*
X50422981Y5244271D01*
X50439499Y5203097D01*
X50448885Y5160103D01*
X50456829Y5110755D01*
X50462494Y5080000D01*
X50492164Y4937792D01*
X50517869Y4822691D01*
X50529030Y4778036D01*
X50812039Y4778036D01*
X50745147Y5069059D01*
X50702468Y5249085D01*
X50665274Y5395608D01*
X50638255Y5490751D01*
X50627497Y5517627D01*
X50582674Y5549574D01*
X50476236Y5622945D01*
X50316787Y5731923D01*
X50112932Y5870693D01*
X49873278Y6033441D01*
X49606428Y6214351D01*
X49320989Y6407608D01*
X49025565Y6607395D01*
X48728761Y6807899D01*
X48439183Y7003303D01*
X48165436Y7187792D01*
X47916124Y7355551D01*
X47699854Y7500764D01*
X47525230Y7617617D01*
X47400857Y7700294D01*
X47335341Y7742979D01*
X47328441Y7747121D01*
X47236854Y7768155D01*
X47124352Y7729633D01*
D11*
X21590000Y54356000D02*
X21590000Y54864000D01*
X21590000Y51816000D02*
X21590000Y52324000D01*
X24130000Y49784000D02*
X24130000Y49530000D01*
X24130000Y49530000D02*
X21590000Y49530000D01*
X21590000Y49530000D02*
X21590000Y49784000D01*
X24130000Y52324000D02*
X24130000Y51816000D01*
X24130000Y54864000D02*
X24130000Y54356000D01*
X21590000Y56896000D02*
X21590000Y57150000D01*
X21590000Y57150000D02*
X24130000Y57150000D01*
X24130000Y57150000D02*
X24130000Y56896000D01*
D15*
X26924000Y56896000D02*
X27178000Y56896000D01*
X26924000Y56896000D02*
X26924000Y54864000D01*
X26924000Y54864000D02*
X28956000Y54864000D01*
X28956000Y54864000D02*
X28956000Y56896000D01*
X28956000Y56896000D02*
X27178000Y56896000D01*
X27178000Y56896000D02*
X27178000Y55118000D01*
X27178000Y55118000D02*
X28702000Y55118000D01*
X28702000Y55118000D02*
X28702000Y56642000D01*
X28702000Y56642000D02*
X27432000Y56642000D01*
X27432000Y56642000D02*
X27432000Y55372000D01*
X27432000Y55372000D02*
X28448000Y55372000D01*
X28448000Y55372000D02*
X28448000Y56388000D01*
X28448000Y56388000D02*
X27686000Y56388000D01*
X27686000Y56388000D02*
X27686000Y55626000D01*
X27686000Y55626000D02*
X28194000Y55626000D01*
X28194000Y55626000D02*
X28194000Y56134000D01*
X28194000Y56134000D02*
X27940000Y56134000D01*
X27940000Y56134000D02*
X27940000Y55880000D01*
D10*
X36576000Y51054000D02*
X36830000Y50800000D01*
X36830000Y50800000D02*
X36576000Y50546000D01*
X36576000Y53594000D02*
X36830000Y53340000D01*
X36830000Y53340000D02*
X36576000Y53086000D01*
X36576000Y56134000D02*
X36830000Y55880000D01*
X36830000Y55880000D02*
X36576000Y55626000D01*
X29210000Y51054000D02*
X36576000Y51054000D01*
X36576000Y51054000D02*
X36576000Y50546000D01*
X36576000Y50546000D02*
X29210000Y50546000D01*
X29210000Y53594000D02*
X36576000Y53594000D01*
X36576000Y53594000D02*
X36576000Y53086000D01*
X36576000Y53086000D02*
X29210000Y53086000D01*
X29210000Y56134000D02*
X36576000Y56134000D01*
X36576000Y56134000D02*
X36576000Y55626000D01*
X36576000Y55626000D02*
X29210000Y55626000D01*
X26670000Y52070000D02*
X29210000Y52070000D01*
X26670000Y54610000D02*
X29210000Y54610000D01*
X26670000Y57150000D02*
X26670000Y49530000D01*
X26670000Y49530000D02*
X29210000Y49530000D01*
X29210000Y49530000D02*
X29210000Y57150000D01*
X29210000Y57150000D02*
X26670000Y57150000D01*
D11*
X21590000Y8636000D02*
X21590000Y9144000D01*
X21590000Y6096000D02*
X21590000Y6604000D01*
X24130000Y4064000D02*
X24130000Y3810000D01*
X24130000Y3810000D02*
X21590000Y3810000D01*
X21590000Y3810000D02*
X21590000Y4064000D01*
X24130000Y6604000D02*
X24130000Y6096000D01*
X24130000Y9144000D02*
X24130000Y8636000D01*
X21590000Y11176000D02*
X21590000Y11430000D01*
X21590000Y11430000D02*
X24130000Y11430000D01*
X24130000Y11430000D02*
X24130000Y11176000D01*
D15*
X26924000Y11176000D02*
X27178000Y11176000D01*
X26924000Y11176000D02*
X26924000Y9144000D01*
X26924000Y9144000D02*
X28956000Y9144000D01*
X28956000Y9144000D02*
X28956000Y11176000D01*
X28956000Y11176000D02*
X27178000Y11176000D01*
X27178000Y11176000D02*
X27178000Y9398000D01*
X27178000Y9398000D02*
X28702000Y9398000D01*
X28702000Y9398000D02*
X28702000Y10922000D01*
X28702000Y10922000D02*
X27432000Y10922000D01*
X27432000Y10922000D02*
X27432000Y9652000D01*
X27432000Y9652000D02*
X28448000Y9652000D01*
X28448000Y9652000D02*
X28448000Y10668000D01*
X28448000Y10668000D02*
X27686000Y10668000D01*
X27686000Y10668000D02*
X27686000Y9906000D01*
X27686000Y9906000D02*
X28194000Y9906000D01*
X28194000Y9906000D02*
X28194000Y10414000D01*
X28194000Y10414000D02*
X27940000Y10414000D01*
X27940000Y10414000D02*
X27940000Y10160000D01*
D10*
X36576000Y5334000D02*
X36830000Y5080000D01*
X36830000Y5080000D02*
X36576000Y4826000D01*
X36576000Y7874000D02*
X36830000Y7620000D01*
X36830000Y7620000D02*
X36576000Y7366000D01*
X36576000Y10414000D02*
X36830000Y10160000D01*
X36830000Y10160000D02*
X36576000Y9906000D01*
X29210000Y5334000D02*
X36576000Y5334000D01*
X36576000Y5334000D02*
X36576000Y4826000D01*
X36576000Y4826000D02*
X29210000Y4826000D01*
X29210000Y7874000D02*
X36576000Y7874000D01*
X36576000Y7874000D02*
X36576000Y7366000D01*
X36576000Y7366000D02*
X29210000Y7366000D01*
X29210000Y10414000D02*
X36576000Y10414000D01*
X36576000Y10414000D02*
X36576000Y9906000D01*
X36576000Y9906000D02*
X29210000Y9906000D01*
X26670000Y6350000D02*
X29210000Y6350000D01*
X26670000Y8890000D02*
X29210000Y8890000D01*
X26670000Y11430000D02*
X26670000Y3810000D01*
X26670000Y3810000D02*
X29210000Y3810000D01*
X29210000Y3810000D02*
X29210000Y11430000D01*
X29210000Y11430000D02*
X26670000Y11430000D01*
D11*
X54356000Y39370000D02*
X54864000Y39370000D01*
X51816000Y39370000D02*
X52324000Y39370000D01*
X49784000Y36830000D02*
X49530000Y36830000D01*
X49530000Y36830000D02*
X49530000Y39370000D01*
X49530000Y39370000D02*
X49784000Y39370000D01*
X52324000Y36830000D02*
X51816000Y36830000D01*
X54864000Y36830000D02*
X54356000Y36830000D01*
X56896000Y39370000D02*
X57150000Y39370000D01*
X57150000Y39370000D02*
X57150000Y36830000D01*
X57150000Y36830000D02*
X56896000Y36830000D01*
D15*
X56896000Y34036000D02*
X56896000Y33782000D01*
X56896000Y34036000D02*
X54864000Y34036000D01*
X54864000Y34036000D02*
X54864000Y32004000D01*
X54864000Y32004000D02*
X56896000Y32004000D01*
X56896000Y32004000D02*
X56896000Y33782000D01*
X56896000Y33782000D02*
X55118000Y33782000D01*
X55118000Y33782000D02*
X55118000Y32258000D01*
X55118000Y32258000D02*
X56642000Y32258000D01*
X56642000Y32258000D02*
X56642000Y33528000D01*
X56642000Y33528000D02*
X55372000Y33528000D01*
X55372000Y33528000D02*
X55372000Y32512000D01*
X55372000Y32512000D02*
X56388000Y32512000D01*
X56388000Y32512000D02*
X56388000Y33274000D01*
X56388000Y33274000D02*
X55626000Y33274000D01*
X55626000Y33274000D02*
X55626000Y32766000D01*
X55626000Y32766000D02*
X56134000Y32766000D01*
X56134000Y32766000D02*
X56134000Y33020000D01*
X56134000Y33020000D02*
X55880000Y33020000D01*
D10*
X51054000Y24384000D02*
X50800000Y24130000D01*
X50800000Y24130000D02*
X50546000Y24384000D01*
X53594000Y24384000D02*
X53340000Y24130000D01*
X53340000Y24130000D02*
X53086000Y24384000D01*
X56134000Y24384000D02*
X55880000Y24130000D01*
X55880000Y24130000D02*
X55626000Y24384000D01*
X51054000Y31750000D02*
X51054000Y24384000D01*
X51054000Y24384000D02*
X50546000Y24384000D01*
X50546000Y24384000D02*
X50546000Y31750000D01*
X53594000Y31750000D02*
X53594000Y24384000D01*
X53594000Y24384000D02*
X53086000Y24384000D01*
X53086000Y24384000D02*
X53086000Y31750000D01*
X56134000Y31750000D02*
X56134000Y24384000D01*
X56134000Y24384000D02*
X55626000Y24384000D01*
X55626000Y24384000D02*
X55626000Y31750000D01*
X52070000Y34290000D02*
X52070000Y31750000D01*
X54610000Y34290000D02*
X54610000Y31750000D01*
X57150000Y34290000D02*
X49530000Y34290000D01*
X49530000Y34290000D02*
X49530000Y31750000D01*
X49530000Y31750000D02*
X57150000Y31750000D01*
X57150000Y31750000D02*
X57150000Y34290000D01*
D11*
X8636000Y39370000D02*
X9144000Y39370000D01*
X6096000Y39370000D02*
X6604000Y39370000D01*
X4064000Y36830000D02*
X3810000Y36830000D01*
X3810000Y36830000D02*
X3810000Y39370000D01*
X3810000Y39370000D02*
X4064000Y39370000D01*
X6604000Y36830000D02*
X6096000Y36830000D01*
X9144000Y36830000D02*
X8636000Y36830000D01*
X11176000Y39370000D02*
X11430000Y39370000D01*
X11430000Y39370000D02*
X11430000Y36830000D01*
X11430000Y36830000D02*
X11176000Y36830000D01*
D15*
X11176000Y34036000D02*
X11176000Y33782000D01*
X11176000Y34036000D02*
X9144000Y34036000D01*
X9144000Y34036000D02*
X9144000Y32004000D01*
X9144000Y32004000D02*
X11176000Y32004000D01*
X11176000Y32004000D02*
X11176000Y33782000D01*
X11176000Y33782000D02*
X9398000Y33782000D01*
X9398000Y33782000D02*
X9398000Y32258000D01*
X9398000Y32258000D02*
X10922000Y32258000D01*
X10922000Y32258000D02*
X10922000Y33528000D01*
X10922000Y33528000D02*
X9652000Y33528000D01*
X9652000Y33528000D02*
X9652000Y32512000D01*
X9652000Y32512000D02*
X10668000Y32512000D01*
X10668000Y32512000D02*
X10668000Y33274000D01*
X10668000Y33274000D02*
X9906000Y33274000D01*
X9906000Y33274000D02*
X9906000Y32766000D01*
X9906000Y32766000D02*
X10414000Y32766000D01*
X10414000Y32766000D02*
X10414000Y33020000D01*
X10414000Y33020000D02*
X10160000Y33020000D01*
D10*
X5334000Y24384000D02*
X5080000Y24130000D01*
X5080000Y24130000D02*
X4826000Y24384000D01*
X7874000Y24384000D02*
X7620000Y24130000D01*
X7620000Y24130000D02*
X7366000Y24384000D01*
X10414000Y24384000D02*
X10160000Y24130000D01*
X10160000Y24130000D02*
X9906000Y24384000D01*
X5334000Y31750000D02*
X5334000Y24384000D01*
X5334000Y24384000D02*
X4826000Y24384000D01*
X4826000Y24384000D02*
X4826000Y31750000D01*
X7874000Y31750000D02*
X7874000Y24384000D01*
X7874000Y24384000D02*
X7366000Y24384000D01*
X7366000Y24384000D02*
X7366000Y31750000D01*
X10414000Y31750000D02*
X10414000Y24384000D01*
X10414000Y24384000D02*
X9906000Y24384000D01*
X9906000Y24384000D02*
X9906000Y31750000D01*
X6350000Y34290000D02*
X6350000Y31750000D01*
X8890000Y34290000D02*
X8890000Y31750000D01*
X11430000Y34290000D02*
X3810000Y34290000D01*
X3810000Y34290000D02*
X3810000Y31750000D01*
X3810000Y31750000D02*
X11430000Y31750000D01*
X11430000Y31750000D02*
X11430000Y34290000D01*
D16*
X13144500Y29400500D02*
X17335500Y29400500D01*
X13144500Y29273500D02*
X17335500Y29273500D01*
X13144500Y29146500D02*
X17335500Y29146500D01*
X17335500Y29019500D02*
X13144500Y29019500D01*
X13144500Y28892500D02*
X17335500Y28892500D01*
X17335500Y28765500D02*
X13144500Y28765500D01*
X13144500Y28638500D02*
X17335500Y28638500D01*
X13144500Y26860500D02*
X13144500Y28511500D01*
X13144500Y28511500D02*
X17335500Y28511500D01*
X17335500Y28511500D02*
X17335500Y26860500D01*
X17208500Y26797000D02*
X17208500Y28384500D01*
X17208500Y28384500D02*
X13271500Y28384500D01*
X13271500Y28384500D02*
X13271500Y26860500D01*
X13398500Y26797000D02*
X13398500Y28257500D01*
X13398500Y28257500D02*
X17081500Y28257500D01*
X17081500Y28257500D02*
X17081500Y26797000D01*
X13398500Y34163000D02*
X13081000Y34163000D01*
X17081500Y26797000D02*
X17399000Y26797000D01*
X17399000Y26797000D02*
X17399000Y34163000D01*
X17399000Y34163000D02*
X17081500Y34163000D01*
X13081000Y34163000D02*
X13081000Y26797000D01*
X13081000Y26797000D02*
X13398500Y26797000D01*
X36004500Y29400500D02*
X40195500Y29400500D01*
X36004500Y29273500D02*
X40195500Y29273500D01*
X36004500Y29146500D02*
X40195500Y29146500D01*
X40195500Y29019500D02*
X36004500Y29019500D01*
X36004500Y28892500D02*
X40195500Y28892500D01*
X40195500Y28765500D02*
X36004500Y28765500D01*
X36004500Y28638500D02*
X40195500Y28638500D01*
X36004500Y26860500D02*
X36004500Y28511500D01*
X36004500Y28511500D02*
X40195500Y28511500D01*
X40195500Y28511500D02*
X40195500Y26860500D01*
X40068500Y26797000D02*
X40068500Y28384500D01*
X40068500Y28384500D02*
X36131500Y28384500D01*
X36131500Y28384500D02*
X36131500Y26860500D01*
X36258500Y26797000D02*
X36258500Y28257500D01*
X36258500Y28257500D02*
X39941500Y28257500D01*
X39941500Y28257500D02*
X39941500Y26797000D01*
X36258500Y34163000D02*
X35941000Y34163000D01*
X39941500Y26797000D02*
X40259000Y26797000D01*
X40259000Y26797000D02*
X40259000Y34163000D01*
X40259000Y34163000D02*
X39941500Y34163000D01*
X35941000Y34163000D02*
X35941000Y26797000D01*
X35941000Y26797000D02*
X36258500Y26797000D01*
D14*
G36*
X11588476Y58762855D02*
X11043460Y58762709D01*
X10545256Y58762447D01*
X10091868Y58762056D01*
X9681302Y58761522D01*
X9311564Y58760830D01*
X8980659Y58759966D01*
X8686593Y58758916D01*
X8427372Y58757665D01*
X8201000Y58756200D01*
X8005484Y58754505D01*
X7838830Y58752567D01*
X7699042Y58750371D01*
X7584126Y58747903D01*
X7492089Y58745150D01*
X7420934Y58742096D01*
X7368669Y58738727D01*
X7333298Y58735029D01*
X7312828Y58730989D01*
X7306404Y58728040D01*
X7301340Y58721203D01*
X7296697Y58708047D01*
X7292457Y58686460D01*
X7288603Y58654326D01*
X7285115Y58609533D01*
X7281977Y58549965D01*
X7279169Y58473510D01*
X7276674Y58378052D01*
X7274473Y58261479D01*
X7272549Y58121675D01*
X7270883Y57956527D01*
X7269457Y57763921D01*
X7268253Y57541743D01*
X7267252Y57287879D01*
X7266437Y57000215D01*
X7265789Y56676637D01*
X7265291Y56315031D01*
X7264923Y55913282D01*
X7264668Y55469277D01*
X7264509Y54980903D01*
X7264425Y54446044D01*
X7264401Y53862587D01*
X7264400Y53837270D01*
X7264470Y53224434D01*
X7264685Y52660717D01*
X7265056Y52144441D01*
X7265595Y51673926D01*
X7266310Y51247491D01*
X7267213Y50863458D01*
X7268314Y50520147D01*
X7269624Y50215877D01*
X7271153Y49948970D01*
X7272912Y49717745D01*
X7274910Y49520523D01*
X7277159Y49355625D01*
X7279670Y49221369D01*
X7282451Y49116077D01*
X7285515Y49038070D01*
X7288871Y48985667D01*
X7292530Y48957188D01*
X7294881Y48950880D01*
X7309782Y48947034D01*
X7347599Y48943497D01*
X7410010Y48940259D01*
X7498694Y48937309D01*
X7615333Y48934637D01*
X7761605Y48932232D01*
X7939190Y48930084D01*
X8149768Y48928182D01*
X8395019Y48926516D01*
X8676622Y48925076D01*
X8996256Y48923851D01*
X9355603Y48922830D01*
X9756340Y48922003D01*
X10200149Y48921359D01*
X10688709Y48920889D01*
X11223699Y48920581D01*
X11806799Y48920425D01*
X12181270Y48920400D01*
X12766792Y48920423D01*
X13303627Y48920504D01*
X13793891Y48920660D01*
X14239696Y48920910D01*
X14643158Y48921273D01*
X15006389Y48921765D01*
X15331505Y48922407D01*
X15620619Y48923214D01*
X15875844Y48924207D01*
X16099296Y48925403D01*
X16293088Y48926819D01*
X16459334Y48928475D01*
X16600149Y48930388D01*
X16717645Y48932577D01*
X16813938Y48935059D01*
X16891140Y48937854D01*
X16951367Y48940978D01*
X16996732Y48944450D01*
X17029350Y48948289D01*
X17051333Y48952513D01*
X17064797Y48957139D01*
X17071855Y48962185D01*
X17072040Y48962404D01*
X17076322Y48973890D01*
X17080252Y48998921D01*
X17083842Y49039491D01*
X17087108Y49097595D01*
X17090065Y49175228D01*
X17092725Y49274384D01*
X17095104Y49397057D01*
X17097215Y49545242D01*
X17099074Y49720933D01*
X17100694Y49926125D01*
X17102089Y50162811D01*
X17103274Y50432988D01*
X17104263Y50738648D01*
X17104390Y50792867D01*
X14601508Y50792867D01*
X14561291Y50643955D01*
X14479406Y50513315D01*
X14358764Y50407898D01*
X14219613Y50340391D01*
X14072060Y50306582D01*
X13901452Y50294031D01*
X13731058Y50303149D01*
X13599961Y50329371D01*
X13530044Y50360289D01*
X12945993Y50360289D01*
X12923742Y50349651D01*
X12870095Y50345738D01*
X12776368Y50347178D01*
X12749639Y50348073D01*
X12539016Y50355500D01*
X12422658Y50549065D01*
X12363045Y50646213D01*
X12306601Y50734732D01*
X12263084Y50799421D01*
X12253658Y50812373D01*
X12201016Y50882116D01*
X12112538Y50758508D01*
X12048914Y50665513D01*
X11979072Y50557365D01*
X11936996Y50488850D01*
X11849932Y50342800D01*
X11639966Y50342800D01*
X11543891Y50344926D01*
X11470935Y50350586D01*
X11432916Y50358709D01*
X11430049Y50361850D01*
X11443351Y50395272D01*
X11479339Y50461479D01*
X11532246Y50551177D01*
X11596304Y50655070D01*
X11665745Y50763860D01*
X11734801Y50868251D01*
X11737181Y50871683D01*
X11209353Y50871683D01*
X11194124Y50715212D01*
X11137561Y50570242D01*
X11077688Y50486148D01*
X11021659Y50440050D01*
X10936191Y50388525D01*
X10840112Y50341988D01*
X10769600Y50315753D01*
X10694735Y50302805D01*
X10587746Y50296089D01*
X10466920Y50295521D01*
X10350538Y50301017D01*
X10256886Y50312493D01*
X10231697Y50318226D01*
X10072772Y50384945D01*
X9944899Y50483995D01*
X9851667Y50608079D01*
X9796665Y50749897D01*
X9783482Y50902152D01*
X9815708Y51057545D01*
X9840006Y51114677D01*
X9881987Y51190610D01*
X9931327Y51254181D01*
X9999867Y51318101D01*
X10099448Y51395083D01*
X10104967Y51399145D01*
X10093277Y51418738D01*
X10054293Y51463055D01*
X10010718Y51508083D01*
X9910479Y51639736D01*
X9852924Y51785114D01*
X9837046Y51935598D01*
X9861837Y52082569D01*
X9926291Y52217407D01*
X10029400Y52331495D01*
X10113649Y52388779D01*
X10182913Y52424565D01*
X10243802Y52446752D01*
X10312350Y52458532D01*
X10404593Y52463093D01*
X10490200Y52463700D01*
X10639527Y52458681D01*
X10753305Y52440430D01*
X10846081Y52404161D01*
X10932401Y52345089D01*
X10981418Y52302051D01*
X11081049Y52178193D01*
X11141765Y52034431D01*
X11163038Y51881311D01*
X11144338Y51729374D01*
X11085137Y51589165D01*
X11021352Y51505772D01*
X10922347Y51401696D01*
X11014526Y51312173D01*
X11118805Y51179957D01*
X11183997Y51029862D01*
X11209353Y50871683D01*
X11737181Y50871683D01*
X11797705Y50958949D01*
X11816856Y50985272D01*
X11944472Y51157844D01*
X11699936Y51524878D01*
X11620281Y51645140D01*
X11551480Y51750358D01*
X11498095Y51833445D01*
X11464688Y51887316D01*
X11455400Y51904756D01*
X11478795Y51910720D01*
X11540967Y51915211D01*
X11629900Y51917471D01*
X11658726Y51917600D01*
X11862052Y51917600D01*
X12016806Y51676300D01*
X12079046Y51580319D01*
X12130849Y51502437D01*
X12166431Y51451219D01*
X12179792Y51435000D01*
X12196796Y51454434D01*
X12236894Y51507286D01*
X12294015Y51585383D01*
X12359073Y51676300D01*
X12530123Y51917600D01*
X12742956Y51917600D01*
X12821508Y51918509D01*
X12878872Y51917673D01*
X12914040Y51909754D01*
X12926003Y51889411D01*
X12913753Y51851306D01*
X12876283Y51790097D01*
X12812585Y51700446D01*
X12721652Y51577012D01*
X12663853Y51498500D01*
X12582050Y51386130D01*
X12511982Y51288207D01*
X12458724Y51211956D01*
X12427348Y51164601D01*
X12421091Y51152743D01*
X12435399Y51125588D01*
X12472437Y51073582D01*
X12499824Y51038443D01*
X12546713Y50976597D01*
X12609148Y50889576D01*
X12680625Y50787002D01*
X12754642Y50678495D01*
X12824697Y50573676D01*
X12884286Y50482165D01*
X12926906Y50413584D01*
X12945535Y50379025D01*
X12945993Y50360289D01*
X13530044Y50360289D01*
X13438908Y50400590D01*
X13314660Y50505291D01*
X13229963Y50639835D01*
X13187564Y50800585D01*
X13183018Y50881539D01*
X13202198Y51042872D01*
X13261693Y51177091D01*
X13365833Y51292939D01*
X13400720Y51321102D01*
X13504248Y51400065D01*
X13399133Y51516168D01*
X13304604Y51651814D01*
X13249555Y51800031D01*
X13233751Y51951643D01*
X13256960Y52097469D01*
X13318946Y52228330D01*
X13419478Y52335048D01*
X13419991Y52335440D01*
X13566527Y52417248D01*
X13736427Y52463543D01*
X13916735Y52474325D01*
X14094495Y52449593D01*
X14256751Y52389348D01*
X14342179Y52335464D01*
X14434148Y52237464D01*
X14504728Y52107386D01*
X14546217Y51962073D01*
X14553952Y51872335D01*
X14537064Y51717173D01*
X14482494Y51588832D01*
X14395509Y51484817D01*
X14307807Y51401369D01*
X14396929Y51323120D01*
X14461204Y51252020D01*
X14522469Y51161051D01*
X14545277Y51117685D01*
X14597141Y50953094D01*
X14601508Y50792867D01*
X17104390Y50792867D01*
X17105070Y51081786D01*
X17105710Y51464398D01*
X17106197Y51888476D01*
X17106544Y52356016D01*
X17106767Y52869013D01*
X17106880Y53429460D01*
X17106900Y53838297D01*
X17106885Y54421053D01*
X17106824Y54955149D01*
X17106700Y55442723D01*
X17106490Y55885914D01*
X17106177Y56286862D01*
X17105739Y56647706D01*
X17105157Y56970584D01*
X17104412Y57257637D01*
X17103482Y57511004D01*
X17102349Y57732823D01*
X17100992Y57925233D01*
X17099392Y58090375D01*
X17097528Y58230386D01*
X17095381Y58347407D01*
X17092931Y58443576D01*
X17091048Y58496200D01*
X16840200Y58496200D01*
X16840200Y53975000D01*
X7518400Y53975000D01*
X7518400Y58496200D01*
X16840200Y58496200D01*
X17091048Y58496200D01*
X17090158Y58521033D01*
X17087042Y58581916D01*
X17083563Y58628366D01*
X17079702Y58662520D01*
X17075438Y58686518D01*
X17070751Y58702500D01*
X17065622Y58712605D01*
X17061543Y58717543D01*
X17054404Y58723011D01*
X17042965Y58728022D01*
X17025087Y58732596D01*
X16998633Y58736753D01*
X16961461Y58740512D01*
X16911433Y58743894D01*
X16846411Y58746918D01*
X16764254Y58749604D01*
X16662823Y58751973D01*
X16539980Y58754044D01*
X16393585Y58755836D01*
X16221500Y58757371D01*
X16021584Y58758667D01*
X15791698Y58759745D01*
X15529705Y58760624D01*
X15233464Y58761325D01*
X14900836Y58761867D01*
X14529682Y58762270D01*
X14117862Y58762555D01*
X13663239Y58762740D01*
X13163672Y58762846D01*
X12617023Y58762892D01*
X12182297Y58762900D01*
X11588476Y58762855D01*
X11588476Y58762855D01*
G37*
X11588476Y58762855D02*
X11043460Y58762709D01*
X10545256Y58762447D01*
X10091868Y58762056D01*
X9681302Y58761522D01*
X9311564Y58760830D01*
X8980659Y58759966D01*
X8686593Y58758916D01*
X8427372Y58757665D01*
X8201000Y58756200D01*
X8005484Y58754505D01*
X7838830Y58752567D01*
X7699042Y58750371D01*
X7584126Y58747903D01*
X7492089Y58745150D01*
X7420934Y58742096D01*
X7368669Y58738727D01*
X7333298Y58735029D01*
X7312828Y58730989D01*
X7306404Y58728040D01*
X7301340Y58721203D01*
X7296697Y58708047D01*
X7292457Y58686460D01*
X7288603Y58654326D01*
X7285115Y58609533D01*
X7281977Y58549965D01*
X7279169Y58473510D01*
X7276674Y58378052D01*
X7274473Y58261479D01*
X7272549Y58121675D01*
X7270883Y57956527D01*
X7269457Y57763921D01*
X7268253Y57541743D01*
X7267252Y57287879D01*
X7266437Y57000215D01*
X7265789Y56676637D01*
X7265291Y56315031D01*
X7264923Y55913282D01*
X7264668Y55469277D01*
X7264509Y54980903D01*
X7264425Y54446044D01*
X7264401Y53862587D01*
X7264400Y53837270D01*
X7264470Y53224434D01*
X7264685Y52660717D01*
X7265056Y52144441D01*
X7265595Y51673926D01*
X7266310Y51247491D01*
X7267213Y50863458D01*
X7268314Y50520147D01*
X7269624Y50215877D01*
X7271153Y49948970D01*
X7272912Y49717745D01*
X7274910Y49520523D01*
X7277159Y49355625D01*
X7279670Y49221369D01*
X7282451Y49116077D01*
X7285515Y49038070D01*
X7288871Y48985667D01*
X7292530Y48957188D01*
X7294881Y48950880D01*
X7309782Y48947034D01*
X7347599Y48943497D01*
X7410010Y48940259D01*
X7498694Y48937309D01*
X7615333Y48934637D01*
X7761605Y48932232D01*
X7939190Y48930084D01*
X8149768Y48928182D01*
X8395019Y48926516D01*
X8676622Y48925076D01*
X8996256Y48923851D01*
X9355603Y48922830D01*
X9756340Y48922003D01*
X10200149Y48921359D01*
X10688709Y48920889D01*
X11223699Y48920581D01*
X11806799Y48920425D01*
X12181270Y48920400D01*
X12766792Y48920423D01*
X13303627Y48920504D01*
X13793891Y48920660D01*
X14239696Y48920910D01*
X14643158Y48921273D01*
X15006389Y48921765D01*
X15331505Y48922407D01*
X15620619Y48923214D01*
X15875844Y48924207D01*
X16099296Y48925403D01*
X16293088Y48926819D01*
X16459334Y48928475D01*
X16600149Y48930388D01*
X16717645Y48932577D01*
X16813938Y48935059D01*
X16891140Y48937854D01*
X16951367Y48940978D01*
X16996732Y48944450D01*
X17029350Y48948289D01*
X17051333Y48952513D01*
X17064797Y48957139D01*
X17071855Y48962185D01*
X17072040Y48962404D01*
X17076322Y48973890D01*
X17080252Y48998921D01*
X17083842Y49039491D01*
X17087108Y49097595D01*
X17090065Y49175228D01*
X17092725Y49274384D01*
X17095104Y49397057D01*
X17097215Y49545242D01*
X17099074Y49720933D01*
X17100694Y49926125D01*
X17102089Y50162811D01*
X17103274Y50432988D01*
X17104263Y50738648D01*
X17104390Y50792867D01*
X14601508Y50792867D01*
X14561291Y50643955D01*
X14479406Y50513315D01*
X14358764Y50407898D01*
X14219613Y50340391D01*
X14072060Y50306582D01*
X13901452Y50294031D01*
X13731058Y50303149D01*
X13599961Y50329371D01*
X13530044Y50360289D01*
X12945993Y50360289D01*
X12923742Y50349651D01*
X12870095Y50345738D01*
X12776368Y50347178D01*
X12749639Y50348073D01*
X12539016Y50355500D01*
X12422658Y50549065D01*
X12363045Y50646213D01*
X12306601Y50734732D01*
X12263084Y50799421D01*
X12253658Y50812373D01*
X12201016Y50882116D01*
X12112538Y50758508D01*
X12048914Y50665513D01*
X11979072Y50557365D01*
X11936996Y50488850D01*
X11849932Y50342800D01*
X11639966Y50342800D01*
X11543891Y50344926D01*
X11470935Y50350586D01*
X11432916Y50358709D01*
X11430049Y50361850D01*
X11443351Y50395272D01*
X11479339Y50461479D01*
X11532246Y50551177D01*
X11596304Y50655070D01*
X11665745Y50763860D01*
X11734801Y50868251D01*
X11737181Y50871683D01*
X11209353Y50871683D01*
X11194124Y50715212D01*
X11137561Y50570242D01*
X11077688Y50486148D01*
X11021659Y50440050D01*
X10936191Y50388525D01*
X10840112Y50341988D01*
X10769600Y50315753D01*
X10694735Y50302805D01*
X10587746Y50296089D01*
X10466920Y50295521D01*
X10350538Y50301017D01*
X10256886Y50312493D01*
X10231697Y50318226D01*
X10072772Y50384945D01*
X9944899Y50483995D01*
X9851667Y50608079D01*
X9796665Y50749897D01*
X9783482Y50902152D01*
X9815708Y51057545D01*
X9840006Y51114677D01*
X9881987Y51190610D01*
X9931327Y51254181D01*
X9999867Y51318101D01*
X10099448Y51395083D01*
X10104967Y51399145D01*
X10093277Y51418738D01*
X10054293Y51463055D01*
X10010718Y51508083D01*
X9910479Y51639736D01*
X9852924Y51785114D01*
X9837046Y51935598D01*
X9861837Y52082569D01*
X9926291Y52217407D01*
X10029400Y52331495D01*
X10113649Y52388779D01*
X10182913Y52424565D01*
X10243802Y52446752D01*
X10312350Y52458532D01*
X10404593Y52463093D01*
X10490200Y52463700D01*
X10639527Y52458681D01*
X10753305Y52440430D01*
X10846081Y52404161D01*
X10932401Y52345089D01*
X10981418Y52302051D01*
X11081049Y52178193D01*
X11141765Y52034431D01*
X11163038Y51881311D01*
X11144338Y51729374D01*
X11085137Y51589165D01*
X11021352Y51505772D01*
X10922347Y51401696D01*
X11014526Y51312173D01*
X11118805Y51179957D01*
X11183997Y51029862D01*
X11209353Y50871683D01*
X11737181Y50871683D01*
X11797705Y50958949D01*
X11816856Y50985272D01*
X11944472Y51157844D01*
X11699936Y51524878D01*
X11620281Y51645140D01*
X11551480Y51750358D01*
X11498095Y51833445D01*
X11464688Y51887316D01*
X11455400Y51904756D01*
X11478795Y51910720D01*
X11540967Y51915211D01*
X11629900Y51917471D01*
X11658726Y51917600D01*
X11862052Y51917600D01*
X12016806Y51676300D01*
X12079046Y51580319D01*
X12130849Y51502437D01*
X12166431Y51451219D01*
X12179792Y51435000D01*
X12196796Y51454434D01*
X12236894Y51507286D01*
X12294015Y51585383D01*
X12359073Y51676300D01*
X12530123Y51917600D01*
X12742956Y51917600D01*
X12821508Y51918509D01*
X12878872Y51917673D01*
X12914040Y51909754D01*
X12926003Y51889411D01*
X12913753Y51851306D01*
X12876283Y51790097D01*
X12812585Y51700446D01*
X12721652Y51577012D01*
X12663853Y51498500D01*
X12582050Y51386130D01*
X12511982Y51288207D01*
X12458724Y51211956D01*
X12427348Y51164601D01*
X12421091Y51152743D01*
X12435399Y51125588D01*
X12472437Y51073582D01*
X12499824Y51038443D01*
X12546713Y50976597D01*
X12609148Y50889576D01*
X12680625Y50787002D01*
X12754642Y50678495D01*
X12824697Y50573676D01*
X12884286Y50482165D01*
X12926906Y50413584D01*
X12945535Y50379025D01*
X12945993Y50360289D01*
X13530044Y50360289D01*
X13438908Y50400590D01*
X13314660Y50505291D01*
X13229963Y50639835D01*
X13187564Y50800585D01*
X13183018Y50881539D01*
X13202198Y51042872D01*
X13261693Y51177091D01*
X13365833Y51292939D01*
X13400720Y51321102D01*
X13504248Y51400065D01*
X13399133Y51516168D01*
X13304604Y51651814D01*
X13249555Y51800031D01*
X13233751Y51951643D01*
X13256960Y52097469D01*
X13318946Y52228330D01*
X13419478Y52335048D01*
X13419991Y52335440D01*
X13566527Y52417248D01*
X13736427Y52463543D01*
X13916735Y52474325D01*
X14094495Y52449593D01*
X14256751Y52389348D01*
X14342179Y52335464D01*
X14434148Y52237464D01*
X14504728Y52107386D01*
X14546217Y51962073D01*
X14553952Y51872335D01*
X14537064Y51717173D01*
X14482494Y51588832D01*
X14395509Y51484817D01*
X14307807Y51401369D01*
X14396929Y51323120D01*
X14461204Y51252020D01*
X14522469Y51161051D01*
X14545277Y51117685D01*
X14597141Y50953094D01*
X14601508Y50792867D01*
X17104390Y50792867D01*
X17105070Y51081786D01*
X17105710Y51464398D01*
X17106197Y51888476D01*
X17106544Y52356016D01*
X17106767Y52869013D01*
X17106880Y53429460D01*
X17106900Y53838297D01*
X17106885Y54421053D01*
X17106824Y54955149D01*
X17106700Y55442723D01*
X17106490Y55885914D01*
X17106177Y56286862D01*
X17105739Y56647706D01*
X17105157Y56970584D01*
X17104412Y57257637D01*
X17103482Y57511004D01*
X17102349Y57732823D01*
X17100992Y57925233D01*
X17099392Y58090375D01*
X17097528Y58230386D01*
X17095381Y58347407D01*
X17092931Y58443576D01*
X17091048Y58496200D01*
X16840200Y58496200D01*
X16840200Y53975000D01*
X7518400Y53975000D01*
X7518400Y58496200D01*
X16840200Y58496200D01*
X17091048Y58496200D01*
X17090158Y58521033D01*
X17087042Y58581916D01*
X17083563Y58628366D01*
X17079702Y58662520D01*
X17075438Y58686518D01*
X17070751Y58702500D01*
X17065622Y58712605D01*
X17061543Y58717543D01*
X17054404Y58723011D01*
X17042965Y58728022D01*
X17025087Y58732596D01*
X16998633Y58736753D01*
X16961461Y58740512D01*
X16911433Y58743894D01*
X16846411Y58746918D01*
X16764254Y58749604D01*
X16662823Y58751973D01*
X16539980Y58754044D01*
X16393585Y58755836D01*
X16221500Y58757371D01*
X16021584Y58758667D01*
X15791698Y58759745D01*
X15529705Y58760624D01*
X15233464Y58761325D01*
X14900836Y58761867D01*
X14529682Y58762270D01*
X14117862Y58762555D01*
X13663239Y58762740D01*
X13163672Y58762846D01*
X12617023Y58762892D01*
X12182297Y58762900D01*
X11588476Y58762855D01*
G36*
X13882543Y51206986D02*
X13735923Y51132930D01*
X13632460Y51048399D01*
X13574981Y50956189D01*
X13563600Y50891097D01*
X13586985Y50790582D01*
X13654675Y50710770D01*
X13762978Y50655730D01*
X13782606Y50649832D01*
X13857027Y50630952D01*
X13909100Y50626661D01*
X13965114Y50636883D01*
X14008895Y50649178D01*
X14108145Y50698013D01*
X14182779Y50773302D01*
X14214324Y50841105D01*
X14216221Y50933119D01*
X14186958Y51040266D01*
X14132895Y51143429D01*
X14099406Y51186590D01*
X14028317Y51266151D01*
X13882543Y51206986D01*
X13882543Y51206986D01*
G37*
X13882543Y51206986D02*
X13735923Y51132930D01*
X13632460Y51048399D01*
X13574981Y50956189D01*
X13563600Y50891097D01*
X13586985Y50790582D01*
X13654675Y50710770D01*
X13762978Y50655730D01*
X13782606Y50649832D01*
X13857027Y50630952D01*
X13909100Y50626661D01*
X13965114Y50636883D01*
X14008895Y50649178D01*
X14108145Y50698013D01*
X14182779Y50773302D01*
X14214324Y50841105D01*
X14216221Y50933119D01*
X14186958Y51040266D01*
X14132895Y51143429D01*
X14099406Y51186590D01*
X14028317Y51266151D01*
X13882543Y51206986D01*
G36*
X13802347Y52115068D02*
X13742398Y52091935D01*
X13688647Y52046554D01*
X13632394Y51969641D01*
X13616614Y51884995D01*
X13639935Y51780919D01*
X13653469Y51746264D01*
X13708974Y51638650D01*
X13769433Y51579516D01*
X13841991Y51566589D01*
X13933794Y51597598D01*
X14000403Y51635913D01*
X14097903Y51719258D01*
X14153051Y51812200D01*
X14167830Y51906146D01*
X14144225Y51992504D01*
X14084221Y52062681D01*
X13989802Y52108083D01*
X13888421Y52120800D01*
X13802347Y52115068D01*
X13802347Y52115068D01*
G37*
X13802347Y52115068D02*
X13742398Y52091935D01*
X13688647Y52046554D01*
X13632394Y51969641D01*
X13616614Y51884995D01*
X13639935Y51780919D01*
X13653469Y51746264D01*
X13708974Y51638650D01*
X13769433Y51579516D01*
X13841991Y51566589D01*
X13933794Y51597598D01*
X14000403Y51635913D01*
X14097903Y51719258D01*
X14153051Y51812200D01*
X14167830Y51906146D01*
X14144225Y51992504D01*
X14084221Y52062681D01*
X13989802Y52108083D01*
X13888421Y52120800D01*
X13802347Y52115068D01*
G36*
X10593013Y51241709D02*
X10518232Y51215683D01*
X10425891Y51172738D01*
X10416255Y51167724D01*
X10283513Y51083113D01*
X10200954Y50995362D01*
X10168729Y50904861D01*
X10186992Y50811995D01*
X10243584Y50730112D01*
X10305679Y50684831D01*
X10392150Y50646119D01*
X10476750Y50624772D01*
X10502900Y50623457D01*
X10541160Y50632007D01*
X10606014Y50652203D01*
X10629900Y50660461D01*
X10735324Y50714621D01*
X10797049Y50790000D01*
X10819998Y50893098D01*
X10820400Y50912030D01*
X10806105Y50999313D01*
X10769138Y51092711D01*
X10718379Y51176022D01*
X10662706Y51233047D01*
X10637239Y51246202D01*
X10593013Y51241709D01*
X10593013Y51241709D01*
G37*
X10593013Y51241709D02*
X10518232Y51215683D01*
X10425891Y51172738D01*
X10416255Y51167724D01*
X10283513Y51083113D01*
X10200954Y50995362D01*
X10168729Y50904861D01*
X10186992Y50811995D01*
X10243584Y50730112D01*
X10305679Y50684831D01*
X10392150Y50646119D01*
X10476750Y50624772D01*
X10502900Y50623457D01*
X10541160Y50632007D01*
X10606014Y50652203D01*
X10629900Y50660461D01*
X10735324Y50714621D01*
X10797049Y50790000D01*
X10819998Y50893098D01*
X10820400Y50912030D01*
X10806105Y50999313D01*
X10769138Y51092711D01*
X10718379Y51176022D01*
X10662706Y51233047D01*
X10637239Y51246202D01*
X10593013Y51241709D01*
G36*
X10397831Y52114385D02*
X10336838Y52090414D01*
X10298546Y52058455D01*
X10247398Y51973957D01*
X10234382Y51870165D01*
X10257703Y51759189D01*
X10315563Y51653142D01*
X10367137Y51595967D01*
X10426700Y51541034D01*
X10544917Y51601568D01*
X10666382Y51680606D01*
X10740197Y51770308D01*
X10768993Y51874091D01*
X10769600Y51893368D01*
X10747373Y51992284D01*
X10684226Y52065856D01*
X10585462Y52109816D01*
X10487097Y52120800D01*
X10397831Y52114385D01*
X10397831Y52114385D01*
G37*
X10397831Y52114385D02*
X10336838Y52090414D01*
X10298546Y52058455D01*
X10247398Y51973957D01*
X10234382Y51870165D01*
X10257703Y51759189D01*
X10315563Y51653142D01*
X10367137Y51595967D01*
X10426700Y51541034D01*
X10544917Y51601568D01*
X10666382Y51680606D01*
X10740197Y51770308D01*
X10768993Y51874091D01*
X10769600Y51893368D01*
X10747373Y51992284D01*
X10684226Y52065856D01*
X10585462Y52109816D01*
X10487097Y52120800D01*
X10397831Y52114385D01*
G36*
X15875000Y56455291D02*
X15873995Y56199744D01*
X15871022Y55986553D01*
X15866143Y55817624D01*
X15859422Y55694860D01*
X15850921Y55620166D01*
X15846847Y55603619D01*
X15792646Y55521258D01*
X15701569Y55468060D01*
X15580993Y55448240D01*
X15574887Y55448200D01*
X15461972Y55470895D01*
X15374753Y55535577D01*
X15319872Y55637143D01*
X15317217Y55646206D01*
X15309928Y55698187D01*
X15303539Y55794672D01*
X15298249Y55929373D01*
X15294255Y56095999D01*
X15291754Y56288260D01*
X15290942Y56483250D01*
X15290800Y57226200D01*
X14884400Y57226200D01*
X14884400Y56430711D01*
X14884843Y56195392D01*
X14886337Y56005024D01*
X14889131Y55853764D01*
X14893472Y55735767D01*
X14899611Y55645192D01*
X14907795Y55576194D01*
X14918273Y55522930D01*
X14923900Y55502211D01*
X14993076Y55354761D01*
X15100982Y55235165D01*
X15239569Y55151473D01*
X15294011Y55132100D01*
X15421313Y55107381D01*
X15574403Y55096806D01*
X15730191Y55100678D01*
X15865586Y55119302D01*
X15886239Y55124305D01*
X15978329Y55167655D01*
X16076337Y55243868D01*
X16166186Y55339107D01*
X16233800Y55439534D01*
X16254498Y55486300D01*
X16265399Y55531075D01*
X16274512Y55600590D01*
X16282063Y55699382D01*
X16288276Y55831984D01*
X16293378Y56002931D01*
X16297594Y56216756D01*
X16300298Y56407050D01*
X16310536Y57226200D01*
X15875000Y57226200D01*
X15875000Y56455291D01*
X15875000Y56455291D01*
G37*
X15875000Y56455291D02*
X15873995Y56199744D01*
X15871022Y55986553D01*
X15866143Y55817624D01*
X15859422Y55694860D01*
X15850921Y55620166D01*
X15846847Y55603619D01*
X15792646Y55521258D01*
X15701569Y55468060D01*
X15580993Y55448240D01*
X15574887Y55448200D01*
X15461972Y55470895D01*
X15374753Y55535577D01*
X15319872Y55637143D01*
X15317217Y55646206D01*
X15309928Y55698187D01*
X15303539Y55794672D01*
X15298249Y55929373D01*
X15294255Y56095999D01*
X15291754Y56288260D01*
X15290942Y56483250D01*
X15290800Y57226200D01*
X14884400Y57226200D01*
X14884400Y56430711D01*
X14884843Y56195392D01*
X14886337Y56005024D01*
X14889131Y55853764D01*
X14893472Y55735767D01*
X14899611Y55645192D01*
X14907795Y55576194D01*
X14918273Y55522930D01*
X14923900Y55502211D01*
X14993076Y55354761D01*
X15100982Y55235165D01*
X15239569Y55151473D01*
X15294011Y55132100D01*
X15421313Y55107381D01*
X15574403Y55096806D01*
X15730191Y55100678D01*
X15865586Y55119302D01*
X15886239Y55124305D01*
X15978329Y55167655D01*
X16076337Y55243868D01*
X16166186Y55339107D01*
X16233800Y55439534D01*
X16254498Y55486300D01*
X16265399Y55531075D01*
X16274512Y55600590D01*
X16282063Y55699382D01*
X16288276Y55831984D01*
X16293378Y56002931D01*
X16297594Y56216756D01*
X16300298Y56407050D01*
X16310536Y57226200D01*
X15875000Y57226200D01*
X15875000Y56455291D01*
G36*
X10363200Y56173296D02*
X10361652Y55951313D01*
X10357028Y55777848D01*
X10349360Y55653549D01*
X10338678Y55579060D01*
X10333617Y55563462D01*
X10280299Y55497568D01*
X10194203Y55464703D01*
X10073368Y55464651D01*
X9915836Y55497195D01*
X9866017Y55511770D01*
X9837144Y55515977D01*
X9818186Y55500092D01*
X9804008Y55454183D01*
X9789475Y55368319D01*
X9788503Y55361838D01*
X9763673Y55195686D01*
X9866587Y55154239D01*
X9973986Y55124130D01*
X10105708Y55106018D01*
X10242920Y55100750D01*
X10366790Y55109171D01*
X10448614Y55128127D01*
X10544397Y55172233D01*
X10620145Y55228962D01*
X10678347Y55304446D01*
X10721493Y55404818D01*
X10752070Y55536209D01*
X10772568Y55704752D01*
X10785475Y55916578D01*
X10787287Y55962550D01*
X10802930Y56388000D01*
X11226800Y56388000D01*
X11226800Y56718200D01*
X10363200Y56718200D01*
X10363200Y56173296D01*
X10363200Y56173296D01*
G37*
X10363200Y56173296D02*
X10361652Y55951313D01*
X10357028Y55777848D01*
X10349360Y55653549D01*
X10338678Y55579060D01*
X10333617Y55563462D01*
X10280299Y55497568D01*
X10194203Y55464703D01*
X10073368Y55464651D01*
X9915836Y55497195D01*
X9866017Y55511770D01*
X9837144Y55515977D01*
X9818186Y55500092D01*
X9804008Y55454183D01*
X9789475Y55368319D01*
X9788503Y55361838D01*
X9763673Y55195686D01*
X9866587Y55154239D01*
X9973986Y55124130D01*
X10105708Y55106018D01*
X10242920Y55100750D01*
X10366790Y55109171D01*
X10448614Y55128127D01*
X10544397Y55172233D01*
X10620145Y55228962D01*
X10678347Y55304446D01*
X10721493Y55404818D01*
X10752070Y55536209D01*
X10772568Y55704752D01*
X10785475Y55916578D01*
X10787287Y55962550D01*
X10802930Y56388000D01*
X11226800Y56388000D01*
X11226800Y56718200D01*
X10363200Y56718200D01*
X10363200Y56173296D01*
G36*
X14071600Y55473600D02*
X13182600Y55473600D01*
X13182600Y55143400D01*
X14503400Y55143400D01*
X14503400Y57226200D01*
X14071600Y57226200D01*
X14071600Y55473600D01*
X14071600Y55473600D01*
G37*
X14071600Y55473600D02*
X13182600Y55473600D01*
X13182600Y55143400D01*
X14503400Y55143400D01*
X14503400Y57226200D01*
X14071600Y57226200D01*
X14071600Y55473600D01*
G36*
X11435190Y57054750D02*
X11442700Y56883300D01*
X11988800Y56868882D01*
X11988800Y55143400D01*
X12395200Y55143400D01*
X12395200Y56870600D01*
X12954000Y56870600D01*
X12954000Y57226200D01*
X12190840Y57226201D01*
X11427679Y57226201D01*
X11435190Y57054750D01*
X11435190Y57054750D01*
G37*
X11435190Y57054750D02*
X11442700Y56883300D01*
X11988800Y56868882D01*
X11988800Y55143400D01*
X12395200Y55143400D01*
X12395200Y56870600D01*
X12954000Y56870600D01*
X12954000Y57226200D01*
X12190840Y57226201D01*
X11427679Y57226201D01*
X11435190Y57054750D01*
G36*
X8236299Y57224474D02*
X8182365Y57217540D01*
X8158153Y57202764D01*
X8153089Y57181750D01*
X8150873Y57142343D01*
X8144946Y57061873D01*
X8136059Y56949882D01*
X8124962Y56815911D01*
X8116629Y56718200D01*
X8102413Y56541575D01*
X8088555Y56348542D01*
X8076424Y56159529D01*
X8067387Y55994962D01*
X8065604Y55956200D01*
X8058550Y55801782D01*
X8050552Y55639602D01*
X8042625Y55489617D01*
X8036193Y55378350D01*
X8021660Y55143400D01*
X8406656Y55143400D01*
X8413378Y55910506D01*
X8420100Y56677611D01*
X8648700Y55880099D01*
X8804151Y55880050D01*
X8959602Y55880000D01*
X9182100Y56680100D01*
X9188823Y55911750D01*
X9195545Y55143400D01*
X9578877Y55143400D01*
X9565187Y55314850D01*
X9559198Y55404002D01*
X9552311Y55529027D01*
X9545278Y55675027D01*
X9538850Y55827102D01*
X9537314Y55867300D01*
X9529458Y56054653D01*
X9519554Y56254298D01*
X9508240Y56456162D01*
X9496151Y56650174D01*
X9483923Y56826262D01*
X9472193Y56974355D01*
X9461596Y57084380D01*
X9459100Y57105550D01*
X9444034Y57226200D01*
X9102356Y57226200D01*
X8806624Y56299100D01*
X8657071Y56762650D01*
X8507518Y57226201D01*
X8330459Y57226201D01*
X8236299Y57224474D01*
X8236299Y57224474D01*
G37*
X8236299Y57224474D02*
X8182365Y57217540D01*
X8158153Y57202764D01*
X8153089Y57181750D01*
X8150873Y57142343D01*
X8144946Y57061873D01*
X8136059Y56949882D01*
X8124962Y56815911D01*
X8116629Y56718200D01*
X8102413Y56541575D01*
X8088555Y56348542D01*
X8076424Y56159529D01*
X8067387Y55994962D01*
X8065604Y55956200D01*
X8058550Y55801782D01*
X8050552Y55639602D01*
X8042625Y55489617D01*
X8036193Y55378350D01*
X8021660Y55143400D01*
X8406656Y55143400D01*
X8413378Y55910506D01*
X8420100Y56677611D01*
X8648700Y55880099D01*
X8804151Y55880050D01*
X8959602Y55880000D01*
X9182100Y56680100D01*
X9188823Y55911750D01*
X9195545Y55143400D01*
X9578877Y55143400D01*
X9565187Y55314850D01*
X9559198Y55404002D01*
X9552311Y55529027D01*
X9545278Y55675027D01*
X9538850Y55827102D01*
X9537314Y55867300D01*
X9529458Y56054653D01*
X9519554Y56254298D01*
X9508240Y56456162D01*
X9496151Y56650174D01*
X9483923Y56826262D01*
X9472193Y56974355D01*
X9461596Y57084380D01*
X9459100Y57105550D01*
X9444034Y57226200D01*
X9102356Y57226200D01*
X8806624Y56299100D01*
X8657071Y56762650D01*
X8507518Y57226201D01*
X8330459Y57226201D01*
X8236299Y57224474D01*
G36*
X10520673Y57411944D02*
X10447560Y57350966D01*
X10400224Y57268631D01*
X10384338Y57174499D01*
X10405576Y57078130D01*
X10462847Y56995647D01*
X10556156Y56934401D01*
X10660527Y56919435D01*
X10765533Y56950998D01*
X10818452Y56987158D01*
X10868490Y57037564D01*
X10891247Y57091649D01*
X10896600Y57172007D01*
X10881723Y57288758D01*
X10834101Y57369943D01*
X10749252Y57422207D01*
X10721536Y57431582D01*
X10613889Y57442002D01*
X10520673Y57411944D01*
X10520673Y57411944D01*
G37*
X10520673Y57411944D02*
X10447560Y57350966D01*
X10400224Y57268631D01*
X10384338Y57174499D01*
X10405576Y57078130D01*
X10462847Y56995647D01*
X10556156Y56934401D01*
X10660527Y56919435D01*
X10765533Y56950998D01*
X10818452Y56987158D01*
X10868490Y57037564D01*
X10891247Y57091649D01*
X10896600Y57172007D01*
X10881723Y57288758D01*
X10834101Y57369943D01*
X10749252Y57422207D01*
X10721536Y57431582D01*
X10613889Y57442002D01*
X10520673Y57411944D01*
D17*
X26518809Y22980952D02*
X27728333Y22980952D01*
X27849285Y21771429D01*
X27728333Y21892381D01*
X27486428Y22013333D01*
X26881666Y22013333D01*
X26639762Y21892381D01*
X26518809Y21771429D01*
X26397857Y21529524D01*
X26397857Y20924762D01*
X26518809Y20682857D01*
X26639762Y20561905D01*
X26881666Y20440952D01*
X27486428Y20440952D01*
X27728333Y20561905D01*
X27849285Y20682857D01*
X25672142Y22980952D02*
X24825476Y20440952D01*
X23978809Y22980952D01*
X34828238Y40386000D02*
X35070143Y40506952D01*
X35433000Y40506952D01*
X35795857Y40386000D01*
X36037762Y40144095D01*
X36158714Y39902190D01*
X36279666Y39418381D01*
X36279666Y39055524D01*
X36158714Y38571714D01*
X36037762Y38329810D01*
X35795857Y38087905D01*
X35433000Y37966952D01*
X35191095Y37966952D01*
X34828238Y38087905D01*
X34707286Y38208857D01*
X34707286Y39055524D01*
X35191095Y39055524D01*
X33618714Y37966952D02*
X33618714Y40506952D01*
X32167286Y37966952D01*
X32167286Y40506952D01*
X30957762Y37966952D02*
X30957762Y40506952D01*
X30353000Y40506952D01*
X29990143Y40386000D01*
X29748238Y40144095D01*
X29627286Y39902190D01*
X29506334Y39418381D01*
X29506334Y39055524D01*
X29627286Y38571714D01*
X29748238Y38329810D01*
X29990143Y38087905D01*
X30353000Y37966952D01*
X30957762Y37966952D01*
D16*
X56061429Y50328286D02*
X55945315Y50328286D01*
X55887257Y50292000D01*
X55829200Y50219429D01*
X55800172Y50074286D01*
X55800172Y49820286D01*
X55829200Y49675143D01*
X55887257Y49602571D01*
X55945315Y49566286D01*
X56061429Y49566286D01*
X56119486Y49602571D01*
X56177543Y49675143D01*
X56206572Y49820286D01*
X56206572Y50074286D01*
X56177543Y50219429D01*
X56119486Y50292000D01*
X56061429Y50328286D01*
X55538914Y50074286D02*
X55538914Y49312286D01*
X55538914Y50038000D02*
X55480857Y50074286D01*
X55364743Y50074286D01*
X55306686Y50038000D01*
X55277657Y50001714D01*
X55248628Y49929143D01*
X55248628Y49711429D01*
X55277657Y49638857D01*
X55306686Y49602571D01*
X55364743Y49566286D01*
X55480857Y49566286D01*
X55538914Y49602571D01*
X54755143Y49602571D02*
X54813200Y49566286D01*
X54929314Y49566286D01*
X54987371Y49602571D01*
X55016400Y49675143D01*
X55016400Y49965429D01*
X54987371Y50038000D01*
X54929314Y50074286D01*
X54813200Y50074286D01*
X54755143Y50038000D01*
X54726114Y49965429D01*
X54726114Y49892857D01*
X55016400Y49820286D01*
X54464857Y50074286D02*
X54464857Y49566286D01*
X54464857Y50001714D02*
X54435829Y50038000D01*
X54377771Y50074286D01*
X54290686Y50074286D01*
X54232629Y50038000D01*
X54203600Y49965429D01*
X54203600Y49566286D01*
X53913314Y49566286D02*
X53913314Y50328286D01*
X53913314Y49965429D02*
X53564971Y49965429D01*
X53564971Y49566286D02*
X53564971Y50328286D01*
X53013428Y49566286D02*
X53013428Y49965429D01*
X53042457Y50038000D01*
X53100514Y50074286D01*
X53216628Y50074286D01*
X53274685Y50038000D01*
X53013428Y49602571D02*
X53071485Y49566286D01*
X53216628Y49566286D01*
X53274685Y49602571D01*
X53303714Y49675143D01*
X53303714Y49747714D01*
X53274685Y49820286D01*
X53216628Y49856571D01*
X53071485Y49856571D01*
X53013428Y49892857D01*
X52723142Y49566286D02*
X52723142Y50074286D01*
X52723142Y49929143D02*
X52694114Y50001714D01*
X52665085Y50038000D01*
X52607028Y50074286D01*
X52548971Y50074286D01*
X52084514Y49566286D02*
X52084514Y50328286D01*
X52084514Y49602571D02*
X52142571Y49566286D01*
X52258685Y49566286D01*
X52316743Y49602571D01*
X52345771Y49638857D01*
X52374800Y49711429D01*
X52374800Y49929143D01*
X52345771Y50001714D01*
X52316743Y50038000D01*
X52258685Y50074286D01*
X52142571Y50074286D01*
X52084514Y50038000D01*
X51852285Y50074286D02*
X51736171Y49566286D01*
X51620057Y49929143D01*
X51503942Y49566286D01*
X51387828Y50074286D01*
X50894342Y49566286D02*
X50894342Y49965429D01*
X50923371Y50038000D01*
X50981428Y50074286D01*
X51097542Y50074286D01*
X51155599Y50038000D01*
X50894342Y49602571D02*
X50952399Y49566286D01*
X51097542Y49566286D01*
X51155599Y49602571D01*
X51184628Y49675143D01*
X51184628Y49747714D01*
X51155599Y49820286D01*
X51097542Y49856571D01*
X50952399Y49856571D01*
X50894342Y49892857D01*
X50604056Y49566286D02*
X50604056Y50074286D01*
X50604056Y49929143D02*
X50575028Y50001714D01*
X50545999Y50038000D01*
X50487942Y50074286D01*
X50429885Y50074286D01*
X49994457Y49602571D02*
X50052514Y49566286D01*
X50168628Y49566286D01*
X50226685Y49602571D01*
X50255714Y49675143D01*
X50255714Y49965429D01*
X50226685Y50038000D01*
X50168628Y50074286D01*
X50052514Y50074286D01*
X49994457Y50038000D01*
X49965428Y49965429D01*
X49965428Y49892857D01*
X50255714Y49820286D01*
D11*
X14816667Y3616476D02*
X14816667Y4886476D01*
X14393334Y3979333D01*
X13970000Y4886476D01*
X13970000Y3616476D01*
X12820952Y3616476D02*
X12820952Y4281714D01*
X12881429Y4402667D01*
X13002381Y4463143D01*
X13244286Y4463143D01*
X13365238Y4402667D01*
X12820952Y3676952D02*
X12941905Y3616476D01*
X13244286Y3616476D01*
X13365238Y3676952D01*
X13425714Y3797905D01*
X13425714Y3918857D01*
X13365238Y4039810D01*
X13244286Y4100286D01*
X12941905Y4100286D01*
X12820952Y4160762D01*
X12216190Y4463143D02*
X12216190Y3616476D01*
X12216190Y4342190D02*
X12155714Y4402667D01*
X12034761Y4463143D01*
X11853333Y4463143D01*
X11732381Y4402667D01*
X11671904Y4281714D01*
X11671904Y3616476D01*
X11067142Y3616476D02*
X11067142Y4463143D01*
X11067142Y4886476D02*
X11127618Y4826000D01*
X11067142Y4765524D01*
X11006666Y4826000D01*
X11067142Y4886476D01*
X11067142Y4765524D01*
X9918094Y3616476D02*
X9918094Y4281714D01*
X9978571Y4402667D01*
X10099523Y4463143D01*
X10341428Y4463143D01*
X10462380Y4402667D01*
X9918094Y3676952D02*
X10039047Y3616476D01*
X10341428Y3616476D01*
X10462380Y3676952D01*
X10522856Y3797905D01*
X10522856Y3918857D01*
X10462380Y4039810D01*
X10341428Y4100286D01*
X10039047Y4100286D01*
X9918094Y4160762D01*
X8769046Y3676952D02*
X8889999Y3616476D01*
X9131903Y3616476D01*
X9252856Y3676952D01*
X9313332Y3737429D01*
X9373808Y3858381D01*
X9373808Y4221238D01*
X9313332Y4342190D01*
X9252856Y4402667D01*
X9131903Y4463143D01*
X8889999Y4463143D01*
X8769046Y4402667D01*
X7680475Y3616476D02*
X7680475Y4281714D01*
X7740952Y4402667D01*
X7861904Y4463143D01*
X8103809Y4463143D01*
X8224761Y4402667D01*
X7680475Y3676952D02*
X7801428Y3616476D01*
X8103809Y3616476D01*
X8224761Y3676952D01*
X8285237Y3797905D01*
X8285237Y3918857D01*
X8224761Y4039810D01*
X8103809Y4100286D01*
X7801428Y4100286D01*
X7680475Y4160762D01*
X6894284Y3616476D02*
X7015237Y3676952D01*
X7075713Y3797905D01*
X7075713Y4886476D01*
X4838094Y3616476D02*
X5442856Y3616476D01*
X5442856Y4886476D01*
X3870475Y3616476D02*
X3870475Y4281714D01*
X3930952Y4402667D01*
X4051904Y4463143D01*
X4293809Y4463143D01*
X4414761Y4402667D01*
X3870475Y3676952D02*
X3991428Y3616476D01*
X4293809Y3616476D01*
X4414761Y3676952D01*
X4475237Y3797905D01*
X4475237Y3918857D01*
X4414761Y4039810D01*
X4293809Y4100286D01*
X3991428Y4100286D01*
X3870475Y4160762D01*
X3265713Y3616476D02*
X3265713Y4886476D01*
X3265713Y4402667D02*
X3144761Y4463143D01*
X2902856Y4463143D01*
X2781904Y4402667D01*
X2721427Y4342190D01*
X2660951Y4221238D01*
X2660951Y3858381D01*
X2721427Y3737429D01*
X2781904Y3676952D01*
X2902856Y3616476D01*
X3144761Y3616476D01*
X3265713Y3676952D01*
X2177141Y3676952D02*
X2056189Y3616476D01*
X1814284Y3616476D01*
X1693332Y3676952D01*
X1632856Y3797905D01*
X1632856Y3858381D01*
X1693332Y3979333D01*
X1814284Y4039810D01*
X1995713Y4039810D01*
X2116665Y4100286D01*
X2177141Y4221238D01*
X2177141Y4281714D01*
X2116665Y4402667D01*
X1995713Y4463143D01*
X1814284Y4463143D01*
X1693332Y4402667D01*
X57966428Y11871476D02*
X57664047Y10601476D01*
X57422143Y11508619D01*
X57180238Y10601476D01*
X56877857Y11871476D01*
X56514999Y11448143D02*
X56212618Y10601476D01*
X55910238Y11448143D02*
X56212618Y10601476D01*
X56333571Y10299095D01*
X56394047Y10238619D01*
X56514999Y10178143D01*
X55244999Y10601476D02*
X55365952Y10661952D01*
X55426428Y10722429D01*
X55486904Y10843381D01*
X55486904Y11206238D01*
X55426428Y11327190D01*
X55365952Y11387667D01*
X55244999Y11448143D01*
X55063571Y11448143D01*
X54942619Y11387667D01*
X54882142Y11327190D01*
X54821666Y11206238D01*
X54821666Y10843381D01*
X54882142Y10722429D01*
X54942619Y10661952D01*
X55063571Y10601476D01*
X55244999Y10601476D01*
X54095951Y10601476D02*
X54216904Y10661952D01*
X54277380Y10782905D01*
X54277380Y11871476D01*
X53067856Y11448143D02*
X53067856Y10601476D01*
X53612142Y11448143D02*
X53612142Y10782905D01*
X53551666Y10661952D01*
X53430713Y10601476D01*
X53249285Y10601476D01*
X53128333Y10661952D01*
X53067856Y10722429D01*
X52463094Y10601476D02*
X52463094Y11448143D01*
X52463094Y11327190D02*
X52402618Y11387667D01*
X52281665Y11448143D01*
X52100237Y11448143D01*
X51979285Y11387667D01*
X51918808Y11266714D01*
X51918808Y10601476D01*
X51918808Y11266714D02*
X51858332Y11387667D01*
X51737380Y11448143D01*
X51555951Y11448143D01*
X51434999Y11387667D01*
X51374523Y11266714D01*
X51374523Y10601476D01*
D18*
X33642904Y54150381D02*
X33642904Y55166381D01*
X33255857Y55166381D01*
X33159095Y55118000D01*
X33110714Y55069619D01*
X33062333Y54972857D01*
X33062333Y54827714D01*
X33110714Y54730952D01*
X33159095Y54682571D01*
X33255857Y54634190D01*
X33642904Y54634190D01*
X32191476Y55166381D02*
X32384999Y55166381D01*
X32481761Y55118000D01*
X32530142Y55069619D01*
X32626904Y54924476D01*
X32675285Y54730952D01*
X32675285Y54343905D01*
X32626904Y54247143D01*
X32578523Y54198762D01*
X32481761Y54150381D01*
X32288238Y54150381D01*
X32191476Y54198762D01*
X32143095Y54247143D01*
X32094714Y54343905D01*
X32094714Y54585810D01*
X32143095Y54682571D01*
X32191476Y54730952D01*
X32288238Y54779333D01*
X32481761Y54779333D01*
X32578523Y54730952D01*
X32626904Y54682571D01*
X32675285Y54585810D01*
X35432999Y52626381D02*
X35239476Y52626381D01*
X35142714Y52578000D01*
X35045952Y52481238D01*
X34997571Y52287714D01*
X34997571Y51949048D01*
X35045952Y51755524D01*
X35142714Y51658762D01*
X35239476Y51610381D01*
X35432999Y51610381D01*
X35529761Y51658762D01*
X35626523Y51755524D01*
X35674904Y51949048D01*
X35674904Y52287714D01*
X35626523Y52481238D01*
X35529761Y52578000D01*
X35432999Y52626381D01*
X34126714Y52287714D02*
X34126714Y51610381D01*
X34562142Y52287714D02*
X34562142Y51755524D01*
X34513761Y51658762D01*
X34416999Y51610381D01*
X34271857Y51610381D01*
X34175095Y51658762D01*
X34126714Y51707143D01*
X33788047Y52287714D02*
X33400999Y52287714D01*
X33642904Y52626381D02*
X33642904Y51755524D01*
X33594523Y51658762D01*
X33497761Y51610381D01*
X33400999Y51610381D01*
X33062333Y52287714D02*
X33062333Y51271714D01*
X33062333Y52239333D02*
X32965571Y52287714D01*
X32772048Y52287714D01*
X32675286Y52239333D01*
X32626905Y52190952D01*
X32578524Y52094190D01*
X32578524Y51803905D01*
X32626905Y51707143D01*
X32675286Y51658762D01*
X32772048Y51610381D01*
X32965571Y51610381D01*
X33062333Y51658762D01*
X31707667Y52287714D02*
X31707667Y51610381D01*
X32143095Y52287714D02*
X32143095Y51755524D01*
X32094714Y51658762D01*
X31997952Y51610381D01*
X31852810Y51610381D01*
X31756048Y51658762D01*
X31707667Y51707143D01*
X31369000Y52287714D02*
X30981952Y52287714D01*
X31223857Y52626381D02*
X31223857Y51755524D01*
X31175476Y51658762D01*
X31078714Y51610381D01*
X30981952Y51610381D01*
X30691667Y52529619D02*
X30643286Y52578000D01*
X30546524Y52626381D01*
X30304620Y52626381D01*
X30207858Y52578000D01*
X30159477Y52529619D01*
X30111096Y52432857D01*
X30111096Y52336095D01*
X30159477Y52190952D01*
X30740048Y51610381D01*
X30111096Y51610381D01*
X33642904Y5890381D02*
X33642904Y6906381D01*
X33255857Y6906381D01*
X33159095Y6858000D01*
X33110714Y6809619D01*
X33062333Y6712857D01*
X33062333Y6567714D01*
X33110714Y6470952D01*
X33159095Y6422571D01*
X33255857Y6374190D01*
X33642904Y6374190D01*
X32143095Y6906381D02*
X32626904Y6906381D01*
X32675285Y6422571D01*
X32626904Y6470952D01*
X32530142Y6519333D01*
X32288238Y6519333D01*
X32191476Y6470952D01*
X32143095Y6422571D01*
X32094714Y6325810D01*
X32094714Y6083905D01*
X32143095Y5987143D01*
X32191476Y5938762D01*
X32288238Y5890381D01*
X32530142Y5890381D01*
X32626904Y5938762D01*
X32675285Y5987143D01*
X35045952Y8430381D02*
X35045952Y9446381D01*
X34562142Y9107714D02*
X34562142Y8430381D01*
X34562142Y9010952D02*
X34513761Y9059333D01*
X34416999Y9107714D01*
X34271857Y9107714D01*
X34175095Y9059333D01*
X34126714Y8962571D01*
X34126714Y8430381D01*
X33642904Y9107714D02*
X33642904Y8091714D01*
X33642904Y9059333D02*
X33546142Y9107714D01*
X33352619Y9107714D01*
X33255857Y9059333D01*
X33207476Y9010952D01*
X33159095Y8914190D01*
X33159095Y8623905D01*
X33207476Y8527143D01*
X33255857Y8478762D01*
X33352619Y8430381D01*
X33546142Y8430381D01*
X33642904Y8478762D01*
X32288238Y9107714D02*
X32288238Y8430381D01*
X32723666Y9107714D02*
X32723666Y8575524D01*
X32675285Y8478762D01*
X32578523Y8430381D01*
X32433381Y8430381D01*
X32336619Y8478762D01*
X32288238Y8527143D01*
X31949571Y9107714D02*
X31562523Y9107714D01*
X31804428Y9446381D02*
X31804428Y8575524D01*
X31756047Y8478762D01*
X31659285Y8430381D01*
X31562523Y8430381D01*
X31272238Y9349619D02*
X31223857Y9398000D01*
X31127095Y9446381D01*
X30885191Y9446381D01*
X30788429Y9398000D01*
X30740048Y9349619D01*
X30691667Y9252857D01*
X30691667Y9156095D01*
X30740048Y9010952D01*
X31320619Y8430381D01*
X30691667Y8430381D01*
X55323619Y29070904D02*
X54307619Y29070904D01*
X54307619Y28683857D01*
X54356000Y28587095D01*
X54404381Y28538714D01*
X54501143Y28490333D01*
X54646286Y28490333D01*
X54743048Y28538714D01*
X54791429Y28587095D01*
X54839810Y28683857D01*
X54839810Y29070904D01*
X54404381Y28103285D02*
X54356000Y28054904D01*
X54307619Y27958142D01*
X54307619Y27716238D01*
X54356000Y27619476D01*
X54404381Y27571095D01*
X54501143Y27522714D01*
X54597905Y27522714D01*
X54743048Y27571095D01*
X55323619Y28151666D01*
X55323619Y27522714D01*
X51513619Y30733999D02*
X51513619Y30540476D01*
X51562000Y30443714D01*
X51658762Y30346952D01*
X51852286Y30298571D01*
X52190952Y30298571D01*
X52384476Y30346952D01*
X52481238Y30443714D01*
X52529619Y30540476D01*
X52529619Y30733999D01*
X52481238Y30830761D01*
X52384476Y30927523D01*
X52190952Y30975904D01*
X51852286Y30975904D01*
X51658762Y30927523D01*
X51562000Y30830761D01*
X51513619Y30733999D01*
X51852286Y29427714D02*
X52529619Y29427714D01*
X51852286Y29863142D02*
X52384476Y29863142D01*
X52481238Y29814761D01*
X52529619Y29717999D01*
X52529619Y29572857D01*
X52481238Y29476095D01*
X52432857Y29427714D01*
X51852286Y29089047D02*
X51852286Y28701999D01*
X51513619Y28943904D02*
X52384476Y28943904D01*
X52481238Y28895523D01*
X52529619Y28798761D01*
X52529619Y28701999D01*
X51852286Y28363333D02*
X52868286Y28363333D01*
X51900667Y28363333D02*
X51852286Y28266571D01*
X51852286Y28073048D01*
X51900667Y27976286D01*
X51949048Y27927905D01*
X52045810Y27879524D01*
X52336095Y27879524D01*
X52432857Y27927905D01*
X52481238Y27976286D01*
X52529619Y28073048D01*
X52529619Y28266571D01*
X52481238Y28363333D01*
X51852286Y27008667D02*
X52529619Y27008667D01*
X51852286Y27444095D02*
X52384476Y27444095D01*
X52481238Y27395714D01*
X52529619Y27298952D01*
X52529619Y27153810D01*
X52481238Y27057048D01*
X52432857Y27008667D01*
X51852286Y26670000D02*
X51852286Y26282952D01*
X51513619Y26524857D02*
X52384476Y26524857D01*
X52481238Y26476476D01*
X52529619Y26379714D01*
X52529619Y26282952D01*
X52529619Y25412096D02*
X52529619Y25992667D01*
X52529619Y25702381D02*
X51513619Y25702381D01*
X51658762Y25799143D01*
X51755524Y25895905D01*
X51803905Y25992667D01*
X6936619Y28943904D02*
X5920619Y28943904D01*
X5920619Y28556857D01*
X5969000Y28460095D01*
X6017381Y28411714D01*
X6114143Y28363333D01*
X6259286Y28363333D01*
X6356048Y28411714D01*
X6404429Y28460095D01*
X6452810Y28556857D01*
X6452810Y28943904D01*
X6936619Y27395714D02*
X6936619Y27976285D01*
X6936619Y27685999D02*
X5920619Y27685999D01*
X6065762Y27782761D01*
X6162524Y27879523D01*
X6210905Y27976285D01*
X9349619Y30219952D02*
X8333619Y30219952D01*
X8672286Y29736142D02*
X9349619Y29736142D01*
X8769048Y29736142D02*
X8720667Y29687761D01*
X8672286Y29590999D01*
X8672286Y29445857D01*
X8720667Y29349095D01*
X8817429Y29300714D01*
X9349619Y29300714D01*
X8672286Y28816904D02*
X9688286Y28816904D01*
X8720667Y28816904D02*
X8672286Y28720142D01*
X8672286Y28526619D01*
X8720667Y28429857D01*
X8769048Y28381476D01*
X8865810Y28333095D01*
X9156095Y28333095D01*
X9252857Y28381476D01*
X9301238Y28429857D01*
X9349619Y28526619D01*
X9349619Y28720142D01*
X9301238Y28816904D01*
X8672286Y27462238D02*
X9349619Y27462238D01*
X8672286Y27897666D02*
X9204476Y27897666D01*
X9301238Y27849285D01*
X9349619Y27752523D01*
X9349619Y27607381D01*
X9301238Y27510619D01*
X9252857Y27462238D01*
X8672286Y27123571D02*
X8672286Y26736523D01*
X8333619Y26978428D02*
X9204476Y26978428D01*
X9301238Y26930047D01*
X9349619Y26833285D01*
X9349619Y26736523D01*
X9349619Y25865667D02*
X9349619Y26446238D01*
X9349619Y26155952D02*
X8333619Y26155952D01*
X8478762Y26252714D01*
X8575524Y26349476D01*
X8623905Y26446238D01*
D10*
X12246429Y27404785D02*
X12246429Y26824214D01*
X12536714Y27114500D02*
X11956143Y27114500D01*
X35106429Y27404785D02*
X35106429Y26824214D01*
X35396714Y27114500D02*
X34816143Y27114500D01*
%LPC*%
D19*
X30480000Y31496000D03*
X30480000Y29464000D03*
X22860000Y31496000D03*
X22860000Y29464000D03*
D20*
X19050000Y19050000D03*
X41910000Y41910000D03*
D21*
X22860000Y55880000D03*
X22860000Y53340000D03*
X22860000Y50800000D03*
X22860000Y10160000D03*
X22860000Y7620000D03*
X22860000Y5080000D03*
D22*
X55880000Y38100000D03*
X53340000Y38100000D03*
X50800000Y38100000D03*
X10160000Y38100000D03*
X7620000Y38100000D03*
X5080000Y38100000D03*
D23*
X25870000Y2210000D03*
X3010000Y2210000D03*
X10630000Y2210000D03*
X18250000Y2210000D03*
X33490000Y2210000D03*
X41110000Y2210000D03*
X48730000Y2210000D03*
X56350000Y2210000D03*
X57950000Y13030000D03*
X50330000Y13030000D03*
X42710000Y13030000D03*
X35090000Y13030000D03*
X27470000Y13030000D03*
X19850000Y13030000D03*
X12230000Y13030000D03*
X3010000Y17450000D03*
X10630000Y17450000D03*
X11430000Y19050000D03*
X25870000Y17450000D03*
X33490000Y17450000D03*
X41110000Y17450000D03*
X48730000Y17450000D03*
X56350000Y17450000D03*
X57950000Y28270000D03*
X50330000Y28270000D03*
X42710000Y28270000D03*
X35090000Y28270000D03*
X27470000Y28270000D03*
X19850000Y28270000D03*
X12230000Y28270000D03*
X4610000Y28270000D03*
X3010000Y32690000D03*
X10630000Y32690000D03*
X18250000Y32690000D03*
X25870000Y32690000D03*
X33490000Y32690000D03*
X41110000Y32690000D03*
X48730000Y32690000D03*
X56350000Y32690000D03*
X57950000Y43510000D03*
X50330000Y43510000D03*
X42710000Y43510000D03*
X35090000Y43510000D03*
X27470000Y43510000D03*
X19850000Y43510000D03*
X12230000Y43510000D03*
X4610000Y43510000D03*
X3010000Y47930000D03*
X10630000Y47930000D03*
X18250000Y47930000D03*
X25870000Y47930000D03*
X33490000Y47930000D03*
X41110000Y47930000D03*
X48730000Y47930000D03*
X56350000Y47930000D03*
X57950000Y58750000D03*
X50330000Y58750000D03*
X42710000Y58750000D03*
X35090000Y58750000D03*
X27470000Y58750000D03*
X19850000Y58750000D03*
X12230000Y58750000D03*
X4610000Y58750000D03*
X4610000Y13030000D03*
D24*
X15240000Y26416000D03*
X15240000Y34544000D03*
X38100000Y26416000D03*
X38100000Y34544000D03*
M02*
