M48
;DRILL file {KiCad 4.0.1-3.201512221401+6198~38~ubuntu15.10.1-stable} date Fri Feb 19 22:00:58 2016
;FORMAT={2:4/ absolute / inch / keep zeros}
FMAT,2
INCH,TZ
T1C0.020
T2C0.120
T3C0.020
%
G90
G05
M72
T1
X010500Y025000
X010500Y024500
X010500Y024000
X010500Y023500
X010500Y023000
X010500Y022500
X010500Y022000
X010500Y021500
X010500Y021000
X010500Y020000
X010500Y019500
X010500Y019000
X010500Y018500
X010500Y018000
X010500Y017500
X010500Y017000
X010500Y016500
X010500Y016000
X010500Y015500
X010500Y015000
X010500Y014500
X010500Y014000
X010500Y013000
X010500Y012500
X010500Y012000
X010500Y011500
X010500Y011000
X010500Y010500
X010500Y010000
X010500Y009500
X010500Y009000
X010500Y008500
X010500Y008000
X010500Y007500
X010500Y007000
X010500Y006500
X010500Y006000
X010500Y005500
X010500Y004500
X010500Y004000
X010500Y003500
X010500Y003000
X010500Y002500
X010500Y002000
X010500Y001500
X010500Y001000
X010500Y000500
X010500Y000000
X034500Y025000
X034500Y024500
X034500Y024000
X034500Y023500
X034500Y023000
X034500Y022500
X034500Y022000
X034500Y021500
X034500Y021000
X034500Y020000
X034500Y019500
X034500Y019000
X034500Y018500
X034500Y018000
X034500Y017500
X034500Y017000
X034500Y016500
X034500Y016000
X034500Y015500
X034500Y015000
X034500Y014500
X034500Y014000
X034500Y013000
X034500Y012500
X034500Y012000
X034500Y011500
X034500Y011000
X034500Y010500
X034500Y010000
X034500Y009500
X034500Y009000
X034500Y008500
X034500Y008000
X034500Y007500
X034500Y007000
X034500Y006500
X034500Y006000
X034500Y005500
X034500Y004500
X034500Y004000
X034500Y003500
X034500Y003000
X034500Y002500
X034500Y002000
X034500Y001500
X034500Y001000
X034500Y000500
X034500Y000000
X058500Y025000
X058500Y024500
X058500Y024000
X058500Y023500
X058500Y023000
X058500Y022500
X058500Y022000
X058500Y021500
X058500Y021000
X058500Y020000
X058500Y019500
X058500Y019000
X058500Y018500
X058500Y018000
X058500Y017500
X058500Y017000
X058500Y016500
X058500Y016000
X058500Y015500
X058500Y015000
X058500Y014500
X058500Y014000
X058500Y013000
X058500Y012500
X058500Y012000
X058500Y011500
X058500Y011000
X058500Y010500
X058500Y010000
X058500Y009500
X058500Y009000
X058500Y008500
X058500Y008000
X058500Y007500
X058500Y007000
X058500Y006500
X058500Y006000
X058500Y005500
X058500Y004500
X058500Y004000
X058500Y003500
X058500Y003000
X058500Y002500
X058500Y002000
X058500Y001500
X058500Y001000
X058500Y000500
X058500Y000000
T2
X003000Y023000
X003000Y018000
X003000Y011000
X003000Y006000
X003000Y002000
X009000Y023000
X009000Y018000
X009000Y011000
X009000Y007000
X009000Y002000
X012000Y016000
X015000Y023000
X015000Y018000
X015000Y011000
X015000Y006000
X015000Y002000
X021000Y023000
X021000Y018000
X021000Y011000
X021000Y007000
X021000Y002000
X024000Y016000
X027000Y023000
X027000Y018000
X027000Y011000
X027000Y006000
X027000Y002000
X033000Y023000
X033000Y018000
X033000Y011000
X033000Y007000
X033000Y002000
X036000Y016000
X039000Y023000
X039000Y018000
X039000Y011000
X039000Y006000
X039000Y002000
X045000Y023000
X045000Y018000
X045000Y011000
X045000Y007000
X045000Y002000
X048000Y016000
X051000Y023000
X051000Y018000
X051000Y011000
X051000Y006000
X051000Y002000
X057000Y023000
X057000Y018000
X057000Y011000
X057000Y007000
X057000Y002000
X060000Y016000
X063000Y023000
X063000Y018000
X063000Y011000
X063000Y006000
X063000Y002000
X069000Y023000
X069000Y018000
X069000Y011000
X069000Y007000
X069000Y002000
X072000Y016000
X075000Y023000
X075000Y018000
X075000Y011000
X075000Y006000
X075000Y002000
T3
X002685Y020933
X002685Y020067
X002685Y013933
X002685Y013067
X002685Y008433
X002685Y007567
X003000Y020933
X003000Y020067
X003000Y013933
X003000Y013067
X003000Y008433
X003000Y007567
X003315Y020933
X003315Y020067
X003315Y013933
X003315Y013067
X003315Y008433
X003315Y007567
X014685Y008433
X014685Y007567
X015000Y008433
X015000Y007567
X015315Y008433
X015315Y007567
X026685Y020933
X026685Y020067
X026685Y013933
X026685Y013067
X026685Y008433
X026685Y007567
X027000Y020933
X027000Y020067
X027000Y013933
X027000Y013067
X027000Y008433
X027000Y007567
X027315Y020933
X027315Y020067
X027315Y013933
X027315Y013067
X027315Y008433
X027315Y007567
X038685Y008433
X038685Y007567
X039000Y008433
X039000Y007567
X039315Y008433
X039315Y007567
X050685Y020933
X050685Y020067
X050685Y013933
X050685Y013067
X050685Y008433
X050685Y007567
X051000Y020933
X051000Y020067
X051000Y013933
X051000Y013067
X051000Y008433
X051000Y007567
X051315Y020933
X051315Y020067
X051315Y013933
X051315Y013067
X051315Y008433
X051315Y007567
X062685Y008433
X062685Y007567
X063000Y008433
X063000Y007567
X063315Y008433
X063315Y007567
X074685Y020933
X074685Y020067
X074685Y013933
X074685Y013067
X074685Y008433
X074685Y007567
X075000Y020933
X075000Y020067
X075000Y013933
X075000Y013067
X075000Y008433
X075000Y007567
X075315Y020933
X075315Y020067
X075315Y013933
X075315Y013067
X075315Y008433
X075315Y007567
T0
M30
