G04 #@! TF.FileFunction,Legend,Top*
%FSLAX46Y46*%
G04 Gerber Fmt 4.6, Leading zero omitted, Abs format (unit mm)*
G04 Created by KiCad (PCBNEW 4.0.2-4+6225~38~ubuntu15.04.1-stable) date Thu Feb 18 17:46:05 2016*
%MOMM*%
G01*
G04 APERTURE LIST*
%ADD10C,0.152400*%
%ADD11C,0.254000*%
%ADD12C,0.150000*%
%ADD13C,0.203200*%
%ADD14R,1.908000X1.908000*%
%ADD15R,1.908000X1.808000*%
%ADD16C,1.908000*%
G04 APERTURE END LIST*
D10*
D11*
X1270000Y14605000D02*
X1270000Y1270000D01*
X1270000Y45085000D02*
X1270000Y18415000D01*
X1270000Y62230000D02*
X1270000Y48895000D01*
X14605000Y62230000D02*
X1270000Y62230000D01*
X45085000Y62230000D02*
X18415000Y62230000D01*
X62230000Y62230000D02*
X48895000Y62230000D01*
X62230000Y48895000D02*
X62230000Y62230000D01*
X62230000Y18415000D02*
X62230000Y45085000D01*
X62230000Y1270000D02*
X62230000Y14605000D01*
X635000Y17780000D02*
G75*
G03X1270000Y18415000I0J635000D01*
G01*
X1270000Y14605000D02*
G75*
G03X635000Y15240000I-635000J0D01*
G01*
X0Y15875000D02*
G75*
G03X635000Y15240000I635000J0D01*
G01*
X635000Y17780000D02*
G75*
G03X0Y17145000I0J-635000D01*
G01*
X0Y17145000D02*
X0Y15875000D01*
X1270000Y48895000D02*
G75*
G03X1905000Y48260000I635000J0D01*
G01*
X1905000Y45720000D02*
G75*
G03X1270000Y45085000I0J-635000D01*
G01*
X1905000Y45720000D02*
G75*
G03X2540000Y46355000I0J635000D01*
G01*
X2540000Y47625000D02*
G75*
G03X1905000Y48260000I-635000J0D01*
G01*
X2540000Y47625000D02*
X2540000Y46355000D01*
X17780000Y62865000D02*
G75*
G03X18415000Y62230000I635000J0D01*
G01*
X14605000Y62230000D02*
G75*
G03X15240000Y62865000I0J635000D01*
G01*
X15875000Y63500000D02*
G75*
G03X15240000Y62865000I0J-635000D01*
G01*
X17780000Y62865000D02*
G75*
G03X17145000Y63500000I-635000J0D01*
G01*
X15875000Y63500000D02*
X17145000Y63500000D01*
X48895000Y62230000D02*
G75*
G03X48260000Y61595000I0J-635000D01*
G01*
X45720000Y61595000D02*
G75*
G03X45085000Y62230000I-635000J0D01*
G01*
X47625000Y60960000D02*
G75*
G03X48260000Y61595000I0J635000D01*
G01*
X45720000Y61595000D02*
G75*
G03X46355000Y60960000I635000J0D01*
G01*
X46355000Y60960000D02*
X47625000Y60960000D01*
X62865000Y45720000D02*
G75*
G03X62230000Y45085000I0J-635000D01*
G01*
X62230000Y48895000D02*
G75*
G03X62865000Y48260000I635000J0D01*
G01*
X63500000Y47625000D02*
G75*
G03X62865000Y48260000I-635000J0D01*
G01*
X62865000Y45720000D02*
G75*
G03X63500000Y46355000I0J635000D01*
G01*
X63500000Y47625000D02*
X63500000Y46355000D01*
X61595000Y17780000D02*
G75*
G03X62230000Y18415000I0J635000D01*
G01*
X62230000Y14605000D02*
G75*
G03X61595000Y15240000I-635000J0D01*
G01*
X60960000Y15875000D02*
G75*
G03X61595000Y15240000I635000J0D01*
G01*
X61595000Y17780000D02*
G75*
G03X60960000Y17145000I0J-635000D01*
G01*
X60960000Y17145000D02*
X60960000Y15875000D01*
X48895000Y1270000D02*
X62230000Y1270000D01*
X45085000Y1270000D02*
X18415000Y1270000D01*
X48895000Y1270000D02*
G75*
G03X48260000Y635000I0J-635000D01*
G01*
X45720000Y635000D02*
G75*
G03X45085000Y1270000I-635000J0D01*
G01*
X45720000Y635000D02*
G75*
G03X46355000Y0I635000J0D01*
G01*
X47625000Y0D02*
G75*
G03X48260000Y635000I0J635000D01*
G01*
X46355000Y0D02*
X47625000Y0D01*
X14605000Y1270000D02*
X1270000Y1270000D01*
X15875000Y2540000D02*
X17145000Y2540000D01*
X17780000Y1905000D02*
G75*
G03X17145000Y2540000I-635000J0D01*
G01*
X15875000Y2540000D02*
G75*
G03X15240000Y1905000I0J-635000D01*
G01*
X17780000Y1905000D02*
G75*
G03X18415000Y1270000I635000J0D01*
G01*
X14605000Y1270000D02*
G75*
G03X15240000Y1905000I0J635000D01*
G01*
D12*
X27340000Y7280000D02*
X26740000Y6680000D01*
X26740000Y2880000D02*
X26740000Y6880000D01*
X29140000Y7280000D02*
X29140000Y2880000D01*
X26740000Y6880000D02*
X26740000Y7280000D01*
X29140000Y2880000D02*
X26740000Y2880000D01*
X29140000Y7280000D02*
X26740000Y7280000D01*
X4480000Y7280000D02*
X3880000Y6680000D01*
X3880000Y2880000D02*
X3880000Y6880000D01*
X6280000Y7280000D02*
X6280000Y2880000D01*
X3880000Y6880000D02*
X3880000Y7280000D01*
X6280000Y2880000D02*
X3880000Y2880000D01*
X6280000Y7280000D02*
X3880000Y7280000D01*
X12100000Y7280000D02*
X11500000Y6680000D01*
X11500000Y2880000D02*
X11500000Y6880000D01*
X13900000Y7280000D02*
X13900000Y2880000D01*
X11500000Y6880000D02*
X11500000Y7280000D01*
X13900000Y2880000D02*
X11500000Y2880000D01*
X13900000Y7280000D02*
X11500000Y7280000D01*
X19720000Y7280000D02*
X19120000Y6680000D01*
X19120000Y2880000D02*
X19120000Y6880000D01*
X21520000Y7280000D02*
X21520000Y2880000D01*
X19120000Y6880000D02*
X19120000Y7280000D01*
X21520000Y2880000D02*
X19120000Y2880000D01*
X21520000Y7280000D02*
X19120000Y7280000D01*
X34960000Y7280000D02*
X34360000Y6680000D01*
X34360000Y2880000D02*
X34360000Y6880000D01*
X36760000Y7280000D02*
X36760000Y2880000D01*
X34360000Y6880000D02*
X34360000Y7280000D01*
X36760000Y2880000D02*
X34360000Y2880000D01*
X36760000Y7280000D02*
X34360000Y7280000D01*
X42580000Y7280000D02*
X41980000Y6680000D01*
X41980000Y2880000D02*
X41980000Y6880000D01*
X44380000Y7280000D02*
X44380000Y2880000D01*
X41980000Y6880000D02*
X41980000Y7280000D01*
X44380000Y2880000D02*
X41980000Y2880000D01*
X44380000Y7280000D02*
X41980000Y7280000D01*
X50200000Y7280000D02*
X49600000Y6680000D01*
X49600000Y2880000D02*
X49600000Y6880000D01*
X52000000Y7280000D02*
X52000000Y2880000D01*
X49600000Y6880000D02*
X49600000Y7280000D01*
X52000000Y2880000D02*
X49600000Y2880000D01*
X52000000Y7280000D02*
X49600000Y7280000D01*
X57820000Y7280000D02*
X57220000Y6680000D01*
X57220000Y2880000D02*
X57220000Y6880000D01*
X59620000Y7280000D02*
X59620000Y2880000D01*
X57220000Y6880000D02*
X57220000Y7280000D01*
X59620000Y2880000D02*
X57220000Y2880000D01*
X59620000Y7280000D02*
X57220000Y7280000D01*
X59020000Y10500000D02*
X59620000Y11100000D01*
X59620000Y14900000D02*
X59620000Y10900000D01*
X57220000Y10500000D02*
X57220000Y14900000D01*
X59620000Y10900000D02*
X59620000Y10500000D01*
X57220000Y14900000D02*
X59620000Y14900000D01*
X57220000Y10500000D02*
X59620000Y10500000D01*
X51400000Y10500000D02*
X52000000Y11100000D01*
X52000000Y14900000D02*
X52000000Y10900000D01*
X49600000Y10500000D02*
X49600000Y14900000D01*
X52000000Y10900000D02*
X52000000Y10500000D01*
X49600000Y14900000D02*
X52000000Y14900000D01*
X49600000Y10500000D02*
X52000000Y10500000D01*
X43780000Y10500000D02*
X44380000Y11100000D01*
X44380000Y14900000D02*
X44380000Y10900000D01*
X41980000Y10500000D02*
X41980000Y14900000D01*
X44380000Y10900000D02*
X44380000Y10500000D01*
X41980000Y14900000D02*
X44380000Y14900000D01*
X41980000Y10500000D02*
X44380000Y10500000D01*
X36160000Y10500000D02*
X36760000Y11100000D01*
X36760000Y14900000D02*
X36760000Y10900000D01*
X34360000Y10500000D02*
X34360000Y14900000D01*
X36760000Y10900000D02*
X36760000Y10500000D01*
X34360000Y14900000D02*
X36760000Y14900000D01*
X34360000Y10500000D02*
X36760000Y10500000D01*
X28540000Y10500000D02*
X29140000Y11100000D01*
X29140000Y14900000D02*
X29140000Y10900000D01*
X26740000Y10500000D02*
X26740000Y14900000D01*
X29140000Y10900000D02*
X29140000Y10500000D01*
X26740000Y14900000D02*
X29140000Y14900000D01*
X26740000Y10500000D02*
X29140000Y10500000D01*
X20920000Y10500000D02*
X21520000Y11100000D01*
X21520000Y14900000D02*
X21520000Y10900000D01*
X19120000Y10500000D02*
X19120000Y14900000D01*
X21520000Y10900000D02*
X21520000Y10500000D01*
X19120000Y14900000D02*
X21520000Y14900000D01*
X19120000Y10500000D02*
X21520000Y10500000D01*
X13300000Y10500000D02*
X13900000Y11100000D01*
X13900000Y14900000D02*
X13900000Y10900000D01*
X11500000Y10500000D02*
X11500000Y14900000D01*
X13900000Y10900000D02*
X13900000Y10500000D01*
X11500000Y14900000D02*
X13900000Y14900000D01*
X11500000Y10500000D02*
X13900000Y10500000D01*
X4480000Y22520000D02*
X3880000Y21920000D01*
X3880000Y18120000D02*
X3880000Y22120000D01*
X6280000Y22520000D02*
X6280000Y18120000D01*
X3880000Y22120000D02*
X3880000Y22520000D01*
X6280000Y18120000D02*
X3880000Y18120000D01*
X6280000Y22520000D02*
X3880000Y22520000D01*
X12100000Y22520000D02*
X11500000Y21920000D01*
X11500000Y18120000D02*
X11500000Y22120000D01*
X13900000Y22520000D02*
X13900000Y18120000D01*
X11500000Y22120000D02*
X11500000Y22520000D01*
X13900000Y18120000D02*
X11500000Y18120000D01*
X13900000Y22520000D02*
X11500000Y22520000D01*
X19720000Y22520000D02*
X19120000Y21920000D01*
X19120000Y18120000D02*
X19120000Y22120000D01*
X21520000Y22520000D02*
X21520000Y18120000D01*
X19120000Y22120000D02*
X19120000Y22520000D01*
X21520000Y18120000D02*
X19120000Y18120000D01*
X21520000Y22520000D02*
X19120000Y22520000D01*
X27340000Y22520000D02*
X26740000Y21920000D01*
X26740000Y18120000D02*
X26740000Y22120000D01*
X29140000Y22520000D02*
X29140000Y18120000D01*
X26740000Y22120000D02*
X26740000Y22520000D01*
X29140000Y18120000D02*
X26740000Y18120000D01*
X29140000Y22520000D02*
X26740000Y22520000D01*
X34960000Y22520000D02*
X34360000Y21920000D01*
X34360000Y18120000D02*
X34360000Y22120000D01*
X36760000Y22520000D02*
X36760000Y18120000D01*
X34360000Y22120000D02*
X34360000Y22520000D01*
X36760000Y18120000D02*
X34360000Y18120000D01*
X36760000Y22520000D02*
X34360000Y22520000D01*
X42580000Y22520000D02*
X41980000Y21920000D01*
X41980000Y18120000D02*
X41980000Y22120000D01*
X44380000Y22520000D02*
X44380000Y18120000D01*
X41980000Y22120000D02*
X41980000Y22520000D01*
X44380000Y18120000D02*
X41980000Y18120000D01*
X44380000Y22520000D02*
X41980000Y22520000D01*
X50200000Y22520000D02*
X49600000Y21920000D01*
X49600000Y18120000D02*
X49600000Y22120000D01*
X52000000Y22520000D02*
X52000000Y18120000D01*
X49600000Y22120000D02*
X49600000Y22520000D01*
X52000000Y18120000D02*
X49600000Y18120000D01*
X52000000Y22520000D02*
X49600000Y22520000D01*
X57820000Y22520000D02*
X57220000Y21920000D01*
X57220000Y18120000D02*
X57220000Y22120000D01*
X59620000Y22520000D02*
X59620000Y18120000D01*
X57220000Y22120000D02*
X57220000Y22520000D01*
X59620000Y18120000D02*
X57220000Y18120000D01*
X59620000Y22520000D02*
X57220000Y22520000D01*
X59020000Y25740000D02*
X59620000Y26340000D01*
X59620000Y30140000D02*
X59620000Y26140000D01*
X57220000Y25740000D02*
X57220000Y30140000D01*
X59620000Y26140000D02*
X59620000Y25740000D01*
X57220000Y30140000D02*
X59620000Y30140000D01*
X57220000Y25740000D02*
X59620000Y25740000D01*
X51400000Y25740000D02*
X52000000Y26340000D01*
X52000000Y30140000D02*
X52000000Y26140000D01*
X49600000Y25740000D02*
X49600000Y30140000D01*
X52000000Y26140000D02*
X52000000Y25740000D01*
X49600000Y30140000D02*
X52000000Y30140000D01*
X49600000Y25740000D02*
X52000000Y25740000D01*
X43780000Y25740000D02*
X44380000Y26340000D01*
X44380000Y30140000D02*
X44380000Y26140000D01*
X41980000Y25740000D02*
X41980000Y30140000D01*
X44380000Y26140000D02*
X44380000Y25740000D01*
X41980000Y30140000D02*
X44380000Y30140000D01*
X41980000Y25740000D02*
X44380000Y25740000D01*
X36160000Y25740000D02*
X36760000Y26340000D01*
X36760000Y30140000D02*
X36760000Y26140000D01*
X34360000Y25740000D02*
X34360000Y30140000D01*
X36760000Y26140000D02*
X36760000Y25740000D01*
X34360000Y30140000D02*
X36760000Y30140000D01*
X34360000Y25740000D02*
X36760000Y25740000D01*
X28540000Y25740000D02*
X29140000Y26340000D01*
X29140000Y30140000D02*
X29140000Y26140000D01*
X26740000Y25740000D02*
X26740000Y30140000D01*
X29140000Y26140000D02*
X29140000Y25740000D01*
X26740000Y30140000D02*
X29140000Y30140000D01*
X26740000Y25740000D02*
X29140000Y25740000D01*
X20920000Y25740000D02*
X21520000Y26340000D01*
X21520000Y30140000D02*
X21520000Y26140000D01*
X19120000Y25740000D02*
X19120000Y30140000D01*
X21520000Y26140000D02*
X21520000Y25740000D01*
X19120000Y30140000D02*
X21520000Y30140000D01*
X19120000Y25740000D02*
X21520000Y25740000D01*
X13300000Y25740000D02*
X13900000Y26340000D01*
X13900000Y30140000D02*
X13900000Y26140000D01*
X11500000Y25740000D02*
X11500000Y30140000D01*
X13900000Y26140000D02*
X13900000Y25740000D01*
X11500000Y30140000D02*
X13900000Y30140000D01*
X11500000Y25740000D02*
X13900000Y25740000D01*
X5680000Y25740000D02*
X6280000Y26340000D01*
X6280000Y30140000D02*
X6280000Y26140000D01*
X3880000Y25740000D02*
X3880000Y30140000D01*
X6280000Y26140000D02*
X6280000Y25740000D01*
X3880000Y30140000D02*
X6280000Y30140000D01*
X3880000Y25740000D02*
X6280000Y25740000D01*
X4480000Y37760000D02*
X3880000Y37160000D01*
X3880000Y33360000D02*
X3880000Y37360000D01*
X6280000Y37760000D02*
X6280000Y33360000D01*
X3880000Y37360000D02*
X3880000Y37760000D01*
X6280000Y33360000D02*
X3880000Y33360000D01*
X6280000Y37760000D02*
X3880000Y37760000D01*
X12100000Y37760000D02*
X11500000Y37160000D01*
X11500000Y33360000D02*
X11500000Y37360000D01*
X13900000Y37760000D02*
X13900000Y33360000D01*
X11500000Y37360000D02*
X11500000Y37760000D01*
X13900000Y33360000D02*
X11500000Y33360000D01*
X13900000Y37760000D02*
X11500000Y37760000D01*
X19720000Y37760000D02*
X19120000Y37160000D01*
X19120000Y33360000D02*
X19120000Y37360000D01*
X21520000Y37760000D02*
X21520000Y33360000D01*
X19120000Y37360000D02*
X19120000Y37760000D01*
X21520000Y33360000D02*
X19120000Y33360000D01*
X21520000Y37760000D02*
X19120000Y37760000D01*
X27340000Y37760000D02*
X26740000Y37160000D01*
X26740000Y33360000D02*
X26740000Y37360000D01*
X29140000Y37760000D02*
X29140000Y33360000D01*
X26740000Y37360000D02*
X26740000Y37760000D01*
X29140000Y33360000D02*
X26740000Y33360000D01*
X29140000Y37760000D02*
X26740000Y37760000D01*
X34960000Y37760000D02*
X34360000Y37160000D01*
X34360000Y33360000D02*
X34360000Y37360000D01*
X36760000Y37760000D02*
X36760000Y33360000D01*
X34360000Y37360000D02*
X34360000Y37760000D01*
X36760000Y33360000D02*
X34360000Y33360000D01*
X36760000Y37760000D02*
X34360000Y37760000D01*
X42580000Y37760000D02*
X41980000Y37160000D01*
X41980000Y33360000D02*
X41980000Y37360000D01*
X44380000Y37760000D02*
X44380000Y33360000D01*
X41980000Y37360000D02*
X41980000Y37760000D01*
X44380000Y33360000D02*
X41980000Y33360000D01*
X44380000Y37760000D02*
X41980000Y37760000D01*
X50200000Y37760000D02*
X49600000Y37160000D01*
X49600000Y33360000D02*
X49600000Y37360000D01*
X52000000Y37760000D02*
X52000000Y33360000D01*
X49600000Y37360000D02*
X49600000Y37760000D01*
X52000000Y33360000D02*
X49600000Y33360000D01*
X52000000Y37760000D02*
X49600000Y37760000D01*
X57820000Y37760000D02*
X57220000Y37160000D01*
X57220000Y33360000D02*
X57220000Y37360000D01*
X59620000Y37760000D02*
X59620000Y33360000D01*
X57220000Y37360000D02*
X57220000Y37760000D01*
X59620000Y33360000D02*
X57220000Y33360000D01*
X59620000Y37760000D02*
X57220000Y37760000D01*
X59020000Y40980000D02*
X59620000Y41580000D01*
X59620000Y45380000D02*
X59620000Y41380000D01*
X57220000Y40980000D02*
X57220000Y45380000D01*
X59620000Y41380000D02*
X59620000Y40980000D01*
X57220000Y45380000D02*
X59620000Y45380000D01*
X57220000Y40980000D02*
X59620000Y40980000D01*
X51400000Y40980000D02*
X52000000Y41580000D01*
X52000000Y45380000D02*
X52000000Y41380000D01*
X49600000Y40980000D02*
X49600000Y45380000D01*
X52000000Y41380000D02*
X52000000Y40980000D01*
X49600000Y45380000D02*
X52000000Y45380000D01*
X49600000Y40980000D02*
X52000000Y40980000D01*
X43780000Y40980000D02*
X44380000Y41580000D01*
X44380000Y45380000D02*
X44380000Y41380000D01*
X41980000Y40980000D02*
X41980000Y45380000D01*
X44380000Y41380000D02*
X44380000Y40980000D01*
X41980000Y45380000D02*
X44380000Y45380000D01*
X41980000Y40980000D02*
X44380000Y40980000D01*
X36160000Y40980000D02*
X36760000Y41580000D01*
X36760000Y45380000D02*
X36760000Y41380000D01*
X34360000Y40980000D02*
X34360000Y45380000D01*
X36760000Y41380000D02*
X36760000Y40980000D01*
X34360000Y45380000D02*
X36760000Y45380000D01*
X34360000Y40980000D02*
X36760000Y40980000D01*
X28540000Y40980000D02*
X29140000Y41580000D01*
X29140000Y45380000D02*
X29140000Y41380000D01*
X26740000Y40980000D02*
X26740000Y45380000D01*
X29140000Y41380000D02*
X29140000Y40980000D01*
X26740000Y45380000D02*
X29140000Y45380000D01*
X26740000Y40980000D02*
X29140000Y40980000D01*
X20920000Y40980000D02*
X21520000Y41580000D01*
X21520000Y45380000D02*
X21520000Y41380000D01*
X19120000Y40980000D02*
X19120000Y45380000D01*
X21520000Y41380000D02*
X21520000Y40980000D01*
X19120000Y45380000D02*
X21520000Y45380000D01*
X19120000Y40980000D02*
X21520000Y40980000D01*
X13300000Y40980000D02*
X13900000Y41580000D01*
X13900000Y45380000D02*
X13900000Y41380000D01*
X11500000Y40980000D02*
X11500000Y45380000D01*
X13900000Y41380000D02*
X13900000Y40980000D01*
X11500000Y45380000D02*
X13900000Y45380000D01*
X11500000Y40980000D02*
X13900000Y40980000D01*
X5680000Y40980000D02*
X6280000Y41580000D01*
X6280000Y45380000D02*
X6280000Y41380000D01*
X3880000Y40980000D02*
X3880000Y45380000D01*
X6280000Y41380000D02*
X6280000Y40980000D01*
X3880000Y45380000D02*
X6280000Y45380000D01*
X3880000Y40980000D02*
X6280000Y40980000D01*
X4480000Y53000000D02*
X3880000Y52400000D01*
X3880000Y48600000D02*
X3880000Y52600000D01*
X6280000Y53000000D02*
X6280000Y48600000D01*
X3880000Y52600000D02*
X3880000Y53000000D01*
X6280000Y48600000D02*
X3880000Y48600000D01*
X6280000Y53000000D02*
X3880000Y53000000D01*
X12100000Y53000000D02*
X11500000Y52400000D01*
X11500000Y48600000D02*
X11500000Y52600000D01*
X13900000Y53000000D02*
X13900000Y48600000D01*
X11500000Y52600000D02*
X11500000Y53000000D01*
X13900000Y48600000D02*
X11500000Y48600000D01*
X13900000Y53000000D02*
X11500000Y53000000D01*
X19720000Y53000000D02*
X19120000Y52400000D01*
X19120000Y48600000D02*
X19120000Y52600000D01*
X21520000Y53000000D02*
X21520000Y48600000D01*
X19120000Y52600000D02*
X19120000Y53000000D01*
X21520000Y48600000D02*
X19120000Y48600000D01*
X21520000Y53000000D02*
X19120000Y53000000D01*
X27340000Y53000000D02*
X26740000Y52400000D01*
X26740000Y48600000D02*
X26740000Y52600000D01*
X29140000Y53000000D02*
X29140000Y48600000D01*
X26740000Y52600000D02*
X26740000Y53000000D01*
X29140000Y48600000D02*
X26740000Y48600000D01*
X29140000Y53000000D02*
X26740000Y53000000D01*
X34960000Y53000000D02*
X34360000Y52400000D01*
X34360000Y48600000D02*
X34360000Y52600000D01*
X36760000Y53000000D02*
X36760000Y48600000D01*
X34360000Y52600000D02*
X34360000Y53000000D01*
X36760000Y48600000D02*
X34360000Y48600000D01*
X36760000Y53000000D02*
X34360000Y53000000D01*
X42580000Y53000000D02*
X41980000Y52400000D01*
X41980000Y48600000D02*
X41980000Y52600000D01*
X44380000Y53000000D02*
X44380000Y48600000D01*
X41980000Y52600000D02*
X41980000Y53000000D01*
X44380000Y48600000D02*
X41980000Y48600000D01*
X44380000Y53000000D02*
X41980000Y53000000D01*
X50200000Y53000000D02*
X49600000Y52400000D01*
X49600000Y48600000D02*
X49600000Y52600000D01*
X52000000Y53000000D02*
X52000000Y48600000D01*
X49600000Y52600000D02*
X49600000Y53000000D01*
X52000000Y48600000D02*
X49600000Y48600000D01*
X52000000Y53000000D02*
X49600000Y53000000D01*
X57820000Y53000000D02*
X57220000Y52400000D01*
X57220000Y48600000D02*
X57220000Y52600000D01*
X59620000Y53000000D02*
X59620000Y48600000D01*
X57220000Y52600000D02*
X57220000Y53000000D01*
X59620000Y48600000D02*
X57220000Y48600000D01*
X59620000Y53000000D02*
X57220000Y53000000D01*
X59020000Y56220000D02*
X59620000Y56820000D01*
X59620000Y60620000D02*
X59620000Y56620000D01*
X57220000Y56220000D02*
X57220000Y60620000D01*
X59620000Y56620000D02*
X59620000Y56220000D01*
X57220000Y60620000D02*
X59620000Y60620000D01*
X57220000Y56220000D02*
X59620000Y56220000D01*
X51400000Y56220000D02*
X52000000Y56820000D01*
X52000000Y60620000D02*
X52000000Y56620000D01*
X49600000Y56220000D02*
X49600000Y60620000D01*
X52000000Y56620000D02*
X52000000Y56220000D01*
X49600000Y60620000D02*
X52000000Y60620000D01*
X49600000Y56220000D02*
X52000000Y56220000D01*
X43780000Y56220000D02*
X44380000Y56820000D01*
X44380000Y60620000D02*
X44380000Y56620000D01*
X41980000Y56220000D02*
X41980000Y60620000D01*
X44380000Y56620000D02*
X44380000Y56220000D01*
X41980000Y60620000D02*
X44380000Y60620000D01*
X41980000Y56220000D02*
X44380000Y56220000D01*
X36160000Y56220000D02*
X36760000Y56820000D01*
X36760000Y60620000D02*
X36760000Y56620000D01*
X34360000Y56220000D02*
X34360000Y60620000D01*
X36760000Y56620000D02*
X36760000Y56220000D01*
X34360000Y60620000D02*
X36760000Y60620000D01*
X34360000Y56220000D02*
X36760000Y56220000D01*
X28540000Y56220000D02*
X29140000Y56820000D01*
X29140000Y60620000D02*
X29140000Y56620000D01*
X26740000Y56220000D02*
X26740000Y60620000D01*
X29140000Y56620000D02*
X29140000Y56220000D01*
X26740000Y60620000D02*
X29140000Y60620000D01*
X26740000Y56220000D02*
X29140000Y56220000D01*
X20920000Y56220000D02*
X21520000Y56820000D01*
X21520000Y60620000D02*
X21520000Y56620000D01*
X19120000Y56220000D02*
X19120000Y60620000D01*
X21520000Y56620000D02*
X21520000Y56220000D01*
X19120000Y60620000D02*
X21520000Y60620000D01*
X19120000Y56220000D02*
X21520000Y56220000D01*
X13300000Y56220000D02*
X13900000Y56820000D01*
X13900000Y60620000D02*
X13900000Y56620000D01*
X11500000Y56220000D02*
X11500000Y60620000D01*
X13900000Y56620000D02*
X13900000Y56220000D01*
X11500000Y60620000D02*
X13900000Y60620000D01*
X11500000Y56220000D02*
X13900000Y56220000D01*
X5680000Y56220000D02*
X6280000Y56820000D01*
X6280000Y60620000D02*
X6280000Y56620000D01*
X3880000Y56220000D02*
X3880000Y60620000D01*
X6280000Y56620000D02*
X6280000Y56220000D01*
X3880000Y60620000D02*
X6280000Y60620000D01*
X3880000Y56220000D02*
X6280000Y56220000D01*
X5680000Y10500000D02*
X6280000Y11100000D01*
X6280000Y14900000D02*
X6280000Y10900000D01*
X3880000Y10500000D02*
X3880000Y14900000D01*
X6280000Y10900000D02*
X6280000Y10500000D01*
X3880000Y14900000D02*
X6280000Y14900000D01*
X3880000Y10500000D02*
X6280000Y10500000D01*
D13*
X26682096Y8636381D02*
X26682096Y7813905D01*
X26730477Y7717143D01*
X26778858Y7668762D01*
X26875620Y7620381D01*
X27069143Y7620381D01*
X27165905Y7668762D01*
X27214286Y7717143D01*
X27262667Y7813905D01*
X27262667Y8636381D01*
X27940001Y8636381D02*
X28036762Y8636381D01*
X28133524Y8588000D01*
X28181905Y8539619D01*
X28230286Y8442857D01*
X28278667Y8249333D01*
X28278667Y8007429D01*
X28230286Y7813905D01*
X28181905Y7717143D01*
X28133524Y7668762D01*
X28036762Y7620381D01*
X27940001Y7620381D01*
X27843239Y7668762D01*
X27794858Y7717143D01*
X27746477Y7813905D01*
X27698096Y8007429D01*
X27698096Y8249333D01*
X27746477Y8442857D01*
X27794858Y8539619D01*
X27843239Y8588000D01*
X27940001Y8636381D01*
X29149524Y8297714D02*
X29149524Y7620381D01*
X28907620Y8684762D02*
X28665715Y7959048D01*
X29294667Y7959048D01*
X3822096Y8636381D02*
X3822096Y7813905D01*
X3870477Y7717143D01*
X3918858Y7668762D01*
X4015620Y7620381D01*
X4209143Y7620381D01*
X4305905Y7668762D01*
X4354286Y7717143D01*
X4402667Y7813905D01*
X4402667Y8636381D01*
X5080001Y8636381D02*
X5176762Y8636381D01*
X5273524Y8588000D01*
X5321905Y8539619D01*
X5370286Y8442857D01*
X5418667Y8249333D01*
X5418667Y8007429D01*
X5370286Y7813905D01*
X5321905Y7717143D01*
X5273524Y7668762D01*
X5176762Y7620381D01*
X5080001Y7620381D01*
X4983239Y7668762D01*
X4934858Y7717143D01*
X4886477Y7813905D01*
X4838096Y8007429D01*
X4838096Y8249333D01*
X4886477Y8442857D01*
X4934858Y8539619D01*
X4983239Y8588000D01*
X5080001Y8636381D01*
X6386286Y7620381D02*
X5805715Y7620381D01*
X6096001Y7620381D02*
X6096001Y8636381D01*
X5999239Y8491238D01*
X5902477Y8394476D01*
X5805715Y8346095D01*
X11442096Y8636381D02*
X11442096Y7813905D01*
X11490477Y7717143D01*
X11538858Y7668762D01*
X11635620Y7620381D01*
X11829143Y7620381D01*
X11925905Y7668762D01*
X11974286Y7717143D01*
X12022667Y7813905D01*
X12022667Y8636381D01*
X12700001Y8636381D02*
X12796762Y8636381D01*
X12893524Y8588000D01*
X12941905Y8539619D01*
X12990286Y8442857D01*
X13038667Y8249333D01*
X13038667Y8007429D01*
X12990286Y7813905D01*
X12941905Y7717143D01*
X12893524Y7668762D01*
X12796762Y7620381D01*
X12700001Y7620381D01*
X12603239Y7668762D01*
X12554858Y7717143D01*
X12506477Y7813905D01*
X12458096Y8007429D01*
X12458096Y8249333D01*
X12506477Y8442857D01*
X12554858Y8539619D01*
X12603239Y8588000D01*
X12700001Y8636381D01*
X13425715Y8539619D02*
X13474096Y8588000D01*
X13570858Y8636381D01*
X13812762Y8636381D01*
X13909524Y8588000D01*
X13957905Y8539619D01*
X14006286Y8442857D01*
X14006286Y8346095D01*
X13957905Y8200952D01*
X13377334Y7620381D01*
X14006286Y7620381D01*
X19062096Y8636381D02*
X19062096Y7813905D01*
X19110477Y7717143D01*
X19158858Y7668762D01*
X19255620Y7620381D01*
X19449143Y7620381D01*
X19545905Y7668762D01*
X19594286Y7717143D01*
X19642667Y7813905D01*
X19642667Y8636381D01*
X20320001Y8636381D02*
X20416762Y8636381D01*
X20513524Y8588000D01*
X20561905Y8539619D01*
X20610286Y8442857D01*
X20658667Y8249333D01*
X20658667Y8007429D01*
X20610286Y7813905D01*
X20561905Y7717143D01*
X20513524Y7668762D01*
X20416762Y7620381D01*
X20320001Y7620381D01*
X20223239Y7668762D01*
X20174858Y7717143D01*
X20126477Y7813905D01*
X20078096Y8007429D01*
X20078096Y8249333D01*
X20126477Y8442857D01*
X20174858Y8539619D01*
X20223239Y8588000D01*
X20320001Y8636381D01*
X20997334Y8636381D02*
X21626286Y8636381D01*
X21287620Y8249333D01*
X21432762Y8249333D01*
X21529524Y8200952D01*
X21577905Y8152571D01*
X21626286Y8055810D01*
X21626286Y7813905D01*
X21577905Y7717143D01*
X21529524Y7668762D01*
X21432762Y7620381D01*
X21142477Y7620381D01*
X21045715Y7668762D01*
X20997334Y7717143D01*
X34302096Y8636381D02*
X34302096Y7813905D01*
X34350477Y7717143D01*
X34398858Y7668762D01*
X34495620Y7620381D01*
X34689143Y7620381D01*
X34785905Y7668762D01*
X34834286Y7717143D01*
X34882667Y7813905D01*
X34882667Y8636381D01*
X35560001Y8636381D02*
X35656762Y8636381D01*
X35753524Y8588000D01*
X35801905Y8539619D01*
X35850286Y8442857D01*
X35898667Y8249333D01*
X35898667Y8007429D01*
X35850286Y7813905D01*
X35801905Y7717143D01*
X35753524Y7668762D01*
X35656762Y7620381D01*
X35560001Y7620381D01*
X35463239Y7668762D01*
X35414858Y7717143D01*
X35366477Y7813905D01*
X35318096Y8007429D01*
X35318096Y8249333D01*
X35366477Y8442857D01*
X35414858Y8539619D01*
X35463239Y8588000D01*
X35560001Y8636381D01*
X36817905Y8636381D02*
X36334096Y8636381D01*
X36285715Y8152571D01*
X36334096Y8200952D01*
X36430858Y8249333D01*
X36672762Y8249333D01*
X36769524Y8200952D01*
X36817905Y8152571D01*
X36866286Y8055810D01*
X36866286Y7813905D01*
X36817905Y7717143D01*
X36769524Y7668762D01*
X36672762Y7620381D01*
X36430858Y7620381D01*
X36334096Y7668762D01*
X36285715Y7717143D01*
X41922096Y8636381D02*
X41922096Y7813905D01*
X41970477Y7717143D01*
X42018858Y7668762D01*
X42115620Y7620381D01*
X42309143Y7620381D01*
X42405905Y7668762D01*
X42454286Y7717143D01*
X42502667Y7813905D01*
X42502667Y8636381D01*
X43180001Y8636381D02*
X43276762Y8636381D01*
X43373524Y8588000D01*
X43421905Y8539619D01*
X43470286Y8442857D01*
X43518667Y8249333D01*
X43518667Y8007429D01*
X43470286Y7813905D01*
X43421905Y7717143D01*
X43373524Y7668762D01*
X43276762Y7620381D01*
X43180001Y7620381D01*
X43083239Y7668762D01*
X43034858Y7717143D01*
X42986477Y7813905D01*
X42938096Y8007429D01*
X42938096Y8249333D01*
X42986477Y8442857D01*
X43034858Y8539619D01*
X43083239Y8588000D01*
X43180001Y8636381D01*
X44389524Y8636381D02*
X44196001Y8636381D01*
X44099239Y8588000D01*
X44050858Y8539619D01*
X43954096Y8394476D01*
X43905715Y8200952D01*
X43905715Y7813905D01*
X43954096Y7717143D01*
X44002477Y7668762D01*
X44099239Y7620381D01*
X44292762Y7620381D01*
X44389524Y7668762D01*
X44437905Y7717143D01*
X44486286Y7813905D01*
X44486286Y8055810D01*
X44437905Y8152571D01*
X44389524Y8200952D01*
X44292762Y8249333D01*
X44099239Y8249333D01*
X44002477Y8200952D01*
X43954096Y8152571D01*
X43905715Y8055810D01*
X49542096Y8636381D02*
X49542096Y7813905D01*
X49590477Y7717143D01*
X49638858Y7668762D01*
X49735620Y7620381D01*
X49929143Y7620381D01*
X50025905Y7668762D01*
X50074286Y7717143D01*
X50122667Y7813905D01*
X50122667Y8636381D01*
X50800001Y8636381D02*
X50896762Y8636381D01*
X50993524Y8588000D01*
X51041905Y8539619D01*
X51090286Y8442857D01*
X51138667Y8249333D01*
X51138667Y8007429D01*
X51090286Y7813905D01*
X51041905Y7717143D01*
X50993524Y7668762D01*
X50896762Y7620381D01*
X50800001Y7620381D01*
X50703239Y7668762D01*
X50654858Y7717143D01*
X50606477Y7813905D01*
X50558096Y8007429D01*
X50558096Y8249333D01*
X50606477Y8442857D01*
X50654858Y8539619D01*
X50703239Y8588000D01*
X50800001Y8636381D01*
X51477334Y8636381D02*
X52154667Y8636381D01*
X51719239Y7620381D01*
X57162096Y8636381D02*
X57162096Y7813905D01*
X57210477Y7717143D01*
X57258858Y7668762D01*
X57355620Y7620381D01*
X57549143Y7620381D01*
X57645905Y7668762D01*
X57694286Y7717143D01*
X57742667Y7813905D01*
X57742667Y8636381D01*
X58420001Y8636381D02*
X58516762Y8636381D01*
X58613524Y8588000D01*
X58661905Y8539619D01*
X58710286Y8442857D01*
X58758667Y8249333D01*
X58758667Y8007429D01*
X58710286Y7813905D01*
X58661905Y7717143D01*
X58613524Y7668762D01*
X58516762Y7620381D01*
X58420001Y7620381D01*
X58323239Y7668762D01*
X58274858Y7717143D01*
X58226477Y7813905D01*
X58178096Y8007429D01*
X58178096Y8249333D01*
X58226477Y8442857D01*
X58274858Y8539619D01*
X58323239Y8588000D01*
X58420001Y8636381D01*
X59339239Y8200952D02*
X59242477Y8249333D01*
X59194096Y8297714D01*
X59145715Y8394476D01*
X59145715Y8442857D01*
X59194096Y8539619D01*
X59242477Y8588000D01*
X59339239Y8636381D01*
X59532762Y8636381D01*
X59629524Y8588000D01*
X59677905Y8539619D01*
X59726286Y8442857D01*
X59726286Y8394476D01*
X59677905Y8297714D01*
X59629524Y8249333D01*
X59532762Y8200952D01*
X59339239Y8200952D01*
X59242477Y8152571D01*
X59194096Y8104190D01*
X59145715Y8007429D01*
X59145715Y7813905D01*
X59194096Y7717143D01*
X59242477Y7668762D01*
X59339239Y7620381D01*
X59532762Y7620381D01*
X59629524Y7668762D01*
X59677905Y7717143D01*
X59726286Y7813905D01*
X59726286Y8007429D01*
X59677905Y8104190D01*
X59629524Y8152571D01*
X59532762Y8200952D01*
X57162096Y10256381D02*
X57162096Y9433905D01*
X57210477Y9337143D01*
X57258858Y9288762D01*
X57355620Y9240381D01*
X57549143Y9240381D01*
X57645905Y9288762D01*
X57694286Y9337143D01*
X57742667Y9433905D01*
X57742667Y10256381D01*
X58420001Y10256381D02*
X58516762Y10256381D01*
X58613524Y10208000D01*
X58661905Y10159619D01*
X58710286Y10062857D01*
X58758667Y9869333D01*
X58758667Y9627429D01*
X58710286Y9433905D01*
X58661905Y9337143D01*
X58613524Y9288762D01*
X58516762Y9240381D01*
X58420001Y9240381D01*
X58323239Y9288762D01*
X58274858Y9337143D01*
X58226477Y9433905D01*
X58178096Y9627429D01*
X58178096Y9869333D01*
X58226477Y10062857D01*
X58274858Y10159619D01*
X58323239Y10208000D01*
X58420001Y10256381D01*
X59242477Y9240381D02*
X59436001Y9240381D01*
X59532762Y9288762D01*
X59581143Y9337143D01*
X59677905Y9482286D01*
X59726286Y9675810D01*
X59726286Y10062857D01*
X59677905Y10159619D01*
X59629524Y10208000D01*
X59532762Y10256381D01*
X59339239Y10256381D01*
X59242477Y10208000D01*
X59194096Y10159619D01*
X59145715Y10062857D01*
X59145715Y9820952D01*
X59194096Y9724190D01*
X59242477Y9675810D01*
X59339239Y9627429D01*
X59532762Y9627429D01*
X59629524Y9675810D01*
X59677905Y9724190D01*
X59726286Y9820952D01*
X49542096Y10256381D02*
X49542096Y9433905D01*
X49590477Y9337143D01*
X49638858Y9288762D01*
X49735620Y9240381D01*
X49929143Y9240381D01*
X50025905Y9288762D01*
X50074286Y9337143D01*
X50122667Y9433905D01*
X50122667Y10256381D01*
X51138667Y9240381D02*
X50558096Y9240381D01*
X50848382Y9240381D02*
X50848382Y10256381D01*
X50751620Y10111238D01*
X50654858Y10014476D01*
X50558096Y9966095D01*
X51767620Y10256381D02*
X51864381Y10256381D01*
X51961143Y10208000D01*
X52009524Y10159619D01*
X52057905Y10062857D01*
X52106286Y9869333D01*
X52106286Y9627429D01*
X52057905Y9433905D01*
X52009524Y9337143D01*
X51961143Y9288762D01*
X51864381Y9240381D01*
X51767620Y9240381D01*
X51670858Y9288762D01*
X51622477Y9337143D01*
X51574096Y9433905D01*
X51525715Y9627429D01*
X51525715Y9869333D01*
X51574096Y10062857D01*
X51622477Y10159619D01*
X51670858Y10208000D01*
X51767620Y10256381D01*
X41922096Y10256381D02*
X41922096Y9433905D01*
X41970477Y9337143D01*
X42018858Y9288762D01*
X42115620Y9240381D01*
X42309143Y9240381D01*
X42405905Y9288762D01*
X42454286Y9337143D01*
X42502667Y9433905D01*
X42502667Y10256381D01*
X43518667Y9240381D02*
X42938096Y9240381D01*
X43228382Y9240381D02*
X43228382Y10256381D01*
X43131620Y10111238D01*
X43034858Y10014476D01*
X42938096Y9966095D01*
X44486286Y9240381D02*
X43905715Y9240381D01*
X44196001Y9240381D02*
X44196001Y10256381D01*
X44099239Y10111238D01*
X44002477Y10014476D01*
X43905715Y9966095D01*
X34302096Y10256381D02*
X34302096Y9433905D01*
X34350477Y9337143D01*
X34398858Y9288762D01*
X34495620Y9240381D01*
X34689143Y9240381D01*
X34785905Y9288762D01*
X34834286Y9337143D01*
X34882667Y9433905D01*
X34882667Y10256381D01*
X35898667Y9240381D02*
X35318096Y9240381D01*
X35608382Y9240381D02*
X35608382Y10256381D01*
X35511620Y10111238D01*
X35414858Y10014476D01*
X35318096Y9966095D01*
X36285715Y10159619D02*
X36334096Y10208000D01*
X36430858Y10256381D01*
X36672762Y10256381D01*
X36769524Y10208000D01*
X36817905Y10159619D01*
X36866286Y10062857D01*
X36866286Y9966095D01*
X36817905Y9820952D01*
X36237334Y9240381D01*
X36866286Y9240381D01*
X26682096Y10256381D02*
X26682096Y9433905D01*
X26730477Y9337143D01*
X26778858Y9288762D01*
X26875620Y9240381D01*
X27069143Y9240381D01*
X27165905Y9288762D01*
X27214286Y9337143D01*
X27262667Y9433905D01*
X27262667Y10256381D01*
X28278667Y9240381D02*
X27698096Y9240381D01*
X27988382Y9240381D02*
X27988382Y10256381D01*
X27891620Y10111238D01*
X27794858Y10014476D01*
X27698096Y9966095D01*
X28617334Y10256381D02*
X29246286Y10256381D01*
X28907620Y9869333D01*
X29052762Y9869333D01*
X29149524Y9820952D01*
X29197905Y9772571D01*
X29246286Y9675810D01*
X29246286Y9433905D01*
X29197905Y9337143D01*
X29149524Y9288762D01*
X29052762Y9240381D01*
X28762477Y9240381D01*
X28665715Y9288762D01*
X28617334Y9337143D01*
X19062096Y10256381D02*
X19062096Y9433905D01*
X19110477Y9337143D01*
X19158858Y9288762D01*
X19255620Y9240381D01*
X19449143Y9240381D01*
X19545905Y9288762D01*
X19594286Y9337143D01*
X19642667Y9433905D01*
X19642667Y10256381D01*
X20658667Y9240381D02*
X20078096Y9240381D01*
X20368382Y9240381D02*
X20368382Y10256381D01*
X20271620Y10111238D01*
X20174858Y10014476D01*
X20078096Y9966095D01*
X21529524Y9917714D02*
X21529524Y9240381D01*
X21287620Y10304762D02*
X21045715Y9579048D01*
X21674667Y9579048D01*
X11442096Y10256381D02*
X11442096Y9433905D01*
X11490477Y9337143D01*
X11538858Y9288762D01*
X11635620Y9240381D01*
X11829143Y9240381D01*
X11925905Y9288762D01*
X11974286Y9337143D01*
X12022667Y9433905D01*
X12022667Y10256381D01*
X13038667Y9240381D02*
X12458096Y9240381D01*
X12748382Y9240381D02*
X12748382Y10256381D01*
X12651620Y10111238D01*
X12554858Y10014476D01*
X12458096Y9966095D01*
X13957905Y10256381D02*
X13474096Y10256381D01*
X13425715Y9772571D01*
X13474096Y9820952D01*
X13570858Y9869333D01*
X13812762Y9869333D01*
X13909524Y9820952D01*
X13957905Y9772571D01*
X14006286Y9675810D01*
X14006286Y9433905D01*
X13957905Y9337143D01*
X13909524Y9288762D01*
X13812762Y9240381D01*
X13570858Y9240381D01*
X13474096Y9288762D01*
X13425715Y9337143D01*
X3822096Y23876381D02*
X3822096Y23053905D01*
X3870477Y22957143D01*
X3918858Y22908762D01*
X4015620Y22860381D01*
X4209143Y22860381D01*
X4305905Y22908762D01*
X4354286Y22957143D01*
X4402667Y23053905D01*
X4402667Y23876381D01*
X5418667Y22860381D02*
X4838096Y22860381D01*
X5128382Y22860381D02*
X5128382Y23876381D01*
X5031620Y23731238D01*
X4934858Y23634476D01*
X4838096Y23586095D01*
X5757334Y23876381D02*
X6434667Y23876381D01*
X5999239Y22860381D01*
X11442096Y23876381D02*
X11442096Y23053905D01*
X11490477Y22957143D01*
X11538858Y22908762D01*
X11635620Y22860381D01*
X11829143Y22860381D01*
X11925905Y22908762D01*
X11974286Y22957143D01*
X12022667Y23053905D01*
X12022667Y23876381D01*
X13038667Y22860381D02*
X12458096Y22860381D01*
X12748382Y22860381D02*
X12748382Y23876381D01*
X12651620Y23731238D01*
X12554858Y23634476D01*
X12458096Y23586095D01*
X13619239Y23440952D02*
X13522477Y23489333D01*
X13474096Y23537714D01*
X13425715Y23634476D01*
X13425715Y23682857D01*
X13474096Y23779619D01*
X13522477Y23828000D01*
X13619239Y23876381D01*
X13812762Y23876381D01*
X13909524Y23828000D01*
X13957905Y23779619D01*
X14006286Y23682857D01*
X14006286Y23634476D01*
X13957905Y23537714D01*
X13909524Y23489333D01*
X13812762Y23440952D01*
X13619239Y23440952D01*
X13522477Y23392571D01*
X13474096Y23344190D01*
X13425715Y23247429D01*
X13425715Y23053905D01*
X13474096Y22957143D01*
X13522477Y22908762D01*
X13619239Y22860381D01*
X13812762Y22860381D01*
X13909524Y22908762D01*
X13957905Y22957143D01*
X14006286Y23053905D01*
X14006286Y23247429D01*
X13957905Y23344190D01*
X13909524Y23392571D01*
X13812762Y23440952D01*
X19062096Y23876381D02*
X19062096Y23053905D01*
X19110477Y22957143D01*
X19158858Y22908762D01*
X19255620Y22860381D01*
X19449143Y22860381D01*
X19545905Y22908762D01*
X19594286Y22957143D01*
X19642667Y23053905D01*
X19642667Y23876381D01*
X20658667Y22860381D02*
X20078096Y22860381D01*
X20368382Y22860381D02*
X20368382Y23876381D01*
X20271620Y23731238D01*
X20174858Y23634476D01*
X20078096Y23586095D01*
X21142477Y22860381D02*
X21336001Y22860381D01*
X21432762Y22908762D01*
X21481143Y22957143D01*
X21577905Y23102286D01*
X21626286Y23295810D01*
X21626286Y23682857D01*
X21577905Y23779619D01*
X21529524Y23828000D01*
X21432762Y23876381D01*
X21239239Y23876381D01*
X21142477Y23828000D01*
X21094096Y23779619D01*
X21045715Y23682857D01*
X21045715Y23440952D01*
X21094096Y23344190D01*
X21142477Y23295810D01*
X21239239Y23247429D01*
X21432762Y23247429D01*
X21529524Y23295810D01*
X21577905Y23344190D01*
X21626286Y23440952D01*
X26682096Y23876381D02*
X26682096Y23053905D01*
X26730477Y22957143D01*
X26778858Y22908762D01*
X26875620Y22860381D01*
X27069143Y22860381D01*
X27165905Y22908762D01*
X27214286Y22957143D01*
X27262667Y23053905D01*
X27262667Y23876381D01*
X27698096Y23779619D02*
X27746477Y23828000D01*
X27843239Y23876381D01*
X28085143Y23876381D01*
X28181905Y23828000D01*
X28230286Y23779619D01*
X28278667Y23682857D01*
X28278667Y23586095D01*
X28230286Y23440952D01*
X27649715Y22860381D01*
X28278667Y22860381D01*
X28907620Y23876381D02*
X29004381Y23876381D01*
X29101143Y23828000D01*
X29149524Y23779619D01*
X29197905Y23682857D01*
X29246286Y23489333D01*
X29246286Y23247429D01*
X29197905Y23053905D01*
X29149524Y22957143D01*
X29101143Y22908762D01*
X29004381Y22860381D01*
X28907620Y22860381D01*
X28810858Y22908762D01*
X28762477Y22957143D01*
X28714096Y23053905D01*
X28665715Y23247429D01*
X28665715Y23489333D01*
X28714096Y23682857D01*
X28762477Y23779619D01*
X28810858Y23828000D01*
X28907620Y23876381D01*
X34302096Y23876381D02*
X34302096Y23053905D01*
X34350477Y22957143D01*
X34398858Y22908762D01*
X34495620Y22860381D01*
X34689143Y22860381D01*
X34785905Y22908762D01*
X34834286Y22957143D01*
X34882667Y23053905D01*
X34882667Y23876381D01*
X35318096Y23779619D02*
X35366477Y23828000D01*
X35463239Y23876381D01*
X35705143Y23876381D01*
X35801905Y23828000D01*
X35850286Y23779619D01*
X35898667Y23682857D01*
X35898667Y23586095D01*
X35850286Y23440952D01*
X35269715Y22860381D01*
X35898667Y22860381D01*
X36866286Y22860381D02*
X36285715Y22860381D01*
X36576001Y22860381D02*
X36576001Y23876381D01*
X36479239Y23731238D01*
X36382477Y23634476D01*
X36285715Y23586095D01*
X41922096Y23876381D02*
X41922096Y23053905D01*
X41970477Y22957143D01*
X42018858Y22908762D01*
X42115620Y22860381D01*
X42309143Y22860381D01*
X42405905Y22908762D01*
X42454286Y22957143D01*
X42502667Y23053905D01*
X42502667Y23876381D01*
X42938096Y23779619D02*
X42986477Y23828000D01*
X43083239Y23876381D01*
X43325143Y23876381D01*
X43421905Y23828000D01*
X43470286Y23779619D01*
X43518667Y23682857D01*
X43518667Y23586095D01*
X43470286Y23440952D01*
X42889715Y22860381D01*
X43518667Y22860381D01*
X43905715Y23779619D02*
X43954096Y23828000D01*
X44050858Y23876381D01*
X44292762Y23876381D01*
X44389524Y23828000D01*
X44437905Y23779619D01*
X44486286Y23682857D01*
X44486286Y23586095D01*
X44437905Y23440952D01*
X43857334Y22860381D01*
X44486286Y22860381D01*
X49542096Y23876381D02*
X49542096Y23053905D01*
X49590477Y22957143D01*
X49638858Y22908762D01*
X49735620Y22860381D01*
X49929143Y22860381D01*
X50025905Y22908762D01*
X50074286Y22957143D01*
X50122667Y23053905D01*
X50122667Y23876381D01*
X50558096Y23779619D02*
X50606477Y23828000D01*
X50703239Y23876381D01*
X50945143Y23876381D01*
X51041905Y23828000D01*
X51090286Y23779619D01*
X51138667Y23682857D01*
X51138667Y23586095D01*
X51090286Y23440952D01*
X50509715Y22860381D01*
X51138667Y22860381D01*
X51477334Y23876381D02*
X52106286Y23876381D01*
X51767620Y23489333D01*
X51912762Y23489333D01*
X52009524Y23440952D01*
X52057905Y23392571D01*
X52106286Y23295810D01*
X52106286Y23053905D01*
X52057905Y22957143D01*
X52009524Y22908762D01*
X51912762Y22860381D01*
X51622477Y22860381D01*
X51525715Y22908762D01*
X51477334Y22957143D01*
X57162096Y23876381D02*
X57162096Y23053905D01*
X57210477Y22957143D01*
X57258858Y22908762D01*
X57355620Y22860381D01*
X57549143Y22860381D01*
X57645905Y22908762D01*
X57694286Y22957143D01*
X57742667Y23053905D01*
X57742667Y23876381D01*
X58178096Y23779619D02*
X58226477Y23828000D01*
X58323239Y23876381D01*
X58565143Y23876381D01*
X58661905Y23828000D01*
X58710286Y23779619D01*
X58758667Y23682857D01*
X58758667Y23586095D01*
X58710286Y23440952D01*
X58129715Y22860381D01*
X58758667Y22860381D01*
X59629524Y23537714D02*
X59629524Y22860381D01*
X59387620Y23924762D02*
X59145715Y23199048D01*
X59774667Y23199048D01*
X57162096Y25496381D02*
X57162096Y24673905D01*
X57210477Y24577143D01*
X57258858Y24528762D01*
X57355620Y24480381D01*
X57549143Y24480381D01*
X57645905Y24528762D01*
X57694286Y24577143D01*
X57742667Y24673905D01*
X57742667Y25496381D01*
X58178096Y25399619D02*
X58226477Y25448000D01*
X58323239Y25496381D01*
X58565143Y25496381D01*
X58661905Y25448000D01*
X58710286Y25399619D01*
X58758667Y25302857D01*
X58758667Y25206095D01*
X58710286Y25060952D01*
X58129715Y24480381D01*
X58758667Y24480381D01*
X59677905Y25496381D02*
X59194096Y25496381D01*
X59145715Y25012571D01*
X59194096Y25060952D01*
X59290858Y25109333D01*
X59532762Y25109333D01*
X59629524Y25060952D01*
X59677905Y25012571D01*
X59726286Y24915810D01*
X59726286Y24673905D01*
X59677905Y24577143D01*
X59629524Y24528762D01*
X59532762Y24480381D01*
X59290858Y24480381D01*
X59194096Y24528762D01*
X59145715Y24577143D01*
X49542096Y25496381D02*
X49542096Y24673905D01*
X49590477Y24577143D01*
X49638858Y24528762D01*
X49735620Y24480381D01*
X49929143Y24480381D01*
X50025905Y24528762D01*
X50074286Y24577143D01*
X50122667Y24673905D01*
X50122667Y25496381D01*
X50558096Y25399619D02*
X50606477Y25448000D01*
X50703239Y25496381D01*
X50945143Y25496381D01*
X51041905Y25448000D01*
X51090286Y25399619D01*
X51138667Y25302857D01*
X51138667Y25206095D01*
X51090286Y25060952D01*
X50509715Y24480381D01*
X51138667Y24480381D01*
X52009524Y25496381D02*
X51816001Y25496381D01*
X51719239Y25448000D01*
X51670858Y25399619D01*
X51574096Y25254476D01*
X51525715Y25060952D01*
X51525715Y24673905D01*
X51574096Y24577143D01*
X51622477Y24528762D01*
X51719239Y24480381D01*
X51912762Y24480381D01*
X52009524Y24528762D01*
X52057905Y24577143D01*
X52106286Y24673905D01*
X52106286Y24915810D01*
X52057905Y25012571D01*
X52009524Y25060952D01*
X51912762Y25109333D01*
X51719239Y25109333D01*
X51622477Y25060952D01*
X51574096Y25012571D01*
X51525715Y24915810D01*
X41922096Y25496381D02*
X41922096Y24673905D01*
X41970477Y24577143D01*
X42018858Y24528762D01*
X42115620Y24480381D01*
X42309143Y24480381D01*
X42405905Y24528762D01*
X42454286Y24577143D01*
X42502667Y24673905D01*
X42502667Y25496381D01*
X42938096Y25399619D02*
X42986477Y25448000D01*
X43083239Y25496381D01*
X43325143Y25496381D01*
X43421905Y25448000D01*
X43470286Y25399619D01*
X43518667Y25302857D01*
X43518667Y25206095D01*
X43470286Y25060952D01*
X42889715Y24480381D01*
X43518667Y24480381D01*
X43857334Y25496381D02*
X44534667Y25496381D01*
X44099239Y24480381D01*
X34302096Y25496381D02*
X34302096Y24673905D01*
X34350477Y24577143D01*
X34398858Y24528762D01*
X34495620Y24480381D01*
X34689143Y24480381D01*
X34785905Y24528762D01*
X34834286Y24577143D01*
X34882667Y24673905D01*
X34882667Y25496381D01*
X35318096Y25399619D02*
X35366477Y25448000D01*
X35463239Y25496381D01*
X35705143Y25496381D01*
X35801905Y25448000D01*
X35850286Y25399619D01*
X35898667Y25302857D01*
X35898667Y25206095D01*
X35850286Y25060952D01*
X35269715Y24480381D01*
X35898667Y24480381D01*
X36479239Y25060952D02*
X36382477Y25109333D01*
X36334096Y25157714D01*
X36285715Y25254476D01*
X36285715Y25302857D01*
X36334096Y25399619D01*
X36382477Y25448000D01*
X36479239Y25496381D01*
X36672762Y25496381D01*
X36769524Y25448000D01*
X36817905Y25399619D01*
X36866286Y25302857D01*
X36866286Y25254476D01*
X36817905Y25157714D01*
X36769524Y25109333D01*
X36672762Y25060952D01*
X36479239Y25060952D01*
X36382477Y25012571D01*
X36334096Y24964190D01*
X36285715Y24867429D01*
X36285715Y24673905D01*
X36334096Y24577143D01*
X36382477Y24528762D01*
X36479239Y24480381D01*
X36672762Y24480381D01*
X36769524Y24528762D01*
X36817905Y24577143D01*
X36866286Y24673905D01*
X36866286Y24867429D01*
X36817905Y24964190D01*
X36769524Y25012571D01*
X36672762Y25060952D01*
X26682096Y25496381D02*
X26682096Y24673905D01*
X26730477Y24577143D01*
X26778858Y24528762D01*
X26875620Y24480381D01*
X27069143Y24480381D01*
X27165905Y24528762D01*
X27214286Y24577143D01*
X27262667Y24673905D01*
X27262667Y25496381D01*
X27698096Y25399619D02*
X27746477Y25448000D01*
X27843239Y25496381D01*
X28085143Y25496381D01*
X28181905Y25448000D01*
X28230286Y25399619D01*
X28278667Y25302857D01*
X28278667Y25206095D01*
X28230286Y25060952D01*
X27649715Y24480381D01*
X28278667Y24480381D01*
X28762477Y24480381D02*
X28956001Y24480381D01*
X29052762Y24528762D01*
X29101143Y24577143D01*
X29197905Y24722286D01*
X29246286Y24915810D01*
X29246286Y25302857D01*
X29197905Y25399619D01*
X29149524Y25448000D01*
X29052762Y25496381D01*
X28859239Y25496381D01*
X28762477Y25448000D01*
X28714096Y25399619D01*
X28665715Y25302857D01*
X28665715Y25060952D01*
X28714096Y24964190D01*
X28762477Y24915810D01*
X28859239Y24867429D01*
X29052762Y24867429D01*
X29149524Y24915810D01*
X29197905Y24964190D01*
X29246286Y25060952D01*
X19062096Y25496381D02*
X19062096Y24673905D01*
X19110477Y24577143D01*
X19158858Y24528762D01*
X19255620Y24480381D01*
X19449143Y24480381D01*
X19545905Y24528762D01*
X19594286Y24577143D01*
X19642667Y24673905D01*
X19642667Y25496381D01*
X20029715Y25496381D02*
X20658667Y25496381D01*
X20320001Y25109333D01*
X20465143Y25109333D01*
X20561905Y25060952D01*
X20610286Y25012571D01*
X20658667Y24915810D01*
X20658667Y24673905D01*
X20610286Y24577143D01*
X20561905Y24528762D01*
X20465143Y24480381D01*
X20174858Y24480381D01*
X20078096Y24528762D01*
X20029715Y24577143D01*
X21287620Y25496381D02*
X21384381Y25496381D01*
X21481143Y25448000D01*
X21529524Y25399619D01*
X21577905Y25302857D01*
X21626286Y25109333D01*
X21626286Y24867429D01*
X21577905Y24673905D01*
X21529524Y24577143D01*
X21481143Y24528762D01*
X21384381Y24480381D01*
X21287620Y24480381D01*
X21190858Y24528762D01*
X21142477Y24577143D01*
X21094096Y24673905D01*
X21045715Y24867429D01*
X21045715Y25109333D01*
X21094096Y25302857D01*
X21142477Y25399619D01*
X21190858Y25448000D01*
X21287620Y25496381D01*
X11442096Y25496381D02*
X11442096Y24673905D01*
X11490477Y24577143D01*
X11538858Y24528762D01*
X11635620Y24480381D01*
X11829143Y24480381D01*
X11925905Y24528762D01*
X11974286Y24577143D01*
X12022667Y24673905D01*
X12022667Y25496381D01*
X12409715Y25496381D02*
X13038667Y25496381D01*
X12700001Y25109333D01*
X12845143Y25109333D01*
X12941905Y25060952D01*
X12990286Y25012571D01*
X13038667Y24915810D01*
X13038667Y24673905D01*
X12990286Y24577143D01*
X12941905Y24528762D01*
X12845143Y24480381D01*
X12554858Y24480381D01*
X12458096Y24528762D01*
X12409715Y24577143D01*
X14006286Y24480381D02*
X13425715Y24480381D01*
X13716001Y24480381D02*
X13716001Y25496381D01*
X13619239Y25351238D01*
X13522477Y25254476D01*
X13425715Y25206095D01*
X3822096Y25496381D02*
X3822096Y24673905D01*
X3870477Y24577143D01*
X3918858Y24528762D01*
X4015620Y24480381D01*
X4209143Y24480381D01*
X4305905Y24528762D01*
X4354286Y24577143D01*
X4402667Y24673905D01*
X4402667Y25496381D01*
X4789715Y25496381D02*
X5418667Y25496381D01*
X5080001Y25109333D01*
X5225143Y25109333D01*
X5321905Y25060952D01*
X5370286Y25012571D01*
X5418667Y24915810D01*
X5418667Y24673905D01*
X5370286Y24577143D01*
X5321905Y24528762D01*
X5225143Y24480381D01*
X4934858Y24480381D01*
X4838096Y24528762D01*
X4789715Y24577143D01*
X5805715Y25399619D02*
X5854096Y25448000D01*
X5950858Y25496381D01*
X6192762Y25496381D01*
X6289524Y25448000D01*
X6337905Y25399619D01*
X6386286Y25302857D01*
X6386286Y25206095D01*
X6337905Y25060952D01*
X5757334Y24480381D01*
X6386286Y24480381D01*
X3822096Y39116381D02*
X3822096Y38293905D01*
X3870477Y38197143D01*
X3918858Y38148762D01*
X4015620Y38100381D01*
X4209143Y38100381D01*
X4305905Y38148762D01*
X4354286Y38197143D01*
X4402667Y38293905D01*
X4402667Y39116381D01*
X4789715Y39116381D02*
X5418667Y39116381D01*
X5080001Y38729333D01*
X5225143Y38729333D01*
X5321905Y38680952D01*
X5370286Y38632571D01*
X5418667Y38535810D01*
X5418667Y38293905D01*
X5370286Y38197143D01*
X5321905Y38148762D01*
X5225143Y38100381D01*
X4934858Y38100381D01*
X4838096Y38148762D01*
X4789715Y38197143D01*
X5757334Y39116381D02*
X6386286Y39116381D01*
X6047620Y38729333D01*
X6192762Y38729333D01*
X6289524Y38680952D01*
X6337905Y38632571D01*
X6386286Y38535810D01*
X6386286Y38293905D01*
X6337905Y38197143D01*
X6289524Y38148762D01*
X6192762Y38100381D01*
X5902477Y38100381D01*
X5805715Y38148762D01*
X5757334Y38197143D01*
X11442096Y39116381D02*
X11442096Y38293905D01*
X11490477Y38197143D01*
X11538858Y38148762D01*
X11635620Y38100381D01*
X11829143Y38100381D01*
X11925905Y38148762D01*
X11974286Y38197143D01*
X12022667Y38293905D01*
X12022667Y39116381D01*
X12409715Y39116381D02*
X13038667Y39116381D01*
X12700001Y38729333D01*
X12845143Y38729333D01*
X12941905Y38680952D01*
X12990286Y38632571D01*
X13038667Y38535810D01*
X13038667Y38293905D01*
X12990286Y38197143D01*
X12941905Y38148762D01*
X12845143Y38100381D01*
X12554858Y38100381D01*
X12458096Y38148762D01*
X12409715Y38197143D01*
X13909524Y38777714D02*
X13909524Y38100381D01*
X13667620Y39164762D02*
X13425715Y38439048D01*
X14054667Y38439048D01*
X19062096Y39116381D02*
X19062096Y38293905D01*
X19110477Y38197143D01*
X19158858Y38148762D01*
X19255620Y38100381D01*
X19449143Y38100381D01*
X19545905Y38148762D01*
X19594286Y38197143D01*
X19642667Y38293905D01*
X19642667Y39116381D01*
X20029715Y39116381D02*
X20658667Y39116381D01*
X20320001Y38729333D01*
X20465143Y38729333D01*
X20561905Y38680952D01*
X20610286Y38632571D01*
X20658667Y38535810D01*
X20658667Y38293905D01*
X20610286Y38197143D01*
X20561905Y38148762D01*
X20465143Y38100381D01*
X20174858Y38100381D01*
X20078096Y38148762D01*
X20029715Y38197143D01*
X21577905Y39116381D02*
X21094096Y39116381D01*
X21045715Y38632571D01*
X21094096Y38680952D01*
X21190858Y38729333D01*
X21432762Y38729333D01*
X21529524Y38680952D01*
X21577905Y38632571D01*
X21626286Y38535810D01*
X21626286Y38293905D01*
X21577905Y38197143D01*
X21529524Y38148762D01*
X21432762Y38100381D01*
X21190858Y38100381D01*
X21094096Y38148762D01*
X21045715Y38197143D01*
X26682096Y39116381D02*
X26682096Y38293905D01*
X26730477Y38197143D01*
X26778858Y38148762D01*
X26875620Y38100381D01*
X27069143Y38100381D01*
X27165905Y38148762D01*
X27214286Y38197143D01*
X27262667Y38293905D01*
X27262667Y39116381D01*
X27649715Y39116381D02*
X28278667Y39116381D01*
X27940001Y38729333D01*
X28085143Y38729333D01*
X28181905Y38680952D01*
X28230286Y38632571D01*
X28278667Y38535810D01*
X28278667Y38293905D01*
X28230286Y38197143D01*
X28181905Y38148762D01*
X28085143Y38100381D01*
X27794858Y38100381D01*
X27698096Y38148762D01*
X27649715Y38197143D01*
X29149524Y39116381D02*
X28956001Y39116381D01*
X28859239Y39068000D01*
X28810858Y39019619D01*
X28714096Y38874476D01*
X28665715Y38680952D01*
X28665715Y38293905D01*
X28714096Y38197143D01*
X28762477Y38148762D01*
X28859239Y38100381D01*
X29052762Y38100381D01*
X29149524Y38148762D01*
X29197905Y38197143D01*
X29246286Y38293905D01*
X29246286Y38535810D01*
X29197905Y38632571D01*
X29149524Y38680952D01*
X29052762Y38729333D01*
X28859239Y38729333D01*
X28762477Y38680952D01*
X28714096Y38632571D01*
X28665715Y38535810D01*
X34302096Y39116381D02*
X34302096Y38293905D01*
X34350477Y38197143D01*
X34398858Y38148762D01*
X34495620Y38100381D01*
X34689143Y38100381D01*
X34785905Y38148762D01*
X34834286Y38197143D01*
X34882667Y38293905D01*
X34882667Y39116381D01*
X35269715Y39116381D02*
X35898667Y39116381D01*
X35560001Y38729333D01*
X35705143Y38729333D01*
X35801905Y38680952D01*
X35850286Y38632571D01*
X35898667Y38535810D01*
X35898667Y38293905D01*
X35850286Y38197143D01*
X35801905Y38148762D01*
X35705143Y38100381D01*
X35414858Y38100381D01*
X35318096Y38148762D01*
X35269715Y38197143D01*
X36237334Y39116381D02*
X36914667Y39116381D01*
X36479239Y38100381D01*
X41922096Y39116381D02*
X41922096Y38293905D01*
X41970477Y38197143D01*
X42018858Y38148762D01*
X42115620Y38100381D01*
X42309143Y38100381D01*
X42405905Y38148762D01*
X42454286Y38197143D01*
X42502667Y38293905D01*
X42502667Y39116381D01*
X42889715Y39116381D02*
X43518667Y39116381D01*
X43180001Y38729333D01*
X43325143Y38729333D01*
X43421905Y38680952D01*
X43470286Y38632571D01*
X43518667Y38535810D01*
X43518667Y38293905D01*
X43470286Y38197143D01*
X43421905Y38148762D01*
X43325143Y38100381D01*
X43034858Y38100381D01*
X42938096Y38148762D01*
X42889715Y38197143D01*
X44099239Y38680952D02*
X44002477Y38729333D01*
X43954096Y38777714D01*
X43905715Y38874476D01*
X43905715Y38922857D01*
X43954096Y39019619D01*
X44002477Y39068000D01*
X44099239Y39116381D01*
X44292762Y39116381D01*
X44389524Y39068000D01*
X44437905Y39019619D01*
X44486286Y38922857D01*
X44486286Y38874476D01*
X44437905Y38777714D01*
X44389524Y38729333D01*
X44292762Y38680952D01*
X44099239Y38680952D01*
X44002477Y38632571D01*
X43954096Y38584190D01*
X43905715Y38487429D01*
X43905715Y38293905D01*
X43954096Y38197143D01*
X44002477Y38148762D01*
X44099239Y38100381D01*
X44292762Y38100381D01*
X44389524Y38148762D01*
X44437905Y38197143D01*
X44486286Y38293905D01*
X44486286Y38487429D01*
X44437905Y38584190D01*
X44389524Y38632571D01*
X44292762Y38680952D01*
X49542096Y39116381D02*
X49542096Y38293905D01*
X49590477Y38197143D01*
X49638858Y38148762D01*
X49735620Y38100381D01*
X49929143Y38100381D01*
X50025905Y38148762D01*
X50074286Y38197143D01*
X50122667Y38293905D01*
X50122667Y39116381D01*
X50509715Y39116381D02*
X51138667Y39116381D01*
X50800001Y38729333D01*
X50945143Y38729333D01*
X51041905Y38680952D01*
X51090286Y38632571D01*
X51138667Y38535810D01*
X51138667Y38293905D01*
X51090286Y38197143D01*
X51041905Y38148762D01*
X50945143Y38100381D01*
X50654858Y38100381D01*
X50558096Y38148762D01*
X50509715Y38197143D01*
X51622477Y38100381D02*
X51816001Y38100381D01*
X51912762Y38148762D01*
X51961143Y38197143D01*
X52057905Y38342286D01*
X52106286Y38535810D01*
X52106286Y38922857D01*
X52057905Y39019619D01*
X52009524Y39068000D01*
X51912762Y39116381D01*
X51719239Y39116381D01*
X51622477Y39068000D01*
X51574096Y39019619D01*
X51525715Y38922857D01*
X51525715Y38680952D01*
X51574096Y38584190D01*
X51622477Y38535810D01*
X51719239Y38487429D01*
X51912762Y38487429D01*
X52009524Y38535810D01*
X52057905Y38584190D01*
X52106286Y38680952D01*
X57162096Y39116381D02*
X57162096Y38293905D01*
X57210477Y38197143D01*
X57258858Y38148762D01*
X57355620Y38100381D01*
X57549143Y38100381D01*
X57645905Y38148762D01*
X57694286Y38197143D01*
X57742667Y38293905D01*
X57742667Y39116381D01*
X58661905Y38777714D02*
X58661905Y38100381D01*
X58420001Y39164762D02*
X58178096Y38439048D01*
X58807048Y38439048D01*
X59387620Y39116381D02*
X59484381Y39116381D01*
X59581143Y39068000D01*
X59629524Y39019619D01*
X59677905Y38922857D01*
X59726286Y38729333D01*
X59726286Y38487429D01*
X59677905Y38293905D01*
X59629524Y38197143D01*
X59581143Y38148762D01*
X59484381Y38100381D01*
X59387620Y38100381D01*
X59290858Y38148762D01*
X59242477Y38197143D01*
X59194096Y38293905D01*
X59145715Y38487429D01*
X59145715Y38729333D01*
X59194096Y38922857D01*
X59242477Y39019619D01*
X59290858Y39068000D01*
X59387620Y39116381D01*
X57162096Y40736381D02*
X57162096Y39913905D01*
X57210477Y39817143D01*
X57258858Y39768762D01*
X57355620Y39720381D01*
X57549143Y39720381D01*
X57645905Y39768762D01*
X57694286Y39817143D01*
X57742667Y39913905D01*
X57742667Y40736381D01*
X58661905Y40397714D02*
X58661905Y39720381D01*
X58420001Y40784762D02*
X58178096Y40059048D01*
X58807048Y40059048D01*
X59726286Y39720381D02*
X59145715Y39720381D01*
X59436001Y39720381D02*
X59436001Y40736381D01*
X59339239Y40591238D01*
X59242477Y40494476D01*
X59145715Y40446095D01*
X49542096Y40736381D02*
X49542096Y39913905D01*
X49590477Y39817143D01*
X49638858Y39768762D01*
X49735620Y39720381D01*
X49929143Y39720381D01*
X50025905Y39768762D01*
X50074286Y39817143D01*
X50122667Y39913905D01*
X50122667Y40736381D01*
X51041905Y40397714D02*
X51041905Y39720381D01*
X50800001Y40784762D02*
X50558096Y40059048D01*
X51187048Y40059048D01*
X51525715Y40639619D02*
X51574096Y40688000D01*
X51670858Y40736381D01*
X51912762Y40736381D01*
X52009524Y40688000D01*
X52057905Y40639619D01*
X52106286Y40542857D01*
X52106286Y40446095D01*
X52057905Y40300952D01*
X51477334Y39720381D01*
X52106286Y39720381D01*
X41922096Y40736381D02*
X41922096Y39913905D01*
X41970477Y39817143D01*
X42018858Y39768762D01*
X42115620Y39720381D01*
X42309143Y39720381D01*
X42405905Y39768762D01*
X42454286Y39817143D01*
X42502667Y39913905D01*
X42502667Y40736381D01*
X43421905Y40397714D02*
X43421905Y39720381D01*
X43180001Y40784762D02*
X42938096Y40059048D01*
X43567048Y40059048D01*
X43857334Y40736381D02*
X44486286Y40736381D01*
X44147620Y40349333D01*
X44292762Y40349333D01*
X44389524Y40300952D01*
X44437905Y40252571D01*
X44486286Y40155810D01*
X44486286Y39913905D01*
X44437905Y39817143D01*
X44389524Y39768762D01*
X44292762Y39720381D01*
X44002477Y39720381D01*
X43905715Y39768762D01*
X43857334Y39817143D01*
X34302096Y40736381D02*
X34302096Y39913905D01*
X34350477Y39817143D01*
X34398858Y39768762D01*
X34495620Y39720381D01*
X34689143Y39720381D01*
X34785905Y39768762D01*
X34834286Y39817143D01*
X34882667Y39913905D01*
X34882667Y40736381D01*
X35801905Y40397714D02*
X35801905Y39720381D01*
X35560001Y40784762D02*
X35318096Y40059048D01*
X35947048Y40059048D01*
X36769524Y40397714D02*
X36769524Y39720381D01*
X36527620Y40784762D02*
X36285715Y40059048D01*
X36914667Y40059048D01*
X26682096Y40736381D02*
X26682096Y39913905D01*
X26730477Y39817143D01*
X26778858Y39768762D01*
X26875620Y39720381D01*
X27069143Y39720381D01*
X27165905Y39768762D01*
X27214286Y39817143D01*
X27262667Y39913905D01*
X27262667Y40736381D01*
X28181905Y40397714D02*
X28181905Y39720381D01*
X27940001Y40784762D02*
X27698096Y40059048D01*
X28327048Y40059048D01*
X29197905Y40736381D02*
X28714096Y40736381D01*
X28665715Y40252571D01*
X28714096Y40300952D01*
X28810858Y40349333D01*
X29052762Y40349333D01*
X29149524Y40300952D01*
X29197905Y40252571D01*
X29246286Y40155810D01*
X29246286Y39913905D01*
X29197905Y39817143D01*
X29149524Y39768762D01*
X29052762Y39720381D01*
X28810858Y39720381D01*
X28714096Y39768762D01*
X28665715Y39817143D01*
X19062096Y40736381D02*
X19062096Y39913905D01*
X19110477Y39817143D01*
X19158858Y39768762D01*
X19255620Y39720381D01*
X19449143Y39720381D01*
X19545905Y39768762D01*
X19594286Y39817143D01*
X19642667Y39913905D01*
X19642667Y40736381D01*
X20561905Y40397714D02*
X20561905Y39720381D01*
X20320001Y40784762D02*
X20078096Y40059048D01*
X20707048Y40059048D01*
X21529524Y40736381D02*
X21336001Y40736381D01*
X21239239Y40688000D01*
X21190858Y40639619D01*
X21094096Y40494476D01*
X21045715Y40300952D01*
X21045715Y39913905D01*
X21094096Y39817143D01*
X21142477Y39768762D01*
X21239239Y39720381D01*
X21432762Y39720381D01*
X21529524Y39768762D01*
X21577905Y39817143D01*
X21626286Y39913905D01*
X21626286Y40155810D01*
X21577905Y40252571D01*
X21529524Y40300952D01*
X21432762Y40349333D01*
X21239239Y40349333D01*
X21142477Y40300952D01*
X21094096Y40252571D01*
X21045715Y40155810D01*
X11442096Y40736381D02*
X11442096Y39913905D01*
X11490477Y39817143D01*
X11538858Y39768762D01*
X11635620Y39720381D01*
X11829143Y39720381D01*
X11925905Y39768762D01*
X11974286Y39817143D01*
X12022667Y39913905D01*
X12022667Y40736381D01*
X12941905Y40397714D02*
X12941905Y39720381D01*
X12700001Y40784762D02*
X12458096Y40059048D01*
X13087048Y40059048D01*
X13377334Y40736381D02*
X14054667Y40736381D01*
X13619239Y39720381D01*
X3822096Y40736381D02*
X3822096Y39913905D01*
X3870477Y39817143D01*
X3918858Y39768762D01*
X4015620Y39720381D01*
X4209143Y39720381D01*
X4305905Y39768762D01*
X4354286Y39817143D01*
X4402667Y39913905D01*
X4402667Y40736381D01*
X5321905Y40397714D02*
X5321905Y39720381D01*
X5080001Y40784762D02*
X4838096Y40059048D01*
X5467048Y40059048D01*
X5999239Y40300952D02*
X5902477Y40349333D01*
X5854096Y40397714D01*
X5805715Y40494476D01*
X5805715Y40542857D01*
X5854096Y40639619D01*
X5902477Y40688000D01*
X5999239Y40736381D01*
X6192762Y40736381D01*
X6289524Y40688000D01*
X6337905Y40639619D01*
X6386286Y40542857D01*
X6386286Y40494476D01*
X6337905Y40397714D01*
X6289524Y40349333D01*
X6192762Y40300952D01*
X5999239Y40300952D01*
X5902477Y40252571D01*
X5854096Y40204190D01*
X5805715Y40107429D01*
X5805715Y39913905D01*
X5854096Y39817143D01*
X5902477Y39768762D01*
X5999239Y39720381D01*
X6192762Y39720381D01*
X6289524Y39768762D01*
X6337905Y39817143D01*
X6386286Y39913905D01*
X6386286Y40107429D01*
X6337905Y40204190D01*
X6289524Y40252571D01*
X6192762Y40300952D01*
X3822096Y54356381D02*
X3822096Y53533905D01*
X3870477Y53437143D01*
X3918858Y53388762D01*
X4015620Y53340381D01*
X4209143Y53340381D01*
X4305905Y53388762D01*
X4354286Y53437143D01*
X4402667Y53533905D01*
X4402667Y54356381D01*
X5321905Y54017714D02*
X5321905Y53340381D01*
X5080001Y54404762D02*
X4838096Y53679048D01*
X5467048Y53679048D01*
X5902477Y53340381D02*
X6096001Y53340381D01*
X6192762Y53388762D01*
X6241143Y53437143D01*
X6337905Y53582286D01*
X6386286Y53775810D01*
X6386286Y54162857D01*
X6337905Y54259619D01*
X6289524Y54308000D01*
X6192762Y54356381D01*
X5999239Y54356381D01*
X5902477Y54308000D01*
X5854096Y54259619D01*
X5805715Y54162857D01*
X5805715Y53920952D01*
X5854096Y53824190D01*
X5902477Y53775810D01*
X5999239Y53727429D01*
X6192762Y53727429D01*
X6289524Y53775810D01*
X6337905Y53824190D01*
X6386286Y53920952D01*
X11442096Y54356381D02*
X11442096Y53533905D01*
X11490477Y53437143D01*
X11538858Y53388762D01*
X11635620Y53340381D01*
X11829143Y53340381D01*
X11925905Y53388762D01*
X11974286Y53437143D01*
X12022667Y53533905D01*
X12022667Y54356381D01*
X12990286Y54356381D02*
X12506477Y54356381D01*
X12458096Y53872571D01*
X12506477Y53920952D01*
X12603239Y53969333D01*
X12845143Y53969333D01*
X12941905Y53920952D01*
X12990286Y53872571D01*
X13038667Y53775810D01*
X13038667Y53533905D01*
X12990286Y53437143D01*
X12941905Y53388762D01*
X12845143Y53340381D01*
X12603239Y53340381D01*
X12506477Y53388762D01*
X12458096Y53437143D01*
X13667620Y54356381D02*
X13764381Y54356381D01*
X13861143Y54308000D01*
X13909524Y54259619D01*
X13957905Y54162857D01*
X14006286Y53969333D01*
X14006286Y53727429D01*
X13957905Y53533905D01*
X13909524Y53437143D01*
X13861143Y53388762D01*
X13764381Y53340381D01*
X13667620Y53340381D01*
X13570858Y53388762D01*
X13522477Y53437143D01*
X13474096Y53533905D01*
X13425715Y53727429D01*
X13425715Y53969333D01*
X13474096Y54162857D01*
X13522477Y54259619D01*
X13570858Y54308000D01*
X13667620Y54356381D01*
X19062096Y54356381D02*
X19062096Y53533905D01*
X19110477Y53437143D01*
X19158858Y53388762D01*
X19255620Y53340381D01*
X19449143Y53340381D01*
X19545905Y53388762D01*
X19594286Y53437143D01*
X19642667Y53533905D01*
X19642667Y54356381D01*
X20610286Y54356381D02*
X20126477Y54356381D01*
X20078096Y53872571D01*
X20126477Y53920952D01*
X20223239Y53969333D01*
X20465143Y53969333D01*
X20561905Y53920952D01*
X20610286Y53872571D01*
X20658667Y53775810D01*
X20658667Y53533905D01*
X20610286Y53437143D01*
X20561905Y53388762D01*
X20465143Y53340381D01*
X20223239Y53340381D01*
X20126477Y53388762D01*
X20078096Y53437143D01*
X21626286Y53340381D02*
X21045715Y53340381D01*
X21336001Y53340381D02*
X21336001Y54356381D01*
X21239239Y54211238D01*
X21142477Y54114476D01*
X21045715Y54066095D01*
X26682096Y54356381D02*
X26682096Y53533905D01*
X26730477Y53437143D01*
X26778858Y53388762D01*
X26875620Y53340381D01*
X27069143Y53340381D01*
X27165905Y53388762D01*
X27214286Y53437143D01*
X27262667Y53533905D01*
X27262667Y54356381D01*
X28230286Y54356381D02*
X27746477Y54356381D01*
X27698096Y53872571D01*
X27746477Y53920952D01*
X27843239Y53969333D01*
X28085143Y53969333D01*
X28181905Y53920952D01*
X28230286Y53872571D01*
X28278667Y53775810D01*
X28278667Y53533905D01*
X28230286Y53437143D01*
X28181905Y53388762D01*
X28085143Y53340381D01*
X27843239Y53340381D01*
X27746477Y53388762D01*
X27698096Y53437143D01*
X28665715Y54259619D02*
X28714096Y54308000D01*
X28810858Y54356381D01*
X29052762Y54356381D01*
X29149524Y54308000D01*
X29197905Y54259619D01*
X29246286Y54162857D01*
X29246286Y54066095D01*
X29197905Y53920952D01*
X28617334Y53340381D01*
X29246286Y53340381D01*
X34302096Y54356381D02*
X34302096Y53533905D01*
X34350477Y53437143D01*
X34398858Y53388762D01*
X34495620Y53340381D01*
X34689143Y53340381D01*
X34785905Y53388762D01*
X34834286Y53437143D01*
X34882667Y53533905D01*
X34882667Y54356381D01*
X35850286Y54356381D02*
X35366477Y54356381D01*
X35318096Y53872571D01*
X35366477Y53920952D01*
X35463239Y53969333D01*
X35705143Y53969333D01*
X35801905Y53920952D01*
X35850286Y53872571D01*
X35898667Y53775810D01*
X35898667Y53533905D01*
X35850286Y53437143D01*
X35801905Y53388762D01*
X35705143Y53340381D01*
X35463239Y53340381D01*
X35366477Y53388762D01*
X35318096Y53437143D01*
X36237334Y54356381D02*
X36866286Y54356381D01*
X36527620Y53969333D01*
X36672762Y53969333D01*
X36769524Y53920952D01*
X36817905Y53872571D01*
X36866286Y53775810D01*
X36866286Y53533905D01*
X36817905Y53437143D01*
X36769524Y53388762D01*
X36672762Y53340381D01*
X36382477Y53340381D01*
X36285715Y53388762D01*
X36237334Y53437143D01*
X41922096Y54356381D02*
X41922096Y53533905D01*
X41970477Y53437143D01*
X42018858Y53388762D01*
X42115620Y53340381D01*
X42309143Y53340381D01*
X42405905Y53388762D01*
X42454286Y53437143D01*
X42502667Y53533905D01*
X42502667Y54356381D01*
X43470286Y54356381D02*
X42986477Y54356381D01*
X42938096Y53872571D01*
X42986477Y53920952D01*
X43083239Y53969333D01*
X43325143Y53969333D01*
X43421905Y53920952D01*
X43470286Y53872571D01*
X43518667Y53775810D01*
X43518667Y53533905D01*
X43470286Y53437143D01*
X43421905Y53388762D01*
X43325143Y53340381D01*
X43083239Y53340381D01*
X42986477Y53388762D01*
X42938096Y53437143D01*
X44389524Y54017714D02*
X44389524Y53340381D01*
X44147620Y54404762D02*
X43905715Y53679048D01*
X44534667Y53679048D01*
X49542096Y54356381D02*
X49542096Y53533905D01*
X49590477Y53437143D01*
X49638858Y53388762D01*
X49735620Y53340381D01*
X49929143Y53340381D01*
X50025905Y53388762D01*
X50074286Y53437143D01*
X50122667Y53533905D01*
X50122667Y54356381D01*
X51090286Y54356381D02*
X50606477Y54356381D01*
X50558096Y53872571D01*
X50606477Y53920952D01*
X50703239Y53969333D01*
X50945143Y53969333D01*
X51041905Y53920952D01*
X51090286Y53872571D01*
X51138667Y53775810D01*
X51138667Y53533905D01*
X51090286Y53437143D01*
X51041905Y53388762D01*
X50945143Y53340381D01*
X50703239Y53340381D01*
X50606477Y53388762D01*
X50558096Y53437143D01*
X52057905Y54356381D02*
X51574096Y54356381D01*
X51525715Y53872571D01*
X51574096Y53920952D01*
X51670858Y53969333D01*
X51912762Y53969333D01*
X52009524Y53920952D01*
X52057905Y53872571D01*
X52106286Y53775810D01*
X52106286Y53533905D01*
X52057905Y53437143D01*
X52009524Y53388762D01*
X51912762Y53340381D01*
X51670858Y53340381D01*
X51574096Y53388762D01*
X51525715Y53437143D01*
X57162096Y54356381D02*
X57162096Y53533905D01*
X57210477Y53437143D01*
X57258858Y53388762D01*
X57355620Y53340381D01*
X57549143Y53340381D01*
X57645905Y53388762D01*
X57694286Y53437143D01*
X57742667Y53533905D01*
X57742667Y54356381D01*
X58710286Y54356381D02*
X58226477Y54356381D01*
X58178096Y53872571D01*
X58226477Y53920952D01*
X58323239Y53969333D01*
X58565143Y53969333D01*
X58661905Y53920952D01*
X58710286Y53872571D01*
X58758667Y53775810D01*
X58758667Y53533905D01*
X58710286Y53437143D01*
X58661905Y53388762D01*
X58565143Y53340381D01*
X58323239Y53340381D01*
X58226477Y53388762D01*
X58178096Y53437143D01*
X59629524Y54356381D02*
X59436001Y54356381D01*
X59339239Y54308000D01*
X59290858Y54259619D01*
X59194096Y54114476D01*
X59145715Y53920952D01*
X59145715Y53533905D01*
X59194096Y53437143D01*
X59242477Y53388762D01*
X59339239Y53340381D01*
X59532762Y53340381D01*
X59629524Y53388762D01*
X59677905Y53437143D01*
X59726286Y53533905D01*
X59726286Y53775810D01*
X59677905Y53872571D01*
X59629524Y53920952D01*
X59532762Y53969333D01*
X59339239Y53969333D01*
X59242477Y53920952D01*
X59194096Y53872571D01*
X59145715Y53775810D01*
X57162096Y55976381D02*
X57162096Y55153905D01*
X57210477Y55057143D01*
X57258858Y55008762D01*
X57355620Y54960381D01*
X57549143Y54960381D01*
X57645905Y55008762D01*
X57694286Y55057143D01*
X57742667Y55153905D01*
X57742667Y55976381D01*
X58710286Y55976381D02*
X58226477Y55976381D01*
X58178096Y55492571D01*
X58226477Y55540952D01*
X58323239Y55589333D01*
X58565143Y55589333D01*
X58661905Y55540952D01*
X58710286Y55492571D01*
X58758667Y55395810D01*
X58758667Y55153905D01*
X58710286Y55057143D01*
X58661905Y55008762D01*
X58565143Y54960381D01*
X58323239Y54960381D01*
X58226477Y55008762D01*
X58178096Y55057143D01*
X59097334Y55976381D02*
X59774667Y55976381D01*
X59339239Y54960381D01*
X49542096Y55976381D02*
X49542096Y55153905D01*
X49590477Y55057143D01*
X49638858Y55008762D01*
X49735620Y54960381D01*
X49929143Y54960381D01*
X50025905Y55008762D01*
X50074286Y55057143D01*
X50122667Y55153905D01*
X50122667Y55976381D01*
X51090286Y55976381D02*
X50606477Y55976381D01*
X50558096Y55492571D01*
X50606477Y55540952D01*
X50703239Y55589333D01*
X50945143Y55589333D01*
X51041905Y55540952D01*
X51090286Y55492571D01*
X51138667Y55395810D01*
X51138667Y55153905D01*
X51090286Y55057143D01*
X51041905Y55008762D01*
X50945143Y54960381D01*
X50703239Y54960381D01*
X50606477Y55008762D01*
X50558096Y55057143D01*
X51719239Y55540952D02*
X51622477Y55589333D01*
X51574096Y55637714D01*
X51525715Y55734476D01*
X51525715Y55782857D01*
X51574096Y55879619D01*
X51622477Y55928000D01*
X51719239Y55976381D01*
X51912762Y55976381D01*
X52009524Y55928000D01*
X52057905Y55879619D01*
X52106286Y55782857D01*
X52106286Y55734476D01*
X52057905Y55637714D01*
X52009524Y55589333D01*
X51912762Y55540952D01*
X51719239Y55540952D01*
X51622477Y55492571D01*
X51574096Y55444190D01*
X51525715Y55347429D01*
X51525715Y55153905D01*
X51574096Y55057143D01*
X51622477Y55008762D01*
X51719239Y54960381D01*
X51912762Y54960381D01*
X52009524Y55008762D01*
X52057905Y55057143D01*
X52106286Y55153905D01*
X52106286Y55347429D01*
X52057905Y55444190D01*
X52009524Y55492571D01*
X51912762Y55540952D01*
X41922096Y55976381D02*
X41922096Y55153905D01*
X41970477Y55057143D01*
X42018858Y55008762D01*
X42115620Y54960381D01*
X42309143Y54960381D01*
X42405905Y55008762D01*
X42454286Y55057143D01*
X42502667Y55153905D01*
X42502667Y55976381D01*
X43470286Y55976381D02*
X42986477Y55976381D01*
X42938096Y55492571D01*
X42986477Y55540952D01*
X43083239Y55589333D01*
X43325143Y55589333D01*
X43421905Y55540952D01*
X43470286Y55492571D01*
X43518667Y55395810D01*
X43518667Y55153905D01*
X43470286Y55057143D01*
X43421905Y55008762D01*
X43325143Y54960381D01*
X43083239Y54960381D01*
X42986477Y55008762D01*
X42938096Y55057143D01*
X44002477Y54960381D02*
X44196001Y54960381D01*
X44292762Y55008762D01*
X44341143Y55057143D01*
X44437905Y55202286D01*
X44486286Y55395810D01*
X44486286Y55782857D01*
X44437905Y55879619D01*
X44389524Y55928000D01*
X44292762Y55976381D01*
X44099239Y55976381D01*
X44002477Y55928000D01*
X43954096Y55879619D01*
X43905715Y55782857D01*
X43905715Y55540952D01*
X43954096Y55444190D01*
X44002477Y55395810D01*
X44099239Y55347429D01*
X44292762Y55347429D01*
X44389524Y55395810D01*
X44437905Y55444190D01*
X44486286Y55540952D01*
X34302096Y55976381D02*
X34302096Y55153905D01*
X34350477Y55057143D01*
X34398858Y55008762D01*
X34495620Y54960381D01*
X34689143Y54960381D01*
X34785905Y55008762D01*
X34834286Y55057143D01*
X34882667Y55153905D01*
X34882667Y55976381D01*
X35801905Y55976381D02*
X35608382Y55976381D01*
X35511620Y55928000D01*
X35463239Y55879619D01*
X35366477Y55734476D01*
X35318096Y55540952D01*
X35318096Y55153905D01*
X35366477Y55057143D01*
X35414858Y55008762D01*
X35511620Y54960381D01*
X35705143Y54960381D01*
X35801905Y55008762D01*
X35850286Y55057143D01*
X35898667Y55153905D01*
X35898667Y55395810D01*
X35850286Y55492571D01*
X35801905Y55540952D01*
X35705143Y55589333D01*
X35511620Y55589333D01*
X35414858Y55540952D01*
X35366477Y55492571D01*
X35318096Y55395810D01*
X36527620Y55976381D02*
X36624381Y55976381D01*
X36721143Y55928000D01*
X36769524Y55879619D01*
X36817905Y55782857D01*
X36866286Y55589333D01*
X36866286Y55347429D01*
X36817905Y55153905D01*
X36769524Y55057143D01*
X36721143Y55008762D01*
X36624381Y54960381D01*
X36527620Y54960381D01*
X36430858Y55008762D01*
X36382477Y55057143D01*
X36334096Y55153905D01*
X36285715Y55347429D01*
X36285715Y55589333D01*
X36334096Y55782857D01*
X36382477Y55879619D01*
X36430858Y55928000D01*
X36527620Y55976381D01*
X26682096Y55976381D02*
X26682096Y55153905D01*
X26730477Y55057143D01*
X26778858Y55008762D01*
X26875620Y54960381D01*
X27069143Y54960381D01*
X27165905Y55008762D01*
X27214286Y55057143D01*
X27262667Y55153905D01*
X27262667Y55976381D01*
X28181905Y55976381D02*
X27988382Y55976381D01*
X27891620Y55928000D01*
X27843239Y55879619D01*
X27746477Y55734476D01*
X27698096Y55540952D01*
X27698096Y55153905D01*
X27746477Y55057143D01*
X27794858Y55008762D01*
X27891620Y54960381D01*
X28085143Y54960381D01*
X28181905Y55008762D01*
X28230286Y55057143D01*
X28278667Y55153905D01*
X28278667Y55395810D01*
X28230286Y55492571D01*
X28181905Y55540952D01*
X28085143Y55589333D01*
X27891620Y55589333D01*
X27794858Y55540952D01*
X27746477Y55492571D01*
X27698096Y55395810D01*
X29246286Y54960381D02*
X28665715Y54960381D01*
X28956001Y54960381D02*
X28956001Y55976381D01*
X28859239Y55831238D01*
X28762477Y55734476D01*
X28665715Y55686095D01*
X19062096Y55976381D02*
X19062096Y55153905D01*
X19110477Y55057143D01*
X19158858Y55008762D01*
X19255620Y54960381D01*
X19449143Y54960381D01*
X19545905Y55008762D01*
X19594286Y55057143D01*
X19642667Y55153905D01*
X19642667Y55976381D01*
X20561905Y55976381D02*
X20368382Y55976381D01*
X20271620Y55928000D01*
X20223239Y55879619D01*
X20126477Y55734476D01*
X20078096Y55540952D01*
X20078096Y55153905D01*
X20126477Y55057143D01*
X20174858Y55008762D01*
X20271620Y54960381D01*
X20465143Y54960381D01*
X20561905Y55008762D01*
X20610286Y55057143D01*
X20658667Y55153905D01*
X20658667Y55395810D01*
X20610286Y55492571D01*
X20561905Y55540952D01*
X20465143Y55589333D01*
X20271620Y55589333D01*
X20174858Y55540952D01*
X20126477Y55492571D01*
X20078096Y55395810D01*
X21045715Y55879619D02*
X21094096Y55928000D01*
X21190858Y55976381D01*
X21432762Y55976381D01*
X21529524Y55928000D01*
X21577905Y55879619D01*
X21626286Y55782857D01*
X21626286Y55686095D01*
X21577905Y55540952D01*
X20997334Y54960381D01*
X21626286Y54960381D01*
X11442096Y55976381D02*
X11442096Y55153905D01*
X11490477Y55057143D01*
X11538858Y55008762D01*
X11635620Y54960381D01*
X11829143Y54960381D01*
X11925905Y55008762D01*
X11974286Y55057143D01*
X12022667Y55153905D01*
X12022667Y55976381D01*
X12941905Y55976381D02*
X12748382Y55976381D01*
X12651620Y55928000D01*
X12603239Y55879619D01*
X12506477Y55734476D01*
X12458096Y55540952D01*
X12458096Y55153905D01*
X12506477Y55057143D01*
X12554858Y55008762D01*
X12651620Y54960381D01*
X12845143Y54960381D01*
X12941905Y55008762D01*
X12990286Y55057143D01*
X13038667Y55153905D01*
X13038667Y55395810D01*
X12990286Y55492571D01*
X12941905Y55540952D01*
X12845143Y55589333D01*
X12651620Y55589333D01*
X12554858Y55540952D01*
X12506477Y55492571D01*
X12458096Y55395810D01*
X13377334Y55976381D02*
X14006286Y55976381D01*
X13667620Y55589333D01*
X13812762Y55589333D01*
X13909524Y55540952D01*
X13957905Y55492571D01*
X14006286Y55395810D01*
X14006286Y55153905D01*
X13957905Y55057143D01*
X13909524Y55008762D01*
X13812762Y54960381D01*
X13522477Y54960381D01*
X13425715Y55008762D01*
X13377334Y55057143D01*
X3822096Y55976381D02*
X3822096Y55153905D01*
X3870477Y55057143D01*
X3918858Y55008762D01*
X4015620Y54960381D01*
X4209143Y54960381D01*
X4305905Y55008762D01*
X4354286Y55057143D01*
X4402667Y55153905D01*
X4402667Y55976381D01*
X5321905Y55976381D02*
X5128382Y55976381D01*
X5031620Y55928000D01*
X4983239Y55879619D01*
X4886477Y55734476D01*
X4838096Y55540952D01*
X4838096Y55153905D01*
X4886477Y55057143D01*
X4934858Y55008762D01*
X5031620Y54960381D01*
X5225143Y54960381D01*
X5321905Y55008762D01*
X5370286Y55057143D01*
X5418667Y55153905D01*
X5418667Y55395810D01*
X5370286Y55492571D01*
X5321905Y55540952D01*
X5225143Y55589333D01*
X5031620Y55589333D01*
X4934858Y55540952D01*
X4886477Y55492571D01*
X4838096Y55395810D01*
X6289524Y55637714D02*
X6289524Y54960381D01*
X6047620Y56024762D02*
X5805715Y55299048D01*
X6434667Y55299048D01*
X3822096Y10256381D02*
X3822096Y9433905D01*
X3870477Y9337143D01*
X3918858Y9288762D01*
X4015620Y9240381D01*
X4209143Y9240381D01*
X4305905Y9288762D01*
X4354286Y9337143D01*
X4402667Y9433905D01*
X4402667Y10256381D01*
X5418667Y9240381D02*
X4838096Y9240381D01*
X5128382Y9240381D02*
X5128382Y10256381D01*
X5031620Y10111238D01*
X4934858Y10014476D01*
X4838096Y9966095D01*
X6289524Y10256381D02*
X6096001Y10256381D01*
X5999239Y10208000D01*
X5950858Y10159619D01*
X5854096Y10014476D01*
X5805715Y9820952D01*
X5805715Y9433905D01*
X5854096Y9337143D01*
X5902477Y9288762D01*
X5999239Y9240381D01*
X6192762Y9240381D01*
X6289524Y9288762D01*
X6337905Y9337143D01*
X6386286Y9433905D01*
X6386286Y9675810D01*
X6337905Y9772571D01*
X6289524Y9820952D01*
X6192762Y9869333D01*
X5999239Y9869333D01*
X5902477Y9820952D01*
X5854096Y9772571D01*
X5805715Y9675810D01*
%LPC*%
D14*
X25740000Y3480000D03*
X30140000Y3480000D03*
D15*
X30140000Y5080000D03*
X25740000Y5080000D03*
D14*
X25740000Y6680000D03*
X30140000Y6680000D03*
D16*
X27140000Y3480000D03*
D14*
X2880000Y3480000D03*
X7280000Y3480000D03*
D15*
X7280000Y5080000D03*
X2880000Y5080000D03*
D14*
X2880000Y6680000D03*
X7280000Y6680000D03*
D16*
X4280000Y3480000D03*
D14*
X10500000Y3480000D03*
X14900000Y3480000D03*
D15*
X14900000Y5080000D03*
X10500000Y5080000D03*
D14*
X10500000Y6680000D03*
X14900000Y6680000D03*
D16*
X11900000Y3480000D03*
D14*
X18120000Y3480000D03*
X22520000Y3480000D03*
D15*
X22520000Y5080000D03*
X18120000Y5080000D03*
D14*
X18120000Y6680000D03*
X22520000Y6680000D03*
D16*
X19520000Y3480000D03*
D14*
X33360000Y3480000D03*
X37760000Y3480000D03*
D15*
X37760000Y5080000D03*
X33360000Y5080000D03*
D14*
X33360000Y6680000D03*
X37760000Y6680000D03*
D16*
X34760000Y3480000D03*
D14*
X40980000Y3480000D03*
X45380000Y3480000D03*
D15*
X45380000Y5080000D03*
X40980000Y5080000D03*
D14*
X40980000Y6680000D03*
X45380000Y6680000D03*
D16*
X42380000Y3480000D03*
D14*
X48600000Y3480000D03*
X53000000Y3480000D03*
D15*
X53000000Y5080000D03*
X48600000Y5080000D03*
D14*
X48600000Y6680000D03*
X53000000Y6680000D03*
D16*
X50000000Y3480000D03*
D14*
X56220000Y3480000D03*
X60620000Y3480000D03*
D15*
X60620000Y5080000D03*
X56220000Y5080000D03*
D14*
X56220000Y6680000D03*
X60620000Y6680000D03*
D16*
X57620000Y3480000D03*
D14*
X60620000Y14300000D03*
X56220000Y14300000D03*
D15*
X56220000Y12700000D03*
X60620000Y12700000D03*
D14*
X60620000Y11100000D03*
X56220000Y11100000D03*
D16*
X59220000Y14300000D03*
D14*
X53000000Y14300000D03*
X48600000Y14300000D03*
D15*
X48600000Y12700000D03*
X53000000Y12700000D03*
D14*
X53000000Y11100000D03*
X48600000Y11100000D03*
D16*
X51600000Y14300000D03*
D14*
X45380000Y14300000D03*
X40980000Y14300000D03*
D15*
X40980000Y12700000D03*
X45380000Y12700000D03*
D14*
X45380000Y11100000D03*
X40980000Y11100000D03*
D16*
X43980000Y14300000D03*
D14*
X37760000Y14300000D03*
X33360000Y14300000D03*
D15*
X33360000Y12700000D03*
X37760000Y12700000D03*
D14*
X37760000Y11100000D03*
X33360000Y11100000D03*
D16*
X36360000Y14300000D03*
D14*
X30140000Y14300000D03*
X25740000Y14300000D03*
D15*
X25740000Y12700000D03*
X30140000Y12700000D03*
D14*
X30140000Y11100000D03*
X25740000Y11100000D03*
D16*
X28740000Y14300000D03*
D14*
X22520000Y14300000D03*
X18120000Y14300000D03*
D15*
X18120000Y12700000D03*
X22520000Y12700000D03*
D14*
X22520000Y11100000D03*
X18120000Y11100000D03*
D16*
X21120000Y14300000D03*
D14*
X14900000Y14300000D03*
X10500000Y14300000D03*
D15*
X10500000Y12700000D03*
X14900000Y12700000D03*
D14*
X14900000Y11100000D03*
X10500000Y11100000D03*
D16*
X13500000Y14300000D03*
D14*
X2880000Y18720000D03*
X7280000Y18720000D03*
D15*
X7280000Y20320000D03*
X2880000Y20320000D03*
D14*
X2880000Y21920000D03*
X7280000Y21920000D03*
D16*
X4280000Y18720000D03*
D14*
X10500000Y18720000D03*
X14900000Y18720000D03*
D15*
X14900000Y20320000D03*
X10500000Y20320000D03*
D14*
X10500000Y21920000D03*
X14900000Y21920000D03*
D16*
X11900000Y18720000D03*
D14*
X18120000Y18720000D03*
X22520000Y18720000D03*
D15*
X22520000Y20320000D03*
X18120000Y20320000D03*
D14*
X18120000Y21920000D03*
X22520000Y21920000D03*
D16*
X12700000Y20320000D03*
D14*
X25740000Y18720000D03*
X30140000Y18720000D03*
D15*
X30140000Y20320000D03*
X25740000Y20320000D03*
D14*
X25740000Y21920000D03*
X30140000Y21920000D03*
D16*
X27140000Y18720000D03*
D14*
X33360000Y18720000D03*
X37760000Y18720000D03*
D15*
X37760000Y20320000D03*
X33360000Y20320000D03*
D14*
X33360000Y21920000D03*
X37760000Y21920000D03*
D16*
X34760000Y18720000D03*
D14*
X40980000Y18720000D03*
X45380000Y18720000D03*
D15*
X45380000Y20320000D03*
X40980000Y20320000D03*
D14*
X40980000Y21920000D03*
X45380000Y21920000D03*
D16*
X42380000Y18720000D03*
D14*
X48600000Y18720000D03*
X53000000Y18720000D03*
D15*
X53000000Y20320000D03*
X48600000Y20320000D03*
D14*
X48600000Y21920000D03*
X53000000Y21920000D03*
D16*
X50000000Y18720000D03*
D14*
X56220000Y18720000D03*
X60620000Y18720000D03*
D15*
X60620000Y20320000D03*
X56220000Y20320000D03*
D14*
X56220000Y21920000D03*
X60620000Y21920000D03*
D16*
X57620000Y18720000D03*
D14*
X60620000Y29540000D03*
X56220000Y29540000D03*
D15*
X56220000Y27940000D03*
X60620000Y27940000D03*
D14*
X60620000Y26340000D03*
X56220000Y26340000D03*
D16*
X59220000Y29540000D03*
D14*
X53000000Y29540000D03*
X48600000Y29540000D03*
D15*
X48600000Y27940000D03*
X53000000Y27940000D03*
D14*
X53000000Y26340000D03*
X48600000Y26340000D03*
D16*
X51600000Y29540000D03*
D14*
X45380000Y29540000D03*
X40980000Y29540000D03*
D15*
X40980000Y27940000D03*
X45380000Y27940000D03*
D14*
X45380000Y26340000D03*
X40980000Y26340000D03*
D16*
X43980000Y29540000D03*
D14*
X37760000Y29540000D03*
X33360000Y29540000D03*
D15*
X33360000Y27940000D03*
X37760000Y27940000D03*
D14*
X37760000Y26340000D03*
X33360000Y26340000D03*
D16*
X36360000Y29540000D03*
D14*
X30140000Y29540000D03*
X25740000Y29540000D03*
D15*
X25740000Y27940000D03*
X30140000Y27940000D03*
D14*
X30140000Y26340000D03*
X25740000Y26340000D03*
D16*
X28740000Y29540000D03*
D14*
X22520000Y29540000D03*
X18120000Y29540000D03*
D15*
X18120000Y27940000D03*
X22520000Y27940000D03*
D14*
X22520000Y26340000D03*
X18120000Y26340000D03*
D16*
X21120000Y29540000D03*
D14*
X14900000Y29540000D03*
X10500000Y29540000D03*
D15*
X10500000Y27940000D03*
X14900000Y27940000D03*
D14*
X14900000Y26340000D03*
X10500000Y26340000D03*
D16*
X13500000Y29540000D03*
D14*
X7280000Y29540000D03*
X2880000Y29540000D03*
D15*
X2880000Y27940000D03*
X7280000Y27940000D03*
D14*
X7280000Y26340000D03*
X2880000Y26340000D03*
D16*
X5880000Y29540000D03*
D14*
X2880000Y33960000D03*
X7280000Y33960000D03*
D15*
X7280000Y35560000D03*
X2880000Y35560000D03*
D14*
X2880000Y37160000D03*
X7280000Y37160000D03*
D16*
X4280000Y33960000D03*
D14*
X10500000Y33960000D03*
X14900000Y33960000D03*
D15*
X14900000Y35560000D03*
X10500000Y35560000D03*
D14*
X10500000Y37160000D03*
X14900000Y37160000D03*
D16*
X11900000Y33960000D03*
D14*
X18120000Y33960000D03*
X22520000Y33960000D03*
D15*
X22520000Y35560000D03*
X18120000Y35560000D03*
D14*
X18120000Y37160000D03*
X22520000Y37160000D03*
D16*
X19520000Y33960000D03*
D14*
X25740000Y33960000D03*
X30140000Y33960000D03*
D15*
X30140000Y35560000D03*
X25740000Y35560000D03*
D14*
X25740000Y37160000D03*
X30140000Y37160000D03*
D16*
X27140000Y33960000D03*
D14*
X33360000Y33960000D03*
X37760000Y33960000D03*
D15*
X37760000Y35560000D03*
X33360000Y35560000D03*
D14*
X33360000Y37160000D03*
X37760000Y37160000D03*
D16*
X34760000Y33960000D03*
D14*
X40980000Y33960000D03*
X45380000Y33960000D03*
D15*
X45380000Y35560000D03*
X40980000Y35560000D03*
D14*
X40980000Y37160000D03*
X45380000Y37160000D03*
D16*
X42380000Y33960000D03*
D14*
X48600000Y33960000D03*
X53000000Y33960000D03*
D15*
X53000000Y35560000D03*
X48600000Y35560000D03*
D14*
X48600000Y37160000D03*
X53000000Y37160000D03*
D16*
X50000000Y33960000D03*
D14*
X56220000Y33960000D03*
X60620000Y33960000D03*
D15*
X60620000Y35560000D03*
X56220000Y35560000D03*
D14*
X56220000Y37160000D03*
X60620000Y37160000D03*
D16*
X57620000Y33960000D03*
D14*
X60620000Y44780000D03*
X56220000Y44780000D03*
D15*
X56220000Y43180000D03*
X60620000Y43180000D03*
D14*
X60620000Y41580000D03*
X56220000Y41580000D03*
D16*
X59220000Y44780000D03*
D14*
X53000000Y44780000D03*
X48600000Y44780000D03*
D15*
X48600000Y43180000D03*
X53000000Y43180000D03*
D14*
X53000000Y41580000D03*
X48600000Y41580000D03*
D16*
X51600000Y44780000D03*
D14*
X45380000Y44780000D03*
X40980000Y44780000D03*
D15*
X40980000Y43180000D03*
X45380000Y43180000D03*
D14*
X45380000Y41580000D03*
X40980000Y41580000D03*
D16*
X43980000Y44780000D03*
D14*
X37760000Y44780000D03*
X33360000Y44780000D03*
D15*
X33360000Y43180000D03*
X37760000Y43180000D03*
D14*
X37760000Y41580000D03*
X33360000Y41580000D03*
D16*
X36360000Y44780000D03*
D14*
X30140000Y44780000D03*
X25740000Y44780000D03*
D15*
X25740000Y43180000D03*
X30140000Y43180000D03*
D14*
X30140000Y41580000D03*
X25740000Y41580000D03*
D16*
X28740000Y44780000D03*
D14*
X22520000Y44780000D03*
X18120000Y44780000D03*
D15*
X18120000Y43180000D03*
X22520000Y43180000D03*
D14*
X22520000Y41580000D03*
X18120000Y41580000D03*
D16*
X21120000Y44780000D03*
D14*
X14900000Y44780000D03*
X10500000Y44780000D03*
D15*
X10500000Y43180000D03*
X14900000Y43180000D03*
D14*
X14900000Y41580000D03*
X10500000Y41580000D03*
D16*
X13500000Y44780000D03*
D14*
X7280000Y44780000D03*
X2880000Y44780000D03*
D15*
X2880000Y43180000D03*
X7280000Y43180000D03*
D14*
X7280000Y41580000D03*
X2880000Y41580000D03*
D16*
X5880000Y44780000D03*
D14*
X2880000Y49200000D03*
X7280000Y49200000D03*
D15*
X7280000Y50800000D03*
X2880000Y50800000D03*
D14*
X2880000Y52400000D03*
X7280000Y52400000D03*
D16*
X4280000Y49200000D03*
D14*
X10500000Y49200000D03*
X14900000Y49200000D03*
D15*
X14900000Y50800000D03*
X10500000Y50800000D03*
D14*
X10500000Y52400000D03*
X14900000Y52400000D03*
D16*
X11900000Y49200000D03*
D14*
X18120000Y49200000D03*
X22520000Y49200000D03*
D15*
X22520000Y50800000D03*
X18120000Y50800000D03*
D14*
X18120000Y52400000D03*
X22520000Y52400000D03*
D16*
X19520000Y49200000D03*
D14*
X25740000Y49200000D03*
X30140000Y49200000D03*
D15*
X30140000Y50800000D03*
X25740000Y50800000D03*
D14*
X25740000Y52400000D03*
X30140000Y52400000D03*
D16*
X27140000Y49200000D03*
D14*
X33360000Y49200000D03*
X37760000Y49200000D03*
D15*
X37760000Y50800000D03*
X33360000Y50800000D03*
D14*
X33360000Y52400000D03*
X37760000Y52400000D03*
D16*
X34760000Y49200000D03*
D14*
X40980000Y49200000D03*
X45380000Y49200000D03*
D15*
X45380000Y50800000D03*
X40980000Y50800000D03*
D14*
X40980000Y52400000D03*
X45380000Y52400000D03*
D16*
X42380000Y49200000D03*
D14*
X48600000Y49200000D03*
X53000000Y49200000D03*
D15*
X53000000Y50800000D03*
X48600000Y50800000D03*
D14*
X48600000Y52400000D03*
X53000000Y52400000D03*
D16*
X50000000Y49200000D03*
D14*
X56220000Y49200000D03*
X60620000Y49200000D03*
D15*
X60620000Y50800000D03*
X56220000Y50800000D03*
D14*
X56220000Y52400000D03*
X60620000Y52400000D03*
D16*
X57620000Y49200000D03*
D14*
X60620000Y60020000D03*
X56220000Y60020000D03*
D15*
X56220000Y58420000D03*
X60620000Y58420000D03*
D14*
X60620000Y56820000D03*
X56220000Y56820000D03*
D16*
X59220000Y60020000D03*
D14*
X53000000Y60020000D03*
X48600000Y60020000D03*
D15*
X48600000Y58420000D03*
X53000000Y58420000D03*
D14*
X53000000Y56820000D03*
X48600000Y56820000D03*
D16*
X51600000Y60020000D03*
D14*
X45380000Y60020000D03*
X40980000Y60020000D03*
D15*
X40980000Y58420000D03*
X45380000Y58420000D03*
D14*
X45380000Y56820000D03*
X40980000Y56820000D03*
D16*
X43980000Y60020000D03*
D14*
X37760000Y60020000D03*
X33360000Y60020000D03*
D15*
X33360000Y58420000D03*
X37760000Y58420000D03*
D14*
X37760000Y56820000D03*
X33360000Y56820000D03*
D16*
X36360000Y60020000D03*
D14*
X30140000Y60020000D03*
X25740000Y60020000D03*
D15*
X25740000Y58420000D03*
X30140000Y58420000D03*
D14*
X30140000Y56820000D03*
X25740000Y56820000D03*
D16*
X28740000Y60020000D03*
D14*
X22520000Y60020000D03*
X18120000Y60020000D03*
D15*
X18120000Y58420000D03*
X22520000Y58420000D03*
D14*
X22520000Y56820000D03*
X18120000Y56820000D03*
D16*
X21120000Y60020000D03*
D14*
X14900000Y60020000D03*
X10500000Y60020000D03*
D15*
X10500000Y58420000D03*
X14900000Y58420000D03*
D14*
X14900000Y56820000D03*
X10500000Y56820000D03*
D16*
X13500000Y60020000D03*
D14*
X7280000Y60020000D03*
X2880000Y60020000D03*
D15*
X2880000Y58420000D03*
X7280000Y58420000D03*
D14*
X7280000Y56820000D03*
X2880000Y56820000D03*
D16*
X5880000Y60020000D03*
D14*
X7280000Y14300000D03*
X2880000Y14300000D03*
D15*
X2880000Y12700000D03*
X7280000Y12700000D03*
D14*
X7280000Y11100000D03*
X2880000Y11100000D03*
D16*
X5880000Y14300000D03*
M02*
