M48
INCH,TZ
T1C0.025
T2C0.028
T3C0.047
%
G90
G05
T1
X001150Y006450
X001150Y012500
X001250Y021250
X001500Y018500
X001750Y021250
X002000Y002750
X002250Y006450
X002500Y003750
X002650Y012500
X002850Y018500
X005000Y012500
X006500Y012500
X007700Y012500
X010700Y012500
X013450Y012500
X015500Y012500
X019700Y012500
T2
X001685Y019370
X001685Y013370
X001685Y007370
X001685Y001370
X002315Y023630
X002315Y017630
X002315Y011630
X002315Y005630
X004685Y019370
X004685Y013370
X004685Y007370
X004685Y001370
X005000Y008000
X005315Y023630
X005315Y017630
X005315Y011630
X005315Y005630
X007685Y019370
X007685Y013370
X007685Y001370
X008315Y023630
X008315Y017630
X008315Y011630
X008315Y005630
X010685Y019370
X010685Y013370
X010685Y007370
X010685Y001370
X011315Y023630
X011315Y017630
X011315Y011630
X011315Y005630
X013685Y019370
X013685Y013370
X013685Y007370
X013685Y001370
X014315Y023630
X014315Y017630
X014315Y011630
X014315Y005630
X016685Y019370
X016685Y013370
X016685Y007370
X016685Y001370
X017315Y023630
X017315Y017630
X017315Y011630
X017315Y005630
X019685Y019370
X019685Y013370
X019685Y007370
X019685Y001370
X020315Y023630
X020315Y017630
X020315Y011630
X020315Y005630
X022685Y019370
X022685Y013370
X022685Y007370
X022685Y001370
X023315Y023630
X023315Y017630
X023315Y011630
X023315Y005630
T3
X008000Y008000
X017000Y017000
T0
M30
