G04 #@! TF.FileFunction,Soldermask,Bot*
%FSLAX46Y46*%
G04 Gerber Fmt 4.6, Leading zero omitted, Abs format (unit mm)*
G04 Created by KiCad (PCBNEW 4.0.1-3.201512221401+6198~38~ubuntu15.10.1-stable) date Sun Feb 21 18:27:51 2016*
%MOMM*%
G01*
G04 APERTURE LIST*
%ADD10C,0.152400*%
%ADD11C,0.254000*%
%ADD12R,1.930400X1.574800*%
%ADD13C,9.008000*%
%ADD14R,8.128000X2.413000*%
%ADD15R,2.413000X8.128000*%
%ADD16C,1.908000*%
%ADD17R,3.556000X3.556000*%
G04 APERTURE END LIST*
D10*
D11*
X44196000Y0D02*
X16764000Y0D01*
X60960000Y0D02*
X47244000Y0D01*
X60960000Y13716000D02*
X60960000Y0D01*
X60960000Y44196000D02*
X60960000Y16764000D01*
X60960000Y60960000D02*
X60960000Y47244000D01*
X47244000Y60960000D02*
X60960000Y60960000D01*
X16764000Y60960000D02*
X44196000Y60960000D01*
X0Y60960000D02*
X13716000Y60960000D01*
X0Y47244000D02*
X0Y60960000D01*
X0Y16764000D02*
X0Y44196000D01*
X0Y0D02*
X0Y13716000D01*
X13716000Y0D02*
X0Y0D01*
X60960000Y16764000D02*
G75*
G03X59436000Y15240000I0J-1524000D01*
G01*
X59436000Y15240000D02*
G75*
G03X60960000Y13716000I1524000J0D01*
G01*
X60960000Y47244000D02*
G75*
G03X59436000Y45720000I0J-1524000D01*
G01*
X59436000Y45720000D02*
G75*
G03X60960000Y44196000I1524000J0D01*
G01*
X44196000Y60960000D02*
G75*
G03X45720000Y59436000I1524000J0D01*
G01*
X45720000Y59436000D02*
G75*
G03X47244000Y60960000I0J1524000D01*
G01*
X13716000Y60960000D02*
G75*
G03X15240000Y59436000I1524000J0D01*
G01*
X15240000Y59436000D02*
G75*
G03X16764000Y60960000I0J1524000D01*
G01*
X0Y44196000D02*
G75*
G03X1524000Y45720000I0J1524000D01*
G01*
X1524000Y45720000D02*
G75*
G03X0Y47244000I-1524000J0D01*
G01*
X0Y13716000D02*
G75*
G03X1524000Y15240000I0J1524000D01*
G01*
X1524000Y15240000D02*
G75*
G03X0Y16764000I-1524000J0D01*
G01*
X16764000Y0D02*
G75*
G03X15240000Y1524000I-1524000J0D01*
G01*
X15240000Y1524000D02*
G75*
G03X13716000Y0I0J-1524000D01*
G01*
X45720000Y1524000D02*
G75*
G03X44196000Y0I0J-1524000D01*
G01*
X47244000Y0D02*
G75*
G03X45720000Y1524000I-1524000J0D01*
G01*
D12*
X30480000Y31496000D03*
X30480000Y29464000D03*
X22860000Y31496000D03*
X22860000Y29464000D03*
D13*
X19050000Y19050000D03*
X41910000Y41910000D03*
D14*
X22860000Y55880000D03*
X22860000Y53340000D03*
X22860000Y50800000D03*
X22860000Y10160000D03*
X22860000Y7620000D03*
X22860000Y5080000D03*
D15*
X55880000Y38100000D03*
X53340000Y38100000D03*
X50800000Y38100000D03*
X10160000Y38100000D03*
X7620000Y38100000D03*
X5080000Y38100000D03*
D16*
X25870000Y2210000D03*
X3010000Y2210000D03*
X10630000Y2210000D03*
X18250000Y2210000D03*
X33490000Y2210000D03*
X41110000Y2210000D03*
X48730000Y2210000D03*
X56350000Y2210000D03*
X57950000Y13030000D03*
X50330000Y13030000D03*
X42710000Y13030000D03*
X35090000Y13030000D03*
X27470000Y13030000D03*
X19850000Y13030000D03*
X12230000Y13030000D03*
X3010000Y17450000D03*
X10630000Y17450000D03*
X11430000Y19050000D03*
X25870000Y17450000D03*
X33490000Y17450000D03*
X41110000Y17450000D03*
X48730000Y17450000D03*
X56350000Y17450000D03*
X57950000Y28270000D03*
X50330000Y28270000D03*
X42710000Y28270000D03*
X35090000Y28270000D03*
X27470000Y28270000D03*
X19850000Y28270000D03*
X12230000Y28270000D03*
X4610000Y28270000D03*
X3010000Y32690000D03*
X10630000Y32690000D03*
X18250000Y32690000D03*
X25870000Y32690000D03*
X33490000Y32690000D03*
X41110000Y32690000D03*
X48730000Y32690000D03*
X56350000Y32690000D03*
X57950000Y43510000D03*
X50330000Y43510000D03*
X42710000Y43510000D03*
X35090000Y43510000D03*
X27470000Y43510000D03*
X19850000Y43510000D03*
X12230000Y43510000D03*
X4610000Y43510000D03*
X3010000Y47930000D03*
X10630000Y47930000D03*
X18250000Y47930000D03*
X25870000Y47930000D03*
X33490000Y47930000D03*
X41110000Y47930000D03*
X48730000Y47930000D03*
X56350000Y47930000D03*
X57950000Y58750000D03*
X50330000Y58750000D03*
X42710000Y58750000D03*
X35090000Y58750000D03*
X27470000Y58750000D03*
X19850000Y58750000D03*
X12230000Y58750000D03*
X4610000Y58750000D03*
X4610000Y13030000D03*
D17*
X15240000Y26416000D03*
X15240000Y34544000D03*
X38100000Y26416000D03*
X38100000Y34544000D03*
M02*
