G04 #@! TF.FileFunction,Legend,Top*
%FSLAX46Y46*%
G04 Gerber Fmt 4.6, Leading zero omitted, Abs format (unit mm)*
G04 Created by KiCad (PCBNEW 4.0.1-3.201512221401+6198~38~ubuntu15.10.1-stable) date Sun Feb 21 18:27:51 2016*
%MOMM*%
G01*
G04 APERTURE LIST*
%ADD10C,0.152400*%
%ADD11C,0.254000*%
%ADD12C,0.150000*%
%ADD13C,0.203200*%
%ADD14R,1.908000X1.908000*%
%ADD15R,1.908000X1.808000*%
%ADD16C,1.908000*%
G04 APERTURE END LIST*
D10*
D11*
X44196000Y0D02*
X16764000Y0D01*
X60960000Y0D02*
X47244000Y0D01*
X60960000Y13716000D02*
X60960000Y0D01*
X60960000Y44196000D02*
X60960000Y16764000D01*
X60960000Y60960000D02*
X60960000Y47244000D01*
X47244000Y60960000D02*
X60960000Y60960000D01*
X16764000Y60960000D02*
X44196000Y60960000D01*
X0Y60960000D02*
X13716000Y60960000D01*
X0Y47244000D02*
X0Y60960000D01*
X0Y16764000D02*
X0Y44196000D01*
X0Y0D02*
X0Y13716000D01*
X13716000Y0D02*
X0Y0D01*
X60960000Y16764000D02*
G75*
G03X59436000Y15240000I0J-1524000D01*
G01*
X59436000Y15240000D02*
G75*
G03X60960000Y13716000I1524000J0D01*
G01*
X60960000Y47244000D02*
G75*
G03X59436000Y45720000I0J-1524000D01*
G01*
X59436000Y45720000D02*
G75*
G03X60960000Y44196000I1524000J0D01*
G01*
X44196000Y60960000D02*
G75*
G03X45720000Y59436000I1524000J0D01*
G01*
X45720000Y59436000D02*
G75*
G03X47244000Y60960000I0J1524000D01*
G01*
X13716000Y60960000D02*
G75*
G03X15240000Y59436000I1524000J0D01*
G01*
X15240000Y59436000D02*
G75*
G03X16764000Y60960000I0J1524000D01*
G01*
X0Y44196000D02*
G75*
G03X1524000Y45720000I0J1524000D01*
G01*
X1524000Y45720000D02*
G75*
G03X0Y47244000I-1524000J0D01*
G01*
X0Y13716000D02*
G75*
G03X1524000Y15240000I0J1524000D01*
G01*
X1524000Y15240000D02*
G75*
G03X0Y16764000I-1524000J0D01*
G01*
X16764000Y0D02*
G75*
G03X15240000Y1524000I-1524000J0D01*
G01*
X15240000Y1524000D02*
G75*
G03X13716000Y0I0J-1524000D01*
G01*
X45720000Y1524000D02*
G75*
G03X44196000Y0I0J-1524000D01*
G01*
X47244000Y0D02*
G75*
G03X45720000Y1524000I-1524000J0D01*
G01*
D12*
X26070000Y6010000D02*
X25470000Y5410000D01*
X25470000Y1610000D02*
X25470000Y5610000D01*
X27870000Y6010000D02*
X27870000Y1610000D01*
X25470000Y5610000D02*
X25470000Y6010000D01*
X27870000Y1610000D02*
X25470000Y1610000D01*
X27870000Y6010000D02*
X25470000Y6010000D01*
X3210000Y6010000D02*
X2610000Y5410000D01*
X2610000Y1610000D02*
X2610000Y5610000D01*
X5010000Y6010000D02*
X5010000Y1610000D01*
X2610000Y5610000D02*
X2610000Y6010000D01*
X5010000Y1610000D02*
X2610000Y1610000D01*
X5010000Y6010000D02*
X2610000Y6010000D01*
X10830000Y6010000D02*
X10230000Y5410000D01*
X10230000Y1610000D02*
X10230000Y5610000D01*
X12630000Y6010000D02*
X12630000Y1610000D01*
X10230000Y5610000D02*
X10230000Y6010000D01*
X12630000Y1610000D02*
X10230000Y1610000D01*
X12630000Y6010000D02*
X10230000Y6010000D01*
X18450000Y6010000D02*
X17850000Y5410000D01*
X17850000Y1610000D02*
X17850000Y5610000D01*
X20250000Y6010000D02*
X20250000Y1610000D01*
X17850000Y5610000D02*
X17850000Y6010000D01*
X20250000Y1610000D02*
X17850000Y1610000D01*
X20250000Y6010000D02*
X17850000Y6010000D01*
X33690000Y6010000D02*
X33090000Y5410000D01*
X33090000Y1610000D02*
X33090000Y5610000D01*
X35490000Y6010000D02*
X35490000Y1610000D01*
X33090000Y5610000D02*
X33090000Y6010000D01*
X35490000Y1610000D02*
X33090000Y1610000D01*
X35490000Y6010000D02*
X33090000Y6010000D01*
X41310000Y6010000D02*
X40710000Y5410000D01*
X40710000Y1610000D02*
X40710000Y5610000D01*
X43110000Y6010000D02*
X43110000Y1610000D01*
X40710000Y5610000D02*
X40710000Y6010000D01*
X43110000Y1610000D02*
X40710000Y1610000D01*
X43110000Y6010000D02*
X40710000Y6010000D01*
X48930000Y6010000D02*
X48330000Y5410000D01*
X48330000Y1610000D02*
X48330000Y5610000D01*
X50730000Y6010000D02*
X50730000Y1610000D01*
X48330000Y5610000D02*
X48330000Y6010000D01*
X50730000Y1610000D02*
X48330000Y1610000D01*
X50730000Y6010000D02*
X48330000Y6010000D01*
X56550000Y6010000D02*
X55950000Y5410000D01*
X55950000Y1610000D02*
X55950000Y5610000D01*
X58350000Y6010000D02*
X58350000Y1610000D01*
X55950000Y5610000D02*
X55950000Y6010000D01*
X58350000Y1610000D02*
X55950000Y1610000D01*
X58350000Y6010000D02*
X55950000Y6010000D01*
X57750000Y9230000D02*
X58350000Y9830000D01*
X58350000Y13630000D02*
X58350000Y9630000D01*
X55950000Y9230000D02*
X55950000Y13630000D01*
X58350000Y9630000D02*
X58350000Y9230000D01*
X55950000Y13630000D02*
X58350000Y13630000D01*
X55950000Y9230000D02*
X58350000Y9230000D01*
X50130000Y9230000D02*
X50730000Y9830000D01*
X50730000Y13630000D02*
X50730000Y9630000D01*
X48330000Y9230000D02*
X48330000Y13630000D01*
X50730000Y9630000D02*
X50730000Y9230000D01*
X48330000Y13630000D02*
X50730000Y13630000D01*
X48330000Y9230000D02*
X50730000Y9230000D01*
X42510000Y9230000D02*
X43110000Y9830000D01*
X43110000Y13630000D02*
X43110000Y9630000D01*
X40710000Y9230000D02*
X40710000Y13630000D01*
X43110000Y9630000D02*
X43110000Y9230000D01*
X40710000Y13630000D02*
X43110000Y13630000D01*
X40710000Y9230000D02*
X43110000Y9230000D01*
X34890000Y9230000D02*
X35490000Y9830000D01*
X35490000Y13630000D02*
X35490000Y9630000D01*
X33090000Y9230000D02*
X33090000Y13630000D01*
X35490000Y9630000D02*
X35490000Y9230000D01*
X33090000Y13630000D02*
X35490000Y13630000D01*
X33090000Y9230000D02*
X35490000Y9230000D01*
X27270000Y9230000D02*
X27870000Y9830000D01*
X27870000Y13630000D02*
X27870000Y9630000D01*
X25470000Y9230000D02*
X25470000Y13630000D01*
X27870000Y9630000D02*
X27870000Y9230000D01*
X25470000Y13630000D02*
X27870000Y13630000D01*
X25470000Y9230000D02*
X27870000Y9230000D01*
X19650000Y9230000D02*
X20250000Y9830000D01*
X20250000Y13630000D02*
X20250000Y9630000D01*
X17850000Y9230000D02*
X17850000Y13630000D01*
X20250000Y9630000D02*
X20250000Y9230000D01*
X17850000Y13630000D02*
X20250000Y13630000D01*
X17850000Y9230000D02*
X20250000Y9230000D01*
X12030000Y9230000D02*
X12630000Y9830000D01*
X12630000Y13630000D02*
X12630000Y9630000D01*
X10230000Y9230000D02*
X10230000Y13630000D01*
X12630000Y9630000D02*
X12630000Y9230000D01*
X10230000Y13630000D02*
X12630000Y13630000D01*
X10230000Y9230000D02*
X12630000Y9230000D01*
X3210000Y21250000D02*
X2610000Y20650000D01*
X2610000Y16850000D02*
X2610000Y20850000D01*
X5010000Y21250000D02*
X5010000Y16850000D01*
X2610000Y20850000D02*
X2610000Y21250000D01*
X5010000Y16850000D02*
X2610000Y16850000D01*
X5010000Y21250000D02*
X2610000Y21250000D01*
X10830000Y21250000D02*
X10230000Y20650000D01*
X10230000Y16850000D02*
X10230000Y20850000D01*
X12630000Y21250000D02*
X12630000Y16850000D01*
X10230000Y20850000D02*
X10230000Y21250000D01*
X12630000Y16850000D02*
X10230000Y16850000D01*
X12630000Y21250000D02*
X10230000Y21250000D01*
X18450000Y21250000D02*
X17850000Y20650000D01*
X17850000Y16850000D02*
X17850000Y20850000D01*
X20250000Y21250000D02*
X20250000Y16850000D01*
X17850000Y20850000D02*
X17850000Y21250000D01*
X20250000Y16850000D02*
X17850000Y16850000D01*
X20250000Y21250000D02*
X17850000Y21250000D01*
X26070000Y21250000D02*
X25470000Y20650000D01*
X25470000Y16850000D02*
X25470000Y20850000D01*
X27870000Y21250000D02*
X27870000Y16850000D01*
X25470000Y20850000D02*
X25470000Y21250000D01*
X27870000Y16850000D02*
X25470000Y16850000D01*
X27870000Y21250000D02*
X25470000Y21250000D01*
X33690000Y21250000D02*
X33090000Y20650000D01*
X33090000Y16850000D02*
X33090000Y20850000D01*
X35490000Y21250000D02*
X35490000Y16850000D01*
X33090000Y20850000D02*
X33090000Y21250000D01*
X35490000Y16850000D02*
X33090000Y16850000D01*
X35490000Y21250000D02*
X33090000Y21250000D01*
X41310000Y21250000D02*
X40710000Y20650000D01*
X40710000Y16850000D02*
X40710000Y20850000D01*
X43110000Y21250000D02*
X43110000Y16850000D01*
X40710000Y20850000D02*
X40710000Y21250000D01*
X43110000Y16850000D02*
X40710000Y16850000D01*
X43110000Y21250000D02*
X40710000Y21250000D01*
X48930000Y21250000D02*
X48330000Y20650000D01*
X48330000Y16850000D02*
X48330000Y20850000D01*
X50730000Y21250000D02*
X50730000Y16850000D01*
X48330000Y20850000D02*
X48330000Y21250000D01*
X50730000Y16850000D02*
X48330000Y16850000D01*
X50730000Y21250000D02*
X48330000Y21250000D01*
X56550000Y21250000D02*
X55950000Y20650000D01*
X55950000Y16850000D02*
X55950000Y20850000D01*
X58350000Y21250000D02*
X58350000Y16850000D01*
X55950000Y20850000D02*
X55950000Y21250000D01*
X58350000Y16850000D02*
X55950000Y16850000D01*
X58350000Y21250000D02*
X55950000Y21250000D01*
X57750000Y24470000D02*
X58350000Y25070000D01*
X58350000Y28870000D02*
X58350000Y24870000D01*
X55950000Y24470000D02*
X55950000Y28870000D01*
X58350000Y24870000D02*
X58350000Y24470000D01*
X55950000Y28870000D02*
X58350000Y28870000D01*
X55950000Y24470000D02*
X58350000Y24470000D01*
X50130000Y24470000D02*
X50730000Y25070000D01*
X50730000Y28870000D02*
X50730000Y24870000D01*
X48330000Y24470000D02*
X48330000Y28870000D01*
X50730000Y24870000D02*
X50730000Y24470000D01*
X48330000Y28870000D02*
X50730000Y28870000D01*
X48330000Y24470000D02*
X50730000Y24470000D01*
X42510000Y24470000D02*
X43110000Y25070000D01*
X43110000Y28870000D02*
X43110000Y24870000D01*
X40710000Y24470000D02*
X40710000Y28870000D01*
X43110000Y24870000D02*
X43110000Y24470000D01*
X40710000Y28870000D02*
X43110000Y28870000D01*
X40710000Y24470000D02*
X43110000Y24470000D01*
X34890000Y24470000D02*
X35490000Y25070000D01*
X35490000Y28870000D02*
X35490000Y24870000D01*
X33090000Y24470000D02*
X33090000Y28870000D01*
X35490000Y24870000D02*
X35490000Y24470000D01*
X33090000Y28870000D02*
X35490000Y28870000D01*
X33090000Y24470000D02*
X35490000Y24470000D01*
X27270000Y24470000D02*
X27870000Y25070000D01*
X27870000Y28870000D02*
X27870000Y24870000D01*
X25470000Y24470000D02*
X25470000Y28870000D01*
X27870000Y24870000D02*
X27870000Y24470000D01*
X25470000Y28870000D02*
X27870000Y28870000D01*
X25470000Y24470000D02*
X27870000Y24470000D01*
X19650000Y24470000D02*
X20250000Y25070000D01*
X20250000Y28870000D02*
X20250000Y24870000D01*
X17850000Y24470000D02*
X17850000Y28870000D01*
X20250000Y24870000D02*
X20250000Y24470000D01*
X17850000Y28870000D02*
X20250000Y28870000D01*
X17850000Y24470000D02*
X20250000Y24470000D01*
X12030000Y24470000D02*
X12630000Y25070000D01*
X12630000Y28870000D02*
X12630000Y24870000D01*
X10230000Y24470000D02*
X10230000Y28870000D01*
X12630000Y24870000D02*
X12630000Y24470000D01*
X10230000Y28870000D02*
X12630000Y28870000D01*
X10230000Y24470000D02*
X12630000Y24470000D01*
X4410000Y24470000D02*
X5010000Y25070000D01*
X5010000Y28870000D02*
X5010000Y24870000D01*
X2610000Y24470000D02*
X2610000Y28870000D01*
X5010000Y24870000D02*
X5010000Y24470000D01*
X2610000Y28870000D02*
X5010000Y28870000D01*
X2610000Y24470000D02*
X5010000Y24470000D01*
X3210000Y36490000D02*
X2610000Y35890000D01*
X2610000Y32090000D02*
X2610000Y36090000D01*
X5010000Y36490000D02*
X5010000Y32090000D01*
X2610000Y36090000D02*
X2610000Y36490000D01*
X5010000Y32090000D02*
X2610000Y32090000D01*
X5010000Y36490000D02*
X2610000Y36490000D01*
X10830000Y36490000D02*
X10230000Y35890000D01*
X10230000Y32090000D02*
X10230000Y36090000D01*
X12630000Y36490000D02*
X12630000Y32090000D01*
X10230000Y36090000D02*
X10230000Y36490000D01*
X12630000Y32090000D02*
X10230000Y32090000D01*
X12630000Y36490000D02*
X10230000Y36490000D01*
X18450000Y36490000D02*
X17850000Y35890000D01*
X17850000Y32090000D02*
X17850000Y36090000D01*
X20250000Y36490000D02*
X20250000Y32090000D01*
X17850000Y36090000D02*
X17850000Y36490000D01*
X20250000Y32090000D02*
X17850000Y32090000D01*
X20250000Y36490000D02*
X17850000Y36490000D01*
X26070000Y36490000D02*
X25470000Y35890000D01*
X25470000Y32090000D02*
X25470000Y36090000D01*
X27870000Y36490000D02*
X27870000Y32090000D01*
X25470000Y36090000D02*
X25470000Y36490000D01*
X27870000Y32090000D02*
X25470000Y32090000D01*
X27870000Y36490000D02*
X25470000Y36490000D01*
X33690000Y36490000D02*
X33090000Y35890000D01*
X33090000Y32090000D02*
X33090000Y36090000D01*
X35490000Y36490000D02*
X35490000Y32090000D01*
X33090000Y36090000D02*
X33090000Y36490000D01*
X35490000Y32090000D02*
X33090000Y32090000D01*
X35490000Y36490000D02*
X33090000Y36490000D01*
X41310000Y36490000D02*
X40710000Y35890000D01*
X40710000Y32090000D02*
X40710000Y36090000D01*
X43110000Y36490000D02*
X43110000Y32090000D01*
X40710000Y36090000D02*
X40710000Y36490000D01*
X43110000Y32090000D02*
X40710000Y32090000D01*
X43110000Y36490000D02*
X40710000Y36490000D01*
X48930000Y36490000D02*
X48330000Y35890000D01*
X48330000Y32090000D02*
X48330000Y36090000D01*
X50730000Y36490000D02*
X50730000Y32090000D01*
X48330000Y36090000D02*
X48330000Y36490000D01*
X50730000Y32090000D02*
X48330000Y32090000D01*
X50730000Y36490000D02*
X48330000Y36490000D01*
X56550000Y36490000D02*
X55950000Y35890000D01*
X55950000Y32090000D02*
X55950000Y36090000D01*
X58350000Y36490000D02*
X58350000Y32090000D01*
X55950000Y36090000D02*
X55950000Y36490000D01*
X58350000Y32090000D02*
X55950000Y32090000D01*
X58350000Y36490000D02*
X55950000Y36490000D01*
X57750000Y39710000D02*
X58350000Y40310000D01*
X58350000Y44110000D02*
X58350000Y40110000D01*
X55950000Y39710000D02*
X55950000Y44110000D01*
X58350000Y40110000D02*
X58350000Y39710000D01*
X55950000Y44110000D02*
X58350000Y44110000D01*
X55950000Y39710000D02*
X58350000Y39710000D01*
X50130000Y39710000D02*
X50730000Y40310000D01*
X50730000Y44110000D02*
X50730000Y40110000D01*
X48330000Y39710000D02*
X48330000Y44110000D01*
X50730000Y40110000D02*
X50730000Y39710000D01*
X48330000Y44110000D02*
X50730000Y44110000D01*
X48330000Y39710000D02*
X50730000Y39710000D01*
X42510000Y39710000D02*
X43110000Y40310000D01*
X43110000Y44110000D02*
X43110000Y40110000D01*
X40710000Y39710000D02*
X40710000Y44110000D01*
X43110000Y40110000D02*
X43110000Y39710000D01*
X40710000Y44110000D02*
X43110000Y44110000D01*
X40710000Y39710000D02*
X43110000Y39710000D01*
X34890000Y39710000D02*
X35490000Y40310000D01*
X35490000Y44110000D02*
X35490000Y40110000D01*
X33090000Y39710000D02*
X33090000Y44110000D01*
X35490000Y40110000D02*
X35490000Y39710000D01*
X33090000Y44110000D02*
X35490000Y44110000D01*
X33090000Y39710000D02*
X35490000Y39710000D01*
X27270000Y39710000D02*
X27870000Y40310000D01*
X27870000Y44110000D02*
X27870000Y40110000D01*
X25470000Y39710000D02*
X25470000Y44110000D01*
X27870000Y40110000D02*
X27870000Y39710000D01*
X25470000Y44110000D02*
X27870000Y44110000D01*
X25470000Y39710000D02*
X27870000Y39710000D01*
X19650000Y39710000D02*
X20250000Y40310000D01*
X20250000Y44110000D02*
X20250000Y40110000D01*
X17850000Y39710000D02*
X17850000Y44110000D01*
X20250000Y40110000D02*
X20250000Y39710000D01*
X17850000Y44110000D02*
X20250000Y44110000D01*
X17850000Y39710000D02*
X20250000Y39710000D01*
X12030000Y39710000D02*
X12630000Y40310000D01*
X12630000Y44110000D02*
X12630000Y40110000D01*
X10230000Y39710000D02*
X10230000Y44110000D01*
X12630000Y40110000D02*
X12630000Y39710000D01*
X10230000Y44110000D02*
X12630000Y44110000D01*
X10230000Y39710000D02*
X12630000Y39710000D01*
X4410000Y39710000D02*
X5010000Y40310000D01*
X5010000Y44110000D02*
X5010000Y40110000D01*
X2610000Y39710000D02*
X2610000Y44110000D01*
X5010000Y40110000D02*
X5010000Y39710000D01*
X2610000Y44110000D02*
X5010000Y44110000D01*
X2610000Y39710000D02*
X5010000Y39710000D01*
X3210000Y51730000D02*
X2610000Y51130000D01*
X2610000Y47330000D02*
X2610000Y51330000D01*
X5010000Y51730000D02*
X5010000Y47330000D01*
X2610000Y51330000D02*
X2610000Y51730000D01*
X5010000Y47330000D02*
X2610000Y47330000D01*
X5010000Y51730000D02*
X2610000Y51730000D01*
X10830000Y51730000D02*
X10230000Y51130000D01*
X10230000Y47330000D02*
X10230000Y51330000D01*
X12630000Y51730000D02*
X12630000Y47330000D01*
X10230000Y51330000D02*
X10230000Y51730000D01*
X12630000Y47330000D02*
X10230000Y47330000D01*
X12630000Y51730000D02*
X10230000Y51730000D01*
X18450000Y51730000D02*
X17850000Y51130000D01*
X17850000Y47330000D02*
X17850000Y51330000D01*
X20250000Y51730000D02*
X20250000Y47330000D01*
X17850000Y51330000D02*
X17850000Y51730000D01*
X20250000Y47330000D02*
X17850000Y47330000D01*
X20250000Y51730000D02*
X17850000Y51730000D01*
X26070000Y51730000D02*
X25470000Y51130000D01*
X25470000Y47330000D02*
X25470000Y51330000D01*
X27870000Y51730000D02*
X27870000Y47330000D01*
X25470000Y51330000D02*
X25470000Y51730000D01*
X27870000Y47330000D02*
X25470000Y47330000D01*
X27870000Y51730000D02*
X25470000Y51730000D01*
X33690000Y51730000D02*
X33090000Y51130000D01*
X33090000Y47330000D02*
X33090000Y51330000D01*
X35490000Y51730000D02*
X35490000Y47330000D01*
X33090000Y51330000D02*
X33090000Y51730000D01*
X35490000Y47330000D02*
X33090000Y47330000D01*
X35490000Y51730000D02*
X33090000Y51730000D01*
X41310000Y51730000D02*
X40710000Y51130000D01*
X40710000Y47330000D02*
X40710000Y51330000D01*
X43110000Y51730000D02*
X43110000Y47330000D01*
X40710000Y51330000D02*
X40710000Y51730000D01*
X43110000Y47330000D02*
X40710000Y47330000D01*
X43110000Y51730000D02*
X40710000Y51730000D01*
X48930000Y51730000D02*
X48330000Y51130000D01*
X48330000Y47330000D02*
X48330000Y51330000D01*
X50730000Y51730000D02*
X50730000Y47330000D01*
X48330000Y51330000D02*
X48330000Y51730000D01*
X50730000Y47330000D02*
X48330000Y47330000D01*
X50730000Y51730000D02*
X48330000Y51730000D01*
X56550000Y51730000D02*
X55950000Y51130000D01*
X55950000Y47330000D02*
X55950000Y51330000D01*
X58350000Y51730000D02*
X58350000Y47330000D01*
X55950000Y51330000D02*
X55950000Y51730000D01*
X58350000Y47330000D02*
X55950000Y47330000D01*
X58350000Y51730000D02*
X55950000Y51730000D01*
X57750000Y54950000D02*
X58350000Y55550000D01*
X58350000Y59350000D02*
X58350000Y55350000D01*
X55950000Y54950000D02*
X55950000Y59350000D01*
X58350000Y55350000D02*
X58350000Y54950000D01*
X55950000Y59350000D02*
X58350000Y59350000D01*
X55950000Y54950000D02*
X58350000Y54950000D01*
X50130000Y54950000D02*
X50730000Y55550000D01*
X50730000Y59350000D02*
X50730000Y55350000D01*
X48330000Y54950000D02*
X48330000Y59350000D01*
X50730000Y55350000D02*
X50730000Y54950000D01*
X48330000Y59350000D02*
X50730000Y59350000D01*
X48330000Y54950000D02*
X50730000Y54950000D01*
X42510000Y54950000D02*
X43110000Y55550000D01*
X43110000Y59350000D02*
X43110000Y55350000D01*
X40710000Y54950000D02*
X40710000Y59350000D01*
X43110000Y55350000D02*
X43110000Y54950000D01*
X40710000Y59350000D02*
X43110000Y59350000D01*
X40710000Y54950000D02*
X43110000Y54950000D01*
X34890000Y54950000D02*
X35490000Y55550000D01*
X35490000Y59350000D02*
X35490000Y55350000D01*
X33090000Y54950000D02*
X33090000Y59350000D01*
X35490000Y55350000D02*
X35490000Y54950000D01*
X33090000Y59350000D02*
X35490000Y59350000D01*
X33090000Y54950000D02*
X35490000Y54950000D01*
X27270000Y54950000D02*
X27870000Y55550000D01*
X27870000Y59350000D02*
X27870000Y55350000D01*
X25470000Y54950000D02*
X25470000Y59350000D01*
X27870000Y55350000D02*
X27870000Y54950000D01*
X25470000Y59350000D02*
X27870000Y59350000D01*
X25470000Y54950000D02*
X27870000Y54950000D01*
X19650000Y54950000D02*
X20250000Y55550000D01*
X20250000Y59350000D02*
X20250000Y55350000D01*
X17850000Y54950000D02*
X17850000Y59350000D01*
X20250000Y55350000D02*
X20250000Y54950000D01*
X17850000Y59350000D02*
X20250000Y59350000D01*
X17850000Y54950000D02*
X20250000Y54950000D01*
X12030000Y54950000D02*
X12630000Y55550000D01*
X12630000Y59350000D02*
X12630000Y55350000D01*
X10230000Y54950000D02*
X10230000Y59350000D01*
X12630000Y55350000D02*
X12630000Y54950000D01*
X10230000Y59350000D02*
X12630000Y59350000D01*
X10230000Y54950000D02*
X12630000Y54950000D01*
X4410000Y54950000D02*
X5010000Y55550000D01*
X5010000Y59350000D02*
X5010000Y55350000D01*
X2610000Y54950000D02*
X2610000Y59350000D01*
X5010000Y55350000D02*
X5010000Y54950000D01*
X2610000Y59350000D02*
X5010000Y59350000D01*
X2610000Y54950000D02*
X5010000Y54950000D01*
X4410000Y9230000D02*
X5010000Y9830000D01*
X5010000Y13630000D02*
X5010000Y9630000D01*
X2610000Y9230000D02*
X2610000Y13630000D01*
X5010000Y9630000D02*
X5010000Y9230000D01*
X2610000Y13630000D02*
X5010000Y13630000D01*
X2610000Y9230000D02*
X5010000Y9230000D01*
D13*
X25412096Y7366381D02*
X25412096Y6543905D01*
X25460477Y6447143D01*
X25508858Y6398762D01*
X25605620Y6350381D01*
X25799143Y6350381D01*
X25895905Y6398762D01*
X25944286Y6447143D01*
X25992667Y6543905D01*
X25992667Y7366381D01*
X26670001Y7366381D02*
X26766762Y7366381D01*
X26863524Y7318000D01*
X26911905Y7269619D01*
X26960286Y7172857D01*
X27008667Y6979333D01*
X27008667Y6737429D01*
X26960286Y6543905D01*
X26911905Y6447143D01*
X26863524Y6398762D01*
X26766762Y6350381D01*
X26670001Y6350381D01*
X26573239Y6398762D01*
X26524858Y6447143D01*
X26476477Y6543905D01*
X26428096Y6737429D01*
X26428096Y6979333D01*
X26476477Y7172857D01*
X26524858Y7269619D01*
X26573239Y7318000D01*
X26670001Y7366381D01*
X27879524Y7027714D02*
X27879524Y6350381D01*
X27637620Y7414762D02*
X27395715Y6689048D01*
X28024667Y6689048D01*
X2552096Y7366381D02*
X2552096Y6543905D01*
X2600477Y6447143D01*
X2648858Y6398762D01*
X2745620Y6350381D01*
X2939143Y6350381D01*
X3035905Y6398762D01*
X3084286Y6447143D01*
X3132667Y6543905D01*
X3132667Y7366381D01*
X3810001Y7366381D02*
X3906762Y7366381D01*
X4003524Y7318000D01*
X4051905Y7269619D01*
X4100286Y7172857D01*
X4148667Y6979333D01*
X4148667Y6737429D01*
X4100286Y6543905D01*
X4051905Y6447143D01*
X4003524Y6398762D01*
X3906762Y6350381D01*
X3810001Y6350381D01*
X3713239Y6398762D01*
X3664858Y6447143D01*
X3616477Y6543905D01*
X3568096Y6737429D01*
X3568096Y6979333D01*
X3616477Y7172857D01*
X3664858Y7269619D01*
X3713239Y7318000D01*
X3810001Y7366381D01*
X5116286Y6350381D02*
X4535715Y6350381D01*
X4826001Y6350381D02*
X4826001Y7366381D01*
X4729239Y7221238D01*
X4632477Y7124476D01*
X4535715Y7076095D01*
X10172096Y7366381D02*
X10172096Y6543905D01*
X10220477Y6447143D01*
X10268858Y6398762D01*
X10365620Y6350381D01*
X10559143Y6350381D01*
X10655905Y6398762D01*
X10704286Y6447143D01*
X10752667Y6543905D01*
X10752667Y7366381D01*
X11430001Y7366381D02*
X11526762Y7366381D01*
X11623524Y7318000D01*
X11671905Y7269619D01*
X11720286Y7172857D01*
X11768667Y6979333D01*
X11768667Y6737429D01*
X11720286Y6543905D01*
X11671905Y6447143D01*
X11623524Y6398762D01*
X11526762Y6350381D01*
X11430001Y6350381D01*
X11333239Y6398762D01*
X11284858Y6447143D01*
X11236477Y6543905D01*
X11188096Y6737429D01*
X11188096Y6979333D01*
X11236477Y7172857D01*
X11284858Y7269619D01*
X11333239Y7318000D01*
X11430001Y7366381D01*
X12155715Y7269619D02*
X12204096Y7318000D01*
X12300858Y7366381D01*
X12542762Y7366381D01*
X12639524Y7318000D01*
X12687905Y7269619D01*
X12736286Y7172857D01*
X12736286Y7076095D01*
X12687905Y6930952D01*
X12107334Y6350381D01*
X12736286Y6350381D01*
X17792096Y7366381D02*
X17792096Y6543905D01*
X17840477Y6447143D01*
X17888858Y6398762D01*
X17985620Y6350381D01*
X18179143Y6350381D01*
X18275905Y6398762D01*
X18324286Y6447143D01*
X18372667Y6543905D01*
X18372667Y7366381D01*
X19050001Y7366381D02*
X19146762Y7366381D01*
X19243524Y7318000D01*
X19291905Y7269619D01*
X19340286Y7172857D01*
X19388667Y6979333D01*
X19388667Y6737429D01*
X19340286Y6543905D01*
X19291905Y6447143D01*
X19243524Y6398762D01*
X19146762Y6350381D01*
X19050001Y6350381D01*
X18953239Y6398762D01*
X18904858Y6447143D01*
X18856477Y6543905D01*
X18808096Y6737429D01*
X18808096Y6979333D01*
X18856477Y7172857D01*
X18904858Y7269619D01*
X18953239Y7318000D01*
X19050001Y7366381D01*
X19727334Y7366381D02*
X20356286Y7366381D01*
X20017620Y6979333D01*
X20162762Y6979333D01*
X20259524Y6930952D01*
X20307905Y6882571D01*
X20356286Y6785810D01*
X20356286Y6543905D01*
X20307905Y6447143D01*
X20259524Y6398762D01*
X20162762Y6350381D01*
X19872477Y6350381D01*
X19775715Y6398762D01*
X19727334Y6447143D01*
X33032096Y7366381D02*
X33032096Y6543905D01*
X33080477Y6447143D01*
X33128858Y6398762D01*
X33225620Y6350381D01*
X33419143Y6350381D01*
X33515905Y6398762D01*
X33564286Y6447143D01*
X33612667Y6543905D01*
X33612667Y7366381D01*
X34290001Y7366381D02*
X34386762Y7366381D01*
X34483524Y7318000D01*
X34531905Y7269619D01*
X34580286Y7172857D01*
X34628667Y6979333D01*
X34628667Y6737429D01*
X34580286Y6543905D01*
X34531905Y6447143D01*
X34483524Y6398762D01*
X34386762Y6350381D01*
X34290001Y6350381D01*
X34193239Y6398762D01*
X34144858Y6447143D01*
X34096477Y6543905D01*
X34048096Y6737429D01*
X34048096Y6979333D01*
X34096477Y7172857D01*
X34144858Y7269619D01*
X34193239Y7318000D01*
X34290001Y7366381D01*
X35547905Y7366381D02*
X35064096Y7366381D01*
X35015715Y6882571D01*
X35064096Y6930952D01*
X35160858Y6979333D01*
X35402762Y6979333D01*
X35499524Y6930952D01*
X35547905Y6882571D01*
X35596286Y6785810D01*
X35596286Y6543905D01*
X35547905Y6447143D01*
X35499524Y6398762D01*
X35402762Y6350381D01*
X35160858Y6350381D01*
X35064096Y6398762D01*
X35015715Y6447143D01*
X40652096Y7366381D02*
X40652096Y6543905D01*
X40700477Y6447143D01*
X40748858Y6398762D01*
X40845620Y6350381D01*
X41039143Y6350381D01*
X41135905Y6398762D01*
X41184286Y6447143D01*
X41232667Y6543905D01*
X41232667Y7366381D01*
X41910001Y7366381D02*
X42006762Y7366381D01*
X42103524Y7318000D01*
X42151905Y7269619D01*
X42200286Y7172857D01*
X42248667Y6979333D01*
X42248667Y6737429D01*
X42200286Y6543905D01*
X42151905Y6447143D01*
X42103524Y6398762D01*
X42006762Y6350381D01*
X41910001Y6350381D01*
X41813239Y6398762D01*
X41764858Y6447143D01*
X41716477Y6543905D01*
X41668096Y6737429D01*
X41668096Y6979333D01*
X41716477Y7172857D01*
X41764858Y7269619D01*
X41813239Y7318000D01*
X41910001Y7366381D01*
X43119524Y7366381D02*
X42926001Y7366381D01*
X42829239Y7318000D01*
X42780858Y7269619D01*
X42684096Y7124476D01*
X42635715Y6930952D01*
X42635715Y6543905D01*
X42684096Y6447143D01*
X42732477Y6398762D01*
X42829239Y6350381D01*
X43022762Y6350381D01*
X43119524Y6398762D01*
X43167905Y6447143D01*
X43216286Y6543905D01*
X43216286Y6785810D01*
X43167905Y6882571D01*
X43119524Y6930952D01*
X43022762Y6979333D01*
X42829239Y6979333D01*
X42732477Y6930952D01*
X42684096Y6882571D01*
X42635715Y6785810D01*
X48272096Y7366381D02*
X48272096Y6543905D01*
X48320477Y6447143D01*
X48368858Y6398762D01*
X48465620Y6350381D01*
X48659143Y6350381D01*
X48755905Y6398762D01*
X48804286Y6447143D01*
X48852667Y6543905D01*
X48852667Y7366381D01*
X49530001Y7366381D02*
X49626762Y7366381D01*
X49723524Y7318000D01*
X49771905Y7269619D01*
X49820286Y7172857D01*
X49868667Y6979333D01*
X49868667Y6737429D01*
X49820286Y6543905D01*
X49771905Y6447143D01*
X49723524Y6398762D01*
X49626762Y6350381D01*
X49530001Y6350381D01*
X49433239Y6398762D01*
X49384858Y6447143D01*
X49336477Y6543905D01*
X49288096Y6737429D01*
X49288096Y6979333D01*
X49336477Y7172857D01*
X49384858Y7269619D01*
X49433239Y7318000D01*
X49530001Y7366381D01*
X50207334Y7366381D02*
X50884667Y7366381D01*
X50449239Y6350381D01*
X55892096Y7366381D02*
X55892096Y6543905D01*
X55940477Y6447143D01*
X55988858Y6398762D01*
X56085620Y6350381D01*
X56279143Y6350381D01*
X56375905Y6398762D01*
X56424286Y6447143D01*
X56472667Y6543905D01*
X56472667Y7366381D01*
X57150001Y7366381D02*
X57246762Y7366381D01*
X57343524Y7318000D01*
X57391905Y7269619D01*
X57440286Y7172857D01*
X57488667Y6979333D01*
X57488667Y6737429D01*
X57440286Y6543905D01*
X57391905Y6447143D01*
X57343524Y6398762D01*
X57246762Y6350381D01*
X57150001Y6350381D01*
X57053239Y6398762D01*
X57004858Y6447143D01*
X56956477Y6543905D01*
X56908096Y6737429D01*
X56908096Y6979333D01*
X56956477Y7172857D01*
X57004858Y7269619D01*
X57053239Y7318000D01*
X57150001Y7366381D01*
X58069239Y6930952D02*
X57972477Y6979333D01*
X57924096Y7027714D01*
X57875715Y7124476D01*
X57875715Y7172857D01*
X57924096Y7269619D01*
X57972477Y7318000D01*
X58069239Y7366381D01*
X58262762Y7366381D01*
X58359524Y7318000D01*
X58407905Y7269619D01*
X58456286Y7172857D01*
X58456286Y7124476D01*
X58407905Y7027714D01*
X58359524Y6979333D01*
X58262762Y6930952D01*
X58069239Y6930952D01*
X57972477Y6882571D01*
X57924096Y6834190D01*
X57875715Y6737429D01*
X57875715Y6543905D01*
X57924096Y6447143D01*
X57972477Y6398762D01*
X58069239Y6350381D01*
X58262762Y6350381D01*
X58359524Y6398762D01*
X58407905Y6447143D01*
X58456286Y6543905D01*
X58456286Y6737429D01*
X58407905Y6834190D01*
X58359524Y6882571D01*
X58262762Y6930952D01*
X55892096Y8986381D02*
X55892096Y8163905D01*
X55940477Y8067143D01*
X55988858Y8018762D01*
X56085620Y7970381D01*
X56279143Y7970381D01*
X56375905Y8018762D01*
X56424286Y8067143D01*
X56472667Y8163905D01*
X56472667Y8986381D01*
X57150001Y8986381D02*
X57246762Y8986381D01*
X57343524Y8938000D01*
X57391905Y8889619D01*
X57440286Y8792857D01*
X57488667Y8599333D01*
X57488667Y8357429D01*
X57440286Y8163905D01*
X57391905Y8067143D01*
X57343524Y8018762D01*
X57246762Y7970381D01*
X57150001Y7970381D01*
X57053239Y8018762D01*
X57004858Y8067143D01*
X56956477Y8163905D01*
X56908096Y8357429D01*
X56908096Y8599333D01*
X56956477Y8792857D01*
X57004858Y8889619D01*
X57053239Y8938000D01*
X57150001Y8986381D01*
X57972477Y7970381D02*
X58166001Y7970381D01*
X58262762Y8018762D01*
X58311143Y8067143D01*
X58407905Y8212286D01*
X58456286Y8405810D01*
X58456286Y8792857D01*
X58407905Y8889619D01*
X58359524Y8938000D01*
X58262762Y8986381D01*
X58069239Y8986381D01*
X57972477Y8938000D01*
X57924096Y8889619D01*
X57875715Y8792857D01*
X57875715Y8550952D01*
X57924096Y8454190D01*
X57972477Y8405810D01*
X58069239Y8357429D01*
X58262762Y8357429D01*
X58359524Y8405810D01*
X58407905Y8454190D01*
X58456286Y8550952D01*
X48272096Y8986381D02*
X48272096Y8163905D01*
X48320477Y8067143D01*
X48368858Y8018762D01*
X48465620Y7970381D01*
X48659143Y7970381D01*
X48755905Y8018762D01*
X48804286Y8067143D01*
X48852667Y8163905D01*
X48852667Y8986381D01*
X49868667Y7970381D02*
X49288096Y7970381D01*
X49578382Y7970381D02*
X49578382Y8986381D01*
X49481620Y8841238D01*
X49384858Y8744476D01*
X49288096Y8696095D01*
X50497620Y8986381D02*
X50594381Y8986381D01*
X50691143Y8938000D01*
X50739524Y8889619D01*
X50787905Y8792857D01*
X50836286Y8599333D01*
X50836286Y8357429D01*
X50787905Y8163905D01*
X50739524Y8067143D01*
X50691143Y8018762D01*
X50594381Y7970381D01*
X50497620Y7970381D01*
X50400858Y8018762D01*
X50352477Y8067143D01*
X50304096Y8163905D01*
X50255715Y8357429D01*
X50255715Y8599333D01*
X50304096Y8792857D01*
X50352477Y8889619D01*
X50400858Y8938000D01*
X50497620Y8986381D01*
X40652096Y8986381D02*
X40652096Y8163905D01*
X40700477Y8067143D01*
X40748858Y8018762D01*
X40845620Y7970381D01*
X41039143Y7970381D01*
X41135905Y8018762D01*
X41184286Y8067143D01*
X41232667Y8163905D01*
X41232667Y8986381D01*
X42248667Y7970381D02*
X41668096Y7970381D01*
X41958382Y7970381D02*
X41958382Y8986381D01*
X41861620Y8841238D01*
X41764858Y8744476D01*
X41668096Y8696095D01*
X43216286Y7970381D02*
X42635715Y7970381D01*
X42926001Y7970381D02*
X42926001Y8986381D01*
X42829239Y8841238D01*
X42732477Y8744476D01*
X42635715Y8696095D01*
X33032096Y8986381D02*
X33032096Y8163905D01*
X33080477Y8067143D01*
X33128858Y8018762D01*
X33225620Y7970381D01*
X33419143Y7970381D01*
X33515905Y8018762D01*
X33564286Y8067143D01*
X33612667Y8163905D01*
X33612667Y8986381D01*
X34628667Y7970381D02*
X34048096Y7970381D01*
X34338382Y7970381D02*
X34338382Y8986381D01*
X34241620Y8841238D01*
X34144858Y8744476D01*
X34048096Y8696095D01*
X35015715Y8889619D02*
X35064096Y8938000D01*
X35160858Y8986381D01*
X35402762Y8986381D01*
X35499524Y8938000D01*
X35547905Y8889619D01*
X35596286Y8792857D01*
X35596286Y8696095D01*
X35547905Y8550952D01*
X34967334Y7970381D01*
X35596286Y7970381D01*
X25412096Y8986381D02*
X25412096Y8163905D01*
X25460477Y8067143D01*
X25508858Y8018762D01*
X25605620Y7970381D01*
X25799143Y7970381D01*
X25895905Y8018762D01*
X25944286Y8067143D01*
X25992667Y8163905D01*
X25992667Y8986381D01*
X27008667Y7970381D02*
X26428096Y7970381D01*
X26718382Y7970381D02*
X26718382Y8986381D01*
X26621620Y8841238D01*
X26524858Y8744476D01*
X26428096Y8696095D01*
X27347334Y8986381D02*
X27976286Y8986381D01*
X27637620Y8599333D01*
X27782762Y8599333D01*
X27879524Y8550952D01*
X27927905Y8502571D01*
X27976286Y8405810D01*
X27976286Y8163905D01*
X27927905Y8067143D01*
X27879524Y8018762D01*
X27782762Y7970381D01*
X27492477Y7970381D01*
X27395715Y8018762D01*
X27347334Y8067143D01*
X17792096Y8986381D02*
X17792096Y8163905D01*
X17840477Y8067143D01*
X17888858Y8018762D01*
X17985620Y7970381D01*
X18179143Y7970381D01*
X18275905Y8018762D01*
X18324286Y8067143D01*
X18372667Y8163905D01*
X18372667Y8986381D01*
X19388667Y7970381D02*
X18808096Y7970381D01*
X19098382Y7970381D02*
X19098382Y8986381D01*
X19001620Y8841238D01*
X18904858Y8744476D01*
X18808096Y8696095D01*
X20259524Y8647714D02*
X20259524Y7970381D01*
X20017620Y9034762D02*
X19775715Y8309048D01*
X20404667Y8309048D01*
X10172096Y8986381D02*
X10172096Y8163905D01*
X10220477Y8067143D01*
X10268858Y8018762D01*
X10365620Y7970381D01*
X10559143Y7970381D01*
X10655905Y8018762D01*
X10704286Y8067143D01*
X10752667Y8163905D01*
X10752667Y8986381D01*
X11768667Y7970381D02*
X11188096Y7970381D01*
X11478382Y7970381D02*
X11478382Y8986381D01*
X11381620Y8841238D01*
X11284858Y8744476D01*
X11188096Y8696095D01*
X12687905Y8986381D02*
X12204096Y8986381D01*
X12155715Y8502571D01*
X12204096Y8550952D01*
X12300858Y8599333D01*
X12542762Y8599333D01*
X12639524Y8550952D01*
X12687905Y8502571D01*
X12736286Y8405810D01*
X12736286Y8163905D01*
X12687905Y8067143D01*
X12639524Y8018762D01*
X12542762Y7970381D01*
X12300858Y7970381D01*
X12204096Y8018762D01*
X12155715Y8067143D01*
X2552096Y22606381D02*
X2552096Y21783905D01*
X2600477Y21687143D01*
X2648858Y21638762D01*
X2745620Y21590381D01*
X2939143Y21590381D01*
X3035905Y21638762D01*
X3084286Y21687143D01*
X3132667Y21783905D01*
X3132667Y22606381D01*
X4148667Y21590381D02*
X3568096Y21590381D01*
X3858382Y21590381D02*
X3858382Y22606381D01*
X3761620Y22461238D01*
X3664858Y22364476D01*
X3568096Y22316095D01*
X4487334Y22606381D02*
X5164667Y22606381D01*
X4729239Y21590381D01*
X10172096Y22606381D02*
X10172096Y21783905D01*
X10220477Y21687143D01*
X10268858Y21638762D01*
X10365620Y21590381D01*
X10559143Y21590381D01*
X10655905Y21638762D01*
X10704286Y21687143D01*
X10752667Y21783905D01*
X10752667Y22606381D01*
X11768667Y21590381D02*
X11188096Y21590381D01*
X11478382Y21590381D02*
X11478382Y22606381D01*
X11381620Y22461238D01*
X11284858Y22364476D01*
X11188096Y22316095D01*
X12349239Y22170952D02*
X12252477Y22219333D01*
X12204096Y22267714D01*
X12155715Y22364476D01*
X12155715Y22412857D01*
X12204096Y22509619D01*
X12252477Y22558000D01*
X12349239Y22606381D01*
X12542762Y22606381D01*
X12639524Y22558000D01*
X12687905Y22509619D01*
X12736286Y22412857D01*
X12736286Y22364476D01*
X12687905Y22267714D01*
X12639524Y22219333D01*
X12542762Y22170952D01*
X12349239Y22170952D01*
X12252477Y22122571D01*
X12204096Y22074190D01*
X12155715Y21977429D01*
X12155715Y21783905D01*
X12204096Y21687143D01*
X12252477Y21638762D01*
X12349239Y21590381D01*
X12542762Y21590381D01*
X12639524Y21638762D01*
X12687905Y21687143D01*
X12736286Y21783905D01*
X12736286Y21977429D01*
X12687905Y22074190D01*
X12639524Y22122571D01*
X12542762Y22170952D01*
X17792096Y22606381D02*
X17792096Y21783905D01*
X17840477Y21687143D01*
X17888858Y21638762D01*
X17985620Y21590381D01*
X18179143Y21590381D01*
X18275905Y21638762D01*
X18324286Y21687143D01*
X18372667Y21783905D01*
X18372667Y22606381D01*
X19388667Y21590381D02*
X18808096Y21590381D01*
X19098382Y21590381D02*
X19098382Y22606381D01*
X19001620Y22461238D01*
X18904858Y22364476D01*
X18808096Y22316095D01*
X19872477Y21590381D02*
X20066001Y21590381D01*
X20162762Y21638762D01*
X20211143Y21687143D01*
X20307905Y21832286D01*
X20356286Y22025810D01*
X20356286Y22412857D01*
X20307905Y22509619D01*
X20259524Y22558000D01*
X20162762Y22606381D01*
X19969239Y22606381D01*
X19872477Y22558000D01*
X19824096Y22509619D01*
X19775715Y22412857D01*
X19775715Y22170952D01*
X19824096Y22074190D01*
X19872477Y22025810D01*
X19969239Y21977429D01*
X20162762Y21977429D01*
X20259524Y22025810D01*
X20307905Y22074190D01*
X20356286Y22170952D01*
X25412096Y22606381D02*
X25412096Y21783905D01*
X25460477Y21687143D01*
X25508858Y21638762D01*
X25605620Y21590381D01*
X25799143Y21590381D01*
X25895905Y21638762D01*
X25944286Y21687143D01*
X25992667Y21783905D01*
X25992667Y22606381D01*
X26428096Y22509619D02*
X26476477Y22558000D01*
X26573239Y22606381D01*
X26815143Y22606381D01*
X26911905Y22558000D01*
X26960286Y22509619D01*
X27008667Y22412857D01*
X27008667Y22316095D01*
X26960286Y22170952D01*
X26379715Y21590381D01*
X27008667Y21590381D01*
X27637620Y22606381D02*
X27734381Y22606381D01*
X27831143Y22558000D01*
X27879524Y22509619D01*
X27927905Y22412857D01*
X27976286Y22219333D01*
X27976286Y21977429D01*
X27927905Y21783905D01*
X27879524Y21687143D01*
X27831143Y21638762D01*
X27734381Y21590381D01*
X27637620Y21590381D01*
X27540858Y21638762D01*
X27492477Y21687143D01*
X27444096Y21783905D01*
X27395715Y21977429D01*
X27395715Y22219333D01*
X27444096Y22412857D01*
X27492477Y22509619D01*
X27540858Y22558000D01*
X27637620Y22606381D01*
X33032096Y22606381D02*
X33032096Y21783905D01*
X33080477Y21687143D01*
X33128858Y21638762D01*
X33225620Y21590381D01*
X33419143Y21590381D01*
X33515905Y21638762D01*
X33564286Y21687143D01*
X33612667Y21783905D01*
X33612667Y22606381D01*
X34048096Y22509619D02*
X34096477Y22558000D01*
X34193239Y22606381D01*
X34435143Y22606381D01*
X34531905Y22558000D01*
X34580286Y22509619D01*
X34628667Y22412857D01*
X34628667Y22316095D01*
X34580286Y22170952D01*
X33999715Y21590381D01*
X34628667Y21590381D01*
X35596286Y21590381D02*
X35015715Y21590381D01*
X35306001Y21590381D02*
X35306001Y22606381D01*
X35209239Y22461238D01*
X35112477Y22364476D01*
X35015715Y22316095D01*
X40652096Y22606381D02*
X40652096Y21783905D01*
X40700477Y21687143D01*
X40748858Y21638762D01*
X40845620Y21590381D01*
X41039143Y21590381D01*
X41135905Y21638762D01*
X41184286Y21687143D01*
X41232667Y21783905D01*
X41232667Y22606381D01*
X41668096Y22509619D02*
X41716477Y22558000D01*
X41813239Y22606381D01*
X42055143Y22606381D01*
X42151905Y22558000D01*
X42200286Y22509619D01*
X42248667Y22412857D01*
X42248667Y22316095D01*
X42200286Y22170952D01*
X41619715Y21590381D01*
X42248667Y21590381D01*
X42635715Y22509619D02*
X42684096Y22558000D01*
X42780858Y22606381D01*
X43022762Y22606381D01*
X43119524Y22558000D01*
X43167905Y22509619D01*
X43216286Y22412857D01*
X43216286Y22316095D01*
X43167905Y22170952D01*
X42587334Y21590381D01*
X43216286Y21590381D01*
X48272096Y22606381D02*
X48272096Y21783905D01*
X48320477Y21687143D01*
X48368858Y21638762D01*
X48465620Y21590381D01*
X48659143Y21590381D01*
X48755905Y21638762D01*
X48804286Y21687143D01*
X48852667Y21783905D01*
X48852667Y22606381D01*
X49288096Y22509619D02*
X49336477Y22558000D01*
X49433239Y22606381D01*
X49675143Y22606381D01*
X49771905Y22558000D01*
X49820286Y22509619D01*
X49868667Y22412857D01*
X49868667Y22316095D01*
X49820286Y22170952D01*
X49239715Y21590381D01*
X49868667Y21590381D01*
X50207334Y22606381D02*
X50836286Y22606381D01*
X50497620Y22219333D01*
X50642762Y22219333D01*
X50739524Y22170952D01*
X50787905Y22122571D01*
X50836286Y22025810D01*
X50836286Y21783905D01*
X50787905Y21687143D01*
X50739524Y21638762D01*
X50642762Y21590381D01*
X50352477Y21590381D01*
X50255715Y21638762D01*
X50207334Y21687143D01*
X55892096Y22606381D02*
X55892096Y21783905D01*
X55940477Y21687143D01*
X55988858Y21638762D01*
X56085620Y21590381D01*
X56279143Y21590381D01*
X56375905Y21638762D01*
X56424286Y21687143D01*
X56472667Y21783905D01*
X56472667Y22606381D01*
X56908096Y22509619D02*
X56956477Y22558000D01*
X57053239Y22606381D01*
X57295143Y22606381D01*
X57391905Y22558000D01*
X57440286Y22509619D01*
X57488667Y22412857D01*
X57488667Y22316095D01*
X57440286Y22170952D01*
X56859715Y21590381D01*
X57488667Y21590381D01*
X58359524Y22267714D02*
X58359524Y21590381D01*
X58117620Y22654762D02*
X57875715Y21929048D01*
X58504667Y21929048D01*
X55892096Y24226381D02*
X55892096Y23403905D01*
X55940477Y23307143D01*
X55988858Y23258762D01*
X56085620Y23210381D01*
X56279143Y23210381D01*
X56375905Y23258762D01*
X56424286Y23307143D01*
X56472667Y23403905D01*
X56472667Y24226381D01*
X56908096Y24129619D02*
X56956477Y24178000D01*
X57053239Y24226381D01*
X57295143Y24226381D01*
X57391905Y24178000D01*
X57440286Y24129619D01*
X57488667Y24032857D01*
X57488667Y23936095D01*
X57440286Y23790952D01*
X56859715Y23210381D01*
X57488667Y23210381D01*
X58407905Y24226381D02*
X57924096Y24226381D01*
X57875715Y23742571D01*
X57924096Y23790952D01*
X58020858Y23839333D01*
X58262762Y23839333D01*
X58359524Y23790952D01*
X58407905Y23742571D01*
X58456286Y23645810D01*
X58456286Y23403905D01*
X58407905Y23307143D01*
X58359524Y23258762D01*
X58262762Y23210381D01*
X58020858Y23210381D01*
X57924096Y23258762D01*
X57875715Y23307143D01*
X48272096Y24226381D02*
X48272096Y23403905D01*
X48320477Y23307143D01*
X48368858Y23258762D01*
X48465620Y23210381D01*
X48659143Y23210381D01*
X48755905Y23258762D01*
X48804286Y23307143D01*
X48852667Y23403905D01*
X48852667Y24226381D01*
X49288096Y24129619D02*
X49336477Y24178000D01*
X49433239Y24226381D01*
X49675143Y24226381D01*
X49771905Y24178000D01*
X49820286Y24129619D01*
X49868667Y24032857D01*
X49868667Y23936095D01*
X49820286Y23790952D01*
X49239715Y23210381D01*
X49868667Y23210381D01*
X50739524Y24226381D02*
X50546001Y24226381D01*
X50449239Y24178000D01*
X50400858Y24129619D01*
X50304096Y23984476D01*
X50255715Y23790952D01*
X50255715Y23403905D01*
X50304096Y23307143D01*
X50352477Y23258762D01*
X50449239Y23210381D01*
X50642762Y23210381D01*
X50739524Y23258762D01*
X50787905Y23307143D01*
X50836286Y23403905D01*
X50836286Y23645810D01*
X50787905Y23742571D01*
X50739524Y23790952D01*
X50642762Y23839333D01*
X50449239Y23839333D01*
X50352477Y23790952D01*
X50304096Y23742571D01*
X50255715Y23645810D01*
X40652096Y24226381D02*
X40652096Y23403905D01*
X40700477Y23307143D01*
X40748858Y23258762D01*
X40845620Y23210381D01*
X41039143Y23210381D01*
X41135905Y23258762D01*
X41184286Y23307143D01*
X41232667Y23403905D01*
X41232667Y24226381D01*
X41668096Y24129619D02*
X41716477Y24178000D01*
X41813239Y24226381D01*
X42055143Y24226381D01*
X42151905Y24178000D01*
X42200286Y24129619D01*
X42248667Y24032857D01*
X42248667Y23936095D01*
X42200286Y23790952D01*
X41619715Y23210381D01*
X42248667Y23210381D01*
X42587334Y24226381D02*
X43264667Y24226381D01*
X42829239Y23210381D01*
X33032096Y24226381D02*
X33032096Y23403905D01*
X33080477Y23307143D01*
X33128858Y23258762D01*
X33225620Y23210381D01*
X33419143Y23210381D01*
X33515905Y23258762D01*
X33564286Y23307143D01*
X33612667Y23403905D01*
X33612667Y24226381D01*
X34048096Y24129619D02*
X34096477Y24178000D01*
X34193239Y24226381D01*
X34435143Y24226381D01*
X34531905Y24178000D01*
X34580286Y24129619D01*
X34628667Y24032857D01*
X34628667Y23936095D01*
X34580286Y23790952D01*
X33999715Y23210381D01*
X34628667Y23210381D01*
X35209239Y23790952D02*
X35112477Y23839333D01*
X35064096Y23887714D01*
X35015715Y23984476D01*
X35015715Y24032857D01*
X35064096Y24129619D01*
X35112477Y24178000D01*
X35209239Y24226381D01*
X35402762Y24226381D01*
X35499524Y24178000D01*
X35547905Y24129619D01*
X35596286Y24032857D01*
X35596286Y23984476D01*
X35547905Y23887714D01*
X35499524Y23839333D01*
X35402762Y23790952D01*
X35209239Y23790952D01*
X35112477Y23742571D01*
X35064096Y23694190D01*
X35015715Y23597429D01*
X35015715Y23403905D01*
X35064096Y23307143D01*
X35112477Y23258762D01*
X35209239Y23210381D01*
X35402762Y23210381D01*
X35499524Y23258762D01*
X35547905Y23307143D01*
X35596286Y23403905D01*
X35596286Y23597429D01*
X35547905Y23694190D01*
X35499524Y23742571D01*
X35402762Y23790952D01*
X25412096Y24226381D02*
X25412096Y23403905D01*
X25460477Y23307143D01*
X25508858Y23258762D01*
X25605620Y23210381D01*
X25799143Y23210381D01*
X25895905Y23258762D01*
X25944286Y23307143D01*
X25992667Y23403905D01*
X25992667Y24226381D01*
X26428096Y24129619D02*
X26476477Y24178000D01*
X26573239Y24226381D01*
X26815143Y24226381D01*
X26911905Y24178000D01*
X26960286Y24129619D01*
X27008667Y24032857D01*
X27008667Y23936095D01*
X26960286Y23790952D01*
X26379715Y23210381D01*
X27008667Y23210381D01*
X27492477Y23210381D02*
X27686001Y23210381D01*
X27782762Y23258762D01*
X27831143Y23307143D01*
X27927905Y23452286D01*
X27976286Y23645810D01*
X27976286Y24032857D01*
X27927905Y24129619D01*
X27879524Y24178000D01*
X27782762Y24226381D01*
X27589239Y24226381D01*
X27492477Y24178000D01*
X27444096Y24129619D01*
X27395715Y24032857D01*
X27395715Y23790952D01*
X27444096Y23694190D01*
X27492477Y23645810D01*
X27589239Y23597429D01*
X27782762Y23597429D01*
X27879524Y23645810D01*
X27927905Y23694190D01*
X27976286Y23790952D01*
X17792096Y24226381D02*
X17792096Y23403905D01*
X17840477Y23307143D01*
X17888858Y23258762D01*
X17985620Y23210381D01*
X18179143Y23210381D01*
X18275905Y23258762D01*
X18324286Y23307143D01*
X18372667Y23403905D01*
X18372667Y24226381D01*
X18759715Y24226381D02*
X19388667Y24226381D01*
X19050001Y23839333D01*
X19195143Y23839333D01*
X19291905Y23790952D01*
X19340286Y23742571D01*
X19388667Y23645810D01*
X19388667Y23403905D01*
X19340286Y23307143D01*
X19291905Y23258762D01*
X19195143Y23210381D01*
X18904858Y23210381D01*
X18808096Y23258762D01*
X18759715Y23307143D01*
X20017620Y24226381D02*
X20114381Y24226381D01*
X20211143Y24178000D01*
X20259524Y24129619D01*
X20307905Y24032857D01*
X20356286Y23839333D01*
X20356286Y23597429D01*
X20307905Y23403905D01*
X20259524Y23307143D01*
X20211143Y23258762D01*
X20114381Y23210381D01*
X20017620Y23210381D01*
X19920858Y23258762D01*
X19872477Y23307143D01*
X19824096Y23403905D01*
X19775715Y23597429D01*
X19775715Y23839333D01*
X19824096Y24032857D01*
X19872477Y24129619D01*
X19920858Y24178000D01*
X20017620Y24226381D01*
X10172096Y24226381D02*
X10172096Y23403905D01*
X10220477Y23307143D01*
X10268858Y23258762D01*
X10365620Y23210381D01*
X10559143Y23210381D01*
X10655905Y23258762D01*
X10704286Y23307143D01*
X10752667Y23403905D01*
X10752667Y24226381D01*
X11139715Y24226381D02*
X11768667Y24226381D01*
X11430001Y23839333D01*
X11575143Y23839333D01*
X11671905Y23790952D01*
X11720286Y23742571D01*
X11768667Y23645810D01*
X11768667Y23403905D01*
X11720286Y23307143D01*
X11671905Y23258762D01*
X11575143Y23210381D01*
X11284858Y23210381D01*
X11188096Y23258762D01*
X11139715Y23307143D01*
X12736286Y23210381D02*
X12155715Y23210381D01*
X12446001Y23210381D02*
X12446001Y24226381D01*
X12349239Y24081238D01*
X12252477Y23984476D01*
X12155715Y23936095D01*
X2552096Y24226381D02*
X2552096Y23403905D01*
X2600477Y23307143D01*
X2648858Y23258762D01*
X2745620Y23210381D01*
X2939143Y23210381D01*
X3035905Y23258762D01*
X3084286Y23307143D01*
X3132667Y23403905D01*
X3132667Y24226381D01*
X3519715Y24226381D02*
X4148667Y24226381D01*
X3810001Y23839333D01*
X3955143Y23839333D01*
X4051905Y23790952D01*
X4100286Y23742571D01*
X4148667Y23645810D01*
X4148667Y23403905D01*
X4100286Y23307143D01*
X4051905Y23258762D01*
X3955143Y23210381D01*
X3664858Y23210381D01*
X3568096Y23258762D01*
X3519715Y23307143D01*
X4535715Y24129619D02*
X4584096Y24178000D01*
X4680858Y24226381D01*
X4922762Y24226381D01*
X5019524Y24178000D01*
X5067905Y24129619D01*
X5116286Y24032857D01*
X5116286Y23936095D01*
X5067905Y23790952D01*
X4487334Y23210381D01*
X5116286Y23210381D01*
X2552096Y37846381D02*
X2552096Y37023905D01*
X2600477Y36927143D01*
X2648858Y36878762D01*
X2745620Y36830381D01*
X2939143Y36830381D01*
X3035905Y36878762D01*
X3084286Y36927143D01*
X3132667Y37023905D01*
X3132667Y37846381D01*
X3519715Y37846381D02*
X4148667Y37846381D01*
X3810001Y37459333D01*
X3955143Y37459333D01*
X4051905Y37410952D01*
X4100286Y37362571D01*
X4148667Y37265810D01*
X4148667Y37023905D01*
X4100286Y36927143D01*
X4051905Y36878762D01*
X3955143Y36830381D01*
X3664858Y36830381D01*
X3568096Y36878762D01*
X3519715Y36927143D01*
X4487334Y37846381D02*
X5116286Y37846381D01*
X4777620Y37459333D01*
X4922762Y37459333D01*
X5019524Y37410952D01*
X5067905Y37362571D01*
X5116286Y37265810D01*
X5116286Y37023905D01*
X5067905Y36927143D01*
X5019524Y36878762D01*
X4922762Y36830381D01*
X4632477Y36830381D01*
X4535715Y36878762D01*
X4487334Y36927143D01*
X10172096Y37846381D02*
X10172096Y37023905D01*
X10220477Y36927143D01*
X10268858Y36878762D01*
X10365620Y36830381D01*
X10559143Y36830381D01*
X10655905Y36878762D01*
X10704286Y36927143D01*
X10752667Y37023905D01*
X10752667Y37846381D01*
X11139715Y37846381D02*
X11768667Y37846381D01*
X11430001Y37459333D01*
X11575143Y37459333D01*
X11671905Y37410952D01*
X11720286Y37362571D01*
X11768667Y37265810D01*
X11768667Y37023905D01*
X11720286Y36927143D01*
X11671905Y36878762D01*
X11575143Y36830381D01*
X11284858Y36830381D01*
X11188096Y36878762D01*
X11139715Y36927143D01*
X12639524Y37507714D02*
X12639524Y36830381D01*
X12397620Y37894762D02*
X12155715Y37169048D01*
X12784667Y37169048D01*
X17792096Y37846381D02*
X17792096Y37023905D01*
X17840477Y36927143D01*
X17888858Y36878762D01*
X17985620Y36830381D01*
X18179143Y36830381D01*
X18275905Y36878762D01*
X18324286Y36927143D01*
X18372667Y37023905D01*
X18372667Y37846381D01*
X18759715Y37846381D02*
X19388667Y37846381D01*
X19050001Y37459333D01*
X19195143Y37459333D01*
X19291905Y37410952D01*
X19340286Y37362571D01*
X19388667Y37265810D01*
X19388667Y37023905D01*
X19340286Y36927143D01*
X19291905Y36878762D01*
X19195143Y36830381D01*
X18904858Y36830381D01*
X18808096Y36878762D01*
X18759715Y36927143D01*
X20307905Y37846381D02*
X19824096Y37846381D01*
X19775715Y37362571D01*
X19824096Y37410952D01*
X19920858Y37459333D01*
X20162762Y37459333D01*
X20259524Y37410952D01*
X20307905Y37362571D01*
X20356286Y37265810D01*
X20356286Y37023905D01*
X20307905Y36927143D01*
X20259524Y36878762D01*
X20162762Y36830381D01*
X19920858Y36830381D01*
X19824096Y36878762D01*
X19775715Y36927143D01*
X25412096Y37846381D02*
X25412096Y37023905D01*
X25460477Y36927143D01*
X25508858Y36878762D01*
X25605620Y36830381D01*
X25799143Y36830381D01*
X25895905Y36878762D01*
X25944286Y36927143D01*
X25992667Y37023905D01*
X25992667Y37846381D01*
X26379715Y37846381D02*
X27008667Y37846381D01*
X26670001Y37459333D01*
X26815143Y37459333D01*
X26911905Y37410952D01*
X26960286Y37362571D01*
X27008667Y37265810D01*
X27008667Y37023905D01*
X26960286Y36927143D01*
X26911905Y36878762D01*
X26815143Y36830381D01*
X26524858Y36830381D01*
X26428096Y36878762D01*
X26379715Y36927143D01*
X27879524Y37846381D02*
X27686001Y37846381D01*
X27589239Y37798000D01*
X27540858Y37749619D01*
X27444096Y37604476D01*
X27395715Y37410952D01*
X27395715Y37023905D01*
X27444096Y36927143D01*
X27492477Y36878762D01*
X27589239Y36830381D01*
X27782762Y36830381D01*
X27879524Y36878762D01*
X27927905Y36927143D01*
X27976286Y37023905D01*
X27976286Y37265810D01*
X27927905Y37362571D01*
X27879524Y37410952D01*
X27782762Y37459333D01*
X27589239Y37459333D01*
X27492477Y37410952D01*
X27444096Y37362571D01*
X27395715Y37265810D01*
X33032096Y37846381D02*
X33032096Y37023905D01*
X33080477Y36927143D01*
X33128858Y36878762D01*
X33225620Y36830381D01*
X33419143Y36830381D01*
X33515905Y36878762D01*
X33564286Y36927143D01*
X33612667Y37023905D01*
X33612667Y37846381D01*
X33999715Y37846381D02*
X34628667Y37846381D01*
X34290001Y37459333D01*
X34435143Y37459333D01*
X34531905Y37410952D01*
X34580286Y37362571D01*
X34628667Y37265810D01*
X34628667Y37023905D01*
X34580286Y36927143D01*
X34531905Y36878762D01*
X34435143Y36830381D01*
X34144858Y36830381D01*
X34048096Y36878762D01*
X33999715Y36927143D01*
X34967334Y37846381D02*
X35644667Y37846381D01*
X35209239Y36830381D01*
X40652096Y37846381D02*
X40652096Y37023905D01*
X40700477Y36927143D01*
X40748858Y36878762D01*
X40845620Y36830381D01*
X41039143Y36830381D01*
X41135905Y36878762D01*
X41184286Y36927143D01*
X41232667Y37023905D01*
X41232667Y37846381D01*
X41619715Y37846381D02*
X42248667Y37846381D01*
X41910001Y37459333D01*
X42055143Y37459333D01*
X42151905Y37410952D01*
X42200286Y37362571D01*
X42248667Y37265810D01*
X42248667Y37023905D01*
X42200286Y36927143D01*
X42151905Y36878762D01*
X42055143Y36830381D01*
X41764858Y36830381D01*
X41668096Y36878762D01*
X41619715Y36927143D01*
X42829239Y37410952D02*
X42732477Y37459333D01*
X42684096Y37507714D01*
X42635715Y37604476D01*
X42635715Y37652857D01*
X42684096Y37749619D01*
X42732477Y37798000D01*
X42829239Y37846381D01*
X43022762Y37846381D01*
X43119524Y37798000D01*
X43167905Y37749619D01*
X43216286Y37652857D01*
X43216286Y37604476D01*
X43167905Y37507714D01*
X43119524Y37459333D01*
X43022762Y37410952D01*
X42829239Y37410952D01*
X42732477Y37362571D01*
X42684096Y37314190D01*
X42635715Y37217429D01*
X42635715Y37023905D01*
X42684096Y36927143D01*
X42732477Y36878762D01*
X42829239Y36830381D01*
X43022762Y36830381D01*
X43119524Y36878762D01*
X43167905Y36927143D01*
X43216286Y37023905D01*
X43216286Y37217429D01*
X43167905Y37314190D01*
X43119524Y37362571D01*
X43022762Y37410952D01*
X48272096Y37846381D02*
X48272096Y37023905D01*
X48320477Y36927143D01*
X48368858Y36878762D01*
X48465620Y36830381D01*
X48659143Y36830381D01*
X48755905Y36878762D01*
X48804286Y36927143D01*
X48852667Y37023905D01*
X48852667Y37846381D01*
X49239715Y37846381D02*
X49868667Y37846381D01*
X49530001Y37459333D01*
X49675143Y37459333D01*
X49771905Y37410952D01*
X49820286Y37362571D01*
X49868667Y37265810D01*
X49868667Y37023905D01*
X49820286Y36927143D01*
X49771905Y36878762D01*
X49675143Y36830381D01*
X49384858Y36830381D01*
X49288096Y36878762D01*
X49239715Y36927143D01*
X50352477Y36830381D02*
X50546001Y36830381D01*
X50642762Y36878762D01*
X50691143Y36927143D01*
X50787905Y37072286D01*
X50836286Y37265810D01*
X50836286Y37652857D01*
X50787905Y37749619D01*
X50739524Y37798000D01*
X50642762Y37846381D01*
X50449239Y37846381D01*
X50352477Y37798000D01*
X50304096Y37749619D01*
X50255715Y37652857D01*
X50255715Y37410952D01*
X50304096Y37314190D01*
X50352477Y37265810D01*
X50449239Y37217429D01*
X50642762Y37217429D01*
X50739524Y37265810D01*
X50787905Y37314190D01*
X50836286Y37410952D01*
X55892096Y37846381D02*
X55892096Y37023905D01*
X55940477Y36927143D01*
X55988858Y36878762D01*
X56085620Y36830381D01*
X56279143Y36830381D01*
X56375905Y36878762D01*
X56424286Y36927143D01*
X56472667Y37023905D01*
X56472667Y37846381D01*
X57391905Y37507714D02*
X57391905Y36830381D01*
X57150001Y37894762D02*
X56908096Y37169048D01*
X57537048Y37169048D01*
X58117620Y37846381D02*
X58214381Y37846381D01*
X58311143Y37798000D01*
X58359524Y37749619D01*
X58407905Y37652857D01*
X58456286Y37459333D01*
X58456286Y37217429D01*
X58407905Y37023905D01*
X58359524Y36927143D01*
X58311143Y36878762D01*
X58214381Y36830381D01*
X58117620Y36830381D01*
X58020858Y36878762D01*
X57972477Y36927143D01*
X57924096Y37023905D01*
X57875715Y37217429D01*
X57875715Y37459333D01*
X57924096Y37652857D01*
X57972477Y37749619D01*
X58020858Y37798000D01*
X58117620Y37846381D01*
X55892096Y39466381D02*
X55892096Y38643905D01*
X55940477Y38547143D01*
X55988858Y38498762D01*
X56085620Y38450381D01*
X56279143Y38450381D01*
X56375905Y38498762D01*
X56424286Y38547143D01*
X56472667Y38643905D01*
X56472667Y39466381D01*
X57391905Y39127714D02*
X57391905Y38450381D01*
X57150001Y39514762D02*
X56908096Y38789048D01*
X57537048Y38789048D01*
X58456286Y38450381D02*
X57875715Y38450381D01*
X58166001Y38450381D02*
X58166001Y39466381D01*
X58069239Y39321238D01*
X57972477Y39224476D01*
X57875715Y39176095D01*
X48272096Y39466381D02*
X48272096Y38643905D01*
X48320477Y38547143D01*
X48368858Y38498762D01*
X48465620Y38450381D01*
X48659143Y38450381D01*
X48755905Y38498762D01*
X48804286Y38547143D01*
X48852667Y38643905D01*
X48852667Y39466381D01*
X49771905Y39127714D02*
X49771905Y38450381D01*
X49530001Y39514762D02*
X49288096Y38789048D01*
X49917048Y38789048D01*
X50255715Y39369619D02*
X50304096Y39418000D01*
X50400858Y39466381D01*
X50642762Y39466381D01*
X50739524Y39418000D01*
X50787905Y39369619D01*
X50836286Y39272857D01*
X50836286Y39176095D01*
X50787905Y39030952D01*
X50207334Y38450381D01*
X50836286Y38450381D01*
X40652096Y39466381D02*
X40652096Y38643905D01*
X40700477Y38547143D01*
X40748858Y38498762D01*
X40845620Y38450381D01*
X41039143Y38450381D01*
X41135905Y38498762D01*
X41184286Y38547143D01*
X41232667Y38643905D01*
X41232667Y39466381D01*
X42151905Y39127714D02*
X42151905Y38450381D01*
X41910001Y39514762D02*
X41668096Y38789048D01*
X42297048Y38789048D01*
X42587334Y39466381D02*
X43216286Y39466381D01*
X42877620Y39079333D01*
X43022762Y39079333D01*
X43119524Y39030952D01*
X43167905Y38982571D01*
X43216286Y38885810D01*
X43216286Y38643905D01*
X43167905Y38547143D01*
X43119524Y38498762D01*
X43022762Y38450381D01*
X42732477Y38450381D01*
X42635715Y38498762D01*
X42587334Y38547143D01*
X33032096Y39466381D02*
X33032096Y38643905D01*
X33080477Y38547143D01*
X33128858Y38498762D01*
X33225620Y38450381D01*
X33419143Y38450381D01*
X33515905Y38498762D01*
X33564286Y38547143D01*
X33612667Y38643905D01*
X33612667Y39466381D01*
X34531905Y39127714D02*
X34531905Y38450381D01*
X34290001Y39514762D02*
X34048096Y38789048D01*
X34677048Y38789048D01*
X35499524Y39127714D02*
X35499524Y38450381D01*
X35257620Y39514762D02*
X35015715Y38789048D01*
X35644667Y38789048D01*
X25412096Y39466381D02*
X25412096Y38643905D01*
X25460477Y38547143D01*
X25508858Y38498762D01*
X25605620Y38450381D01*
X25799143Y38450381D01*
X25895905Y38498762D01*
X25944286Y38547143D01*
X25992667Y38643905D01*
X25992667Y39466381D01*
X26911905Y39127714D02*
X26911905Y38450381D01*
X26670001Y39514762D02*
X26428096Y38789048D01*
X27057048Y38789048D01*
X27927905Y39466381D02*
X27444096Y39466381D01*
X27395715Y38982571D01*
X27444096Y39030952D01*
X27540858Y39079333D01*
X27782762Y39079333D01*
X27879524Y39030952D01*
X27927905Y38982571D01*
X27976286Y38885810D01*
X27976286Y38643905D01*
X27927905Y38547143D01*
X27879524Y38498762D01*
X27782762Y38450381D01*
X27540858Y38450381D01*
X27444096Y38498762D01*
X27395715Y38547143D01*
X17792096Y39466381D02*
X17792096Y38643905D01*
X17840477Y38547143D01*
X17888858Y38498762D01*
X17985620Y38450381D01*
X18179143Y38450381D01*
X18275905Y38498762D01*
X18324286Y38547143D01*
X18372667Y38643905D01*
X18372667Y39466381D01*
X19291905Y39127714D02*
X19291905Y38450381D01*
X19050001Y39514762D02*
X18808096Y38789048D01*
X19437048Y38789048D01*
X20259524Y39466381D02*
X20066001Y39466381D01*
X19969239Y39418000D01*
X19920858Y39369619D01*
X19824096Y39224476D01*
X19775715Y39030952D01*
X19775715Y38643905D01*
X19824096Y38547143D01*
X19872477Y38498762D01*
X19969239Y38450381D01*
X20162762Y38450381D01*
X20259524Y38498762D01*
X20307905Y38547143D01*
X20356286Y38643905D01*
X20356286Y38885810D01*
X20307905Y38982571D01*
X20259524Y39030952D01*
X20162762Y39079333D01*
X19969239Y39079333D01*
X19872477Y39030952D01*
X19824096Y38982571D01*
X19775715Y38885810D01*
X10172096Y39466381D02*
X10172096Y38643905D01*
X10220477Y38547143D01*
X10268858Y38498762D01*
X10365620Y38450381D01*
X10559143Y38450381D01*
X10655905Y38498762D01*
X10704286Y38547143D01*
X10752667Y38643905D01*
X10752667Y39466381D01*
X11671905Y39127714D02*
X11671905Y38450381D01*
X11430001Y39514762D02*
X11188096Y38789048D01*
X11817048Y38789048D01*
X12107334Y39466381D02*
X12784667Y39466381D01*
X12349239Y38450381D01*
X2552096Y39466381D02*
X2552096Y38643905D01*
X2600477Y38547143D01*
X2648858Y38498762D01*
X2745620Y38450381D01*
X2939143Y38450381D01*
X3035905Y38498762D01*
X3084286Y38547143D01*
X3132667Y38643905D01*
X3132667Y39466381D01*
X4051905Y39127714D02*
X4051905Y38450381D01*
X3810001Y39514762D02*
X3568096Y38789048D01*
X4197048Y38789048D01*
X4729239Y39030952D02*
X4632477Y39079333D01*
X4584096Y39127714D01*
X4535715Y39224476D01*
X4535715Y39272857D01*
X4584096Y39369619D01*
X4632477Y39418000D01*
X4729239Y39466381D01*
X4922762Y39466381D01*
X5019524Y39418000D01*
X5067905Y39369619D01*
X5116286Y39272857D01*
X5116286Y39224476D01*
X5067905Y39127714D01*
X5019524Y39079333D01*
X4922762Y39030952D01*
X4729239Y39030952D01*
X4632477Y38982571D01*
X4584096Y38934190D01*
X4535715Y38837429D01*
X4535715Y38643905D01*
X4584096Y38547143D01*
X4632477Y38498762D01*
X4729239Y38450381D01*
X4922762Y38450381D01*
X5019524Y38498762D01*
X5067905Y38547143D01*
X5116286Y38643905D01*
X5116286Y38837429D01*
X5067905Y38934190D01*
X5019524Y38982571D01*
X4922762Y39030952D01*
X2552096Y53086381D02*
X2552096Y52263905D01*
X2600477Y52167143D01*
X2648858Y52118762D01*
X2745620Y52070381D01*
X2939143Y52070381D01*
X3035905Y52118762D01*
X3084286Y52167143D01*
X3132667Y52263905D01*
X3132667Y53086381D01*
X4051905Y52747714D02*
X4051905Y52070381D01*
X3810001Y53134762D02*
X3568096Y52409048D01*
X4197048Y52409048D01*
X4632477Y52070381D02*
X4826001Y52070381D01*
X4922762Y52118762D01*
X4971143Y52167143D01*
X5067905Y52312286D01*
X5116286Y52505810D01*
X5116286Y52892857D01*
X5067905Y52989619D01*
X5019524Y53038000D01*
X4922762Y53086381D01*
X4729239Y53086381D01*
X4632477Y53038000D01*
X4584096Y52989619D01*
X4535715Y52892857D01*
X4535715Y52650952D01*
X4584096Y52554190D01*
X4632477Y52505810D01*
X4729239Y52457429D01*
X4922762Y52457429D01*
X5019524Y52505810D01*
X5067905Y52554190D01*
X5116286Y52650952D01*
X10172096Y53086381D02*
X10172096Y52263905D01*
X10220477Y52167143D01*
X10268858Y52118762D01*
X10365620Y52070381D01*
X10559143Y52070381D01*
X10655905Y52118762D01*
X10704286Y52167143D01*
X10752667Y52263905D01*
X10752667Y53086381D01*
X11720286Y53086381D02*
X11236477Y53086381D01*
X11188096Y52602571D01*
X11236477Y52650952D01*
X11333239Y52699333D01*
X11575143Y52699333D01*
X11671905Y52650952D01*
X11720286Y52602571D01*
X11768667Y52505810D01*
X11768667Y52263905D01*
X11720286Y52167143D01*
X11671905Y52118762D01*
X11575143Y52070381D01*
X11333239Y52070381D01*
X11236477Y52118762D01*
X11188096Y52167143D01*
X12397620Y53086381D02*
X12494381Y53086381D01*
X12591143Y53038000D01*
X12639524Y52989619D01*
X12687905Y52892857D01*
X12736286Y52699333D01*
X12736286Y52457429D01*
X12687905Y52263905D01*
X12639524Y52167143D01*
X12591143Y52118762D01*
X12494381Y52070381D01*
X12397620Y52070381D01*
X12300858Y52118762D01*
X12252477Y52167143D01*
X12204096Y52263905D01*
X12155715Y52457429D01*
X12155715Y52699333D01*
X12204096Y52892857D01*
X12252477Y52989619D01*
X12300858Y53038000D01*
X12397620Y53086381D01*
X17792096Y53086381D02*
X17792096Y52263905D01*
X17840477Y52167143D01*
X17888858Y52118762D01*
X17985620Y52070381D01*
X18179143Y52070381D01*
X18275905Y52118762D01*
X18324286Y52167143D01*
X18372667Y52263905D01*
X18372667Y53086381D01*
X19340286Y53086381D02*
X18856477Y53086381D01*
X18808096Y52602571D01*
X18856477Y52650952D01*
X18953239Y52699333D01*
X19195143Y52699333D01*
X19291905Y52650952D01*
X19340286Y52602571D01*
X19388667Y52505810D01*
X19388667Y52263905D01*
X19340286Y52167143D01*
X19291905Y52118762D01*
X19195143Y52070381D01*
X18953239Y52070381D01*
X18856477Y52118762D01*
X18808096Y52167143D01*
X20356286Y52070381D02*
X19775715Y52070381D01*
X20066001Y52070381D02*
X20066001Y53086381D01*
X19969239Y52941238D01*
X19872477Y52844476D01*
X19775715Y52796095D01*
X25412096Y53086381D02*
X25412096Y52263905D01*
X25460477Y52167143D01*
X25508858Y52118762D01*
X25605620Y52070381D01*
X25799143Y52070381D01*
X25895905Y52118762D01*
X25944286Y52167143D01*
X25992667Y52263905D01*
X25992667Y53086381D01*
X26960286Y53086381D02*
X26476477Y53086381D01*
X26428096Y52602571D01*
X26476477Y52650952D01*
X26573239Y52699333D01*
X26815143Y52699333D01*
X26911905Y52650952D01*
X26960286Y52602571D01*
X27008667Y52505810D01*
X27008667Y52263905D01*
X26960286Y52167143D01*
X26911905Y52118762D01*
X26815143Y52070381D01*
X26573239Y52070381D01*
X26476477Y52118762D01*
X26428096Y52167143D01*
X27395715Y52989619D02*
X27444096Y53038000D01*
X27540858Y53086381D01*
X27782762Y53086381D01*
X27879524Y53038000D01*
X27927905Y52989619D01*
X27976286Y52892857D01*
X27976286Y52796095D01*
X27927905Y52650952D01*
X27347334Y52070381D01*
X27976286Y52070381D01*
X33032096Y53086381D02*
X33032096Y52263905D01*
X33080477Y52167143D01*
X33128858Y52118762D01*
X33225620Y52070381D01*
X33419143Y52070381D01*
X33515905Y52118762D01*
X33564286Y52167143D01*
X33612667Y52263905D01*
X33612667Y53086381D01*
X34580286Y53086381D02*
X34096477Y53086381D01*
X34048096Y52602571D01*
X34096477Y52650952D01*
X34193239Y52699333D01*
X34435143Y52699333D01*
X34531905Y52650952D01*
X34580286Y52602571D01*
X34628667Y52505810D01*
X34628667Y52263905D01*
X34580286Y52167143D01*
X34531905Y52118762D01*
X34435143Y52070381D01*
X34193239Y52070381D01*
X34096477Y52118762D01*
X34048096Y52167143D01*
X34967334Y53086381D02*
X35596286Y53086381D01*
X35257620Y52699333D01*
X35402762Y52699333D01*
X35499524Y52650952D01*
X35547905Y52602571D01*
X35596286Y52505810D01*
X35596286Y52263905D01*
X35547905Y52167143D01*
X35499524Y52118762D01*
X35402762Y52070381D01*
X35112477Y52070381D01*
X35015715Y52118762D01*
X34967334Y52167143D01*
X40652096Y53086381D02*
X40652096Y52263905D01*
X40700477Y52167143D01*
X40748858Y52118762D01*
X40845620Y52070381D01*
X41039143Y52070381D01*
X41135905Y52118762D01*
X41184286Y52167143D01*
X41232667Y52263905D01*
X41232667Y53086381D01*
X42200286Y53086381D02*
X41716477Y53086381D01*
X41668096Y52602571D01*
X41716477Y52650952D01*
X41813239Y52699333D01*
X42055143Y52699333D01*
X42151905Y52650952D01*
X42200286Y52602571D01*
X42248667Y52505810D01*
X42248667Y52263905D01*
X42200286Y52167143D01*
X42151905Y52118762D01*
X42055143Y52070381D01*
X41813239Y52070381D01*
X41716477Y52118762D01*
X41668096Y52167143D01*
X43119524Y52747714D02*
X43119524Y52070381D01*
X42877620Y53134762D02*
X42635715Y52409048D01*
X43264667Y52409048D01*
X48272096Y53086381D02*
X48272096Y52263905D01*
X48320477Y52167143D01*
X48368858Y52118762D01*
X48465620Y52070381D01*
X48659143Y52070381D01*
X48755905Y52118762D01*
X48804286Y52167143D01*
X48852667Y52263905D01*
X48852667Y53086381D01*
X49820286Y53086381D02*
X49336477Y53086381D01*
X49288096Y52602571D01*
X49336477Y52650952D01*
X49433239Y52699333D01*
X49675143Y52699333D01*
X49771905Y52650952D01*
X49820286Y52602571D01*
X49868667Y52505810D01*
X49868667Y52263905D01*
X49820286Y52167143D01*
X49771905Y52118762D01*
X49675143Y52070381D01*
X49433239Y52070381D01*
X49336477Y52118762D01*
X49288096Y52167143D01*
X50787905Y53086381D02*
X50304096Y53086381D01*
X50255715Y52602571D01*
X50304096Y52650952D01*
X50400858Y52699333D01*
X50642762Y52699333D01*
X50739524Y52650952D01*
X50787905Y52602571D01*
X50836286Y52505810D01*
X50836286Y52263905D01*
X50787905Y52167143D01*
X50739524Y52118762D01*
X50642762Y52070381D01*
X50400858Y52070381D01*
X50304096Y52118762D01*
X50255715Y52167143D01*
X55892096Y53086381D02*
X55892096Y52263905D01*
X55940477Y52167143D01*
X55988858Y52118762D01*
X56085620Y52070381D01*
X56279143Y52070381D01*
X56375905Y52118762D01*
X56424286Y52167143D01*
X56472667Y52263905D01*
X56472667Y53086381D01*
X57440286Y53086381D02*
X56956477Y53086381D01*
X56908096Y52602571D01*
X56956477Y52650952D01*
X57053239Y52699333D01*
X57295143Y52699333D01*
X57391905Y52650952D01*
X57440286Y52602571D01*
X57488667Y52505810D01*
X57488667Y52263905D01*
X57440286Y52167143D01*
X57391905Y52118762D01*
X57295143Y52070381D01*
X57053239Y52070381D01*
X56956477Y52118762D01*
X56908096Y52167143D01*
X58359524Y53086381D02*
X58166001Y53086381D01*
X58069239Y53038000D01*
X58020858Y52989619D01*
X57924096Y52844476D01*
X57875715Y52650952D01*
X57875715Y52263905D01*
X57924096Y52167143D01*
X57972477Y52118762D01*
X58069239Y52070381D01*
X58262762Y52070381D01*
X58359524Y52118762D01*
X58407905Y52167143D01*
X58456286Y52263905D01*
X58456286Y52505810D01*
X58407905Y52602571D01*
X58359524Y52650952D01*
X58262762Y52699333D01*
X58069239Y52699333D01*
X57972477Y52650952D01*
X57924096Y52602571D01*
X57875715Y52505810D01*
X55892096Y54706381D02*
X55892096Y53883905D01*
X55940477Y53787143D01*
X55988858Y53738762D01*
X56085620Y53690381D01*
X56279143Y53690381D01*
X56375905Y53738762D01*
X56424286Y53787143D01*
X56472667Y53883905D01*
X56472667Y54706381D01*
X57440286Y54706381D02*
X56956477Y54706381D01*
X56908096Y54222571D01*
X56956477Y54270952D01*
X57053239Y54319333D01*
X57295143Y54319333D01*
X57391905Y54270952D01*
X57440286Y54222571D01*
X57488667Y54125810D01*
X57488667Y53883905D01*
X57440286Y53787143D01*
X57391905Y53738762D01*
X57295143Y53690381D01*
X57053239Y53690381D01*
X56956477Y53738762D01*
X56908096Y53787143D01*
X57827334Y54706381D02*
X58504667Y54706381D01*
X58069239Y53690381D01*
X48272096Y54706381D02*
X48272096Y53883905D01*
X48320477Y53787143D01*
X48368858Y53738762D01*
X48465620Y53690381D01*
X48659143Y53690381D01*
X48755905Y53738762D01*
X48804286Y53787143D01*
X48852667Y53883905D01*
X48852667Y54706381D01*
X49820286Y54706381D02*
X49336477Y54706381D01*
X49288096Y54222571D01*
X49336477Y54270952D01*
X49433239Y54319333D01*
X49675143Y54319333D01*
X49771905Y54270952D01*
X49820286Y54222571D01*
X49868667Y54125810D01*
X49868667Y53883905D01*
X49820286Y53787143D01*
X49771905Y53738762D01*
X49675143Y53690381D01*
X49433239Y53690381D01*
X49336477Y53738762D01*
X49288096Y53787143D01*
X50449239Y54270952D02*
X50352477Y54319333D01*
X50304096Y54367714D01*
X50255715Y54464476D01*
X50255715Y54512857D01*
X50304096Y54609619D01*
X50352477Y54658000D01*
X50449239Y54706381D01*
X50642762Y54706381D01*
X50739524Y54658000D01*
X50787905Y54609619D01*
X50836286Y54512857D01*
X50836286Y54464476D01*
X50787905Y54367714D01*
X50739524Y54319333D01*
X50642762Y54270952D01*
X50449239Y54270952D01*
X50352477Y54222571D01*
X50304096Y54174190D01*
X50255715Y54077429D01*
X50255715Y53883905D01*
X50304096Y53787143D01*
X50352477Y53738762D01*
X50449239Y53690381D01*
X50642762Y53690381D01*
X50739524Y53738762D01*
X50787905Y53787143D01*
X50836286Y53883905D01*
X50836286Y54077429D01*
X50787905Y54174190D01*
X50739524Y54222571D01*
X50642762Y54270952D01*
X40652096Y54706381D02*
X40652096Y53883905D01*
X40700477Y53787143D01*
X40748858Y53738762D01*
X40845620Y53690381D01*
X41039143Y53690381D01*
X41135905Y53738762D01*
X41184286Y53787143D01*
X41232667Y53883905D01*
X41232667Y54706381D01*
X42200286Y54706381D02*
X41716477Y54706381D01*
X41668096Y54222571D01*
X41716477Y54270952D01*
X41813239Y54319333D01*
X42055143Y54319333D01*
X42151905Y54270952D01*
X42200286Y54222571D01*
X42248667Y54125810D01*
X42248667Y53883905D01*
X42200286Y53787143D01*
X42151905Y53738762D01*
X42055143Y53690381D01*
X41813239Y53690381D01*
X41716477Y53738762D01*
X41668096Y53787143D01*
X42732477Y53690381D02*
X42926001Y53690381D01*
X43022762Y53738762D01*
X43071143Y53787143D01*
X43167905Y53932286D01*
X43216286Y54125810D01*
X43216286Y54512857D01*
X43167905Y54609619D01*
X43119524Y54658000D01*
X43022762Y54706381D01*
X42829239Y54706381D01*
X42732477Y54658000D01*
X42684096Y54609619D01*
X42635715Y54512857D01*
X42635715Y54270952D01*
X42684096Y54174190D01*
X42732477Y54125810D01*
X42829239Y54077429D01*
X43022762Y54077429D01*
X43119524Y54125810D01*
X43167905Y54174190D01*
X43216286Y54270952D01*
X33032096Y54706381D02*
X33032096Y53883905D01*
X33080477Y53787143D01*
X33128858Y53738762D01*
X33225620Y53690381D01*
X33419143Y53690381D01*
X33515905Y53738762D01*
X33564286Y53787143D01*
X33612667Y53883905D01*
X33612667Y54706381D01*
X34531905Y54706381D02*
X34338382Y54706381D01*
X34241620Y54658000D01*
X34193239Y54609619D01*
X34096477Y54464476D01*
X34048096Y54270952D01*
X34048096Y53883905D01*
X34096477Y53787143D01*
X34144858Y53738762D01*
X34241620Y53690381D01*
X34435143Y53690381D01*
X34531905Y53738762D01*
X34580286Y53787143D01*
X34628667Y53883905D01*
X34628667Y54125810D01*
X34580286Y54222571D01*
X34531905Y54270952D01*
X34435143Y54319333D01*
X34241620Y54319333D01*
X34144858Y54270952D01*
X34096477Y54222571D01*
X34048096Y54125810D01*
X35257620Y54706381D02*
X35354381Y54706381D01*
X35451143Y54658000D01*
X35499524Y54609619D01*
X35547905Y54512857D01*
X35596286Y54319333D01*
X35596286Y54077429D01*
X35547905Y53883905D01*
X35499524Y53787143D01*
X35451143Y53738762D01*
X35354381Y53690381D01*
X35257620Y53690381D01*
X35160858Y53738762D01*
X35112477Y53787143D01*
X35064096Y53883905D01*
X35015715Y54077429D01*
X35015715Y54319333D01*
X35064096Y54512857D01*
X35112477Y54609619D01*
X35160858Y54658000D01*
X35257620Y54706381D01*
X25412096Y54706381D02*
X25412096Y53883905D01*
X25460477Y53787143D01*
X25508858Y53738762D01*
X25605620Y53690381D01*
X25799143Y53690381D01*
X25895905Y53738762D01*
X25944286Y53787143D01*
X25992667Y53883905D01*
X25992667Y54706381D01*
X26911905Y54706381D02*
X26718382Y54706381D01*
X26621620Y54658000D01*
X26573239Y54609619D01*
X26476477Y54464476D01*
X26428096Y54270952D01*
X26428096Y53883905D01*
X26476477Y53787143D01*
X26524858Y53738762D01*
X26621620Y53690381D01*
X26815143Y53690381D01*
X26911905Y53738762D01*
X26960286Y53787143D01*
X27008667Y53883905D01*
X27008667Y54125810D01*
X26960286Y54222571D01*
X26911905Y54270952D01*
X26815143Y54319333D01*
X26621620Y54319333D01*
X26524858Y54270952D01*
X26476477Y54222571D01*
X26428096Y54125810D01*
X27976286Y53690381D02*
X27395715Y53690381D01*
X27686001Y53690381D02*
X27686001Y54706381D01*
X27589239Y54561238D01*
X27492477Y54464476D01*
X27395715Y54416095D01*
X17792096Y54706381D02*
X17792096Y53883905D01*
X17840477Y53787143D01*
X17888858Y53738762D01*
X17985620Y53690381D01*
X18179143Y53690381D01*
X18275905Y53738762D01*
X18324286Y53787143D01*
X18372667Y53883905D01*
X18372667Y54706381D01*
X19291905Y54706381D02*
X19098382Y54706381D01*
X19001620Y54658000D01*
X18953239Y54609619D01*
X18856477Y54464476D01*
X18808096Y54270952D01*
X18808096Y53883905D01*
X18856477Y53787143D01*
X18904858Y53738762D01*
X19001620Y53690381D01*
X19195143Y53690381D01*
X19291905Y53738762D01*
X19340286Y53787143D01*
X19388667Y53883905D01*
X19388667Y54125810D01*
X19340286Y54222571D01*
X19291905Y54270952D01*
X19195143Y54319333D01*
X19001620Y54319333D01*
X18904858Y54270952D01*
X18856477Y54222571D01*
X18808096Y54125810D01*
X19775715Y54609619D02*
X19824096Y54658000D01*
X19920858Y54706381D01*
X20162762Y54706381D01*
X20259524Y54658000D01*
X20307905Y54609619D01*
X20356286Y54512857D01*
X20356286Y54416095D01*
X20307905Y54270952D01*
X19727334Y53690381D01*
X20356286Y53690381D01*
X10172096Y54706381D02*
X10172096Y53883905D01*
X10220477Y53787143D01*
X10268858Y53738762D01*
X10365620Y53690381D01*
X10559143Y53690381D01*
X10655905Y53738762D01*
X10704286Y53787143D01*
X10752667Y53883905D01*
X10752667Y54706381D01*
X11671905Y54706381D02*
X11478382Y54706381D01*
X11381620Y54658000D01*
X11333239Y54609619D01*
X11236477Y54464476D01*
X11188096Y54270952D01*
X11188096Y53883905D01*
X11236477Y53787143D01*
X11284858Y53738762D01*
X11381620Y53690381D01*
X11575143Y53690381D01*
X11671905Y53738762D01*
X11720286Y53787143D01*
X11768667Y53883905D01*
X11768667Y54125810D01*
X11720286Y54222571D01*
X11671905Y54270952D01*
X11575143Y54319333D01*
X11381620Y54319333D01*
X11284858Y54270952D01*
X11236477Y54222571D01*
X11188096Y54125810D01*
X12107334Y54706381D02*
X12736286Y54706381D01*
X12397620Y54319333D01*
X12542762Y54319333D01*
X12639524Y54270952D01*
X12687905Y54222571D01*
X12736286Y54125810D01*
X12736286Y53883905D01*
X12687905Y53787143D01*
X12639524Y53738762D01*
X12542762Y53690381D01*
X12252477Y53690381D01*
X12155715Y53738762D01*
X12107334Y53787143D01*
X2552096Y54706381D02*
X2552096Y53883905D01*
X2600477Y53787143D01*
X2648858Y53738762D01*
X2745620Y53690381D01*
X2939143Y53690381D01*
X3035905Y53738762D01*
X3084286Y53787143D01*
X3132667Y53883905D01*
X3132667Y54706381D01*
X4051905Y54706381D02*
X3858382Y54706381D01*
X3761620Y54658000D01*
X3713239Y54609619D01*
X3616477Y54464476D01*
X3568096Y54270952D01*
X3568096Y53883905D01*
X3616477Y53787143D01*
X3664858Y53738762D01*
X3761620Y53690381D01*
X3955143Y53690381D01*
X4051905Y53738762D01*
X4100286Y53787143D01*
X4148667Y53883905D01*
X4148667Y54125810D01*
X4100286Y54222571D01*
X4051905Y54270952D01*
X3955143Y54319333D01*
X3761620Y54319333D01*
X3664858Y54270952D01*
X3616477Y54222571D01*
X3568096Y54125810D01*
X5019524Y54367714D02*
X5019524Y53690381D01*
X4777620Y54754762D02*
X4535715Y54029048D01*
X5164667Y54029048D01*
X2552096Y8986381D02*
X2552096Y8163905D01*
X2600477Y8067143D01*
X2648858Y8018762D01*
X2745620Y7970381D01*
X2939143Y7970381D01*
X3035905Y8018762D01*
X3084286Y8067143D01*
X3132667Y8163905D01*
X3132667Y8986381D01*
X4148667Y7970381D02*
X3568096Y7970381D01*
X3858382Y7970381D02*
X3858382Y8986381D01*
X3761620Y8841238D01*
X3664858Y8744476D01*
X3568096Y8696095D01*
X5019524Y8986381D02*
X4826001Y8986381D01*
X4729239Y8938000D01*
X4680858Y8889619D01*
X4584096Y8744476D01*
X4535715Y8550952D01*
X4535715Y8163905D01*
X4584096Y8067143D01*
X4632477Y8018762D01*
X4729239Y7970381D01*
X4922762Y7970381D01*
X5019524Y8018762D01*
X5067905Y8067143D01*
X5116286Y8163905D01*
X5116286Y8405810D01*
X5067905Y8502571D01*
X5019524Y8550952D01*
X4922762Y8599333D01*
X4729239Y8599333D01*
X4632477Y8550952D01*
X4584096Y8502571D01*
X4535715Y8405810D01*
%LPC*%
D14*
X24470000Y2210000D03*
X28870000Y2210000D03*
D15*
X28870000Y3810000D03*
X24470000Y3810000D03*
D14*
X24470000Y5410000D03*
X28870000Y5410000D03*
D16*
X25870000Y2210000D03*
D14*
X1610000Y2210000D03*
X6010000Y2210000D03*
D15*
X6010000Y3810000D03*
X1610000Y3810000D03*
D14*
X1610000Y5410000D03*
X6010000Y5410000D03*
D16*
X3010000Y2210000D03*
D14*
X9230000Y2210000D03*
X13630000Y2210000D03*
D15*
X13630000Y3810000D03*
X9230000Y3810000D03*
D14*
X9230000Y5410000D03*
X13630000Y5410000D03*
D16*
X10630000Y2210000D03*
D14*
X16850000Y2210000D03*
X21250000Y2210000D03*
D15*
X21250000Y3810000D03*
X16850000Y3810000D03*
D14*
X16850000Y5410000D03*
X21250000Y5410000D03*
D16*
X18250000Y2210000D03*
D14*
X32090000Y2210000D03*
X36490000Y2210000D03*
D15*
X36490000Y3810000D03*
X32090000Y3810000D03*
D14*
X32090000Y5410000D03*
X36490000Y5410000D03*
D16*
X33490000Y2210000D03*
D14*
X39710000Y2210000D03*
X44110000Y2210000D03*
D15*
X44110000Y3810000D03*
X39710000Y3810000D03*
D14*
X39710000Y5410000D03*
X44110000Y5410000D03*
D16*
X41110000Y2210000D03*
D14*
X47330000Y2210000D03*
X51730000Y2210000D03*
D15*
X51730000Y3810000D03*
X47330000Y3810000D03*
D14*
X47330000Y5410000D03*
X51730000Y5410000D03*
D16*
X48730000Y2210000D03*
D14*
X54950000Y2210000D03*
X59350000Y2210000D03*
D15*
X59350000Y3810000D03*
X54950000Y3810000D03*
D14*
X54950000Y5410000D03*
X59350000Y5410000D03*
D16*
X56350000Y2210000D03*
D14*
X59350000Y13030000D03*
X54950000Y13030000D03*
D15*
X54950000Y11430000D03*
X59350000Y11430000D03*
D14*
X59350000Y9830000D03*
X54950000Y9830000D03*
D16*
X57950000Y13030000D03*
D14*
X51730000Y13030000D03*
X47330000Y13030000D03*
D15*
X47330000Y11430000D03*
X51730000Y11430000D03*
D14*
X51730000Y9830000D03*
X47330000Y9830000D03*
D16*
X50330000Y13030000D03*
D14*
X44110000Y13030000D03*
X39710000Y13030000D03*
D15*
X39710000Y11430000D03*
X44110000Y11430000D03*
D14*
X44110000Y9830000D03*
X39710000Y9830000D03*
D16*
X42710000Y13030000D03*
D14*
X36490000Y13030000D03*
X32090000Y13030000D03*
D15*
X32090000Y11430000D03*
X36490000Y11430000D03*
D14*
X36490000Y9830000D03*
X32090000Y9830000D03*
D16*
X35090000Y13030000D03*
D14*
X28870000Y13030000D03*
X24470000Y13030000D03*
D15*
X24470000Y11430000D03*
X28870000Y11430000D03*
D14*
X28870000Y9830000D03*
X24470000Y9830000D03*
D16*
X27470000Y13030000D03*
D14*
X21250000Y13030000D03*
X16850000Y13030000D03*
D15*
X16850000Y11430000D03*
X21250000Y11430000D03*
D14*
X21250000Y9830000D03*
X16850000Y9830000D03*
D16*
X19850000Y13030000D03*
D14*
X13630000Y13030000D03*
X9230000Y13030000D03*
D15*
X9230000Y11430000D03*
X13630000Y11430000D03*
D14*
X13630000Y9830000D03*
X9230000Y9830000D03*
D16*
X12230000Y13030000D03*
D14*
X1610000Y17450000D03*
X6010000Y17450000D03*
D15*
X6010000Y19050000D03*
X1610000Y19050000D03*
D14*
X1610000Y20650000D03*
X6010000Y20650000D03*
D16*
X3010000Y17450000D03*
D14*
X9230000Y17450000D03*
X13630000Y17450000D03*
D15*
X13630000Y19050000D03*
X9230000Y19050000D03*
D14*
X9230000Y20650000D03*
X13630000Y20650000D03*
D16*
X10630000Y17450000D03*
D14*
X16850000Y17450000D03*
X21250000Y17450000D03*
D15*
X21250000Y19050000D03*
X16850000Y19050000D03*
D14*
X16850000Y20650000D03*
X21250000Y20650000D03*
D16*
X11430000Y19050000D03*
D14*
X24470000Y17450000D03*
X28870000Y17450000D03*
D15*
X28870000Y19050000D03*
X24470000Y19050000D03*
D14*
X24470000Y20650000D03*
X28870000Y20650000D03*
D16*
X25870000Y17450000D03*
D14*
X32090000Y17450000D03*
X36490000Y17450000D03*
D15*
X36490000Y19050000D03*
X32090000Y19050000D03*
D14*
X32090000Y20650000D03*
X36490000Y20650000D03*
D16*
X33490000Y17450000D03*
D14*
X39710000Y17450000D03*
X44110000Y17450000D03*
D15*
X44110000Y19050000D03*
X39710000Y19050000D03*
D14*
X39710000Y20650000D03*
X44110000Y20650000D03*
D16*
X41110000Y17450000D03*
D14*
X47330000Y17450000D03*
X51730000Y17450000D03*
D15*
X51730000Y19050000D03*
X47330000Y19050000D03*
D14*
X47330000Y20650000D03*
X51730000Y20650000D03*
D16*
X48730000Y17450000D03*
D14*
X54950000Y17450000D03*
X59350000Y17450000D03*
D15*
X59350000Y19050000D03*
X54950000Y19050000D03*
D14*
X54950000Y20650000D03*
X59350000Y20650000D03*
D16*
X56350000Y17450000D03*
D14*
X59350000Y28270000D03*
X54950000Y28270000D03*
D15*
X54950000Y26670000D03*
X59350000Y26670000D03*
D14*
X59350000Y25070000D03*
X54950000Y25070000D03*
D16*
X57950000Y28270000D03*
D14*
X51730000Y28270000D03*
X47330000Y28270000D03*
D15*
X47330000Y26670000D03*
X51730000Y26670000D03*
D14*
X51730000Y25070000D03*
X47330000Y25070000D03*
D16*
X50330000Y28270000D03*
D14*
X44110000Y28270000D03*
X39710000Y28270000D03*
D15*
X39710000Y26670000D03*
X44110000Y26670000D03*
D14*
X44110000Y25070000D03*
X39710000Y25070000D03*
D16*
X42710000Y28270000D03*
D14*
X36490000Y28270000D03*
X32090000Y28270000D03*
D15*
X32090000Y26670000D03*
X36490000Y26670000D03*
D14*
X36490000Y25070000D03*
X32090000Y25070000D03*
D16*
X35090000Y28270000D03*
D14*
X28870000Y28270000D03*
X24470000Y28270000D03*
D15*
X24470000Y26670000D03*
X28870000Y26670000D03*
D14*
X28870000Y25070000D03*
X24470000Y25070000D03*
D16*
X27470000Y28270000D03*
D14*
X21250000Y28270000D03*
X16850000Y28270000D03*
D15*
X16850000Y26670000D03*
X21250000Y26670000D03*
D14*
X21250000Y25070000D03*
X16850000Y25070000D03*
D16*
X19850000Y28270000D03*
D14*
X13630000Y28270000D03*
X9230000Y28270000D03*
D15*
X9230000Y26670000D03*
X13630000Y26670000D03*
D14*
X13630000Y25070000D03*
X9230000Y25070000D03*
D16*
X12230000Y28270000D03*
D14*
X6010000Y28270000D03*
X1610000Y28270000D03*
D15*
X1610000Y26670000D03*
X6010000Y26670000D03*
D14*
X6010000Y25070000D03*
X1610000Y25070000D03*
D16*
X4610000Y28270000D03*
D14*
X1610000Y32690000D03*
X6010000Y32690000D03*
D15*
X6010000Y34290000D03*
X1610000Y34290000D03*
D14*
X1610000Y35890000D03*
X6010000Y35890000D03*
D16*
X3010000Y32690000D03*
D14*
X9230000Y32690000D03*
X13630000Y32690000D03*
D15*
X13630000Y34290000D03*
X9230000Y34290000D03*
D14*
X9230000Y35890000D03*
X13630000Y35890000D03*
D16*
X10630000Y32690000D03*
D14*
X16850000Y32690000D03*
X21250000Y32690000D03*
D15*
X21250000Y34290000D03*
X16850000Y34290000D03*
D14*
X16850000Y35890000D03*
X21250000Y35890000D03*
D16*
X18250000Y32690000D03*
D14*
X24470000Y32690000D03*
X28870000Y32690000D03*
D15*
X28870000Y34290000D03*
X24470000Y34290000D03*
D14*
X24470000Y35890000D03*
X28870000Y35890000D03*
D16*
X25870000Y32690000D03*
D14*
X32090000Y32690000D03*
X36490000Y32690000D03*
D15*
X36490000Y34290000D03*
X32090000Y34290000D03*
D14*
X32090000Y35890000D03*
X36490000Y35890000D03*
D16*
X33490000Y32690000D03*
D14*
X39710000Y32690000D03*
X44110000Y32690000D03*
D15*
X44110000Y34290000D03*
X39710000Y34290000D03*
D14*
X39710000Y35890000D03*
X44110000Y35890000D03*
D16*
X41110000Y32690000D03*
D14*
X47330000Y32690000D03*
X51730000Y32690000D03*
D15*
X51730000Y34290000D03*
X47330000Y34290000D03*
D14*
X47330000Y35890000D03*
X51730000Y35890000D03*
D16*
X48730000Y32690000D03*
D14*
X54950000Y32690000D03*
X59350000Y32690000D03*
D15*
X59350000Y34290000D03*
X54950000Y34290000D03*
D14*
X54950000Y35890000D03*
X59350000Y35890000D03*
D16*
X56350000Y32690000D03*
D14*
X59350000Y43510000D03*
X54950000Y43510000D03*
D15*
X54950000Y41910000D03*
X59350000Y41910000D03*
D14*
X59350000Y40310000D03*
X54950000Y40310000D03*
D16*
X57950000Y43510000D03*
D14*
X51730000Y43510000D03*
X47330000Y43510000D03*
D15*
X47330000Y41910000D03*
X51730000Y41910000D03*
D14*
X51730000Y40310000D03*
X47330000Y40310000D03*
D16*
X50330000Y43510000D03*
D14*
X44110000Y43510000D03*
X39710000Y43510000D03*
D15*
X39710000Y41910000D03*
X44110000Y41910000D03*
D14*
X44110000Y40310000D03*
X39710000Y40310000D03*
D16*
X42710000Y43510000D03*
D14*
X36490000Y43510000D03*
X32090000Y43510000D03*
D15*
X32090000Y41910000D03*
X36490000Y41910000D03*
D14*
X36490000Y40310000D03*
X32090000Y40310000D03*
D16*
X35090000Y43510000D03*
D14*
X28870000Y43510000D03*
X24470000Y43510000D03*
D15*
X24470000Y41910000D03*
X28870000Y41910000D03*
D14*
X28870000Y40310000D03*
X24470000Y40310000D03*
D16*
X27470000Y43510000D03*
D14*
X21250000Y43510000D03*
X16850000Y43510000D03*
D15*
X16850000Y41910000D03*
X21250000Y41910000D03*
D14*
X21250000Y40310000D03*
X16850000Y40310000D03*
D16*
X19850000Y43510000D03*
D14*
X13630000Y43510000D03*
X9230000Y43510000D03*
D15*
X9230000Y41910000D03*
X13630000Y41910000D03*
D14*
X13630000Y40310000D03*
X9230000Y40310000D03*
D16*
X12230000Y43510000D03*
D14*
X6010000Y43510000D03*
X1610000Y43510000D03*
D15*
X1610000Y41910000D03*
X6010000Y41910000D03*
D14*
X6010000Y40310000D03*
X1610000Y40310000D03*
D16*
X4610000Y43510000D03*
D14*
X1610000Y47930000D03*
X6010000Y47930000D03*
D15*
X6010000Y49530000D03*
X1610000Y49530000D03*
D14*
X1610000Y51130000D03*
X6010000Y51130000D03*
D16*
X3010000Y47930000D03*
D14*
X9230000Y47930000D03*
X13630000Y47930000D03*
D15*
X13630000Y49530000D03*
X9230000Y49530000D03*
D14*
X9230000Y51130000D03*
X13630000Y51130000D03*
D16*
X10630000Y47930000D03*
D14*
X16850000Y47930000D03*
X21250000Y47930000D03*
D15*
X21250000Y49530000D03*
X16850000Y49530000D03*
D14*
X16850000Y51130000D03*
X21250000Y51130000D03*
D16*
X18250000Y47930000D03*
D14*
X24470000Y47930000D03*
X28870000Y47930000D03*
D15*
X28870000Y49530000D03*
X24470000Y49530000D03*
D14*
X24470000Y51130000D03*
X28870000Y51130000D03*
D16*
X25870000Y47930000D03*
D14*
X32090000Y47930000D03*
X36490000Y47930000D03*
D15*
X36490000Y49530000D03*
X32090000Y49530000D03*
D14*
X32090000Y51130000D03*
X36490000Y51130000D03*
D16*
X33490000Y47930000D03*
D14*
X39710000Y47930000D03*
X44110000Y47930000D03*
D15*
X44110000Y49530000D03*
X39710000Y49530000D03*
D14*
X39710000Y51130000D03*
X44110000Y51130000D03*
D16*
X41110000Y47930000D03*
D14*
X47330000Y47930000D03*
X51730000Y47930000D03*
D15*
X51730000Y49530000D03*
X47330000Y49530000D03*
D14*
X47330000Y51130000D03*
X51730000Y51130000D03*
D16*
X48730000Y47930000D03*
D14*
X54950000Y47930000D03*
X59350000Y47930000D03*
D15*
X59350000Y49530000D03*
X54950000Y49530000D03*
D14*
X54950000Y51130000D03*
X59350000Y51130000D03*
D16*
X56350000Y47930000D03*
D14*
X59350000Y58750000D03*
X54950000Y58750000D03*
D15*
X54950000Y57150000D03*
X59350000Y57150000D03*
D14*
X59350000Y55550000D03*
X54950000Y55550000D03*
D16*
X57950000Y58750000D03*
D14*
X51730000Y58750000D03*
X47330000Y58750000D03*
D15*
X47330000Y57150000D03*
X51730000Y57150000D03*
D14*
X51730000Y55550000D03*
X47330000Y55550000D03*
D16*
X50330000Y58750000D03*
D14*
X44110000Y58750000D03*
X39710000Y58750000D03*
D15*
X39710000Y57150000D03*
X44110000Y57150000D03*
D14*
X44110000Y55550000D03*
X39710000Y55550000D03*
D16*
X42710000Y58750000D03*
D14*
X36490000Y58750000D03*
X32090000Y58750000D03*
D15*
X32090000Y57150000D03*
X36490000Y57150000D03*
D14*
X36490000Y55550000D03*
X32090000Y55550000D03*
D16*
X35090000Y58750000D03*
D14*
X28870000Y58750000D03*
X24470000Y58750000D03*
D15*
X24470000Y57150000D03*
X28870000Y57150000D03*
D14*
X28870000Y55550000D03*
X24470000Y55550000D03*
D16*
X27470000Y58750000D03*
D14*
X21250000Y58750000D03*
X16850000Y58750000D03*
D15*
X16850000Y57150000D03*
X21250000Y57150000D03*
D14*
X21250000Y55550000D03*
X16850000Y55550000D03*
D16*
X19850000Y58750000D03*
D14*
X13630000Y58750000D03*
X9230000Y58750000D03*
D15*
X9230000Y57150000D03*
X13630000Y57150000D03*
D14*
X13630000Y55550000D03*
X9230000Y55550000D03*
D16*
X12230000Y58750000D03*
D14*
X6010000Y58750000D03*
X1610000Y58750000D03*
D15*
X1610000Y57150000D03*
X6010000Y57150000D03*
D14*
X6010000Y55550000D03*
X1610000Y55550000D03*
D16*
X4610000Y58750000D03*
D14*
X6010000Y13030000D03*
X1610000Y13030000D03*
D15*
X1610000Y11430000D03*
X6010000Y11430000D03*
D14*
X6010000Y9830000D03*
X1610000Y9830000D03*
D16*
X4610000Y13030000D03*
M02*
