G04 #@! TF.FileFunction,Copper,L2,Bot,Signal*
%FSLAX46Y46*%
G04 Gerber Fmt 4.6, Leading zero omitted, Abs format (unit mm)*
G04 Created by KiCad (PCBNEW 4.0.2-4+6225~38~ubuntu15.04.1-stable) date Wed Feb 24 14:52:56 2016*
%MOMM*%
G01*
G04 APERTURE LIST*
%ADD10C,0.254000*%
%ADD11C,8.500000*%
%ADD12R,1.422400X1.066800*%
%ADD13R,3.048000X3.048000*%
%ADD14R,7.620000X1.905000*%
%ADD15R,1.905000X7.620000*%
%ADD16C,1.400000*%
%ADD17C,0.889000*%
%ADD18C,0.635000*%
G04 APERTURE END LIST*
D10*
X44196000Y0D02*
X16764000Y0D01*
X60960000Y0D02*
X47244000Y0D01*
X60960000Y13716000D02*
X60960000Y0D01*
X60960000Y44196000D02*
X60960000Y16764000D01*
X60960000Y60960000D02*
X60960000Y47244000D01*
X47244000Y60960000D02*
X60960000Y60960000D01*
X16764000Y60960000D02*
X44196000Y60960000D01*
X0Y60960000D02*
X13716000Y60960000D01*
X0Y47244000D02*
X0Y60960000D01*
X0Y16764000D02*
X0Y44196000D01*
X0Y0D02*
X0Y13716000D01*
X13716000Y0D02*
X0Y0D01*
X60960000Y16764000D02*
G75*
G03X59436000Y15240000I0J-1524000D01*
G01*
X59436000Y15240000D02*
G75*
G03X60960000Y13716000I1524000J0D01*
G01*
X60960000Y47244000D02*
G75*
G03X59436000Y45720000I0J-1524000D01*
G01*
X59436000Y45720000D02*
G75*
G03X60960000Y44196000I1524000J0D01*
G01*
X44196000Y60960000D02*
G75*
G03X45720000Y59436000I1524000J0D01*
G01*
X45720000Y59436000D02*
G75*
G03X47244000Y60960000I0J1524000D01*
G01*
X13716000Y60960000D02*
G75*
G03X15240000Y59436000I1524000J0D01*
G01*
X15240000Y59436000D02*
G75*
G03X16764000Y60960000I0J1524000D01*
G01*
X0Y44196000D02*
G75*
G03X1524000Y45720000I0J1524000D01*
G01*
X1524000Y45720000D02*
G75*
G03X0Y47244000I-1524000J0D01*
G01*
X0Y13716000D02*
G75*
G03X1524000Y15240000I0J1524000D01*
G01*
X1524000Y15240000D02*
G75*
G03X0Y16764000I-1524000J0D01*
G01*
X16764000Y0D02*
G75*
G03X15240000Y1524000I-1524000J0D01*
G01*
X15240000Y1524000D02*
G75*
G03X13716000Y0I0J-1524000D01*
G01*
X45720000Y1524000D02*
G75*
G03X44196000Y0I0J-1524000D01*
G01*
X47244000Y0D02*
G75*
G03X45720000Y1524000I-1524000J0D01*
G01*
D11*
X19050000Y19050000D03*
X41910000Y41910000D03*
D12*
X33020000Y31496000D03*
X33020000Y29464000D03*
X27940000Y31496000D03*
X27940000Y29464000D03*
D13*
X16510000Y26416000D03*
X16510000Y34544000D03*
X44450000Y26416000D03*
X44450000Y34544000D03*
D14*
X30480000Y55880000D03*
X30480000Y53340000D03*
X30480000Y50800000D03*
X30480000Y10160000D03*
X30480000Y7620000D03*
X30480000Y5080000D03*
D15*
X55880000Y38100000D03*
X53340000Y38100000D03*
X50800000Y38100000D03*
X10160000Y38100000D03*
X7620000Y38100000D03*
X5080000Y38100000D03*
D16*
X2794000Y34290000D03*
X2794000Y41783000D03*
X12954000Y41783000D03*
X12573000Y34290000D03*
X23368000Y12192000D03*
X35890000Y41110000D03*
X36703000Y42291000D03*
X48641000Y34290000D03*
X48387000Y42037000D03*
X57912000Y41910000D03*
X58039000Y34163000D03*
X55550000Y4610000D03*
X51130000Y3010000D03*
X40310000Y4610000D03*
X35890000Y3010000D03*
X25070000Y4610000D03*
X20650000Y3010000D03*
X9830000Y4610000D03*
X5410000Y3010000D03*
X5410000Y25870000D03*
X5410000Y10630000D03*
X5410000Y18250000D03*
X5410000Y48730000D03*
X5410000Y56350000D03*
X9830000Y57950000D03*
X9830000Y50330000D03*
X9830000Y27470000D03*
X9830000Y19850000D03*
X9830000Y12230000D03*
X20650000Y10630000D03*
X20650000Y25870000D03*
X20650000Y33490000D03*
X20650000Y41110000D03*
X20650000Y48730000D03*
X20650000Y56350000D03*
X25070000Y57950000D03*
X25070000Y50330000D03*
X25070000Y42710000D03*
X25070000Y35090000D03*
X25070000Y27470000D03*
X25070000Y19850000D03*
X25070000Y12230000D03*
X35890000Y10630000D03*
X35890000Y18250000D03*
X35890000Y25870000D03*
X35890000Y33490000D03*
X35890000Y48730000D03*
X35890000Y56350000D03*
X40310000Y57950000D03*
X40310000Y50330000D03*
X40310000Y35090000D03*
X40310000Y27470000D03*
X40310000Y19850000D03*
X40310000Y12230000D03*
X51130000Y10630000D03*
X51130000Y18250000D03*
X51130000Y25870000D03*
X51130000Y48730000D03*
X51130000Y56350000D03*
X55550000Y57950000D03*
X55550000Y50330000D03*
X55550000Y27470000D03*
X55550000Y19850000D03*
X55550000Y12230000D03*
D17*
X2159000Y3302000D03*
X57277000Y4318000D03*
X38100000Y22860000D03*
X22860000Y32090000D03*
X7620000Y19685000D03*
X38100000Y15240000D03*
X22860000Y10160000D03*
X15113000Y11430000D03*
X53340000Y24470000D03*
X38100000Y30226000D03*
X22860000Y26543000D03*
X7620000Y23368000D03*
X53340000Y55880000D03*
X53340000Y59055000D03*
X38100000Y55880000D03*
X38100000Y59055000D03*
X22860000Y55880000D03*
X22860000Y59055000D03*
X7620000Y55880000D03*
X7620000Y59055000D03*
X3810000Y4064000D03*
X58801000Y3302000D03*
D10*
X3746500Y8382000D02*
X3746500Y5524500D01*
X3746500Y5524500D02*
X2159000Y3937000D01*
X3746500Y27622500D02*
X3746500Y8382000D01*
X24638000Y8382000D02*
X3746500Y8382000D01*
X26416000Y10160000D02*
X24638000Y8382000D01*
X30480000Y10160000D02*
X26416000Y10160000D01*
X10160000Y38100000D02*
X10160000Y34036000D01*
X3746500Y27622500D02*
X10160000Y34036000D01*
X2159000Y3937000D02*
X2159000Y3302000D01*
X30480000Y50800000D02*
X35179000Y50800000D01*
X50927000Y52578000D02*
X36957000Y52578000D01*
X36957000Y52578000D02*
X35179000Y50800000D01*
X52705000Y50800000D02*
X50927000Y52578000D01*
X52705000Y44450000D02*
X52705000Y50800000D01*
X50800000Y42545000D02*
X52705000Y44450000D01*
X50800000Y38100000D02*
X50800000Y42545000D01*
X57277000Y4318000D02*
X57277000Y30226000D01*
X57277000Y30226000D02*
X56388000Y31115000D01*
X50800000Y33909000D02*
X50800000Y38100000D01*
X53594000Y31115000D02*
X50800000Y33909000D01*
X56388000Y31115000D02*
X53594000Y31115000D01*
D18*
X18542000Y31496000D02*
X22266000Y31496000D01*
X22266000Y31496000D02*
X22860000Y32090000D01*
X44450000Y26416000D02*
X41656000Y26416000D01*
X45339000Y23241000D02*
X44450000Y24130000D01*
X44450000Y24130000D02*
X44450000Y26416000D01*
X52111000Y23241000D02*
X45339000Y23241000D01*
X16510000Y29464000D02*
X18542000Y31496000D01*
X16510000Y26416000D02*
X16510000Y29464000D01*
X19050000Y19050000D02*
X22860000Y15240000D01*
X22860000Y15240000D02*
X38100000Y15240000D01*
X19050000Y14351000D02*
X22860000Y10541000D01*
X22860000Y10541000D02*
X22860000Y10160000D01*
X19050000Y19050000D02*
X19050000Y14351000D01*
X15113000Y11430000D02*
X15113000Y15113000D01*
X15113000Y15113000D02*
X19050000Y19050000D01*
X13716000Y25781000D02*
X13716000Y24384000D01*
X13716000Y24384000D02*
X19050000Y19050000D01*
X16510000Y26416000D02*
X14351000Y26416000D01*
X14351000Y26416000D02*
X13716000Y25781000D01*
X20701000Y29464000D02*
X22860000Y29464000D01*
X22860000Y29464000D02*
X27940000Y29464000D01*
X22860000Y26543000D02*
X22860000Y29464000D01*
X19050000Y27813000D02*
X20701000Y29464000D01*
X19050000Y19050000D02*
X19050000Y27813000D01*
X11303000Y18034000D02*
X12319000Y19050000D01*
X12319000Y19050000D02*
X19050000Y19050000D01*
X8890000Y18034000D02*
X11303000Y18034000D01*
X7620000Y19304000D02*
X8890000Y18034000D01*
X7620000Y23368000D02*
X7620000Y19304000D01*
X52111000Y23241000D02*
X53340000Y24470000D01*
X34925000Y29464000D02*
X35687000Y30226000D01*
X35687000Y30226000D02*
X38100000Y30226000D01*
X33020000Y29464000D02*
X34925000Y29464000D01*
X53340000Y55880000D02*
X53340000Y59055000D01*
X38100000Y55880000D02*
X38100000Y59055000D01*
X22860000Y55880000D02*
X22860000Y59055000D01*
X7620000Y55880000D02*
X7620000Y59055000D01*
X19050000Y19050000D02*
X23495000Y19050000D01*
X33020000Y17780000D02*
X41656000Y26416000D01*
X24765000Y17780000D02*
X33020000Y17780000D01*
X23495000Y19050000D02*
X24765000Y17780000D01*
X33020000Y29464000D02*
X33020000Y27940000D01*
X26670000Y26670000D02*
X19050000Y19050000D01*
X31750000Y26670000D02*
X26670000Y26670000D01*
X33020000Y27940000D02*
X31750000Y26670000D01*
X19050000Y21590000D02*
X19050000Y19050000D01*
D10*
X4445000Y7112000D02*
X4445000Y4699000D01*
X4953000Y7620000D02*
X4445000Y7112000D01*
X4445000Y4699000D02*
X3810000Y4064000D01*
X3810000Y4064000D02*
X3810000Y2921000D01*
X3048000Y28194000D02*
X3048000Y5969000D01*
X7620000Y38100000D02*
X7620000Y32766000D01*
X3048000Y28194000D02*
X7620000Y32766000D01*
X1270000Y4191000D02*
X3048000Y5969000D01*
X3048000Y2159000D02*
X1778000Y2159000D01*
X1778000Y2159000D02*
X1270000Y2667000D01*
X1270000Y2667000D02*
X1270000Y4191000D01*
X3810000Y2921000D02*
X3048000Y2159000D01*
X4953000Y7620000D02*
X30480000Y7620000D01*
X58801000Y3302000D02*
X58801000Y4445000D01*
X58801000Y4445000D02*
X57912000Y5334000D01*
X57912000Y5334000D02*
X57912000Y30480000D01*
X53340000Y32639000D02*
X53340000Y38100000D01*
X57912000Y30480000D02*
X56515000Y31877000D01*
X56515000Y31877000D02*
X54102000Y31877000D01*
X54102000Y31877000D02*
X53340000Y32639000D01*
X30480000Y53340000D02*
X51181000Y53340000D01*
X51181000Y53340000D02*
X53340000Y51181000D01*
X53340000Y51181000D02*
X53340000Y38100000D01*
G36*
X13198428Y59953446D02*
X13528788Y59459027D01*
X13528789Y59459024D01*
X13633907Y59353907D01*
X13739024Y59248789D01*
X13739027Y59248788D01*
X14233446Y58918428D01*
X14508132Y58804649D01*
X14508136Y58804649D01*
X15091341Y58688642D01*
X15388659Y58688642D01*
X15971869Y58804650D01*
X16085647Y58851779D01*
X16246554Y58918428D01*
X16740973Y59248788D01*
X16740976Y59248789D01*
X16846093Y59353907D01*
X16951211Y59459024D01*
X16951212Y59459027D01*
X17281572Y59953446D01*
X17382870Y60198000D01*
X43577131Y60198000D01*
X43678428Y59953446D01*
X44008788Y59459027D01*
X44008789Y59459024D01*
X44113907Y59353907D01*
X44219024Y59248789D01*
X44219027Y59248788D01*
X44713446Y58918428D01*
X44988132Y58804649D01*
X44988136Y58804649D01*
X45571341Y58688642D01*
X45868659Y58688642D01*
X46451869Y58804650D01*
X46565647Y58851779D01*
X46726554Y58918428D01*
X47220973Y59248788D01*
X47220976Y59248789D01*
X47326093Y59353907D01*
X47431211Y59459024D01*
X47431212Y59459027D01*
X47761572Y59953446D01*
X47862870Y60198000D01*
X60198000Y60198000D01*
X60198000Y47862870D01*
X59953446Y47761572D01*
X59459027Y47431212D01*
X59459024Y47431211D01*
X59353907Y47326093D01*
X59248789Y47220976D01*
X59248789Y47220975D01*
X58918428Y46726554D01*
X58851779Y46565647D01*
X58804650Y46451869D01*
X58688642Y45868659D01*
X58688642Y45571341D01*
X58804650Y44988132D01*
X58918428Y44713446D01*
X59248788Y44219027D01*
X59248789Y44219024D01*
X59353907Y44113907D01*
X59459024Y44008789D01*
X59459027Y44008788D01*
X59953446Y43678428D01*
X60198000Y43577130D01*
X60198000Y17382870D01*
X59953446Y17281572D01*
X59459027Y16951212D01*
X59459024Y16951211D01*
X59353907Y16846093D01*
X59248789Y16740976D01*
X59248789Y16740975D01*
X58918428Y16246554D01*
X58866006Y16119995D01*
X58804650Y15971869D01*
X58688642Y15388659D01*
X58688642Y15091341D01*
X58804650Y14508132D01*
X58918428Y14233446D01*
X59248788Y13739027D01*
X59248789Y13739024D01*
X59353907Y13633907D01*
X59459024Y13528789D01*
X59459027Y13528788D01*
X59953446Y13198428D01*
X60198000Y13097130D01*
X60198000Y762000D01*
X47862870Y762000D01*
X47761572Y1006554D01*
X47431211Y1500975D01*
X47431211Y1500976D01*
X47326093Y1606093D01*
X47220976Y1711211D01*
X47220973Y1711212D01*
X46726554Y2041572D01*
X46646515Y2074725D01*
X50374331Y2074725D01*
X50436169Y1838958D01*
X50937122Y1662581D01*
X51467440Y1691336D01*
X51823831Y1838958D01*
X51885669Y2074725D01*
X51130000Y2830395D01*
X50374331Y2074725D01*
X46646515Y2074725D01*
X46565647Y2108221D01*
X46451869Y2155350D01*
X45868659Y2271358D01*
X45571341Y2271358D01*
X44988136Y2155351D01*
X44713446Y2041572D01*
X44219027Y1711212D01*
X44219024Y1711211D01*
X44113907Y1606093D01*
X44008789Y1500976D01*
X44008789Y1500975D01*
X43678428Y1006554D01*
X43611779Y845647D01*
X43577131Y762000D01*
X17382870Y762000D01*
X17281572Y1006554D01*
X16951211Y1500975D01*
X16951211Y1500976D01*
X16846093Y1606093D01*
X16740976Y1711211D01*
X16740973Y1711212D01*
X16246554Y2041572D01*
X16166515Y2074725D01*
X19894331Y2074725D01*
X19956169Y1838958D01*
X20457122Y1662581D01*
X20987440Y1691336D01*
X21343831Y1838958D01*
X21405669Y2074725D01*
X35134331Y2074725D01*
X35196169Y1838958D01*
X35697122Y1662581D01*
X36227440Y1691336D01*
X36583831Y1838958D01*
X36645669Y2074725D01*
X35890000Y2830395D01*
X35134331Y2074725D01*
X21405669Y2074725D01*
X20650000Y2830395D01*
X19894331Y2074725D01*
X16166515Y2074725D01*
X16085647Y2108221D01*
X15971869Y2155350D01*
X15388659Y2271358D01*
X15091341Y2271358D01*
X14508136Y2155351D01*
X14233446Y2041572D01*
X13739027Y1711212D01*
X13739024Y1711211D01*
X13633907Y1606093D01*
X13528789Y1500976D01*
X13528789Y1500975D01*
X13198428Y1006554D01*
X13131779Y845647D01*
X13097131Y762000D01*
X762000Y762000D01*
X762000Y2097370D01*
X1239184Y1620185D01*
X1486395Y1455004D01*
X1778000Y1397000D01*
X3048000Y1397000D01*
X3339605Y1455004D01*
X3586815Y1620185D01*
X4041355Y2074725D01*
X4654331Y2074725D01*
X4716169Y1838958D01*
X5217122Y1662581D01*
X5747440Y1691336D01*
X6103831Y1838958D01*
X6165669Y2074725D01*
X5410000Y2830395D01*
X4654331Y2074725D01*
X4041355Y2074725D01*
X4273690Y2307059D01*
X4474725Y2254331D01*
X5230395Y3010000D01*
X5589605Y3010000D01*
X6345275Y2254331D01*
X6581042Y2316169D01*
X6757419Y2817122D01*
X6736503Y3202878D01*
X19302581Y3202878D01*
X19331336Y2672560D01*
X19478958Y2316169D01*
X19714725Y2254331D01*
X20470395Y3010000D01*
X20829605Y3010000D01*
X21585275Y2254331D01*
X21821042Y2316169D01*
X21997419Y2817122D01*
X21968664Y3347440D01*
X21833099Y3674725D01*
X24314331Y3674725D01*
X24376169Y3438958D01*
X24877122Y3262581D01*
X25407440Y3291336D01*
X25763831Y3438958D01*
X25825669Y3674725D01*
X25070000Y4430395D01*
X24314331Y3674725D01*
X21833099Y3674725D01*
X21821042Y3703831D01*
X21585275Y3765669D01*
X20829605Y3010000D01*
X20470395Y3010000D01*
X19714725Y3765669D01*
X19478958Y3703831D01*
X19302581Y3202878D01*
X6736503Y3202878D01*
X6728664Y3347440D01*
X6593099Y3674725D01*
X9074331Y3674725D01*
X9136169Y3438958D01*
X9637122Y3262581D01*
X10167440Y3291336D01*
X10523831Y3438958D01*
X10585669Y3674725D01*
X9830000Y4430395D01*
X9074331Y3674725D01*
X6593099Y3674725D01*
X6581042Y3703831D01*
X6345275Y3765669D01*
X5589605Y3010000D01*
X5230395Y3010000D01*
X5216252Y3024142D01*
X5395858Y3203748D01*
X5410000Y3189605D01*
X6165669Y3945275D01*
X6103831Y4181042D01*
X5602878Y4357419D01*
X5097285Y4330005D01*
X5115603Y4357419D01*
X5148996Y4407395D01*
X5207000Y4699000D01*
X5207000Y4802878D01*
X8482581Y4802878D01*
X8511336Y4272560D01*
X8658958Y3916169D01*
X8894725Y3854331D01*
X9650395Y4610000D01*
X10009605Y4610000D01*
X10765275Y3854331D01*
X11001042Y3916169D01*
X11011289Y3945275D01*
X19894331Y3945275D01*
X20650000Y3189605D01*
X21405669Y3945275D01*
X21343831Y4181042D01*
X20842878Y4357419D01*
X20312560Y4328664D01*
X19956169Y4181042D01*
X19894331Y3945275D01*
X11011289Y3945275D01*
X11177419Y4417122D01*
X11156503Y4802878D01*
X23722581Y4802878D01*
X23751336Y4272560D01*
X23898958Y3916169D01*
X24134725Y3854331D01*
X24890395Y4610000D01*
X24134725Y5365669D01*
X23898958Y5303831D01*
X23722581Y4802878D01*
X11156503Y4802878D01*
X11148664Y4947440D01*
X11001042Y5303831D01*
X10765275Y5365669D01*
X10009605Y4610000D01*
X9650395Y4610000D01*
X8894725Y5365669D01*
X8658958Y5303831D01*
X8482581Y4802878D01*
X5207000Y4802878D01*
X5207000Y5545275D01*
X9074331Y5545275D01*
X9830000Y4789605D01*
X10585669Y5545275D01*
X24314331Y5545275D01*
X25070000Y4789605D01*
X25825669Y5545275D01*
X25763831Y5781042D01*
X25262878Y5957419D01*
X24732560Y5928664D01*
X24376169Y5781042D01*
X24314331Y5545275D01*
X10585669Y5545275D01*
X10523831Y5781042D01*
X10022878Y5957419D01*
X9492560Y5928664D01*
X9136169Y5781042D01*
X9074331Y5545275D01*
X5207000Y5545275D01*
X5207000Y6796370D01*
X5268631Y6858000D01*
X26022560Y6858000D01*
X26022560Y6667500D01*
X26066838Y6432183D01*
X26116359Y6355226D01*
X26035000Y6158809D01*
X26035000Y5365750D01*
X26045678Y5355072D01*
X26005275Y5365669D01*
X25249605Y4610000D01*
X26005275Y3854331D01*
X26086957Y3875755D01*
X26131673Y3767802D01*
X26310301Y3589173D01*
X26543690Y3492500D01*
X30194250Y3492500D01*
X30353000Y3651250D01*
X30353000Y4953000D01*
X30607000Y4953000D01*
X30607000Y3651250D01*
X30765750Y3492500D01*
X34416310Y3492500D01*
X34649699Y3589173D01*
X34694288Y3633762D01*
X34542581Y3202878D01*
X34571336Y2672560D01*
X34718958Y2316169D01*
X34954725Y2254331D01*
X35710395Y3010000D01*
X36069605Y3010000D01*
X36825275Y2254331D01*
X37061042Y2316169D01*
X37237419Y2817122D01*
X37216503Y3202878D01*
X49782581Y3202878D01*
X49811336Y2672560D01*
X49958958Y2316169D01*
X50194725Y2254331D01*
X50950395Y3010000D01*
X51309605Y3010000D01*
X52065275Y2254331D01*
X52301042Y2316169D01*
X52477419Y2817122D01*
X52448664Y3347440D01*
X52301042Y3703831D01*
X52065275Y3765669D01*
X51309605Y3010000D01*
X50950395Y3010000D01*
X50194725Y3765669D01*
X49958958Y3703831D01*
X49782581Y3202878D01*
X37216503Y3202878D01*
X37208664Y3347440D01*
X37073099Y3674725D01*
X39554331Y3674725D01*
X39616169Y3438958D01*
X40117122Y3262581D01*
X40647440Y3291336D01*
X41003831Y3438958D01*
X41065669Y3674725D01*
X40310000Y4430395D01*
X39554331Y3674725D01*
X37073099Y3674725D01*
X37061042Y3703831D01*
X36825275Y3765669D01*
X36069605Y3010000D01*
X35710395Y3010000D01*
X34954725Y3765669D01*
X34780497Y3719972D01*
X34828327Y3767802D01*
X34901838Y3945275D01*
X35134331Y3945275D01*
X35890000Y3189605D01*
X36645669Y3945275D01*
X36583831Y4181042D01*
X36082878Y4357419D01*
X35552560Y4328664D01*
X35196169Y4181042D01*
X35134331Y3945275D01*
X34901838Y3945275D01*
X34925000Y4001191D01*
X34925000Y4794250D01*
X34916372Y4802878D01*
X38962581Y4802878D01*
X38991336Y4272560D01*
X39138958Y3916169D01*
X39374725Y3854331D01*
X40130395Y4610000D01*
X40489605Y4610000D01*
X41245275Y3854331D01*
X41481042Y3916169D01*
X41491289Y3945275D01*
X50374331Y3945275D01*
X51130000Y3189605D01*
X51885669Y3945275D01*
X51823831Y4181042D01*
X51322878Y4357419D01*
X50792560Y4328664D01*
X50436169Y4181042D01*
X50374331Y3945275D01*
X41491289Y3945275D01*
X41657419Y4417122D01*
X41636503Y4802878D01*
X54202581Y4802878D01*
X54231336Y4272560D01*
X54378958Y3916169D01*
X54614725Y3854331D01*
X55370395Y4610000D01*
X54614725Y5365669D01*
X54378958Y5303831D01*
X54202581Y4802878D01*
X41636503Y4802878D01*
X41628664Y4947440D01*
X41481042Y5303831D01*
X41245275Y5365669D01*
X40489605Y4610000D01*
X40130395Y4610000D01*
X39374725Y5365669D01*
X39138958Y5303831D01*
X38962581Y4802878D01*
X34916372Y4802878D01*
X34766250Y4953000D01*
X30607000Y4953000D01*
X30353000Y4953000D01*
X30333000Y4953000D01*
X30333000Y5207000D01*
X30353000Y5207000D01*
X30353000Y5227000D01*
X30607000Y5227000D01*
X30607000Y5207000D01*
X34766250Y5207000D01*
X34925000Y5365750D01*
X34925000Y5545275D01*
X39554331Y5545275D01*
X40310000Y4789605D01*
X41065669Y5545275D01*
X54794331Y5545275D01*
X55550000Y4789605D01*
X56305669Y5545275D01*
X56243831Y5781042D01*
X55742878Y5957419D01*
X55212560Y5928664D01*
X54856169Y5781042D01*
X54794331Y5545275D01*
X41065669Y5545275D01*
X41003831Y5781042D01*
X40502878Y5957419D01*
X39972560Y5928664D01*
X39616169Y5781042D01*
X39554331Y5545275D01*
X34925000Y5545275D01*
X34925000Y6158809D01*
X34844219Y6353831D01*
X34886431Y6415610D01*
X34937440Y6667500D01*
X34937440Y8572500D01*
X34893162Y8807817D01*
X34840920Y8889003D01*
X34886431Y8955610D01*
X34937440Y9207500D01*
X34937440Y9661116D01*
X35019082Y9579474D01*
X35134331Y9694723D01*
X35196169Y9458958D01*
X35697122Y9282581D01*
X36227440Y9311336D01*
X36583831Y9458958D01*
X36645669Y9694725D01*
X50374331Y9694725D01*
X50436169Y9458958D01*
X50937122Y9282581D01*
X51467440Y9311336D01*
X51823831Y9458958D01*
X51885669Y9694725D01*
X51130000Y10450395D01*
X50374331Y9694725D01*
X36645669Y9694725D01*
X35890000Y10450395D01*
X35875858Y10436252D01*
X35696252Y10615858D01*
X35710395Y10630000D01*
X36069605Y10630000D01*
X36825275Y9874331D01*
X37061042Y9936169D01*
X37237419Y10437122D01*
X37216503Y10822878D01*
X49782581Y10822878D01*
X49811336Y10292560D01*
X49958958Y9936169D01*
X50194725Y9874331D01*
X50950395Y10630000D01*
X51309605Y10630000D01*
X52065275Y9874331D01*
X52301042Y9936169D01*
X52477419Y10437122D01*
X52448664Y10967440D01*
X52313099Y11294725D01*
X54794331Y11294725D01*
X54856169Y11058958D01*
X55357122Y10882581D01*
X55887440Y10911336D01*
X56243831Y11058958D01*
X56305669Y11294725D01*
X55550000Y12050395D01*
X54794331Y11294725D01*
X52313099Y11294725D01*
X52301042Y11323831D01*
X52065275Y11385669D01*
X51309605Y10630000D01*
X50950395Y10630000D01*
X50194725Y11385669D01*
X49958958Y11323831D01*
X49782581Y10822878D01*
X37216503Y10822878D01*
X37208664Y10967440D01*
X37073099Y11294725D01*
X39554331Y11294725D01*
X39616169Y11058958D01*
X40117122Y10882581D01*
X40647440Y10911336D01*
X41003831Y11058958D01*
X41065669Y11294725D01*
X40310000Y12050395D01*
X39554331Y11294725D01*
X37073099Y11294725D01*
X37061042Y11323831D01*
X36825275Y11385669D01*
X36069605Y10630000D01*
X35710395Y10630000D01*
X34954725Y11385669D01*
X34881212Y11366388D01*
X34754090Y11563941D01*
X34752138Y11565275D01*
X35134331Y11565275D01*
X35890000Y10809605D01*
X36645669Y11565275D01*
X36583831Y11801042D01*
X36082878Y11977419D01*
X35552560Y11948664D01*
X35196169Y11801042D01*
X35134331Y11565275D01*
X34752138Y11565275D01*
X34541890Y11708931D01*
X34290000Y11759940D01*
X26670000Y11759940D01*
X26434683Y11715662D01*
X26266028Y11607136D01*
X26417419Y12037122D01*
X26396503Y12422878D01*
X38962581Y12422878D01*
X38991336Y11892560D01*
X39138958Y11536169D01*
X39374725Y11474331D01*
X40130395Y12230000D01*
X40489605Y12230000D01*
X41245275Y11474331D01*
X41481042Y11536169D01*
X41491289Y11565275D01*
X50374331Y11565275D01*
X51130000Y10809605D01*
X51885669Y11565275D01*
X51823831Y11801042D01*
X51322878Y11977419D01*
X50792560Y11948664D01*
X50436169Y11801042D01*
X50374331Y11565275D01*
X41491289Y11565275D01*
X41657419Y12037122D01*
X41636503Y12422878D01*
X54202581Y12422878D01*
X54231336Y11892560D01*
X54378958Y11536169D01*
X54614725Y11474331D01*
X55370395Y12230000D01*
X54614725Y12985669D01*
X54378958Y12923831D01*
X54202581Y12422878D01*
X41636503Y12422878D01*
X41628664Y12567440D01*
X41481042Y12923831D01*
X41245275Y12985669D01*
X40489605Y12230000D01*
X40130395Y12230000D01*
X39374725Y12985669D01*
X39138958Y12923831D01*
X38962581Y12422878D01*
X26396503Y12422878D01*
X26388664Y12567440D01*
X26241042Y12923831D01*
X26005275Y12985669D01*
X25249605Y12230000D01*
X26005275Y11474331D01*
X26180001Y11520159D01*
X26073569Y11364390D01*
X26022560Y11112500D01*
X26022560Y10795952D01*
X25877185Y10698816D01*
X24322370Y9144000D01*
X23227918Y9144000D01*
X23470689Y9244311D01*
X23774622Y9547714D01*
X23939313Y9944332D01*
X23939687Y10373784D01*
X23775689Y10770689D01*
X23764603Y10781795D01*
X23743277Y10889008D01*
X24061831Y11020958D01*
X24123287Y11255269D01*
X24199082Y11179474D01*
X24314331Y11294723D01*
X24376169Y11058958D01*
X24877122Y10882581D01*
X25407440Y10911336D01*
X25763831Y11058958D01*
X25825669Y11294725D01*
X25070000Y12050395D01*
X25055858Y12036252D01*
X24876253Y12215857D01*
X24890395Y12230000D01*
X24692151Y12428244D01*
X24686664Y12529440D01*
X24539042Y12885831D01*
X24303277Y12947669D01*
X24417607Y13061999D01*
X25070000Y12409605D01*
X25825669Y13165275D01*
X39554331Y13165275D01*
X40310000Y12409605D01*
X41065669Y13165275D01*
X54794331Y13165275D01*
X55550000Y12409605D01*
X56305669Y13165275D01*
X56243831Y13401042D01*
X55742878Y13577419D01*
X55212560Y13548664D01*
X54856169Y13401042D01*
X54794331Y13165275D01*
X41065669Y13165275D01*
X41003831Y13401042D01*
X40502878Y13577419D01*
X39972560Y13548664D01*
X39616169Y13401042D01*
X39554331Y13165275D01*
X25825669Y13165275D01*
X25763831Y13401042D01*
X25262878Y13577419D01*
X24732560Y13548664D01*
X24376169Y13401042D01*
X24314713Y13166731D01*
X24238918Y13242526D01*
X24123669Y13127277D01*
X24061831Y13363042D01*
X23560878Y13539419D01*
X23030560Y13510664D01*
X22674169Y13363042D01*
X22612331Y13127275D01*
X23368000Y12371605D01*
X23382142Y12385748D01*
X23561748Y12206142D01*
X23547605Y12192000D01*
X23745849Y11993756D01*
X23751336Y11892560D01*
X23898958Y11536169D01*
X24134723Y11474331D01*
X24020393Y11360001D01*
X23368000Y12012395D01*
X23353858Y11998252D01*
X23174252Y12177858D01*
X23188395Y12192000D01*
X22432725Y12947669D01*
X22196958Y12885831D01*
X22109789Y12638249D01*
X20418261Y14329777D01*
X21813515Y14906284D01*
X21830111Y14922851D01*
X22186481Y14566481D01*
X22495494Y14360005D01*
X22860000Y14287500D01*
X37578934Y14287500D01*
X37884332Y14160687D01*
X38313784Y14160313D01*
X38710689Y14324311D01*
X39014622Y14627714D01*
X39179313Y15024332D01*
X39179687Y15453784D01*
X39015689Y15850689D01*
X38712286Y16154622D01*
X38315668Y16319313D01*
X37886216Y16319687D01*
X37578400Y16192500D01*
X23254538Y16192500D01*
X23178325Y16268713D01*
X23188887Y16279257D01*
X23696423Y17501539D01*
X24091481Y17106481D01*
X24400494Y16900005D01*
X24765000Y16827500D01*
X33020000Y16827500D01*
X33384506Y16900005D01*
X33693519Y17106481D01*
X33901763Y17314725D01*
X35134331Y17314725D01*
X35196169Y17078958D01*
X35697122Y16902581D01*
X36227440Y16931336D01*
X36583831Y17078958D01*
X36645669Y17314725D01*
X50374331Y17314725D01*
X50436169Y17078958D01*
X50937122Y16902581D01*
X51467440Y16931336D01*
X51823831Y17078958D01*
X51885669Y17314725D01*
X51130000Y18070395D01*
X50374331Y17314725D01*
X36645669Y17314725D01*
X35890000Y18070395D01*
X35134331Y17314725D01*
X33901763Y17314725D01*
X34567646Y17980608D01*
X34571336Y17912560D01*
X34718958Y17556169D01*
X34954725Y17494331D01*
X35710395Y18250000D01*
X36069605Y18250000D01*
X36825275Y17494331D01*
X37061042Y17556169D01*
X37237419Y18057122D01*
X37216503Y18442878D01*
X49782581Y18442878D01*
X49811336Y17912560D01*
X49958958Y17556169D01*
X50194725Y17494331D01*
X50950395Y18250000D01*
X51309605Y18250000D01*
X52065275Y17494331D01*
X52301042Y17556169D01*
X52477419Y18057122D01*
X52448664Y18587440D01*
X52313099Y18914725D01*
X54794331Y18914725D01*
X54856169Y18678958D01*
X55357122Y18502581D01*
X55887440Y18531336D01*
X56243831Y18678958D01*
X56305669Y18914725D01*
X55550000Y19670395D01*
X54794331Y18914725D01*
X52313099Y18914725D01*
X52301042Y18943831D01*
X52065275Y19005669D01*
X51309605Y18250000D01*
X50950395Y18250000D01*
X50194725Y19005669D01*
X49958958Y18943831D01*
X49782581Y18442878D01*
X37216503Y18442878D01*
X37208664Y18587440D01*
X37073099Y18914725D01*
X39554331Y18914725D01*
X39616169Y18678958D01*
X40117122Y18502581D01*
X40647440Y18531336D01*
X41003831Y18678958D01*
X41065669Y18914725D01*
X40310000Y19670395D01*
X39554331Y18914725D01*
X37073099Y18914725D01*
X37061042Y18943831D01*
X36825275Y19005669D01*
X36069605Y18250000D01*
X35710395Y18250000D01*
X35696252Y18264142D01*
X35875858Y18443748D01*
X35890000Y18429605D01*
X36645669Y19185275D01*
X36583831Y19421042D01*
X36158006Y19570968D01*
X36629916Y20042878D01*
X38962581Y20042878D01*
X38991336Y19512560D01*
X39138958Y19156169D01*
X39374725Y19094331D01*
X40130395Y19850000D01*
X40489605Y19850000D01*
X41245275Y19094331D01*
X41481042Y19156169D01*
X41491289Y19185275D01*
X50374331Y19185275D01*
X51130000Y18429605D01*
X51885669Y19185275D01*
X51823831Y19421042D01*
X51322878Y19597419D01*
X50792560Y19568664D01*
X50436169Y19421042D01*
X50374331Y19185275D01*
X41491289Y19185275D01*
X41657419Y19657122D01*
X41636503Y20042878D01*
X54202581Y20042878D01*
X54231336Y19512560D01*
X54378958Y19156169D01*
X54614725Y19094331D01*
X55370395Y19850000D01*
X54614725Y20605669D01*
X54378958Y20543831D01*
X54202581Y20042878D01*
X41636503Y20042878D01*
X41628664Y20187440D01*
X41481042Y20543831D01*
X41245275Y20605669D01*
X40489605Y19850000D01*
X40130395Y19850000D01*
X39374725Y20605669D01*
X39138958Y20543831D01*
X38962581Y20042878D01*
X36629916Y20042878D01*
X37372313Y20785275D01*
X39554331Y20785275D01*
X40310000Y20029605D01*
X41065669Y20785275D01*
X54794331Y20785275D01*
X55550000Y20029605D01*
X56305669Y20785275D01*
X56243831Y21021042D01*
X55742878Y21197419D01*
X55212560Y21168664D01*
X54856169Y21021042D01*
X54794331Y20785275D01*
X41065669Y20785275D01*
X41003831Y21021042D01*
X40502878Y21197419D01*
X39972560Y21168664D01*
X39616169Y21021042D01*
X39554331Y20785275D01*
X37372313Y20785275D01*
X38405069Y21818031D01*
X38710689Y21944311D01*
X39014622Y22247714D01*
X39142347Y22555309D01*
X42050538Y25463500D01*
X42278560Y25463500D01*
X42278560Y24892000D01*
X42322838Y24656683D01*
X42461910Y24440559D01*
X42674110Y24295569D01*
X42926000Y24244560D01*
X43497500Y24244560D01*
X43497500Y24130000D01*
X43570005Y23765494D01*
X43776481Y23456481D01*
X44665481Y22567481D01*
X44974494Y22361005D01*
X45339000Y22288500D01*
X52111000Y22288500D01*
X52475506Y22361005D01*
X52784519Y22567481D01*
X53645071Y23428032D01*
X53950689Y23554311D01*
X54254622Y23857714D01*
X54419313Y24254332D01*
X54419687Y24683784D01*
X54255689Y25080689D01*
X53952286Y25384622D01*
X53555668Y25549313D01*
X53126216Y25549687D01*
X52729311Y25385689D01*
X52425378Y25082286D01*
X52297653Y24774692D01*
X51716462Y24193500D01*
X45733538Y24193500D01*
X45682478Y24244560D01*
X45974000Y24244560D01*
X46209317Y24288838D01*
X46425441Y24427910D01*
X46570431Y24640110D01*
X46621440Y24892000D01*
X46621440Y24934725D01*
X50374331Y24934725D01*
X50436169Y24698958D01*
X50937122Y24522581D01*
X51467440Y24551336D01*
X51823831Y24698958D01*
X51885669Y24934725D01*
X51130000Y25690395D01*
X50374331Y24934725D01*
X46621440Y24934725D01*
X46621440Y26062878D01*
X49782581Y26062878D01*
X49811336Y25532560D01*
X49958958Y25176169D01*
X50194725Y25114331D01*
X50950395Y25870000D01*
X51309605Y25870000D01*
X52065275Y25114331D01*
X52301042Y25176169D01*
X52477419Y25677122D01*
X52448664Y26207440D01*
X52313099Y26534725D01*
X54794331Y26534725D01*
X54856169Y26298958D01*
X55357122Y26122581D01*
X55887440Y26151336D01*
X56243831Y26298958D01*
X56305669Y26534725D01*
X55550000Y27290395D01*
X54794331Y26534725D01*
X52313099Y26534725D01*
X52301042Y26563831D01*
X52065275Y26625669D01*
X51309605Y25870000D01*
X50950395Y25870000D01*
X50194725Y26625669D01*
X49958958Y26563831D01*
X49782581Y26062878D01*
X46621440Y26062878D01*
X46621440Y26805275D01*
X50374331Y26805275D01*
X51130000Y26049605D01*
X51885669Y26805275D01*
X51823831Y27041042D01*
X51322878Y27217419D01*
X50792560Y27188664D01*
X50436169Y27041042D01*
X50374331Y26805275D01*
X46621440Y26805275D01*
X46621440Y27662878D01*
X54202581Y27662878D01*
X54231336Y27132560D01*
X54378958Y26776169D01*
X54614725Y26714331D01*
X55370395Y27470000D01*
X54614725Y28225669D01*
X54378958Y28163831D01*
X54202581Y27662878D01*
X46621440Y27662878D01*
X46621440Y27940000D01*
X46577162Y28175317D01*
X46438090Y28391441D01*
X46417844Y28405275D01*
X54794331Y28405275D01*
X55550000Y27649605D01*
X56305669Y28405275D01*
X56243831Y28641042D01*
X55742878Y28817419D01*
X55212560Y28788664D01*
X54856169Y28641042D01*
X54794331Y28405275D01*
X46417844Y28405275D01*
X46225890Y28536431D01*
X45974000Y28587440D01*
X42926000Y28587440D01*
X42690683Y28543162D01*
X42474559Y28404090D01*
X42329569Y28191890D01*
X42278560Y27940000D01*
X42278560Y27368500D01*
X41656000Y27368500D01*
X41652502Y27367804D01*
X41628664Y27807440D01*
X41481042Y28163831D01*
X41245275Y28225669D01*
X40489605Y27470000D01*
X40503748Y27455858D01*
X40324142Y27276252D01*
X40310000Y27290395D01*
X39554331Y26534725D01*
X39616169Y26298958D01*
X40041994Y26149032D01*
X37794931Y23901969D01*
X37489311Y23775689D01*
X37185378Y23472286D01*
X37057653Y23164691D01*
X32625462Y18732500D01*
X25777874Y18732500D01*
X25825669Y18914725D01*
X25070000Y19670395D01*
X25055858Y19656252D01*
X24876252Y19835858D01*
X24890395Y19850000D01*
X25249605Y19850000D01*
X26005275Y19094331D01*
X26241042Y19156169D01*
X26417419Y19657122D01*
X26388664Y20187440D01*
X26241042Y20543831D01*
X26005275Y20605669D01*
X25249605Y19850000D01*
X24890395Y19850000D01*
X24134725Y20605669D01*
X23898958Y20543831D01*
X23815860Y20307812D01*
X23618577Y20785275D01*
X24314331Y20785275D01*
X25070000Y20029605D01*
X25825669Y20785275D01*
X25763831Y21021042D01*
X25262878Y21197419D01*
X24732560Y21168664D01*
X24376169Y21021042D01*
X24314331Y20785275D01*
X23618577Y20785275D01*
X23193716Y21813515D01*
X23177149Y21830111D01*
X26281763Y24934725D01*
X35134331Y24934725D01*
X35196169Y24698958D01*
X35697122Y24522581D01*
X36227440Y24551336D01*
X36583831Y24698958D01*
X36645669Y24934725D01*
X35890000Y25690395D01*
X35134331Y24934725D01*
X26281763Y24934725D01*
X27064538Y25717500D01*
X31750000Y25717500D01*
X32114506Y25790005D01*
X32423519Y25996481D01*
X32489916Y26062878D01*
X34542581Y26062878D01*
X34571336Y25532560D01*
X34718958Y25176169D01*
X34954725Y25114331D01*
X35710395Y25870000D01*
X36069605Y25870000D01*
X36825275Y25114331D01*
X37061042Y25176169D01*
X37237419Y25677122D01*
X37208664Y26207440D01*
X37061042Y26563831D01*
X36825275Y26625669D01*
X36069605Y25870000D01*
X35710395Y25870000D01*
X34954725Y26625669D01*
X34718958Y26563831D01*
X34542581Y26062878D01*
X32489916Y26062878D01*
X33232313Y26805275D01*
X35134331Y26805275D01*
X35890000Y26049605D01*
X36645669Y26805275D01*
X36583831Y27041042D01*
X36082878Y27217419D01*
X35552560Y27188664D01*
X35196169Y27041042D01*
X35134331Y26805275D01*
X33232313Y26805275D01*
X33693519Y27266481D01*
X33899995Y27575494D01*
X33917376Y27662878D01*
X38962581Y27662878D01*
X38991336Y27132560D01*
X39138958Y26776169D01*
X39374725Y26714331D01*
X40130395Y27470000D01*
X39374725Y28225669D01*
X39138958Y28163831D01*
X38962581Y27662878D01*
X33917376Y27662878D01*
X33972500Y27940000D01*
X33972500Y28331288D01*
X34087479Y28405275D01*
X39554331Y28405275D01*
X40310000Y27649605D01*
X41065669Y28405275D01*
X41003831Y28641042D01*
X40502878Y28817419D01*
X39972560Y28788664D01*
X39616169Y28641042D01*
X39554331Y28405275D01*
X34087479Y28405275D01*
X34182641Y28466510D01*
X34213381Y28511500D01*
X34925000Y28511500D01*
X35289506Y28584005D01*
X35598519Y28790481D01*
X36081538Y29273500D01*
X37578934Y29273500D01*
X37884332Y29146687D01*
X38313784Y29146313D01*
X38710689Y29310311D01*
X39014622Y29613714D01*
X39179313Y30010332D01*
X39179687Y30439784D01*
X39015689Y30836689D01*
X38712286Y31140622D01*
X38315668Y31305313D01*
X37886216Y31305687D01*
X37578400Y31178500D01*
X35687000Y31178500D01*
X35322494Y31105995D01*
X35013481Y30899519D01*
X34530462Y30416500D01*
X34216101Y30416500D01*
X34195290Y30448841D01*
X34147868Y30481243D01*
X34269527Y30602902D01*
X34366200Y30836291D01*
X34366200Y31210250D01*
X34207450Y31369000D01*
X33147000Y31369000D01*
X33147000Y31349000D01*
X32893000Y31349000D01*
X32893000Y31369000D01*
X31832550Y31369000D01*
X31673800Y31210250D01*
X31673800Y30836291D01*
X31770473Y30602902D01*
X31890536Y30482839D01*
X31857359Y30461490D01*
X31712369Y30249290D01*
X31661360Y29997400D01*
X31661360Y28930600D01*
X31705638Y28695283D01*
X31844710Y28479159D01*
X32056910Y28334169D01*
X32065410Y28332448D01*
X31355462Y27622500D01*
X26670000Y27622500D01*
X26401587Y27569109D01*
X26388664Y27807440D01*
X26241042Y28163831D01*
X26005275Y28225669D01*
X25249605Y27470000D01*
X25263748Y27455858D01*
X25084142Y27276252D01*
X25070000Y27290395D01*
X24314331Y26534725D01*
X24376169Y26298958D01*
X24801994Y26149032D01*
X21831287Y23178325D01*
X21820743Y23188887D01*
X20025950Y23934150D01*
X20002500Y23934170D01*
X20002500Y24682646D01*
X20457122Y24522581D01*
X20987440Y24551336D01*
X21343831Y24698958D01*
X21405669Y24934725D01*
X20650000Y25690395D01*
X20635858Y25676252D01*
X20456252Y25855858D01*
X20470395Y25870000D01*
X20456252Y25884142D01*
X20635858Y26063748D01*
X20650000Y26049605D01*
X21405669Y26805275D01*
X21343831Y27041042D01*
X20842878Y27217419D01*
X20312560Y27188664D01*
X20002500Y27060233D01*
X20002500Y27418462D01*
X21095538Y28511500D01*
X21907500Y28511500D01*
X21907500Y27064066D01*
X21780687Y26758668D01*
X21780527Y26574458D01*
X21585275Y26625669D01*
X20829605Y25870000D01*
X21585275Y25114331D01*
X21821042Y25176169D01*
X21997419Y25677122D01*
X21985838Y25890712D01*
X22247714Y25628378D01*
X22644332Y25463687D01*
X23073784Y25463313D01*
X23470689Y25627311D01*
X23774622Y25930714D01*
X23939313Y26327332D01*
X23939687Y26756784D01*
X23935654Y26766544D01*
X24134725Y26714331D01*
X24890395Y27470000D01*
X24134725Y28225669D01*
X23898958Y28163831D01*
X23812500Y27918270D01*
X23812500Y28511500D01*
X24342192Y28511500D01*
X24314331Y28405275D01*
X25070000Y27649605D01*
X25825669Y28405275D01*
X25797808Y28511500D01*
X26743899Y28511500D01*
X26764710Y28479159D01*
X26976910Y28334169D01*
X27228800Y28283160D01*
X28651200Y28283160D01*
X28886517Y28327438D01*
X29102641Y28466510D01*
X29247631Y28678710D01*
X29298640Y28930600D01*
X29298640Y29997400D01*
X29254362Y30232717D01*
X29115290Y30448841D01*
X29067868Y30481243D01*
X29189527Y30602902D01*
X29286200Y30836291D01*
X29286200Y31210250D01*
X29127450Y31369000D01*
X28067000Y31369000D01*
X28067000Y31349000D01*
X27813000Y31349000D01*
X27813000Y31369000D01*
X26752550Y31369000D01*
X26593800Y31210250D01*
X26593800Y30836291D01*
X26690473Y30602902D01*
X26810536Y30482839D01*
X26777359Y30461490D01*
X26746619Y30416500D01*
X20701000Y30416500D01*
X20336494Y30343995D01*
X20103624Y30188396D01*
X20027481Y30137519D01*
X18376481Y28486519D01*
X18370982Y28478290D01*
X18285890Y28536431D01*
X18034000Y28587440D01*
X17462500Y28587440D01*
X17462500Y29069462D01*
X18936538Y30543500D01*
X22266000Y30543500D01*
X22630506Y30616005D01*
X22939519Y30822481D01*
X23165069Y31048031D01*
X23470689Y31174311D01*
X23774622Y31477714D01*
X23939313Y31874332D01*
X23939558Y32155709D01*
X26593800Y32155709D01*
X26593800Y31781750D01*
X26752550Y31623000D01*
X27813000Y31623000D01*
X27813000Y32505650D01*
X28067000Y32505650D01*
X28067000Y31623000D01*
X29127450Y31623000D01*
X29286200Y31781750D01*
X29286200Y32155709D01*
X31673800Y32155709D01*
X31673800Y31781750D01*
X31832550Y31623000D01*
X32893000Y31623000D01*
X32893000Y32505650D01*
X33147000Y32505650D01*
X33147000Y31623000D01*
X34207450Y31623000D01*
X34366200Y31781750D01*
X34366200Y32155709D01*
X34269527Y32389098D01*
X34103901Y32554725D01*
X35134331Y32554725D01*
X35196169Y32318958D01*
X35697122Y32142581D01*
X36227440Y32171336D01*
X36583831Y32318958D01*
X36645669Y32554725D01*
X35890000Y33310395D01*
X35134331Y32554725D01*
X34103901Y32554725D01*
X34090899Y32567727D01*
X33857510Y32664400D01*
X33305750Y32664400D01*
X33147000Y32505650D01*
X32893000Y32505650D01*
X32734250Y32664400D01*
X32182490Y32664400D01*
X31949101Y32567727D01*
X31770473Y32389098D01*
X31673800Y32155709D01*
X29286200Y32155709D01*
X29189527Y32389098D01*
X29010899Y32567727D01*
X28777510Y32664400D01*
X28225750Y32664400D01*
X28067000Y32505650D01*
X27813000Y32505650D01*
X27654250Y32664400D01*
X27102490Y32664400D01*
X26869101Y32567727D01*
X26690473Y32389098D01*
X26593800Y32155709D01*
X23939558Y32155709D01*
X23939687Y32303784D01*
X23775689Y32700689D01*
X23472286Y33004622D01*
X23075668Y33169313D01*
X22646216Y33169687D01*
X22249311Y33005689D01*
X21945378Y32702286D01*
X21839996Y32448500D01*
X21377808Y32448500D01*
X21405669Y32554725D01*
X20650000Y33310395D01*
X19894331Y32554725D01*
X19922192Y32448500D01*
X18542000Y32448500D01*
X18177494Y32375995D01*
X17868481Y32169519D01*
X15836481Y30137519D01*
X15630005Y29828506D01*
X15557500Y29464000D01*
X15557500Y28587440D01*
X14986000Y28587440D01*
X14750683Y28543162D01*
X14534559Y28404090D01*
X14389569Y28191890D01*
X14338560Y27940000D01*
X14338560Y27366026D01*
X13986494Y27295995D01*
X13677481Y27089519D01*
X13042481Y26454519D01*
X12836005Y26145506D01*
X12763500Y25781000D01*
X12763500Y24384000D01*
X12836005Y24019494D01*
X13042481Y23710481D01*
X14921675Y21831287D01*
X14911113Y21820743D01*
X14165850Y20025950D01*
X14165830Y20002500D01*
X12319000Y20002500D01*
X11954494Y19929995D01*
X11645481Y19723519D01*
X10908462Y18986500D01*
X10873108Y18986500D01*
X10765277Y19094331D01*
X11001042Y19156169D01*
X11177419Y19657122D01*
X11148664Y20187440D01*
X11001042Y20543831D01*
X10765275Y20605669D01*
X10009605Y19850000D01*
X10023748Y19835858D01*
X9844142Y19656252D01*
X9830000Y19670395D01*
X9815858Y19656252D01*
X9636252Y19835858D01*
X9650395Y19850000D01*
X8894725Y20605669D01*
X8658958Y20543831D01*
X8572500Y20298270D01*
X8572500Y20785275D01*
X9074331Y20785275D01*
X9830000Y20029605D01*
X10585669Y20785275D01*
X10523831Y21021042D01*
X10022878Y21197419D01*
X9492560Y21168664D01*
X9136169Y21021042D01*
X9074331Y20785275D01*
X8572500Y20785275D01*
X8572500Y22846934D01*
X8699313Y23152332D01*
X8699687Y23581784D01*
X8535689Y23978689D01*
X8232286Y24282622D01*
X7835668Y24447313D01*
X7406216Y24447687D01*
X7009311Y24283689D01*
X6705378Y23980286D01*
X6540687Y23583668D01*
X6540313Y23154216D01*
X6667500Y22846400D01*
X6667500Y20206066D01*
X6540687Y19900668D01*
X6540313Y19471216D01*
X6704311Y19074311D01*
X6715397Y19063205D01*
X6740005Y18939494D01*
X6946481Y18630481D01*
X8216481Y17360481D01*
X8525494Y17154005D01*
X8890000Y17081500D01*
X11303000Y17081500D01*
X11667506Y17154005D01*
X11976519Y17360481D01*
X12713538Y18097500D01*
X14164167Y18097500D01*
X14164154Y18082576D01*
X14906284Y16286485D01*
X14922851Y16269889D01*
X14439481Y15786519D01*
X14233005Y15477506D01*
X14160500Y15113000D01*
X14160500Y11951066D01*
X14033687Y11645668D01*
X14033313Y11216216D01*
X14197311Y10819311D01*
X14500714Y10515378D01*
X14897332Y10350687D01*
X15326784Y10350313D01*
X15723689Y10514311D01*
X16027622Y10817714D01*
X16029766Y10822878D01*
X19302581Y10822878D01*
X19331336Y10292560D01*
X19478958Y9936169D01*
X19714725Y9874331D01*
X20470395Y10630000D01*
X19714725Y11385669D01*
X19478958Y11323831D01*
X19302581Y10822878D01*
X16029766Y10822878D01*
X16192313Y11214332D01*
X16192687Y11643784D01*
X16065500Y11951600D01*
X16065500Y14718462D01*
X16268713Y14921675D01*
X16279257Y14911113D01*
X18074050Y14165850D01*
X18134339Y14165797D01*
X18170005Y13986494D01*
X18376481Y13677481D01*
X20166004Y11887958D01*
X19956169Y11801042D01*
X19894331Y11565275D01*
X20650000Y10809605D01*
X20664142Y10823748D01*
X20843748Y10644142D01*
X20829605Y10630000D01*
X21585275Y9874331D01*
X21788041Y9927513D01*
X21944311Y9549311D01*
X22247714Y9245378D01*
X22491858Y9144000D01*
X4508500Y9144000D01*
X4508500Y9610056D01*
X4539082Y9579474D01*
X4654331Y9694723D01*
X4716169Y9458958D01*
X5217122Y9282581D01*
X5747440Y9311336D01*
X6103831Y9458958D01*
X6165669Y9694725D01*
X19894331Y9694725D01*
X19956169Y9458958D01*
X20457122Y9282581D01*
X20987440Y9311336D01*
X21343831Y9458958D01*
X21405669Y9694725D01*
X20650000Y10450395D01*
X19894331Y9694725D01*
X6165669Y9694725D01*
X5410000Y10450395D01*
X5395858Y10436252D01*
X5216252Y10615858D01*
X5230395Y10630000D01*
X5589605Y10630000D01*
X6345275Y9874331D01*
X6581042Y9936169D01*
X6757419Y10437122D01*
X6728664Y10967440D01*
X6593099Y11294725D01*
X9074331Y11294725D01*
X9136169Y11058958D01*
X9637122Y10882581D01*
X10167440Y10911336D01*
X10523831Y11058958D01*
X10585669Y11294725D01*
X9830000Y12050395D01*
X9074331Y11294725D01*
X6593099Y11294725D01*
X6581042Y11323831D01*
X6345275Y11385669D01*
X5589605Y10630000D01*
X5230395Y10630000D01*
X5216252Y10644142D01*
X5395858Y10823748D01*
X5410000Y10809605D01*
X6165669Y11565275D01*
X6103831Y11801042D01*
X5602878Y11977419D01*
X5072560Y11948664D01*
X4716169Y11801042D01*
X4654331Y11565277D01*
X4539082Y11680526D01*
X4508500Y11649944D01*
X4508500Y12422878D01*
X8482581Y12422878D01*
X8511336Y11892560D01*
X8658958Y11536169D01*
X8894725Y11474331D01*
X9650395Y12230000D01*
X10009605Y12230000D01*
X10765275Y11474331D01*
X11001042Y11536169D01*
X11177419Y12037122D01*
X11148664Y12567440D01*
X11001042Y12923831D01*
X10765275Y12985669D01*
X10009605Y12230000D01*
X9650395Y12230000D01*
X8894725Y12985669D01*
X8658958Y12923831D01*
X8482581Y12422878D01*
X4508500Y12422878D01*
X4508500Y13165275D01*
X9074331Y13165275D01*
X9830000Y12409605D01*
X10585669Y13165275D01*
X10523831Y13401042D01*
X10022878Y13577419D01*
X9492560Y13548664D01*
X9136169Y13401042D01*
X9074331Y13165275D01*
X4508500Y13165275D01*
X4508500Y17230056D01*
X4539082Y17199474D01*
X4654331Y17314723D01*
X4716169Y17078958D01*
X5217122Y16902581D01*
X5747440Y16931336D01*
X6103831Y17078958D01*
X6165669Y17314725D01*
X5410000Y18070395D01*
X5395858Y18056252D01*
X5216252Y18235858D01*
X5230395Y18250000D01*
X5589605Y18250000D01*
X6345275Y17494331D01*
X6581042Y17556169D01*
X6757419Y18057122D01*
X6728664Y18587440D01*
X6581042Y18943831D01*
X6345275Y19005669D01*
X5589605Y18250000D01*
X5230395Y18250000D01*
X5216252Y18264142D01*
X5395858Y18443748D01*
X5410000Y18429605D01*
X6165669Y19185275D01*
X6103831Y19421042D01*
X5602878Y19597419D01*
X5072560Y19568664D01*
X4716169Y19421042D01*
X4654331Y19185277D01*
X4539082Y19300526D01*
X4508500Y19269944D01*
X4508500Y24850056D01*
X4539082Y24819474D01*
X4654331Y24934723D01*
X4716169Y24698958D01*
X5217122Y24522581D01*
X5747440Y24551336D01*
X6103831Y24698958D01*
X6165669Y24934725D01*
X5410000Y25690395D01*
X5395858Y25676252D01*
X5216252Y25855858D01*
X5230395Y25870000D01*
X5589605Y25870000D01*
X6345275Y25114331D01*
X6581042Y25176169D01*
X6757419Y25677122D01*
X6728664Y26207440D01*
X6593099Y26534725D01*
X9074331Y26534725D01*
X9136169Y26298958D01*
X9637122Y26122581D01*
X10167440Y26151336D01*
X10523831Y26298958D01*
X10585669Y26534725D01*
X9830000Y27290395D01*
X9074331Y26534725D01*
X6593099Y26534725D01*
X6581042Y26563831D01*
X6345275Y26625669D01*
X5589605Y25870000D01*
X5230395Y25870000D01*
X5216252Y25884142D01*
X5395858Y26063748D01*
X5410000Y26049605D01*
X6165669Y26805275D01*
X6103831Y27041042D01*
X5602878Y27217419D01*
X5072560Y27188664D01*
X4716169Y27041042D01*
X4654331Y26805277D01*
X4539082Y26920526D01*
X4508500Y26889944D01*
X4508500Y27306870D01*
X4864508Y27662878D01*
X8482581Y27662878D01*
X8511336Y27132560D01*
X8658958Y26776169D01*
X8894725Y26714331D01*
X9650395Y27470000D01*
X10009605Y27470000D01*
X10765275Y26714331D01*
X11001042Y26776169D01*
X11177419Y27277122D01*
X11148664Y27807440D01*
X11001042Y28163831D01*
X10765275Y28225669D01*
X10009605Y27470000D01*
X9650395Y27470000D01*
X8894725Y28225669D01*
X8658958Y28163831D01*
X8482581Y27662878D01*
X4864508Y27662878D01*
X5606905Y28405275D01*
X9074331Y28405275D01*
X9830000Y27649605D01*
X10585669Y28405275D01*
X10523831Y28641042D01*
X10022878Y28817419D01*
X9492560Y28788664D01*
X9136169Y28641042D01*
X9074331Y28405275D01*
X5606905Y28405275D01*
X10556355Y33354725D01*
X11817331Y33354725D01*
X11879169Y33118958D01*
X12380122Y32942581D01*
X12910440Y32971336D01*
X13266831Y33118958D01*
X13328669Y33354725D01*
X12573000Y34110395D01*
X11817331Y33354725D01*
X10556355Y33354725D01*
X10698816Y33497185D01*
X10795952Y33642560D01*
X11112500Y33642560D01*
X11347817Y33686838D01*
X11360911Y33695264D01*
X11401958Y33596169D01*
X11637725Y33534331D01*
X12393395Y34290000D01*
X12752605Y34290000D01*
X13508275Y33534331D01*
X13744042Y33596169D01*
X13920419Y34097122D01*
X13911683Y34258250D01*
X14351000Y34258250D01*
X14351000Y32893691D01*
X14447673Y32660302D01*
X14626301Y32481673D01*
X14859690Y32385000D01*
X16224250Y32385000D01*
X16383000Y32543750D01*
X16383000Y34417000D01*
X16637000Y34417000D01*
X16637000Y32543750D01*
X16795750Y32385000D01*
X18160310Y32385000D01*
X18393699Y32481673D01*
X18572327Y32660302D01*
X18669000Y32893691D01*
X18669000Y33682878D01*
X19302581Y33682878D01*
X19331336Y33152560D01*
X19478958Y32796169D01*
X19714725Y32734331D01*
X20470395Y33490000D01*
X20829605Y33490000D01*
X21585275Y32734331D01*
X21821042Y32796169D01*
X21997419Y33297122D01*
X21976503Y33682878D01*
X34542581Y33682878D01*
X34571336Y33152560D01*
X34718958Y32796169D01*
X34954725Y32734331D01*
X35710395Y33490000D01*
X36069605Y33490000D01*
X36825275Y32734331D01*
X37061042Y32796169D01*
X37237419Y33297122D01*
X37208664Y33827440D01*
X37073099Y34154725D01*
X39554331Y34154725D01*
X39616169Y33918958D01*
X40117122Y33742581D01*
X40647440Y33771336D01*
X41003831Y33918958D01*
X41065669Y34154725D01*
X40962145Y34258250D01*
X42291000Y34258250D01*
X42291000Y32893691D01*
X42387673Y32660302D01*
X42566301Y32481673D01*
X42799690Y32385000D01*
X44164250Y32385000D01*
X44323000Y32543750D01*
X44323000Y34417000D01*
X44577000Y34417000D01*
X44577000Y32543750D01*
X44735750Y32385000D01*
X46100310Y32385000D01*
X46333699Y32481673D01*
X46512327Y32660302D01*
X46609000Y32893691D01*
X46609000Y33354725D01*
X47885331Y33354725D01*
X47947169Y33118958D01*
X48448122Y32942581D01*
X48978440Y32971336D01*
X49334831Y33118958D01*
X49396669Y33354725D01*
X48641000Y34110395D01*
X47885331Y33354725D01*
X46609000Y33354725D01*
X46609000Y34258250D01*
X46450250Y34417000D01*
X44577000Y34417000D01*
X44323000Y34417000D01*
X42449750Y34417000D01*
X42291000Y34258250D01*
X40962145Y34258250D01*
X40310000Y34910395D01*
X39554331Y34154725D01*
X37073099Y34154725D01*
X37061042Y34183831D01*
X36825275Y34245669D01*
X36069605Y33490000D01*
X35710395Y33490000D01*
X34954725Y34245669D01*
X34718958Y34183831D01*
X34542581Y33682878D01*
X21976503Y33682878D01*
X21968664Y33827440D01*
X21833099Y34154725D01*
X24314331Y34154725D01*
X24376169Y33918958D01*
X24877122Y33742581D01*
X25407440Y33771336D01*
X25763831Y33918958D01*
X25825669Y34154725D01*
X25070000Y34910395D01*
X24314331Y34154725D01*
X21833099Y34154725D01*
X21821042Y34183831D01*
X21585275Y34245669D01*
X20829605Y33490000D01*
X20470395Y33490000D01*
X19714725Y34245669D01*
X19478958Y34183831D01*
X19302581Y33682878D01*
X18669000Y33682878D01*
X18669000Y34258250D01*
X18510250Y34417000D01*
X16637000Y34417000D01*
X16383000Y34417000D01*
X14509750Y34417000D01*
X14351000Y34258250D01*
X13911683Y34258250D01*
X13902627Y34425275D01*
X19894331Y34425275D01*
X20650000Y33669605D01*
X21405669Y34425275D01*
X21343831Y34661042D01*
X20842878Y34837419D01*
X20312560Y34808664D01*
X19956169Y34661042D01*
X19894331Y34425275D01*
X13902627Y34425275D01*
X13891664Y34627440D01*
X13744042Y34983831D01*
X13508275Y35045669D01*
X12752605Y34290000D01*
X12393395Y34290000D01*
X12379252Y34304142D01*
X12558858Y34483748D01*
X12573000Y34469605D01*
X13328669Y35225275D01*
X13266831Y35461042D01*
X12765878Y35637419D01*
X12235560Y35608664D01*
X11879169Y35461042D01*
X11817331Y35225277D01*
X11759940Y35282668D01*
X11759940Y36194309D01*
X14351000Y36194309D01*
X14351000Y34829750D01*
X14509750Y34671000D01*
X16383000Y34671000D01*
X16383000Y36544250D01*
X16637000Y36544250D01*
X16637000Y34671000D01*
X18510250Y34671000D01*
X18669000Y34829750D01*
X18669000Y35282878D01*
X23722581Y35282878D01*
X23751336Y34752560D01*
X23898958Y34396169D01*
X24134725Y34334331D01*
X24890395Y35090000D01*
X25249605Y35090000D01*
X26005275Y34334331D01*
X26241042Y34396169D01*
X26251289Y34425275D01*
X35134331Y34425275D01*
X35890000Y33669605D01*
X36645669Y34425275D01*
X36583831Y34661042D01*
X36082878Y34837419D01*
X35552560Y34808664D01*
X35196169Y34661042D01*
X35134331Y34425275D01*
X26251289Y34425275D01*
X26417419Y34897122D01*
X26396503Y35282878D01*
X38962581Y35282878D01*
X38991336Y34752560D01*
X39138958Y34396169D01*
X39374725Y34334331D01*
X40130395Y35090000D01*
X40489605Y35090000D01*
X41245275Y34334331D01*
X41481042Y34396169D01*
X41511570Y34482878D01*
X47293581Y34482878D01*
X47322336Y33952560D01*
X47469958Y33596169D01*
X47705725Y33534331D01*
X48461395Y34290000D01*
X47705725Y35045669D01*
X47469958Y34983831D01*
X47293581Y34482878D01*
X41511570Y34482878D01*
X41657419Y34897122D01*
X41628664Y35427440D01*
X41481042Y35783831D01*
X41245275Y35845669D01*
X40489605Y35090000D01*
X40130395Y35090000D01*
X39374725Y35845669D01*
X39138958Y35783831D01*
X38962581Y35282878D01*
X26396503Y35282878D01*
X26388664Y35427440D01*
X26241042Y35783831D01*
X26005275Y35845669D01*
X25249605Y35090000D01*
X24890395Y35090000D01*
X24134725Y35845669D01*
X23898958Y35783831D01*
X23722581Y35282878D01*
X18669000Y35282878D01*
X18669000Y36025275D01*
X24314331Y36025275D01*
X25070000Y35269605D01*
X25825669Y36025275D01*
X39554331Y36025275D01*
X40310000Y35269605D01*
X41065669Y36025275D01*
X41021335Y36194309D01*
X42291000Y36194309D01*
X42291000Y34829750D01*
X42449750Y34671000D01*
X44323000Y34671000D01*
X44323000Y36544250D01*
X44577000Y36544250D01*
X44577000Y34671000D01*
X46450250Y34671000D01*
X46609000Y34829750D01*
X46609000Y36194309D01*
X46512327Y36427698D01*
X46333699Y36606327D01*
X46100310Y36703000D01*
X44735750Y36703000D01*
X44577000Y36544250D01*
X44323000Y36544250D01*
X44164250Y36703000D01*
X42799690Y36703000D01*
X42566301Y36606327D01*
X42387673Y36427698D01*
X42291000Y36194309D01*
X41021335Y36194309D01*
X41003831Y36261042D01*
X40502878Y36437419D01*
X39972560Y36408664D01*
X39616169Y36261042D01*
X39554331Y36025275D01*
X25825669Y36025275D01*
X25763831Y36261042D01*
X25262878Y36437419D01*
X24732560Y36408664D01*
X24376169Y36261042D01*
X24314331Y36025275D01*
X18669000Y36025275D01*
X18669000Y36194309D01*
X18572327Y36427698D01*
X18393699Y36606327D01*
X18160310Y36703000D01*
X16795750Y36703000D01*
X16637000Y36544250D01*
X16383000Y36544250D01*
X16224250Y36703000D01*
X14859690Y36703000D01*
X14626301Y36606327D01*
X14447673Y36427698D01*
X14351000Y36194309D01*
X11759940Y36194309D01*
X11759940Y38411745D01*
X38591350Y38411745D01*
X39086113Y37807188D01*
X40871147Y37038840D01*
X42814337Y37012083D01*
X44619850Y37730990D01*
X44733887Y37807188D01*
X45228650Y38411745D01*
X41910000Y41730395D01*
X38591350Y38411745D01*
X11759940Y38411745D01*
X11759940Y40174725D01*
X19894331Y40174725D01*
X19956169Y39938958D01*
X20457122Y39762581D01*
X20987440Y39791336D01*
X21343831Y39938958D01*
X21405669Y40174725D01*
X35134331Y40174725D01*
X35196169Y39938958D01*
X35697122Y39762581D01*
X36227440Y39791336D01*
X36583831Y39938958D01*
X36645669Y40174725D01*
X35890000Y40930395D01*
X35134331Y40174725D01*
X21405669Y40174725D01*
X20650000Y40930395D01*
X19894331Y40174725D01*
X11759940Y40174725D01*
X11759940Y40847725D01*
X12198331Y40847725D01*
X12260169Y40611958D01*
X12761122Y40435581D01*
X13291440Y40464336D01*
X13647831Y40611958D01*
X13709669Y40847725D01*
X12954000Y41603395D01*
X12198331Y40847725D01*
X11759940Y40847725D01*
X11759940Y41144739D01*
X11782958Y41089169D01*
X12018725Y41027331D01*
X12774395Y41783000D01*
X13133605Y41783000D01*
X13889275Y41027331D01*
X14125042Y41089169D01*
X14200285Y41302878D01*
X19302581Y41302878D01*
X19331336Y40772560D01*
X19478958Y40416169D01*
X19714725Y40354331D01*
X20470395Y41110000D01*
X20829605Y41110000D01*
X21585275Y40354331D01*
X21821042Y40416169D01*
X21997419Y40917122D01*
X21976503Y41302878D01*
X34542581Y41302878D01*
X34571336Y40772560D01*
X34718958Y40416169D01*
X34954725Y40354331D01*
X35710395Y41110000D01*
X34954725Y41865669D01*
X34718958Y41803831D01*
X34542581Y41302878D01*
X21976503Y41302878D01*
X21968664Y41447440D01*
X21833099Y41774725D01*
X24314331Y41774725D01*
X24376169Y41538958D01*
X24877122Y41362581D01*
X25407440Y41391336D01*
X25763831Y41538958D01*
X25825669Y41774725D01*
X25070000Y42530395D01*
X24314331Y41774725D01*
X21833099Y41774725D01*
X21821042Y41803831D01*
X21585275Y41865669D01*
X20829605Y41110000D01*
X20470395Y41110000D01*
X19714725Y41865669D01*
X19478958Y41803831D01*
X19302581Y41302878D01*
X14200285Y41302878D01*
X14301419Y41590122D01*
X14276740Y42045275D01*
X19894331Y42045275D01*
X20650000Y41289605D01*
X21405669Y42045275D01*
X21343831Y42281042D01*
X20842878Y42457419D01*
X20312560Y42428664D01*
X19956169Y42281042D01*
X19894331Y42045275D01*
X14276740Y42045275D01*
X14272664Y42120440D01*
X14125042Y42476831D01*
X13889275Y42538669D01*
X13133605Y41783000D01*
X12774395Y41783000D01*
X12018725Y42538669D01*
X11782958Y42476831D01*
X11683717Y42194962D01*
X11576590Y42361441D01*
X11364390Y42506431D01*
X11112500Y42557440D01*
X9207500Y42557440D01*
X8972183Y42513162D01*
X8890997Y42460920D01*
X8824390Y42506431D01*
X8572500Y42557440D01*
X6667500Y42557440D01*
X6432183Y42513162D01*
X6355226Y42463641D01*
X6158809Y42545000D01*
X5365750Y42545000D01*
X5207000Y42386250D01*
X5207000Y38227000D01*
X5227000Y38227000D01*
X5227000Y37973000D01*
X5207000Y37973000D01*
X5207000Y33813750D01*
X5365750Y33655000D01*
X6158809Y33655000D01*
X6353831Y33735781D01*
X6415610Y33693569D01*
X6667500Y33642560D01*
X6858000Y33642560D01*
X6858000Y33081631D01*
X2509185Y28732815D01*
X2344004Y28485605D01*
X2286000Y28194000D01*
X2286000Y6284631D01*
X762000Y4760630D01*
X762000Y13097131D01*
X845647Y13131779D01*
X1006554Y13198428D01*
X1500973Y13528788D01*
X1500976Y13528789D01*
X1606093Y13633907D01*
X1711211Y13739024D01*
X1711212Y13739027D01*
X2041572Y14233446D01*
X2155351Y14508132D01*
X2155351Y14508136D01*
X2271358Y15091341D01*
X2271358Y15388659D01*
X2155351Y15971864D01*
X2155351Y15971868D01*
X2041572Y16246554D01*
X1711211Y16740975D01*
X1711211Y16740976D01*
X1606093Y16846093D01*
X1500976Y16951211D01*
X1500973Y16951212D01*
X1006554Y17281572D01*
X816050Y17360481D01*
X762000Y17382869D01*
X762000Y33354725D01*
X2038331Y33354725D01*
X2100169Y33118958D01*
X2601122Y32942581D01*
X3131440Y32971336D01*
X3487831Y33118958D01*
X3549669Y33354725D01*
X2794000Y34110395D01*
X2038331Y33354725D01*
X762000Y33354725D01*
X762000Y34482878D01*
X1446581Y34482878D01*
X1475336Y33952560D01*
X1622958Y33596169D01*
X1858725Y33534331D01*
X2614395Y34290000D01*
X1858725Y35045669D01*
X1622958Y34983831D01*
X1446581Y34482878D01*
X762000Y34482878D01*
X762000Y35225275D01*
X2038331Y35225275D01*
X2794000Y34469605D01*
X2808142Y34483748D01*
X2987748Y34304142D01*
X2973605Y34290000D01*
X3729275Y33534331D01*
X3965042Y33596169D01*
X3987720Y33660580D01*
X4001191Y33655000D01*
X4794250Y33655000D01*
X4953000Y33813750D01*
X4953000Y37973000D01*
X3651250Y37973000D01*
X3492500Y37814250D01*
X3492500Y35443241D01*
X3487831Y35461042D01*
X2986878Y35637419D01*
X2456560Y35608664D01*
X2100169Y35461042D01*
X2038331Y35225275D01*
X762000Y35225275D01*
X762000Y40847725D01*
X2038331Y40847725D01*
X2100169Y40611958D01*
X2601122Y40435581D01*
X3131440Y40464336D01*
X3487831Y40611958D01*
X3492500Y40629759D01*
X3492500Y38385750D01*
X3651250Y38227000D01*
X4953000Y38227000D01*
X4953000Y42386250D01*
X4794250Y42545000D01*
X4001191Y42545000D01*
X3886408Y42497455D01*
X3729275Y42538669D01*
X2973605Y41783000D01*
X2987748Y41768858D01*
X2808142Y41589252D01*
X2794000Y41603395D01*
X2038331Y40847725D01*
X762000Y40847725D01*
X762000Y41975878D01*
X1446581Y41975878D01*
X1475336Y41445560D01*
X1622958Y41089169D01*
X1858725Y41027331D01*
X2614395Y41783000D01*
X1858725Y42538669D01*
X1622958Y42476831D01*
X1446581Y41975878D01*
X762000Y41975878D01*
X762000Y42718275D01*
X2038331Y42718275D01*
X2794000Y41962605D01*
X3549669Y42718275D01*
X12198331Y42718275D01*
X12954000Y41962605D01*
X13709669Y42718275D01*
X13661251Y42902878D01*
X23722581Y42902878D01*
X23751336Y42372560D01*
X23898958Y42016169D01*
X24134725Y41954331D01*
X24890395Y42710000D01*
X25249605Y42710000D01*
X26005275Y41954331D01*
X26241042Y42016169D01*
X26251289Y42045275D01*
X35134331Y42045275D01*
X35496264Y41683341D01*
X35531958Y41597169D01*
X35600383Y41579222D01*
X35890000Y41289605D01*
X35949157Y41348762D01*
X36009169Y41119958D01*
X36087077Y41092528D01*
X36825275Y40354331D01*
X37061042Y40416169D01*
X37148217Y40663767D01*
X37730990Y39200150D01*
X37807188Y39086113D01*
X38411745Y38591350D01*
X41730395Y41910000D01*
X42089605Y41910000D01*
X45408255Y38591350D01*
X46012812Y39086113D01*
X46781160Y40871147D01*
X46799869Y42229878D01*
X47039581Y42229878D01*
X47068336Y41699560D01*
X47215958Y41343169D01*
X47451725Y41281331D01*
X48207395Y42037000D01*
X47451725Y42792669D01*
X47215958Y42730831D01*
X47039581Y42229878D01*
X46799869Y42229878D01*
X46807917Y42814337D01*
X46745031Y42972275D01*
X47631331Y42972275D01*
X48387000Y42216605D01*
X49142669Y42972275D01*
X49080831Y43208042D01*
X48579878Y43384419D01*
X48049560Y43355664D01*
X47693169Y43208042D01*
X47631331Y42972275D01*
X46745031Y42972275D01*
X46089010Y44619850D01*
X46012812Y44733887D01*
X45408255Y45228650D01*
X42089605Y41910000D01*
X41730395Y41910000D01*
X38411745Y45228650D01*
X37807188Y44733887D01*
X37277779Y43503958D01*
X36895878Y43638419D01*
X36365560Y43609664D01*
X36009169Y43462042D01*
X35947331Y43226275D01*
X36703000Y42470605D01*
X36717143Y42484747D01*
X36896748Y42305142D01*
X36882605Y42291000D01*
X36896748Y42276858D01*
X36717143Y42097252D01*
X36703000Y42111395D01*
X36643843Y42052238D01*
X36583831Y42281042D01*
X36505923Y42308472D01*
X35767725Y43046669D01*
X35531958Y42984831D01*
X35355581Y42483878D01*
X35362836Y42350078D01*
X35196169Y42281042D01*
X35134331Y42045275D01*
X26251289Y42045275D01*
X26417419Y42517122D01*
X26388664Y43047440D01*
X26241042Y43403831D01*
X26005275Y43465669D01*
X25249605Y42710000D01*
X24890395Y42710000D01*
X24134725Y43465669D01*
X23898958Y43403831D01*
X23722581Y42902878D01*
X13661251Y42902878D01*
X13647831Y42954042D01*
X13146878Y43130419D01*
X12616560Y43101664D01*
X12260169Y42954042D01*
X12198331Y42718275D01*
X3549669Y42718275D01*
X3487831Y42954042D01*
X2986878Y43130419D01*
X2456560Y43101664D01*
X2100169Y42954042D01*
X2038331Y42718275D01*
X762000Y42718275D01*
X762000Y43577131D01*
X909963Y43638419D01*
X926514Y43645275D01*
X24314331Y43645275D01*
X25070000Y42889605D01*
X25825669Y43645275D01*
X25763831Y43881042D01*
X25262878Y44057419D01*
X24732560Y44028664D01*
X24376169Y43881042D01*
X24314331Y43645275D01*
X926514Y43645275D01*
X1006554Y43678428D01*
X1500973Y44008788D01*
X1500976Y44008789D01*
X1606093Y44113907D01*
X1711211Y44219024D01*
X1711212Y44219027D01*
X2041572Y44713446D01*
X2155351Y44988132D01*
X2155351Y44988136D01*
X2238918Y45408255D01*
X38591350Y45408255D01*
X41910000Y42089605D01*
X45228650Y45408255D01*
X44733887Y46012812D01*
X42948853Y46781160D01*
X41005663Y46807917D01*
X39200150Y46089010D01*
X39086113Y46012812D01*
X38591350Y45408255D01*
X2238918Y45408255D01*
X2271358Y45571341D01*
X2271358Y45868659D01*
X2155351Y46451864D01*
X2155351Y46451868D01*
X2041572Y46726554D01*
X1711211Y47220975D01*
X1711211Y47220976D01*
X1606093Y47326093D01*
X1500976Y47431211D01*
X1500973Y47431212D01*
X1006554Y47761572D01*
X926515Y47794725D01*
X4654331Y47794725D01*
X4716169Y47558958D01*
X5217122Y47382581D01*
X5747440Y47411336D01*
X6103831Y47558958D01*
X6165669Y47794725D01*
X19894331Y47794725D01*
X19956169Y47558958D01*
X20457122Y47382581D01*
X20987440Y47411336D01*
X21343831Y47558958D01*
X21405669Y47794725D01*
X35134331Y47794725D01*
X35196169Y47558958D01*
X35697122Y47382581D01*
X36227440Y47411336D01*
X36583831Y47558958D01*
X36645669Y47794725D01*
X35890000Y48550395D01*
X35134331Y47794725D01*
X21405669Y47794725D01*
X20650000Y48550395D01*
X19894331Y47794725D01*
X6165669Y47794725D01*
X5410000Y48550395D01*
X4654331Y47794725D01*
X926515Y47794725D01*
X845647Y47828221D01*
X762000Y47862869D01*
X762000Y48922878D01*
X4062581Y48922878D01*
X4091336Y48392560D01*
X4238958Y48036169D01*
X4474725Y47974331D01*
X5230395Y48730000D01*
X5589605Y48730000D01*
X6345275Y47974331D01*
X6581042Y48036169D01*
X6757419Y48537122D01*
X6736503Y48922878D01*
X19302581Y48922878D01*
X19331336Y48392560D01*
X19478958Y48036169D01*
X19714725Y47974331D01*
X20470395Y48730000D01*
X20829605Y48730000D01*
X21585275Y47974331D01*
X21821042Y48036169D01*
X21997419Y48537122D01*
X21968664Y49067440D01*
X21833099Y49394725D01*
X24314331Y49394725D01*
X24376169Y49158958D01*
X24877122Y48982581D01*
X25407440Y49011336D01*
X25763831Y49158958D01*
X25825669Y49394725D01*
X25070000Y50150395D01*
X24314331Y49394725D01*
X21833099Y49394725D01*
X21821042Y49423831D01*
X21585275Y49485669D01*
X20829605Y48730000D01*
X20470395Y48730000D01*
X19714725Y49485669D01*
X19478958Y49423831D01*
X19302581Y48922878D01*
X6736503Y48922878D01*
X6728664Y49067440D01*
X6593099Y49394725D01*
X9074331Y49394725D01*
X9136169Y49158958D01*
X9637122Y48982581D01*
X10167440Y49011336D01*
X10523831Y49158958D01*
X10585669Y49394725D01*
X9830000Y50150395D01*
X9074331Y49394725D01*
X6593099Y49394725D01*
X6581042Y49423831D01*
X6345275Y49485669D01*
X5589605Y48730000D01*
X5230395Y48730000D01*
X4474725Y49485669D01*
X4238958Y49423831D01*
X4062581Y48922878D01*
X762000Y48922878D01*
X762000Y49665275D01*
X4654331Y49665275D01*
X5410000Y48909605D01*
X6165669Y49665275D01*
X6103831Y49901042D01*
X5602878Y50077419D01*
X5072560Y50048664D01*
X4716169Y49901042D01*
X4654331Y49665275D01*
X762000Y49665275D01*
X762000Y50522878D01*
X8482581Y50522878D01*
X8511336Y49992560D01*
X8658958Y49636169D01*
X8894725Y49574331D01*
X9650395Y50330000D01*
X10009605Y50330000D01*
X10765275Y49574331D01*
X11001042Y49636169D01*
X11011289Y49665275D01*
X19894331Y49665275D01*
X20650000Y48909605D01*
X21405669Y49665275D01*
X21343831Y49901042D01*
X20842878Y50077419D01*
X20312560Y50048664D01*
X19956169Y49901042D01*
X19894331Y49665275D01*
X11011289Y49665275D01*
X11177419Y50137122D01*
X11156503Y50522878D01*
X23722581Y50522878D01*
X23751336Y49992560D01*
X23898958Y49636169D01*
X24134725Y49574331D01*
X24890395Y50330000D01*
X24134725Y51085669D01*
X23898958Y51023831D01*
X23722581Y50522878D01*
X11156503Y50522878D01*
X11148664Y50667440D01*
X11001042Y51023831D01*
X10765275Y51085669D01*
X10009605Y50330000D01*
X9650395Y50330000D01*
X8894725Y51085669D01*
X8658958Y51023831D01*
X8482581Y50522878D01*
X762000Y50522878D01*
X762000Y51265275D01*
X9074331Y51265275D01*
X9830000Y50509605D01*
X10585669Y51265275D01*
X24314331Y51265275D01*
X25070000Y50509605D01*
X25084142Y50523748D01*
X25263748Y50344142D01*
X25249605Y50330000D01*
X26005275Y49574331D01*
X26078788Y49593612D01*
X26205910Y49396059D01*
X26418110Y49251069D01*
X26670000Y49200060D01*
X34290000Y49200060D01*
X34525317Y49244338D01*
X34693972Y49352864D01*
X34542581Y48922878D01*
X34571336Y48392560D01*
X34718958Y48036169D01*
X34954725Y47974331D01*
X35710395Y48730000D01*
X36069605Y48730000D01*
X36825275Y47974331D01*
X37061042Y48036169D01*
X37237419Y48537122D01*
X37216503Y48922878D01*
X49782581Y48922878D01*
X49811336Y48392560D01*
X49958958Y48036169D01*
X50194725Y47974331D01*
X50950395Y48730000D01*
X50194725Y49485669D01*
X49958958Y49423831D01*
X49782581Y48922878D01*
X37216503Y48922878D01*
X37208664Y49067440D01*
X37073099Y49394725D01*
X39554331Y49394725D01*
X39616169Y49158958D01*
X40117122Y48982581D01*
X40647440Y49011336D01*
X41003831Y49158958D01*
X41065669Y49394725D01*
X40310000Y50150395D01*
X39554331Y49394725D01*
X37073099Y49394725D01*
X37061042Y49423831D01*
X36825275Y49485669D01*
X36069605Y48730000D01*
X35710395Y48730000D01*
X34954725Y49485669D01*
X34779999Y49439841D01*
X34886431Y49595610D01*
X34900538Y49665275D01*
X35134331Y49665275D01*
X35890000Y48909605D01*
X36645669Y49665275D01*
X36583831Y49901042D01*
X36082878Y50077419D01*
X35552560Y50048664D01*
X35196169Y49901042D01*
X35134331Y49665275D01*
X34900538Y49665275D01*
X34937440Y49847500D01*
X34937440Y50038000D01*
X35179000Y50038000D01*
X35470605Y50096004D01*
X35717815Y50261185D01*
X35979508Y50522878D01*
X38962581Y50522878D01*
X38991336Y49992560D01*
X39138958Y49636169D01*
X39374725Y49574331D01*
X40130395Y50330000D01*
X40489605Y50330000D01*
X41245275Y49574331D01*
X41481042Y49636169D01*
X41657419Y50137122D01*
X41628664Y50667440D01*
X41481042Y51023831D01*
X41245275Y51085669D01*
X40489605Y50330000D01*
X40130395Y50330000D01*
X39374725Y51085669D01*
X39138958Y51023831D01*
X38962581Y50522878D01*
X35979508Y50522878D01*
X36721905Y51265275D01*
X39554331Y51265275D01*
X40310000Y50509605D01*
X41065669Y51265275D01*
X41003831Y51501042D01*
X40502878Y51677419D01*
X39972560Y51648664D01*
X39616169Y51501042D01*
X39554331Y51265275D01*
X36721905Y51265275D01*
X37272631Y51816000D01*
X50611370Y51816000D01*
X51943000Y50484369D01*
X51943000Y49722608D01*
X51885669Y49665277D01*
X51823831Y49901042D01*
X51322878Y50077419D01*
X50792560Y50048664D01*
X50436169Y49901042D01*
X50374331Y49665275D01*
X51130000Y48909605D01*
X51144142Y48923748D01*
X51323748Y48744142D01*
X51309605Y48730000D01*
X51323748Y48715858D01*
X51144142Y48536252D01*
X51130000Y48550395D01*
X50374331Y47794725D01*
X50436169Y47558958D01*
X50937122Y47382581D01*
X51467440Y47411336D01*
X51823831Y47558958D01*
X51885669Y47794723D01*
X51943000Y47737392D01*
X51943000Y44765630D01*
X50261185Y43083815D01*
X50096004Y42836605D01*
X50040474Y42557440D01*
X49847500Y42557440D01*
X49645599Y42519450D01*
X49558042Y42730831D01*
X49322275Y42792669D01*
X48566605Y42037000D01*
X48580748Y42022858D01*
X48401142Y41843252D01*
X48387000Y41857395D01*
X47631331Y41101725D01*
X47693169Y40865958D01*
X48194122Y40689581D01*
X48724440Y40718336D01*
X49080831Y40865958D01*
X49142669Y41101723D01*
X49200060Y41044332D01*
X49200060Y35508493D01*
X48833878Y35637419D01*
X48303560Y35608664D01*
X47947169Y35461042D01*
X47885331Y35225275D01*
X48641000Y34469605D01*
X48655142Y34483748D01*
X48834748Y34304142D01*
X48820605Y34290000D01*
X49576275Y33534331D01*
X49812042Y33596169D01*
X49829648Y33646175D01*
X49847500Y33642560D01*
X50090998Y33642560D01*
X50096004Y33617395D01*
X50110187Y33596169D01*
X50261185Y33370185D01*
X53055185Y30576184D01*
X53203377Y30477166D01*
X53302395Y30411004D01*
X53594000Y30353000D01*
X56072370Y30353000D01*
X56515000Y29910370D01*
X56515000Y28217873D01*
X56485275Y28225669D01*
X55729605Y27470000D01*
X56485275Y26714331D01*
X56515000Y26722127D01*
X56515000Y20597873D01*
X56485275Y20605669D01*
X55729605Y19850000D01*
X56485275Y19094331D01*
X56515000Y19102127D01*
X56515000Y12977873D01*
X56485275Y12985669D01*
X55729605Y12230000D01*
X56485275Y11474331D01*
X56515000Y11482127D01*
X56515000Y5357873D01*
X56485275Y5365669D01*
X55729605Y4610000D01*
X55743748Y4595857D01*
X55564142Y4416252D01*
X55550000Y4430395D01*
X54794331Y3674725D01*
X54856169Y3438958D01*
X55357122Y3262581D01*
X55887440Y3291336D01*
X56243831Y3438958D01*
X56305669Y3674723D01*
X56420918Y3559474D01*
X56464942Y3603498D01*
X56664714Y3403378D01*
X57061332Y3238687D01*
X57490784Y3238313D01*
X57721527Y3333654D01*
X57721313Y3088216D01*
X57885311Y2691311D01*
X58188714Y2387378D01*
X58585332Y2222687D01*
X59014784Y2222313D01*
X59411689Y2386311D01*
X59715622Y2689714D01*
X59880313Y3086332D01*
X59880687Y3515784D01*
X59716689Y3912689D01*
X59563000Y4066646D01*
X59563000Y4445000D01*
X59504996Y4736605D01*
X59339815Y4983815D01*
X58674000Y5649630D01*
X58674000Y30480000D01*
X58615996Y30771605D01*
X58571441Y30838286D01*
X58450815Y31018816D01*
X57053815Y32415815D01*
X56806605Y32580996D01*
X56515000Y32639000D01*
X54417631Y32639000D01*
X54102000Y32954630D01*
X54102000Y33227725D01*
X57283331Y33227725D01*
X57345169Y32991958D01*
X57846122Y32815581D01*
X58376440Y32844336D01*
X58732831Y32991958D01*
X58794669Y33227725D01*
X58039000Y33983395D01*
X57283331Y33227725D01*
X54102000Y33227725D01*
X54102000Y33642560D01*
X54292500Y33642560D01*
X54527817Y33686838D01*
X54604774Y33736359D01*
X54801191Y33655000D01*
X55594250Y33655000D01*
X55753000Y33813750D01*
X55753000Y37973000D01*
X56007000Y37973000D01*
X56007000Y33813750D01*
X56165750Y33655000D01*
X56790984Y33655000D01*
X56867958Y33469169D01*
X57103725Y33407331D01*
X57859395Y34163000D01*
X58218605Y34163000D01*
X58974275Y33407331D01*
X59210042Y33469169D01*
X59386419Y33970122D01*
X59357664Y34500440D01*
X59210042Y34856831D01*
X58974275Y34918669D01*
X58218605Y34163000D01*
X57859395Y34163000D01*
X57845252Y34177142D01*
X58024858Y34356748D01*
X58039000Y34342605D01*
X58794669Y35098275D01*
X58732831Y35334042D01*
X58231878Y35510419D01*
X57701560Y35481664D01*
X57467500Y35384713D01*
X57467500Y37814250D01*
X57308750Y37973000D01*
X56007000Y37973000D01*
X55753000Y37973000D01*
X55733000Y37973000D01*
X55733000Y38227000D01*
X55753000Y38227000D01*
X55753000Y42386250D01*
X56007000Y42386250D01*
X56007000Y38227000D01*
X57308750Y38227000D01*
X57467500Y38385750D01*
X57467500Y40651173D01*
X57719122Y40562581D01*
X58249440Y40591336D01*
X58605831Y40738958D01*
X58667669Y40974725D01*
X57912000Y41730395D01*
X57897858Y41716252D01*
X57718253Y41895857D01*
X57732395Y41910000D01*
X58091605Y41910000D01*
X58847275Y41154331D01*
X59083042Y41216169D01*
X59259419Y41717122D01*
X59230664Y42247440D01*
X59083042Y42603831D01*
X58847275Y42665669D01*
X58091605Y41910000D01*
X57732395Y41910000D01*
X56976725Y42665669D01*
X56740958Y42603831D01*
X56720245Y42545000D01*
X56165750Y42545000D01*
X56007000Y42386250D01*
X55753000Y42386250D01*
X55594250Y42545000D01*
X54801191Y42545000D01*
X54606169Y42464219D01*
X54544390Y42506431D01*
X54292500Y42557440D01*
X54102000Y42557440D01*
X54102000Y42845275D01*
X57156331Y42845275D01*
X57912000Y42089605D01*
X58667669Y42845275D01*
X58605831Y43081042D01*
X58104878Y43257419D01*
X57574560Y43228664D01*
X57218169Y43081042D01*
X57156331Y42845275D01*
X54102000Y42845275D01*
X54102000Y49394725D01*
X54794331Y49394725D01*
X54856169Y49158958D01*
X55357122Y48982581D01*
X55887440Y49011336D01*
X56243831Y49158958D01*
X56305669Y49394725D01*
X55550000Y50150395D01*
X54794331Y49394725D01*
X54102000Y49394725D01*
X54102000Y50522878D01*
X54202581Y50522878D01*
X54231336Y49992560D01*
X54378958Y49636169D01*
X54614725Y49574331D01*
X55370395Y50330000D01*
X55729605Y50330000D01*
X56485275Y49574331D01*
X56721042Y49636169D01*
X56897419Y50137122D01*
X56868664Y50667440D01*
X56721042Y51023831D01*
X56485275Y51085669D01*
X55729605Y50330000D01*
X55370395Y50330000D01*
X54614725Y51085669D01*
X54378958Y51023831D01*
X54202581Y50522878D01*
X54102000Y50522878D01*
X54102000Y51181000D01*
X54085237Y51265275D01*
X54794331Y51265275D01*
X55550000Y50509605D01*
X56305669Y51265275D01*
X56243831Y51501042D01*
X55742878Y51677419D01*
X55212560Y51648664D01*
X54856169Y51501042D01*
X54794331Y51265275D01*
X54085237Y51265275D01*
X54043996Y51472605D01*
X53878815Y51719815D01*
X51719815Y53878815D01*
X51472605Y54043996D01*
X51181000Y54102000D01*
X34937440Y54102000D01*
X34937440Y54292500D01*
X34893162Y54527817D01*
X34843641Y54604774D01*
X34925000Y54801191D01*
X34925000Y55414725D01*
X35134331Y55414725D01*
X35196169Y55178958D01*
X35697122Y55002581D01*
X36227440Y55031336D01*
X36583831Y55178958D01*
X36645669Y55414725D01*
X35890000Y56170395D01*
X35134331Y55414725D01*
X34925000Y55414725D01*
X34925000Y55594250D01*
X34914322Y55604928D01*
X34954725Y55594331D01*
X35710395Y56350000D01*
X36069605Y56350000D01*
X36825275Y55594331D01*
X37028041Y55647513D01*
X37184311Y55269311D01*
X37487714Y54965378D01*
X37884332Y54800687D01*
X38313784Y54800313D01*
X38710689Y54964311D01*
X39014622Y55267714D01*
X39075666Y55414725D01*
X50374331Y55414725D01*
X50436169Y55178958D01*
X50937122Y55002581D01*
X51467440Y55031336D01*
X51823831Y55178958D01*
X51885669Y55414725D01*
X51130000Y56170395D01*
X50374331Y55414725D01*
X39075666Y55414725D01*
X39179313Y55664332D01*
X39179687Y56093784D01*
X39052500Y56401600D01*
X39052500Y56542878D01*
X49782581Y56542878D01*
X49811336Y56012560D01*
X49958958Y55656169D01*
X50194725Y55594331D01*
X50950395Y56350000D01*
X51309605Y56350000D01*
X52065275Y55594331D01*
X52268041Y55647513D01*
X52424311Y55269311D01*
X52727714Y54965378D01*
X53124332Y54800687D01*
X53553784Y54800313D01*
X53950689Y54964311D01*
X54254622Y55267714D01*
X54419313Y55664332D01*
X54419687Y56093784D01*
X54292500Y56401600D01*
X54292500Y57014725D01*
X54794331Y57014725D01*
X54856169Y56778958D01*
X55357122Y56602581D01*
X55887440Y56631336D01*
X56243831Y56778958D01*
X56305669Y57014725D01*
X55550000Y57770395D01*
X54794331Y57014725D01*
X54292500Y57014725D01*
X54292500Y57464897D01*
X54378958Y57256169D01*
X54614725Y57194331D01*
X55370395Y57950000D01*
X55729605Y57950000D01*
X56485275Y57194331D01*
X56721042Y57256169D01*
X56897419Y57757122D01*
X56868664Y58287440D01*
X56721042Y58643831D01*
X56485275Y58705669D01*
X55729605Y57950000D01*
X55370395Y57950000D01*
X54614725Y58705669D01*
X54378958Y58643831D01*
X54292500Y58398270D01*
X54292500Y58533934D01*
X54419313Y58839332D01*
X54419353Y58885275D01*
X54794331Y58885275D01*
X55550000Y58129605D01*
X56305669Y58885275D01*
X56243831Y59121042D01*
X55742878Y59297419D01*
X55212560Y59268664D01*
X54856169Y59121042D01*
X54794331Y58885275D01*
X54419353Y58885275D01*
X54419687Y59268784D01*
X54255689Y59665689D01*
X53952286Y59969622D01*
X53555668Y60134313D01*
X53126216Y60134687D01*
X52729311Y59970689D01*
X52425378Y59667286D01*
X52260687Y59270668D01*
X52260313Y58841216D01*
X52387500Y58533400D01*
X52387500Y56835103D01*
X52301042Y57043831D01*
X52065275Y57105669D01*
X51309605Y56350000D01*
X50950395Y56350000D01*
X50194725Y57105669D01*
X49958958Y57043831D01*
X49782581Y56542878D01*
X39052500Y56542878D01*
X39052500Y57014725D01*
X39554331Y57014725D01*
X39616169Y56778958D01*
X40117122Y56602581D01*
X40647440Y56631336D01*
X41003831Y56778958D01*
X41065669Y57014725D01*
X40310000Y57770395D01*
X39554331Y57014725D01*
X39052500Y57014725D01*
X39052500Y57464897D01*
X39138958Y57256169D01*
X39374725Y57194331D01*
X40130395Y57950000D01*
X40489605Y57950000D01*
X41245275Y57194331D01*
X41481042Y57256169D01*
X41491289Y57285275D01*
X50374331Y57285275D01*
X51130000Y56529605D01*
X51885669Y57285275D01*
X51823831Y57521042D01*
X51322878Y57697419D01*
X50792560Y57668664D01*
X50436169Y57521042D01*
X50374331Y57285275D01*
X41491289Y57285275D01*
X41657419Y57757122D01*
X41628664Y58287440D01*
X41481042Y58643831D01*
X41245275Y58705669D01*
X40489605Y57950000D01*
X40130395Y57950000D01*
X39374725Y58705669D01*
X39138958Y58643831D01*
X39052500Y58398270D01*
X39052500Y58533934D01*
X39179313Y58839332D01*
X39179353Y58885275D01*
X39554331Y58885275D01*
X40310000Y58129605D01*
X41065669Y58885275D01*
X41003831Y59121042D01*
X40502878Y59297419D01*
X39972560Y59268664D01*
X39616169Y59121042D01*
X39554331Y58885275D01*
X39179353Y58885275D01*
X39179687Y59268784D01*
X39015689Y59665689D01*
X38712286Y59969622D01*
X38315668Y60134313D01*
X37886216Y60134687D01*
X37489311Y59970689D01*
X37185378Y59667286D01*
X37020687Y59270668D01*
X37020313Y58841216D01*
X37147500Y58533400D01*
X37147500Y56835103D01*
X37061042Y57043831D01*
X36825275Y57105669D01*
X36069605Y56350000D01*
X35710395Y56350000D01*
X34954725Y57105669D01*
X34873043Y57084245D01*
X34828327Y57192198D01*
X34735251Y57285275D01*
X35134331Y57285275D01*
X35890000Y56529605D01*
X36645669Y57285275D01*
X36583831Y57521042D01*
X36082878Y57697419D01*
X35552560Y57668664D01*
X35196169Y57521042D01*
X35134331Y57285275D01*
X34735251Y57285275D01*
X34649699Y57370827D01*
X34416310Y57467500D01*
X30765750Y57467500D01*
X30607000Y57308750D01*
X30607000Y56007000D01*
X30627000Y56007000D01*
X30627000Y55753000D01*
X30607000Y55753000D01*
X30607000Y55733000D01*
X30353000Y55733000D01*
X30353000Y55753000D01*
X26193750Y55753000D01*
X26035000Y55594250D01*
X26035000Y54801191D01*
X26115781Y54606169D01*
X26073569Y54544390D01*
X26022560Y54292500D01*
X26022560Y52387500D01*
X26066838Y52152183D01*
X26119080Y52070997D01*
X26073569Y52004390D01*
X26022560Y51752500D01*
X26022560Y51298884D01*
X25940918Y51380526D01*
X25825669Y51265277D01*
X25763831Y51501042D01*
X25262878Y51677419D01*
X24732560Y51648664D01*
X24376169Y51501042D01*
X24314331Y51265275D01*
X10585669Y51265275D01*
X10523831Y51501042D01*
X10022878Y51677419D01*
X9492560Y51648664D01*
X9136169Y51501042D01*
X9074331Y51265275D01*
X762000Y51265275D01*
X762000Y55414725D01*
X4654331Y55414725D01*
X4716169Y55178958D01*
X5217122Y55002581D01*
X5747440Y55031336D01*
X6103831Y55178958D01*
X6165669Y55414725D01*
X5410000Y56170395D01*
X4654331Y55414725D01*
X762000Y55414725D01*
X762000Y56542878D01*
X4062581Y56542878D01*
X4091336Y56012560D01*
X4238958Y55656169D01*
X4474725Y55594331D01*
X5230395Y56350000D01*
X5589605Y56350000D01*
X6345275Y55594331D01*
X6548041Y55647513D01*
X6704311Y55269311D01*
X7007714Y54965378D01*
X7404332Y54800687D01*
X7833784Y54800313D01*
X8230689Y54964311D01*
X8534622Y55267714D01*
X8595666Y55414725D01*
X19894331Y55414725D01*
X19956169Y55178958D01*
X20457122Y55002581D01*
X20987440Y55031336D01*
X21343831Y55178958D01*
X21405669Y55414725D01*
X20650000Y56170395D01*
X19894331Y55414725D01*
X8595666Y55414725D01*
X8699313Y55664332D01*
X8699687Y56093784D01*
X8572500Y56401600D01*
X8572500Y56542878D01*
X19302581Y56542878D01*
X19331336Y56012560D01*
X19478958Y55656169D01*
X19714725Y55594331D01*
X20470395Y56350000D01*
X20829605Y56350000D01*
X21585275Y55594331D01*
X21788041Y55647513D01*
X21944311Y55269311D01*
X22247714Y54965378D01*
X22644332Y54800687D01*
X23073784Y54800313D01*
X23470689Y54964311D01*
X23774622Y55267714D01*
X23939313Y55664332D01*
X23939687Y56093784D01*
X23812500Y56401600D01*
X23812500Y57014725D01*
X24314331Y57014725D01*
X24376169Y56778958D01*
X24877122Y56602581D01*
X25407440Y56631336D01*
X25763831Y56778958D01*
X25825669Y57014725D01*
X25070000Y57770395D01*
X24314331Y57014725D01*
X23812500Y57014725D01*
X23812500Y57464897D01*
X23898958Y57256169D01*
X24134725Y57194331D01*
X24890395Y57950000D01*
X25249605Y57950000D01*
X26005275Y57194331D01*
X26179503Y57240028D01*
X26131673Y57192198D01*
X26035000Y56958809D01*
X26035000Y56165750D01*
X26193750Y56007000D01*
X30353000Y56007000D01*
X30353000Y57308750D01*
X30194250Y57467500D01*
X26543690Y57467500D01*
X26310301Y57370827D01*
X26265712Y57326238D01*
X26417419Y57757122D01*
X26388664Y58287440D01*
X26241042Y58643831D01*
X26005275Y58705669D01*
X25249605Y57950000D01*
X24890395Y57950000D01*
X24134725Y58705669D01*
X23898958Y58643831D01*
X23812500Y58398270D01*
X23812500Y58533934D01*
X23939313Y58839332D01*
X23939353Y58885275D01*
X24314331Y58885275D01*
X25070000Y58129605D01*
X25825669Y58885275D01*
X25763831Y59121042D01*
X25262878Y59297419D01*
X24732560Y59268664D01*
X24376169Y59121042D01*
X24314331Y58885275D01*
X23939353Y58885275D01*
X23939687Y59268784D01*
X23775689Y59665689D01*
X23472286Y59969622D01*
X23075668Y60134313D01*
X22646216Y60134687D01*
X22249311Y59970689D01*
X21945378Y59667286D01*
X21780687Y59270668D01*
X21780313Y58841216D01*
X21907500Y58533400D01*
X21907500Y56835103D01*
X21821042Y57043831D01*
X21585275Y57105669D01*
X20829605Y56350000D01*
X20470395Y56350000D01*
X19714725Y57105669D01*
X19478958Y57043831D01*
X19302581Y56542878D01*
X8572500Y56542878D01*
X8572500Y57014725D01*
X9074331Y57014725D01*
X9136169Y56778958D01*
X9637122Y56602581D01*
X10167440Y56631336D01*
X10523831Y56778958D01*
X10585669Y57014725D01*
X9830000Y57770395D01*
X9074331Y57014725D01*
X8572500Y57014725D01*
X8572500Y57464897D01*
X8658958Y57256169D01*
X8894725Y57194331D01*
X9650395Y57950000D01*
X10009605Y57950000D01*
X10765275Y57194331D01*
X11001042Y57256169D01*
X11011289Y57285275D01*
X19894331Y57285275D01*
X20650000Y56529605D01*
X21405669Y57285275D01*
X21343831Y57521042D01*
X20842878Y57697419D01*
X20312560Y57668664D01*
X19956169Y57521042D01*
X19894331Y57285275D01*
X11011289Y57285275D01*
X11177419Y57757122D01*
X11148664Y58287440D01*
X11001042Y58643831D01*
X10765275Y58705669D01*
X10009605Y57950000D01*
X9650395Y57950000D01*
X8894725Y58705669D01*
X8658958Y58643831D01*
X8572500Y58398270D01*
X8572500Y58533934D01*
X8699313Y58839332D01*
X8699353Y58885275D01*
X9074331Y58885275D01*
X9830000Y58129605D01*
X10585669Y58885275D01*
X10523831Y59121042D01*
X10022878Y59297419D01*
X9492560Y59268664D01*
X9136169Y59121042D01*
X9074331Y58885275D01*
X8699353Y58885275D01*
X8699687Y59268784D01*
X8535689Y59665689D01*
X8232286Y59969622D01*
X7835668Y60134313D01*
X7406216Y60134687D01*
X7009311Y59970689D01*
X6705378Y59667286D01*
X6540687Y59270668D01*
X6540313Y58841216D01*
X6667500Y58533400D01*
X6667500Y56835103D01*
X6581042Y57043831D01*
X6345275Y57105669D01*
X5589605Y56350000D01*
X5230395Y56350000D01*
X4474725Y57105669D01*
X4238958Y57043831D01*
X4062581Y56542878D01*
X762000Y56542878D01*
X762000Y57285275D01*
X4654331Y57285275D01*
X5410000Y56529605D01*
X6165669Y57285275D01*
X6103831Y57521042D01*
X5602878Y57697419D01*
X5072560Y57668664D01*
X4716169Y57521042D01*
X4654331Y57285275D01*
X762000Y57285275D01*
X762000Y60198000D01*
X13097131Y60198000D01*
X13198428Y59953446D01*
X13198428Y59953446D01*
G37*
X13198428Y59953446D02*
X13528788Y59459027D01*
X13528789Y59459024D01*
X13633907Y59353907D01*
X13739024Y59248789D01*
X13739027Y59248788D01*
X14233446Y58918428D01*
X14508132Y58804649D01*
X14508136Y58804649D01*
X15091341Y58688642D01*
X15388659Y58688642D01*
X15971869Y58804650D01*
X16085647Y58851779D01*
X16246554Y58918428D01*
X16740973Y59248788D01*
X16740976Y59248789D01*
X16846093Y59353907D01*
X16951211Y59459024D01*
X16951212Y59459027D01*
X17281572Y59953446D01*
X17382870Y60198000D01*
X43577131Y60198000D01*
X43678428Y59953446D01*
X44008788Y59459027D01*
X44008789Y59459024D01*
X44113907Y59353907D01*
X44219024Y59248789D01*
X44219027Y59248788D01*
X44713446Y58918428D01*
X44988132Y58804649D01*
X44988136Y58804649D01*
X45571341Y58688642D01*
X45868659Y58688642D01*
X46451869Y58804650D01*
X46565647Y58851779D01*
X46726554Y58918428D01*
X47220973Y59248788D01*
X47220976Y59248789D01*
X47326093Y59353907D01*
X47431211Y59459024D01*
X47431212Y59459027D01*
X47761572Y59953446D01*
X47862870Y60198000D01*
X60198000Y60198000D01*
X60198000Y47862870D01*
X59953446Y47761572D01*
X59459027Y47431212D01*
X59459024Y47431211D01*
X59353907Y47326093D01*
X59248789Y47220976D01*
X59248789Y47220975D01*
X58918428Y46726554D01*
X58851779Y46565647D01*
X58804650Y46451869D01*
X58688642Y45868659D01*
X58688642Y45571341D01*
X58804650Y44988132D01*
X58918428Y44713446D01*
X59248788Y44219027D01*
X59248789Y44219024D01*
X59353907Y44113907D01*
X59459024Y44008789D01*
X59459027Y44008788D01*
X59953446Y43678428D01*
X60198000Y43577130D01*
X60198000Y17382870D01*
X59953446Y17281572D01*
X59459027Y16951212D01*
X59459024Y16951211D01*
X59353907Y16846093D01*
X59248789Y16740976D01*
X59248789Y16740975D01*
X58918428Y16246554D01*
X58866006Y16119995D01*
X58804650Y15971869D01*
X58688642Y15388659D01*
X58688642Y15091341D01*
X58804650Y14508132D01*
X58918428Y14233446D01*
X59248788Y13739027D01*
X59248789Y13739024D01*
X59353907Y13633907D01*
X59459024Y13528789D01*
X59459027Y13528788D01*
X59953446Y13198428D01*
X60198000Y13097130D01*
X60198000Y762000D01*
X47862870Y762000D01*
X47761572Y1006554D01*
X47431211Y1500975D01*
X47431211Y1500976D01*
X47326093Y1606093D01*
X47220976Y1711211D01*
X47220973Y1711212D01*
X46726554Y2041572D01*
X46646515Y2074725D01*
X50374331Y2074725D01*
X50436169Y1838958D01*
X50937122Y1662581D01*
X51467440Y1691336D01*
X51823831Y1838958D01*
X51885669Y2074725D01*
X51130000Y2830395D01*
X50374331Y2074725D01*
X46646515Y2074725D01*
X46565647Y2108221D01*
X46451869Y2155350D01*
X45868659Y2271358D01*
X45571341Y2271358D01*
X44988136Y2155351D01*
X44713446Y2041572D01*
X44219027Y1711212D01*
X44219024Y1711211D01*
X44113907Y1606093D01*
X44008789Y1500976D01*
X44008789Y1500975D01*
X43678428Y1006554D01*
X43611779Y845647D01*
X43577131Y762000D01*
X17382870Y762000D01*
X17281572Y1006554D01*
X16951211Y1500975D01*
X16951211Y1500976D01*
X16846093Y1606093D01*
X16740976Y1711211D01*
X16740973Y1711212D01*
X16246554Y2041572D01*
X16166515Y2074725D01*
X19894331Y2074725D01*
X19956169Y1838958D01*
X20457122Y1662581D01*
X20987440Y1691336D01*
X21343831Y1838958D01*
X21405669Y2074725D01*
X35134331Y2074725D01*
X35196169Y1838958D01*
X35697122Y1662581D01*
X36227440Y1691336D01*
X36583831Y1838958D01*
X36645669Y2074725D01*
X35890000Y2830395D01*
X35134331Y2074725D01*
X21405669Y2074725D01*
X20650000Y2830395D01*
X19894331Y2074725D01*
X16166515Y2074725D01*
X16085647Y2108221D01*
X15971869Y2155350D01*
X15388659Y2271358D01*
X15091341Y2271358D01*
X14508136Y2155351D01*
X14233446Y2041572D01*
X13739027Y1711212D01*
X13739024Y1711211D01*
X13633907Y1606093D01*
X13528789Y1500976D01*
X13528789Y1500975D01*
X13198428Y1006554D01*
X13131779Y845647D01*
X13097131Y762000D01*
X762000Y762000D01*
X762000Y2097370D01*
X1239184Y1620185D01*
X1486395Y1455004D01*
X1778000Y1397000D01*
X3048000Y1397000D01*
X3339605Y1455004D01*
X3586815Y1620185D01*
X4041355Y2074725D01*
X4654331Y2074725D01*
X4716169Y1838958D01*
X5217122Y1662581D01*
X5747440Y1691336D01*
X6103831Y1838958D01*
X6165669Y2074725D01*
X5410000Y2830395D01*
X4654331Y2074725D01*
X4041355Y2074725D01*
X4273690Y2307059D01*
X4474725Y2254331D01*
X5230395Y3010000D01*
X5589605Y3010000D01*
X6345275Y2254331D01*
X6581042Y2316169D01*
X6757419Y2817122D01*
X6736503Y3202878D01*
X19302581Y3202878D01*
X19331336Y2672560D01*
X19478958Y2316169D01*
X19714725Y2254331D01*
X20470395Y3010000D01*
X20829605Y3010000D01*
X21585275Y2254331D01*
X21821042Y2316169D01*
X21997419Y2817122D01*
X21968664Y3347440D01*
X21833099Y3674725D01*
X24314331Y3674725D01*
X24376169Y3438958D01*
X24877122Y3262581D01*
X25407440Y3291336D01*
X25763831Y3438958D01*
X25825669Y3674725D01*
X25070000Y4430395D01*
X24314331Y3674725D01*
X21833099Y3674725D01*
X21821042Y3703831D01*
X21585275Y3765669D01*
X20829605Y3010000D01*
X20470395Y3010000D01*
X19714725Y3765669D01*
X19478958Y3703831D01*
X19302581Y3202878D01*
X6736503Y3202878D01*
X6728664Y3347440D01*
X6593099Y3674725D01*
X9074331Y3674725D01*
X9136169Y3438958D01*
X9637122Y3262581D01*
X10167440Y3291336D01*
X10523831Y3438958D01*
X10585669Y3674725D01*
X9830000Y4430395D01*
X9074331Y3674725D01*
X6593099Y3674725D01*
X6581042Y3703831D01*
X6345275Y3765669D01*
X5589605Y3010000D01*
X5230395Y3010000D01*
X5216252Y3024142D01*
X5395858Y3203748D01*
X5410000Y3189605D01*
X6165669Y3945275D01*
X6103831Y4181042D01*
X5602878Y4357419D01*
X5097285Y4330005D01*
X5115603Y4357419D01*
X5148996Y4407395D01*
X5207000Y4699000D01*
X5207000Y4802878D01*
X8482581Y4802878D01*
X8511336Y4272560D01*
X8658958Y3916169D01*
X8894725Y3854331D01*
X9650395Y4610000D01*
X10009605Y4610000D01*
X10765275Y3854331D01*
X11001042Y3916169D01*
X11011289Y3945275D01*
X19894331Y3945275D01*
X20650000Y3189605D01*
X21405669Y3945275D01*
X21343831Y4181042D01*
X20842878Y4357419D01*
X20312560Y4328664D01*
X19956169Y4181042D01*
X19894331Y3945275D01*
X11011289Y3945275D01*
X11177419Y4417122D01*
X11156503Y4802878D01*
X23722581Y4802878D01*
X23751336Y4272560D01*
X23898958Y3916169D01*
X24134725Y3854331D01*
X24890395Y4610000D01*
X24134725Y5365669D01*
X23898958Y5303831D01*
X23722581Y4802878D01*
X11156503Y4802878D01*
X11148664Y4947440D01*
X11001042Y5303831D01*
X10765275Y5365669D01*
X10009605Y4610000D01*
X9650395Y4610000D01*
X8894725Y5365669D01*
X8658958Y5303831D01*
X8482581Y4802878D01*
X5207000Y4802878D01*
X5207000Y5545275D01*
X9074331Y5545275D01*
X9830000Y4789605D01*
X10585669Y5545275D01*
X24314331Y5545275D01*
X25070000Y4789605D01*
X25825669Y5545275D01*
X25763831Y5781042D01*
X25262878Y5957419D01*
X24732560Y5928664D01*
X24376169Y5781042D01*
X24314331Y5545275D01*
X10585669Y5545275D01*
X10523831Y5781042D01*
X10022878Y5957419D01*
X9492560Y5928664D01*
X9136169Y5781042D01*
X9074331Y5545275D01*
X5207000Y5545275D01*
X5207000Y6796370D01*
X5268631Y6858000D01*
X26022560Y6858000D01*
X26022560Y6667500D01*
X26066838Y6432183D01*
X26116359Y6355226D01*
X26035000Y6158809D01*
X26035000Y5365750D01*
X26045678Y5355072D01*
X26005275Y5365669D01*
X25249605Y4610000D01*
X26005275Y3854331D01*
X26086957Y3875755D01*
X26131673Y3767802D01*
X26310301Y3589173D01*
X26543690Y3492500D01*
X30194250Y3492500D01*
X30353000Y3651250D01*
X30353000Y4953000D01*
X30607000Y4953000D01*
X30607000Y3651250D01*
X30765750Y3492500D01*
X34416310Y3492500D01*
X34649699Y3589173D01*
X34694288Y3633762D01*
X34542581Y3202878D01*
X34571336Y2672560D01*
X34718958Y2316169D01*
X34954725Y2254331D01*
X35710395Y3010000D01*
X36069605Y3010000D01*
X36825275Y2254331D01*
X37061042Y2316169D01*
X37237419Y2817122D01*
X37216503Y3202878D01*
X49782581Y3202878D01*
X49811336Y2672560D01*
X49958958Y2316169D01*
X50194725Y2254331D01*
X50950395Y3010000D01*
X51309605Y3010000D01*
X52065275Y2254331D01*
X52301042Y2316169D01*
X52477419Y2817122D01*
X52448664Y3347440D01*
X52301042Y3703831D01*
X52065275Y3765669D01*
X51309605Y3010000D01*
X50950395Y3010000D01*
X50194725Y3765669D01*
X49958958Y3703831D01*
X49782581Y3202878D01*
X37216503Y3202878D01*
X37208664Y3347440D01*
X37073099Y3674725D01*
X39554331Y3674725D01*
X39616169Y3438958D01*
X40117122Y3262581D01*
X40647440Y3291336D01*
X41003831Y3438958D01*
X41065669Y3674725D01*
X40310000Y4430395D01*
X39554331Y3674725D01*
X37073099Y3674725D01*
X37061042Y3703831D01*
X36825275Y3765669D01*
X36069605Y3010000D01*
X35710395Y3010000D01*
X34954725Y3765669D01*
X34780497Y3719972D01*
X34828327Y3767802D01*
X34901838Y3945275D01*
X35134331Y3945275D01*
X35890000Y3189605D01*
X36645669Y3945275D01*
X36583831Y4181042D01*
X36082878Y4357419D01*
X35552560Y4328664D01*
X35196169Y4181042D01*
X35134331Y3945275D01*
X34901838Y3945275D01*
X34925000Y4001191D01*
X34925000Y4794250D01*
X34916372Y4802878D01*
X38962581Y4802878D01*
X38991336Y4272560D01*
X39138958Y3916169D01*
X39374725Y3854331D01*
X40130395Y4610000D01*
X40489605Y4610000D01*
X41245275Y3854331D01*
X41481042Y3916169D01*
X41491289Y3945275D01*
X50374331Y3945275D01*
X51130000Y3189605D01*
X51885669Y3945275D01*
X51823831Y4181042D01*
X51322878Y4357419D01*
X50792560Y4328664D01*
X50436169Y4181042D01*
X50374331Y3945275D01*
X41491289Y3945275D01*
X41657419Y4417122D01*
X41636503Y4802878D01*
X54202581Y4802878D01*
X54231336Y4272560D01*
X54378958Y3916169D01*
X54614725Y3854331D01*
X55370395Y4610000D01*
X54614725Y5365669D01*
X54378958Y5303831D01*
X54202581Y4802878D01*
X41636503Y4802878D01*
X41628664Y4947440D01*
X41481042Y5303831D01*
X41245275Y5365669D01*
X40489605Y4610000D01*
X40130395Y4610000D01*
X39374725Y5365669D01*
X39138958Y5303831D01*
X38962581Y4802878D01*
X34916372Y4802878D01*
X34766250Y4953000D01*
X30607000Y4953000D01*
X30353000Y4953000D01*
X30333000Y4953000D01*
X30333000Y5207000D01*
X30353000Y5207000D01*
X30353000Y5227000D01*
X30607000Y5227000D01*
X30607000Y5207000D01*
X34766250Y5207000D01*
X34925000Y5365750D01*
X34925000Y5545275D01*
X39554331Y5545275D01*
X40310000Y4789605D01*
X41065669Y5545275D01*
X54794331Y5545275D01*
X55550000Y4789605D01*
X56305669Y5545275D01*
X56243831Y5781042D01*
X55742878Y5957419D01*
X55212560Y5928664D01*
X54856169Y5781042D01*
X54794331Y5545275D01*
X41065669Y5545275D01*
X41003831Y5781042D01*
X40502878Y5957419D01*
X39972560Y5928664D01*
X39616169Y5781042D01*
X39554331Y5545275D01*
X34925000Y5545275D01*
X34925000Y6158809D01*
X34844219Y6353831D01*
X34886431Y6415610D01*
X34937440Y6667500D01*
X34937440Y8572500D01*
X34893162Y8807817D01*
X34840920Y8889003D01*
X34886431Y8955610D01*
X34937440Y9207500D01*
X34937440Y9661116D01*
X35019082Y9579474D01*
X35134331Y9694723D01*
X35196169Y9458958D01*
X35697122Y9282581D01*
X36227440Y9311336D01*
X36583831Y9458958D01*
X36645669Y9694725D01*
X50374331Y9694725D01*
X50436169Y9458958D01*
X50937122Y9282581D01*
X51467440Y9311336D01*
X51823831Y9458958D01*
X51885669Y9694725D01*
X51130000Y10450395D01*
X50374331Y9694725D01*
X36645669Y9694725D01*
X35890000Y10450395D01*
X35875858Y10436252D01*
X35696252Y10615858D01*
X35710395Y10630000D01*
X36069605Y10630000D01*
X36825275Y9874331D01*
X37061042Y9936169D01*
X37237419Y10437122D01*
X37216503Y10822878D01*
X49782581Y10822878D01*
X49811336Y10292560D01*
X49958958Y9936169D01*
X50194725Y9874331D01*
X50950395Y10630000D01*
X51309605Y10630000D01*
X52065275Y9874331D01*
X52301042Y9936169D01*
X52477419Y10437122D01*
X52448664Y10967440D01*
X52313099Y11294725D01*
X54794331Y11294725D01*
X54856169Y11058958D01*
X55357122Y10882581D01*
X55887440Y10911336D01*
X56243831Y11058958D01*
X56305669Y11294725D01*
X55550000Y12050395D01*
X54794331Y11294725D01*
X52313099Y11294725D01*
X52301042Y11323831D01*
X52065275Y11385669D01*
X51309605Y10630000D01*
X50950395Y10630000D01*
X50194725Y11385669D01*
X49958958Y11323831D01*
X49782581Y10822878D01*
X37216503Y10822878D01*
X37208664Y10967440D01*
X37073099Y11294725D01*
X39554331Y11294725D01*
X39616169Y11058958D01*
X40117122Y10882581D01*
X40647440Y10911336D01*
X41003831Y11058958D01*
X41065669Y11294725D01*
X40310000Y12050395D01*
X39554331Y11294725D01*
X37073099Y11294725D01*
X37061042Y11323831D01*
X36825275Y11385669D01*
X36069605Y10630000D01*
X35710395Y10630000D01*
X34954725Y11385669D01*
X34881212Y11366388D01*
X34754090Y11563941D01*
X34752138Y11565275D01*
X35134331Y11565275D01*
X35890000Y10809605D01*
X36645669Y11565275D01*
X36583831Y11801042D01*
X36082878Y11977419D01*
X35552560Y11948664D01*
X35196169Y11801042D01*
X35134331Y11565275D01*
X34752138Y11565275D01*
X34541890Y11708931D01*
X34290000Y11759940D01*
X26670000Y11759940D01*
X26434683Y11715662D01*
X26266028Y11607136D01*
X26417419Y12037122D01*
X26396503Y12422878D01*
X38962581Y12422878D01*
X38991336Y11892560D01*
X39138958Y11536169D01*
X39374725Y11474331D01*
X40130395Y12230000D01*
X40489605Y12230000D01*
X41245275Y11474331D01*
X41481042Y11536169D01*
X41491289Y11565275D01*
X50374331Y11565275D01*
X51130000Y10809605D01*
X51885669Y11565275D01*
X51823831Y11801042D01*
X51322878Y11977419D01*
X50792560Y11948664D01*
X50436169Y11801042D01*
X50374331Y11565275D01*
X41491289Y11565275D01*
X41657419Y12037122D01*
X41636503Y12422878D01*
X54202581Y12422878D01*
X54231336Y11892560D01*
X54378958Y11536169D01*
X54614725Y11474331D01*
X55370395Y12230000D01*
X54614725Y12985669D01*
X54378958Y12923831D01*
X54202581Y12422878D01*
X41636503Y12422878D01*
X41628664Y12567440D01*
X41481042Y12923831D01*
X41245275Y12985669D01*
X40489605Y12230000D01*
X40130395Y12230000D01*
X39374725Y12985669D01*
X39138958Y12923831D01*
X38962581Y12422878D01*
X26396503Y12422878D01*
X26388664Y12567440D01*
X26241042Y12923831D01*
X26005275Y12985669D01*
X25249605Y12230000D01*
X26005275Y11474331D01*
X26180001Y11520159D01*
X26073569Y11364390D01*
X26022560Y11112500D01*
X26022560Y10795952D01*
X25877185Y10698816D01*
X24322370Y9144000D01*
X23227918Y9144000D01*
X23470689Y9244311D01*
X23774622Y9547714D01*
X23939313Y9944332D01*
X23939687Y10373784D01*
X23775689Y10770689D01*
X23764603Y10781795D01*
X23743277Y10889008D01*
X24061831Y11020958D01*
X24123287Y11255269D01*
X24199082Y11179474D01*
X24314331Y11294723D01*
X24376169Y11058958D01*
X24877122Y10882581D01*
X25407440Y10911336D01*
X25763831Y11058958D01*
X25825669Y11294725D01*
X25070000Y12050395D01*
X25055858Y12036252D01*
X24876253Y12215857D01*
X24890395Y12230000D01*
X24692151Y12428244D01*
X24686664Y12529440D01*
X24539042Y12885831D01*
X24303277Y12947669D01*
X24417607Y13061999D01*
X25070000Y12409605D01*
X25825669Y13165275D01*
X39554331Y13165275D01*
X40310000Y12409605D01*
X41065669Y13165275D01*
X54794331Y13165275D01*
X55550000Y12409605D01*
X56305669Y13165275D01*
X56243831Y13401042D01*
X55742878Y13577419D01*
X55212560Y13548664D01*
X54856169Y13401042D01*
X54794331Y13165275D01*
X41065669Y13165275D01*
X41003831Y13401042D01*
X40502878Y13577419D01*
X39972560Y13548664D01*
X39616169Y13401042D01*
X39554331Y13165275D01*
X25825669Y13165275D01*
X25763831Y13401042D01*
X25262878Y13577419D01*
X24732560Y13548664D01*
X24376169Y13401042D01*
X24314713Y13166731D01*
X24238918Y13242526D01*
X24123669Y13127277D01*
X24061831Y13363042D01*
X23560878Y13539419D01*
X23030560Y13510664D01*
X22674169Y13363042D01*
X22612331Y13127275D01*
X23368000Y12371605D01*
X23382142Y12385748D01*
X23561748Y12206142D01*
X23547605Y12192000D01*
X23745849Y11993756D01*
X23751336Y11892560D01*
X23898958Y11536169D01*
X24134723Y11474331D01*
X24020393Y11360001D01*
X23368000Y12012395D01*
X23353858Y11998252D01*
X23174252Y12177858D01*
X23188395Y12192000D01*
X22432725Y12947669D01*
X22196958Y12885831D01*
X22109789Y12638249D01*
X20418261Y14329777D01*
X21813515Y14906284D01*
X21830111Y14922851D01*
X22186481Y14566481D01*
X22495494Y14360005D01*
X22860000Y14287500D01*
X37578934Y14287500D01*
X37884332Y14160687D01*
X38313784Y14160313D01*
X38710689Y14324311D01*
X39014622Y14627714D01*
X39179313Y15024332D01*
X39179687Y15453784D01*
X39015689Y15850689D01*
X38712286Y16154622D01*
X38315668Y16319313D01*
X37886216Y16319687D01*
X37578400Y16192500D01*
X23254538Y16192500D01*
X23178325Y16268713D01*
X23188887Y16279257D01*
X23696423Y17501539D01*
X24091481Y17106481D01*
X24400494Y16900005D01*
X24765000Y16827500D01*
X33020000Y16827500D01*
X33384506Y16900005D01*
X33693519Y17106481D01*
X33901763Y17314725D01*
X35134331Y17314725D01*
X35196169Y17078958D01*
X35697122Y16902581D01*
X36227440Y16931336D01*
X36583831Y17078958D01*
X36645669Y17314725D01*
X50374331Y17314725D01*
X50436169Y17078958D01*
X50937122Y16902581D01*
X51467440Y16931336D01*
X51823831Y17078958D01*
X51885669Y17314725D01*
X51130000Y18070395D01*
X50374331Y17314725D01*
X36645669Y17314725D01*
X35890000Y18070395D01*
X35134331Y17314725D01*
X33901763Y17314725D01*
X34567646Y17980608D01*
X34571336Y17912560D01*
X34718958Y17556169D01*
X34954725Y17494331D01*
X35710395Y18250000D01*
X36069605Y18250000D01*
X36825275Y17494331D01*
X37061042Y17556169D01*
X37237419Y18057122D01*
X37216503Y18442878D01*
X49782581Y18442878D01*
X49811336Y17912560D01*
X49958958Y17556169D01*
X50194725Y17494331D01*
X50950395Y18250000D01*
X51309605Y18250000D01*
X52065275Y17494331D01*
X52301042Y17556169D01*
X52477419Y18057122D01*
X52448664Y18587440D01*
X52313099Y18914725D01*
X54794331Y18914725D01*
X54856169Y18678958D01*
X55357122Y18502581D01*
X55887440Y18531336D01*
X56243831Y18678958D01*
X56305669Y18914725D01*
X55550000Y19670395D01*
X54794331Y18914725D01*
X52313099Y18914725D01*
X52301042Y18943831D01*
X52065275Y19005669D01*
X51309605Y18250000D01*
X50950395Y18250000D01*
X50194725Y19005669D01*
X49958958Y18943831D01*
X49782581Y18442878D01*
X37216503Y18442878D01*
X37208664Y18587440D01*
X37073099Y18914725D01*
X39554331Y18914725D01*
X39616169Y18678958D01*
X40117122Y18502581D01*
X40647440Y18531336D01*
X41003831Y18678958D01*
X41065669Y18914725D01*
X40310000Y19670395D01*
X39554331Y18914725D01*
X37073099Y18914725D01*
X37061042Y18943831D01*
X36825275Y19005669D01*
X36069605Y18250000D01*
X35710395Y18250000D01*
X35696252Y18264142D01*
X35875858Y18443748D01*
X35890000Y18429605D01*
X36645669Y19185275D01*
X36583831Y19421042D01*
X36158006Y19570968D01*
X36629916Y20042878D01*
X38962581Y20042878D01*
X38991336Y19512560D01*
X39138958Y19156169D01*
X39374725Y19094331D01*
X40130395Y19850000D01*
X40489605Y19850000D01*
X41245275Y19094331D01*
X41481042Y19156169D01*
X41491289Y19185275D01*
X50374331Y19185275D01*
X51130000Y18429605D01*
X51885669Y19185275D01*
X51823831Y19421042D01*
X51322878Y19597419D01*
X50792560Y19568664D01*
X50436169Y19421042D01*
X50374331Y19185275D01*
X41491289Y19185275D01*
X41657419Y19657122D01*
X41636503Y20042878D01*
X54202581Y20042878D01*
X54231336Y19512560D01*
X54378958Y19156169D01*
X54614725Y19094331D01*
X55370395Y19850000D01*
X54614725Y20605669D01*
X54378958Y20543831D01*
X54202581Y20042878D01*
X41636503Y20042878D01*
X41628664Y20187440D01*
X41481042Y20543831D01*
X41245275Y20605669D01*
X40489605Y19850000D01*
X40130395Y19850000D01*
X39374725Y20605669D01*
X39138958Y20543831D01*
X38962581Y20042878D01*
X36629916Y20042878D01*
X37372313Y20785275D01*
X39554331Y20785275D01*
X40310000Y20029605D01*
X41065669Y20785275D01*
X54794331Y20785275D01*
X55550000Y20029605D01*
X56305669Y20785275D01*
X56243831Y21021042D01*
X55742878Y21197419D01*
X55212560Y21168664D01*
X54856169Y21021042D01*
X54794331Y20785275D01*
X41065669Y20785275D01*
X41003831Y21021042D01*
X40502878Y21197419D01*
X39972560Y21168664D01*
X39616169Y21021042D01*
X39554331Y20785275D01*
X37372313Y20785275D01*
X38405069Y21818031D01*
X38710689Y21944311D01*
X39014622Y22247714D01*
X39142347Y22555309D01*
X42050538Y25463500D01*
X42278560Y25463500D01*
X42278560Y24892000D01*
X42322838Y24656683D01*
X42461910Y24440559D01*
X42674110Y24295569D01*
X42926000Y24244560D01*
X43497500Y24244560D01*
X43497500Y24130000D01*
X43570005Y23765494D01*
X43776481Y23456481D01*
X44665481Y22567481D01*
X44974494Y22361005D01*
X45339000Y22288500D01*
X52111000Y22288500D01*
X52475506Y22361005D01*
X52784519Y22567481D01*
X53645071Y23428032D01*
X53950689Y23554311D01*
X54254622Y23857714D01*
X54419313Y24254332D01*
X54419687Y24683784D01*
X54255689Y25080689D01*
X53952286Y25384622D01*
X53555668Y25549313D01*
X53126216Y25549687D01*
X52729311Y25385689D01*
X52425378Y25082286D01*
X52297653Y24774692D01*
X51716462Y24193500D01*
X45733538Y24193500D01*
X45682478Y24244560D01*
X45974000Y24244560D01*
X46209317Y24288838D01*
X46425441Y24427910D01*
X46570431Y24640110D01*
X46621440Y24892000D01*
X46621440Y24934725D01*
X50374331Y24934725D01*
X50436169Y24698958D01*
X50937122Y24522581D01*
X51467440Y24551336D01*
X51823831Y24698958D01*
X51885669Y24934725D01*
X51130000Y25690395D01*
X50374331Y24934725D01*
X46621440Y24934725D01*
X46621440Y26062878D01*
X49782581Y26062878D01*
X49811336Y25532560D01*
X49958958Y25176169D01*
X50194725Y25114331D01*
X50950395Y25870000D01*
X51309605Y25870000D01*
X52065275Y25114331D01*
X52301042Y25176169D01*
X52477419Y25677122D01*
X52448664Y26207440D01*
X52313099Y26534725D01*
X54794331Y26534725D01*
X54856169Y26298958D01*
X55357122Y26122581D01*
X55887440Y26151336D01*
X56243831Y26298958D01*
X56305669Y26534725D01*
X55550000Y27290395D01*
X54794331Y26534725D01*
X52313099Y26534725D01*
X52301042Y26563831D01*
X52065275Y26625669D01*
X51309605Y25870000D01*
X50950395Y25870000D01*
X50194725Y26625669D01*
X49958958Y26563831D01*
X49782581Y26062878D01*
X46621440Y26062878D01*
X46621440Y26805275D01*
X50374331Y26805275D01*
X51130000Y26049605D01*
X51885669Y26805275D01*
X51823831Y27041042D01*
X51322878Y27217419D01*
X50792560Y27188664D01*
X50436169Y27041042D01*
X50374331Y26805275D01*
X46621440Y26805275D01*
X46621440Y27662878D01*
X54202581Y27662878D01*
X54231336Y27132560D01*
X54378958Y26776169D01*
X54614725Y26714331D01*
X55370395Y27470000D01*
X54614725Y28225669D01*
X54378958Y28163831D01*
X54202581Y27662878D01*
X46621440Y27662878D01*
X46621440Y27940000D01*
X46577162Y28175317D01*
X46438090Y28391441D01*
X46417844Y28405275D01*
X54794331Y28405275D01*
X55550000Y27649605D01*
X56305669Y28405275D01*
X56243831Y28641042D01*
X55742878Y28817419D01*
X55212560Y28788664D01*
X54856169Y28641042D01*
X54794331Y28405275D01*
X46417844Y28405275D01*
X46225890Y28536431D01*
X45974000Y28587440D01*
X42926000Y28587440D01*
X42690683Y28543162D01*
X42474559Y28404090D01*
X42329569Y28191890D01*
X42278560Y27940000D01*
X42278560Y27368500D01*
X41656000Y27368500D01*
X41652502Y27367804D01*
X41628664Y27807440D01*
X41481042Y28163831D01*
X41245275Y28225669D01*
X40489605Y27470000D01*
X40503748Y27455858D01*
X40324142Y27276252D01*
X40310000Y27290395D01*
X39554331Y26534725D01*
X39616169Y26298958D01*
X40041994Y26149032D01*
X37794931Y23901969D01*
X37489311Y23775689D01*
X37185378Y23472286D01*
X37057653Y23164691D01*
X32625462Y18732500D01*
X25777874Y18732500D01*
X25825669Y18914725D01*
X25070000Y19670395D01*
X25055858Y19656252D01*
X24876252Y19835858D01*
X24890395Y19850000D01*
X25249605Y19850000D01*
X26005275Y19094331D01*
X26241042Y19156169D01*
X26417419Y19657122D01*
X26388664Y20187440D01*
X26241042Y20543831D01*
X26005275Y20605669D01*
X25249605Y19850000D01*
X24890395Y19850000D01*
X24134725Y20605669D01*
X23898958Y20543831D01*
X23815860Y20307812D01*
X23618577Y20785275D01*
X24314331Y20785275D01*
X25070000Y20029605D01*
X25825669Y20785275D01*
X25763831Y21021042D01*
X25262878Y21197419D01*
X24732560Y21168664D01*
X24376169Y21021042D01*
X24314331Y20785275D01*
X23618577Y20785275D01*
X23193716Y21813515D01*
X23177149Y21830111D01*
X26281763Y24934725D01*
X35134331Y24934725D01*
X35196169Y24698958D01*
X35697122Y24522581D01*
X36227440Y24551336D01*
X36583831Y24698958D01*
X36645669Y24934725D01*
X35890000Y25690395D01*
X35134331Y24934725D01*
X26281763Y24934725D01*
X27064538Y25717500D01*
X31750000Y25717500D01*
X32114506Y25790005D01*
X32423519Y25996481D01*
X32489916Y26062878D01*
X34542581Y26062878D01*
X34571336Y25532560D01*
X34718958Y25176169D01*
X34954725Y25114331D01*
X35710395Y25870000D01*
X36069605Y25870000D01*
X36825275Y25114331D01*
X37061042Y25176169D01*
X37237419Y25677122D01*
X37208664Y26207440D01*
X37061042Y26563831D01*
X36825275Y26625669D01*
X36069605Y25870000D01*
X35710395Y25870000D01*
X34954725Y26625669D01*
X34718958Y26563831D01*
X34542581Y26062878D01*
X32489916Y26062878D01*
X33232313Y26805275D01*
X35134331Y26805275D01*
X35890000Y26049605D01*
X36645669Y26805275D01*
X36583831Y27041042D01*
X36082878Y27217419D01*
X35552560Y27188664D01*
X35196169Y27041042D01*
X35134331Y26805275D01*
X33232313Y26805275D01*
X33693519Y27266481D01*
X33899995Y27575494D01*
X33917376Y27662878D01*
X38962581Y27662878D01*
X38991336Y27132560D01*
X39138958Y26776169D01*
X39374725Y26714331D01*
X40130395Y27470000D01*
X39374725Y28225669D01*
X39138958Y28163831D01*
X38962581Y27662878D01*
X33917376Y27662878D01*
X33972500Y27940000D01*
X33972500Y28331288D01*
X34087479Y28405275D01*
X39554331Y28405275D01*
X40310000Y27649605D01*
X41065669Y28405275D01*
X41003831Y28641042D01*
X40502878Y28817419D01*
X39972560Y28788664D01*
X39616169Y28641042D01*
X39554331Y28405275D01*
X34087479Y28405275D01*
X34182641Y28466510D01*
X34213381Y28511500D01*
X34925000Y28511500D01*
X35289506Y28584005D01*
X35598519Y28790481D01*
X36081538Y29273500D01*
X37578934Y29273500D01*
X37884332Y29146687D01*
X38313784Y29146313D01*
X38710689Y29310311D01*
X39014622Y29613714D01*
X39179313Y30010332D01*
X39179687Y30439784D01*
X39015689Y30836689D01*
X38712286Y31140622D01*
X38315668Y31305313D01*
X37886216Y31305687D01*
X37578400Y31178500D01*
X35687000Y31178500D01*
X35322494Y31105995D01*
X35013481Y30899519D01*
X34530462Y30416500D01*
X34216101Y30416500D01*
X34195290Y30448841D01*
X34147868Y30481243D01*
X34269527Y30602902D01*
X34366200Y30836291D01*
X34366200Y31210250D01*
X34207450Y31369000D01*
X33147000Y31369000D01*
X33147000Y31349000D01*
X32893000Y31349000D01*
X32893000Y31369000D01*
X31832550Y31369000D01*
X31673800Y31210250D01*
X31673800Y30836291D01*
X31770473Y30602902D01*
X31890536Y30482839D01*
X31857359Y30461490D01*
X31712369Y30249290D01*
X31661360Y29997400D01*
X31661360Y28930600D01*
X31705638Y28695283D01*
X31844710Y28479159D01*
X32056910Y28334169D01*
X32065410Y28332448D01*
X31355462Y27622500D01*
X26670000Y27622500D01*
X26401587Y27569109D01*
X26388664Y27807440D01*
X26241042Y28163831D01*
X26005275Y28225669D01*
X25249605Y27470000D01*
X25263748Y27455858D01*
X25084142Y27276252D01*
X25070000Y27290395D01*
X24314331Y26534725D01*
X24376169Y26298958D01*
X24801994Y26149032D01*
X21831287Y23178325D01*
X21820743Y23188887D01*
X20025950Y23934150D01*
X20002500Y23934170D01*
X20002500Y24682646D01*
X20457122Y24522581D01*
X20987440Y24551336D01*
X21343831Y24698958D01*
X21405669Y24934725D01*
X20650000Y25690395D01*
X20635858Y25676252D01*
X20456252Y25855858D01*
X20470395Y25870000D01*
X20456252Y25884142D01*
X20635858Y26063748D01*
X20650000Y26049605D01*
X21405669Y26805275D01*
X21343831Y27041042D01*
X20842878Y27217419D01*
X20312560Y27188664D01*
X20002500Y27060233D01*
X20002500Y27418462D01*
X21095538Y28511500D01*
X21907500Y28511500D01*
X21907500Y27064066D01*
X21780687Y26758668D01*
X21780527Y26574458D01*
X21585275Y26625669D01*
X20829605Y25870000D01*
X21585275Y25114331D01*
X21821042Y25176169D01*
X21997419Y25677122D01*
X21985838Y25890712D01*
X22247714Y25628378D01*
X22644332Y25463687D01*
X23073784Y25463313D01*
X23470689Y25627311D01*
X23774622Y25930714D01*
X23939313Y26327332D01*
X23939687Y26756784D01*
X23935654Y26766544D01*
X24134725Y26714331D01*
X24890395Y27470000D01*
X24134725Y28225669D01*
X23898958Y28163831D01*
X23812500Y27918270D01*
X23812500Y28511500D01*
X24342192Y28511500D01*
X24314331Y28405275D01*
X25070000Y27649605D01*
X25825669Y28405275D01*
X25797808Y28511500D01*
X26743899Y28511500D01*
X26764710Y28479159D01*
X26976910Y28334169D01*
X27228800Y28283160D01*
X28651200Y28283160D01*
X28886517Y28327438D01*
X29102641Y28466510D01*
X29247631Y28678710D01*
X29298640Y28930600D01*
X29298640Y29997400D01*
X29254362Y30232717D01*
X29115290Y30448841D01*
X29067868Y30481243D01*
X29189527Y30602902D01*
X29286200Y30836291D01*
X29286200Y31210250D01*
X29127450Y31369000D01*
X28067000Y31369000D01*
X28067000Y31349000D01*
X27813000Y31349000D01*
X27813000Y31369000D01*
X26752550Y31369000D01*
X26593800Y31210250D01*
X26593800Y30836291D01*
X26690473Y30602902D01*
X26810536Y30482839D01*
X26777359Y30461490D01*
X26746619Y30416500D01*
X20701000Y30416500D01*
X20336494Y30343995D01*
X20103624Y30188396D01*
X20027481Y30137519D01*
X18376481Y28486519D01*
X18370982Y28478290D01*
X18285890Y28536431D01*
X18034000Y28587440D01*
X17462500Y28587440D01*
X17462500Y29069462D01*
X18936538Y30543500D01*
X22266000Y30543500D01*
X22630506Y30616005D01*
X22939519Y30822481D01*
X23165069Y31048031D01*
X23470689Y31174311D01*
X23774622Y31477714D01*
X23939313Y31874332D01*
X23939558Y32155709D01*
X26593800Y32155709D01*
X26593800Y31781750D01*
X26752550Y31623000D01*
X27813000Y31623000D01*
X27813000Y32505650D01*
X28067000Y32505650D01*
X28067000Y31623000D01*
X29127450Y31623000D01*
X29286200Y31781750D01*
X29286200Y32155709D01*
X31673800Y32155709D01*
X31673800Y31781750D01*
X31832550Y31623000D01*
X32893000Y31623000D01*
X32893000Y32505650D01*
X33147000Y32505650D01*
X33147000Y31623000D01*
X34207450Y31623000D01*
X34366200Y31781750D01*
X34366200Y32155709D01*
X34269527Y32389098D01*
X34103901Y32554725D01*
X35134331Y32554725D01*
X35196169Y32318958D01*
X35697122Y32142581D01*
X36227440Y32171336D01*
X36583831Y32318958D01*
X36645669Y32554725D01*
X35890000Y33310395D01*
X35134331Y32554725D01*
X34103901Y32554725D01*
X34090899Y32567727D01*
X33857510Y32664400D01*
X33305750Y32664400D01*
X33147000Y32505650D01*
X32893000Y32505650D01*
X32734250Y32664400D01*
X32182490Y32664400D01*
X31949101Y32567727D01*
X31770473Y32389098D01*
X31673800Y32155709D01*
X29286200Y32155709D01*
X29189527Y32389098D01*
X29010899Y32567727D01*
X28777510Y32664400D01*
X28225750Y32664400D01*
X28067000Y32505650D01*
X27813000Y32505650D01*
X27654250Y32664400D01*
X27102490Y32664400D01*
X26869101Y32567727D01*
X26690473Y32389098D01*
X26593800Y32155709D01*
X23939558Y32155709D01*
X23939687Y32303784D01*
X23775689Y32700689D01*
X23472286Y33004622D01*
X23075668Y33169313D01*
X22646216Y33169687D01*
X22249311Y33005689D01*
X21945378Y32702286D01*
X21839996Y32448500D01*
X21377808Y32448500D01*
X21405669Y32554725D01*
X20650000Y33310395D01*
X19894331Y32554725D01*
X19922192Y32448500D01*
X18542000Y32448500D01*
X18177494Y32375995D01*
X17868481Y32169519D01*
X15836481Y30137519D01*
X15630005Y29828506D01*
X15557500Y29464000D01*
X15557500Y28587440D01*
X14986000Y28587440D01*
X14750683Y28543162D01*
X14534559Y28404090D01*
X14389569Y28191890D01*
X14338560Y27940000D01*
X14338560Y27366026D01*
X13986494Y27295995D01*
X13677481Y27089519D01*
X13042481Y26454519D01*
X12836005Y26145506D01*
X12763500Y25781000D01*
X12763500Y24384000D01*
X12836005Y24019494D01*
X13042481Y23710481D01*
X14921675Y21831287D01*
X14911113Y21820743D01*
X14165850Y20025950D01*
X14165830Y20002500D01*
X12319000Y20002500D01*
X11954494Y19929995D01*
X11645481Y19723519D01*
X10908462Y18986500D01*
X10873108Y18986500D01*
X10765277Y19094331D01*
X11001042Y19156169D01*
X11177419Y19657122D01*
X11148664Y20187440D01*
X11001042Y20543831D01*
X10765275Y20605669D01*
X10009605Y19850000D01*
X10023748Y19835858D01*
X9844142Y19656252D01*
X9830000Y19670395D01*
X9815858Y19656252D01*
X9636252Y19835858D01*
X9650395Y19850000D01*
X8894725Y20605669D01*
X8658958Y20543831D01*
X8572500Y20298270D01*
X8572500Y20785275D01*
X9074331Y20785275D01*
X9830000Y20029605D01*
X10585669Y20785275D01*
X10523831Y21021042D01*
X10022878Y21197419D01*
X9492560Y21168664D01*
X9136169Y21021042D01*
X9074331Y20785275D01*
X8572500Y20785275D01*
X8572500Y22846934D01*
X8699313Y23152332D01*
X8699687Y23581784D01*
X8535689Y23978689D01*
X8232286Y24282622D01*
X7835668Y24447313D01*
X7406216Y24447687D01*
X7009311Y24283689D01*
X6705378Y23980286D01*
X6540687Y23583668D01*
X6540313Y23154216D01*
X6667500Y22846400D01*
X6667500Y20206066D01*
X6540687Y19900668D01*
X6540313Y19471216D01*
X6704311Y19074311D01*
X6715397Y19063205D01*
X6740005Y18939494D01*
X6946481Y18630481D01*
X8216481Y17360481D01*
X8525494Y17154005D01*
X8890000Y17081500D01*
X11303000Y17081500D01*
X11667506Y17154005D01*
X11976519Y17360481D01*
X12713538Y18097500D01*
X14164167Y18097500D01*
X14164154Y18082576D01*
X14906284Y16286485D01*
X14922851Y16269889D01*
X14439481Y15786519D01*
X14233005Y15477506D01*
X14160500Y15113000D01*
X14160500Y11951066D01*
X14033687Y11645668D01*
X14033313Y11216216D01*
X14197311Y10819311D01*
X14500714Y10515378D01*
X14897332Y10350687D01*
X15326784Y10350313D01*
X15723689Y10514311D01*
X16027622Y10817714D01*
X16029766Y10822878D01*
X19302581Y10822878D01*
X19331336Y10292560D01*
X19478958Y9936169D01*
X19714725Y9874331D01*
X20470395Y10630000D01*
X19714725Y11385669D01*
X19478958Y11323831D01*
X19302581Y10822878D01*
X16029766Y10822878D01*
X16192313Y11214332D01*
X16192687Y11643784D01*
X16065500Y11951600D01*
X16065500Y14718462D01*
X16268713Y14921675D01*
X16279257Y14911113D01*
X18074050Y14165850D01*
X18134339Y14165797D01*
X18170005Y13986494D01*
X18376481Y13677481D01*
X20166004Y11887958D01*
X19956169Y11801042D01*
X19894331Y11565275D01*
X20650000Y10809605D01*
X20664142Y10823748D01*
X20843748Y10644142D01*
X20829605Y10630000D01*
X21585275Y9874331D01*
X21788041Y9927513D01*
X21944311Y9549311D01*
X22247714Y9245378D01*
X22491858Y9144000D01*
X4508500Y9144000D01*
X4508500Y9610056D01*
X4539082Y9579474D01*
X4654331Y9694723D01*
X4716169Y9458958D01*
X5217122Y9282581D01*
X5747440Y9311336D01*
X6103831Y9458958D01*
X6165669Y9694725D01*
X19894331Y9694725D01*
X19956169Y9458958D01*
X20457122Y9282581D01*
X20987440Y9311336D01*
X21343831Y9458958D01*
X21405669Y9694725D01*
X20650000Y10450395D01*
X19894331Y9694725D01*
X6165669Y9694725D01*
X5410000Y10450395D01*
X5395858Y10436252D01*
X5216252Y10615858D01*
X5230395Y10630000D01*
X5589605Y10630000D01*
X6345275Y9874331D01*
X6581042Y9936169D01*
X6757419Y10437122D01*
X6728664Y10967440D01*
X6593099Y11294725D01*
X9074331Y11294725D01*
X9136169Y11058958D01*
X9637122Y10882581D01*
X10167440Y10911336D01*
X10523831Y11058958D01*
X10585669Y11294725D01*
X9830000Y12050395D01*
X9074331Y11294725D01*
X6593099Y11294725D01*
X6581042Y11323831D01*
X6345275Y11385669D01*
X5589605Y10630000D01*
X5230395Y10630000D01*
X5216252Y10644142D01*
X5395858Y10823748D01*
X5410000Y10809605D01*
X6165669Y11565275D01*
X6103831Y11801042D01*
X5602878Y11977419D01*
X5072560Y11948664D01*
X4716169Y11801042D01*
X4654331Y11565277D01*
X4539082Y11680526D01*
X4508500Y11649944D01*
X4508500Y12422878D01*
X8482581Y12422878D01*
X8511336Y11892560D01*
X8658958Y11536169D01*
X8894725Y11474331D01*
X9650395Y12230000D01*
X10009605Y12230000D01*
X10765275Y11474331D01*
X11001042Y11536169D01*
X11177419Y12037122D01*
X11148664Y12567440D01*
X11001042Y12923831D01*
X10765275Y12985669D01*
X10009605Y12230000D01*
X9650395Y12230000D01*
X8894725Y12985669D01*
X8658958Y12923831D01*
X8482581Y12422878D01*
X4508500Y12422878D01*
X4508500Y13165275D01*
X9074331Y13165275D01*
X9830000Y12409605D01*
X10585669Y13165275D01*
X10523831Y13401042D01*
X10022878Y13577419D01*
X9492560Y13548664D01*
X9136169Y13401042D01*
X9074331Y13165275D01*
X4508500Y13165275D01*
X4508500Y17230056D01*
X4539082Y17199474D01*
X4654331Y17314723D01*
X4716169Y17078958D01*
X5217122Y16902581D01*
X5747440Y16931336D01*
X6103831Y17078958D01*
X6165669Y17314725D01*
X5410000Y18070395D01*
X5395858Y18056252D01*
X5216252Y18235858D01*
X5230395Y18250000D01*
X5589605Y18250000D01*
X6345275Y17494331D01*
X6581042Y17556169D01*
X6757419Y18057122D01*
X6728664Y18587440D01*
X6581042Y18943831D01*
X6345275Y19005669D01*
X5589605Y18250000D01*
X5230395Y18250000D01*
X5216252Y18264142D01*
X5395858Y18443748D01*
X5410000Y18429605D01*
X6165669Y19185275D01*
X6103831Y19421042D01*
X5602878Y19597419D01*
X5072560Y19568664D01*
X4716169Y19421042D01*
X4654331Y19185277D01*
X4539082Y19300526D01*
X4508500Y19269944D01*
X4508500Y24850056D01*
X4539082Y24819474D01*
X4654331Y24934723D01*
X4716169Y24698958D01*
X5217122Y24522581D01*
X5747440Y24551336D01*
X6103831Y24698958D01*
X6165669Y24934725D01*
X5410000Y25690395D01*
X5395858Y25676252D01*
X5216252Y25855858D01*
X5230395Y25870000D01*
X5589605Y25870000D01*
X6345275Y25114331D01*
X6581042Y25176169D01*
X6757419Y25677122D01*
X6728664Y26207440D01*
X6593099Y26534725D01*
X9074331Y26534725D01*
X9136169Y26298958D01*
X9637122Y26122581D01*
X10167440Y26151336D01*
X10523831Y26298958D01*
X10585669Y26534725D01*
X9830000Y27290395D01*
X9074331Y26534725D01*
X6593099Y26534725D01*
X6581042Y26563831D01*
X6345275Y26625669D01*
X5589605Y25870000D01*
X5230395Y25870000D01*
X5216252Y25884142D01*
X5395858Y26063748D01*
X5410000Y26049605D01*
X6165669Y26805275D01*
X6103831Y27041042D01*
X5602878Y27217419D01*
X5072560Y27188664D01*
X4716169Y27041042D01*
X4654331Y26805277D01*
X4539082Y26920526D01*
X4508500Y26889944D01*
X4508500Y27306870D01*
X4864508Y27662878D01*
X8482581Y27662878D01*
X8511336Y27132560D01*
X8658958Y26776169D01*
X8894725Y26714331D01*
X9650395Y27470000D01*
X10009605Y27470000D01*
X10765275Y26714331D01*
X11001042Y26776169D01*
X11177419Y27277122D01*
X11148664Y27807440D01*
X11001042Y28163831D01*
X10765275Y28225669D01*
X10009605Y27470000D01*
X9650395Y27470000D01*
X8894725Y28225669D01*
X8658958Y28163831D01*
X8482581Y27662878D01*
X4864508Y27662878D01*
X5606905Y28405275D01*
X9074331Y28405275D01*
X9830000Y27649605D01*
X10585669Y28405275D01*
X10523831Y28641042D01*
X10022878Y28817419D01*
X9492560Y28788664D01*
X9136169Y28641042D01*
X9074331Y28405275D01*
X5606905Y28405275D01*
X10556355Y33354725D01*
X11817331Y33354725D01*
X11879169Y33118958D01*
X12380122Y32942581D01*
X12910440Y32971336D01*
X13266831Y33118958D01*
X13328669Y33354725D01*
X12573000Y34110395D01*
X11817331Y33354725D01*
X10556355Y33354725D01*
X10698816Y33497185D01*
X10795952Y33642560D01*
X11112500Y33642560D01*
X11347817Y33686838D01*
X11360911Y33695264D01*
X11401958Y33596169D01*
X11637725Y33534331D01*
X12393395Y34290000D01*
X12752605Y34290000D01*
X13508275Y33534331D01*
X13744042Y33596169D01*
X13920419Y34097122D01*
X13911683Y34258250D01*
X14351000Y34258250D01*
X14351000Y32893691D01*
X14447673Y32660302D01*
X14626301Y32481673D01*
X14859690Y32385000D01*
X16224250Y32385000D01*
X16383000Y32543750D01*
X16383000Y34417000D01*
X16637000Y34417000D01*
X16637000Y32543750D01*
X16795750Y32385000D01*
X18160310Y32385000D01*
X18393699Y32481673D01*
X18572327Y32660302D01*
X18669000Y32893691D01*
X18669000Y33682878D01*
X19302581Y33682878D01*
X19331336Y33152560D01*
X19478958Y32796169D01*
X19714725Y32734331D01*
X20470395Y33490000D01*
X20829605Y33490000D01*
X21585275Y32734331D01*
X21821042Y32796169D01*
X21997419Y33297122D01*
X21976503Y33682878D01*
X34542581Y33682878D01*
X34571336Y33152560D01*
X34718958Y32796169D01*
X34954725Y32734331D01*
X35710395Y33490000D01*
X36069605Y33490000D01*
X36825275Y32734331D01*
X37061042Y32796169D01*
X37237419Y33297122D01*
X37208664Y33827440D01*
X37073099Y34154725D01*
X39554331Y34154725D01*
X39616169Y33918958D01*
X40117122Y33742581D01*
X40647440Y33771336D01*
X41003831Y33918958D01*
X41065669Y34154725D01*
X40962145Y34258250D01*
X42291000Y34258250D01*
X42291000Y32893691D01*
X42387673Y32660302D01*
X42566301Y32481673D01*
X42799690Y32385000D01*
X44164250Y32385000D01*
X44323000Y32543750D01*
X44323000Y34417000D01*
X44577000Y34417000D01*
X44577000Y32543750D01*
X44735750Y32385000D01*
X46100310Y32385000D01*
X46333699Y32481673D01*
X46512327Y32660302D01*
X46609000Y32893691D01*
X46609000Y33354725D01*
X47885331Y33354725D01*
X47947169Y33118958D01*
X48448122Y32942581D01*
X48978440Y32971336D01*
X49334831Y33118958D01*
X49396669Y33354725D01*
X48641000Y34110395D01*
X47885331Y33354725D01*
X46609000Y33354725D01*
X46609000Y34258250D01*
X46450250Y34417000D01*
X44577000Y34417000D01*
X44323000Y34417000D01*
X42449750Y34417000D01*
X42291000Y34258250D01*
X40962145Y34258250D01*
X40310000Y34910395D01*
X39554331Y34154725D01*
X37073099Y34154725D01*
X37061042Y34183831D01*
X36825275Y34245669D01*
X36069605Y33490000D01*
X35710395Y33490000D01*
X34954725Y34245669D01*
X34718958Y34183831D01*
X34542581Y33682878D01*
X21976503Y33682878D01*
X21968664Y33827440D01*
X21833099Y34154725D01*
X24314331Y34154725D01*
X24376169Y33918958D01*
X24877122Y33742581D01*
X25407440Y33771336D01*
X25763831Y33918958D01*
X25825669Y34154725D01*
X25070000Y34910395D01*
X24314331Y34154725D01*
X21833099Y34154725D01*
X21821042Y34183831D01*
X21585275Y34245669D01*
X20829605Y33490000D01*
X20470395Y33490000D01*
X19714725Y34245669D01*
X19478958Y34183831D01*
X19302581Y33682878D01*
X18669000Y33682878D01*
X18669000Y34258250D01*
X18510250Y34417000D01*
X16637000Y34417000D01*
X16383000Y34417000D01*
X14509750Y34417000D01*
X14351000Y34258250D01*
X13911683Y34258250D01*
X13902627Y34425275D01*
X19894331Y34425275D01*
X20650000Y33669605D01*
X21405669Y34425275D01*
X21343831Y34661042D01*
X20842878Y34837419D01*
X20312560Y34808664D01*
X19956169Y34661042D01*
X19894331Y34425275D01*
X13902627Y34425275D01*
X13891664Y34627440D01*
X13744042Y34983831D01*
X13508275Y35045669D01*
X12752605Y34290000D01*
X12393395Y34290000D01*
X12379252Y34304142D01*
X12558858Y34483748D01*
X12573000Y34469605D01*
X13328669Y35225275D01*
X13266831Y35461042D01*
X12765878Y35637419D01*
X12235560Y35608664D01*
X11879169Y35461042D01*
X11817331Y35225277D01*
X11759940Y35282668D01*
X11759940Y36194309D01*
X14351000Y36194309D01*
X14351000Y34829750D01*
X14509750Y34671000D01*
X16383000Y34671000D01*
X16383000Y36544250D01*
X16637000Y36544250D01*
X16637000Y34671000D01*
X18510250Y34671000D01*
X18669000Y34829750D01*
X18669000Y35282878D01*
X23722581Y35282878D01*
X23751336Y34752560D01*
X23898958Y34396169D01*
X24134725Y34334331D01*
X24890395Y35090000D01*
X25249605Y35090000D01*
X26005275Y34334331D01*
X26241042Y34396169D01*
X26251289Y34425275D01*
X35134331Y34425275D01*
X35890000Y33669605D01*
X36645669Y34425275D01*
X36583831Y34661042D01*
X36082878Y34837419D01*
X35552560Y34808664D01*
X35196169Y34661042D01*
X35134331Y34425275D01*
X26251289Y34425275D01*
X26417419Y34897122D01*
X26396503Y35282878D01*
X38962581Y35282878D01*
X38991336Y34752560D01*
X39138958Y34396169D01*
X39374725Y34334331D01*
X40130395Y35090000D01*
X40489605Y35090000D01*
X41245275Y34334331D01*
X41481042Y34396169D01*
X41511570Y34482878D01*
X47293581Y34482878D01*
X47322336Y33952560D01*
X47469958Y33596169D01*
X47705725Y33534331D01*
X48461395Y34290000D01*
X47705725Y35045669D01*
X47469958Y34983831D01*
X47293581Y34482878D01*
X41511570Y34482878D01*
X41657419Y34897122D01*
X41628664Y35427440D01*
X41481042Y35783831D01*
X41245275Y35845669D01*
X40489605Y35090000D01*
X40130395Y35090000D01*
X39374725Y35845669D01*
X39138958Y35783831D01*
X38962581Y35282878D01*
X26396503Y35282878D01*
X26388664Y35427440D01*
X26241042Y35783831D01*
X26005275Y35845669D01*
X25249605Y35090000D01*
X24890395Y35090000D01*
X24134725Y35845669D01*
X23898958Y35783831D01*
X23722581Y35282878D01*
X18669000Y35282878D01*
X18669000Y36025275D01*
X24314331Y36025275D01*
X25070000Y35269605D01*
X25825669Y36025275D01*
X39554331Y36025275D01*
X40310000Y35269605D01*
X41065669Y36025275D01*
X41021335Y36194309D01*
X42291000Y36194309D01*
X42291000Y34829750D01*
X42449750Y34671000D01*
X44323000Y34671000D01*
X44323000Y36544250D01*
X44577000Y36544250D01*
X44577000Y34671000D01*
X46450250Y34671000D01*
X46609000Y34829750D01*
X46609000Y36194309D01*
X46512327Y36427698D01*
X46333699Y36606327D01*
X46100310Y36703000D01*
X44735750Y36703000D01*
X44577000Y36544250D01*
X44323000Y36544250D01*
X44164250Y36703000D01*
X42799690Y36703000D01*
X42566301Y36606327D01*
X42387673Y36427698D01*
X42291000Y36194309D01*
X41021335Y36194309D01*
X41003831Y36261042D01*
X40502878Y36437419D01*
X39972560Y36408664D01*
X39616169Y36261042D01*
X39554331Y36025275D01*
X25825669Y36025275D01*
X25763831Y36261042D01*
X25262878Y36437419D01*
X24732560Y36408664D01*
X24376169Y36261042D01*
X24314331Y36025275D01*
X18669000Y36025275D01*
X18669000Y36194309D01*
X18572327Y36427698D01*
X18393699Y36606327D01*
X18160310Y36703000D01*
X16795750Y36703000D01*
X16637000Y36544250D01*
X16383000Y36544250D01*
X16224250Y36703000D01*
X14859690Y36703000D01*
X14626301Y36606327D01*
X14447673Y36427698D01*
X14351000Y36194309D01*
X11759940Y36194309D01*
X11759940Y38411745D01*
X38591350Y38411745D01*
X39086113Y37807188D01*
X40871147Y37038840D01*
X42814337Y37012083D01*
X44619850Y37730990D01*
X44733887Y37807188D01*
X45228650Y38411745D01*
X41910000Y41730395D01*
X38591350Y38411745D01*
X11759940Y38411745D01*
X11759940Y40174725D01*
X19894331Y40174725D01*
X19956169Y39938958D01*
X20457122Y39762581D01*
X20987440Y39791336D01*
X21343831Y39938958D01*
X21405669Y40174725D01*
X35134331Y40174725D01*
X35196169Y39938958D01*
X35697122Y39762581D01*
X36227440Y39791336D01*
X36583831Y39938958D01*
X36645669Y40174725D01*
X35890000Y40930395D01*
X35134331Y40174725D01*
X21405669Y40174725D01*
X20650000Y40930395D01*
X19894331Y40174725D01*
X11759940Y40174725D01*
X11759940Y40847725D01*
X12198331Y40847725D01*
X12260169Y40611958D01*
X12761122Y40435581D01*
X13291440Y40464336D01*
X13647831Y40611958D01*
X13709669Y40847725D01*
X12954000Y41603395D01*
X12198331Y40847725D01*
X11759940Y40847725D01*
X11759940Y41144739D01*
X11782958Y41089169D01*
X12018725Y41027331D01*
X12774395Y41783000D01*
X13133605Y41783000D01*
X13889275Y41027331D01*
X14125042Y41089169D01*
X14200285Y41302878D01*
X19302581Y41302878D01*
X19331336Y40772560D01*
X19478958Y40416169D01*
X19714725Y40354331D01*
X20470395Y41110000D01*
X20829605Y41110000D01*
X21585275Y40354331D01*
X21821042Y40416169D01*
X21997419Y40917122D01*
X21976503Y41302878D01*
X34542581Y41302878D01*
X34571336Y40772560D01*
X34718958Y40416169D01*
X34954725Y40354331D01*
X35710395Y41110000D01*
X34954725Y41865669D01*
X34718958Y41803831D01*
X34542581Y41302878D01*
X21976503Y41302878D01*
X21968664Y41447440D01*
X21833099Y41774725D01*
X24314331Y41774725D01*
X24376169Y41538958D01*
X24877122Y41362581D01*
X25407440Y41391336D01*
X25763831Y41538958D01*
X25825669Y41774725D01*
X25070000Y42530395D01*
X24314331Y41774725D01*
X21833099Y41774725D01*
X21821042Y41803831D01*
X21585275Y41865669D01*
X20829605Y41110000D01*
X20470395Y41110000D01*
X19714725Y41865669D01*
X19478958Y41803831D01*
X19302581Y41302878D01*
X14200285Y41302878D01*
X14301419Y41590122D01*
X14276740Y42045275D01*
X19894331Y42045275D01*
X20650000Y41289605D01*
X21405669Y42045275D01*
X21343831Y42281042D01*
X20842878Y42457419D01*
X20312560Y42428664D01*
X19956169Y42281042D01*
X19894331Y42045275D01*
X14276740Y42045275D01*
X14272664Y42120440D01*
X14125042Y42476831D01*
X13889275Y42538669D01*
X13133605Y41783000D01*
X12774395Y41783000D01*
X12018725Y42538669D01*
X11782958Y42476831D01*
X11683717Y42194962D01*
X11576590Y42361441D01*
X11364390Y42506431D01*
X11112500Y42557440D01*
X9207500Y42557440D01*
X8972183Y42513162D01*
X8890997Y42460920D01*
X8824390Y42506431D01*
X8572500Y42557440D01*
X6667500Y42557440D01*
X6432183Y42513162D01*
X6355226Y42463641D01*
X6158809Y42545000D01*
X5365750Y42545000D01*
X5207000Y42386250D01*
X5207000Y38227000D01*
X5227000Y38227000D01*
X5227000Y37973000D01*
X5207000Y37973000D01*
X5207000Y33813750D01*
X5365750Y33655000D01*
X6158809Y33655000D01*
X6353831Y33735781D01*
X6415610Y33693569D01*
X6667500Y33642560D01*
X6858000Y33642560D01*
X6858000Y33081631D01*
X2509185Y28732815D01*
X2344004Y28485605D01*
X2286000Y28194000D01*
X2286000Y6284631D01*
X762000Y4760630D01*
X762000Y13097131D01*
X845647Y13131779D01*
X1006554Y13198428D01*
X1500973Y13528788D01*
X1500976Y13528789D01*
X1606093Y13633907D01*
X1711211Y13739024D01*
X1711212Y13739027D01*
X2041572Y14233446D01*
X2155351Y14508132D01*
X2155351Y14508136D01*
X2271358Y15091341D01*
X2271358Y15388659D01*
X2155351Y15971864D01*
X2155351Y15971868D01*
X2041572Y16246554D01*
X1711211Y16740975D01*
X1711211Y16740976D01*
X1606093Y16846093D01*
X1500976Y16951211D01*
X1500973Y16951212D01*
X1006554Y17281572D01*
X816050Y17360481D01*
X762000Y17382869D01*
X762000Y33354725D01*
X2038331Y33354725D01*
X2100169Y33118958D01*
X2601122Y32942581D01*
X3131440Y32971336D01*
X3487831Y33118958D01*
X3549669Y33354725D01*
X2794000Y34110395D01*
X2038331Y33354725D01*
X762000Y33354725D01*
X762000Y34482878D01*
X1446581Y34482878D01*
X1475336Y33952560D01*
X1622958Y33596169D01*
X1858725Y33534331D01*
X2614395Y34290000D01*
X1858725Y35045669D01*
X1622958Y34983831D01*
X1446581Y34482878D01*
X762000Y34482878D01*
X762000Y35225275D01*
X2038331Y35225275D01*
X2794000Y34469605D01*
X2808142Y34483748D01*
X2987748Y34304142D01*
X2973605Y34290000D01*
X3729275Y33534331D01*
X3965042Y33596169D01*
X3987720Y33660580D01*
X4001191Y33655000D01*
X4794250Y33655000D01*
X4953000Y33813750D01*
X4953000Y37973000D01*
X3651250Y37973000D01*
X3492500Y37814250D01*
X3492500Y35443241D01*
X3487831Y35461042D01*
X2986878Y35637419D01*
X2456560Y35608664D01*
X2100169Y35461042D01*
X2038331Y35225275D01*
X762000Y35225275D01*
X762000Y40847725D01*
X2038331Y40847725D01*
X2100169Y40611958D01*
X2601122Y40435581D01*
X3131440Y40464336D01*
X3487831Y40611958D01*
X3492500Y40629759D01*
X3492500Y38385750D01*
X3651250Y38227000D01*
X4953000Y38227000D01*
X4953000Y42386250D01*
X4794250Y42545000D01*
X4001191Y42545000D01*
X3886408Y42497455D01*
X3729275Y42538669D01*
X2973605Y41783000D01*
X2987748Y41768858D01*
X2808142Y41589252D01*
X2794000Y41603395D01*
X2038331Y40847725D01*
X762000Y40847725D01*
X762000Y41975878D01*
X1446581Y41975878D01*
X1475336Y41445560D01*
X1622958Y41089169D01*
X1858725Y41027331D01*
X2614395Y41783000D01*
X1858725Y42538669D01*
X1622958Y42476831D01*
X1446581Y41975878D01*
X762000Y41975878D01*
X762000Y42718275D01*
X2038331Y42718275D01*
X2794000Y41962605D01*
X3549669Y42718275D01*
X12198331Y42718275D01*
X12954000Y41962605D01*
X13709669Y42718275D01*
X13661251Y42902878D01*
X23722581Y42902878D01*
X23751336Y42372560D01*
X23898958Y42016169D01*
X24134725Y41954331D01*
X24890395Y42710000D01*
X25249605Y42710000D01*
X26005275Y41954331D01*
X26241042Y42016169D01*
X26251289Y42045275D01*
X35134331Y42045275D01*
X35496264Y41683341D01*
X35531958Y41597169D01*
X35600383Y41579222D01*
X35890000Y41289605D01*
X35949157Y41348762D01*
X36009169Y41119958D01*
X36087077Y41092528D01*
X36825275Y40354331D01*
X37061042Y40416169D01*
X37148217Y40663767D01*
X37730990Y39200150D01*
X37807188Y39086113D01*
X38411745Y38591350D01*
X41730395Y41910000D01*
X42089605Y41910000D01*
X45408255Y38591350D01*
X46012812Y39086113D01*
X46781160Y40871147D01*
X46799869Y42229878D01*
X47039581Y42229878D01*
X47068336Y41699560D01*
X47215958Y41343169D01*
X47451725Y41281331D01*
X48207395Y42037000D01*
X47451725Y42792669D01*
X47215958Y42730831D01*
X47039581Y42229878D01*
X46799869Y42229878D01*
X46807917Y42814337D01*
X46745031Y42972275D01*
X47631331Y42972275D01*
X48387000Y42216605D01*
X49142669Y42972275D01*
X49080831Y43208042D01*
X48579878Y43384419D01*
X48049560Y43355664D01*
X47693169Y43208042D01*
X47631331Y42972275D01*
X46745031Y42972275D01*
X46089010Y44619850D01*
X46012812Y44733887D01*
X45408255Y45228650D01*
X42089605Y41910000D01*
X41730395Y41910000D01*
X38411745Y45228650D01*
X37807188Y44733887D01*
X37277779Y43503958D01*
X36895878Y43638419D01*
X36365560Y43609664D01*
X36009169Y43462042D01*
X35947331Y43226275D01*
X36703000Y42470605D01*
X36717143Y42484747D01*
X36896748Y42305142D01*
X36882605Y42291000D01*
X36896748Y42276858D01*
X36717143Y42097252D01*
X36703000Y42111395D01*
X36643843Y42052238D01*
X36583831Y42281042D01*
X36505923Y42308472D01*
X35767725Y43046669D01*
X35531958Y42984831D01*
X35355581Y42483878D01*
X35362836Y42350078D01*
X35196169Y42281042D01*
X35134331Y42045275D01*
X26251289Y42045275D01*
X26417419Y42517122D01*
X26388664Y43047440D01*
X26241042Y43403831D01*
X26005275Y43465669D01*
X25249605Y42710000D01*
X24890395Y42710000D01*
X24134725Y43465669D01*
X23898958Y43403831D01*
X23722581Y42902878D01*
X13661251Y42902878D01*
X13647831Y42954042D01*
X13146878Y43130419D01*
X12616560Y43101664D01*
X12260169Y42954042D01*
X12198331Y42718275D01*
X3549669Y42718275D01*
X3487831Y42954042D01*
X2986878Y43130419D01*
X2456560Y43101664D01*
X2100169Y42954042D01*
X2038331Y42718275D01*
X762000Y42718275D01*
X762000Y43577131D01*
X909963Y43638419D01*
X926514Y43645275D01*
X24314331Y43645275D01*
X25070000Y42889605D01*
X25825669Y43645275D01*
X25763831Y43881042D01*
X25262878Y44057419D01*
X24732560Y44028664D01*
X24376169Y43881042D01*
X24314331Y43645275D01*
X926514Y43645275D01*
X1006554Y43678428D01*
X1500973Y44008788D01*
X1500976Y44008789D01*
X1606093Y44113907D01*
X1711211Y44219024D01*
X1711212Y44219027D01*
X2041572Y44713446D01*
X2155351Y44988132D01*
X2155351Y44988136D01*
X2238918Y45408255D01*
X38591350Y45408255D01*
X41910000Y42089605D01*
X45228650Y45408255D01*
X44733887Y46012812D01*
X42948853Y46781160D01*
X41005663Y46807917D01*
X39200150Y46089010D01*
X39086113Y46012812D01*
X38591350Y45408255D01*
X2238918Y45408255D01*
X2271358Y45571341D01*
X2271358Y45868659D01*
X2155351Y46451864D01*
X2155351Y46451868D01*
X2041572Y46726554D01*
X1711211Y47220975D01*
X1711211Y47220976D01*
X1606093Y47326093D01*
X1500976Y47431211D01*
X1500973Y47431212D01*
X1006554Y47761572D01*
X926515Y47794725D01*
X4654331Y47794725D01*
X4716169Y47558958D01*
X5217122Y47382581D01*
X5747440Y47411336D01*
X6103831Y47558958D01*
X6165669Y47794725D01*
X19894331Y47794725D01*
X19956169Y47558958D01*
X20457122Y47382581D01*
X20987440Y47411336D01*
X21343831Y47558958D01*
X21405669Y47794725D01*
X35134331Y47794725D01*
X35196169Y47558958D01*
X35697122Y47382581D01*
X36227440Y47411336D01*
X36583831Y47558958D01*
X36645669Y47794725D01*
X35890000Y48550395D01*
X35134331Y47794725D01*
X21405669Y47794725D01*
X20650000Y48550395D01*
X19894331Y47794725D01*
X6165669Y47794725D01*
X5410000Y48550395D01*
X4654331Y47794725D01*
X926515Y47794725D01*
X845647Y47828221D01*
X762000Y47862869D01*
X762000Y48922878D01*
X4062581Y48922878D01*
X4091336Y48392560D01*
X4238958Y48036169D01*
X4474725Y47974331D01*
X5230395Y48730000D01*
X5589605Y48730000D01*
X6345275Y47974331D01*
X6581042Y48036169D01*
X6757419Y48537122D01*
X6736503Y48922878D01*
X19302581Y48922878D01*
X19331336Y48392560D01*
X19478958Y48036169D01*
X19714725Y47974331D01*
X20470395Y48730000D01*
X20829605Y48730000D01*
X21585275Y47974331D01*
X21821042Y48036169D01*
X21997419Y48537122D01*
X21968664Y49067440D01*
X21833099Y49394725D01*
X24314331Y49394725D01*
X24376169Y49158958D01*
X24877122Y48982581D01*
X25407440Y49011336D01*
X25763831Y49158958D01*
X25825669Y49394725D01*
X25070000Y50150395D01*
X24314331Y49394725D01*
X21833099Y49394725D01*
X21821042Y49423831D01*
X21585275Y49485669D01*
X20829605Y48730000D01*
X20470395Y48730000D01*
X19714725Y49485669D01*
X19478958Y49423831D01*
X19302581Y48922878D01*
X6736503Y48922878D01*
X6728664Y49067440D01*
X6593099Y49394725D01*
X9074331Y49394725D01*
X9136169Y49158958D01*
X9637122Y48982581D01*
X10167440Y49011336D01*
X10523831Y49158958D01*
X10585669Y49394725D01*
X9830000Y50150395D01*
X9074331Y49394725D01*
X6593099Y49394725D01*
X6581042Y49423831D01*
X6345275Y49485669D01*
X5589605Y48730000D01*
X5230395Y48730000D01*
X4474725Y49485669D01*
X4238958Y49423831D01*
X4062581Y48922878D01*
X762000Y48922878D01*
X762000Y49665275D01*
X4654331Y49665275D01*
X5410000Y48909605D01*
X6165669Y49665275D01*
X6103831Y49901042D01*
X5602878Y50077419D01*
X5072560Y50048664D01*
X4716169Y49901042D01*
X4654331Y49665275D01*
X762000Y49665275D01*
X762000Y50522878D01*
X8482581Y50522878D01*
X8511336Y49992560D01*
X8658958Y49636169D01*
X8894725Y49574331D01*
X9650395Y50330000D01*
X10009605Y50330000D01*
X10765275Y49574331D01*
X11001042Y49636169D01*
X11011289Y49665275D01*
X19894331Y49665275D01*
X20650000Y48909605D01*
X21405669Y49665275D01*
X21343831Y49901042D01*
X20842878Y50077419D01*
X20312560Y50048664D01*
X19956169Y49901042D01*
X19894331Y49665275D01*
X11011289Y49665275D01*
X11177419Y50137122D01*
X11156503Y50522878D01*
X23722581Y50522878D01*
X23751336Y49992560D01*
X23898958Y49636169D01*
X24134725Y49574331D01*
X24890395Y50330000D01*
X24134725Y51085669D01*
X23898958Y51023831D01*
X23722581Y50522878D01*
X11156503Y50522878D01*
X11148664Y50667440D01*
X11001042Y51023831D01*
X10765275Y51085669D01*
X10009605Y50330000D01*
X9650395Y50330000D01*
X8894725Y51085669D01*
X8658958Y51023831D01*
X8482581Y50522878D01*
X762000Y50522878D01*
X762000Y51265275D01*
X9074331Y51265275D01*
X9830000Y50509605D01*
X10585669Y51265275D01*
X24314331Y51265275D01*
X25070000Y50509605D01*
X25084142Y50523748D01*
X25263748Y50344142D01*
X25249605Y50330000D01*
X26005275Y49574331D01*
X26078788Y49593612D01*
X26205910Y49396059D01*
X26418110Y49251069D01*
X26670000Y49200060D01*
X34290000Y49200060D01*
X34525317Y49244338D01*
X34693972Y49352864D01*
X34542581Y48922878D01*
X34571336Y48392560D01*
X34718958Y48036169D01*
X34954725Y47974331D01*
X35710395Y48730000D01*
X36069605Y48730000D01*
X36825275Y47974331D01*
X37061042Y48036169D01*
X37237419Y48537122D01*
X37216503Y48922878D01*
X49782581Y48922878D01*
X49811336Y48392560D01*
X49958958Y48036169D01*
X50194725Y47974331D01*
X50950395Y48730000D01*
X50194725Y49485669D01*
X49958958Y49423831D01*
X49782581Y48922878D01*
X37216503Y48922878D01*
X37208664Y49067440D01*
X37073099Y49394725D01*
X39554331Y49394725D01*
X39616169Y49158958D01*
X40117122Y48982581D01*
X40647440Y49011336D01*
X41003831Y49158958D01*
X41065669Y49394725D01*
X40310000Y50150395D01*
X39554331Y49394725D01*
X37073099Y49394725D01*
X37061042Y49423831D01*
X36825275Y49485669D01*
X36069605Y48730000D01*
X35710395Y48730000D01*
X34954725Y49485669D01*
X34779999Y49439841D01*
X34886431Y49595610D01*
X34900538Y49665275D01*
X35134331Y49665275D01*
X35890000Y48909605D01*
X36645669Y49665275D01*
X36583831Y49901042D01*
X36082878Y50077419D01*
X35552560Y50048664D01*
X35196169Y49901042D01*
X35134331Y49665275D01*
X34900538Y49665275D01*
X34937440Y49847500D01*
X34937440Y50038000D01*
X35179000Y50038000D01*
X35470605Y50096004D01*
X35717815Y50261185D01*
X35979508Y50522878D01*
X38962581Y50522878D01*
X38991336Y49992560D01*
X39138958Y49636169D01*
X39374725Y49574331D01*
X40130395Y50330000D01*
X40489605Y50330000D01*
X41245275Y49574331D01*
X41481042Y49636169D01*
X41657419Y50137122D01*
X41628664Y50667440D01*
X41481042Y51023831D01*
X41245275Y51085669D01*
X40489605Y50330000D01*
X40130395Y50330000D01*
X39374725Y51085669D01*
X39138958Y51023831D01*
X38962581Y50522878D01*
X35979508Y50522878D01*
X36721905Y51265275D01*
X39554331Y51265275D01*
X40310000Y50509605D01*
X41065669Y51265275D01*
X41003831Y51501042D01*
X40502878Y51677419D01*
X39972560Y51648664D01*
X39616169Y51501042D01*
X39554331Y51265275D01*
X36721905Y51265275D01*
X37272631Y51816000D01*
X50611370Y51816000D01*
X51943000Y50484369D01*
X51943000Y49722608D01*
X51885669Y49665277D01*
X51823831Y49901042D01*
X51322878Y50077419D01*
X50792560Y50048664D01*
X50436169Y49901042D01*
X50374331Y49665275D01*
X51130000Y48909605D01*
X51144142Y48923748D01*
X51323748Y48744142D01*
X51309605Y48730000D01*
X51323748Y48715858D01*
X51144142Y48536252D01*
X51130000Y48550395D01*
X50374331Y47794725D01*
X50436169Y47558958D01*
X50937122Y47382581D01*
X51467440Y47411336D01*
X51823831Y47558958D01*
X51885669Y47794723D01*
X51943000Y47737392D01*
X51943000Y44765630D01*
X50261185Y43083815D01*
X50096004Y42836605D01*
X50040474Y42557440D01*
X49847500Y42557440D01*
X49645599Y42519450D01*
X49558042Y42730831D01*
X49322275Y42792669D01*
X48566605Y42037000D01*
X48580748Y42022858D01*
X48401142Y41843252D01*
X48387000Y41857395D01*
X47631331Y41101725D01*
X47693169Y40865958D01*
X48194122Y40689581D01*
X48724440Y40718336D01*
X49080831Y40865958D01*
X49142669Y41101723D01*
X49200060Y41044332D01*
X49200060Y35508493D01*
X48833878Y35637419D01*
X48303560Y35608664D01*
X47947169Y35461042D01*
X47885331Y35225275D01*
X48641000Y34469605D01*
X48655142Y34483748D01*
X48834748Y34304142D01*
X48820605Y34290000D01*
X49576275Y33534331D01*
X49812042Y33596169D01*
X49829648Y33646175D01*
X49847500Y33642560D01*
X50090998Y33642560D01*
X50096004Y33617395D01*
X50110187Y33596169D01*
X50261185Y33370185D01*
X53055185Y30576184D01*
X53203377Y30477166D01*
X53302395Y30411004D01*
X53594000Y30353000D01*
X56072370Y30353000D01*
X56515000Y29910370D01*
X56515000Y28217873D01*
X56485275Y28225669D01*
X55729605Y27470000D01*
X56485275Y26714331D01*
X56515000Y26722127D01*
X56515000Y20597873D01*
X56485275Y20605669D01*
X55729605Y19850000D01*
X56485275Y19094331D01*
X56515000Y19102127D01*
X56515000Y12977873D01*
X56485275Y12985669D01*
X55729605Y12230000D01*
X56485275Y11474331D01*
X56515000Y11482127D01*
X56515000Y5357873D01*
X56485275Y5365669D01*
X55729605Y4610000D01*
X55743748Y4595857D01*
X55564142Y4416252D01*
X55550000Y4430395D01*
X54794331Y3674725D01*
X54856169Y3438958D01*
X55357122Y3262581D01*
X55887440Y3291336D01*
X56243831Y3438958D01*
X56305669Y3674723D01*
X56420918Y3559474D01*
X56464942Y3603498D01*
X56664714Y3403378D01*
X57061332Y3238687D01*
X57490784Y3238313D01*
X57721527Y3333654D01*
X57721313Y3088216D01*
X57885311Y2691311D01*
X58188714Y2387378D01*
X58585332Y2222687D01*
X59014784Y2222313D01*
X59411689Y2386311D01*
X59715622Y2689714D01*
X59880313Y3086332D01*
X59880687Y3515784D01*
X59716689Y3912689D01*
X59563000Y4066646D01*
X59563000Y4445000D01*
X59504996Y4736605D01*
X59339815Y4983815D01*
X58674000Y5649630D01*
X58674000Y30480000D01*
X58615996Y30771605D01*
X58571441Y30838286D01*
X58450815Y31018816D01*
X57053815Y32415815D01*
X56806605Y32580996D01*
X56515000Y32639000D01*
X54417631Y32639000D01*
X54102000Y32954630D01*
X54102000Y33227725D01*
X57283331Y33227725D01*
X57345169Y32991958D01*
X57846122Y32815581D01*
X58376440Y32844336D01*
X58732831Y32991958D01*
X58794669Y33227725D01*
X58039000Y33983395D01*
X57283331Y33227725D01*
X54102000Y33227725D01*
X54102000Y33642560D01*
X54292500Y33642560D01*
X54527817Y33686838D01*
X54604774Y33736359D01*
X54801191Y33655000D01*
X55594250Y33655000D01*
X55753000Y33813750D01*
X55753000Y37973000D01*
X56007000Y37973000D01*
X56007000Y33813750D01*
X56165750Y33655000D01*
X56790984Y33655000D01*
X56867958Y33469169D01*
X57103725Y33407331D01*
X57859395Y34163000D01*
X58218605Y34163000D01*
X58974275Y33407331D01*
X59210042Y33469169D01*
X59386419Y33970122D01*
X59357664Y34500440D01*
X59210042Y34856831D01*
X58974275Y34918669D01*
X58218605Y34163000D01*
X57859395Y34163000D01*
X57845252Y34177142D01*
X58024858Y34356748D01*
X58039000Y34342605D01*
X58794669Y35098275D01*
X58732831Y35334042D01*
X58231878Y35510419D01*
X57701560Y35481664D01*
X57467500Y35384713D01*
X57467500Y37814250D01*
X57308750Y37973000D01*
X56007000Y37973000D01*
X55753000Y37973000D01*
X55733000Y37973000D01*
X55733000Y38227000D01*
X55753000Y38227000D01*
X55753000Y42386250D01*
X56007000Y42386250D01*
X56007000Y38227000D01*
X57308750Y38227000D01*
X57467500Y38385750D01*
X57467500Y40651173D01*
X57719122Y40562581D01*
X58249440Y40591336D01*
X58605831Y40738958D01*
X58667669Y40974725D01*
X57912000Y41730395D01*
X57897858Y41716252D01*
X57718253Y41895857D01*
X57732395Y41910000D01*
X58091605Y41910000D01*
X58847275Y41154331D01*
X59083042Y41216169D01*
X59259419Y41717122D01*
X59230664Y42247440D01*
X59083042Y42603831D01*
X58847275Y42665669D01*
X58091605Y41910000D01*
X57732395Y41910000D01*
X56976725Y42665669D01*
X56740958Y42603831D01*
X56720245Y42545000D01*
X56165750Y42545000D01*
X56007000Y42386250D01*
X55753000Y42386250D01*
X55594250Y42545000D01*
X54801191Y42545000D01*
X54606169Y42464219D01*
X54544390Y42506431D01*
X54292500Y42557440D01*
X54102000Y42557440D01*
X54102000Y42845275D01*
X57156331Y42845275D01*
X57912000Y42089605D01*
X58667669Y42845275D01*
X58605831Y43081042D01*
X58104878Y43257419D01*
X57574560Y43228664D01*
X57218169Y43081042D01*
X57156331Y42845275D01*
X54102000Y42845275D01*
X54102000Y49394725D01*
X54794331Y49394725D01*
X54856169Y49158958D01*
X55357122Y48982581D01*
X55887440Y49011336D01*
X56243831Y49158958D01*
X56305669Y49394725D01*
X55550000Y50150395D01*
X54794331Y49394725D01*
X54102000Y49394725D01*
X54102000Y50522878D01*
X54202581Y50522878D01*
X54231336Y49992560D01*
X54378958Y49636169D01*
X54614725Y49574331D01*
X55370395Y50330000D01*
X55729605Y50330000D01*
X56485275Y49574331D01*
X56721042Y49636169D01*
X56897419Y50137122D01*
X56868664Y50667440D01*
X56721042Y51023831D01*
X56485275Y51085669D01*
X55729605Y50330000D01*
X55370395Y50330000D01*
X54614725Y51085669D01*
X54378958Y51023831D01*
X54202581Y50522878D01*
X54102000Y50522878D01*
X54102000Y51181000D01*
X54085237Y51265275D01*
X54794331Y51265275D01*
X55550000Y50509605D01*
X56305669Y51265275D01*
X56243831Y51501042D01*
X55742878Y51677419D01*
X55212560Y51648664D01*
X54856169Y51501042D01*
X54794331Y51265275D01*
X54085237Y51265275D01*
X54043996Y51472605D01*
X53878815Y51719815D01*
X51719815Y53878815D01*
X51472605Y54043996D01*
X51181000Y54102000D01*
X34937440Y54102000D01*
X34937440Y54292500D01*
X34893162Y54527817D01*
X34843641Y54604774D01*
X34925000Y54801191D01*
X34925000Y55414725D01*
X35134331Y55414725D01*
X35196169Y55178958D01*
X35697122Y55002581D01*
X36227440Y55031336D01*
X36583831Y55178958D01*
X36645669Y55414725D01*
X35890000Y56170395D01*
X35134331Y55414725D01*
X34925000Y55414725D01*
X34925000Y55594250D01*
X34914322Y55604928D01*
X34954725Y55594331D01*
X35710395Y56350000D01*
X36069605Y56350000D01*
X36825275Y55594331D01*
X37028041Y55647513D01*
X37184311Y55269311D01*
X37487714Y54965378D01*
X37884332Y54800687D01*
X38313784Y54800313D01*
X38710689Y54964311D01*
X39014622Y55267714D01*
X39075666Y55414725D01*
X50374331Y55414725D01*
X50436169Y55178958D01*
X50937122Y55002581D01*
X51467440Y55031336D01*
X51823831Y55178958D01*
X51885669Y55414725D01*
X51130000Y56170395D01*
X50374331Y55414725D01*
X39075666Y55414725D01*
X39179313Y55664332D01*
X39179687Y56093784D01*
X39052500Y56401600D01*
X39052500Y56542878D01*
X49782581Y56542878D01*
X49811336Y56012560D01*
X49958958Y55656169D01*
X50194725Y55594331D01*
X50950395Y56350000D01*
X51309605Y56350000D01*
X52065275Y55594331D01*
X52268041Y55647513D01*
X52424311Y55269311D01*
X52727714Y54965378D01*
X53124332Y54800687D01*
X53553784Y54800313D01*
X53950689Y54964311D01*
X54254622Y55267714D01*
X54419313Y55664332D01*
X54419687Y56093784D01*
X54292500Y56401600D01*
X54292500Y57014725D01*
X54794331Y57014725D01*
X54856169Y56778958D01*
X55357122Y56602581D01*
X55887440Y56631336D01*
X56243831Y56778958D01*
X56305669Y57014725D01*
X55550000Y57770395D01*
X54794331Y57014725D01*
X54292500Y57014725D01*
X54292500Y57464897D01*
X54378958Y57256169D01*
X54614725Y57194331D01*
X55370395Y57950000D01*
X55729605Y57950000D01*
X56485275Y57194331D01*
X56721042Y57256169D01*
X56897419Y57757122D01*
X56868664Y58287440D01*
X56721042Y58643831D01*
X56485275Y58705669D01*
X55729605Y57950000D01*
X55370395Y57950000D01*
X54614725Y58705669D01*
X54378958Y58643831D01*
X54292500Y58398270D01*
X54292500Y58533934D01*
X54419313Y58839332D01*
X54419353Y58885275D01*
X54794331Y58885275D01*
X55550000Y58129605D01*
X56305669Y58885275D01*
X56243831Y59121042D01*
X55742878Y59297419D01*
X55212560Y59268664D01*
X54856169Y59121042D01*
X54794331Y58885275D01*
X54419353Y58885275D01*
X54419687Y59268784D01*
X54255689Y59665689D01*
X53952286Y59969622D01*
X53555668Y60134313D01*
X53126216Y60134687D01*
X52729311Y59970689D01*
X52425378Y59667286D01*
X52260687Y59270668D01*
X52260313Y58841216D01*
X52387500Y58533400D01*
X52387500Y56835103D01*
X52301042Y57043831D01*
X52065275Y57105669D01*
X51309605Y56350000D01*
X50950395Y56350000D01*
X50194725Y57105669D01*
X49958958Y57043831D01*
X49782581Y56542878D01*
X39052500Y56542878D01*
X39052500Y57014725D01*
X39554331Y57014725D01*
X39616169Y56778958D01*
X40117122Y56602581D01*
X40647440Y56631336D01*
X41003831Y56778958D01*
X41065669Y57014725D01*
X40310000Y57770395D01*
X39554331Y57014725D01*
X39052500Y57014725D01*
X39052500Y57464897D01*
X39138958Y57256169D01*
X39374725Y57194331D01*
X40130395Y57950000D01*
X40489605Y57950000D01*
X41245275Y57194331D01*
X41481042Y57256169D01*
X41491289Y57285275D01*
X50374331Y57285275D01*
X51130000Y56529605D01*
X51885669Y57285275D01*
X51823831Y57521042D01*
X51322878Y57697419D01*
X50792560Y57668664D01*
X50436169Y57521042D01*
X50374331Y57285275D01*
X41491289Y57285275D01*
X41657419Y57757122D01*
X41628664Y58287440D01*
X41481042Y58643831D01*
X41245275Y58705669D01*
X40489605Y57950000D01*
X40130395Y57950000D01*
X39374725Y58705669D01*
X39138958Y58643831D01*
X39052500Y58398270D01*
X39052500Y58533934D01*
X39179313Y58839332D01*
X39179353Y58885275D01*
X39554331Y58885275D01*
X40310000Y58129605D01*
X41065669Y58885275D01*
X41003831Y59121042D01*
X40502878Y59297419D01*
X39972560Y59268664D01*
X39616169Y59121042D01*
X39554331Y58885275D01*
X39179353Y58885275D01*
X39179687Y59268784D01*
X39015689Y59665689D01*
X38712286Y59969622D01*
X38315668Y60134313D01*
X37886216Y60134687D01*
X37489311Y59970689D01*
X37185378Y59667286D01*
X37020687Y59270668D01*
X37020313Y58841216D01*
X37147500Y58533400D01*
X37147500Y56835103D01*
X37061042Y57043831D01*
X36825275Y57105669D01*
X36069605Y56350000D01*
X35710395Y56350000D01*
X34954725Y57105669D01*
X34873043Y57084245D01*
X34828327Y57192198D01*
X34735251Y57285275D01*
X35134331Y57285275D01*
X35890000Y56529605D01*
X36645669Y57285275D01*
X36583831Y57521042D01*
X36082878Y57697419D01*
X35552560Y57668664D01*
X35196169Y57521042D01*
X35134331Y57285275D01*
X34735251Y57285275D01*
X34649699Y57370827D01*
X34416310Y57467500D01*
X30765750Y57467500D01*
X30607000Y57308750D01*
X30607000Y56007000D01*
X30627000Y56007000D01*
X30627000Y55753000D01*
X30607000Y55753000D01*
X30607000Y55733000D01*
X30353000Y55733000D01*
X30353000Y55753000D01*
X26193750Y55753000D01*
X26035000Y55594250D01*
X26035000Y54801191D01*
X26115781Y54606169D01*
X26073569Y54544390D01*
X26022560Y54292500D01*
X26022560Y52387500D01*
X26066838Y52152183D01*
X26119080Y52070997D01*
X26073569Y52004390D01*
X26022560Y51752500D01*
X26022560Y51298884D01*
X25940918Y51380526D01*
X25825669Y51265277D01*
X25763831Y51501042D01*
X25262878Y51677419D01*
X24732560Y51648664D01*
X24376169Y51501042D01*
X24314331Y51265275D01*
X10585669Y51265275D01*
X10523831Y51501042D01*
X10022878Y51677419D01*
X9492560Y51648664D01*
X9136169Y51501042D01*
X9074331Y51265275D01*
X762000Y51265275D01*
X762000Y55414725D01*
X4654331Y55414725D01*
X4716169Y55178958D01*
X5217122Y55002581D01*
X5747440Y55031336D01*
X6103831Y55178958D01*
X6165669Y55414725D01*
X5410000Y56170395D01*
X4654331Y55414725D01*
X762000Y55414725D01*
X762000Y56542878D01*
X4062581Y56542878D01*
X4091336Y56012560D01*
X4238958Y55656169D01*
X4474725Y55594331D01*
X5230395Y56350000D01*
X5589605Y56350000D01*
X6345275Y55594331D01*
X6548041Y55647513D01*
X6704311Y55269311D01*
X7007714Y54965378D01*
X7404332Y54800687D01*
X7833784Y54800313D01*
X8230689Y54964311D01*
X8534622Y55267714D01*
X8595666Y55414725D01*
X19894331Y55414725D01*
X19956169Y55178958D01*
X20457122Y55002581D01*
X20987440Y55031336D01*
X21343831Y55178958D01*
X21405669Y55414725D01*
X20650000Y56170395D01*
X19894331Y55414725D01*
X8595666Y55414725D01*
X8699313Y55664332D01*
X8699687Y56093784D01*
X8572500Y56401600D01*
X8572500Y56542878D01*
X19302581Y56542878D01*
X19331336Y56012560D01*
X19478958Y55656169D01*
X19714725Y55594331D01*
X20470395Y56350000D01*
X20829605Y56350000D01*
X21585275Y55594331D01*
X21788041Y55647513D01*
X21944311Y55269311D01*
X22247714Y54965378D01*
X22644332Y54800687D01*
X23073784Y54800313D01*
X23470689Y54964311D01*
X23774622Y55267714D01*
X23939313Y55664332D01*
X23939687Y56093784D01*
X23812500Y56401600D01*
X23812500Y57014725D01*
X24314331Y57014725D01*
X24376169Y56778958D01*
X24877122Y56602581D01*
X25407440Y56631336D01*
X25763831Y56778958D01*
X25825669Y57014725D01*
X25070000Y57770395D01*
X24314331Y57014725D01*
X23812500Y57014725D01*
X23812500Y57464897D01*
X23898958Y57256169D01*
X24134725Y57194331D01*
X24890395Y57950000D01*
X25249605Y57950000D01*
X26005275Y57194331D01*
X26179503Y57240028D01*
X26131673Y57192198D01*
X26035000Y56958809D01*
X26035000Y56165750D01*
X26193750Y56007000D01*
X30353000Y56007000D01*
X30353000Y57308750D01*
X30194250Y57467500D01*
X26543690Y57467500D01*
X26310301Y57370827D01*
X26265712Y57326238D01*
X26417419Y57757122D01*
X26388664Y58287440D01*
X26241042Y58643831D01*
X26005275Y58705669D01*
X25249605Y57950000D01*
X24890395Y57950000D01*
X24134725Y58705669D01*
X23898958Y58643831D01*
X23812500Y58398270D01*
X23812500Y58533934D01*
X23939313Y58839332D01*
X23939353Y58885275D01*
X24314331Y58885275D01*
X25070000Y58129605D01*
X25825669Y58885275D01*
X25763831Y59121042D01*
X25262878Y59297419D01*
X24732560Y59268664D01*
X24376169Y59121042D01*
X24314331Y58885275D01*
X23939353Y58885275D01*
X23939687Y59268784D01*
X23775689Y59665689D01*
X23472286Y59969622D01*
X23075668Y60134313D01*
X22646216Y60134687D01*
X22249311Y59970689D01*
X21945378Y59667286D01*
X21780687Y59270668D01*
X21780313Y58841216D01*
X21907500Y58533400D01*
X21907500Y56835103D01*
X21821042Y57043831D01*
X21585275Y57105669D01*
X20829605Y56350000D01*
X20470395Y56350000D01*
X19714725Y57105669D01*
X19478958Y57043831D01*
X19302581Y56542878D01*
X8572500Y56542878D01*
X8572500Y57014725D01*
X9074331Y57014725D01*
X9136169Y56778958D01*
X9637122Y56602581D01*
X10167440Y56631336D01*
X10523831Y56778958D01*
X10585669Y57014725D01*
X9830000Y57770395D01*
X9074331Y57014725D01*
X8572500Y57014725D01*
X8572500Y57464897D01*
X8658958Y57256169D01*
X8894725Y57194331D01*
X9650395Y57950000D01*
X10009605Y57950000D01*
X10765275Y57194331D01*
X11001042Y57256169D01*
X11011289Y57285275D01*
X19894331Y57285275D01*
X20650000Y56529605D01*
X21405669Y57285275D01*
X21343831Y57521042D01*
X20842878Y57697419D01*
X20312560Y57668664D01*
X19956169Y57521042D01*
X19894331Y57285275D01*
X11011289Y57285275D01*
X11177419Y57757122D01*
X11148664Y58287440D01*
X11001042Y58643831D01*
X10765275Y58705669D01*
X10009605Y57950000D01*
X9650395Y57950000D01*
X8894725Y58705669D01*
X8658958Y58643831D01*
X8572500Y58398270D01*
X8572500Y58533934D01*
X8699313Y58839332D01*
X8699353Y58885275D01*
X9074331Y58885275D01*
X9830000Y58129605D01*
X10585669Y58885275D01*
X10523831Y59121042D01*
X10022878Y59297419D01*
X9492560Y59268664D01*
X9136169Y59121042D01*
X9074331Y58885275D01*
X8699353Y58885275D01*
X8699687Y59268784D01*
X8535689Y59665689D01*
X8232286Y59969622D01*
X7835668Y60134313D01*
X7406216Y60134687D01*
X7009311Y59970689D01*
X6705378Y59667286D01*
X6540687Y59270668D01*
X6540313Y58841216D01*
X6667500Y58533400D01*
X6667500Y56835103D01*
X6581042Y57043831D01*
X6345275Y57105669D01*
X5589605Y56350000D01*
X5230395Y56350000D01*
X4474725Y57105669D01*
X4238958Y57043831D01*
X4062581Y56542878D01*
X762000Y56542878D01*
X762000Y57285275D01*
X4654331Y57285275D01*
X5410000Y56529605D01*
X6165669Y57285275D01*
X6103831Y57521042D01*
X5602878Y57697419D01*
X5072560Y57668664D01*
X4716169Y57521042D01*
X4654331Y57285275D01*
X762000Y57285275D01*
X762000Y60198000D01*
X13097131Y60198000D01*
X13198428Y59953446D01*
M02*
