G04 #@! TF.FileFunction,Soldermask,Bot*
%FSLAX46Y46*%
G04 Gerber Fmt 4.6, Leading zero omitted, Abs format (unit mm)*
G04 Created by KiCad (PCBNEW 4.0.1-3.201512221401+6198~38~ubuntu15.10.1-stable) date Sun Feb 21 18:20:38 2016*
%MOMM*%
G01*
G04 APERTURE LIST*
%ADD10C,0.101600*%
%ADD11C,0.150000*%
%ADD12C,6.496000*%
%ADD13C,0.900000*%
G04 APERTURE END LIST*
D10*
D11*
X0Y10160000D02*
X0Y1270000D01*
X1270000Y11430000D02*
X2540000Y11430000D01*
X1270000Y11430000D02*
G75*
G03X0Y10160000I0J-1270000D01*
G01*
X2540000Y11430000D02*
G75*
G03X3810000Y12700000I0J1270000D01*
G01*
X196850000Y11430000D02*
X195580000Y11430000D01*
X198120000Y10160000D02*
G75*
G03X196850000Y11430000I-1270000J0D01*
G01*
X198120000Y1270000D02*
X198120000Y10160000D01*
X194310000Y12700000D02*
G75*
G03X195580000Y11430000I1270000J0D01*
G01*
X5080000Y50800000D02*
G75*
G03X5080000Y53340000I0J1270000D01*
G01*
X10160000Y53340000D02*
G75*
G03X10160000Y50800000I0J-1270000D01*
G01*
X5080000Y50800000D02*
X1270000Y50800000D01*
X1270000Y53340000D02*
X5080000Y53340000D01*
X5080000Y21590000D02*
X1270000Y21590000D01*
X5080000Y19050000D02*
G75*
G03X5080000Y21590000I0J1270000D01*
G01*
X10160000Y21590000D02*
G75*
G03X10160000Y19050000I0J-1270000D01*
G01*
X10160000Y35560000D02*
G75*
G03X10160000Y33020000I0J-1270000D01*
G01*
X5080000Y33020000D02*
G75*
G03X5080000Y35560000I0J1270000D01*
G01*
X5080000Y33020000D02*
X1270000Y33020000D01*
X1270000Y35560000D02*
X5080000Y35560000D01*
X17780000Y21590000D02*
X10160000Y21590000D01*
X19050000Y20320000D02*
G75*
G03X17780000Y21590000I-1270000J0D01*
G01*
X11430000Y17780000D02*
G75*
G03X10160000Y19050000I-1270000J0D01*
G01*
X11430000Y12700000D02*
X11430000Y17780000D01*
X19050000Y15240000D02*
X19050000Y20320000D01*
X11430000Y12700000D02*
G75*
G03X12700000Y11430000I1270000J0D01*
G01*
X19050000Y15240000D02*
G75*
G03X20320000Y13970000I1270000J0D01*
G01*
X33020000Y11430000D02*
X12700000Y11430000D01*
X25400000Y13970000D02*
X20320000Y13970000D01*
X66040000Y33020000D02*
G75*
G03X66040000Y35560000I0J1270000D01*
G01*
X71120000Y35560000D02*
G75*
G03X71120000Y33020000I0J-1270000D01*
G01*
X127000000Y33020000D02*
G75*
G03X127000000Y35560000I0J1270000D01*
G01*
X132080000Y35560000D02*
G75*
G03X132080000Y33020000I0J-1270000D01*
G01*
X187960000Y33020000D02*
G75*
G03X187960000Y35560000I0J1270000D01*
G01*
X193040000Y35560000D02*
G75*
G03X193040000Y33020000I0J-1270000D01*
G01*
X193040000Y53340000D02*
G75*
G03X193040000Y50800000I0J-1270000D01*
G01*
X187960000Y50800000D02*
G75*
G03X187960000Y53340000I0J1270000D01*
G01*
X132080000Y53340000D02*
G75*
G03X132080000Y50800000I0J-1270000D01*
G01*
X127000000Y50800000D02*
G75*
G03X127000000Y53340000I0J1270000D01*
G01*
X71120000Y53340000D02*
G75*
G03X71120000Y50800000I0J-1270000D01*
G01*
X66040000Y50800000D02*
G75*
G03X66040000Y53340000I0J1270000D01*
G01*
X1270000Y63500000D02*
G75*
G03X0Y62230000I0J-1270000D01*
G01*
X0Y62230000D02*
X0Y54610000D01*
X196850000Y63500000D02*
X1270000Y63500000D01*
X198120000Y62230000D02*
X198120000Y54610000D01*
X198120000Y62230000D02*
G75*
G03X196850000Y63500000I-1270000J0D01*
G01*
X196850000Y53340000D02*
G75*
G03X198120000Y54610000I0J1270000D01*
G01*
X198120000Y49530000D02*
X198120000Y36830000D01*
X196850000Y35560000D02*
G75*
G03X198120000Y36830000I0J1270000D01*
G01*
X198120000Y49530000D02*
G75*
G03X196850000Y50800000I-1270000J0D01*
G01*
X0Y49530000D02*
X0Y36830000D01*
X0Y36830000D02*
G75*
G03X1270000Y35560000I1270000J0D01*
G01*
X0Y54610000D02*
G75*
G03X1270000Y53340000I1270000J0D01*
G01*
X1270000Y50800000D02*
G75*
G03X0Y49530000I0J-1270000D01*
G01*
X193040000Y33020000D02*
X196850000Y33020000D01*
X132080000Y33020000D02*
X187960000Y33020000D01*
X71120000Y33020000D02*
X127000000Y33020000D01*
X10160000Y33020000D02*
X66040000Y33020000D01*
X193040000Y53340000D02*
X196850000Y53340000D01*
X132080000Y53340000D02*
X187960000Y53340000D01*
X71120000Y53340000D02*
X127000000Y53340000D01*
X66040000Y53340000D02*
X10160000Y53340000D01*
X66040000Y35560000D02*
X10160000Y35560000D01*
X127000000Y35560000D02*
X71120000Y35560000D01*
X187960000Y35560000D02*
X132080000Y35560000D01*
X193040000Y35560000D02*
X196850000Y35560000D01*
X193040000Y50800000D02*
X196850000Y50800000D01*
X132080000Y50800000D02*
X187960000Y50800000D01*
X71120000Y50800000D02*
X127000000Y50800000D01*
X10160000Y50800000D02*
X66040000Y50800000D01*
X196850000Y21590000D02*
X193040000Y21590000D01*
X185420000Y11430000D02*
X165100000Y11430000D01*
X186690000Y17780000D02*
X186690000Y12700000D01*
X180340000Y21590000D02*
X187960000Y21590000D01*
X179070000Y15240000D02*
X179070000Y20320000D01*
X172720000Y13970000D02*
X177800000Y13970000D01*
X163830000Y17780000D02*
X163830000Y12700000D01*
X171450000Y20320000D02*
X171450000Y15240000D01*
X162560000Y21590000D02*
X170180000Y21590000D01*
X156210000Y17780000D02*
X156210000Y12700000D01*
X149860000Y21590000D02*
X157480000Y21590000D01*
X148590000Y15240000D02*
X148590000Y20320000D01*
X147320000Y13970000D02*
X142240000Y13970000D01*
X134620000Y11430000D02*
X154940000Y11430000D01*
X140970000Y15240000D02*
X140970000Y20320000D01*
X133350000Y17780000D02*
X133350000Y12700000D01*
X132080000Y21590000D02*
X139700000Y21590000D01*
X119380000Y21590000D02*
X127000000Y21590000D01*
X125730000Y17780000D02*
X125730000Y12700000D01*
X118110000Y15240000D02*
X118110000Y20320000D01*
X124460000Y11430000D02*
X104140000Y11430000D01*
X111760000Y13970000D02*
X116840000Y13970000D01*
X110490000Y15240000D02*
X110490000Y20320000D01*
X102870000Y17780000D02*
X102870000Y12700000D01*
X101600000Y21590000D02*
X109220000Y21590000D01*
X88900000Y21590000D02*
X96520000Y21590000D01*
X95250000Y17780000D02*
X95250000Y12700000D01*
X87630000Y15240000D02*
X87630000Y20320000D01*
X93980000Y11430000D02*
X73660000Y11430000D01*
X81280000Y13970000D02*
X86360000Y13970000D01*
X80010000Y20320000D02*
X80010000Y15240000D01*
X72390000Y17780000D02*
X72390000Y12700000D01*
X71120000Y21590000D02*
X78740000Y21590000D01*
X66040000Y21590000D02*
X58420000Y21590000D01*
X64770000Y17780000D02*
X64770000Y12700000D01*
X57150000Y20320000D02*
X57150000Y15240000D01*
X43180000Y11430000D02*
X63500000Y11430000D01*
X50800000Y13970000D02*
X55880000Y13970000D01*
X41910000Y17780000D02*
X41910000Y12700000D01*
X49530000Y20320000D02*
X49530000Y15240000D01*
X40640000Y21590000D02*
X48260000Y21590000D01*
X27940000Y21590000D02*
X35560000Y21590000D01*
X34290000Y17780000D02*
X34290000Y12700000D01*
X26670000Y20320000D02*
X26670000Y15240000D01*
X3810000Y17780000D02*
X3810000Y12700000D01*
X0Y31750000D02*
X0Y22860000D01*
X194310000Y12700000D02*
X194310000Y17780000D01*
X1270000Y0D02*
X196850000Y0D01*
X198120000Y22860000D02*
X198120000Y31750000D01*
X1270000Y33020000D02*
G75*
G03X0Y31750000I0J-1270000D01*
G01*
X0Y1270000D02*
G75*
G03X1270000Y0I1270000J0D01*
G01*
X5080000Y19050000D02*
G75*
G03X3810000Y17780000I0J-1270000D01*
G01*
X0Y22860000D02*
G75*
G03X1270000Y21590000I1270000J0D01*
G01*
X33020000Y11430000D02*
G75*
G03X34290000Y12700000I0J1270000D01*
G01*
X25400000Y13970000D02*
G75*
G03X26670000Y15240000I0J1270000D01*
G01*
X27940000Y21590000D02*
G75*
G03X26670000Y20320000I0J-1270000D01*
G01*
X35560000Y19050000D02*
G75*
G03X34290000Y17780000I0J-1270000D01*
G01*
X41910000Y12700000D02*
G75*
G03X43180000Y11430000I1270000J0D01*
G01*
X49530000Y15240000D02*
G75*
G03X50800000Y13970000I1270000J0D01*
G01*
X41910000Y17780000D02*
G75*
G03X40640000Y19050000I-1270000J0D01*
G01*
X49530000Y20320000D02*
G75*
G03X48260000Y21590000I-1270000J0D01*
G01*
X63500000Y11430000D02*
G75*
G03X64770000Y12700000I0J1270000D01*
G01*
X55880000Y13970000D02*
G75*
G03X57150000Y15240000I0J1270000D01*
G01*
X58420000Y21590000D02*
G75*
G03X57150000Y20320000I0J-1270000D01*
G01*
X66040000Y19050000D02*
G75*
G03X64770000Y17780000I0J-1270000D01*
G01*
X72390000Y12700000D02*
G75*
G03X73660000Y11430000I1270000J0D01*
G01*
X80010000Y15240000D02*
G75*
G03X81280000Y13970000I1270000J0D01*
G01*
X72390000Y17780000D02*
G75*
G03X71120000Y19050000I-1270000J0D01*
G01*
X80010000Y20320000D02*
G75*
G03X78740000Y21590000I-1270000J0D01*
G01*
X93980000Y11430000D02*
G75*
G03X95250000Y12700000I0J1270000D01*
G01*
X86360000Y13970000D02*
G75*
G03X87630000Y15240000I0J1270000D01*
G01*
X88900000Y21590000D02*
G75*
G03X87630000Y20320000I0J-1270000D01*
G01*
X96520000Y19050000D02*
G75*
G03X95250000Y17780000I0J-1270000D01*
G01*
X102870000Y12700000D02*
G75*
G03X104140000Y11430000I1270000J0D01*
G01*
X110490000Y15240000D02*
G75*
G03X111760000Y13970000I1270000J0D01*
G01*
X102870000Y17780000D02*
G75*
G03X101600000Y19050000I-1270000J0D01*
G01*
X110490000Y20320000D02*
G75*
G03X109220000Y21590000I-1270000J0D01*
G01*
X124460000Y11430000D02*
G75*
G03X125730000Y12700000I0J1270000D01*
G01*
X116840000Y13970000D02*
G75*
G03X118110000Y15240000I0J1270000D01*
G01*
X119380000Y21590000D02*
G75*
G03X118110000Y20320000I0J-1270000D01*
G01*
X127000000Y19050000D02*
G75*
G03X125730000Y17780000I0J-1270000D01*
G01*
X140970000Y20320000D02*
G75*
G03X139700000Y21590000I-1270000J0D01*
G01*
X133350000Y17780000D02*
G75*
G03X132080000Y19050000I-1270000J0D01*
G01*
X133350000Y12700000D02*
G75*
G03X134620000Y11430000I1270000J0D01*
G01*
X140970000Y15240000D02*
G75*
G03X142240000Y13970000I1270000J0D01*
G01*
X154940000Y11430000D02*
G75*
G03X156210000Y12700000I0J1270000D01*
G01*
X147320000Y13970000D02*
G75*
G03X148590000Y15240000I0J1270000D01*
G01*
X149860000Y21590000D02*
G75*
G03X148590000Y20320000I0J-1270000D01*
G01*
X157480000Y19050000D02*
G75*
G03X156210000Y17780000I0J-1270000D01*
G01*
X171450000Y20320000D02*
G75*
G03X170180000Y21590000I-1270000J0D01*
G01*
X163830000Y17780000D02*
G75*
G03X162560000Y19050000I-1270000J0D01*
G01*
X163830000Y12700000D02*
G75*
G03X165100000Y11430000I1270000J0D01*
G01*
X171450000Y15240000D02*
G75*
G03X172720000Y13970000I1270000J0D01*
G01*
X177800000Y13970000D02*
G75*
G03X179070000Y15240000I0J1270000D01*
G01*
X185420000Y11430000D02*
G75*
G03X186690000Y12700000I0J1270000D01*
G01*
X198120000Y31750000D02*
G75*
G03X196850000Y33020000I-1270000J0D01*
G01*
X196850000Y0D02*
G75*
G03X198120000Y1270000I0J1270000D01*
G01*
X194310000Y17780000D02*
G75*
G03X193040000Y19050000I-1270000J0D01*
G01*
X196850000Y21590000D02*
G75*
G03X198120000Y22860000I0J1270000D01*
G01*
X180340000Y21590000D02*
G75*
G03X179070000Y20320000I0J-1270000D01*
G01*
X187960000Y19050000D02*
G75*
G03X186690000Y17780000I0J-1270000D01*
G01*
X35560000Y19050000D02*
G75*
G03X35560000Y21590000I0J1270000D01*
G01*
X40640000Y21590000D02*
G75*
G03X40640000Y19050000I0J-1270000D01*
G01*
X66040000Y19050000D02*
G75*
G03X66040000Y21590000I0J1270000D01*
G01*
X71120000Y21590000D02*
G75*
G03X71120000Y19050000I0J-1270000D01*
G01*
X96520000Y19050000D02*
G75*
G03X96520000Y21590000I0J1270000D01*
G01*
X101600000Y21590000D02*
G75*
G03X101600000Y19050000I0J-1270000D01*
G01*
X127000000Y19050000D02*
G75*
G03X127000000Y21590000I0J1270000D01*
G01*
X132080000Y21590000D02*
G75*
G03X132080000Y19050000I0J-1270000D01*
G01*
X157480000Y19050000D02*
G75*
G03X157480000Y21590000I0J1270000D01*
G01*
X162560000Y21590000D02*
G75*
G03X162560000Y19050000I0J-1270000D01*
G01*
X193040000Y21590000D02*
G75*
G03X193040000Y19050000I0J-1270000D01*
G01*
X187960000Y19050000D02*
G75*
G03X187960000Y21590000I0J1270000D01*
G01*
D12*
X7620000Y5080000D03*
X7620000Y15240000D03*
X7620000Y27940000D03*
X7620000Y45720000D03*
X7620000Y58420000D03*
X38100000Y15240000D03*
X68580000Y15240000D03*
X99060000Y15240000D03*
X129540000Y15240000D03*
X160020000Y15240000D03*
X190500000Y15240000D03*
X22860000Y5080000D03*
X38100000Y5080000D03*
X53340000Y5080000D03*
X68580000Y5080000D03*
X83820000Y5080000D03*
X99060000Y5080000D03*
X114300000Y5080000D03*
X129540000Y5080000D03*
X144780000Y5080000D03*
X160020000Y5080000D03*
X175260000Y5080000D03*
X190500000Y5080000D03*
X22860000Y58420000D03*
X53340000Y58420000D03*
X83820000Y58420000D03*
X114300000Y58420000D03*
X144780000Y58420000D03*
X175260000Y58420000D03*
X38100000Y58420000D03*
X68580000Y58420000D03*
X99060000Y58420000D03*
X129540000Y58420000D03*
X160020000Y58420000D03*
X190500000Y58420000D03*
X22860000Y45720000D03*
X38100000Y45720000D03*
X53340000Y45720000D03*
X68580000Y45720000D03*
X83820000Y45720000D03*
X99060000Y45720000D03*
X114300000Y45720000D03*
X129540000Y45720000D03*
X144780000Y45720000D03*
X160020000Y45720000D03*
X175260000Y45720000D03*
X190500000Y45720000D03*
X15240000Y40640000D03*
X45720000Y40640000D03*
X76200000Y40640000D03*
X106680000Y40640000D03*
X137160000Y40640000D03*
X167640000Y40640000D03*
X22860000Y27940000D03*
X38100000Y27940000D03*
X53340000Y27940000D03*
X68580000Y27940000D03*
X83820000Y27940000D03*
X99060000Y27940000D03*
X114300000Y27940000D03*
X129540000Y27940000D03*
X144780000Y27940000D03*
X160020000Y27940000D03*
X175260000Y27940000D03*
X190500000Y27940000D03*
X22860000Y17780000D03*
X53340000Y17780000D03*
X83820000Y17780000D03*
X114300000Y17780000D03*
X144780000Y17780000D03*
X175260000Y17780000D03*
D13*
X7620000Y53170000D03*
X7620000Y50970000D03*
X8420000Y53170000D03*
X6820000Y53170000D03*
X6820000Y50970000D03*
X8420000Y50970000D03*
X68580000Y53170000D03*
X68580000Y50970000D03*
X69380000Y53170000D03*
X67780000Y53170000D03*
X67780000Y50970000D03*
X69380000Y50970000D03*
X129540000Y53170000D03*
X129540000Y50970000D03*
X130340000Y53170000D03*
X128740000Y53170000D03*
X128740000Y50970000D03*
X130340000Y50970000D03*
X190500000Y53170000D03*
X190500000Y50970000D03*
X191300000Y53170000D03*
X189700000Y53170000D03*
X189700000Y50970000D03*
X191300000Y50970000D03*
X7620000Y35390000D03*
X7620000Y33190000D03*
X8420000Y35390000D03*
X6820000Y35390000D03*
X6820000Y33190000D03*
X8420000Y33190000D03*
X68580000Y35390000D03*
X68580000Y33190000D03*
X69380000Y35390000D03*
X67780000Y35390000D03*
X67780000Y33190000D03*
X69380000Y33190000D03*
X129540000Y35390000D03*
X129540000Y33190000D03*
X130340000Y35390000D03*
X128740000Y35390000D03*
X128740000Y33190000D03*
X130340000Y33190000D03*
X190500000Y35390000D03*
X190500000Y33190000D03*
X191300000Y35390000D03*
X189700000Y35390000D03*
X189700000Y33190000D03*
X191300000Y33190000D03*
X7620000Y21420000D03*
X7620000Y19220000D03*
X8420000Y21420000D03*
X6820000Y21420000D03*
X6820000Y19220000D03*
X8420000Y19220000D03*
X38100000Y21420000D03*
X38100000Y19220000D03*
X38900000Y21420000D03*
X37300000Y21420000D03*
X37300000Y19220000D03*
X38900000Y19220000D03*
X68580000Y21420000D03*
X68580000Y19220000D03*
X69380000Y21420000D03*
X67780000Y21420000D03*
X67780000Y19220000D03*
X69380000Y19220000D03*
X99060000Y21420000D03*
X99060000Y19220000D03*
X99860000Y21420000D03*
X98260000Y21420000D03*
X98260000Y19220000D03*
X99860000Y19220000D03*
X129540000Y21420000D03*
X129540000Y19220000D03*
X130340000Y21420000D03*
X128740000Y21420000D03*
X128740000Y19220000D03*
X130340000Y19220000D03*
X160020000Y21420000D03*
X160020000Y19220000D03*
X160820000Y21420000D03*
X159220000Y21420000D03*
X159220000Y19220000D03*
X160820000Y19220000D03*
X190500000Y21420000D03*
X190500000Y19220000D03*
X191300000Y21420000D03*
X189700000Y21420000D03*
X189700000Y19220000D03*
X191300000Y19220000D03*
M02*
