G04 #@! TF.FileFunction,Legend,Bot*
%FSLAX46Y46*%
G04 Gerber Fmt 4.6, Leading zero omitted, Abs format (unit mm)*
G04 Created by KiCad (PCBNEW 4.0.2-4+6225~38~ubuntu15.04.1-stable) date Wed Feb 24 14:52:56 2016*
%MOMM*%
G01*
G04 APERTURE LIST*
%ADD10C,0.254000*%
%ADD11C,0.190500*%
%ADD12C,0.010000*%
%ADD13C,0.152400*%
%ADD14C,0.002540*%
%ADD15C,0.381000*%
%ADD16C,0.203200*%
%ADD17C,0.127000*%
%ADD18C,0.300000*%
%ADD19C,9.008000*%
%ADD20R,1.930400X1.574800*%
%ADD21R,3.556000X3.556000*%
%ADD22R,8.128000X2.413000*%
%ADD23R,2.413000X8.128000*%
%ADD24C,1.908000*%
G04 APERTURE END LIST*
D10*
X37211000Y41910000D02*
G75*
G03X46609000Y41910000I4699000J0D01*
G01*
X46609000Y49276000D02*
X46609000Y41910000D01*
X23749000Y19050000D02*
G75*
G03X14351000Y19050000I-4699000J0D01*
G01*
X14351000Y14478000D02*
X23749000Y14478000D01*
X23749000Y11684000D02*
X23749000Y19050000D01*
X19050000Y11684000D02*
X23749000Y11684000D01*
X14351000Y11684000D02*
X14351000Y19050000D01*
X19050000Y11684000D02*
X14351000Y11684000D01*
X37211000Y46482000D02*
X46609000Y46482000D01*
X41910000Y49276000D02*
X46609000Y49276000D01*
X37211000Y49276000D02*
X37211000Y41910000D01*
X41910000Y49276000D02*
X37211000Y49276000D01*
X44196000Y0D02*
X16764000Y0D01*
X60960000Y0D02*
X47244000Y0D01*
X60960000Y13716000D02*
X60960000Y0D01*
X60960000Y44196000D02*
X60960000Y16764000D01*
X60960000Y60960000D02*
X60960000Y47244000D01*
X47244000Y60960000D02*
X60960000Y60960000D01*
X16764000Y60960000D02*
X44196000Y60960000D01*
X0Y60960000D02*
X13716000Y60960000D01*
X0Y47244000D02*
X0Y60960000D01*
X0Y16764000D02*
X0Y44196000D01*
X0Y0D02*
X0Y13716000D01*
X13716000Y0D02*
X0Y0D01*
X60960000Y16764000D02*
G75*
G03X59436000Y15240000I0J-1524000D01*
G01*
X59436000Y15240000D02*
G75*
G03X60960000Y13716000I1524000J0D01*
G01*
X60960000Y47244000D02*
G75*
G03X59436000Y45720000I0J-1524000D01*
G01*
X59436000Y45720000D02*
G75*
G03X60960000Y44196000I1524000J0D01*
G01*
X44196000Y60960000D02*
G75*
G03X45720000Y59436000I1524000J0D01*
G01*
X45720000Y59436000D02*
G75*
G03X47244000Y60960000I0J1524000D01*
G01*
X13716000Y60960000D02*
G75*
G03X15240000Y59436000I1524000J0D01*
G01*
X15240000Y59436000D02*
G75*
G03X16764000Y60960000I0J1524000D01*
G01*
X0Y44196000D02*
G75*
G03X1524000Y45720000I0J1524000D01*
G01*
X1524000Y45720000D02*
G75*
G03X0Y47244000I-1524000J0D01*
G01*
X0Y13716000D02*
G75*
G03X1524000Y15240000I0J1524000D01*
G01*
X1524000Y15240000D02*
G75*
G03X0Y16764000I-1524000J0D01*
G01*
X16764000Y0D02*
G75*
G03X15240000Y1524000I-1524000J0D01*
G01*
X15240000Y1524000D02*
G75*
G03X13716000Y0I0J-1524000D01*
G01*
X45720000Y1524000D02*
G75*
G03X44196000Y0I0J-1524000D01*
G01*
X47244000Y0D02*
G75*
G03X45720000Y1524000I-1524000J0D01*
G01*
D11*
X56235600Y43421905D02*
X56271886Y43325143D01*
X56271886Y43180000D01*
X56235600Y43034858D01*
X56163029Y42938096D01*
X56090457Y42889715D01*
X55945314Y42841334D01*
X55836457Y42841334D01*
X55691314Y42889715D01*
X55618743Y42938096D01*
X55546171Y43034858D01*
X55509886Y43180000D01*
X55509886Y43276762D01*
X55546171Y43421905D01*
X55582457Y43470286D01*
X55836457Y43470286D01*
X55836457Y43276762D01*
X55509886Y43905715D02*
X56271886Y43905715D01*
X55509886Y44486286D01*
X56271886Y44486286D01*
X55509886Y44970096D02*
X56271886Y44970096D01*
X56271886Y45212001D01*
X56235600Y45357143D01*
X56163029Y45453905D01*
X56090457Y45502286D01*
X55945314Y45550667D01*
X55836457Y45550667D01*
X55691314Y45502286D01*
X55618743Y45453905D01*
X55546171Y45357143D01*
X55509886Y45212001D01*
X55509886Y44970096D01*
X53067857Y43059048D02*
X53031571Y43010667D01*
X52995286Y42865524D01*
X52995286Y42768762D01*
X53031571Y42623620D01*
X53104143Y42526858D01*
X53176714Y42478477D01*
X53321857Y42430096D01*
X53430714Y42430096D01*
X53575857Y42478477D01*
X53648429Y42526858D01*
X53721000Y42623620D01*
X53757286Y42768762D01*
X53757286Y42865524D01*
X53721000Y43010667D01*
X53684714Y43059048D01*
X53757286Y43688001D02*
X53757286Y43881524D01*
X53721000Y43978286D01*
X53648429Y44075048D01*
X53503286Y44123429D01*
X53249286Y44123429D01*
X53104143Y44075048D01*
X53031571Y43978286D01*
X52995286Y43881524D01*
X52995286Y43688001D01*
X53031571Y43591239D01*
X53104143Y43494477D01*
X53249286Y43446096D01*
X53503286Y43446096D01*
X53648429Y43494477D01*
X53721000Y43591239D01*
X53757286Y43688001D01*
X52922714Y44316953D02*
X52922714Y45091048D01*
X52995286Y45332953D02*
X53757286Y45332953D01*
X53394429Y45332953D02*
X53394429Y45913524D01*
X52995286Y45913524D02*
X53757286Y45913524D01*
X50480686Y42478477D02*
X51242686Y42478477D01*
X51242686Y42720382D01*
X51206400Y42865524D01*
X51133829Y42962286D01*
X51061257Y43010667D01*
X50916114Y43059048D01*
X50807257Y43059048D01*
X50662114Y43010667D01*
X50589543Y42962286D01*
X50516971Y42865524D01*
X50480686Y42720382D01*
X50480686Y42478477D01*
X51242686Y43688001D02*
X51242686Y43881524D01*
X51206400Y43978286D01*
X51133829Y44075048D01*
X50988686Y44123429D01*
X50734686Y44123429D01*
X50589543Y44075048D01*
X50516971Y43978286D01*
X50480686Y43881524D01*
X50480686Y43688001D01*
X50516971Y43591239D01*
X50589543Y43494477D01*
X50734686Y43446096D01*
X50988686Y43446096D01*
X51133829Y43494477D01*
X51206400Y43591239D01*
X51242686Y43688001D01*
X50408114Y44316953D02*
X50408114Y45091048D01*
X50480686Y45332953D02*
X51242686Y45332953D01*
X50879829Y45332953D02*
X50879829Y45913524D01*
X50480686Y45913524D02*
X51242686Y45913524D01*
X24444476Y9789886D02*
X24444476Y10551886D01*
X24202571Y10551886D01*
X24057429Y10515600D01*
X23960667Y10443029D01*
X23912286Y10370457D01*
X23863905Y10225314D01*
X23863905Y10116457D01*
X23912286Y9971314D01*
X23960667Y9898743D01*
X24057429Y9826171D01*
X24202571Y9789886D01*
X24444476Y9789886D01*
X23428476Y9789886D02*
X23428476Y10551886D01*
X23186571Y9717314D02*
X22412476Y9717314D01*
X22218952Y10007600D02*
X21735143Y10007600D01*
X22315714Y9789886D02*
X21977047Y10551886D01*
X21638381Y9789886D01*
X23863905Y7347857D02*
X23912286Y7311571D01*
X24057429Y7275286D01*
X24154191Y7275286D01*
X24299333Y7311571D01*
X24396095Y7384143D01*
X24444476Y7456714D01*
X24492857Y7601857D01*
X24492857Y7710714D01*
X24444476Y7855857D01*
X24396095Y7928429D01*
X24299333Y8001000D01*
X24154191Y8037286D01*
X24057429Y8037286D01*
X23912286Y8001000D01*
X23863905Y7964714D01*
X23428476Y7275286D02*
X23428476Y8037286D01*
X23186571Y7202714D02*
X22412476Y7202714D01*
X22218952Y7493000D02*
X21735143Y7493000D01*
X22315714Y7275286D02*
X21977047Y8037286D01*
X21638381Y7275286D01*
X23888095Y5486400D02*
X23984857Y5522686D01*
X24130000Y5522686D01*
X24275142Y5486400D01*
X24371904Y5413829D01*
X24420285Y5341257D01*
X24468666Y5196114D01*
X24468666Y5087257D01*
X24420285Y4942114D01*
X24371904Y4869543D01*
X24275142Y4796971D01*
X24130000Y4760686D01*
X24033238Y4760686D01*
X23888095Y4796971D01*
X23839714Y4833257D01*
X23839714Y5087257D01*
X24033238Y5087257D01*
X23404285Y4760686D02*
X23404285Y5522686D01*
X22823714Y4760686D01*
X22823714Y5522686D01*
X22339904Y4760686D02*
X22339904Y5522686D01*
X22097999Y5522686D01*
X21952857Y5486400D01*
X21856095Y5413829D01*
X21807714Y5341257D01*
X21759333Y5196114D01*
X21759333Y5087257D01*
X21807714Y4942114D01*
X21856095Y4869543D01*
X21952857Y4796971D01*
X22097999Y4760686D01*
X22339904Y4760686D01*
X9789886Y21656524D02*
X10551886Y21656524D01*
X10551886Y21898429D01*
X10515600Y22043571D01*
X10443029Y22140333D01*
X10370457Y22188714D01*
X10225314Y22237095D01*
X10116457Y22237095D01*
X9971314Y22188714D01*
X9898743Y22140333D01*
X9826171Y22043571D01*
X9789886Y21898429D01*
X9789886Y21656524D01*
X9789886Y22672524D02*
X10551886Y22672524D01*
X9717314Y22914429D02*
X9717314Y23688524D01*
X10007600Y23882048D02*
X10007600Y24365857D01*
X9789886Y23785286D02*
X10551886Y24123953D01*
X9789886Y24462619D01*
X7347857Y22237095D02*
X7311571Y22188714D01*
X7275286Y22043571D01*
X7275286Y21946809D01*
X7311571Y21801667D01*
X7384143Y21704905D01*
X7456714Y21656524D01*
X7601857Y21608143D01*
X7710714Y21608143D01*
X7855857Y21656524D01*
X7928429Y21704905D01*
X8001000Y21801667D01*
X8037286Y21946809D01*
X8037286Y22043571D01*
X8001000Y22188714D01*
X7964714Y22237095D01*
X7275286Y22672524D02*
X8037286Y22672524D01*
X7202714Y22914429D02*
X7202714Y23688524D01*
X7493000Y23882048D02*
X7493000Y24365857D01*
X7275286Y23785286D02*
X8037286Y24123953D01*
X7275286Y24462619D01*
X5486400Y22212905D02*
X5522686Y22116143D01*
X5522686Y21971000D01*
X5486400Y21825858D01*
X5413829Y21729096D01*
X5341257Y21680715D01*
X5196114Y21632334D01*
X5087257Y21632334D01*
X4942114Y21680715D01*
X4869543Y21729096D01*
X4796971Y21825858D01*
X4760686Y21971000D01*
X4760686Y22067762D01*
X4796971Y22212905D01*
X4833257Y22261286D01*
X5087257Y22261286D01*
X5087257Y22067762D01*
X4760686Y22696715D02*
X5522686Y22696715D01*
X4760686Y23277286D01*
X5522686Y23277286D01*
X4760686Y23761096D02*
X5522686Y23761096D01*
X5522686Y24003001D01*
X5486400Y24148143D01*
X5413829Y24244905D01*
X5341257Y24293286D01*
X5196114Y24341667D01*
X5087257Y24341667D01*
X4942114Y24293286D01*
X4869543Y24244905D01*
X4796971Y24148143D01*
X4760686Y24003001D01*
X4760686Y23761096D01*
X45732095Y56235600D02*
X45828857Y56271886D01*
X45974000Y56271886D01*
X46119142Y56235600D01*
X46215904Y56163029D01*
X46264285Y56090457D01*
X46312666Y55945314D01*
X46312666Y55836457D01*
X46264285Y55691314D01*
X46215904Y55618743D01*
X46119142Y55546171D01*
X45974000Y55509886D01*
X45877238Y55509886D01*
X45732095Y55546171D01*
X45683714Y55582457D01*
X45683714Y55836457D01*
X45877238Y55836457D01*
X45248285Y55509886D02*
X45248285Y56271886D01*
X44667714Y55509886D01*
X44667714Y56271886D01*
X44183904Y55509886D02*
X44183904Y56271886D01*
X43941999Y56271886D01*
X43796857Y56235600D01*
X43700095Y56163029D01*
X43651714Y56090457D01*
X43603333Y55945314D01*
X43603333Y55836457D01*
X43651714Y55691314D01*
X43700095Y55618743D01*
X43796857Y55546171D01*
X43941999Y55509886D01*
X44183904Y55509886D01*
X46094952Y53067857D02*
X46143333Y53031571D01*
X46288476Y52995286D01*
X46385238Y52995286D01*
X46530380Y53031571D01*
X46627142Y53104143D01*
X46675523Y53176714D01*
X46723904Y53321857D01*
X46723904Y53430714D01*
X46675523Y53575857D01*
X46627142Y53648429D01*
X46530380Y53721000D01*
X46385238Y53757286D01*
X46288476Y53757286D01*
X46143333Y53721000D01*
X46094952Y53684714D01*
X45465999Y53757286D02*
X45272476Y53757286D01*
X45175714Y53721000D01*
X45078952Y53648429D01*
X45030571Y53503286D01*
X45030571Y53249286D01*
X45078952Y53104143D01*
X45175714Y53031571D01*
X45272476Y52995286D01*
X45465999Y52995286D01*
X45562761Y53031571D01*
X45659523Y53104143D01*
X45707904Y53249286D01*
X45707904Y53503286D01*
X45659523Y53648429D01*
X45562761Y53721000D01*
X45465999Y53757286D01*
X44837047Y52922714D02*
X44062952Y52922714D01*
X43821047Y52995286D02*
X43821047Y53757286D01*
X43821047Y53394429D02*
X43240476Y53394429D01*
X43240476Y52995286D02*
X43240476Y53757286D01*
X46675523Y50480686D02*
X46675523Y51242686D01*
X46433618Y51242686D01*
X46288476Y51206400D01*
X46191714Y51133829D01*
X46143333Y51061257D01*
X46094952Y50916114D01*
X46094952Y50807257D01*
X46143333Y50662114D01*
X46191714Y50589543D01*
X46288476Y50516971D01*
X46433618Y50480686D01*
X46675523Y50480686D01*
X45465999Y51242686D02*
X45272476Y51242686D01*
X45175714Y51206400D01*
X45078952Y51133829D01*
X45030571Y50988686D01*
X45030571Y50734686D01*
X45078952Y50589543D01*
X45175714Y50516971D01*
X45272476Y50480686D01*
X45465999Y50480686D01*
X45562761Y50516971D01*
X45659523Y50589543D01*
X45707904Y50734686D01*
X45707904Y50988686D01*
X45659523Y51133829D01*
X45562761Y51206400D01*
X45465999Y51242686D01*
X44837047Y50408114D02*
X44062952Y50408114D01*
X43821047Y50480686D02*
X43821047Y51242686D01*
X43821047Y50879829D02*
X43240476Y50879829D01*
X43240476Y50480686D02*
X43240476Y51242686D01*
D12*
G36*
X29876476Y43014855D02*
X29331460Y43014709D01*
X28833256Y43014447D01*
X28379868Y43014056D01*
X27969302Y43013522D01*
X27599564Y43012830D01*
X27268659Y43011966D01*
X26974593Y43010916D01*
X26715372Y43009665D01*
X26489000Y43008200D01*
X26293484Y43006505D01*
X26126830Y43004567D01*
X25987042Y43002371D01*
X25872126Y42999903D01*
X25780089Y42997150D01*
X25708934Y42994096D01*
X25656669Y42990727D01*
X25621298Y42987029D01*
X25600828Y42982989D01*
X25594404Y42980040D01*
X25589340Y42973203D01*
X25584697Y42960047D01*
X25580457Y42938460D01*
X25576603Y42906326D01*
X25573115Y42861533D01*
X25569977Y42801965D01*
X25567169Y42725510D01*
X25564674Y42630052D01*
X25562473Y42513479D01*
X25560549Y42373675D01*
X25558883Y42208527D01*
X25557457Y42015921D01*
X25556253Y41793743D01*
X25555252Y41539879D01*
X25554437Y41252215D01*
X25553789Y40928637D01*
X25553291Y40567031D01*
X25552923Y40165282D01*
X25552668Y39721277D01*
X25552509Y39232903D01*
X25552425Y38698044D01*
X25552401Y38114587D01*
X25552400Y38089270D01*
X25552470Y37476434D01*
X25552685Y36912717D01*
X25553056Y36396441D01*
X25553595Y35925926D01*
X25554310Y35499491D01*
X25555213Y35115458D01*
X25556314Y34772147D01*
X25557624Y34467877D01*
X25559153Y34200970D01*
X25560912Y33969745D01*
X25562910Y33772523D01*
X25565159Y33607625D01*
X25567670Y33473369D01*
X25570451Y33368077D01*
X25573515Y33290070D01*
X25576871Y33237667D01*
X25580530Y33209188D01*
X25582881Y33202880D01*
X25597782Y33199034D01*
X25635599Y33195497D01*
X25698010Y33192259D01*
X25786694Y33189309D01*
X25903333Y33186637D01*
X26049605Y33184232D01*
X26227190Y33182084D01*
X26437768Y33180182D01*
X26683019Y33178516D01*
X26964622Y33177076D01*
X27284256Y33175851D01*
X27643603Y33174830D01*
X28044340Y33174003D01*
X28488149Y33173359D01*
X28976709Y33172889D01*
X29511699Y33172581D01*
X30094799Y33172425D01*
X30469270Y33172400D01*
X31054792Y33172423D01*
X31591627Y33172504D01*
X32081891Y33172660D01*
X32527696Y33172910D01*
X32931158Y33173273D01*
X33294389Y33173765D01*
X33619505Y33174407D01*
X33908619Y33175214D01*
X34163844Y33176207D01*
X34387296Y33177403D01*
X34581088Y33178819D01*
X34747334Y33180475D01*
X34888149Y33182388D01*
X35005645Y33184577D01*
X35101938Y33187059D01*
X35179140Y33189854D01*
X35239367Y33192978D01*
X35284732Y33196450D01*
X35317350Y33200289D01*
X35339333Y33204513D01*
X35352797Y33209139D01*
X35359855Y33214185D01*
X35360040Y33214404D01*
X35364322Y33225890D01*
X35368252Y33250921D01*
X35371842Y33291491D01*
X35375108Y33349595D01*
X35378065Y33427228D01*
X35380725Y33526384D01*
X35383104Y33649057D01*
X35385215Y33797242D01*
X35387074Y33972933D01*
X35388694Y34178125D01*
X35390089Y34414811D01*
X35391274Y34684988D01*
X35392263Y34990648D01*
X35392390Y35044867D01*
X32889508Y35044867D01*
X32849291Y34895955D01*
X32767406Y34765315D01*
X32646764Y34659898D01*
X32507613Y34592391D01*
X32360060Y34558582D01*
X32189452Y34546031D01*
X32019058Y34555149D01*
X31887961Y34581371D01*
X31818044Y34612289D01*
X31233993Y34612289D01*
X31211742Y34601651D01*
X31158095Y34597738D01*
X31064368Y34599178D01*
X31037639Y34600073D01*
X30827016Y34607500D01*
X30710658Y34801065D01*
X30651045Y34898213D01*
X30594601Y34986732D01*
X30551084Y35051421D01*
X30541658Y35064373D01*
X30489016Y35134116D01*
X30400538Y35010508D01*
X30336914Y34917513D01*
X30267072Y34809365D01*
X30224996Y34740850D01*
X30137932Y34594800D01*
X29927966Y34594800D01*
X29831891Y34596926D01*
X29758935Y34602586D01*
X29720916Y34610709D01*
X29718049Y34613850D01*
X29731351Y34647272D01*
X29767339Y34713479D01*
X29820246Y34803177D01*
X29884304Y34907070D01*
X29953745Y35015860D01*
X30022801Y35120251D01*
X30025181Y35123683D01*
X29497353Y35123683D01*
X29482124Y34967212D01*
X29425561Y34822242D01*
X29365688Y34738148D01*
X29309659Y34692050D01*
X29224191Y34640525D01*
X29128112Y34593988D01*
X29057600Y34567753D01*
X28982735Y34554805D01*
X28875746Y34548089D01*
X28754920Y34547521D01*
X28638538Y34553017D01*
X28544886Y34564493D01*
X28519697Y34570226D01*
X28360772Y34636945D01*
X28232899Y34735995D01*
X28139667Y34860079D01*
X28084665Y35001897D01*
X28071482Y35154152D01*
X28103708Y35309545D01*
X28128006Y35366677D01*
X28169987Y35442610D01*
X28219327Y35506181D01*
X28287867Y35570101D01*
X28387448Y35647083D01*
X28392967Y35651145D01*
X28381277Y35670738D01*
X28342293Y35715055D01*
X28298718Y35760083D01*
X28198479Y35891736D01*
X28140924Y36037114D01*
X28125046Y36187598D01*
X28149837Y36334569D01*
X28214291Y36469407D01*
X28317400Y36583495D01*
X28401649Y36640779D01*
X28470913Y36676565D01*
X28531802Y36698752D01*
X28600350Y36710532D01*
X28692593Y36715093D01*
X28778200Y36715700D01*
X28927527Y36710681D01*
X29041305Y36692430D01*
X29134081Y36656161D01*
X29220401Y36597089D01*
X29269418Y36554051D01*
X29369049Y36430193D01*
X29429765Y36286431D01*
X29451038Y36133311D01*
X29432338Y35981374D01*
X29373137Y35841165D01*
X29309352Y35757772D01*
X29210347Y35653696D01*
X29302526Y35564173D01*
X29406805Y35431957D01*
X29471997Y35281862D01*
X29497353Y35123683D01*
X30025181Y35123683D01*
X30085705Y35210949D01*
X30104856Y35237272D01*
X30232472Y35409844D01*
X29987936Y35776878D01*
X29908281Y35897140D01*
X29839480Y36002358D01*
X29786095Y36085445D01*
X29752688Y36139316D01*
X29743400Y36156756D01*
X29766795Y36162720D01*
X29828967Y36167211D01*
X29917900Y36169471D01*
X29946726Y36169600D01*
X30150052Y36169600D01*
X30304806Y35928300D01*
X30367046Y35832319D01*
X30418849Y35754437D01*
X30454431Y35703219D01*
X30467792Y35687000D01*
X30484796Y35706434D01*
X30524894Y35759286D01*
X30582015Y35837383D01*
X30647073Y35928300D01*
X30818123Y36169600D01*
X31030956Y36169600D01*
X31109508Y36170509D01*
X31166872Y36169673D01*
X31202040Y36161754D01*
X31214003Y36141411D01*
X31201753Y36103306D01*
X31164283Y36042097D01*
X31100585Y35952446D01*
X31009652Y35829012D01*
X30951853Y35750500D01*
X30870050Y35638130D01*
X30799982Y35540207D01*
X30746724Y35463956D01*
X30715348Y35416601D01*
X30709091Y35404743D01*
X30723399Y35377588D01*
X30760437Y35325582D01*
X30787824Y35290443D01*
X30834713Y35228597D01*
X30897148Y35141576D01*
X30968625Y35039002D01*
X31042642Y34930495D01*
X31112697Y34825676D01*
X31172286Y34734165D01*
X31214906Y34665584D01*
X31233535Y34631025D01*
X31233993Y34612289D01*
X31818044Y34612289D01*
X31726908Y34652590D01*
X31602660Y34757291D01*
X31517963Y34891835D01*
X31475564Y35052585D01*
X31471018Y35133539D01*
X31490198Y35294872D01*
X31549693Y35429091D01*
X31653833Y35544939D01*
X31688720Y35573102D01*
X31792248Y35652065D01*
X31687133Y35768168D01*
X31592604Y35903814D01*
X31537555Y36052031D01*
X31521751Y36203643D01*
X31544960Y36349469D01*
X31606946Y36480330D01*
X31707478Y36587048D01*
X31707991Y36587440D01*
X31854527Y36669248D01*
X32024427Y36715543D01*
X32204735Y36726325D01*
X32382495Y36701593D01*
X32544751Y36641348D01*
X32630179Y36587464D01*
X32722148Y36489464D01*
X32792728Y36359386D01*
X32834217Y36214073D01*
X32841952Y36124335D01*
X32825064Y35969173D01*
X32770494Y35840832D01*
X32683509Y35736817D01*
X32595807Y35653369D01*
X32684929Y35575120D01*
X32749204Y35504020D01*
X32810469Y35413051D01*
X32833277Y35369685D01*
X32885141Y35205094D01*
X32889508Y35044867D01*
X35392390Y35044867D01*
X35393070Y35333786D01*
X35393710Y35716398D01*
X35394197Y36140476D01*
X35394544Y36608016D01*
X35394767Y37121013D01*
X35394880Y37681460D01*
X35394900Y38090297D01*
X35394885Y38673053D01*
X35394824Y39207149D01*
X35394700Y39694723D01*
X35394490Y40137914D01*
X35394177Y40538862D01*
X35393739Y40899706D01*
X35393157Y41222584D01*
X35392412Y41509637D01*
X35391482Y41763004D01*
X35390349Y41984823D01*
X35388992Y42177233D01*
X35387392Y42342375D01*
X35385528Y42482386D01*
X35383381Y42599407D01*
X35380931Y42695576D01*
X35379048Y42748200D01*
X35128200Y42748200D01*
X35128200Y38227000D01*
X25806400Y38227000D01*
X25806400Y42748200D01*
X35128200Y42748200D01*
X35379048Y42748200D01*
X35378158Y42773033D01*
X35375042Y42833916D01*
X35371563Y42880366D01*
X35367702Y42914520D01*
X35363438Y42938518D01*
X35358751Y42954500D01*
X35353622Y42964605D01*
X35349543Y42969543D01*
X35342404Y42975011D01*
X35330965Y42980022D01*
X35313087Y42984596D01*
X35286633Y42988753D01*
X35249461Y42992512D01*
X35199433Y42995894D01*
X35134411Y42998918D01*
X35052254Y43001604D01*
X34950823Y43003973D01*
X34827980Y43006044D01*
X34681585Y43007836D01*
X34509500Y43009371D01*
X34309584Y43010667D01*
X34079698Y43011745D01*
X33817705Y43012624D01*
X33521464Y43013325D01*
X33188836Y43013867D01*
X32817682Y43014270D01*
X32405862Y43014555D01*
X31951239Y43014740D01*
X31451672Y43014846D01*
X30905023Y43014892D01*
X30470297Y43014900D01*
X29876476Y43014855D01*
X29876476Y43014855D01*
G37*
X29876476Y43014855D02*
X29331460Y43014709D01*
X28833256Y43014447D01*
X28379868Y43014056D01*
X27969302Y43013522D01*
X27599564Y43012830D01*
X27268659Y43011966D01*
X26974593Y43010916D01*
X26715372Y43009665D01*
X26489000Y43008200D01*
X26293484Y43006505D01*
X26126830Y43004567D01*
X25987042Y43002371D01*
X25872126Y42999903D01*
X25780089Y42997150D01*
X25708934Y42994096D01*
X25656669Y42990727D01*
X25621298Y42987029D01*
X25600828Y42982989D01*
X25594404Y42980040D01*
X25589340Y42973203D01*
X25584697Y42960047D01*
X25580457Y42938460D01*
X25576603Y42906326D01*
X25573115Y42861533D01*
X25569977Y42801965D01*
X25567169Y42725510D01*
X25564674Y42630052D01*
X25562473Y42513479D01*
X25560549Y42373675D01*
X25558883Y42208527D01*
X25557457Y42015921D01*
X25556253Y41793743D01*
X25555252Y41539879D01*
X25554437Y41252215D01*
X25553789Y40928637D01*
X25553291Y40567031D01*
X25552923Y40165282D01*
X25552668Y39721277D01*
X25552509Y39232903D01*
X25552425Y38698044D01*
X25552401Y38114587D01*
X25552400Y38089270D01*
X25552470Y37476434D01*
X25552685Y36912717D01*
X25553056Y36396441D01*
X25553595Y35925926D01*
X25554310Y35499491D01*
X25555213Y35115458D01*
X25556314Y34772147D01*
X25557624Y34467877D01*
X25559153Y34200970D01*
X25560912Y33969745D01*
X25562910Y33772523D01*
X25565159Y33607625D01*
X25567670Y33473369D01*
X25570451Y33368077D01*
X25573515Y33290070D01*
X25576871Y33237667D01*
X25580530Y33209188D01*
X25582881Y33202880D01*
X25597782Y33199034D01*
X25635599Y33195497D01*
X25698010Y33192259D01*
X25786694Y33189309D01*
X25903333Y33186637D01*
X26049605Y33184232D01*
X26227190Y33182084D01*
X26437768Y33180182D01*
X26683019Y33178516D01*
X26964622Y33177076D01*
X27284256Y33175851D01*
X27643603Y33174830D01*
X28044340Y33174003D01*
X28488149Y33173359D01*
X28976709Y33172889D01*
X29511699Y33172581D01*
X30094799Y33172425D01*
X30469270Y33172400D01*
X31054792Y33172423D01*
X31591627Y33172504D01*
X32081891Y33172660D01*
X32527696Y33172910D01*
X32931158Y33173273D01*
X33294389Y33173765D01*
X33619505Y33174407D01*
X33908619Y33175214D01*
X34163844Y33176207D01*
X34387296Y33177403D01*
X34581088Y33178819D01*
X34747334Y33180475D01*
X34888149Y33182388D01*
X35005645Y33184577D01*
X35101938Y33187059D01*
X35179140Y33189854D01*
X35239367Y33192978D01*
X35284732Y33196450D01*
X35317350Y33200289D01*
X35339333Y33204513D01*
X35352797Y33209139D01*
X35359855Y33214185D01*
X35360040Y33214404D01*
X35364322Y33225890D01*
X35368252Y33250921D01*
X35371842Y33291491D01*
X35375108Y33349595D01*
X35378065Y33427228D01*
X35380725Y33526384D01*
X35383104Y33649057D01*
X35385215Y33797242D01*
X35387074Y33972933D01*
X35388694Y34178125D01*
X35390089Y34414811D01*
X35391274Y34684988D01*
X35392263Y34990648D01*
X35392390Y35044867D01*
X32889508Y35044867D01*
X32849291Y34895955D01*
X32767406Y34765315D01*
X32646764Y34659898D01*
X32507613Y34592391D01*
X32360060Y34558582D01*
X32189452Y34546031D01*
X32019058Y34555149D01*
X31887961Y34581371D01*
X31818044Y34612289D01*
X31233993Y34612289D01*
X31211742Y34601651D01*
X31158095Y34597738D01*
X31064368Y34599178D01*
X31037639Y34600073D01*
X30827016Y34607500D01*
X30710658Y34801065D01*
X30651045Y34898213D01*
X30594601Y34986732D01*
X30551084Y35051421D01*
X30541658Y35064373D01*
X30489016Y35134116D01*
X30400538Y35010508D01*
X30336914Y34917513D01*
X30267072Y34809365D01*
X30224996Y34740850D01*
X30137932Y34594800D01*
X29927966Y34594800D01*
X29831891Y34596926D01*
X29758935Y34602586D01*
X29720916Y34610709D01*
X29718049Y34613850D01*
X29731351Y34647272D01*
X29767339Y34713479D01*
X29820246Y34803177D01*
X29884304Y34907070D01*
X29953745Y35015860D01*
X30022801Y35120251D01*
X30025181Y35123683D01*
X29497353Y35123683D01*
X29482124Y34967212D01*
X29425561Y34822242D01*
X29365688Y34738148D01*
X29309659Y34692050D01*
X29224191Y34640525D01*
X29128112Y34593988D01*
X29057600Y34567753D01*
X28982735Y34554805D01*
X28875746Y34548089D01*
X28754920Y34547521D01*
X28638538Y34553017D01*
X28544886Y34564493D01*
X28519697Y34570226D01*
X28360772Y34636945D01*
X28232899Y34735995D01*
X28139667Y34860079D01*
X28084665Y35001897D01*
X28071482Y35154152D01*
X28103708Y35309545D01*
X28128006Y35366677D01*
X28169987Y35442610D01*
X28219327Y35506181D01*
X28287867Y35570101D01*
X28387448Y35647083D01*
X28392967Y35651145D01*
X28381277Y35670738D01*
X28342293Y35715055D01*
X28298718Y35760083D01*
X28198479Y35891736D01*
X28140924Y36037114D01*
X28125046Y36187598D01*
X28149837Y36334569D01*
X28214291Y36469407D01*
X28317400Y36583495D01*
X28401649Y36640779D01*
X28470913Y36676565D01*
X28531802Y36698752D01*
X28600350Y36710532D01*
X28692593Y36715093D01*
X28778200Y36715700D01*
X28927527Y36710681D01*
X29041305Y36692430D01*
X29134081Y36656161D01*
X29220401Y36597089D01*
X29269418Y36554051D01*
X29369049Y36430193D01*
X29429765Y36286431D01*
X29451038Y36133311D01*
X29432338Y35981374D01*
X29373137Y35841165D01*
X29309352Y35757772D01*
X29210347Y35653696D01*
X29302526Y35564173D01*
X29406805Y35431957D01*
X29471997Y35281862D01*
X29497353Y35123683D01*
X30025181Y35123683D01*
X30085705Y35210949D01*
X30104856Y35237272D01*
X30232472Y35409844D01*
X29987936Y35776878D01*
X29908281Y35897140D01*
X29839480Y36002358D01*
X29786095Y36085445D01*
X29752688Y36139316D01*
X29743400Y36156756D01*
X29766795Y36162720D01*
X29828967Y36167211D01*
X29917900Y36169471D01*
X29946726Y36169600D01*
X30150052Y36169600D01*
X30304806Y35928300D01*
X30367046Y35832319D01*
X30418849Y35754437D01*
X30454431Y35703219D01*
X30467792Y35687000D01*
X30484796Y35706434D01*
X30524894Y35759286D01*
X30582015Y35837383D01*
X30647073Y35928300D01*
X30818123Y36169600D01*
X31030956Y36169600D01*
X31109508Y36170509D01*
X31166872Y36169673D01*
X31202040Y36161754D01*
X31214003Y36141411D01*
X31201753Y36103306D01*
X31164283Y36042097D01*
X31100585Y35952446D01*
X31009652Y35829012D01*
X30951853Y35750500D01*
X30870050Y35638130D01*
X30799982Y35540207D01*
X30746724Y35463956D01*
X30715348Y35416601D01*
X30709091Y35404743D01*
X30723399Y35377588D01*
X30760437Y35325582D01*
X30787824Y35290443D01*
X30834713Y35228597D01*
X30897148Y35141576D01*
X30968625Y35039002D01*
X31042642Y34930495D01*
X31112697Y34825676D01*
X31172286Y34734165D01*
X31214906Y34665584D01*
X31233535Y34631025D01*
X31233993Y34612289D01*
X31818044Y34612289D01*
X31726908Y34652590D01*
X31602660Y34757291D01*
X31517963Y34891835D01*
X31475564Y35052585D01*
X31471018Y35133539D01*
X31490198Y35294872D01*
X31549693Y35429091D01*
X31653833Y35544939D01*
X31688720Y35573102D01*
X31792248Y35652065D01*
X31687133Y35768168D01*
X31592604Y35903814D01*
X31537555Y36052031D01*
X31521751Y36203643D01*
X31544960Y36349469D01*
X31606946Y36480330D01*
X31707478Y36587048D01*
X31707991Y36587440D01*
X31854527Y36669248D01*
X32024427Y36715543D01*
X32204735Y36726325D01*
X32382495Y36701593D01*
X32544751Y36641348D01*
X32630179Y36587464D01*
X32722148Y36489464D01*
X32792728Y36359386D01*
X32834217Y36214073D01*
X32841952Y36124335D01*
X32825064Y35969173D01*
X32770494Y35840832D01*
X32683509Y35736817D01*
X32595807Y35653369D01*
X32684929Y35575120D01*
X32749204Y35504020D01*
X32810469Y35413051D01*
X32833277Y35369685D01*
X32885141Y35205094D01*
X32889508Y35044867D01*
X35392390Y35044867D01*
X35393070Y35333786D01*
X35393710Y35716398D01*
X35394197Y36140476D01*
X35394544Y36608016D01*
X35394767Y37121013D01*
X35394880Y37681460D01*
X35394900Y38090297D01*
X35394885Y38673053D01*
X35394824Y39207149D01*
X35394700Y39694723D01*
X35394490Y40137914D01*
X35394177Y40538862D01*
X35393739Y40899706D01*
X35393157Y41222584D01*
X35392412Y41509637D01*
X35391482Y41763004D01*
X35390349Y41984823D01*
X35388992Y42177233D01*
X35387392Y42342375D01*
X35385528Y42482386D01*
X35383381Y42599407D01*
X35380931Y42695576D01*
X35379048Y42748200D01*
X35128200Y42748200D01*
X35128200Y38227000D01*
X25806400Y38227000D01*
X25806400Y42748200D01*
X35128200Y42748200D01*
X35379048Y42748200D01*
X35378158Y42773033D01*
X35375042Y42833916D01*
X35371563Y42880366D01*
X35367702Y42914520D01*
X35363438Y42938518D01*
X35358751Y42954500D01*
X35353622Y42964605D01*
X35349543Y42969543D01*
X35342404Y42975011D01*
X35330965Y42980022D01*
X35313087Y42984596D01*
X35286633Y42988753D01*
X35249461Y42992512D01*
X35199433Y42995894D01*
X35134411Y42998918D01*
X35052254Y43001604D01*
X34950823Y43003973D01*
X34827980Y43006044D01*
X34681585Y43007836D01*
X34509500Y43009371D01*
X34309584Y43010667D01*
X34079698Y43011745D01*
X33817705Y43012624D01*
X33521464Y43013325D01*
X33188836Y43013867D01*
X32817682Y43014270D01*
X32405862Y43014555D01*
X31951239Y43014740D01*
X31451672Y43014846D01*
X30905023Y43014892D01*
X30470297Y43014900D01*
X29876476Y43014855D01*
G36*
X32170543Y35458986D02*
X32023923Y35384930D01*
X31920460Y35300399D01*
X31862981Y35208189D01*
X31851600Y35143097D01*
X31874985Y35042582D01*
X31942675Y34962770D01*
X32050978Y34907730D01*
X32070606Y34901832D01*
X32145027Y34882952D01*
X32197100Y34878661D01*
X32253114Y34888883D01*
X32296895Y34901178D01*
X32396145Y34950013D01*
X32470779Y35025302D01*
X32502324Y35093105D01*
X32504221Y35185119D01*
X32474958Y35292266D01*
X32420895Y35395429D01*
X32387406Y35438590D01*
X32316317Y35518151D01*
X32170543Y35458986D01*
X32170543Y35458986D01*
G37*
X32170543Y35458986D02*
X32023923Y35384930D01*
X31920460Y35300399D01*
X31862981Y35208189D01*
X31851600Y35143097D01*
X31874985Y35042582D01*
X31942675Y34962770D01*
X32050978Y34907730D01*
X32070606Y34901832D01*
X32145027Y34882952D01*
X32197100Y34878661D01*
X32253114Y34888883D01*
X32296895Y34901178D01*
X32396145Y34950013D01*
X32470779Y35025302D01*
X32502324Y35093105D01*
X32504221Y35185119D01*
X32474958Y35292266D01*
X32420895Y35395429D01*
X32387406Y35438590D01*
X32316317Y35518151D01*
X32170543Y35458986D01*
G36*
X32090347Y36367068D02*
X32030398Y36343935D01*
X31976647Y36298554D01*
X31920394Y36221641D01*
X31904614Y36136995D01*
X31927935Y36032919D01*
X31941469Y35998264D01*
X31996974Y35890650D01*
X32057433Y35831516D01*
X32129991Y35818589D01*
X32221794Y35849598D01*
X32288403Y35887913D01*
X32385903Y35971258D01*
X32441051Y36064200D01*
X32455830Y36158146D01*
X32432225Y36244504D01*
X32372221Y36314681D01*
X32277802Y36360083D01*
X32176421Y36372800D01*
X32090347Y36367068D01*
X32090347Y36367068D01*
G37*
X32090347Y36367068D02*
X32030398Y36343935D01*
X31976647Y36298554D01*
X31920394Y36221641D01*
X31904614Y36136995D01*
X31927935Y36032919D01*
X31941469Y35998264D01*
X31996974Y35890650D01*
X32057433Y35831516D01*
X32129991Y35818589D01*
X32221794Y35849598D01*
X32288403Y35887913D01*
X32385903Y35971258D01*
X32441051Y36064200D01*
X32455830Y36158146D01*
X32432225Y36244504D01*
X32372221Y36314681D01*
X32277802Y36360083D01*
X32176421Y36372800D01*
X32090347Y36367068D01*
G36*
X28881013Y35493709D02*
X28806232Y35467683D01*
X28713891Y35424738D01*
X28704255Y35419724D01*
X28571513Y35335113D01*
X28488954Y35247362D01*
X28456729Y35156861D01*
X28474992Y35063995D01*
X28531584Y34982112D01*
X28593679Y34936831D01*
X28680150Y34898119D01*
X28764750Y34876772D01*
X28790900Y34875457D01*
X28829160Y34884007D01*
X28894014Y34904203D01*
X28917900Y34912461D01*
X29023324Y34966621D01*
X29085049Y35042000D01*
X29107998Y35145098D01*
X29108400Y35164030D01*
X29094105Y35251313D01*
X29057138Y35344711D01*
X29006379Y35428022D01*
X28950706Y35485047D01*
X28925239Y35498202D01*
X28881013Y35493709D01*
X28881013Y35493709D01*
G37*
X28881013Y35493709D02*
X28806232Y35467683D01*
X28713891Y35424738D01*
X28704255Y35419724D01*
X28571513Y35335113D01*
X28488954Y35247362D01*
X28456729Y35156861D01*
X28474992Y35063995D01*
X28531584Y34982112D01*
X28593679Y34936831D01*
X28680150Y34898119D01*
X28764750Y34876772D01*
X28790900Y34875457D01*
X28829160Y34884007D01*
X28894014Y34904203D01*
X28917900Y34912461D01*
X29023324Y34966621D01*
X29085049Y35042000D01*
X29107998Y35145098D01*
X29108400Y35164030D01*
X29094105Y35251313D01*
X29057138Y35344711D01*
X29006379Y35428022D01*
X28950706Y35485047D01*
X28925239Y35498202D01*
X28881013Y35493709D01*
G36*
X28685831Y36366385D02*
X28624838Y36342414D01*
X28586546Y36310455D01*
X28535398Y36225957D01*
X28522382Y36122165D01*
X28545703Y36011189D01*
X28603563Y35905142D01*
X28655137Y35847967D01*
X28714700Y35793034D01*
X28832917Y35853568D01*
X28954382Y35932606D01*
X29028197Y36022308D01*
X29056993Y36126091D01*
X29057600Y36145368D01*
X29035373Y36244284D01*
X28972226Y36317856D01*
X28873462Y36361816D01*
X28775097Y36372800D01*
X28685831Y36366385D01*
X28685831Y36366385D01*
G37*
X28685831Y36366385D02*
X28624838Y36342414D01*
X28586546Y36310455D01*
X28535398Y36225957D01*
X28522382Y36122165D01*
X28545703Y36011189D01*
X28603563Y35905142D01*
X28655137Y35847967D01*
X28714700Y35793034D01*
X28832917Y35853568D01*
X28954382Y35932606D01*
X29028197Y36022308D01*
X29056993Y36126091D01*
X29057600Y36145368D01*
X29035373Y36244284D01*
X28972226Y36317856D01*
X28873462Y36361816D01*
X28775097Y36372800D01*
X28685831Y36366385D01*
G36*
X34163000Y40707291D02*
X34161995Y40451744D01*
X34159022Y40238553D01*
X34154143Y40069624D01*
X34147422Y39946860D01*
X34138921Y39872166D01*
X34134847Y39855619D01*
X34080646Y39773258D01*
X33989569Y39720060D01*
X33868993Y39700240D01*
X33862887Y39700200D01*
X33749972Y39722895D01*
X33662753Y39787577D01*
X33607872Y39889143D01*
X33605217Y39898206D01*
X33597928Y39950187D01*
X33591539Y40046672D01*
X33586249Y40181373D01*
X33582255Y40347999D01*
X33579754Y40540260D01*
X33578942Y40735250D01*
X33578800Y41478200D01*
X33172400Y41478200D01*
X33172400Y40682711D01*
X33172843Y40447392D01*
X33174337Y40257024D01*
X33177131Y40105764D01*
X33181472Y39987767D01*
X33187611Y39897192D01*
X33195795Y39828194D01*
X33206273Y39774930D01*
X33211900Y39754211D01*
X33281076Y39606761D01*
X33388982Y39487165D01*
X33527569Y39403473D01*
X33582011Y39384100D01*
X33709313Y39359381D01*
X33862403Y39348806D01*
X34018191Y39352678D01*
X34153586Y39371302D01*
X34174239Y39376305D01*
X34266329Y39419655D01*
X34364337Y39495868D01*
X34454186Y39591107D01*
X34521800Y39691534D01*
X34542498Y39738300D01*
X34553399Y39783075D01*
X34562512Y39852590D01*
X34570063Y39951382D01*
X34576276Y40083984D01*
X34581378Y40254931D01*
X34585594Y40468756D01*
X34588298Y40659050D01*
X34598536Y41478200D01*
X34163000Y41478200D01*
X34163000Y40707291D01*
X34163000Y40707291D01*
G37*
X34163000Y40707291D02*
X34161995Y40451744D01*
X34159022Y40238553D01*
X34154143Y40069624D01*
X34147422Y39946860D01*
X34138921Y39872166D01*
X34134847Y39855619D01*
X34080646Y39773258D01*
X33989569Y39720060D01*
X33868993Y39700240D01*
X33862887Y39700200D01*
X33749972Y39722895D01*
X33662753Y39787577D01*
X33607872Y39889143D01*
X33605217Y39898206D01*
X33597928Y39950187D01*
X33591539Y40046672D01*
X33586249Y40181373D01*
X33582255Y40347999D01*
X33579754Y40540260D01*
X33578942Y40735250D01*
X33578800Y41478200D01*
X33172400Y41478200D01*
X33172400Y40682711D01*
X33172843Y40447392D01*
X33174337Y40257024D01*
X33177131Y40105764D01*
X33181472Y39987767D01*
X33187611Y39897192D01*
X33195795Y39828194D01*
X33206273Y39774930D01*
X33211900Y39754211D01*
X33281076Y39606761D01*
X33388982Y39487165D01*
X33527569Y39403473D01*
X33582011Y39384100D01*
X33709313Y39359381D01*
X33862403Y39348806D01*
X34018191Y39352678D01*
X34153586Y39371302D01*
X34174239Y39376305D01*
X34266329Y39419655D01*
X34364337Y39495868D01*
X34454186Y39591107D01*
X34521800Y39691534D01*
X34542498Y39738300D01*
X34553399Y39783075D01*
X34562512Y39852590D01*
X34570063Y39951382D01*
X34576276Y40083984D01*
X34581378Y40254931D01*
X34585594Y40468756D01*
X34588298Y40659050D01*
X34598536Y41478200D01*
X34163000Y41478200D01*
X34163000Y40707291D01*
G36*
X28651200Y40425296D02*
X28649652Y40203313D01*
X28645028Y40029848D01*
X28637360Y39905549D01*
X28626678Y39831060D01*
X28621617Y39815462D01*
X28568299Y39749568D01*
X28482203Y39716703D01*
X28361368Y39716651D01*
X28203836Y39749195D01*
X28154017Y39763770D01*
X28125144Y39767977D01*
X28106186Y39752092D01*
X28092008Y39706183D01*
X28077475Y39620319D01*
X28076503Y39613838D01*
X28051673Y39447686D01*
X28154587Y39406239D01*
X28261986Y39376130D01*
X28393708Y39358018D01*
X28530920Y39352750D01*
X28654790Y39361171D01*
X28736614Y39380127D01*
X28832397Y39424233D01*
X28908145Y39480962D01*
X28966347Y39556446D01*
X29009493Y39656818D01*
X29040070Y39788209D01*
X29060568Y39956752D01*
X29073475Y40168578D01*
X29075287Y40214550D01*
X29090930Y40640000D01*
X29514800Y40640000D01*
X29514800Y40970200D01*
X28651200Y40970200D01*
X28651200Y40425296D01*
X28651200Y40425296D01*
G37*
X28651200Y40425296D02*
X28649652Y40203313D01*
X28645028Y40029848D01*
X28637360Y39905549D01*
X28626678Y39831060D01*
X28621617Y39815462D01*
X28568299Y39749568D01*
X28482203Y39716703D01*
X28361368Y39716651D01*
X28203836Y39749195D01*
X28154017Y39763770D01*
X28125144Y39767977D01*
X28106186Y39752092D01*
X28092008Y39706183D01*
X28077475Y39620319D01*
X28076503Y39613838D01*
X28051673Y39447686D01*
X28154587Y39406239D01*
X28261986Y39376130D01*
X28393708Y39358018D01*
X28530920Y39352750D01*
X28654790Y39361171D01*
X28736614Y39380127D01*
X28832397Y39424233D01*
X28908145Y39480962D01*
X28966347Y39556446D01*
X29009493Y39656818D01*
X29040070Y39788209D01*
X29060568Y39956752D01*
X29073475Y40168578D01*
X29075287Y40214550D01*
X29090930Y40640000D01*
X29514800Y40640000D01*
X29514800Y40970200D01*
X28651200Y40970200D01*
X28651200Y40425296D01*
G36*
X32359600Y39725600D02*
X31470600Y39725600D01*
X31470600Y39395400D01*
X32791400Y39395400D01*
X32791400Y41478200D01*
X32359600Y41478200D01*
X32359600Y39725600D01*
X32359600Y39725600D01*
G37*
X32359600Y39725600D02*
X31470600Y39725600D01*
X31470600Y39395400D01*
X32791400Y39395400D01*
X32791400Y41478200D01*
X32359600Y41478200D01*
X32359600Y39725600D01*
G36*
X29723190Y41306750D02*
X29730700Y41135300D01*
X30276800Y41120882D01*
X30276800Y39395400D01*
X30683200Y39395400D01*
X30683200Y41122600D01*
X31242000Y41122600D01*
X31242000Y41478200D01*
X30478840Y41478201D01*
X29715679Y41478201D01*
X29723190Y41306750D01*
X29723190Y41306750D01*
G37*
X29723190Y41306750D02*
X29730700Y41135300D01*
X30276800Y41120882D01*
X30276800Y39395400D01*
X30683200Y39395400D01*
X30683200Y41122600D01*
X31242000Y41122600D01*
X31242000Y41478200D01*
X30478840Y41478201D01*
X29715679Y41478201D01*
X29723190Y41306750D01*
G36*
X26524299Y41476474D02*
X26470365Y41469540D01*
X26446153Y41454764D01*
X26441089Y41433750D01*
X26438873Y41394343D01*
X26432946Y41313873D01*
X26424059Y41201882D01*
X26412962Y41067911D01*
X26404629Y40970200D01*
X26390413Y40793575D01*
X26376555Y40600542D01*
X26364424Y40411529D01*
X26355387Y40246962D01*
X26353604Y40208200D01*
X26346550Y40053782D01*
X26338552Y39891602D01*
X26330625Y39741617D01*
X26324193Y39630350D01*
X26309660Y39395400D01*
X26694656Y39395400D01*
X26701378Y40162506D01*
X26708100Y40929611D01*
X26936700Y40132099D01*
X27092151Y40132050D01*
X27247602Y40132000D01*
X27470100Y40932100D01*
X27476823Y40163750D01*
X27483545Y39395400D01*
X27866877Y39395400D01*
X27853187Y39566850D01*
X27847198Y39656002D01*
X27840311Y39781027D01*
X27833278Y39927027D01*
X27826850Y40079102D01*
X27825314Y40119300D01*
X27817458Y40306653D01*
X27807554Y40506298D01*
X27796240Y40708162D01*
X27784151Y40902174D01*
X27771923Y41078262D01*
X27760193Y41226355D01*
X27749596Y41336380D01*
X27747100Y41357550D01*
X27732034Y41478200D01*
X27390356Y41478200D01*
X27094624Y40551100D01*
X26945071Y41014650D01*
X26795518Y41478201D01*
X26618459Y41478201D01*
X26524299Y41476474D01*
X26524299Y41476474D01*
G37*
X26524299Y41476474D02*
X26470365Y41469540D01*
X26446153Y41454764D01*
X26441089Y41433750D01*
X26438873Y41394343D01*
X26432946Y41313873D01*
X26424059Y41201882D01*
X26412962Y41067911D01*
X26404629Y40970200D01*
X26390413Y40793575D01*
X26376555Y40600542D01*
X26364424Y40411529D01*
X26355387Y40246962D01*
X26353604Y40208200D01*
X26346550Y40053782D01*
X26338552Y39891602D01*
X26330625Y39741617D01*
X26324193Y39630350D01*
X26309660Y39395400D01*
X26694656Y39395400D01*
X26701378Y40162506D01*
X26708100Y40929611D01*
X26936700Y40132099D01*
X27092151Y40132050D01*
X27247602Y40132000D01*
X27470100Y40932100D01*
X27476823Y40163750D01*
X27483545Y39395400D01*
X27866877Y39395400D01*
X27853187Y39566850D01*
X27847198Y39656002D01*
X27840311Y39781027D01*
X27833278Y39927027D01*
X27826850Y40079102D01*
X27825314Y40119300D01*
X27817458Y40306653D01*
X27807554Y40506298D01*
X27796240Y40708162D01*
X27784151Y40902174D01*
X27771923Y41078262D01*
X27760193Y41226355D01*
X27749596Y41336380D01*
X27747100Y41357550D01*
X27732034Y41478200D01*
X27390356Y41478200D01*
X27094624Y40551100D01*
X26945071Y41014650D01*
X26795518Y41478201D01*
X26618459Y41478201D01*
X26524299Y41476474D01*
G36*
X28808673Y41663944D02*
X28735560Y41602966D01*
X28688224Y41520631D01*
X28672338Y41426499D01*
X28693576Y41330130D01*
X28750847Y41247647D01*
X28844156Y41186401D01*
X28948527Y41171435D01*
X29053533Y41202998D01*
X29106452Y41239158D01*
X29156490Y41289564D01*
X29179247Y41343649D01*
X29184600Y41424007D01*
X29169723Y41540758D01*
X29122101Y41621943D01*
X29037252Y41674207D01*
X29009536Y41683582D01*
X28901889Y41694002D01*
X28808673Y41663944D01*
X28808673Y41663944D01*
G37*
X28808673Y41663944D02*
X28735560Y41602966D01*
X28688224Y41520631D01*
X28672338Y41426499D01*
X28693576Y41330130D01*
X28750847Y41247647D01*
X28844156Y41186401D01*
X28948527Y41171435D01*
X29053533Y41202998D01*
X29106452Y41239158D01*
X29156490Y41289564D01*
X29179247Y41343649D01*
X29184600Y41424007D01*
X29169723Y41540758D01*
X29122101Y41621943D01*
X29037252Y41674207D01*
X29009536Y41683582D01*
X28901889Y41694002D01*
X28808673Y41663944D01*
D10*
X32512000Y30734000D02*
X32512000Y30226000D01*
X33528000Y30226000D02*
X33528000Y30734000D01*
X27432000Y30734000D02*
X27432000Y30226000D01*
X28448000Y30226000D02*
X28448000Y30734000D01*
X15240000Y29464000D02*
X17780000Y29464000D01*
X15240000Y29210000D02*
X17780000Y29210000D01*
X17780000Y28956000D02*
X15240000Y28956000D01*
X15240000Y28702000D02*
X17780000Y28702000D01*
X17780000Y28448000D02*
X15240000Y28448000D01*
X15240000Y28194000D02*
X17780000Y28194000D01*
X17780000Y32766000D02*
X17780000Y28194000D01*
X15240000Y32766000D02*
X15240000Y28194000D01*
X43180000Y29464000D02*
X45720000Y29464000D01*
X43180000Y29210000D02*
X45720000Y29210000D01*
X45720000Y28956000D02*
X43180000Y28956000D01*
X43180000Y28702000D02*
X45720000Y28702000D01*
X45720000Y28448000D02*
X43180000Y28448000D01*
X43180000Y28194000D02*
X45720000Y28194000D01*
X45720000Y32766000D02*
X45720000Y28194000D01*
X43180000Y32766000D02*
X43180000Y28194000D01*
X29210000Y54356000D02*
X29210000Y54864000D01*
X29210000Y51816000D02*
X29210000Y52324000D01*
X31750000Y49784000D02*
X31750000Y49530000D01*
X31750000Y49530000D02*
X29210000Y49530000D01*
X29210000Y49530000D02*
X29210000Y49784000D01*
X31750000Y52324000D02*
X31750000Y51816000D01*
X31750000Y54864000D02*
X31750000Y54356000D01*
X29210000Y56896000D02*
X29210000Y57150000D01*
X29210000Y57150000D02*
X31750000Y57150000D01*
X31750000Y57150000D02*
X31750000Y56896000D01*
D13*
X34290000Y52070000D02*
X36830000Y52070000D01*
X34290000Y54610000D02*
X36830000Y54610000D01*
X34290000Y57150000D02*
X34290000Y49530000D01*
X34290000Y49530000D02*
X36830000Y49530000D01*
X36830000Y49530000D02*
X36830000Y57150000D01*
X36830000Y57150000D02*
X34290000Y57150000D01*
D10*
X29210000Y8636000D02*
X29210000Y9144000D01*
X29210000Y6096000D02*
X29210000Y6604000D01*
X31750000Y4064000D02*
X31750000Y3810000D01*
X31750000Y3810000D02*
X29210000Y3810000D01*
X29210000Y3810000D02*
X29210000Y4064000D01*
X31750000Y6604000D02*
X31750000Y6096000D01*
X31750000Y9144000D02*
X31750000Y8636000D01*
X29210000Y11176000D02*
X29210000Y11430000D01*
X29210000Y11430000D02*
X31750000Y11430000D01*
X31750000Y11430000D02*
X31750000Y11176000D01*
D13*
X34290000Y6350000D02*
X36830000Y6350000D01*
X34290000Y8890000D02*
X36830000Y8890000D01*
X34290000Y11430000D02*
X34290000Y3810000D01*
X34290000Y3810000D02*
X36830000Y3810000D01*
X36830000Y3810000D02*
X36830000Y11430000D01*
X36830000Y11430000D02*
X34290000Y11430000D01*
D10*
X54356000Y39370000D02*
X54864000Y39370000D01*
X51816000Y39370000D02*
X52324000Y39370000D01*
X49784000Y36830000D02*
X49530000Y36830000D01*
X49530000Y36830000D02*
X49530000Y39370000D01*
X49530000Y39370000D02*
X49784000Y39370000D01*
X52324000Y36830000D02*
X51816000Y36830000D01*
X54864000Y36830000D02*
X54356000Y36830000D01*
X56896000Y39370000D02*
X57150000Y39370000D01*
X57150000Y39370000D02*
X57150000Y36830000D01*
X57150000Y36830000D02*
X56896000Y36830000D01*
D13*
X52070000Y34290000D02*
X52070000Y31750000D01*
X54610000Y34290000D02*
X54610000Y31750000D01*
X57150000Y34290000D02*
X49530000Y34290000D01*
X49530000Y34290000D02*
X49530000Y31750000D01*
X49530000Y31750000D02*
X57150000Y31750000D01*
X57150000Y31750000D02*
X57150000Y34290000D01*
D10*
X8636000Y39370000D02*
X9144000Y39370000D01*
X6096000Y39370000D02*
X6604000Y39370000D01*
X4064000Y36830000D02*
X3810000Y36830000D01*
X3810000Y36830000D02*
X3810000Y39370000D01*
X3810000Y39370000D02*
X4064000Y39370000D01*
X6604000Y36830000D02*
X6096000Y36830000D01*
X9144000Y36830000D02*
X8636000Y36830000D01*
X11176000Y39370000D02*
X11430000Y39370000D01*
X11430000Y39370000D02*
X11430000Y36830000D01*
X11430000Y36830000D02*
X11176000Y36830000D01*
D13*
X6350000Y34290000D02*
X6350000Y31750000D01*
X8890000Y34290000D02*
X8890000Y31750000D01*
X11430000Y34290000D02*
X3810000Y34290000D01*
X3810000Y34290000D02*
X3810000Y31750000D01*
X3810000Y31750000D02*
X11430000Y31750000D01*
X11430000Y31750000D02*
X11430000Y34290000D01*
D14*
G36*
X32504380Y22400260D02*
X32468820Y22420580D01*
X32390080Y22468840D01*
X32278320Y22542500D01*
X32146240Y22628860D01*
X32014160Y22720300D01*
X31904940Y22791420D01*
X31828740Y22842220D01*
X31798260Y22860000D01*
X31780480Y22852380D01*
X31716980Y22821900D01*
X31628080Y22776180D01*
X31574740Y22748240D01*
X31490920Y22712680D01*
X31447740Y22705060D01*
X31442660Y22715220D01*
X31412180Y22778720D01*
X31363920Y22887940D01*
X31300420Y23032720D01*
X31226760Y23202900D01*
X31150560Y23385780D01*
X31071820Y23571200D01*
X30998160Y23749000D01*
X30934660Y23909020D01*
X30881320Y24041100D01*
X30845760Y24130000D01*
X30833060Y24168100D01*
X30838140Y24178260D01*
X30878780Y24218900D01*
X30952440Y24272240D01*
X31109920Y24401780D01*
X31267400Y24594820D01*
X31361380Y24815800D01*
X31394400Y25062180D01*
X31366460Y25290780D01*
X31277560Y25509220D01*
X31125160Y25704800D01*
X30939740Y25852120D01*
X30723840Y25943560D01*
X30480000Y25974040D01*
X30248860Y25948640D01*
X30025340Y25859740D01*
X29827220Y25709880D01*
X29743400Y25613360D01*
X29629100Y25415240D01*
X29565600Y25201880D01*
X29557980Y25146000D01*
X29568140Y24912320D01*
X29636720Y24688800D01*
X29761180Y24488140D01*
X29931360Y24323040D01*
X29954220Y24307800D01*
X30032960Y24246840D01*
X30086300Y24206200D01*
X30129480Y24173180D01*
X29829760Y23454360D01*
X29781500Y23340060D01*
X29700220Y23141940D01*
X29629100Y22974300D01*
X29570680Y22839680D01*
X29530040Y22748240D01*
X29512260Y22712680D01*
X29512260Y22710140D01*
X29484320Y22705060D01*
X29430980Y22725380D01*
X29329380Y22773640D01*
X29263340Y22809200D01*
X29187140Y22844760D01*
X29151580Y22860000D01*
X29123640Y22842220D01*
X29049980Y22796500D01*
X28943300Y22725380D01*
X28813760Y22636480D01*
X28691840Y22552660D01*
X28580080Y22479000D01*
X28498800Y22425660D01*
X28458160Y22405340D01*
X28453080Y22405340D01*
X28417520Y22425660D01*
X28351480Y22479000D01*
X28254960Y22570440D01*
X28115260Y22707600D01*
X28094940Y22730460D01*
X27980640Y22844760D01*
X27889200Y22941280D01*
X27825700Y23012400D01*
X27802840Y23042880D01*
X27802840Y23042880D01*
X27823160Y23080980D01*
X27876500Y23164800D01*
X27950160Y23279100D01*
X28041600Y23411180D01*
X28280360Y23756620D01*
X28148280Y24084280D01*
X28107640Y24183340D01*
X28056840Y24305260D01*
X28018740Y24391620D01*
X28000960Y24429720D01*
X27965400Y24442420D01*
X27876500Y24462740D01*
X27746960Y24490680D01*
X27592020Y24518620D01*
X27444700Y24546560D01*
X27312620Y24571960D01*
X27216100Y24589740D01*
X27172920Y24597360D01*
X27162760Y24604980D01*
X27152600Y24625300D01*
X27147520Y24671020D01*
X27144980Y24752300D01*
X27142440Y24879300D01*
X27142440Y25062180D01*
X27142440Y25082500D01*
X27144980Y25257760D01*
X27147520Y25397460D01*
X27152600Y25488900D01*
X27157680Y25524460D01*
X27157680Y25524460D01*
X27200860Y25534620D01*
X27294840Y25554940D01*
X27426920Y25580340D01*
X27584400Y25610820D01*
X27594560Y25613360D01*
X27752040Y25643840D01*
X27886660Y25671780D01*
X27978100Y25692100D01*
X28016200Y25704800D01*
X28026360Y25714960D01*
X28056840Y25778460D01*
X28102560Y25874980D01*
X28155900Y25994360D01*
X28206700Y26118820D01*
X28249880Y26230580D01*
X28280360Y26314400D01*
X28290520Y26352500D01*
X28290520Y26352500D01*
X28265120Y26390600D01*
X28211780Y26471880D01*
X28135580Y26586180D01*
X28041600Y26720800D01*
X28036520Y26730960D01*
X27945080Y26863040D01*
X27871420Y26977340D01*
X27823160Y27058620D01*
X27802840Y27094180D01*
X27805380Y27096720D01*
X27833320Y27134820D01*
X27901900Y27211020D01*
X27998420Y27312620D01*
X28115260Y27432000D01*
X28153360Y27467560D01*
X28282900Y27594560D01*
X28374340Y27678380D01*
X28430220Y27721560D01*
X28455620Y27731720D01*
X28458160Y27731720D01*
X28498800Y27706320D01*
X28582620Y27650440D01*
X28696920Y27574240D01*
X28831540Y27482800D01*
X28841700Y27475180D01*
X28973780Y27383740D01*
X29085540Y27310080D01*
X29164280Y27256740D01*
X29199840Y27236420D01*
X29204920Y27236420D01*
X29260800Y27251660D01*
X29354780Y27284680D01*
X29471620Y27330400D01*
X29596080Y27381200D01*
X29707840Y27426920D01*
X29791660Y27465020D01*
X29829760Y27487880D01*
X29832300Y27490420D01*
X29845000Y27538680D01*
X29867860Y27637740D01*
X29898340Y27774900D01*
X29928820Y27940000D01*
X29933900Y27965400D01*
X29964380Y28125420D01*
X29989780Y28254960D01*
X30007560Y28346400D01*
X30017720Y28384500D01*
X30040580Y28389580D01*
X30116780Y28394660D01*
X30236160Y28397200D01*
X30378400Y28399740D01*
X30530800Y28399740D01*
X30678120Y28394660D01*
X30802580Y28392120D01*
X30894020Y28384500D01*
X30932120Y28376880D01*
X30932120Y28374340D01*
X30947360Y28326080D01*
X30967680Y28227020D01*
X30995620Y28087320D01*
X31028640Y27924760D01*
X31033720Y27894280D01*
X31064200Y27736800D01*
X31089600Y27607260D01*
X31109920Y27515820D01*
X31120080Y27480260D01*
X31132780Y27472640D01*
X31198820Y27444700D01*
X31305500Y27401520D01*
X31437580Y27348180D01*
X31742380Y27223720D01*
X32118300Y27480260D01*
X32151320Y27503120D01*
X32285940Y27597100D01*
X32397700Y27670760D01*
X32473900Y27719020D01*
X32506920Y27736800D01*
X32509460Y27736800D01*
X32547560Y27703780D01*
X32621220Y27635200D01*
X32722820Y27536140D01*
X32839660Y27416760D01*
X32928560Y27330400D01*
X33030160Y27226260D01*
X33096200Y27155140D01*
X33131760Y27109420D01*
X33144460Y27081480D01*
X33141920Y27063700D01*
X33116520Y27025600D01*
X33063180Y26941780D01*
X32984440Y26830020D01*
X32893000Y26695400D01*
X32819340Y26586180D01*
X32738060Y26459180D01*
X32684720Y26370280D01*
X32666940Y26327100D01*
X32672020Y26306780D01*
X32697420Y26235660D01*
X32740600Y26123900D01*
X32799020Y25991820D01*
X32928560Y25694640D01*
X33121600Y25656540D01*
X33240980Y25636220D01*
X33406080Y25603200D01*
X33563560Y25572720D01*
X33809940Y25524460D01*
X33817560Y24620220D01*
X33779460Y24604980D01*
X33743900Y24594820D01*
X33652460Y24574500D01*
X33522920Y24549100D01*
X33367980Y24521160D01*
X33238440Y24495760D01*
X33106360Y24470360D01*
X33009840Y24452580D01*
X32969200Y24442420D01*
X32959040Y24429720D01*
X32926020Y24366220D01*
X32877760Y24264620D01*
X32826960Y24142700D01*
X32773620Y24015700D01*
X32727900Y23898860D01*
X32694880Y23809960D01*
X32682180Y23761700D01*
X32699960Y23728680D01*
X32750760Y23649940D01*
X32821880Y23540720D01*
X32913320Y23408640D01*
X33002220Y23279100D01*
X33078420Y23164800D01*
X33129220Y23086060D01*
X33152080Y23047960D01*
X33141920Y23022560D01*
X33088580Y22959060D01*
X32989520Y22857460D01*
X32842200Y22712680D01*
X32819340Y22689820D01*
X32702500Y22575520D01*
X32603440Y22484080D01*
X32534860Y22423120D01*
X32504380Y22400260D01*
X32504380Y22400260D01*
G37*
X32504380Y22400260D02*
X32468820Y22420580D01*
X32390080Y22468840D01*
X32278320Y22542500D01*
X32146240Y22628860D01*
X32014160Y22720300D01*
X31904940Y22791420D01*
X31828740Y22842220D01*
X31798260Y22860000D01*
X31780480Y22852380D01*
X31716980Y22821900D01*
X31628080Y22776180D01*
X31574740Y22748240D01*
X31490920Y22712680D01*
X31447740Y22705060D01*
X31442660Y22715220D01*
X31412180Y22778720D01*
X31363920Y22887940D01*
X31300420Y23032720D01*
X31226760Y23202900D01*
X31150560Y23385780D01*
X31071820Y23571200D01*
X30998160Y23749000D01*
X30934660Y23909020D01*
X30881320Y24041100D01*
X30845760Y24130000D01*
X30833060Y24168100D01*
X30838140Y24178260D01*
X30878780Y24218900D01*
X30952440Y24272240D01*
X31109920Y24401780D01*
X31267400Y24594820D01*
X31361380Y24815800D01*
X31394400Y25062180D01*
X31366460Y25290780D01*
X31277560Y25509220D01*
X31125160Y25704800D01*
X30939740Y25852120D01*
X30723840Y25943560D01*
X30480000Y25974040D01*
X30248860Y25948640D01*
X30025340Y25859740D01*
X29827220Y25709880D01*
X29743400Y25613360D01*
X29629100Y25415240D01*
X29565600Y25201880D01*
X29557980Y25146000D01*
X29568140Y24912320D01*
X29636720Y24688800D01*
X29761180Y24488140D01*
X29931360Y24323040D01*
X29954220Y24307800D01*
X30032960Y24246840D01*
X30086300Y24206200D01*
X30129480Y24173180D01*
X29829760Y23454360D01*
X29781500Y23340060D01*
X29700220Y23141940D01*
X29629100Y22974300D01*
X29570680Y22839680D01*
X29530040Y22748240D01*
X29512260Y22712680D01*
X29512260Y22710140D01*
X29484320Y22705060D01*
X29430980Y22725380D01*
X29329380Y22773640D01*
X29263340Y22809200D01*
X29187140Y22844760D01*
X29151580Y22860000D01*
X29123640Y22842220D01*
X29049980Y22796500D01*
X28943300Y22725380D01*
X28813760Y22636480D01*
X28691840Y22552660D01*
X28580080Y22479000D01*
X28498800Y22425660D01*
X28458160Y22405340D01*
X28453080Y22405340D01*
X28417520Y22425660D01*
X28351480Y22479000D01*
X28254960Y22570440D01*
X28115260Y22707600D01*
X28094940Y22730460D01*
X27980640Y22844760D01*
X27889200Y22941280D01*
X27825700Y23012400D01*
X27802840Y23042880D01*
X27802840Y23042880D01*
X27823160Y23080980D01*
X27876500Y23164800D01*
X27950160Y23279100D01*
X28041600Y23411180D01*
X28280360Y23756620D01*
X28148280Y24084280D01*
X28107640Y24183340D01*
X28056840Y24305260D01*
X28018740Y24391620D01*
X28000960Y24429720D01*
X27965400Y24442420D01*
X27876500Y24462740D01*
X27746960Y24490680D01*
X27592020Y24518620D01*
X27444700Y24546560D01*
X27312620Y24571960D01*
X27216100Y24589740D01*
X27172920Y24597360D01*
X27162760Y24604980D01*
X27152600Y24625300D01*
X27147520Y24671020D01*
X27144980Y24752300D01*
X27142440Y24879300D01*
X27142440Y25062180D01*
X27142440Y25082500D01*
X27144980Y25257760D01*
X27147520Y25397460D01*
X27152600Y25488900D01*
X27157680Y25524460D01*
X27157680Y25524460D01*
X27200860Y25534620D01*
X27294840Y25554940D01*
X27426920Y25580340D01*
X27584400Y25610820D01*
X27594560Y25613360D01*
X27752040Y25643840D01*
X27886660Y25671780D01*
X27978100Y25692100D01*
X28016200Y25704800D01*
X28026360Y25714960D01*
X28056840Y25778460D01*
X28102560Y25874980D01*
X28155900Y25994360D01*
X28206700Y26118820D01*
X28249880Y26230580D01*
X28280360Y26314400D01*
X28290520Y26352500D01*
X28290520Y26352500D01*
X28265120Y26390600D01*
X28211780Y26471880D01*
X28135580Y26586180D01*
X28041600Y26720800D01*
X28036520Y26730960D01*
X27945080Y26863040D01*
X27871420Y26977340D01*
X27823160Y27058620D01*
X27802840Y27094180D01*
X27805380Y27096720D01*
X27833320Y27134820D01*
X27901900Y27211020D01*
X27998420Y27312620D01*
X28115260Y27432000D01*
X28153360Y27467560D01*
X28282900Y27594560D01*
X28374340Y27678380D01*
X28430220Y27721560D01*
X28455620Y27731720D01*
X28458160Y27731720D01*
X28498800Y27706320D01*
X28582620Y27650440D01*
X28696920Y27574240D01*
X28831540Y27482800D01*
X28841700Y27475180D01*
X28973780Y27383740D01*
X29085540Y27310080D01*
X29164280Y27256740D01*
X29199840Y27236420D01*
X29204920Y27236420D01*
X29260800Y27251660D01*
X29354780Y27284680D01*
X29471620Y27330400D01*
X29596080Y27381200D01*
X29707840Y27426920D01*
X29791660Y27465020D01*
X29829760Y27487880D01*
X29832300Y27490420D01*
X29845000Y27538680D01*
X29867860Y27637740D01*
X29898340Y27774900D01*
X29928820Y27940000D01*
X29933900Y27965400D01*
X29964380Y28125420D01*
X29989780Y28254960D01*
X30007560Y28346400D01*
X30017720Y28384500D01*
X30040580Y28389580D01*
X30116780Y28394660D01*
X30236160Y28397200D01*
X30378400Y28399740D01*
X30530800Y28399740D01*
X30678120Y28394660D01*
X30802580Y28392120D01*
X30894020Y28384500D01*
X30932120Y28376880D01*
X30932120Y28374340D01*
X30947360Y28326080D01*
X30967680Y28227020D01*
X30995620Y28087320D01*
X31028640Y27924760D01*
X31033720Y27894280D01*
X31064200Y27736800D01*
X31089600Y27607260D01*
X31109920Y27515820D01*
X31120080Y27480260D01*
X31132780Y27472640D01*
X31198820Y27444700D01*
X31305500Y27401520D01*
X31437580Y27348180D01*
X31742380Y27223720D01*
X32118300Y27480260D01*
X32151320Y27503120D01*
X32285940Y27597100D01*
X32397700Y27670760D01*
X32473900Y27719020D01*
X32506920Y27736800D01*
X32509460Y27736800D01*
X32547560Y27703780D01*
X32621220Y27635200D01*
X32722820Y27536140D01*
X32839660Y27416760D01*
X32928560Y27330400D01*
X33030160Y27226260D01*
X33096200Y27155140D01*
X33131760Y27109420D01*
X33144460Y27081480D01*
X33141920Y27063700D01*
X33116520Y27025600D01*
X33063180Y26941780D01*
X32984440Y26830020D01*
X32893000Y26695400D01*
X32819340Y26586180D01*
X32738060Y26459180D01*
X32684720Y26370280D01*
X32666940Y26327100D01*
X32672020Y26306780D01*
X32697420Y26235660D01*
X32740600Y26123900D01*
X32799020Y25991820D01*
X32928560Y25694640D01*
X33121600Y25656540D01*
X33240980Y25636220D01*
X33406080Y25603200D01*
X33563560Y25572720D01*
X33809940Y25524460D01*
X33817560Y24620220D01*
X33779460Y24604980D01*
X33743900Y24594820D01*
X33652460Y24574500D01*
X33522920Y24549100D01*
X33367980Y24521160D01*
X33238440Y24495760D01*
X33106360Y24470360D01*
X33009840Y24452580D01*
X32969200Y24442420D01*
X32959040Y24429720D01*
X32926020Y24366220D01*
X32877760Y24264620D01*
X32826960Y24142700D01*
X32773620Y24015700D01*
X32727900Y23898860D01*
X32694880Y23809960D01*
X32682180Y23761700D01*
X32699960Y23728680D01*
X32750760Y23649940D01*
X32821880Y23540720D01*
X32913320Y23408640D01*
X33002220Y23279100D01*
X33078420Y23164800D01*
X33129220Y23086060D01*
X33152080Y23047960D01*
X33141920Y23022560D01*
X33088580Y22959060D01*
X32989520Y22857460D01*
X32842200Y22712680D01*
X32819340Y22689820D01*
X32702500Y22575520D01*
X32603440Y22484080D01*
X32534860Y22423120D01*
X32504380Y22400260D01*
D12*
G36*
X50196750Y14207183D02*
X49974500Y14177492D01*
X49849333Y14164224D01*
X49655075Y14150185D01*
X49407290Y14136189D01*
X49121539Y14123050D01*
X48813385Y14111583D01*
X48585422Y14104794D01*
X47492677Y14075833D01*
X47251922Y13835747D01*
X47106461Y13692396D01*
X46930673Y13521636D01*
X46756003Y13353958D01*
X46706164Y13306580D01*
X46401161Y13017500D01*
X46372106Y12327706D01*
X46361700Y12071138D01*
X46356462Y11881880D01*
X46357965Y11742653D01*
X46367778Y11636177D01*
X46387473Y11545174D01*
X46418622Y11452363D01*
X46461590Y11343456D01*
X46513090Y11216391D01*
X46558099Y11129740D01*
X46612544Y11077773D01*
X46692356Y11054758D01*
X46813463Y11054964D01*
X46991795Y11072658D01*
X47159334Y11092395D01*
X47341027Y11118182D01*
X47521528Y11150912D01*
X47625000Y11174347D01*
X47784606Y11215910D01*
X47942677Y11256976D01*
X47975612Y11265515D01*
X48105098Y11324364D01*
X48270398Y11438513D01*
X48419242Y11563933D01*
X48430690Y11573658D01*
X47990474Y11573658D01*
X47988810Y11568032D01*
X47928981Y11540666D01*
X47806367Y11504529D01*
X47641810Y11464089D01*
X47456149Y11423816D01*
X47270224Y11388179D01*
X47104877Y11361647D01*
X46980947Y11348690D01*
X46963386Y11348126D01*
X46833607Y11350338D01*
X46760694Y11370360D01*
X46716952Y11421810D01*
X46689229Y11482917D01*
X46635836Y11656199D01*
X46635846Y11811369D01*
X46693988Y11969537D01*
X46814992Y12151813D01*
X46848787Y12195073D01*
X46967076Y12336521D01*
X47055866Y12421415D01*
X47132615Y12463652D01*
X47202279Y12476454D01*
X47337599Y12470014D01*
X47432784Y12436234D01*
X47471561Y12383972D01*
X47454756Y12339069D01*
X47425473Y12263650D01*
X47471441Y12211507D01*
X47584394Y12192000D01*
X47584633Y12192000D01*
X47651062Y12184403D01*
X47704980Y12151212D01*
X47760676Y12076827D01*
X47832436Y11945648D01*
X47860019Y11891328D01*
X47928099Y11748268D01*
X47974172Y11635881D01*
X47990474Y11573658D01*
X48430690Y11573658D01*
X48594500Y11712803D01*
X48802645Y11875062D01*
X49004188Y12020168D01*
X49042297Y12045815D01*
X49267229Y12210215D01*
X49507440Y12417166D01*
X49668634Y12574421D01*
X49243715Y12574421D01*
X49213911Y12532285D01*
X49206825Y12524396D01*
X49143542Y12467873D01*
X49028312Y12376824D01*
X48878819Y12264885D01*
X48747910Y12170500D01*
X48576638Y12045400D01*
X48418990Y11923672D01*
X48295601Y11821600D01*
X48239168Y11769016D01*
X48152403Y11689228D01*
X48084137Y11644889D01*
X48070666Y11641667D01*
X48030419Y11676960D01*
X47968003Y11769890D01*
X47896323Y11901030D01*
X47890181Y11913388D01*
X47821684Y12058864D01*
X47790230Y12149166D01*
X47791600Y12203052D01*
X47817595Y12236072D01*
X47870196Y12307751D01*
X47871554Y12313457D01*
X47746960Y12313457D01*
X47714884Y12279142D01*
X47708481Y12275038D01*
X47623024Y12237369D01*
X47570682Y12262933D01*
X47563308Y12273742D01*
X47565151Y12324138D01*
X47621755Y12351154D01*
X47699925Y12341641D01*
X47746960Y12313457D01*
X47871554Y12313457D01*
X47879000Y12344741D01*
X47915630Y12396460D01*
X48010622Y12462893D01*
X48141630Y12533166D01*
X48286311Y12596406D01*
X48422317Y12641739D01*
X48523377Y12658315D01*
X48637673Y12669268D01*
X48718587Y12694724D01*
X48718944Y12694949D01*
X48792315Y12705288D01*
X48921741Y12690423D01*
X49027364Y12667545D01*
X49163909Y12631308D01*
X49231537Y12603848D01*
X49243715Y12574421D01*
X49668634Y12574421D01*
X49771733Y12675000D01*
X50068910Y12992045D01*
X50216083Y13156672D01*
X50393312Y13385272D01*
X50449253Y13489642D01*
X50105225Y13489642D01*
X50101311Y13459600D01*
X50094020Y13445626D01*
X50038488Y13370687D01*
X49940836Y13261183D01*
X49815480Y13131047D01*
X49676837Y12994209D01*
X49539321Y12864603D01*
X49417348Y12756161D01*
X49325335Y12682814D01*
X49279376Y12658309D01*
X49198121Y12670530D01*
X49077698Y12700201D01*
X49039823Y12711226D01*
X48913985Y12760310D01*
X48872061Y12784667D01*
X48683334Y12784667D01*
X48647106Y12752844D01*
X48577500Y12742333D01*
X48497943Y12756825D01*
X48471667Y12784667D01*
X48507895Y12816490D01*
X48577500Y12827000D01*
X48657058Y12812509D01*
X48683334Y12784667D01*
X48872061Y12784667D01*
X48815848Y12817325D01*
X48799540Y12831426D01*
X48770925Y12870197D01*
X48773871Y12913363D01*
X48817077Y12976279D01*
X48909244Y13074300D01*
X48973445Y13138343D01*
X49134754Y13284030D01*
X49256488Y13361601D01*
X49321678Y13377333D01*
X49419444Y13392498D01*
X49469540Y13418473D01*
X49529503Y13442253D01*
X49649312Y13466674D01*
X49804329Y13486843D01*
X49822481Y13488592D01*
X49945095Y13498791D01*
X49397960Y13498791D01*
X49365884Y13464476D01*
X49359481Y13460371D01*
X49271111Y13424334D01*
X49206606Y13430826D01*
X49191334Y13459502D01*
X49225719Y13519286D01*
X49306201Y13537286D01*
X49350925Y13526974D01*
X49397960Y13498791D01*
X49945095Y13498791D01*
X49980825Y13501763D01*
X50070068Y13502905D01*
X50105225Y13489642D01*
X50449253Y13489642D01*
X50520116Y13621852D01*
X50565234Y13735637D01*
X50624135Y13915898D01*
X50317881Y13915898D01*
X50316935Y13865704D01*
X50283878Y13770404D01*
X50264891Y13728999D01*
X50221169Y13646030D01*
X50175648Y13595977D01*
X50105729Y13567860D01*
X49988814Y13550700D01*
X49876232Y13540160D01*
X49665353Y13530067D01*
X49522142Y13544862D01*
X49462465Y13566355D01*
X49324806Y13599663D01*
X49222067Y13591956D01*
X49125486Y13559103D01*
X49088947Y13499440D01*
X49085500Y13451213D01*
X49055434Y13361628D01*
X48977967Y13244433D01*
X48872198Y13120295D01*
X48757224Y13009879D01*
X48652145Y12933852D01*
X48586892Y12911667D01*
X48479796Y12891601D01*
X48394209Y12842992D01*
X48356920Y12783225D01*
X48359698Y12764224D01*
X48337308Y12714828D01*
X48254581Y12648458D01*
X48131389Y12575264D01*
X47987598Y12505398D01*
X47843079Y12449010D01*
X47717699Y12416250D01*
X47670055Y12411898D01*
X47553728Y12423323D01*
X47471256Y12451507D01*
X47466250Y12455181D01*
X47421383Y12531424D01*
X47413334Y12582147D01*
X47413024Y12582821D01*
X47268802Y12582821D01*
X47263359Y12570075D01*
X47200855Y12533587D01*
X47124619Y12544793D01*
X47098575Y12568564D01*
X47108707Y12609934D01*
X47166032Y12639340D01*
X47233184Y12640547D01*
X47248511Y12633712D01*
X47268802Y12582821D01*
X47413024Y12582821D01*
X47376888Y12661272D01*
X47328667Y12687734D01*
X47271353Y12732446D01*
X47248278Y12795160D01*
X47203681Y12795160D01*
X47168201Y12721657D01*
X47106417Y12692361D01*
X47029957Y12654668D01*
X46997364Y12557563D01*
X46997018Y12554607D01*
X46962429Y12452559D01*
X46888764Y12323700D01*
X46827685Y12240681D01*
X46672500Y12050981D01*
X46659929Y12360946D01*
X46656492Y12520453D01*
X46659225Y12649883D01*
X46667519Y12723110D01*
X46668450Y12725876D01*
X46726105Y12788642D01*
X46834211Y12854268D01*
X46960414Y12907962D01*
X47072360Y12934930D01*
X47119408Y12932069D01*
X47188043Y12876863D01*
X47203681Y12795160D01*
X47248278Y12795160D01*
X47243879Y12807114D01*
X47250645Y12878052D01*
X47296053Y12911577D01*
X47299409Y12911667D01*
X47375610Y12935098D01*
X47435395Y12970586D01*
X47489359Y13024963D01*
X47485438Y13038667D01*
X47349834Y13038667D01*
X47290124Y13003104D01*
X47241502Y12996333D01*
X47174080Y13014543D01*
X47159334Y13038667D01*
X47195637Y13070220D01*
X47267666Y13081000D01*
X47339691Y13067562D01*
X47349834Y13038667D01*
X47485438Y13038667D01*
X47473822Y13079256D01*
X47459469Y13097586D01*
X47361414Y13156398D01*
X47234233Y13158558D01*
X47109374Y13106573D01*
X47062062Y13065905D01*
X46968639Y12984364D01*
X46856610Y12911061D01*
X46750536Y12859209D01*
X46674975Y12842020D01*
X46658021Y12848535D01*
X46677687Y12885314D01*
X46750025Y12968857D01*
X46865221Y13088796D01*
X47013461Y13234766D01*
X47115929Y13332171D01*
X47601614Y13788028D01*
X48428224Y13815601D01*
X48730120Y13827467D01*
X49045737Y13842970D01*
X49348939Y13860617D01*
X49613589Y13878917D01*
X49773490Y13892403D01*
X49974281Y13909297D01*
X50143245Y13919432D01*
X50263250Y13922070D01*
X50317163Y13916470D01*
X50317881Y13915898D01*
X50624135Y13915898D01*
X50627391Y13925860D01*
X50649916Y14064103D01*
X50625460Y14155862D01*
X50546679Y14206631D01*
X50406224Y14221907D01*
X50196750Y14207183D01*
X50196750Y14207183D01*
G37*
X50196750Y14207183D02*
X49974500Y14177492D01*
X49849333Y14164224D01*
X49655075Y14150185D01*
X49407290Y14136189D01*
X49121539Y14123050D01*
X48813385Y14111583D01*
X48585422Y14104794D01*
X47492677Y14075833D01*
X47251922Y13835747D01*
X47106461Y13692396D01*
X46930673Y13521636D01*
X46756003Y13353958D01*
X46706164Y13306580D01*
X46401161Y13017500D01*
X46372106Y12327706D01*
X46361700Y12071138D01*
X46356462Y11881880D01*
X46357965Y11742653D01*
X46367778Y11636177D01*
X46387473Y11545174D01*
X46418622Y11452363D01*
X46461590Y11343456D01*
X46513090Y11216391D01*
X46558099Y11129740D01*
X46612544Y11077773D01*
X46692356Y11054758D01*
X46813463Y11054964D01*
X46991795Y11072658D01*
X47159334Y11092395D01*
X47341027Y11118182D01*
X47521528Y11150912D01*
X47625000Y11174347D01*
X47784606Y11215910D01*
X47942677Y11256976D01*
X47975612Y11265515D01*
X48105098Y11324364D01*
X48270398Y11438513D01*
X48419242Y11563933D01*
X48430690Y11573658D01*
X47990474Y11573658D01*
X47988810Y11568032D01*
X47928981Y11540666D01*
X47806367Y11504529D01*
X47641810Y11464089D01*
X47456149Y11423816D01*
X47270224Y11388179D01*
X47104877Y11361647D01*
X46980947Y11348690D01*
X46963386Y11348126D01*
X46833607Y11350338D01*
X46760694Y11370360D01*
X46716952Y11421810D01*
X46689229Y11482917D01*
X46635836Y11656199D01*
X46635846Y11811369D01*
X46693988Y11969537D01*
X46814992Y12151813D01*
X46848787Y12195073D01*
X46967076Y12336521D01*
X47055866Y12421415D01*
X47132615Y12463652D01*
X47202279Y12476454D01*
X47337599Y12470014D01*
X47432784Y12436234D01*
X47471561Y12383972D01*
X47454756Y12339069D01*
X47425473Y12263650D01*
X47471441Y12211507D01*
X47584394Y12192000D01*
X47584633Y12192000D01*
X47651062Y12184403D01*
X47704980Y12151212D01*
X47760676Y12076827D01*
X47832436Y11945648D01*
X47860019Y11891328D01*
X47928099Y11748268D01*
X47974172Y11635881D01*
X47990474Y11573658D01*
X48430690Y11573658D01*
X48594500Y11712803D01*
X48802645Y11875062D01*
X49004188Y12020168D01*
X49042297Y12045815D01*
X49267229Y12210215D01*
X49507440Y12417166D01*
X49668634Y12574421D01*
X49243715Y12574421D01*
X49213911Y12532285D01*
X49206825Y12524396D01*
X49143542Y12467873D01*
X49028312Y12376824D01*
X48878819Y12264885D01*
X48747910Y12170500D01*
X48576638Y12045400D01*
X48418990Y11923672D01*
X48295601Y11821600D01*
X48239168Y11769016D01*
X48152403Y11689228D01*
X48084137Y11644889D01*
X48070666Y11641667D01*
X48030419Y11676960D01*
X47968003Y11769890D01*
X47896323Y11901030D01*
X47890181Y11913388D01*
X47821684Y12058864D01*
X47790230Y12149166D01*
X47791600Y12203052D01*
X47817595Y12236072D01*
X47870196Y12307751D01*
X47871554Y12313457D01*
X47746960Y12313457D01*
X47714884Y12279142D01*
X47708481Y12275038D01*
X47623024Y12237369D01*
X47570682Y12262933D01*
X47563308Y12273742D01*
X47565151Y12324138D01*
X47621755Y12351154D01*
X47699925Y12341641D01*
X47746960Y12313457D01*
X47871554Y12313457D01*
X47879000Y12344741D01*
X47915630Y12396460D01*
X48010622Y12462893D01*
X48141630Y12533166D01*
X48286311Y12596406D01*
X48422317Y12641739D01*
X48523377Y12658315D01*
X48637673Y12669268D01*
X48718587Y12694724D01*
X48718944Y12694949D01*
X48792315Y12705288D01*
X48921741Y12690423D01*
X49027364Y12667545D01*
X49163909Y12631308D01*
X49231537Y12603848D01*
X49243715Y12574421D01*
X49668634Y12574421D01*
X49771733Y12675000D01*
X50068910Y12992045D01*
X50216083Y13156672D01*
X50393312Y13385272D01*
X50449253Y13489642D01*
X50105225Y13489642D01*
X50101311Y13459600D01*
X50094020Y13445626D01*
X50038488Y13370687D01*
X49940836Y13261183D01*
X49815480Y13131047D01*
X49676837Y12994209D01*
X49539321Y12864603D01*
X49417348Y12756161D01*
X49325335Y12682814D01*
X49279376Y12658309D01*
X49198121Y12670530D01*
X49077698Y12700201D01*
X49039823Y12711226D01*
X48913985Y12760310D01*
X48872061Y12784667D01*
X48683334Y12784667D01*
X48647106Y12752844D01*
X48577500Y12742333D01*
X48497943Y12756825D01*
X48471667Y12784667D01*
X48507895Y12816490D01*
X48577500Y12827000D01*
X48657058Y12812509D01*
X48683334Y12784667D01*
X48872061Y12784667D01*
X48815848Y12817325D01*
X48799540Y12831426D01*
X48770925Y12870197D01*
X48773871Y12913363D01*
X48817077Y12976279D01*
X48909244Y13074300D01*
X48973445Y13138343D01*
X49134754Y13284030D01*
X49256488Y13361601D01*
X49321678Y13377333D01*
X49419444Y13392498D01*
X49469540Y13418473D01*
X49529503Y13442253D01*
X49649312Y13466674D01*
X49804329Y13486843D01*
X49822481Y13488592D01*
X49945095Y13498791D01*
X49397960Y13498791D01*
X49365884Y13464476D01*
X49359481Y13460371D01*
X49271111Y13424334D01*
X49206606Y13430826D01*
X49191334Y13459502D01*
X49225719Y13519286D01*
X49306201Y13537286D01*
X49350925Y13526974D01*
X49397960Y13498791D01*
X49945095Y13498791D01*
X49980825Y13501763D01*
X50070068Y13502905D01*
X50105225Y13489642D01*
X50449253Y13489642D01*
X50520116Y13621852D01*
X50565234Y13735637D01*
X50624135Y13915898D01*
X50317881Y13915898D01*
X50316935Y13865704D01*
X50283878Y13770404D01*
X50264891Y13728999D01*
X50221169Y13646030D01*
X50175648Y13595977D01*
X50105729Y13567860D01*
X49988814Y13550700D01*
X49876232Y13540160D01*
X49665353Y13530067D01*
X49522142Y13544862D01*
X49462465Y13566355D01*
X49324806Y13599663D01*
X49222067Y13591956D01*
X49125486Y13559103D01*
X49088947Y13499440D01*
X49085500Y13451213D01*
X49055434Y13361628D01*
X48977967Y13244433D01*
X48872198Y13120295D01*
X48757224Y13009879D01*
X48652145Y12933852D01*
X48586892Y12911667D01*
X48479796Y12891601D01*
X48394209Y12842992D01*
X48356920Y12783225D01*
X48359698Y12764224D01*
X48337308Y12714828D01*
X48254581Y12648458D01*
X48131389Y12575264D01*
X47987598Y12505398D01*
X47843079Y12449010D01*
X47717699Y12416250D01*
X47670055Y12411898D01*
X47553728Y12423323D01*
X47471256Y12451507D01*
X47466250Y12455181D01*
X47421383Y12531424D01*
X47413334Y12582147D01*
X47413024Y12582821D01*
X47268802Y12582821D01*
X47263359Y12570075D01*
X47200855Y12533587D01*
X47124619Y12544793D01*
X47098575Y12568564D01*
X47108707Y12609934D01*
X47166032Y12639340D01*
X47233184Y12640547D01*
X47248511Y12633712D01*
X47268802Y12582821D01*
X47413024Y12582821D01*
X47376888Y12661272D01*
X47328667Y12687734D01*
X47271353Y12732446D01*
X47248278Y12795160D01*
X47203681Y12795160D01*
X47168201Y12721657D01*
X47106417Y12692361D01*
X47029957Y12654668D01*
X46997364Y12557563D01*
X46997018Y12554607D01*
X46962429Y12452559D01*
X46888764Y12323700D01*
X46827685Y12240681D01*
X46672500Y12050981D01*
X46659929Y12360946D01*
X46656492Y12520453D01*
X46659225Y12649883D01*
X46667519Y12723110D01*
X46668450Y12725876D01*
X46726105Y12788642D01*
X46834211Y12854268D01*
X46960414Y12907962D01*
X47072360Y12934930D01*
X47119408Y12932069D01*
X47188043Y12876863D01*
X47203681Y12795160D01*
X47248278Y12795160D01*
X47243879Y12807114D01*
X47250645Y12878052D01*
X47296053Y12911577D01*
X47299409Y12911667D01*
X47375610Y12935098D01*
X47435395Y12970586D01*
X47489359Y13024963D01*
X47485438Y13038667D01*
X47349834Y13038667D01*
X47290124Y13003104D01*
X47241502Y12996333D01*
X47174080Y13014543D01*
X47159334Y13038667D01*
X47195637Y13070220D01*
X47267666Y13081000D01*
X47339691Y13067562D01*
X47349834Y13038667D01*
X47485438Y13038667D01*
X47473822Y13079256D01*
X47459469Y13097586D01*
X47361414Y13156398D01*
X47234233Y13158558D01*
X47109374Y13106573D01*
X47062062Y13065905D01*
X46968639Y12984364D01*
X46856610Y12911061D01*
X46750536Y12859209D01*
X46674975Y12842020D01*
X46658021Y12848535D01*
X46677687Y12885314D01*
X46750025Y12968857D01*
X46865221Y13088796D01*
X47013461Y13234766D01*
X47115929Y13332171D01*
X47601614Y13788028D01*
X48428224Y13815601D01*
X48730120Y13827467D01*
X49045737Y13842970D01*
X49348939Y13860617D01*
X49613589Y13878917D01*
X49773490Y13892403D01*
X49974281Y13909297D01*
X50143245Y13919432D01*
X50263250Y13922070D01*
X50317163Y13916470D01*
X50317881Y13915898D01*
X50624135Y13915898D01*
X50627391Y13925860D01*
X50649916Y14064103D01*
X50625460Y14155862D01*
X50546679Y14206631D01*
X50406224Y14221907D01*
X50196750Y14207183D01*
G36*
X43860287Y21289342D02*
X43725175Y21248860D01*
X43635803Y21197778D01*
X43562000Y21112770D01*
X43495474Y21007312D01*
X43438535Y20906815D01*
X43399340Y20816410D01*
X43373434Y20715265D01*
X43356359Y20582549D01*
X43343658Y20397433D01*
X43336958Y20266478D01*
X43317881Y19972073D01*
X43288482Y19708419D01*
X43244280Y19454079D01*
X43180794Y19187613D01*
X43093541Y18887583D01*
X42978041Y18532551D01*
X42968725Y18504914D01*
X42858448Y18153915D01*
X42787647Y17865781D01*
X42755079Y17629147D01*
X42759500Y17432646D01*
X42799665Y17264912D01*
X42826125Y17201925D01*
X42879878Y17109393D01*
X42955707Y17022410D01*
X43065382Y16932042D01*
X43220669Y16829361D01*
X43433339Y16705434D01*
X43604993Y16610848D01*
X43840916Y16479729D01*
X44071111Y16345073D01*
X44307997Y16198852D01*
X44563993Y16033040D01*
X44851517Y15839607D01*
X45182988Y15610528D01*
X45531759Y15365400D01*
X45808566Y15172005D01*
X46029978Y15023133D01*
X46207765Y14911755D01*
X46353694Y14830839D01*
X46479534Y14773357D01*
X46585952Y14735660D01*
X46728928Y14693329D01*
X46835562Y14665216D01*
X46884796Y14656824D01*
X46885773Y14657304D01*
X46882665Y14700592D01*
X46868084Y14814308D01*
X46843898Y14985269D01*
X46834119Y15051133D01*
X46563234Y15051133D01*
X46551720Y15042464D01*
X46513744Y15091833D01*
X46478693Y15151056D01*
X46410678Y15274747D01*
X46315465Y15452086D01*
X46198823Y15672254D01*
X46066519Y15924432D01*
X45927984Y16190724D01*
X45787401Y16464311D01*
X45659426Y16717655D01*
X45549440Y16939762D01*
X45462821Y17119635D01*
X45404949Y17246279D01*
X45381334Y17308031D01*
X45353872Y17363207D01*
X45245118Y17363207D01*
X45232614Y17321147D01*
X45188634Y17320874D01*
X45114390Y17361475D01*
X45094216Y17392460D01*
X45106720Y17434520D01*
X45150700Y17434793D01*
X45224944Y17394192D01*
X45245118Y17363207D01*
X45353872Y17363207D01*
X45331791Y17407569D01*
X45275500Y17457973D01*
X45207210Y17501709D01*
X45161866Y17555234D01*
X45128828Y17640354D01*
X45097461Y17778871D01*
X45083482Y17851549D01*
X45057967Y18013462D01*
X45056543Y18114485D01*
X45079178Y18174884D01*
X45082967Y18179717D01*
X45106841Y18238441D01*
X45091906Y18263474D01*
X44995408Y18263474D01*
X44977390Y18248786D01*
X44928749Y18247013D01*
X44844280Y18261968D01*
X44811642Y18285075D01*
X44805936Y18334395D01*
X44852856Y18347473D01*
X44926400Y18319476D01*
X44941181Y18309157D01*
X44995408Y18263474D01*
X45091906Y18263474D01*
X45066899Y18305387D01*
X45048952Y18324049D01*
X45010409Y18387510D01*
X43969268Y18387510D01*
X43925389Y18373015D01*
X43904851Y18372667D01*
X43831858Y18397945D01*
X43815000Y18436167D01*
X43835105Y18492542D01*
X43852150Y18499667D01*
X43907321Y18470704D01*
X43942000Y18436167D01*
X43969268Y18387510D01*
X45010409Y18387510D01*
X44995681Y18411759D01*
X44950969Y18544686D01*
X44919787Y18695206D01*
X44907105Y18835698D01*
X44917893Y18938538D01*
X44933286Y18966847D01*
X44945270Y19018187D01*
X44941916Y19022510D01*
X44815934Y19022510D01*
X44772056Y19008015D01*
X44751517Y19007667D01*
X44678525Y19032945D01*
X44661667Y19071167D01*
X44681771Y19127542D01*
X44698817Y19134667D01*
X44753988Y19105704D01*
X44788667Y19071167D01*
X44815934Y19022510D01*
X44941916Y19022510D01*
X44888882Y19090863D01*
X44863311Y19113933D01*
X44791119Y19204770D01*
X44707780Y19351105D01*
X44624802Y19526859D01*
X44553693Y19705949D01*
X44505960Y19862295D01*
X44492334Y19954708D01*
X44453846Y20072541D01*
X44313785Y20072541D01*
X44301281Y20030480D01*
X44257301Y20030207D01*
X44183057Y20070808D01*
X44162883Y20101793D01*
X44175387Y20143853D01*
X44219367Y20144126D01*
X44293611Y20103525D01*
X44313785Y20072541D01*
X44453846Y20072541D01*
X44452948Y20075289D01*
X44344417Y20169133D01*
X44204458Y20218825D01*
X44101577Y20226768D01*
X44050719Y20191545D01*
X44043750Y20176456D01*
X44047514Y20082186D01*
X44129895Y19998923D01*
X44280109Y19934166D01*
X44360460Y19904867D01*
X44418534Y19862265D01*
X44468187Y19787921D01*
X44523272Y19663396D01*
X44565870Y19553848D01*
X44692898Y19221087D01*
X44552436Y19194736D01*
X44439024Y19190846D01*
X44427981Y19193896D01*
X44146855Y19193896D01*
X44120324Y19177990D01*
X44080570Y19177000D01*
X43996672Y19193315D01*
X43964975Y19216408D01*
X43960795Y19266958D01*
X44007333Y19286217D01*
X44074396Y19267831D01*
X44103301Y19245509D01*
X44146855Y19193896D01*
X44427981Y19193896D01*
X44309030Y19226748D01*
X44177237Y19287243D01*
X44038619Y19351976D01*
X43952679Y19375689D01*
X43900621Y19362746D01*
X43890286Y19353885D01*
X43864199Y19283016D01*
X43901016Y19208200D01*
X43980964Y19143742D01*
X44084270Y19103944D01*
X44191162Y19103109D01*
X44222797Y19113364D01*
X44344380Y19138363D01*
X44463782Y19122357D01*
X44544439Y19070974D01*
X44549574Y19063059D01*
X44611061Y19005030D01*
X44714106Y18946329D01*
X44729490Y18939632D01*
X44828265Y18885549D01*
X44868141Y18815228D01*
X44873912Y18742515D01*
X44881529Y18616655D01*
X44897644Y18519322D01*
X44902711Y18471275D01*
X44878861Y18438934D01*
X44813372Y18419316D01*
X44693526Y18409439D01*
X44506601Y18406320D01*
X44415491Y18406286D01*
X44215827Y18414815D01*
X44088068Y18440783D01*
X44034491Y18471138D01*
X43925212Y18541693D01*
X43815218Y18570205D01*
X43730508Y18552948D01*
X43702502Y18518730D01*
X43708380Y18435411D01*
X43773855Y18361585D01*
X43873896Y18309203D01*
X43983468Y18290213D01*
X44077540Y18316565D01*
X44095300Y18331233D01*
X44160998Y18349767D01*
X44281731Y18349172D01*
X44431023Y18333212D01*
X44582396Y18305654D01*
X44709374Y18270262D01*
X44782496Y18233503D01*
X44872599Y18172272D01*
X44920813Y18149683D01*
X44973684Y18088095D01*
X45021541Y17942869D01*
X45042423Y17844797D01*
X45068807Y17693375D01*
X45075467Y17602029D01*
X45060652Y17548097D01*
X45022613Y17508917D01*
X45016110Y17503907D01*
X44935849Y17462866D01*
X44889971Y17460041D01*
X44829127Y17470388D01*
X44705586Y17484379D01*
X44541108Y17499679D01*
X44454685Y17506749D01*
X44226767Y17531234D01*
X44199570Y17537049D01*
X43891499Y17537049D01*
X43856228Y17527668D01*
X43816291Y17532518D01*
X43731624Y17563664D01*
X43698372Y17600083D01*
X43708273Y17644648D01*
X43762112Y17648480D01*
X43831091Y17614180D01*
X43860708Y17585434D01*
X43891499Y17537049D01*
X44199570Y17537049D01*
X44070842Y17564572D01*
X43974460Y17609505D01*
X43969041Y17613610D01*
X43853990Y17682404D01*
X43759137Y17718366D01*
X43657908Y17718158D01*
X43610848Y17668190D01*
X43625275Y17589222D01*
X43688263Y17517275D01*
X43769748Y17468565D01*
X43870097Y17453218D01*
X44002239Y17462974D01*
X44167082Y17471689D01*
X44363649Y17465500D01*
X44569954Y17447123D01*
X44764012Y17419273D01*
X44923837Y17384666D01*
X45027444Y17346019D01*
X45044006Y17334288D01*
X45142947Y17271348D01*
X45232627Y17236518D01*
X45271817Y17218275D01*
X45315731Y17178686D01*
X45369413Y17109567D01*
X45437909Y17002733D01*
X45526264Y16849999D01*
X45639524Y16643179D01*
X45782734Y16374090D01*
X45889942Y16170173D01*
X46030886Y15899405D01*
X46156884Y15653717D01*
X46263089Y15442853D01*
X46344657Y15276558D01*
X46396744Y15164577D01*
X46414504Y15116655D01*
X46414194Y15115749D01*
X46374228Y15130839D01*
X46280565Y15186176D01*
X46148178Y15272477D01*
X46026012Y15356472D01*
X45618562Y15639534D01*
X45217720Y15912376D01*
X44834292Y16167936D01*
X44479086Y16399152D01*
X44162909Y16598960D01*
X43896566Y16760298D01*
X43748353Y16845025D01*
X43555772Y16956131D01*
X43379534Y17066581D01*
X43239329Y17163481D01*
X43155686Y17233061D01*
X43076363Y17345295D01*
X43034260Y17484339D01*
X43030006Y17659968D01*
X43064228Y17881959D01*
X43137555Y18160086D01*
X43234340Y18457333D01*
X43352065Y18812619D01*
X43440369Y19118873D01*
X43505149Y19404009D01*
X43552301Y19695944D01*
X43587723Y20022595D01*
X43602221Y20199015D01*
X43621413Y20431979D01*
X43640039Y20597761D01*
X43661854Y20713739D01*
X43690611Y20797286D01*
X43730064Y20865779D01*
X43753088Y20897345D01*
X43850218Y20993014D01*
X43957993Y21034341D01*
X44079910Y21018489D01*
X44219471Y20942621D01*
X44380173Y20803900D01*
X44565516Y20599491D01*
X44778999Y20326556D01*
X45024122Y19982259D01*
X45196437Y19727333D01*
X45303403Y19546903D01*
X45426963Y19301232D01*
X45569326Y18985573D01*
X45732701Y18595175D01*
X45796787Y18436167D01*
X46185878Y17462500D01*
X46355812Y16361833D01*
X46402614Y16059788D01*
X46446351Y15779586D01*
X46485019Y15533894D01*
X46516617Y15335380D01*
X46539141Y15196711D01*
X46549883Y15134167D01*
X46563234Y15051133D01*
X46834119Y15051133D01*
X46811971Y15200295D01*
X46774170Y15446203D01*
X46773374Y15451299D01*
X46735494Y15699955D01*
X46703770Y15920196D01*
X46680038Y16098234D01*
X46666138Y16220283D01*
X46663907Y16272552D01*
X46663911Y16272566D01*
X46690219Y16259868D01*
X46748396Y16188120D01*
X46829121Y16072246D01*
X46923075Y15927170D01*
X47020939Y15767814D01*
X47113393Y15609103D01*
X47191116Y15465959D01*
X47244789Y15353307D01*
X47255881Y15324667D01*
X47302427Y15170716D01*
X47337143Y15018956D01*
X47343293Y14980708D01*
X47351376Y14879367D01*
X47329002Y14836428D01*
X47262296Y14827264D01*
X47256832Y14827250D01*
X47152188Y14802026D01*
X47094092Y14719420D01*
X47075339Y14569032D01*
X47075315Y14565264D01*
X47067303Y14489612D01*
X47036094Y14418395D01*
X46969815Y14335311D01*
X46856594Y14224055D01*
X46767750Y14142909D01*
X46491489Y13888610D01*
X46262404Y13664087D01*
X46060479Y13447604D01*
X45865695Y13217429D01*
X45658032Y12951829D01*
X45600453Y12875609D01*
X45450123Y12673910D01*
X45344282Y12525678D01*
X45275592Y12417427D01*
X45236716Y12335674D01*
X45220315Y12266932D01*
X45219051Y12197717D01*
X45220360Y12177109D01*
X45235583Y12063438D01*
X45269593Y12009717D01*
X45338127Y11991284D01*
X45339000Y11991198D01*
X45453226Y12000976D01*
X45521474Y12026483D01*
X45572296Y12077815D01*
X45657069Y12185982D01*
X45764775Y12336081D01*
X45884397Y12513208D01*
X45907684Y12548874D01*
X46051665Y12764411D01*
X46173047Y12927589D01*
X46290719Y13059852D01*
X46423572Y13182646D01*
X46571877Y13302902D01*
X46804571Y13494781D01*
X47022636Y13693148D01*
X47213940Y13885491D01*
X47366355Y14059295D01*
X47467749Y14202047D01*
X47494087Y14254257D01*
X47534822Y14341523D01*
X47569122Y14360188D01*
X47617635Y14322080D01*
X47649749Y14298622D01*
X47699656Y14282207D01*
X47779152Y14272332D01*
X47900027Y14268493D01*
X48074076Y14270188D01*
X48313092Y14276914D01*
X48512701Y14283884D01*
X48834839Y14297188D01*
X49189884Y14314489D01*
X49545422Y14334041D01*
X49869041Y14354101D01*
X50041029Y14366146D01*
X50363014Y14393024D01*
X50619318Y14425624D01*
X50827726Y14472416D01*
X51006024Y14541868D01*
X51171998Y14642449D01*
X51343434Y14782627D01*
X51538117Y14970870D01*
X51731334Y15170976D01*
X51879603Y15324949D01*
X52076816Y15527237D01*
X52311811Y15766526D01*
X52573427Y16031504D01*
X52850501Y16310855D01*
X53131871Y16593265D01*
X53322607Y16783918D01*
X53633338Y17095478D01*
X53886955Y17353391D01*
X54087734Y17562313D01*
X54239954Y17726904D01*
X54347892Y17851820D01*
X54390721Y17908498D01*
X54037743Y17908498D01*
X53000955Y16857777D01*
X52734983Y16587790D01*
X52467798Y16315765D01*
X52210377Y16052935D01*
X51973699Y15810537D01*
X51768742Y15599805D01*
X51606484Y15431974D01*
X51540834Y15363505D01*
X51324866Y15141713D01*
X51144409Y14973213D01*
X50981327Y14849658D01*
X50817482Y14762697D01*
X50634738Y14703982D01*
X50414956Y14665166D01*
X50140000Y14637897D01*
X49932167Y14623016D01*
X49666656Y14606849D01*
X49392582Y14592908D01*
X49122422Y14581523D01*
X48868651Y14573025D01*
X48643747Y14567741D01*
X48460185Y14566003D01*
X48330441Y14568140D01*
X48266993Y14574481D01*
X48263528Y14578923D01*
X48328449Y14616952D01*
X48456927Y14675942D01*
X48632366Y14749581D01*
X48838169Y14831559D01*
X49057740Y14915566D01*
X49274482Y14995289D01*
X49471798Y15064419D01*
X49633091Y15116646D01*
X49741765Y15145657D01*
X49762834Y15149019D01*
X49929926Y15160337D01*
X50141120Y15166515D01*
X50373059Y15167785D01*
X50602381Y15164374D01*
X50805729Y15156513D01*
X50959743Y15144432D01*
X51011667Y15136739D01*
X51144462Y15130432D01*
X51243105Y15161572D01*
X51291387Y15219605D01*
X51286372Y15240000D01*
X51181000Y15240000D01*
X51144772Y15208177D01*
X51075167Y15197667D01*
X50995610Y15212158D01*
X50969334Y15240000D01*
X50983380Y15252339D01*
X49893779Y15252339D01*
X49888026Y15237075D01*
X49835567Y15202785D01*
X49771899Y15203281D01*
X49741667Y15237502D01*
X49775131Y15296524D01*
X49844253Y15312699D01*
X49869358Y15303073D01*
X49893779Y15252339D01*
X50983380Y15252339D01*
X51005562Y15271823D01*
X51075167Y15282333D01*
X51154725Y15267842D01*
X51181000Y15240000D01*
X51286372Y15240000D01*
X51273098Y15293980D01*
X51266423Y15302590D01*
X51198680Y15350047D01*
X51094749Y15351907D01*
X51056354Y15345404D01*
X50926358Y15326799D01*
X50759690Y15311837D01*
X50575403Y15301062D01*
X50392549Y15295018D01*
X50230182Y15294247D01*
X50107353Y15299294D01*
X50043116Y15310703D01*
X50038000Y15316350D01*
X50071577Y15357552D01*
X50160618Y15428850D01*
X50287593Y15518979D01*
X50434970Y15616671D01*
X50585218Y15710662D01*
X50720806Y15789686D01*
X50824201Y15842475D01*
X50877873Y15857765D01*
X50879432Y15857069D01*
X50941682Y15854365D01*
X51050081Y15877673D01*
X51104105Y15894790D01*
X51292428Y15946814D01*
X51426752Y15954594D01*
X51498318Y15917627D01*
X51498500Y15917333D01*
X51558342Y15886768D01*
X51664440Y15875658D01*
X51780244Y15885819D01*
X51833705Y15900696D01*
X51889074Y15954159D01*
X51894515Y16008472D01*
X51773667Y16008472D01*
X51738922Y15957307D01*
X51665040Y15930500D01*
X51632909Y15932503D01*
X51601735Y15971389D01*
X51080092Y15971389D01*
X51075352Y15959966D01*
X51021762Y15926153D01*
X50946743Y15919100D01*
X50891793Y15939418D01*
X50884667Y15957168D01*
X50915543Y16014193D01*
X50929028Y16024420D01*
X50996061Y16036998D01*
X51058304Y16014084D01*
X51080092Y15971389D01*
X51601735Y15971389D01*
X51599855Y15973733D01*
X51599482Y15981892D01*
X51632087Y16019053D01*
X51698961Y16037334D01*
X51758535Y16030391D01*
X51773667Y16008472D01*
X51894515Y16008472D01*
X51896466Y16027945D01*
X51857287Y16084043D01*
X51826584Y16093251D01*
X51681553Y16093297D01*
X51559207Y16071253D01*
X51500617Y16041460D01*
X51429588Y16011360D01*
X51328086Y16003271D01*
X51238081Y16017466D01*
X51205124Y16039549D01*
X51224884Y16081259D01*
X51299177Y16154733D01*
X51410583Y16247113D01*
X51541680Y16345542D01*
X51675049Y16437162D01*
X51793267Y16509116D01*
X51878916Y16548547D01*
X51899903Y16552333D01*
X52007478Y16574785D01*
X52068207Y16603371D01*
X52142454Y16630613D01*
X52213351Y16596117D01*
X52235273Y16577175D01*
X52332470Y16531485D01*
X52455445Y16524290D01*
X52570594Y16551920D01*
X52644311Y16610708D01*
X52649894Y16622442D01*
X52649261Y16637000D01*
X52535667Y16637000D01*
X52499439Y16605177D01*
X52429834Y16594667D01*
X52350276Y16609158D01*
X52324000Y16637000D01*
X52360229Y16668823D01*
X52429834Y16679333D01*
X52509391Y16664842D01*
X52535667Y16637000D01*
X52649261Y16637000D01*
X52647138Y16685806D01*
X51985334Y16685806D01*
X51950589Y16634641D01*
X51876706Y16607833D01*
X51844575Y16609836D01*
X51811522Y16651067D01*
X51811149Y16659225D01*
X51843754Y16696386D01*
X51910628Y16714667D01*
X51970202Y16707724D01*
X51985334Y16685806D01*
X52647138Y16685806D01*
X52646651Y16696984D01*
X52576666Y16740032D01*
X52452645Y16749357D01*
X52287294Y16722733D01*
X52207584Y16699977D01*
X52130610Y16691630D01*
X52112334Y16716197D01*
X52148871Y16761906D01*
X52244424Y16825118D01*
X52377907Y16895916D01*
X52528233Y16964382D01*
X52674315Y17020598D01*
X52795066Y17054646D01*
X52844019Y17060333D01*
X52968096Y17077836D01*
X53065728Y17119253D01*
X53119693Y17173629D01*
X53115772Y17187333D01*
X53001334Y17187333D01*
X52965106Y17155511D01*
X52895500Y17145000D01*
X52815943Y17159491D01*
X52789667Y17187333D01*
X52825895Y17219156D01*
X52895500Y17229667D01*
X52975058Y17215176D01*
X53001334Y17187333D01*
X53115772Y17187333D01*
X53104156Y17227922D01*
X53089802Y17246253D01*
X53004768Y17298038D01*
X52890978Y17309659D01*
X52777048Y17286441D01*
X52691592Y17233710D01*
X52662667Y17166749D01*
X52627239Y17117082D01*
X52534967Y17046087D01*
X52406867Y16965697D01*
X52263955Y16887842D01*
X52127247Y16824455D01*
X52017760Y16787466D01*
X51986253Y16782732D01*
X51828015Y16772549D01*
X51734468Y16758808D01*
X51685651Y16736214D01*
X51661609Y16699469D01*
X51660337Y16696228D01*
X51664344Y16621633D01*
X51687995Y16595288D01*
X51687528Y16555659D01*
X51628906Y16486236D01*
X51527966Y16398390D01*
X51400541Y16303487D01*
X51262466Y16212898D01*
X51129575Y16137989D01*
X51017701Y16090131D01*
X50969334Y16079307D01*
X50842264Y16044197D01*
X50781017Y15974055D01*
X50721148Y15899673D01*
X50605063Y15800065D01*
X50452248Y15687921D01*
X50282190Y15575926D01*
X50114379Y15476768D01*
X49968300Y15403134D01*
X49863441Y15367710D01*
X49847500Y15366302D01*
X49704748Y15346281D01*
X49625486Y15283559D01*
X49609387Y15247449D01*
X49564900Y15208392D01*
X49459191Y15147626D01*
X49309772Y15074577D01*
X49190289Y15021915D01*
X48902223Y14900975D01*
X48685582Y14811932D01*
X48534337Y14752496D01*
X48442457Y14720376D01*
X48403910Y14713280D01*
X48408167Y14724820D01*
X48469795Y14773613D01*
X48593569Y14862377D01*
X48770496Y14985168D01*
X48864181Y15049100D01*
X48330844Y15049100D01*
X48292313Y14995997D01*
X48177513Y14906173D01*
X48056032Y14824255D01*
X47901609Y14718632D01*
X47772621Y14620620D01*
X47687375Y14544615D01*
X47665753Y14517380D01*
X47618586Y14445336D01*
X47600986Y14449625D01*
X47619160Y14525200D01*
X47627621Y14548394D01*
X47648383Y14658800D01*
X47627152Y14704449D01*
X47612251Y14766564D01*
X47673627Y14838525D01*
X47804285Y14914862D01*
X47989092Y14987417D01*
X48179206Y15044875D01*
X48293133Y15065414D01*
X48330844Y15049100D01*
X48864181Y15049100D01*
X48991586Y15136042D01*
X49247849Y15309054D01*
X49530294Y15498261D01*
X49829930Y15697720D01*
X50137765Y15901485D01*
X50444810Y16103613D01*
X50742074Y16298161D01*
X51020565Y16479183D01*
X51271293Y16640737D01*
X51485268Y16776878D01*
X51653497Y16881662D01*
X51766991Y16949145D01*
X51797769Y16965739D01*
X52014004Y17071015D01*
X52267250Y17189545D01*
X52542675Y17314865D01*
X52825446Y17440509D01*
X53100731Y17560010D01*
X53353697Y17666904D01*
X53569511Y17754724D01*
X53733340Y17817005D01*
X53805289Y17840835D01*
X54037743Y17908498D01*
X54390721Y17908498D01*
X54415825Y17941718D01*
X54448031Y18001257D01*
X54451155Y18012726D01*
X54453165Y18122858D01*
X54398794Y18182377D01*
X54276756Y18202413D01*
X54258524Y18202685D01*
X54111107Y18191719D01*
X53932728Y18155561D01*
X53715724Y18091527D01*
X53452432Y17996933D01*
X53135189Y17869095D01*
X52756331Y17705329D01*
X52464820Y17574447D01*
X52170246Y17440310D01*
X51925644Y17327135D01*
X51717720Y17227311D01*
X51533177Y17133228D01*
X51358720Y17037278D01*
X51181054Y16931849D01*
X50986882Y16809334D01*
X50762910Y16662121D01*
X50495842Y16482601D01*
X50172383Y16263165D01*
X50165000Y16258149D01*
X49867546Y16055869D01*
X49580847Y15860560D01*
X49315401Y15679400D01*
X49081705Y15519564D01*
X48890256Y15388230D01*
X48751552Y15292575D01*
X48694617Y15252906D01*
X48574453Y15173952D01*
X48489724Y15129059D01*
X48454762Y15125448D01*
X48455729Y15132527D01*
X48469099Y15172627D01*
X48458841Y15191348D01*
X48408319Y15189855D01*
X48300898Y15169316D01*
X48209168Y15149819D01*
X48010243Y15096471D01*
X47818443Y15026138D01*
X47654791Y14948305D01*
X47540311Y14872459D01*
X47503816Y14831582D01*
X47466323Y14778140D01*
X47453694Y14774333D01*
X47446986Y14825670D01*
X47435337Y14930662D01*
X47429543Y14986000D01*
X47387207Y15227467D01*
X47306001Y15465051D01*
X47177407Y15718933D01*
X47005180Y15991251D01*
X46897206Y16156118D01*
X46809884Y16300135D01*
X46753034Y16406394D01*
X46736000Y16454722D01*
X46762059Y16546341D01*
X46825985Y16664568D01*
X46906405Y16775525D01*
X46981944Y16845333D01*
X46982708Y16845768D01*
X47027918Y16891749D01*
X47006266Y16933482D01*
X46950755Y16938829D01*
X46874491Y16885495D01*
X46791752Y16791880D01*
X46716815Y16676383D01*
X46663957Y16557403D01*
X46647116Y16470630D01*
X46639550Y16455296D01*
X46621504Y16513443D01*
X46595316Y16634861D01*
X46563323Y16809339D01*
X46546062Y16912167D01*
X46500757Y17186019D01*
X46464100Y17393465D01*
X46431652Y17551748D01*
X46398974Y17678113D01*
X46361628Y17789801D01*
X46315173Y17904057D01*
X46257518Y18032972D01*
X46197207Y18171942D01*
X46116122Y18368058D01*
X46023224Y18599193D01*
X45927471Y18843220D01*
X45888231Y18945087D01*
X45801717Y19167408D01*
X45726205Y19348285D01*
X45651792Y19505513D01*
X45568580Y19656887D01*
X45466667Y19820202D01*
X45336154Y20013255D01*
X45167140Y20253839D01*
X45134571Y20299753D01*
X44957500Y20547372D01*
X44818291Y20736234D01*
X44707106Y20877534D01*
X44614109Y20982468D01*
X44529463Y21062231D01*
X44443331Y21128019D01*
X44358063Y21183509D01*
X44091770Y21348517D01*
X43860287Y21289342D01*
X43860287Y21289342D01*
G37*
X43860287Y21289342D02*
X43725175Y21248860D01*
X43635803Y21197778D01*
X43562000Y21112770D01*
X43495474Y21007312D01*
X43438535Y20906815D01*
X43399340Y20816410D01*
X43373434Y20715265D01*
X43356359Y20582549D01*
X43343658Y20397433D01*
X43336958Y20266478D01*
X43317881Y19972073D01*
X43288482Y19708419D01*
X43244280Y19454079D01*
X43180794Y19187613D01*
X43093541Y18887583D01*
X42978041Y18532551D01*
X42968725Y18504914D01*
X42858448Y18153915D01*
X42787647Y17865781D01*
X42755079Y17629147D01*
X42759500Y17432646D01*
X42799665Y17264912D01*
X42826125Y17201925D01*
X42879878Y17109393D01*
X42955707Y17022410D01*
X43065382Y16932042D01*
X43220669Y16829361D01*
X43433339Y16705434D01*
X43604993Y16610848D01*
X43840916Y16479729D01*
X44071111Y16345073D01*
X44307997Y16198852D01*
X44563993Y16033040D01*
X44851517Y15839607D01*
X45182988Y15610528D01*
X45531759Y15365400D01*
X45808566Y15172005D01*
X46029978Y15023133D01*
X46207765Y14911755D01*
X46353694Y14830839D01*
X46479534Y14773357D01*
X46585952Y14735660D01*
X46728928Y14693329D01*
X46835562Y14665216D01*
X46884796Y14656824D01*
X46885773Y14657304D01*
X46882665Y14700592D01*
X46868084Y14814308D01*
X46843898Y14985269D01*
X46834119Y15051133D01*
X46563234Y15051133D01*
X46551720Y15042464D01*
X46513744Y15091833D01*
X46478693Y15151056D01*
X46410678Y15274747D01*
X46315465Y15452086D01*
X46198823Y15672254D01*
X46066519Y15924432D01*
X45927984Y16190724D01*
X45787401Y16464311D01*
X45659426Y16717655D01*
X45549440Y16939762D01*
X45462821Y17119635D01*
X45404949Y17246279D01*
X45381334Y17308031D01*
X45353872Y17363207D01*
X45245118Y17363207D01*
X45232614Y17321147D01*
X45188634Y17320874D01*
X45114390Y17361475D01*
X45094216Y17392460D01*
X45106720Y17434520D01*
X45150700Y17434793D01*
X45224944Y17394192D01*
X45245118Y17363207D01*
X45353872Y17363207D01*
X45331791Y17407569D01*
X45275500Y17457973D01*
X45207210Y17501709D01*
X45161866Y17555234D01*
X45128828Y17640354D01*
X45097461Y17778871D01*
X45083482Y17851549D01*
X45057967Y18013462D01*
X45056543Y18114485D01*
X45079178Y18174884D01*
X45082967Y18179717D01*
X45106841Y18238441D01*
X45091906Y18263474D01*
X44995408Y18263474D01*
X44977390Y18248786D01*
X44928749Y18247013D01*
X44844280Y18261968D01*
X44811642Y18285075D01*
X44805936Y18334395D01*
X44852856Y18347473D01*
X44926400Y18319476D01*
X44941181Y18309157D01*
X44995408Y18263474D01*
X45091906Y18263474D01*
X45066899Y18305387D01*
X45048952Y18324049D01*
X45010409Y18387510D01*
X43969268Y18387510D01*
X43925389Y18373015D01*
X43904851Y18372667D01*
X43831858Y18397945D01*
X43815000Y18436167D01*
X43835105Y18492542D01*
X43852150Y18499667D01*
X43907321Y18470704D01*
X43942000Y18436167D01*
X43969268Y18387510D01*
X45010409Y18387510D01*
X44995681Y18411759D01*
X44950969Y18544686D01*
X44919787Y18695206D01*
X44907105Y18835698D01*
X44917893Y18938538D01*
X44933286Y18966847D01*
X44945270Y19018187D01*
X44941916Y19022510D01*
X44815934Y19022510D01*
X44772056Y19008015D01*
X44751517Y19007667D01*
X44678525Y19032945D01*
X44661667Y19071167D01*
X44681771Y19127542D01*
X44698817Y19134667D01*
X44753988Y19105704D01*
X44788667Y19071167D01*
X44815934Y19022510D01*
X44941916Y19022510D01*
X44888882Y19090863D01*
X44863311Y19113933D01*
X44791119Y19204770D01*
X44707780Y19351105D01*
X44624802Y19526859D01*
X44553693Y19705949D01*
X44505960Y19862295D01*
X44492334Y19954708D01*
X44453846Y20072541D01*
X44313785Y20072541D01*
X44301281Y20030480D01*
X44257301Y20030207D01*
X44183057Y20070808D01*
X44162883Y20101793D01*
X44175387Y20143853D01*
X44219367Y20144126D01*
X44293611Y20103525D01*
X44313785Y20072541D01*
X44453846Y20072541D01*
X44452948Y20075289D01*
X44344417Y20169133D01*
X44204458Y20218825D01*
X44101577Y20226768D01*
X44050719Y20191545D01*
X44043750Y20176456D01*
X44047514Y20082186D01*
X44129895Y19998923D01*
X44280109Y19934166D01*
X44360460Y19904867D01*
X44418534Y19862265D01*
X44468187Y19787921D01*
X44523272Y19663396D01*
X44565870Y19553848D01*
X44692898Y19221087D01*
X44552436Y19194736D01*
X44439024Y19190846D01*
X44427981Y19193896D01*
X44146855Y19193896D01*
X44120324Y19177990D01*
X44080570Y19177000D01*
X43996672Y19193315D01*
X43964975Y19216408D01*
X43960795Y19266958D01*
X44007333Y19286217D01*
X44074396Y19267831D01*
X44103301Y19245509D01*
X44146855Y19193896D01*
X44427981Y19193896D01*
X44309030Y19226748D01*
X44177237Y19287243D01*
X44038619Y19351976D01*
X43952679Y19375689D01*
X43900621Y19362746D01*
X43890286Y19353885D01*
X43864199Y19283016D01*
X43901016Y19208200D01*
X43980964Y19143742D01*
X44084270Y19103944D01*
X44191162Y19103109D01*
X44222797Y19113364D01*
X44344380Y19138363D01*
X44463782Y19122357D01*
X44544439Y19070974D01*
X44549574Y19063059D01*
X44611061Y19005030D01*
X44714106Y18946329D01*
X44729490Y18939632D01*
X44828265Y18885549D01*
X44868141Y18815228D01*
X44873912Y18742515D01*
X44881529Y18616655D01*
X44897644Y18519322D01*
X44902711Y18471275D01*
X44878861Y18438934D01*
X44813372Y18419316D01*
X44693526Y18409439D01*
X44506601Y18406320D01*
X44415491Y18406286D01*
X44215827Y18414815D01*
X44088068Y18440783D01*
X44034491Y18471138D01*
X43925212Y18541693D01*
X43815218Y18570205D01*
X43730508Y18552948D01*
X43702502Y18518730D01*
X43708380Y18435411D01*
X43773855Y18361585D01*
X43873896Y18309203D01*
X43983468Y18290213D01*
X44077540Y18316565D01*
X44095300Y18331233D01*
X44160998Y18349767D01*
X44281731Y18349172D01*
X44431023Y18333212D01*
X44582396Y18305654D01*
X44709374Y18270262D01*
X44782496Y18233503D01*
X44872599Y18172272D01*
X44920813Y18149683D01*
X44973684Y18088095D01*
X45021541Y17942869D01*
X45042423Y17844797D01*
X45068807Y17693375D01*
X45075467Y17602029D01*
X45060652Y17548097D01*
X45022613Y17508917D01*
X45016110Y17503907D01*
X44935849Y17462866D01*
X44889971Y17460041D01*
X44829127Y17470388D01*
X44705586Y17484379D01*
X44541108Y17499679D01*
X44454685Y17506749D01*
X44226767Y17531234D01*
X44199570Y17537049D01*
X43891499Y17537049D01*
X43856228Y17527668D01*
X43816291Y17532518D01*
X43731624Y17563664D01*
X43698372Y17600083D01*
X43708273Y17644648D01*
X43762112Y17648480D01*
X43831091Y17614180D01*
X43860708Y17585434D01*
X43891499Y17537049D01*
X44199570Y17537049D01*
X44070842Y17564572D01*
X43974460Y17609505D01*
X43969041Y17613610D01*
X43853990Y17682404D01*
X43759137Y17718366D01*
X43657908Y17718158D01*
X43610848Y17668190D01*
X43625275Y17589222D01*
X43688263Y17517275D01*
X43769748Y17468565D01*
X43870097Y17453218D01*
X44002239Y17462974D01*
X44167082Y17471689D01*
X44363649Y17465500D01*
X44569954Y17447123D01*
X44764012Y17419273D01*
X44923837Y17384666D01*
X45027444Y17346019D01*
X45044006Y17334288D01*
X45142947Y17271348D01*
X45232627Y17236518D01*
X45271817Y17218275D01*
X45315731Y17178686D01*
X45369413Y17109567D01*
X45437909Y17002733D01*
X45526264Y16849999D01*
X45639524Y16643179D01*
X45782734Y16374090D01*
X45889942Y16170173D01*
X46030886Y15899405D01*
X46156884Y15653717D01*
X46263089Y15442853D01*
X46344657Y15276558D01*
X46396744Y15164577D01*
X46414504Y15116655D01*
X46414194Y15115749D01*
X46374228Y15130839D01*
X46280565Y15186176D01*
X46148178Y15272477D01*
X46026012Y15356472D01*
X45618562Y15639534D01*
X45217720Y15912376D01*
X44834292Y16167936D01*
X44479086Y16399152D01*
X44162909Y16598960D01*
X43896566Y16760298D01*
X43748353Y16845025D01*
X43555772Y16956131D01*
X43379534Y17066581D01*
X43239329Y17163481D01*
X43155686Y17233061D01*
X43076363Y17345295D01*
X43034260Y17484339D01*
X43030006Y17659968D01*
X43064228Y17881959D01*
X43137555Y18160086D01*
X43234340Y18457333D01*
X43352065Y18812619D01*
X43440369Y19118873D01*
X43505149Y19404009D01*
X43552301Y19695944D01*
X43587723Y20022595D01*
X43602221Y20199015D01*
X43621413Y20431979D01*
X43640039Y20597761D01*
X43661854Y20713739D01*
X43690611Y20797286D01*
X43730064Y20865779D01*
X43753088Y20897345D01*
X43850218Y20993014D01*
X43957993Y21034341D01*
X44079910Y21018489D01*
X44219471Y20942621D01*
X44380173Y20803900D01*
X44565516Y20599491D01*
X44778999Y20326556D01*
X45024122Y19982259D01*
X45196437Y19727333D01*
X45303403Y19546903D01*
X45426963Y19301232D01*
X45569326Y18985573D01*
X45732701Y18595175D01*
X45796787Y18436167D01*
X46185878Y17462500D01*
X46355812Y16361833D01*
X46402614Y16059788D01*
X46446351Y15779586D01*
X46485019Y15533894D01*
X46516617Y15335380D01*
X46539141Y15196711D01*
X46549883Y15134167D01*
X46563234Y15051133D01*
X46834119Y15051133D01*
X46811971Y15200295D01*
X46774170Y15446203D01*
X46773374Y15451299D01*
X46735494Y15699955D01*
X46703770Y15920196D01*
X46680038Y16098234D01*
X46666138Y16220283D01*
X46663907Y16272552D01*
X46663911Y16272566D01*
X46690219Y16259868D01*
X46748396Y16188120D01*
X46829121Y16072246D01*
X46923075Y15927170D01*
X47020939Y15767814D01*
X47113393Y15609103D01*
X47191116Y15465959D01*
X47244789Y15353307D01*
X47255881Y15324667D01*
X47302427Y15170716D01*
X47337143Y15018956D01*
X47343293Y14980708D01*
X47351376Y14879367D01*
X47329002Y14836428D01*
X47262296Y14827264D01*
X47256832Y14827250D01*
X47152188Y14802026D01*
X47094092Y14719420D01*
X47075339Y14569032D01*
X47075315Y14565264D01*
X47067303Y14489612D01*
X47036094Y14418395D01*
X46969815Y14335311D01*
X46856594Y14224055D01*
X46767750Y14142909D01*
X46491489Y13888610D01*
X46262404Y13664087D01*
X46060479Y13447604D01*
X45865695Y13217429D01*
X45658032Y12951829D01*
X45600453Y12875609D01*
X45450123Y12673910D01*
X45344282Y12525678D01*
X45275592Y12417427D01*
X45236716Y12335674D01*
X45220315Y12266932D01*
X45219051Y12197717D01*
X45220360Y12177109D01*
X45235583Y12063438D01*
X45269593Y12009717D01*
X45338127Y11991284D01*
X45339000Y11991198D01*
X45453226Y12000976D01*
X45521474Y12026483D01*
X45572296Y12077815D01*
X45657069Y12185982D01*
X45764775Y12336081D01*
X45884397Y12513208D01*
X45907684Y12548874D01*
X46051665Y12764411D01*
X46173047Y12927589D01*
X46290719Y13059852D01*
X46423572Y13182646D01*
X46571877Y13302902D01*
X46804571Y13494781D01*
X47022636Y13693148D01*
X47213940Y13885491D01*
X47366355Y14059295D01*
X47467749Y14202047D01*
X47494087Y14254257D01*
X47534822Y14341523D01*
X47569122Y14360188D01*
X47617635Y14322080D01*
X47649749Y14298622D01*
X47699656Y14282207D01*
X47779152Y14272332D01*
X47900027Y14268493D01*
X48074076Y14270188D01*
X48313092Y14276914D01*
X48512701Y14283884D01*
X48834839Y14297188D01*
X49189884Y14314489D01*
X49545422Y14334041D01*
X49869041Y14354101D01*
X50041029Y14366146D01*
X50363014Y14393024D01*
X50619318Y14425624D01*
X50827726Y14472416D01*
X51006024Y14541868D01*
X51171998Y14642449D01*
X51343434Y14782627D01*
X51538117Y14970870D01*
X51731334Y15170976D01*
X51879603Y15324949D01*
X52076816Y15527237D01*
X52311811Y15766526D01*
X52573427Y16031504D01*
X52850501Y16310855D01*
X53131871Y16593265D01*
X53322607Y16783918D01*
X53633338Y17095478D01*
X53886955Y17353391D01*
X54087734Y17562313D01*
X54239954Y17726904D01*
X54347892Y17851820D01*
X54390721Y17908498D01*
X54037743Y17908498D01*
X53000955Y16857777D01*
X52734983Y16587790D01*
X52467798Y16315765D01*
X52210377Y16052935D01*
X51973699Y15810537D01*
X51768742Y15599805D01*
X51606484Y15431974D01*
X51540834Y15363505D01*
X51324866Y15141713D01*
X51144409Y14973213D01*
X50981327Y14849658D01*
X50817482Y14762697D01*
X50634738Y14703982D01*
X50414956Y14665166D01*
X50140000Y14637897D01*
X49932167Y14623016D01*
X49666656Y14606849D01*
X49392582Y14592908D01*
X49122422Y14581523D01*
X48868651Y14573025D01*
X48643747Y14567741D01*
X48460185Y14566003D01*
X48330441Y14568140D01*
X48266993Y14574481D01*
X48263528Y14578923D01*
X48328449Y14616952D01*
X48456927Y14675942D01*
X48632366Y14749581D01*
X48838169Y14831559D01*
X49057740Y14915566D01*
X49274482Y14995289D01*
X49471798Y15064419D01*
X49633091Y15116646D01*
X49741765Y15145657D01*
X49762834Y15149019D01*
X49929926Y15160337D01*
X50141120Y15166515D01*
X50373059Y15167785D01*
X50602381Y15164374D01*
X50805729Y15156513D01*
X50959743Y15144432D01*
X51011667Y15136739D01*
X51144462Y15130432D01*
X51243105Y15161572D01*
X51291387Y15219605D01*
X51286372Y15240000D01*
X51181000Y15240000D01*
X51144772Y15208177D01*
X51075167Y15197667D01*
X50995610Y15212158D01*
X50969334Y15240000D01*
X50983380Y15252339D01*
X49893779Y15252339D01*
X49888026Y15237075D01*
X49835567Y15202785D01*
X49771899Y15203281D01*
X49741667Y15237502D01*
X49775131Y15296524D01*
X49844253Y15312699D01*
X49869358Y15303073D01*
X49893779Y15252339D01*
X50983380Y15252339D01*
X51005562Y15271823D01*
X51075167Y15282333D01*
X51154725Y15267842D01*
X51181000Y15240000D01*
X51286372Y15240000D01*
X51273098Y15293980D01*
X51266423Y15302590D01*
X51198680Y15350047D01*
X51094749Y15351907D01*
X51056354Y15345404D01*
X50926358Y15326799D01*
X50759690Y15311837D01*
X50575403Y15301062D01*
X50392549Y15295018D01*
X50230182Y15294247D01*
X50107353Y15299294D01*
X50043116Y15310703D01*
X50038000Y15316350D01*
X50071577Y15357552D01*
X50160618Y15428850D01*
X50287593Y15518979D01*
X50434970Y15616671D01*
X50585218Y15710662D01*
X50720806Y15789686D01*
X50824201Y15842475D01*
X50877873Y15857765D01*
X50879432Y15857069D01*
X50941682Y15854365D01*
X51050081Y15877673D01*
X51104105Y15894790D01*
X51292428Y15946814D01*
X51426752Y15954594D01*
X51498318Y15917627D01*
X51498500Y15917333D01*
X51558342Y15886768D01*
X51664440Y15875658D01*
X51780244Y15885819D01*
X51833705Y15900696D01*
X51889074Y15954159D01*
X51894515Y16008472D01*
X51773667Y16008472D01*
X51738922Y15957307D01*
X51665040Y15930500D01*
X51632909Y15932503D01*
X51601735Y15971389D01*
X51080092Y15971389D01*
X51075352Y15959966D01*
X51021762Y15926153D01*
X50946743Y15919100D01*
X50891793Y15939418D01*
X50884667Y15957168D01*
X50915543Y16014193D01*
X50929028Y16024420D01*
X50996061Y16036998D01*
X51058304Y16014084D01*
X51080092Y15971389D01*
X51601735Y15971389D01*
X51599855Y15973733D01*
X51599482Y15981892D01*
X51632087Y16019053D01*
X51698961Y16037334D01*
X51758535Y16030391D01*
X51773667Y16008472D01*
X51894515Y16008472D01*
X51896466Y16027945D01*
X51857287Y16084043D01*
X51826584Y16093251D01*
X51681553Y16093297D01*
X51559207Y16071253D01*
X51500617Y16041460D01*
X51429588Y16011360D01*
X51328086Y16003271D01*
X51238081Y16017466D01*
X51205124Y16039549D01*
X51224884Y16081259D01*
X51299177Y16154733D01*
X51410583Y16247113D01*
X51541680Y16345542D01*
X51675049Y16437162D01*
X51793267Y16509116D01*
X51878916Y16548547D01*
X51899903Y16552333D01*
X52007478Y16574785D01*
X52068207Y16603371D01*
X52142454Y16630613D01*
X52213351Y16596117D01*
X52235273Y16577175D01*
X52332470Y16531485D01*
X52455445Y16524290D01*
X52570594Y16551920D01*
X52644311Y16610708D01*
X52649894Y16622442D01*
X52649261Y16637000D01*
X52535667Y16637000D01*
X52499439Y16605177D01*
X52429834Y16594667D01*
X52350276Y16609158D01*
X52324000Y16637000D01*
X52360229Y16668823D01*
X52429834Y16679333D01*
X52509391Y16664842D01*
X52535667Y16637000D01*
X52649261Y16637000D01*
X52647138Y16685806D01*
X51985334Y16685806D01*
X51950589Y16634641D01*
X51876706Y16607833D01*
X51844575Y16609836D01*
X51811522Y16651067D01*
X51811149Y16659225D01*
X51843754Y16696386D01*
X51910628Y16714667D01*
X51970202Y16707724D01*
X51985334Y16685806D01*
X52647138Y16685806D01*
X52646651Y16696984D01*
X52576666Y16740032D01*
X52452645Y16749357D01*
X52287294Y16722733D01*
X52207584Y16699977D01*
X52130610Y16691630D01*
X52112334Y16716197D01*
X52148871Y16761906D01*
X52244424Y16825118D01*
X52377907Y16895916D01*
X52528233Y16964382D01*
X52674315Y17020598D01*
X52795066Y17054646D01*
X52844019Y17060333D01*
X52968096Y17077836D01*
X53065728Y17119253D01*
X53119693Y17173629D01*
X53115772Y17187333D01*
X53001334Y17187333D01*
X52965106Y17155511D01*
X52895500Y17145000D01*
X52815943Y17159491D01*
X52789667Y17187333D01*
X52825895Y17219156D01*
X52895500Y17229667D01*
X52975058Y17215176D01*
X53001334Y17187333D01*
X53115772Y17187333D01*
X53104156Y17227922D01*
X53089802Y17246253D01*
X53004768Y17298038D01*
X52890978Y17309659D01*
X52777048Y17286441D01*
X52691592Y17233710D01*
X52662667Y17166749D01*
X52627239Y17117082D01*
X52534967Y17046087D01*
X52406867Y16965697D01*
X52263955Y16887842D01*
X52127247Y16824455D01*
X52017760Y16787466D01*
X51986253Y16782732D01*
X51828015Y16772549D01*
X51734468Y16758808D01*
X51685651Y16736214D01*
X51661609Y16699469D01*
X51660337Y16696228D01*
X51664344Y16621633D01*
X51687995Y16595288D01*
X51687528Y16555659D01*
X51628906Y16486236D01*
X51527966Y16398390D01*
X51400541Y16303487D01*
X51262466Y16212898D01*
X51129575Y16137989D01*
X51017701Y16090131D01*
X50969334Y16079307D01*
X50842264Y16044197D01*
X50781017Y15974055D01*
X50721148Y15899673D01*
X50605063Y15800065D01*
X50452248Y15687921D01*
X50282190Y15575926D01*
X50114379Y15476768D01*
X49968300Y15403134D01*
X49863441Y15367710D01*
X49847500Y15366302D01*
X49704748Y15346281D01*
X49625486Y15283559D01*
X49609387Y15247449D01*
X49564900Y15208392D01*
X49459191Y15147626D01*
X49309772Y15074577D01*
X49190289Y15021915D01*
X48902223Y14900975D01*
X48685582Y14811932D01*
X48534337Y14752496D01*
X48442457Y14720376D01*
X48403910Y14713280D01*
X48408167Y14724820D01*
X48469795Y14773613D01*
X48593569Y14862377D01*
X48770496Y14985168D01*
X48864181Y15049100D01*
X48330844Y15049100D01*
X48292313Y14995997D01*
X48177513Y14906173D01*
X48056032Y14824255D01*
X47901609Y14718632D01*
X47772621Y14620620D01*
X47687375Y14544615D01*
X47665753Y14517380D01*
X47618586Y14445336D01*
X47600986Y14449625D01*
X47619160Y14525200D01*
X47627621Y14548394D01*
X47648383Y14658800D01*
X47627152Y14704449D01*
X47612251Y14766564D01*
X47673627Y14838525D01*
X47804285Y14914862D01*
X47989092Y14987417D01*
X48179206Y15044875D01*
X48293133Y15065414D01*
X48330844Y15049100D01*
X48864181Y15049100D01*
X48991586Y15136042D01*
X49247849Y15309054D01*
X49530294Y15498261D01*
X49829930Y15697720D01*
X50137765Y15901485D01*
X50444810Y16103613D01*
X50742074Y16298161D01*
X51020565Y16479183D01*
X51271293Y16640737D01*
X51485268Y16776878D01*
X51653497Y16881662D01*
X51766991Y16949145D01*
X51797769Y16965739D01*
X52014004Y17071015D01*
X52267250Y17189545D01*
X52542675Y17314865D01*
X52825446Y17440509D01*
X53100731Y17560010D01*
X53353697Y17666904D01*
X53569511Y17754724D01*
X53733340Y17817005D01*
X53805289Y17840835D01*
X54037743Y17908498D01*
X54390721Y17908498D01*
X54415825Y17941718D01*
X54448031Y18001257D01*
X54451155Y18012726D01*
X54453165Y18122858D01*
X54398794Y18182377D01*
X54276756Y18202413D01*
X54258524Y18202685D01*
X54111107Y18191719D01*
X53932728Y18155561D01*
X53715724Y18091527D01*
X53452432Y17996933D01*
X53135189Y17869095D01*
X52756331Y17705329D01*
X52464820Y17574447D01*
X52170246Y17440310D01*
X51925644Y17327135D01*
X51717720Y17227311D01*
X51533177Y17133228D01*
X51358720Y17037278D01*
X51181054Y16931849D01*
X50986882Y16809334D01*
X50762910Y16662121D01*
X50495842Y16482601D01*
X50172383Y16263165D01*
X50165000Y16258149D01*
X49867546Y16055869D01*
X49580847Y15860560D01*
X49315401Y15679400D01*
X49081705Y15519564D01*
X48890256Y15388230D01*
X48751552Y15292575D01*
X48694617Y15252906D01*
X48574453Y15173952D01*
X48489724Y15129059D01*
X48454762Y15125448D01*
X48455729Y15132527D01*
X48469099Y15172627D01*
X48458841Y15191348D01*
X48408319Y15189855D01*
X48300898Y15169316D01*
X48209168Y15149819D01*
X48010243Y15096471D01*
X47818443Y15026138D01*
X47654791Y14948305D01*
X47540311Y14872459D01*
X47503816Y14831582D01*
X47466323Y14778140D01*
X47453694Y14774333D01*
X47446986Y14825670D01*
X47435337Y14930662D01*
X47429543Y14986000D01*
X47387207Y15227467D01*
X47306001Y15465051D01*
X47177407Y15718933D01*
X47005180Y15991251D01*
X46897206Y16156118D01*
X46809884Y16300135D01*
X46753034Y16406394D01*
X46736000Y16454722D01*
X46762059Y16546341D01*
X46825985Y16664568D01*
X46906405Y16775525D01*
X46981944Y16845333D01*
X46982708Y16845768D01*
X47027918Y16891749D01*
X47006266Y16933482D01*
X46950755Y16938829D01*
X46874491Y16885495D01*
X46791752Y16791880D01*
X46716815Y16676383D01*
X46663957Y16557403D01*
X46647116Y16470630D01*
X46639550Y16455296D01*
X46621504Y16513443D01*
X46595316Y16634861D01*
X46563323Y16809339D01*
X46546062Y16912167D01*
X46500757Y17186019D01*
X46464100Y17393465D01*
X46431652Y17551748D01*
X46398974Y17678113D01*
X46361628Y17789801D01*
X46315173Y17904057D01*
X46257518Y18032972D01*
X46197207Y18171942D01*
X46116122Y18368058D01*
X46023224Y18599193D01*
X45927471Y18843220D01*
X45888231Y18945087D01*
X45801717Y19167408D01*
X45726205Y19348285D01*
X45651792Y19505513D01*
X45568580Y19656887D01*
X45466667Y19820202D01*
X45336154Y20013255D01*
X45167140Y20253839D01*
X45134571Y20299753D01*
X44957500Y20547372D01*
X44818291Y20736234D01*
X44707106Y20877534D01*
X44614109Y20982468D01*
X44529463Y21062231D01*
X44443331Y21128019D01*
X44358063Y21183509D01*
X44091770Y21348517D01*
X43860287Y21289342D01*
G36*
X42552352Y16873633D02*
X42550894Y16872881D01*
X42403330Y16770136D01*
X42238157Y16613368D01*
X42074933Y16424630D01*
X41933214Y16225973D01*
X41855022Y16088266D01*
X41801154Y15974895D01*
X41763453Y15877664D01*
X41738550Y15776950D01*
X41723077Y15653130D01*
X41713666Y15486582D01*
X41706948Y15257683D01*
X41706051Y15220433D01*
X41701996Y14968232D01*
X41705392Y14767187D01*
X41719052Y14588267D01*
X41745790Y14402441D01*
X41788418Y14180679D01*
X41822345Y14020378D01*
X41881280Y13753349D01*
X41931345Y13551911D01*
X41979882Y13398553D01*
X42034230Y13275763D01*
X42101732Y13166033D01*
X42189725Y13051851D01*
X42266390Y12961127D01*
X42362628Y12844659D01*
X42432030Y12752145D01*
X42460260Y12702758D01*
X42460334Y12701741D01*
X42498495Y12677233D01*
X42600608Y12640083D01*
X42748119Y12596656D01*
X42825869Y12576384D01*
X43011803Y12526936D01*
X43184234Y12476204D01*
X43313209Y12433142D01*
X43339039Y12423019D01*
X43489355Y12377620D01*
X43650088Y12369098D01*
X43839918Y12399273D01*
X44077523Y12469961D01*
X44174834Y12504394D01*
X44379058Y12581597D01*
X44624416Y12678512D01*
X44874598Y12780636D01*
X45025667Y12844249D01*
X45235379Y12937003D01*
X45395573Y13018600D01*
X45531735Y13105906D01*
X45669351Y13215788D01*
X45833906Y13365112D01*
X45884150Y13412385D01*
X46272800Y13779500D01*
X46240039Y13922036D01*
X45957030Y13922036D01*
X45935962Y13858807D01*
X45858579Y13761156D01*
X45739121Y13641460D01*
X45591828Y13512102D01*
X45430937Y13385461D01*
X45270689Y13273917D01*
X45125324Y13189852D01*
X45102095Y13178713D01*
X44872239Y13076814D01*
X44625527Y12974370D01*
X44376286Y12876585D01*
X44138843Y12788664D01*
X43927524Y12715811D01*
X43756654Y12663230D01*
X43640561Y12636127D01*
X43603334Y12634230D01*
X43482783Y12662919D01*
X43375213Y12698104D01*
X43295428Y12733953D01*
X43268718Y12757337D01*
X43269379Y12758048D01*
X43309902Y12780683D01*
X43414855Y12837077D01*
X43573706Y12921634D01*
X43775920Y13028757D01*
X44010965Y13152850D01*
X44179080Y13241391D01*
X44503424Y13409628D01*
X44759001Y13536639D01*
X44949923Y13624290D01*
X45080304Y13674447D01*
X45154257Y13688976D01*
X45162815Y13687725D01*
X45249112Y13692118D01*
X45287241Y13746004D01*
X45283953Y13762242D01*
X44976751Y13762242D01*
X44948233Y13732599D01*
X44856270Y13671679D01*
X44713151Y13586056D01*
X44531166Y13482305D01*
X44322603Y13367002D01*
X44099752Y13246722D01*
X43874901Y13128038D01*
X43660341Y13017528D01*
X43468359Y12921764D01*
X43311245Y12847323D01*
X43201289Y12800780D01*
X43155934Y12788061D01*
X43064945Y12797882D01*
X42932359Y12826671D01*
X42859432Y12846714D01*
X42711536Y12905559D01*
X42593965Y12995292D01*
X42494801Y13110656D01*
X42414492Y13218820D01*
X42362634Y13296524D01*
X42350693Y13324137D01*
X42393296Y13338539D01*
X42504064Y13371170D01*
X42669430Y13418165D01*
X42875827Y13475656D01*
X43056890Y13525386D01*
X43290611Y13590277D01*
X43498304Y13649958D01*
X43665056Y13699986D01*
X43775957Y13735917D01*
X43813312Y13750824D01*
X43898893Y13763062D01*
X43994129Y13741678D01*
X44111687Y13718740D01*
X44196326Y13748713D01*
X44273981Y13772623D01*
X44403233Y13789381D01*
X44559883Y13798567D01*
X44719728Y13799763D01*
X44858567Y13792548D01*
X44952200Y13776502D01*
X44976751Y13762242D01*
X45283953Y13762242D01*
X45271884Y13821833D01*
X45169667Y13821833D01*
X45161714Y13768295D01*
X45119822Y13765531D01*
X45067296Y13784029D01*
X45024805Y13815510D01*
X44096268Y13815510D01*
X44052389Y13801015D01*
X44031851Y13800667D01*
X43970732Y13821833D01*
X43819414Y13821833D01*
X43777299Y13800370D01*
X43669327Y13761331D01*
X43511324Y13709428D01*
X43319112Y13649376D01*
X43108516Y13585885D01*
X42895361Y13523670D01*
X42695470Y13467442D01*
X42524667Y13421914D01*
X42398776Y13391800D01*
X42343010Y13382133D01*
X42287140Y13412782D01*
X42248750Y13472583D01*
X42223499Y13547791D01*
X42186378Y13676306D01*
X42143542Y13834472D01*
X42101143Y13998634D01*
X42065334Y14145139D01*
X42042269Y14250329D01*
X42037000Y14286611D01*
X42075875Y14299676D01*
X42179539Y14305140D01*
X42328551Y14303996D01*
X42503472Y14297236D01*
X42684861Y14285854D01*
X42853278Y14270843D01*
X42989282Y14253197D01*
X43073434Y14233908D01*
X43074167Y14233625D01*
X43201848Y14190330D01*
X43307000Y14162901D01*
X43400981Y14128966D01*
X43519541Y14066477D01*
X43641338Y13989638D01*
X43745032Y13912655D01*
X43809279Y13849733D01*
X43819414Y13821833D01*
X43970732Y13821833D01*
X43958858Y13825945D01*
X43942000Y13864167D01*
X43962105Y13920542D01*
X43979150Y13927667D01*
X44034321Y13898704D01*
X44069000Y13864167D01*
X44096268Y13815510D01*
X45024805Y13815510D01*
X45005751Y13829626D01*
X45020784Y13871587D01*
X45085000Y13885333D01*
X45153953Y13858864D01*
X45169667Y13821833D01*
X45271884Y13821833D01*
X45271155Y13825430D01*
X45214370Y13891927D01*
X45104235Y13951511D01*
X44993339Y13967111D01*
X44910301Y13937448D01*
X44888643Y13906500D01*
X44833885Y13869128D01*
X44720335Y13846377D01*
X44572558Y13838032D01*
X44415118Y13843880D01*
X44272582Y13863705D01*
X44169512Y13897296D01*
X44146521Y13912967D01*
X44055892Y13959211D01*
X43926282Y13987541D01*
X43889188Y13990397D01*
X43731076Y14021619D01*
X43560981Y14093042D01*
X43406669Y14189068D01*
X43295910Y14294097D01*
X43282904Y14315207D01*
X43170785Y14315207D01*
X43158281Y14273147D01*
X43114301Y14272874D01*
X43040057Y14313475D01*
X43019883Y14344460D01*
X43032387Y14386520D01*
X43076367Y14386793D01*
X43150611Y14346192D01*
X43170785Y14315207D01*
X43282904Y14315207D01*
X43268051Y14339312D01*
X43188577Y14425754D01*
X43120503Y14453748D01*
X42913289Y14453748D01*
X42869254Y14392789D01*
X42769520Y14362259D01*
X42602670Y14351865D01*
X42483831Y14351000D01*
X42282676Y14354490D01*
X42150259Y14366491D01*
X42070882Y14389306D01*
X42035137Y14416745D01*
X42015340Y14475537D01*
X41995360Y14592148D01*
X41976793Y14746237D01*
X41961238Y14917465D01*
X41950290Y15085492D01*
X41945546Y15229977D01*
X41948603Y15330581D01*
X41960537Y15367000D01*
X42007028Y15354317D01*
X42112535Y15320750D01*
X42256038Y15273027D01*
X42286262Y15262778D01*
X42532784Y15157741D01*
X42707603Y15029881D01*
X42822910Y14867812D01*
X42879932Y14708129D01*
X42913043Y14555430D01*
X42913289Y14453748D01*
X43120503Y14453748D01*
X43099665Y14462317D01*
X43009117Y14497378D01*
X42962751Y14573556D01*
X42948548Y14633692D01*
X42923303Y14750919D01*
X42899254Y14836977D01*
X42897822Y14840840D01*
X42907968Y14890702D01*
X42961306Y14901333D01*
X43054720Y14924403D01*
X43077491Y14984606D01*
X43067679Y15000843D01*
X42953268Y15000843D01*
X42909389Y14986348D01*
X42888851Y14986000D01*
X42815858Y15011279D01*
X42799000Y15049500D01*
X42819105Y15105875D01*
X42836150Y15113000D01*
X42891321Y15084037D01*
X42926000Y15049500D01*
X42953268Y15000843D01*
X43067679Y15000843D01*
X43026827Y15068438D01*
X43000867Y15092795D01*
X42892832Y15185722D01*
X43004666Y15363148D01*
X43079965Y15470485D01*
X43141602Y15517968D01*
X43212996Y15521860D01*
X43229225Y15519084D01*
X43344042Y15521156D01*
X43402369Y15569749D01*
X43402156Y15571618D01*
X43058421Y15571618D01*
X43014204Y15459130D01*
X42939834Y15341224D01*
X42851232Y15244023D01*
X42779773Y15198334D01*
X42701198Y15197408D01*
X42568276Y15222842D01*
X42404577Y15267872D01*
X42233671Y15325732D01*
X42079128Y15389658D01*
X42031639Y15413062D01*
X41991275Y15478663D01*
X41990680Y15599688D01*
X42026468Y15758719D01*
X42095257Y15938335D01*
X42157338Y16060132D01*
X42247165Y16210195D01*
X42321105Y16294791D01*
X42396557Y16315501D01*
X42490923Y16273907D01*
X42621602Y16171587D01*
X42693798Y16108870D01*
X42823211Y15989951D01*
X42926539Y15885082D01*
X42987639Y15811059D01*
X42996666Y15793759D01*
X43034288Y15698060D01*
X43056567Y15652562D01*
X43058421Y15571618D01*
X43402156Y15571618D01*
X43396375Y15622329D01*
X43307000Y15622329D01*
X43280474Y15581720D01*
X43203024Y15606299D01*
X43181226Y15619347D01*
X43142043Y15665831D01*
X43147651Y15687428D01*
X43208001Y15699605D01*
X43277220Y15669891D01*
X43307000Y15622329D01*
X43396375Y15622329D01*
X43393371Y15648671D01*
X43352166Y15702834D01*
X43257479Y15767674D01*
X43174302Y15790333D01*
X43097783Y15819941D01*
X42983701Y15900096D01*
X42850444Y16017797D01*
X42844533Y16023533D01*
X42716413Y16145001D01*
X42599247Y16250337D01*
X42515924Y16319049D01*
X42508474Y16324431D01*
X42411819Y16392131D01*
X42506956Y16493399D01*
X42590612Y16563934D01*
X42661470Y16594624D01*
X42663299Y16594667D01*
X42711050Y16571556D01*
X42820490Y16505724D01*
X42983543Y16402422D01*
X43192133Y16266903D01*
X43438187Y16104419D01*
X43713627Y15920220D01*
X44010378Y15719560D01*
X44042336Y15697823D01*
X44442982Y15425376D01*
X44779620Y15196467D01*
X45057938Y15006560D01*
X45283625Y14851119D01*
X45462367Y14725609D01*
X45599852Y14625494D01*
X45701769Y14546239D01*
X45773804Y14483307D01*
X45821646Y14432163D01*
X45850981Y14388271D01*
X45867499Y14347097D01*
X45876885Y14304103D01*
X45884829Y14254755D01*
X45890494Y14224000D01*
X45920164Y14081792D01*
X45945869Y13966691D01*
X45957030Y13922036D01*
X46240039Y13922036D01*
X46173147Y14213059D01*
X46130468Y14393085D01*
X46093274Y14539608D01*
X46066255Y14634751D01*
X46055497Y14661627D01*
X46010674Y14693574D01*
X45904236Y14766945D01*
X45744787Y14875923D01*
X45540932Y15014693D01*
X45301278Y15177441D01*
X45034428Y15358351D01*
X44748989Y15551608D01*
X44453565Y15751395D01*
X44156761Y15951899D01*
X43867183Y16147303D01*
X43593436Y16331792D01*
X43344124Y16499551D01*
X43127854Y16644764D01*
X42953230Y16761617D01*
X42828857Y16844294D01*
X42763341Y16886979D01*
X42756441Y16891121D01*
X42664854Y16912155D01*
X42552352Y16873633D01*
X42552352Y16873633D01*
G37*
X42552352Y16873633D02*
X42550894Y16872881D01*
X42403330Y16770136D01*
X42238157Y16613368D01*
X42074933Y16424630D01*
X41933214Y16225973D01*
X41855022Y16088266D01*
X41801154Y15974895D01*
X41763453Y15877664D01*
X41738550Y15776950D01*
X41723077Y15653130D01*
X41713666Y15486582D01*
X41706948Y15257683D01*
X41706051Y15220433D01*
X41701996Y14968232D01*
X41705392Y14767187D01*
X41719052Y14588267D01*
X41745790Y14402441D01*
X41788418Y14180679D01*
X41822345Y14020378D01*
X41881280Y13753349D01*
X41931345Y13551911D01*
X41979882Y13398553D01*
X42034230Y13275763D01*
X42101732Y13166033D01*
X42189725Y13051851D01*
X42266390Y12961127D01*
X42362628Y12844659D01*
X42432030Y12752145D01*
X42460260Y12702758D01*
X42460334Y12701741D01*
X42498495Y12677233D01*
X42600608Y12640083D01*
X42748119Y12596656D01*
X42825869Y12576384D01*
X43011803Y12526936D01*
X43184234Y12476204D01*
X43313209Y12433142D01*
X43339039Y12423019D01*
X43489355Y12377620D01*
X43650088Y12369098D01*
X43839918Y12399273D01*
X44077523Y12469961D01*
X44174834Y12504394D01*
X44379058Y12581597D01*
X44624416Y12678512D01*
X44874598Y12780636D01*
X45025667Y12844249D01*
X45235379Y12937003D01*
X45395573Y13018600D01*
X45531735Y13105906D01*
X45669351Y13215788D01*
X45833906Y13365112D01*
X45884150Y13412385D01*
X46272800Y13779500D01*
X46240039Y13922036D01*
X45957030Y13922036D01*
X45935962Y13858807D01*
X45858579Y13761156D01*
X45739121Y13641460D01*
X45591828Y13512102D01*
X45430937Y13385461D01*
X45270689Y13273917D01*
X45125324Y13189852D01*
X45102095Y13178713D01*
X44872239Y13076814D01*
X44625527Y12974370D01*
X44376286Y12876585D01*
X44138843Y12788664D01*
X43927524Y12715811D01*
X43756654Y12663230D01*
X43640561Y12636127D01*
X43603334Y12634230D01*
X43482783Y12662919D01*
X43375213Y12698104D01*
X43295428Y12733953D01*
X43268718Y12757337D01*
X43269379Y12758048D01*
X43309902Y12780683D01*
X43414855Y12837077D01*
X43573706Y12921634D01*
X43775920Y13028757D01*
X44010965Y13152850D01*
X44179080Y13241391D01*
X44503424Y13409628D01*
X44759001Y13536639D01*
X44949923Y13624290D01*
X45080304Y13674447D01*
X45154257Y13688976D01*
X45162815Y13687725D01*
X45249112Y13692118D01*
X45287241Y13746004D01*
X45283953Y13762242D01*
X44976751Y13762242D01*
X44948233Y13732599D01*
X44856270Y13671679D01*
X44713151Y13586056D01*
X44531166Y13482305D01*
X44322603Y13367002D01*
X44099752Y13246722D01*
X43874901Y13128038D01*
X43660341Y13017528D01*
X43468359Y12921764D01*
X43311245Y12847323D01*
X43201289Y12800780D01*
X43155934Y12788061D01*
X43064945Y12797882D01*
X42932359Y12826671D01*
X42859432Y12846714D01*
X42711536Y12905559D01*
X42593965Y12995292D01*
X42494801Y13110656D01*
X42414492Y13218820D01*
X42362634Y13296524D01*
X42350693Y13324137D01*
X42393296Y13338539D01*
X42504064Y13371170D01*
X42669430Y13418165D01*
X42875827Y13475656D01*
X43056890Y13525386D01*
X43290611Y13590277D01*
X43498304Y13649958D01*
X43665056Y13699986D01*
X43775957Y13735917D01*
X43813312Y13750824D01*
X43898893Y13763062D01*
X43994129Y13741678D01*
X44111687Y13718740D01*
X44196326Y13748713D01*
X44273981Y13772623D01*
X44403233Y13789381D01*
X44559883Y13798567D01*
X44719728Y13799763D01*
X44858567Y13792548D01*
X44952200Y13776502D01*
X44976751Y13762242D01*
X45283953Y13762242D01*
X45271884Y13821833D01*
X45169667Y13821833D01*
X45161714Y13768295D01*
X45119822Y13765531D01*
X45067296Y13784029D01*
X45024805Y13815510D01*
X44096268Y13815510D01*
X44052389Y13801015D01*
X44031851Y13800667D01*
X43970732Y13821833D01*
X43819414Y13821833D01*
X43777299Y13800370D01*
X43669327Y13761331D01*
X43511324Y13709428D01*
X43319112Y13649376D01*
X43108516Y13585885D01*
X42895361Y13523670D01*
X42695470Y13467442D01*
X42524667Y13421914D01*
X42398776Y13391800D01*
X42343010Y13382133D01*
X42287140Y13412782D01*
X42248750Y13472583D01*
X42223499Y13547791D01*
X42186378Y13676306D01*
X42143542Y13834472D01*
X42101143Y13998634D01*
X42065334Y14145139D01*
X42042269Y14250329D01*
X42037000Y14286611D01*
X42075875Y14299676D01*
X42179539Y14305140D01*
X42328551Y14303996D01*
X42503472Y14297236D01*
X42684861Y14285854D01*
X42853278Y14270843D01*
X42989282Y14253197D01*
X43073434Y14233908D01*
X43074167Y14233625D01*
X43201848Y14190330D01*
X43307000Y14162901D01*
X43400981Y14128966D01*
X43519541Y14066477D01*
X43641338Y13989638D01*
X43745032Y13912655D01*
X43809279Y13849733D01*
X43819414Y13821833D01*
X43970732Y13821833D01*
X43958858Y13825945D01*
X43942000Y13864167D01*
X43962105Y13920542D01*
X43979150Y13927667D01*
X44034321Y13898704D01*
X44069000Y13864167D01*
X44096268Y13815510D01*
X45024805Y13815510D01*
X45005751Y13829626D01*
X45020784Y13871587D01*
X45085000Y13885333D01*
X45153953Y13858864D01*
X45169667Y13821833D01*
X45271884Y13821833D01*
X45271155Y13825430D01*
X45214370Y13891927D01*
X45104235Y13951511D01*
X44993339Y13967111D01*
X44910301Y13937448D01*
X44888643Y13906500D01*
X44833885Y13869128D01*
X44720335Y13846377D01*
X44572558Y13838032D01*
X44415118Y13843880D01*
X44272582Y13863705D01*
X44169512Y13897296D01*
X44146521Y13912967D01*
X44055892Y13959211D01*
X43926282Y13987541D01*
X43889188Y13990397D01*
X43731076Y14021619D01*
X43560981Y14093042D01*
X43406669Y14189068D01*
X43295910Y14294097D01*
X43282904Y14315207D01*
X43170785Y14315207D01*
X43158281Y14273147D01*
X43114301Y14272874D01*
X43040057Y14313475D01*
X43019883Y14344460D01*
X43032387Y14386520D01*
X43076367Y14386793D01*
X43150611Y14346192D01*
X43170785Y14315207D01*
X43282904Y14315207D01*
X43268051Y14339312D01*
X43188577Y14425754D01*
X43120503Y14453748D01*
X42913289Y14453748D01*
X42869254Y14392789D01*
X42769520Y14362259D01*
X42602670Y14351865D01*
X42483831Y14351000D01*
X42282676Y14354490D01*
X42150259Y14366491D01*
X42070882Y14389306D01*
X42035137Y14416745D01*
X42015340Y14475537D01*
X41995360Y14592148D01*
X41976793Y14746237D01*
X41961238Y14917465D01*
X41950290Y15085492D01*
X41945546Y15229977D01*
X41948603Y15330581D01*
X41960537Y15367000D01*
X42007028Y15354317D01*
X42112535Y15320750D01*
X42256038Y15273027D01*
X42286262Y15262778D01*
X42532784Y15157741D01*
X42707603Y15029881D01*
X42822910Y14867812D01*
X42879932Y14708129D01*
X42913043Y14555430D01*
X42913289Y14453748D01*
X43120503Y14453748D01*
X43099665Y14462317D01*
X43009117Y14497378D01*
X42962751Y14573556D01*
X42948548Y14633692D01*
X42923303Y14750919D01*
X42899254Y14836977D01*
X42897822Y14840840D01*
X42907968Y14890702D01*
X42961306Y14901333D01*
X43054720Y14924403D01*
X43077491Y14984606D01*
X43067679Y15000843D01*
X42953268Y15000843D01*
X42909389Y14986348D01*
X42888851Y14986000D01*
X42815858Y15011279D01*
X42799000Y15049500D01*
X42819105Y15105875D01*
X42836150Y15113000D01*
X42891321Y15084037D01*
X42926000Y15049500D01*
X42953268Y15000843D01*
X43067679Y15000843D01*
X43026827Y15068438D01*
X43000867Y15092795D01*
X42892832Y15185722D01*
X43004666Y15363148D01*
X43079965Y15470485D01*
X43141602Y15517968D01*
X43212996Y15521860D01*
X43229225Y15519084D01*
X43344042Y15521156D01*
X43402369Y15569749D01*
X43402156Y15571618D01*
X43058421Y15571618D01*
X43014204Y15459130D01*
X42939834Y15341224D01*
X42851232Y15244023D01*
X42779773Y15198334D01*
X42701198Y15197408D01*
X42568276Y15222842D01*
X42404577Y15267872D01*
X42233671Y15325732D01*
X42079128Y15389658D01*
X42031639Y15413062D01*
X41991275Y15478663D01*
X41990680Y15599688D01*
X42026468Y15758719D01*
X42095257Y15938335D01*
X42157338Y16060132D01*
X42247165Y16210195D01*
X42321105Y16294791D01*
X42396557Y16315501D01*
X42490923Y16273907D01*
X42621602Y16171587D01*
X42693798Y16108870D01*
X42823211Y15989951D01*
X42926539Y15885082D01*
X42987639Y15811059D01*
X42996666Y15793759D01*
X43034288Y15698060D01*
X43056567Y15652562D01*
X43058421Y15571618D01*
X43402156Y15571618D01*
X43396375Y15622329D01*
X43307000Y15622329D01*
X43280474Y15581720D01*
X43203024Y15606299D01*
X43181226Y15619347D01*
X43142043Y15665831D01*
X43147651Y15687428D01*
X43208001Y15699605D01*
X43277220Y15669891D01*
X43307000Y15622329D01*
X43396375Y15622329D01*
X43393371Y15648671D01*
X43352166Y15702834D01*
X43257479Y15767674D01*
X43174302Y15790333D01*
X43097783Y15819941D01*
X42983701Y15900096D01*
X42850444Y16017797D01*
X42844533Y16023533D01*
X42716413Y16145001D01*
X42599247Y16250337D01*
X42515924Y16319049D01*
X42508474Y16324431D01*
X42411819Y16392131D01*
X42506956Y16493399D01*
X42590612Y16563934D01*
X42661470Y16594624D01*
X42663299Y16594667D01*
X42711050Y16571556D01*
X42820490Y16505724D01*
X42983543Y16402422D01*
X43192133Y16266903D01*
X43438187Y16104419D01*
X43713627Y15920220D01*
X44010378Y15719560D01*
X44042336Y15697823D01*
X44442982Y15425376D01*
X44779620Y15196467D01*
X45057938Y15006560D01*
X45283625Y14851119D01*
X45462367Y14725609D01*
X45599852Y14625494D01*
X45701769Y14546239D01*
X45773804Y14483307D01*
X45821646Y14432163D01*
X45850981Y14388271D01*
X45867499Y14347097D01*
X45876885Y14304103D01*
X45884829Y14254755D01*
X45890494Y14224000D01*
X45920164Y14081792D01*
X45945869Y13966691D01*
X45957030Y13922036D01*
X46240039Y13922036D01*
X46173147Y14213059D01*
X46130468Y14393085D01*
X46093274Y14539608D01*
X46066255Y14634751D01*
X46055497Y14661627D01*
X46010674Y14693574D01*
X45904236Y14766945D01*
X45744787Y14875923D01*
X45540932Y15014693D01*
X45301278Y15177441D01*
X45034428Y15358351D01*
X44748989Y15551608D01*
X44453565Y15751395D01*
X44156761Y15951899D01*
X43867183Y16147303D01*
X43593436Y16331792D01*
X43344124Y16499551D01*
X43127854Y16644764D01*
X42953230Y16761617D01*
X42828857Y16844294D01*
X42763341Y16886979D01*
X42756441Y16891121D01*
X42664854Y16912155D01*
X42552352Y16873633D01*
G36*
X15120490Y59140811D02*
X14868226Y59140061D01*
X14624928Y59138928D01*
X14394263Y59137409D01*
X14179893Y59135505D01*
X13985482Y59133216D01*
X13814696Y59130542D01*
X13671197Y59127484D01*
X13558651Y59124040D01*
X13480722Y59120212D01*
X13441073Y59115998D01*
X13439272Y59115531D01*
X13341133Y59067931D01*
X13269637Y58997060D01*
X13225658Y58910890D01*
X13210069Y58817392D01*
X13223743Y58724538D01*
X13267555Y58640299D01*
X13342377Y58572647D01*
X13377708Y58553595D01*
X13460908Y58515250D01*
X13461454Y56539478D01*
X13462000Y54563707D01*
X12892407Y53576145D01*
X12771683Y53366846D01*
X12634137Y53128407D01*
X12484112Y52868355D01*
X12325949Y52594213D01*
X12163989Y52313506D01*
X12002575Y52033761D01*
X11846048Y51762500D01*
X11698749Y51507250D01*
X11632991Y51393306D01*
X11514044Y51186703D01*
X11401588Y50990405D01*
X11297389Y50807556D01*
X11203214Y50641305D01*
X11120830Y50494797D01*
X11052003Y50371179D01*
X10998500Y50273596D01*
X10962087Y50205197D01*
X10944530Y50169126D01*
X10943166Y50164660D01*
X10953653Y50137194D01*
X10983393Y50077892D01*
X11029806Y49991187D01*
X11090310Y49881512D01*
X11162324Y49753300D01*
X11243269Y49610984D01*
X11330564Y49458995D01*
X11421627Y49301768D01*
X11513878Y49143735D01*
X11604736Y48989327D01*
X11691620Y48842980D01*
X11771950Y48709124D01*
X11843145Y48592193D01*
X11902624Y48496620D01*
X11947806Y48426836D01*
X11976111Y48387276D01*
X11981200Y48381708D01*
X12044501Y48323500D01*
X18943499Y48323500D01*
X19006800Y48381708D01*
X19029191Y48410671D01*
X19069281Y48471282D01*
X19124488Y48559106D01*
X19192232Y48669711D01*
X19269933Y48798662D01*
X19355010Y48941526D01*
X19444882Y49093871D01*
X19536969Y49251262D01*
X19628691Y49409265D01*
X19717466Y49563448D01*
X19800715Y49709377D01*
X19875856Y49842618D01*
X19940309Y49958739D01*
X19991494Y50053305D01*
X20026830Y50121882D01*
X20043737Y50160039D01*
X20044833Y50165089D01*
X20036480Y50185349D01*
X19371576Y50185349D01*
X19005322Y49550758D01*
X18639068Y48916166D01*
X12349128Y48916166D01*
X11982407Y49551836D01*
X11615685Y50187505D01*
X11759830Y50435544D01*
X11824522Y50547554D01*
X11892145Y50665793D01*
X11954401Y50775690D01*
X12000362Y50857913D01*
X12096750Y51032243D01*
X13440624Y51032538D01*
X14784499Y51032833D01*
X14390335Y50635958D01*
X14283699Y50527863D01*
X14186344Y50427792D01*
X14102481Y50340187D01*
X14036323Y50269487D01*
X13992080Y50220132D01*
X13974357Y50197404D01*
X13964608Y50147359D01*
X13981060Y50100578D01*
X14014409Y50052906D01*
X14068258Y49993228D01*
X14133935Y49929306D01*
X14202772Y49868901D01*
X14266098Y49819774D01*
X14315243Y49789688D01*
X14334693Y49784000D01*
X14364490Y49798066D01*
X14419617Y49840690D01*
X14500789Y49912515D01*
X14608719Y50014181D01*
X14744122Y50146330D01*
X14799585Y50201345D01*
X15218833Y50618689D01*
X15218833Y50038970D01*
X15219085Y49864588D01*
X15220025Y49727651D01*
X15221931Y49623271D01*
X15225078Y49546560D01*
X15229744Y49492631D01*
X15236206Y49456598D01*
X15244740Y49433573D01*
X15253864Y49420542D01*
X15276311Y49402560D01*
X15310256Y49391053D01*
X15364424Y49384683D01*
X15447540Y49382113D01*
X15506327Y49381833D01*
X15604657Y49382349D01*
X15669930Y49385239D01*
X15711424Y49392520D01*
X15738413Y49406207D01*
X15760173Y49428317D01*
X15768595Y49438830D01*
X15782104Y49457506D01*
X15792510Y49478472D01*
X15800144Y49506998D01*
X15805336Y49548354D01*
X15808419Y49607810D01*
X15809723Y49690637D01*
X15809580Y49802105D01*
X15808321Y49947484D01*
X15807173Y50052681D01*
X15805551Y50201226D01*
X15804181Y50334838D01*
X15803114Y50447994D01*
X15802399Y50535169D01*
X15802084Y50590840D01*
X15802204Y50609517D01*
X15816833Y50595147D01*
X15857436Y50554631D01*
X15920140Y50491849D01*
X16001075Y50410680D01*
X16096371Y50315004D01*
X16202157Y50208700D01*
X16204371Y50206474D01*
X16312939Y50098678D01*
X16414071Y50000822D01*
X16503319Y49917007D01*
X16576236Y49851336D01*
X16628375Y49807911D01*
X16654883Y49790925D01*
X16682124Y49790130D01*
X16714707Y49804243D01*
X16759033Y49837801D01*
X16821500Y49895341D01*
X16871841Y49944746D01*
X16954844Y50030790D01*
X17007977Y50094899D01*
X17034558Y50141424D01*
X17039166Y50164305D01*
X17032064Y50188256D01*
X17008971Y50224541D01*
X16967213Y50276188D01*
X16904111Y50346227D01*
X16816990Y50437688D01*
X16703172Y50553598D01*
X16631912Y50625176D01*
X16224657Y51032833D01*
X16794589Y51032833D01*
X16980348Y51032686D01*
X17128117Y51033542D01*
X17242228Y51037347D01*
X17327015Y51046048D01*
X17386810Y51061591D01*
X17425946Y51085921D01*
X17448756Y51120987D01*
X17459572Y51168733D01*
X17462728Y51231105D01*
X17462555Y51310051D01*
X17462500Y51332856D01*
X17463000Y51414683D01*
X17461602Y51479693D01*
X17453955Y51529813D01*
X17435710Y51566969D01*
X17402518Y51593088D01*
X17350029Y51610095D01*
X17273895Y51619918D01*
X17169765Y51624482D01*
X17033290Y51625713D01*
X16860120Y51625538D01*
X16801738Y51625500D01*
X16225644Y51625500D01*
X16642988Y52044748D01*
X16762135Y52165838D01*
X16865460Y52273644D01*
X16949931Y52364829D01*
X17012514Y52436058D01*
X17050175Y52483995D01*
X17060333Y52503680D01*
X17045004Y52539143D01*
X17004304Y52593031D01*
X16946164Y52657635D01*
X16878515Y52725243D01*
X16809288Y52788145D01*
X16746413Y52838629D01*
X16697821Y52868986D01*
X16679096Y52874333D01*
X16653856Y52865348D01*
X16612576Y52836912D01*
X16552751Y52786802D01*
X16471879Y52712796D01*
X16367455Y52612670D01*
X16236976Y52484203D01*
X16214873Y52462222D01*
X15800916Y52050111D01*
X15807153Y52615966D01*
X15809396Y52800668D01*
X15810274Y52947395D01*
X15807798Y53060500D01*
X15799979Y53144338D01*
X15784827Y53203263D01*
X15760351Y53241628D01*
X15724562Y53263787D01*
X15675470Y53274094D01*
X15611085Y53276902D01*
X15529418Y53276565D01*
X15505271Y53276500D01*
X15398297Y53275004D01*
X15325816Y53269838D01*
X15280072Y53259981D01*
X15253307Y53244416D01*
X15252095Y53243238D01*
X15242105Y53228374D01*
X15234292Y53202946D01*
X15228402Y53162209D01*
X15224179Y53101418D01*
X15221368Y53015828D01*
X15219713Y52900693D01*
X15218961Y52751268D01*
X15218833Y52624810D01*
X15218833Y52039644D01*
X14799585Y52456988D01*
X14660697Y52594012D01*
X14548642Y52701723D01*
X14461476Y52781856D01*
X14397255Y52836147D01*
X14354035Y52866332D01*
X14332086Y52874333D01*
X14289146Y52858266D01*
X14224761Y52812313D01*
X14145958Y52742041D01*
X14057630Y52653257D01*
X14000173Y52584613D01*
X13970473Y52531009D01*
X13965416Y52487344D01*
X13974357Y52460929D01*
X13994735Y52435117D01*
X14040902Y52383877D01*
X14108644Y52311649D01*
X14193751Y52222873D01*
X14292011Y52121991D01*
X14390335Y52022375D01*
X14784499Y51625500D01*
X12442547Y51625500D01*
X12484274Y51694291D01*
X12530704Y51771901D01*
X12592562Y51876934D01*
X12667835Y52005867D01*
X12754514Y52155180D01*
X12850587Y52321351D01*
X12954044Y52500859D01*
X13062874Y52690182D01*
X13175065Y52885799D01*
X13288607Y53084188D01*
X13401490Y53281828D01*
X13511701Y53475198D01*
X13617232Y53660776D01*
X13716069Y53835041D01*
X13806203Y53994471D01*
X13885624Y54135545D01*
X13952319Y54254742D01*
X14004278Y54348539D01*
X14039490Y54413416D01*
X14055945Y54445851D01*
X14056804Y54448121D01*
X14059618Y54478826D01*
X14062294Y54548984D01*
X14064805Y54655716D01*
X14067127Y54796142D01*
X14069232Y54967383D01*
X14071094Y55166560D01*
X14072686Y55390791D01*
X14073982Y55637199D01*
X14074956Y55902902D01*
X14075580Y56185022D01*
X14075830Y56480679D01*
X14075833Y56520152D01*
X14075833Y58525833D01*
X16911347Y58525833D01*
X16917048Y56477958D01*
X16922750Y54430083D01*
X17381027Y53636333D01*
X17500642Y53429175D01*
X17633369Y53199341D01*
X17773305Y52957051D01*
X17914546Y52712524D01*
X18051192Y52475980D01*
X18177337Y52257637D01*
X18267413Y52101750D01*
X18461525Y51765800D01*
X18636856Y51462266D01*
X18793114Y51191653D01*
X18930006Y50954470D01*
X19047238Y50751225D01*
X19144520Y50582425D01*
X19221557Y50448577D01*
X19278056Y50350190D01*
X19313726Y50287771D01*
X19320558Y50275716D01*
X19371576Y50185349D01*
X20036480Y50185349D01*
X20034542Y50190048D01*
X20005118Y50247652D01*
X19958740Y50333968D01*
X19897584Y50445062D01*
X19823828Y50577001D01*
X19739648Y50725849D01*
X19647221Y50887675D01*
X19587440Y50991567D01*
X19472656Y51190480D01*
X19348821Y51405054D01*
X19221009Y51626498D01*
X19094297Y51846018D01*
X18973760Y52054821D01*
X18864473Y52244115D01*
X18775568Y52398083D01*
X18680583Y52562571D01*
X18569654Y52754682D01*
X18447999Y52965377D01*
X18320839Y53185617D01*
X18193392Y53406360D01*
X18070878Y53618568D01*
X17973544Y53787170D01*
X17526000Y54562424D01*
X17527092Y58515250D01*
X17610292Y58553595D01*
X17696689Y58613178D01*
X17751755Y58692267D01*
X17776365Y58782891D01*
X17771392Y58877078D01*
X17737708Y58966857D01*
X17676188Y59044256D01*
X17587705Y59101304D01*
X17548727Y59115531D01*
X17513332Y59119785D01*
X17439269Y59123654D01*
X17330203Y59127138D01*
X17189798Y59130238D01*
X17021718Y59132952D01*
X16829627Y59135282D01*
X16617191Y59137226D01*
X16388071Y59138786D01*
X16145934Y59139960D01*
X15894443Y59140750D01*
X15637263Y59141155D01*
X15378057Y59141175D01*
X15120490Y59140811D01*
X15120490Y59140811D01*
G37*
X15120490Y59140811D02*
X14868226Y59140061D01*
X14624928Y59138928D01*
X14394263Y59137409D01*
X14179893Y59135505D01*
X13985482Y59133216D01*
X13814696Y59130542D01*
X13671197Y59127484D01*
X13558651Y59124040D01*
X13480722Y59120212D01*
X13441073Y59115998D01*
X13439272Y59115531D01*
X13341133Y59067931D01*
X13269637Y58997060D01*
X13225658Y58910890D01*
X13210069Y58817392D01*
X13223743Y58724538D01*
X13267555Y58640299D01*
X13342377Y58572647D01*
X13377708Y58553595D01*
X13460908Y58515250D01*
X13461454Y56539478D01*
X13462000Y54563707D01*
X12892407Y53576145D01*
X12771683Y53366846D01*
X12634137Y53128407D01*
X12484112Y52868355D01*
X12325949Y52594213D01*
X12163989Y52313506D01*
X12002575Y52033761D01*
X11846048Y51762500D01*
X11698749Y51507250D01*
X11632991Y51393306D01*
X11514044Y51186703D01*
X11401588Y50990405D01*
X11297389Y50807556D01*
X11203214Y50641305D01*
X11120830Y50494797D01*
X11052003Y50371179D01*
X10998500Y50273596D01*
X10962087Y50205197D01*
X10944530Y50169126D01*
X10943166Y50164660D01*
X10953653Y50137194D01*
X10983393Y50077892D01*
X11029806Y49991187D01*
X11090310Y49881512D01*
X11162324Y49753300D01*
X11243269Y49610984D01*
X11330564Y49458995D01*
X11421627Y49301768D01*
X11513878Y49143735D01*
X11604736Y48989327D01*
X11691620Y48842980D01*
X11771950Y48709124D01*
X11843145Y48592193D01*
X11902624Y48496620D01*
X11947806Y48426836D01*
X11976111Y48387276D01*
X11981200Y48381708D01*
X12044501Y48323500D01*
X18943499Y48323500D01*
X19006800Y48381708D01*
X19029191Y48410671D01*
X19069281Y48471282D01*
X19124488Y48559106D01*
X19192232Y48669711D01*
X19269933Y48798662D01*
X19355010Y48941526D01*
X19444882Y49093871D01*
X19536969Y49251262D01*
X19628691Y49409265D01*
X19717466Y49563448D01*
X19800715Y49709377D01*
X19875856Y49842618D01*
X19940309Y49958739D01*
X19991494Y50053305D01*
X20026830Y50121882D01*
X20043737Y50160039D01*
X20044833Y50165089D01*
X20036480Y50185349D01*
X19371576Y50185349D01*
X19005322Y49550758D01*
X18639068Y48916166D01*
X12349128Y48916166D01*
X11982407Y49551836D01*
X11615685Y50187505D01*
X11759830Y50435544D01*
X11824522Y50547554D01*
X11892145Y50665793D01*
X11954401Y50775690D01*
X12000362Y50857913D01*
X12096750Y51032243D01*
X13440624Y51032538D01*
X14784499Y51032833D01*
X14390335Y50635958D01*
X14283699Y50527863D01*
X14186344Y50427792D01*
X14102481Y50340187D01*
X14036323Y50269487D01*
X13992080Y50220132D01*
X13974357Y50197404D01*
X13964608Y50147359D01*
X13981060Y50100578D01*
X14014409Y50052906D01*
X14068258Y49993228D01*
X14133935Y49929306D01*
X14202772Y49868901D01*
X14266098Y49819774D01*
X14315243Y49789688D01*
X14334693Y49784000D01*
X14364490Y49798066D01*
X14419617Y49840690D01*
X14500789Y49912515D01*
X14608719Y50014181D01*
X14744122Y50146330D01*
X14799585Y50201345D01*
X15218833Y50618689D01*
X15218833Y50038970D01*
X15219085Y49864588D01*
X15220025Y49727651D01*
X15221931Y49623271D01*
X15225078Y49546560D01*
X15229744Y49492631D01*
X15236206Y49456598D01*
X15244740Y49433573D01*
X15253864Y49420542D01*
X15276311Y49402560D01*
X15310256Y49391053D01*
X15364424Y49384683D01*
X15447540Y49382113D01*
X15506327Y49381833D01*
X15604657Y49382349D01*
X15669930Y49385239D01*
X15711424Y49392520D01*
X15738413Y49406207D01*
X15760173Y49428317D01*
X15768595Y49438830D01*
X15782104Y49457506D01*
X15792510Y49478472D01*
X15800144Y49506998D01*
X15805336Y49548354D01*
X15808419Y49607810D01*
X15809723Y49690637D01*
X15809580Y49802105D01*
X15808321Y49947484D01*
X15807173Y50052681D01*
X15805551Y50201226D01*
X15804181Y50334838D01*
X15803114Y50447994D01*
X15802399Y50535169D01*
X15802084Y50590840D01*
X15802204Y50609517D01*
X15816833Y50595147D01*
X15857436Y50554631D01*
X15920140Y50491849D01*
X16001075Y50410680D01*
X16096371Y50315004D01*
X16202157Y50208700D01*
X16204371Y50206474D01*
X16312939Y50098678D01*
X16414071Y50000822D01*
X16503319Y49917007D01*
X16576236Y49851336D01*
X16628375Y49807911D01*
X16654883Y49790925D01*
X16682124Y49790130D01*
X16714707Y49804243D01*
X16759033Y49837801D01*
X16821500Y49895341D01*
X16871841Y49944746D01*
X16954844Y50030790D01*
X17007977Y50094899D01*
X17034558Y50141424D01*
X17039166Y50164305D01*
X17032064Y50188256D01*
X17008971Y50224541D01*
X16967213Y50276188D01*
X16904111Y50346227D01*
X16816990Y50437688D01*
X16703172Y50553598D01*
X16631912Y50625176D01*
X16224657Y51032833D01*
X16794589Y51032833D01*
X16980348Y51032686D01*
X17128117Y51033542D01*
X17242228Y51037347D01*
X17327015Y51046048D01*
X17386810Y51061591D01*
X17425946Y51085921D01*
X17448756Y51120987D01*
X17459572Y51168733D01*
X17462728Y51231105D01*
X17462555Y51310051D01*
X17462500Y51332856D01*
X17463000Y51414683D01*
X17461602Y51479693D01*
X17453955Y51529813D01*
X17435710Y51566969D01*
X17402518Y51593088D01*
X17350029Y51610095D01*
X17273895Y51619918D01*
X17169765Y51624482D01*
X17033290Y51625713D01*
X16860120Y51625538D01*
X16801738Y51625500D01*
X16225644Y51625500D01*
X16642988Y52044748D01*
X16762135Y52165838D01*
X16865460Y52273644D01*
X16949931Y52364829D01*
X17012514Y52436058D01*
X17050175Y52483995D01*
X17060333Y52503680D01*
X17045004Y52539143D01*
X17004304Y52593031D01*
X16946164Y52657635D01*
X16878515Y52725243D01*
X16809288Y52788145D01*
X16746413Y52838629D01*
X16697821Y52868986D01*
X16679096Y52874333D01*
X16653856Y52865348D01*
X16612576Y52836912D01*
X16552751Y52786802D01*
X16471879Y52712796D01*
X16367455Y52612670D01*
X16236976Y52484203D01*
X16214873Y52462222D01*
X15800916Y52050111D01*
X15807153Y52615966D01*
X15809396Y52800668D01*
X15810274Y52947395D01*
X15807798Y53060500D01*
X15799979Y53144338D01*
X15784827Y53203263D01*
X15760351Y53241628D01*
X15724562Y53263787D01*
X15675470Y53274094D01*
X15611085Y53276902D01*
X15529418Y53276565D01*
X15505271Y53276500D01*
X15398297Y53275004D01*
X15325816Y53269838D01*
X15280072Y53259981D01*
X15253307Y53244416D01*
X15252095Y53243238D01*
X15242105Y53228374D01*
X15234292Y53202946D01*
X15228402Y53162209D01*
X15224179Y53101418D01*
X15221368Y53015828D01*
X15219713Y52900693D01*
X15218961Y52751268D01*
X15218833Y52624810D01*
X15218833Y52039644D01*
X14799585Y52456988D01*
X14660697Y52594012D01*
X14548642Y52701723D01*
X14461476Y52781856D01*
X14397255Y52836147D01*
X14354035Y52866332D01*
X14332086Y52874333D01*
X14289146Y52858266D01*
X14224761Y52812313D01*
X14145958Y52742041D01*
X14057630Y52653257D01*
X14000173Y52584613D01*
X13970473Y52531009D01*
X13965416Y52487344D01*
X13974357Y52460929D01*
X13994735Y52435117D01*
X14040902Y52383877D01*
X14108644Y52311649D01*
X14193751Y52222873D01*
X14292011Y52121991D01*
X14390335Y52022375D01*
X14784499Y51625500D01*
X12442547Y51625500D01*
X12484274Y51694291D01*
X12530704Y51771901D01*
X12592562Y51876934D01*
X12667835Y52005867D01*
X12754514Y52155180D01*
X12850587Y52321351D01*
X12954044Y52500859D01*
X13062874Y52690182D01*
X13175065Y52885799D01*
X13288607Y53084188D01*
X13401490Y53281828D01*
X13511701Y53475198D01*
X13617232Y53660776D01*
X13716069Y53835041D01*
X13806203Y53994471D01*
X13885624Y54135545D01*
X13952319Y54254742D01*
X14004278Y54348539D01*
X14039490Y54413416D01*
X14055945Y54445851D01*
X14056804Y54448121D01*
X14059618Y54478826D01*
X14062294Y54548984D01*
X14064805Y54655716D01*
X14067127Y54796142D01*
X14069232Y54967383D01*
X14071094Y55166560D01*
X14072686Y55390791D01*
X14073982Y55637199D01*
X14074956Y55902902D01*
X14075580Y56185022D01*
X14075830Y56480679D01*
X14075833Y56520152D01*
X14075833Y58525833D01*
X16911347Y58525833D01*
X16917048Y56477958D01*
X16922750Y54430083D01*
X17381027Y53636333D01*
X17500642Y53429175D01*
X17633369Y53199341D01*
X17773305Y52957051D01*
X17914546Y52712524D01*
X18051192Y52475980D01*
X18177337Y52257637D01*
X18267413Y52101750D01*
X18461525Y51765800D01*
X18636856Y51462266D01*
X18793114Y51191653D01*
X18930006Y50954470D01*
X19047238Y50751225D01*
X19144520Y50582425D01*
X19221557Y50448577D01*
X19278056Y50350190D01*
X19313726Y50287771D01*
X19320558Y50275716D01*
X19371576Y50185349D01*
X20036480Y50185349D01*
X20034542Y50190048D01*
X20005118Y50247652D01*
X19958740Y50333968D01*
X19897584Y50445062D01*
X19823828Y50577001D01*
X19739648Y50725849D01*
X19647221Y50887675D01*
X19587440Y50991567D01*
X19472656Y51190480D01*
X19348821Y51405054D01*
X19221009Y51626498D01*
X19094297Y51846018D01*
X18973760Y52054821D01*
X18864473Y52244115D01*
X18775568Y52398083D01*
X18680583Y52562571D01*
X18569654Y52754682D01*
X18447999Y52965377D01*
X18320839Y53185617D01*
X18193392Y53406360D01*
X18070878Y53618568D01*
X17973544Y53787170D01*
X17526000Y54562424D01*
X17527092Y58515250D01*
X17610292Y58553595D01*
X17696689Y58613178D01*
X17751755Y58692267D01*
X17776365Y58782891D01*
X17771392Y58877078D01*
X17737708Y58966857D01*
X17676188Y59044256D01*
X17587705Y59101304D01*
X17548727Y59115531D01*
X17513332Y59119785D01*
X17439269Y59123654D01*
X17330203Y59127138D01*
X17189798Y59130238D01*
X17021718Y59132952D01*
X16829627Y59135282D01*
X16617191Y59137226D01*
X16388071Y59138786D01*
X16145934Y59139960D01*
X15894443Y59140750D01*
X15637263Y59141155D01*
X15378057Y59141175D01*
X15120490Y59140811D01*
D15*
X19437047Y14066762D02*
X20404666Y14066762D01*
X20501428Y13099143D01*
X20404666Y13195905D01*
X20211143Y13292667D01*
X19727333Y13292667D01*
X19533809Y13195905D01*
X19437047Y13099143D01*
X19340286Y12905619D01*
X19340286Y12421810D01*
X19437047Y12228286D01*
X19533809Y12131524D01*
X19727333Y12034762D01*
X20211143Y12034762D01*
X20404666Y12131524D01*
X20501428Y12228286D01*
X18759714Y14066762D02*
X18082381Y12034762D01*
X17405048Y14066762D01*
X43458191Y48768000D02*
X43651714Y48864762D01*
X43942000Y48864762D01*
X44232286Y48768000D01*
X44425810Y48574476D01*
X44522571Y48380952D01*
X44619333Y47993905D01*
X44619333Y47703619D01*
X44522571Y47316571D01*
X44425810Y47123048D01*
X44232286Y46929524D01*
X43942000Y46832762D01*
X43748476Y46832762D01*
X43458191Y46929524D01*
X43361429Y47026286D01*
X43361429Y47703619D01*
X43748476Y47703619D01*
X42490571Y46832762D02*
X42490571Y48864762D01*
X41329429Y46832762D01*
X41329429Y48864762D01*
X40361809Y46832762D02*
X40361809Y48864762D01*
X39878000Y48864762D01*
X39587714Y48768000D01*
X39394190Y48574476D01*
X39297429Y48380952D01*
X39200667Y47993905D01*
X39200667Y47703619D01*
X39297429Y47316571D01*
X39394190Y47123048D01*
X39587714Y46929524D01*
X39878000Y46832762D01*
X40361809Y46832762D01*
D13*
X14278429Y35850285D02*
X14278429Y35269714D01*
X14278429Y25690285D02*
X14278429Y25109714D01*
X14568714Y25400000D02*
X13988143Y25400000D01*
X42218429Y35850285D02*
X42218429Y35269714D01*
X42218429Y25690285D02*
X42218429Y25109714D01*
X42508714Y25400000D02*
X41928143Y25400000D01*
D16*
X38976904Y54277381D02*
X38976904Y55293381D01*
X38589857Y55293381D01*
X38493095Y55245000D01*
X38444714Y55196619D01*
X38396333Y55099857D01*
X38396333Y54954714D01*
X38444714Y54857952D01*
X38493095Y54809571D01*
X38589857Y54761190D01*
X38976904Y54761190D01*
X37525476Y55293381D02*
X37718999Y55293381D01*
X37815761Y55245000D01*
X37864142Y55196619D01*
X37960904Y55051476D01*
X38009285Y54857952D01*
X38009285Y54470905D01*
X37960904Y54374143D01*
X37912523Y54325762D01*
X37815761Y54277381D01*
X37622238Y54277381D01*
X37525476Y54325762D01*
X37477095Y54374143D01*
X37428714Y54470905D01*
X37428714Y54712810D01*
X37477095Y54809571D01*
X37525476Y54857952D01*
X37622238Y54906333D01*
X37815761Y54906333D01*
X37912523Y54857952D01*
X37960904Y54809571D01*
X38009285Y54712810D01*
X42163999Y52626381D02*
X41970476Y52626381D01*
X41873714Y52578000D01*
X41776952Y52481238D01*
X41728571Y52287714D01*
X41728571Y51949048D01*
X41776952Y51755524D01*
X41873714Y51658762D01*
X41970476Y51610381D01*
X42163999Y51610381D01*
X42260761Y51658762D01*
X42357523Y51755524D01*
X42405904Y51949048D01*
X42405904Y52287714D01*
X42357523Y52481238D01*
X42260761Y52578000D01*
X42163999Y52626381D01*
X40857714Y52287714D02*
X40857714Y51610381D01*
X41293142Y52287714D02*
X41293142Y51755524D01*
X41244761Y51658762D01*
X41147999Y51610381D01*
X41002857Y51610381D01*
X40906095Y51658762D01*
X40857714Y51707143D01*
X40519047Y52287714D02*
X40131999Y52287714D01*
X40373904Y52626381D02*
X40373904Y51755524D01*
X40325523Y51658762D01*
X40228761Y51610381D01*
X40131999Y51610381D01*
X39793333Y52287714D02*
X39793333Y51271714D01*
X39793333Y52239333D02*
X39696571Y52287714D01*
X39503048Y52287714D01*
X39406286Y52239333D01*
X39357905Y52190952D01*
X39309524Y52094190D01*
X39309524Y51803905D01*
X39357905Y51707143D01*
X39406286Y51658762D01*
X39503048Y51610381D01*
X39696571Y51610381D01*
X39793333Y51658762D01*
X38438667Y52287714D02*
X38438667Y51610381D01*
X38874095Y52287714D02*
X38874095Y51755524D01*
X38825714Y51658762D01*
X38728952Y51610381D01*
X38583810Y51610381D01*
X38487048Y51658762D01*
X38438667Y51707143D01*
X38100000Y52287714D02*
X37712952Y52287714D01*
X37954857Y52626381D02*
X37954857Y51755524D01*
X37906476Y51658762D01*
X37809714Y51610381D01*
X37712952Y51610381D01*
X37422667Y52529619D02*
X37374286Y52578000D01*
X37277524Y52626381D01*
X37035620Y52626381D01*
X36938858Y52578000D01*
X36890477Y52529619D01*
X36842096Y52432857D01*
X36842096Y52336095D01*
X36890477Y52190952D01*
X37471048Y51610381D01*
X36842096Y51610381D01*
X38976904Y8557381D02*
X38976904Y9573381D01*
X38589857Y9573381D01*
X38493095Y9525000D01*
X38444714Y9476619D01*
X38396333Y9379857D01*
X38396333Y9234714D01*
X38444714Y9137952D01*
X38493095Y9089571D01*
X38589857Y9041190D01*
X38976904Y9041190D01*
X37477095Y9573381D02*
X37960904Y9573381D01*
X38009285Y9089571D01*
X37960904Y9137952D01*
X37864142Y9186333D01*
X37622238Y9186333D01*
X37525476Y9137952D01*
X37477095Y9089571D01*
X37428714Y8992810D01*
X37428714Y8750905D01*
X37477095Y8654143D01*
X37525476Y8605762D01*
X37622238Y8557381D01*
X37864142Y8557381D01*
X37960904Y8605762D01*
X38009285Y8654143D01*
X41776952Y5890381D02*
X41776952Y6906381D01*
X41293142Y6567714D02*
X41293142Y5890381D01*
X41293142Y6470952D02*
X41244761Y6519333D01*
X41147999Y6567714D01*
X41002857Y6567714D01*
X40906095Y6519333D01*
X40857714Y6422571D01*
X40857714Y5890381D01*
X40373904Y6567714D02*
X40373904Y5551714D01*
X40373904Y6519333D02*
X40277142Y6567714D01*
X40083619Y6567714D01*
X39986857Y6519333D01*
X39938476Y6470952D01*
X39890095Y6374190D01*
X39890095Y6083905D01*
X39938476Y5987143D01*
X39986857Y5938762D01*
X40083619Y5890381D01*
X40277142Y5890381D01*
X40373904Y5938762D01*
X39019238Y6567714D02*
X39019238Y5890381D01*
X39454666Y6567714D02*
X39454666Y6035524D01*
X39406285Y5938762D01*
X39309523Y5890381D01*
X39164381Y5890381D01*
X39067619Y5938762D01*
X39019238Y5987143D01*
X38680571Y6567714D02*
X38293523Y6567714D01*
X38535428Y6906381D02*
X38535428Y6035524D01*
X38487047Y5938762D01*
X38390285Y5890381D01*
X38293523Y5890381D01*
X38003238Y6809619D02*
X37954857Y6858000D01*
X37858095Y6906381D01*
X37616191Y6906381D01*
X37519429Y6858000D01*
X37471048Y6809619D01*
X37422667Y6712857D01*
X37422667Y6616095D01*
X37471048Y6470952D01*
X38051619Y5890381D01*
X37422667Y5890381D01*
X55196619Y31102904D02*
X54180619Y31102904D01*
X54180619Y30715857D01*
X54229000Y30619095D01*
X54277381Y30570714D01*
X54374143Y30522333D01*
X54519286Y30522333D01*
X54616048Y30570714D01*
X54664429Y30619095D01*
X54712810Y30715857D01*
X54712810Y31102904D01*
X54277381Y30135285D02*
X54229000Y30086904D01*
X54180619Y29990142D01*
X54180619Y29748238D01*
X54229000Y29651476D01*
X54277381Y29603095D01*
X54374143Y29554714D01*
X54470905Y29554714D01*
X54616048Y29603095D01*
X55196619Y30183666D01*
X55196619Y29554714D01*
X51513619Y31495999D02*
X51513619Y31302476D01*
X51562000Y31205714D01*
X51658762Y31108952D01*
X51852286Y31060571D01*
X52190952Y31060571D01*
X52384476Y31108952D01*
X52481238Y31205714D01*
X52529619Y31302476D01*
X52529619Y31495999D01*
X52481238Y31592761D01*
X52384476Y31689523D01*
X52190952Y31737904D01*
X51852286Y31737904D01*
X51658762Y31689523D01*
X51562000Y31592761D01*
X51513619Y31495999D01*
X51852286Y30189714D02*
X52529619Y30189714D01*
X51852286Y30625142D02*
X52384476Y30625142D01*
X52481238Y30576761D01*
X52529619Y30479999D01*
X52529619Y30334857D01*
X52481238Y30238095D01*
X52432857Y30189714D01*
X51852286Y29851047D02*
X51852286Y29463999D01*
X51513619Y29705904D02*
X52384476Y29705904D01*
X52481238Y29657523D01*
X52529619Y29560761D01*
X52529619Y29463999D01*
X51852286Y29125333D02*
X52868286Y29125333D01*
X51900667Y29125333D02*
X51852286Y29028571D01*
X51852286Y28835048D01*
X51900667Y28738286D01*
X51949048Y28689905D01*
X52045810Y28641524D01*
X52336095Y28641524D01*
X52432857Y28689905D01*
X52481238Y28738286D01*
X52529619Y28835048D01*
X52529619Y29028571D01*
X52481238Y29125333D01*
X51852286Y27770667D02*
X52529619Y27770667D01*
X51852286Y28206095D02*
X52384476Y28206095D01*
X52481238Y28157714D01*
X52529619Y28060952D01*
X52529619Y27915810D01*
X52481238Y27819048D01*
X52432857Y27770667D01*
X51852286Y27432000D02*
X51852286Y27044952D01*
X51513619Y27286857D02*
X52384476Y27286857D01*
X52481238Y27238476D01*
X52529619Y27141714D01*
X52529619Y27044952D01*
X52529619Y26174096D02*
X52529619Y26754667D01*
X52529619Y26464381D02*
X51513619Y26464381D01*
X51658762Y26561143D01*
X51755524Y26657905D01*
X51803905Y26754667D01*
X9476619Y31102904D02*
X8460619Y31102904D01*
X8460619Y30715857D01*
X8509000Y30619095D01*
X8557381Y30570714D01*
X8654143Y30522333D01*
X8799286Y30522333D01*
X8896048Y30570714D01*
X8944429Y30619095D01*
X8992810Y30715857D01*
X8992810Y31102904D01*
X9476619Y29554714D02*
X9476619Y30135285D01*
X9476619Y29844999D02*
X8460619Y29844999D01*
X8605762Y29941761D01*
X8702524Y30038523D01*
X8750905Y30135285D01*
X6809619Y31108952D02*
X5793619Y31108952D01*
X6132286Y30625142D02*
X6809619Y30625142D01*
X6229048Y30625142D02*
X6180667Y30576761D01*
X6132286Y30479999D01*
X6132286Y30334857D01*
X6180667Y30238095D01*
X6277429Y30189714D01*
X6809619Y30189714D01*
X6132286Y29705904D02*
X7148286Y29705904D01*
X6180667Y29705904D02*
X6132286Y29609142D01*
X6132286Y29415619D01*
X6180667Y29318857D01*
X6229048Y29270476D01*
X6325810Y29222095D01*
X6616095Y29222095D01*
X6712857Y29270476D01*
X6761238Y29318857D01*
X6809619Y29415619D01*
X6809619Y29609142D01*
X6761238Y29705904D01*
X6132286Y28351238D02*
X6809619Y28351238D01*
X6132286Y28786666D02*
X6664476Y28786666D01*
X6761238Y28738285D01*
X6809619Y28641523D01*
X6809619Y28496381D01*
X6761238Y28399619D01*
X6712857Y28351238D01*
X6132286Y28012571D02*
X6132286Y27625523D01*
X5793619Y27867428D02*
X6664476Y27867428D01*
X6761238Y27819047D01*
X6809619Y27722285D01*
X6809619Y27625523D01*
X6809619Y26754667D02*
X6809619Y27335238D01*
X6809619Y27044952D02*
X5793619Y27044952D01*
X5938762Y27141714D01*
X6035524Y27238476D01*
X6083905Y27335238D01*
D17*
X33455429Y21626286D02*
X33339315Y21626286D01*
X33281257Y21590000D01*
X33223200Y21517429D01*
X33194172Y21372286D01*
X33194172Y21118286D01*
X33223200Y20973143D01*
X33281257Y20900571D01*
X33339315Y20864286D01*
X33455429Y20864286D01*
X33513486Y20900571D01*
X33571543Y20973143D01*
X33600572Y21118286D01*
X33600572Y21372286D01*
X33571543Y21517429D01*
X33513486Y21590000D01*
X33455429Y21626286D01*
X32932914Y21372286D02*
X32932914Y20610286D01*
X32932914Y21336000D02*
X32874857Y21372286D01*
X32758743Y21372286D01*
X32700686Y21336000D01*
X32671657Y21299714D01*
X32642628Y21227143D01*
X32642628Y21009429D01*
X32671657Y20936857D01*
X32700686Y20900571D01*
X32758743Y20864286D01*
X32874857Y20864286D01*
X32932914Y20900571D01*
X32149143Y20900571D02*
X32207200Y20864286D01*
X32323314Y20864286D01*
X32381371Y20900571D01*
X32410400Y20973143D01*
X32410400Y21263429D01*
X32381371Y21336000D01*
X32323314Y21372286D01*
X32207200Y21372286D01*
X32149143Y21336000D01*
X32120114Y21263429D01*
X32120114Y21190857D01*
X32410400Y21118286D01*
X31858857Y21372286D02*
X31858857Y20864286D01*
X31858857Y21299714D02*
X31829829Y21336000D01*
X31771771Y21372286D01*
X31684686Y21372286D01*
X31626629Y21336000D01*
X31597600Y21263429D01*
X31597600Y20864286D01*
X31307314Y20864286D02*
X31307314Y21626286D01*
X31307314Y21263429D02*
X30958971Y21263429D01*
X30958971Y20864286D02*
X30958971Y21626286D01*
X30407428Y20864286D02*
X30407428Y21263429D01*
X30436457Y21336000D01*
X30494514Y21372286D01*
X30610628Y21372286D01*
X30668685Y21336000D01*
X30407428Y20900571D02*
X30465485Y20864286D01*
X30610628Y20864286D01*
X30668685Y20900571D01*
X30697714Y20973143D01*
X30697714Y21045714D01*
X30668685Y21118286D01*
X30610628Y21154571D01*
X30465485Y21154571D01*
X30407428Y21190857D01*
X30117142Y20864286D02*
X30117142Y21372286D01*
X30117142Y21227143D02*
X30088114Y21299714D01*
X30059085Y21336000D01*
X30001028Y21372286D01*
X29942971Y21372286D01*
X29478514Y20864286D02*
X29478514Y21626286D01*
X29478514Y20900571D02*
X29536571Y20864286D01*
X29652685Y20864286D01*
X29710743Y20900571D01*
X29739771Y20936857D01*
X29768800Y21009429D01*
X29768800Y21227143D01*
X29739771Y21299714D01*
X29710743Y21336000D01*
X29652685Y21372286D01*
X29536571Y21372286D01*
X29478514Y21336000D01*
X29246285Y21372286D02*
X29130171Y20864286D01*
X29014057Y21227143D01*
X28897942Y20864286D01*
X28781828Y21372286D01*
X28288342Y20864286D02*
X28288342Y21263429D01*
X28317371Y21336000D01*
X28375428Y21372286D01*
X28491542Y21372286D01*
X28549599Y21336000D01*
X28288342Y20900571D02*
X28346399Y20864286D01*
X28491542Y20864286D01*
X28549599Y20900571D01*
X28578628Y20973143D01*
X28578628Y21045714D01*
X28549599Y21118286D01*
X28491542Y21154571D01*
X28346399Y21154571D01*
X28288342Y21190857D01*
X27998056Y20864286D02*
X27998056Y21372286D01*
X27998056Y21227143D02*
X27969028Y21299714D01*
X27939999Y21336000D01*
X27881942Y21372286D01*
X27823885Y21372286D01*
X27388457Y20900571D02*
X27446514Y20864286D01*
X27562628Y20864286D01*
X27620685Y20900571D01*
X27649714Y20973143D01*
X27649714Y21263429D01*
X27620685Y21336000D01*
X27562628Y21372286D01*
X27446514Y21372286D01*
X27388457Y21336000D01*
X27359428Y21263429D01*
X27359428Y21190857D01*
X27649714Y21118286D01*
D18*
X54065714Y21154571D02*
X53702857Y19630571D01*
X53412571Y20719143D01*
X53122285Y19630571D01*
X52759428Y21154571D01*
X52324000Y20646571D02*
X51961143Y19630571D01*
X51598285Y20646571D02*
X51961143Y19630571D01*
X52106285Y19267714D01*
X52178857Y19195143D01*
X52324000Y19122571D01*
X50800000Y19630571D02*
X50945142Y19703143D01*
X51017714Y19775714D01*
X51090285Y19920857D01*
X51090285Y20356286D01*
X51017714Y20501429D01*
X50945142Y20574000D01*
X50800000Y20646571D01*
X50582285Y20646571D01*
X50437142Y20574000D01*
X50364571Y20501429D01*
X50292000Y20356286D01*
X50292000Y19920857D01*
X50364571Y19775714D01*
X50437142Y19703143D01*
X50582285Y19630571D01*
X50800000Y19630571D01*
X49421143Y19630571D02*
X49566285Y19703143D01*
X49638857Y19848286D01*
X49638857Y21154571D01*
X48187428Y20646571D02*
X48187428Y19630571D01*
X48840571Y20646571D02*
X48840571Y19848286D01*
X48767999Y19703143D01*
X48622857Y19630571D01*
X48405142Y19630571D01*
X48259999Y19703143D01*
X48187428Y19775714D01*
X47461714Y19630571D02*
X47461714Y20646571D01*
X47461714Y20501429D02*
X47389142Y20574000D01*
X47244000Y20646571D01*
X47026285Y20646571D01*
X46881142Y20574000D01*
X46808571Y20428857D01*
X46808571Y19630571D01*
X46808571Y20428857D02*
X46736000Y20574000D01*
X46590857Y20646571D01*
X46373142Y20646571D01*
X46228000Y20574000D01*
X46155428Y20428857D01*
X46155428Y19630571D01*
X23367999Y46427571D02*
X23367999Y47951571D01*
X22859999Y46863000D01*
X22351999Y47951571D01*
X22351999Y46427571D01*
X20973142Y46427571D02*
X20973142Y47225857D01*
X21045713Y47371000D01*
X21190856Y47443571D01*
X21481142Y47443571D01*
X21626285Y47371000D01*
X20973142Y46500143D02*
X21118285Y46427571D01*
X21481142Y46427571D01*
X21626285Y46500143D01*
X21698856Y46645286D01*
X21698856Y46790429D01*
X21626285Y46935571D01*
X21481142Y47008143D01*
X21118285Y47008143D01*
X20973142Y47080714D01*
X20247428Y47443571D02*
X20247428Y46427571D01*
X20247428Y47298429D02*
X20174856Y47371000D01*
X20029714Y47443571D01*
X19811999Y47443571D01*
X19666856Y47371000D01*
X19594285Y47225857D01*
X19594285Y46427571D01*
X18868571Y46427571D02*
X18868571Y47443571D01*
X18868571Y47951571D02*
X18941142Y47879000D01*
X18868571Y47806429D01*
X18795999Y47879000D01*
X18868571Y47951571D01*
X18868571Y47806429D01*
X17489714Y46427571D02*
X17489714Y47225857D01*
X17562285Y47371000D01*
X17707428Y47443571D01*
X17997714Y47443571D01*
X18142857Y47371000D01*
X17489714Y46500143D02*
X17634857Y46427571D01*
X17997714Y46427571D01*
X18142857Y46500143D01*
X18215428Y46645286D01*
X18215428Y46790429D01*
X18142857Y46935571D01*
X17997714Y47008143D01*
X17634857Y47008143D01*
X17489714Y47080714D01*
X16110857Y46500143D02*
X16256000Y46427571D01*
X16546286Y46427571D01*
X16691428Y46500143D01*
X16764000Y46572714D01*
X16836571Y46717857D01*
X16836571Y47153286D01*
X16764000Y47298429D01*
X16691428Y47371000D01*
X16546286Y47443571D01*
X16256000Y47443571D01*
X16110857Y47371000D01*
X14804571Y46427571D02*
X14804571Y47225857D01*
X14877142Y47371000D01*
X15022285Y47443571D01*
X15312571Y47443571D01*
X15457714Y47371000D01*
X14804571Y46500143D02*
X14949714Y46427571D01*
X15312571Y46427571D01*
X15457714Y46500143D01*
X15530285Y46645286D01*
X15530285Y46790429D01*
X15457714Y46935571D01*
X15312571Y47008143D01*
X14949714Y47008143D01*
X14804571Y47080714D01*
X13861143Y46427571D02*
X14006285Y46500143D01*
X14078857Y46645286D01*
X14078857Y47951571D01*
X11393714Y46427571D02*
X12119428Y46427571D01*
X12119428Y47951571D01*
X10232571Y46427571D02*
X10232571Y47225857D01*
X10305142Y47371000D01*
X10450285Y47443571D01*
X10740571Y47443571D01*
X10885714Y47371000D01*
X10232571Y46500143D02*
X10377714Y46427571D01*
X10740571Y46427571D01*
X10885714Y46500143D01*
X10958285Y46645286D01*
X10958285Y46790429D01*
X10885714Y46935571D01*
X10740571Y47008143D01*
X10377714Y47008143D01*
X10232571Y47080714D01*
X9506857Y46427571D02*
X9506857Y47951571D01*
X9506857Y47371000D02*
X9361714Y47443571D01*
X9071428Y47443571D01*
X8926285Y47371000D01*
X8853714Y47298429D01*
X8781143Y47153286D01*
X8781143Y46717857D01*
X8853714Y46572714D01*
X8926285Y46500143D01*
X9071428Y46427571D01*
X9361714Y46427571D01*
X9506857Y46500143D01*
X8200571Y46500143D02*
X8055428Y46427571D01*
X7765143Y46427571D01*
X7620000Y46500143D01*
X7547428Y46645286D01*
X7547428Y46717857D01*
X7620000Y46863000D01*
X7765143Y46935571D01*
X7982857Y46935571D01*
X8128000Y47008143D01*
X8200571Y47153286D01*
X8200571Y47225857D01*
X8128000Y47371000D01*
X7982857Y47443571D01*
X7765143Y47443571D01*
X7620000Y47371000D01*
%LPC*%
D19*
X19050000Y19050000D03*
X41910000Y41910000D03*
D20*
X33020000Y31496000D03*
X33020000Y29464000D03*
X27940000Y31496000D03*
X27940000Y29464000D03*
D21*
X16510000Y26416000D03*
X16510000Y34544000D03*
X44450000Y26416000D03*
X44450000Y34544000D03*
D22*
X30480000Y55880000D03*
X30480000Y53340000D03*
X30480000Y50800000D03*
X30480000Y10160000D03*
X30480000Y7620000D03*
X30480000Y5080000D03*
D23*
X55880000Y38100000D03*
X53340000Y38100000D03*
X50800000Y38100000D03*
X10160000Y38100000D03*
X7620000Y38100000D03*
X5080000Y38100000D03*
D24*
X2794000Y34290000D03*
X2794000Y41783000D03*
X12954000Y41783000D03*
X12573000Y34290000D03*
X23368000Y12192000D03*
X35890000Y41110000D03*
X36703000Y42291000D03*
X48641000Y34290000D03*
X48387000Y42037000D03*
X57912000Y41910000D03*
X58039000Y34163000D03*
X55550000Y4610000D03*
X51130000Y3010000D03*
X40310000Y4610000D03*
X35890000Y3010000D03*
X25070000Y4610000D03*
X20650000Y3010000D03*
X9830000Y4610000D03*
X5410000Y3010000D03*
X5410000Y25870000D03*
X5410000Y10630000D03*
X5410000Y18250000D03*
X5410000Y48730000D03*
X5410000Y56350000D03*
X9830000Y57950000D03*
X9830000Y50330000D03*
X9830000Y27470000D03*
X9830000Y19850000D03*
X9830000Y12230000D03*
X20650000Y10630000D03*
X20650000Y25870000D03*
X20650000Y33490000D03*
X20650000Y41110000D03*
X20650000Y48730000D03*
X20650000Y56350000D03*
X25070000Y57950000D03*
X25070000Y50330000D03*
X25070000Y42710000D03*
X25070000Y35090000D03*
X25070000Y27470000D03*
X25070000Y19850000D03*
X25070000Y12230000D03*
X35890000Y10630000D03*
X35890000Y18250000D03*
X35890000Y25870000D03*
X35890000Y33490000D03*
X35890000Y48730000D03*
X35890000Y56350000D03*
X40310000Y57950000D03*
X40310000Y50330000D03*
X40310000Y35090000D03*
X40310000Y27470000D03*
X40310000Y19850000D03*
X40310000Y12230000D03*
X51130000Y10630000D03*
X51130000Y18250000D03*
X51130000Y25870000D03*
X51130000Y48730000D03*
X51130000Y56350000D03*
X55550000Y57950000D03*
X55550000Y50330000D03*
X55550000Y27470000D03*
X55550000Y19850000D03*
X55550000Y12230000D03*
M02*
