G04 #@! TF.FileFunction,Soldermask,Bot*
%FSLAX46Y46*%
G04 Gerber Fmt 4.6, Leading zero omitted, Abs format (unit mm)*
G04 Created by KiCad (PCBNEW 4.0.2-4+6225~38~ubuntu15.04.1-stable) date Wed Feb 24 14:52:56 2016*
%MOMM*%
G01*
G04 APERTURE LIST*
%ADD10C,0.254000*%
%ADD11C,9.008000*%
%ADD12R,1.930400X1.574800*%
%ADD13R,3.556000X3.556000*%
%ADD14R,8.128000X2.413000*%
%ADD15R,2.413000X8.128000*%
%ADD16C,1.908000*%
G04 APERTURE END LIST*
D10*
X44196000Y0D02*
X16764000Y0D01*
X60960000Y0D02*
X47244000Y0D01*
X60960000Y13716000D02*
X60960000Y0D01*
X60960000Y44196000D02*
X60960000Y16764000D01*
X60960000Y60960000D02*
X60960000Y47244000D01*
X47244000Y60960000D02*
X60960000Y60960000D01*
X16764000Y60960000D02*
X44196000Y60960000D01*
X0Y60960000D02*
X13716000Y60960000D01*
X0Y47244000D02*
X0Y60960000D01*
X0Y16764000D02*
X0Y44196000D01*
X0Y0D02*
X0Y13716000D01*
X13716000Y0D02*
X0Y0D01*
X60960000Y16764000D02*
G75*
G03X59436000Y15240000I0J-1524000D01*
G01*
X59436000Y15240000D02*
G75*
G03X60960000Y13716000I1524000J0D01*
G01*
X60960000Y47244000D02*
G75*
G03X59436000Y45720000I0J-1524000D01*
G01*
X59436000Y45720000D02*
G75*
G03X60960000Y44196000I1524000J0D01*
G01*
X44196000Y60960000D02*
G75*
G03X45720000Y59436000I1524000J0D01*
G01*
X45720000Y59436000D02*
G75*
G03X47244000Y60960000I0J1524000D01*
G01*
X13716000Y60960000D02*
G75*
G03X15240000Y59436000I1524000J0D01*
G01*
X15240000Y59436000D02*
G75*
G03X16764000Y60960000I0J1524000D01*
G01*
X0Y44196000D02*
G75*
G03X1524000Y45720000I0J1524000D01*
G01*
X1524000Y45720000D02*
G75*
G03X0Y47244000I-1524000J0D01*
G01*
X0Y13716000D02*
G75*
G03X1524000Y15240000I0J1524000D01*
G01*
X1524000Y15240000D02*
G75*
G03X0Y16764000I-1524000J0D01*
G01*
X16764000Y0D02*
G75*
G03X15240000Y1524000I-1524000J0D01*
G01*
X15240000Y1524000D02*
G75*
G03X13716000Y0I0J-1524000D01*
G01*
X45720000Y1524000D02*
G75*
G03X44196000Y0I0J-1524000D01*
G01*
X47244000Y0D02*
G75*
G03X45720000Y1524000I-1524000J0D01*
G01*
D11*
X19050000Y19050000D03*
X41910000Y41910000D03*
D12*
X33020000Y31496000D03*
X33020000Y29464000D03*
X27940000Y31496000D03*
X27940000Y29464000D03*
D13*
X16510000Y26416000D03*
X16510000Y34544000D03*
X44450000Y26416000D03*
X44450000Y34544000D03*
D14*
X30480000Y55880000D03*
X30480000Y53340000D03*
X30480000Y50800000D03*
X30480000Y10160000D03*
X30480000Y7620000D03*
X30480000Y5080000D03*
D15*
X55880000Y38100000D03*
X53340000Y38100000D03*
X50800000Y38100000D03*
X10160000Y38100000D03*
X7620000Y38100000D03*
X5080000Y38100000D03*
D16*
X2794000Y34290000D03*
X2794000Y41783000D03*
X12954000Y41783000D03*
X12573000Y34290000D03*
X23368000Y12192000D03*
X35890000Y41110000D03*
X36703000Y42291000D03*
X48641000Y34290000D03*
X48387000Y42037000D03*
X57912000Y41910000D03*
X58039000Y34163000D03*
X55550000Y4610000D03*
X51130000Y3010000D03*
X40310000Y4610000D03*
X35890000Y3010000D03*
X25070000Y4610000D03*
X20650000Y3010000D03*
X9830000Y4610000D03*
X5410000Y3010000D03*
X5410000Y25870000D03*
X5410000Y10630000D03*
X5410000Y18250000D03*
X5410000Y48730000D03*
X5410000Y56350000D03*
X9830000Y57950000D03*
X9830000Y50330000D03*
X9830000Y27470000D03*
X9830000Y19850000D03*
X9830000Y12230000D03*
X20650000Y10630000D03*
X20650000Y25870000D03*
X20650000Y33490000D03*
X20650000Y41110000D03*
X20650000Y48730000D03*
X20650000Y56350000D03*
X25070000Y57950000D03*
X25070000Y50330000D03*
X25070000Y42710000D03*
X25070000Y35090000D03*
X25070000Y27470000D03*
X25070000Y19850000D03*
X25070000Y12230000D03*
X35890000Y10630000D03*
X35890000Y18250000D03*
X35890000Y25870000D03*
X35890000Y33490000D03*
X35890000Y48730000D03*
X35890000Y56350000D03*
X40310000Y57950000D03*
X40310000Y50330000D03*
X40310000Y35090000D03*
X40310000Y27470000D03*
X40310000Y19850000D03*
X40310000Y12230000D03*
X51130000Y10630000D03*
X51130000Y18250000D03*
X51130000Y25870000D03*
X51130000Y48730000D03*
X51130000Y56350000D03*
X55550000Y57950000D03*
X55550000Y50330000D03*
X55550000Y27470000D03*
X55550000Y19850000D03*
X55550000Y12230000D03*
M02*
