G04 #@! TF.FileFunction,Legend,Top*
%FSLAX46Y46*%
G04 Gerber Fmt 4.6, Leading zero omitted, Abs format (unit mm)*
G04 Created by KiCad (PCBNEW 4.0.2-4+6225~38~ubuntu15.04.1-stable) date Wed Feb 24 14:52:56 2016*
%MOMM*%
G01*
G04 APERTURE LIST*
%ADD10C,0.254000*%
%ADD11C,0.150000*%
%ADD12R,1.908000X1.908000*%
%ADD13R,1.808000X1.908000*%
%ADD14C,1.908000*%
G04 APERTURE END LIST*
D10*
X44196000Y0D02*
X16764000Y0D01*
X60960000Y0D02*
X47244000Y0D01*
X60960000Y13716000D02*
X60960000Y0D01*
X60960000Y44196000D02*
X60960000Y16764000D01*
X60960000Y60960000D02*
X60960000Y47244000D01*
X47244000Y60960000D02*
X60960000Y60960000D01*
X16764000Y60960000D02*
X44196000Y60960000D01*
X0Y60960000D02*
X13716000Y60960000D01*
X0Y47244000D02*
X0Y60960000D01*
X0Y16764000D02*
X0Y44196000D01*
X0Y0D02*
X0Y13716000D01*
X13716000Y0D02*
X0Y0D01*
X60960000Y16764000D02*
G75*
G03X59436000Y15240000I0J-1524000D01*
G01*
X59436000Y15240000D02*
G75*
G03X60960000Y13716000I1524000J0D01*
G01*
X60960000Y47244000D02*
G75*
G03X59436000Y45720000I0J-1524000D01*
G01*
X59436000Y45720000D02*
G75*
G03X60960000Y44196000I1524000J0D01*
G01*
X44196000Y60960000D02*
G75*
G03X45720000Y59436000I1524000J0D01*
G01*
X45720000Y59436000D02*
G75*
G03X47244000Y60960000I0J1524000D01*
G01*
X13716000Y60960000D02*
G75*
G03X15240000Y59436000I1524000J0D01*
G01*
X15240000Y59436000D02*
G75*
G03X16764000Y60960000I0J1524000D01*
G01*
X0Y44196000D02*
G75*
G03X1524000Y45720000I0J1524000D01*
G01*
X1524000Y45720000D02*
G75*
G03X0Y47244000I-1524000J0D01*
G01*
X0Y13716000D02*
G75*
G03X1524000Y15240000I0J1524000D01*
G01*
X1524000Y15240000D02*
G75*
G03X0Y16764000I-1524000J0D01*
G01*
X16764000Y0D02*
G75*
G03X15240000Y1524000I-1524000J0D01*
G01*
X15240000Y1524000D02*
G75*
G03X13716000Y0I0J-1524000D01*
G01*
X45720000Y1524000D02*
G75*
G03X44196000Y0I0J-1524000D01*
G01*
X47244000Y0D02*
G75*
G03X45720000Y1524000I-1524000J0D01*
G01*
X810000Y32390000D02*
X810000Y31790000D01*
X610000Y32590000D02*
X610000Y31590000D01*
X410000Y31390000D02*
X1110000Y32090000D01*
X410000Y32790000D02*
X410000Y31390000D01*
X1110000Y32090000D02*
X410000Y32790000D01*
X810000Y40010000D02*
X810000Y39410000D01*
X610000Y40210000D02*
X610000Y39210000D01*
X410000Y39010000D02*
X1110000Y39710000D01*
X410000Y40410000D02*
X410000Y39010000D01*
X1110000Y39710000D02*
X410000Y40410000D01*
X14430000Y43810000D02*
X14430000Y44410000D01*
X14630000Y43610000D02*
X14630000Y44610000D01*
X14830000Y44810000D02*
X14130000Y44110000D01*
X14830000Y43410000D02*
X14830000Y44810000D01*
X14130000Y44110000D02*
X14830000Y43410000D01*
X14430000Y36190000D02*
X14430000Y36790000D01*
X14630000Y35990000D02*
X14630000Y36990000D01*
X14830000Y37190000D02*
X14130000Y36490000D01*
X14830000Y35790000D02*
X14830000Y37190000D01*
X14130000Y36490000D02*
X14830000Y35790000D01*
X16050000Y17150000D02*
X16050000Y16550000D01*
X15850000Y17350000D02*
X15850000Y16350000D01*
X15650000Y16150000D02*
X16350000Y16850000D01*
X15650000Y17550000D02*
X15650000Y16150000D01*
X16350000Y16850000D02*
X15650000Y17550000D01*
X31290000Y40010000D02*
X31290000Y39410000D01*
X31090000Y40210000D02*
X31090000Y39210000D01*
X30890000Y39010000D02*
X31590000Y39710000D01*
X30890000Y40410000D02*
X30890000Y39010000D01*
X31590000Y39710000D02*
X30890000Y40410000D01*
X44910000Y43810000D02*
X44910000Y44410000D01*
X45110000Y43610000D02*
X45110000Y44610000D01*
X45310000Y44810000D02*
X44610000Y44110000D01*
X45310000Y43410000D02*
X45310000Y44810000D01*
X44610000Y44110000D02*
X45310000Y43410000D01*
X46530000Y32390000D02*
X46530000Y31790000D01*
X46330000Y32590000D02*
X46330000Y31590000D01*
X46130000Y31390000D02*
X46830000Y32090000D01*
X46130000Y32790000D02*
X46130000Y31390000D01*
X46830000Y32090000D02*
X46130000Y32790000D01*
X46530000Y40010000D02*
X46530000Y39410000D01*
X46330000Y40210000D02*
X46330000Y39210000D01*
X46130000Y39010000D02*
X46830000Y39710000D01*
X46130000Y40410000D02*
X46130000Y39010000D01*
X46830000Y39710000D02*
X46130000Y40410000D01*
X60150000Y43810000D02*
X60150000Y44410000D01*
X60350000Y43610000D02*
X60350000Y44610000D01*
X60550000Y44810000D02*
X59850000Y44110000D01*
X60550000Y43410000D02*
X60550000Y44810000D01*
X59850000Y44110000D02*
X60550000Y43410000D01*
X60150000Y36190000D02*
X60150000Y36790000D01*
X60350000Y35990000D02*
X60350000Y36990000D01*
X60550000Y37190000D02*
X59850000Y36490000D01*
X60550000Y35790000D02*
X60550000Y37190000D01*
X59850000Y36490000D02*
X60550000Y35790000D01*
X60150000Y5710000D02*
X60150000Y6310000D01*
X60350000Y5510000D02*
X60350000Y6510000D01*
X60550000Y6710000D02*
X59850000Y6010000D01*
X60550000Y5310000D02*
X60550000Y6710000D01*
X59850000Y6010000D02*
X60550000Y5310000D01*
X46530000Y1910000D02*
X46530000Y1310000D01*
X46330000Y2110000D02*
X46330000Y1110000D01*
X46130000Y910000D02*
X46830000Y1610000D01*
X46130000Y2310000D02*
X46130000Y910000D01*
X46830000Y1610000D02*
X46130000Y2310000D01*
X44910000Y5710000D02*
X44910000Y6310000D01*
X45110000Y5510000D02*
X45110000Y6510000D01*
X45310000Y6710000D02*
X44610000Y6010000D01*
X45310000Y5310000D02*
X45310000Y6710000D01*
X44610000Y6010000D02*
X45310000Y5310000D01*
X31290000Y1910000D02*
X31290000Y1310000D01*
X31090000Y2110000D02*
X31090000Y1110000D01*
X30890000Y910000D02*
X31590000Y1610000D01*
X30890000Y2310000D02*
X30890000Y910000D01*
X31590000Y1610000D02*
X30890000Y2310000D01*
X29670000Y5710000D02*
X29670000Y6310000D01*
X29870000Y5510000D02*
X29870000Y6510000D01*
X30070000Y6710000D02*
X29370000Y6010000D01*
X30070000Y5310000D02*
X30070000Y6710000D01*
X29370000Y6010000D02*
X30070000Y5310000D01*
X16050000Y1910000D02*
X16050000Y1310000D01*
X15850000Y2110000D02*
X15850000Y1110000D01*
X15650000Y910000D02*
X16350000Y1610000D01*
X15650000Y2310000D02*
X15650000Y910000D01*
X16350000Y1610000D02*
X15650000Y2310000D01*
X14430000Y5710000D02*
X14430000Y6310000D01*
X14630000Y5510000D02*
X14630000Y6510000D01*
X14830000Y6710000D02*
X14130000Y6010000D01*
X14830000Y5310000D02*
X14830000Y6710000D01*
X14130000Y6010000D02*
X14830000Y5310000D01*
X810000Y1910000D02*
X810000Y1310000D01*
X610000Y2110000D02*
X610000Y1110000D01*
X410000Y910000D02*
X1110000Y1610000D01*
X410000Y2310000D02*
X410000Y910000D01*
X1110000Y1610000D02*
X410000Y2310000D01*
X810000Y24770000D02*
X810000Y24170000D01*
X610000Y24970000D02*
X610000Y23970000D01*
X410000Y23770000D02*
X1110000Y24470000D01*
X410000Y25170000D02*
X410000Y23770000D01*
X1110000Y24470000D02*
X410000Y25170000D01*
X810000Y9530000D02*
X810000Y8930000D01*
X610000Y9730000D02*
X610000Y8730000D01*
X410000Y8530000D02*
X1110000Y9230000D01*
X410000Y9930000D02*
X410000Y8530000D01*
X1110000Y9230000D02*
X410000Y9930000D01*
X810000Y17150000D02*
X810000Y16550000D01*
X610000Y17350000D02*
X610000Y16350000D01*
X410000Y16150000D02*
X1110000Y16850000D01*
X410000Y17550000D02*
X410000Y16150000D01*
X1110000Y16850000D02*
X410000Y17550000D01*
X810000Y47630000D02*
X810000Y47030000D01*
X610000Y47830000D02*
X610000Y46830000D01*
X410000Y46630000D02*
X1110000Y47330000D01*
X410000Y48030000D02*
X410000Y46630000D01*
X1110000Y47330000D02*
X410000Y48030000D01*
X810000Y55250000D02*
X810000Y54650000D01*
X610000Y55450000D02*
X610000Y54450000D01*
X410000Y54250000D02*
X1110000Y54950000D01*
X410000Y55650000D02*
X410000Y54250000D01*
X1110000Y54950000D02*
X410000Y55650000D01*
X14430000Y59050000D02*
X14430000Y59650000D01*
X14630000Y58850000D02*
X14630000Y59850000D01*
X14830000Y60050000D02*
X14130000Y59350000D01*
X14830000Y58650000D02*
X14830000Y60050000D01*
X14130000Y59350000D02*
X14830000Y58650000D01*
X14430000Y51430000D02*
X14430000Y52030000D01*
X14630000Y51230000D02*
X14630000Y52230000D01*
X14830000Y52430000D02*
X14130000Y51730000D01*
X14830000Y51030000D02*
X14830000Y52430000D01*
X14130000Y51730000D02*
X14830000Y51030000D01*
X14430000Y28570000D02*
X14430000Y29170000D01*
X14630000Y28370000D02*
X14630000Y29370000D01*
X14830000Y29570000D02*
X14130000Y28870000D01*
X14830000Y28170000D02*
X14830000Y29570000D01*
X14130000Y28870000D02*
X14830000Y28170000D01*
X14430000Y20950000D02*
X14430000Y21550000D01*
X14630000Y20750000D02*
X14630000Y21750000D01*
X14830000Y21950000D02*
X14130000Y21250000D01*
X14830000Y20550000D02*
X14830000Y21950000D01*
X14130000Y21250000D02*
X14830000Y20550000D01*
X14430000Y13330000D02*
X14430000Y13930000D01*
X14630000Y13130000D02*
X14630000Y14130000D01*
X14830000Y14330000D02*
X14130000Y13630000D01*
X14830000Y12930000D02*
X14830000Y14330000D01*
X14130000Y13630000D02*
X14830000Y12930000D01*
X16050000Y9530000D02*
X16050000Y8930000D01*
X15850000Y9730000D02*
X15850000Y8730000D01*
X15650000Y8530000D02*
X16350000Y9230000D01*
X15650000Y9930000D02*
X15650000Y8530000D01*
X16350000Y9230000D02*
X15650000Y9930000D01*
X16050000Y24770000D02*
X16050000Y24170000D01*
X15850000Y24970000D02*
X15850000Y23970000D01*
X15650000Y23770000D02*
X16350000Y24470000D01*
X15650000Y25170000D02*
X15650000Y23770000D01*
X16350000Y24470000D02*
X15650000Y25170000D01*
X16050000Y32390000D02*
X16050000Y31790000D01*
X15850000Y32590000D02*
X15850000Y31590000D01*
X15650000Y31390000D02*
X16350000Y32090000D01*
X15650000Y32790000D02*
X15650000Y31390000D01*
X16350000Y32090000D02*
X15650000Y32790000D01*
X16050000Y40010000D02*
X16050000Y39410000D01*
X15850000Y40210000D02*
X15850000Y39210000D01*
X15650000Y39010000D02*
X16350000Y39710000D01*
X15650000Y40410000D02*
X15650000Y39010000D01*
X16350000Y39710000D02*
X15650000Y40410000D01*
X16050000Y47630000D02*
X16050000Y47030000D01*
X15850000Y47830000D02*
X15850000Y46830000D01*
X15650000Y46630000D02*
X16350000Y47330000D01*
X15650000Y48030000D02*
X15650000Y46630000D01*
X16350000Y47330000D02*
X15650000Y48030000D01*
X16050000Y55250000D02*
X16050000Y54650000D01*
X15850000Y55450000D02*
X15850000Y54450000D01*
X15650000Y54250000D02*
X16350000Y54950000D01*
X15650000Y55650000D02*
X15650000Y54250000D01*
X16350000Y54950000D02*
X15650000Y55650000D01*
X29670000Y59050000D02*
X29670000Y59650000D01*
X29870000Y58850000D02*
X29870000Y59850000D01*
X30070000Y60050000D02*
X29370000Y59350000D01*
X30070000Y58650000D02*
X30070000Y60050000D01*
X29370000Y59350000D02*
X30070000Y58650000D01*
X29670000Y51430000D02*
X29670000Y52030000D01*
X29870000Y51230000D02*
X29870000Y52230000D01*
X30070000Y52430000D02*
X29370000Y51730000D01*
X30070000Y51030000D02*
X30070000Y52430000D01*
X29370000Y51730000D02*
X30070000Y51030000D01*
X29670000Y43810000D02*
X29670000Y44410000D01*
X29870000Y43610000D02*
X29870000Y44610000D01*
X30070000Y44810000D02*
X29370000Y44110000D01*
X30070000Y43410000D02*
X30070000Y44810000D01*
X29370000Y44110000D02*
X30070000Y43410000D01*
X29670000Y36190000D02*
X29670000Y36790000D01*
X29870000Y35990000D02*
X29870000Y36990000D01*
X30070000Y37190000D02*
X29370000Y36490000D01*
X30070000Y35790000D02*
X30070000Y37190000D01*
X29370000Y36490000D02*
X30070000Y35790000D01*
X29670000Y28570000D02*
X29670000Y29170000D01*
X29870000Y28370000D02*
X29870000Y29370000D01*
X30070000Y29570000D02*
X29370000Y28870000D01*
X30070000Y28170000D02*
X30070000Y29570000D01*
X29370000Y28870000D02*
X30070000Y28170000D01*
X29670000Y20950000D02*
X29670000Y21550000D01*
X29870000Y20750000D02*
X29870000Y21750000D01*
X30070000Y21950000D02*
X29370000Y21250000D01*
X30070000Y20550000D02*
X30070000Y21950000D01*
X29370000Y21250000D02*
X30070000Y20550000D01*
X29670000Y13330000D02*
X29670000Y13930000D01*
X29870000Y13130000D02*
X29870000Y14130000D01*
X30070000Y14330000D02*
X29370000Y13630000D01*
X30070000Y12930000D02*
X30070000Y14330000D01*
X29370000Y13630000D02*
X30070000Y12930000D01*
X31290000Y9530000D02*
X31290000Y8930000D01*
X31090000Y9730000D02*
X31090000Y8730000D01*
X30890000Y8530000D02*
X31590000Y9230000D01*
X30890000Y9930000D02*
X30890000Y8530000D01*
X31590000Y9230000D02*
X30890000Y9930000D01*
X31290000Y17150000D02*
X31290000Y16550000D01*
X31090000Y17350000D02*
X31090000Y16350000D01*
X30890000Y16150000D02*
X31590000Y16850000D01*
X30890000Y17550000D02*
X30890000Y16150000D01*
X31590000Y16850000D02*
X30890000Y17550000D01*
X31290000Y24770000D02*
X31290000Y24170000D01*
X31090000Y24970000D02*
X31090000Y23970000D01*
X30890000Y23770000D02*
X31590000Y24470000D01*
X30890000Y25170000D02*
X30890000Y23770000D01*
X31590000Y24470000D02*
X30890000Y25170000D01*
X31290000Y32390000D02*
X31290000Y31790000D01*
X31090000Y32590000D02*
X31090000Y31590000D01*
X30890000Y31390000D02*
X31590000Y32090000D01*
X30890000Y32790000D02*
X30890000Y31390000D01*
X31590000Y32090000D02*
X30890000Y32790000D01*
X31290000Y47630000D02*
X31290000Y47030000D01*
X31090000Y47830000D02*
X31090000Y46830000D01*
X30890000Y46630000D02*
X31590000Y47330000D01*
X30890000Y48030000D02*
X30890000Y46630000D01*
X31590000Y47330000D02*
X30890000Y48030000D01*
X31290000Y55250000D02*
X31290000Y54650000D01*
X31090000Y55450000D02*
X31090000Y54450000D01*
X30890000Y54250000D02*
X31590000Y54950000D01*
X30890000Y55650000D02*
X30890000Y54250000D01*
X31590000Y54950000D02*
X30890000Y55650000D01*
X44910000Y59050000D02*
X44910000Y59650000D01*
X45110000Y58850000D02*
X45110000Y59850000D01*
X45310000Y60050000D02*
X44610000Y59350000D01*
X45310000Y58650000D02*
X45310000Y60050000D01*
X44610000Y59350000D02*
X45310000Y58650000D01*
X44910000Y51430000D02*
X44910000Y52030000D01*
X45110000Y51230000D02*
X45110000Y52230000D01*
X45310000Y52430000D02*
X44610000Y51730000D01*
X45310000Y51030000D02*
X45310000Y52430000D01*
X44610000Y51730000D02*
X45310000Y51030000D01*
X44910000Y36190000D02*
X44910000Y36790000D01*
X45110000Y35990000D02*
X45110000Y36990000D01*
X45310000Y37190000D02*
X44610000Y36490000D01*
X45310000Y35790000D02*
X45310000Y37190000D01*
X44610000Y36490000D02*
X45310000Y35790000D01*
X44910000Y28570000D02*
X44910000Y29170000D01*
X45110000Y28370000D02*
X45110000Y29370000D01*
X45310000Y29570000D02*
X44610000Y28870000D01*
X45310000Y28170000D02*
X45310000Y29570000D01*
X44610000Y28870000D02*
X45310000Y28170000D01*
X44910000Y20950000D02*
X44910000Y21550000D01*
X45110000Y20750000D02*
X45110000Y21750000D01*
X45310000Y21950000D02*
X44610000Y21250000D01*
X45310000Y20550000D02*
X45310000Y21950000D01*
X44610000Y21250000D02*
X45310000Y20550000D01*
X44910000Y13330000D02*
X44910000Y13930000D01*
X45110000Y13130000D02*
X45110000Y14130000D01*
X45310000Y14330000D02*
X44610000Y13630000D01*
X45310000Y12930000D02*
X45310000Y14330000D01*
X44610000Y13630000D02*
X45310000Y12930000D01*
X46530000Y9530000D02*
X46530000Y8930000D01*
X46330000Y9730000D02*
X46330000Y8730000D01*
X46130000Y8530000D02*
X46830000Y9230000D01*
X46130000Y9930000D02*
X46130000Y8530000D01*
X46830000Y9230000D02*
X46130000Y9930000D01*
X46530000Y17150000D02*
X46530000Y16550000D01*
X46330000Y17350000D02*
X46330000Y16350000D01*
X46130000Y16150000D02*
X46830000Y16850000D01*
X46130000Y17550000D02*
X46130000Y16150000D01*
X46830000Y16850000D02*
X46130000Y17550000D01*
X46530000Y24770000D02*
X46530000Y24170000D01*
X46330000Y24970000D02*
X46330000Y23970000D01*
X46130000Y23770000D02*
X46830000Y24470000D01*
X46130000Y25170000D02*
X46130000Y23770000D01*
X46830000Y24470000D02*
X46130000Y25170000D01*
X46530000Y47630000D02*
X46530000Y47030000D01*
X46330000Y47830000D02*
X46330000Y46830000D01*
X46130000Y46630000D02*
X46830000Y47330000D01*
X46130000Y48030000D02*
X46130000Y46630000D01*
X46830000Y47330000D02*
X46130000Y48030000D01*
X46530000Y55250000D02*
X46530000Y54650000D01*
X46330000Y55450000D02*
X46330000Y54450000D01*
X46130000Y54250000D02*
X46830000Y54950000D01*
X46130000Y55650000D02*
X46130000Y54250000D01*
X46830000Y54950000D02*
X46130000Y55650000D01*
X60150000Y59050000D02*
X60150000Y59650000D01*
X60350000Y58850000D02*
X60350000Y59850000D01*
X60550000Y60050000D02*
X59850000Y59350000D01*
X60550000Y58650000D02*
X60550000Y60050000D01*
X59850000Y59350000D02*
X60550000Y58650000D01*
X60150000Y51430000D02*
X60150000Y52030000D01*
X60350000Y51230000D02*
X60350000Y52230000D01*
X60550000Y52430000D02*
X59850000Y51730000D01*
X60550000Y51030000D02*
X60550000Y52430000D01*
X59850000Y51730000D02*
X60550000Y51030000D01*
X60150000Y28570000D02*
X60150000Y29170000D01*
X60350000Y28370000D02*
X60350000Y29370000D01*
X60550000Y29570000D02*
X59850000Y28870000D01*
X60550000Y28170000D02*
X60550000Y29570000D01*
X59850000Y28870000D02*
X60550000Y28170000D01*
X60150000Y20950000D02*
X60150000Y21550000D01*
X60350000Y20750000D02*
X60350000Y21750000D01*
X60550000Y21950000D02*
X59850000Y21250000D01*
X60550000Y20550000D02*
X60550000Y21950000D01*
X59850000Y21250000D02*
X60550000Y20550000D01*
X60150000Y13330000D02*
X60150000Y13930000D01*
X60350000Y13130000D02*
X60350000Y14130000D01*
X60550000Y14330000D02*
X59850000Y13630000D01*
X60550000Y12930000D02*
X60550000Y14330000D01*
X59850000Y13630000D02*
X60550000Y12930000D01*
D11*
X371905Y33299524D02*
X1019524Y33299524D01*
X1095714Y33337619D01*
X1133810Y33375715D01*
X1171905Y33451905D01*
X1171905Y33604286D01*
X1133810Y33680477D01*
X1095714Y33718572D01*
X1019524Y33756667D01*
X371905Y33756667D01*
X371905Y34290000D02*
X371905Y34366191D01*
X410000Y34442381D01*
X448095Y34480476D01*
X524286Y34518572D01*
X676667Y34556667D01*
X867143Y34556667D01*
X1019524Y34518572D01*
X1095714Y34480476D01*
X1133810Y34442381D01*
X1171905Y34366191D01*
X1171905Y34290000D01*
X1133810Y34213810D01*
X1095714Y34175714D01*
X1019524Y34137619D01*
X867143Y34099524D01*
X676667Y34099524D01*
X524286Y34137619D01*
X448095Y34175714D01*
X410000Y34213810D01*
X371905Y34290000D01*
X371905Y35280477D02*
X371905Y34899524D01*
X752857Y34861429D01*
X714762Y34899524D01*
X676667Y34975715D01*
X676667Y35166191D01*
X714762Y35242381D01*
X752857Y35280477D01*
X829048Y35318572D01*
X1019524Y35318572D01*
X1095714Y35280477D01*
X1133810Y35242381D01*
X1171905Y35166191D01*
X1171905Y34975715D01*
X1133810Y34899524D01*
X1095714Y34861429D01*
X371905Y40919524D02*
X1019524Y40919524D01*
X1095714Y40957619D01*
X1133810Y40995715D01*
X1171905Y41071905D01*
X1171905Y41224286D01*
X1133810Y41300477D01*
X1095714Y41338572D01*
X1019524Y41376667D01*
X371905Y41376667D01*
X371905Y41910000D02*
X371905Y41986191D01*
X410000Y42062381D01*
X448095Y42100476D01*
X524286Y42138572D01*
X676667Y42176667D01*
X867143Y42176667D01*
X1019524Y42138572D01*
X1095714Y42100476D01*
X1133810Y42062381D01*
X1171905Y41986191D01*
X1171905Y41910000D01*
X1133810Y41833810D01*
X1095714Y41795714D01*
X1019524Y41757619D01*
X867143Y41719524D01*
X676667Y41719524D01*
X524286Y41757619D01*
X448095Y41795714D01*
X410000Y41833810D01*
X371905Y41910000D01*
X371905Y42862381D02*
X371905Y42710000D01*
X410000Y42633810D01*
X448095Y42595715D01*
X562381Y42519524D01*
X714762Y42481429D01*
X1019524Y42481429D01*
X1095714Y42519524D01*
X1133810Y42557619D01*
X1171905Y42633810D01*
X1171905Y42786191D01*
X1133810Y42862381D01*
X1095714Y42900477D01*
X1019524Y42938572D01*
X829048Y42938572D01*
X752857Y42900477D01*
X714762Y42862381D01*
X676667Y42786191D01*
X676667Y42633810D01*
X714762Y42557619D01*
X752857Y42519524D01*
X829048Y42481429D01*
X13991905Y40919524D02*
X14639524Y40919524D01*
X14715714Y40957619D01*
X14753810Y40995715D01*
X14791905Y41071905D01*
X14791905Y41224286D01*
X14753810Y41300477D01*
X14715714Y41338572D01*
X14639524Y41376667D01*
X13991905Y41376667D01*
X14791905Y42176667D02*
X14791905Y41719524D01*
X14791905Y41948095D02*
X13991905Y41948095D01*
X14106190Y41871905D01*
X14182381Y41795714D01*
X14220476Y41719524D01*
X14791905Y42938572D02*
X14791905Y42481429D01*
X14791905Y42710000D02*
X13991905Y42710000D01*
X14106190Y42633810D01*
X14182381Y42557619D01*
X14220476Y42481429D01*
X13991905Y33299524D02*
X14639524Y33299524D01*
X14715714Y33337619D01*
X14753810Y33375715D01*
X14791905Y33451905D01*
X14791905Y33604286D01*
X14753810Y33680477D01*
X14715714Y33718572D01*
X14639524Y33756667D01*
X13991905Y33756667D01*
X14791905Y34556667D02*
X14791905Y34099524D01*
X14791905Y34328095D02*
X13991905Y34328095D01*
X14106190Y34251905D01*
X14182381Y34175714D01*
X14220476Y34099524D01*
X14068095Y34861429D02*
X14030000Y34899524D01*
X13991905Y34975715D01*
X13991905Y35166191D01*
X14030000Y35242381D01*
X14068095Y35280477D01*
X14144286Y35318572D01*
X14220476Y35318572D01*
X14334762Y35280477D01*
X14791905Y34823334D01*
X14791905Y35318572D01*
X15611905Y18059524D02*
X16259524Y18059524D01*
X16335714Y18097619D01*
X16373810Y18135715D01*
X16411905Y18211905D01*
X16411905Y18364286D01*
X16373810Y18440477D01*
X16335714Y18478572D01*
X16259524Y18516667D01*
X15611905Y18516667D01*
X16411905Y19316667D02*
X16411905Y18859524D01*
X16411905Y19088095D02*
X15611905Y19088095D01*
X15726190Y19011905D01*
X15802381Y18935714D01*
X15840476Y18859524D01*
X16411905Y19697619D02*
X16411905Y19850000D01*
X16373810Y19926191D01*
X16335714Y19964286D01*
X16221429Y20040477D01*
X16069048Y20078572D01*
X15764286Y20078572D01*
X15688095Y20040477D01*
X15650000Y20002381D01*
X15611905Y19926191D01*
X15611905Y19773810D01*
X15650000Y19697619D01*
X15688095Y19659524D01*
X15764286Y19621429D01*
X15954762Y19621429D01*
X16030952Y19659524D01*
X16069048Y19697619D01*
X16107143Y19773810D01*
X16107143Y19926191D01*
X16069048Y20002381D01*
X16030952Y20040477D01*
X15954762Y20078572D01*
X30851905Y40919524D02*
X31499524Y40919524D01*
X31575714Y40957619D01*
X31613810Y40995715D01*
X31651905Y41071905D01*
X31651905Y41224286D01*
X31613810Y41300477D01*
X31575714Y41338572D01*
X31499524Y41376667D01*
X30851905Y41376667D01*
X30851905Y41681429D02*
X30851905Y42176667D01*
X31156667Y41910000D01*
X31156667Y42024286D01*
X31194762Y42100476D01*
X31232857Y42138572D01*
X31309048Y42176667D01*
X31499524Y42176667D01*
X31575714Y42138572D01*
X31613810Y42100476D01*
X31651905Y42024286D01*
X31651905Y41795714D01*
X31613810Y41719524D01*
X31575714Y41681429D01*
X31194762Y42633810D02*
X31156667Y42557619D01*
X31118571Y42519524D01*
X31042381Y42481429D01*
X31004286Y42481429D01*
X30928095Y42519524D01*
X30890000Y42557619D01*
X30851905Y42633810D01*
X30851905Y42786191D01*
X30890000Y42862381D01*
X30928095Y42900477D01*
X31004286Y42938572D01*
X31042381Y42938572D01*
X31118571Y42900477D01*
X31156667Y42862381D01*
X31194762Y42786191D01*
X31194762Y42633810D01*
X31232857Y42557619D01*
X31270952Y42519524D01*
X31347143Y42481429D01*
X31499524Y42481429D01*
X31575714Y42519524D01*
X31613810Y42557619D01*
X31651905Y42633810D01*
X31651905Y42786191D01*
X31613810Y42862381D01*
X31575714Y42900477D01*
X31499524Y42938572D01*
X31347143Y42938572D01*
X31270952Y42900477D01*
X31232857Y42862381D01*
X31194762Y42786191D01*
X44471905Y40919524D02*
X45119524Y40919524D01*
X45195714Y40957619D01*
X45233810Y40995715D01*
X45271905Y41071905D01*
X45271905Y41224286D01*
X45233810Y41300477D01*
X45195714Y41338572D01*
X45119524Y41376667D01*
X44471905Y41376667D01*
X44738571Y42100476D02*
X45271905Y42100476D01*
X44433810Y41910000D02*
X45005238Y41719524D01*
X45005238Y42214762D01*
X44471905Y42443334D02*
X44471905Y42938572D01*
X44776667Y42671905D01*
X44776667Y42786191D01*
X44814762Y42862381D01*
X44852857Y42900477D01*
X44929048Y42938572D01*
X45119524Y42938572D01*
X45195714Y42900477D01*
X45233810Y42862381D01*
X45271905Y42786191D01*
X45271905Y42557619D01*
X45233810Y42481429D01*
X45195714Y42443334D01*
X46091905Y33299524D02*
X46739524Y33299524D01*
X46815714Y33337619D01*
X46853810Y33375715D01*
X46891905Y33451905D01*
X46891905Y33604286D01*
X46853810Y33680477D01*
X46815714Y33718572D01*
X46739524Y33756667D01*
X46091905Y33756667D01*
X46091905Y34518572D02*
X46091905Y34137619D01*
X46472857Y34099524D01*
X46434762Y34137619D01*
X46396667Y34213810D01*
X46396667Y34404286D01*
X46434762Y34480476D01*
X46472857Y34518572D01*
X46549048Y34556667D01*
X46739524Y34556667D01*
X46815714Y34518572D01*
X46853810Y34480476D01*
X46891905Y34404286D01*
X46891905Y34213810D01*
X46853810Y34137619D01*
X46815714Y34099524D01*
X46091905Y34823334D02*
X46091905Y35318572D01*
X46396667Y35051905D01*
X46396667Y35166191D01*
X46434762Y35242381D01*
X46472857Y35280477D01*
X46549048Y35318572D01*
X46739524Y35318572D01*
X46815714Y35280477D01*
X46853810Y35242381D01*
X46891905Y35166191D01*
X46891905Y34937619D01*
X46853810Y34861429D01*
X46815714Y34823334D01*
X46091905Y40919524D02*
X46739524Y40919524D01*
X46815714Y40957619D01*
X46853810Y40995715D01*
X46891905Y41071905D01*
X46891905Y41224286D01*
X46853810Y41300477D01*
X46815714Y41338572D01*
X46739524Y41376667D01*
X46091905Y41376667D01*
X46091905Y42138572D02*
X46091905Y41757619D01*
X46472857Y41719524D01*
X46434762Y41757619D01*
X46396667Y41833810D01*
X46396667Y42024286D01*
X46434762Y42100476D01*
X46472857Y42138572D01*
X46549048Y42176667D01*
X46739524Y42176667D01*
X46815714Y42138572D01*
X46853810Y42100476D01*
X46891905Y42024286D01*
X46891905Y41833810D01*
X46853810Y41757619D01*
X46815714Y41719524D01*
X46358571Y42862381D02*
X46891905Y42862381D01*
X46053810Y42671905D02*
X46625238Y42481429D01*
X46625238Y42976667D01*
X59711905Y40919524D02*
X60359524Y40919524D01*
X60435714Y40957619D01*
X60473810Y40995715D01*
X60511905Y41071905D01*
X60511905Y41224286D01*
X60473810Y41300477D01*
X60435714Y41338572D01*
X60359524Y41376667D01*
X59711905Y41376667D01*
X59711905Y42138572D02*
X59711905Y41757619D01*
X60092857Y41719524D01*
X60054762Y41757619D01*
X60016667Y41833810D01*
X60016667Y42024286D01*
X60054762Y42100476D01*
X60092857Y42138572D01*
X60169048Y42176667D01*
X60359524Y42176667D01*
X60435714Y42138572D01*
X60473810Y42100476D01*
X60511905Y42024286D01*
X60511905Y41833810D01*
X60473810Y41757619D01*
X60435714Y41719524D01*
X60511905Y42557619D02*
X60511905Y42710000D01*
X60473810Y42786191D01*
X60435714Y42824286D01*
X60321429Y42900477D01*
X60169048Y42938572D01*
X59864286Y42938572D01*
X59788095Y42900477D01*
X59750000Y42862381D01*
X59711905Y42786191D01*
X59711905Y42633810D01*
X59750000Y42557619D01*
X59788095Y42519524D01*
X59864286Y42481429D01*
X60054762Y42481429D01*
X60130952Y42519524D01*
X60169048Y42557619D01*
X60207143Y42633810D01*
X60207143Y42786191D01*
X60169048Y42862381D01*
X60130952Y42900477D01*
X60054762Y42938572D01*
X59711905Y33299524D02*
X60359524Y33299524D01*
X60435714Y33337619D01*
X60473810Y33375715D01*
X60511905Y33451905D01*
X60511905Y33604286D01*
X60473810Y33680477D01*
X60435714Y33718572D01*
X60359524Y33756667D01*
X59711905Y33756667D01*
X59711905Y34480476D02*
X59711905Y34328095D01*
X59750000Y34251905D01*
X59788095Y34213810D01*
X59902381Y34137619D01*
X60054762Y34099524D01*
X60359524Y34099524D01*
X60435714Y34137619D01*
X60473810Y34175714D01*
X60511905Y34251905D01*
X60511905Y34404286D01*
X60473810Y34480476D01*
X60435714Y34518572D01*
X60359524Y34556667D01*
X60169048Y34556667D01*
X60092857Y34518572D01*
X60054762Y34480476D01*
X60016667Y34404286D01*
X60016667Y34251905D01*
X60054762Y34175714D01*
X60092857Y34137619D01*
X60169048Y34099524D01*
X59711905Y35051905D02*
X59711905Y35128096D01*
X59750000Y35204286D01*
X59788095Y35242381D01*
X59864286Y35280477D01*
X60016667Y35318572D01*
X60207143Y35318572D01*
X60359524Y35280477D01*
X60435714Y35242381D01*
X60473810Y35204286D01*
X60511905Y35128096D01*
X60511905Y35051905D01*
X60473810Y34975715D01*
X60435714Y34937619D01*
X60359524Y34899524D01*
X60207143Y34861429D01*
X60016667Y34861429D01*
X59864286Y34899524D01*
X59788095Y34937619D01*
X59750000Y34975715D01*
X59711905Y35051905D01*
X59711905Y2819524D02*
X60359524Y2819524D01*
X60435714Y2857619D01*
X60473810Y2895715D01*
X60511905Y2971905D01*
X60511905Y3124286D01*
X60473810Y3200477D01*
X60435714Y3238572D01*
X60359524Y3276667D01*
X59711905Y3276667D01*
X59711905Y4000476D02*
X59711905Y3848095D01*
X59750000Y3771905D01*
X59788095Y3733810D01*
X59902381Y3657619D01*
X60054762Y3619524D01*
X60359524Y3619524D01*
X60435714Y3657619D01*
X60473810Y3695714D01*
X60511905Y3771905D01*
X60511905Y3924286D01*
X60473810Y4000476D01*
X60435714Y4038572D01*
X60359524Y4076667D01*
X60169048Y4076667D01*
X60092857Y4038572D01*
X60054762Y4000476D01*
X60016667Y3924286D01*
X60016667Y3771905D01*
X60054762Y3695714D01*
X60092857Y3657619D01*
X60169048Y3619524D01*
X59978571Y4762381D02*
X60511905Y4762381D01*
X59673810Y4571905D02*
X60245238Y4381429D01*
X60245238Y4876667D01*
X46091905Y2819524D02*
X46739524Y2819524D01*
X46815714Y2857619D01*
X46853810Y2895715D01*
X46891905Y2971905D01*
X46891905Y3124286D01*
X46853810Y3200477D01*
X46815714Y3238572D01*
X46739524Y3276667D01*
X46091905Y3276667D01*
X46358571Y4000476D02*
X46891905Y4000476D01*
X46053810Y3810000D02*
X46625238Y3619524D01*
X46625238Y4114762D01*
X46891905Y4457619D02*
X46891905Y4610000D01*
X46853810Y4686191D01*
X46815714Y4724286D01*
X46701429Y4800477D01*
X46549048Y4838572D01*
X46244286Y4838572D01*
X46168095Y4800477D01*
X46130000Y4762381D01*
X46091905Y4686191D01*
X46091905Y4533810D01*
X46130000Y4457619D01*
X46168095Y4419524D01*
X46244286Y4381429D01*
X46434762Y4381429D01*
X46510952Y4419524D01*
X46549048Y4457619D01*
X46587143Y4533810D01*
X46587143Y4686191D01*
X46549048Y4762381D01*
X46510952Y4800477D01*
X46434762Y4838572D01*
X44471905Y2819524D02*
X45119524Y2819524D01*
X45195714Y2857619D01*
X45233810Y2895715D01*
X45271905Y2971905D01*
X45271905Y3124286D01*
X45233810Y3200477D01*
X45195714Y3238572D01*
X45119524Y3276667D01*
X44471905Y3276667D01*
X44738571Y4000476D02*
X45271905Y4000476D01*
X44433810Y3810000D02*
X45005238Y3619524D01*
X45005238Y4114762D01*
X44814762Y4533810D02*
X44776667Y4457619D01*
X44738571Y4419524D01*
X44662381Y4381429D01*
X44624286Y4381429D01*
X44548095Y4419524D01*
X44510000Y4457619D01*
X44471905Y4533810D01*
X44471905Y4686191D01*
X44510000Y4762381D01*
X44548095Y4800477D01*
X44624286Y4838572D01*
X44662381Y4838572D01*
X44738571Y4800477D01*
X44776667Y4762381D01*
X44814762Y4686191D01*
X44814762Y4533810D01*
X44852857Y4457619D01*
X44890952Y4419524D01*
X44967143Y4381429D01*
X45119524Y4381429D01*
X45195714Y4419524D01*
X45233810Y4457619D01*
X45271905Y4533810D01*
X45271905Y4686191D01*
X45233810Y4762381D01*
X45195714Y4800477D01*
X45119524Y4838572D01*
X44967143Y4838572D01*
X44890952Y4800477D01*
X44852857Y4762381D01*
X44814762Y4686191D01*
X30851905Y2819524D02*
X31499524Y2819524D01*
X31575714Y2857619D01*
X31613810Y2895715D01*
X31651905Y2971905D01*
X31651905Y3124286D01*
X31613810Y3200477D01*
X31575714Y3238572D01*
X31499524Y3276667D01*
X30851905Y3276667D01*
X30851905Y3581429D02*
X30851905Y4076667D01*
X31156667Y3810000D01*
X31156667Y3924286D01*
X31194762Y4000476D01*
X31232857Y4038572D01*
X31309048Y4076667D01*
X31499524Y4076667D01*
X31575714Y4038572D01*
X31613810Y4000476D01*
X31651905Y3924286D01*
X31651905Y3695714D01*
X31613810Y3619524D01*
X31575714Y3581429D01*
X30851905Y4343334D02*
X30851905Y4838572D01*
X31156667Y4571905D01*
X31156667Y4686191D01*
X31194762Y4762381D01*
X31232857Y4800477D01*
X31309048Y4838572D01*
X31499524Y4838572D01*
X31575714Y4800477D01*
X31613810Y4762381D01*
X31651905Y4686191D01*
X31651905Y4457619D01*
X31613810Y4381429D01*
X31575714Y4343334D01*
X29231905Y2819524D02*
X29879524Y2819524D01*
X29955714Y2857619D01*
X29993810Y2895715D01*
X30031905Y2971905D01*
X30031905Y3124286D01*
X29993810Y3200477D01*
X29955714Y3238572D01*
X29879524Y3276667D01*
X29231905Y3276667D01*
X29231905Y3581429D02*
X29231905Y4076667D01*
X29536667Y3810000D01*
X29536667Y3924286D01*
X29574762Y4000476D01*
X29612857Y4038572D01*
X29689048Y4076667D01*
X29879524Y4076667D01*
X29955714Y4038572D01*
X29993810Y4000476D01*
X30031905Y3924286D01*
X30031905Y3695714D01*
X29993810Y3619524D01*
X29955714Y3581429D01*
X29308095Y4381429D02*
X29270000Y4419524D01*
X29231905Y4495715D01*
X29231905Y4686191D01*
X29270000Y4762381D01*
X29308095Y4800477D01*
X29384286Y4838572D01*
X29460476Y4838572D01*
X29574762Y4800477D01*
X30031905Y4343334D01*
X30031905Y4838572D01*
X15611905Y2819524D02*
X16259524Y2819524D01*
X16335714Y2857619D01*
X16373810Y2895715D01*
X16411905Y2971905D01*
X16411905Y3124286D01*
X16373810Y3200477D01*
X16335714Y3238572D01*
X16259524Y3276667D01*
X15611905Y3276667D01*
X16411905Y4076667D02*
X16411905Y3619524D01*
X16411905Y3848095D02*
X15611905Y3848095D01*
X15726190Y3771905D01*
X15802381Y3695714D01*
X15840476Y3619524D01*
X15611905Y4343334D02*
X15611905Y4876667D01*
X16411905Y4533810D01*
X13991905Y2819524D02*
X14639524Y2819524D01*
X14715714Y2857619D01*
X14753810Y2895715D01*
X14791905Y2971905D01*
X14791905Y3124286D01*
X14753810Y3200477D01*
X14715714Y3238572D01*
X14639524Y3276667D01*
X13991905Y3276667D01*
X14791905Y4076667D02*
X14791905Y3619524D01*
X14791905Y3848095D02*
X13991905Y3848095D01*
X14106190Y3771905D01*
X14182381Y3695714D01*
X14220476Y3619524D01*
X13991905Y4762381D02*
X13991905Y4610000D01*
X14030000Y4533810D01*
X14068095Y4495715D01*
X14182381Y4419524D01*
X14334762Y4381429D01*
X14639524Y4381429D01*
X14715714Y4419524D01*
X14753810Y4457619D01*
X14791905Y4533810D01*
X14791905Y4686191D01*
X14753810Y4762381D01*
X14715714Y4800477D01*
X14639524Y4838572D01*
X14449048Y4838572D01*
X14372857Y4800477D01*
X14334762Y4762381D01*
X14296667Y4686191D01*
X14296667Y4533810D01*
X14334762Y4457619D01*
X14372857Y4419524D01*
X14449048Y4381429D01*
X371905Y2819524D02*
X1019524Y2819524D01*
X1095714Y2857619D01*
X1133810Y2895715D01*
X1171905Y2971905D01*
X1171905Y3124286D01*
X1133810Y3200477D01*
X1095714Y3238572D01*
X1019524Y3276667D01*
X371905Y3276667D01*
X371905Y3810000D02*
X371905Y3886191D01*
X410000Y3962381D01*
X448095Y4000476D01*
X524286Y4038572D01*
X676667Y4076667D01*
X867143Y4076667D01*
X1019524Y4038572D01*
X1095714Y4000476D01*
X1133810Y3962381D01*
X1171905Y3886191D01*
X1171905Y3810000D01*
X1133810Y3733810D01*
X1095714Y3695714D01*
X1019524Y3657619D01*
X867143Y3619524D01*
X676667Y3619524D01*
X524286Y3657619D01*
X448095Y3695714D01*
X410000Y3733810D01*
X371905Y3810000D01*
X1171905Y4838572D02*
X1171905Y4381429D01*
X1171905Y4610000D02*
X371905Y4610000D01*
X486190Y4533810D01*
X562381Y4457619D01*
X600476Y4381429D01*
X371905Y25679524D02*
X1019524Y25679524D01*
X1095714Y25717619D01*
X1133810Y25755715D01*
X1171905Y25831905D01*
X1171905Y25984286D01*
X1133810Y26060477D01*
X1095714Y26098572D01*
X1019524Y26136667D01*
X371905Y26136667D01*
X371905Y26670000D02*
X371905Y26746191D01*
X410000Y26822381D01*
X448095Y26860476D01*
X524286Y26898572D01*
X676667Y26936667D01*
X867143Y26936667D01*
X1019524Y26898572D01*
X1095714Y26860476D01*
X1133810Y26822381D01*
X1171905Y26746191D01*
X1171905Y26670000D01*
X1133810Y26593810D01*
X1095714Y26555714D01*
X1019524Y26517619D01*
X867143Y26479524D01*
X676667Y26479524D01*
X524286Y26517619D01*
X448095Y26555714D01*
X410000Y26593810D01*
X371905Y26670000D01*
X638571Y27622381D02*
X1171905Y27622381D01*
X333810Y27431905D02*
X905238Y27241429D01*
X905238Y27736667D01*
X371905Y10439524D02*
X1019524Y10439524D01*
X1095714Y10477619D01*
X1133810Y10515715D01*
X1171905Y10591905D01*
X1171905Y10744286D01*
X1133810Y10820477D01*
X1095714Y10858572D01*
X1019524Y10896667D01*
X371905Y10896667D01*
X371905Y11430000D02*
X371905Y11506191D01*
X410000Y11582381D01*
X448095Y11620476D01*
X524286Y11658572D01*
X676667Y11696667D01*
X867143Y11696667D01*
X1019524Y11658572D01*
X1095714Y11620476D01*
X1133810Y11582381D01*
X1171905Y11506191D01*
X1171905Y11430000D01*
X1133810Y11353810D01*
X1095714Y11315714D01*
X1019524Y11277619D01*
X867143Y11239524D01*
X676667Y11239524D01*
X524286Y11277619D01*
X448095Y11315714D01*
X410000Y11353810D01*
X371905Y11430000D01*
X448095Y12001429D02*
X410000Y12039524D01*
X371905Y12115715D01*
X371905Y12306191D01*
X410000Y12382381D01*
X448095Y12420477D01*
X524286Y12458572D01*
X600476Y12458572D01*
X714762Y12420477D01*
X1171905Y11963334D01*
X1171905Y12458572D01*
X371905Y18059524D02*
X1019524Y18059524D01*
X1095714Y18097619D01*
X1133810Y18135715D01*
X1171905Y18211905D01*
X1171905Y18364286D01*
X1133810Y18440477D01*
X1095714Y18478572D01*
X1019524Y18516667D01*
X371905Y18516667D01*
X371905Y19050000D02*
X371905Y19126191D01*
X410000Y19202381D01*
X448095Y19240476D01*
X524286Y19278572D01*
X676667Y19316667D01*
X867143Y19316667D01*
X1019524Y19278572D01*
X1095714Y19240476D01*
X1133810Y19202381D01*
X1171905Y19126191D01*
X1171905Y19050000D01*
X1133810Y18973810D01*
X1095714Y18935714D01*
X1019524Y18897619D01*
X867143Y18859524D01*
X676667Y18859524D01*
X524286Y18897619D01*
X448095Y18935714D01*
X410000Y18973810D01*
X371905Y19050000D01*
X371905Y19583334D02*
X371905Y20078572D01*
X676667Y19811905D01*
X676667Y19926191D01*
X714762Y20002381D01*
X752857Y20040477D01*
X829048Y20078572D01*
X1019524Y20078572D01*
X1095714Y20040477D01*
X1133810Y20002381D01*
X1171905Y19926191D01*
X1171905Y19697619D01*
X1133810Y19621429D01*
X1095714Y19583334D01*
X371905Y48539524D02*
X1019524Y48539524D01*
X1095714Y48577619D01*
X1133810Y48615715D01*
X1171905Y48691905D01*
X1171905Y48844286D01*
X1133810Y48920477D01*
X1095714Y48958572D01*
X1019524Y48996667D01*
X371905Y48996667D01*
X371905Y49530000D02*
X371905Y49606191D01*
X410000Y49682381D01*
X448095Y49720476D01*
X524286Y49758572D01*
X676667Y49796667D01*
X867143Y49796667D01*
X1019524Y49758572D01*
X1095714Y49720476D01*
X1133810Y49682381D01*
X1171905Y49606191D01*
X1171905Y49530000D01*
X1133810Y49453810D01*
X1095714Y49415714D01*
X1019524Y49377619D01*
X867143Y49339524D01*
X676667Y49339524D01*
X524286Y49377619D01*
X448095Y49415714D01*
X410000Y49453810D01*
X371905Y49530000D01*
X371905Y50063334D02*
X371905Y50596667D01*
X1171905Y50253810D01*
X371905Y56159524D02*
X1019524Y56159524D01*
X1095714Y56197619D01*
X1133810Y56235715D01*
X1171905Y56311905D01*
X1171905Y56464286D01*
X1133810Y56540477D01*
X1095714Y56578572D01*
X1019524Y56616667D01*
X371905Y56616667D01*
X371905Y57150000D02*
X371905Y57226191D01*
X410000Y57302381D01*
X448095Y57340476D01*
X524286Y57378572D01*
X676667Y57416667D01*
X867143Y57416667D01*
X1019524Y57378572D01*
X1095714Y57340476D01*
X1133810Y57302381D01*
X1171905Y57226191D01*
X1171905Y57150000D01*
X1133810Y57073810D01*
X1095714Y57035714D01*
X1019524Y56997619D01*
X867143Y56959524D01*
X676667Y56959524D01*
X524286Y56997619D01*
X448095Y57035714D01*
X410000Y57073810D01*
X371905Y57150000D01*
X714762Y57873810D02*
X676667Y57797619D01*
X638571Y57759524D01*
X562381Y57721429D01*
X524286Y57721429D01*
X448095Y57759524D01*
X410000Y57797619D01*
X371905Y57873810D01*
X371905Y58026191D01*
X410000Y58102381D01*
X448095Y58140477D01*
X524286Y58178572D01*
X562381Y58178572D01*
X638571Y58140477D01*
X676667Y58102381D01*
X714762Y58026191D01*
X714762Y57873810D01*
X752857Y57797619D01*
X790952Y57759524D01*
X867143Y57721429D01*
X1019524Y57721429D01*
X1095714Y57759524D01*
X1133810Y57797619D01*
X1171905Y57873810D01*
X1171905Y58026191D01*
X1133810Y58102381D01*
X1095714Y58140477D01*
X1019524Y58178572D01*
X867143Y58178572D01*
X790952Y58140477D01*
X752857Y58102381D01*
X714762Y58026191D01*
X13991905Y56159524D02*
X14639524Y56159524D01*
X14715714Y56197619D01*
X14753810Y56235715D01*
X14791905Y56311905D01*
X14791905Y56464286D01*
X14753810Y56540477D01*
X14715714Y56578572D01*
X14639524Y56616667D01*
X13991905Y56616667D01*
X13991905Y57150000D02*
X13991905Y57226191D01*
X14030000Y57302381D01*
X14068095Y57340476D01*
X14144286Y57378572D01*
X14296667Y57416667D01*
X14487143Y57416667D01*
X14639524Y57378572D01*
X14715714Y57340476D01*
X14753810Y57302381D01*
X14791905Y57226191D01*
X14791905Y57150000D01*
X14753810Y57073810D01*
X14715714Y57035714D01*
X14639524Y56997619D01*
X14487143Y56959524D01*
X14296667Y56959524D01*
X14144286Y56997619D01*
X14068095Y57035714D01*
X14030000Y57073810D01*
X13991905Y57150000D01*
X14791905Y57797619D02*
X14791905Y57950000D01*
X14753810Y58026191D01*
X14715714Y58064286D01*
X14601429Y58140477D01*
X14449048Y58178572D01*
X14144286Y58178572D01*
X14068095Y58140477D01*
X14030000Y58102381D01*
X13991905Y58026191D01*
X13991905Y57873810D01*
X14030000Y57797619D01*
X14068095Y57759524D01*
X14144286Y57721429D01*
X14334762Y57721429D01*
X14410952Y57759524D01*
X14449048Y57797619D01*
X14487143Y57873810D01*
X14487143Y58026191D01*
X14449048Y58102381D01*
X14410952Y58140477D01*
X14334762Y58178572D01*
X13991905Y48539524D02*
X14639524Y48539524D01*
X14715714Y48577619D01*
X14753810Y48615715D01*
X14791905Y48691905D01*
X14791905Y48844286D01*
X14753810Y48920477D01*
X14715714Y48958572D01*
X14639524Y48996667D01*
X13991905Y48996667D01*
X14791905Y49796667D02*
X14791905Y49339524D01*
X14791905Y49568095D02*
X13991905Y49568095D01*
X14106190Y49491905D01*
X14182381Y49415714D01*
X14220476Y49339524D01*
X13991905Y50291905D02*
X13991905Y50368096D01*
X14030000Y50444286D01*
X14068095Y50482381D01*
X14144286Y50520477D01*
X14296667Y50558572D01*
X14487143Y50558572D01*
X14639524Y50520477D01*
X14715714Y50482381D01*
X14753810Y50444286D01*
X14791905Y50368096D01*
X14791905Y50291905D01*
X14753810Y50215715D01*
X14715714Y50177619D01*
X14639524Y50139524D01*
X14487143Y50101429D01*
X14296667Y50101429D01*
X14144286Y50139524D01*
X14068095Y50177619D01*
X14030000Y50215715D01*
X13991905Y50291905D01*
X13991905Y25679524D02*
X14639524Y25679524D01*
X14715714Y25717619D01*
X14753810Y25755715D01*
X14791905Y25831905D01*
X14791905Y25984286D01*
X14753810Y26060477D01*
X14715714Y26098572D01*
X14639524Y26136667D01*
X13991905Y26136667D01*
X14791905Y26936667D02*
X14791905Y26479524D01*
X14791905Y26708095D02*
X13991905Y26708095D01*
X14106190Y26631905D01*
X14182381Y26555714D01*
X14220476Y26479524D01*
X13991905Y27203334D02*
X13991905Y27698572D01*
X14296667Y27431905D01*
X14296667Y27546191D01*
X14334762Y27622381D01*
X14372857Y27660477D01*
X14449048Y27698572D01*
X14639524Y27698572D01*
X14715714Y27660477D01*
X14753810Y27622381D01*
X14791905Y27546191D01*
X14791905Y27317619D01*
X14753810Y27241429D01*
X14715714Y27203334D01*
X13991905Y18059524D02*
X14639524Y18059524D01*
X14715714Y18097619D01*
X14753810Y18135715D01*
X14791905Y18211905D01*
X14791905Y18364286D01*
X14753810Y18440477D01*
X14715714Y18478572D01*
X14639524Y18516667D01*
X13991905Y18516667D01*
X14791905Y19316667D02*
X14791905Y18859524D01*
X14791905Y19088095D02*
X13991905Y19088095D01*
X14106190Y19011905D01*
X14182381Y18935714D01*
X14220476Y18859524D01*
X14258571Y20002381D02*
X14791905Y20002381D01*
X13953810Y19811905D02*
X14525238Y19621429D01*
X14525238Y20116667D01*
X13991905Y10439524D02*
X14639524Y10439524D01*
X14715714Y10477619D01*
X14753810Y10515715D01*
X14791905Y10591905D01*
X14791905Y10744286D01*
X14753810Y10820477D01*
X14715714Y10858572D01*
X14639524Y10896667D01*
X13991905Y10896667D01*
X14791905Y11696667D02*
X14791905Y11239524D01*
X14791905Y11468095D02*
X13991905Y11468095D01*
X14106190Y11391905D01*
X14182381Y11315714D01*
X14220476Y11239524D01*
X13991905Y12420477D02*
X13991905Y12039524D01*
X14372857Y12001429D01*
X14334762Y12039524D01*
X14296667Y12115715D01*
X14296667Y12306191D01*
X14334762Y12382381D01*
X14372857Y12420477D01*
X14449048Y12458572D01*
X14639524Y12458572D01*
X14715714Y12420477D01*
X14753810Y12382381D01*
X14791905Y12306191D01*
X14791905Y12115715D01*
X14753810Y12039524D01*
X14715714Y12001429D01*
X15611905Y10439524D02*
X16259524Y10439524D01*
X16335714Y10477619D01*
X16373810Y10515715D01*
X16411905Y10591905D01*
X16411905Y10744286D01*
X16373810Y10820477D01*
X16335714Y10858572D01*
X16259524Y10896667D01*
X15611905Y10896667D01*
X16411905Y11696667D02*
X16411905Y11239524D01*
X16411905Y11468095D02*
X15611905Y11468095D01*
X15726190Y11391905D01*
X15802381Y11315714D01*
X15840476Y11239524D01*
X15954762Y12153810D02*
X15916667Y12077619D01*
X15878571Y12039524D01*
X15802381Y12001429D01*
X15764286Y12001429D01*
X15688095Y12039524D01*
X15650000Y12077619D01*
X15611905Y12153810D01*
X15611905Y12306191D01*
X15650000Y12382381D01*
X15688095Y12420477D01*
X15764286Y12458572D01*
X15802381Y12458572D01*
X15878571Y12420477D01*
X15916667Y12382381D01*
X15954762Y12306191D01*
X15954762Y12153810D01*
X15992857Y12077619D01*
X16030952Y12039524D01*
X16107143Y12001429D01*
X16259524Y12001429D01*
X16335714Y12039524D01*
X16373810Y12077619D01*
X16411905Y12153810D01*
X16411905Y12306191D01*
X16373810Y12382381D01*
X16335714Y12420477D01*
X16259524Y12458572D01*
X16107143Y12458572D01*
X16030952Y12420477D01*
X15992857Y12382381D01*
X15954762Y12306191D01*
X15611905Y25679524D02*
X16259524Y25679524D01*
X16335714Y25717619D01*
X16373810Y25755715D01*
X16411905Y25831905D01*
X16411905Y25984286D01*
X16373810Y26060477D01*
X16335714Y26098572D01*
X16259524Y26136667D01*
X15611905Y26136667D01*
X15688095Y26479524D02*
X15650000Y26517619D01*
X15611905Y26593810D01*
X15611905Y26784286D01*
X15650000Y26860476D01*
X15688095Y26898572D01*
X15764286Y26936667D01*
X15840476Y26936667D01*
X15954762Y26898572D01*
X16411905Y26441429D01*
X16411905Y26936667D01*
X15611905Y27431905D02*
X15611905Y27508096D01*
X15650000Y27584286D01*
X15688095Y27622381D01*
X15764286Y27660477D01*
X15916667Y27698572D01*
X16107143Y27698572D01*
X16259524Y27660477D01*
X16335714Y27622381D01*
X16373810Y27584286D01*
X16411905Y27508096D01*
X16411905Y27431905D01*
X16373810Y27355715D01*
X16335714Y27317619D01*
X16259524Y27279524D01*
X16107143Y27241429D01*
X15916667Y27241429D01*
X15764286Y27279524D01*
X15688095Y27317619D01*
X15650000Y27355715D01*
X15611905Y27431905D01*
X15611905Y33299524D02*
X16259524Y33299524D01*
X16335714Y33337619D01*
X16373810Y33375715D01*
X16411905Y33451905D01*
X16411905Y33604286D01*
X16373810Y33680477D01*
X16335714Y33718572D01*
X16259524Y33756667D01*
X15611905Y33756667D01*
X15688095Y34099524D02*
X15650000Y34137619D01*
X15611905Y34213810D01*
X15611905Y34404286D01*
X15650000Y34480476D01*
X15688095Y34518572D01*
X15764286Y34556667D01*
X15840476Y34556667D01*
X15954762Y34518572D01*
X16411905Y34061429D01*
X16411905Y34556667D01*
X16411905Y35318572D02*
X16411905Y34861429D01*
X16411905Y35090000D02*
X15611905Y35090000D01*
X15726190Y35013810D01*
X15802381Y34937619D01*
X15840476Y34861429D01*
X15611905Y40919524D02*
X16259524Y40919524D01*
X16335714Y40957619D01*
X16373810Y40995715D01*
X16411905Y41071905D01*
X16411905Y41224286D01*
X16373810Y41300477D01*
X16335714Y41338572D01*
X16259524Y41376667D01*
X15611905Y41376667D01*
X15688095Y41719524D02*
X15650000Y41757619D01*
X15611905Y41833810D01*
X15611905Y42024286D01*
X15650000Y42100476D01*
X15688095Y42138572D01*
X15764286Y42176667D01*
X15840476Y42176667D01*
X15954762Y42138572D01*
X16411905Y41681429D01*
X16411905Y42176667D01*
X15688095Y42481429D02*
X15650000Y42519524D01*
X15611905Y42595715D01*
X15611905Y42786191D01*
X15650000Y42862381D01*
X15688095Y42900477D01*
X15764286Y42938572D01*
X15840476Y42938572D01*
X15954762Y42900477D01*
X16411905Y42443334D01*
X16411905Y42938572D01*
X15611905Y48539524D02*
X16259524Y48539524D01*
X16335714Y48577619D01*
X16373810Y48615715D01*
X16411905Y48691905D01*
X16411905Y48844286D01*
X16373810Y48920477D01*
X16335714Y48958572D01*
X16259524Y48996667D01*
X15611905Y48996667D01*
X15688095Y49339524D02*
X15650000Y49377619D01*
X15611905Y49453810D01*
X15611905Y49644286D01*
X15650000Y49720476D01*
X15688095Y49758572D01*
X15764286Y49796667D01*
X15840476Y49796667D01*
X15954762Y49758572D01*
X16411905Y49301429D01*
X16411905Y49796667D01*
X15611905Y50063334D02*
X15611905Y50558572D01*
X15916667Y50291905D01*
X15916667Y50406191D01*
X15954762Y50482381D01*
X15992857Y50520477D01*
X16069048Y50558572D01*
X16259524Y50558572D01*
X16335714Y50520477D01*
X16373810Y50482381D01*
X16411905Y50406191D01*
X16411905Y50177619D01*
X16373810Y50101429D01*
X16335714Y50063334D01*
X15611905Y56159524D02*
X16259524Y56159524D01*
X16335714Y56197619D01*
X16373810Y56235715D01*
X16411905Y56311905D01*
X16411905Y56464286D01*
X16373810Y56540477D01*
X16335714Y56578572D01*
X16259524Y56616667D01*
X15611905Y56616667D01*
X15688095Y56959524D02*
X15650000Y56997619D01*
X15611905Y57073810D01*
X15611905Y57264286D01*
X15650000Y57340476D01*
X15688095Y57378572D01*
X15764286Y57416667D01*
X15840476Y57416667D01*
X15954762Y57378572D01*
X16411905Y56921429D01*
X16411905Y57416667D01*
X15878571Y58102381D02*
X16411905Y58102381D01*
X15573810Y57911905D02*
X16145238Y57721429D01*
X16145238Y58216667D01*
X29231905Y56159524D02*
X29879524Y56159524D01*
X29955714Y56197619D01*
X29993810Y56235715D01*
X30031905Y56311905D01*
X30031905Y56464286D01*
X29993810Y56540477D01*
X29955714Y56578572D01*
X29879524Y56616667D01*
X29231905Y56616667D01*
X29308095Y56959524D02*
X29270000Y56997619D01*
X29231905Y57073810D01*
X29231905Y57264286D01*
X29270000Y57340476D01*
X29308095Y57378572D01*
X29384286Y57416667D01*
X29460476Y57416667D01*
X29574762Y57378572D01*
X30031905Y56921429D01*
X30031905Y57416667D01*
X29231905Y58140477D02*
X29231905Y57759524D01*
X29612857Y57721429D01*
X29574762Y57759524D01*
X29536667Y57835715D01*
X29536667Y58026191D01*
X29574762Y58102381D01*
X29612857Y58140477D01*
X29689048Y58178572D01*
X29879524Y58178572D01*
X29955714Y58140477D01*
X29993810Y58102381D01*
X30031905Y58026191D01*
X30031905Y57835715D01*
X29993810Y57759524D01*
X29955714Y57721429D01*
X29231905Y48539524D02*
X29879524Y48539524D01*
X29955714Y48577619D01*
X29993810Y48615715D01*
X30031905Y48691905D01*
X30031905Y48844286D01*
X29993810Y48920477D01*
X29955714Y48958572D01*
X29879524Y48996667D01*
X29231905Y48996667D01*
X29308095Y49339524D02*
X29270000Y49377619D01*
X29231905Y49453810D01*
X29231905Y49644286D01*
X29270000Y49720476D01*
X29308095Y49758572D01*
X29384286Y49796667D01*
X29460476Y49796667D01*
X29574762Y49758572D01*
X30031905Y49301429D01*
X30031905Y49796667D01*
X29231905Y50482381D02*
X29231905Y50330000D01*
X29270000Y50253810D01*
X29308095Y50215715D01*
X29422381Y50139524D01*
X29574762Y50101429D01*
X29879524Y50101429D01*
X29955714Y50139524D01*
X29993810Y50177619D01*
X30031905Y50253810D01*
X30031905Y50406191D01*
X29993810Y50482381D01*
X29955714Y50520477D01*
X29879524Y50558572D01*
X29689048Y50558572D01*
X29612857Y50520477D01*
X29574762Y50482381D01*
X29536667Y50406191D01*
X29536667Y50253810D01*
X29574762Y50177619D01*
X29612857Y50139524D01*
X29689048Y50101429D01*
X29231905Y40919524D02*
X29879524Y40919524D01*
X29955714Y40957619D01*
X29993810Y40995715D01*
X30031905Y41071905D01*
X30031905Y41224286D01*
X29993810Y41300477D01*
X29955714Y41338572D01*
X29879524Y41376667D01*
X29231905Y41376667D01*
X29308095Y41719524D02*
X29270000Y41757619D01*
X29231905Y41833810D01*
X29231905Y42024286D01*
X29270000Y42100476D01*
X29308095Y42138572D01*
X29384286Y42176667D01*
X29460476Y42176667D01*
X29574762Y42138572D01*
X30031905Y41681429D01*
X30031905Y42176667D01*
X29231905Y42443334D02*
X29231905Y42976667D01*
X30031905Y42633810D01*
X29231905Y33299524D02*
X29879524Y33299524D01*
X29955714Y33337619D01*
X29993810Y33375715D01*
X30031905Y33451905D01*
X30031905Y33604286D01*
X29993810Y33680477D01*
X29955714Y33718572D01*
X29879524Y33756667D01*
X29231905Y33756667D01*
X29308095Y34099524D02*
X29270000Y34137619D01*
X29231905Y34213810D01*
X29231905Y34404286D01*
X29270000Y34480476D01*
X29308095Y34518572D01*
X29384286Y34556667D01*
X29460476Y34556667D01*
X29574762Y34518572D01*
X30031905Y34061429D01*
X30031905Y34556667D01*
X29574762Y35013810D02*
X29536667Y34937619D01*
X29498571Y34899524D01*
X29422381Y34861429D01*
X29384286Y34861429D01*
X29308095Y34899524D01*
X29270000Y34937619D01*
X29231905Y35013810D01*
X29231905Y35166191D01*
X29270000Y35242381D01*
X29308095Y35280477D01*
X29384286Y35318572D01*
X29422381Y35318572D01*
X29498571Y35280477D01*
X29536667Y35242381D01*
X29574762Y35166191D01*
X29574762Y35013810D01*
X29612857Y34937619D01*
X29650952Y34899524D01*
X29727143Y34861429D01*
X29879524Y34861429D01*
X29955714Y34899524D01*
X29993810Y34937619D01*
X30031905Y35013810D01*
X30031905Y35166191D01*
X29993810Y35242381D01*
X29955714Y35280477D01*
X29879524Y35318572D01*
X29727143Y35318572D01*
X29650952Y35280477D01*
X29612857Y35242381D01*
X29574762Y35166191D01*
X29231905Y25679524D02*
X29879524Y25679524D01*
X29955714Y25717619D01*
X29993810Y25755715D01*
X30031905Y25831905D01*
X30031905Y25984286D01*
X29993810Y26060477D01*
X29955714Y26098572D01*
X29879524Y26136667D01*
X29231905Y26136667D01*
X29308095Y26479524D02*
X29270000Y26517619D01*
X29231905Y26593810D01*
X29231905Y26784286D01*
X29270000Y26860476D01*
X29308095Y26898572D01*
X29384286Y26936667D01*
X29460476Y26936667D01*
X29574762Y26898572D01*
X30031905Y26441429D01*
X30031905Y26936667D01*
X30031905Y27317619D02*
X30031905Y27470000D01*
X29993810Y27546191D01*
X29955714Y27584286D01*
X29841429Y27660477D01*
X29689048Y27698572D01*
X29384286Y27698572D01*
X29308095Y27660477D01*
X29270000Y27622381D01*
X29231905Y27546191D01*
X29231905Y27393810D01*
X29270000Y27317619D01*
X29308095Y27279524D01*
X29384286Y27241429D01*
X29574762Y27241429D01*
X29650952Y27279524D01*
X29689048Y27317619D01*
X29727143Y27393810D01*
X29727143Y27546191D01*
X29689048Y27622381D01*
X29650952Y27660477D01*
X29574762Y27698572D01*
X29231905Y18059524D02*
X29879524Y18059524D01*
X29955714Y18097619D01*
X29993810Y18135715D01*
X30031905Y18211905D01*
X30031905Y18364286D01*
X29993810Y18440477D01*
X29955714Y18478572D01*
X29879524Y18516667D01*
X29231905Y18516667D01*
X29231905Y18821429D02*
X29231905Y19316667D01*
X29536667Y19050000D01*
X29536667Y19164286D01*
X29574762Y19240476D01*
X29612857Y19278572D01*
X29689048Y19316667D01*
X29879524Y19316667D01*
X29955714Y19278572D01*
X29993810Y19240476D01*
X30031905Y19164286D01*
X30031905Y18935714D01*
X29993810Y18859524D01*
X29955714Y18821429D01*
X29231905Y19811905D02*
X29231905Y19888096D01*
X29270000Y19964286D01*
X29308095Y20002381D01*
X29384286Y20040477D01*
X29536667Y20078572D01*
X29727143Y20078572D01*
X29879524Y20040477D01*
X29955714Y20002381D01*
X29993810Y19964286D01*
X30031905Y19888096D01*
X30031905Y19811905D01*
X29993810Y19735715D01*
X29955714Y19697619D01*
X29879524Y19659524D01*
X29727143Y19621429D01*
X29536667Y19621429D01*
X29384286Y19659524D01*
X29308095Y19697619D01*
X29270000Y19735715D01*
X29231905Y19811905D01*
X29231905Y10439524D02*
X29879524Y10439524D01*
X29955714Y10477619D01*
X29993810Y10515715D01*
X30031905Y10591905D01*
X30031905Y10744286D01*
X29993810Y10820477D01*
X29955714Y10858572D01*
X29879524Y10896667D01*
X29231905Y10896667D01*
X29231905Y11201429D02*
X29231905Y11696667D01*
X29536667Y11430000D01*
X29536667Y11544286D01*
X29574762Y11620476D01*
X29612857Y11658572D01*
X29689048Y11696667D01*
X29879524Y11696667D01*
X29955714Y11658572D01*
X29993810Y11620476D01*
X30031905Y11544286D01*
X30031905Y11315714D01*
X29993810Y11239524D01*
X29955714Y11201429D01*
X30031905Y12458572D02*
X30031905Y12001429D01*
X30031905Y12230000D02*
X29231905Y12230000D01*
X29346190Y12153810D01*
X29422381Y12077619D01*
X29460476Y12001429D01*
X30851905Y10439524D02*
X31499524Y10439524D01*
X31575714Y10477619D01*
X31613810Y10515715D01*
X31651905Y10591905D01*
X31651905Y10744286D01*
X31613810Y10820477D01*
X31575714Y10858572D01*
X31499524Y10896667D01*
X30851905Y10896667D01*
X30851905Y11201429D02*
X30851905Y11696667D01*
X31156667Y11430000D01*
X31156667Y11544286D01*
X31194762Y11620476D01*
X31232857Y11658572D01*
X31309048Y11696667D01*
X31499524Y11696667D01*
X31575714Y11658572D01*
X31613810Y11620476D01*
X31651905Y11544286D01*
X31651905Y11315714D01*
X31613810Y11239524D01*
X31575714Y11201429D01*
X31118571Y12382381D02*
X31651905Y12382381D01*
X30813810Y12191905D02*
X31385238Y12001429D01*
X31385238Y12496667D01*
X30851905Y18059524D02*
X31499524Y18059524D01*
X31575714Y18097619D01*
X31613810Y18135715D01*
X31651905Y18211905D01*
X31651905Y18364286D01*
X31613810Y18440477D01*
X31575714Y18478572D01*
X31499524Y18516667D01*
X30851905Y18516667D01*
X30851905Y18821429D02*
X30851905Y19316667D01*
X31156667Y19050000D01*
X31156667Y19164286D01*
X31194762Y19240476D01*
X31232857Y19278572D01*
X31309048Y19316667D01*
X31499524Y19316667D01*
X31575714Y19278572D01*
X31613810Y19240476D01*
X31651905Y19164286D01*
X31651905Y18935714D01*
X31613810Y18859524D01*
X31575714Y18821429D01*
X30851905Y20040477D02*
X30851905Y19659524D01*
X31232857Y19621429D01*
X31194762Y19659524D01*
X31156667Y19735715D01*
X31156667Y19926191D01*
X31194762Y20002381D01*
X31232857Y20040477D01*
X31309048Y20078572D01*
X31499524Y20078572D01*
X31575714Y20040477D01*
X31613810Y20002381D01*
X31651905Y19926191D01*
X31651905Y19735715D01*
X31613810Y19659524D01*
X31575714Y19621429D01*
X30851905Y25679524D02*
X31499524Y25679524D01*
X31575714Y25717619D01*
X31613810Y25755715D01*
X31651905Y25831905D01*
X31651905Y25984286D01*
X31613810Y26060477D01*
X31575714Y26098572D01*
X31499524Y26136667D01*
X30851905Y26136667D01*
X30851905Y26441429D02*
X30851905Y26936667D01*
X31156667Y26670000D01*
X31156667Y26784286D01*
X31194762Y26860476D01*
X31232857Y26898572D01*
X31309048Y26936667D01*
X31499524Y26936667D01*
X31575714Y26898572D01*
X31613810Y26860476D01*
X31651905Y26784286D01*
X31651905Y26555714D01*
X31613810Y26479524D01*
X31575714Y26441429D01*
X30851905Y27622381D02*
X30851905Y27470000D01*
X30890000Y27393810D01*
X30928095Y27355715D01*
X31042381Y27279524D01*
X31194762Y27241429D01*
X31499524Y27241429D01*
X31575714Y27279524D01*
X31613810Y27317619D01*
X31651905Y27393810D01*
X31651905Y27546191D01*
X31613810Y27622381D01*
X31575714Y27660477D01*
X31499524Y27698572D01*
X31309048Y27698572D01*
X31232857Y27660477D01*
X31194762Y27622381D01*
X31156667Y27546191D01*
X31156667Y27393810D01*
X31194762Y27317619D01*
X31232857Y27279524D01*
X31309048Y27241429D01*
X30851905Y33299524D02*
X31499524Y33299524D01*
X31575714Y33337619D01*
X31613810Y33375715D01*
X31651905Y33451905D01*
X31651905Y33604286D01*
X31613810Y33680477D01*
X31575714Y33718572D01*
X31499524Y33756667D01*
X30851905Y33756667D01*
X30851905Y34061429D02*
X30851905Y34556667D01*
X31156667Y34290000D01*
X31156667Y34404286D01*
X31194762Y34480476D01*
X31232857Y34518572D01*
X31309048Y34556667D01*
X31499524Y34556667D01*
X31575714Y34518572D01*
X31613810Y34480476D01*
X31651905Y34404286D01*
X31651905Y34175714D01*
X31613810Y34099524D01*
X31575714Y34061429D01*
X30851905Y34823334D02*
X30851905Y35356667D01*
X31651905Y35013810D01*
X30851905Y48539524D02*
X31499524Y48539524D01*
X31575714Y48577619D01*
X31613810Y48615715D01*
X31651905Y48691905D01*
X31651905Y48844286D01*
X31613810Y48920477D01*
X31575714Y48958572D01*
X31499524Y48996667D01*
X30851905Y48996667D01*
X30851905Y49301429D02*
X30851905Y49796667D01*
X31156667Y49530000D01*
X31156667Y49644286D01*
X31194762Y49720476D01*
X31232857Y49758572D01*
X31309048Y49796667D01*
X31499524Y49796667D01*
X31575714Y49758572D01*
X31613810Y49720476D01*
X31651905Y49644286D01*
X31651905Y49415714D01*
X31613810Y49339524D01*
X31575714Y49301429D01*
X31651905Y50177619D02*
X31651905Y50330000D01*
X31613810Y50406191D01*
X31575714Y50444286D01*
X31461429Y50520477D01*
X31309048Y50558572D01*
X31004286Y50558572D01*
X30928095Y50520477D01*
X30890000Y50482381D01*
X30851905Y50406191D01*
X30851905Y50253810D01*
X30890000Y50177619D01*
X30928095Y50139524D01*
X31004286Y50101429D01*
X31194762Y50101429D01*
X31270952Y50139524D01*
X31309048Y50177619D01*
X31347143Y50253810D01*
X31347143Y50406191D01*
X31309048Y50482381D01*
X31270952Y50520477D01*
X31194762Y50558572D01*
X30851905Y56159524D02*
X31499524Y56159524D01*
X31575714Y56197619D01*
X31613810Y56235715D01*
X31651905Y56311905D01*
X31651905Y56464286D01*
X31613810Y56540477D01*
X31575714Y56578572D01*
X31499524Y56616667D01*
X30851905Y56616667D01*
X31118571Y57340476D02*
X31651905Y57340476D01*
X30813810Y57150000D02*
X31385238Y56959524D01*
X31385238Y57454762D01*
X30851905Y57911905D02*
X30851905Y57988096D01*
X30890000Y58064286D01*
X30928095Y58102381D01*
X31004286Y58140477D01*
X31156667Y58178572D01*
X31347143Y58178572D01*
X31499524Y58140477D01*
X31575714Y58102381D01*
X31613810Y58064286D01*
X31651905Y57988096D01*
X31651905Y57911905D01*
X31613810Y57835715D01*
X31575714Y57797619D01*
X31499524Y57759524D01*
X31347143Y57721429D01*
X31156667Y57721429D01*
X31004286Y57759524D01*
X30928095Y57797619D01*
X30890000Y57835715D01*
X30851905Y57911905D01*
X44471905Y56159524D02*
X45119524Y56159524D01*
X45195714Y56197619D01*
X45233810Y56235715D01*
X45271905Y56311905D01*
X45271905Y56464286D01*
X45233810Y56540477D01*
X45195714Y56578572D01*
X45119524Y56616667D01*
X44471905Y56616667D01*
X44738571Y57340476D02*
X45271905Y57340476D01*
X44433810Y57150000D02*
X45005238Y56959524D01*
X45005238Y57454762D01*
X45271905Y58178572D02*
X45271905Y57721429D01*
X45271905Y57950000D02*
X44471905Y57950000D01*
X44586190Y57873810D01*
X44662381Y57797619D01*
X44700476Y57721429D01*
X44471905Y48539524D02*
X45119524Y48539524D01*
X45195714Y48577619D01*
X45233810Y48615715D01*
X45271905Y48691905D01*
X45271905Y48844286D01*
X45233810Y48920477D01*
X45195714Y48958572D01*
X45119524Y48996667D01*
X44471905Y48996667D01*
X44738571Y49720476D02*
X45271905Y49720476D01*
X44433810Y49530000D02*
X45005238Y49339524D01*
X45005238Y49834762D01*
X44548095Y50101429D02*
X44510000Y50139524D01*
X44471905Y50215715D01*
X44471905Y50406191D01*
X44510000Y50482381D01*
X44548095Y50520477D01*
X44624286Y50558572D01*
X44700476Y50558572D01*
X44814762Y50520477D01*
X45271905Y50063334D01*
X45271905Y50558572D01*
X44471905Y33299524D02*
X45119524Y33299524D01*
X45195714Y33337619D01*
X45233810Y33375715D01*
X45271905Y33451905D01*
X45271905Y33604286D01*
X45233810Y33680477D01*
X45195714Y33718572D01*
X45119524Y33756667D01*
X44471905Y33756667D01*
X44738571Y34480476D02*
X45271905Y34480476D01*
X44433810Y34290000D02*
X45005238Y34099524D01*
X45005238Y34594762D01*
X44738571Y35242381D02*
X45271905Y35242381D01*
X44433810Y35051905D02*
X45005238Y34861429D01*
X45005238Y35356667D01*
X44471905Y25679524D02*
X45119524Y25679524D01*
X45195714Y25717619D01*
X45233810Y25755715D01*
X45271905Y25831905D01*
X45271905Y25984286D01*
X45233810Y26060477D01*
X45195714Y26098572D01*
X45119524Y26136667D01*
X44471905Y26136667D01*
X44738571Y26860476D02*
X45271905Y26860476D01*
X44433810Y26670000D02*
X45005238Y26479524D01*
X45005238Y26974762D01*
X44471905Y27660477D02*
X44471905Y27279524D01*
X44852857Y27241429D01*
X44814762Y27279524D01*
X44776667Y27355715D01*
X44776667Y27546191D01*
X44814762Y27622381D01*
X44852857Y27660477D01*
X44929048Y27698572D01*
X45119524Y27698572D01*
X45195714Y27660477D01*
X45233810Y27622381D01*
X45271905Y27546191D01*
X45271905Y27355715D01*
X45233810Y27279524D01*
X45195714Y27241429D01*
X44471905Y18059524D02*
X45119524Y18059524D01*
X45195714Y18097619D01*
X45233810Y18135715D01*
X45271905Y18211905D01*
X45271905Y18364286D01*
X45233810Y18440477D01*
X45195714Y18478572D01*
X45119524Y18516667D01*
X44471905Y18516667D01*
X44738571Y19240476D02*
X45271905Y19240476D01*
X44433810Y19050000D02*
X45005238Y18859524D01*
X45005238Y19354762D01*
X44471905Y20002381D02*
X44471905Y19850000D01*
X44510000Y19773810D01*
X44548095Y19735715D01*
X44662381Y19659524D01*
X44814762Y19621429D01*
X45119524Y19621429D01*
X45195714Y19659524D01*
X45233810Y19697619D01*
X45271905Y19773810D01*
X45271905Y19926191D01*
X45233810Y20002381D01*
X45195714Y20040477D01*
X45119524Y20078572D01*
X44929048Y20078572D01*
X44852857Y20040477D01*
X44814762Y20002381D01*
X44776667Y19926191D01*
X44776667Y19773810D01*
X44814762Y19697619D01*
X44852857Y19659524D01*
X44929048Y19621429D01*
X44471905Y10439524D02*
X45119524Y10439524D01*
X45195714Y10477619D01*
X45233810Y10515715D01*
X45271905Y10591905D01*
X45271905Y10744286D01*
X45233810Y10820477D01*
X45195714Y10858572D01*
X45119524Y10896667D01*
X44471905Y10896667D01*
X44738571Y11620476D02*
X45271905Y11620476D01*
X44433810Y11430000D02*
X45005238Y11239524D01*
X45005238Y11734762D01*
X44471905Y11963334D02*
X44471905Y12496667D01*
X45271905Y12153810D01*
X46091905Y10439524D02*
X46739524Y10439524D01*
X46815714Y10477619D01*
X46853810Y10515715D01*
X46891905Y10591905D01*
X46891905Y10744286D01*
X46853810Y10820477D01*
X46815714Y10858572D01*
X46739524Y10896667D01*
X46091905Y10896667D01*
X46091905Y11658572D02*
X46091905Y11277619D01*
X46472857Y11239524D01*
X46434762Y11277619D01*
X46396667Y11353810D01*
X46396667Y11544286D01*
X46434762Y11620476D01*
X46472857Y11658572D01*
X46549048Y11696667D01*
X46739524Y11696667D01*
X46815714Y11658572D01*
X46853810Y11620476D01*
X46891905Y11544286D01*
X46891905Y11353810D01*
X46853810Y11277619D01*
X46815714Y11239524D01*
X46091905Y12191905D02*
X46091905Y12268096D01*
X46130000Y12344286D01*
X46168095Y12382381D01*
X46244286Y12420477D01*
X46396667Y12458572D01*
X46587143Y12458572D01*
X46739524Y12420477D01*
X46815714Y12382381D01*
X46853810Y12344286D01*
X46891905Y12268096D01*
X46891905Y12191905D01*
X46853810Y12115715D01*
X46815714Y12077619D01*
X46739524Y12039524D01*
X46587143Y12001429D01*
X46396667Y12001429D01*
X46244286Y12039524D01*
X46168095Y12077619D01*
X46130000Y12115715D01*
X46091905Y12191905D01*
X46091905Y18059524D02*
X46739524Y18059524D01*
X46815714Y18097619D01*
X46853810Y18135715D01*
X46891905Y18211905D01*
X46891905Y18364286D01*
X46853810Y18440477D01*
X46815714Y18478572D01*
X46739524Y18516667D01*
X46091905Y18516667D01*
X46091905Y19278572D02*
X46091905Y18897619D01*
X46472857Y18859524D01*
X46434762Y18897619D01*
X46396667Y18973810D01*
X46396667Y19164286D01*
X46434762Y19240476D01*
X46472857Y19278572D01*
X46549048Y19316667D01*
X46739524Y19316667D01*
X46815714Y19278572D01*
X46853810Y19240476D01*
X46891905Y19164286D01*
X46891905Y18973810D01*
X46853810Y18897619D01*
X46815714Y18859524D01*
X46891905Y20078572D02*
X46891905Y19621429D01*
X46891905Y19850000D02*
X46091905Y19850000D01*
X46206190Y19773810D01*
X46282381Y19697619D01*
X46320476Y19621429D01*
X46091905Y25679524D02*
X46739524Y25679524D01*
X46815714Y25717619D01*
X46853810Y25755715D01*
X46891905Y25831905D01*
X46891905Y25984286D01*
X46853810Y26060477D01*
X46815714Y26098572D01*
X46739524Y26136667D01*
X46091905Y26136667D01*
X46091905Y26898572D02*
X46091905Y26517619D01*
X46472857Y26479524D01*
X46434762Y26517619D01*
X46396667Y26593810D01*
X46396667Y26784286D01*
X46434762Y26860476D01*
X46472857Y26898572D01*
X46549048Y26936667D01*
X46739524Y26936667D01*
X46815714Y26898572D01*
X46853810Y26860476D01*
X46891905Y26784286D01*
X46891905Y26593810D01*
X46853810Y26517619D01*
X46815714Y26479524D01*
X46168095Y27241429D02*
X46130000Y27279524D01*
X46091905Y27355715D01*
X46091905Y27546191D01*
X46130000Y27622381D01*
X46168095Y27660477D01*
X46244286Y27698572D01*
X46320476Y27698572D01*
X46434762Y27660477D01*
X46891905Y27203334D01*
X46891905Y27698572D01*
X46091905Y48539524D02*
X46739524Y48539524D01*
X46815714Y48577619D01*
X46853810Y48615715D01*
X46891905Y48691905D01*
X46891905Y48844286D01*
X46853810Y48920477D01*
X46815714Y48958572D01*
X46739524Y48996667D01*
X46091905Y48996667D01*
X46091905Y49758572D02*
X46091905Y49377619D01*
X46472857Y49339524D01*
X46434762Y49377619D01*
X46396667Y49453810D01*
X46396667Y49644286D01*
X46434762Y49720476D01*
X46472857Y49758572D01*
X46549048Y49796667D01*
X46739524Y49796667D01*
X46815714Y49758572D01*
X46853810Y49720476D01*
X46891905Y49644286D01*
X46891905Y49453810D01*
X46853810Y49377619D01*
X46815714Y49339524D01*
X46091905Y50520477D02*
X46091905Y50139524D01*
X46472857Y50101429D01*
X46434762Y50139524D01*
X46396667Y50215715D01*
X46396667Y50406191D01*
X46434762Y50482381D01*
X46472857Y50520477D01*
X46549048Y50558572D01*
X46739524Y50558572D01*
X46815714Y50520477D01*
X46853810Y50482381D01*
X46891905Y50406191D01*
X46891905Y50215715D01*
X46853810Y50139524D01*
X46815714Y50101429D01*
X46091905Y56159524D02*
X46739524Y56159524D01*
X46815714Y56197619D01*
X46853810Y56235715D01*
X46891905Y56311905D01*
X46891905Y56464286D01*
X46853810Y56540477D01*
X46815714Y56578572D01*
X46739524Y56616667D01*
X46091905Y56616667D01*
X46091905Y57378572D02*
X46091905Y56997619D01*
X46472857Y56959524D01*
X46434762Y56997619D01*
X46396667Y57073810D01*
X46396667Y57264286D01*
X46434762Y57340476D01*
X46472857Y57378572D01*
X46549048Y57416667D01*
X46739524Y57416667D01*
X46815714Y57378572D01*
X46853810Y57340476D01*
X46891905Y57264286D01*
X46891905Y57073810D01*
X46853810Y56997619D01*
X46815714Y56959524D01*
X46091905Y58102381D02*
X46091905Y57950000D01*
X46130000Y57873810D01*
X46168095Y57835715D01*
X46282381Y57759524D01*
X46434762Y57721429D01*
X46739524Y57721429D01*
X46815714Y57759524D01*
X46853810Y57797619D01*
X46891905Y57873810D01*
X46891905Y58026191D01*
X46853810Y58102381D01*
X46815714Y58140477D01*
X46739524Y58178572D01*
X46549048Y58178572D01*
X46472857Y58140477D01*
X46434762Y58102381D01*
X46396667Y58026191D01*
X46396667Y57873810D01*
X46434762Y57797619D01*
X46472857Y57759524D01*
X46549048Y57721429D01*
X59711905Y56159524D02*
X60359524Y56159524D01*
X60435714Y56197619D01*
X60473810Y56235715D01*
X60511905Y56311905D01*
X60511905Y56464286D01*
X60473810Y56540477D01*
X60435714Y56578572D01*
X60359524Y56616667D01*
X59711905Y56616667D01*
X59711905Y57378572D02*
X59711905Y56997619D01*
X60092857Y56959524D01*
X60054762Y56997619D01*
X60016667Y57073810D01*
X60016667Y57264286D01*
X60054762Y57340476D01*
X60092857Y57378572D01*
X60169048Y57416667D01*
X60359524Y57416667D01*
X60435714Y57378572D01*
X60473810Y57340476D01*
X60511905Y57264286D01*
X60511905Y57073810D01*
X60473810Y56997619D01*
X60435714Y56959524D01*
X59711905Y57683334D02*
X59711905Y58216667D01*
X60511905Y57873810D01*
X59711905Y48539524D02*
X60359524Y48539524D01*
X60435714Y48577619D01*
X60473810Y48615715D01*
X60511905Y48691905D01*
X60511905Y48844286D01*
X60473810Y48920477D01*
X60435714Y48958572D01*
X60359524Y48996667D01*
X59711905Y48996667D01*
X59711905Y49758572D02*
X59711905Y49377619D01*
X60092857Y49339524D01*
X60054762Y49377619D01*
X60016667Y49453810D01*
X60016667Y49644286D01*
X60054762Y49720476D01*
X60092857Y49758572D01*
X60169048Y49796667D01*
X60359524Y49796667D01*
X60435714Y49758572D01*
X60473810Y49720476D01*
X60511905Y49644286D01*
X60511905Y49453810D01*
X60473810Y49377619D01*
X60435714Y49339524D01*
X60054762Y50253810D02*
X60016667Y50177619D01*
X59978571Y50139524D01*
X59902381Y50101429D01*
X59864286Y50101429D01*
X59788095Y50139524D01*
X59750000Y50177619D01*
X59711905Y50253810D01*
X59711905Y50406191D01*
X59750000Y50482381D01*
X59788095Y50520477D01*
X59864286Y50558572D01*
X59902381Y50558572D01*
X59978571Y50520477D01*
X60016667Y50482381D01*
X60054762Y50406191D01*
X60054762Y50253810D01*
X60092857Y50177619D01*
X60130952Y50139524D01*
X60207143Y50101429D01*
X60359524Y50101429D01*
X60435714Y50139524D01*
X60473810Y50177619D01*
X60511905Y50253810D01*
X60511905Y50406191D01*
X60473810Y50482381D01*
X60435714Y50520477D01*
X60359524Y50558572D01*
X60207143Y50558572D01*
X60130952Y50520477D01*
X60092857Y50482381D01*
X60054762Y50406191D01*
X59711905Y25679524D02*
X60359524Y25679524D01*
X60435714Y25717619D01*
X60473810Y25755715D01*
X60511905Y25831905D01*
X60511905Y25984286D01*
X60473810Y26060477D01*
X60435714Y26098572D01*
X60359524Y26136667D01*
X59711905Y26136667D01*
X59711905Y26860476D02*
X59711905Y26708095D01*
X59750000Y26631905D01*
X59788095Y26593810D01*
X59902381Y26517619D01*
X60054762Y26479524D01*
X60359524Y26479524D01*
X60435714Y26517619D01*
X60473810Y26555714D01*
X60511905Y26631905D01*
X60511905Y26784286D01*
X60473810Y26860476D01*
X60435714Y26898572D01*
X60359524Y26936667D01*
X60169048Y26936667D01*
X60092857Y26898572D01*
X60054762Y26860476D01*
X60016667Y26784286D01*
X60016667Y26631905D01*
X60054762Y26555714D01*
X60092857Y26517619D01*
X60169048Y26479524D01*
X60511905Y27698572D02*
X60511905Y27241429D01*
X60511905Y27470000D02*
X59711905Y27470000D01*
X59826190Y27393810D01*
X59902381Y27317619D01*
X59940476Y27241429D01*
X59711905Y18059524D02*
X60359524Y18059524D01*
X60435714Y18097619D01*
X60473810Y18135715D01*
X60511905Y18211905D01*
X60511905Y18364286D01*
X60473810Y18440477D01*
X60435714Y18478572D01*
X60359524Y18516667D01*
X59711905Y18516667D01*
X59711905Y19240476D02*
X59711905Y19088095D01*
X59750000Y19011905D01*
X59788095Y18973810D01*
X59902381Y18897619D01*
X60054762Y18859524D01*
X60359524Y18859524D01*
X60435714Y18897619D01*
X60473810Y18935714D01*
X60511905Y19011905D01*
X60511905Y19164286D01*
X60473810Y19240476D01*
X60435714Y19278572D01*
X60359524Y19316667D01*
X60169048Y19316667D01*
X60092857Y19278572D01*
X60054762Y19240476D01*
X60016667Y19164286D01*
X60016667Y19011905D01*
X60054762Y18935714D01*
X60092857Y18897619D01*
X60169048Y18859524D01*
X59788095Y19621429D02*
X59750000Y19659524D01*
X59711905Y19735715D01*
X59711905Y19926191D01*
X59750000Y20002381D01*
X59788095Y20040477D01*
X59864286Y20078572D01*
X59940476Y20078572D01*
X60054762Y20040477D01*
X60511905Y19583334D01*
X60511905Y20078572D01*
X59711905Y10439524D02*
X60359524Y10439524D01*
X60435714Y10477619D01*
X60473810Y10515715D01*
X60511905Y10591905D01*
X60511905Y10744286D01*
X60473810Y10820477D01*
X60435714Y10858572D01*
X60359524Y10896667D01*
X59711905Y10896667D01*
X59711905Y11620476D02*
X59711905Y11468095D01*
X59750000Y11391905D01*
X59788095Y11353810D01*
X59902381Y11277619D01*
X60054762Y11239524D01*
X60359524Y11239524D01*
X60435714Y11277619D01*
X60473810Y11315714D01*
X60511905Y11391905D01*
X60511905Y11544286D01*
X60473810Y11620476D01*
X60435714Y11658572D01*
X60359524Y11696667D01*
X60169048Y11696667D01*
X60092857Y11658572D01*
X60054762Y11620476D01*
X60016667Y11544286D01*
X60016667Y11391905D01*
X60054762Y11315714D01*
X60092857Y11277619D01*
X60169048Y11239524D01*
X59711905Y11963334D02*
X59711905Y12458572D01*
X60016667Y12191905D01*
X60016667Y12306191D01*
X60054762Y12382381D01*
X60092857Y12420477D01*
X60169048Y12458572D01*
X60359524Y12458572D01*
X60435714Y12420477D01*
X60473810Y12382381D01*
X60511905Y12306191D01*
X60511905Y12077619D01*
X60473810Y12001429D01*
X60435714Y11963334D01*
%LPC*%
D12*
X5410000Y32090000D03*
X5410000Y36490000D03*
D13*
X3810000Y36490000D03*
X3810000Y32090000D03*
D12*
X2210000Y32090000D03*
X2210000Y36490000D03*
D14*
X2794000Y34290000D03*
D12*
X5410000Y39710000D03*
X5410000Y44110000D03*
D13*
X3810000Y44110000D03*
X3810000Y39710000D03*
D12*
X2210000Y39710000D03*
X2210000Y44110000D03*
D14*
X2794000Y41783000D03*
D12*
X9830000Y44110000D03*
X9830000Y39710000D03*
D13*
X11430000Y39710000D03*
X11430000Y44110000D03*
D12*
X13030000Y44110000D03*
X13030000Y39710000D03*
D14*
X12954000Y41783000D03*
D12*
X9830000Y36490000D03*
X9830000Y32090000D03*
D13*
X11430000Y32090000D03*
X11430000Y36490000D03*
D12*
X13030000Y36490000D03*
X13030000Y32090000D03*
D14*
X12573000Y34290000D03*
D12*
X20650000Y16850000D03*
X20650000Y21250000D03*
D13*
X19050000Y21250000D03*
X19050000Y16850000D03*
D12*
X17450000Y16850000D03*
X17450000Y21250000D03*
D14*
X23368000Y12192000D03*
D12*
X35890000Y39710000D03*
X35890000Y44110000D03*
D13*
X34290000Y44110000D03*
X34290000Y39710000D03*
D12*
X32690000Y39710000D03*
X32690000Y44110000D03*
D14*
X35890000Y41110000D03*
D12*
X40310000Y44110000D03*
X40310000Y39710000D03*
D13*
X41910000Y39710000D03*
X41910000Y44110000D03*
D12*
X43510000Y44110000D03*
X43510000Y39710000D03*
D14*
X36703000Y42291000D03*
D12*
X51130000Y32090000D03*
X51130000Y36490000D03*
D13*
X49530000Y36490000D03*
X49530000Y32090000D03*
D12*
X47930000Y32090000D03*
X47930000Y36490000D03*
D14*
X48641000Y34290000D03*
D12*
X51130000Y39710000D03*
X51130000Y44110000D03*
D13*
X49530000Y44110000D03*
X49530000Y39710000D03*
D12*
X47930000Y39710000D03*
X47930000Y44110000D03*
D14*
X48387000Y42037000D03*
D12*
X55550000Y44110000D03*
X55550000Y39710000D03*
D13*
X57150000Y39710000D03*
X57150000Y44110000D03*
D12*
X58750000Y44110000D03*
X58750000Y39710000D03*
D14*
X57912000Y41910000D03*
D12*
X55550000Y36490000D03*
X55550000Y32090000D03*
D13*
X57150000Y32090000D03*
X57150000Y36490000D03*
D12*
X58750000Y36490000D03*
X58750000Y32090000D03*
D14*
X58039000Y34163000D03*
D12*
X55550000Y6010000D03*
X55550000Y1610000D03*
D13*
X57150000Y1610000D03*
X57150000Y6010000D03*
D12*
X58750000Y6010000D03*
X58750000Y1610000D03*
D14*
X55550000Y4610000D03*
D12*
X51130000Y1610000D03*
X51130000Y6010000D03*
D13*
X49530000Y6010000D03*
X49530000Y1610000D03*
D12*
X47930000Y1610000D03*
X47930000Y6010000D03*
D14*
X51130000Y3010000D03*
D12*
X40310000Y6010000D03*
X40310000Y1610000D03*
D13*
X41910000Y1610000D03*
X41910000Y6010000D03*
D12*
X43510000Y6010000D03*
X43510000Y1610000D03*
D14*
X40310000Y4610000D03*
D12*
X35890000Y1610000D03*
X35890000Y6010000D03*
D13*
X34290000Y6010000D03*
X34290000Y1610000D03*
D12*
X32690000Y1610000D03*
X32690000Y6010000D03*
D14*
X35890000Y3010000D03*
D12*
X25070000Y6010000D03*
X25070000Y1610000D03*
D13*
X26670000Y1610000D03*
X26670000Y6010000D03*
D12*
X28270000Y6010000D03*
X28270000Y1610000D03*
D14*
X25070000Y4610000D03*
D12*
X20650000Y1610000D03*
X20650000Y6010000D03*
D13*
X19050000Y6010000D03*
X19050000Y1610000D03*
D12*
X17450000Y1610000D03*
X17450000Y6010000D03*
D14*
X20650000Y3010000D03*
D12*
X9830000Y6010000D03*
X9830000Y1610000D03*
D13*
X11430000Y1610000D03*
X11430000Y6010000D03*
D12*
X13030000Y6010000D03*
X13030000Y1610000D03*
D14*
X9830000Y4610000D03*
D12*
X5410000Y1610000D03*
X5410000Y6010000D03*
D13*
X3810000Y6010000D03*
X3810000Y1610000D03*
D12*
X2210000Y1610000D03*
X2210000Y6010000D03*
D14*
X5410000Y3010000D03*
D12*
X5410000Y24470000D03*
X5410000Y28870000D03*
D13*
X3810000Y28870000D03*
X3810000Y24470000D03*
D12*
X2210000Y24470000D03*
X2210000Y28870000D03*
D14*
X5410000Y25870000D03*
D12*
X5410000Y9230000D03*
X5410000Y13630000D03*
D13*
X3810000Y13630000D03*
X3810000Y9230000D03*
D12*
X2210000Y9230000D03*
X2210000Y13630000D03*
D14*
X5410000Y10630000D03*
D12*
X5410000Y16850000D03*
X5410000Y21250000D03*
D13*
X3810000Y21250000D03*
X3810000Y16850000D03*
D12*
X2210000Y16850000D03*
X2210000Y21250000D03*
D14*
X5410000Y18250000D03*
D12*
X5410000Y47330000D03*
X5410000Y51730000D03*
D13*
X3810000Y51730000D03*
X3810000Y47330000D03*
D12*
X2210000Y47330000D03*
X2210000Y51730000D03*
D14*
X5410000Y48730000D03*
D12*
X5410000Y54950000D03*
X5410000Y59350000D03*
D13*
X3810000Y59350000D03*
X3810000Y54950000D03*
D12*
X2210000Y54950000D03*
X2210000Y59350000D03*
D14*
X5410000Y56350000D03*
D12*
X9830000Y59350000D03*
X9830000Y54950000D03*
D13*
X11430000Y54950000D03*
X11430000Y59350000D03*
D12*
X13030000Y59350000D03*
X13030000Y54950000D03*
D14*
X9830000Y57950000D03*
D12*
X9830000Y51730000D03*
X9830000Y47330000D03*
D13*
X11430000Y47330000D03*
X11430000Y51730000D03*
D12*
X13030000Y51730000D03*
X13030000Y47330000D03*
D14*
X9830000Y50330000D03*
D12*
X9830000Y28870000D03*
X9830000Y24470000D03*
D13*
X11430000Y24470000D03*
X11430000Y28870000D03*
D12*
X13030000Y28870000D03*
X13030000Y24470000D03*
D14*
X9830000Y27470000D03*
D12*
X9830000Y21250000D03*
X9830000Y16850000D03*
D13*
X11430000Y16850000D03*
X11430000Y21250000D03*
D12*
X13030000Y21250000D03*
X13030000Y16850000D03*
D14*
X9830000Y19850000D03*
D12*
X9830000Y13630000D03*
X9830000Y9230000D03*
D13*
X11430000Y9230000D03*
X11430000Y13630000D03*
D12*
X13030000Y13630000D03*
X13030000Y9230000D03*
D14*
X9830000Y12230000D03*
D12*
X20650000Y9230000D03*
X20650000Y13630000D03*
D13*
X19050000Y13630000D03*
X19050000Y9230000D03*
D12*
X17450000Y9230000D03*
X17450000Y13630000D03*
D14*
X20650000Y10630000D03*
D12*
X20650000Y24470000D03*
X20650000Y28870000D03*
D13*
X19050000Y28870000D03*
X19050000Y24470000D03*
D12*
X17450000Y24470000D03*
X17450000Y28870000D03*
D14*
X20650000Y25870000D03*
D12*
X20650000Y32090000D03*
X20650000Y36490000D03*
D13*
X19050000Y36490000D03*
X19050000Y32090000D03*
D12*
X17450000Y32090000D03*
X17450000Y36490000D03*
D14*
X20650000Y33490000D03*
D12*
X20650000Y39710000D03*
X20650000Y44110000D03*
D13*
X19050000Y44110000D03*
X19050000Y39710000D03*
D12*
X17450000Y39710000D03*
X17450000Y44110000D03*
D14*
X20650000Y41110000D03*
D12*
X20650000Y47330000D03*
X20650000Y51730000D03*
D13*
X19050000Y51730000D03*
X19050000Y47330000D03*
D12*
X17450000Y47330000D03*
X17450000Y51730000D03*
D14*
X20650000Y48730000D03*
D12*
X20650000Y54950000D03*
X20650000Y59350000D03*
D13*
X19050000Y59350000D03*
X19050000Y54950000D03*
D12*
X17450000Y54950000D03*
X17450000Y59350000D03*
D14*
X20650000Y56350000D03*
D12*
X25070000Y59350000D03*
X25070000Y54950000D03*
D13*
X26670000Y54950000D03*
X26670000Y59350000D03*
D12*
X28270000Y59350000D03*
X28270000Y54950000D03*
D14*
X25070000Y57950000D03*
D12*
X25070000Y51730000D03*
X25070000Y47330000D03*
D13*
X26670000Y47330000D03*
X26670000Y51730000D03*
D12*
X28270000Y51730000D03*
X28270000Y47330000D03*
D14*
X25070000Y50330000D03*
D12*
X25070000Y44110000D03*
X25070000Y39710000D03*
D13*
X26670000Y39710000D03*
X26670000Y44110000D03*
D12*
X28270000Y44110000D03*
X28270000Y39710000D03*
D14*
X25070000Y42710000D03*
D12*
X25070000Y36490000D03*
X25070000Y32090000D03*
D13*
X26670000Y32090000D03*
X26670000Y36490000D03*
D12*
X28270000Y36490000D03*
X28270000Y32090000D03*
D14*
X25070000Y35090000D03*
D12*
X25070000Y28870000D03*
X25070000Y24470000D03*
D13*
X26670000Y24470000D03*
X26670000Y28870000D03*
D12*
X28270000Y28870000D03*
X28270000Y24470000D03*
D14*
X25070000Y27470000D03*
D12*
X25070000Y21250000D03*
X25070000Y16850000D03*
D13*
X26670000Y16850000D03*
X26670000Y21250000D03*
D12*
X28270000Y21250000D03*
X28270000Y16850000D03*
D14*
X25070000Y19850000D03*
D12*
X25070000Y13630000D03*
X25070000Y9230000D03*
D13*
X26670000Y9230000D03*
X26670000Y13630000D03*
D12*
X28270000Y13630000D03*
X28270000Y9230000D03*
D14*
X25070000Y12230000D03*
D12*
X35890000Y9230000D03*
X35890000Y13630000D03*
D13*
X34290000Y13630000D03*
X34290000Y9230000D03*
D12*
X32690000Y9230000D03*
X32690000Y13630000D03*
D14*
X35890000Y10630000D03*
D12*
X35890000Y16850000D03*
X35890000Y21250000D03*
D13*
X34290000Y21250000D03*
X34290000Y16850000D03*
D12*
X32690000Y16850000D03*
X32690000Y21250000D03*
D14*
X35890000Y18250000D03*
D12*
X35890000Y24470000D03*
X35890000Y28870000D03*
D13*
X34290000Y28870000D03*
X34290000Y24470000D03*
D12*
X32690000Y24470000D03*
X32690000Y28870000D03*
D14*
X35890000Y25870000D03*
D12*
X35890000Y32090000D03*
X35890000Y36490000D03*
D13*
X34290000Y36490000D03*
X34290000Y32090000D03*
D12*
X32690000Y32090000D03*
X32690000Y36490000D03*
D14*
X35890000Y33490000D03*
D12*
X35890000Y47330000D03*
X35890000Y51730000D03*
D13*
X34290000Y51730000D03*
X34290000Y47330000D03*
D12*
X32690000Y47330000D03*
X32690000Y51730000D03*
D14*
X35890000Y48730000D03*
D12*
X35890000Y54950000D03*
X35890000Y59350000D03*
D13*
X34290000Y59350000D03*
X34290000Y54950000D03*
D12*
X32690000Y54950000D03*
X32690000Y59350000D03*
D14*
X35890000Y56350000D03*
D12*
X40310000Y59350000D03*
X40310000Y54950000D03*
D13*
X41910000Y54950000D03*
X41910000Y59350000D03*
D12*
X43510000Y59350000D03*
X43510000Y54950000D03*
D14*
X40310000Y57950000D03*
D12*
X40310000Y51730000D03*
X40310000Y47330000D03*
D13*
X41910000Y47330000D03*
X41910000Y51730000D03*
D12*
X43510000Y51730000D03*
X43510000Y47330000D03*
D14*
X40310000Y50330000D03*
D12*
X40310000Y36490000D03*
X40310000Y32090000D03*
D13*
X41910000Y32090000D03*
X41910000Y36490000D03*
D12*
X43510000Y36490000D03*
X43510000Y32090000D03*
D14*
X40310000Y35090000D03*
D12*
X40310000Y28870000D03*
X40310000Y24470000D03*
D13*
X41910000Y24470000D03*
X41910000Y28870000D03*
D12*
X43510000Y28870000D03*
X43510000Y24470000D03*
D14*
X40310000Y27470000D03*
D12*
X40310000Y21250000D03*
X40310000Y16850000D03*
D13*
X41910000Y16850000D03*
X41910000Y21250000D03*
D12*
X43510000Y21250000D03*
X43510000Y16850000D03*
D14*
X40310000Y19850000D03*
D12*
X40310000Y13630000D03*
X40310000Y9230000D03*
D13*
X41910000Y9230000D03*
X41910000Y13630000D03*
D12*
X43510000Y13630000D03*
X43510000Y9230000D03*
D14*
X40310000Y12230000D03*
D12*
X51130000Y9230000D03*
X51130000Y13630000D03*
D13*
X49530000Y13630000D03*
X49530000Y9230000D03*
D12*
X47930000Y9230000D03*
X47930000Y13630000D03*
D14*
X51130000Y10630000D03*
D12*
X51130000Y16850000D03*
X51130000Y21250000D03*
D13*
X49530000Y21250000D03*
X49530000Y16850000D03*
D12*
X47930000Y16850000D03*
X47930000Y21250000D03*
D14*
X51130000Y18250000D03*
D12*
X51130000Y24470000D03*
X51130000Y28870000D03*
D13*
X49530000Y28870000D03*
X49530000Y24470000D03*
D12*
X47930000Y24470000D03*
X47930000Y28870000D03*
D14*
X51130000Y25870000D03*
D12*
X51130000Y47330000D03*
X51130000Y51730000D03*
D13*
X49530000Y51730000D03*
X49530000Y47330000D03*
D12*
X47930000Y47330000D03*
X47930000Y51730000D03*
D14*
X51130000Y48730000D03*
D12*
X51130000Y54950000D03*
X51130000Y59350000D03*
D13*
X49530000Y59350000D03*
X49530000Y54950000D03*
D12*
X47930000Y54950000D03*
X47930000Y59350000D03*
D14*
X51130000Y56350000D03*
D12*
X55550000Y59350000D03*
X55550000Y54950000D03*
D13*
X57150000Y54950000D03*
X57150000Y59350000D03*
D12*
X58750000Y59350000D03*
X58750000Y54950000D03*
D14*
X55550000Y57950000D03*
D12*
X55550000Y51730000D03*
X55550000Y47330000D03*
D13*
X57150000Y47330000D03*
X57150000Y51730000D03*
D12*
X58750000Y51730000D03*
X58750000Y47330000D03*
D14*
X55550000Y50330000D03*
D12*
X55550000Y28870000D03*
X55550000Y24470000D03*
D13*
X57150000Y24470000D03*
X57150000Y28870000D03*
D12*
X58750000Y28870000D03*
X58750000Y24470000D03*
D14*
X55550000Y27470000D03*
D12*
X55550000Y21250000D03*
X55550000Y16850000D03*
D13*
X57150000Y16850000D03*
X57150000Y21250000D03*
D12*
X58750000Y21250000D03*
X58750000Y16850000D03*
D14*
X55550000Y19850000D03*
D12*
X55550000Y13630000D03*
X55550000Y9230000D03*
D13*
X57150000Y9230000D03*
X57150000Y13630000D03*
D12*
X58750000Y13630000D03*
X58750000Y9230000D03*
D14*
X55550000Y12230000D03*
M02*
