M48
INCH,TZ
T1C0.020
T2C0.040
T3C0.120
T4C0.020
T5C0.120
%
G90
G05
T1
X024000Y022000
X024000Y021500
X024000Y021000
X024000Y020500
X024000Y020000
X024000Y019500
X024000Y019000
X024000Y018500
X024000Y018000
X024000Y016000
X024000Y015500
X024000Y015000
X024000Y014500
X024000Y014000
X024000Y013500
X024000Y013000
X024000Y012500
X024000Y012000
X024000Y010000
X024000Y009500
X024000Y009000
X024000Y008500
X024000Y008000
X024000Y007500
X024000Y007000
X024000Y006500
X024000Y006000
X024000Y004000
X024000Y003500
X024000Y003000
X024000Y002500
X024000Y002000
X024000Y001500
X024000Y001000
X024000Y000500
X024000Y000000
X048000Y022000
X048000Y021500
X048000Y021000
X048000Y020500
X048000Y020000
X048000Y019500
X048000Y019000
X048000Y018500
X048000Y018000
X048000Y016000
X048000Y015500
X048000Y015000
X048000Y014500
X048000Y014000
X048000Y013500
X048000Y013000
X048000Y012500
X048000Y012000
X048000Y010000
X048000Y009500
X048000Y009000
X048000Y008500
X048000Y008000
X048000Y007500
X048000Y007000
X048000Y006500
X048000Y006000
X048000Y004000
X048000Y003500
X048000Y003000
X048000Y002500
X048000Y002000
X048000Y001500
X048000Y001000
X048000Y000500
X048000Y000000
X072000Y022000
X072000Y021500
X072000Y021000
X072000Y020500
X072000Y020000
X072000Y019500
X072000Y019000
X072000Y018500
X072000Y018000
X072000Y016000
X072000Y015500
X072000Y015000
X072000Y014500
X072000Y014000
X072000Y013500
X072000Y013000
X072000Y012500
X072000Y012000
X072000Y010000
X072000Y009500
X072000Y009000
X072000Y008500
X072000Y008000
X072000Y007500
X072000Y007000
X072000Y006500
X072000Y006000
X072000Y004000
X072000Y003500
X072000Y003000
X072000Y002500
X072000Y002000
X072000Y001500
X072000Y001000
X072000Y000500
X072000Y000000
T2
X059000Y018500
X059000Y017500
X059000Y016500
X059000Y015500
X059000Y014500
X059000Y013500
X059000Y012500
X059000Y011500
X059000Y010500
X059000Y009500
X059000Y008500
X059000Y007500
X059000Y006500
X059000Y005500
X059000Y004500
X059000Y003500
X067000Y014500
X067000Y013500
X067000Y012500
X067000Y011500
X067000Y010500
X067000Y009500
X067000Y008500
X067000Y007500
X067000Y006500
X067000Y005500
X067000Y004500
X067000Y003500
X070750Y018000
X070750Y017000
X070750Y016000
T3
X003000Y020000
X003000Y014000
X003000Y008000
X003000Y002000
X009000Y020000
X009000Y014000
X009000Y008000
X009000Y002000
X015000Y020000
X015000Y014000
X015000Y008000
X015000Y002000
X021000Y020000
X021000Y014000
X021000Y008000
X021000Y002000
X027000Y020000
X027000Y014000
X027000Y008000
X027000Y002000
X033000Y020000
X033000Y014000
X033000Y008000
X033000Y002000
X039000Y020000
X039000Y014000
X039000Y008000
X039000Y002000
X045000Y020000
X045000Y014000
X045000Y008000
X045000Y002000
X051000Y020000
X051000Y014000
X051000Y008000
X051000Y002000
X057000Y020000
X057000Y014000
X057000Y008000
X057000Y002000
X063000Y020000
X063000Y014000
X063000Y008000
X063000Y002000
X069000Y020000
X069000Y014000
X069000Y008000
X069000Y002000
X075000Y020000
X075000Y014000
X075000Y008000
X075000Y002000
T4
X002685Y017866
X002685Y017000
X002685Y016134
X002685Y011866
X002685Y011000
X002685Y010134
X002685Y005866
X002685Y005000
X002685Y004134
X003000Y017866
X003000Y017000
X003000Y016134
X003000Y011866
X003000Y011000
X003000Y010134
X003000Y005866
X003000Y005000
X003000Y004134
X003315Y017866
X003315Y017000
X003315Y016134
X003315Y011866
X003315Y011000
X003315Y010134
X003315Y005866
X003315Y005000
X003315Y004134
X011567Y014315
X011567Y014000
X011567Y013685
X011567Y008315
X011567Y008000
X011567Y007685
X012433Y014315
X012433Y014000
X012433Y013685
X012433Y008315
X012433Y008000
X012433Y007685
X020685Y017866
X020685Y017000
X020685Y016134
X020685Y011866
X020685Y011000
X020685Y010134
X020685Y005866
X020685Y005000
X020685Y004134
X021000Y017866
X021000Y017000
X021000Y016134
X021000Y011866
X021000Y011000
X021000Y010134
X021000Y005866
X021000Y005000
X021000Y004134
X021315Y017866
X021315Y017000
X021315Y016134
X021315Y011866
X021315Y011000
X021315Y010134
X021315Y005866
X021315Y005000
X021315Y004134
X026685Y017866
X026685Y017000
X026685Y016134
X026685Y011866
X026685Y011000
X026685Y010134
X026685Y005866
X026685Y005000
X026685Y004134
X027000Y017866
X027000Y017000
X027000Y016134
X027000Y011866
X027000Y011000
X027000Y010134
X027000Y005866
X027000Y005000
X027000Y004134
X027315Y017866
X027315Y017000
X027315Y016134
X027315Y011866
X027315Y011000
X027315Y010134
X027315Y005866
X027315Y005000
X027315Y004134
X035567Y014315
X035567Y014000
X035567Y013685
X035567Y008315
X035567Y008000
X035567Y007685
X036433Y014315
X036433Y014000
X036433Y013685
X036433Y008315
X036433Y008000
X036433Y007685
X044685Y017866
X044685Y017000
X044685Y016134
X044685Y011866
X044685Y011000
X044685Y010134
X044685Y005866
X044685Y005000
X044685Y004134
X045000Y017866
X045000Y017000
X045000Y016134
X045000Y011866
X045000Y011000
X045000Y010134
X045000Y005866
X045000Y005000
X045000Y004134
X045315Y017866
X045315Y017000
X045315Y016134
X045315Y011866
X045315Y011000
X045315Y010134
X045315Y005866
X045315Y005000
X045315Y004134
T5
X059500Y020000
X059500Y002000
X066500Y020000
X066500Y002000
T0
M30
