M48
INCH,TZ
T1C0.020
T2C0.040
T3C0.120
T4C0.020
T5C0.120
%
G90
G05
T1
X035000Y-010000
X035000Y-010500
X035000Y-011000
X035000Y-011500
X035000Y-012000
X035000Y-012500
X035000Y-013000
X035000Y-013500
X035000Y-014000
X035000Y-016000
X035000Y-016500
X035000Y-017000
X035000Y-017500
X035000Y-018000
X035000Y-018500
X035000Y-019000
X035000Y-019500
X035000Y-020000
X035000Y-022000
X035000Y-022500
X035000Y-023000
X035000Y-023500
X035000Y-024000
X035000Y-024500
X035000Y-025000
X035000Y-025500
X035000Y-026000
X035000Y-028000
X035000Y-028500
X035000Y-029000
X035000Y-029500
X035000Y-030000
X035000Y-030500
X035000Y-031000
X035000Y-031500
X035000Y-032000
X059000Y-010000
X059000Y-010500
X059000Y-011000
X059000Y-011500
X059000Y-012000
X059000Y-012500
X059000Y-013000
X059000Y-013500
X059000Y-014000
X059000Y-016000
X059000Y-016500
X059000Y-017000
X059000Y-017500
X059000Y-018000
X059000Y-018500
X059000Y-019000
X059000Y-019500
X059000Y-020000
X059000Y-022000
X059000Y-022500
X059000Y-023000
X059000Y-023500
X059000Y-024000
X059000Y-024500
X059000Y-025000
X059000Y-025500
X059000Y-026000
X059000Y-028000
X059000Y-028500
X059000Y-029000
X059000Y-029500
X059000Y-030000
X059000Y-030500
X059000Y-031000
X059000Y-031500
X059000Y-032000
X083000Y-010000
X083000Y-010500
X083000Y-011000
X083000Y-011500
X083000Y-012000
X083000Y-012500
X083000Y-013000
X083000Y-013500
X083000Y-014000
X083000Y-016000
X083000Y-016500
X083000Y-017000
X083000Y-017500
X083000Y-018000
X083000Y-018500
X083000Y-019000
X083000Y-019500
X083000Y-020000
X083000Y-022000
X083000Y-022500
X083000Y-023000
X083000Y-023500
X083000Y-024000
X083000Y-024500
X083000Y-025000
X083000Y-025500
X083000Y-026000
X083000Y-028000
X083000Y-028500
X083000Y-029000
X083000Y-029500
X083000Y-030000
X083000Y-030500
X083000Y-031000
X083000Y-031500
X083000Y-032000
T2
X070000Y-013500
X070000Y-014500
X070000Y-015500
X070000Y-016500
X070000Y-017500
X070000Y-018500
X070000Y-019500
X070000Y-020500
X070000Y-021500
X070000Y-022500
X070000Y-023500
X070000Y-024500
X070000Y-025500
X070000Y-026500
X070000Y-027500
X070000Y-028500
X078000Y-017500
X078000Y-018500
X078000Y-019500
X078000Y-020500
X078000Y-021500
X078000Y-022500
X078000Y-023500
X078000Y-024500
X078000Y-025500
X078000Y-026500
X078000Y-027500
X078000Y-028500
X081750Y-014000
X081750Y-015000
X081750Y-016000
T3
X014000Y-012000
X014000Y-018000
X014000Y-024000
X014000Y-030000
X020000Y-012000
X020000Y-018000
X020000Y-024000
X020000Y-030000
X026000Y-012000
X026000Y-018000
X026000Y-024000
X026000Y-030000
X032000Y-012000
X032000Y-018000
X032000Y-024000
X032000Y-030000
X038000Y-012000
X038000Y-018000
X038000Y-024000
X038000Y-030000
X044000Y-012000
X044000Y-018000
X044000Y-024000
X044000Y-030000
X050000Y-012000
X050000Y-018000
X050000Y-024000
X050000Y-030000
X056000Y-012000
X056000Y-018000
X056000Y-024000
X056000Y-030000
X062000Y-012000
X062000Y-018000
X062000Y-024000
X062000Y-030000
X068000Y-012000
X068000Y-018000
X068000Y-024000
X068000Y-030000
X074000Y-012000
X074000Y-018000
X074000Y-024000
X074000Y-030000
X080000Y-012000
X080000Y-018000
X080000Y-024000
X080000Y-030000
X086000Y-012000
X086000Y-018000
X086000Y-024000
X086000Y-030000
T4
X013685Y-014134
X013685Y-015000
X013685Y-015866
X013685Y-020134
X013685Y-021000
X013685Y-021866
X013685Y-026134
X013685Y-027000
X013685Y-027866
X014000Y-014134
X014000Y-015000
X014000Y-015866
X014000Y-020134
X014000Y-021000
X014000Y-021866
X014000Y-026134
X014000Y-027000
X014000Y-027866
X014315Y-014134
X014315Y-015000
X014315Y-015866
X014315Y-020134
X014315Y-021000
X014315Y-021866
X014315Y-026134
X014315Y-027000
X014315Y-027866
X022567Y-017685
X022567Y-018000
X022567Y-018315
X022567Y-023685
X022567Y-024000
X022567Y-024315
X023433Y-017685
X023433Y-018000
X023433Y-018315
X023433Y-023685
X023433Y-024000
X023433Y-024315
X031685Y-014134
X031685Y-015000
X031685Y-015866
X031685Y-020134
X031685Y-021000
X031685Y-021866
X031685Y-026134
X031685Y-027000
X031685Y-027866
X032000Y-014134
X032000Y-015000
X032000Y-015866
X032000Y-020134
X032000Y-021000
X032000Y-021866
X032000Y-026134
X032000Y-027000
X032000Y-027866
X032315Y-014134
X032315Y-015000
X032315Y-015866
X032315Y-020134
X032315Y-021000
X032315Y-021866
X032315Y-026134
X032315Y-027000
X032315Y-027866
X037685Y-014134
X037685Y-015000
X037685Y-015866
X037685Y-020134
X037685Y-021000
X037685Y-021866
X037685Y-026134
X037685Y-027000
X037685Y-027866
X038000Y-014134
X038000Y-015000
X038000Y-015866
X038000Y-020134
X038000Y-021000
X038000Y-021866
X038000Y-026134
X038000Y-027000
X038000Y-027866
X038315Y-014134
X038315Y-015000
X038315Y-015866
X038315Y-020134
X038315Y-021000
X038315Y-021866
X038315Y-026134
X038315Y-027000
X038315Y-027866
X046567Y-017685
X046567Y-018000
X046567Y-018315
X046567Y-023685
X046567Y-024000
X046567Y-024315
X047433Y-017685
X047433Y-018000
X047433Y-018315
X047433Y-023685
X047433Y-024000
X047433Y-024315
X055685Y-014134
X055685Y-015000
X055685Y-015866
X055685Y-020134
X055685Y-021000
X055685Y-021866
X055685Y-026134
X055685Y-027000
X055685Y-027866
X056000Y-014134
X056000Y-015000
X056000Y-015866
X056000Y-020134
X056000Y-021000
X056000Y-021866
X056000Y-026134
X056000Y-027000
X056000Y-027866
X056315Y-014134
X056315Y-015000
X056315Y-015866
X056315Y-020134
X056315Y-021000
X056315Y-021866
X056315Y-026134
X056315Y-027000
X056315Y-027866
T5
X070500Y-012000
X070500Y-030000
X077500Y-012000
X077500Y-030000
T0
M30
