<?xml version="1.0"?>
<!DOCTYPE svg PUBLIC "-//W3C//DTD SVG 1.1//EN" "http://www.w3.org/Graphics/SVG/1.1/DTD/svg11.dtd">
<svg width="182.88mm" height="60.96mm" viewBox="-121.920000 -30.480000 182.880000 60.960000" xmlns="http://www.w3.org/2000/svg" version="1.1">
<g id="Pad001" transform="scale(1,-1)">
<path id="Pad001_f0000"  d="M -120.015 30.48 L -120.015 30.48 L -62.865 30.48 L -62.865 30.48 L -120.015 30.48 Z " stroke="#191919" stroke-width="0.35 px" style="stroke-width:0.35;stroke-miterlimit:4;stroke-dasharray:none;fill:#550000;fill-rule: evenodd "/>
<path id="Pad001_f0001"  d="M -62.865 30.48 L -62.865 30.48 A 1.905 1.905 0 0 1 -59.055 30.48 L -59.055 30.48 A 1.905 1.905 0 0 0 -62.865 30.48 Z " stroke="#191919" stroke-width="0.35 px" style="stroke-width:0.35;stroke-miterlimit:4;stroke-dasharray:none;fill:#550000;fill-rule: evenodd "/>
<path id="Pad001_f0002"  d="M -59.055 30.48 L -59.055 30.48 L -1.905 30.48 L -1.905 30.48 L -59.055 30.48 Z " stroke="#191919" stroke-width="0.35 px" style="stroke-width:0.35;stroke-miterlimit:4;stroke-dasharray:none;fill:#550000;fill-rule: evenodd "/>
<path id="Pad001_f0003"  d="M -1.905 30.48 L -1.905 30.48 A 1.905 1.905 0 0 1 1.905 30.48 L 1.905 30.48 A 1.905 1.905 0 0 0 -1.905 30.48 Z " stroke="#191919" stroke-width="0.35 px" style="stroke-width:0.35;stroke-miterlimit:4;stroke-dasharray:none;fill:#550000;fill-rule: evenodd "/>
<path id="Pad001_f0004"  d="M 1.905 30.48 L 1.905 30.48 L 59.055 30.48 L 59.055 30.48 L 1.905 30.48 Z " stroke="#191919" stroke-width="0.35 px" style="stroke-width:0.35;stroke-miterlimit:4;stroke-dasharray:none;fill:#550000;fill-rule: evenodd "/>
<path id="Pad001_f0005"  d="M 59.055 30.48 L 59.055 30.48 A 1.905 1.905 0 0 1 60.96 28.575 L 60.96 28.575 A 1.905 1.905 0 0 0 59.055 30.48 Z " stroke="#191919" stroke-width="0.35 px" style="stroke-width:0.35;stroke-miterlimit:4;stroke-dasharray:none;fill:#550000;fill-rule: evenodd "/>
<path id="Pad001_f0006"  d="M 60.96 28.575 L 60.96 28.575 L 60.96 -28.575 L 60.96 -28.575 L 60.96 28.575 Z " stroke="#191919" stroke-width="0.35 px" style="stroke-width:0.35;stroke-miterlimit:4;stroke-dasharray:none;fill:#550000;fill-rule: evenodd "/>
<path id="Pad001_f0007"  d="M 60.96 -28.575 L 60.96 -28.575 A 1.905 1.905 0 0 1 59.055 -30.48 L 59.055 -30.48 A 1.905 1.905 0 0 0 60.96 -28.575 Z " stroke="#191919" stroke-width="0.35 px" style="stroke-width:0.35;stroke-miterlimit:4;stroke-dasharray:none;fill:#550000;fill-rule: evenodd "/>
<path id="Pad001_f0008"  d="M 59.055 -30.48 L 59.055 -30.48 L 1.90500000001 -30.48 L 1.90500000001 -30.48 L 59.055 -30.48 Z " stroke="#191919" stroke-width="0.35 px" style="stroke-width:0.35;stroke-miterlimit:4;stroke-dasharray:none;fill:#550000;fill-rule: evenodd "/>
<path id="Pad001_f0009"  d="M 1.90500000001 -30.48 L 1.90500000001 -30.48 A 1.905 1.905 0 0 1 -1.90499999999 -30.48 L -1.90499999999 -30.48 A 1.905 1.905 0 0 0 1.90500000001 -30.48 Z " stroke="#191919" stroke-width="0.35 px" style="stroke-width:0.35;stroke-miterlimit:4;stroke-dasharray:none;fill:#550000;fill-rule: evenodd "/>
<path id="Pad001_f0010"  d="M -1.90499999999 -30.48 L -1.90499999999 -30.48 L -59.055 -30.48 L -59.055 -30.48 L -1.90499999999 -30.48 Z " stroke="#191919" stroke-width="0.35 px" style="stroke-width:0.35;stroke-miterlimit:4;stroke-dasharray:none;fill:#550000;fill-rule: evenodd "/>
<path id="Pad001_f0011"  d="M -59.055 -30.48 L -59.055 -30.48 A 1.905 1.905 0 1 1 -62.865 -30.48 L -62.865 -30.48 A 1.905 1.905 0 1 0 -59.055 -30.48 Z " stroke="#191919" stroke-width="0.35 px" style="stroke-width:0.35;stroke-miterlimit:4;stroke-dasharray:none;fill:#550000;fill-rule: evenodd "/>
<path id="Pad001_f0012"  d="M -62.865 -30.48 L -62.865 -30.48 L -120.015 -30.48 L -120.015 -30.48 L -62.865 -30.48 Z " stroke="#191919" stroke-width="0.35 px" style="stroke-width:0.35;stroke-miterlimit:4;stroke-dasharray:none;fill:#550000;fill-rule: evenodd "/>
<path id="Pad001_f0013"  d="M -120.015 -30.48 L -120.015 -30.48 A 1.905 1.905 0 0 1 -121.92 -28.575 L -121.92 -28.575 A 1.905 1.905 0 0 0 -120.015 -30.48 Z " stroke="#191919" stroke-width="0.35 px" style="stroke-width:0.35;stroke-miterlimit:4;stroke-dasharray:none;fill:#550000;fill-rule: evenodd "/>
<path id="Pad001_f0014"  d="M -121.92 -28.575 L -121.92 -28.575 L -121.92 28.575 L -121.92 28.575 L -121.92 -28.575 Z " stroke="#191919" stroke-width="0.35 px" style="stroke-width:0.35;stroke-miterlimit:4;stroke-dasharray:none;fill:#550000;fill-rule: evenodd "/>
<path id="Pad001_f0015"  d="M -121.92 28.575 L -121.92 28.575 A 1.905 1.905 0 0 1 -120.015 30.48 L -120.015 30.48 A 1.905 1.905 0 0 0 -121.92 28.575 Z " stroke="#191919" stroke-width="0.35 px" style="stroke-width:0.35;stroke-miterlimit:4;stroke-dasharray:none;fill:#550000;fill-rule: evenodd "/>
<path id="Pad001_f0016"  d="M -120.015 30.48 L -62.865 30.48 A 1.905 1.905 0 0 1 -59.055 30.48 L -1.905 30.48 A 1.905 1.905 0 0 1 1.905 30.48 L 59.055 30.48 A 1.905 1.905 0 0 1 60.96 28.575 L 60.96 -28.575 A 1.905 1.905 0 0 1 59.055 -30.48 L 1.90500000001 -30.48 A 1.905 1.905 0 0 1 -1.90499999999 -30.48 L -59.055 -30.48 A 1.905 1.905 0 1 1 -62.865 -30.48 L -120.015 -30.48 A 1.905 1.905 0 0 1 -121.92 -28.575 L -121.92 28.575 A 1.905 1.905 0 0 1 -120.015 30.48 Z " stroke="#191919" stroke-width="0.35 px" style="stroke-width:0.35;stroke-miterlimit:4;stroke-dasharray:none;fill:#550000;fill-rule: evenodd "/>
<path id="Pad001_f0017"  d="M -62.865 30.48 A 1.905 1.905 0 0 1 -59.055 30.48 L -1.905 30.48 A 1.905 1.905 0 0 1 1.905 30.48 L 59.055 30.48 A 1.905 1.905 0 0 1 60.96 28.575 L 60.96 -28.575 A 1.905 1.905 0 0 1 59.055 -30.48 L 1.90500000001 -30.48 A 1.905 1.905 0 0 1 -1.90499999999 -30.48 L -59.055 -30.48 A 1.905 1.905 0 1 1 -62.865 -30.48 L -120.015 -30.48 A 1.905 1.905 0 0 1 -121.92 -28.575 L -121.92 28.575 A 1.905 1.905 0 0 1 -120.015 30.48 L -62.865 30.48 Z " stroke="#191919" stroke-width="0.35 px" style="stroke-width:0.35;stroke-miterlimit:4;stroke-dasharray:none;fill:#550000;fill-rule: evenodd "/>
<title>front_acrylic</title>
</g>
</svg>