<?xml version="1.0" standalone="no"?>
 <!DOCTYPE svg PUBLIC "-//W3C//DTD SVG 1.1//EN" 
 "http://www.w3.org/Graphics/SVG/1.1/DTD/svg11.dtd"> 
<svg xmlns="http://www.w3.org/2000/svg" version="1.1" 
    width="8.14578cm" height="7.65556cm" viewBox="0 0 32070 30140 ">
<title>SVG Picture created as ultim8x8-brd.svg date 2016/12/31 16:48:27 </title>
  <desc>Picture generated by PCBNEW </desc>
<g style="fill:#000000; fill-opacity:1;stroke:#000000; stroke-opacity:1;
stroke-linecap:round; stroke-linejoin:round; "
 transform="translate(0 0) scale(1 1)">
</g>
<g style="fill:#000000; fill-opacity:0.0; 
stroke:#000000; stroke-width:-0.000393701; stroke-opacity:1; 
stroke-linecap:round; stroke-linejoin:round;">
</g>
<g style="fill:#000000; fill-opacity:0.0; 
stroke:#000000; stroke-width:75; stroke-opacity:1; 
stroke-linecap:round; stroke-linejoin:round;">
<path d="M15684 6894
L15669 6856
L15669 6799
L15684 6742
L15712 6704
L15741 6685
L15798 6666
L15841 6666
L15898 6685
L15926 6704
L15955 6742
L15969 6799
L15969 6837
L15955 6894
L15941 6914
L15841 6914
L15841 6837
" />
<path d="M15969 7085
L15669 7085
L15969 7314
L15669 7314
" />
<path d="M15969 7504
L15669 7504
L15669 7599
L15684 7656
L15712 7694
L15741 7714
L15798 7733
L15841 7733
L15898 7714
L15926 7694
L15955 7656
L15969 7599
L15969 7504
" />
<path d="M16905 6685
L16905 6990
" />
<path d="M17019 6837
L16791 6837
" />
<path d="M16719 7371
L16719 7180
L16862 7161
L16848 7180
L16834 7218
L16834 7314
L16848 7352
L16862 7371
L16891 7390
L16962 7390
L16991 7371
L17005 7352
L17019 7314
L17019 7218
L17005 7180
L16991 7161
" />
<path d="M16719 7504
L17019 7637
L16719 7771
" />
<path d="M15969 10101
L15669 10101
L15669 10197
L15684 10254
L15712 10292
L15741 10311
L15798 10330
L15841 10330
L15898 10311
L15926 10292
L15955 10254
L15969 10197
L15969 10101
" />
<path d="M15669 10578
L15669 10654
L15684 10692
L15712 10730
L15769 10749
L15869 10749
L15926 10730
L15955 10692
L15969 10654
L15969 10578
L15955 10540
L15926 10501
L15869 10482
L15769 10482
L15712 10501
L15684 10540
L15669 10578
" />
<path d="M15998 10825
L15998 11130
" />
<path d="M15969 11225
L15669 11225
" />
<path d="M15812 11225
L15812 11454
" />
<path d="M15969 11454
L15669 11454
" />
<path d="M16991 10330
L17005 10311
L17019 10254
L17019 10216
L17005 10159
L16976 10121
L16948 10101
L16891 10082
L16848 10082
L16791 10101
L16762 10121
L16734 10159
L16719 10216
L16719 10254
L16734 10311
L16748 10330
" />
<path d="M16719 10578
L16719 10654
L16734 10692
L16762 10730
L16819 10749
L16919 10749
L16976 10730
L17005 10692
L17019 10654
L17019 10578
L17005 10540
L16976 10501
L16919 10482
L16819 10482
L16762 10501
L16734 10540
L16719 10578
" />
<path d="M17048 10825
L17048 11130
" />
<path d="M17019 11225
L16719 11225
" />
<path d="M16862 11225
L16862 11454
" />
<path d="M17019 11454
L16719 11454
" />
<path d="M15969 18666
L15669 18666
L15669 18761
L15684 18818
L15712 18856
L15741 18875
L15798 18894
L15841 18894
L15898 18875
L15926 18856
L15955 18818
L15969 18761
L15969 18666
" />
<path d="M15969 19066
L15669 19066
" />
<path d="M15998 19161
L15998 19466
" />
<path d="M15884 19542
L15884 19733
" />
<path d="M15969 19504
L15669 19637
L15969 19771
" />
<path d="M16991 18894
L17005 18875
L17019 18818
L17019 18780
L17005 18723
L16976 18685
L16948 18666
L16891 18647
L16848 18647
L16791 18666
L16762 18685
L16734 18723
L16719 18780
L16719 18818
L16734 18875
L16748 18894
" />
<path d="M17019 19066
L16719 19066
" />
<path d="M17048 19161
L17048 19466
" />
<path d="M16934 19542
L16934 19733
" />
<path d="M17019 19504
L16719 19637
L17019 19771
" />
<path d="M15684 22311
L15669 22273
L15669 22216
L15684 22159
L15712 22121
L15741 22101
L15798 22082
L15841 22082
L15898 22101
L15926 22121
L15955 22159
L15969 22216
L15969 22254
L15955 22311
L15941 22330
L15841 22330
L15841 22254
" />
<path d="M15969 22501
L15669 22501
L15969 22730
L15669 22730
" />
<path d="M15969 22921
L15669 22921
L15669 23016
L15684 23073
L15712 23111
L15741 23130
L15798 23149
L15841 23149
L15898 23130
L15926 23111
L15955 23073
L15969 23016
L15969 22921
" />
<path d="M16905 22101
L16905 22406
" />
<path d="M17019 22254
L16791 22254
" />
<path d="M16719 22787
L16719 22597
L16862 22578
L16848 22597
L16834 22635
L16834 22730
L16848 22768
L16862 22787
L16891 22806
L16962 22806
L16991 22787
L17005 22768
L17019 22730
L17019 22635
L17005 22597
L16991 22578
" />
<path d="M16719 22921
L17019 23054
L16719 23187
" />
<path d="M24581 14404
L24276 14404
" />
<path d="M24429 14518
L24429 14290
" />
<path d="M23895 14218
L24086 14218
L24105 14361
L24086 14347
L24048 14333
L23953 14333
L23914 14347
L23895 14361
L23876 14390
L23876 14461
L23895 14490
L23914 14504
L23953 14518
L24048 14518
L24086 14504
L24105 14490
" />
<path d="M23762 14218
L23629 14518
L23495 14218
" />
<path d="M24372 15283
L24410 15268
L24467 15268
L24524 15283
L24562 15311
L24581 15340
L24600 15397
L24600 15440
L24581 15497
L24562 15525
L24524 15554
L24467 15568
L24429 15568
L24372 15554
L24353 15540
L24353 15440
L24429 15440
" />
<path d="M24181 15568
L24181 15268
L23953 15568
L23953 15268
" />
<path d="M23762 15568
L23762 15268
L23667 15268
L23610 15283
L23572 15311
L23553 15340
L23533 15397
L23533 15440
L23553 15497
L23572 15525
L23610 15554
L23667 15568
L23762 15568
" />
<path d="M9165 14404
L8860 14404
" />
<path d="M9012 14518
L9012 14290
" />
<path d="M8479 14218
L8669 14218
L8688 14361
L8669 14347
L8631 14333
L8536 14333
L8498 14347
L8479 14361
L8460 14390
L8460 14461
L8479 14490
L8498 14504
L8536 14518
L8631 14518
L8669 14504
L8688 14490
" />
<path d="M8346 14218
L8212 14518
L8079 14218
" />
<path d="M8955 15283
L8993 15268
L9050 15268
L9107 15283
L9146 15311
L9165 15340
L9184 15397
L9184 15440
L9165 15497
L9146 15525
L9107 15554
L9050 15568
L9012 15568
L8955 15554
L8936 15540
L8936 15440
L9012 15440
" />
<path d="M8765 15568
L8765 15268
L8536 15568
L8536 15268
" />
<path d="M8346 15568
L8346 15268
L8250 15268
L8193 15283
L8155 15311
L8136 15340
L8117 15397
L8117 15440
L8136 15497
L8155 15525
L8193 15554
L8250 15568
L8346 15568
" />
</g>
<g style="fill:#000000; fill-opacity:0.0; 
stroke:#000000; stroke-width:100; stroke-opacity:1; 
stroke-linecap:round; stroke-linejoin:round;">
<path d="M6359 9908
L6359 7908
" />
<path d="M14359 9908
L6359 9908
" />
<path d="M14359 7908
L14359 9908
" />
<path d="M6359 7908
L14359 7908
" />
</g>
<g style="fill:#000000; fill-opacity:0.0; 
stroke:#000000; stroke-width:120; stroke-opacity:1; 
stroke-linecap:round; stroke-linejoin:round;">
<path d="M18987 23759
L18873 24159
L18759 23873
L18644 24159
L18530 23759
" />
<path d="M18359 23759
L18216 24159
" />
<path d="M18073 23759
L18216 24159
L18273 24302
L18301 24330
L18359 24359
" />
<path d="M17759 24159
L17816 24130
L17844 24102
L17873 24045
L17873 23873
L17844 23816
L17816 23788
L17759 23759
L17673 23759
L17616 23788
L17587 23816
L17559 23873
L17559 24045
L17587 24102
L17616 24130
L17673 24159
L17759 24159
" />
<path d="M17216 24159
L17273 24130
L17301 24073
L17301 23559
" />
<path d="M16730 23759
L16730 24159
" />
<path d="M16987 23759
L16987 24073
L16959 24130
L16901 24159
L16816 24159
L16759 24130
L16730 24102
" />
<path d="M16444 24159
L16444 23759
" />
<path d="M16444 23816
L16416 23788
L16359 23759
L16273 23759
L16216 23788
L16187 23845
L16187 24159
" />
<path d="M16187 23845
L16159 23788
L16101 23759
L16016 23759
L15959 23788
L15930 23845
L15930 24159
" />
<path d="M15644 24102
L15616 24130
L15644 24159
L15673 24130
L15644 24102
L15644 24159
" />
<path d="M15101 24130
L15159 24159
L15273 24159
L15330 24130
L15359 24102
L15387 24045
L15387 23873
L15359 23816
L15330 23788
L15273 23759
L15159 23759
L15101 23788
" />
<path d="M14759 24159
L14816 24130
L14844 24102
L14873 24045
L14873 23873
L14844 23816
L14816 23788
L14759 23759
L14673 23759
L14616 23788
L14587 23816
L14559 23873
L14559 24045
L14587 24102
L14616 24130
L14673 24159
L14759 24159
" />
<path d="M14301 24159
L14301 23759
" />
<path d="M14301 23816
L14273 23788
L14216 23759
L14130 23759
L14073 23788
L14044 23845
L14044 24159
" />
<path d="M14044 23845
L14016 23788
L13959 23759
L13873 23759
L13816 23788
L13787 23845
L13787 24159
" />
<path d="M20273 26199
L20273 25799
" />
<path d="M20273 25856
L20244 25828
L20187 25799
L20101 25799
L20044 25828
L20016 25885
L20016 26199
" />
<path d="M20016 25885
L19987 25828
L19930 25799
L19844 25799
L19787 25828
L19759 25885
L19759 26199
" />
<path d="M19216 26199
L19216 25885
L19244 25828
L19301 25799
L19416 25799
L19473 25828
" />
<path d="M19216 26170
L19273 26199
L19416 26199
L19473 26170
L19501 26113
L19501 26056
L19473 25999
L19416 25970
L19273 25970
L19216 25942
" />
<path d="M18930 25799
L18930 26199
" />
<path d="M18930 25856
L18901 25828
L18844 25799
L18759 25799
L18701 25828
L18673 25885
L18673 26199
" />
<path d="M18387 26199
L18387 25799
" />
<path d="M18387 25599
L18416 25628
L18387 25656
L18359 25628
L18387 25599
L18387 25656
" />
<path d="M17844 26199
L17844 25885
L17873 25828
L17930 25799
L18044 25799
L18101 25828
" />
<path d="M17844 26170
L17901 26199
L18044 26199
L18101 26170
L18130 26113
L18130 26056
L18101 25999
L18044 25970
L17901 25970
L17844 25942
" />
<path d="M17301 26170
L17359 26199
L17473 26199
L17530 26170
L17559 26142
L17587 26085
L17587 25913
L17559 25856
L17530 25828
L17473 25799
L17359 25799
L17301 25828
" />
<path d="M16787 26199
L16787 25885
L16816 25828
L16873 25799
L16987 25799
L17044 25828
" />
<path d="M16787 26170
L16844 26199
L16987 26199
L17044 26170
L17073 26113
L17073 26056
L17044 25999
L16987 25970
L16844 25970
L16787 25942
" />
<path d="M16416 26199
L16473 26170
L16501 26113
L16501 25599
" />
<path d="M16101 26199
L16159 26170
L16187 26113
L16187 25599
" />
<path d="M15616 26199
L15616 25885
L15644 25828
L15701 25799
L15816 25799
L15873 25828
" />
<path d="M15616 26170
L15673 26199
L15816 26199
L15873 26170
L15901 26113
L15901 26056
L15873 25999
L15816 25970
L15673 25970
L15616 25942
" />
<path d="M15330 26199
L15330 25599
" />
<path d="M15330 25828
L15273 25799
L15159 25799
L15101 25828
L15073 25856
L15044 25913
L15044 26085
L15073 26142
L15101 26170
L15159 26199
L15273 26199
L15330 26170
" />
<path d="M14816 26170
L14759 26199
L14644 26199
L14587 26170
L14559 26113
L14559 26085
L14587 26028
L14644 25999
L14730 25999
L14787 25970
L14816 25913
L14816 25885
L14787 25828
L14730 25799
L14644 25799
L14587 25828
" />
<path d="M14301 26142
L14273 26170
L14301 26199
L14330 26170
L14301 26142
L14301 26199
" />
<path d="M13759 26170
L13816 26199
L13930 26199
L13987 26170
L14016 26142
L14044 26085
L14044 25913
L14016 25856
L13987 25828
L13930 25799
L13816 25799
L13759 25828
" />
<path d="M13416 26199
L13473 26170
L13501 26142
L13530 26085
L13530 25913
L13501 25856
L13473 25828
L13416 25799
L13330 25799
L13273 25828
L13244 25856
L13216 25913
L13216 26085
L13244 26142
L13273 26170
L13330 26199
L13416 26199
" />
<path d="M12959 26199
L12959 25799
" />
<path d="M12959 25856
L12930 25828
L12873 25799
L12787 25799
L12730 25828
L12701 25885
L12701 26199
" />
<path d="M12701 25885
L12673 25828
L12616 25799
L12530 25799
L12473 25828
L12444 25885
L12444 26199
" />
</g>
<g style="fill:#000000; fill-opacity:0.0; 
stroke:#000000; stroke-width:75; stroke-opacity:1; 
stroke-linecap:round; stroke-linejoin:round;">
<path d="M20936 14490
L20955 14504
L21012 14518
L21050 14518
L21107 14504
L21146 14475
L21165 14447
L21184 14390
L21184 14347
L21165 14290
L21146 14261
L21107 14233
L21050 14218
L21012 14218
L20955 14233
L20936 14247
" />
<path d="M20688 14218
L20612 14218
L20574 14233
L20536 14261
L20517 14318
L20517 14418
L20536 14475
L20574 14504
L20612 14518
L20688 14518
L20726 14504
L20765 14475
L20784 14418
L20784 14318
L20765 14261
L20726 14233
L20688 14218
" />
<path d="M20441 14547
L20136 14547
" />
<path d="M20041 14518
L20041 14218
" />
<path d="M20041 14361
L19812 14361
" />
<path d="M19812 14518
L19812 14218
" />
<path d="M21165 15568
L21165 15268
L21069 15268
L21012 15283
L20974 15311
L20955 15340
L20936 15397
L20936 15440
L20955 15497
L20974 15525
L21012 15554
L21069 15568
L21165 15568
" />
<path d="M20688 15268
L20612 15268
L20574 15283
L20536 15311
L20517 15368
L20517 15468
L20536 15525
L20574 15554
L20612 15568
L20688 15568
L20726 15554
L20765 15525
L20784 15468
L20784 15368
L20765 15311
L20726 15283
L20688 15268
" />
<path d="M20441 15597
L20136 15597
" />
<path d="M20041 15568
L20041 15268
" />
<path d="M20041 15411
L19812 15411
" />
<path d="M19812 15568
L19812 15268
" />
<path d="M12372 14490
L12391 14504
L12448 14518
L12486 14518
L12543 14504
L12581 14475
L12600 14447
L12619 14390
L12619 14347
L12600 14290
L12581 14261
L12543 14233
L12486 14218
L12448 14218
L12391 14233
L12372 14247
" />
<path d="M12200 14518
L12200 14218
" />
<path d="M12105 14547
L11800 14547
" />
<path d="M11724 14433
L11533 14433
" />
<path d="M11762 14518
L11629 14218
L11495 14518
" />
<path d="M12600 15568
L12600 15268
L12505 15268
L12448 15283
L12410 15311
L12391 15340
L12372 15397
L12372 15440
L12391 15497
L12410 15525
L12448 15554
L12505 15568
L12600 15568
" />
<path d="M12200 15568
L12200 15268
" />
<path d="M12105 15597
L11800 15597
" />
<path d="M11724 15483
L11533 15483
" />
<path d="M11762 15568
L11629 15268
L11495 15568
" />
</g>
<g style="fill:#000000; fill-opacity:0.0; 
stroke:#000000; stroke-width:100; stroke-opacity:1; 
stroke-linecap:round; stroke-linejoin:round;">
<path d="M19159 20808
L19159 21008
" />
<path d="M19559 21008
L19559 20808
" />
<path d="M13159 20808
L13159 21008
" />
<path d="M13559 21008
L13559 20808
" />
</g>
<g style="fill:#000000; fill-opacity:1.0; 
stroke:#000000; stroke-width:3.93701; stroke-opacity:1; 
stroke-linecap:round; stroke-linejoin:round;">
<polyline style="fill-rule:evenodd;"
points="16121,12973
15906,12973
15710,12973
15532,12973
15370,12973
15225,12973
15094,12974
14978,12974
14876,12975
14787,12975
14710,12976
14645,12977
14590,12977
14544,12978
14508,12979
14480,12981
14460,12982
14446,12983
14438,12985
14435,12986
14433,12989
14431,12994
14430,13003
14428,13015
14427,13033
14425,13056
14424,13086
14423,13124
14423,13170
14422,13225
14421,13290
14421,13366
14420,13453
14420,13553
14419,13666
14419,13794
14419,13936
14419,14094
14419,14269
14419,14461
14419,14672
14419,14902
14419,14912
14419,15153
14419,15375
14419,15578
14419,15763
14419,15931
14420,16083
14420,16218
14421,16337
14421,16443
14422,16534
14423,16611
14424,16676
14425,16729
14426,16770
14427,16801
14428,16822
14430,16833
14431,16836
14436,16837
14451,16838
14476,16840
14511,16841
14557,16842
14614,16843
14684,16844
14767,16844
14864,16845
14975,16846
15100,16846
15242,16847
15400,16847
15574,16847
15767,16847
15977,16847
16207,16847
16354,16848
16585,16847
16796,16847
16989,16847
17165,16847
17324,16847
17467,16847
17595,16847
17708,16846
17809,16846
17897,16846
17973,16845
18039,16844
18094,16844
18140,16843
18178,16842
18209,16841
18232,16839
18250,16838
18263,16837
18272,16835
18277,16833
18280,16831
18280,16831
18282,16826
18283,16817
18284,16801
18286,16778
18287,16747
18288,16708
18289,16660
18290,16601
18290,16532
18291,16452
18292,16358
18292,16252
18293,16132
18293,16110
17307,16110
17291,16169
17259,16220
17212,16262
17157,16288
17099,16302
17032,16307
16964,16303
16913,16293
16885,16281
16655,16281
16647,16285
16626,16286
16589,16286
16578,16285
16495,16283
16449,16206
16426,16168
16404,16133
16387,16108
16383,16103
16362,16075
16327,16124
16302,16160
16275,16203
16258,16230
16224,16288
16141,16288
16103,16287
16075,16284
16060,16281
16059,16280
16064,16267
16078,16241
16099,16205
16124,16165
16151,16122
16179,16081
16179,16079
15972,16079
15966,16141
15943,16198
15920,16231
15898,16249
15864,16269
15826,16288
15799,16298
15769,16303
15727,16306
15679,16306
15634,16304
15597,16299
15587,16297
15524,16271
15474,16232
15437,16183
15416,16127
15410,16067
15423,16006
15433,15984
15449,15954
15469,15929
15496,15904
15535,15873
15537,15872
15532,15864
15517,15846
15500,15829
15460,15777
15438,15720
15431,15660
15441,15603
15467,15549
15507,15505
15540,15482
15568,15468
15592,15459
15619,15455
15655,15453
15689,15453
15747,15454
15792,15462
15829,15476
15863,15499
15882,15516
15921,15565
15945,15622
15953,15682
15946,15742
15923,15797
15898,15830
15859,15871
15895,15906
15936,15958
15962,16017
15972,16079
16179,16079
16203,16045
16211,16035
16261,15967
16165,15822
16133,15775
16106,15733
16085,15701
16072,15679
16069,15673
16078,15670
16102,15668
16137,15668
16149,15668
16229,15668
16290,15763
16314,15800
16334,15831
16348,15851
16354,15858
16360,15850
16376,15829
16399,15798
16424,15763
16492,15668
16575,15668
16606,15667
16629,15667
16643,15671
16648,15679
16643,15694
16628,15718
16603,15753
16567,15802
16544,15833
16512,15877
16485,15915
16464,15945
16451,15964
16449,15969
16454,15979
16469,16000
16480,16014
16498,16038
16523,16072
16551,16113
16580,16155
16608,16197
16631,16233
16648,16260
16655,16273
16655,16281
16885,16281
16849,16265
16801,16224
16767,16171
16751,16107
16749,16075
16756,16012
16780,15959
16821,15913
16834,15902
16875,15871
16834,15826
16797,15772
16775,15714
16769,15654
16778,15597
16802,15545
16842,15503
16842,15503
16900,15471
16967,15453
17038,15448
17108,15458
17171,15482
17205,15503
17241,15542
17269,15593
17285,15650
17288,15685
17282,15746
17260,15797
17226,15838
17192,15871
17227,15902
17252,15930
17276,15965
17285,15982
17305,16047
17307,16110
18293,16110
18293,15997
18293,15846
18293,15679
18293,15495
18293,15293
18294,15072
18294,14911
18294,14682
18294,14472
18293,14280
18293,14105
18293,13947
18293,13805
18293,13678
18293,13565
18292,13465
18292,13378
18291,13302
18291,13237
18290,13182
18289,13136
18288,13098
18287,13078
18189,13078
18189,14858
14519,14858
14519,13078
18189,13078
18287,13078
18287,13068
18286,13044
18284,13025
18283,13012
18281,13003
18279,12996
18277,12992
18276,12990
18273,12988
18268,12986
18261,12984
18251,12983
18236,12981
18217,12980
18191,12979
18159,12978
18119,12977
18070,12976
18013,12975
17945,12975
17866,12974
17776,12974
17673,12973
17556,12973
17425,12973
17279,12973
17117,12973
16938,12973
16741,12973
16526,12973
16355,12973
16121,12973
" /> 
<polyline style="fill-rule:evenodd;"
points="17024,15947
16966,15976
16926,16010
16903,16046
16899,16072
16908,16111
16934,16143
16977,16164
16985,16167
17014,16174
17035,16176
17057,16172
17074,16167
17113,16148
17142,16118
17155,16091
17155,16055
17144,16013
17123,15972
17109,15955
17082,15924
17024,15947
" /> 
<polyline style="fill-rule:evenodd;"
points="16993,15590
16969,15599
16948,15617
16926,15647
16919,15680
16929,15721
16934,15735
16956,15777
16980,15801
17008,15806
17044,15793
17071,15778
17109,15746
17131,15709
17136,15672
17127,15638
17104,15610
17066,15593
17026,15588
16993,15590
" /> 
<polyline style="fill-rule:evenodd;"
points="15729,15934
15700,15944
15663,15961
15659,15963
15607,15996
15575,16031
15562,16066
15569,16103
15591,16135
15616,16153
15650,16168
15683,16176
15694,16177
15709,16174
15734,16166
15744,16162
15785,16141
15809,16111
15818,16071
15819,16063
15813,16029
15798,15992
15778,15959
15756,15937
15746,15932
15729,15934
" /> 
<polyline style="fill-rule:evenodd;"
points="15652,15590
15628,15599
15613,15612
15593,15645
15588,15686
15597,15730
15620,15772
15640,15794
15664,15816
15710,15792
15758,15761
15787,15725
15798,15685
15799,15677
15790,15638
15765,15609
15726,15592
15687,15588
15652,15590
" /> 
<polyline style="fill-rule:evenodd;"
points="17809,13881
17808,13982
17807,14066
17805,14132
17802,14180
17799,14210
17797,14216
17776,14249
17740,14270
17693,14277
17690,14278
17646,14269
17612,14243
17590,14203
17589,14200
17586,14179
17584,14141
17581,14088
17580,14022
17579,13947
17579,13870
17579,13578
17419,13578
17419,13891
17419,13983
17419,14058
17420,14118
17422,14164
17425,14200
17428,14227
17432,14248
17434,14256
17461,14314
17504,14361
17558,14394
17580,14402
17630,14412
17690,14416
17752,14414
17805,14407
17813,14405
17849,14388
17888,14358
17923,14320
17950,14281
17958,14263
17962,14245
17966,14218
17969,14179
17971,14126
17973,14059
17975,13975
17976,13900
17980,13578
17809,13578
17809,13881
" /> 
<polyline style="fill-rule:evenodd;"
points="15639,13992
15638,14079
15636,14148
15633,14197
15629,14226
15627,14232
15606,14258
15572,14271
15524,14271
15462,14258
15443,14252
15431,14251
15424,14257
15418,14275
15413,14309
15412,14312
15403,14377
15443,14393
15485,14405
15537,14412
15591,14414
15640,14411
15672,14404
15710,14386
15740,14364
15763,14334
15780,14295
15792,14243
15800,14176
15805,14093
15806,14075
15812,13908
15979,13908
15979,13778
15639,13778
15639,13992
" /> 
<polyline style="fill-rule:evenodd;"
points="17099,14268
16749,14268
16749,14398
17269,14398
17269,13578
17099,13578
17099,14268
" /> 
<polyline style="fill-rule:evenodd;"
points="16061,13645
16064,13713
16279,13718
16279,14398
16439,14398
16439,13718
16659,13718
16659,13578
16358,13577
16058,13577
16061,13645
" /> 
<polyline style="fill-rule:evenodd;"
points="14801,13578
14780,13581
14770,13587
14768,13595
14768,13611
14765,13642
14762,13686
14757,13739
14754,13778
14748,13847
14743,13923
14738,13997
14735,14062
14734,14078
14731,14138
14728,14202
14725,14261
14722,14305
14717,14398
14868,14398
14871,14095
14874,13793
14964,14107
15025,14107
15086,14108
15174,13793
15176,14095
15179,14398
15330,14398
15324,14330
15322,14295
15319,14246
15317,14188
15314,14128
15313,14113
15310,14039
15306,13960
15302,13881
15297,13804
15292,13735
15288,13677
15284,13633
15283,13625
15277,13578
15142,13578
15026,13943
14967,13760
14908,13577
14838,13577
14801,13578
" /> 
<polyline style="fill-rule:evenodd;"
points="15701,13504
15672,13528
15653,13561
15647,13598
15655,13636
15678,13668
15715,13692
15756,13698
15797,13686
15818,13672
15837,13652
15846,13630
15849,13599
15843,13553
15824,13521
15791,13500
15780,13497
15737,13493
15701,13504
" /> 
</g>
<g style="fill:#000000; fill-opacity:1.0; 
stroke:#000000; stroke-width:1; stroke-opacity:1; 
stroke-linecap:round; stroke-linejoin:round;">
<polyline style="fill-rule:evenodd;"
points="17156,5939
17142,5931
17111,5912
17067,5883
17015,5849
16963,5813
16920,5785
16890,5765
16878,5758
16871,5761
16846,5773
16811,5791
16790,5802
16757,5816
16740,5819
16738,5815
16726,5790
16707,5747
16682,5690
16653,5623
16623,5551
16592,5478
16563,5408
16538,5345
16517,5293
16503,5258
16498,5243
16500,5239
16516,5223
16545,5202
16607,5151
16669,5075
16706,4988
16719,4891
16708,4801
16673,4715
16613,4638
16540,4580
16455,4544
16359,4532
16268,4542
16180,4577
16102,4636
16069,4674
16024,4752
15999,4836
15996,4858
16000,4950
16027,5038
16076,5117
16143,5182
16152,5188
16183,5212
16204,5228
16221,5241
16103,5524
16084,5569
16052,5647
16024,5713
16001,5766
15985,5802
15978,5816
15978,5817
15967,5819
15946,5811
15906,5792
15880,5778
15850,5764
15836,5758
15825,5765
15796,5783
15754,5811
15703,5846
15655,5879
15611,5908
15579,5929
15563,5937
15561,5937
15547,5929
15521,5908
15483,5872
15428,5818
15420,5809
15375,5764
15339,5726
15314,5698
15305,5686
15305,5686
15313,5671
15334,5638
15363,5593
15399,5541
15493,5405
15441,5276
15425,5237
15405,5189
15390,5155
15383,5140
15369,5135
15334,5127
15283,5116
15222,5105
15164,5094
15112,5084
15074,5077
15057,5074
15053,5071
15049,5063
15047,5045
15046,5013
15045,4963
15045,4891
15045,4883
15046,4814
15047,4759
15049,4723
15051,4709
15051,4709
15068,4705
15105,4697
15157,4687
15219,4675
15223,4674
15285,4662
15338,4651
15374,4643
15389,4638
15393,4634
15405,4609
15423,4571
15444,4524
15464,4475
15481,4431
15493,4398
15497,4383
15497,4383
15487,4368
15466,4336
15436,4291
15399,4238
15397,4234
15361,4182
15332,4137
15313,4105
15305,4091
15306,4090
15317,4075
15344,4045
15382,4005
15428,3958
15443,3944
15494,3894
15530,3861
15552,3844
15562,3840
15563,3840
15579,3850
15612,3872
15657,3902
15710,3938
15714,3941
15766,3977
15810,4006
15841,4027
15855,4035
15857,4035
15879,4029
15916,4016
15962,3998
16011,3978
16055,3960
16088,3945
16103,3936
16104,3935
16109,3916
16118,3877
16130,3823
16142,3758
16144,3748
16156,3685
16166,3634
16173,3598
16177,3583
16186,3581
16216,3579
16263,3578
16319,3577
16379,3577
16437,3579
16486,3580
16522,3583
16537,3586
16537,3587
16543,3606
16551,3645
16562,3700
16575,3764
16577,3776
16589,3838
16599,3889
16607,3925
16611,3939
16616,3942
16642,3953
16684,3970
16736,3991
16856,4040
17004,3939
17017,3930
17070,3893
17114,3864
17144,3845
17157,3838
17158,3838
17173,3851
17202,3878
17242,3917
17288,3964
17323,3998
17363,4039
17389,4067
17403,4085
17408,4096
17407,4103
17397,4118
17376,4151
17345,4195
17309,4248
17280,4291
17248,4341
17227,4376
17220,4393
17222,4401
17232,4429
17249,4473
17272,4525
17323,4642
17399,4657
17446,4665
17511,4678
17573,4690
17670,4709
17673,5065
17658,5071
17644,5075
17608,5083
17557,5093
17496,5104
17445,5114
17393,5124
17355,5131
17339,5135
17335,5140
17322,5165
17303,5205
17283,5253
17262,5303
17244,5349
17231,5384
17226,5403
17233,5416
17253,5447
17281,5490
17317,5542
17352,5593
17382,5638
17402,5669
17411,5684
17407,5694
17386,5719
17347,5759
17289,5816
17280,5825
17234,5870
17195,5906
17168,5930
17156,5939
" /> 
</g>
<g style="fill:#000000; fill-opacity:1.0; 
stroke:#000000; stroke-width:3.93701; stroke-opacity:1; 
stroke-linecap:round; stroke-linejoin:round;">
<polyline style="fill-rule:evenodd;"
points="24021,9314
23934,9326
23884,9331
23808,9337
23710,9342
23598,9347
23476,9352
23387,9354
22956,9366
22862,9460
22804,9517
22735,9584
22666,9650
22647,9669
22527,9783
22515,10054
22511,10155
22509,10230
22510,10284
22514,10326
22521,10362
22534,10399
22551,10442
22571,10492
22589,10526
22610,10546
22641,10555
22689,10555
22759,10548
22825,10540
22897,10530
22968,10517
23009,10508
23071,10492
23134,10476
23147,10472
23198,10449
23263,10404
23321,10355
23326,10351
23152,10351
23152,10353
23128,10364
23080,10378
23015,10394
22942,10410
22869,10424
22804,10434
22755,10440
22748,10440
22697,10439
22668,10431
22651,10411
22640,10387
22619,10318
22619,10257
22642,10195
22690,10123
22703,10106
22750,10051
22784,10017
22815,10001
22842,9996
22895,9998
22933,10011
22948,10032
22942,10050
22930,10079
22948,10100
22993,10108
22993,10108
23019,10110
23040,10124
23062,10153
23090,10204
23101,10226
23128,10282
23146,10326
23152,10351
23326,10351
23390,10296
23472,10232
23552,10175
23567,10165
23655,10100
23750,10019
23813,9957
23646,9957
23634,9974
23631,9977
23606,9999
23561,10035
23502,10079
23451,10116
23383,10165
23321,10213
23273,10253
23250,10274
23216,10305
23189,10323
23184,10324
23168,10310
23144,10274
23115,10222
23113,10217
23086,10160
23074,10124
23074,10103
23084,10090
23105,10062
23106,10060
23057,10060
23044,10073
23041,10075
23008,10090
22987,10080
22984,10075
22985,10055
23007,10045
23038,10049
23057,10060
23106,10060
23109,10047
23123,10027
23160,10001
23212,9973
23269,9948
23322,9930
23362,9924
23407,9920
23439,9910
23439,9909
23468,9905
23519,9911
23561,9920
23614,9935
23641,9945
23646,9957
23813,9957
23854,9917
23971,9793
24029,9728
24098,9638
24120,9597
23985,9597
23983,9608
23981,9614
23959,9643
23920,9687
23871,9738
23816,9792
23762,9843
23714,9885
23678,9914
23660,9924
23628,9919
23580,9907
23566,9903
23516,9884
23500,9874
23425,9874
23411,9887
23384,9891
23352,9885
23342,9874
23356,9862
23384,9858
23415,9863
23425,9874
23500,9874
23477,9861
23471,9856
23460,9840
23461,9823
23478,9799
23514,9760
23539,9735
23603,9678
23651,9647
23677,9641
23715,9635
23735,9625
23758,9615
23806,9606
23867,9598
23874,9597
23922,9593
23707,9593
23694,9607
23691,9608
23657,9622
23631,9620
23625,9608
23639,9585
23670,9578
23688,9582
23707,9593
23922,9593
23936,9592
23971,9591
23985,9597
24120,9597
24148,9545
24166,9500
24189,9429
24069,9429
24068,9449
24055,9486
24048,9502
24031,9535
24013,9555
23985,9566
23939,9573
23895,9577
23812,9581
23755,9575
23732,9566
23678,9553
23637,9556
23599,9569
23585,9593
23584,9612
23572,9647
23541,9693
23500,9742
23454,9786
23413,9815
23387,9824
23345,9832
23311,9851
23297,9875
23298,9882
23289,9902
23256,9928
23208,9957
23151,9984
23094,10006
23045,10019
23026,10021
22980,10016
22948,10005
22946,10004
22928,9974
22925,9954
22925,9954
22868,9954
22866,9959
22842,9973
22812,9969
22801,9959
22805,9943
22828,9931
22854,9931
22860,9934
22868,9954
22925,9954
22911,9923
22892,9912
22869,9895
22860,9870
22843,9870
22829,9899
22804,9911
22774,9925
22761,9964
22761,9965
22748,10005
22719,10056
22695,10088
22634,10163
22629,10041
22627,9978
22628,9927
22632,9898
22632,9897
22655,9873
22697,9847
22747,9826
22791,9815
22809,9816
22837,9838
22843,9870
22860,9870
22859,9865
22861,9837
22879,9824
22880,9824
22910,9815
22934,9801
22955,9780
22954,9774
22900,9774
22877,9788
22858,9791
22831,9784
22825,9774
22840,9762
22868,9758
22896,9763
22900,9774
22954,9774
22949,9758
22943,9751
22905,9728
22855,9727
22806,9747
22787,9763
22750,9796
22706,9824
22664,9845
22635,9852
22628,9849
22636,9835
22664,9802
22709,9754
22768,9697
22808,9659
22999,9479
23325,9468
23444,9464
23568,9458
23687,9451
23791,9443
23854,9438
23933,9431
24000,9427
24047,9426
24068,9429
24069,9429
24189,9429
24191,9425
24199,9370
24190,9334
24159,9314
24104,9308
24021,9314
" /> 
<polyline style="fill-rule:evenodd;"
points="21526,6526
21473,6542
21438,6562
21409,6595
21383,6637
21360,6676
21345,6712
21335,6752
21328,6804
21323,6877
21320,6929
21313,7044
21301,7148
21284,7248
21259,7353
21225,7471
21179,7611
21175,7622
21132,7760
21104,7874
21091,7967
21093,8044
21109,8110
21119,8135
21140,8172
21170,8206
21213,8241
21275,8282
21358,8331
21426,8368
21519,8419
21609,8472
21703,8530
21803,8595
21917,8671
22047,8762
22184,8858
22293,8934
22381,8993
22451,9037
22508,9069
22558,9091
22599,9106
22656,9123
22698,9134
22717,9137
22718,9137
22716,9120
22711,9075
22701,9008
22697,8982
22591,8982
22586,8985
22571,8966
22557,8943
22530,8894
22493,8824
22447,8737
22395,8638
22340,8533
22285,8425
22235,8326
22191,8238
22157,8167
22135,8118
22125,8093
22114,8072
22072,8072
22067,8088
22049,8088
22020,8072
22012,8060
22017,8044
22034,8043
22064,8059
22072,8072
22114,8072
22106,8054
22084,8034
22057,8017
22039,7996
22026,7962
22013,7908
22008,7879
21998,7816
21997,7776
22006,7752
22008,7750
22017,7727
22011,7717
21973,7717
21966,7723
21947,7724
21914,7718
21901,7709
21899,7689
21917,7684
21946,7695
21952,7699
21973,7717
22011,7717
22001,7701
21994,7693
21979,7668
21569,7668
21552,7674
21544,7674
21515,7664
21509,7649
21516,7627
21523,7624
21545,7636
21559,7649
21569,7668
21979,7668
21973,7659
21956,7606
21944,7547
21939,7492
21943,7451
21949,7440
21954,7420
21952,7418
21903,7418
21885,7424
21877,7424
21849,7414
21842,7399
21850,7377
21857,7374
21878,7386
21892,7399
21903,7418
21952,7418
21931,7391
21921,7382
21893,7347
21860,7289
21827,7220
21799,7149
21781,7088
21775,7051
21760,7005
21705,7005
21700,7021
21683,7022
21653,7006
21646,6993
21650,6977
21668,6977
21697,6993
21705,7005
21760,7005
21760,7004
21717,6967
21662,6947
21621,6944
21601,6958
21599,6964
21600,7001
21633,7034
21692,7059
21723,7071
21746,7088
21766,7117
21787,7166
21804,7209
21854,7340
21799,7351
21754,7352
21750,7351
21639,7351
21629,7357
21613,7358
21580,7351
21568,7342
21566,7322
21584,7315
21611,7322
21622,7331
21639,7351
21750,7351
21703,7338
21651,7314
21597,7289
21563,7279
21542,7284
21538,7288
21528,7316
21542,7345
21574,7371
21615,7386
21657,7387
21669,7383
21717,7373
21764,7379
21796,7399
21798,7402
21822,7425
21863,7448
21869,7451
21907,7472
21923,7500
21925,7529
21928,7578
21935,7616
21937,7635
21927,7648
21902,7656
21854,7660
21781,7661
21745,7661
21666,7658
21616,7647
21595,7635
21552,7608
21509,7596
21475,7603
21464,7617
21467,7649
21492,7679
21532,7699
21575,7707
21612,7696
21619,7690
21645,7683
21692,7683
21751,7690
21811,7701
21861,7714
21889,7729
21925,7753
21944,7762
21965,7786
21984,7843
21992,7882
22002,7942
22005,7978
21999,7999
21984,8014
21981,8016
21950,8032
21932,8033
21908,8029
21859,8024
21794,8018
21760,8015
21671,8005
21660,8003
21539,8003
21525,8007
21509,8005
21476,7993
21463,7978
21467,7961
21488,7959
21515,7973
21527,7984
21539,8003
21660,8003
21609,7992
21571,7975
21569,7973
21524,7946
21487,7932
21447,7932
21428,7952
21434,7983
21459,8011
21491,8030
21530,8036
21582,8032
21647,8029
21725,8031
21806,8039
21882,8050
21945,8063
21986,8078
21992,8083
22031,8108
22067,8121
22082,8129
22099,8144
22121,8171
22147,8214
22182,8274
22227,8355
22283,8461
22325,8541
22381,8648
22431,8745
22472,8828
22504,8893
22525,8937
22532,8956
22532,8956
22516,8950
22479,8929
22427,8895
22379,8862
22219,8750
22061,8643
21910,8542
21770,8451
21646,8372
21541,8309
21482,8276
21406,8232
21337,8188
21282,8150
21249,8123
21218,8079
21201,8024
21199,7955
21213,7867
21242,7758
21280,7641
21326,7501
21361,7380
21387,7268
21405,7153
21419,7025
21425,6955
21432,6863
21440,6798
21448,6752
21460,6720
21475,6693
21484,6680
21522,6643
21565,6626
21613,6633
21668,6662
21731,6717
21804,6797
21888,6905
21985,7040
22052,7141
22095,7212
22143,7309
22199,7433
22264,7587
22289,7649
22442,8033
22509,8466
22527,8585
22545,8695
22560,8792
22572,8870
22581,8925
22585,8949
22591,8982
22697,8982
22688,8923
22674,8826
22673,8824
22658,8726
22646,8640
22637,8570
22631,8522
22630,8501
22630,8501
22641,8506
22663,8534
22695,8580
22732,8637
22771,8700
22807,8762
22838,8819
22859,8863
22863,8874
22882,8935
22895,8995
22898,9010
22901,9049
22892,9066
22866,9070
22864,9070
22822,9080
22800,9112
22792,9172
22792,9173
22789,9203
22777,9231
22751,9264
22706,9307
22671,9339
22562,9440
22472,9528
22393,9613
22316,9704
22234,9808
22211,9838
22152,9918
22111,9976
22084,10019
22068,10051
22062,10078
22061,10105
22062,10113
22068,10158
22081,10179
22108,10187
22109,10187
22154,10183
22180,10173
22200,10152
22234,10110
22276,10051
22323,9981
22332,9967
22389,9882
22437,9818
22483,9766
22536,9717
22594,9670
22686,9595
22771,9516
22847,9441
22907,9372
22947,9316
22957,9296
22973,9261
22987,9254
23006,9269
23018,9278
23038,9285
23069,9288
23117,9290
23185,9289
23279,9287
23358,9284
23485,9279
23625,9272
23765,9264
23892,9256
23960,9252
24087,9241
24187,9228
24269,9210
24340,9182
24405,9143
24472,9088
24549,9013
24625,8935
24684,8874
24761,8794
24854,8700
24957,8596
25066,8486
25177,8375
25252,8300
25374,8177
25474,8075
25553,7993
25613,7928
25655,7879
25672,7857
25533,7857
25125,8271
25020,8377
24915,8484
24814,8587
24721,8683
24640,8766
24576,8832
24550,8859
24465,8946
24394,9013
24330,9061
24265,9095
24193,9119
24107,9134
23999,9145
23917,9150
23812,9157
23704,9162
23598,9167
23498,9170
23410,9172
23337,9173
23286,9172
23261,9170
23260,9168
23285,9153
23336,9130
23405,9101
23486,9068
23573,9035
23658,9004
23736,8977
23799,8956
23842,8945
23850,8943
23916,8939
23999,8936
24090,8936
24181,8937
24261,8940
24321,8945
24342,8948
24394,8951
24433,8938
24452,8916
24450,8908
24409,8908
24394,8920
24367,8924
24336,8918
24325,8908
24331,8903
23902,8903
23900,8909
23879,8922
23854,8922
23842,8908
23855,8885
23882,8879
23892,8883
23902,8903
24331,8903
24339,8895
24367,8891
24398,8897
24409,8908
24450,8908
24445,8886
24442,8883
24416,8864
24375,8863
24359,8866
24308,8873
24243,8879
24170,8883
24098,8886
24034,8886
23986,8884
23961,8880
23959,8877
23972,8861
24007,8833
24057,8798
24115,8759
24174,8722
24227,8691
24268,8670
24289,8664
24290,8665
24314,8666
24357,8656
24378,8650
24452,8629
24505,8626
24533,8641
24534,8641
24557,8653
24599,8657
24644,8653
24666,8647
24687,8626
24689,8605
24642,8605
24628,8625
24599,8636
24586,8635
24574,8620
24369,8620
24367,8624
24346,8637
24316,8640
24295,8632
24292,8625
24304,8603
24309,8599
24336,8594
24360,8603
24369,8620
24574,8620
24573,8619
24573,8615
24586,8601
24612,8594
24636,8596
24642,8605
24689,8605
24690,8597
24675,8575
24663,8572
24606,8572
24557,8580
24534,8592
24506,8604
24466,8607
24431,8601
24418,8593
24426,8576
24455,8547
24499,8511
24551,8472
24603,8436
24650,8408
24683,8392
24692,8391
24734,8382
24758,8371
24787,8360
24815,8374
24824,8381
24862,8399
24910,8402
24956,8391
24985,8368
24987,8363
24987,8358
24942,8358
24928,8370
24900,8374
24869,8368
24859,8358
24873,8345
24900,8341
24932,8347
24942,8358
24987,8358
24986,8338
24725,8338
24712,8358
24682,8369
24670,8368
24657,8352
24657,8349
24669,8334
24696,8327
24719,8330
24725,8338
24986,8338
24986,8334
24958,8317
24909,8313
24844,8324
24813,8333
24782,8336
24775,8326
24790,8308
24827,8283
24880,8256
24939,8229
24996,8206
25044,8193
25063,8191
25112,8184
25151,8168
25172,8146
25170,8141
25125,8141
25111,8153
25084,8158
25052,8152
25042,8141
25056,8128
25084,8124
25115,8130
25125,8141
25170,8141
25166,8125
25160,8118
25127,8097
25082,8093
25037,8102
25003,8123
24992,8149
24978,8168
24942,8196
24891,8228
24835,8259
24781,8284
24738,8298
24726,8300
24663,8304
24626,8310
24607,8318
24598,8333
24597,8334
24599,8364
24608,8374
24608,8390
24585,8417
24545,8451
24495,8489
24441,8524
24388,8554
24344,8573
24325,8577
24275,8591
24251,8619
24228,8648
24182,8687
24122,8731
24055,8775
23989,8814
23931,8843
23890,8857
23884,8858
23827,8866
23796,8890
23790,8905
23772,8920
23731,8944
23672,8973
23625,8993
23511,9041
23426,9076
23367,9099
23330,9112
23315,9115
23317,9110
23341,9091
23390,9056
23460,9008
23496,8983
23286,8983
23271,9004
23226,9039
23178,9071
23117,9113
23067,9151
23033,9181
23025,9192
23006,9220
22999,9219
23006,9189
23010,9180
23018,9136
23009,9118
23004,9094
23028,9066
23079,9036
23152,9007
23227,8984
23272,8976
23286,8983
23496,8983
23547,8948
23647,8880
23759,8806
23877,8727
23998,8647
24119,8567
24236,8491
24345,8420
24444,8356
24528,8302
24595,8261
24639,8235
24651,8228
24737,8187
24836,8140
24945,8091
25056,8041
25164,7994
25264,7952
25349,7917
25413,7893
25442,7884
25533,7857
25672,7857
25682,7844
25695,7820
25696,7816
25697,7773
25675,7749
25627,7741
25620,7741
25562,7745
25492,7760
25406,7785
25303,7822
25178,7872
25029,7937
24914,7988
24798,8041
24702,8086
24620,8125
24547,8162
24479,8200
24409,8241
24332,8290
24244,8348
24139,8418
24011,8505
24009,8507
23891,8586
23779,8663
23674,8735
23582,8797
23507,8849
23452,8887
23430,8902
23382,8934
23349,8951
23335,8953
23336,8950
23341,8934
23337,8927
23317,8927
23275,8935
23239,8943
23160,8964
23085,8992
23020,9022
22975,9052
22961,9068
22946,9089
22941,9091
22938,9071
22934,9029
22932,9008
22915,8912
22883,8819
22832,8719
22765,8612
22722,8547
22688,8490
22665,8448
22659,8429
22669,8393
22694,8347
22726,8303
22755,8275
22756,8275
22773,8257
22765,8241
22743,8239
22713,8260
22680,8297
22651,8342
22630,8389
22624,8423
22621,8429
22613,8406
22603,8358
22591,8290
22584,8249
22566,8141
22552,8060
22539,7997
22526,7948
22511,7904
22493,7859
22470,7808
22446,7753
22415,7676
22378,7585
22340,7489
22325,7449
22291,7361
22261,7290
22232,7228
22199,7169
22159,7104
22107,7028
22041,6934
22028,6915
21958,6818
21904,6744
21860,6688
21823,6647
21790,6615
21756,6589
21722,6568
21618,6503
21526,6526
" /> 
<polyline style="fill-rule:evenodd;"
points="21011,8264
21011,8265
20953,8305
20888,8367
20823,8441
20768,8519
20737,8574
20716,8618
20701,8656
20691,8696
20685,8745
20681,8810
20679,8901
20678,8915
20677,9014
20678,9094
20683,9164
20694,9237
20711,9325
20724,9388
20747,9493
20767,9572
20786,9632
20807,9681
20834,9724
20869,9769
20899,9805
20937,9851
20964,9887
20975,9906
20975,9907
20990,9916
21030,9931
21089,9948
21119,9956
21192,9976
21260,9996
21311,10013
21321,10017
21380,10034
21444,10038
21518,10026
21612,9998
21650,9985
21731,9954
21827,9916
21926,9876
21985,9851
22068,9814
22131,9782
22184,9748
22239,9704
22303,9646
22323,9627
22476,9483
22463,9426
22352,9426
22344,9451
22313,9490
22266,9537
22208,9588
22145,9638
22082,9682
22024,9715
22015,9719
21925,9759
21828,9799
21730,9838
21636,9873
21553,9901
21486,9922
21440,9933
21425,9933
21378,9922
21335,9908
21304,9894
21293,9885
21294,9885
21310,9876
21351,9854
21414,9820
21493,9778
21586,9729
21652,9694
21780,9628
21880,9578
21955,9544
22007,9524
22036,9518
22039,9519
22073,9517
22088,9496
22087,9489
21966,9489
21955,9501
21918,9525
21862,9559
21791,9600
21708,9645
21621,9692
21532,9739
21448,9782
21372,9820
21310,9849
21267,9868
21249,9873
21213,9869
21161,9858
21132,9850
21074,9827
21028,9791
20989,9746
20957,9703
20937,9673
20932,9662
20949,9656
20992,9643
21058,9625
21139,9602
21210,9583
21302,9557
21384,9534
21450,9514
21493,9500
21508,9494
21542,9489
21579,9497
21625,9506
21659,9495
21689,9485
21740,9479
21802,9475
21865,9475
21919,9477
21956,9484
21966,9489
22087,9489
22082,9466
22042,9466
22039,9487
22022,9488
22002,9481
21985,9468
21619,9468
21602,9474
21594,9474
21570,9466
21510,9466
21494,9474
21451,9490
21389,9510
21313,9534
21230,9559
21146,9583
21068,9605
21001,9623
20951,9635
20929,9639
20907,9627
20892,9603
20882,9574
20867,9523
20850,9461
20834,9396
20820,9339
20811,9297
20809,9283
20824,9278
20865,9276
20923,9276
20992,9279
21064,9283
21130,9289
21183,9296
21217,9304
21217,9304
21267,9321
21309,9332
21346,9345
21392,9370
21440,9400
21481,9430
21506,9455
21510,9466
21570,9466
21565,9464
21559,9449
21566,9427
21573,9424
21595,9436
21609,9449
21619,9468
21985,9468
21977,9463
21983,9446
22009,9441
22036,9451
22042,9466
22082,9466
22082,9464
22059,9438
22016,9415
21972,9409
21940,9420
21931,9433
21910,9447
21865,9456
21807,9459
21745,9457
21689,9449
21648,9436
21639,9430
21603,9412
21552,9401
21538,9399
21476,9387
21409,9359
21348,9321
21304,9280
21299,9272
21255,9272
21250,9288
21233,9288
21203,9272
21196,9260
21200,9244
21218,9243
21247,9259
21255,9272
21299,9272
21293,9262
21262,9228
21235,9217
21154,9217
21136,9241
21097,9253
21031,9257
20984,9258
20905,9256
20853,9251
20822,9242
20808,9232
20800,9208
20792,9163
20785,9102
20779,9034
20774,8968
20773,8911
20774,8872
20778,8858
20797,8862
20838,8876
20895,8894
20907,8899
21004,8940
21073,8990
21118,9054
21140,9117
21153,9177
21154,9217
21235,9217
21227,9214
21191,9200
21173,9170
21167,9146
21157,9100
21148,9066
21147,9065
21151,9045
21172,9041
21209,9032
21218,9008
21214,9002
21169,9002
21152,9007
21144,9008
21115,8998
21109,8983
21116,8960
21123,8958
21145,8969
21159,8983
21169,9002
21214,9002
21198,8975
21188,8965
21145,8929
21190,8859
21219,8817
21243,8798
21272,8797
21278,8798
21323,8797
21346,8778
21346,8777
21211,8777
21193,8821
21164,8868
21129,8906
21101,8924
21070,8924
21018,8914
20953,8897
20886,8874
20825,8849
20806,8839
20791,8814
20790,8766
20804,8703
20831,8633
20856,8585
20891,8526
20920,8492
20950,8484
20987,8500
21039,8541
21067,8565
21118,8612
21159,8654
21183,8683
21186,8689
21201,8727
21210,8745
21211,8777
21346,8777
21344,8757
21309,8757
21298,8773
21268,8763
21259,8758
21244,8740
21246,8731
21270,8727
21297,8738
21309,8757
21344,8757
21343,8747
21326,8725
21289,8700
21256,8691
21226,8679
21181,8648
21129,8601
21126,8599
21076,8551
21030,8510
20997,8483
20994,8481
20956,8454
20994,8414
21027,8386
21054,8374
21055,8374
21074,8383
21117,8409
21181,8450
21263,8503
21360,8567
21469,8640
21585,8719
21598,8727
21756,8835
21888,8925
21998,8999
22087,9061
22157,9110
22211,9149
22251,9181
22280,9205
22299,9226
22310,9243
22317,9259
22320,9276
22323,9295
22326,9308
22337,9363
22347,9409
22352,9426
22463,9426
22437,9312
22420,9241
22406,9183
22395,9146
22391,9135
22373,9123
22331,9094
22268,9051
22188,8996
22094,8932
21989,8861
21876,8785
21760,8706
21643,8627
21529,8550
21421,8478
21323,8412
21238,8354
21169,8308
21120,8276
21095,8259
21092,8257
21056,8249
21011,8264
" /> 
<polyline style="fill-rule:evenodd;"
points="7211,17774
7112,17774
7016,17774
6926,17775
6841,17776
6765,17777
6697,17778
6641,17779
6597,17780
6566,17782
6550,17783
6550,17784
6511,17802
6483,17830
6465,17864
6459,17901
6465,17938
6482,17971
6511,17997
6525,18005
6558,18020
6558,18798
6559,19576
6334,19965
6287,20047
6233,20141
6174,20243
6111,20351
6048,20462
5984,20572
5922,20679
5864,20779
5838,20824
5792,20905
5747,20983
5706,21055
5669,21120
5637,21178
5610,21226
5589,21265
5574,21292
5567,21306
5567,21308
5571,21318
5583,21342
5601,21376
5625,21419
5653,21470
5685,21526
5719,21585
5755,21647
5792,21710
5827,21770
5862,21828
5893,21881
5921,21927
5945,21964
5962,21992
5974,22007
5976,22010
6000,22033
8717,22033
8742,22010
8750,21998
8766,21974
8788,21940
8815,21896
8845,21845
8879,21789
8914,21729
8950,21667
8986,21605
9021,21544
9054,21487
9084,21434
9109,21389
9129,21351
9143,21324
9150,21309
9150,21307
9147,21299
8885,21299
8741,21549
8597,21799
6120,21799
5976,21549
5832,21299
5888,21201
5914,21157
5940,21110
5965,21067
5983,21035
6021,20966
6550,20966
7079,20966
6924,21122
6882,21165
6844,21204
6811,21239
6785,21266
6767,21286
6760,21295
6756,21314
6763,21333
6776,21352
6797,21375
6823,21400
6850,21424
6875,21443
6894,21455
6902,21458
6914,21452
6936,21435
6968,21407
7010,21367
7063,21315
7085,21293
7250,21129
7250,21357
7250,21426
7251,21480
7251,21521
7253,21551
7255,21572
7257,21586
7260,21595
7264,21601
7273,21608
7286,21612
7308,21615
7340,21616
7363,21616
7402,21616
7428,21614
7444,21612
7455,21606
7463,21598
7467,21593
7472,21586
7476,21578
7479,21567
7481,21550
7482,21527
7483,21494
7483,21450
7482,21393
7482,21352
7481,21293
7481,21241
7480,21196
7480,21162
7480,21140
7480,21132
7486,21138
7502,21154
7526,21179
7558,21211
7596,21248
7637,21290
7638,21291
7681,21334
7721,21372
7756,21405
7785,21431
7805,21448
7816,21455
7826,21455
7839,21450
7857,21436
7881,21414
7901,21394
7934,21360
7955,21335
7965,21317
7967,21308
7964,21298
7955,21284
7939,21264
7914,21236
7879,21200
7835,21155
7807,21126
7646,20966
7871,20966
7944,20966
8002,20966
8047,20964
8080,20961
8104,20955
8119,20945
8128,20931
8132,20912
8134,20888
8134,20857
8134,20848
8134,20815
8133,20790
8130,20770
8123,20756
8110,20745
8089,20739
8059,20735
8018,20733
7965,20732
7896,20732
7873,20733
7647,20733
7811,20567
7858,20520
7898,20477
7932,20441
7956,20413
7971,20395
7975,20387
7969,20373
7953,20352
7930,20326
7904,20300
7876,20275
7852,20255
7832,20243
7825,20241
7815,20244
7799,20256
7775,20275
7744,20304
7702,20344
7651,20394
7642,20403
7479,20565
7482,20343
7483,20270
7483,20212
7482,20168
7479,20135
7473,20111
7463,20096
7449,20088
7430,20083
7405,20082
7372,20082
7363,20083
7321,20083
7292,20085
7274,20089
7264,20095
7263,20096
7259,20101
7256,20111
7254,20127
7252,20151
7251,20185
7251,20230
7250,20289
7250,20339
7250,20569
7085,20405
7030,20351
6986,20309
6952,20277
6927,20256
6910,20244
6901,20241
6884,20247
6859,20265
6828,20293
6793,20328
6770,20355
6759,20376
6757,20393
6760,20404
6768,20414
6786,20434
6813,20462
6847,20497
6885,20537
6924,20576
7079,20733
6157,20733
6174,20705
6192,20675
6216,20634
6246,20583
6280,20524
6318,20459
6359,20388
6401,20313
6446,20236
6490,20158
6535,20080
6578,20004
6620,19931
6659,19863
6694,19800
6725,19744
6752,19697
6772,19660
6786,19635
6792,19622
6793,19621
6794,19609
6795,19582
6796,19540
6797,19484
6798,19417
6798,19338
6799,19250
6799,19153
6800,19048
6800,18937
6800,18821
6800,18805
6800,18016
7917,18016
7919,18822
7921,19628
8101,19941
8149,20022
8201,20113
8256,20208
8312,20305
8365,20398
8415,20484
8450,20545
8527,20677
8596,20797
8657,20903
8711,20997
8757,21077
8796,21143
8826,21196
8848,21235
8862,21259
8865,21264
8885,21299
9147,21299
9146,21298
9135,21275
9116,21241
9092,21197
9063,21145
9030,21087
8994,21023
8970,20982
8925,20904
8876,20819
8826,20732
8776,20646
8729,20563
8686,20489
8651,20428
8613,20364
8569,20288
8522,20205
8471,20118
8421,20031
8373,19948
8335,19881
8159,19576
8159,18020
8192,18005
8226,17981
8247,17950
8257,17915
8255,17878
8242,17842
8218,17812
8183,17789
8167,17784
8154,17782
8124,17780
8081,17779
8026,17778
7960,17777
7884,17776
7801,17775
7711,17775
7615,17774
7516,17774
7415,17774
7313,17774
7211,17774
" /> 
</g>
<g style="fill:#000000; fill-opacity:1.0; 
stroke:#000000; stroke-width:59.0551; stroke-opacity:1; 
stroke-linecap:round; stroke-linejoin:round;">
</g>
<g style="fill:#000000; fill-opacity:0.0; 
stroke:#000000; stroke-width:59.0551; stroke-opacity:1; 
stroke-linecap:round; stroke-linejoin:round;">
<path d="M10939 20514
L10939 21301
" />
<path d="M9778 21301
L9778 20514
" />
<path d="M22939 20514
L22939 21301
" />
<path d="M21778 21301
L21778 20514
" />
</g>
<g style="fill:#000000; fill-opacity:0.0; 
stroke:#000000; stroke-width:100; stroke-opacity:1; 
stroke-linecap:round; stroke-linejoin:round;">
<path d="M23359 15908
L23359 13908
" />
<path d="M21359 15908
L23359 15908
" />
<path d="M21359 13908
L21359 15908
" />
<path d="M23359 13908
L21359 13908
" />
<path d="M17359 19908
L15359 19908
" />
<path d="M17359 21908
L17359 19908
" />
<path d="M15359 21908
L17359 21908
" />
<path d="M15359 19908
L15359 21908
" />
<path d="M15359 9908
L17359 9908
" />
<path d="M15359 7908
L15359 9908
" />
<path d="M17359 7908
L15359 7908
" />
<path d="M17359 9908
L17359 7908
" />
<path d="M11359 15908
L11359 13908
" />
<path d="M9359 15908
L11359 15908
" />
<path d="M9359 13908
L9359 15908
" />
<path d="M11359 13908
L9359 13908
" />
</g>
<g style="fill:#000000; fill-opacity:0.0; 
stroke:#000000; stroke-width:80; stroke-opacity:1; 
stroke-linecap:round; stroke-linejoin:round;">
<path d="M20225 21050
L20244 21069
L20301 21088
L20340 21088
L20397 21069
L20435 21031
L20454 20993
L20473 20917
L20473 20860
L20454 20784
L20435 20746
L20397 20708
L20340 20688
L20301 20688
L20244 20708
L20225 20727
" />
<path d="M20092 20688
L19844 20688
L19978 20841
L19920 20841
L19882 20860
L19863 20879
L19844 20917
L19844 21012
L19863 21050
L19882 21069
L19920 21088
L20035 21088
L20073 21069
L20092 21050
" />
<path d="M12625 21050
L12644 21069
L12701 21088
L12740 21088
L12797 21069
L12835 21031
L12854 20993
L12873 20917
L12873 20860
L12854 20784
L12835 20746
L12797 20708
L12740 20688
L12701 20688
L12644 20708
L12625 20727
" />
<path d="M12244 21088
L12473 21088
" />
<path d="M12359 21088
L12359 20688
L12397 20746
L12435 20784
L12473 20803
" />
</g>
<g style="fill:#000000; fill-opacity:0.0; 
stroke:#000000; stroke-width:50; stroke-opacity:1; 
stroke-linecap:round; stroke-linejoin:round;">
<path d="M17530 6243
L17484 6243
L17461 6258
L17439 6286
L17427 6343
L17427 6443
L17439 6500
L17461 6529
L17484 6543
L17530 6543
L17553 6529
L17576 6500
L17587 6443
L17587 6343
L17576 6286
L17553 6258
L17530 6243
" />
<path d="M17324 6343
L17324 6643
" />
<path d="M17324 6358
L17301 6343
L17256 6343
L17233 6358
L17221 6372
L17210 6400
L17210 6486
L17221 6515
L17233 6529
L17256 6543
L17301 6543
L17324 6529
" />
<path d="M17016 6529
L17039 6543
L17084 6543
L17107 6529
L17119 6500
L17119 6386
L17107 6358
L17084 6343
L17039 6343
L17016 6358
L17004 6386
L17004 6415
L17119 6443
" />
<path d="M16901 6343
L16901 6543
" />
<path d="M16901 6372
L16890 6358
L16867 6343
L16833 6343
L16810 6358
L16799 6386
L16799 6543
" />
<path d="M16684 6543
L16684 6243
" />
<path d="M16684 6386
L16547 6386
" />
<path d="M16547 6543
L16547 6243
" />
<path d="M16330 6543
L16330 6386
L16341 6358
L16364 6343
L16410 6343
L16433 6358
" />
<path d="M16330 6529
L16353 6543
L16410 6543
L16433 6529
L16444 6500
L16444 6472
L16433 6443
L16410 6429
L16353 6429
L16330 6415
" />
<path d="M16216 6543
L16216 6343
" />
<path d="M16216 6400
L16204 6372
L16193 6358
L16170 6343
L16147 6343
" />
<path d="M15964 6543
L15964 6243
" />
<path d="M15964 6529
L15987 6543
L16033 6543
L16056 6529
L16067 6515
L16079 6486
L16079 6400
L16067 6372
L16056 6358
L16033 6343
L15987 6343
L15964 6358
" />
<path d="M15873 6343
L15827 6543
L15781 6400
L15736 6543
L15690 6343
" />
<path d="M15496 6543
L15496 6386
L15507 6358
L15530 6343
L15576 6343
L15599 6358
" />
<path d="M15496 6529
L15519 6543
L15576 6543
L15599 6529
L15610 6500
L15610 6472
L15599 6443
L15576 6429
L15519 6429
L15496 6415
" />
<path d="M15381 6543
L15381 6343
" />
<path d="M15381 6400
L15370 6372
L15359 6358
L15336 6343
L15313 6343
" />
<path d="M15141 6529
L15164 6543
L15210 6543
L15233 6529
L15244 6500
L15244 6386
L15233 6358
L15210 6343
L15164 6343
L15141 6358
L15130 6386
L15130 6415
L15244 6443
" />
</g>
<g style="fill:#000000; fill-opacity:0.0; 
stroke:#000000; stroke-width:120; stroke-opacity:1; 
stroke-linecap:round; stroke-linejoin:round;">
<path d="M25816 25608
L25873 25579
L25959 25579
L26044 25608
L26101 25665
L26130 25722
L26159 25836
L26159 25922
L26130 26036
L26101 26093
L26044 26150
L25959 26179
L25901 26179
L25816 26150
L25787 26122
L25787 25922
L25901 25922
" />
<path d="M25530 26179
L25530 25579
L25187 26179
L25187 25579
" />
<path d="M24901 26179
L24901 25579
L24759 25579
L24673 25608
L24616 25665
L24587 25722
L24559 25836
L24559 25922
L24587 26036
L24616 26093
L24673 26150
L24759 26179
L24901 26179
" />
<path d="M25473 3579
L25759 3579
L25787 3865
L25759 3836
L25701 3808
L25559 3808
L25501 3836
L25473 3865
L25444 3922
L25444 4065
L25473 4122
L25501 4150
L25559 4179
L25701 4179
L25759 4150
L25787 4122
" />
<path d="M25273 3579
L25073 4179
L24873 3579
" />
<path d="M22673 18179
L22673 17579
L22530 17579
L22444 17608
L22387 17665
L22359 17722
L22330 17836
L22330 17922
L22359 18036
L22387 18093
L22444 18150
L22530 18179
L22673 18179
" />
<path d="M21959 17579
L21844 17579
L21787 17608
L21730 17665
L21701 17779
L21701 17979
L21730 18093
L21787 18150
L21844 18179
L21959 18179
L22016 18150
L22073 18093
L22101 17979
L22101 17779
L22073 17665
L22016 17608
L21959 17579
" />
<path d="M21587 18236
L21130 18236
" />
<path d="M20987 18179
L20987 17579
" />
<path d="M20987 17865
L20644 17865
" />
<path d="M20644 18179
L20644 17579
" />
<path d="M12044 18179
L12044 17579
L11901 17579
L11816 17608
L11759 17665
L11730 17722
L11701 17836
L11701 17922
L11730 18036
L11759 18093
L11816 18150
L11901 18179
L12044 18179
" />
<path d="M11444 18179
L11444 17579
" />
<path d="M11301 18236
L10844 18236
" />
<path d="M10730 18008
L10444 18008
" />
<path d="M10787 18179
L10587 17579
L10387 18179
" />
<path d="M7473 3579
L7759 3579
L7787 3865
L7759 3836
L7701 3808
L7559 3808
L7501 3836
L7473 3865
L7444 3922
L7444 4065
L7473 4122
L7501 4150
L7559 4179
L7701 4179
L7759 4150
L7787 4122
" />
<path d="M7273 3579
L7073 4179
L6873 3579
" />
<path d="M7816 25608
L7873 25579
L7959 25579
L8044 25608
L8101 25665
L8130 25722
L8159 25836
L8159 25922
L8130 26036
L8101 26093
L8044 26150
L7959 26179
L7901 26179
L7816 26150
L7787 26122
L7787 25922
L7901 25922
" />
<path d="M7530 26179
L7530 25579
L7187 26179
L7187 25579
" />
<path d="M6901 26179
L6901 25579
L6759 25579
L6673 25608
L6616 25665
L6587 25722
L6559 25836
L6559 25922
L6587 26036
L6616 26093
L6673 26150
L6759 26179
L6901 26179
" />
<path d="M11651 12122
L11680 12150
L11766 12179
L11823 12179
L11909 12150
L11966 12093
L11994 12036
L12023 11922
L12023 11836
L11994 11722
L11966 11665
L11909 11608
L11823 11579
L11766 11579
L11680 11608
L11651 11636
" />
<path d="M11394 12179
L11394 11579
" />
<path d="M11251 12236
L10794 12236
" />
<path d="M10680 12008
L10394 12008
" />
<path d="M10737 12179
L10537 11579
L10337 12179
" />
<path d="M22330 12122
L22359 12150
L22444 12179
L22501 12179
L22587 12150
L22644 12093
L22673 12036
L22701 11922
L22701 11836
L22673 11722
L22644 11665
L22587 11608
L22501 11579
L22444 11579
L22359 11608
L22330 11636
" />
<path d="M21959 11579
L21844 11579
L21787 11608
L21730 11665
L21701 11779
L21701 11979
L21730 12093
L21787 12150
L21844 12179
L21959 12179
L22016 12150
L22073 12093
L22101 11979
L22101 11779
L22073 11665
L22016 11608
L21959 11579
" />
<path d="M21587 12236
L21130 12236
" />
<path d="M20987 12179
L20987 11579
" />
<path d="M20987 11865
L20644 11865
" />
<path d="M20644 12179
L20644 11579
" />
</g>
<g style="fill:#000000; fill-opacity:0.0; 
stroke:#000000; stroke-width:80; stroke-opacity:1; 
stroke-linecap:round; stroke-linejoin:round;">
<path d="M10425 21050
L10444 21069
L10501 21088
L10540 21088
L10597 21069
L10635 21031
L10654 20993
L10673 20917
L10673 20860
L10654 20784
L10635 20746
L10597 20708
L10540 20688
L10501 20688
L10444 20708
L10425 20727
" />
<path d="M10273 20727
L10254 20708
L10216 20688
L10120 20688
L10082 20708
L10063 20727
L10044 20765
L10044 20803
L10063 20860
L10292 21088
L10044 21088
" />
<path d="M22425 21050
L22444 21069
L22501 21088
L22540 21088
L22597 21069
L22635 21031
L22654 20993
L22673 20917
L22673 20860
L22654 20784
L22635 20746
L22597 20708
L22540 20688
L22501 20688
L22444 20708
L22425 20727
" />
<path d="M22082 20822
L22082 21088
" />
<path d="M22178 20669
L22273 20955
L22025 20955
" />
<path d="M23359 16263
L23282 16263
L23244 16282
L23206 16320
L23187 16397
L23187 16530
L23206 16606
L23244 16644
L23282 16663
L23359 16663
L23397 16644
L23435 16606
L23454 16530
L23454 16397
L23435 16320
L23397 16282
L23359 16263
" />
<path d="M22844 16397
L22844 16663
" />
<path d="M23016 16397
L23016 16606
L22997 16644
L22959 16663
L22901 16663
L22863 16644
L22844 16625
" />
<path d="M22711 16397
L22559 16397
" />
<path d="M22654 16263
L22654 16606
L22635 16644
L22597 16663
L22559 16663
" />
<path d="M22425 16397
L22425 16797
" />
<path d="M22425 16416
L22387 16397
L22311 16397
L22273 16416
L22254 16435
L22235 16473
L22235 16587
L22254 16625
L22273 16644
L22311 16663
L22387 16663
L22425 16644
" />
<path d="M21892 16397
L21892 16663
" />
<path d="M22063 16397
L22063 16606
L22044 16644
L22006 16663
L21949 16663
L21911 16644
L21892 16625
" />
<path d="M21759 16397
L21606 16397
" />
<path d="M21701 16263
L21701 16606
L21682 16644
L21644 16663
L21606 16663
" />
<path d="M21492 16301
L21473 16282
L21435 16263
L21340 16263
L21301 16282
L21282 16301
L21263 16339
L21263 16378
L21282 16435
L21511 16663
L21263 16663
" />
<path d="M18114 20060
L17714 20060
" />
<path d="M17848 20250
L18114 20250
" />
<path d="M17886 20250
L17867 20269
L17848 20308
L17848 20365
L17867 20403
L17905 20422
L18114 20422
" />
<path d="M17848 20612
L18248 20612
" />
<path d="M17867 20612
L17848 20650
L17848 20727
L17867 20765
L17886 20784
L17924 20803
L18038 20803
L18076 20784
L18095 20765
L18114 20727
L18114 20650
L18095 20612
" />
<path d="M17848 21146
L18114 21146
" />
<path d="M17848 20974
L18057 20974
L18095 20993
L18114 21031
L18114 21088
L18095 21127
L18076 21146
" />
<path d="M17848 21279
L17848 21431
" />
<path d="M17714 21336
L18057 21336
L18095 21355
L18114 21393
L18114 21431
" />
<path d="M17752 21546
L17733 21565
L17714 21603
L17714 21698
L17733 21736
L17752 21755
L17790 21774
L17829 21774
L17886 21755
L18114 21527
L18114 21774
" />
<path d="M17540 7908
L17540 7984
L17559 8022
L17597 8060
L17673 8079
L17806 8079
L17882 8060
L17920 8022
L17940 7984
L17940 7908
L17920 7869
L17882 7831
L17806 7812
L17673 7812
L17597 7831
L17559 7869
L17540 7908
" />
<path d="M17673 8422
L17940 8422
" />
<path d="M17673 8250
L17882 8250
L17920 8269
L17940 8308
L17940 8365
L17920 8403
L17901 8422
" />
<path d="M17673 8555
L17673 8708
" />
<path d="M17540 8612
L17882 8612
L17920 8631
L17940 8669
L17940 8708
" />
<path d="M17673 8841
L18073 8841
" />
<path d="M17692 8841
L17673 8879
L17673 8955
L17692 8993
L17711 9012
L17749 9031
L17863 9031
L17901 9012
L17920 8993
L17940 8955
L17940 8879
L17920 8841
" />
<path d="M17673 9374
L17940 9374
" />
<path d="M17673 9203
L17882 9203
L17920 9222
L17940 9260
L17940 9317
L17920 9355
L17901 9374
" />
<path d="M17673 9508
L17673 9660
" />
<path d="M17540 9565
L17882 9565
L17920 9584
L17940 9622
L17940 9660
" />
<path d="M17940 10003
L17940 9774
" />
<path d="M17940 9888
L17540 9888
L17597 9850
L17635 9812
L17654 9774
" />
<path d="M11206 16663
L11206 16263
" />
<path d="M11016 16397
L11016 16663
" />
<path d="M11016 16435
L10997 16416
L10959 16397
L10901 16397
L10863 16416
L10844 16454
L10844 16663
" />
<path d="M10654 16397
L10654 16797
" />
<path d="M10654 16416
L10616 16397
L10540 16397
L10501 16416
L10482 16435
L10463 16473
L10463 16587
L10482 16625
L10501 16644
L10540 16663
L10616 16663
L10654 16644
" />
<path d="M10120 16397
L10120 16663
" />
<path d="M10292 16397
L10292 16606
L10273 16644
L10235 16663
L10178 16663
L10140 16644
L10120 16625
" />
<path d="M9987 16397
L9835 16397
" />
<path d="M9930 16263
L9930 16606
L9911 16644
L9873 16663
L9835 16663
" />
<path d="M9492 16663
L9720 16663
" />
<path d="M9606 16663
L9606 16263
L9644 16320
L9682 16358
L9720 16378
" />
<path d="M17211 28048
L17249 28048
L17287 28068
L17306 28087
L17325 28125
L17344 28201
L17344 28296
L17325 28372
L17306 28410
L17287 28429
L17249 28448
L17211 28448
L17173 28429
L17154 28410
L17135 28372
L17116 28296
L17116 28201
L17135 28125
L17154 28087
L17173 28068
L17211 28048
" />
<path d="M17516 28410
L17535 28429
L17516 28448
L17497 28429
L17516 28410
L17516 28448
" />
<path d="M17668 28048
L17916 28048
L17782 28201
L17840 28201
L17878 28220
L17897 28239
L17916 28277
L17916 28372
L17897 28410
L17878 28429
L17840 28448
L17725 28448
L17687 28429
L17668 28410
" />
<path d="M18163 28048
L18201 28048
L18240 28068
L18259 28087
L18278 28125
L18297 28201
L18297 28296
L18278 28372
L18259 28410
L18240 28429
L18201 28448
L18163 28448
L18125 28429
L18106 28410
L18087 28372
L18068 28296
L18068 28201
L18087 28125
L18106 28087
L18125 28068
L18163 28048
" />
<path d="M18449 28048
L18449 28125
" />
<path d="M18601 28048
L18601 28125
" />
<path d="M16359 27908
L19359 27908
" />
<path d="M16359 23908
L16359 28628
" />
<path d="M19359 23908
L19359 28628
" />
<path d="M19359 27908
L18915 28138
" />
<path d="M19359 27908
L18915 27677
" />
<path d="M16359 27908
L16802 28138
" />
<path d="M16359 27908
L16802 27677
" />
<path d="M14211 28048
L14249 28048
L14287 28068
L14306 28087
L14325 28125
L14344 28201
L14344 28296
L14325 28372
L14306 28410
L14287 28429
L14249 28448
L14211 28448
L14173 28429
L14154 28410
L14135 28372
L14116 28296
L14116 28201
L14135 28125
L14154 28087
L14173 28068
L14211 28048
" />
<path d="M14516 28410
L14535 28429
L14516 28448
L14497 28429
L14516 28410
L14516 28448
" />
<path d="M14668 28048
L14916 28048
L14782 28201
L14840 28201
L14878 28220
L14897 28239
L14916 28277
L14916 28372
L14897 28410
L14878 28429
L14840 28448
L14725 28448
L14687 28429
L14668 28410
" />
<path d="M15163 28048
L15201 28048
L15240 28068
L15259 28087
L15278 28125
L15297 28201
L15297 28296
L15278 28372
L15259 28410
L15240 28429
L15201 28448
L15163 28448
L15125 28429
L15106 28410
L15087 28372
L15068 28296
L15068 28201
L15087 28125
L15106 28087
L15125 28068
L15163 28048
" />
<path d="M15449 28048
L15449 28125
" />
<path d="M15601 28048
L15601 28125
" />
<path d="M13359 27908
L16359 27908
" />
<path d="M13359 23908
L13359 28628
" />
<path d="M16359 23908
L16359 28628
" />
<path d="M16359 27908
L15915 28138
" />
<path d="M16359 27908
L15915 27677
" />
<path d="M13359 27908
L13802 28138
" />
<path d="M13359 27908
L13802 27677
" />
<path d="M21711 28048
L21749 28048
L21787 28068
L21806 28087
L21825 28125
L21844 28201
L21844 28296
L21825 28372
L21806 28410
L21787 28429
L21749 28448
L21711 28448
L21673 28429
L21654 28410
L21635 28372
L21616 28296
L21616 28201
L21635 28125
L21654 28087
L21673 28068
L21711 28048
" />
<path d="M22016 28410
L22035 28429
L22016 28448
L21997 28429
L22016 28410
L22016 28448
" />
<path d="M22378 28048
L22301 28048
L22263 28068
L22244 28087
L22206 28144
L22187 28220
L22187 28372
L22206 28410
L22225 28429
L22263 28448
L22340 28448
L22378 28429
L22397 28410
L22416 28372
L22416 28277
L22397 28239
L22378 28220
L22340 28201
L22263 28201
L22225 28220
L22206 28239
L22187 28277
" />
<path d="M22663 28048
L22701 28048
L22740 28068
L22759 28087
L22778 28125
L22797 28201
L22797 28296
L22778 28372
L22759 28410
L22740 28429
L22701 28448
L22663 28448
L22625 28429
L22606 28410
L22587 28372
L22568 28296
L22568 28201
L22587 28125
L22606 28087
L22625 28068
L22663 28048
" />
<path d="M22949 28048
L22949 28125
" />
<path d="M23101 28048
L23101 28125
" />
<path d="M19359 27908
L25359 27908
" />
<path d="M19359 23908
L19359 28628
" />
<path d="M25359 23908
L25359 28628
" />
<path d="M25359 27908
L24915 28138
" />
<path d="M25359 27908
L24915 27677
" />
<path d="M19359 27908
L19802 28138
" />
<path d="M19359 27908
L19802 27677
" />
<path d="M9711 28048
L9749 28048
L9787 28068
L9806 28087
L9825 28125
L9844 28201
L9844 28296
L9825 28372
L9806 28410
L9787 28429
L9749 28448
L9711 28448
L9673 28429
L9654 28410
L9635 28372
L9616 28296
L9616 28201
L9635 28125
L9654 28087
L9673 28068
L9711 28048
" />
<path d="M10016 28410
L10035 28429
L10016 28448
L9997 28429
L10016 28410
L10016 28448
" />
<path d="M10378 28048
L10301 28048
L10263 28068
L10244 28087
L10206 28144
L10187 28220
L10187 28372
L10206 28410
L10225 28429
L10263 28448
L10340 28448
L10378 28429
L10397 28410
L10416 28372
L10416 28277
L10397 28239
L10378 28220
L10340 28201
L10263 28201
L10225 28220
L10206 28239
L10187 28277
" />
<path d="M10663 28048
L10701 28048
L10740 28068
L10759 28087
L10778 28125
L10797 28201
L10797 28296
L10778 28372
L10759 28410
L10740 28429
L10701 28448
L10663 28448
L10625 28429
L10606 28410
L10587 28372
L10568 28296
L10568 28201
L10587 28125
L10606 28087
L10625 28068
L10663 28048
" />
<path d="M10949 28048
L10949 28125
" />
<path d="M11101 28048
L11101 28125
" />
<path d="M7359 27908
L13359 27908
" />
<path d="M7359 23908
L7359 28628
" />
<path d="M13359 23908
L13359 28628
" />
<path d="M13359 27908
L12915 28138
" />
<path d="M13359 27908
L12915 27677
" />
<path d="M7359 27908
L7802 28138
" />
<path d="M7359 27908
L7802 27677
" />
<path d="M5211 28048
L5249 28048
L5287 28068
L5306 28087
L5325 28125
L5344 28201
L5344 28296
L5325 28372
L5306 28410
L5287 28429
L5249 28448
L5211 28448
L5173 28429
L5154 28410
L5135 28372
L5116 28296
L5116 28201
L5135 28125
L5154 28087
L5173 28068
L5211 28048
" />
<path d="M5516 28410
L5535 28429
L5516 28448
L5497 28429
L5516 28410
L5516 28448
" />
<path d="M5668 28048
L5916 28048
L5782 28201
L5840 28201
L5878 28220
L5897 28239
L5916 28277
L5916 28372
L5897 28410
L5878 28429
L5840 28448
L5725 28448
L5687 28429
L5668 28410
" />
<path d="M6163 28048
L6201 28048
L6240 28068
L6259 28087
L6278 28125
L6297 28201
L6297 28296
L6278 28372
L6259 28410
L6240 28429
L6201 28448
L6163 28448
L6125 28429
L6106 28410
L6087 28372
L6068 28296
L6068 28201
L6087 28125
L6106 28087
L6125 28068
L6163 28048
" />
<path d="M6449 28048
L6449 28125
" />
<path d="M6601 28048
L6601 28125
" />
<path d="M4359 27908
L7359 27908
" />
<path d="M4359 23908
L4359 28628
" />
<path d="M7359 23908
L7359 28628
" />
<path d="M7359 27908
L6915 28138
" />
<path d="M7359 27908
L6915 27677
" />
<path d="M4359 27908
L4802 28138
" />
<path d="M4359 27908
L4802 27677
" />
<path d="M2280 24555
L2280 24517
L2299 24479
L2318 24460
L2356 24441
L2432 24422
L2527 24422
L2603 24441
L2641 24460
L2660 24479
L2680 24517
L2680 24555
L2660 24593
L2641 24612
L2603 24631
L2527 24650
L2432 24650
L2356 24631
L2318 24612
L2299 24593
L2280 24555
" />
<path d="M2641 24250
L2660 24231
L2680 24250
L2660 24269
L2641 24250
L2680 24250
" />
<path d="M2280 23888
L2280 23965
L2299 24003
L2318 24022
L2375 24060
L2451 24079
L2603 24079
L2641 24060
L2660 24041
L2680 24003
L2680 23927
L2660 23888
L2641 23869
L2603 23850
L2508 23850
L2470 23869
L2451 23888
L2432 23927
L2432 24003
L2451 24041
L2470 24060
L2508 24079
" />
<path d="M2280 23603
L2280 23565
L2299 23527
L2318 23508
L2356 23488
L2432 23469
L2527 23469
L2603 23488
L2641 23508
L2660 23527
L2680 23565
L2680 23603
L2660 23641
L2641 23660
L2603 23679
L2527 23698
L2432 23698
L2356 23679
L2318 23660
L2299 23641
L2280 23603
" />
<path d="M2280 23317
L2356 23317
" />
<path d="M2280 23165
L2356 23165
" />
<path d="M2859 26908
L2859 20908
" />
<path d="M3859 26908
L2139 26908
" />
<path d="M3859 20908
L2139 20908
" />
<path d="M2859 20908
L3089 21351
" />
<path d="M2859 20908
L2628 21351
" />
<path d="M2859 26908
L3089 26464
" />
<path d="M2859 26908
L2628 26464
" />
<path d="M2680 15422
L2680 15650
" />
<path d="M2680 15536
L2280 15536
L2337 15574
L2375 15612
L2394 15650
" />
<path d="M2641 15250
L2660 15231
L2680 15250
L2660 15269
L2641 15250
L2680 15250
" />
<path d="M2318 15079
L2299 15060
L2280 15022
L2280 14927
L2299 14888
L2318 14869
L2356 14850
L2394 14850
L2451 14869
L2680 15098
L2680 14850
" />
<path d="M2280 14603
L2280 14565
L2299 14527
L2318 14508
L2356 14488
L2432 14469
L2527 14469
L2603 14488
L2641 14508
L2660 14527
L2680 14565
L2680 14603
L2660 14641
L2641 14660
L2603 14679
L2527 14698
L2432 14698
L2356 14679
L2318 14660
L2299 14641
L2280 14603
" />
<path d="M2280 14317
L2356 14317
" />
<path d="M2280 14165
L2356 14165
" />
<path d="M2859 20908
L2859 8908
" />
<path d="M3859 20908
L2139 20908
" />
<path d="M3859 8908
L2139 8908
" />
<path d="M2859 8908
L3089 9351
" />
<path d="M2859 8908
L2628 9351
" />
<path d="M2859 20908
L3089 20464
" />
<path d="M2859 20908
L2628 20464
" />
<path d="M640 9555
L640 9517
L659 9479
L678 9460
L716 9441
L792 9422
L887 9422
L963 9441
L1001 9460
L1020 9479
L1040 9517
L1040 9555
L1020 9593
L1001 9612
L963 9631
L887 9650
L792 9650
L716 9631
L678 9612
L659 9593
L640 9555
" />
<path d="M1001 9250
L1020 9231
L1040 9250
L1020 9269
L1001 9250
L1040 9250
" />
<path d="M1040 8850
L1040 9079
" />
<path d="M1040 8965
L640 8965
L697 9003
L735 9041
L754 9079
" />
<path d="M678 8698
L659 8679
L640 8641
L640 8546
L659 8508
L678 8488
L716 8469
L754 8469
L811 8488
L1040 8717
L1040 8469
" />
<path d="M640 8317
L716 8317
" />
<path d="M640 8165
L716 8165
" />
<path d="M1859 9508
L1859 8308
" />
<path d="M3859 9508
L1139 9508
" />
<path d="M3859 8308
L1139 8308
" />
<path d="M1859 8308
L2089 8751
" />
<path d="M1859 8308
L1628 8751
" />
<path d="M1859 9508
L2089 9064
" />
<path d="M1859 9508
L1628 9064
" />
</g>
<g style="fill:#000000; fill-opacity:0.0; 
stroke:#000000; stroke-width:100; stroke-opacity:1; 
stroke-linecap:round; stroke-linejoin:round;">
<circle cx="16359" cy="14908" r="250" /> 
</g>
<g style="fill:#000000; fill-opacity:0.0; 
stroke:#000000; stroke-width:80; stroke-opacity:1; 
stroke-linecap:round; stroke-linejoin:round;">
<path d="M1540 6555
L1540 6517
L1559 6479
L1578 6460
L1616 6441
L1692 6422
L1787 6422
L1863 6441
L1901 6460
L1920 6479
L1940 6517
L1940 6555
L1920 6593
L1901 6612
L1863 6631
L1787 6650
L1692 6650
L1616 6631
L1578 6612
L1559 6593
L1540 6555
" />
<path d="M1901 6250
L1920 6231
L1940 6250
L1920 6269
L1901 6250
L1940 6250
" />
<path d="M1540 6098
L1540 5850
L1692 5984
L1692 5927
L1711 5888
L1730 5869
L1768 5850
L1863 5850
L1901 5869
L1920 5888
L1940 5927
L1940 6041
L1920 6079
L1901 6098
" />
<path d="M1540 5603
L1540 5565
L1559 5527
L1578 5508
L1616 5488
L1692 5469
L1787 5469
L1863 5488
L1901 5508
L1920 5527
L1940 5565
L1940 5603
L1920 5641
L1901 5660
L1863 5679
L1787 5698
L1692 5698
L1616 5679
L1578 5660
L1559 5641
L1540 5603
" />
<path d="M1540 5317
L1616 5317
" />
<path d="M1540 5165
L1616 5165
" />
<path d="M2859 7408
L2859 4408
" />
<path d="M3859 7408
L2139 7408
" />
<path d="M3859 4408
L2139 4408
" />
<path d="M2859 4408
L3089 4851
" />
<path d="M2859 4408
L2628 4851
" />
<path d="M2859 7408
L3089 6964
" />
<path d="M2859 7408
L2628 6964
" />
<path d="M1540 4255
L1540 4217
L1559 4179
L1578 4160
L1616 4141
L1692 4122
L1787 4122
L1863 4141
L1901 4160
L1920 4179
L1940 4217
L1940 4255
L1920 4293
L1901 4312
L1863 4331
L1787 4350
L1692 4350
L1616 4331
L1578 4312
L1559 4293
L1540 4255
" />
<path d="M1901 3950
L1920 3931
L1940 3950
L1920 3969
L1901 3950
L1940 3950
" />
<path d="M1940 3550
L1940 3779
" />
<path d="M1940 3665
L1540 3665
L1597 3703
L1635 3741
L1654 3779
" />
<path d="M1540 3188
L1540 3379
L1730 3398
L1711 3379
L1692 3341
L1692 3246
L1711 3208
L1730 3188
L1768 3169
L1863 3169
L1901 3188
L1920 3208
L1940 3246
L1940 3341
L1920 3379
L1901 3398
" />
<path d="M1540 3017
L1616 3017
" />
<path d="M1540 2865
L1616 2865
" />
<path d="M2859 4408
L2859 2908
" />
<path d="M3859 4408
L2139 4408
" />
<path d="M3859 2908
L2139 2908
" />
<path d="M2859 2908
L3089 3351
" />
<path d="M2859 2908
L2628 3351
" />
<path d="M2859 4408
L3089 3964
" />
<path d="M2859 4408
L2628 3964
" />
<path d="M6711 88
L6749 88
L6787 108
L6806 127
L6825 165
L6844 241
L6844 336
L6825 412
L6806 450
L6787 469
L6749 488
L6711 488
L6673 469
L6654 450
L6635 412
L6616 336
L6616 241
L6635 165
L6654 127
L6673 108
L6711 88
" />
<path d="M7016 450
L7035 469
L7016 488
L6997 469
L7016 450
L7016 488
" />
<path d="M7168 88
L7416 88
L7282 241
L7340 241
L7378 260
L7397 279
L7416 317
L7416 412
L7397 450
L7378 469
L7340 488
L7225 488
L7187 469
L7168 450
" />
<path d="M7663 88
L7701 88
L7740 108
L7759 127
L7778 165
L7797 241
L7797 336
L7778 412
L7759 450
L7740 469
L7701 488
L7663 488
L7625 469
L7606 450
L7587 412
L7568 336
L7568 241
L7587 165
L7606 127
L7625 108
L7663 88
" />
<path d="M7949 88
L7949 165
" />
<path d="M8101 88
L8101 165
" />
<path d="M5859 1408
L8859 1408
" />
<path d="M5859 2408
L5859 688
" />
<path d="M8859 2408
L8859 688
" />
<path d="M8859 1408
L8415 1638
" />
<path d="M8859 1408
L8415 1177
" />
<path d="M5859 1408
L6302 1638
" />
<path d="M5859 1408
L6302 1177
" />
<path d="M4511 88
L4549 88
L4587 108
L4606 127
L4625 165
L4644 241
L4644 336
L4625 412
L4606 450
L4587 469
L4549 488
L4511 488
L4473 469
L4454 450
L4435 412
L4416 336
L4416 241
L4435 165
L4454 127
L4473 108
L4511 88
" />
<path d="M4816 450
L4835 469
L4816 488
L4797 469
L4816 450
L4816 488
" />
<path d="M5216 488
L4987 488
" />
<path d="M5101 488
L5101 88
L5063 146
L5025 184
L4987 203
" />
<path d="M5578 88
L5387 88
L5368 279
L5387 260
L5425 241
L5520 241
L5559 260
L5578 279
L5597 317
L5597 412
L5578 450
L5559 469
L5520 488
L5425 488
L5387 469
L5368 450
" />
<path d="M5749 88
L5749 165
" />
<path d="M5901 88
L5901 165
" />
<path d="M4359 1408
L5859 1408
" />
<path d="M4359 2408
L4359 688
" />
<path d="M5859 2408
L5859 688
" />
<path d="M5859 1408
L5415 1638
" />
<path d="M5859 1408
L5415 1177
" />
<path d="M4359 1408
L4802 1638
" />
<path d="M4359 1408
L4802 1177
" />
<path d="M31038 15650
L31019 15631
L31000 15593
L31000 15498
L31019 15460
L31038 15441
L31076 15422
L31114 15422
L31171 15441
L31400 15669
L31400 15422
" />
<path d="M31361 15250
L31380 15231
L31400 15250
L31380 15269
L31361 15250
L31400 15250
" />
<path d="M31133 14888
L31400 14888
" />
<path d="M30980 14984
L31266 15079
L31266 14831
" />
<path d="M31000 14603
L31000 14565
L31019 14527
L31038 14508
L31076 14488
L31152 14469
L31247 14469
L31323 14488
L31361 14508
L31380 14527
L31400 14565
L31400 14603
L31380 14641
L31361 14660
L31323 14679
L31247 14698
L31152 14698
L31076 14679
L31038 14660
L31019 14641
L31000 14603
" />
<path d="M31000 14317
L31076 14317
" />
<path d="M31000 14165
L31076 14165
" />
<path d="M30859 26908
L30859 2908
" />
<path d="M28859 26908
L31579 26908
" />
<path d="M28859 2908
L31579 2908
" />
<path d="M30859 2908
L31089 3351
" />
<path d="M30859 2908
L30628 3351
" />
<path d="M30859 26908
L31089 26464
" />
<path d="M30859 26908
L30628 26464
" />
<path d="M15616 29587
L15635 29568
L15673 29548
L15768 29548
L15806 29568
L15825 29587
L15844 29625
L15844 29663
L15825 29720
L15597 29948
L15844 29948
" />
<path d="M16016 29910
L16035 29929
L16016 29948
L15997 29929
L16016 29910
L16016 29948
" />
<path d="M16378 29682
L16378 29948
" />
<path d="M16282 29529
L16187 29815
L16435 29815
" />
<path d="M16663 29548
L16701 29548
L16740 29568
L16759 29587
L16778 29625
L16797 29701
L16797 29796
L16778 29872
L16759 29910
L16740 29929
L16701 29948
L16663 29948
L16625 29929
L16606 29910
L16587 29872
L16568 29796
L16568 29701
L16587 29625
L16606 29587
L16625 29568
L16663 29548
" />
<path d="M16949 29548
L16949 29625
" />
<path d="M17101 29548
L17101 29625
" />
<path d="M4359 29408
L28359 29408
" />
<path d="M4359 27408
L4359 30128
" />
<path d="M28359 27408
L28359 30128
" />
<path d="M28359 29408
L27915 29638
" />
<path d="M28359 29408
L27915 29177
" />
<path d="M4359 29408
L4802 29638
" />
<path d="M4359 29408
L4802 29177
" />
</g>
<g style="fill:#000000; fill-opacity:0.0; 
stroke:#000000; stroke-width:100; stroke-opacity:1; 
stroke-linecap:round; stroke-linejoin:round;">
<path d="M8859 3808
L8859 5008
" />
<circle cx="5859.05" cy="7408" r="350" /> 
<path d="M5259 7408
L6459 7408
" />
<path d="M5859 6808
L5859 8008
" />
<path d="M5859 3808
L5859 5008
" />
<path d="M5259 4408
L6459 4408
" />
<circle cx="5859.05" cy="4408" r="350" /> 
<path d="M8259 4408
L9459 4408
" />
<circle cx="8859.05" cy="4408" r="350" /> 
<path d="M23459 13808
L21259 13808
" />
<path d="M21259 13808
L21259 16008
" />
<path d="M21259 16008
L23459 16008
" />
<path d="M23459 16008
L23459 13808
" />
<path d="M15259 19808
L15259 22008
" />
<path d="M15259 22008
L17459 22008
" />
<path d="M17459 22008
L17459 19808
" />
<path d="M17459 19808
L15259 19808
" />
<path d="M17459 10008
L17459 7808
" />
<path d="M17459 7808
L15259 7808
" />
<path d="M15259 7808
L15259 10008
" />
<path d="M15259 10008
L17459 10008
" />
<path d="M11459 13808
L9259 13808
" />
<path d="M9259 13808
L9259 16008
" />
<path d="M9259 16008
L11459 16008
" />
<path d="M11459 16008
L11459 13808
" />
<path d="M28359 14308
L28359 9508
" />
<path d="M16959 26908
L21759 26908
" />
<path d="M4359 15508
L4359 20308
" />
<path d="M10959 2908
L15759 2908
" />
<path d="M28359 14308 A600 600 0.0 0 0 28359 15508 " />
<path d="M15759 2908 A600 600 0.0 0 0 16959 2908 " />
<path d="M4359.05 15508 A600 600 0.0 0 0 4359.05 14308 " />
<path d="M16959 26908 A600 600 0.0 0 0 15759 26908 " />
<path d="M27759 2908 A600 600 0.0 0 0 28359 3508 " />
<path d="M4359.05 3508 A600 600 0.0 0 0 4959.05 2908 " />
<path d="M4959.05 26908 A600 600 0.0 0 0 4359.05 26308 " />
<path d="M28359 26308 A600 600 0.0 0 0 27759 26908 " />
<path d="M15759 26908
L10959 26908
" />
<path d="M27759 26908
L22959 26908
" />
<path d="M28359 21508
L28359 26308
" />
<path d="M28359 15508
L28359 20308
" />
<path d="M28359 3508
L28359 8308
" />
<path d="M22959 2908
L27759 2908
" />
<path d="M16959 2908
L21759 2908
" />
<path d="M4959 2908
L9759 2908
" />
<path d="M4359 8308
L4359 3508
" />
<path d="M4359 14308
L4359 9508
" />
<path d="M4359 26308
L4359 21508
" />
<path d="M9759 26908
L4959 26908
" />
<path d="M28359 20308 A600 600 0.0 0 0 27759 20908 " />
<path d="M27759 20908 A600 600 0.0 0 0 28359 21508 " />
<path d="M28359 8308 A600 600 0.0 0 0 27759 8908 " />
<path d="M27759 8908 A600 600 0.0 0 0 28359 9508 " />
<path d="M21759 2908 A600 600 0.0 0 0 22359 3508 " />
<path d="M22359 3508 A600 600 0.0 0 0 22959 2908 " />
<path d="M9759.05 2908 A600 600 0.0 0 0 10359 3508 " />
<path d="M10359 3508 A600 600 0.0 0 0 10959 2908 " />
<path d="M4359.05 9508 A600 600 0.0 0 0 4959.05 8908 " />
<path d="M4959.05 8908 A600 600 0.0 0 0 4359.05 8308 " />
<path d="M4359.05 21508 A600 600 0.0 0 0 4959.05 20908 " />
<path d="M4959.05 20908 A600 600 0.0 0 0 4359.05 20308 " />
<path d="M10959 26908 A600 600 0.0 0 0 10359 26308 " />
<path d="M10359 26308 A600 600 0.0 0 0 9759.05 26908 " />
<path d="M22359 26308 A600 600 0.0 0 0 21759 26908 " />
<path d="M22959 26908 A600 600 0.0 0 0 22359 26308 " />
</g> 
</svg>
