  0
SECTION
  2
HEADER
  9
$ACADVER
  1
AC1009
  9
$INSBASE
 10
0.0
 20
0.0
 30
0.0
  9
$EXTMIN
 10
0.0
 20
0.0
 30
0.0
  9
$EXTMAX
 10
0.0
 20
0.0
 30
0.0
  0
ENDSEC
  0
SECTION
  2
TABLES
  0
TABLE
  2
VPORT
 70
0
  0
ENDTAB
  0
TABLE
  2
LTYPE
 70
1
  0
LTYPE
  2
CONTINUOUS
 70
0
  3
Solid line
 72
65
 73
0
 40
0.0
  0
ENDTAB
  0
TABLE
  2
LAYER
 70
1
  0
LAYER
  2
0
 70
64
 62
7
  6
continuous
  0
ENDTAB
  0
TABLE
  2
STYLE
 70
1
  0
STYLE
  2
STANDARD
 70
0
 40
0
 41
1.0
 50
0.0
 71
0
 42
1
 3
ARIAL.TTF
 4

  0
ENDTAB
  0
TABLE
  2
VIEW
 70
0
  0
ENDTAB
  0
ENDSEC
  0
SECTION
  2
BLOCKS
  0
BLOCK
  8
0
  2
SHAPE2DVIEW001
 70
0
 10
0.0
 20
0.0
 30
0.0
  3
SHAPE2DVIEW001
  0
LINE
  8
0
 62
0
 10
-25.78
 20
-28.13
 30
0.0
 11
-15.24
 21
-28.13
 31
0.0
  0
LINE
  8
0
 62
0
 10
-15.24
 20
-28.13
 30
0.0
 11
-15.24
 21
-25.78
 31
0.0
  0
LINE
  8
0
 62
0
 10
-15.24
 20
-25.78
 30
0.0
 11
0.0
 21
-25.78
 31
0.0
  0
LINE
  8
0
 62
0
 10
0.0
 20
-25.78
 30
0.0
 11
0.0
 21
-28.13
 31
0.0
  0
LINE
  8
0
 62
0
 10
0.0
 20
-28.13
 30
0.0
 11
15.24
 21
-28.13
 31
0.0
  0
LINE
  8
0
 62
0
 10
15.24
 20
-28.13
 30
0.0
 11
15.24
 21
-25.78
 31
0.0
  0
LINE
  8
0
 62
0
 10
15.24
 20
-25.78
 30
0.0
 11
28.13
 21
-25.78
 31
0.0
  0
LINE
  8
0
 62
0
 10
28.13
 20
-25.78
 30
0.0
 11
28.13
 21
-15.24
 31
0.0
  0
LINE
  8
0
 62
0
 10
28.13
 20
-15.24
 30
0.0
 11
25.78
 21
-15.24
 31
0.0
  0
LINE
  8
0
 62
0
 10
25.78
 20
-15.24
 30
0.0
 11
25.78
 21
0.0
 31
0.0
  0
LINE
  8
0
 62
0
 10
25.78
 20
0.0
 30
0.0
 11
28.13
 21
0.0
 31
0.0
  0
LINE
  8
0
 62
0
 10
28.13
 20
0.0
 30
0.0
 11
28.13
 21
15.24
 31
0.0
  0
LINE
  8
0
 62
0
 10
28.13
 20
15.24
 30
0.0
 11
25.78
 21
15.24
 31
0.0
  0
LINE
  8
0
 62
0
 10
25.78
 20
15.24
 30
0.0
 11
25.78
 21
28.13
 31
0.0
  0
LINE
  8
0
 62
0
 10
25.78
 20
28.13
 30
0.0
 11
15.24
 21
28.13
 31
0.0
  0
LINE
  8
0
 62
0
 10
15.24
 20
28.13
 30
0.0
 11
15.24
 21
25.78
 31
0.0
  0
LINE
  8
0
 62
0
 10
15.24
 20
25.78
 30
0.0
 11
0.0
 21
25.78
 31
0.0
  0
LINE
  8
0
 62
0
 10
0.0
 20
25.78
 30
0.0
 11
0.0
 21
28.13
 31
0.0
  0
LINE
  8
0
 62
0
 10
0.0
 20
28.13
 30
0.0
 11
-15.24
 21
28.13
 31
0.0
  0
LINE
  8
0
 62
0
 10
-15.24
 20
28.13
 30
0.0
 11
-15.24
 21
25.78
 31
0.0
  0
LINE
  8
0
 62
0
 10
-15.24
 20
25.78
 30
0.0
 11
-28.13
 21
25.78
 31
0.0
  0
LINE
  8
0
 62
0
 10
-28.13
 20
25.78
 30
0.0
 11
-28.13
 21
15.24
 31
0.0
  0
LINE
  8
0
 62
0
 10
-28.13
 20
15.24
 30
0.0
 11
-25.78
 21
15.24
 31
0.0
  0
LINE
  8
0
 62
0
 10
-25.78
 20
15.24
 30
0.0
 11
-25.78
 21
0.0
 31
0.0
  0
LINE
  8
0
 62
0
 10
-25.78
 20
0.0
 30
0.0
 11
-28.13
 21
0.0
 31
0.0
  0
LINE
  8
0
 62
0
 10
-28.13
 20
0.0
 30
0.0
 11
-28.13
 21
-15.24
 31
0.0
  0
LINE
  8
0
 62
0
 10
-28.13
 20
-15.24
 30
0.0
 11
-25.78
 21
-15.24
 31
0.0
  0
LINE
  8
0
 62
0
 10
-25.78
 20
-15.24
 30
0.0
 11
-25.78
 21
-28.13
 31
0.0
  0
LINE
  8
0
 62
0
 10
-25.8622213998
 20
22.86
 30
0.0
 11
-24.3611106999
 21
25.46
 31
0.0
  0
LINE
  8
0
 62
0
 10
-24.3611106999
 20
25.46
 30
0.0
 11
-21.3588893001
 21
25.46
 31
0.0
  0
LINE
  8
0
 62
0
 10
-21.3588893001
 20
25.46
 30
0.0
 11
-19.8577786002
 21
22.86
 31
0.0
  0
LINE
  8
0
 62
0
 10
-19.8577786002
 20
22.86
 30
0.0
 11
-21.3588893001
 21
20.26
 31
0.0
  0
LINE
  8
0
 62
0
 10
-21.3588893001
 20
20.26
 30
0.0
 11
-24.3611106999
 21
20.26
 31
0.0
  0
LINE
  8
0
 62
0
 10
-24.3611106999
 20
20.26
 30
0.0
 11
-25.8622213998
 21
22.86
 31
0.0
  0
LINE
  8
0
 62
0
 10
25.8622213998
 20
-22.86
 30
0.0
 11
24.3611106999
 21
-25.46
 31
0.0
  0
LINE
  8
0
 62
0
 10
24.3611106999
 20
-25.46
 30
0.0
 11
21.3588893001
 21
-25.46
 31
0.0
  0
LINE
  8
0
 62
0
 10
21.3588893001
 20
-25.46
 30
0.0
 11
19.8577786002
 21
-22.86
 31
0.0
  0
LINE
  8
0
 62
0
 10
19.8577786002
 20
-22.86
 30
0.0
 11
21.3588893001
 21
-20.26
 31
0.0
  0
LINE
  8
0
 62
0
 10
21.3588893001
 20
-20.26
 30
0.0
 11
24.3611106999
 21
-20.26
 31
0.0
  0
LINE
  8
0
 62
0
 10
24.3611106999
 20
-20.26
 30
0.0
 11
25.8622213998
 21
-22.86
 31
0.0
  0
LINE
  8
0
 62
0
 10
25.46
 20
24.3611106999
 30
0.0
 11
25.46
 21
21.3588893001
 31
0.0
  0
LINE
  8
0
 62
0
 10
25.46
 20
21.3588893001
 30
0.0
 11
22.86
 21
19.8577786002
 31
0.0
  0
LINE
  8
0
 62
0
 10
22.86
 20
19.8577786002
 30
0.0
 11
20.26
 21
21.3588893001
 31
0.0
  0
LINE
  8
0
 62
0
 10
20.26
 20
21.3588893001
 30
0.0
 11
20.26
 21
24.3611106999
 31
0.0
  0
LINE
  8
0
 62
0
 10
20.26
 20
24.3611106999
 30
0.0
 11
22.86
 21
25.8622213998
 31
0.0
  0
LINE
  8
0
 62
0
 10
22.86
 20
25.8622213998
 30
0.0
 11
25.46
 21
24.3611106999
 31
0.0
  0
LINE
  8
0
 62
0
 10
-20.26
 20
-21.3588893001
 30
0.0
 11
-20.26
 21
-24.3611106999
 31
0.0
  0
LINE
  8
0
 62
0
 10
-20.26
 20
-24.3611106999
 30
0.0
 11
-22.86
 21
-25.8622213998
 31
0.0
  0
LINE
  8
0
 62
0
 10
-22.86
 20
-25.8622213998
 30
0.0
 11
-25.46
 21
-24.3611106999
 31
0.0
  0
LINE
  8
0
 62
0
 10
-25.46
 20
-24.3611106999
 30
0.0
 11
-25.46
 21
-21.3588893001
 31
0.0
  0
LINE
  8
0
 62
0
 10
-25.46
 20
-21.3588893001
 30
0.0
 11
-22.86
 21
-19.8577786002
 31
0.0
  0
LINE
  8
0
 62
0
 10
-22.86
 20
-19.8577786002
 30
0.0
 11
-20.26
 21
-21.3588893001
 31
0.0
  0
LINE
  8
0
 62
0
 10
-5.02000000001
 20
9.12111069989
 30
0.0
 11
-5.02000000001
 21
6.11888930011
 31
0.0
  0
LINE
  8
0
 62
0
 10
-5.02000000001
 20
6.11888930011
 30
0.0
 11
-7.62
 21
4.61777860022
 31
0.0
  0
LINE
  8
0
 62
0
 10
-7.62
 20
4.61777860022
 30
0.0
 11
-10.22
 21
6.11888930011
 31
0.0
  0
LINE
  8
0
 62
0
 10
-10.22
 20
6.11888930011
 30
0.0
 11
-10.22
 21
9.12111069991
 31
0.0
  0
LINE
  8
0
 62
0
 10
-10.22
 20
9.12111069991
 30
0.0
 11
-7.62
 21
10.6222213998
 31
0.0
  0
LINE
  8
0
 62
0
 10
-7.62
 20
10.6222213998
 30
0.0
 11
-5.02000000001
 21
9.12111069989
 31
0.0
  0
LINE
  8
0
 62
0
 10
10.22
 20
9.12111069989
 30
0.0
 11
10.22
 21
6.11888930011
 31
0.0
  0
LINE
  8
0
 62
0
 10
10.22
 20
6.11888930011
 30
0.0
 11
7.62
 21
4.61777860022
 31
0.0
  0
LINE
  8
0
 62
0
 10
7.62
 20
4.61777860022
 30
0.0
 11
5.01999999999
 21
6.11888930012
 31
0.0
  0
LINE
  8
0
 62
0
 10
5.01999999999
 20
6.11888930012
 30
0.0
 11
5.01999999999
 21
9.12111069991
 31
0.0
  0
LINE
  8
0
 62
0
 10
5.01999999999
 20
9.12111069991
 30
0.0
 11
7.62
 21
10.6222213998
 31
0.0
  0
LINE
  8
0
 62
0
 10
7.62
 20
10.6222213998
 30
0.0
 11
10.22
 21
9.12111069989
 31
0.0
  0
LINE
  8
0
 62
0
 10
-5.02000000001
 20
-6.11888930011
 30
0.0
 11
-5.02000000001
 21
-9.12111069989
 31
0.0
  0
LINE
  8
0
 62
0
 10
-5.02000000001
 20
-9.12111069989
 30
0.0
 11
-7.62
 21
-10.6222213998
 31
0.0
  0
LINE
  8
0
 62
0
 10
-7.62
 20
-10.6222213998
 30
0.0
 11
-10.22
 21
-9.12111069988
 31
0.0
  0
LINE
  8
0
 62
0
 10
-10.22
 20
-9.12111069988
 30
0.0
 11
-10.22
 21
-6.11888930009
 31
0.0
  0
LINE
  8
0
 62
0
 10
-10.22
 20
-6.11888930009
 30
0.0
 11
-7.62
 21
-4.61777860022
 31
0.0
  0
LINE
  8
0
 62
0
 10
-7.62
 20
-4.61777860022
 30
0.0
 11
-5.02000000001
 21
-6.11888930011
 31
0.0
  0
LINE
  8
0
 62
0
 10
10.22
 20
-6.11888930011
 30
0.0
 11
10.22
 21
-9.12111069989
 31
0.0
  0
LINE
  8
0
 62
0
 10
10.22
 20
-9.12111069989
 30
0.0
 11
7.62
 21
-10.6222213998
 31
0.0
  0
LINE
  8
0
 62
0
 10
7.62
 20
-10.6222213998
 30
0.0
 11
5.01999999999
 21
-9.12111069988
 31
0.0
  0
LINE
  8
0
 62
0
 10
5.01999999999
 20
-9.12111069988
 30
0.0
 11
5.01999999999
 21
-6.11888930009
 31
0.0
  0
LINE
  8
0
 62
0
 10
5.01999999999
 20
-6.11888930009
 30
0.0
 11
7.62
 21
-4.61777860022
 31
0.0
  0
LINE
  8
0
 62
0
 10
7.62
 20
-4.61777860022
 30
0.0
 11
10.22
 21
-6.11888930011
 31
0.0
  0
ENDBLK
  0
ENDSEC
  0
SECTION
  2
ENTITIES
  0
INSERT
  2
SHAPE2DVIEW001
  8
0
 62
0
 10
0.0
 20
0.0
 30
0.0
  0
ENDSEC
  0
EOF
