999
dxfrw 0.6.3
  0
SECTION
  2
HEADER
  9
$ACADVER
  1
AC1009
  9
$DWGCODEPAGE
  3
ANSI_1252
  9
$INSBASE
 10
0
 20
0
 30
0
  9
$EXTMIN
 10
-2.350000000000001
 20
0
 30
0
  9
$EXTMAX
 10
351.6600000000001
 20
119.26
 30
0
  9
$LIMMIN
 10
0
 20
0
  9
$LIMMAX
 10
420
 20
297
  9
$ORTHOMODE
 70
    0
  9
$REGENMODE
 70
    1
  9
$FILLMODE
 70
    1
  9
$QTEXTMODE
 70
    0
  9
$MIRRTEXT
 70
    0
  9
$DRAGMODE
 70
    2
  9
$LTSCALE
 40
1
  9
$OSMODE
 70
    0
  9
$ATTMODE
 70
    0
  9
$TEXTSIZE
 40
2.5
  9
$TRACEWID
 40
15.68
  9
$TEXTSTYLE
  7
STANDARD
  9
$CLAYER
  8
0
  9
$CELTYPE
  6
BYLAYER
  9
$CECOLOR
 62
  256
  9
$DIMSCALE
 40
2.5
  9
$DIMASZ
 40
2.5
  9
$DIMEXO
 40
0.625
  9
$DIMDLI
 40
3.75
  9
$DIMRND
 40
0
  9
$DIMDLE
 40
0
  9
$DIMEXE
 40
1.25
  9
$DIMTP
 40
0
  9
$DIMTM
 40
0
  9
$DIMTXT
 40
2.5
  9
$DIMCEN
 40
2.5
  9
$DIMTSZ
 40
0
  9
$DIMTOL
 70
    0
  9
$DIMLIM
 70
    0
  9
$DIMTIH
 70
    0
  9
$DIMTOH
 70
    0
  9
$DIMSE1
 70
    0
  9
$DIMSE2
 70
    0
  9
$DIMTAD
 70
    1
  9
$DIMZIN
 70
    8
  9
$DIMBLK
  1

  9
$DIMASO
 70
    1
  9
$DIMSHO
 70
    1
  9
$DIMPOST
  1

  9
$DIMAPOST
  1

  9
$DIMALT
 70
    0
  9
$DIMALTD
 70
    3
  9
$DIMALTF
 40
0.03937
  9
$DIMLFAC
 40
1
  9
$DIMTOFL
 70
    1
  9
$DIMTVP
 40
0
  9
$DIMTIX
 70
    0
  9
$DIMSOXD
 70
    0
  9
$DIMSAH
 70
    0
  9
$DIMBLK1
  1

  9
$DIMBLK2
  1

  9
$DIMSTYLE
  2
STANDARD
  9
$DIMCLRD
 70
    0
  9
$DIMCLRE
 70
    0
  9
$DIMCLRT
 70
    0
  9
$DIMTFAC
 40
1
  9
$DIMGAP
 40
0.625
  9
$LUNITS
 70
    2
  9
$LUPREC
 70
    4
  9
$SKETCHINC
 40
1
  9
$FILLETRAD
 40
0
  9
$AUNITS
 70
    0
  9
$AUPREC
 70
    2
  9
$MENU
  1
.
  9
$ELEVATION
 40
0
  9
$PELEVATION
 40
0
  9
$THICKNESS
 40
0
  9
$LIMCHECK
 70
    0
  9
$BLIPMODE
 70
    0
  9
$CHAMFERA
 40
0
  9
$CHAMFERB
 40
0
  9
$SKPOLY
 70
    0
  9
$USRTIMER
 70
    1
  9
$ANGBASE
 50
0
  9
$ANGDIR
 70
    0
  9
$PDMODE
 70
   34
  9
$PDSIZE
 40
0
  9
$PLINEWID
 40
0
  9
$COORDS
 70
    2
  9
$SPLFRAME
 70
    0
  9
$SPLINETYPE
 70
    2
  9
$SPLINESEGS
 70
    8
  9
$ATTDIA
 70
    1
  9
$ATTREQ
 70
    1
  9
$HANDLING
 70
    1
  9
$HANDSEED
  5
20000
  9
$SURFTAB1
 70
    6
  9
$SURFTAB2
 70
    6
  9
$SURFTYPE
 70
    6
  9
$SURFU
 70
    6
  9
$SURFV
 70
    6
  9
$UCSNAME
  2

  9
$UCSORG
 10
0
 20
0
 30
0
  9
$UCSXDIR
 10
1
 20
0
 30
0
  9
$UCSYDIR
 10
0
 20
1
 30
0
  9
$PUCSNAME
  2

  9
$PUCSORG
 10
0
 20
0
 30
0
  9
$PUCSXDIR
 10
1
 20
0
 30
0
  9
$PUCSYDIR
 10
0
 20
1
 30
0
  9
$USERI1
 70
    0
  9
$USERI2
 70
    0
  9
$USERI3
 70
    0
  9
$USERI4
 70
    0
  9
$USERI5
 70
    0
  9
$USERR1
 40
0
  9
$USERR2
 40
0
  9
$USERR3
 40
0
  9
$USERR4
 40
0
  9
$USERR5
 40
0
  9
$WORLDVIEW
 70
    1
  9
$SHADEDGE
 70
    3
  9
$SHADEDIF
 70
   70
  9
$TILEMODE
 70
    1
  9
$MAXACTVP
 70
   64
  9
$PLIMCHECK
 70
    0
  9
$PEXTMIN
 10
0
 20
0
 30
0
  9
$PEXTMAX
 10
0
 20
0
 30
0
  9
$GRIDMODE
 70
    1
  9
$SNAPSTYLE
 70
    0
  9
$PLIMMIN
 10
0
 20
0
  9
$PLIMMAX
 10
210
 20
297
  9
$UNITMODE
 70
    0
  9
$VISRETAIN
 70
    1
  9
$PLINEGEN
 70
    0
  9
$PSLTSCALE
 70
    1
  0
ENDSEC
  0
SECTION
  2
TABLES
  0
TABLE
  2
VPORT
 70
    1
  0
VPORT
  2
*ACTIVE
 70
    0
 10
0
 20
0
 11
1
 21
1
 12
177.005
 22
67.8038697068404
 13
0
 23
0
 14
10
 24
10
 15
10
 25
10
 16
0
 26
0
 36
1
 17
0
 27
0
 37
0
 40
151.7515179153095
 41
2.36322188449848
 42
50
 43
0
 44
0
 50
0
 51
0
 71
    0
 72
  100
 73
    1
 74
    3
 75
    0
 76
    1
 77
    0
 78
    0
  0
ENDTAB
  0
TABLE
  2
LTYPE
 70
    4
  0
LTYPE
  2
BYBLOCK
 70
    0
  3

 72
   65
 73
    0
 40
0
  0
LTYPE
  2
BYLAYER
 70
    0
  3

 72
   65
 73
    0
 40
0
  0
LTYPE
  2
CONTINUOUS
 70
    0
  3
Solid line
 72
   65
 73
    0
 40
0
  0
LTYPE
  2
DOT
 70
    0
  3
Dot . . . . . . . . . . . . . . . . . . . . . .
 72
   65
 73
    2
 40
6.35
 49
0
 49
-6.35
  0
LTYPE
  2
DOTTINY
 70
    0
  3
Dot (.15x) .....................................
 72
   65
 73
    2
 40
0.9525
 49
0
 49
-0.9525
  0
LTYPE
  2
DOT2
 70
    0
  3
Dot (.5x) .....................................
 72
   65
 73
    2
 40
3.175
 49
0
 49
-3.175
  0
LTYPE
  2
DOTX2
 70
    0
  3
Dot (2x) .  .  .  .  .  .  .  .  .  .  .  .  .
 72
   65
 73
    2
 40
12.7
 49
0
 49
-12.7
  0
LTYPE
  2
DASHED
 70
    0
  3
Dashed _ _ _ _ _ _ _ _ _ _ _ _ _ _ _ _ _
 72
   65
 73
    2
 40
19.05
 49
12.7
 49
-6.35
  0
LTYPE
  2
DASHEDTINY
 70
    0
  3
Dashed (.15x) _ _ _ _ _ _ _ _ _ _ _ _ _ _ _ _ _
 72
   65
 73
    2
 40
2.8575
 49
1.905
 49
-0.9525
  0
LTYPE
  2
DASHED2
 70
    0
  3
Dashed (.5x) _ _ _ _ _ _ _ _ _ _ _ _ _ _ _ _ _
 72
   65
 73
    2
 40
9.524999999999999
 49
6.35
 49
-3.175
  0
LTYPE
  2
DASHEDX2
 70
    0
  3
Dashed (2x) ____  ____  ____  ____  ____  ___
 72
   65
 73
    2
 40
38.09999999999999
 49
25.4
 49
-12.7
  0
LTYPE
  2
DASHDOT
 70
    0
  3
Dash dot __ . __ . __ . __ . __ . __ . __ . __
 72
   65
 73
    4
 40
25.4
 49
12.7
 49
-6.35
 49
0
 49
-6.35
  0
LTYPE
  2
DASHDOTTINY
 70
    0
  3
Dash dot (.15x) _._._._._._._._._._._._._._._.
 72
   65
 73
    4
 40
3.81
 49
1.905
 49
-0.9525
 49
0
 49
-0.9525
  0
LTYPE
  2
DASHDOT2
 70
    0
  3
Dash dot (.5x) _._._._._._._._._._._._._._._.
 72
   65
 73
    4
 40
12.7
 49
6.35
 49
-3.175
 49
0
 49
-3.175
  0
LTYPE
  2
DASHDOTX2
 70
    0
  3
Dash dot (2x) ____  .  ____  .  ____  .  ___
 72
   65
 73
    4
 40
50.8
 49
25.4
 49
-12.7
 49
0
 49
-12.7
  0
LTYPE
  2
DIVIDE
 70
    0
  3
Divide ____ . . ____ . . ____ . . ____ . . ____
 72
   65
 73
    6
 40
31.75
 49
12.7
 49
-6.35
 49
0
 49
-6.35
 49
0
 49
-6.35
  0
LTYPE
  2
DIVIDETINY
 70
    0
  3
Divide (.15x) __..__..__..__..__..__..__..__.._
 72
   65
 73
    6
 40
4.7625
 49
1.905
 49
-0.9525
 49
0
 49
-0.9525
 49
0
 49
-0.9525
  0
LTYPE
  2
DIVIDE2
 70
    0
  3
Divide (.5x) __..__..__..__..__..__..__..__.._
 72
   65
 73
    6
 40
15.875
 49
6.35
 49
-3.175
 49
0
 49
-3.175
 49
0
 49
-3.175
  0
LTYPE
  2
DIVIDEX2
 70
    0
  3
Divide (2x) ________  .  .  ________  .  .  _
 72
   65
 73
    6
 40
63.5
 49
25.4
 49
-12.7
 49
0
 49
-12.7
 49
0
 49
-12.7
  0
LTYPE
  2
BORDER
 70
    0
  3
Border __ __ . __ __ . __ __ . __ __ . __ __ .
 72
   65
 73
    6
 40
44.45
 49
12.7
 49
-6.35
 49
12.7
 49
-6.35
 49
0
 49
-6.35
  0
LTYPE
  2
BORDERTINY
 70
    0
  3
Border (.15x) __.__.__.__.__.__.__.__.__.__.__.
 72
   65
 73
    6
 40
6.6675
 49
1.905
 49
-0.9525
 49
1.905
 49
-0.9525
 49
0
 49
-0.9525
  0
LTYPE
  2
BORDER2
 70
    0
  3
Border (.5x) __.__.__.__.__.__.__.__.__.__.__.
 72
   65
 73
    6
 40
22.225
 49
6.35
 49
-3.175
 49
6.35
 49
-3.175
 49
0
 49
-3.175
  0
LTYPE
  2
BORDERX2
 70
    0
  3
Border (2x) ____  ____  .  ____  ____  .  ___
 72
   65
 73
    6
 40
88.89999999999999
 49
25.4
 49
-12.7
 49
25.4
 49
-12.7
 49
0
 49
-12.7
  0
LTYPE
  2
CENTER
 70
    0
  3
Center ____ _ ____ _ ____ _ ____ _ ____ _ ____
 72
   65
 73
    4
 40
50.8
 49
31.75
 49
-6.35
 49
6.35
 49
-6.35
  0
LTYPE
  2
CENTERTINY
 70
    0
  3
Center (.15x) ___ _ ___ _ ___ _ ___ _ ___ _ ___
 72
   65
 73
    4
 40
7.619999999999999
 49
4.7625
 49
-0.9525
 49
0.9525
 49
-0.9525
  0
LTYPE
  2
CENTER2
 70
    0
  3
Center (.5x) ___ _ ___ _ ___ _ ___ _ ___ _ ___
 72
   65
 73
    4
 40
28.575
 49
19.05
 49
-3.175
 49
3.175
 49
-3.175
  0
LTYPE
  2
CENTERX2
 70
    0
  3
Center (2x) ________  __  ________  __  _____
 72
   65
 73
    4
 40
101.6
 49
63.5
 49
-12.7
 49
12.7
 49
-12.7
  0
ENDTAB
  0
TABLE
  2
LAYER
 70
    1
  0
LAYER
  2
0
 70
    0
 62
    7
  6
CONTINUOUS
  0
ENDTAB
  0
TABLE
  2
STYLE
 70
    3
  0
STYLE
  2
STANDARD
 70
    0
 40
0
 41
1
 50
0
 71
    0
 42
1
  3
TXT
  4

  0
ENDTAB
  0
TABLE
  2
VIEW
 70
    0
  0
ENDTAB
  0
TABLE
  2
UCS
 70
    0
  0
ENDTAB
  0
TABLE
  2
APPID
 70
    1
  0
APPID
  2
ACAD
 70
    0
  0
APPID
  2
LIBRECAD
 70
    0
  0
ENDTAB
  0
TABLE
  2
DIMSTYLE
 70
    1
  0
DIMSTYLE
  2
STANDARD
 70
    0
  3

  4

  5

  6

  7

 40
2.5
 41
2.5
 42
0.625
 43
0.38
 44
1.25
 45
0
 46
0
 47
0
 48
0
 49
1
140
2.5
141
0.09
142
0
143
25.4
144
1
145
0
146
1
147
0.625
 71
    0
 72
    0
 73
    0
 74
    1
 75
    0
 76
    0
 77
    0
 78
    8
170
    0
171
    2
172
    0
173
    0
174
    0
175
    0
176
    0
177
    0
178
    0
  0
ENDTAB
  0
ENDSEC
  0
SECTION
  2
BLOCKS
  0
BLOCK
  8
0
  2
$MODEL_SPACE
 70
    0
 10
0
 20
0
 30
0
  3
$MODEL_SPACE
  1

  0
ENDBLK
  8
0
  0
BLOCK
  8
0
  2
$PAPER_SPACE
 70
    0
 10
0
 20
0
 30
0
  3
$PAPER_SPACE
  1

  0
ENDBLK
  8
0
  0
BLOCK
  8
0
  2
SHAPE2DVIEW
 70
    0
 10
0
 20
0
  3
SHAPE2DVIEW
  1

  0
LINE
  5
31
  8
0
  6
BYLAYER
 62
    0
 10
-28.13
 20
-30.48
 11
-15.24
 21
-30.48
  0
LINE
  5
32
  8
0
  6
BYLAYER
 62
    0
 10
-15.24
 20
-30.48
 11
-15.24
 21
-28.13
  0
LINE
  5
33
  8
0
  6
BYLAYER
 62
    0
 10
-15.24
 20
-28.13
 11
1.7763568394e-15
 21
-28.13
  0
LINE
  5
34
  8
0
  6
BYLAYER
 62
    0
 10
-4.70480553119e-18
 20
-28.13
 11
-4.70480553119e-18
 21
-30.48
  0
LINE
  5
35
  8
0
  6
BYLAYER
 62
    0
 10
-4.70480553119e-18
 20
-30.48
 11
15.24
 21
-30.48
  0
LINE
  5
36
  8
0
  6
BYLAYER
 62
    0
 10
15.24
 20
-30.48
 11
15.24
 21
-28.13
  0
LINE
  5
37
  8
0
  6
BYLAYER
 62
    0
 10
15.24
 20
-28.13
 11
30.48
 21
-28.13
  0
LINE
  5
38
  8
0
  6
BYLAYER
 62
    0
 10
30.48
 20
-28.13
 11
30.48
 21
-15.24
  0
LINE
  5
39
  8
0
  6
BYLAYER
 62
    0
 10
30.48
 20
-15.24
 11
28.13
 21
-15.24
  0
LINE
  5
3A
  8
0
  6
BYLAYER
 62
    0
 10
28.13
 20
-15.24
 11
28.13
 21
1.7763568394e-15
  0
LINE
  5
3B
  8
0
  6
BYLAYER
 62
    0
 10
28.13
 20
0
 11
30.48
 21
0
  0
LINE
  5
3C
  8
0
  6
BYLAYER
 62
    0
 10
30.48
 20
0
 11
30.48
 21
15.24
  0
LINE
  5
3D
  8
0
  6
BYLAYER
 62
    0
 10
30.48
 20
15.24
 11
28.13
 21
15.24
  0
LINE
  5
3E
  8
0
  6
BYLAYER
 62
    0
 10
28.13
 20
15.24
 11
28.13
 21
30.48
  0
LINE
  5
3F
  8
0
  6
BYLAYER
 62
    0
 10
28.13
 20
30.48
 11
15.24
 21
30.48
  0
LINE
  5
40
  8
0
  6
BYLAYER
 62
    0
 10
15.24
 20
30.48
 11
15.24
 21
28.13
  0
LINE
  5
41
  8
0
  6
BYLAYER
 62
    0
 10
15.24
 20
28.13
 11
-1.7763568394e-15
 21
28.13
  0
LINE
  5
42
  8
0
  6
BYLAYER
 62
    0
 10
0
 20
28.13
 11
0
 21
30.48
  0
LINE
  5
43
  8
0
  6
BYLAYER
 62
    0
 10
0
 20
30.48
 11
-15.24
 21
30.48
  0
LINE
  5
44
  8
0
  6
BYLAYER
 62
    0
 10
-15.24
 20
30.48
 11
-15.24
 21
28.13
  0
LINE
  5
45
  8
0
  6
BYLAYER
 62
    0
 10
-15.24
 20
28.13
 11
-30.48
 21
28.13
  0
LINE
  5
46
  8
0
  6
BYLAYER
 62
    0
 10
-30.48
 20
28.13
 11
-30.48
 21
15.24
  0
LINE
  5
47
  8
0
  6
BYLAYER
 62
    0
 10
-30.48
 20
15.24
 11
-28.13
 21
15.24
  0
LINE
  5
48
  8
0
  6
BYLAYER
 62
    0
 10
-28.13
 20
15.24
 11
-28.13
 21
-1.7763568394e-15
  0
LINE
  5
49
  8
0
  6
BYLAYER
 62
    0
 10
-28.13
 20
0
 11
-30.48
 21
0
  0
LINE
  5
4A
  8
0
  6
BYLAYER
 62
    0
 10
-30.48
 20
0
 11
-30.48
 21
-15.24
  0
LINE
  5
4B
  8
0
  6
BYLAYER
 62
    0
 10
-30.48
 20
-15.24
 11
-28.13
 21
-15.24
  0
LINE
  5
4C
  8
0
  6
BYLAYER
 62
    0
 10
-28.13
 20
-15.24
 11
-28.13
 21
-30.48
  0
CIRCLE
  5
4D
  8
0
  6
BYLAYER
 62
    0
 10
-15.24
 20
-15.24
 40
5
  0
CIRCLE
  5
4E
  8
0
  6
BYLAYER
 62
    0
 10
15.24
 20
-15.24
 40
5
  0
CIRCLE
  5
4F
  8
0
  6
BYLAYER
 62
    0
 10
-15.24
 20
15.24
 40
5
  0
CIRCLE
  5
50
  8
0
  6
BYLAYER
 62
    0
 10
15.24
 20
15.24
 40
5
  0
CIRCLE
  5
51
  8
0
  6
BYLAYER
 62
    0
 10
-7.62
 20
-15.24
 40
2.5
  0
CIRCLE
  5
52
  8
0
  6
BYLAYER
 62
    0
 10
7.62
 20
-15.24
 40
2.5
  0
CIRCLE
  5
53
  8
0
  6
BYLAYER
 62
    0
 10
-15.24
 20
-7.62
 40
2.5
  0
CIRCLE
  5
54
  8
0
  6
BYLAYER
 62
    0
 10
-15.24
 20
7.62
 40
2.5
  0
CIRCLE
  5
55
  8
0
  6
BYLAYER
 62
    0
 10
15.24
 20
-7.62
 40
2.5
  0
CIRCLE
  5
56
  8
0
  6
BYLAYER
 62
    0
 10
15.24
 20
7.62
 40
2.5
  0
CIRCLE
  5
57
  8
0
  6
BYLAYER
 62
    0
 10
-7.62
 20
15.24
 40
2.5
  0
CIRCLE
  5
58
  8
0
  6
BYLAYER
 62
    0
 10
7.62
 20
15.24
 40
2.5
  0
CIRCLE
  5
59
  8
0
  6
BYLAYER
 62
    0
 10
22.86
 20
-22.86
 40
1.5
  0
CIRCLE
  5
5A
  8
0
  6
BYLAYER
 62
    0
 10
-22.86
 20
-22.86
 40
1.5
  0
CIRCLE
  5
5B
  8
0
  6
BYLAYER
 62
    0
 10
22.86
 20
22.86
 40
1.5
  0
CIRCLE
  5
5C
  8
0
  6
BYLAYER
 62
    0
 10
-22.86
 20
22.86
 40
1.5
  0
CIRCLE
  5
5D
  8
0
  6
BYLAYER
 62
    0
 10
-7.62
 20
-7.62
 40
1.5
  0
CIRCLE
  5
5E
  8
0
  6
BYLAYER
 62
    0
 10
7.62
 20
-7.62
 40
1.5
  0
CIRCLE
  5
5F
  8
0
  6
BYLAYER
 62
    0
 10
7.62
 20
7.62
 40
1.5
  0
CIRCLE
  5
60
  8
0
  6
BYLAYER
 62
    0
 10
-7.62
 20
7.62
 40
1.5
  0
ENDBLK
  8
0
  0
BLOCK
  8
0
  2
CUBE02_OUTERFACE
 70
    0
 10
0
 20
0
  3
CUBE02_OUTERFACE
  1

  0
INSERT
  5
61
  8
0
  6
BYLAYER
 62
    0
  2
SHAPE2DVIEW
 10
0
 20
0
 30
0
 41
1
 42
1
 43
0
 50
0
 70
    1
 71
    1
 44
0
 45
0
  0
ENDBLK
  8
0
  0
BLOCK
  8
0
  2
SHAPE2DVIEW001
 70
    0
 10
0
 20
0
  3
SHAPE2DVIEW001
  1

  0
LINE
  5
62
  8
0
  6
BYLAYER
 62
    0
 10
-25.78
 20
-28.13
 11
-15.24
 21
-28.13
  0
LINE
  5
63
  8
0
  6
BYLAYER
 62
    0
 10
-15.24
 20
-28.13
 11
-15.24
 21
-25.78
  0
LINE
  5
64
  8
0
  6
BYLAYER
 62
    0
 10
-15.24
 20
-25.78
 11
1.7763568394e-15
 21
-25.78
  0
LINE
  5
65
  8
0
  6
BYLAYER
 62
    0
 10
0
 20
-25.78
 11
0
 21
-28.13
  0
LINE
  5
66
  8
0
  6
BYLAYER
 62
    0
 10
0
 20
-28.13
 11
15.24
 21
-28.13
  0
LINE
  5
67
  8
0
  6
BYLAYER
 62
    0
 10
15.24
 20
-28.13
 11
15.24
 21
-25.78
  0
LINE
  5
68
  8
0
  6
BYLAYER
 62
    0
 10
15.24
 20
-25.78
 11
28.13
 21
-25.78
  0
LINE
  5
69
  8
0
  6
BYLAYER
 62
    0
 10
28.13
 20
-25.78
 11
28.13
 21
-15.24
  0
LINE
  5
6A
  8
0
  6
BYLAYER
 62
    0
 10
28.13
 20
-15.24
 11
25.78
 21
-15.24
  0
LINE
  5
6B
  8
0
  6
BYLAYER
 62
    0
 10
25.78
 20
-15.24
 11
25.78
 21
1.7763568394e-15
  0
LINE
  5
6C
  8
0
  6
BYLAYER
 62
    0
 10
25.78
 20
0
 11
28.13
 21
0
  0
LINE
  5
6D
  8
0
  6
BYLAYER
 62
    0
 10
28.13
 20
0
 11
28.13
 21
15.24
  0
LINE
  5
6E
  8
0
  6
BYLAYER
 62
    0
 10
28.13
 20
15.24
 11
25.78
 21
15.24
  0
LINE
  5
6F
  8
0
  6
BYLAYER
 62
    0
 10
25.78
 20
15.24
 11
25.78
 21
28.13
  0
LINE
  5
70
  8
0
  6
BYLAYER
 62
    0
 10
25.78
 20
28.13
 11
15.24
 21
28.13
  0
LINE
  5
71
  8
0
  6
BYLAYER
 62
    0
 10
15.24
 20
28.13
 11
15.24
 21
25.78
  0
LINE
  5
72
  8
0
  6
BYLAYER
 62
    0
 10
15.24
 20
25.78
 11
-1.7763568394e-15
 21
25.78
  0
LINE
  5
73
  8
0
  6
BYLAYER
 62
    0
 10
0
 20
25.78
 11
0
 21
28.13
  0
LINE
  5
74
  8
0
  6
BYLAYER
 62
    0
 10
0
 20
28.13
 11
-15.24
 21
28.13
  0
LINE
  5
75
  8
0
  6
BYLAYER
 62
    0
 10
-15.24
 20
28.13
 11
-15.24
 21
25.78
  0
LINE
  5
76
  8
0
  6
BYLAYER
 62
    0
 10
-15.24
 20
25.78
 11
-28.13
 21
25.78
  0
LINE
  5
77
  8
0
  6
BYLAYER
 62
    0
 10
-28.13
 20
25.78
 11
-28.13
 21
15.24
  0
LINE
  5
78
  8
0
  6
BYLAYER
 62
    0
 10
-28.13
 20
15.24
 11
-25.78
 21
15.24
  0
LINE
  5
79
  8
0
  6
BYLAYER
 62
    0
 10
-25.78
 20
15.24
 11
-25.78
 21
-1.7763568394e-15
  0
LINE
  5
7A
  8
0
  6
BYLAYER
 62
    0
 10
-25.78
 20
0
 11
-28.13
 21
0
  0
LINE
  5
7B
  8
0
  6
BYLAYER
 62
    0
 10
-28.13
 20
0
 11
-28.13
 21
-15.24
  0
LINE
  5
7C
  8
0
  6
BYLAYER
 62
    0
 10
-28.13
 20
-15.24
 11
-25.78
 21
-15.24
  0
LINE
  5
7D
  8
0
  6
BYLAYER
 62
    0
 10
-25.78
 20
-15.24
 11
-25.78
 21
-28.13
  0
LINE
  5
7E
  8
0
  6
BYLAYER
 62
    0
 10
10.3632
 20
9.20378725844
 11
10.3632
 21
6.03621274156
  0
LINE
  5
7F
  8
0
  6
BYLAYER
 62
    0
 10
10.3632
 20
6.03621274156
 11
7.62
 21
4.45242548312
  0
LINE
  5
80
  8
0
  6
BYLAYER
 62
    0
 10
7.62
 20
4.45242548312
 11
4.8768
 21
6.03621274156
  0
LINE
  5
81
  8
0
  6
BYLAYER
 62
    0
 10
4.8768
 20
6.03621274156
 11
4.8768
 21
9.20378725844
  0
LINE
  5
82
  8
0
  6
BYLAYER
 62
    0
 10
4.8768
 20
9.20378725844
 11
7.62
 21
10.7875745169
  0
LINE
  5
83
  8
0
  6
BYLAYER
 62
    0
 10
7.62
 20
10.7875745169
 11
10.3632
 21
9.20378725844
  0
LINE
  5
84
  8
0
  6
BYLAYER
 62
    0
 10
-4.8768
 20
9.20378725844
 11
-4.8768
 21
6.03621274156
  0
LINE
  5
85
  8
0
  6
BYLAYER
 62
    0
 10
-4.8768
 20
6.03621274156
 11
-7.62
 21
4.45242548312
  0
LINE
  5
86
  8
0
  6
BYLAYER
 62
    0
 10
-7.62
 20
4.45242548312
 11
-10.3632
 21
6.03621274156
  0
LINE
  5
87
  8
0
  6
BYLAYER
 62
    0
 10
-10.3632
 20
6.03621274156
 11
-10.3632
 21
9.20378725844
  0
LINE
  5
88
  8
0
  6
BYLAYER
 62
    0
 10
-10.3632
 20
9.20378725844
 11
-7.62
 21
10.7875745169
  0
LINE
  5
89
  8
0
  6
BYLAYER
 62
    0
 10
-7.62
 20
10.7875745169
 11
-4.8768
 21
9.20378725844
  0
LINE
  5
8A
  8
0
  6
BYLAYER
 62
    0
 10
10.3632
 20
-6.03621274156
 11
10.3632
 21
-9.20378725844
  0
LINE
  5
8B
  8
0
  6
BYLAYER
 62
    0
 10
10.3632
 20
-9.20378725844
 11
7.62
 21
-10.7875745169
  0
LINE
  5
8C
  8
0
  6
BYLAYER
 62
    0
 10
7.62
 20
-10.7875745169
 11
4.8768
 21
-9.20378725844
  0
LINE
  5
8D
  8
0
  6
BYLAYER
 62
    0
 10
4.8768
 20
-9.20378725844
 11
4.8768
 21
-6.03621274156
  0
LINE
  5
8E
  8
0
  6
BYLAYER
 62
    0
 10
4.8768
 20
-6.03621274156
 11
7.62
 21
-4.45242548312
  0
LINE
  5
8F
  8
0
  6
BYLAYER
 62
    0
 10
7.62
 20
-4.45242548312
 11
10.3632
 21
-6.03621274156
  0
LINE
  5
90
  8
0
  6
BYLAYER
 62
    0
 10
-4.8768
 20
-6.03621274156
 11
-4.8768
 21
-9.20378725844
  0
LINE
  5
91
  8
0
  6
BYLAYER
 62
    0
 10
-4.8768
 20
-9.20378725844
 11
-7.62
 21
-10.7875745169
  0
LINE
  5
92
  8
0
  6
BYLAYER
 62
    0
 10
-7.62
 20
-10.7875745169
 11
-10.3632
 21
-9.20378725844
  0
LINE
  5
93
  8
0
  6
BYLAYER
 62
    0
 10
-10.3632
 20
-9.20378725844
 11
-10.3632
 21
-6.03621274156
  0
LINE
  5
94
  8
0
  6
BYLAYER
 62
    0
 10
-10.3632
 20
-6.03621274156
 11
-7.62
 21
-4.45242548312
  0
LINE
  5
95
  8
0
  6
BYLAYER
 62
    0
 10
-7.62
 20
-4.45242548312
 11
-4.8768
 21
-6.03621274156
  0
LINE
  5
96
  8
0
  6
BYLAYER
 62
    0
 10
-26.0275745169
 20
22.86
 11
-24.4437872584
 21
25.6032
  0
LINE
  5
97
  8
0
  6
BYLAYER
 62
    0
 10
-24.4437872584
 20
25.6032
 11
-21.2762127416
 21
25.6032
  0
LINE
  5
98
  8
0
  6
BYLAYER
 62
    0
 10
-21.2762127416
 20
25.6032
 11
-19.6924254831
 21
22.86
  0
LINE
  5
99
  8
0
  6
BYLAYER
 62
    0
 10
-19.6924254831
 20
22.86
 11
-21.2762127416
 21
20.1168
  0
LINE
  5
9A
  8
0
  6
BYLAYER
 62
    0
 10
-21.2762127416
 20
20.1168
 11
-24.4437872584
 21
20.1168
  0
LINE
  5
9B
  8
0
  6
BYLAYER
 62
    0
 10
-24.4437872584
 20
20.1168
 11
-26.0275745169
 21
22.86
  0
LINE
  5
9C
  8
0
  6
BYLAYER
 62
    0
 10
25.6032
 20
24.4437872584
 11
25.6032
 21
21.2762127416
  0
LINE
  5
9D
  8
0
  6
BYLAYER
 62
    0
 10
25.6032
 20
21.2762127416
 11
22.86
 21
19.6924254831
  0
LINE
  5
9E
  8
0
  6
BYLAYER
 62
    0
 10
22.86
 20
19.6924254831
 11
20.1168
 21
21.2762127416
  0
LINE
  5
9F
  8
0
  6
BYLAYER
 62
    0
 10
20.1168
 20
21.2762127416
 11
20.1168
 21
24.4437872584
  0
LINE
  5
A0
  8
0
  6
BYLAYER
 62
    0
 10
20.1168
 20
24.4437872584
 11
22.86
 21
26.0275745169
  0
LINE
  5
A1
  8
0
  6
BYLAYER
 62
    0
 10
22.86
 20
26.0275745169
 11
25.6032
 21
24.4437872584
  0
LINE
  5
A2
  8
0
  6
BYLAYER
 62
    0
 10
26.0275745169
 20
-22.86
 11
24.4437872584
 21
-25.6032
  0
LINE
  5
A3
  8
0
  6
BYLAYER
 62
    0
 10
24.4437872584
 20
-25.6032
 11
21.2762127416
 21
-25.6032
  0
LINE
  5
A4
  8
0
  6
BYLAYER
 62
    0
 10
21.2762127416
 20
-25.6032
 11
19.6924254831
 21
-22.86
  0
LINE
  5
A5
  8
0
  6
BYLAYER
 62
    0
 10
19.6924254831
 20
-22.86
 11
21.2762127416
 21
-20.1168
  0
LINE
  5
A6
  8
0
  6
BYLAYER
 62
    0
 10
21.2762127416
 20
-20.1168
 11
24.4437872584
 21
-20.1168
  0
LINE
  5
A7
  8
0
  6
BYLAYER
 62
    0
 10
24.4437872584
 20
-20.1168
 11
26.0275745169
 21
-22.86
  0
LINE
  5
A8
  8
0
  6
BYLAYER
 62
    0
 10
-20.1168
 20
-21.2762127416
 11
-20.1168
 21
-24.4437872584
  0
LINE
  5
A9
  8
0
  6
BYLAYER
 62
    0
 10
-20.1168
 20
-24.4437872584
 11
-22.86
 21
-26.0275745169
  0
LINE
  5
AA
  8
0
  6
BYLAYER
 62
    0
 10
-22.86
 20
-26.0275745169
 11
-25.6032
 21
-24.4437872584
  0
LINE
  5
AB
  8
0
  6
BYLAYER
 62
    0
 10
-25.6032
 20
-24.4437872584
 11
-25.6032
 21
-21.2762127416
  0
LINE
  5
AC
  8
0
  6
BYLAYER
 62
    0
 10
-25.6032
 20
-21.2762127416
 11
-22.86
 21
-19.6924254831
  0
LINE
  5
AD
  8
0
  6
BYLAYER
 62
    0
 10
-22.86
 20
-19.6924254831
 11
-20.1168
 21
-21.2762127416
  0
ENDBLK
  8
0
  0
BLOCK
  8
0
  2
CUBE02_INNERFACE
 70
    0
 10
0
 20
0
  3
CUBE02_INNERFACE
  1

  0
INSERT
  5
AE
  8
0
  6
BYLAYER
 62
    0
  2
SHAPE2DVIEW001
 10
0
 20
0
 30
0
 41
1
 42
1
 43
0
 50
0
 70
    1
 71
    1
 44
0
 45
0
  0
ENDBLK
  8
0
  0
BLOCK
  8
0
  2
SHAPE2DVIEW-0
 70
    0
 10
0
 20
0
  3
SHAPE2DVIEW-0
  1

  0
LINE
  5
AF
  8
0
  6
BYLAYER
 62
    0
 10
-28.13
 20
-30.48
 11
-15.24
 21
-30.48
  0
LINE
  5
B0
  8
0
  6
BYLAYER
 62
    0
 10
-15.24
 20
-30.48
 11
-15.24
 21
-28.13
  0
LINE
  5
B1
  8
0
  6
BYLAYER
 62
    0
 10
-15.24
 20
-28.13
 11
0
 21
-28.13
  0
LINE
  5
B2
  8
0
  6
BYLAYER
 62
    0
 10
0
 20
-28.13
 11
0
 21
-30.48
  0
LINE
  5
B3
  8
0
  6
BYLAYER
 62
    0
 10
0
 20
-30.48
 11
15.24
 21
-30.48
  0
LINE
  5
B4
  8
0
  6
BYLAYER
 62
    0
 10
15.24
 20
-30.48
 11
15.24
 21
-28.13
  0
LINE
  5
B5
  8
0
  6
BYLAYER
 62
    0
 10
15.24
 20
-28.13
 11
30.48
 21
-28.13
  0
LINE
  5
B6
  8
0
  6
BYLAYER
 62
    0
 10
30.48
 20
-28.13
 11
30.48
 21
-15.24
  0
LINE
  5
B7
  8
0
  6
BYLAYER
 62
    0
 10
30.48
 20
-15.24
 11
28.13
 21
-15.24
  0
LINE
  5
B8
  8
0
  6
BYLAYER
 62
    0
 10
28.13
 20
-15.24
 11
28.13
 21
0
  0
LINE
  5
B9
  8
0
  6
BYLAYER
 62
    0
 10
28.13
 20
0
 11
30.48
 21
0
  0
LINE
  5
BA
  8
0
  6
BYLAYER
 62
    0
 10
30.48
 20
0
 11
30.48
 21
15.24
  0
LINE
  5
BB
  8
0
  6
BYLAYER
 62
    0
 10
30.48
 20
15.24
 11
28.13
 21
15.24
  0
LINE
  5
BC
  8
0
  6
BYLAYER
 62
    0
 10
28.13
 20
15.24
 11
28.13
 21
30.48
  0
LINE
  5
BD
  8
0
  6
BYLAYER
 62
    0
 10
28.13
 20
30.48
 11
15.24
 21
30.48
  0
LINE
  5
BE
  8
0
  6
BYLAYER
 62
    0
 10
15.24
 20
30.48
 11
15.24
 21
28.13
  0
LINE
  5
BF
  8
0
  6
BYLAYER
 62
    0
 10
15.24
 20
28.13
 11
0
 21
28.13
  0
LINE
  5
C0
  8
0
  6
BYLAYER
 62
    0
 10
0
 20
28.13
 11
0
 21
30.48
  0
LINE
  5
C1
  8
0
  6
BYLAYER
 62
    0
 10
0
 20
30.48
 11
-15.24
 21
30.48
  0
LINE
  5
C2
  8
0
  6
BYLAYER
 62
    0
 10
-15.24
 20
30.48
 11
-15.24
 21
28.13
  0
LINE
  5
C3
  8
0
  6
BYLAYER
 62
    0
 10
-15.24
 20
28.13
 11
-30.48
 21
28.13
  0
LINE
  5
C4
  8
0
  6
BYLAYER
 62
    0
 10
-30.48
 20
28.13
 11
-30.48
 21
15.24
  0
LINE
  5
C5
  8
0
  6
BYLAYER
 62
    0
 10
-30.48
 20
15.24
 11
-28.13
 21
15.24
  0
LINE
  5
C6
  8
0
  6
BYLAYER
 62
    0
 10
-28.13
 20
15.24
 11
-28.13
 21
0
  0
LINE
  5
C7
  8
0
  6
BYLAYER
 62
    0
 10
-28.13
 20
0
 11
-30.48
 21
0
  0
LINE
  5
C8
  8
0
  6
BYLAYER
 62
    0
 10
-30.48
 20
0
 11
-30.48
 21
-15.24
  0
LINE
  5
C9
  8
0
  6
BYLAYER
 62
    0
 10
-30.48
 20
-15.24
 11
-28.13
 21
-15.24
  0
LINE
  5
CA
  8
0
  6
BYLAYER
 62
    0
 10
-28.13
 20
-15.24
 11
-28.13
 21
-30.48
  0
CIRCLE
  5
CB
  8
0
  6
BYLAYER
 62
    0
 10
-15.24
 20
-15.24
 40
4
  0
CIRCLE
  5
CC
  8
0
  6
BYLAYER
 62
    0
 10
15.24
 20
-15.24
 40
4
  0
CIRCLE
  5
CD
  8
0
  6
BYLAYER
 62
    0
 10
-15.24
 20
15.24
 40
4
  0
CIRCLE
  5
CE
  8
0
  6
BYLAYER
 62
    0
 10
15.24
 20
15.24
 40
4
  0
CIRCLE
  5
CF
  8
0
  6
BYLAYER
 62
    0
 10
-7.62
 20
-15.24
 40
2.25
  0
CIRCLE
  5
D0
  8
0
  6
BYLAYER
 62
    0
 10
7.62
 20
-15.24
 40
2.25
  0
CIRCLE
  5
D1
  8
0
  6
BYLAYER
 62
    0
 10
-15.24
 20
-7.62
 40
2.25
  0
CIRCLE
  5
D2
  8
0
  6
BYLAYER
 62
    0
 10
-15.24
 20
7.62
 40
2.25
  0
CIRCLE
  5
D3
  8
0
  6
BYLAYER
 62
    0
 10
15.24
 20
-7.62
 40
2.25
  0
CIRCLE
  5
D4
  8
0
  6
BYLAYER
 62
    0
 10
15.24
 20
7.62
 40
2.25
  0
CIRCLE
  5
D5
  8
0
  6
BYLAYER
 62
    0
 10
-7.62
 20
15.24
 40
2.25
  0
CIRCLE
  5
D6
  8
0
  6
BYLAYER
 62
    0
 10
7.62
 20
15.24
 40
2.25
  0
CIRCLE
  5
D7
  8
0
  6
BYLAYER
 62
    0
 10
22.86
 20
-22.86
 40
1.5
  0
CIRCLE
  5
D8
  8
0
  6
BYLAYER
 62
    0
 10
-22.86
 20
-22.86
 40
1.5
  0
CIRCLE
  5
D9
  8
0
  6
BYLAYER
 62
    0
 10
22.86
 20
22.86
 40
1.5
  0
CIRCLE
  5
DA
  8
0
  6
BYLAYER
 62
    0
 10
-22.86
 20
22.86
 40
1.5
  0
CIRCLE
  5
DB
  8
0
  6
BYLAYER
 62
    0
 10
-7.62
 20
-7.62
 40
1.5
  0
CIRCLE
  5
DC
  8
0
  6
BYLAYER
 62
    0
 10
7.62
 20
-7.62
 40
1.5
  0
CIRCLE
  5
DD
  8
0
  6
BYLAYER
 62
    0
 10
7.62
 20
7.62
 40
1.5
  0
CIRCLE
  5
DE
  8
0
  6
BYLAYER
 62
    0
 10
-7.62
 20
7.62
 40
1.5
  0
ENDBLK
  8
0
  0
BLOCK
  8
0
  2
CUBE02_OUTERFACE-0
 70
    0
 10
0
 20
0
  3
CUBE02_OUTERFACE-0
  1

  0
INSERT
  5
DF
  8
0
  6
BYLAYER
 62
    0
  2
SHAPE2DVIEW-0
 10
0
 20
0
 30
0
 41
1
 42
1
 43
0
 50
0
 70
    1
 71
    1
 44
0
 45
0
  0
ENDBLK
  8
0
  0
BLOCK
  8
0
  2
SHAPE2DVIEW001-0
 70
    0
 10
0
 20
0
  3
SHAPE2DVIEW001-0
  1

  0
LINE
  5
E0
  8
0
  6
BYLAYER
 62
    0
 10
-25.78
 20
-28.13
 11
-15.24
 21
-28.13
  0
LINE
  5
E1
  8
0
  6
BYLAYER
 62
    0
 10
-15.24
 20
-28.13
 11
-15.24
 21
-25.78
  0
LINE
  5
E2
  8
0
  6
BYLAYER
 62
    0
 10
-15.24
 20
-25.78
 11
0
 21
-25.78
  0
LINE
  5
E3
  8
0
  6
BYLAYER
 62
    0
 10
0
 20
-25.78
 11
0
 21
-28.13
  0
LINE
  5
E4
  8
0
  6
BYLAYER
 62
    0
 10
0
 20
-28.13
 11
15.24
 21
-28.13
  0
LINE
  5
E5
  8
0
  6
BYLAYER
 62
    0
 10
15.24
 20
-28.13
 11
15.24
 21
-25.78
  0
LINE
  5
E6
  8
0
  6
BYLAYER
 62
    0
 10
15.24
 20
-25.78
 11
28.13
 21
-25.78
  0
LINE
  5
E7
  8
0
  6
BYLAYER
 62
    0
 10
28.13
 20
-25.78
 11
28.13
 21
-15.24
  0
LINE
  5
E8
  8
0
  6
BYLAYER
 62
    0
 10
28.13
 20
-15.24
 11
25.78
 21
-15.24
  0
LINE
  5
E9
  8
0
  6
BYLAYER
 62
    0
 10
25.78
 20
-15.24
 11
25.78
 21
0
  0
LINE
  5
EA
  8
0
  6
BYLAYER
 62
    0
 10
25.78
 20
0
 11
28.13
 21
0
  0
LINE
  5
EB
  8
0
  6
BYLAYER
 62
    0
 10
28.13
 20
0
 11
28.13
 21
15.24
  0
LINE
  5
EC
  8
0
  6
BYLAYER
 62
    0
 10
28.13
 20
15.24
 11
25.78
 21
15.24
  0
LINE
  5
ED
  8
0
  6
BYLAYER
 62
    0
 10
25.78
 20
15.24
 11
25.78
 21
28.13
  0
LINE
  5
EE
  8
0
  6
BYLAYER
 62
    0
 10
25.78
 20
28.13
 11
15.24
 21
28.13
  0
LINE
  5
EF
  8
0
  6
BYLAYER
 62
    0
 10
15.24
 20
28.13
 11
15.24
 21
25.78
  0
LINE
  5
F0
  8
0
  6
BYLAYER
 62
    0
 10
15.24
 20
25.78
 11
0
 21
25.78
  0
LINE
  5
F1
  8
0
  6
BYLAYER
 62
    0
 10
0
 20
25.78
 11
0
 21
28.13
  0
LINE
  5
F2
  8
0
  6
BYLAYER
 62
    0
 10
0
 20
28.13
 11
-15.24
 21
28.13
  0
LINE
  5
F3
  8
0
  6
BYLAYER
 62
    0
 10
-15.24
 20
28.13
 11
-15.24
 21
25.78
  0
LINE
  5
F4
  8
0
  6
BYLAYER
 62
    0
 10
-15.24
 20
25.78
 11
-28.13
 21
25.78
  0
LINE
  5
F5
  8
0
  6
BYLAYER
 62
    0
 10
-28.13
 20
25.78
 11
-28.13
 21
15.24
  0
LINE
  5
F6
  8
0
  6
BYLAYER
 62
    0
 10
-28.13
 20
15.24
 11
-25.78
 21
15.24
  0
LINE
  5
F7
  8
0
  6
BYLAYER
 62
    0
 10
-25.78
 20
15.24
 11
-25.78
 21
0
  0
LINE
  5
F8
  8
0
  6
BYLAYER
 62
    0
 10
-25.78
 20
0
 11
-28.13
 21
0
  0
LINE
  5
F9
  8
0
  6
BYLAYER
 62
    0
 10
-28.13
 20
0
 11
-28.13
 21
-15.24
  0
LINE
  5
FA
  8
0
  6
BYLAYER
 62
    0
 10
-28.13
 20
-15.24
 11
-25.78
 21
-15.24
  0
LINE
  5
FB
  8
0
  6
BYLAYER
 62
    0
 10
-25.78
 20
-15.24
 11
-25.78
 21
-28.13
  0
LINE
  5
FC
  8
0
  6
BYLAYER
 62
    0
 10
-25.8622213998
 20
22.86
 11
-24.3611106999
 21
25.46
  0
LINE
  5
FD
  8
0
  6
BYLAYER
 62
    0
 10
-24.3611106999
 20
25.46
 11
-21.3588893001
 21
25.46
  0
LINE
  5
FE
  8
0
  6
BYLAYER
 62
    0
 10
-21.3588893001
 20
25.46
 11
-19.8577786002
 21
22.86
  0
LINE
  5
FF
  8
0
  6
BYLAYER
 62
    0
 10
-19.8577786002
 20
22.86
 11
-21.3588893001
 21
20.26
  0
LINE
  5
100
  8
0
  6
BYLAYER
 62
    0
 10
-21.3588893001
 20
20.26
 11
-24.3611106999
 21
20.26
  0
LINE
  5
101
  8
0
  6
BYLAYER
 62
    0
 10
-24.3611106999
 20
20.26
 11
-25.8622213998
 21
22.86
  0
LINE
  5
102
  8
0
  6
BYLAYER
 62
    0
 10
25.8622213998
 20
-22.86
 11
24.3611106999
 21
-25.46
  0
LINE
  5
103
  8
0
  6
BYLAYER
 62
    0
 10
24.3611106999
 20
-25.46
 11
21.3588893001
 21
-25.46
  0
LINE
  5
104
  8
0
  6
BYLAYER
 62
    0
 10
21.3588893001
 20
-25.46
 11
19.8577786002
 21
-22.86
  0
LINE
  5
105
  8
0
  6
BYLAYER
 62
    0
 10
19.8577786002
 20
-22.86
 11
21.3588893001
 21
-20.26
  0
LINE
  5
106
  8
0
  6
BYLAYER
 62
    0
 10
21.3588893001
 20
-20.26
 11
24.3611106999
 21
-20.26
  0
LINE
  5
107
  8
0
  6
BYLAYER
 62
    0
 10
24.3611106999
 20
-20.26
 11
25.8622213998
 21
-22.86
  0
LINE
  5
108
  8
0
  6
BYLAYER
 62
    0
 10
25.46
 20
24.3611106999
 11
25.46
 21
21.3588893001
  0
LINE
  5
109
  8
0
  6
BYLAYER
 62
    0
 10
25.46
 20
21.3588893001
 11
22.86
 21
19.8577786002
  0
LINE
  5
10A
  8
0
  6
BYLAYER
 62
    0
 10
22.86
 20
19.8577786002
 11
20.26
 21
21.3588893001
  0
LINE
  5
10B
  8
0
  6
BYLAYER
 62
    0
 10
20.26
 20
21.3588893001
 11
20.26
 21
24.3611106999
  0
LINE
  5
10C
  8
0
  6
BYLAYER
 62
    0
 10
20.26
 20
24.3611106999
 11
22.86
 21
25.8622213998
  0
LINE
  5
10D
  8
0
  6
BYLAYER
 62
    0
 10
22.86
 20
25.8622213998
 11
25.46
 21
24.3611106999
  0
LINE
  5
10E
  8
0
  6
BYLAYER
 62
    0
 10
-20.26
 20
-21.3588893001
 11
-20.26
 21
-24.3611106999
  0
LINE
  5
10F
  8
0
  6
BYLAYER
 62
    0
 10
-20.26
 20
-24.3611106999
 11
-22.86
 21
-25.8622213998
  0
LINE
  5
110
  8
0
  6
BYLAYER
 62
    0
 10
-22.86
 20
-25.8622213998
 11
-25.46
 21
-24.3611106999
  0
LINE
  5
111
  8
0
  6
BYLAYER
 62
    0
 10
-25.46
 20
-24.3611106999
 11
-25.46
 21
-21.3588893001
  0
LINE
  5
112
  8
0
  6
BYLAYER
 62
    0
 10
-25.46
 20
-21.3588893001
 11
-22.86
 21
-19.8577786002
  0
LINE
  5
113
  8
0
  6
BYLAYER
 62
    0
 10
-22.86
 20
-19.8577786002
 11
-20.26
 21
-21.3588893001
  0
LINE
  5
114
  8
0
  6
BYLAYER
 62
    0
 10
-5.02000000001
 20
9.12111069989
 11
-5.02000000001
 21
6.11888930011
  0
LINE
  5
115
  8
0
  6
BYLAYER
 62
    0
 10
-5.02000000001
 20
6.11888930011
 11
-7.62
 21
4.61777860022
  0
LINE
  5
116
  8
0
  6
BYLAYER
 62
    0
 10
-7.62
 20
4.61777860022
 11
-10.22
 21
6.11888930011
  0
LINE
  5
117
  8
0
  6
BYLAYER
 62
    0
 10
-10.22
 20
6.11888930011
 11
-10.22
 21
9.12111069991
  0
LINE
  5
118
  8
0
  6
BYLAYER
 62
    0
 10
-10.22
 20
9.12111069991
 11
-7.62
 21
10.6222213998
  0
LINE
  5
119
  8
0
  6
BYLAYER
 62
    0
 10
-7.62
 20
10.6222213998
 11
-5.02000000001
 21
9.12111069989
  0
LINE
  5
11A
  8
0
  6
BYLAYER
 62
    0
 10
10.22
 20
9.12111069989
 11
10.22
 21
6.11888930011
  0
LINE
  5
11B
  8
0
  6
BYLAYER
 62
    0
 10
10.22
 20
6.11888930011
 11
7.62
 21
4.61777860022
  0
LINE
  5
11C
  8
0
  6
BYLAYER
 62
    0
 10
7.62
 20
4.61777860022
 11
5.01999999999
 21
6.11888930012
  0
LINE
  5
11D
  8
0
  6
BYLAYER
 62
    0
 10
5.01999999999
 20
6.11888930012
 11
5.01999999999
 21
9.12111069991
  0
LINE
  5
11E
  8
0
  6
BYLAYER
 62
    0
 10
5.01999999999
 20
9.12111069991
 11
7.62
 21
10.6222213998
  0
LINE
  5
11F
  8
0
  6
BYLAYER
 62
    0
 10
7.62
 20
10.6222213998
 11
10.22
 21
9.12111069989
  0
LINE
  5
120
  8
0
  6
BYLAYER
 62
    0
 10
-5.02000000001
 20
-6.11888930011
 11
-5.02000000001
 21
-9.12111069989
  0
LINE
  5
121
  8
0
  6
BYLAYER
 62
    0
 10
-5.02000000001
 20
-9.12111069989
 11
-7.62
 21
-10.6222213998
  0
LINE
  5
122
  8
0
  6
BYLAYER
 62
    0
 10
-7.62
 20
-10.6222213998
 11
-10.22
 21
-9.121110699879999
  0
LINE
  5
123
  8
0
  6
BYLAYER
 62
    0
 10
-10.22
 20
-9.121110699879999
 11
-10.22
 21
-6.11888930009
  0
LINE
  5
124
  8
0
  6
BYLAYER
 62
    0
 10
-10.22
 20
-6.11888930009
 11
-7.62
 21
-4.61777860022
  0
LINE
  5
125
  8
0
  6
BYLAYER
 62
    0
 10
-7.62
 20
-4.61777860022
 11
-5.02000000001
 21
-6.11888930011
  0
LINE
  5
126
  8
0
  6
BYLAYER
 62
    0
 10
10.22
 20
-6.11888930011
 11
10.22
 21
-9.12111069989
  0
LINE
  5
127
  8
0
  6
BYLAYER
 62
    0
 10
10.22
 20
-9.12111069989
 11
7.62
 21
-10.6222213998
  0
LINE
  5
128
  8
0
  6
BYLAYER
 62
    0
 10
7.62
 20
-10.6222213998
 11
5.01999999999
 21
-9.121110699879999
  0
LINE
  5
129
  8
0
  6
BYLAYER
 62
    0
 10
5.01999999999
 20
-9.121110699879999
 11
5.01999999999
 21
-6.11888930009
  0
LINE
  5
12A
  8
0
  6
BYLAYER
 62
    0
 10
5.01999999999
 20
-6.11888930009
 11
7.62
 21
-4.61777860022
  0
LINE
  5
12B
  8
0
  6
BYLAYER
 62
    0
 10
7.62
 20
-4.61777860022
 11
10.22
 21
-6.11888930011
  0
ENDBLK
  8
0
  0
BLOCK
  8
0
  2
CUBE02_INNERFACE-0
 70
    0
 10
0
 20
0
  3
CUBE02_INNERFACE-0
  1

  0
INSERT
  5
12C
  8
0
  6
BYLAYER
 62
    0
  2
SHAPE2DVIEW001-0
 10
0
 20
0
 30
0
 41
1
 42
1
 43
0
 50
0
 70
    1
 71
    1
 44
0
 45
0
  0
ENDBLK
  8
0
  0
ENDSEC
  0
SECTION
  2
ENTITIES
  0
LINE
  5
12D
  8
0
  6
BYLAYER
 62
  256
 10
0
 20
0
 11
12.89
 21
0
  0
LINE
  5
12E
  8
0
  6
BYLAYER
 62
  256
 10
12.89
 20
0
 11
12.89
 21
2.350000000000001
  0
LINE
  5
12F
  8
0
  6
BYLAYER
 62
  256
 10
12.89
 20
2.350000000000001
 11
28.13
 21
2.350000000000001
  0
LINE
  5
130
  8
0
  6
BYLAYER
 62
  256
 10
28.13
 20
2.350000000000001
 11
28.13
 21
0
  0
LINE
  5
131
  8
0
  6
BYLAYER
 62
  256
 10
28.13
 20
0
 11
43.37
 21
0
  0
LINE
  5
132
  8
0
  6
BYLAYER
 62
  256
 10
43.37
 20
0
 11
43.37
 21
2.350000000000001
  0
LINE
  5
133
  8
0
  6
BYLAYER
 62
  256
 10
43.37
 20
2.350000000000001
 11
58.61
 21
2.350000000000001
  0
LINE
  5
134
  8
0
  6
BYLAYER
 62
  256
 10
58.61
 20
15.24
 11
56.26
 21
15.24
  0
LINE
  5
135
  8
0
  6
BYLAYER
 62
  256
 10
56.26
 20
15.24
 11
56.26
 21
30.48
  0
LINE
  5
136
  8
0
  6
BYLAYER
 62
  256
 10
56.26
 20
30.48
 11
58.61
 21
30.48
  0
LINE
  5
137
  8
0
  6
BYLAYER
 62
  256
 10
58.61
 20
30.48
 11
58.61
 21
45.72
  0
LINE
  5
138
  8
0
  6
BYLAYER
 62
  256
 10
58.61
 20
45.72
 11
56.26
 21
45.72
  0
LINE
  5
139
  8
0
  6
BYLAYER
 62
  256
 10
56.26
 20
45.72
 11
56.26
 21
60.96
  0
LINE
  5
13A
  8
0
  6
BYLAYER
 62
  256
 10
56.26
 20
60.96
 11
43.37
 21
60.96
  0
LINE
  5
13B
  8
0
  6
BYLAYER
 62
  256
 10
43.37
 20
60.96
 11
43.37
 21
58.61
  0
LINE
  5
13C
  8
0
  6
BYLAYER
 62
  256
 10
43.37
 20
58.61
 11
28.13
 21
58.61
  0
LINE
  5
13D
  8
0
  6
BYLAYER
 62
  256
 10
28.13
 20
58.61
 11
28.13
 21
60.96
  0
LINE
  5
13E
  8
0
  6
BYLAYER
 62
  256
 10
28.13
 20
60.96
 11
12.89
 21
60.96
  0
LINE
  5
13F
  8
0
  6
BYLAYER
 62
  256
 10
12.89
 20
60.96
 11
12.89
 21
58.61
  0
LINE
  5
140
  8
0
  6
BYLAYER
 62
  256
 10
12.89
 20
58.61
 11
-2.350000000000001
 21
58.61
  0
LINE
  5
141
  8
0
  6
BYLAYER
 62
  256
 10
-2.350000000000001
 20
58.61
 11
-2.350000000000001
 21
45.72
  0
LINE
  5
142
  8
0
  6
BYLAYER
 62
  256
 10
-2.350000000000001
 20
45.72
 11
0
 21
45.72
  0
LINE
  5
143
  8
0
  6
BYLAYER
 62
  256
 10
0
 20
45.72
 11
0
 21
30.48
  0
LINE
  5
144
  8
0
  6
BYLAYER
 62
  256
 10
0
 20
30.48
 11
-2.350000000000001
 21
30.48
  0
LINE
  5
145
  8
0
  6
BYLAYER
 62
  256
 10
-2.350000000000001
 20
30.48
 11
-2.350000000000001
 21
15.24
  0
LINE
  5
146
  8
0
  6
BYLAYER
 62
  256
 10
-2.350000000000001
 20
15.24
 11
0
 21
15.24
  0
LINE
  5
147
  8
0
  6
BYLAYER
 62
  256
 10
0
 20
15.24
 11
0
 21
0
  0
CIRCLE
  5
148
  8
0
  6
BYLAYER
 62
  256
 10
12.89
 20
15.24
 40
4
  0
CIRCLE
  5
149
  8
0
  6
BYLAYER
 62
  256
 10
43.37
 20
15.24
 40
4
  0
CIRCLE
  5
14A
  8
0
  6
BYLAYER
 62
  256
 10
12.89
 20
45.72
 40
4
  0
CIRCLE
  5
14B
  8
0
  6
BYLAYER
 62
  256
 10
43.37
 20
45.72
 40
4
  0
CIRCLE
  5
14C
  8
0
  6
BYLAYER
 62
  256
 10
20.51
 20
15.24
 40
2.25
  0
CIRCLE
  5
14D
  8
0
  6
BYLAYER
 62
  256
 10
35.75
 20
15.24
 40
2.25
  0
CIRCLE
  5
14E
  8
0
  6
BYLAYER
 62
  256
 10
12.89
 20
22.86
 40
2.25
  0
CIRCLE
  5
14F
  8
0
  6
BYLAYER
 62
  256
 10
12.89
 20
38.1
 40
2.25
  0
CIRCLE
  5
150
  8
0
  6
BYLAYER
 62
  256
 10
43.37
 20
22.86
 40
2.25
  0
CIRCLE
  5
151
  8
0
  6
BYLAYER
 62
  256
 10
43.37
 20
38.1
 40
2.25
  0
CIRCLE
  5
152
  8
0
  6
BYLAYER
 62
  256
 10
20.51
 20
45.72
 40
2.25
  0
CIRCLE
  5
153
  8
0
  6
BYLAYER
 62
  256
 10
35.75
 20
45.72
 40
2.25
  0
CIRCLE
  5
154
  8
0
  6
BYLAYER
 62
  256
 10
50.98999999999999
 20
7.620000000000001
 40
1.5
  0
CIRCLE
  5
155
  8
0
  6
BYLAYER
 62
  256
 10
5.27
 20
7.620000000000001
 40
1.5
  0
CIRCLE
  5
156
  8
0
  6
BYLAYER
 62
  256
 10
50.98999999999999
 20
53.34
 40
1.5
  0
CIRCLE
  5
157
  8
0
  6
BYLAYER
 62
  256
 10
5.27
 20
53.34
 40
1.5
  0
CIRCLE
  5
158
  8
0
  6
BYLAYER
 62
  256
 10
20.51
 20
22.86
 40
1.5
  0
CIRCLE
  5
159
  8
0
  6
BYLAYER
 62
  256
 10
35.75
 20
22.86
 40
1.5
  0
CIRCLE
  5
15A
  8
0
  6
BYLAYER
 62
  256
 10
35.75
 20
38.1
 40
1.5
  0
CIRCLE
  5
15B
  8
0
  6
BYLAYER
 62
  256
 10
20.51
 20
38.1
 40
1.5
  0
LINE
  5
15C
  8
0
  6
BYLAYER
 62
  256
 10
58.61
 20
0
 11
71.5
 21
0
  0
LINE
  5
15D
  8
0
  6
BYLAYER
 62
  256
 10
71.5
 20
0
 11
71.5
 21
2.350000000000001
  0
LINE
  5
15E
  8
0
  6
BYLAYER
 62
  256
 10
71.5
 20
2.350000000000001
 11
86.73999999999999
 21
2.350000000000001
  0
LINE
  5
15F
  8
0
  6
BYLAYER
 62
  256
 10
86.73999999999999
 20
2.350000000000001
 11
86.73999999999999
 21
0
  0
LINE
  5
160
  8
0
  6
BYLAYER
 62
  256
 10
86.73999999999999
 20
0
 11
101.98
 21
0
  0
LINE
  5
161
  8
0
  6
BYLAYER
 62
  256
 10
101.98
 20
0
 11
101.98
 21
2.350000000000001
  0
LINE
  5
162
  8
0
  6
BYLAYER
 62
  256
 10
101.98
 20
2.350000000000001
 11
117.22
 21
2.350000000000001
  0
LINE
  5
163
  8
0
  6
BYLAYER
 62
  256
 10
117.22
 20
15.24
 11
114.87
 21
15.24
  0
LINE
  5
164
  8
0
  6
BYLAYER
 62
  256
 10
114.87
 20
15.24
 11
114.87
 21
30.48
  0
LINE
  5
165
  8
0
  6
BYLAYER
 62
  256
 10
114.87
 20
30.48
 11
117.22
 21
30.48
  0
LINE
  5
166
  8
0
  6
BYLAYER
 62
  256
 10
117.22
 20
30.48
 11
117.22
 21
45.72
  0
LINE
  5
167
  8
0
  6
BYLAYER
 62
  256
 10
117.22
 20
45.72
 11
114.87
 21
45.72
  0
LINE
  5
168
  8
0
  6
BYLAYER
 62
  256
 10
114.87
 20
45.72
 11
114.87
 21
60.96
  0
LINE
  5
169
  8
0
  6
BYLAYER
 62
  256
 10
114.87
 20
60.96
 11
101.98
 21
60.96
  0
LINE
  5
16A
  8
0
  6
BYLAYER
 62
  256
 10
101.98
 20
60.96
 11
101.98
 21
58.61
  0
LINE
  5
16B
  8
0
  6
BYLAYER
 62
  256
 10
101.98
 20
58.61
 11
86.73999999999999
 21
58.61
  0
LINE
  5
16C
  8
0
  6
BYLAYER
 62
  256
 10
86.73999999999999
 20
58.61
 11
86.73999999999999
 21
60.96
  0
LINE
  5
16D
  8
0
  6
BYLAYER
 62
  256
 10
86.73999999999999
 20
60.96
 11
71.5
 21
60.96
  0
LINE
  5
16E
  8
0
  6
BYLAYER
 62
  256
 10
71.5
 20
60.96
 11
71.5
 21
58.61
  0
LINE
  5
16F
  8
0
  6
BYLAYER
 62
  256
 10
71.5
 20
58.61
 11
56.26000000000001
 21
58.61
  0
LINE
  5
170
  8
0
  6
BYLAYER
 62
  256
 10
58.61
 20
15.24
 11
58.61
 21
0
  0
CIRCLE
  5
171
  8
0
  6
BYLAYER
 62
  256
 10
71.5
 20
15.24
 40
4
  0
CIRCLE
  5
172
  8
0
  6
BYLAYER
 62
  256
 10
101.98
 20
15.24
 40
4
  0
CIRCLE
  5
173
  8
0
  6
BYLAYER
 62
  256
 10
71.5
 20
45.72
 40
4
  0
CIRCLE
  5
174
  8
0
  6
BYLAYER
 62
  256
 10
101.98
 20
45.72
 40
4
  0
CIRCLE
  5
175
  8
0
  6
BYLAYER
 62
  256
 10
79.11999999999999
 20
15.24
 40
2.25
  0
CIRCLE
  5
176
  8
0
  6
BYLAYER
 62
  256
 10
94.36
 20
15.24
 40
2.25
  0
CIRCLE
  5
177
  8
0
  6
BYLAYER
 62
  256
 10
71.5
 20
22.86
 40
2.25
  0
CIRCLE
  5
178
  8
0
  6
BYLAYER
 62
  256
 10
71.5
 20
38.1
 40
2.25
  0
CIRCLE
  5
179
  8
0
  6
BYLAYER
 62
  256
 10
101.98
 20
22.86
 40
2.25
  0
CIRCLE
  5
17A
  8
0
  6
BYLAYER
 62
  256
 10
101.98
 20
38.1
 40
2.25
  0
CIRCLE
  5
17B
  8
0
  6
BYLAYER
 62
  256
 10
79.11999999999999
 20
45.72
 40
2.25
  0
CIRCLE
  5
17C
  8
0
  6
BYLAYER
 62
  256
 10
94.36
 20
45.72
 40
2.25
  0
CIRCLE
  5
17D
  8
0
  6
BYLAYER
 62
  256
 10
109.6
 20
7.620000000000001
 40
1.5
  0
CIRCLE
  5
17E
  8
0
  6
BYLAYER
 62
  256
 10
63.88
 20
7.620000000000001
 40
1.5
  0
CIRCLE
  5
17F
  8
0
  6
BYLAYER
 62
  256
 10
109.6
 20
53.34
 40
1.5
  0
CIRCLE
  5
180
  8
0
  6
BYLAYER
 62
  256
 10
63.88
 20
53.34
 40
1.5
  0
CIRCLE
  5
181
  8
0
  6
BYLAYER
 62
  256
 10
79.11999999999999
 20
22.86
 40
1.5
  0
CIRCLE
  5
182
  8
0
  6
BYLAYER
 62
  256
 10
94.36
 20
22.86
 40
1.5
  0
CIRCLE
  5
183
  8
0
  6
BYLAYER
 62
  256
 10
94.36
 20
38.1
 40
1.5
  0
CIRCLE
  5
184
  8
0
  6
BYLAYER
 62
  256
 10
79.11999999999999
 20
38.1
 40
1.5
  0
LINE
  5
185
  8
0
  6
BYLAYER
 62
  256
 10
117.22
 20
0
 11
130.11
 21
0
  0
LINE
  5
186
  8
0
  6
BYLAYER
 62
  256
 10
130.11
 20
0
 11
130.11
 21
2.350000000000001
  0
LINE
  5
187
  8
0
  6
BYLAYER
 62
  256
 10
130.11
 20
2.350000000000001
 11
145.35
 21
2.350000000000001
  0
LINE
  5
188
  8
0
  6
BYLAYER
 62
  256
 10
145.35
 20
2.350000000000001
 11
145.35
 21
0
  0
LINE
  5
189
  8
0
  6
BYLAYER
 62
  256
 10
145.35
 20
0
 11
160.59
 21
0
  0
LINE
  5
18A
  8
0
  6
BYLAYER
 62
  256
 10
160.59
 20
0
 11
160.59
 21
2.350000000000001
  0
LINE
  5
18B
  8
0
  6
BYLAYER
 62
  256
 10
160.59
 20
2.350000000000001
 11
175.83
 21
2.350000000000001
  0
LINE
  5
18C
  8
0
  6
BYLAYER
 62
  256
 10
175.83
 20
15.24
 11
173.48
 21
15.24
  0
LINE
  5
18D
  8
0
  6
BYLAYER
 62
  256
 10
173.48
 20
15.24
 11
173.48
 21
30.48
  0
LINE
  5
18E
  8
0
  6
BYLAYER
 62
  256
 10
173.48
 20
30.48
 11
175.83
 21
30.48
  0
LINE
  5
18F
  8
0
  6
BYLAYER
 62
  256
 10
175.83
 20
30.48
 11
175.83
 21
45.72
  0
LINE
  5
190
  8
0
  6
BYLAYER
 62
  256
 10
175.83
 20
45.72
 11
173.48
 21
45.72
  0
LINE
  5
191
  8
0
  6
BYLAYER
 62
  256
 10
173.48
 20
45.72
 11
173.48
 21
60.96
  0
LINE
  5
192
  8
0
  6
BYLAYER
 62
  256
 10
173.48
 20
60.96
 11
160.59
 21
60.96
  0
LINE
  5
193
  8
0
  6
BYLAYER
 62
  256
 10
160.59
 20
60.96
 11
160.59
 21
58.61
  0
LINE
  5
194
  8
0
  6
BYLAYER
 62
  256
 10
160.59
 20
58.61
 11
145.35
 21
58.61
  0
LINE
  5
195
  8
0
  6
BYLAYER
 62
  256
 10
145.35
 20
58.61
 11
145.35
 21
60.96
  0
LINE
  5
196
  8
0
  6
BYLAYER
 62
  256
 10
145.35
 20
60.96
 11
130.11
 21
60.96
  0
LINE
  5
197
  8
0
  6
BYLAYER
 62
  256
 10
130.11
 20
60.96
 11
130.11
 21
58.61
  0
LINE
  5
198
  8
0
  6
BYLAYER
 62
  256
 10
130.11
 20
58.61
 11
114.87
 21
58.61
  0
LINE
  5
199
  8
0
  6
BYLAYER
 62
  256
 10
117.22
 20
15.24
 11
117.22
 21
0
  0
CIRCLE
  5
19A
  8
0
  6
BYLAYER
 62
  256
 10
130.11
 20
15.24
 40
4
  0
CIRCLE
  5
19B
  8
0
  6
BYLAYER
 62
  256
 10
160.59
 20
15.24
 40
4
  0
CIRCLE
  5
19C
  8
0
  6
BYLAYER
 62
  256
 10
130.11
 20
45.72
 40
4
  0
CIRCLE
  5
19D
  8
0
  6
BYLAYER
 62
  256
 10
160.59
 20
45.72
 40
4
  0
CIRCLE
  5
19E
  8
0
  6
BYLAYER
 62
  256
 10
137.73
 20
15.24
 40
2.25
  0
CIRCLE
  5
19F
  8
0
  6
BYLAYER
 62
  256
 10
152.97
 20
15.24
 40
2.25
  0
CIRCLE
  5
1A0
  8
0
  6
BYLAYER
 62
  256
 10
130.11
 20
22.86
 40
2.25
  0
CIRCLE
  5
1A1
  8
0
  6
BYLAYER
 62
  256
 10
130.11
 20
38.1
 40
2.25
  0
CIRCLE
  5
1A2
  8
0
  6
BYLAYER
 62
  256
 10
160.59
 20
22.86
 40
2.25
  0
CIRCLE
  5
1A3
  8
0
  6
BYLAYER
 62
  256
 10
160.59
 20
38.1
 40
2.25
  0
CIRCLE
  5
1A4
  8
0
  6
BYLAYER
 62
  256
 10
137.73
 20
45.72
 40
2.25
  0
CIRCLE
  5
1A5
  8
0
  6
BYLAYER
 62
  256
 10
152.97
 20
45.72
 40
2.25
  0
CIRCLE
  5
1A6
  8
0
  6
BYLAYER
 62
  256
 10
168.21
 20
7.620000000000001
 40
1.5
  0
CIRCLE
  5
1A7
  8
0
  6
BYLAYER
 62
  256
 10
122.49
 20
7.620000000000001
 40
1.5
  0
CIRCLE
  5
1A8
  8
0
  6
BYLAYER
 62
  256
 10
168.21
 20
53.34
 40
1.5
  0
CIRCLE
  5
1A9
  8
0
  6
BYLAYER
 62
  256
 10
122.49
 20
53.34
 40
1.5
  0
CIRCLE
  5
1AA
  8
0
  6
BYLAYER
 62
  256
 10
137.73
 20
22.86
 40
1.5
  0
CIRCLE
  5
1AB
  8
0
  6
BYLAYER
 62
  256
 10
152.97
 20
22.86
 40
1.5
  0
CIRCLE
  5
1AC
  8
0
  6
BYLAYER
 62
  256
 10
152.97
 20
38.1
 40
1.5
  0
CIRCLE
  5
1AD
  8
0
  6
BYLAYER
 62
  256
 10
137.73
 20
38.1
 40
1.5
  0
LINE
  5
1AE
  8
0
  6
BYLAYER
 62
  256
 10
175.83
 20
0
 11
188.72
 21
0
  0
LINE
  5
1AF
  8
0
  6
BYLAYER
 62
  256
 10
188.72
 20
0
 11
188.72
 21
2.350000000000001
  0
LINE
  5
1B0
  8
0
  6
BYLAYER
 62
  256
 10
188.72
 20
2.350000000000001
 11
203.96
 21
2.350000000000001
  0
LINE
  5
1B1
  8
0
  6
BYLAYER
 62
  256
 10
203.96
 20
2.350000000000001
 11
203.96
 21
0
  0
LINE
  5
1B2
  8
0
  6
BYLAYER
 62
  256
 10
203.96
 20
0
 11
219.2
 21
0
  0
LINE
  5
1B3
  8
0
  6
BYLAYER
 62
  256
 10
219.2
 20
0
 11
219.2
 21
2.350000000000001
  0
LINE
  5
1B4
  8
0
  6
BYLAYER
 62
  256
 10
219.2
 20
2.350000000000001
 11
234.4400000000001
 21
2.350000000000001
  0
LINE
  5
1B5
  8
0
  6
BYLAYER
 62
  256
 10
234.4400000000001
 20
15.24
 11
232.09
 21
15.24
  0
LINE
  5
1B6
  8
0
  6
BYLAYER
 62
  256
 10
232.09
 20
15.24
 11
232.09
 21
30.48
  0
LINE
  5
1B7
  8
0
  6
BYLAYER
 62
  256
 10
232.09
 20
30.48
 11
234.4400000000001
 21
30.48
  0
LINE
  5
1B8
  8
0
  6
BYLAYER
 62
  256
 10
234.4400000000001
 20
30.48
 11
234.4400000000001
 21
45.72
  0
LINE
  5
1B9
  8
0
  6
BYLAYER
 62
  256
 10
234.4400000000001
 20
45.72
 11
232.09
 21
45.72
  0
LINE
  5
1BA
  8
0
  6
BYLAYER
 62
  256
 10
232.09
 20
45.72
 11
232.09
 21
60.96
  0
LINE
  5
1BB
  8
0
  6
BYLAYER
 62
  256
 10
232.09
 20
60.96
 11
219.2
 21
60.96
  0
LINE
  5
1BC
  8
0
  6
BYLAYER
 62
  256
 10
219.2
 20
60.96
 11
219.2
 21
58.61
  0
LINE
  5
1BD
  8
0
  6
BYLAYER
 62
  256
 10
219.2
 20
58.61
 11
203.96
 21
58.61
  0
LINE
  5
1BE
  8
0
  6
BYLAYER
 62
  256
 10
203.96
 20
58.61
 11
203.96
 21
60.96
  0
LINE
  5
1BF
  8
0
  6
BYLAYER
 62
  256
 10
203.96
 20
60.96
 11
188.72
 21
60.96
  0
LINE
  5
1C0
  8
0
  6
BYLAYER
 62
  256
 10
188.72
 20
60.96
 11
188.72
 21
58.61
  0
LINE
  5
1C1
  8
0
  6
BYLAYER
 62
  256
 10
188.72
 20
58.61
 11
173.48
 21
58.61
  0
LINE
  5
1C2
  8
0
  6
BYLAYER
 62
  256
 10
175.83
 20
15.24
 11
175.83
 21
0
  0
CIRCLE
  5
1C3
  8
0
  6
BYLAYER
 62
  256
 10
188.72
 20
15.24
 40
4
  0
CIRCLE
  5
1C4
  8
0
  6
BYLAYER
 62
  256
 10
219.2
 20
15.24
 40
4
  0
CIRCLE
  5
1C5
  8
0
  6
BYLAYER
 62
  256
 10
188.72
 20
45.72
 40
4
  0
CIRCLE
  5
1C6
  8
0
  6
BYLAYER
 62
  256
 10
219.2
 20
45.72
 40
4
  0
CIRCLE
  5
1C7
  8
0
  6
BYLAYER
 62
  256
 10
196.34
 20
15.24
 40
2.25
  0
CIRCLE
  5
1C8
  8
0
  6
BYLAYER
 62
  256
 10
211.58
 20
15.24
 40
2.25
  0
CIRCLE
  5
1C9
  8
0
  6
BYLAYER
 62
  256
 10
188.72
 20
22.86
 40
2.25
  0
CIRCLE
  5
1CA
  8
0
  6
BYLAYER
 62
  256
 10
188.72
 20
38.1
 40
2.25
  0
CIRCLE
  5
1CB
  8
0
  6
BYLAYER
 62
  256
 10
219.2
 20
22.86
 40
2.25
  0
CIRCLE
  5
1CC
  8
0
  6
BYLAYER
 62
  256
 10
219.2
 20
38.1
 40
2.25
  0
CIRCLE
  5
1CD
  8
0
  6
BYLAYER
 62
  256
 10
196.34
 20
45.72
 40
2.25
  0
CIRCLE
  5
1CE
  8
0
  6
BYLAYER
 62
  256
 10
211.58
 20
45.72
 40
2.25
  0
CIRCLE
  5
1CF
  8
0
  6
BYLAYER
 62
  256
 10
226.8200000000001
 20
7.620000000000001
 40
1.5
  0
CIRCLE
  5
1D0
  8
0
  6
BYLAYER
 62
  256
 10
181.1000000000001
 20
7.620000000000001
 40
1.5
  0
CIRCLE
  5
1D1
  8
0
  6
BYLAYER
 62
  256
 10
226.8200000000001
 20
53.34
 40
1.5
  0
CIRCLE
  5
1D2
  8
0
  6
BYLAYER
 62
  256
 10
181.1000000000001
 20
53.34
 40
1.5
  0
CIRCLE
  5
1D3
  8
0
  6
BYLAYER
 62
  256
 10
196.34
 20
22.86
 40
1.5
  0
CIRCLE
  5
1D4
  8
0
  6
BYLAYER
 62
  256
 10
211.58
 20
22.86
 40
1.5
  0
CIRCLE
  5
1D5
  8
0
  6
BYLAYER
 62
  256
 10
211.58
 20
38.1
 40
1.5
  0
CIRCLE
  5
1D6
  8
0
  6
BYLAYER
 62
  256
 10
196.34
 20
38.1
 40
1.5
  0
LINE
  5
1D7
  8
0
  6
BYLAYER
 62
  256
 10
234.4400000000001
 20
0
 11
247.33
 21
0
  0
LINE
  5
1D8
  8
0
  6
BYLAYER
 62
  256
 10
247.33
 20
0
 11
247.33
 21
2.350000000000001
  0
LINE
  5
1D9
  8
0
  6
BYLAYER
 62
  256
 10
247.33
 20
2.350000000000001
 11
262.5700000000001
 21
2.350000000000001
  0
LINE
  5
1DA
  8
0
  6
BYLAYER
 62
  256
 10
262.5700000000001
 20
2.350000000000001
 11
262.5700000000001
 21
0
  0
LINE
  5
1DB
  8
0
  6
BYLAYER
 62
  256
 10
262.5700000000001
 20
0
 11
277.8100000000001
 21
0
  0
LINE
  5
1DC
  8
0
  6
BYLAYER
 62
  256
 10
277.8100000000001
 20
0
 11
277.8100000000001
 21
2.350000000000001
  0
LINE
  5
1DD
  8
0
  6
BYLAYER
 62
  256
 10
277.8100000000001
 20
2.350000000000001
 11
293.0500000000001
 21
2.350000000000001
  0
LINE
  5
1DE
  8
0
  6
BYLAYER
 62
  256
 10
293.0500000000001
 20
15.24
 11
290.7
 21
15.24
  0
LINE
  5
1DF
  8
0
  6
BYLAYER
 62
  256
 10
290.7
 20
15.24
 11
290.7
 21
30.48
  0
LINE
  5
1E0
  8
0
  6
BYLAYER
 62
  256
 10
290.7
 20
30.48
 11
293.0500000000001
 21
30.48
  0
LINE
  5
1E1
  8
0
  6
BYLAYER
 62
  256
 10
293.0500000000001
 20
30.48
 11
293.0500000000001
 21
45.72
  0
LINE
  5
1E2
  8
0
  6
BYLAYER
 62
  256
 10
293.0500000000001
 20
45.72
 11
290.7
 21
45.72
  0
LINE
  5
1E3
  8
0
  6
BYLAYER
 62
  256
 10
290.7
 20
45.72
 11
290.7
 21
60.96
  0
LINE
  5
1E4
  8
0
  6
BYLAYER
 62
  256
 10
290.7
 20
60.96
 11
277.8100000000001
 21
60.96
  0
LINE
  5
1E5
  8
0
  6
BYLAYER
 62
  256
 10
277.8100000000001
 20
60.96
 11
277.8100000000001
 21
58.61
  0
LINE
  5
1E6
  8
0
  6
BYLAYER
 62
  256
 10
277.8100000000001
 20
58.61
 11
262.5700000000001
 21
58.61
  0
LINE
  5
1E7
  8
0
  6
BYLAYER
 62
  256
 10
262.5700000000001
 20
58.61
 11
262.5700000000001
 21
60.96
  0
LINE
  5
1E8
  8
0
  6
BYLAYER
 62
  256
 10
262.5700000000001
 20
60.96
 11
247.33
 21
60.96
  0
LINE
  5
1E9
  8
0
  6
BYLAYER
 62
  256
 10
247.33
 20
60.96
 11
247.33
 21
58.61
  0
LINE
  5
1EA
  8
0
  6
BYLAYER
 62
  256
 10
247.33
 20
58.61
 11
232.09
 21
58.61
  0
LINE
  5
1EB
  8
0
  6
BYLAYER
 62
  256
 10
234.4400000000001
 20
15.24
 11
234.4400000000001
 21
0
  0
CIRCLE
  5
1EC
  8
0
  6
BYLAYER
 62
  256
 10
247.33
 20
15.24
 40
4
  0
CIRCLE
  5
1ED
  8
0
  6
BYLAYER
 62
  256
 10
277.8100000000001
 20
15.24
 40
4
  0
CIRCLE
  5
1EE
  8
0
  6
BYLAYER
 62
  256
 10
247.33
 20
45.72
 40
4
  0
CIRCLE
  5
1EF
  8
0
  6
BYLAYER
 62
  256
 10
277.8100000000001
 20
45.72
 40
4
  0
CIRCLE
  5
1F0
  8
0
  6
BYLAYER
 62
  256
 10
254.95
 20
15.24
 40
2.25
  0
CIRCLE
  5
1F1
  8
0
  6
BYLAYER
 62
  256
 10
270.1900000000001
 20
15.24
 40
2.25
  0
CIRCLE
  5
1F2
  8
0
  6
BYLAYER
 62
  256
 10
247.33
 20
22.86
 40
2.25
  0
CIRCLE
  5
1F3
  8
0
  6
BYLAYER
 62
  256
 10
247.33
 20
38.1
 40
2.25
  0
CIRCLE
  5
1F4
  8
0
  6
BYLAYER
 62
  256
 10
277.8100000000001
 20
22.86
 40
2.25
  0
CIRCLE
  5
1F5
  8
0
  6
BYLAYER
 62
  256
 10
277.8100000000001
 20
38.1
 40
2.25
  0
CIRCLE
  5
1F6
  8
0
  6
BYLAYER
 62
  256
 10
254.95
 20
45.72
 40
2.25
  0
CIRCLE
  5
1F7
  8
0
  6
BYLAYER
 62
  256
 10
270.1900000000001
 20
45.72
 40
2.25
  0
CIRCLE
  5
1F8
  8
0
  6
BYLAYER
 62
  256
 10
285.4300000000001
 20
7.620000000000001
 40
1.5
  0
CIRCLE
  5
1F9
  8
0
  6
BYLAYER
 62
  256
 10
239.71
 20
7.620000000000001
 40
1.5
  0
CIRCLE
  5
1FA
  8
0
  6
BYLAYER
 62
  256
 10
285.4300000000001
 20
53.34
 40
1.5
  0
CIRCLE
  5
1FB
  8
0
  6
BYLAYER
 62
  256
 10
239.71
 20
53.34
 40
1.5
  0
CIRCLE
  5
1FC
  8
0
  6
BYLAYER
 62
  256
 10
254.95
 20
22.86
 40
1.5
  0
CIRCLE
  5
1FD
  8
0
  6
BYLAYER
 62
  256
 10
270.1900000000001
 20
22.86
 40
1.5
  0
CIRCLE
  5
1FE
  8
0
  6
BYLAYER
 62
  256
 10
270.1900000000001
 20
38.1
 40
1.5
  0
CIRCLE
  5
1FF
  8
0
  6
BYLAYER
 62
  256
 10
254.95
 20
38.1
 40
1.5
  0
LINE
  5
200
  8
0
  6
BYLAYER
 62
  256
 10
293.0500000000001
 20
0
 11
305.9400000000001
 21
0
  0
LINE
  5
201
  8
0
  6
BYLAYER
 62
  256
 10
305.9400000000001
 20
0
 11
305.9400000000001
 21
2.350000000000001
  0
LINE
  5
202
  8
0
  6
BYLAYER
 62
  256
 10
305.9400000000001
 20
2.350000000000001
 11
321.1800000000001
 21
2.350000000000001
  0
LINE
  5
203
  8
0
  6
BYLAYER
 62
  256
 10
321.1800000000001
 20
2.350000000000001
 11
321.1800000000001
 21
0
  0
LINE
  5
204
  8
0
  6
BYLAYER
 62
  256
 10
321.1800000000001
 20
0
 11
336.4200000000001
 21
0
  0
LINE
  5
205
  8
0
  6
BYLAYER
 62
  256
 10
336.4200000000001
 20
0
 11
336.4200000000001
 21
2.350000000000001
  0
LINE
  5
206
  8
0
  6
BYLAYER
 62
  256
 10
336.4200000000001
 20
2.350000000000001
 11
351.6600000000001
 21
2.350000000000001
  0
LINE
  5
207
  8
0
  6
BYLAYER
 62
  256
 10
351.6600000000001
 20
2.350000000000001
 11
351.6600000000001
 21
15.24
  0
LINE
  5
208
  8
0
  6
BYLAYER
 62
  256
 10
351.6600000000001
 20
15.24
 11
349.3100000000001
 21
15.24
  0
LINE
  5
209
  8
0
  6
BYLAYER
 62
  256
 10
349.3100000000001
 20
15.24
 11
349.3100000000001
 21
30.48
  0
LINE
  5
20A
  8
0
  6
BYLAYER
 62
  256
 10
349.3100000000001
 20
30.48
 11
351.6600000000001
 21
30.48
  0
LINE
  5
20B
  8
0
  6
BYLAYER
 62
  256
 10
351.6600000000001
 20
30.48
 11
351.6600000000001
 21
45.72
  0
LINE
  5
20C
  8
0
  6
BYLAYER
 62
  256
 10
351.6600000000001
 20
45.72
 11
349.3100000000001
 21
45.72
  0
LINE
  5
20D
  8
0
  6
BYLAYER
 62
  256
 10
349.3100000000001
 20
45.72
 11
349.3100000000001
 21
60.96
  0
LINE
  5
20E
  8
0
  6
BYLAYER
 62
  256
 10
349.3100000000001
 20
60.96
 11
336.4200000000001
 21
60.96
  0
LINE
  5
20F
  8
0
  6
BYLAYER
 62
  256
 10
336.4200000000001
 20
60.96
 11
336.4200000000001
 21
58.61
  0
LINE
  5
210
  8
0
  6
BYLAYER
 62
  256
 10
336.4200000000001
 20
58.61
 11
321.1800000000001
 21
58.61
  0
LINE
  5
211
  8
0
  6
BYLAYER
 62
  256
 10
321.1800000000001
 20
58.61
 11
321.1800000000001
 21
60.96
  0
LINE
  5
212
  8
0
  6
BYLAYER
 62
  256
 10
321.1800000000001
 20
60.96
 11
305.9400000000001
 21
60.96
  0
LINE
  5
213
  8
0
  6
BYLAYER
 62
  256
 10
305.9400000000001
 20
60.96
 11
305.9400000000001
 21
58.61
  0
LINE
  5
214
  8
0
  6
BYLAYER
 62
  256
 10
305.9400000000001
 20
58.61
 11
290.7
 21
58.61
  0
LINE
  5
215
  8
0
  6
BYLAYER
 62
  256
 10
293.0500000000001
 20
15.24
 11
293.0500000000001
 21
0
  0
CIRCLE
  5
216
  8
0
  6
BYLAYER
 62
  256
 10
305.9400000000001
 20
15.24
 40
4
  0
CIRCLE
  5
217
  8
0
  6
BYLAYER
 62
  256
 10
336.4200000000001
 20
15.24
 40
4
  0
CIRCLE
  5
218
  8
0
  6
BYLAYER
 62
  256
 10
305.9400000000001
 20
45.72
 40
4
  0
CIRCLE
  5
219
  8
0
  6
BYLAYER
 62
  256
 10
336.4200000000001
 20
45.72
 40
4
  0
CIRCLE
  5
21A
  8
0
  6
BYLAYER
 62
  256
 10
313.5600000000001
 20
15.24
 40
2.25
  0
CIRCLE
  5
21B
  8
0
  6
BYLAYER
 62
  256
 10
328.8000000000001
 20
15.24
 40
2.25
  0
CIRCLE
  5
21C
  8
0
  6
BYLAYER
 62
  256
 10
305.9400000000001
 20
22.86
 40
2.25
  0
CIRCLE
  5
21D
  8
0
  6
BYLAYER
 62
  256
 10
305.9400000000001
 20
38.1
 40
2.25
  0
CIRCLE
  5
21E
  8
0
  6
BYLAYER
 62
  256
 10
336.4200000000001
 20
22.86
 40
2.25
  0
CIRCLE
  5
21F
  8
0
  6
BYLAYER
 62
  256
 10
336.4200000000001
 20
38.1
 40
2.25
  0
CIRCLE
  5
220
  8
0
  6
BYLAYER
 62
  256
 10
313.5600000000001
 20
45.72
 40
2.25
  0
CIRCLE
  5
221
  8
0
  6
BYLAYER
 62
  256
 10
328.8000000000001
 20
45.72
 40
2.25
  0
CIRCLE
  5
222
  8
0
  6
BYLAYER
 62
  256
 10
344.0400000000001
 20
7.620000000000001
 40
1.5
  0
CIRCLE
  5
223
  8
0
  6
BYLAYER
 62
  256
 10
298.3200000000001
 20
7.620000000000001
 40
1.5
  0
CIRCLE
  5
224
  8
0
  6
BYLAYER
 62
  256
 10
344.0400000000001
 20
53.34
 40
1.5
  0
CIRCLE
  5
225
  8
0
  6
BYLAYER
 62
  256
 10
298.3200000000001
 20
53.34
 40
1.5
  0
CIRCLE
  5
226
  8
0
  6
BYLAYER
 62
  256
 10
313.5600000000001
 20
22.86
 40
1.5
  0
CIRCLE
  5
227
  8
0
  6
BYLAYER
 62
  256
 10
328.8000000000001
 20
22.86
 40
1.5
  0
CIRCLE
  5
228
  8
0
  6
BYLAYER
 62
  256
 10
328.8000000000001
 20
38.1
 40
1.5
  0
CIRCLE
  5
229
  8
0
  6
BYLAYER
 62
  256
 10
313.5600000000001
 20
38.1
 40
1.5
  0
LINE
  5
22A
  8
0
  6
BYLAYER
 62
  256
 10
2.459999999999999
 20
63
 11
13
 21
63
  0
LINE
  5
22B
  8
0
  6
BYLAYER
 62
  256
 10
13
 20
63
 11
13
 21
65.34999999999999
  0
LINE
  5
22C
  8
0
  6
BYLAYER
 62
  256
 10
13
 20
65.34999999999999
 11
28.24
 21
65.34999999999999
  0
LINE
  5
22D
  8
0
  6
BYLAYER
 62
  256
 10
28.24
 20
65.34999999999999
 11
28.24
 21
63
  0
LINE
  5
22E
  8
0
  6
BYLAYER
 62
  256
 10
28.24
 20
63
 11
43.48
 21
63
  0
LINE
  5
22F
  8
0
  6
BYLAYER
 62
  256
 10
43.48
 20
63
 11
43.48
 21
65.34999999999999
  0
LINE
  5
230
  8
0
  6
BYLAYER
 62
  256
 10
43.48
 20
65.34999999999999
 11
56.37
 21
65.34999999999999
  0
LINE
  5
231
  8
0
  6
BYLAYER
 62
  256
 10
56.37
 20
75.89
 11
54.02
 21
75.89
  0
LINE
  5
232
  8
0
  6
BYLAYER
 62
  256
 10
54.02
 20
75.89
 11
54.02
 21
91.13
  0
LINE
  5
233
  8
0
  6
BYLAYER
 62
  256
 10
54.02
 20
91.13
 11
56.37
 21
91.13
  0
LINE
  5
234
  8
0
  6
BYLAYER
 62
  256
 10
56.37
 20
91.13
 11
56.37
 21
106.37
  0
LINE
  5
235
  8
0
  6
BYLAYER
 62
  256
 10
56.37
 20
106.37
 11
54.02
 21
106.37
  0
LINE
  5
236
  8
0
  6
BYLAYER
 62
  256
 10
54.02
 20
106.37
 11
54.02
 21
119.26
  0
LINE
  5
237
  8
0
  6
BYLAYER
 62
  256
 10
54.02
 20
119.26
 11
43.48
 21
119.26
  0
LINE
  5
238
  8
0
  6
BYLAYER
 62
  256
 10
43.48
 20
119.26
 11
43.48
 21
116.91
  0
LINE
  5
239
  8
0
  6
BYLAYER
 62
  256
 10
43.48
 20
116.91
 11
28.24
 21
116.91
  0
LINE
  5
23A
  8
0
  6
BYLAYER
 62
  256
 10
28.24
 20
116.91
 11
28.24
 21
119.26
  0
LINE
  5
23B
  8
0
  6
BYLAYER
 62
  256
 10
28.24
 20
119.26
 11
13
 21
119.26
  0
LINE
  5
23C
  8
0
  6
BYLAYER
 62
  256
 10
13
 20
119.26
 11
13
 21
116.91
  0
LINE
  5
23D
  8
0
  6
BYLAYER
 62
  256
 10
13
 20
116.91
 11
0.1100000000000012
 21
116.91
  0
LINE
  5
23E
  8
0
  6
BYLAYER
 62
  256
 10
0.1100000000000012
 20
116.91
 11
0.1100000000000012
 21
106.37
  0
LINE
  5
23F
  8
0
  6
BYLAYER
 62
  256
 10
0.1100000000000012
 20
106.37
 11
2.459999999999999
 21
106.37
  0
LINE
  5
240
  8
0
  6
BYLAYER
 62
  256
 10
2.459999999999999
 20
106.37
 11
2.459999999999999
 21
91.13
  0
LINE
  5
241
  8
0
  6
BYLAYER
 62
  256
 10
2.459999999999999
 20
91.13
 11
0.1100000000000012
 21
91.13
  0
LINE
  5
242
  8
0
  6
BYLAYER
 62
  256
 10
0.1100000000000012
 20
91.13
 11
0.1100000000000012
 21
75.89
  0
LINE
  5
243
  8
0
  6
BYLAYER
 62
  256
 10
0.1100000000000012
 20
75.89
 11
2.459999999999999
 21
75.89
  0
LINE
  5
244
  8
0
  6
BYLAYER
 62
  256
 10
2.459999999999999
 20
75.89
 11
2.459999999999999
 21
63
  0
LINE
  5
245
  8
0
  6
BYLAYER
 62
  256
 10
2.377778600200001
 20
113.99
 11
3.878889300100001
 21
116.59
  0
LINE
  5
246
  8
0
  6
BYLAYER
 62
  256
 10
3.878889300100001
 20
116.59
 11
6.881110699900001
 21
116.59
  0
LINE
  5
247
  8
0
  6
BYLAYER
 62
  256
 10
6.881110699900001
 20
116.59
 11
8.382221399800001
 21
113.99
  0
LINE
  5
248
  8
0
  6
BYLAYER
 62
  256
 10
8.382221399800001
 20
113.99
 11
6.881110699900001
 21
111.39
  0
LINE
  5
249
  8
0
  6
BYLAYER
 62
  256
 10
6.881110699900001
 20
111.39
 11
3.878889300100001
 21
111.39
  0
LINE
  5
24A
  8
0
  6
BYLAYER
 62
  256
 10
3.878889300100001
 20
111.39
 11
2.377778600200001
 21
113.99
  0
LINE
  5
24B
  8
0
  6
BYLAYER
 62
  256
 10
54.1022213998
 20
68.27
 11
52.6011106999
 21
65.66999999999999
  0
LINE
  5
24C
  8
0
  6
BYLAYER
 62
  256
 10
52.6011106999
 20
65.66999999999999
 11
49.59888930010001
 21
65.66999999999999
  0
LINE
  5
24D
  8
0
  6
BYLAYER
 62
  256
 10
49.59888930010001
 20
65.66999999999999
 11
48.0977786002
 21
68.27
  0
LINE
  5
24E
  8
0
  6
BYLAYER
 62
  256
 10
48.0977786002
 20
68.27
 11
49.59888930010001
 21
70.86999999999999
  0
LINE
  5
24F
  8
0
  6
BYLAYER
 62
  256
 10
49.59888930010001
 20
70.86999999999999
 11
52.6011106999
 21
70.86999999999999
  0
LINE
  5
250
  8
0
  6
BYLAYER
 62
  256
 10
52.6011106999
 20
70.86999999999999
 11
54.1022213998
 21
68.27
  0
LINE
  5
251
  8
0
  6
BYLAYER
 62
  256
 10
53.7
 20
115.4911106999
 11
53.7
 21
112.4888893001
  0
LINE
  5
252
  8
0
  6
BYLAYER
 62
  256
 10
53.7
 20
112.4888893001
 11
51.1
 21
110.9877786002
  0
LINE
  5
253
  8
0
  6
BYLAYER
 62
  256
 10
51.1
 20
110.9877786002
 11
48.50000000000001
 21
112.4888893001
  0
LINE
  5
254
  8
0
  6
BYLAYER
 62
  256
 10
48.50000000000001
 20
112.4888893001
 11
48.50000000000001
 21
115.4911106999
  0
LINE
  5
255
  8
0
  6
BYLAYER
 62
  256
 10
48.50000000000001
 20
115.4911106999
 11
51.1
 21
116.9922213998
  0
LINE
  5
256
  8
0
  6
BYLAYER
 62
  256
 10
51.1
 20
116.9922213998
 11
53.7
 21
115.4911106999
  0
LINE
  5
257
  8
0
  6
BYLAYER
 62
  256
 10
7.979999999999999
 20
69.77111069989999
 11
7.979999999999999
 21
66.7688893001
  0
LINE
  5
258
  8
0
  6
BYLAYER
 62
  256
 10
7.979999999999999
 20
66.7688893001
 11
5.380000000000001
 21
65.26777860019999
  0
LINE
  5
259
  8
0
  6
BYLAYER
 62
  256
 10
5.380000000000001
 20
65.26777860019999
 11
2.779999999999999
 21
66.7688893001
  0
LINE
  5
25A
  8
0
  6
BYLAYER
 62
  256
 10
2.779999999999999
 20
66.7688893001
 11
2.779999999999999
 21
69.77111069989999
  0
LINE
  5
25B
  8
0
  6
BYLAYER
 62
  256
 10
2.779999999999999
 20
69.77111069989999
 11
5.380000000000001
 21
71.2722213998
  0
LINE
  5
25C
  8
0
  6
BYLAYER
 62
  256
 10
5.380000000000001
 20
71.2722213998
 11
7.979999999999999
 21
69.77111069989999
  0
LINE
  5
25D
  8
0
  6
BYLAYER
 62
  256
 10
23.21999999999
 20
100.25111069989
 11
23.21999999999
 21
97.24888930010999
  0
LINE
  5
25E
  8
0
  6
BYLAYER
 62
  256
 10
23.21999999999
 20
97.24888930010999
 11
20.62
 21
95.74777860022
  0
LINE
  5
25F
  8
0
  6
BYLAYER
 62
  256
 10
20.62
 20
95.74777860022
 11
18.02
 21
97.24888930010999
  0
LINE
  5
260
  8
0
  6
BYLAYER
 62
  256
 10
18.02
 20
97.24888930010999
 11
18.02
 21
100.25111069991
  0
LINE
  5
261
  8
0
  6
BYLAYER
 62
  256
 10
18.02
 20
100.25111069991
 11
20.62
 21
101.7522213998
  0
LINE
  5
262
  8
0
  6
BYLAYER
 62
  256
 10
20.62
 20
101.7522213998
 11
23.21999999999
 21
100.25111069989
  0
LINE
  5
263
  8
0
  6
BYLAYER
 62
  256
 10
38.46
 20
100.25111069989
 11
38.46
 21
97.24888930010999
  0
LINE
  5
264
  8
0
  6
BYLAYER
 62
  256
 10
38.46
 20
97.24888930010999
 11
35.86
 21
95.74777860022
  0
LINE
  5
265
  8
0
  6
BYLAYER
 62
  256
 10
35.86
 20
95.74777860022
 11
33.25999999999
 21
97.24888930012
  0
LINE
  5
266
  8
0
  6
BYLAYER
 62
  256
 10
33.25999999999
 20
97.24888930012
 11
33.25999999999
 21
100.25111069991
  0
LINE
  5
267
  8
0
  6
BYLAYER
 62
  256
 10
33.25999999999
 20
100.25111069991
 11
35.86
 21
101.7522213998
  0
LINE
  5
268
  8
0
  6
BYLAYER
 62
  256
 10
35.86
 20
101.7522213998
 11
38.46
 21
100.25111069989
  0
LINE
  5
269
  8
0
  6
BYLAYER
 62
  256
 10
23.21999999999
 20
85.01111069989
 11
23.21999999999
 21
82.00888930011
  0
LINE
  5
26A
  8
0
  6
BYLAYER
 62
  256
 10
23.21999999999
 20
82.00888930011
 11
20.62
 21
80.5077786002
  0
LINE
  5
26B
  8
0
  6
BYLAYER
 62
  256
 10
20.62
 20
80.5077786002
 11
18.02
 21
82.00888930011999
  0
LINE
  5
26C
  8
0
  6
BYLAYER
 62
  256
 10
18.02
 20
82.00888930011999
 11
18.02
 21
85.01111069990999
  0
LINE
  5
26D
  8
0
  6
BYLAYER
 62
  256
 10
18.02
 20
85.01111069990999
 11
20.62
 21
86.51222139977999
  0
LINE
  5
26E
  8
0
  6
BYLAYER
 62
  256
 10
20.62
 20
86.51222139977999
 11
23.21999999999
 21
85.01111069989
  0
LINE
  5
26F
  8
0
  6
BYLAYER
 62
  256
 10
38.46
 20
85.01111069989
 11
38.46
 21
82.00888930011
  0
LINE
  5
270
  8
0
  6
BYLAYER
 62
  256
 10
38.46
 20
82.00888930011
 11
35.86
 21
80.5077786002
  0
LINE
  5
271
  8
0
  6
BYLAYER
 62
  256
 10
35.86
 20
80.5077786002
 11
33.25999999999
 21
82.00888930011999
  0
LINE
  5
272
  8
0
  6
BYLAYER
 62
  256
 10
33.25999999999
 20
82.00888930011999
 11
33.25999999999
 21
85.01111069990999
  0
LINE
  5
273
  8
0
  6
BYLAYER
 62
  256
 10
33.25999999999
 20
85.01111069990999
 11
35.86
 21
86.51222139977999
  0
LINE
  5
274
  8
0
  6
BYLAYER
 62
  256
 10
35.86
 20
86.51222139977999
 11
38.46
 21
85.01111069989
  0
LINE
  5
275
  8
0
  6
BYLAYER
 62
  256
 10
56.37
 20
63
 11
66.91
 21
63
  0
LINE
  5
276
  8
0
  6
BYLAYER
 62
  256
 10
66.91
 20
63
 11
66.91
 21
65.34999999999999
  0
LINE
  5
277
  8
0
  6
BYLAYER
 62
  256
 10
66.91
 20
65.34999999999999
 11
82.14999999999999
 21
65.34999999999999
  0
LINE
  5
278
  8
0
  6
BYLAYER
 62
  256
 10
82.14999999999999
 20
65.34999999999999
 11
82.14999999999999
 21
63
  0
LINE
  5
279
  8
0
  6
BYLAYER
 62
  256
 10
82.14999999999999
 20
63
 11
97.39
 21
63
  0
LINE
  5
27A
  8
0
  6
BYLAYER
 62
  256
 10
97.39
 20
63
 11
97.39
 21
65.34999999999999
  0
LINE
  5
27B
  8
0
  6
BYLAYER
 62
  256
 10
97.39
 20
65.34999999999999
 11
110.28
 21
65.34999999999999
  0
LINE
  5
27C
  8
0
  6
BYLAYER
 62
  256
 10
110.28
 20
75.89
 11
107.93
 21
75.89
  0
LINE
  5
27D
  8
0
  6
BYLAYER
 62
  256
 10
107.93
 20
75.89
 11
107.93
 21
91.13
  0
LINE
  5
27E
  8
0
  6
BYLAYER
 62
  256
 10
107.93
 20
91.13
 11
110.28
 21
91.13
  0
LINE
  5
27F
  8
0
  6
BYLAYER
 62
  256
 10
110.28
 20
91.13
 11
110.28
 21
106.37
  0
LINE
  5
280
  8
0
  6
BYLAYER
 62
  256
 10
110.28
 20
106.37
 11
107.93
 21
106.37
  0
LINE
  5
281
  8
0
  6
BYLAYER
 62
  256
 10
107.93
 20
106.37
 11
107.93
 21
119.26
  0
LINE
  5
282
  8
0
  6
BYLAYER
 62
  256
 10
107.93
 20
119.26
 11
97.39
 21
119.26
  0
LINE
  5
283
  8
0
  6
BYLAYER
 62
  256
 10
97.39
 20
119.26
 11
97.39
 21
116.91
  0
LINE
  5
284
  8
0
  6
BYLAYER
 62
  256
 10
97.39
 20
116.91
 11
82.14999999999999
 21
116.91
  0
LINE
  5
285
  8
0
  6
BYLAYER
 62
  256
 10
82.14999999999999
 20
116.91
 11
82.14999999999999
 21
119.26
  0
LINE
  5
286
  8
0
  6
BYLAYER
 62
  256
 10
82.14999999999999
 20
119.26
 11
66.91
 21
119.26
  0
LINE
  5
287
  8
0
  6
BYLAYER
 62
  256
 10
66.91
 20
119.26
 11
66.91
 21
116.91
  0
LINE
  5
288
  8
0
  6
BYLAYER
 62
  256
 10
66.91
 20
116.91
 11
54.02
 21
116.91
  0
LINE
  5
289
  8
0
  6
BYLAYER
 62
  256
 10
56.37
 20
75.89
 11
56.37
 21
63
  0
LINE
  5
28A
  8
0
  6
BYLAYER
 62
  256
 10
56.28777860019999
 20
113.99
 11
57.7888893001
 21
116.59
  0
LINE
  5
28B
  8
0
  6
BYLAYER
 62
  256
 10
57.7888893001
 20
116.59
 11
60.7911106999
 21
116.59
  0
LINE
  5
28C
  8
0
  6
BYLAYER
 62
  256
 10
60.7911106999
 20
116.59
 11
62.29222139980001
 21
113.99
  0
LINE
  5
28D
  8
0
  6
BYLAYER
 62
  256
 10
62.29222139980001
 20
113.99
 11
60.7911106999
 21
111.39
  0
LINE
  5
28E
  8
0
  6
BYLAYER
 62
  256
 10
60.7911106999
 20
111.39
 11
57.7888893001
 21
111.39
  0
LINE
  5
28F
  8
0
  6
BYLAYER
 62
  256
 10
57.7888893001
 20
111.39
 11
56.28777860019999
 21
113.99
  0
LINE
  5
290
  8
0
  6
BYLAYER
 62
  256
 10
108.0122213998
 20
68.27
 11
106.5111106999
 21
65.66999999999999
  0
LINE
  5
291
  8
0
  6
BYLAYER
 62
  256
 10
106.5111106999
 20
65.66999999999999
 11
103.5088893001
 21
65.66999999999999
  0
LINE
  5
292
  8
0
  6
BYLAYER
 62
  256
 10
103.5088893001
 20
65.66999999999999
 11
102.0077786002
 21
68.27
  0
LINE
  5
293
  8
0
  6
BYLAYER
 62
  256
 10
102.0077786002
 20
68.27
 11
103.5088893001
 21
70.86999999999999
  0
LINE
  5
294
  8
0
  6
BYLAYER
 62
  256
 10
103.5088893001
 20
70.86999999999999
 11
106.5111106999
 21
70.86999999999999
  0
LINE
  5
295
  8
0
  6
BYLAYER
 62
  256
 10
106.5111106999
 20
70.86999999999999
 11
108.0122213998
 21
68.27
  0
LINE
  5
296
  8
0
  6
BYLAYER
 62
  256
 10
107.61
 20
115.4911106999
 11
107.61
 21
112.4888893001
  0
LINE
  5
297
  8
0
  6
BYLAYER
 62
  256
 10
107.61
 20
112.4888893001
 11
105.01
 21
110.9877786002
  0
LINE
  5
298
  8
0
  6
BYLAYER
 62
  256
 10
105.01
 20
110.9877786002
 11
102.41
 21
112.4888893001
  0
LINE
  5
299
  8
0
  6
BYLAYER
 62
  256
 10
102.41
 20
112.4888893001
 11
102.41
 21
115.4911106999
  0
LINE
  5
29A
  8
0
  6
BYLAYER
 62
  256
 10
102.41
 20
115.4911106999
 11
105.01
 21
116.9922213998
  0
LINE
  5
29B
  8
0
  6
BYLAYER
 62
  256
 10
105.01
 20
116.9922213998
 11
107.61
 21
115.4911106999
  0
LINE
  5
29C
  8
0
  6
BYLAYER
 62
  256
 10
61.88999999999999
 20
69.77111069989999
 11
61.88999999999999
 21
66.7688893001
  0
LINE
  5
29D
  8
0
  6
BYLAYER
 62
  256
 10
61.88999999999999
 20
66.7688893001
 11
59.29
 21
65.26777860019999
  0
LINE
  5
29E
  8
0
  6
BYLAYER
 62
  256
 10
59.29
 20
65.26777860019999
 11
56.68999999999999
 21
66.7688893001
  0
LINE
  5
29F
  8
0
  6
BYLAYER
 62
  256
 10
56.68999999999999
 20
66.7688893001
 11
56.68999999999999
 21
69.77111069989999
  0
LINE
  5
2A0
  8
0
  6
BYLAYER
 62
  256
 10
56.68999999999999
 20
69.77111069989999
 11
59.29
 21
71.2722213998
  0
LINE
  5
2A1
  8
0
  6
BYLAYER
 62
  256
 10
59.29
 20
71.2722213998
 11
61.88999999999999
 21
69.77111069989999
  0
LINE
  5
2A2
  8
0
  6
BYLAYER
 62
  256
 10
77.12999999998999
 20
100.25111069989
 11
77.12999999998999
 21
97.24888930010999
  0
LINE
  5
2A3
  8
0
  6
BYLAYER
 62
  256
 10
77.12999999998999
 20
97.24888930010999
 11
74.52999999999999
 21
95.74777860022
  0
LINE
  5
2A4
  8
0
  6
BYLAYER
 62
  256
 10
74.52999999999999
 20
95.74777860022
 11
71.92999999999999
 21
97.24888930010999
  0
LINE
  5
2A5
  8
0
  6
BYLAYER
 62
  256
 10
71.92999999999999
 20
97.24888930010999
 11
71.92999999999999
 21
100.25111069991
  0
LINE
  5
2A6
  8
0
  6
BYLAYER
 62
  256
 10
71.92999999999999
 20
100.25111069991
 11
74.52999999999999
 21
101.7522213998
  0
LINE
  5
2A7
  8
0
  6
BYLAYER
 62
  256
 10
74.52999999999999
 20
101.7522213998
 11
77.12999999998999
 21
100.25111069989
  0
LINE
  5
2A8
  8
0
  6
BYLAYER
 62
  256
 10
92.36999999999999
 20
100.25111069989
 11
92.36999999999999
 21
97.24888930010999
  0
LINE
  5
2A9
  8
0
  6
BYLAYER
 62
  256
 10
92.36999999999999
 20
97.24888930010999
 11
89.77
 21
95.74777860022
  0
LINE
  5
2AA
  8
0
  6
BYLAYER
 62
  256
 10
89.77
 20
95.74777860022
 11
87.16999999999
 21
97.24888930012
  0
LINE
  5
2AB
  8
0
  6
BYLAYER
 62
  256
 10
87.16999999999
 20
97.24888930012
 11
87.16999999999
 21
100.25111069991
  0
LINE
  5
2AC
  8
0
  6
BYLAYER
 62
  256
 10
87.16999999999
 20
100.25111069991
 11
89.77
 21
101.7522213998
  0
LINE
  5
2AD
  8
0
  6
BYLAYER
 62
  256
 10
89.77
 20
101.7522213998
 11
92.36999999999999
 21
100.25111069989
  0
LINE
  5
2AE
  8
0
  6
BYLAYER
 62
  256
 10
77.12999999998999
 20
85.01111069989
 11
77.12999999998999
 21
82.00888930011
  0
LINE
  5
2AF
  8
0
  6
BYLAYER
 62
  256
 10
77.12999999998999
 20
82.00888930011
 11
74.52999999999999
 21
80.5077786002
  0
LINE
  5
2B0
  8
0
  6
BYLAYER
 62
  256
 10
74.52999999999999
 20
80.5077786002
 11
71.92999999999999
 21
82.00888930011999
  0
LINE
  5
2B1
  8
0
  6
BYLAYER
 62
  256
 10
71.92999999999999
 20
82.00888930011999
 11
71.92999999999999
 21
85.01111069990999
  0
LINE
  5
2B2
  8
0
  6
BYLAYER
 62
  256
 10
71.92999999999999
 20
85.01111069990999
 11
74.52999999999999
 21
86.51222139977999
  0
LINE
  5
2B3
  8
0
  6
BYLAYER
 62
  256
 10
74.52999999999999
 20
86.51222139977999
 11
77.12999999998999
 21
85.01111069989
  0
LINE
  5
2B4
  8
0
  6
BYLAYER
 62
  256
 10
92.36999999999999
 20
85.01111069989
 11
92.36999999999999
 21
82.00888930011
  0
LINE
  5
2B5
  8
0
  6
BYLAYER
 62
  256
 10
92.36999999999999
 20
82.00888930011
 11
89.77
 21
80.5077786002
  0
LINE
  5
2B6
  8
0
  6
BYLAYER
 62
  256
 10
89.77
 20
80.5077786002
 11
87.16999999999
 21
82.00888930011999
  0
LINE
  5
2B7
  8
0
  6
BYLAYER
 62
  256
 10
87.16999999999
 20
82.00888930011999
 11
87.16999999999
 21
85.01111069990999
  0
LINE
  5
2B8
  8
0
  6
BYLAYER
 62
  256
 10
87.16999999999
 20
85.01111069990999
 11
89.77
 21
86.51222139977999
  0
LINE
  5
2B9
  8
0
  6
BYLAYER
 62
  256
 10
89.77
 20
86.51222139977999
 11
92.36999999999999
 21
85.01111069989
  0
LINE
  5
2BA
  8
0
  6
BYLAYER
 62
  256
 10
110.28
 20
63
 11
120.82
 21
63
  0
LINE
  5
2BB
  8
0
  6
BYLAYER
 62
  256
 10
120.82
 20
63
 11
120.82
 21
65.34999999999999
  0
LINE
  5
2BC
  8
0
  6
BYLAYER
 62
  256
 10
120.82
 20
65.34999999999999
 11
136.06
 21
65.34999999999999
  0
LINE
  5
2BD
  8
0
  6
BYLAYER
 62
  256
 10
136.06
 20
65.34999999999999
 11
136.06
 21
63
  0
LINE
  5
2BE
  8
0
  6
BYLAYER
 62
  256
 10
136.06
 20
63
 11
151.3
 21
63
  0
LINE
  5
2BF
  8
0
  6
BYLAYER
 62
  256
 10
151.3
 20
63
 11
151.3
 21
65.34999999999999
  0
LINE
  5
2C0
  8
0
  6
BYLAYER
 62
  256
 10
151.3
 20
65.34999999999999
 11
164.19
 21
65.34999999999999
  0
LINE
  5
2C1
  8
0
  6
BYLAYER
 62
  256
 10
164.19
 20
75.89
 11
161.84
 21
75.89
  0
LINE
  5
2C2
  8
0
  6
BYLAYER
 62
  256
 10
161.84
 20
75.89
 11
161.84
 21
91.13
  0
LINE
  5
2C3
  8
0
  6
BYLAYER
 62
  256
 10
161.84
 20
91.13
 11
164.19
 21
91.13
  0
LINE
  5
2C4
  8
0
  6
BYLAYER
 62
  256
 10
164.19
 20
91.13
 11
164.19
 21
106.37
  0
LINE
  5
2C5
  8
0
  6
BYLAYER
 62
  256
 10
164.19
 20
106.37
 11
161.84
 21
106.37
  0
LINE
  5
2C6
  8
0
  6
BYLAYER
 62
  256
 10
161.84
 20
106.37
 11
161.84
 21
119.26
  0
LINE
  5
2C7
  8
0
  6
BYLAYER
 62
  256
 10
161.84
 20
119.26
 11
151.3
 21
119.26
  0
LINE
  5
2C8
  8
0
  6
BYLAYER
 62
  256
 10
151.3
 20
119.26
 11
151.3
 21
116.91
  0
LINE
  5
2C9
  8
0
  6
BYLAYER
 62
  256
 10
151.3
 20
116.91
 11
136.06
 21
116.91
  0
LINE
  5
2CA
  8
0
  6
BYLAYER
 62
  256
 10
136.06
 20
116.91
 11
136.06
 21
119.26
  0
LINE
  5
2CB
  8
0
  6
BYLAYER
 62
  256
 10
136.06
 20
119.26
 11
120.82
 21
119.26
  0
LINE
  5
2CC
  8
0
  6
BYLAYER
 62
  256
 10
120.82
 20
119.26
 11
120.82
 21
116.91
  0
LINE
  5
2CD
  8
0
  6
BYLAYER
 62
  256
 10
120.82
 20
116.91
 11
107.93
 21
116.91
  0
LINE
  5
2CE
  8
0
  6
BYLAYER
 62
  256
 10
110.28
 20
75.89
 11
110.28
 21
63
  0
LINE
  5
2CF
  8
0
  6
BYLAYER
 62
  256
 10
110.1977786002
 20
113.99
 11
111.6988893001
 21
116.59
  0
LINE
  5
2D0
  8
0
  6
BYLAYER
 62
  256
 10
111.6988893001
 20
116.59
 11
114.7011106999
 21
116.59
  0
LINE
  5
2D1
  8
0
  6
BYLAYER
 62
  256
 10
114.7011106999
 20
116.59
 11
116.2022213998
 21
113.99
  0
LINE
  5
2D2
  8
0
  6
BYLAYER
 62
  256
 10
116.2022213998
 20
113.99
 11
114.7011106999
 21
111.39
  0
LINE
  5
2D3
  8
0
  6
BYLAYER
 62
  256
 10
114.7011106999
 20
111.39
 11
111.6988893001
 21
111.39
  0
LINE
  5
2D4
  8
0
  6
BYLAYER
 62
  256
 10
111.6988893001
 20
111.39
 11
110.1977786002
 21
113.99
  0
LINE
  5
2D5
  8
0
  6
BYLAYER
 62
  256
 10
161.9222213998
 20
68.27
 11
160.4211106999
 21
65.66999999999999
  0
LINE
  5
2D6
  8
0
  6
BYLAYER
 62
  256
 10
160.4211106999
 20
65.66999999999999
 11
157.4188893001
 21
65.66999999999999
  0
LINE
  5
2D7
  8
0
  6
BYLAYER
 62
  256
 10
157.4188893001
 20
65.66999999999999
 11
155.9177786002
 21
68.27
  0
LINE
  5
2D8
  8
0
  6
BYLAYER
 62
  256
 10
155.9177786002
 20
68.27
 11
157.4188893001
 21
70.86999999999999
  0
LINE
  5
2D9
  8
0
  6
BYLAYER
 62
  256
 10
157.4188893001
 20
70.86999999999999
 11
160.4211106999
 21
70.86999999999999
  0
LINE
  5
2DA
  8
0
  6
BYLAYER
 62
  256
 10
160.4211106999
 20
70.86999999999999
 11
161.9222213998
 21
68.27
  0
LINE
  5
2DB
  8
0
  6
BYLAYER
 62
  256
 10
161.52
 20
115.4911106999
 11
161.52
 21
112.4888893001
  0
LINE
  5
2DC
  8
0
  6
BYLAYER
 62
  256
 10
161.52
 20
112.4888893001
 11
158.92
 21
110.9877786002
  0
LINE
  5
2DD
  8
0
  6
BYLAYER
 62
  256
 10
158.92
 20
110.9877786002
 11
156.32
 21
112.4888893001
  0
LINE
  5
2DE
  8
0
  6
BYLAYER
 62
  256
 10
156.32
 20
112.4888893001
 11
156.32
 21
115.4911106999
  0
LINE
  5
2DF
  8
0
  6
BYLAYER
 62
  256
 10
156.32
 20
115.4911106999
 11
158.92
 21
116.9922213998
  0
LINE
  5
2E0
  8
0
  6
BYLAYER
 62
  256
 10
158.92
 20
116.9922213998
 11
161.52
 21
115.4911106999
  0
LINE
  5
2E1
  8
0
  6
BYLAYER
 62
  256
 10
115.8
 20
69.77111069989999
 11
115.8
 21
66.7688893001
  0
LINE
  5
2E2
  8
0
  6
BYLAYER
 62
  256
 10
115.8
 20
66.7688893001
 11
113.2
 21
65.26777860019999
  0
LINE
  5
2E3
  8
0
  6
BYLAYER
 62
  256
 10
113.2
 20
65.26777860019999
 11
110.6
 21
66.7688893001
  0
LINE
  5
2E4
  8
0
  6
BYLAYER
 62
  256
 10
110.6
 20
66.7688893001
 11
110.6
 21
69.77111069989999
  0
LINE
  5
2E5
  8
0
  6
BYLAYER
 62
  256
 10
110.6
 20
69.77111069989999
 11
113.2
 21
71.2722213998
  0
LINE
  5
2E6
  8
0
  6
BYLAYER
 62
  256
 10
113.2
 20
71.2722213998
 11
115.8
 21
69.77111069989999
  0
LINE
  5
2E7
  8
0
  6
BYLAYER
 62
  256
 10
131.03999999999
 20
100.25111069989
 11
131.03999999999
 21
97.24888930010999
  0
LINE
  5
2E8
  8
0
  6
BYLAYER
 62
  256
 10
131.03999999999
 20
97.24888930010999
 11
128.44
 21
95.74777860022
  0
LINE
  5
2E9
  8
0
  6
BYLAYER
 62
  256
 10
128.44
 20
95.74777860022
 11
125.84
 21
97.24888930010999
  0
LINE
  5
2EA
  8
0
  6
BYLAYER
 62
  256
 10
125.84
 20
97.24888930010999
 11
125.84
 21
100.25111069991
  0
LINE
  5
2EB
  8
0
  6
BYLAYER
 62
  256
 10
125.84
 20
100.25111069991
 11
128.44
 21
101.7522213998
  0
LINE
  5
2EC
  8
0
  6
BYLAYER
 62
  256
 10
128.44
 20
101.7522213998
 11
131.03999999999
 21
100.25111069989
  0
LINE
  5
2ED
  8
0
  6
BYLAYER
 62
  256
 10
146.28
 20
100.25111069989
 11
146.28
 21
97.24888930010999
  0
LINE
  5
2EE
  8
0
  6
BYLAYER
 62
  256
 10
146.28
 20
97.24888930010999
 11
143.68
 21
95.74777860022
  0
LINE
  5
2EF
  8
0
  6
BYLAYER
 62
  256
 10
143.68
 20
95.74777860022
 11
141.07999999999
 21
97.24888930012
  0
LINE
  5
2F0
  8
0
  6
BYLAYER
 62
  256
 10
141.07999999999
 20
97.24888930012
 11
141.07999999999
 21
100.25111069991
  0
LINE
  5
2F1
  8
0
  6
BYLAYER
 62
  256
 10
141.07999999999
 20
100.25111069991
 11
143.68
 21
101.7522213998
  0
LINE
  5
2F2
  8
0
  6
BYLAYER
 62
  256
 10
143.68
 20
101.7522213998
 11
146.28
 21
100.25111069989
  0
LINE
  5
2F3
  8
0
  6
BYLAYER
 62
  256
 10
131.03999999999
 20
85.01111069989
 11
131.03999999999
 21
82.00888930011
  0
LINE
  5
2F4
  8
0
  6
BYLAYER
 62
  256
 10
131.03999999999
 20
82.00888930011
 11
128.44
 21
80.5077786002
  0
LINE
  5
2F5
  8
0
  6
BYLAYER
 62
  256
 10
128.44
 20
80.5077786002
 11
125.84
 21
82.00888930011999
  0
LINE
  5
2F6
  8
0
  6
BYLAYER
 62
  256
 10
125.84
 20
82.00888930011999
 11
125.84
 21
85.01111069990999
  0
LINE
  5
2F7
  8
0
  6
BYLAYER
 62
  256
 10
125.84
 20
85.01111069990999
 11
128.44
 21
86.51222139977999
  0
LINE
  5
2F8
  8
0
  6
BYLAYER
 62
  256
 10
128.44
 20
86.51222139977999
 11
131.03999999999
 21
85.01111069989
  0
LINE
  5
2F9
  8
0
  6
BYLAYER
 62
  256
 10
146.28
 20
85.01111069989
 11
146.28
 21
82.00888930011
  0
LINE
  5
2FA
  8
0
  6
BYLAYER
 62
  256
 10
146.28
 20
82.00888930011
 11
143.68
 21
80.5077786002
  0
LINE
  5
2FB
  8
0
  6
BYLAYER
 62
  256
 10
143.68
 20
80.5077786002
 11
141.07999999999
 21
82.00888930011999
  0
LINE
  5
2FC
  8
0
  6
BYLAYER
 62
  256
 10
141.07999999999
 20
82.00888930011999
 11
141.07999999999
 21
85.01111069990999
  0
LINE
  5
2FD
  8
0
  6
BYLAYER
 62
  256
 10
141.07999999999
 20
85.01111069990999
 11
143.68
 21
86.51222139977999
  0
LINE
  5
2FE
  8
0
  6
BYLAYER
 62
  256
 10
143.68
 20
86.51222139977999
 11
146.28
 21
85.01111069989
  0
LINE
  5
2FF
  8
0
  6
BYLAYER
 62
  256
 10
164.19
 20
63
 11
174.73
 21
63
  0
LINE
  5
300
  8
0
  6
BYLAYER
 62
  256
 10
174.73
 20
63
 11
174.73
 21
65.34999999999999
  0
LINE
  5
301
  8
0
  6
BYLAYER
 62
  256
 10
174.73
 20
65.34999999999999
 11
189.97
 21
65.34999999999999
  0
LINE
  5
302
  8
0
  6
BYLAYER
 62
  256
 10
189.97
 20
65.34999999999999
 11
189.97
 21
63
  0
LINE
  5
303
  8
0
  6
BYLAYER
 62
  256
 10
189.97
 20
63
 11
205.21
 21
63
  0
LINE
  5
304
  8
0
  6
BYLAYER
 62
  256
 10
205.21
 20
63
 11
205.21
 21
65.34999999999999
  0
LINE
  5
305
  8
0
  6
BYLAYER
 62
  256
 10
205.21
 20
65.34999999999999
 11
218.1
 21
65.34999999999999
  0
LINE
  5
306
  8
0
  6
BYLAYER
 62
  256
 10
218.1
 20
75.89
 11
215.75
 21
75.89
  0
LINE
  5
307
  8
0
  6
BYLAYER
 62
  256
 10
215.75
 20
75.89
 11
215.75
 21
91.13
  0
LINE
  5
308
  8
0
  6
BYLAYER
 62
  256
 10
215.75
 20
91.13
 11
218.1
 21
91.13
  0
LINE
  5
309
  8
0
  6
BYLAYER
 62
  256
 10
218.1
 20
91.13
 11
218.1
 21
106.37
  0
LINE
  5
30A
  8
0
  6
BYLAYER
 62
  256
 10
218.1
 20
106.37
 11
215.75
 21
106.37
  0
LINE
  5
30B
  8
0
  6
BYLAYER
 62
  256
 10
215.75
 20
106.37
 11
215.75
 21
119.26
  0
LINE
  5
30C
  8
0
  6
BYLAYER
 62
  256
 10
215.75
 20
119.26
 11
205.21
 21
119.26
  0
LINE
  5
30D
  8
0
  6
BYLAYER
 62
  256
 10
205.21
 20
119.26
 11
205.21
 21
116.91
  0
LINE
  5
30E
  8
0
  6
BYLAYER
 62
  256
 10
205.21
 20
116.91
 11
189.97
 21
116.91
  0
LINE
  5
30F
  8
0
  6
BYLAYER
 62
  256
 10
189.97
 20
116.91
 11
189.97
 21
119.26
  0
LINE
  5
310
  8
0
  6
BYLAYER
 62
  256
 10
189.97
 20
119.26
 11
174.73
 21
119.26
  0
LINE
  5
311
  8
0
  6
BYLAYER
 62
  256
 10
174.73
 20
119.26
 11
174.73
 21
116.91
  0
LINE
  5
312
  8
0
  6
BYLAYER
 62
  256
 10
174.73
 20
116.91
 11
161.84
 21
116.91
  0
LINE
  5
313
  8
0
  6
BYLAYER
 62
  256
 10
164.19
 20
75.89
 11
164.19
 21
63
  0
LINE
  5
314
  8
0
  6
BYLAYER
 62
  256
 10
164.1077786002
 20
113.99
 11
165.6088893001
 21
116.59
  0
LINE
  5
315
  8
0
  6
BYLAYER
 62
  256
 10
165.6088893001
 20
116.59
 11
168.6111106999
 21
116.59
  0
LINE
  5
316
  8
0
  6
BYLAYER
 62
  256
 10
168.6111106999
 20
116.59
 11
170.1122213998
 21
113.99
  0
LINE
  5
317
  8
0
  6
BYLAYER
 62
  256
 10
170.1122213998
 20
113.99
 11
168.6111106999
 21
111.39
  0
LINE
  5
318
  8
0
  6
BYLAYER
 62
  256
 10
168.6111106999
 20
111.39
 11
165.6088893001
 21
111.39
  0
LINE
  5
319
  8
0
  6
BYLAYER
 62
  256
 10
165.6088893001
 20
111.39
 11
164.1077786002
 21
113.99
  0
LINE
  5
31A
  8
0
  6
BYLAYER
 62
  256
 10
215.8322213998
 20
68.27
 11
214.3311106999
 21
65.66999999999999
  0
LINE
  5
31B
  8
0
  6
BYLAYER
 62
  256
 10
214.3311106999
 20
65.66999999999999
 11
211.3288893001
 21
65.66999999999999
  0
LINE
  5
31C
  8
0
  6
BYLAYER
 62
  256
 10
211.3288893001
 20
65.66999999999999
 11
209.8277786002
 21
68.27
  0
LINE
  5
31D
  8
0
  6
BYLAYER
 62
  256
 10
209.8277786002
 20
68.27
 11
211.3288893001
 21
70.86999999999999
  0
LINE
  5
31E
  8
0
  6
BYLAYER
 62
  256
 10
211.3288893001
 20
70.86999999999999
 11
214.3311106999
 21
70.86999999999999
  0
LINE
  5
31F
  8
0
  6
BYLAYER
 62
  256
 10
214.3311106999
 20
70.86999999999999
 11
215.8322213998
 21
68.27
  0
LINE
  5
320
  8
0
  6
BYLAYER
 62
  256
 10
215.43
 20
115.4911106999
 11
215.43
 21
112.4888893001
  0
LINE
  5
321
  8
0
  6
BYLAYER
 62
  256
 10
215.43
 20
112.4888893001
 11
212.83
 21
110.9877786002
  0
LINE
  5
322
  8
0
  6
BYLAYER
 62
  256
 10
212.83
 20
110.9877786002
 11
210.23
 21
112.4888893001
  0
LINE
  5
323
  8
0
  6
BYLAYER
 62
  256
 10
210.23
 20
112.4888893001
 11
210.23
 21
115.4911106999
  0
LINE
  5
324
  8
0
  6
BYLAYER
 62
  256
 10
210.23
 20
115.4911106999
 11
212.83
 21
116.9922213998
  0
LINE
  5
325
  8
0
  6
BYLAYER
 62
  256
 10
212.83
 20
116.9922213998
 11
215.43
 21
115.4911106999
  0
LINE
  5
326
  8
0
  6
BYLAYER
 62
  256
 10
169.71
 20
69.77111069989999
 11
169.71
 21
66.7688893001
  0
LINE
  5
327
  8
0
  6
BYLAYER
 62
  256
 10
169.71
 20
66.7688893001
 11
167.11
 21
65.26777860019999
  0
LINE
  5
328
  8
0
  6
BYLAYER
 62
  256
 10
167.11
 20
65.26777860019999
 11
164.51
 21
66.7688893001
  0
LINE
  5
329
  8
0
  6
BYLAYER
 62
  256
 10
164.51
 20
66.7688893001
 11
164.51
 21
69.77111069989999
  0
LINE
  5
32A
  8
0
  6
BYLAYER
 62
  256
 10
164.51
 20
69.77111069989999
 11
167.11
 21
71.2722213998
  0
LINE
  5
32B
  8
0
  6
BYLAYER
 62
  256
 10
167.11
 20
71.2722213998
 11
169.71
 21
69.77111069989999
  0
LINE
  5
32C
  8
0
  6
BYLAYER
 62
  256
 10
184.94999999999
 20
100.25111069989
 11
184.94999999999
 21
97.24888930010999
  0
LINE
  5
32D
  8
0
  6
BYLAYER
 62
  256
 10
184.94999999999
 20
97.24888930010999
 11
182.35
 21
95.74777860022
  0
LINE
  5
32E
  8
0
  6
BYLAYER
 62
  256
 10
182.35
 20
95.74777860022
 11
179.75
 21
97.24888930010999
  0
LINE
  5
32F
  8
0
  6
BYLAYER
 62
  256
 10
179.75
 20
97.24888930010999
 11
179.75
 21
100.25111069991
  0
LINE
  5
330
  8
0
  6
BYLAYER
 62
  256
 10
179.75
 20
100.25111069991
 11
182.35
 21
101.7522213998
  0
LINE
  5
331
  8
0
  6
BYLAYER
 62
  256
 10
182.35
 20
101.7522213998
 11
184.94999999999
 21
100.25111069989
  0
LINE
  5
332
  8
0
  6
BYLAYER
 62
  256
 10
200.19
 20
100.25111069989
 11
200.19
 21
97.24888930010999
  0
LINE
  5
333
  8
0
  6
BYLAYER
 62
  256
 10
200.19
 20
97.24888930010999
 11
197.59
 21
95.74777860022
  0
LINE
  5
334
  8
0
  6
BYLAYER
 62
  256
 10
197.59
 20
95.74777860022
 11
194.98999999999
 21
97.24888930012
  0
LINE
  5
335
  8
0
  6
BYLAYER
 62
  256
 10
194.98999999999
 20
97.24888930012
 11
194.98999999999
 21
100.25111069991
  0
LINE
  5
336
  8
0
  6
BYLAYER
 62
  256
 10
194.98999999999
 20
100.25111069991
 11
197.59
 21
101.7522213998
  0
LINE
  5
337
  8
0
  6
BYLAYER
 62
  256
 10
197.59
 20
101.7522213998
 11
200.19
 21
100.25111069989
  0
LINE
  5
338
  8
0
  6
BYLAYER
 62
  256
 10
184.94999999999
 20
85.01111069989
 11
184.94999999999
 21
82.00888930011
  0
LINE
  5
339
  8
0
  6
BYLAYER
 62
  256
 10
184.94999999999
 20
82.00888930011
 11
182.35
 21
80.5077786002
  0
LINE
  5
33A
  8
0
  6
BYLAYER
 62
  256
 10
182.35
 20
80.5077786002
 11
179.75
 21
82.00888930011999
  0
LINE
  5
33B
  8
0
  6
BYLAYER
 62
  256
 10
179.75
 20
82.00888930011999
 11
179.75
 21
85.01111069990999
  0
LINE
  5
33C
  8
0
  6
BYLAYER
 62
  256
 10
179.75
 20
85.01111069990999
 11
182.35
 21
86.51222139977999
  0
LINE
  5
33D
  8
0
  6
BYLAYER
 62
  256
 10
182.35
 20
86.51222139977999
 11
184.94999999999
 21
85.01111069989
  0
LINE
  5
33E
  8
0
  6
BYLAYER
 62
  256
 10
200.19
 20
85.01111069989
 11
200.19
 21
82.00888930011
  0
LINE
  5
33F
  8
0
  6
BYLAYER
 62
  256
 10
200.19
 20
82.00888930011
 11
197.59
 21
80.5077786002
  0
LINE
  5
340
  8
0
  6
BYLAYER
 62
  256
 10
197.59
 20
80.5077786002
 11
194.98999999999
 21
82.00888930011999
  0
LINE
  5
341
  8
0
  6
BYLAYER
 62
  256
 10
194.98999999999
 20
82.00888930011999
 11
194.98999999999
 21
85.01111069990999
  0
LINE
  5
342
  8
0
  6
BYLAYER
 62
  256
 10
194.98999999999
 20
85.01111069990999
 11
197.59
 21
86.51222139977999
  0
LINE
  5
343
  8
0
  6
BYLAYER
 62
  256
 10
197.59
 20
86.51222139977999
 11
200.19
 21
85.01111069989
  0
LINE
  5
344
  8
0
  6
BYLAYER
 62
  256
 10
218.1
 20
63
 11
228.64
 21
63
  0
LINE
  5
345
  8
0
  6
BYLAYER
 62
  256
 10
228.64
 20
63
 11
228.64
 21
65.34999999999999
  0
LINE
  5
346
  8
0
  6
BYLAYER
 62
  256
 10
228.64
 20
65.34999999999999
 11
243.88
 21
65.34999999999999
  0
LINE
  5
347
  8
0
  6
BYLAYER
 62
  256
 10
243.88
 20
65.34999999999999
 11
243.88
 21
63
  0
LINE
  5
348
  8
0
  6
BYLAYER
 62
  256
 10
243.88
 20
63
 11
259.12
 21
63
  0
LINE
  5
349
  8
0
  6
BYLAYER
 62
  256
 10
259.12
 20
63
 11
259.12
 21
65.34999999999999
  0
LINE
  5
34A
  8
0
  6
BYLAYER
 62
  256
 10
259.12
 20
65.34999999999999
 11
272.01
 21
65.34999999999999
  0
LINE
  5
34B
  8
0
  6
BYLAYER
 62
  256
 10
272.01
 20
75.89
 11
269.66
 21
75.89
  0
LINE
  5
34C
  8
0
  6
BYLAYER
 62
  256
 10
269.66
 20
75.89
 11
269.66
 21
91.13
  0
LINE
  5
34D
  8
0
  6
BYLAYER
 62
  256
 10
269.66
 20
91.13
 11
272.01
 21
91.13
  0
LINE
  5
34E
  8
0
  6
BYLAYER
 62
  256
 10
272.01
 20
91.13
 11
272.01
 21
106.37
  0
LINE
  5
34F
  8
0
  6
BYLAYER
 62
  256
 10
272.01
 20
106.37
 11
269.66
 21
106.37
  0
LINE
  5
350
  8
0
  6
BYLAYER
 62
  256
 10
269.66
 20
106.37
 11
269.66
 21
119.26
  0
LINE
  5
351
  8
0
  6
BYLAYER
 62
  256
 10
269.66
 20
119.26
 11
259.12
 21
119.26
  0
LINE
  5
352
  8
0
  6
BYLAYER
 62
  256
 10
259.12
 20
119.26
 11
259.12
 21
116.91
  0
LINE
  5
353
  8
0
  6
BYLAYER
 62
  256
 10
259.12
 20
116.91
 11
243.88
 21
116.91
  0
LINE
  5
354
  8
0
  6
BYLAYER
 62
  256
 10
243.88
 20
116.91
 11
243.88
 21
119.26
  0
LINE
  5
355
  8
0
  6
BYLAYER
 62
  256
 10
243.88
 20
119.26
 11
228.64
 21
119.26
  0
LINE
  5
356
  8
0
  6
BYLAYER
 62
  256
 10
228.64
 20
119.26
 11
228.64
 21
116.91
  0
LINE
  5
357
  8
0
  6
BYLAYER
 62
  256
 10
228.64
 20
116.91
 11
215.75
 21
116.91
  0
LINE
  5
358
  8
0
  6
BYLAYER
 62
  256
 10
218.1
 20
75.89
 11
218.1
 21
63
  0
LINE
  5
359
  8
0
  6
BYLAYER
 62
  256
 10
218.0177786002
 20
113.99
 11
219.5188893001
 21
116.59
  0
LINE
  5
35A
  8
0
  6
BYLAYER
 62
  256
 10
219.5188893001
 20
116.59
 11
222.5211106999
 21
116.59
  0
LINE
  5
35B
  8
0
  6
BYLAYER
 62
  256
 10
222.5211106999
 20
116.59
 11
224.0222213998
 21
113.99
  0
LINE
  5
35C
  8
0
  6
BYLAYER
 62
  256
 10
224.0222213998
 20
113.99
 11
222.5211106999
 21
111.39
  0
LINE
  5
35D
  8
0
  6
BYLAYER
 62
  256
 10
222.5211106999
 20
111.39
 11
219.5188893001
 21
111.39
  0
LINE
  5
35E
  8
0
  6
BYLAYER
 62
  256
 10
219.5188893001
 20
111.39
 11
218.0177786002
 21
113.99
  0
LINE
  5
35F
  8
0
  6
BYLAYER
 62
  256
 10
269.7422213998
 20
68.27
 11
268.2411106999
 21
65.66999999999999
  0
LINE
  5
360
  8
0
  6
BYLAYER
 62
  256
 10
268.2411106999
 20
65.66999999999999
 11
265.2388893001
 21
65.66999999999999
  0
LINE
  5
361
  8
0
  6
BYLAYER
 62
  256
 10
265.2388893001
 20
65.66999999999999
 11
263.7377786001999
 21
68.27
  0
LINE
  5
362
  8
0
  6
BYLAYER
 62
  256
 10
263.7377786001999
 20
68.27
 11
265.2388893001
 21
70.86999999999999
  0
LINE
  5
363
  8
0
  6
BYLAYER
 62
  256
 10
265.2388893001
 20
70.86999999999999
 11
268.2411106999
 21
70.86999999999999
  0
LINE
  5
364
  8
0
  6
BYLAYER
 62
  256
 10
268.2411106999
 20
70.86999999999999
 11
269.7422213998
 21
68.27
  0
LINE
  5
365
  8
0
  6
BYLAYER
 62
  256
 10
269.3399999999999
 20
115.4911106999
 11
269.3399999999999
 21
112.4888893001
  0
LINE
  5
366
  8
0
  6
BYLAYER
 62
  256
 10
269.3399999999999
 20
112.4888893001
 11
266.74
 21
110.9877786002
  0
LINE
  5
367
  8
0
  6
BYLAYER
 62
  256
 10
266.74
 20
110.9877786002
 11
264.14
 21
112.4888893001
  0
LINE
  5
368
  8
0
  6
BYLAYER
 62
  256
 10
264.14
 20
112.4888893001
 11
264.14
 21
115.4911106999
  0
LINE
  5
369
  8
0
  6
BYLAYER
 62
  256
 10
264.14
 20
115.4911106999
 11
266.74
 21
116.9922213998
  0
LINE
  5
36A
  8
0
  6
BYLAYER
 62
  256
 10
266.74
 20
116.9922213998
 11
269.3399999999999
 21
115.4911106999
  0
LINE
  5
36B
  8
0
  6
BYLAYER
 62
  256
 10
223.62
 20
69.77111069989999
 11
223.62
 21
66.7688893001
  0
LINE
  5
36C
  8
0
  6
BYLAYER
 62
  256
 10
223.62
 20
66.7688893001
 11
221.02
 21
65.26777860019999
  0
LINE
  5
36D
  8
0
  6
BYLAYER
 62
  256
 10
221.02
 20
65.26777860019999
 11
218.42
 21
66.7688893001
  0
LINE
  5
36E
  8
0
  6
BYLAYER
 62
  256
 10
218.42
 20
66.7688893001
 11
218.42
 21
69.77111069989999
  0
LINE
  5
36F
  8
0
  6
BYLAYER
 62
  256
 10
218.42
 20
69.77111069989999
 11
221.02
 21
71.2722213998
  0
LINE
  5
370
  8
0
  6
BYLAYER
 62
  256
 10
221.02
 20
71.2722213998
 11
223.62
 21
69.77111069989999
  0
LINE
  5
371
  8
0
  6
BYLAYER
 62
  256
 10
238.85999999999
 20
100.25111069989
 11
238.85999999999
 21
97.24888930010999
  0
LINE
  5
372
  8
0
  6
BYLAYER
 62
  256
 10
238.85999999999
 20
97.24888930010999
 11
236.26
 21
95.74777860022
  0
LINE
  5
373
  8
0
  6
BYLAYER
 62
  256
 10
236.26
 20
95.74777860022
 11
233.6599999999999
 21
97.24888930010999
  0
LINE
  5
374
  8
0
  6
BYLAYER
 62
  256
 10
233.6599999999999
 20
97.24888930010999
 11
233.6599999999999
 21
100.25111069991
  0
LINE
  5
375
  8
0
  6
BYLAYER
 62
  256
 10
233.6599999999999
 20
100.25111069991
 11
236.26
 21
101.7522213998
  0
LINE
  5
376
  8
0
  6
BYLAYER
 62
  256
 10
236.26
 20
101.7522213998
 11
238.85999999999
 21
100.25111069989
  0
LINE
  5
377
  8
0
  6
BYLAYER
 62
  256
 10
254.1
 20
100.25111069989
 11
254.1
 21
97.24888930010999
  0
LINE
  5
378
  8
0
  6
BYLAYER
 62
  256
 10
254.1
 20
97.24888930010999
 11
251.5
 21
95.74777860022
  0
LINE
  5
379
  8
0
  6
BYLAYER
 62
  256
 10
251.5
 20
95.74777860022
 11
248.89999999999
 21
97.24888930012
  0
LINE
  5
37A
  8
0
  6
BYLAYER
 62
  256
 10
248.89999999999
 20
97.24888930012
 11
248.89999999999
 21
100.25111069991
  0
LINE
  5
37B
  8
0
  6
BYLAYER
 62
  256
 10
248.89999999999
 20
100.25111069991
 11
251.5
 21
101.7522213998
  0
LINE
  5
37C
  8
0
  6
BYLAYER
 62
  256
 10
251.5
 20
101.7522213998
 11
254.1
 21
100.25111069989
  0
LINE
  5
37D
  8
0
  6
BYLAYER
 62
  256
 10
238.85999999999
 20
85.01111069989
 11
238.85999999999
 21
82.00888930011
  0
LINE
  5
37E
  8
0
  6
BYLAYER
 62
  256
 10
238.85999999999
 20
82.00888930011
 11
236.26
 21
80.5077786002
  0
LINE
  5
37F
  8
0
  6
BYLAYER
 62
  256
 10
236.26
 20
80.5077786002
 11
233.6599999999999
 21
82.00888930011999
  0
LINE
  5
380
  8
0
  6
BYLAYER
 62
  256
 10
233.6599999999999
 20
82.00888930011999
 11
233.6599999999999
 21
85.01111069990999
  0
LINE
  5
381
  8
0
  6
BYLAYER
 62
  256
 10
233.6599999999999
 20
85.01111069990999
 11
236.26
 21
86.51222139977999
  0
LINE
  5
382
  8
0
  6
BYLAYER
 62
  256
 10
236.26
 20
86.51222139977999
 11
238.85999999999
 21
85.01111069989
  0
LINE
  5
383
  8
0
  6
BYLAYER
 62
  256
 10
254.1
 20
85.01111069989
 11
254.1
 21
82.00888930011
  0
LINE
  5
384
  8
0
  6
BYLAYER
 62
  256
 10
254.1
 20
82.00888930011
 11
251.5
 21
80.5077786002
  0
LINE
  5
385
  8
0
  6
BYLAYER
 62
  256
 10
251.5
 20
80.5077786002
 11
248.89999999999
 21
82.00888930011999
  0
LINE
  5
386
  8
0
  6
BYLAYER
 62
  256
 10
248.89999999999
 20
82.00888930011999
 11
248.89999999999
 21
85.01111069990999
  0
LINE
  5
387
  8
0
  6
BYLAYER
 62
  256
 10
248.89999999999
 20
85.01111069990999
 11
251.5
 21
86.51222139977999
  0
LINE
  5
388
  8
0
  6
BYLAYER
 62
  256
 10
251.5
 20
86.51222139977999
 11
254.1
 21
85.01111069989
  0
LINE
  5
389
  8
0
  6
BYLAYER
 62
  256
 10
272.01
 20
63
 11
282.55
 21
63
  0
LINE
  5
38A
  8
0
  6
BYLAYER
 62
  256
 10
282.55
 20
63
 11
282.55
 21
65.34999999999999
  0
LINE
  5
38B
  8
0
  6
BYLAYER
 62
  256
 10
282.55
 20
65.34999999999999
 11
297.79
 21
65.34999999999999
  0
LINE
  5
38C
  8
0
  6
BYLAYER
 62
  256
 10
297.79
 20
65.34999999999999
 11
297.79
 21
63
  0
LINE
  5
38D
  8
0
  6
BYLAYER
 62
  256
 10
297.79
 20
63
 11
313.03
 21
63
  0
LINE
  5
38E
  8
0
  6
BYLAYER
 62
  256
 10
313.03
 20
63
 11
313.03
 21
65.34999999999999
  0
LINE
  5
38F
  8
0
  6
BYLAYER
 62
  256
 10
313.03
 20
65.34999999999999
 11
325.92
 21
65.34999999999999
  0
LINE
  5
390
  8
0
  6
BYLAYER
 62
  256
 10
325.92
 20
65.34999999999999
 11
325.92
 21
75.89
  0
LINE
  5
391
  8
0
  6
BYLAYER
 62
  256
 10
325.92
 20
75.89
 11
323.5699999999999
 21
75.89
  0
LINE
  5
392
  8
0
  6
BYLAYER
 62
  256
 10
323.5699999999999
 20
75.89
 11
323.5699999999999
 21
91.13
  0
LINE
  5
393
  8
0
  6
BYLAYER
 62
  256
 10
323.5699999999999
 20
91.13
 11
325.92
 21
91.13
  0
LINE
  5
394
  8
0
  6
BYLAYER
 62
  256
 10
325.92
 20
91.13
 11
325.92
 21
106.37
  0
LINE
  5
395
  8
0
  6
BYLAYER
 62
  256
 10
325.92
 20
106.37
 11
323.5699999999999
 21
106.37
  0
LINE
  5
396
  8
0
  6
BYLAYER
 62
  256
 10
323.5699999999999
 20
106.37
 11
323.5699999999999
 21
119.26
  0
LINE
  5
397
  8
0
  6
BYLAYER
 62
  256
 10
323.5699999999999
 20
119.26
 11
313.03
 21
119.26
  0
LINE
  5
398
  8
0
  6
BYLAYER
 62
  256
 10
313.03
 20
119.26
 11
313.03
 21
116.91
  0
LINE
  5
399
  8
0
  6
BYLAYER
 62
  256
 10
313.03
 20
116.91
 11
297.79
 21
116.91
  0
LINE
  5
39A
  8
0
  6
BYLAYER
 62
  256
 10
297.79
 20
116.91
 11
297.79
 21
119.26
  0
LINE
  5
39B
  8
0
  6
BYLAYER
 62
  256
 10
297.79
 20
119.26
 11
282.55
 21
119.26
  0
LINE
  5
39C
  8
0
  6
BYLAYER
 62
  256
 10
282.55
 20
119.26
 11
282.55
 21
116.91
  0
LINE
  5
39D
  8
0
  6
BYLAYER
 62
  256
 10
282.55
 20
116.91
 11
269.66
 21
116.91
  0
LINE
  5
39E
  8
0
  6
BYLAYER
 62
  256
 10
272.01
 20
75.89
 11
272.01
 21
63
  0
LINE
  5
39F
  8
0
  6
BYLAYER
 62
  256
 10
271.9277786002
 20
113.99
 11
273.4288893001
 21
116.59
  0
LINE
  5
3A0
  8
0
  6
BYLAYER
 62
  256
 10
273.4288893001
 20
116.59
 11
276.4311106998999
 21
116.59
  0
LINE
  5
3A1
  8
0
  6
BYLAYER
 62
  256
 10
276.4311106998999
 20
116.59
 11
277.9322213997999
 21
113.99
  0
LINE
  5
3A2
  8
0
  6
BYLAYER
 62
  256
 10
277.9322213997999
 20
113.99
 11
276.4311106998999
 21
111.39
  0
LINE
  5
3A3
  8
0
  6
BYLAYER
 62
  256
 10
276.4311106998999
 20
111.39
 11
273.4288893001
 21
111.39
  0
LINE
  5
3A4
  8
0
  6
BYLAYER
 62
  256
 10
273.4288893001
 20
111.39
 11
271.9277786002
 21
113.99
  0
LINE
  5
3A5
  8
0
  6
BYLAYER
 62
  256
 10
323.6522213997999
 20
68.27
 11
322.1511106999
 21
65.66999999999999
  0
LINE
  5
3A6
  8
0
  6
BYLAYER
 62
  256
 10
322.1511106999
 20
65.66999999999999
 11
319.1488893001
 21
65.66999999999999
  0
LINE
  5
3A7
  8
0
  6
BYLAYER
 62
  256
 10
319.1488893001
 20
65.66999999999999
 11
317.6477786001999
 21
68.27
  0
LINE
  5
3A8
  8
0
  6
BYLAYER
 62
  256
 10
317.6477786001999
 20
68.27
 11
319.1488893001
 21
70.86999999999999
  0
LINE
  5
3A9
  8
0
  6
BYLAYER
 62
  256
 10
319.1488893001
 20
70.86999999999999
 11
322.1511106999
 21
70.86999999999999
  0
LINE
  5
3AA
  8
0
  6
BYLAYER
 62
  256
 10
322.1511106999
 20
70.86999999999999
 11
323.6522213997999
 21
68.27
  0
LINE
  5
3AB
  8
0
  6
BYLAYER
 62
  256
 10
323.2499999999999
 20
115.4911106999
 11
323.2499999999999
 21
112.4888893001
  0
LINE
  5
3AC
  8
0
  6
BYLAYER
 62
  256
 10
323.2499999999999
 20
112.4888893001
 11
320.65
 21
110.9877786002
  0
LINE
  5
3AD
  8
0
  6
BYLAYER
 62
  256
 10
320.65
 20
110.9877786002
 11
318.05
 21
112.4888893001
  0
LINE
  5
3AE
  8
0
  6
BYLAYER
 62
  256
 10
318.05
 20
112.4888893001
 11
318.05
 21
115.4911106999
  0
LINE
  5
3AF
  8
0
  6
BYLAYER
 62
  256
 10
318.05
 20
115.4911106999
 11
320.65
 21
116.9922213998
  0
LINE
  5
3B0
  8
0
  6
BYLAYER
 62
  256
 10
320.65
 20
116.9922213998
 11
323.2499999999999
 21
115.4911106999
  0
LINE
  5
3B1
  8
0
  6
BYLAYER
 62
  256
 10
277.53
 20
69.77111069989999
 11
277.53
 21
66.7688893001
  0
LINE
  5
3B2
  8
0
  6
BYLAYER
 62
  256
 10
277.53
 20
66.7688893001
 11
274.9299999999999
 21
65.26777860019999
  0
LINE
  5
3B3
  8
0
  6
BYLAYER
 62
  256
 10
274.9299999999999
 20
65.26777860019999
 11
272.3299999999999
 21
66.7688893001
  0
LINE
  5
3B4
  8
0
  6
BYLAYER
 62
  256
 10
272.3299999999999
 20
66.7688893001
 11
272.3299999999999
 21
69.77111069989999
  0
LINE
  5
3B5
  8
0
  6
BYLAYER
 62
  256
 10
272.3299999999999
 20
69.77111069989999
 11
274.9299999999999
 21
71.2722213998
  0
LINE
  5
3B6
  8
0
  6
BYLAYER
 62
  256
 10
274.9299999999999
 20
71.2722213998
 11
277.53
 21
69.77111069989999
  0
LINE
  5
3B7
  8
0
  6
BYLAYER
 62
  256
 10
292.76999999999
 20
100.25111069989
 11
292.76999999999
 21
97.24888930010999
  0
LINE
  5
3B8
  8
0
  6
BYLAYER
 62
  256
 10
292.76999999999
 20
97.24888930010999
 11
290.17
 21
95.74777860022
  0
LINE
  5
3B9
  8
0
  6
BYLAYER
 62
  256
 10
290.17
 20
95.74777860022
 11
287.5699999999999
 21
97.24888930010999
  0
LINE
  5
3BA
  8
0
  6
BYLAYER
 62
  256
 10
287.5699999999999
 20
97.24888930010999
 11
287.5699999999999
 21
100.25111069991
  0
LINE
  5
3BB
  8
0
  6
BYLAYER
 62
  256
 10
287.5699999999999
 20
100.25111069991
 11
290.17
 21
101.7522213998
  0
LINE
  5
3BC
  8
0
  6
BYLAYER
 62
  256
 10
290.17
 20
101.7522213998
 11
292.76999999999
 21
100.25111069989
  0
LINE
  5
3BD
  8
0
  6
BYLAYER
 62
  256
 10
308.01
 20
100.25111069989
 11
308.01
 21
97.24888930010999
  0
LINE
  5
3BE
  8
0
  6
BYLAYER
 62
  256
 10
308.01
 20
97.24888930010999
 11
305.41
 21
95.74777860022
  0
LINE
  5
3BF
  8
0
  6
BYLAYER
 62
  256
 10
305.41
 20
95.74777860022
 11
302.8099999999899
 21
97.24888930012
  0
LINE
  5
3C0
  8
0
  6
BYLAYER
 62
  256
 10
302.8099999999899
 20
97.24888930012
 11
302.8099999999899
 21
100.25111069991
  0
LINE
  5
3C1
  8
0
  6
BYLAYER
 62
  256
 10
302.8099999999899
 20
100.25111069991
 11
305.41
 21
101.7522213998
  0
LINE
  5
3C2
  8
0
  6
BYLAYER
 62
  256
 10
305.41
 20
101.7522213998
 11
308.01
 21
100.25111069989
  0
LINE
  5
3C3
  8
0
  6
BYLAYER
 62
  256
 10
292.76999999999
 20
85.01111069989
 11
292.76999999999
 21
82.00888930011
  0
LINE
  5
3C4
  8
0
  6
BYLAYER
 62
  256
 10
292.76999999999
 20
82.00888930011
 11
290.17
 21
80.5077786002
  0
LINE
  5
3C5
  8
0
  6
BYLAYER
 62
  256
 10
290.17
 20
80.5077786002
 11
287.5699999999999
 21
82.00888930011999
  0
LINE
  5
3C6
  8
0
  6
BYLAYER
 62
  256
 10
287.5699999999999
 20
82.00888930011999
 11
287.5699999999999
 21
85.01111069990999
  0
LINE
  5
3C7
  8
0
  6
BYLAYER
 62
  256
 10
287.5699999999999
 20
85.01111069990999
 11
290.17
 21
86.51222139977999
  0
LINE
  5
3C8
  8
0
  6
BYLAYER
 62
  256
 10
290.17
 20
86.51222139977999
 11
292.76999999999
 21
85.01111069989
  0
LINE
  5
3C9
  8
0
  6
BYLAYER
 62
  256
 10
308.01
 20
85.01111069989
 11
308.01
 21
82.00888930011
  0
LINE
  5
3CA
  8
0
  6
BYLAYER
 62
  256
 10
308.01
 20
82.00888930011
 11
305.41
 21
80.5077786002
  0
LINE
  5
3CB
  8
0
  6
BYLAYER
 62
  256
 10
305.41
 20
80.5077786002
 11
302.8099999999899
 21
82.00888930011999
  0
LINE
  5
3CC
  8
0
  6
BYLAYER
 62
  256
 10
302.8099999999899
 20
82.00888930011999
 11
302.8099999999899
 21
85.01111069990999
  0
LINE
  5
3CD
  8
0
  6
BYLAYER
 62
  256
 10
302.8099999999899
 20
85.01111069990999
 11
305.41
 21
86.51222139977999
  0
LINE
  5
3CE
  8
0
  6
BYLAYER
 62
  256
 10
305.41
 20
86.51222139977999
 11
308.01
 21
85.01111069989
  0
ENDSEC
  0
EOF
