G04 #@! TF.FileFunction,Soldermask,Top*
%FSLAX46Y46*%
G04 Gerber Fmt 4.6, Leading zero omitted, Abs format (unit mm)*
G04 Created by KiCad (PCBNEW 4.0.2-4+6225~38~ubuntu15.10.1-stable) date Tue Mar 22 22:08:16 2016*
%MOMM*%
G01*
G04 APERTURE LIST*
%ADD10C,0.101600*%
%ADD11C,0.150000*%
%ADD12C,0.900000*%
%ADD13C,6.496000*%
%ADD14R,6.496000X6.496000*%
%ADD15C,6.000000*%
G04 APERTURE END LIST*
D10*
D11*
X8890000Y29210000D02*
X8890000Y26670000D01*
X10160000Y30480000D02*
G75*
G03X8890000Y29210000I0J-1270000D01*
G01*
X8890000Y26670000D02*
G75*
G03X10160000Y25400000I1270000J0D01*
G01*
X6350000Y29210000D02*
G75*
G03X5080000Y30480000I-1270000J0D01*
G01*
X6350000Y29210000D02*
X6350000Y26670000D01*
X5080000Y25400000D02*
G75*
G03X6350000Y26670000I0J1270000D01*
G01*
X8890000Y13970000D02*
X8890000Y11430000D01*
X10160000Y15240000D02*
G75*
G03X8890000Y13970000I0J-1270000D01*
G01*
X8890000Y11430000D02*
G75*
G03X10160000Y10160000I1270000J0D01*
G01*
X6350000Y13970000D02*
G75*
G03X5080000Y15240000I-1270000J0D01*
G01*
X6350000Y13970000D02*
X6350000Y11430000D01*
X5080000Y10160000D02*
G75*
G03X6350000Y11430000I0J1270000D01*
G01*
X69850000Y13970000D02*
X69850000Y11430000D01*
X71120000Y15240000D02*
G75*
G03X69850000Y13970000I0J-1270000D01*
G01*
X69850000Y11430000D02*
G75*
G03X71120000Y10160000I1270000J0D01*
G01*
X67310000Y13970000D02*
G75*
G03X66040000Y15240000I-1270000J0D01*
G01*
X67310000Y13970000D02*
X67310000Y11430000D01*
X66040000Y10160000D02*
G75*
G03X67310000Y11430000I0J1270000D01*
G01*
X69850000Y29210000D02*
X69850000Y26670000D01*
X71120000Y30480000D02*
G75*
G03X69850000Y29210000I0J-1270000D01*
G01*
X69850000Y26670000D02*
G75*
G03X71120000Y25400000I1270000J0D01*
G01*
X67310000Y29210000D02*
G75*
G03X66040000Y30480000I-1270000J0D01*
G01*
X67310000Y29210000D02*
X67310000Y26670000D01*
X66040000Y25400000D02*
G75*
G03X67310000Y26670000I0J1270000D01*
G01*
X130810000Y29210000D02*
X130810000Y26670000D01*
X132080000Y30480000D02*
G75*
G03X130810000Y29210000I0J-1270000D01*
G01*
X130810000Y26670000D02*
G75*
G03X132080000Y25400000I1270000J0D01*
G01*
X128270000Y29210000D02*
G75*
G03X127000000Y30480000I-1270000J0D01*
G01*
X128270000Y29210000D02*
X128270000Y26670000D01*
X127000000Y25400000D02*
G75*
G03X128270000Y26670000I0J1270000D01*
G01*
X130810000Y13970000D02*
X130810000Y11430000D01*
X132080000Y15240000D02*
G75*
G03X130810000Y13970000I0J-1270000D01*
G01*
X130810000Y11430000D02*
G75*
G03X132080000Y10160000I1270000J0D01*
G01*
X128270000Y13970000D02*
G75*
G03X127000000Y15240000I-1270000J0D01*
G01*
X128270000Y13970000D02*
X128270000Y11430000D01*
X127000000Y10160000D02*
G75*
G03X128270000Y11430000I0J1270000D01*
G01*
X191770000Y13970000D02*
X191770000Y11430000D01*
X193040000Y15240000D02*
G75*
G03X191770000Y13970000I0J-1270000D01*
G01*
X191770000Y11430000D02*
G75*
G03X193040000Y10160000I1270000J0D01*
G01*
X189230000Y13970000D02*
G75*
G03X187960000Y15240000I-1270000J0D01*
G01*
X189230000Y13970000D02*
X189230000Y11430000D01*
X187960000Y10160000D02*
G75*
G03X189230000Y11430000I0J1270000D01*
G01*
X191770000Y29210000D02*
X191770000Y26670000D01*
X193040000Y30480000D02*
G75*
G03X191770000Y29210000I0J-1270000D01*
G01*
X191770000Y26670000D02*
G75*
G03X193040000Y25400000I1270000J0D01*
G01*
X189230000Y29210000D02*
G75*
G03X187960000Y30480000I-1270000J0D01*
G01*
X189230000Y29210000D02*
X189230000Y26670000D01*
X187960000Y25400000D02*
G75*
G03X189230000Y26670000I0J1270000D01*
G01*
X191770000Y41910000D02*
G75*
G03X193040000Y40640000I1270000J0D01*
G01*
X187960000Y40640000D02*
G75*
G03X189230000Y41910000I0J1270000D01*
G01*
X191770000Y44450000D02*
X191770000Y41910000D01*
X189230000Y44450000D02*
X189230000Y41910000D01*
X130810000Y44450000D02*
X130810000Y41910000D01*
X128270000Y41910000D02*
X128270000Y44450000D01*
X130810000Y41910000D02*
G75*
G03X132080000Y40640000I1270000J0D01*
G01*
X127000000Y40640000D02*
G75*
G03X128270000Y41910000I0J1270000D01*
G01*
X69850000Y44450000D02*
X69850000Y41910000D01*
X67310000Y41910000D02*
X67310000Y44450000D01*
X69850000Y41910000D02*
G75*
G03X71120000Y40640000I1270000J0D01*
G01*
X66040000Y40640000D02*
G75*
G03X67310000Y41910000I0J1270000D01*
G01*
X8890000Y44450000D02*
X8890000Y41910000D01*
X6350000Y41910000D02*
X6350000Y44450000D01*
X8890000Y41910000D02*
G75*
G03X10160000Y40640000I1270000J0D01*
G01*
X5080000Y40640000D02*
G75*
G03X6350000Y41910000I0J1270000D01*
G01*
X33020000Y15240000D02*
X66040000Y15240000D01*
X27940000Y15240000D02*
X10160000Y15240000D01*
X88900000Y15240000D02*
X71120000Y15240000D01*
X127000000Y15240000D02*
X93980000Y15240000D01*
X149860000Y15240000D02*
X132080000Y15240000D01*
X187960000Y15240000D02*
X154940000Y15240000D01*
X196850000Y0D02*
G75*
G03X198120000Y1270000I0J1270000D01*
G01*
X0Y1270000D02*
G75*
G03X1270000Y0I1270000J0D01*
G01*
X198120000Y16510000D02*
X198120000Y24130000D01*
X153670000Y17780001D02*
G75*
G03X151130000Y17779999I-1270000J-1D01*
G01*
X149860000Y15240000D02*
G75*
G03X151130000Y16510000I0J1270000D01*
G01*
X151130000Y17780000D02*
X151130000Y16510000D01*
X153670000Y17780000D02*
X153670000Y16510000D01*
X153670000Y16510000D02*
G75*
G03X154940000Y15240000I1270000J0D01*
G01*
X151130000Y22860000D02*
G75*
G03X153670000Y22860000I1270000J0D01*
G01*
X153670000Y24130000D02*
X153670000Y22860000D01*
X151130000Y24130000D02*
X151130000Y22860000D01*
X90170000Y22860000D02*
G75*
G03X92710000Y22860000I1270000J0D01*
G01*
X92710000Y24130000D02*
X92710000Y22860000D01*
X90170000Y24130000D02*
X90170000Y22860000D01*
X88900000Y15240000D02*
G75*
G03X90170000Y16510000I0J1270000D01*
G01*
X92710000Y16510000D02*
G75*
G03X93980000Y15240000I1270000J0D01*
G01*
X92710000Y17780000D02*
X92710000Y16510000D01*
X90170000Y17780000D02*
X90170000Y16510000D01*
X92710000Y17780001D02*
G75*
G03X90170000Y17779999I-1270000J-1D01*
G01*
X27940000Y15240000D02*
G75*
G03X29210000Y16510000I0J1270000D01*
G01*
X29210000Y17780000D02*
X29210000Y16510000D01*
X31750000Y17780000D02*
X31750000Y16510000D01*
X31750000Y16510000D02*
G75*
G03X33020000Y15240000I1270000J0D01*
G01*
X31750000Y17780001D02*
G75*
G03X29210000Y17779999I-1270000J-1D01*
G01*
X29210000Y22860000D02*
G75*
G03X31750000Y22860000I1270000J0D01*
G01*
X31750000Y24130000D02*
X31750000Y22860000D01*
X29210000Y24130000D02*
X29210000Y22860000D01*
X0Y24130000D02*
X0Y16510000D01*
X187960000Y25400000D02*
X154940000Y25400000D01*
X154940000Y30480000D02*
X187960000Y30480000D01*
X154940000Y40640000D02*
X187960000Y40640000D01*
X93980000Y25400000D02*
X127000000Y25400000D01*
X127000000Y30480000D02*
X93980000Y30480000D01*
X93980000Y40640000D02*
X127000000Y40640000D01*
X66040000Y25400000D02*
X33020000Y25400000D01*
X33020000Y30480000D02*
X66040000Y30480000D01*
X33020000Y40640000D02*
X66040000Y40640000D01*
X27940000Y30480000D02*
G75*
G03X29210000Y31750000I0J1270000D01*
G01*
X31750000Y31750000D02*
G75*
G03X33020000Y30480000I1270000J0D01*
G01*
X29210000Y24130000D02*
G75*
G03X27940000Y25400000I-1270000J0D01*
G01*
X33020000Y25400000D02*
G75*
G03X31750000Y24130000I0J-1270000D01*
G01*
X5080000Y25400000D02*
X1270000Y25400000D01*
X1270000Y25400000D02*
G75*
G03X0Y24130000I0J-1270000D01*
G01*
X10160000Y25400000D02*
X27940000Y25400000D01*
X27940000Y30480000D02*
X10160000Y30480000D01*
X0Y31750000D02*
G75*
G03X1270000Y30480000I1270000J0D01*
G01*
X1270000Y30480000D02*
X5080000Y30480000D01*
X93980000Y25400000D02*
G75*
G03X92710000Y24130000I0J-1270000D01*
G01*
X90170000Y24130000D02*
G75*
G03X88900000Y25400000I-1270000J0D01*
G01*
X71120000Y25400000D02*
X88900000Y25400000D01*
X132080000Y25400000D02*
X149860000Y25400000D01*
X149860000Y30480000D02*
X132080000Y30480000D01*
X151130000Y24130000D02*
G75*
G03X149860000Y25400000I-1270000J0D01*
G01*
X154940000Y25400000D02*
G75*
G03X153670000Y24130000I0J-1270000D01*
G01*
X196850000Y30480000D02*
G75*
G03X198120000Y31750000I0J1270000D01*
G01*
X198120000Y24130000D02*
G75*
G03X196850000Y25400000I-1270000J0D01*
G01*
X193040000Y30480000D02*
X196850000Y30480000D01*
X193040000Y25400000D02*
X196850000Y25400000D01*
X88900000Y30480000D02*
X71120000Y30480000D01*
X10160000Y40640000D02*
X27940000Y40640000D01*
X128270000Y44450000D02*
G75*
G03X127000000Y45720000I-1270000J0D01*
G01*
X132080000Y45720000D02*
G75*
G03X130810000Y44450000I0J-1270000D01*
G01*
X153670000Y33020001D02*
G75*
G03X151130000Y33019999I-1270000J-1D01*
G01*
X151130000Y33020000D02*
X151130000Y31750000D01*
X153670000Y33020000D02*
X153670000Y31750000D01*
X153670000Y31750000D02*
G75*
G03X154940000Y30480000I1270000J0D01*
G01*
X149860000Y30480000D02*
G75*
G03X151130000Y31750000I0J1270000D01*
G01*
X151130000Y38100000D02*
G75*
G03X153670000Y38100000I1270000J0D01*
G01*
X154940000Y40640000D02*
G75*
G03X153670000Y39370000I0J-1270000D01*
G01*
X151130000Y39370000D02*
X151130000Y38100000D01*
X153670000Y39370000D02*
X153670000Y38100000D01*
X151130000Y39370000D02*
G75*
G03X149860000Y40640000I-1270000J0D01*
G01*
X92710000Y33020001D02*
G75*
G03X90170000Y33019999I-1270000J-1D01*
G01*
X90170000Y33020000D02*
X90170000Y31750000D01*
X92710000Y33020000D02*
X92710000Y31750000D01*
X92710000Y31750000D02*
G75*
G03X93980000Y30480000I1270000J0D01*
G01*
X88900000Y30480000D02*
G75*
G03X90170000Y31750000I0J1270000D01*
G01*
X90170000Y38100000D02*
G75*
G03X92710000Y38100000I1270000J0D01*
G01*
X93980000Y40640000D02*
G75*
G03X92710000Y39370000I0J-1270000D01*
G01*
X90170000Y39370000D02*
X90170000Y38100000D01*
X92710000Y39370000D02*
X92710000Y38100000D01*
X90170000Y39370000D02*
G75*
G03X88900000Y40640000I-1270000J0D01*
G01*
X31750000Y39370000D02*
X31750000Y38100000D01*
X29210000Y39370000D02*
X29210000Y38100000D01*
X31750000Y33020000D02*
X31750000Y31750000D01*
X29210000Y33020000D02*
X29210000Y31750000D01*
X33020000Y40640000D02*
G75*
G03X31750000Y39370000I0J-1270000D01*
G01*
X29210000Y39370000D02*
G75*
G03X27940000Y40640000I-1270000J0D01*
G01*
X31750000Y33020001D02*
G75*
G03X29210000Y33019999I-1270000J-1D01*
G01*
X29210000Y38100000D02*
G75*
G03X31750000Y38100000I1270000J0D01*
G01*
X5080000Y10160000D02*
X1270000Y10160000D01*
X1270000Y15240000D02*
X5080000Y15240000D01*
X10160000Y45720000D02*
G75*
G03X8890000Y44450000I0J-1270000D01*
G01*
X6350000Y44450000D02*
G75*
G03X5080000Y45720000I-1270000J0D01*
G01*
X5080000Y40640000D02*
X1270000Y40640000D01*
X1270000Y45720000D02*
X5080000Y45720000D01*
X67310000Y44450000D02*
G75*
G03X66040000Y45720000I-1270000J0D01*
G01*
X71120000Y45720000D02*
G75*
G03X69850000Y44450000I0J-1270000D01*
G01*
X189230000Y44450000D02*
G75*
G03X187960000Y45720000I-1270000J0D01*
G01*
X193040000Y45720000D02*
G75*
G03X191770000Y44450000I0J-1270000D01*
G01*
X1270000Y55880000D02*
G75*
G03X0Y54610000I0J-1270000D01*
G01*
X0Y8890000D02*
X0Y1270000D01*
X196850000Y55880000D02*
X1270000Y55880000D01*
X198120000Y8890000D02*
X198120000Y1270000D01*
X198120000Y54610000D02*
G75*
G03X196850000Y55880000I-1270000J0D01*
G01*
X196850000Y15240000D02*
G75*
G03X198120000Y16510000I0J1270000D01*
G01*
X198120000Y54610000D02*
X198120000Y46990000D01*
X196850000Y45720000D02*
G75*
G03X198120000Y46990000I0J1270000D01*
G01*
X198120000Y8890000D02*
G75*
G03X196850000Y10160000I-1270000J0D01*
G01*
X0Y54610000D02*
X0Y46990000D01*
X0Y46990000D02*
G75*
G03X1270000Y45720000I1270000J0D01*
G01*
X0Y16510000D02*
G75*
G03X1270000Y15240000I1270000J0D01*
G01*
X1270000Y10160000D02*
G75*
G03X0Y8890000I0J-1270000D01*
G01*
X193040000Y40640000D02*
X196850000Y40640000D01*
X132080000Y40640000D02*
X149860000Y40640000D01*
X71120000Y40640000D02*
X88900000Y40640000D01*
X193040000Y15240000D02*
X196850000Y15240000D01*
X132080000Y10160000D02*
X187960000Y10160000D01*
X196850000Y0D02*
X1270000Y0D01*
X66040000Y45720000D02*
X10160000Y45720000D01*
X127000000Y45720000D02*
X71120000Y45720000D01*
X187960000Y45720000D02*
X132080000Y45720000D01*
X193040000Y45720000D02*
X196850000Y45720000D01*
X193040000Y10160000D02*
X196850000Y10160000D01*
X71120000Y10160000D02*
X127000000Y10160000D01*
X10160000Y10160000D02*
X66040000Y10160000D01*
X0Y39370000D02*
X0Y31750000D01*
X198120000Y31750000D02*
X198120000Y39370000D01*
X1270000Y40640000D02*
G75*
G03X0Y39370000I0J-1270000D01*
G01*
X198120000Y39370000D02*
G75*
G03X196850000Y40640000I-1270000J0D01*
G01*
D12*
X90340000Y20320000D03*
X92540000Y20320000D03*
X90340000Y21120000D03*
X90340000Y19520000D03*
X92540000Y19520000D03*
X92540000Y21120000D03*
D13*
X68580000Y20320000D03*
D12*
X151300000Y20320000D03*
X153500000Y20320000D03*
X151300000Y21120000D03*
X151300000Y19520000D03*
X153500000Y19520000D03*
X153500000Y21120000D03*
D13*
X175260000Y20320000D03*
X190500000Y20320000D03*
X129540000Y20320000D03*
X114300000Y20320000D03*
X53340000Y20320000D03*
X7620000Y20320000D03*
D12*
X29380000Y20320000D03*
X31580000Y20320000D03*
X29380000Y21120000D03*
X29380000Y19520000D03*
X31580000Y19520000D03*
X31580000Y21120000D03*
X151300000Y35560000D03*
X153500000Y35560000D03*
X151300000Y36360000D03*
X151300000Y34760000D03*
X153500000Y34760000D03*
X153500000Y36360000D03*
X90340000Y35560000D03*
X92540000Y35560000D03*
X90340000Y36360000D03*
X90340000Y34760000D03*
X92540000Y34760000D03*
X92540000Y36360000D03*
X29380000Y35560000D03*
X31580000Y35560000D03*
X29380000Y36360000D03*
X29380000Y34760000D03*
X31580000Y34760000D03*
X31580000Y36360000D03*
D13*
X190500000Y5080000D03*
X22860000Y50800000D03*
X38100000Y50800000D03*
X83820000Y50800000D03*
X99060000Y50800000D03*
X144780000Y50800000D03*
X160020000Y50800000D03*
X190500000Y50800000D03*
X190500000Y35560000D03*
D14*
X7620000Y50800000D03*
X53340000Y50800000D03*
X68580000Y50800000D03*
X114300000Y50800000D03*
X129540000Y50800000D03*
X175260000Y50800000D03*
X22860000Y20320000D03*
X38100000Y20320000D03*
X83820000Y20320000D03*
X99060000Y20320000D03*
X144780000Y20320000D03*
X160020000Y20320000D03*
D15*
X7620000Y35560000D03*
D14*
X22860000Y35560000D03*
X38100000Y35560000D03*
D15*
X53340000Y35560000D03*
X68580000Y35560000D03*
D14*
X83820000Y35560000D03*
X99060000Y35560000D03*
D15*
X114300000Y35560000D03*
X129540000Y35560000D03*
D14*
X144780000Y35560000D03*
X160020000Y35560000D03*
D15*
X175260000Y35560000D03*
D14*
X7620000Y5080000D03*
D15*
X22860000Y5080000D03*
X38100000Y5080000D03*
D14*
X53340000Y5080000D03*
X68580000Y5080000D03*
D15*
X83820000Y5080000D03*
X99060000Y5080000D03*
D14*
X114300000Y5080000D03*
X129540000Y5080000D03*
D15*
X144780000Y5080000D03*
X160020000Y5080000D03*
D14*
X175260000Y5080000D03*
D12*
X7620000Y45380000D03*
X7620000Y40980000D03*
X8420000Y45380000D03*
X6820000Y45380000D03*
X6820000Y40980000D03*
X8420000Y40980000D03*
X7620000Y43180000D03*
X8420000Y43180000D03*
X6820000Y43180000D03*
X68580000Y45380000D03*
X68580000Y40980000D03*
X69380000Y45380000D03*
X67780000Y45380000D03*
X67780000Y40980000D03*
X69380000Y40980000D03*
X68580000Y43180000D03*
X69380000Y43180000D03*
X67780000Y43180000D03*
X129540000Y45380000D03*
X129540000Y40980000D03*
X130340000Y45380000D03*
X128740000Y45380000D03*
X128740000Y40980000D03*
X130340000Y40980000D03*
X129540000Y43180000D03*
X130340000Y43180000D03*
X128740000Y43180000D03*
X190500000Y45380000D03*
X190500000Y40980000D03*
X191300000Y45380000D03*
X189700000Y45380000D03*
X189700000Y40980000D03*
X191300000Y40980000D03*
X190500000Y43180000D03*
X191300000Y43180000D03*
X189700000Y43180000D03*
X7620000Y30140000D03*
X7620000Y25740000D03*
X8420000Y30140000D03*
X6820000Y30140000D03*
X6820000Y25740000D03*
X8420000Y25740000D03*
X7620000Y27940000D03*
X8420000Y27940000D03*
X6820000Y27940000D03*
X68580000Y30140000D03*
X68580000Y25740000D03*
X69380000Y30140000D03*
X67780000Y30140000D03*
X67780000Y25740000D03*
X69380000Y25740000D03*
X68580000Y27940000D03*
X69380000Y27940000D03*
X67780000Y27940000D03*
X129540000Y30140000D03*
X129540000Y25740000D03*
X130340000Y30140000D03*
X128740000Y30140000D03*
X128740000Y25740000D03*
X130340000Y25740000D03*
X129540000Y27940000D03*
X130340000Y27940000D03*
X128740000Y27940000D03*
X190500000Y30140000D03*
X190500000Y25740000D03*
X191300000Y30140000D03*
X189700000Y30140000D03*
X189700000Y25740000D03*
X191300000Y25740000D03*
X190500000Y27940000D03*
X191300000Y27940000D03*
X189700000Y27940000D03*
X7620000Y14900000D03*
X7620000Y10500000D03*
X8420000Y14900000D03*
X6820000Y14900000D03*
X6820000Y10500000D03*
X8420000Y10500000D03*
X7620000Y12700000D03*
X8420000Y12700000D03*
X6820000Y12700000D03*
X68580000Y14900000D03*
X68580000Y10500000D03*
X69380000Y14900000D03*
X67780000Y14900000D03*
X67780000Y10500000D03*
X69380000Y10500000D03*
X68580000Y12700000D03*
X69380000Y12700000D03*
X67780000Y12700000D03*
X129540000Y14900000D03*
X129540000Y10500000D03*
X130340000Y14900000D03*
X128740000Y14900000D03*
X128740000Y10500000D03*
X130340000Y10500000D03*
X129540000Y12700000D03*
X130340000Y12700000D03*
X128740000Y12700000D03*
X190500000Y14900000D03*
X190500000Y10500000D03*
X191300000Y14900000D03*
X189700000Y14900000D03*
X189700000Y10500000D03*
X191300000Y10500000D03*
X190500000Y12700000D03*
X191300000Y12700000D03*
X189700000Y12700000D03*
M02*
