M48
INCH,TZ
T1C0.025
T2C0.040
T3C0.120
%
G90
G05
T1
X000932Y000932
X001250Y001257
X001667Y021832
X001667Y020168
X001667Y015832
X001667Y014168
X001667Y009832
X001667Y008168
X001667Y003832
X001667Y002168
X002168Y022333
X002168Y019667
X002168Y016333
X002168Y013667
X002168Y010333
X002168Y007667
X002168Y004333
X002168Y001667
X003832Y022333
X003832Y019667
X003832Y016333
X003832Y013667
X003832Y010333
X003832Y007667
X003832Y004333
X003832Y001667
X004333Y021832
X004333Y020168
X004333Y015832
X004333Y014168
X004333Y009832
X004333Y008168
X004333Y003832
X004333Y002168
X007667Y021832
X007667Y020168
X007667Y015832
X007667Y014168
X007667Y009832
X007667Y008168
X007667Y003832
X007667Y002168
X008168Y022333
X008168Y019667
X008168Y016333
X008168Y013667
X008168Y010333
X008168Y007667
X008168Y004333
X008168Y001667
X009832Y022333
X009832Y019667
X009832Y016333
X009832Y013667
X009832Y010333
X009832Y007667
X009832Y004333
X009832Y001667
X010333Y021832
X010333Y020168
X010333Y015832
X010333Y014168
X010333Y009832
X010333Y008168
X010333Y003832
X010333Y002168
X013667Y021832
X013667Y020168
X013667Y015832
X013667Y014168
X013667Y009832
X013667Y008168
X013667Y003832
X013667Y002168
X014168Y022333
X014168Y019667
X014168Y016333
X014168Y013667
X014168Y010333
X014168Y007667
X014168Y004333
X014168Y001667
X015832Y022333
X015832Y019667
X015832Y016333
X015832Y013667
X015832Y010333
X015832Y007667
X015832Y004333
X015832Y001667
X016333Y021832
X016333Y020168
X016333Y015832
X016333Y014168
X016333Y009832
X016333Y008168
X016333Y003832
X016333Y002168
X019667Y021832
X019667Y020168
X019667Y015832
X019667Y014168
X019667Y009832
X019667Y008168
X019667Y003832
X019667Y002168
X020168Y022333
X020168Y019667
X020168Y016333
X020168Y013667
X020168Y010333
X020168Y007667
X020168Y004333
X020168Y001667
X021250Y000500
X021832Y022333
X021832Y019667
X021832Y016333
X021832Y013667
X021832Y010333
X021832Y007667
X021832Y004333
X021832Y001667
X022333Y021832
X022333Y020168
X022333Y015832
X022333Y014168
X022333Y009832
X022333Y008168
X022333Y003832
X022333Y002168
X022750Y001000
T2
X005500Y012500
X005500Y011500
X006500Y012500
X006500Y011500
X011500Y018500
X011500Y017500
X011500Y006500
X011500Y005500
X012500Y018500
X012500Y017500
X012500Y006500
X012500Y005500
X017500Y012500
X017500Y011500
X018500Y012500
X018500Y011500
T3
X003000Y021000
X003000Y003000
X009000Y015000
X009000Y009000
X015000Y015000
X015000Y009000
X021000Y021000
X021000Y003000
T0
M30
