%TF.GenerationSoftware,KiCad,Pcbnew,4.0.5-e0-6337~49~ubuntu16.04.1*%
%TF.CreationDate,2017-01-01T00:34:22+05:30*%
%TF.ProjectId,ultim8x8,756C74696D3878382E6B696361645F70,rev?*%
%TF.FileFunction,Legend,Top*%
%FSLAX46Y46*%
G04 Gerber Fmt 4.6, Leading zero omitted, Abs format (unit mm)*
G04 Created by KiCad (PCBNEW 4.0.5-e0-6337~49~ubuntu16.04.1) date Sun Jan  1 00:34:22 2017*
%MOMM*%
%LPD*%
G01*
G04 APERTURE LIST*
%ADD10C,0.254000*%
%ADD11C,0.152400*%
%ADD12C,0.150000*%
G04 APERTURE END LIST*
D10*
X59804784Y1113505D02*
X58026783Y1113507D01*
X59804784Y1113505D02*
X59804784Y2891506D01*
X59804784Y2891506D02*
X58026783Y1113507D01*
X59804784Y1367507D02*
X58280784Y1367507D01*
X59804784Y1621506D02*
X58534784Y1621506D01*
X59804784Y1875506D02*
X58788784Y1875506D01*
X59804784Y2129506D02*
X59042783Y2129507D01*
X59804784Y2383507D02*
X59296783Y2383507D01*
X59804784Y2637506D02*
X59550784Y2637506D01*
X635000Y2159000D02*
X635000Y1905000D01*
X889000Y2159000D02*
X889000Y1651000D01*
X1143000Y2159000D02*
X1143000Y1397000D01*
X1397000Y2159000D02*
X1397000Y1143000D01*
X1651000Y2159000D02*
X1651000Y889000D01*
X1905000Y2159000D02*
X1905000Y635000D01*
X381000Y2159000D02*
X2159000Y381000D01*
X2159000Y2159000D02*
X381000Y2159000D01*
X2159000Y2159000D02*
X2159000Y381000D01*
X45974000Y40386000D02*
X45466000Y40386000D01*
X45212000Y40132000D02*
X46228000Y40132000D01*
X46482000Y39878000D02*
X44958000Y39878000D01*
X44704000Y39624000D02*
X46736000Y39624000D01*
X46990000Y39370000D02*
X44450000Y39370000D01*
X45720000Y40640000D02*
X46990000Y39370000D01*
X44450000Y39370000D02*
X45720000Y40640000D01*
X45466000Y35814000D02*
X45974000Y35814000D01*
X46228000Y36068000D02*
X45212000Y36068000D01*
X44958000Y36322000D02*
X46482000Y36322000D01*
X46736000Y36576000D02*
X44704000Y36576000D01*
X44450000Y36830000D02*
X46990000Y36830000D01*
X45720000Y35560000D02*
X44450000Y36830000D01*
X46990000Y36830000D02*
X45720000Y35560000D01*
X16510000Y36830000D02*
X15240000Y35560000D01*
X15240000Y35560000D02*
X13970000Y36830000D01*
X13970000Y36830000D02*
X16510000Y36830000D01*
X16256000Y36576000D02*
X14224000Y36576000D01*
X14478000Y36322000D02*
X16002000Y36322000D01*
X15748000Y36068000D02*
X14732000Y36068000D01*
X14986000Y35814000D02*
X15494000Y35814000D01*
X13970000Y39370000D02*
X15240000Y40640000D01*
X15240000Y40640000D02*
X16510000Y39370000D01*
X16510000Y39370000D02*
X13970000Y39370000D01*
X14224000Y39624000D02*
X16256000Y39624000D01*
X16002000Y39878000D02*
X14478000Y39878000D01*
X14732000Y40132000D02*
X15748000Y40132000D01*
X15494000Y40386000D02*
X14986000Y40386000D01*
X15494000Y25146000D02*
X14986000Y25146000D01*
X14732000Y24892000D02*
X15748000Y24892000D01*
X16002000Y24638000D02*
X14478000Y24638000D01*
X14224000Y24384000D02*
X16256000Y24384000D01*
X16510000Y24130000D02*
X13970000Y24130000D01*
X15240000Y25400000D02*
X16510000Y24130000D01*
X13970000Y24130000D02*
X15240000Y25400000D01*
X14986000Y20574000D02*
X15494000Y20574000D01*
X15748000Y20828000D02*
X14732000Y20828000D01*
X14478000Y21082000D02*
X16002000Y21082000D01*
X16256000Y21336000D02*
X14224000Y21336000D01*
X13970000Y21590000D02*
X16510000Y21590000D01*
X15240000Y20320000D02*
X13970000Y21590000D01*
X16510000Y21590000D02*
X15240000Y20320000D01*
X46990000Y21590000D02*
X45720000Y20320000D01*
X45720000Y20320000D02*
X44450000Y21590000D01*
X44450000Y21590000D02*
X46990000Y21590000D01*
X46736000Y21336000D02*
X44704000Y21336000D01*
X44958000Y21082000D02*
X46482000Y21082000D01*
X46228000Y20828000D02*
X45212000Y20828000D01*
X45466000Y20574000D02*
X45974000Y20574000D01*
X44450000Y24130000D02*
X45720000Y25400000D01*
X45720000Y25400000D02*
X46990000Y24130000D01*
X46990000Y24130000D02*
X44450000Y24130000D01*
X44704000Y24384000D02*
X46736000Y24384000D01*
X46482000Y24638000D02*
X44958000Y24638000D01*
X45212000Y24892000D02*
X46228000Y24892000D01*
X45974000Y25146000D02*
X45466000Y25146000D01*
X45466000Y5334000D02*
X45974000Y5334000D01*
X46228000Y5588000D02*
X45212000Y5588000D01*
X44958000Y5842000D02*
X46482000Y5842000D01*
X46736000Y6096000D02*
X44704000Y6096000D01*
X44450000Y6350000D02*
X46990000Y6350000D01*
X45720000Y5080000D02*
X44450000Y6350000D01*
X46990000Y6350000D02*
X45720000Y5080000D01*
X45466000Y9906000D02*
X45974000Y9906000D01*
X46228000Y9652000D02*
X45212000Y9652000D01*
X44958000Y9398000D02*
X46482000Y9398000D01*
X46736000Y9144000D02*
X44704000Y9144000D01*
X44450000Y8890000D02*
X46990000Y8890000D01*
X45720000Y10160000D02*
X44450000Y8890000D01*
X46990000Y8890000D02*
X45720000Y10160000D01*
X15494000Y5334000D02*
X14986000Y5334000D01*
X14732000Y5588000D02*
X15748000Y5588000D01*
X16002000Y5842000D02*
X14478000Y5842000D01*
X14224000Y6096000D02*
X16256000Y6096000D01*
X16510000Y6350000D02*
X13970000Y6350000D01*
X15240000Y5080000D02*
X16510000Y6350000D01*
X13970000Y6350000D02*
X15240000Y5080000D01*
X15494000Y9906000D02*
X14986000Y9906000D01*
X14732000Y9652000D02*
X15748000Y9652000D01*
X16002000Y9398000D02*
X14478000Y9398000D01*
X14224000Y9144000D02*
X16256000Y9144000D01*
X16510000Y8890000D02*
X13970000Y8890000D01*
X15240000Y10160000D02*
X16510000Y8890000D01*
X13970000Y8890000D02*
X15240000Y10160000D01*
X45466000Y51054000D02*
X45974000Y51054000D01*
X46228000Y51308000D02*
X45212000Y51308000D01*
X44958000Y51562000D02*
X46482000Y51562000D01*
X46736000Y51816000D02*
X44704000Y51816000D01*
X44450000Y52070000D02*
X46990000Y52070000D01*
X45720000Y50800000D02*
X44450000Y52070000D01*
X46990000Y52070000D02*
X45720000Y50800000D01*
X45466000Y55626000D02*
X45974000Y55626000D01*
X46228000Y55372000D02*
X45212000Y55372000D01*
X44958000Y55118000D02*
X46482000Y55118000D01*
X46736000Y54864000D02*
X44704000Y54864000D01*
X44450000Y54610000D02*
X46990000Y54610000D01*
X45720000Y55880000D02*
X44450000Y54610000D01*
X46990000Y54610000D02*
X45720000Y55880000D01*
X14224000Y54864000D02*
X16256000Y54864000D01*
X14478000Y55118000D02*
X16002000Y55118000D01*
X14732000Y55372000D02*
X15748000Y55372000D01*
X14986000Y55626000D02*
X15494000Y55626000D01*
X14986000Y51054000D02*
X15494000Y51054000D01*
X14732000Y51308000D02*
X15748000Y51308000D01*
X14478000Y51562000D02*
X16002000Y51562000D01*
X14224000Y51816000D02*
X16256000Y51816000D01*
X15240000Y50800000D02*
X13970000Y52070000D01*
X16510000Y52070000D02*
X15240000Y50800000D01*
X13970000Y52070000D02*
X16510000Y52070000D01*
X16510000Y54610000D02*
X13970000Y54610000D01*
X15240000Y55880000D02*
X16510000Y54610000D01*
X13970000Y54610000D02*
X15240000Y55880000D01*
X48260000Y53340000D02*
X46990000Y52070000D01*
X46990000Y54610000D02*
X48260000Y53340000D01*
X12700000Y53340000D02*
X13970000Y52070000D01*
X13970000Y54610000D02*
X12700000Y53340000D01*
X48260000Y7620000D02*
X46990000Y6350000D01*
X46990000Y8890000D02*
X48260000Y7620000D01*
X12700000Y7620000D02*
X13970000Y6350000D01*
X13970000Y8890000D02*
X12700000Y7620000D01*
X43180000Y22860000D02*
X44450000Y21590000D01*
X44450000Y24130000D02*
X43180000Y22860000D01*
X17780000Y22860000D02*
X16510000Y21590000D01*
X16510000Y24130000D02*
X17780000Y22860000D01*
X43180000Y38100000D02*
X44450000Y36830000D01*
X43180000Y38100000D02*
X44450000Y39370000D01*
X17780000Y38100000D02*
X16510000Y36830000D01*
X17780000Y38100000D02*
X16510000Y39370000D01*
D11*
X43905715Y22515286D02*
X43905715Y23277286D01*
X44087143Y23277286D01*
X44196000Y23241000D01*
X44268572Y23168429D01*
X44304857Y23095857D01*
X44341143Y22950714D01*
X44341143Y22841857D01*
X44304857Y22696714D01*
X44268572Y22624143D01*
X44196000Y22551571D01*
X44087143Y22515286D01*
X43905715Y22515286D01*
X44631429Y22733000D02*
X44994286Y22733000D01*
X44558857Y22515286D02*
X44812857Y23277286D01*
X45066857Y22515286D01*
X45212000Y23277286D02*
X45647429Y23277286D01*
X45429715Y22515286D02*
X45429715Y23277286D01*
X45720000Y22442714D02*
X46300571Y22442714D01*
X46627142Y23277286D02*
X46772285Y23277286D01*
X46844857Y23241000D01*
X46917428Y23168429D01*
X46953714Y23023286D01*
X46953714Y22769286D01*
X46917428Y22624143D01*
X46844857Y22551571D01*
X46772285Y22515286D01*
X46627142Y22515286D01*
X46554571Y22551571D01*
X46482000Y22624143D01*
X46445714Y22769286D01*
X46445714Y23023286D01*
X46482000Y23168429D01*
X46554571Y23241000D01*
X46627142Y23277286D01*
X47280286Y23277286D02*
X47280286Y22660429D01*
X47316571Y22587857D01*
X47352857Y22551571D01*
X47425428Y22515286D01*
X47570571Y22515286D01*
X47643143Y22551571D01*
X47679428Y22587857D01*
X47715714Y22660429D01*
X47715714Y23277286D01*
X47969714Y23277286D02*
X48405143Y23277286D01*
X48187429Y22515286D02*
X48187429Y23277286D01*
X13552715Y22515286D02*
X13552715Y23277286D01*
X13734143Y23277286D01*
X13843000Y23241000D01*
X13915572Y23168429D01*
X13951857Y23095857D01*
X13988143Y22950714D01*
X13988143Y22841857D01*
X13951857Y22696714D01*
X13915572Y22624143D01*
X13843000Y22551571D01*
X13734143Y22515286D01*
X13552715Y22515286D01*
X14278429Y22733000D02*
X14641286Y22733000D01*
X14205857Y22515286D02*
X14459857Y23277286D01*
X14713857Y22515286D01*
X14859000Y23277286D02*
X15294429Y23277286D01*
X15076715Y22515286D02*
X15076715Y23277286D01*
X15367000Y22442714D02*
X15947571Y22442714D01*
X16129000Y22515286D02*
X16129000Y23277286D01*
X16491857Y22515286D02*
X16491857Y23277286D01*
X16927285Y22515286D01*
X16927285Y23277286D01*
X44141572Y37827857D02*
X44105286Y37791571D01*
X43996429Y37755286D01*
X43923858Y37755286D01*
X43815001Y37791571D01*
X43742429Y37864143D01*
X43706144Y37936714D01*
X43669858Y38081857D01*
X43669858Y38190714D01*
X43706144Y38335857D01*
X43742429Y38408429D01*
X43815001Y38481000D01*
X43923858Y38517286D01*
X43996429Y38517286D01*
X44105286Y38481000D01*
X44141572Y38444714D01*
X44831001Y37755286D02*
X44468144Y37755286D01*
X44468144Y38517286D01*
X45085001Y37755286D02*
X45085001Y38517286D01*
X45520429Y37755286D02*
X45193858Y38190714D01*
X45520429Y38517286D02*
X45085001Y38081857D01*
X45665572Y37682714D02*
X46246143Y37682714D01*
X46572714Y38517286D02*
X46717857Y38517286D01*
X46790429Y38481000D01*
X46863000Y38408429D01*
X46899286Y38263286D01*
X46899286Y38009286D01*
X46863000Y37864143D01*
X46790429Y37791571D01*
X46717857Y37755286D01*
X46572714Y37755286D01*
X46500143Y37791571D01*
X46427572Y37864143D01*
X46391286Y38009286D01*
X46391286Y38263286D01*
X46427572Y38408429D01*
X46500143Y38481000D01*
X46572714Y38517286D01*
X47225858Y38517286D02*
X47225858Y37900429D01*
X47262143Y37827857D01*
X47298429Y37791571D01*
X47371000Y37755286D01*
X47516143Y37755286D01*
X47588715Y37791571D01*
X47625000Y37827857D01*
X47661286Y37900429D01*
X47661286Y38517286D01*
X47915286Y38517286D02*
X48350715Y38517286D01*
X48133001Y37755286D02*
X48133001Y38517286D01*
X13915572Y37827857D02*
X13879286Y37791571D01*
X13770429Y37755286D01*
X13697858Y37755286D01*
X13589001Y37791571D01*
X13516429Y37864143D01*
X13480144Y37936714D01*
X13443858Y38081857D01*
X13443858Y38190714D01*
X13480144Y38335857D01*
X13516429Y38408429D01*
X13589001Y38481000D01*
X13697858Y38517286D01*
X13770429Y38517286D01*
X13879286Y38481000D01*
X13915572Y38444714D01*
X14605001Y37755286D02*
X14242144Y37755286D01*
X14242144Y38517286D01*
X14859001Y37755286D02*
X14859001Y38517286D01*
X15294429Y37755286D02*
X14967858Y38190714D01*
X15294429Y38517286D02*
X14859001Y38081857D01*
X15439572Y37682714D02*
X16020143Y37682714D01*
X16201572Y37755286D02*
X16201572Y38517286D01*
X16564429Y37755286D02*
X16564429Y38517286D01*
X16999857Y37755286D01*
X16999857Y38517286D01*
X15094858Y53757286D02*
X14732001Y53757286D01*
X14695715Y53394429D01*
X14732001Y53430714D01*
X14804572Y53467000D01*
X14986001Y53467000D01*
X15058572Y53430714D01*
X15094858Y53394429D01*
X15131143Y53321857D01*
X15131143Y53140429D01*
X15094858Y53067857D01*
X15058572Y53031571D01*
X14986001Y52995286D01*
X14804572Y52995286D01*
X14732001Y53031571D01*
X14695715Y53067857D01*
X15348857Y53757286D02*
X15602857Y52995286D01*
X15856857Y53757286D01*
X45574858Y53757286D02*
X45212001Y53757286D01*
X45175715Y53394429D01*
X45212001Y53430714D01*
X45284572Y53467000D01*
X45466001Y53467000D01*
X45538572Y53430714D01*
X45574858Y53394429D01*
X45611143Y53321857D01*
X45611143Y53140429D01*
X45574858Y53067857D01*
X45538572Y53031571D01*
X45466001Y52995286D01*
X45284572Y52995286D01*
X45212001Y53031571D01*
X45175715Y53067857D01*
X45828857Y53757286D02*
X46082857Y52995286D01*
X46336857Y53757286D01*
X45139428Y8001000D02*
X45066857Y8037286D01*
X44958000Y8037286D01*
X44849143Y8001000D01*
X44776571Y7928429D01*
X44740286Y7855857D01*
X44704000Y7710714D01*
X44704000Y7601857D01*
X44740286Y7456714D01*
X44776571Y7384143D01*
X44849143Y7311571D01*
X44958000Y7275286D01*
X45030571Y7275286D01*
X45139428Y7311571D01*
X45175714Y7347857D01*
X45175714Y7601857D01*
X45030571Y7601857D01*
X45502286Y7275286D02*
X45502286Y8037286D01*
X45937714Y7275286D01*
X45937714Y8037286D01*
X46300572Y7275286D02*
X46300572Y8037286D01*
X46482000Y8037286D01*
X46590857Y8001000D01*
X46663429Y7928429D01*
X46699714Y7855857D01*
X46736000Y7710714D01*
X46736000Y7601857D01*
X46699714Y7456714D01*
X46663429Y7384143D01*
X46590857Y7311571D01*
X46482000Y7275286D01*
X46300572Y7275286D01*
X14659428Y8001000D02*
X14586857Y8037286D01*
X14478000Y8037286D01*
X14369143Y8001000D01*
X14296571Y7928429D01*
X14260286Y7855857D01*
X14224000Y7710714D01*
X14224000Y7601857D01*
X14260286Y7456714D01*
X14296571Y7384143D01*
X14369143Y7311571D01*
X14478000Y7275286D01*
X14550571Y7275286D01*
X14659428Y7311571D01*
X14695714Y7347857D01*
X14695714Y7601857D01*
X14550571Y7601857D01*
X15022286Y7275286D02*
X15022286Y8037286D01*
X15457714Y7275286D01*
X15457714Y8037286D01*
X15820572Y7275286D02*
X15820572Y8037286D01*
X16002000Y8037286D01*
X16110857Y8001000D01*
X16183429Y7928429D01*
X16219714Y7855857D01*
X16256000Y7710714D01*
X16256000Y7601857D01*
X16219714Y7456714D01*
X16183429Y7384143D01*
X16110857Y7311571D01*
X16002000Y7275286D01*
X15820572Y7275286D01*
D12*
X18405975Y46297108D02*
G75*
G03X18405975Y46297108I-254001J0D01*
G01*
X18278974Y46297108D02*
G75*
G03X18278974Y46297108I-127000J0D01*
G01*
X60636893Y33391974D02*
G75*
G03X60636893Y33391974I-254001J0D01*
G01*
X60509892Y33391974D02*
G75*
G03X60509892Y33391974I-127000J0D01*
G01*
X58302027Y45142892D02*
G75*
G03X58302027Y45142892I-254001J0D01*
G01*
X58175026Y45142892D02*
G75*
G03X58175026Y45142892I-127000J0D01*
G01*
X46551109Y42808026D02*
G75*
G03X46551109Y42808026I-254001J0D01*
G01*
X46424108Y42808026D02*
G75*
G03X46424108Y42808026I-127000J0D01*
G01*
X48885975Y31057108D02*
G75*
G03X48885975Y31057108I-254001J0D01*
G01*
X48758974Y31057108D02*
G75*
G03X48758974Y31057108I-127000J0D01*
G01*
X31311109Y42808026D02*
G75*
G03X31311109Y42808026I-254001J0D01*
G01*
X31184108Y42808026D02*
G75*
G03X31184108Y42808026I-127000J0D01*
G01*
X18405975Y15817108D02*
G75*
G03X18405975Y15817108I-254001J0D01*
G01*
X18278974Y15817108D02*
G75*
G03X18278974Y15817108I-127000J0D01*
G01*
X14916893Y33391974D02*
G75*
G03X14916893Y33391974I-254001J0D01*
G01*
X14789892Y33391974D02*
G75*
G03X14789892Y33391974I-127000J0D01*
G01*
X12582027Y45142892D02*
G75*
G03X12582027Y45142892I-254001J0D01*
G01*
X12455026Y45142892D02*
G75*
G03X12455026Y45142892I-127000J0D01*
G01*
X831109Y42808026D02*
G75*
G03X831109Y42808026I-254001J0D01*
G01*
X704108Y42808026D02*
G75*
G03X704108Y42808026I-127000J0D01*
G01*
X3165975Y31057108D02*
G75*
G03X3165975Y31057108I-254001J0D01*
G01*
X3038974Y31057108D02*
G75*
G03X3038974Y31057108I-127000J0D01*
G01*
X60636893Y18151974D02*
G75*
G03X60636893Y18151974I-254001J0D01*
G01*
X60509892Y18151974D02*
G75*
G03X60509892Y18151974I-127000J0D01*
G01*
X58302027Y29902892D02*
G75*
G03X58302027Y29902892I-254001J0D01*
G01*
X58175026Y29902892D02*
G75*
G03X58175026Y29902892I-127000J0D01*
G01*
X60636893Y48631974D02*
G75*
G03X60636893Y48631974I-254001J0D01*
G01*
X60509892Y48631974D02*
G75*
G03X60509892Y48631974I-127000J0D01*
G01*
X58302027Y60382892D02*
G75*
G03X58302027Y60382892I-254001J0D01*
G01*
X58175026Y60382892D02*
G75*
G03X58175026Y60382892I-127000J0D01*
G01*
X46551109Y58048026D02*
G75*
G03X46551109Y58048026I-254001J0D01*
G01*
X46424108Y58048026D02*
G75*
G03X46424108Y58048026I-127000J0D01*
G01*
X48885975Y46297108D02*
G75*
G03X48885975Y46297108I-254001J0D01*
G01*
X48758974Y46297108D02*
G75*
G03X48758974Y46297108I-127000J0D01*
G01*
X46551109Y27568026D02*
G75*
G03X46551109Y27568026I-254001J0D01*
G01*
X46424108Y27568026D02*
G75*
G03X46424108Y27568026I-127000J0D01*
G01*
X48885975Y15817108D02*
G75*
G03X48885975Y15817108I-254001J0D01*
G01*
X48758974Y15817108D02*
G75*
G03X48758974Y15817108I-127000J0D01*
G01*
X46551109Y12328026D02*
G75*
G03X46551109Y12328026I-254001J0D01*
G01*
X46424108Y12328026D02*
G75*
G03X46424108Y12328026I-127000J0D01*
G01*
X43062027Y14662892D02*
G75*
G03X43062027Y14662892I-254001J0D01*
G01*
X42935026Y14662892D02*
G75*
G03X42935026Y14662892I-127000J0D01*
G01*
X45396893Y18151974D02*
G75*
G03X45396893Y18151974I-254001J0D01*
G01*
X45269892Y18151974D02*
G75*
G03X45269892Y18151974I-127000J0D01*
G01*
X43062027Y29902892D02*
G75*
G03X43062027Y29902892I-254001J0D01*
G01*
X42935026Y29902892D02*
G75*
G03X42935026Y29902892I-127000J0D01*
G01*
X45396893Y33391974D02*
G75*
G03X45396893Y33391974I-254001J0D01*
G01*
X45269892Y33391974D02*
G75*
G03X45269892Y33391974I-127000J0D01*
G01*
X45396893Y48631974D02*
G75*
G03X45396893Y48631974I-254001J0D01*
G01*
X45269892Y48631974D02*
G75*
G03X45269892Y48631974I-127000J0D01*
G01*
X43062027Y60382892D02*
G75*
G03X43062027Y60382892I-254001J0D01*
G01*
X42935026Y60382892D02*
G75*
G03X42935026Y60382892I-127000J0D01*
G01*
X31311109Y58048026D02*
G75*
G03X31311109Y58048026I-254001J0D01*
G01*
X31184108Y58048026D02*
G75*
G03X31184108Y58048026I-127000J0D01*
G01*
X33645975Y46297108D02*
G75*
G03X33645975Y46297108I-254001J0D01*
G01*
X33518974Y46297108D02*
G75*
G03X33518974Y46297108I-127000J0D01*
G01*
X33645975Y31057108D02*
G75*
G03X33645975Y31057108I-254001J0D01*
G01*
X33518974Y31057108D02*
G75*
G03X33518974Y31057108I-127000J0D01*
G01*
X31311109Y27568026D02*
G75*
G03X31311109Y27568026I-254001J0D01*
G01*
X31184108Y27568026D02*
G75*
G03X31184108Y27568026I-127000J0D01*
G01*
X33645975Y15817108D02*
G75*
G03X33645975Y15817108I-254001J0D01*
G01*
X33518974Y15817108D02*
G75*
G03X33518974Y15817108I-127000J0D01*
G01*
X31311109Y12328026D02*
G75*
G03X31311109Y12328026I-254001J0D01*
G01*
X31184108Y12328026D02*
G75*
G03X31184108Y12328026I-127000J0D01*
G01*
X27822027Y14662892D02*
G75*
G03X27822027Y14662892I-254001J0D01*
G01*
X27695026Y14662892D02*
G75*
G03X27695026Y14662892I-127000J0D01*
G01*
X30156893Y18151974D02*
G75*
G03X30156893Y18151974I-254001J0D01*
G01*
X30029892Y18151974D02*
G75*
G03X30029892Y18151974I-127000J0D01*
G01*
X27822027Y29902892D02*
G75*
G03X27822027Y29902892I-254001J0D01*
G01*
X27695026Y29902892D02*
G75*
G03X27695026Y29902892I-127000J0D01*
G01*
X30156893Y33391974D02*
G75*
G03X30156893Y33391974I-254001J0D01*
G01*
X30029892Y33391974D02*
G75*
G03X30029892Y33391974I-127000J0D01*
G01*
X27822027Y45142892D02*
G75*
G03X27822027Y45142892I-254001J0D01*
G01*
X27695026Y45142892D02*
G75*
G03X27695026Y45142892I-127000J0D01*
G01*
X30156893Y48631974D02*
G75*
G03X30156893Y48631974I-254001J0D01*
G01*
X30029892Y48631974D02*
G75*
G03X30029892Y48631974I-127000J0D01*
G01*
X27822027Y60382892D02*
G75*
G03X27822027Y60382892I-254001J0D01*
G01*
X27695026Y60382892D02*
G75*
G03X27695026Y60382892I-127000J0D01*
G01*
X16071109Y58048026D02*
G75*
G03X16071109Y58048026I-254001J0D01*
G01*
X15944108Y58048026D02*
G75*
G03X15944108Y58048026I-127000J0D01*
G01*
X16071109Y42808026D02*
G75*
G03X16071109Y42808026I-254001J0D01*
G01*
X15944108Y42808026D02*
G75*
G03X15944108Y42808026I-127000J0D01*
G01*
X18405975Y31057108D02*
G75*
G03X18405975Y31057108I-254001J0D01*
G01*
X18278974Y31057108D02*
G75*
G03X18278974Y31057108I-127000J0D01*
G01*
X16071109Y27568026D02*
G75*
G03X16071109Y27568026I-254001J0D01*
G01*
X15944108Y27568026D02*
G75*
G03X15944108Y27568026I-127000J0D01*
G01*
X16071109Y12328026D02*
G75*
G03X16071109Y12328026I-254001J0D01*
G01*
X15944108Y12328026D02*
G75*
G03X15944108Y12328026I-127000J0D01*
G01*
X12582027Y14662892D02*
G75*
G03X12582027Y14662892I-254001J0D01*
G01*
X12455026Y14662892D02*
G75*
G03X12455026Y14662892I-127000J0D01*
G01*
X14916893Y18151974D02*
G75*
G03X14916893Y18151974I-254001J0D01*
G01*
X14789892Y18151974D02*
G75*
G03X14789892Y18151974I-127000J0D01*
G01*
X12582027Y29902892D02*
G75*
G03X12582027Y29902892I-254001J0D01*
G01*
X12455026Y29902892D02*
G75*
G03X12455026Y29902892I-127000J0D01*
G01*
X14916893Y48631974D02*
G75*
G03X14916893Y48631974I-254001J0D01*
G01*
X14789892Y48631974D02*
G75*
G03X14789892Y48631974I-127000J0D01*
G01*
X12582027Y60382892D02*
G75*
G03X12582027Y60382892I-254001J0D01*
G01*
X12455026Y60382892D02*
G75*
G03X12455026Y60382892I-127000J0D01*
G01*
X831109Y58048026D02*
G75*
G03X831109Y58048026I-254001J0D01*
G01*
X704108Y58048026D02*
G75*
G03X704108Y58048026I-127000J0D01*
G01*
X3165975Y46297108D02*
G75*
G03X3165975Y46297108I-254001J0D01*
G01*
X3038974Y46297108D02*
G75*
G03X3038974Y46297108I-127000J0D01*
G01*
X3165975Y15817108D02*
G75*
G03X3165975Y15817108I-254001J0D01*
G01*
X3038974Y15817108D02*
G75*
G03X3038974Y15817108I-127000J0D01*
G01*
X831109Y12328026D02*
G75*
G03X831109Y12328026I-254001J0D01*
G01*
X704108Y12328026D02*
G75*
G03X704108Y12328026I-127000J0D01*
G01*
X831109Y27568026D02*
G75*
G03X831109Y27568026I-254001J0D01*
G01*
X704108Y27568026D02*
G75*
G03X704108Y27568026I-127000J0D01*
G01*
X3165975Y577108D02*
G75*
G03X3165975Y577108I-254001J0D01*
G01*
X3038974Y577108D02*
G75*
G03X3038974Y577108I-127000J0D01*
G01*
X14916893Y2911974D02*
G75*
G03X14916893Y2911974I-254001J0D01*
G01*
X14789892Y2911974D02*
G75*
G03X14789892Y2911974I-127000J0D01*
G01*
X18405975Y577108D02*
G75*
G03X18405975Y577108I-254001J0D01*
G01*
X18278974Y577108D02*
G75*
G03X18278974Y577108I-127000J0D01*
G01*
X30156893Y2911974D02*
G75*
G03X30156893Y2911974I-254001J0D01*
G01*
X30029892Y2911974D02*
G75*
G03X30029892Y2911974I-127000J0D01*
G01*
X33645975Y577108D02*
G75*
G03X33645975Y577108I-254001J0D01*
G01*
X33518974Y577108D02*
G75*
G03X33518974Y577108I-127000J0D01*
G01*
X45396893Y2911974D02*
G75*
G03X45396893Y2911974I-254001J0D01*
G01*
X45269892Y2911974D02*
G75*
G03X45269892Y2911974I-127000J0D01*
G01*
X48885975Y577108D02*
G75*
G03X48885975Y577108I-254001J0D01*
G01*
X48758974Y577108D02*
G75*
G03X48758974Y577108I-127000J0D01*
G01*
X60636893Y2911974D02*
G75*
G03X60636893Y2911974I-254001J0D01*
G01*
X60509892Y2911974D02*
G75*
G03X60509892Y2911974I-127000J0D01*
G01*
X43062027Y45142892D02*
G75*
G03X43062027Y45142892I-254001J0D01*
G01*
X42935026Y45142892D02*
G75*
G03X42935026Y45142892I-127000J0D01*
G01*
X58302027Y14662892D02*
G75*
G03X58302027Y14662892I-254001J0D01*
G01*
X58175026Y14662892D02*
G75*
G03X58175026Y14662892I-127000J0D01*
G01*
X17489848Y48609408D02*
X17947784Y48151472D01*
X18028595Y48124535D01*
X18082471Y48124535D01*
X18163283Y48151472D01*
X18271032Y48259222D01*
X18297970Y48340034D01*
X18297970Y48393909D01*
X18271032Y48474721D01*
X17813097Y48932657D01*
X18109408Y49121219D02*
X18109408Y49175093D01*
X18136346Y49255905D01*
X18271032Y49390592D01*
X18351844Y49417530D01*
X18405719Y49417530D01*
X18486532Y49390592D01*
X18540406Y49336718D01*
X18594281Y49228968D01*
X18594281Y48582470D01*
X18944468Y48932657D01*
X18567344Y49686904D02*
X18917530Y50037090D01*
X18944468Y49633029D01*
X19025280Y49713841D01*
X19106092Y49740778D01*
X19159967Y49740779D01*
X19240779Y49713841D01*
X19375466Y49579154D01*
X19402403Y49498343D01*
X19402403Y49444467D01*
X19375466Y49363655D01*
X19213841Y49202030D01*
X19133030Y49175093D01*
X19079154Y49175094D01*
X57109408Y34510152D02*
X56651472Y34052216D01*
X56624535Y33971405D01*
X56624535Y33917529D01*
X56651472Y33836717D01*
X56759222Y33728968D01*
X56840034Y33702030D01*
X56893909Y33702030D01*
X56974721Y33728968D01*
X57432657Y34186903D01*
X57944467Y33675093D02*
X57836717Y33782843D01*
X57755905Y33809780D01*
X57702031Y33809780D01*
X57567343Y33782843D01*
X57432657Y33702030D01*
X57217157Y33486531D01*
X57190220Y33405719D01*
X57190219Y33351844D01*
X57217157Y33271032D01*
X57324907Y33163282D01*
X57405719Y33136345D01*
X57459595Y33136345D01*
X57540406Y33163282D01*
X57675093Y33297969D01*
X57702031Y33378781D01*
X57702030Y33432657D01*
X57675093Y33513468D01*
X57567343Y33621218D01*
X57486531Y33648156D01*
X57432657Y33648156D01*
X57351844Y33621218D01*
X58348528Y33271032D02*
X58402403Y33217157D01*
X58429341Y33136345D01*
X58429341Y33082470D01*
X58402403Y33001657D01*
X58321591Y32866970D01*
X58186904Y32732284D01*
X58052217Y32651471D01*
X57971405Y32624535D01*
X57917530Y32624534D01*
X57836718Y32651471D01*
X57782843Y32705346D01*
X57755905Y32786158D01*
X57755905Y32840034D01*
X57782843Y32920846D01*
X57863655Y33055532D01*
X57998342Y33190219D01*
X58133029Y33271032D01*
X58213841Y33297970D01*
X58267716Y33297969D01*
X58348528Y33271032D01*
X56489847Y42109408D02*
X56947783Y41651472D01*
X57028594Y41624535D01*
X57082470Y41624535D01*
X57163282Y41651472D01*
X57271031Y41759222D01*
X57297969Y41840034D01*
X57297969Y41893909D01*
X57271031Y41974721D01*
X56813096Y42432657D01*
X57351844Y42971405D02*
X57082469Y42702030D01*
X57324906Y42405719D01*
X57324906Y42459594D01*
X57351844Y42540406D01*
X57486531Y42675093D01*
X57567342Y42702030D01*
X57621218Y42702031D01*
X57702030Y42675093D01*
X57836717Y42540406D01*
X57863654Y42459595D01*
X57863654Y42405719D01*
X57836717Y42324907D01*
X57702030Y42190220D01*
X57621218Y42163282D01*
X57567342Y42163283D01*
X58213840Y42702030D02*
X58321590Y42809780D01*
X58348528Y42890592D01*
X58348527Y42944468D01*
X58321591Y43079154D01*
X58240778Y43213841D01*
X58025279Y43429341D01*
X57944467Y43456278D01*
X57890591Y43456278D01*
X57809780Y43429341D01*
X57702030Y43321591D01*
X57675092Y43240778D01*
X57675092Y43186904D01*
X57702030Y43106092D01*
X57836717Y42971405D01*
X57917529Y42944468D01*
X57971404Y42944467D01*
X58052216Y42971405D01*
X58159966Y43079154D01*
X58186903Y43159966D01*
X58186903Y43213842D01*
X58159966Y43294654D01*
X48609407Y43510152D02*
X48151471Y43052216D01*
X48124534Y42971405D01*
X48124534Y42917529D01*
X48151471Y42836717D01*
X48259221Y42728968D01*
X48340033Y42702030D01*
X48393908Y42702030D01*
X48474720Y42728968D01*
X48932656Y43186903D01*
X49471404Y42648155D02*
X49202029Y42917530D01*
X48905718Y42675093D01*
X48959593Y42675093D01*
X49040405Y42648155D01*
X49175092Y42513468D01*
X49202029Y42432657D01*
X49202030Y42378781D01*
X49175092Y42297969D01*
X49040405Y42163282D01*
X48959594Y42136345D01*
X48905718Y42136345D01*
X48824906Y42163282D01*
X48690219Y42297969D01*
X48663281Y42378781D01*
X48663282Y42432657D01*
X49794653Y41947784D02*
X49417529Y41570659D01*
X49875464Y42297969D02*
X49336717Y42028595D01*
X49686903Y41678409D01*
X47989848Y33109408D02*
X48447784Y32651472D01*
X48528595Y32624535D01*
X48582471Y32624535D01*
X48663283Y32651472D01*
X48771032Y32759222D01*
X48797970Y32840034D01*
X48797970Y32893909D01*
X48771032Y32974721D01*
X48313097Y33432657D01*
X48851845Y33971405D02*
X48582470Y33702030D01*
X48824907Y33405719D01*
X48824907Y33459594D01*
X48851845Y33540406D01*
X48986532Y33675093D01*
X49067343Y33702030D01*
X49121219Y33702031D01*
X49202031Y33675093D01*
X49336718Y33540406D01*
X49363655Y33459595D01*
X49363655Y33405719D01*
X49336718Y33324907D01*
X49202031Y33190220D01*
X49121219Y33163282D01*
X49067343Y33163283D01*
X49067344Y34186904D02*
X49417530Y34537090D01*
X49444468Y34133029D01*
X49525280Y34213841D01*
X49606092Y34240778D01*
X49659967Y34240779D01*
X49740779Y34213841D01*
X49875466Y34079154D01*
X49902403Y33998343D01*
X49902403Y33944467D01*
X49875466Y33863655D01*
X49713841Y33702030D01*
X49633030Y33675093D01*
X49579154Y33675094D01*
X33109409Y43510152D02*
X32651473Y43052216D01*
X32624536Y42971405D01*
X32624536Y42917529D01*
X32651473Y42836717D01*
X32759223Y42728968D01*
X32840035Y42702030D01*
X32893910Y42702030D01*
X32974722Y42728968D01*
X33432658Y43186903D01*
X33648157Y42971404D02*
X33998343Y42621218D01*
X33594282Y42594281D01*
X33675094Y42513468D01*
X33702031Y42432657D01*
X33702032Y42378781D01*
X33675094Y42297969D01*
X33540407Y42163282D01*
X33459596Y42136345D01*
X33405720Y42136345D01*
X33324908Y42163282D01*
X33163283Y42324907D01*
X33136346Y42405719D01*
X33136347Y42459594D01*
X34079155Y42055532D02*
X34052217Y42136345D01*
X34052218Y42190220D01*
X34079155Y42271032D01*
X34106093Y42297969D01*
X34186905Y42324907D01*
X34240779Y42324907D01*
X34321592Y42297969D01*
X34429342Y42190219D01*
X34456279Y42109408D01*
X34456279Y42055532D01*
X34429342Y41974720D01*
X34402404Y41947783D01*
X34321593Y41920846D01*
X34267717Y41920846D01*
X34186905Y41947783D01*
X34079155Y42055532D01*
X33998343Y42082470D01*
X33944469Y42082470D01*
X33863656Y42055532D01*
X33755906Y41947783D01*
X33728969Y41866971D01*
X33728969Y41813096D01*
X33755906Y41732284D01*
X33863656Y41624534D01*
X33944468Y41597597D01*
X33998344Y41597597D01*
X34079155Y41624534D01*
X34186905Y41732284D01*
X34213843Y41813096D01*
X34213842Y41866971D01*
X34186905Y41947783D01*
X17489848Y18109408D02*
X17947784Y17651472D01*
X18028595Y17624535D01*
X18082471Y17624535D01*
X18163283Y17651472D01*
X18271032Y17759222D01*
X18297970Y17840034D01*
X18297970Y17893909D01*
X18271032Y17974721D01*
X17813097Y18432657D01*
X18944468Y18432657D02*
X18621219Y18109408D01*
X18782843Y18271032D02*
X18217157Y18836717D01*
X18244095Y18702031D01*
X18244095Y18594281D01*
X18217157Y18513469D01*
X19213841Y18702030D02*
X19321591Y18809780D01*
X19348529Y18890592D01*
X19348528Y18944468D01*
X19321592Y19079154D01*
X19240779Y19213841D01*
X19025280Y19429341D01*
X18944468Y19456278D01*
X18890592Y19456278D01*
X18809781Y19429341D01*
X18702031Y19321591D01*
X18675093Y19240778D01*
X18675093Y19186904D01*
X18702031Y19106092D01*
X18836718Y18971405D01*
X18917530Y18944468D01*
X18971405Y18944467D01*
X19052217Y18971405D01*
X19159967Y19079154D01*
X19186904Y19159966D01*
X19186904Y19213842D01*
X19159967Y19294654D01*
X11609408Y35010152D02*
X11151472Y34552216D01*
X11124535Y34471405D01*
X11124535Y34417529D01*
X11151472Y34336717D01*
X11259222Y34228968D01*
X11340034Y34202030D01*
X11393909Y34202030D01*
X11474721Y34228968D01*
X11932657Y34686903D01*
X11932657Y33555532D02*
X11609408Y33878781D01*
X11771032Y33717157D02*
X12336717Y34282843D01*
X12202031Y34255905D01*
X12094281Y34255905D01*
X12013469Y34282843D01*
X12659967Y33851844D02*
X12713841Y33851844D01*
X12794654Y33824906D01*
X12929341Y33690219D01*
X12956278Y33609408D01*
X12956278Y33555532D01*
X12929341Y33474720D01*
X12875466Y33420846D01*
X12767716Y33366970D01*
X12121219Y33366970D01*
X12471405Y33016784D01*
X10989848Y42109408D02*
X11447784Y41651472D01*
X11528595Y41624535D01*
X11582471Y41624535D01*
X11663283Y41651472D01*
X11771032Y41759222D01*
X11797970Y41840034D01*
X11797970Y41893909D01*
X11771032Y41974721D01*
X11313097Y42432657D01*
X12444468Y42432657D02*
X12121219Y42109408D01*
X12282843Y42271032D02*
X11717157Y42836717D01*
X11744095Y42702031D01*
X11744095Y42594281D01*
X11717157Y42513469D01*
X12983216Y42971405D02*
X12659967Y42648156D01*
X12821591Y42809780D02*
X12255905Y43375465D01*
X12282843Y43240779D01*
X12282843Y43133029D01*
X12255905Y43052217D01*
X2609409Y43510152D02*
X2151473Y43052216D01*
X2124536Y42971405D01*
X2124536Y42917529D01*
X2151473Y42836717D01*
X2259223Y42728968D01*
X2340035Y42702030D01*
X2393910Y42702030D01*
X2474722Y42728968D01*
X2932658Y43186903D01*
X3309781Y42809780D02*
X3363656Y42755905D01*
X3390593Y42675093D01*
X3390593Y42621219D01*
X3363656Y42540405D01*
X3282844Y42405719D01*
X3148157Y42271032D01*
X3013470Y42190219D01*
X2932658Y42163283D01*
X2878782Y42163282D01*
X2797971Y42190219D01*
X2744096Y42244095D01*
X2717158Y42324906D01*
X2717158Y42378782D01*
X2744096Y42459594D01*
X2824908Y42594281D01*
X2959595Y42728968D01*
X3094282Y42809780D01*
X3175094Y42836718D01*
X3228969Y42836717D01*
X3309781Y42809780D01*
X3983216Y42136345D02*
X3875466Y42244095D01*
X3794655Y42271032D01*
X3740780Y42271032D01*
X3606093Y42244095D01*
X3471406Y42163282D01*
X3255906Y41947783D01*
X3228969Y41866971D01*
X3228969Y41813096D01*
X3255906Y41732284D01*
X3363656Y41624534D01*
X3444468Y41597597D01*
X3498344Y41597597D01*
X3579155Y41624534D01*
X3713842Y41759221D01*
X3740780Y41840033D01*
X3740779Y41893908D01*
X3713842Y41974720D01*
X3606093Y42082470D01*
X3525280Y42109408D01*
X3471406Y42109408D01*
X3390593Y42082470D01*
X2489848Y33609408D02*
X2947784Y33151472D01*
X3028595Y33124535D01*
X3082471Y33124535D01*
X3163283Y33151472D01*
X3271032Y33259222D01*
X3297970Y33340034D01*
X3297970Y33393909D01*
X3271032Y33474721D01*
X2813097Y33932657D01*
X3190220Y34309780D02*
X3244095Y34363655D01*
X3324907Y34390592D01*
X3378781Y34390592D01*
X3459595Y34363655D01*
X3594281Y34282843D01*
X3728968Y34148156D01*
X3809781Y34013469D01*
X3836717Y33932657D01*
X3836718Y33878781D01*
X3809781Y33797970D01*
X3755905Y33744095D01*
X3675094Y33717157D01*
X3621218Y33717157D01*
X3540406Y33744095D01*
X3405719Y33824907D01*
X3271032Y33959594D01*
X3190220Y34094281D01*
X3163282Y34175093D01*
X3163283Y34228968D01*
X3190220Y34309780D01*
X3890593Y35010153D02*
X3621219Y34740778D01*
X3863655Y34444468D01*
X3863655Y34498342D01*
X3890593Y34579154D01*
X4025280Y34713841D01*
X4106092Y34740778D01*
X4159967Y34740779D01*
X4240779Y34713841D01*
X4375466Y34579154D01*
X4402403Y34498343D01*
X4402403Y34444467D01*
X4375466Y34363655D01*
X4240779Y34228968D01*
X4159967Y34202030D01*
X4106092Y34202031D01*
X57109408Y19510152D02*
X56651472Y19052216D01*
X56624535Y18971405D01*
X56624535Y18917529D01*
X56651472Y18836717D01*
X56759222Y18728968D01*
X56840034Y18702030D01*
X56893909Y18702030D01*
X56974721Y18728968D01*
X57432657Y19186903D01*
X57944467Y18675093D02*
X57836717Y18782843D01*
X57755905Y18809780D01*
X57702031Y18809780D01*
X57567343Y18782843D01*
X57432657Y18702030D01*
X57217157Y18486531D01*
X57190220Y18405719D01*
X57190219Y18351844D01*
X57217157Y18271032D01*
X57324907Y18163282D01*
X57405719Y18136345D01*
X57459595Y18136345D01*
X57540406Y18163282D01*
X57675093Y18297969D01*
X57702031Y18378781D01*
X57702030Y18432657D01*
X57675093Y18513468D01*
X57567343Y18621218D01*
X57486531Y18648156D01*
X57432657Y18648156D01*
X57351844Y18621218D01*
X58159967Y18351844D02*
X58213841Y18351844D01*
X58294654Y18324906D01*
X58429341Y18190219D01*
X58456278Y18109408D01*
X58456278Y18055532D01*
X58429341Y17974720D01*
X58375466Y17920846D01*
X58267716Y17866970D01*
X57621219Y17866970D01*
X57971405Y17516784D01*
X56489848Y26609408D02*
X56947784Y26151472D01*
X57028595Y26124535D01*
X57082471Y26124535D01*
X57163283Y26151472D01*
X57271032Y26259222D01*
X57297970Y26340034D01*
X57297970Y26393909D01*
X57271032Y26474721D01*
X56813097Y26932657D01*
X57324907Y27444467D02*
X57217157Y27336717D01*
X57190220Y27255905D01*
X57190220Y27202031D01*
X57217157Y27067343D01*
X57297970Y26932657D01*
X57513469Y26717157D01*
X57594281Y26690220D01*
X57648156Y26690219D01*
X57728968Y26717157D01*
X57836718Y26824907D01*
X57863655Y26905719D01*
X57863655Y26959595D01*
X57836718Y27040406D01*
X57702031Y27175093D01*
X57621219Y27202031D01*
X57567343Y27202030D01*
X57486532Y27175093D01*
X57378782Y27067343D01*
X57351844Y26986531D01*
X57351844Y26932657D01*
X57378782Y26851844D01*
X58483216Y27471405D02*
X58159967Y27148156D01*
X58321591Y27309780D02*
X57755905Y27875465D01*
X57782843Y27740779D01*
X57782843Y27633029D01*
X57755905Y27552217D01*
X57109408Y50010152D02*
X56651472Y49552216D01*
X56624535Y49471405D01*
X56624535Y49417529D01*
X56651472Y49336717D01*
X56759222Y49228968D01*
X56840034Y49202030D01*
X56893909Y49202030D01*
X56974721Y49228968D01*
X57432657Y49686903D01*
X57971405Y49148155D02*
X57702030Y49417530D01*
X57405719Y49175093D01*
X57459594Y49175093D01*
X57540406Y49148155D01*
X57675093Y49013468D01*
X57702030Y48932657D01*
X57702031Y48878781D01*
X57675093Y48797969D01*
X57540406Y48663282D01*
X57459595Y48636345D01*
X57405719Y48636345D01*
X57324907Y48663282D01*
X57190220Y48797969D01*
X57163282Y48878781D01*
X57163283Y48932657D01*
X58079154Y48555532D02*
X58052216Y48636345D01*
X58052217Y48690220D01*
X58079154Y48771032D01*
X58106092Y48797969D01*
X58186904Y48824907D01*
X58240778Y48824907D01*
X58321591Y48797969D01*
X58429341Y48690219D01*
X58456278Y48609408D01*
X58456278Y48555532D01*
X58429341Y48474720D01*
X58402403Y48447783D01*
X58321592Y48420846D01*
X58267716Y48420846D01*
X58186904Y48447783D01*
X58079154Y48555532D01*
X57998342Y48582470D01*
X57944468Y48582470D01*
X57863655Y48555532D01*
X57755905Y48447783D01*
X57728968Y48366971D01*
X57728968Y48313096D01*
X57755905Y48232284D01*
X57863655Y48124534D01*
X57944467Y48097597D01*
X57998343Y48097597D01*
X58079154Y48124534D01*
X58186904Y48232284D01*
X58213842Y48313096D01*
X58213841Y48366971D01*
X58186904Y48447783D01*
X53489848Y59299408D02*
X53947784Y58841472D01*
X54028595Y58814535D01*
X54082471Y58814535D01*
X54163283Y58841472D01*
X54271032Y58949222D01*
X54297970Y59030034D01*
X54297970Y59083909D01*
X54271032Y59164721D01*
X53813097Y59622657D01*
X54351845Y60161405D02*
X54082470Y59892030D01*
X54324907Y59595719D01*
X54324907Y59649594D01*
X54351845Y59730406D01*
X54486532Y59865093D01*
X54567343Y59892030D01*
X54621219Y59892031D01*
X54702031Y59865093D01*
X54836718Y59730406D01*
X54863655Y59649595D01*
X54863655Y59595719D01*
X54836718Y59514907D01*
X54702031Y59380220D01*
X54621219Y59353282D01*
X54567343Y59353283D01*
X54567344Y60376904D02*
X54944468Y60754027D01*
X55267716Y59945905D01*
X46489848Y59109408D02*
X46947784Y58651472D01*
X47028595Y58624535D01*
X47082471Y58624535D01*
X47163283Y58651472D01*
X47271032Y58759222D01*
X47297970Y58840034D01*
X47297970Y58893909D01*
X47271032Y58974721D01*
X46813097Y59432657D01*
X47351845Y59971405D02*
X47082470Y59702030D01*
X47324907Y59405719D01*
X47324907Y59459594D01*
X47351845Y59540406D01*
X47486532Y59675093D01*
X47567343Y59702030D01*
X47621219Y59702031D01*
X47702031Y59675093D01*
X47836718Y59540406D01*
X47863655Y59459595D01*
X47863655Y59405719D01*
X47836718Y59324907D01*
X47702031Y59190220D01*
X47621219Y59163282D01*
X47567343Y59163283D01*
X47863655Y60483215D02*
X47755905Y60375465D01*
X47728968Y60294654D01*
X47728968Y60240779D01*
X47755905Y60106092D01*
X47836718Y59971405D01*
X48052217Y59755905D01*
X48133029Y59728968D01*
X48186904Y59728968D01*
X48267716Y59755905D01*
X48375466Y59863655D01*
X48402403Y59944467D01*
X48402403Y59998343D01*
X48375466Y60079154D01*
X48240779Y60213841D01*
X48159967Y60240779D01*
X48106092Y60240778D01*
X48025280Y60213841D01*
X47917530Y60106092D01*
X47890592Y60025279D01*
X47890592Y59971405D01*
X47917530Y59890592D01*
X47989848Y48609408D02*
X48447784Y48151472D01*
X48528595Y48124535D01*
X48582471Y48124535D01*
X48663283Y48151472D01*
X48771032Y48259222D01*
X48797970Y48340034D01*
X48797970Y48393909D01*
X48771032Y48474721D01*
X48313097Y48932657D01*
X48851845Y49471405D02*
X48582470Y49202030D01*
X48824907Y48905719D01*
X48824907Y48959594D01*
X48851845Y49040406D01*
X48986532Y49175093D01*
X49067343Y49202030D01*
X49121219Y49202031D01*
X49202031Y49175093D01*
X49336718Y49040406D01*
X49363655Y48959595D01*
X49363655Y48905719D01*
X49336718Y48824907D01*
X49202031Y48690220D01*
X49121219Y48663282D01*
X49067343Y48663283D01*
X49390593Y50010153D02*
X49121219Y49740778D01*
X49363655Y49444468D01*
X49363655Y49498342D01*
X49390593Y49579154D01*
X49525280Y49713841D01*
X49606092Y49740778D01*
X49659967Y49740779D01*
X49740779Y49713841D01*
X49875466Y49579154D01*
X49902403Y49498343D01*
X49902403Y49444467D01*
X49875466Y49363655D01*
X49740779Y49228968D01*
X49659967Y49202030D01*
X49606092Y49202031D01*
X48609408Y28010152D02*
X48151472Y27552216D01*
X48124535Y27471405D01*
X48124535Y27417529D01*
X48151472Y27336717D01*
X48259222Y27228968D01*
X48340034Y27202030D01*
X48393909Y27202030D01*
X48474721Y27228968D01*
X48932657Y27686903D01*
X49471405Y27148155D02*
X49202030Y27417530D01*
X48905719Y27175093D01*
X48959594Y27175093D01*
X49040406Y27148155D01*
X49175093Y27013468D01*
X49202030Y26932657D01*
X49202031Y26878781D01*
X49175093Y26797969D01*
X49040406Y26663282D01*
X48959595Y26636345D01*
X48905719Y26636345D01*
X48824907Y26663282D01*
X48690220Y26797969D01*
X48663282Y26878781D01*
X48663283Y26932657D01*
X49659967Y26851844D02*
X49713841Y26851844D01*
X49794654Y26824906D01*
X49929341Y26690219D01*
X49956278Y26609408D01*
X49956278Y26555532D01*
X49929341Y26474720D01*
X49875466Y26420846D01*
X49767716Y26366970D01*
X49121219Y26366970D01*
X49471405Y26016784D01*
X47989848Y18109408D02*
X48447784Y17651472D01*
X48528595Y17624535D01*
X48582471Y17624535D01*
X48663283Y17651472D01*
X48771032Y17759222D01*
X48797970Y17840034D01*
X48797970Y17893909D01*
X48771032Y17974721D01*
X48313097Y18432657D01*
X48851845Y18971405D02*
X48582470Y18702030D01*
X48824907Y18405719D01*
X48824907Y18459594D01*
X48851845Y18540406D01*
X48986532Y18675093D01*
X49067343Y18702030D01*
X49121219Y18702031D01*
X49202031Y18675093D01*
X49336718Y18540406D01*
X49363655Y18459595D01*
X49363655Y18405719D01*
X49336718Y18324907D01*
X49202031Y18190220D01*
X49121219Y18163282D01*
X49067343Y18163283D01*
X49983216Y18971405D02*
X49659967Y18648156D01*
X49821591Y18809780D02*
X49255905Y19375465D01*
X49282843Y19240779D01*
X49282843Y19133029D01*
X49255905Y19052217D01*
X48609408Y13010151D02*
X48151472Y12552215D01*
X48124535Y12471404D01*
X48124535Y12417528D01*
X48151472Y12336716D01*
X48259222Y12228967D01*
X48340034Y12202029D01*
X48393909Y12202029D01*
X48474721Y12228967D01*
X48932657Y12686902D01*
X49471405Y12148154D02*
X49202030Y12417529D01*
X48905719Y12175092D01*
X48959594Y12175092D01*
X49040406Y12148154D01*
X49175093Y12013467D01*
X49202030Y11932656D01*
X49202031Y11878780D01*
X49175093Y11797968D01*
X49040406Y11663281D01*
X48959595Y11636344D01*
X48905719Y11636344D01*
X48824907Y11663281D01*
X48690220Y11797968D01*
X48663282Y11878780D01*
X48663283Y11932656D01*
X49848528Y11771031D02*
X49902403Y11717156D01*
X49929341Y11636344D01*
X49929341Y11582469D01*
X49902403Y11501656D01*
X49821591Y11366969D01*
X49686904Y11232283D01*
X49552217Y11151470D01*
X49471405Y11124534D01*
X49417530Y11124533D01*
X49336718Y11151470D01*
X49282843Y11205345D01*
X49255905Y11286157D01*
X49255905Y11340033D01*
X49282843Y11420845D01*
X49363655Y11555531D01*
X49498342Y11690218D01*
X49633029Y11771031D01*
X49713841Y11797969D01*
X49767716Y11797968D01*
X49848528Y11771031D01*
X41489848Y11609408D02*
X41947784Y11151472D01*
X42028595Y11124535D01*
X42082471Y11124535D01*
X42163283Y11151472D01*
X42271032Y11259222D01*
X42297970Y11340034D01*
X42297970Y11393909D01*
X42271032Y11474721D01*
X41813097Y11932657D01*
X42513468Y12255905D02*
X42890592Y11878781D01*
X42163283Y12336717D02*
X42432657Y11797970D01*
X42782843Y12148156D01*
X42567344Y12686904D02*
X42944468Y13064027D01*
X43267716Y12255905D01*
X42109408Y19510152D02*
X41651472Y19052216D01*
X41624535Y18971405D01*
X41624535Y18917529D01*
X41651472Y18836717D01*
X41759222Y18728968D01*
X41840034Y18702030D01*
X41893909Y18702030D01*
X41974721Y18728968D01*
X42432657Y19186903D01*
X42755905Y18486532D02*
X42378781Y18109408D01*
X42836717Y18836717D02*
X42297970Y18567343D01*
X42648156Y18217157D01*
X43483215Y18136345D02*
X43375465Y18244095D01*
X43294654Y18271032D01*
X43240779Y18271032D01*
X43106092Y18244095D01*
X42971405Y18163282D01*
X42755905Y17947783D01*
X42728968Y17866971D01*
X42728968Y17813096D01*
X42755905Y17732284D01*
X42863655Y17624534D01*
X42944467Y17597597D01*
X42998343Y17597597D01*
X43079154Y17624534D01*
X43213841Y17759221D01*
X43240779Y17840033D01*
X43240778Y17893908D01*
X43213841Y17974720D01*
X43106092Y18082470D01*
X43025279Y18109408D01*
X42971405Y18109408D01*
X42890592Y18082470D01*
X41489848Y27109409D02*
X41947784Y26651473D01*
X42028595Y26624536D01*
X42082471Y26624536D01*
X42163283Y26651473D01*
X42271032Y26759223D01*
X42297970Y26840035D01*
X42297970Y26893910D01*
X42271032Y26974722D01*
X41813097Y27432658D01*
X42513468Y27755906D02*
X42890592Y27378782D01*
X42163283Y27836718D02*
X42432657Y27297971D01*
X42782843Y27648157D01*
X42890593Y28510154D02*
X42621219Y28240779D01*
X42863655Y27944469D01*
X42863655Y27998343D01*
X42890593Y28079155D01*
X43025280Y28213842D01*
X43106092Y28240779D01*
X43159967Y28240780D01*
X43240779Y28213842D01*
X43375466Y28079155D01*
X43402403Y27998344D01*
X43402403Y27944468D01*
X43375466Y27863656D01*
X43240779Y27728969D01*
X43159967Y27702031D01*
X43106092Y27702032D01*
X42109408Y35010152D02*
X41651472Y34552216D01*
X41624535Y34471405D01*
X41624535Y34417529D01*
X41651472Y34336717D01*
X41759222Y34228968D01*
X41840034Y34202030D01*
X41893909Y34202030D01*
X41974721Y34228968D01*
X42432657Y34686903D01*
X42755905Y33986532D02*
X42378781Y33609408D01*
X42836717Y34336717D02*
X42297970Y34067343D01*
X42648156Y33717157D01*
X43294654Y33447784D02*
X42917530Y33070659D01*
X43375465Y33797969D02*
X42836718Y33528595D01*
X43186904Y33178409D01*
X42109408Y50010151D02*
X41651472Y49552215D01*
X41624535Y49471404D01*
X41624535Y49417528D01*
X41651472Y49336716D01*
X41759222Y49228967D01*
X41840034Y49202029D01*
X41893909Y49202029D01*
X41974721Y49228967D01*
X42432657Y49686902D01*
X42755905Y48986531D02*
X42378781Y48609407D01*
X42836717Y49336716D02*
X42297970Y49067342D01*
X42648156Y48717156D01*
X43159967Y48851843D02*
X43213841Y48851843D01*
X43294654Y48824905D01*
X43429341Y48690218D01*
X43456278Y48609407D01*
X43456278Y48555531D01*
X43429341Y48474719D01*
X43375466Y48420845D01*
X43267716Y48366969D01*
X42621219Y48366969D01*
X42971405Y48016783D01*
X37989848Y59299408D02*
X38447784Y58841472D01*
X38528595Y58814535D01*
X38582471Y58814535D01*
X38663283Y58841472D01*
X38771032Y58949222D01*
X38797970Y59030034D01*
X38797970Y59083909D01*
X38771032Y59164721D01*
X38313097Y59622657D01*
X39013468Y59945905D02*
X39390592Y59568781D01*
X38663283Y60026717D02*
X38932657Y59487970D01*
X39282843Y59838156D01*
X39983216Y60161405D02*
X39659967Y59838156D01*
X39821591Y59999780D02*
X39255905Y60565465D01*
X39282843Y60430779D01*
X39282843Y60323029D01*
X39255905Y60242217D01*
X30989848Y59109407D02*
X31447784Y58651471D01*
X31528595Y58624534D01*
X31582471Y58624534D01*
X31663283Y58651471D01*
X31771032Y58759221D01*
X31797970Y58840033D01*
X31797970Y58893908D01*
X31771032Y58974720D01*
X31313097Y59432656D01*
X32013468Y59755904D02*
X32390592Y59378780D01*
X31663283Y59836716D02*
X31932657Y59297969D01*
X32282843Y59648155D01*
X32228968Y60348527D02*
X32282843Y60402402D01*
X32363655Y60429340D01*
X32417530Y60429340D01*
X32498343Y60402402D01*
X32633030Y60321590D01*
X32767716Y60186903D01*
X32848529Y60052216D01*
X32875465Y59971404D01*
X32875466Y59917529D01*
X32848529Y59836717D01*
X32794654Y59782842D01*
X32713842Y59755904D01*
X32659966Y59755904D01*
X32579154Y59782842D01*
X32444468Y59863654D01*
X32309781Y59998341D01*
X32228968Y60133028D01*
X32202030Y60213840D01*
X32202031Y60267715D01*
X32228968Y60348527D01*
X32989848Y48609407D02*
X33447784Y48151471D01*
X33528595Y48124534D01*
X33582471Y48124534D01*
X33663283Y48151471D01*
X33771032Y48259221D01*
X33797970Y48340033D01*
X33797970Y48393908D01*
X33771032Y48474720D01*
X33313097Y48932656D01*
X33528596Y49148155D02*
X33878782Y49498341D01*
X33905719Y49094280D01*
X33986532Y49175092D01*
X34067343Y49202029D01*
X34121219Y49202030D01*
X34202031Y49175092D01*
X34336718Y49040405D01*
X34363655Y48959594D01*
X34363655Y48905718D01*
X34336718Y48824906D01*
X34175093Y48663281D01*
X34094281Y48636344D01*
X34040406Y48636345D01*
X34713841Y49202029D02*
X34821591Y49309779D01*
X34848529Y49390591D01*
X34848528Y49444467D01*
X34821592Y49579153D01*
X34740779Y49713840D01*
X34525280Y49929340D01*
X34444468Y49956277D01*
X34390592Y49956277D01*
X34309781Y49929340D01*
X34202031Y49821590D01*
X34175093Y49740777D01*
X34175093Y49686903D01*
X34202031Y49606091D01*
X34336718Y49471404D01*
X34417530Y49444467D01*
X34471405Y49444466D01*
X34552217Y49471404D01*
X34659967Y49579153D01*
X34686904Y49659965D01*
X34686904Y49713841D01*
X34659967Y49794653D01*
X32989848Y33109409D02*
X33447784Y32651473D01*
X33528595Y32624536D01*
X33582471Y32624536D01*
X33663283Y32651473D01*
X33771032Y32759223D01*
X33797970Y32840035D01*
X33797970Y32893910D01*
X33771032Y32974722D01*
X33313097Y33432658D01*
X33528596Y33648157D02*
X33878782Y33998343D01*
X33905719Y33594282D01*
X33986532Y33675094D01*
X34067343Y33702031D01*
X34121219Y33702032D01*
X34202031Y33675094D01*
X34336718Y33540407D01*
X34363655Y33459596D01*
X34363655Y33405720D01*
X34336718Y33324908D01*
X34175093Y33163283D01*
X34094281Y33136346D01*
X34040406Y33136347D01*
X34067344Y34186905D02*
X34444468Y34564028D01*
X34767716Y33755906D01*
X33609408Y28010152D02*
X33151472Y27552216D01*
X33124535Y27471405D01*
X33124535Y27417529D01*
X33151472Y27336717D01*
X33259222Y27228968D01*
X33340034Y27202030D01*
X33393909Y27202030D01*
X33474721Y27228968D01*
X33932657Y27686903D01*
X34148156Y27471404D02*
X34498342Y27121218D01*
X34094281Y27094281D01*
X34175093Y27013468D01*
X34202030Y26932657D01*
X34202031Y26878781D01*
X34175093Y26797969D01*
X34040406Y26663282D01*
X33959595Y26636345D01*
X33905719Y26636345D01*
X33824907Y26663282D01*
X33663282Y26824907D01*
X33636345Y26905719D01*
X33636346Y26959594D01*
X34983215Y26636345D02*
X34875465Y26744095D01*
X34794654Y26771032D01*
X34740779Y26771032D01*
X34606092Y26744095D01*
X34471405Y26663282D01*
X34255905Y26447783D01*
X34228968Y26366971D01*
X34228968Y26313096D01*
X34255905Y26232284D01*
X34363655Y26124534D01*
X34444467Y26097597D01*
X34498343Y26097597D01*
X34579154Y26124534D01*
X34713841Y26259221D01*
X34740779Y26340033D01*
X34740778Y26393908D01*
X34713841Y26474720D01*
X34606092Y26582470D01*
X34525279Y26609408D01*
X34471405Y26609408D01*
X34390592Y26582470D01*
X32989848Y18109408D02*
X33447784Y17651472D01*
X33528595Y17624535D01*
X33582471Y17624535D01*
X33663283Y17651472D01*
X33771032Y17759222D01*
X33797970Y17840034D01*
X33797970Y17893909D01*
X33771032Y17974721D01*
X33313097Y18432657D01*
X33528596Y18648156D02*
X33878782Y18998342D01*
X33905719Y18594281D01*
X33986532Y18675093D01*
X34067343Y18702030D01*
X34121219Y18702031D01*
X34202031Y18675093D01*
X34336718Y18540406D01*
X34363655Y18459595D01*
X34363655Y18405719D01*
X34336718Y18324907D01*
X34175093Y18163282D01*
X34094281Y18136345D01*
X34040406Y18136346D01*
X34390593Y19510153D02*
X34121219Y19240778D01*
X34363655Y18944468D01*
X34363655Y18998342D01*
X34390593Y19079154D01*
X34525280Y19213841D01*
X34606092Y19240778D01*
X34659967Y19240779D01*
X34740779Y19213841D01*
X34875466Y19079154D01*
X34902403Y18998343D01*
X34902403Y18944467D01*
X34875466Y18863655D01*
X34740779Y18728968D01*
X34659967Y18702030D01*
X34606092Y18702031D01*
X33609409Y12510152D02*
X33151473Y12052216D01*
X33124536Y11971405D01*
X33124536Y11917529D01*
X33151473Y11836717D01*
X33259223Y11728968D01*
X33340035Y11702030D01*
X33393910Y11702030D01*
X33474722Y11728968D01*
X33932658Y12186903D01*
X34148157Y11971404D02*
X34498343Y11621218D01*
X34094282Y11594281D01*
X34175094Y11513468D01*
X34202031Y11432657D01*
X34202032Y11378781D01*
X34175094Y11297969D01*
X34040407Y11163282D01*
X33959596Y11136345D01*
X33905720Y11136345D01*
X33824908Y11163282D01*
X33663283Y11324907D01*
X33636346Y11405719D01*
X33636347Y11459594D01*
X34794655Y10947784D02*
X34417531Y10570659D01*
X34875466Y11297969D02*
X34336719Y11028595D01*
X34686905Y10678409D01*
X26489848Y11609407D02*
X26947784Y11151471D01*
X27028595Y11124534D01*
X27082471Y11124534D01*
X27163283Y11151471D01*
X27271032Y11259221D01*
X27297970Y11340033D01*
X27297970Y11393908D01*
X27271032Y11474720D01*
X26813097Y11932656D01*
X27028596Y12148155D02*
X27378782Y12498341D01*
X27405719Y12094280D01*
X27486532Y12175092D01*
X27567343Y12202029D01*
X27621219Y12202030D01*
X27702031Y12175092D01*
X27836718Y12040405D01*
X27863655Y11959594D01*
X27863655Y11905718D01*
X27836718Y11824906D01*
X27675093Y11663281D01*
X27594281Y11636344D01*
X27540406Y11636345D01*
X28483216Y12471404D02*
X28159967Y12148155D01*
X28321591Y12309779D02*
X27755905Y12875464D01*
X27782843Y12740778D01*
X27782843Y12633028D01*
X27755905Y12552216D01*
X26609408Y19510152D02*
X26151472Y19052216D01*
X26124535Y18971405D01*
X26124535Y18917529D01*
X26151472Y18836717D01*
X26259222Y18728968D01*
X26340034Y18702030D01*
X26393909Y18702030D01*
X26474721Y18728968D01*
X26932657Y19186903D01*
X27148156Y18971404D02*
X27498342Y18621218D01*
X27094281Y18594281D01*
X27175093Y18513468D01*
X27202030Y18432657D01*
X27202031Y18378781D01*
X27175093Y18297969D01*
X27040406Y18163282D01*
X26959595Y18136345D01*
X26905719Y18136345D01*
X26824907Y18163282D01*
X26663282Y18324907D01*
X26636345Y18405719D01*
X26636346Y18459594D01*
X27848528Y18271032D02*
X27902403Y18217157D01*
X27929341Y18136345D01*
X27929341Y18082470D01*
X27902403Y18001657D01*
X27821591Y17866970D01*
X27686904Y17732284D01*
X27552217Y17651471D01*
X27471405Y17624535D01*
X27417530Y17624534D01*
X27336718Y17651471D01*
X27282843Y17705346D01*
X27255905Y17786158D01*
X27255905Y17840034D01*
X27282843Y17920846D01*
X27363655Y18055532D01*
X27498342Y18190219D01*
X27633029Y18271032D01*
X27713841Y18297970D01*
X27767716Y18297969D01*
X27848528Y18271032D01*
X25989848Y27109408D02*
X26447784Y26651472D01*
X26528595Y26624535D01*
X26582471Y26624535D01*
X26663283Y26651472D01*
X26771032Y26759222D01*
X26797970Y26840034D01*
X26797970Y26893909D01*
X26771032Y26974721D01*
X26313097Y27432657D01*
X26609408Y27621219D02*
X26609408Y27675093D01*
X26636346Y27755905D01*
X26771032Y27890592D01*
X26851844Y27917530D01*
X26905719Y27917530D01*
X26986532Y27890592D01*
X27040406Y27836718D01*
X27094281Y27728968D01*
X27094281Y27082470D01*
X27444468Y27432657D01*
X27713841Y27702030D02*
X27821591Y27809780D01*
X27848529Y27890592D01*
X27848528Y27944468D01*
X27821592Y28079154D01*
X27740779Y28213841D01*
X27525280Y28429341D01*
X27444468Y28456278D01*
X27390592Y28456278D01*
X27309781Y28429341D01*
X27202031Y28321591D01*
X27175093Y28240778D01*
X27175093Y28186904D01*
X27202031Y28106092D01*
X27336718Y27971405D01*
X27417530Y27944468D01*
X27471405Y27944467D01*
X27552217Y27971405D01*
X27659967Y28079154D01*
X27686904Y28159966D01*
X27686904Y28213842D01*
X27659967Y28294654D01*
X26609408Y35010152D02*
X26151472Y34552216D01*
X26124535Y34471405D01*
X26124535Y34417529D01*
X26151472Y34336717D01*
X26259222Y34228968D01*
X26340034Y34202030D01*
X26393909Y34202030D01*
X26474721Y34228968D01*
X26932657Y34686903D01*
X27121219Y34390592D02*
X27175093Y34390592D01*
X27255905Y34363654D01*
X27390592Y34228968D01*
X27417530Y34148156D01*
X27417530Y34094281D01*
X27390592Y34013468D01*
X27336718Y33959594D01*
X27228968Y33905719D01*
X26582470Y33905719D01*
X26932657Y33555532D01*
X27579154Y33555532D02*
X27552216Y33636345D01*
X27552217Y33690220D01*
X27579154Y33771032D01*
X27606092Y33797969D01*
X27686904Y33824907D01*
X27740778Y33824907D01*
X27821591Y33797969D01*
X27929341Y33690219D01*
X27956278Y33609408D01*
X27956278Y33555532D01*
X27929341Y33474720D01*
X27902403Y33447783D01*
X27821592Y33420846D01*
X27767716Y33420846D01*
X27686904Y33447783D01*
X27579154Y33555532D01*
X27498342Y33582470D01*
X27444468Y33582470D01*
X27363655Y33555532D01*
X27255905Y33447783D01*
X27228968Y33366971D01*
X27228968Y33313096D01*
X27255905Y33232284D01*
X27363655Y33124534D01*
X27444467Y33097597D01*
X27498343Y33097597D01*
X27579154Y33124534D01*
X27686904Y33232284D01*
X27713842Y33313096D01*
X27713841Y33366971D01*
X27686904Y33447783D01*
X26489849Y42109408D02*
X26947785Y41651472D01*
X27028596Y41624535D01*
X27082472Y41624535D01*
X27163284Y41651472D01*
X27271033Y41759222D01*
X27297971Y41840034D01*
X27297971Y41893909D01*
X27271033Y41974721D01*
X26813098Y42432657D01*
X27109409Y42621219D02*
X27109409Y42675093D01*
X27136347Y42755905D01*
X27271033Y42890592D01*
X27351845Y42917530D01*
X27405720Y42917530D01*
X27486533Y42890592D01*
X27540407Y42836718D01*
X27594282Y42728968D01*
X27594282Y42082470D01*
X27944469Y42432657D01*
X27567345Y43186904D02*
X27944469Y43564027D01*
X28267717Y42755905D01*
X26609408Y50010152D02*
X26151472Y49552216D01*
X26124535Y49471405D01*
X26124535Y49417529D01*
X26151472Y49336717D01*
X26259222Y49228968D01*
X26340034Y49202030D01*
X26393909Y49202030D01*
X26474721Y49228968D01*
X26932657Y49686903D01*
X27121219Y49390592D02*
X27175093Y49390592D01*
X27255905Y49363654D01*
X27390592Y49228968D01*
X27417530Y49148156D01*
X27417530Y49094281D01*
X27390592Y49013468D01*
X27336718Y48959594D01*
X27228968Y48905719D01*
X26582470Y48905719D01*
X26932657Y48555532D01*
X27983215Y48636345D02*
X27875465Y48744095D01*
X27794654Y48771032D01*
X27740779Y48771032D01*
X27606092Y48744095D01*
X27471405Y48663282D01*
X27255905Y48447783D01*
X27228968Y48366971D01*
X27228968Y48313096D01*
X27255905Y48232284D01*
X27363655Y48124534D01*
X27444467Y48097597D01*
X27498343Y48097597D01*
X27579154Y48124534D01*
X27713841Y48259221D01*
X27740779Y48340033D01*
X27740778Y48393908D01*
X27713841Y48474720D01*
X27606092Y48582470D01*
X27525279Y48609408D01*
X27471405Y48609408D01*
X27390592Y48582470D01*
X22989848Y59299408D02*
X23447784Y58841472D01*
X23528595Y58814535D01*
X23582471Y58814535D01*
X23663283Y58841472D01*
X23771032Y58949222D01*
X23797970Y59030034D01*
X23797970Y59083909D01*
X23771032Y59164721D01*
X23313097Y59622657D01*
X23609408Y59811219D02*
X23609408Y59865093D01*
X23636346Y59945905D01*
X23771032Y60080592D01*
X23851844Y60107530D01*
X23905719Y60107530D01*
X23986532Y60080592D01*
X24040406Y60026718D01*
X24094281Y59918968D01*
X24094281Y59272470D01*
X24444468Y59622657D01*
X24390593Y60700153D02*
X24121219Y60430778D01*
X24363655Y60134468D01*
X24363655Y60188342D01*
X24390593Y60269154D01*
X24525280Y60403841D01*
X24606092Y60430778D01*
X24659967Y60430779D01*
X24740779Y60403841D01*
X24875466Y60269154D01*
X24902403Y60188343D01*
X24902403Y60134467D01*
X24875466Y60053655D01*
X24740779Y59918968D01*
X24659967Y59892030D01*
X24606092Y59892031D01*
X15989848Y59109408D02*
X16447784Y58651472D01*
X16528595Y58624535D01*
X16582471Y58624535D01*
X16663283Y58651472D01*
X16771032Y58759222D01*
X16797970Y58840034D01*
X16797970Y58893909D01*
X16771032Y58974721D01*
X16313097Y59432657D01*
X16609408Y59621219D02*
X16609408Y59675093D01*
X16636346Y59755905D01*
X16771032Y59890592D01*
X16851844Y59917530D01*
X16905719Y59917530D01*
X16986532Y59890592D01*
X17040406Y59836718D01*
X17094281Y59728968D01*
X17094281Y59082470D01*
X17444468Y59432657D01*
X17552216Y60294654D02*
X17929341Y59917530D01*
X17202031Y60375465D02*
X17471405Y59836718D01*
X17821591Y60186904D01*
X18109408Y43510152D02*
X17651472Y43052216D01*
X17624535Y42971405D01*
X17624535Y42917529D01*
X17651472Y42836717D01*
X17759222Y42728968D01*
X17840034Y42702030D01*
X17893909Y42702030D01*
X17974721Y42728968D01*
X18432657Y43186903D01*
X18621219Y42890592D02*
X18675093Y42890592D01*
X18755905Y42863654D01*
X18890592Y42728968D01*
X18917530Y42648156D01*
X18917530Y42594281D01*
X18890592Y42513468D01*
X18836718Y42459594D01*
X18728968Y42405719D01*
X18082470Y42405719D01*
X18432657Y42055532D01*
X19159967Y42351844D02*
X19213841Y42351844D01*
X19294654Y42324906D01*
X19429341Y42190219D01*
X19456278Y42109408D01*
X19456278Y42055532D01*
X19429341Y41974720D01*
X19375466Y41920846D01*
X19267716Y41866970D01*
X18621219Y41866970D01*
X18971405Y41516784D01*
X17489848Y33609408D02*
X17947784Y33151472D01*
X18028595Y33124535D01*
X18082471Y33124535D01*
X18163283Y33151472D01*
X18271032Y33259222D01*
X18297970Y33340034D01*
X18297970Y33393909D01*
X18271032Y33474721D01*
X17813097Y33932657D01*
X18109408Y34121219D02*
X18109408Y34175093D01*
X18136346Y34255905D01*
X18271032Y34390592D01*
X18351844Y34417530D01*
X18405719Y34417530D01*
X18486532Y34390592D01*
X18540406Y34336718D01*
X18594281Y34228968D01*
X18594281Y33582470D01*
X18944468Y33932657D01*
X19483216Y34471405D02*
X19159967Y34148156D01*
X19321591Y34309780D02*
X18755905Y34875465D01*
X18782843Y34740779D01*
X18782843Y34633029D01*
X18755905Y34552217D01*
X18109408Y28510152D02*
X17651472Y28052216D01*
X17624535Y27971405D01*
X17624535Y27917529D01*
X17651472Y27836717D01*
X17759222Y27728968D01*
X17840034Y27702030D01*
X17893909Y27702030D01*
X17974721Y27728968D01*
X18432657Y28186903D01*
X18621219Y27890592D02*
X18675093Y27890592D01*
X18755905Y27863654D01*
X18890592Y27728968D01*
X18917530Y27648156D01*
X18917530Y27594281D01*
X18890592Y27513468D01*
X18836718Y27459594D01*
X18728968Y27405719D01*
X18082470Y27405719D01*
X18432657Y27055532D01*
X19348528Y27271032D02*
X19402403Y27217157D01*
X19429341Y27136345D01*
X19429341Y27082470D01*
X19402403Y27001657D01*
X19321591Y26866970D01*
X19186904Y26732284D01*
X19052217Y26651471D01*
X18971405Y26624535D01*
X18917530Y26624534D01*
X18836718Y26651471D01*
X18782843Y26705346D01*
X18755905Y26786158D01*
X18755905Y26840034D01*
X18782843Y26920846D01*
X18863655Y27055532D01*
X18998342Y27190219D01*
X19133029Y27271032D01*
X19213841Y27297970D01*
X19267716Y27297969D01*
X19348528Y27271032D01*
X18109408Y13010152D02*
X17651472Y12552216D01*
X17624535Y12471405D01*
X17624535Y12417529D01*
X17651472Y12336717D01*
X17759222Y12228968D01*
X17840034Y12202030D01*
X17893909Y12202030D01*
X17974721Y12228968D01*
X18432657Y12686903D01*
X18432657Y11555532D02*
X18109408Y11878781D01*
X18271032Y11717157D02*
X18836717Y12282843D01*
X18702031Y12255905D01*
X18594281Y12255905D01*
X18513469Y12282843D01*
X19079154Y11555532D02*
X19052216Y11636345D01*
X19052217Y11690220D01*
X19079154Y11771032D01*
X19106092Y11797969D01*
X19186904Y11824907D01*
X19240778Y11824907D01*
X19321591Y11797969D01*
X19429341Y11690219D01*
X19456278Y11609408D01*
X19456278Y11555532D01*
X19429341Y11474720D01*
X19402403Y11447783D01*
X19321592Y11420846D01*
X19267716Y11420846D01*
X19186904Y11447783D01*
X19079154Y11555532D01*
X18998342Y11582470D01*
X18944468Y11582470D01*
X18863655Y11555532D01*
X18755905Y11447783D01*
X18728968Y11366971D01*
X18728968Y11313096D01*
X18755905Y11232284D01*
X18863655Y11124534D01*
X18944467Y11097597D01*
X18998343Y11097597D01*
X19079154Y11124534D01*
X19186904Y11232284D01*
X19213842Y11313096D01*
X19213841Y11366971D01*
X19186904Y11447783D01*
X10989848Y11609408D02*
X11447784Y11151472D01*
X11528595Y11124535D01*
X11582471Y11124535D01*
X11663283Y11151472D01*
X11771032Y11259222D01*
X11797970Y11340034D01*
X11797970Y11393909D01*
X11771032Y11474721D01*
X11313097Y11932657D01*
X12444468Y11932657D02*
X12121219Y11609408D01*
X12282843Y11771032D02*
X11717157Y12336717D01*
X11744095Y12202031D01*
X11744095Y12094281D01*
X11717157Y12013469D01*
X12390593Y13010153D02*
X12121219Y12740778D01*
X12363655Y12444468D01*
X12363655Y12498342D01*
X12390593Y12579154D01*
X12525280Y12713841D01*
X12606092Y12740778D01*
X12659967Y12740779D01*
X12740779Y12713841D01*
X12875466Y12579154D01*
X12902403Y12498343D01*
X12902403Y12444467D01*
X12875466Y12363655D01*
X12740779Y12228968D01*
X12659967Y12202030D01*
X12606092Y12202031D01*
X11609408Y19510152D02*
X11151472Y19052216D01*
X11124535Y18971405D01*
X11124535Y18917529D01*
X11151472Y18836717D01*
X11259222Y18728968D01*
X11340034Y18702030D01*
X11393909Y18702030D01*
X11474721Y18728968D01*
X11932657Y19186903D01*
X11932657Y18055532D02*
X11609408Y18378781D01*
X11771032Y18217157D02*
X12336717Y18782843D01*
X12202031Y18755905D01*
X12094281Y18755905D01*
X12013469Y18782843D01*
X12794654Y17947784D02*
X12417530Y17570659D01*
X12875465Y18297969D02*
X12336718Y18028595D01*
X12686904Y17678409D01*
X10989848Y26609408D02*
X11447784Y26151472D01*
X11528595Y26124535D01*
X11582471Y26124535D01*
X11663283Y26151472D01*
X11771032Y26259222D01*
X11797970Y26340034D01*
X11797970Y26393909D01*
X11771032Y26474721D01*
X11313097Y26932657D01*
X12444468Y26932657D02*
X12121219Y26609408D01*
X12282843Y26771032D02*
X11717157Y27336717D01*
X11744095Y27202031D01*
X11744095Y27094281D01*
X11717157Y27013469D01*
X12067344Y27686904D02*
X12417530Y28037090D01*
X12444468Y27633029D01*
X12525280Y27713841D01*
X12606092Y27740778D01*
X12659967Y27740779D01*
X12740779Y27713841D01*
X12875466Y27579154D01*
X12902403Y27498343D01*
X12902403Y27444467D01*
X12875466Y27363655D01*
X12713841Y27202030D01*
X12633030Y27175093D01*
X12579154Y27175094D01*
X11609407Y50010152D02*
X11151471Y49552216D01*
X11124534Y49471405D01*
X11124534Y49417529D01*
X11151471Y49336717D01*
X11259221Y49228968D01*
X11340033Y49202030D01*
X11393908Y49202030D01*
X11474720Y49228968D01*
X11932656Y49686903D01*
X11932656Y48555532D02*
X11609407Y48878781D01*
X11771031Y48717157D02*
X12336716Y49282843D01*
X12202030Y49255905D01*
X12094280Y49255905D01*
X12013468Y49282843D01*
X12848527Y48771032D02*
X12902402Y48717157D01*
X12929340Y48636345D01*
X12929340Y48582470D01*
X12902402Y48501657D01*
X12821590Y48366970D01*
X12686903Y48232284D01*
X12552216Y48151471D01*
X12471404Y48124535D01*
X12417529Y48124534D01*
X12336717Y48151471D01*
X12282842Y48205346D01*
X12255904Y48286158D01*
X12255904Y48340034D01*
X12282842Y48420846D01*
X12363654Y48555532D01*
X12498341Y48690219D01*
X12633028Y48771032D01*
X12713840Y48797970D01*
X12767715Y48797969D01*
X12848527Y48771032D01*
X7489848Y59299408D02*
X7947784Y58841472D01*
X8028595Y58814535D01*
X8082471Y58814535D01*
X8163283Y58841472D01*
X8271032Y58949222D01*
X8297970Y59030034D01*
X8297970Y59083909D01*
X8271032Y59164721D01*
X7813097Y59622657D01*
X8190220Y59999780D02*
X8244095Y60053655D01*
X8324907Y60080592D01*
X8378781Y60080592D01*
X8459595Y60053655D01*
X8594281Y59972843D01*
X8728968Y59838156D01*
X8809781Y59703469D01*
X8836717Y59622657D01*
X8836718Y59568781D01*
X8809781Y59487970D01*
X8755905Y59434095D01*
X8675094Y59407157D01*
X8621218Y59407157D01*
X8540406Y59434095D01*
X8405719Y59514907D01*
X8271032Y59649594D01*
X8190220Y59784281D01*
X8163282Y59865093D01*
X8163283Y59918968D01*
X8190220Y59999780D01*
X9213841Y59892030D02*
X9321591Y59999780D01*
X9348529Y60080592D01*
X9348528Y60134468D01*
X9321592Y60269154D01*
X9240779Y60403841D01*
X9025280Y60619341D01*
X8944468Y60646278D01*
X8890592Y60646278D01*
X8809781Y60619341D01*
X8702031Y60511591D01*
X8675093Y60430778D01*
X8675093Y60376904D01*
X8702031Y60296092D01*
X8836718Y60161405D01*
X8917530Y60134468D01*
X8971405Y60134467D01*
X9052217Y60161405D01*
X9159967Y60269154D01*
X9186904Y60349966D01*
X9186904Y60403842D01*
X9159967Y60484654D01*
X489848Y59109408D02*
X947784Y58651472D01*
X1028595Y58624535D01*
X1082471Y58624535D01*
X1163283Y58651472D01*
X1271032Y58759222D01*
X1297970Y58840034D01*
X1297970Y58893909D01*
X1271032Y58974721D01*
X813097Y59432657D01*
X1190220Y59809780D02*
X1244095Y59863655D01*
X1324907Y59890592D01*
X1378781Y59890592D01*
X1459595Y59863655D01*
X1594281Y59782843D01*
X1728968Y59648156D01*
X1809781Y59513469D01*
X1836717Y59432657D01*
X1836718Y59378781D01*
X1809781Y59297970D01*
X1755905Y59244095D01*
X1675094Y59217157D01*
X1621218Y59217157D01*
X1540406Y59244095D01*
X1405719Y59324907D01*
X1271032Y59459594D01*
X1190220Y59594281D01*
X1163282Y59675093D01*
X1163283Y59728968D01*
X1190220Y59809780D01*
X1944468Y60079154D02*
X1863655Y60052216D01*
X1809780Y60052217D01*
X1728968Y60079154D01*
X1702031Y60106092D01*
X1675093Y60186904D01*
X1675093Y60240778D01*
X1702031Y60321591D01*
X1809781Y60429341D01*
X1890592Y60456278D01*
X1944468Y60456278D01*
X2025280Y60429341D01*
X2052217Y60402403D01*
X2079154Y60321592D01*
X2079154Y60267716D01*
X2052217Y60186904D01*
X1944468Y60079154D01*
X1917530Y59998342D01*
X1917530Y59944468D01*
X1944468Y59863655D01*
X2052217Y59755905D01*
X2133029Y59728968D01*
X2186904Y59728968D01*
X2267716Y59755905D01*
X2375466Y59863655D01*
X2402403Y59944467D01*
X2402403Y59998343D01*
X2375466Y60079154D01*
X2267716Y60186904D01*
X2186904Y60213842D01*
X2133029Y60213841D01*
X2052217Y60186904D01*
X2489847Y48609408D02*
X2947783Y48151472D01*
X3028594Y48124535D01*
X3082470Y48124535D01*
X3163282Y48151472D01*
X3271031Y48259222D01*
X3297969Y48340034D01*
X3297969Y48393909D01*
X3271031Y48474721D01*
X2813096Y48932657D01*
X3190219Y49309780D02*
X3244094Y49363655D01*
X3324906Y49390592D01*
X3378780Y49390592D01*
X3459594Y49363655D01*
X3594280Y49282843D01*
X3728967Y49148156D01*
X3809780Y49013469D01*
X3836716Y48932657D01*
X3836717Y48878781D01*
X3809780Y48797970D01*
X3755904Y48744095D01*
X3675093Y48717157D01*
X3621217Y48717157D01*
X3540405Y48744095D01*
X3405718Y48824907D01*
X3271031Y48959594D01*
X3190219Y49094281D01*
X3163281Y49175093D01*
X3163282Y49228968D01*
X3190219Y49309780D01*
X3567343Y49686904D02*
X3944467Y50064027D01*
X4267715Y49255905D01*
X2489848Y18109408D02*
X2947784Y17651472D01*
X3028595Y17624535D01*
X3082471Y17624535D01*
X3163283Y17651472D01*
X3271032Y17759222D01*
X3297970Y17840034D01*
X3297970Y17893909D01*
X3271032Y17974721D01*
X2813097Y18432657D01*
X3190220Y18809780D02*
X3244095Y18863655D01*
X3324907Y18890592D01*
X3378781Y18890592D01*
X3459595Y18863655D01*
X3594281Y18782843D01*
X3728968Y18648156D01*
X3809781Y18513469D01*
X3836717Y18432657D01*
X3836718Y18378781D01*
X3809781Y18297970D01*
X3755905Y18244095D01*
X3675094Y18217157D01*
X3621218Y18217157D01*
X3540406Y18244095D01*
X3405719Y18324907D01*
X3271032Y18459594D01*
X3190220Y18594281D01*
X3163282Y18675093D01*
X3163283Y18728968D01*
X3190220Y18809780D01*
X3567344Y19186904D02*
X3917530Y19537090D01*
X3944468Y19133029D01*
X4025280Y19213841D01*
X4106092Y19240778D01*
X4159967Y19240779D01*
X4240779Y19213841D01*
X4375466Y19079154D01*
X4402403Y18998343D01*
X4402403Y18944467D01*
X4375466Y18863655D01*
X4213841Y18702030D01*
X4133030Y18675093D01*
X4079154Y18675094D01*
X3109408Y13010152D02*
X2651472Y12552216D01*
X2624535Y12471405D01*
X2624535Y12417529D01*
X2651472Y12336717D01*
X2759222Y12228968D01*
X2840034Y12202030D01*
X2893909Y12202030D01*
X2974721Y12228968D01*
X3432657Y12686903D01*
X3809780Y12309780D02*
X3863655Y12255905D01*
X3890592Y12175093D01*
X3890592Y12121219D01*
X3863655Y12040405D01*
X3782843Y11905719D01*
X3648156Y11771032D01*
X3513469Y11690219D01*
X3432657Y11663283D01*
X3378781Y11663282D01*
X3297970Y11690219D01*
X3244095Y11744095D01*
X3217157Y11824906D01*
X3217157Y11878782D01*
X3244095Y11959594D01*
X3324907Y12094281D01*
X3459594Y12228968D01*
X3594281Y12309780D01*
X3675093Y12336718D01*
X3728968Y12336717D01*
X3809780Y12309780D01*
X4159967Y11851844D02*
X4213841Y11851844D01*
X4294654Y11824906D01*
X4429341Y11690219D01*
X4456278Y11609408D01*
X4456278Y11555532D01*
X4429341Y11474720D01*
X4375466Y11420846D01*
X4267716Y11366970D01*
X3621219Y11366970D01*
X3971405Y11016784D01*
X2609408Y28010152D02*
X2151472Y27552216D01*
X2124535Y27471405D01*
X2124535Y27417529D01*
X2151472Y27336717D01*
X2259222Y27228968D01*
X2340034Y27202030D01*
X2393909Y27202030D01*
X2474721Y27228968D01*
X2932657Y27686903D01*
X3309780Y27309780D02*
X3363655Y27255905D01*
X3390592Y27175093D01*
X3390592Y27121219D01*
X3363655Y27040405D01*
X3282843Y26905719D01*
X3148156Y26771032D01*
X3013469Y26690219D01*
X2932657Y26663283D01*
X2878781Y26663282D01*
X2797970Y26690219D01*
X2744095Y26744095D01*
X2717157Y26824906D01*
X2717157Y26878782D01*
X2744095Y26959594D01*
X2824907Y27094281D01*
X2959594Y27228968D01*
X3094281Y27309780D01*
X3175093Y27336718D01*
X3228968Y27336717D01*
X3309780Y27309780D01*
X3794654Y26447784D02*
X3417530Y26070659D01*
X3875465Y26797969D02*
X3336718Y26528595D01*
X3686904Y26178409D01*
X5489848Y879408D02*
X5947784Y421472D01*
X6028595Y394535D01*
X6082471Y394535D01*
X6163283Y421472D01*
X6271032Y529222D01*
X6297970Y610034D01*
X6297970Y663909D01*
X6271032Y744721D01*
X5813097Y1202657D01*
X6190220Y1579780D02*
X6244095Y1633655D01*
X6324907Y1660592D01*
X6378781Y1660592D01*
X6459595Y1633655D01*
X6594281Y1552843D01*
X6728968Y1418156D01*
X6809781Y1283469D01*
X6836717Y1202657D01*
X6836718Y1148781D01*
X6809781Y1067970D01*
X6755905Y1014095D01*
X6675094Y987157D01*
X6621218Y987157D01*
X6540406Y1014095D01*
X6405719Y1094907D01*
X6271032Y1229594D01*
X6190220Y1364281D01*
X6163282Y1445093D01*
X6163283Y1498968D01*
X6190220Y1579780D01*
X7483216Y1741405D02*
X7159967Y1418156D01*
X7321591Y1579780D02*
X6755905Y2145465D01*
X6782843Y2010779D01*
X6782843Y1903029D01*
X6755905Y1822217D01*
X12489848Y1109408D02*
X12947784Y651472D01*
X13028595Y624535D01*
X13082471Y624535D01*
X13163283Y651472D01*
X13271032Y759222D01*
X13297970Y840034D01*
X13297970Y893909D01*
X13271032Y974721D01*
X12813097Y1432657D01*
X13944468Y1432657D02*
X13621219Y1109408D01*
X13782843Y1271032D02*
X13217157Y1836717D01*
X13244095Y1702031D01*
X13244095Y1594281D01*
X13217157Y1513469D01*
X13863655Y2483215D02*
X13755905Y2375465D01*
X13728968Y2294654D01*
X13728968Y2240779D01*
X13755905Y2106092D01*
X13836718Y1971405D01*
X14052217Y1755905D01*
X14133029Y1728968D01*
X14186904Y1728968D01*
X14267716Y1755905D01*
X14375466Y1863655D01*
X14402403Y1944467D01*
X14402403Y1998343D01*
X14375466Y2079154D01*
X14240779Y2213841D01*
X14159967Y2240779D01*
X14106092Y2240778D01*
X14025280Y2213841D01*
X13917530Y2106092D01*
X13890592Y2025279D01*
X13890592Y1971405D01*
X13917530Y1890592D01*
X20989848Y1109408D02*
X21447784Y651472D01*
X21528595Y624535D01*
X21582471Y624535D01*
X21663283Y651472D01*
X21771032Y759222D01*
X21797970Y840034D01*
X21797970Y893909D01*
X21771032Y974721D01*
X21313097Y1432657D01*
X22444468Y1432657D02*
X22121219Y1109408D01*
X22282843Y1271032D02*
X21717157Y1836717D01*
X21744095Y1702031D01*
X21744095Y1594281D01*
X21717157Y1513469D01*
X22067344Y2186904D02*
X22444468Y2564027D01*
X22767716Y1755905D01*
X27989848Y1109408D02*
X28447784Y651472D01*
X28528595Y624535D01*
X28582471Y624535D01*
X28663283Y651472D01*
X28771032Y759222D01*
X28797970Y840034D01*
X28797970Y893909D01*
X28771032Y974721D01*
X28313097Y1432657D01*
X28528596Y1648156D02*
X28878782Y1998342D01*
X28905719Y1594281D01*
X28986532Y1675093D01*
X29067343Y1702030D01*
X29121219Y1702031D01*
X29202031Y1675093D01*
X29336718Y1540406D01*
X29363655Y1459595D01*
X29363655Y1405719D01*
X29336718Y1324907D01*
X29175093Y1163282D01*
X29094281Y1136345D01*
X29040406Y1136346D01*
X29148156Y2159967D02*
X29148156Y2213841D01*
X29175094Y2294654D01*
X29309781Y2429341D01*
X29390592Y2456278D01*
X29444468Y2456278D01*
X29525280Y2429341D01*
X29579154Y2375466D01*
X29633030Y2267716D01*
X29633030Y1621219D01*
X29983216Y1971405D01*
X36489848Y879408D02*
X36947784Y421472D01*
X37028595Y394535D01*
X37082471Y394535D01*
X37163283Y421472D01*
X37271032Y529222D01*
X37297970Y610034D01*
X37297970Y663909D01*
X37271032Y744721D01*
X36813097Y1202657D01*
X37028596Y1418156D02*
X37378782Y1768342D01*
X37405719Y1364281D01*
X37486532Y1445093D01*
X37567343Y1472030D01*
X37621219Y1472031D01*
X37702031Y1445093D01*
X37836718Y1310406D01*
X37863655Y1229595D01*
X37863655Y1175719D01*
X37836718Y1094907D01*
X37675093Y933282D01*
X37594281Y906345D01*
X37540406Y906346D01*
X37567344Y1956904D02*
X37917530Y2307090D01*
X37944468Y1903029D01*
X38025280Y1983841D01*
X38106092Y2010778D01*
X38159967Y2010779D01*
X38240779Y1983841D01*
X38375466Y1849154D01*
X38402403Y1768343D01*
X38402403Y1714467D01*
X38375466Y1633655D01*
X38213841Y1472030D01*
X38133030Y1445093D01*
X38079154Y1445094D01*
X42989848Y1109408D02*
X43447784Y651472D01*
X43528595Y624535D01*
X43582471Y624535D01*
X43663283Y651472D01*
X43771032Y759222D01*
X43797970Y840034D01*
X43797970Y893909D01*
X43771032Y974721D01*
X43313097Y1432657D01*
X44013468Y1755905D02*
X44390592Y1378781D01*
X43663283Y1836717D02*
X43932657Y1297970D01*
X44282843Y1648156D01*
X44444468Y2079154D02*
X44363655Y2052216D01*
X44309780Y2052217D01*
X44228968Y2079154D01*
X44202031Y2106092D01*
X44175093Y2186904D01*
X44175093Y2240778D01*
X44202031Y2321591D01*
X44309781Y2429341D01*
X44390592Y2456278D01*
X44444468Y2456278D01*
X44525280Y2429341D01*
X44552217Y2402403D01*
X44579154Y2321592D01*
X44579154Y2267716D01*
X44552217Y2186904D01*
X44444468Y2079154D01*
X44417530Y1998342D01*
X44417530Y1944468D01*
X44444468Y1863655D01*
X44552217Y1755905D01*
X44633029Y1728968D01*
X44686904Y1728968D01*
X44767716Y1755905D01*
X44875466Y1863655D01*
X44902403Y1944467D01*
X44902403Y1998343D01*
X44875466Y2079154D01*
X44767716Y2186904D01*
X44686904Y2213842D01*
X44633029Y2213841D01*
X44552217Y2186904D01*
X51489848Y879408D02*
X51947784Y421472D01*
X52028595Y394535D01*
X52082471Y394535D01*
X52163283Y421472D01*
X52271032Y529222D01*
X52297970Y610034D01*
X52297970Y663909D01*
X52271032Y744721D01*
X51813097Y1202657D01*
X52513468Y1525905D02*
X52890592Y1148781D01*
X52163283Y1606717D02*
X52432657Y1067970D01*
X52782843Y1418156D01*
X53213841Y1472030D02*
X53321591Y1579780D01*
X53348529Y1660592D01*
X53348528Y1714468D01*
X53321592Y1849154D01*
X53240779Y1983841D01*
X53025280Y2199341D01*
X52944468Y2226278D01*
X52890592Y2226278D01*
X52809781Y2199341D01*
X52702031Y2091591D01*
X52675093Y2010778D01*
X52675093Y1956904D01*
X52702031Y1876092D01*
X52836718Y1741405D01*
X52917530Y1714468D01*
X52971405Y1714467D01*
X53052217Y1741405D01*
X53159967Y1849154D01*
X53186904Y1929966D01*
X53186904Y1983842D01*
X53159967Y2064654D01*
X59299408Y7510152D02*
X58841472Y7052216D01*
X58814535Y6971405D01*
X58814535Y6917529D01*
X58841472Y6836717D01*
X58949222Y6728968D01*
X59030034Y6702030D01*
X59083909Y6702030D01*
X59164721Y6728968D01*
X59622657Y7186903D01*
X60134467Y6675093D02*
X60026717Y6782843D01*
X59945905Y6809780D01*
X59892031Y6809780D01*
X59757343Y6782843D01*
X59622657Y6702030D01*
X59407157Y6486531D01*
X59380220Y6405719D01*
X59380219Y6351844D01*
X59407157Y6271032D01*
X59514907Y6163282D01*
X59595719Y6136345D01*
X59649595Y6136345D01*
X59730406Y6163282D01*
X59865093Y6297969D01*
X59892031Y6378781D01*
X59892030Y6432657D01*
X59865093Y6513468D01*
X59757343Y6621218D01*
X59676531Y6648156D01*
X59622657Y6648156D01*
X59541844Y6621218D01*
X60484654Y5947784D02*
X60107530Y5570659D01*
X60565465Y6297969D02*
X60026718Y6028595D01*
X60376904Y5678409D01*
X41489848Y42109408D02*
X41947784Y41651472D01*
X42028595Y41624535D01*
X42082471Y41624535D01*
X42163283Y41651472D01*
X42271032Y41759222D01*
X42297970Y41840034D01*
X42297970Y41893909D01*
X42271032Y41974721D01*
X41813097Y42432657D01*
X42513468Y42755905D02*
X42890592Y42378781D01*
X42163283Y42836717D02*
X42432657Y42297970D01*
X42782843Y42648156D01*
X42567344Y43186904D02*
X42917530Y43537090D01*
X42944468Y43133029D01*
X43025280Y43213841D01*
X43106092Y43240778D01*
X43159967Y43240779D01*
X43240779Y43213841D01*
X43375466Y43079154D01*
X43402403Y42998343D01*
X43402403Y42944467D01*
X43375466Y42863655D01*
X43213841Y42702030D01*
X43133030Y42675093D01*
X43079154Y42675094D01*
X56489848Y11609407D02*
X56947784Y11151471D01*
X57028595Y11124534D01*
X57082471Y11124534D01*
X57163283Y11151471D01*
X57271032Y11259221D01*
X57297970Y11340033D01*
X57297970Y11393908D01*
X57271032Y11474720D01*
X56813097Y11932656D01*
X57324907Y12444466D02*
X57217157Y12336716D01*
X57190220Y12255904D01*
X57190220Y12202030D01*
X57217157Y12067342D01*
X57297970Y11932656D01*
X57513469Y11717156D01*
X57594281Y11690219D01*
X57648156Y11690218D01*
X57728968Y11717156D01*
X57836718Y11824906D01*
X57863655Y11905718D01*
X57863655Y11959594D01*
X57836718Y12040405D01*
X57702031Y12175092D01*
X57621219Y12202030D01*
X57567343Y12202029D01*
X57486532Y12175092D01*
X57378782Y12067342D01*
X57351844Y11986530D01*
X57351844Y11932656D01*
X57378782Y11851843D01*
X57567344Y12686903D02*
X57917530Y13037089D01*
X57944468Y12633028D01*
X58025280Y12713840D01*
X58106092Y12740777D01*
X58159967Y12740778D01*
X58240779Y12713840D01*
X58375466Y12579153D01*
X58402403Y12498342D01*
X58402403Y12444466D01*
X58375466Y12363654D01*
X58213841Y12202029D01*
X58133030Y12175092D01*
X58079154Y12175093D01*
M02*
