G04 #@! TF.FileFunction,Legend,Top*
%FSLAX46Y46*%
G04 Gerber Fmt 4.6, Leading zero omitted, Abs format (unit mm)*
G04 Created by KiCad (PCBNEW 4.1.0-alpha+201609021633+7109~49~ubuntu16.04.1-product) date Sat Dec 31 16:59:14 2016*
%MOMM*%
%LPD*%
G01*
G04 APERTURE LIST*
%ADD10C,0.254000*%
%ADD11C,0.152400*%
%ADD12C,0.150000*%
%ADD13C,6.108000*%
%ADD14C,1.708000*%
%ADD15C,1.905000*%
G04 APERTURE END LIST*
D10*
X59804784Y1113505D02*
X58026783Y1113507D01*
X59804784Y1113505D02*
X59804784Y2891506D01*
X59804784Y2891506D02*
X58026783Y1113507D01*
X59804784Y1367507D02*
X58280784Y1367507D01*
X59804784Y1621506D02*
X58534784Y1621506D01*
X59804784Y1875506D02*
X58788784Y1875506D01*
X59804784Y2129506D02*
X59042783Y2129507D01*
X59804784Y2383507D02*
X59296783Y2383507D01*
X59804784Y2637506D02*
X59550784Y2637506D01*
X635000Y2159000D02*
X635000Y1905000D01*
X889000Y2159000D02*
X889000Y1651000D01*
X1143000Y2159000D02*
X1143000Y1397000D01*
X1397000Y2159000D02*
X1397000Y1143000D01*
X1651000Y2159000D02*
X1651000Y889000D01*
X1905000Y2159000D02*
X1905000Y635000D01*
X381000Y2159000D02*
X2159000Y381000D01*
X2159000Y2159000D02*
X381000Y2159000D01*
X2159000Y2159000D02*
X2159000Y381000D01*
X45974000Y40386000D02*
X45466000Y40386000D01*
X45212000Y40132000D02*
X46228000Y40132000D01*
X46482000Y39878000D02*
X44958000Y39878000D01*
X44704000Y39624000D02*
X46736000Y39624000D01*
X46990000Y39370000D02*
X44450000Y39370000D01*
X45720000Y40640000D02*
X46990000Y39370000D01*
X44450000Y39370000D02*
X45720000Y40640000D01*
X45466000Y35814000D02*
X45974000Y35814000D01*
X46228000Y36068000D02*
X45212000Y36068000D01*
X44958000Y36322000D02*
X46482000Y36322000D01*
X46736000Y36576000D02*
X44704000Y36576000D01*
X44450000Y36830000D02*
X46990000Y36830000D01*
X45720000Y35560000D02*
X44450000Y36830000D01*
X46990000Y36830000D02*
X45720000Y35560000D01*
X16510000Y36830000D02*
X15240000Y35560000D01*
X15240000Y35560000D02*
X13970000Y36830000D01*
X13970000Y36830000D02*
X16510000Y36830000D01*
X16256000Y36576000D02*
X14224000Y36576000D01*
X14478000Y36322000D02*
X16002000Y36322000D01*
X15748000Y36068000D02*
X14732000Y36068000D01*
X14986000Y35814000D02*
X15494000Y35814000D01*
X13970000Y39370000D02*
X15240000Y40640000D01*
X15240000Y40640000D02*
X16510000Y39370000D01*
X16510000Y39370000D02*
X13970000Y39370000D01*
X14224000Y39624000D02*
X16256000Y39624000D01*
X16002000Y39878000D02*
X14478000Y39878000D01*
X14732000Y40132000D02*
X15748000Y40132000D01*
X15494000Y40386000D02*
X14986000Y40386000D01*
X15494000Y25146000D02*
X14986000Y25146000D01*
X14732000Y24892000D02*
X15748000Y24892000D01*
X16002000Y24638000D02*
X14478000Y24638000D01*
X14224000Y24384000D02*
X16256000Y24384000D01*
X16510000Y24130000D02*
X13970000Y24130000D01*
X15240000Y25400000D02*
X16510000Y24130000D01*
X13970000Y24130000D02*
X15240000Y25400000D01*
X14986000Y20574000D02*
X15494000Y20574000D01*
X15748000Y20828000D02*
X14732000Y20828000D01*
X14478000Y21082000D02*
X16002000Y21082000D01*
X16256000Y21336000D02*
X14224000Y21336000D01*
X13970000Y21590000D02*
X16510000Y21590000D01*
X15240000Y20320000D02*
X13970000Y21590000D01*
X16510000Y21590000D02*
X15240000Y20320000D01*
X46990000Y21590000D02*
X45720000Y20320000D01*
X45720000Y20320000D02*
X44450000Y21590000D01*
X44450000Y21590000D02*
X46990000Y21590000D01*
X46736000Y21336000D02*
X44704000Y21336000D01*
X44958000Y21082000D02*
X46482000Y21082000D01*
X46228000Y20828000D02*
X45212000Y20828000D01*
X45466000Y20574000D02*
X45974000Y20574000D01*
X44450000Y24130000D02*
X45720000Y25400000D01*
X45720000Y25400000D02*
X46990000Y24130000D01*
X46990000Y24130000D02*
X44450000Y24130000D01*
X44704000Y24384000D02*
X46736000Y24384000D01*
X46482000Y24638000D02*
X44958000Y24638000D01*
X45212000Y24892000D02*
X46228000Y24892000D01*
X45974000Y25146000D02*
X45466000Y25146000D01*
X45466000Y5334000D02*
X45974000Y5334000D01*
X46228000Y5588000D02*
X45212000Y5588000D01*
X44958000Y5842000D02*
X46482000Y5842000D01*
X46736000Y6096000D02*
X44704000Y6096000D01*
X44450000Y6350000D02*
X46990000Y6350000D01*
X45720000Y5080000D02*
X44450000Y6350000D01*
X46990000Y6350000D02*
X45720000Y5080000D01*
X45466000Y9906000D02*
X45974000Y9906000D01*
X46228000Y9652000D02*
X45212000Y9652000D01*
X44958000Y9398000D02*
X46482000Y9398000D01*
X46736000Y9144000D02*
X44704000Y9144000D01*
X44450000Y8890000D02*
X46990000Y8890000D01*
X45720000Y10160000D02*
X44450000Y8890000D01*
X46990000Y8890000D02*
X45720000Y10160000D01*
X15494000Y5334000D02*
X14986000Y5334000D01*
X14732000Y5588000D02*
X15748000Y5588000D01*
X16002000Y5842000D02*
X14478000Y5842000D01*
X14224000Y6096000D02*
X16256000Y6096000D01*
X16510000Y6350000D02*
X13970000Y6350000D01*
X15240000Y5080000D02*
X16510000Y6350000D01*
X13970000Y6350000D02*
X15240000Y5080000D01*
X15494000Y9906000D02*
X14986000Y9906000D01*
X14732000Y9652000D02*
X15748000Y9652000D01*
X16002000Y9398000D02*
X14478000Y9398000D01*
X14224000Y9144000D02*
X16256000Y9144000D01*
X16510000Y8890000D02*
X13970000Y8890000D01*
X15240000Y10160000D02*
X16510000Y8890000D01*
X13970000Y8890000D02*
X15240000Y10160000D01*
X45466000Y51054000D02*
X45974000Y51054000D01*
X46228000Y51308000D02*
X45212000Y51308000D01*
X44958000Y51562000D02*
X46482000Y51562000D01*
X46736000Y51816000D02*
X44704000Y51816000D01*
X44450000Y52070000D02*
X46990000Y52070000D01*
X45720000Y50800000D02*
X44450000Y52070000D01*
X46990000Y52070000D02*
X45720000Y50800000D01*
X45466000Y55626000D02*
X45974000Y55626000D01*
X46228000Y55372000D02*
X45212000Y55372000D01*
X44958000Y55118000D02*
X46482000Y55118000D01*
X46736000Y54864000D02*
X44704000Y54864000D01*
X44450000Y54610000D02*
X46990000Y54610000D01*
X45720000Y55880000D02*
X44450000Y54610000D01*
X46990000Y54610000D02*
X45720000Y55880000D01*
X14224000Y54864000D02*
X16256000Y54864000D01*
X14478000Y55118000D02*
X16002000Y55118000D01*
X14732000Y55372000D02*
X15748000Y55372000D01*
X14986000Y55626000D02*
X15494000Y55626000D01*
X14986000Y51054000D02*
X15494000Y51054000D01*
X14732000Y51308000D02*
X15748000Y51308000D01*
X14478000Y51562000D02*
X16002000Y51562000D01*
X14224000Y51816000D02*
X16256000Y51816000D01*
X15240000Y50800000D02*
X13970000Y52070000D01*
X16510000Y52070000D02*
X15240000Y50800000D01*
X13970000Y52070000D02*
X16510000Y52070000D01*
X16510000Y54610000D02*
X13970000Y54610000D01*
X15240000Y55880000D02*
X16510000Y54610000D01*
X13970000Y54610000D02*
X15240000Y55880000D01*
X48260000Y53340000D02*
X46990000Y52070000D01*
X46990000Y54610000D02*
X48260000Y53340000D01*
X12700000Y53340000D02*
X13970000Y52070000D01*
X13970000Y54610000D02*
X12700000Y53340000D01*
X48260000Y7620000D02*
X46990000Y6350000D01*
X46990000Y8890000D02*
X48260000Y7620000D01*
X12700000Y7620000D02*
X13970000Y6350000D01*
X13970000Y8890000D02*
X12700000Y7620000D01*
X43180000Y22860000D02*
X44450000Y21590000D01*
X44450000Y24130000D02*
X43180000Y22860000D01*
X17780000Y22860000D02*
X16510000Y21590000D01*
X16510000Y24130000D02*
X17780000Y22860000D01*
X43180000Y38100000D02*
X44450000Y36830000D01*
X43180000Y38100000D02*
X44450000Y39370000D01*
X17780000Y38100000D02*
X16510000Y36830000D01*
X17780000Y38100000D02*
X16510000Y39370000D01*
D11*
X43905714Y22515286D02*
X43905714Y23277286D01*
X44087142Y23277286D01*
X44196000Y23241000D01*
X44268571Y23168429D01*
X44304857Y23095858D01*
X44341142Y22950715D01*
X44341142Y22841858D01*
X44304857Y22696715D01*
X44268571Y22624143D01*
X44196000Y22551572D01*
X44087142Y22515286D01*
X43905714Y22515286D01*
X44631428Y22733000D02*
X44994285Y22733000D01*
X44558857Y22515286D02*
X44812857Y23277286D01*
X45066857Y22515286D01*
X45212000Y23277286D02*
X45647428Y23277286D01*
X45429714Y22515286D02*
X45429714Y23277286D01*
X45720000Y22442715D02*
X46300571Y22442715D01*
X46627142Y23277286D02*
X46772285Y23277286D01*
X46844857Y23241000D01*
X46917428Y23168429D01*
X46953714Y23023286D01*
X46953714Y22769286D01*
X46917428Y22624143D01*
X46844857Y22551572D01*
X46772285Y22515286D01*
X46627142Y22515286D01*
X46554571Y22551572D01*
X46482000Y22624143D01*
X46445714Y22769286D01*
X46445714Y23023286D01*
X46482000Y23168429D01*
X46554571Y23241000D01*
X46627142Y23277286D01*
X47280285Y23277286D02*
X47280285Y22660429D01*
X47316571Y22587858D01*
X47352857Y22551572D01*
X47425428Y22515286D01*
X47570571Y22515286D01*
X47643142Y22551572D01*
X47679428Y22587858D01*
X47715714Y22660429D01*
X47715714Y23277286D01*
X47969714Y23277286D02*
X48405142Y23277286D01*
X48187428Y22515286D02*
X48187428Y23277286D01*
X13552714Y22515286D02*
X13552714Y23277286D01*
X13734142Y23277286D01*
X13843000Y23241000D01*
X13915571Y23168429D01*
X13951857Y23095858D01*
X13988142Y22950715D01*
X13988142Y22841858D01*
X13951857Y22696715D01*
X13915571Y22624143D01*
X13843000Y22551572D01*
X13734142Y22515286D01*
X13552714Y22515286D01*
X14278428Y22733000D02*
X14641285Y22733000D01*
X14205857Y22515286D02*
X14459857Y23277286D01*
X14713857Y22515286D01*
X14859000Y23277286D02*
X15294428Y23277286D01*
X15076714Y22515286D02*
X15076714Y23277286D01*
X15367000Y22442715D02*
X15947571Y22442715D01*
X16129000Y22515286D02*
X16129000Y23277286D01*
X16491857Y22515286D02*
X16491857Y23277286D01*
X16927285Y22515286D01*
X16927285Y23277286D01*
X44141571Y37827858D02*
X44105285Y37791572D01*
X43996428Y37755286D01*
X43923857Y37755286D01*
X43815000Y37791572D01*
X43742428Y37864143D01*
X43706142Y37936715D01*
X43669857Y38081858D01*
X43669857Y38190715D01*
X43706142Y38335858D01*
X43742428Y38408429D01*
X43815000Y38481000D01*
X43923857Y38517286D01*
X43996428Y38517286D01*
X44105285Y38481000D01*
X44141571Y38444715D01*
X44831000Y37755286D02*
X44468142Y37755286D01*
X44468142Y38517286D01*
X45085000Y37755286D02*
X45085000Y38517286D01*
X45520428Y37755286D02*
X45193857Y38190715D01*
X45520428Y38517286D02*
X45085000Y38081858D01*
X45665571Y37682715D02*
X46246142Y37682715D01*
X46572714Y38517286D02*
X46717857Y38517286D01*
X46790428Y38481000D01*
X46863000Y38408429D01*
X46899285Y38263286D01*
X46899285Y38009286D01*
X46863000Y37864143D01*
X46790428Y37791572D01*
X46717857Y37755286D01*
X46572714Y37755286D01*
X46500142Y37791572D01*
X46427571Y37864143D01*
X46391285Y38009286D01*
X46391285Y38263286D01*
X46427571Y38408429D01*
X46500142Y38481000D01*
X46572714Y38517286D01*
X47225857Y38517286D02*
X47225857Y37900429D01*
X47262142Y37827858D01*
X47298428Y37791572D01*
X47371000Y37755286D01*
X47516142Y37755286D01*
X47588714Y37791572D01*
X47625000Y37827858D01*
X47661285Y37900429D01*
X47661285Y38517286D01*
X47915285Y38517286D02*
X48350714Y38517286D01*
X48133000Y37755286D02*
X48133000Y38517286D01*
X13915571Y37827858D02*
X13879285Y37791572D01*
X13770428Y37755286D01*
X13697857Y37755286D01*
X13589000Y37791572D01*
X13516428Y37864143D01*
X13480142Y37936715D01*
X13443857Y38081858D01*
X13443857Y38190715D01*
X13480142Y38335858D01*
X13516428Y38408429D01*
X13589000Y38481000D01*
X13697857Y38517286D01*
X13770428Y38517286D01*
X13879285Y38481000D01*
X13915571Y38444715D01*
X14605000Y37755286D02*
X14242142Y37755286D01*
X14242142Y38517286D01*
X14859000Y37755286D02*
X14859000Y38517286D01*
X15294428Y37755286D02*
X14967857Y38190715D01*
X15294428Y38517286D02*
X14859000Y38081858D01*
X15439571Y37682715D02*
X16020142Y37682715D01*
X16201571Y37755286D02*
X16201571Y38517286D01*
X16564428Y37755286D02*
X16564428Y38517286D01*
X16999857Y37755286D01*
X16999857Y38517286D01*
X15094857Y53757286D02*
X14732000Y53757286D01*
X14695714Y53394429D01*
X14732000Y53430715D01*
X14804571Y53467000D01*
X14986000Y53467000D01*
X15058571Y53430715D01*
X15094857Y53394429D01*
X15131142Y53321858D01*
X15131142Y53140429D01*
X15094857Y53067858D01*
X15058571Y53031572D01*
X14986000Y52995286D01*
X14804571Y52995286D01*
X14732000Y53031572D01*
X14695714Y53067858D01*
X15348857Y53757286D02*
X15602857Y52995286D01*
X15856857Y53757286D01*
X45574857Y53757286D02*
X45212000Y53757286D01*
X45175714Y53394429D01*
X45212000Y53430715D01*
X45284571Y53467000D01*
X45466000Y53467000D01*
X45538571Y53430715D01*
X45574857Y53394429D01*
X45611142Y53321858D01*
X45611142Y53140429D01*
X45574857Y53067858D01*
X45538571Y53031572D01*
X45466000Y52995286D01*
X45284571Y52995286D01*
X45212000Y53031572D01*
X45175714Y53067858D01*
X45828857Y53757286D02*
X46082857Y52995286D01*
X46336857Y53757286D01*
X45139428Y8001000D02*
X45066857Y8037286D01*
X44958000Y8037286D01*
X44849142Y8001000D01*
X44776571Y7928429D01*
X44740285Y7855858D01*
X44704000Y7710715D01*
X44704000Y7601858D01*
X44740285Y7456715D01*
X44776571Y7384143D01*
X44849142Y7311572D01*
X44958000Y7275286D01*
X45030571Y7275286D01*
X45139428Y7311572D01*
X45175714Y7347858D01*
X45175714Y7601858D01*
X45030571Y7601858D01*
X45502285Y7275286D02*
X45502285Y8037286D01*
X45937714Y7275286D01*
X45937714Y8037286D01*
X46300571Y7275286D02*
X46300571Y8037286D01*
X46482000Y8037286D01*
X46590857Y8001000D01*
X46663428Y7928429D01*
X46699714Y7855858D01*
X46736000Y7710715D01*
X46736000Y7601858D01*
X46699714Y7456715D01*
X46663428Y7384143D01*
X46590857Y7311572D01*
X46482000Y7275286D01*
X46300571Y7275286D01*
X14659428Y8001000D02*
X14586857Y8037286D01*
X14478000Y8037286D01*
X14369142Y8001000D01*
X14296571Y7928429D01*
X14260285Y7855858D01*
X14224000Y7710715D01*
X14224000Y7601858D01*
X14260285Y7456715D01*
X14296571Y7384143D01*
X14369142Y7311572D01*
X14478000Y7275286D01*
X14550571Y7275286D01*
X14659428Y7311572D01*
X14695714Y7347858D01*
X14695714Y7601858D01*
X14550571Y7601858D01*
X15022285Y7275286D02*
X15022285Y8037286D01*
X15457714Y7275286D01*
X15457714Y8037286D01*
X15820571Y7275286D02*
X15820571Y8037286D01*
X16002000Y8037286D01*
X16110857Y8001000D01*
X16183428Y7928429D01*
X16219714Y7855858D01*
X16256000Y7710715D01*
X16256000Y7601858D01*
X16219714Y7456715D01*
X16183428Y7384143D01*
X16110857Y7311572D01*
X16002000Y7275286D01*
X15820571Y7275286D01*
D12*
X18405975Y46297108D02*
G75*
G03X18405975Y46297108I-254001J0D01*
G01*
X18278974Y46297108D02*
G75*
G03X18278974Y46297108I-127000J0D01*
G01*
X60636893Y33391974D02*
G75*
G03X60636893Y33391974I-254001J0D01*
G01*
X60509892Y33391974D02*
G75*
G03X60509892Y33391974I-127000J0D01*
G01*
X58302027Y45142892D02*
G75*
G03X58302027Y45142892I-254001J0D01*
G01*
X58175026Y45142892D02*
G75*
G03X58175026Y45142892I-127000J0D01*
G01*
X46551109Y42808026D02*
G75*
G03X46551109Y42808026I-254001J0D01*
G01*
X46424108Y42808026D02*
G75*
G03X46424108Y42808026I-127000J0D01*
G01*
X48885975Y31057108D02*
G75*
G03X48885975Y31057108I-254001J0D01*
G01*
X48758974Y31057108D02*
G75*
G03X48758974Y31057108I-127000J0D01*
G01*
X31311109Y42808026D02*
G75*
G03X31311109Y42808026I-254001J0D01*
G01*
X31184108Y42808026D02*
G75*
G03X31184108Y42808026I-127000J0D01*
G01*
X18405975Y15817108D02*
G75*
G03X18405975Y15817108I-254001J0D01*
G01*
X18278974Y15817108D02*
G75*
G03X18278974Y15817108I-127000J0D01*
G01*
X14916893Y33391974D02*
G75*
G03X14916893Y33391974I-254001J0D01*
G01*
X14789892Y33391974D02*
G75*
G03X14789892Y33391974I-127000J0D01*
G01*
X12582027Y45142892D02*
G75*
G03X12582027Y45142892I-254001J0D01*
G01*
X12455026Y45142892D02*
G75*
G03X12455026Y45142892I-127000J0D01*
G01*
X831109Y42808026D02*
G75*
G03X831109Y42808026I-254001J0D01*
G01*
X704108Y42808026D02*
G75*
G03X704108Y42808026I-127000J0D01*
G01*
X3165975Y31057108D02*
G75*
G03X3165975Y31057108I-254001J0D01*
G01*
X3038974Y31057108D02*
G75*
G03X3038974Y31057108I-127000J0D01*
G01*
X60636893Y18151974D02*
G75*
G03X60636893Y18151974I-254001J0D01*
G01*
X60509892Y18151974D02*
G75*
G03X60509892Y18151974I-127000J0D01*
G01*
X58302027Y29902892D02*
G75*
G03X58302027Y29902892I-254001J0D01*
G01*
X58175026Y29902892D02*
G75*
G03X58175026Y29902892I-127000J0D01*
G01*
X60636893Y48631974D02*
G75*
G03X60636893Y48631974I-254001J0D01*
G01*
X60509892Y48631974D02*
G75*
G03X60509892Y48631974I-127000J0D01*
G01*
X58302027Y60382892D02*
G75*
G03X58302027Y60382892I-254001J0D01*
G01*
X58175026Y60382892D02*
G75*
G03X58175026Y60382892I-127000J0D01*
G01*
X46551109Y58048026D02*
G75*
G03X46551109Y58048026I-254001J0D01*
G01*
X46424108Y58048026D02*
G75*
G03X46424108Y58048026I-127000J0D01*
G01*
X48885975Y46297108D02*
G75*
G03X48885975Y46297108I-254001J0D01*
G01*
X48758974Y46297108D02*
G75*
G03X48758974Y46297108I-127000J0D01*
G01*
X46551109Y27568026D02*
G75*
G03X46551109Y27568026I-254001J0D01*
G01*
X46424108Y27568026D02*
G75*
G03X46424108Y27568026I-127000J0D01*
G01*
X48885975Y15817108D02*
G75*
G03X48885975Y15817108I-254001J0D01*
G01*
X48758974Y15817108D02*
G75*
G03X48758974Y15817108I-127000J0D01*
G01*
X46551109Y12328026D02*
G75*
G03X46551109Y12328026I-254001J0D01*
G01*
X46424108Y12328026D02*
G75*
G03X46424108Y12328026I-127000J0D01*
G01*
X43062027Y14662892D02*
G75*
G03X43062027Y14662892I-254001J0D01*
G01*
X42935026Y14662892D02*
G75*
G03X42935026Y14662892I-127000J0D01*
G01*
X45396893Y18151974D02*
G75*
G03X45396893Y18151974I-254001J0D01*
G01*
X45269892Y18151974D02*
G75*
G03X45269892Y18151974I-127000J0D01*
G01*
X43062027Y29902892D02*
G75*
G03X43062027Y29902892I-254001J0D01*
G01*
X42935026Y29902892D02*
G75*
G03X42935026Y29902892I-127000J0D01*
G01*
X45396893Y33391974D02*
G75*
G03X45396893Y33391974I-254001J0D01*
G01*
X45269892Y33391974D02*
G75*
G03X45269892Y33391974I-127000J0D01*
G01*
X45396893Y48631974D02*
G75*
G03X45396893Y48631974I-254001J0D01*
G01*
X45269892Y48631974D02*
G75*
G03X45269892Y48631974I-127000J0D01*
G01*
X43062027Y60382892D02*
G75*
G03X43062027Y60382892I-254001J0D01*
G01*
X42935026Y60382892D02*
G75*
G03X42935026Y60382892I-127000J0D01*
G01*
X31311109Y58048026D02*
G75*
G03X31311109Y58048026I-254001J0D01*
G01*
X31184108Y58048026D02*
G75*
G03X31184108Y58048026I-127000J0D01*
G01*
X33645975Y46297108D02*
G75*
G03X33645975Y46297108I-254001J0D01*
G01*
X33518974Y46297108D02*
G75*
G03X33518974Y46297108I-127000J0D01*
G01*
X33645975Y31057108D02*
G75*
G03X33645975Y31057108I-254001J0D01*
G01*
X33518974Y31057108D02*
G75*
G03X33518974Y31057108I-127000J0D01*
G01*
X31311109Y27568026D02*
G75*
G03X31311109Y27568026I-254001J0D01*
G01*
X31184108Y27568026D02*
G75*
G03X31184108Y27568026I-127000J0D01*
G01*
X33645975Y15817108D02*
G75*
G03X33645975Y15817108I-254001J0D01*
G01*
X33518974Y15817108D02*
G75*
G03X33518974Y15817108I-127000J0D01*
G01*
X31311109Y12328026D02*
G75*
G03X31311109Y12328026I-254001J0D01*
G01*
X31184108Y12328026D02*
G75*
G03X31184108Y12328026I-127000J0D01*
G01*
X27822027Y14662892D02*
G75*
G03X27822027Y14662892I-254001J0D01*
G01*
X27695026Y14662892D02*
G75*
G03X27695026Y14662892I-127000J0D01*
G01*
X30156893Y18151974D02*
G75*
G03X30156893Y18151974I-254001J0D01*
G01*
X30029892Y18151974D02*
G75*
G03X30029892Y18151974I-127000J0D01*
G01*
X27822027Y29902892D02*
G75*
G03X27822027Y29902892I-254001J0D01*
G01*
X27695026Y29902892D02*
G75*
G03X27695026Y29902892I-127000J0D01*
G01*
X30156893Y33391974D02*
G75*
G03X30156893Y33391974I-254001J0D01*
G01*
X30029892Y33391974D02*
G75*
G03X30029892Y33391974I-127000J0D01*
G01*
X27822027Y45142892D02*
G75*
G03X27822027Y45142892I-254001J0D01*
G01*
X27695026Y45142892D02*
G75*
G03X27695026Y45142892I-127000J0D01*
G01*
X30156893Y48631974D02*
G75*
G03X30156893Y48631974I-254001J0D01*
G01*
X30029892Y48631974D02*
G75*
G03X30029892Y48631974I-127000J0D01*
G01*
X27822027Y60382892D02*
G75*
G03X27822027Y60382892I-254001J0D01*
G01*
X27695026Y60382892D02*
G75*
G03X27695026Y60382892I-127000J0D01*
G01*
X16071109Y58048026D02*
G75*
G03X16071109Y58048026I-254001J0D01*
G01*
X15944108Y58048026D02*
G75*
G03X15944108Y58048026I-127000J0D01*
G01*
X16071109Y42808026D02*
G75*
G03X16071109Y42808026I-254001J0D01*
G01*
X15944108Y42808026D02*
G75*
G03X15944108Y42808026I-127000J0D01*
G01*
X18405975Y31057108D02*
G75*
G03X18405975Y31057108I-254001J0D01*
G01*
X18278974Y31057108D02*
G75*
G03X18278974Y31057108I-127000J0D01*
G01*
X16071109Y27568026D02*
G75*
G03X16071109Y27568026I-254001J0D01*
G01*
X15944108Y27568026D02*
G75*
G03X15944108Y27568026I-127000J0D01*
G01*
X16071109Y12328026D02*
G75*
G03X16071109Y12328026I-254001J0D01*
G01*
X15944108Y12328026D02*
G75*
G03X15944108Y12328026I-127000J0D01*
G01*
X12582027Y14662892D02*
G75*
G03X12582027Y14662892I-254001J0D01*
G01*
X12455026Y14662892D02*
G75*
G03X12455026Y14662892I-127000J0D01*
G01*
X14916893Y18151974D02*
G75*
G03X14916893Y18151974I-254001J0D01*
G01*
X14789892Y18151974D02*
G75*
G03X14789892Y18151974I-127000J0D01*
G01*
X12582027Y29902892D02*
G75*
G03X12582027Y29902892I-254001J0D01*
G01*
X12455026Y29902892D02*
G75*
G03X12455026Y29902892I-127000J0D01*
G01*
X14916893Y48631974D02*
G75*
G03X14916893Y48631974I-254001J0D01*
G01*
X14789892Y48631974D02*
G75*
G03X14789892Y48631974I-127000J0D01*
G01*
X12582027Y60382892D02*
G75*
G03X12582027Y60382892I-254001J0D01*
G01*
X12455026Y60382892D02*
G75*
G03X12455026Y60382892I-127000J0D01*
G01*
X831109Y58048026D02*
G75*
G03X831109Y58048026I-254001J0D01*
G01*
X704108Y58048026D02*
G75*
G03X704108Y58048026I-127000J0D01*
G01*
X3165975Y46297108D02*
G75*
G03X3165975Y46297108I-254001J0D01*
G01*
X3038974Y46297108D02*
G75*
G03X3038974Y46297108I-127000J0D01*
G01*
X3165975Y15817108D02*
G75*
G03X3165975Y15817108I-254001J0D01*
G01*
X3038974Y15817108D02*
G75*
G03X3038974Y15817108I-127000J0D01*
G01*
X831109Y12328026D02*
G75*
G03X831109Y12328026I-254001J0D01*
G01*
X704108Y12328026D02*
G75*
G03X704108Y12328026I-127000J0D01*
G01*
X831109Y27568026D02*
G75*
G03X831109Y27568026I-254001J0D01*
G01*
X704108Y27568026D02*
G75*
G03X704108Y27568026I-127000J0D01*
G01*
X3165975Y577108D02*
G75*
G03X3165975Y577108I-254001J0D01*
G01*
X3038974Y577108D02*
G75*
G03X3038974Y577108I-127000J0D01*
G01*
X14916893Y2911974D02*
G75*
G03X14916893Y2911974I-254001J0D01*
G01*
X14789892Y2911974D02*
G75*
G03X14789892Y2911974I-127000J0D01*
G01*
X18405975Y577108D02*
G75*
G03X18405975Y577108I-254001J0D01*
G01*
X18278974Y577108D02*
G75*
G03X18278974Y577108I-127000J0D01*
G01*
X30156893Y2911974D02*
G75*
G03X30156893Y2911974I-254001J0D01*
G01*
X30029892Y2911974D02*
G75*
G03X30029892Y2911974I-127000J0D01*
G01*
X33645975Y577108D02*
G75*
G03X33645975Y577108I-254001J0D01*
G01*
X33518974Y577108D02*
G75*
G03X33518974Y577108I-127000J0D01*
G01*
X45396893Y2911974D02*
G75*
G03X45396893Y2911974I-254001J0D01*
G01*
X45269892Y2911974D02*
G75*
G03X45269892Y2911974I-127000J0D01*
G01*
X48885975Y577108D02*
G75*
G03X48885975Y577108I-254001J0D01*
G01*
X48758974Y577108D02*
G75*
G03X48758974Y577108I-127000J0D01*
G01*
X60636893Y2911974D02*
G75*
G03X60636893Y2911974I-254001J0D01*
G01*
X60509892Y2911974D02*
G75*
G03X60509892Y2911974I-127000J0D01*
G01*
X43062027Y45142892D02*
G75*
G03X43062027Y45142892I-254001J0D01*
G01*
X42935026Y45142892D02*
G75*
G03X42935026Y45142892I-127000J0D01*
G01*
X58302027Y14662892D02*
G75*
G03X58302027Y14662892I-254001J0D01*
G01*
X58175026Y14662892D02*
G75*
G03X58175026Y14662892I-127000J0D01*
G01*
X17489847Y48609408D02*
X17947783Y48151472D01*
X18028595Y48124535D01*
X18082470Y48124535D01*
X18163282Y48151472D01*
X18271032Y48259222D01*
X18297969Y48340034D01*
X18297969Y48393909D01*
X18271032Y48474721D01*
X17813096Y48932657D01*
X18109407Y49121219D02*
X18109407Y49175094D01*
X18136345Y49255906D01*
X18271032Y49390593D01*
X18351844Y49417530D01*
X18405719Y49417530D01*
X18486531Y49390593D01*
X18540406Y49336718D01*
X18594280Y49228968D01*
X18594280Y48582471D01*
X18944467Y48932657D01*
X18567343Y49686904D02*
X18917529Y50037090D01*
X18944467Y49633029D01*
X19025279Y49713842D01*
X19106091Y49740779D01*
X19159966Y49740779D01*
X19240778Y49713842D01*
X19375465Y49579155D01*
X19402402Y49498342D01*
X19402402Y49444468D01*
X19375465Y49363655D01*
X19213841Y49202031D01*
X19133028Y49175094D01*
X19079154Y49175094D01*
X57109407Y34510153D02*
X56651471Y34052217D01*
X56624534Y33971405D01*
X56624534Y33917530D01*
X56651471Y33836718D01*
X56759221Y33728968D01*
X56840033Y33702031D01*
X56893908Y33702031D01*
X56974720Y33728968D01*
X57432656Y34186904D01*
X57944467Y33675094D02*
X57836717Y33782843D01*
X57755905Y33809781D01*
X57702030Y33809781D01*
X57567343Y33782843D01*
X57432656Y33702031D01*
X57217157Y33486532D01*
X57190219Y33405720D01*
X57190219Y33351845D01*
X57217157Y33271033D01*
X57324906Y33163283D01*
X57405719Y33136346D01*
X57459593Y33136346D01*
X57540406Y33163283D01*
X57675093Y33297970D01*
X57702030Y33378782D01*
X57702030Y33432657D01*
X57675093Y33513469D01*
X57567343Y33621219D01*
X57486531Y33648156D01*
X57432656Y33648156D01*
X57351844Y33621219D01*
X58348528Y33271033D02*
X58402402Y33217158D01*
X58429340Y33136346D01*
X58429340Y33082471D01*
X58402402Y33001659D01*
X58321590Y32866972D01*
X58186903Y32732285D01*
X58052216Y32651472D01*
X57971404Y32624535D01*
X57917529Y32624535D01*
X57836717Y32651472D01*
X57782842Y32705347D01*
X57755905Y32786159D01*
X57755905Y32840034D01*
X57782842Y32920846D01*
X57863654Y33055533D01*
X57998341Y33190220D01*
X58133028Y33271033D01*
X58213841Y33297970D01*
X58267715Y33297970D01*
X58348528Y33271033D01*
X56489846Y42109408D02*
X56947782Y41651472D01*
X57028594Y41624535D01*
X57082469Y41624535D01*
X57163281Y41651472D01*
X57271031Y41759222D01*
X57297968Y41840034D01*
X57297968Y41893909D01*
X57271031Y41974721D01*
X56813095Y42432657D01*
X57351843Y42971405D02*
X57082469Y42702031D01*
X57324905Y42405720D01*
X57324905Y42459594D01*
X57351843Y42540407D01*
X57486530Y42675094D01*
X57567342Y42702031D01*
X57621217Y42702031D01*
X57702029Y42675094D01*
X57836716Y42540407D01*
X57863653Y42459594D01*
X57863653Y42405720D01*
X57836716Y42324907D01*
X57702029Y42190220D01*
X57621217Y42163283D01*
X57567342Y42163283D01*
X58213840Y42702031D02*
X58321589Y42809781D01*
X58348527Y42890593D01*
X58348527Y42944468D01*
X58321589Y43079155D01*
X58240777Y43213842D01*
X58025278Y43429341D01*
X57944466Y43456278D01*
X57890591Y43456278D01*
X57809779Y43429341D01*
X57702029Y43321591D01*
X57675092Y43240779D01*
X57675092Y43186904D01*
X57702029Y43106092D01*
X57836716Y42971405D01*
X57917528Y42944468D01*
X57971403Y42944468D01*
X58052215Y42971405D01*
X58159965Y43079155D01*
X58186902Y43159967D01*
X58186902Y43213842D01*
X58159965Y43294654D01*
X48609406Y43510153D02*
X48151470Y43052217D01*
X48124533Y42971405D01*
X48124533Y42917530D01*
X48151470Y42836718D01*
X48259220Y42728968D01*
X48340032Y42702031D01*
X48393907Y42702031D01*
X48474719Y42728968D01*
X48932655Y43186904D01*
X49471403Y42648156D02*
X49202029Y42917530D01*
X48905718Y42675094D01*
X48959592Y42675094D01*
X49040405Y42648156D01*
X49175092Y42513469D01*
X49202029Y42432657D01*
X49202029Y42378782D01*
X49175092Y42297970D01*
X49040405Y42163283D01*
X48959592Y42136346D01*
X48905718Y42136346D01*
X48824905Y42163283D01*
X48690218Y42297970D01*
X48663281Y42378782D01*
X48663281Y42432657D01*
X49794652Y41947784D02*
X49417528Y41570660D01*
X49875464Y42297970D02*
X49336716Y42028596D01*
X49686902Y41678410D01*
X47989847Y33109408D02*
X48447783Y32651472D01*
X48528595Y32624535D01*
X48582470Y32624535D01*
X48663282Y32651472D01*
X48771032Y32759222D01*
X48797969Y32840034D01*
X48797969Y32893909D01*
X48771032Y32974721D01*
X48313096Y33432657D01*
X48851844Y33971405D02*
X48582470Y33702031D01*
X48824906Y33405720D01*
X48824906Y33459594D01*
X48851844Y33540407D01*
X48986531Y33675094D01*
X49067343Y33702031D01*
X49121218Y33702031D01*
X49202030Y33675094D01*
X49336717Y33540407D01*
X49363654Y33459594D01*
X49363654Y33405720D01*
X49336717Y33324907D01*
X49202030Y33190220D01*
X49121218Y33163283D01*
X49067343Y33163283D01*
X49067343Y34186904D02*
X49417529Y34537090D01*
X49444467Y34133029D01*
X49525279Y34213842D01*
X49606091Y34240779D01*
X49659966Y34240779D01*
X49740778Y34213842D01*
X49875465Y34079155D01*
X49902402Y33998342D01*
X49902402Y33944468D01*
X49875465Y33863655D01*
X49713841Y33702031D01*
X49633028Y33675094D01*
X49579154Y33675094D01*
X33109408Y43510153D02*
X32651472Y43052217D01*
X32624535Y42971405D01*
X32624535Y42917530D01*
X32651472Y42836718D01*
X32759222Y42728968D01*
X32840034Y42702031D01*
X32893909Y42702031D01*
X32974721Y42728968D01*
X33432657Y43186904D01*
X33648156Y42971405D02*
X33998342Y42621219D01*
X33594281Y42594281D01*
X33675094Y42513469D01*
X33702031Y42432657D01*
X33702031Y42378782D01*
X33675094Y42297970D01*
X33540407Y42163283D01*
X33459594Y42136346D01*
X33405720Y42136346D01*
X33324907Y42163283D01*
X33163283Y42324907D01*
X33136346Y42405720D01*
X33136346Y42459594D01*
X34079155Y42055533D02*
X34052217Y42136346D01*
X34052217Y42190220D01*
X34079155Y42271033D01*
X34106092Y42297970D01*
X34186904Y42324907D01*
X34240779Y42324907D01*
X34321591Y42297970D01*
X34429341Y42190220D01*
X34456278Y42109408D01*
X34456278Y42055533D01*
X34429341Y41974721D01*
X34402403Y41947784D01*
X34321591Y41920846D01*
X34267716Y41920846D01*
X34186904Y41947784D01*
X34079155Y42055533D01*
X33998342Y42082471D01*
X33944468Y42082471D01*
X33863655Y42055533D01*
X33755906Y41947784D01*
X33728968Y41866972D01*
X33728968Y41813097D01*
X33755906Y41732285D01*
X33863655Y41624535D01*
X33944468Y41597598D01*
X33998342Y41597598D01*
X34079155Y41624535D01*
X34186904Y41732285D01*
X34213842Y41813097D01*
X34213842Y41866972D01*
X34186904Y41947784D01*
X17489847Y18109408D02*
X17947783Y17651472D01*
X18028595Y17624535D01*
X18082470Y17624535D01*
X18163282Y17651472D01*
X18271032Y17759222D01*
X18297969Y17840034D01*
X18297969Y17893909D01*
X18271032Y17974721D01*
X17813096Y18432657D01*
X18944467Y18432657D02*
X18621218Y18109408D01*
X18782842Y18271033D02*
X18217157Y18836718D01*
X18244094Y18702031D01*
X18244094Y18594281D01*
X18217157Y18513469D01*
X19213841Y18702031D02*
X19321590Y18809781D01*
X19348528Y18890593D01*
X19348528Y18944468D01*
X19321590Y19079155D01*
X19240778Y19213842D01*
X19025279Y19429341D01*
X18944467Y19456278D01*
X18890592Y19456278D01*
X18809780Y19429341D01*
X18702030Y19321591D01*
X18675093Y19240779D01*
X18675093Y19186904D01*
X18702030Y19106092D01*
X18836717Y18971405D01*
X18917529Y18944468D01*
X18971404Y18944468D01*
X19052216Y18971405D01*
X19159966Y19079155D01*
X19186903Y19159967D01*
X19186903Y19213842D01*
X19159966Y19294654D01*
X11609407Y35010153D02*
X11151471Y34552217D01*
X11124534Y34471405D01*
X11124534Y34417530D01*
X11151471Y34336718D01*
X11259221Y34228968D01*
X11340033Y34202031D01*
X11393908Y34202031D01*
X11474720Y34228968D01*
X11932656Y34686904D01*
X11932656Y33555533D02*
X11609407Y33878782D01*
X11771032Y33717158D02*
X12336717Y34282843D01*
X12202030Y34255906D01*
X12094280Y34255906D01*
X12013468Y34282843D01*
X12659966Y33851845D02*
X12713841Y33851845D01*
X12794653Y33824907D01*
X12929340Y33690220D01*
X12956277Y33609408D01*
X12956277Y33555533D01*
X12929340Y33474721D01*
X12875465Y33420846D01*
X12767715Y33366972D01*
X12121218Y33366972D01*
X12471404Y33016785D01*
X10989847Y42109408D02*
X11447783Y41651472D01*
X11528595Y41624535D01*
X11582470Y41624535D01*
X11663282Y41651472D01*
X11771032Y41759222D01*
X11797969Y41840034D01*
X11797969Y41893909D01*
X11771032Y41974721D01*
X11313096Y42432657D01*
X12444467Y42432657D02*
X12121218Y42109408D01*
X12282842Y42271033D02*
X11717157Y42836718D01*
X11744094Y42702031D01*
X11744094Y42594281D01*
X11717157Y42513469D01*
X12983215Y42971405D02*
X12659966Y42648156D01*
X12821590Y42809781D02*
X12255905Y43375466D01*
X12282842Y43240779D01*
X12282842Y43133029D01*
X12255905Y43052217D01*
X2609408Y43510153D02*
X2151472Y43052217D01*
X2124535Y42971405D01*
X2124535Y42917530D01*
X2151472Y42836718D01*
X2259222Y42728968D01*
X2340034Y42702031D01*
X2393909Y42702031D01*
X2474721Y42728968D01*
X2932657Y43186904D01*
X3309781Y42809781D02*
X3363655Y42755906D01*
X3390593Y42675094D01*
X3390593Y42621219D01*
X3363655Y42540407D01*
X3282843Y42405720D01*
X3148156Y42271033D01*
X3013469Y42190220D01*
X2932657Y42163283D01*
X2878782Y42163283D01*
X2797970Y42190220D01*
X2744095Y42244095D01*
X2717158Y42324907D01*
X2717158Y42378782D01*
X2744095Y42459594D01*
X2824907Y42594281D01*
X2959594Y42728968D01*
X3094281Y42809781D01*
X3175094Y42836718D01*
X3228968Y42836718D01*
X3309781Y42809781D01*
X3983216Y42136346D02*
X3875466Y42244095D01*
X3794654Y42271033D01*
X3740779Y42271033D01*
X3606092Y42244095D01*
X3471405Y42163283D01*
X3255906Y41947784D01*
X3228968Y41866972D01*
X3228968Y41813097D01*
X3255906Y41732285D01*
X3363655Y41624535D01*
X3444468Y41597598D01*
X3498342Y41597598D01*
X3579155Y41624535D01*
X3713842Y41759222D01*
X3740779Y41840034D01*
X3740779Y41893909D01*
X3713842Y41974721D01*
X3606092Y42082471D01*
X3525280Y42109408D01*
X3471405Y42109408D01*
X3390593Y42082471D01*
X2489847Y33609408D02*
X2947783Y33151472D01*
X3028595Y33124535D01*
X3082470Y33124535D01*
X3163282Y33151472D01*
X3271032Y33259222D01*
X3297969Y33340034D01*
X3297969Y33393909D01*
X3271032Y33474721D01*
X2813096Y33932657D01*
X3190219Y34309781D02*
X3244094Y34363655D01*
X3324906Y34390593D01*
X3378781Y34390593D01*
X3459593Y34363655D01*
X3594280Y34282843D01*
X3728967Y34148156D01*
X3809780Y34013469D01*
X3836717Y33932657D01*
X3836717Y33878782D01*
X3809780Y33797970D01*
X3755905Y33744095D01*
X3675093Y33717158D01*
X3621218Y33717158D01*
X3540406Y33744095D01*
X3405719Y33824907D01*
X3271032Y33959594D01*
X3190219Y34094281D01*
X3163282Y34175094D01*
X3163282Y34228968D01*
X3190219Y34309781D01*
X3890592Y35010153D02*
X3621218Y34740779D01*
X3863654Y34444468D01*
X3863654Y34498342D01*
X3890592Y34579155D01*
X4025279Y34713842D01*
X4106091Y34740779D01*
X4159966Y34740779D01*
X4240778Y34713842D01*
X4375465Y34579155D01*
X4402402Y34498342D01*
X4402402Y34444468D01*
X4375465Y34363655D01*
X4240778Y34228968D01*
X4159966Y34202031D01*
X4106091Y34202031D01*
X57109407Y19510153D02*
X56651471Y19052217D01*
X56624534Y18971405D01*
X56624534Y18917530D01*
X56651471Y18836718D01*
X56759221Y18728968D01*
X56840033Y18702031D01*
X56893908Y18702031D01*
X56974720Y18728968D01*
X57432656Y19186904D01*
X57944467Y18675094D02*
X57836717Y18782843D01*
X57755905Y18809781D01*
X57702030Y18809781D01*
X57567343Y18782843D01*
X57432656Y18702031D01*
X57217157Y18486532D01*
X57190219Y18405720D01*
X57190219Y18351845D01*
X57217157Y18271033D01*
X57324906Y18163283D01*
X57405719Y18136346D01*
X57459593Y18136346D01*
X57540406Y18163283D01*
X57675093Y18297970D01*
X57702030Y18378782D01*
X57702030Y18432657D01*
X57675093Y18513469D01*
X57567343Y18621219D01*
X57486531Y18648156D01*
X57432656Y18648156D01*
X57351844Y18621219D01*
X58159966Y18351845D02*
X58213841Y18351845D01*
X58294653Y18324907D01*
X58429340Y18190220D01*
X58456277Y18109408D01*
X58456277Y18055533D01*
X58429340Y17974721D01*
X58375465Y17920846D01*
X58267715Y17866972D01*
X57621218Y17866972D01*
X57971404Y17516785D01*
X56489847Y26609408D02*
X56947783Y26151472D01*
X57028595Y26124535D01*
X57082470Y26124535D01*
X57163282Y26151472D01*
X57271032Y26259222D01*
X57297969Y26340034D01*
X57297969Y26393909D01*
X57271032Y26474721D01*
X56813096Y26932657D01*
X57324906Y27444468D02*
X57217157Y27336718D01*
X57190219Y27255906D01*
X57190219Y27202031D01*
X57217157Y27067344D01*
X57297969Y26932657D01*
X57513468Y26717158D01*
X57594280Y26690220D01*
X57648155Y26690220D01*
X57728967Y26717158D01*
X57836717Y26824907D01*
X57863654Y26905720D01*
X57863654Y26959594D01*
X57836717Y27040407D01*
X57702030Y27175094D01*
X57621218Y27202031D01*
X57567343Y27202031D01*
X57486531Y27175094D01*
X57378781Y27067344D01*
X57351844Y26986532D01*
X57351844Y26932657D01*
X57378781Y26851845D01*
X58483215Y27471405D02*
X58159966Y27148156D01*
X58321590Y27309781D02*
X57755905Y27875466D01*
X57782842Y27740779D01*
X57782842Y27633029D01*
X57755905Y27552217D01*
X57109407Y50010153D02*
X56651471Y49552217D01*
X56624534Y49471405D01*
X56624534Y49417530D01*
X56651471Y49336718D01*
X56759221Y49228968D01*
X56840033Y49202031D01*
X56893908Y49202031D01*
X56974720Y49228968D01*
X57432656Y49686904D01*
X57971404Y49148156D02*
X57702030Y49417530D01*
X57405719Y49175094D01*
X57459593Y49175094D01*
X57540406Y49148156D01*
X57675093Y49013469D01*
X57702030Y48932657D01*
X57702030Y48878782D01*
X57675093Y48797970D01*
X57540406Y48663283D01*
X57459593Y48636346D01*
X57405719Y48636346D01*
X57324906Y48663283D01*
X57190219Y48797970D01*
X57163282Y48878782D01*
X57163282Y48932657D01*
X58079154Y48555533D02*
X58052216Y48636346D01*
X58052216Y48690220D01*
X58079154Y48771033D01*
X58106091Y48797970D01*
X58186903Y48824907D01*
X58240778Y48824907D01*
X58321590Y48797970D01*
X58429340Y48690220D01*
X58456277Y48609408D01*
X58456277Y48555533D01*
X58429340Y48474721D01*
X58402402Y48447784D01*
X58321590Y48420846D01*
X58267715Y48420846D01*
X58186903Y48447784D01*
X58079154Y48555533D01*
X57998341Y48582471D01*
X57944467Y48582471D01*
X57863654Y48555533D01*
X57755905Y48447784D01*
X57728967Y48366972D01*
X57728967Y48313097D01*
X57755905Y48232285D01*
X57863654Y48124535D01*
X57944467Y48097598D01*
X57998341Y48097598D01*
X58079154Y48124535D01*
X58186903Y48232285D01*
X58213841Y48313097D01*
X58213841Y48366972D01*
X58186903Y48447784D01*
X53489847Y59299408D02*
X53947783Y58841472D01*
X54028595Y58814535D01*
X54082470Y58814535D01*
X54163282Y58841472D01*
X54271032Y58949222D01*
X54297969Y59030034D01*
X54297969Y59083909D01*
X54271032Y59164721D01*
X53813096Y59622657D01*
X54351844Y60161405D02*
X54082470Y59892031D01*
X54324906Y59595720D01*
X54324906Y59649594D01*
X54351844Y59730407D01*
X54486531Y59865094D01*
X54567343Y59892031D01*
X54621218Y59892031D01*
X54702030Y59865094D01*
X54836717Y59730407D01*
X54863654Y59649594D01*
X54863654Y59595720D01*
X54836717Y59514907D01*
X54702030Y59380220D01*
X54621218Y59353283D01*
X54567343Y59353283D01*
X54567343Y60376904D02*
X54944467Y60754028D01*
X55267715Y59945906D01*
X46489847Y59109408D02*
X46947783Y58651472D01*
X47028595Y58624535D01*
X47082470Y58624535D01*
X47163282Y58651472D01*
X47271032Y58759222D01*
X47297969Y58840034D01*
X47297969Y58893909D01*
X47271032Y58974721D01*
X46813096Y59432657D01*
X47351844Y59971405D02*
X47082470Y59702031D01*
X47324906Y59405720D01*
X47324906Y59459594D01*
X47351844Y59540407D01*
X47486531Y59675094D01*
X47567343Y59702031D01*
X47621218Y59702031D01*
X47702030Y59675094D01*
X47836717Y59540407D01*
X47863654Y59459594D01*
X47863654Y59405720D01*
X47836717Y59324907D01*
X47702030Y59190220D01*
X47621218Y59163283D01*
X47567343Y59163283D01*
X47863654Y60483216D02*
X47755905Y60375466D01*
X47728967Y60294654D01*
X47728967Y60240779D01*
X47755905Y60106092D01*
X47836717Y59971405D01*
X48052216Y59755906D01*
X48133028Y59728968D01*
X48186903Y59728968D01*
X48267715Y59755906D01*
X48375465Y59863655D01*
X48402402Y59944468D01*
X48402402Y59998342D01*
X48375465Y60079155D01*
X48240778Y60213842D01*
X48159966Y60240779D01*
X48106091Y60240779D01*
X48025279Y60213842D01*
X47917529Y60106092D01*
X47890592Y60025280D01*
X47890592Y59971405D01*
X47917529Y59890593D01*
X47989847Y48609408D02*
X48447783Y48151472D01*
X48528595Y48124535D01*
X48582470Y48124535D01*
X48663282Y48151472D01*
X48771032Y48259222D01*
X48797969Y48340034D01*
X48797969Y48393909D01*
X48771032Y48474721D01*
X48313096Y48932657D01*
X48851844Y49471405D02*
X48582470Y49202031D01*
X48824906Y48905720D01*
X48824906Y48959594D01*
X48851844Y49040407D01*
X48986531Y49175094D01*
X49067343Y49202031D01*
X49121218Y49202031D01*
X49202030Y49175094D01*
X49336717Y49040407D01*
X49363654Y48959594D01*
X49363654Y48905720D01*
X49336717Y48824907D01*
X49202030Y48690220D01*
X49121218Y48663283D01*
X49067343Y48663283D01*
X49390592Y50010153D02*
X49121218Y49740779D01*
X49363654Y49444468D01*
X49363654Y49498342D01*
X49390592Y49579155D01*
X49525279Y49713842D01*
X49606091Y49740779D01*
X49659966Y49740779D01*
X49740778Y49713842D01*
X49875465Y49579155D01*
X49902402Y49498342D01*
X49902402Y49444468D01*
X49875465Y49363655D01*
X49740778Y49228968D01*
X49659966Y49202031D01*
X49606091Y49202031D01*
X48609407Y28010153D02*
X48151471Y27552217D01*
X48124534Y27471405D01*
X48124534Y27417530D01*
X48151471Y27336718D01*
X48259221Y27228968D01*
X48340033Y27202031D01*
X48393908Y27202031D01*
X48474720Y27228968D01*
X48932656Y27686904D01*
X49471404Y27148156D02*
X49202030Y27417530D01*
X48905719Y27175094D01*
X48959593Y27175094D01*
X49040406Y27148156D01*
X49175093Y27013469D01*
X49202030Y26932657D01*
X49202030Y26878782D01*
X49175093Y26797970D01*
X49040406Y26663283D01*
X48959593Y26636346D01*
X48905719Y26636346D01*
X48824906Y26663283D01*
X48690219Y26797970D01*
X48663282Y26878782D01*
X48663282Y26932657D01*
X49659966Y26851845D02*
X49713841Y26851845D01*
X49794653Y26824907D01*
X49929340Y26690220D01*
X49956277Y26609408D01*
X49956277Y26555533D01*
X49929340Y26474721D01*
X49875465Y26420846D01*
X49767715Y26366972D01*
X49121218Y26366972D01*
X49471404Y26016785D01*
X47989847Y18109408D02*
X48447783Y17651472D01*
X48528595Y17624535D01*
X48582470Y17624535D01*
X48663282Y17651472D01*
X48771032Y17759222D01*
X48797969Y17840034D01*
X48797969Y17893909D01*
X48771032Y17974721D01*
X48313096Y18432657D01*
X48851844Y18971405D02*
X48582470Y18702031D01*
X48824906Y18405720D01*
X48824906Y18459594D01*
X48851844Y18540407D01*
X48986531Y18675094D01*
X49067343Y18702031D01*
X49121218Y18702031D01*
X49202030Y18675094D01*
X49336717Y18540407D01*
X49363654Y18459594D01*
X49363654Y18405720D01*
X49336717Y18324907D01*
X49202030Y18190220D01*
X49121218Y18163283D01*
X49067343Y18163283D01*
X49983215Y18971405D02*
X49659966Y18648156D01*
X49821590Y18809781D02*
X49255905Y19375466D01*
X49282842Y19240779D01*
X49282842Y19133029D01*
X49255905Y19052217D01*
X48609407Y13010152D02*
X48151471Y12552216D01*
X48124534Y12471404D01*
X48124534Y12417529D01*
X48151471Y12336717D01*
X48259221Y12228967D01*
X48340033Y12202030D01*
X48393908Y12202030D01*
X48474720Y12228967D01*
X48932656Y12686903D01*
X49471404Y12148155D02*
X49202030Y12417529D01*
X48905719Y12175093D01*
X48959593Y12175093D01*
X49040406Y12148155D01*
X49175093Y12013468D01*
X49202030Y11932656D01*
X49202030Y11878781D01*
X49175093Y11797969D01*
X49040406Y11663282D01*
X48959593Y11636345D01*
X48905719Y11636345D01*
X48824906Y11663282D01*
X48690219Y11797969D01*
X48663282Y11878781D01*
X48663282Y11932656D01*
X49848528Y11771032D02*
X49902402Y11717157D01*
X49929340Y11636345D01*
X49929340Y11582470D01*
X49902402Y11501658D01*
X49821590Y11366971D01*
X49686903Y11232284D01*
X49552216Y11151471D01*
X49471404Y11124534D01*
X49417529Y11124534D01*
X49336717Y11151471D01*
X49282842Y11205346D01*
X49255905Y11286158D01*
X49255905Y11340033D01*
X49282842Y11420845D01*
X49363654Y11555532D01*
X49498341Y11690219D01*
X49633028Y11771032D01*
X49713841Y11797969D01*
X49767715Y11797969D01*
X49848528Y11771032D01*
X41489847Y11609408D02*
X41947783Y11151472D01*
X42028595Y11124535D01*
X42082470Y11124535D01*
X42163282Y11151472D01*
X42271032Y11259222D01*
X42297969Y11340034D01*
X42297969Y11393909D01*
X42271032Y11474721D01*
X41813096Y11932657D01*
X42513468Y12255906D02*
X42890592Y11878782D01*
X42163282Y12336718D02*
X42432656Y11797970D01*
X42782842Y12148156D01*
X42567343Y12686904D02*
X42944467Y13064028D01*
X43267715Y12255906D01*
X42109407Y19510153D02*
X41651471Y19052217D01*
X41624534Y18971405D01*
X41624534Y18917530D01*
X41651471Y18836718D01*
X41759221Y18728968D01*
X41840033Y18702031D01*
X41893908Y18702031D01*
X41974720Y18728968D01*
X42432656Y19186904D01*
X42755905Y18486532D02*
X42378781Y18109408D01*
X42836717Y18836718D02*
X42297969Y18567344D01*
X42648155Y18217158D01*
X43483215Y18136346D02*
X43375465Y18244095D01*
X43294653Y18271033D01*
X43240778Y18271033D01*
X43106091Y18244095D01*
X42971404Y18163283D01*
X42755905Y17947784D01*
X42728967Y17866972D01*
X42728967Y17813097D01*
X42755905Y17732285D01*
X42863654Y17624535D01*
X42944467Y17597598D01*
X42998341Y17597598D01*
X43079154Y17624535D01*
X43213841Y17759222D01*
X43240778Y17840034D01*
X43240778Y17893909D01*
X43213841Y17974721D01*
X43106091Y18082471D01*
X43025279Y18109408D01*
X42971404Y18109408D01*
X42890592Y18082471D01*
X41489847Y27109409D02*
X41947783Y26651473D01*
X42028595Y26624536D01*
X42082470Y26624536D01*
X42163282Y26651473D01*
X42271032Y26759223D01*
X42297969Y26840035D01*
X42297969Y26893910D01*
X42271032Y26974722D01*
X41813096Y27432658D01*
X42513468Y27755907D02*
X42890592Y27378783D01*
X42163282Y27836719D02*
X42432656Y27297971D01*
X42782842Y27648157D01*
X42890592Y28510154D02*
X42621218Y28240780D01*
X42863654Y27944469D01*
X42863654Y27998343D01*
X42890592Y28079156D01*
X43025279Y28213843D01*
X43106091Y28240780D01*
X43159966Y28240780D01*
X43240778Y28213843D01*
X43375465Y28079156D01*
X43402402Y27998343D01*
X43402402Y27944469D01*
X43375465Y27863656D01*
X43240778Y27728969D01*
X43159966Y27702032D01*
X43106091Y27702032D01*
X42109407Y35010153D02*
X41651471Y34552217D01*
X41624534Y34471405D01*
X41624534Y34417530D01*
X41651471Y34336718D01*
X41759221Y34228968D01*
X41840033Y34202031D01*
X41893908Y34202031D01*
X41974720Y34228968D01*
X42432656Y34686904D01*
X42755905Y33986532D02*
X42378781Y33609408D01*
X42836717Y34336718D02*
X42297969Y34067344D01*
X42648155Y33717158D01*
X43294653Y33447784D02*
X42917529Y33070660D01*
X43375465Y33797970D02*
X42836717Y33528596D01*
X43186903Y33178410D01*
X42109407Y50010152D02*
X41651471Y49552216D01*
X41624534Y49471404D01*
X41624534Y49417529D01*
X41651471Y49336717D01*
X41759221Y49228967D01*
X41840033Y49202030D01*
X41893908Y49202030D01*
X41974720Y49228967D01*
X42432656Y49686903D01*
X42755905Y48986531D02*
X42378781Y48609407D01*
X42836717Y49336717D02*
X42297969Y49067343D01*
X42648155Y48717157D01*
X43159966Y48851844D02*
X43213841Y48851844D01*
X43294653Y48824906D01*
X43429340Y48690219D01*
X43456277Y48609407D01*
X43456277Y48555532D01*
X43429340Y48474720D01*
X43375465Y48420845D01*
X43267715Y48366971D01*
X42621218Y48366971D01*
X42971404Y48016784D01*
X37989847Y59299408D02*
X38447783Y58841472D01*
X38528595Y58814535D01*
X38582470Y58814535D01*
X38663282Y58841472D01*
X38771032Y58949222D01*
X38797969Y59030034D01*
X38797969Y59083909D01*
X38771032Y59164721D01*
X38313096Y59622657D01*
X39013468Y59945906D02*
X39390592Y59568782D01*
X38663282Y60026718D02*
X38932656Y59487970D01*
X39282842Y59838156D01*
X39983215Y60161405D02*
X39659966Y59838156D01*
X39821590Y59999781D02*
X39255905Y60565466D01*
X39282842Y60430779D01*
X39282842Y60323029D01*
X39255905Y60242217D01*
X30989847Y59109407D02*
X31447783Y58651471D01*
X31528595Y58624534D01*
X31582470Y58624534D01*
X31663282Y58651471D01*
X31771032Y58759221D01*
X31797969Y58840033D01*
X31797969Y58893908D01*
X31771032Y58974720D01*
X31313096Y59432656D01*
X32013468Y59755905D02*
X32390592Y59378781D01*
X31663282Y59836717D02*
X31932656Y59297969D01*
X32282842Y59648155D01*
X32228967Y60348528D02*
X32282842Y60402402D01*
X32363654Y60429340D01*
X32417529Y60429340D01*
X32498341Y60402402D01*
X32633028Y60321590D01*
X32767715Y60186903D01*
X32848528Y60052216D01*
X32875465Y59971404D01*
X32875465Y59917529D01*
X32848528Y59836717D01*
X32794653Y59782842D01*
X32713841Y59755905D01*
X32659966Y59755905D01*
X32579154Y59782842D01*
X32444467Y59863654D01*
X32309780Y59998341D01*
X32228967Y60133028D01*
X32202030Y60213841D01*
X32202030Y60267715D01*
X32228967Y60348528D01*
X32989847Y48609407D02*
X33447783Y48151471D01*
X33528595Y48124534D01*
X33582470Y48124534D01*
X33663282Y48151471D01*
X33771032Y48259221D01*
X33797969Y48340033D01*
X33797969Y48393908D01*
X33771032Y48474720D01*
X33313096Y48932656D01*
X33528595Y49148155D02*
X33878781Y49498341D01*
X33905719Y49094280D01*
X33986531Y49175093D01*
X34067343Y49202030D01*
X34121218Y49202030D01*
X34202030Y49175093D01*
X34336717Y49040406D01*
X34363654Y48959593D01*
X34363654Y48905719D01*
X34336717Y48824906D01*
X34175093Y48663282D01*
X34094280Y48636345D01*
X34040406Y48636345D01*
X34713841Y49202030D02*
X34821590Y49309780D01*
X34848528Y49390592D01*
X34848528Y49444467D01*
X34821590Y49579154D01*
X34740778Y49713841D01*
X34525279Y49929340D01*
X34444467Y49956277D01*
X34390592Y49956277D01*
X34309780Y49929340D01*
X34202030Y49821590D01*
X34175093Y49740778D01*
X34175093Y49686903D01*
X34202030Y49606091D01*
X34336717Y49471404D01*
X34417529Y49444467D01*
X34471404Y49444467D01*
X34552216Y49471404D01*
X34659966Y49579154D01*
X34686903Y49659966D01*
X34686903Y49713841D01*
X34659966Y49794653D01*
X32989847Y33109409D02*
X33447783Y32651473D01*
X33528595Y32624536D01*
X33582470Y32624536D01*
X33663282Y32651473D01*
X33771032Y32759223D01*
X33797969Y32840035D01*
X33797969Y32893910D01*
X33771032Y32974722D01*
X33313096Y33432658D01*
X33528595Y33648157D02*
X33878781Y33998343D01*
X33905719Y33594282D01*
X33986531Y33675095D01*
X34067343Y33702032D01*
X34121218Y33702032D01*
X34202030Y33675095D01*
X34336717Y33540408D01*
X34363654Y33459595D01*
X34363654Y33405721D01*
X34336717Y33324908D01*
X34175093Y33163284D01*
X34094280Y33136347D01*
X34040406Y33136347D01*
X34067343Y34186905D02*
X34444467Y34564029D01*
X34767715Y33755907D01*
X33609407Y28010153D02*
X33151471Y27552217D01*
X33124534Y27471405D01*
X33124534Y27417530D01*
X33151471Y27336718D01*
X33259221Y27228968D01*
X33340033Y27202031D01*
X33393908Y27202031D01*
X33474720Y27228968D01*
X33932656Y27686904D01*
X34148155Y27471405D02*
X34498341Y27121219D01*
X34094280Y27094281D01*
X34175093Y27013469D01*
X34202030Y26932657D01*
X34202030Y26878782D01*
X34175093Y26797970D01*
X34040406Y26663283D01*
X33959593Y26636346D01*
X33905719Y26636346D01*
X33824906Y26663283D01*
X33663282Y26824907D01*
X33636345Y26905720D01*
X33636345Y26959594D01*
X34983215Y26636346D02*
X34875465Y26744095D01*
X34794653Y26771033D01*
X34740778Y26771033D01*
X34606091Y26744095D01*
X34471404Y26663283D01*
X34255905Y26447784D01*
X34228967Y26366972D01*
X34228967Y26313097D01*
X34255905Y26232285D01*
X34363654Y26124535D01*
X34444467Y26097598D01*
X34498341Y26097598D01*
X34579154Y26124535D01*
X34713841Y26259222D01*
X34740778Y26340034D01*
X34740778Y26393909D01*
X34713841Y26474721D01*
X34606091Y26582471D01*
X34525279Y26609408D01*
X34471404Y26609408D01*
X34390592Y26582471D01*
X32989847Y18109408D02*
X33447783Y17651472D01*
X33528595Y17624535D01*
X33582470Y17624535D01*
X33663282Y17651472D01*
X33771032Y17759222D01*
X33797969Y17840034D01*
X33797969Y17893909D01*
X33771032Y17974721D01*
X33313096Y18432657D01*
X33528595Y18648156D02*
X33878781Y18998342D01*
X33905719Y18594281D01*
X33986531Y18675094D01*
X34067343Y18702031D01*
X34121218Y18702031D01*
X34202030Y18675094D01*
X34336717Y18540407D01*
X34363654Y18459594D01*
X34363654Y18405720D01*
X34336717Y18324907D01*
X34175093Y18163283D01*
X34094280Y18136346D01*
X34040406Y18136346D01*
X34390592Y19510153D02*
X34121218Y19240779D01*
X34363654Y18944468D01*
X34363654Y18998342D01*
X34390592Y19079155D01*
X34525279Y19213842D01*
X34606091Y19240779D01*
X34659966Y19240779D01*
X34740778Y19213842D01*
X34875465Y19079155D01*
X34902402Y18998342D01*
X34902402Y18944468D01*
X34875465Y18863655D01*
X34740778Y18728968D01*
X34659966Y18702031D01*
X34606091Y18702031D01*
X33609408Y12510153D02*
X33151472Y12052217D01*
X33124535Y11971405D01*
X33124535Y11917530D01*
X33151472Y11836718D01*
X33259222Y11728968D01*
X33340034Y11702031D01*
X33393909Y11702031D01*
X33474721Y11728968D01*
X33932657Y12186904D01*
X34148156Y11971405D02*
X34498342Y11621219D01*
X34094281Y11594281D01*
X34175094Y11513469D01*
X34202031Y11432657D01*
X34202031Y11378782D01*
X34175094Y11297970D01*
X34040407Y11163283D01*
X33959594Y11136346D01*
X33905720Y11136346D01*
X33824907Y11163283D01*
X33663283Y11324907D01*
X33636346Y11405720D01*
X33636346Y11459594D01*
X34794654Y10947784D02*
X34417530Y10570660D01*
X34875466Y11297970D02*
X34336718Y11028596D01*
X34686904Y10678410D01*
X26489847Y11609407D02*
X26947783Y11151471D01*
X27028595Y11124534D01*
X27082470Y11124534D01*
X27163282Y11151471D01*
X27271032Y11259221D01*
X27297969Y11340033D01*
X27297969Y11393908D01*
X27271032Y11474720D01*
X26813096Y11932656D01*
X27028595Y12148155D02*
X27378781Y12498341D01*
X27405719Y12094280D01*
X27486531Y12175093D01*
X27567343Y12202030D01*
X27621218Y12202030D01*
X27702030Y12175093D01*
X27836717Y12040406D01*
X27863654Y11959593D01*
X27863654Y11905719D01*
X27836717Y11824906D01*
X27675093Y11663282D01*
X27594280Y11636345D01*
X27540406Y11636345D01*
X28483215Y12471404D02*
X28159966Y12148155D01*
X28321590Y12309780D02*
X27755905Y12875465D01*
X27782842Y12740778D01*
X27782842Y12633028D01*
X27755905Y12552216D01*
X26609407Y19510153D02*
X26151471Y19052217D01*
X26124534Y18971405D01*
X26124534Y18917530D01*
X26151471Y18836718D01*
X26259221Y18728968D01*
X26340033Y18702031D01*
X26393908Y18702031D01*
X26474720Y18728968D01*
X26932656Y19186904D01*
X27148155Y18971405D02*
X27498341Y18621219D01*
X27094280Y18594281D01*
X27175093Y18513469D01*
X27202030Y18432657D01*
X27202030Y18378782D01*
X27175093Y18297970D01*
X27040406Y18163283D01*
X26959593Y18136346D01*
X26905719Y18136346D01*
X26824906Y18163283D01*
X26663282Y18324907D01*
X26636345Y18405720D01*
X26636345Y18459594D01*
X27848528Y18271033D02*
X27902402Y18217158D01*
X27929340Y18136346D01*
X27929340Y18082471D01*
X27902402Y18001659D01*
X27821590Y17866972D01*
X27686903Y17732285D01*
X27552216Y17651472D01*
X27471404Y17624535D01*
X27417529Y17624535D01*
X27336717Y17651472D01*
X27282842Y17705347D01*
X27255905Y17786159D01*
X27255905Y17840034D01*
X27282842Y17920846D01*
X27363654Y18055533D01*
X27498341Y18190220D01*
X27633028Y18271033D01*
X27713841Y18297970D01*
X27767715Y18297970D01*
X27848528Y18271033D01*
X25989847Y27109408D02*
X26447783Y26651472D01*
X26528595Y26624535D01*
X26582470Y26624535D01*
X26663282Y26651472D01*
X26771032Y26759222D01*
X26797969Y26840034D01*
X26797969Y26893909D01*
X26771032Y26974721D01*
X26313096Y27432657D01*
X26609407Y27621219D02*
X26609407Y27675094D01*
X26636345Y27755906D01*
X26771032Y27890593D01*
X26851844Y27917530D01*
X26905719Y27917530D01*
X26986531Y27890593D01*
X27040406Y27836718D01*
X27094280Y27728968D01*
X27094280Y27082471D01*
X27444467Y27432657D01*
X27713841Y27702031D02*
X27821590Y27809781D01*
X27848528Y27890593D01*
X27848528Y27944468D01*
X27821590Y28079155D01*
X27740778Y28213842D01*
X27525279Y28429341D01*
X27444467Y28456278D01*
X27390592Y28456278D01*
X27309780Y28429341D01*
X27202030Y28321591D01*
X27175093Y28240779D01*
X27175093Y28186904D01*
X27202030Y28106092D01*
X27336717Y27971405D01*
X27417529Y27944468D01*
X27471404Y27944468D01*
X27552216Y27971405D01*
X27659966Y28079155D01*
X27686903Y28159967D01*
X27686903Y28213842D01*
X27659966Y28294654D01*
X26609407Y35010153D02*
X26151471Y34552217D01*
X26124534Y34471405D01*
X26124534Y34417530D01*
X26151471Y34336718D01*
X26259221Y34228968D01*
X26340033Y34202031D01*
X26393908Y34202031D01*
X26474720Y34228968D01*
X26932656Y34686904D01*
X27121218Y34390593D02*
X27175093Y34390593D01*
X27255905Y34363655D01*
X27390592Y34228968D01*
X27417529Y34148156D01*
X27417529Y34094281D01*
X27390592Y34013469D01*
X27336717Y33959594D01*
X27228967Y33905720D01*
X26582470Y33905720D01*
X26932656Y33555533D01*
X27579154Y33555533D02*
X27552216Y33636346D01*
X27552216Y33690220D01*
X27579154Y33771033D01*
X27606091Y33797970D01*
X27686903Y33824907D01*
X27740778Y33824907D01*
X27821590Y33797970D01*
X27929340Y33690220D01*
X27956277Y33609408D01*
X27956277Y33555533D01*
X27929340Y33474721D01*
X27902402Y33447784D01*
X27821590Y33420846D01*
X27767715Y33420846D01*
X27686903Y33447784D01*
X27579154Y33555533D01*
X27498341Y33582471D01*
X27444467Y33582471D01*
X27363654Y33555533D01*
X27255905Y33447784D01*
X27228967Y33366972D01*
X27228967Y33313097D01*
X27255905Y33232285D01*
X27363654Y33124535D01*
X27444467Y33097598D01*
X27498341Y33097598D01*
X27579154Y33124535D01*
X27686903Y33232285D01*
X27713841Y33313097D01*
X27713841Y33366972D01*
X27686903Y33447784D01*
X26489848Y42109408D02*
X26947784Y41651472D01*
X27028596Y41624535D01*
X27082471Y41624535D01*
X27163283Y41651472D01*
X27271033Y41759222D01*
X27297970Y41840034D01*
X27297970Y41893909D01*
X27271033Y41974721D01*
X26813097Y42432657D01*
X27109408Y42621219D02*
X27109408Y42675094D01*
X27136346Y42755906D01*
X27271033Y42890593D01*
X27351845Y42917530D01*
X27405720Y42917530D01*
X27486532Y42890593D01*
X27540407Y42836718D01*
X27594281Y42728968D01*
X27594281Y42082471D01*
X27944468Y42432657D01*
X27567344Y43186904D02*
X27944468Y43564028D01*
X28267716Y42755906D01*
X26609407Y50010153D02*
X26151471Y49552217D01*
X26124534Y49471405D01*
X26124534Y49417530D01*
X26151471Y49336718D01*
X26259221Y49228968D01*
X26340033Y49202031D01*
X26393908Y49202031D01*
X26474720Y49228968D01*
X26932656Y49686904D01*
X27121218Y49390593D02*
X27175093Y49390593D01*
X27255905Y49363655D01*
X27390592Y49228968D01*
X27417529Y49148156D01*
X27417529Y49094281D01*
X27390592Y49013469D01*
X27336717Y48959594D01*
X27228967Y48905720D01*
X26582470Y48905720D01*
X26932656Y48555533D01*
X27983215Y48636346D02*
X27875465Y48744095D01*
X27794653Y48771033D01*
X27740778Y48771033D01*
X27606091Y48744095D01*
X27471404Y48663283D01*
X27255905Y48447784D01*
X27228967Y48366972D01*
X27228967Y48313097D01*
X27255905Y48232285D01*
X27363654Y48124535D01*
X27444467Y48097598D01*
X27498341Y48097598D01*
X27579154Y48124535D01*
X27713841Y48259222D01*
X27740778Y48340034D01*
X27740778Y48393909D01*
X27713841Y48474721D01*
X27606091Y48582471D01*
X27525279Y48609408D01*
X27471404Y48609408D01*
X27390592Y48582471D01*
X22989847Y59299408D02*
X23447783Y58841472D01*
X23528595Y58814535D01*
X23582470Y58814535D01*
X23663282Y58841472D01*
X23771032Y58949222D01*
X23797969Y59030034D01*
X23797969Y59083909D01*
X23771032Y59164721D01*
X23313096Y59622657D01*
X23609407Y59811219D02*
X23609407Y59865094D01*
X23636345Y59945906D01*
X23771032Y60080593D01*
X23851844Y60107530D01*
X23905719Y60107530D01*
X23986531Y60080593D01*
X24040406Y60026718D01*
X24094280Y59918968D01*
X24094280Y59272471D01*
X24444467Y59622657D01*
X24390592Y60700153D02*
X24121218Y60430779D01*
X24363654Y60134468D01*
X24363654Y60188342D01*
X24390592Y60269155D01*
X24525279Y60403842D01*
X24606091Y60430779D01*
X24659966Y60430779D01*
X24740778Y60403842D01*
X24875465Y60269155D01*
X24902402Y60188342D01*
X24902402Y60134468D01*
X24875465Y60053655D01*
X24740778Y59918968D01*
X24659966Y59892031D01*
X24606091Y59892031D01*
X15989847Y59109408D02*
X16447783Y58651472D01*
X16528595Y58624535D01*
X16582470Y58624535D01*
X16663282Y58651472D01*
X16771032Y58759222D01*
X16797969Y58840034D01*
X16797969Y58893909D01*
X16771032Y58974721D01*
X16313096Y59432657D01*
X16609407Y59621219D02*
X16609407Y59675094D01*
X16636345Y59755906D01*
X16771032Y59890593D01*
X16851844Y59917530D01*
X16905719Y59917530D01*
X16986531Y59890593D01*
X17040406Y59836718D01*
X17094280Y59728968D01*
X17094280Y59082471D01*
X17444467Y59432657D01*
X17552216Y60294654D02*
X17929340Y59917530D01*
X17202030Y60375466D02*
X17471404Y59836718D01*
X17821590Y60186904D01*
X18109407Y43510153D02*
X17651471Y43052217D01*
X17624534Y42971405D01*
X17624534Y42917530D01*
X17651471Y42836718D01*
X17759221Y42728968D01*
X17840033Y42702031D01*
X17893908Y42702031D01*
X17974720Y42728968D01*
X18432656Y43186904D01*
X18621218Y42890593D02*
X18675093Y42890593D01*
X18755905Y42863655D01*
X18890592Y42728968D01*
X18917529Y42648156D01*
X18917529Y42594281D01*
X18890592Y42513469D01*
X18836717Y42459594D01*
X18728967Y42405720D01*
X18082470Y42405720D01*
X18432656Y42055533D01*
X19159966Y42351845D02*
X19213841Y42351845D01*
X19294653Y42324907D01*
X19429340Y42190220D01*
X19456277Y42109408D01*
X19456277Y42055533D01*
X19429340Y41974721D01*
X19375465Y41920846D01*
X19267715Y41866972D01*
X18621218Y41866972D01*
X18971404Y41516785D01*
X17489847Y33609408D02*
X17947783Y33151472D01*
X18028595Y33124535D01*
X18082470Y33124535D01*
X18163282Y33151472D01*
X18271032Y33259222D01*
X18297969Y33340034D01*
X18297969Y33393909D01*
X18271032Y33474721D01*
X17813096Y33932657D01*
X18109407Y34121219D02*
X18109407Y34175094D01*
X18136345Y34255906D01*
X18271032Y34390593D01*
X18351844Y34417530D01*
X18405719Y34417530D01*
X18486531Y34390593D01*
X18540406Y34336718D01*
X18594280Y34228968D01*
X18594280Y33582471D01*
X18944467Y33932657D01*
X19483215Y34471405D02*
X19159966Y34148156D01*
X19321590Y34309781D02*
X18755905Y34875466D01*
X18782842Y34740779D01*
X18782842Y34633029D01*
X18755905Y34552217D01*
X18109407Y28510153D02*
X17651471Y28052217D01*
X17624534Y27971405D01*
X17624534Y27917530D01*
X17651471Y27836718D01*
X17759221Y27728968D01*
X17840033Y27702031D01*
X17893908Y27702031D01*
X17974720Y27728968D01*
X18432656Y28186904D01*
X18621218Y27890593D02*
X18675093Y27890593D01*
X18755905Y27863655D01*
X18890592Y27728968D01*
X18917529Y27648156D01*
X18917529Y27594281D01*
X18890592Y27513469D01*
X18836717Y27459594D01*
X18728967Y27405720D01*
X18082470Y27405720D01*
X18432656Y27055533D01*
X19348528Y27271033D02*
X19402402Y27217158D01*
X19429340Y27136346D01*
X19429340Y27082471D01*
X19402402Y27001659D01*
X19321590Y26866972D01*
X19186903Y26732285D01*
X19052216Y26651472D01*
X18971404Y26624535D01*
X18917529Y26624535D01*
X18836717Y26651472D01*
X18782842Y26705347D01*
X18755905Y26786159D01*
X18755905Y26840034D01*
X18782842Y26920846D01*
X18863654Y27055533D01*
X18998341Y27190220D01*
X19133028Y27271033D01*
X19213841Y27297970D01*
X19267715Y27297970D01*
X19348528Y27271033D01*
X18109407Y13010153D02*
X17651471Y12552217D01*
X17624534Y12471405D01*
X17624534Y12417530D01*
X17651471Y12336718D01*
X17759221Y12228968D01*
X17840033Y12202031D01*
X17893908Y12202031D01*
X17974720Y12228968D01*
X18432656Y12686904D01*
X18432656Y11555533D02*
X18109407Y11878782D01*
X18271032Y11717158D02*
X18836717Y12282843D01*
X18702030Y12255906D01*
X18594280Y12255906D01*
X18513468Y12282843D01*
X19079154Y11555533D02*
X19052216Y11636346D01*
X19052216Y11690220D01*
X19079154Y11771033D01*
X19106091Y11797970D01*
X19186903Y11824907D01*
X19240778Y11824907D01*
X19321590Y11797970D01*
X19429340Y11690220D01*
X19456277Y11609408D01*
X19456277Y11555533D01*
X19429340Y11474721D01*
X19402402Y11447784D01*
X19321590Y11420846D01*
X19267715Y11420846D01*
X19186903Y11447784D01*
X19079154Y11555533D01*
X18998341Y11582471D01*
X18944467Y11582471D01*
X18863654Y11555533D01*
X18755905Y11447784D01*
X18728967Y11366972D01*
X18728967Y11313097D01*
X18755905Y11232285D01*
X18863654Y11124535D01*
X18944467Y11097598D01*
X18998341Y11097598D01*
X19079154Y11124535D01*
X19186903Y11232285D01*
X19213841Y11313097D01*
X19213841Y11366972D01*
X19186903Y11447784D01*
X10989847Y11609408D02*
X11447783Y11151472D01*
X11528595Y11124535D01*
X11582470Y11124535D01*
X11663282Y11151472D01*
X11771032Y11259222D01*
X11797969Y11340034D01*
X11797969Y11393909D01*
X11771032Y11474721D01*
X11313096Y11932657D01*
X12444467Y11932657D02*
X12121218Y11609408D01*
X12282842Y11771033D02*
X11717157Y12336718D01*
X11744094Y12202031D01*
X11744094Y12094281D01*
X11717157Y12013469D01*
X12390592Y13010153D02*
X12121218Y12740779D01*
X12363654Y12444468D01*
X12363654Y12498342D01*
X12390592Y12579155D01*
X12525279Y12713842D01*
X12606091Y12740779D01*
X12659966Y12740779D01*
X12740778Y12713842D01*
X12875465Y12579155D01*
X12902402Y12498342D01*
X12902402Y12444468D01*
X12875465Y12363655D01*
X12740778Y12228968D01*
X12659966Y12202031D01*
X12606091Y12202031D01*
X11609407Y19510153D02*
X11151471Y19052217D01*
X11124534Y18971405D01*
X11124534Y18917530D01*
X11151471Y18836718D01*
X11259221Y18728968D01*
X11340033Y18702031D01*
X11393908Y18702031D01*
X11474720Y18728968D01*
X11932656Y19186904D01*
X11932656Y18055533D02*
X11609407Y18378782D01*
X11771032Y18217158D02*
X12336717Y18782843D01*
X12202030Y18755906D01*
X12094280Y18755906D01*
X12013468Y18782843D01*
X12794653Y17947784D02*
X12417529Y17570660D01*
X12875465Y18297970D02*
X12336717Y18028596D01*
X12686903Y17678410D01*
X10989847Y26609408D02*
X11447783Y26151472D01*
X11528595Y26124535D01*
X11582470Y26124535D01*
X11663282Y26151472D01*
X11771032Y26259222D01*
X11797969Y26340034D01*
X11797969Y26393909D01*
X11771032Y26474721D01*
X11313096Y26932657D01*
X12444467Y26932657D02*
X12121218Y26609408D01*
X12282842Y26771033D02*
X11717157Y27336718D01*
X11744094Y27202031D01*
X11744094Y27094281D01*
X11717157Y27013469D01*
X12067343Y27686904D02*
X12417529Y28037090D01*
X12444467Y27633029D01*
X12525279Y27713842D01*
X12606091Y27740779D01*
X12659966Y27740779D01*
X12740778Y27713842D01*
X12875465Y27579155D01*
X12902402Y27498342D01*
X12902402Y27444468D01*
X12875465Y27363655D01*
X12713841Y27202031D01*
X12633028Y27175094D01*
X12579154Y27175094D01*
X11609406Y50010153D02*
X11151470Y49552217D01*
X11124533Y49471405D01*
X11124533Y49417530D01*
X11151470Y49336718D01*
X11259220Y49228968D01*
X11340032Y49202031D01*
X11393907Y49202031D01*
X11474719Y49228968D01*
X11932655Y49686904D01*
X11932655Y48555533D02*
X11609406Y48878782D01*
X11771031Y48717158D02*
X12336716Y49282843D01*
X12202029Y49255906D01*
X12094279Y49255906D01*
X12013467Y49282843D01*
X12848527Y48771033D02*
X12902401Y48717158D01*
X12929339Y48636346D01*
X12929339Y48582471D01*
X12902401Y48501659D01*
X12821589Y48366972D01*
X12686902Y48232285D01*
X12552215Y48151472D01*
X12471403Y48124535D01*
X12417528Y48124535D01*
X12336716Y48151472D01*
X12282841Y48205347D01*
X12255904Y48286159D01*
X12255904Y48340034D01*
X12282841Y48420846D01*
X12363653Y48555533D01*
X12498340Y48690220D01*
X12633027Y48771033D01*
X12713840Y48797970D01*
X12767714Y48797970D01*
X12848527Y48771033D01*
X7489847Y59299408D02*
X7947783Y58841472D01*
X8028595Y58814535D01*
X8082470Y58814535D01*
X8163282Y58841472D01*
X8271032Y58949222D01*
X8297969Y59030034D01*
X8297969Y59083909D01*
X8271032Y59164721D01*
X7813096Y59622657D01*
X8190219Y59999781D02*
X8244094Y60053655D01*
X8324906Y60080593D01*
X8378781Y60080593D01*
X8459593Y60053655D01*
X8594280Y59972843D01*
X8728967Y59838156D01*
X8809780Y59703469D01*
X8836717Y59622657D01*
X8836717Y59568782D01*
X8809780Y59487970D01*
X8755905Y59434095D01*
X8675093Y59407158D01*
X8621218Y59407158D01*
X8540406Y59434095D01*
X8405719Y59514907D01*
X8271032Y59649594D01*
X8190219Y59784281D01*
X8163282Y59865094D01*
X8163282Y59918968D01*
X8190219Y59999781D01*
X9213841Y59892031D02*
X9321590Y59999781D01*
X9348528Y60080593D01*
X9348528Y60134468D01*
X9321590Y60269155D01*
X9240778Y60403842D01*
X9025279Y60619341D01*
X8944467Y60646278D01*
X8890592Y60646278D01*
X8809780Y60619341D01*
X8702030Y60511591D01*
X8675093Y60430779D01*
X8675093Y60376904D01*
X8702030Y60296092D01*
X8836717Y60161405D01*
X8917529Y60134468D01*
X8971404Y60134468D01*
X9052216Y60161405D01*
X9159966Y60269155D01*
X9186903Y60349967D01*
X9186903Y60403842D01*
X9159966Y60484654D01*
X489847Y59109408D02*
X947783Y58651472D01*
X1028595Y58624535D01*
X1082470Y58624535D01*
X1163282Y58651472D01*
X1271032Y58759222D01*
X1297969Y58840034D01*
X1297969Y58893909D01*
X1271032Y58974721D01*
X813096Y59432657D01*
X1190219Y59809781D02*
X1244094Y59863655D01*
X1324906Y59890593D01*
X1378781Y59890593D01*
X1459593Y59863655D01*
X1594280Y59782843D01*
X1728967Y59648156D01*
X1809780Y59513469D01*
X1836717Y59432657D01*
X1836717Y59378782D01*
X1809780Y59297970D01*
X1755905Y59244095D01*
X1675093Y59217158D01*
X1621218Y59217158D01*
X1540406Y59244095D01*
X1405719Y59324907D01*
X1271032Y59459594D01*
X1190219Y59594281D01*
X1163282Y59675094D01*
X1163282Y59728968D01*
X1190219Y59809781D01*
X1944467Y60079155D02*
X1863654Y60052217D01*
X1809780Y60052217D01*
X1728967Y60079155D01*
X1702030Y60106092D01*
X1675093Y60186904D01*
X1675093Y60240779D01*
X1702030Y60321591D01*
X1809780Y60429341D01*
X1890592Y60456278D01*
X1944467Y60456278D01*
X2025279Y60429341D01*
X2052216Y60402403D01*
X2079154Y60321591D01*
X2079154Y60267716D01*
X2052216Y60186904D01*
X1944467Y60079155D01*
X1917529Y59998342D01*
X1917529Y59944468D01*
X1944467Y59863655D01*
X2052216Y59755906D01*
X2133028Y59728968D01*
X2186903Y59728968D01*
X2267715Y59755906D01*
X2375465Y59863655D01*
X2402402Y59944468D01*
X2402402Y59998342D01*
X2375465Y60079155D01*
X2267715Y60186904D01*
X2186903Y60213842D01*
X2133028Y60213842D01*
X2052216Y60186904D01*
X2489846Y48609408D02*
X2947782Y48151472D01*
X3028594Y48124535D01*
X3082469Y48124535D01*
X3163281Y48151472D01*
X3271031Y48259222D01*
X3297968Y48340034D01*
X3297968Y48393909D01*
X3271031Y48474721D01*
X2813095Y48932657D01*
X3190218Y49309781D02*
X3244093Y49363655D01*
X3324905Y49390593D01*
X3378780Y49390593D01*
X3459592Y49363655D01*
X3594279Y49282843D01*
X3728966Y49148156D01*
X3809779Y49013469D01*
X3836716Y48932657D01*
X3836716Y48878782D01*
X3809779Y48797970D01*
X3755904Y48744095D01*
X3675092Y48717158D01*
X3621217Y48717158D01*
X3540405Y48744095D01*
X3405718Y48824907D01*
X3271031Y48959594D01*
X3190218Y49094281D01*
X3163281Y49175094D01*
X3163281Y49228968D01*
X3190218Y49309781D01*
X3567342Y49686904D02*
X3944466Y50064028D01*
X4267714Y49255906D01*
X2489847Y18109408D02*
X2947783Y17651472D01*
X3028595Y17624535D01*
X3082470Y17624535D01*
X3163282Y17651472D01*
X3271032Y17759222D01*
X3297969Y17840034D01*
X3297969Y17893909D01*
X3271032Y17974721D01*
X2813096Y18432657D01*
X3190219Y18809781D02*
X3244094Y18863655D01*
X3324906Y18890593D01*
X3378781Y18890593D01*
X3459593Y18863655D01*
X3594280Y18782843D01*
X3728967Y18648156D01*
X3809780Y18513469D01*
X3836717Y18432657D01*
X3836717Y18378782D01*
X3809780Y18297970D01*
X3755905Y18244095D01*
X3675093Y18217158D01*
X3621218Y18217158D01*
X3540406Y18244095D01*
X3405719Y18324907D01*
X3271032Y18459594D01*
X3190219Y18594281D01*
X3163282Y18675094D01*
X3163282Y18728968D01*
X3190219Y18809781D01*
X3567343Y19186904D02*
X3917529Y19537090D01*
X3944467Y19133029D01*
X4025279Y19213842D01*
X4106091Y19240779D01*
X4159966Y19240779D01*
X4240778Y19213842D01*
X4375465Y19079155D01*
X4402402Y18998342D01*
X4402402Y18944468D01*
X4375465Y18863655D01*
X4213841Y18702031D01*
X4133028Y18675094D01*
X4079154Y18675094D01*
X3109407Y13010153D02*
X2651471Y12552217D01*
X2624534Y12471405D01*
X2624534Y12417530D01*
X2651471Y12336718D01*
X2759221Y12228968D01*
X2840033Y12202031D01*
X2893908Y12202031D01*
X2974720Y12228968D01*
X3432656Y12686904D01*
X3809780Y12309781D02*
X3863654Y12255906D01*
X3890592Y12175094D01*
X3890592Y12121219D01*
X3863654Y12040407D01*
X3782842Y11905720D01*
X3648155Y11771033D01*
X3513468Y11690220D01*
X3432656Y11663283D01*
X3378781Y11663283D01*
X3297969Y11690220D01*
X3244094Y11744095D01*
X3217157Y11824907D01*
X3217157Y11878782D01*
X3244094Y11959594D01*
X3324906Y12094281D01*
X3459593Y12228968D01*
X3594280Y12309781D01*
X3675093Y12336718D01*
X3728967Y12336718D01*
X3809780Y12309781D01*
X4159966Y11851845D02*
X4213841Y11851845D01*
X4294653Y11824907D01*
X4429340Y11690220D01*
X4456277Y11609408D01*
X4456277Y11555533D01*
X4429340Y11474721D01*
X4375465Y11420846D01*
X4267715Y11366972D01*
X3621218Y11366972D01*
X3971404Y11016785D01*
X2609407Y28010153D02*
X2151471Y27552217D01*
X2124534Y27471405D01*
X2124534Y27417530D01*
X2151471Y27336718D01*
X2259221Y27228968D01*
X2340033Y27202031D01*
X2393908Y27202031D01*
X2474720Y27228968D01*
X2932656Y27686904D01*
X3309780Y27309781D02*
X3363654Y27255906D01*
X3390592Y27175094D01*
X3390592Y27121219D01*
X3363654Y27040407D01*
X3282842Y26905720D01*
X3148155Y26771033D01*
X3013468Y26690220D01*
X2932656Y26663283D01*
X2878781Y26663283D01*
X2797969Y26690220D01*
X2744094Y26744095D01*
X2717157Y26824907D01*
X2717157Y26878782D01*
X2744094Y26959594D01*
X2824906Y27094281D01*
X2959593Y27228968D01*
X3094280Y27309781D01*
X3175093Y27336718D01*
X3228967Y27336718D01*
X3309780Y27309781D01*
X3794653Y26447784D02*
X3417529Y26070660D01*
X3875465Y26797970D02*
X3336717Y26528596D01*
X3686903Y26178410D01*
X5489847Y879408D02*
X5947783Y421472D01*
X6028595Y394535D01*
X6082470Y394535D01*
X6163282Y421472D01*
X6271032Y529222D01*
X6297969Y610034D01*
X6297969Y663909D01*
X6271032Y744721D01*
X5813096Y1202657D01*
X6190219Y1579781D02*
X6244094Y1633655D01*
X6324906Y1660593D01*
X6378781Y1660593D01*
X6459593Y1633655D01*
X6594280Y1552843D01*
X6728967Y1418156D01*
X6809780Y1283469D01*
X6836717Y1202657D01*
X6836717Y1148782D01*
X6809780Y1067970D01*
X6755905Y1014095D01*
X6675093Y987158D01*
X6621218Y987158D01*
X6540406Y1014095D01*
X6405719Y1094907D01*
X6271032Y1229594D01*
X6190219Y1364281D01*
X6163282Y1445094D01*
X6163282Y1498968D01*
X6190219Y1579781D01*
X7483215Y1741405D02*
X7159966Y1418156D01*
X7321590Y1579781D02*
X6755905Y2145466D01*
X6782842Y2010779D01*
X6782842Y1903029D01*
X6755905Y1822217D01*
X12489847Y1109408D02*
X12947783Y651472D01*
X13028595Y624535D01*
X13082470Y624535D01*
X13163282Y651472D01*
X13271032Y759222D01*
X13297969Y840034D01*
X13297969Y893909D01*
X13271032Y974721D01*
X12813096Y1432657D01*
X13944467Y1432657D02*
X13621218Y1109408D01*
X13782842Y1271033D02*
X13217157Y1836718D01*
X13244094Y1702031D01*
X13244094Y1594281D01*
X13217157Y1513469D01*
X13863654Y2483216D02*
X13755905Y2375466D01*
X13728967Y2294654D01*
X13728967Y2240779D01*
X13755905Y2106092D01*
X13836717Y1971405D01*
X14052216Y1755906D01*
X14133028Y1728968D01*
X14186903Y1728968D01*
X14267715Y1755906D01*
X14375465Y1863655D01*
X14402402Y1944468D01*
X14402402Y1998342D01*
X14375465Y2079155D01*
X14240778Y2213842D01*
X14159966Y2240779D01*
X14106091Y2240779D01*
X14025279Y2213842D01*
X13917529Y2106092D01*
X13890592Y2025280D01*
X13890592Y1971405D01*
X13917529Y1890593D01*
X20989847Y1109408D02*
X21447783Y651472D01*
X21528595Y624535D01*
X21582470Y624535D01*
X21663282Y651472D01*
X21771032Y759222D01*
X21797969Y840034D01*
X21797969Y893909D01*
X21771032Y974721D01*
X21313096Y1432657D01*
X22444467Y1432657D02*
X22121218Y1109408D01*
X22282842Y1271033D02*
X21717157Y1836718D01*
X21744094Y1702031D01*
X21744094Y1594281D01*
X21717157Y1513469D01*
X22067343Y2186904D02*
X22444467Y2564028D01*
X22767715Y1755906D01*
X27989847Y1109408D02*
X28447783Y651472D01*
X28528595Y624535D01*
X28582470Y624535D01*
X28663282Y651472D01*
X28771032Y759222D01*
X28797969Y840034D01*
X28797969Y893909D01*
X28771032Y974721D01*
X28313096Y1432657D01*
X28528595Y1648156D02*
X28878781Y1998342D01*
X28905719Y1594281D01*
X28986531Y1675094D01*
X29067343Y1702031D01*
X29121218Y1702031D01*
X29202030Y1675094D01*
X29336717Y1540407D01*
X29363654Y1459594D01*
X29363654Y1405720D01*
X29336717Y1324907D01*
X29175093Y1163283D01*
X29094280Y1136346D01*
X29040406Y1136346D01*
X29148155Y2159967D02*
X29148155Y2213842D01*
X29175093Y2294654D01*
X29309780Y2429341D01*
X29390592Y2456278D01*
X29444467Y2456278D01*
X29525279Y2429341D01*
X29579154Y2375466D01*
X29633028Y2267716D01*
X29633028Y1621219D01*
X29983215Y1971405D01*
X36489847Y879408D02*
X36947783Y421472D01*
X37028595Y394535D01*
X37082470Y394535D01*
X37163282Y421472D01*
X37271032Y529222D01*
X37297969Y610034D01*
X37297969Y663909D01*
X37271032Y744721D01*
X36813096Y1202657D01*
X37028595Y1418156D02*
X37378781Y1768342D01*
X37405719Y1364281D01*
X37486531Y1445094D01*
X37567343Y1472031D01*
X37621218Y1472031D01*
X37702030Y1445094D01*
X37836717Y1310407D01*
X37863654Y1229594D01*
X37863654Y1175720D01*
X37836717Y1094907D01*
X37675093Y933283D01*
X37594280Y906346D01*
X37540406Y906346D01*
X37567343Y1956904D02*
X37917529Y2307090D01*
X37944467Y1903029D01*
X38025279Y1983842D01*
X38106091Y2010779D01*
X38159966Y2010779D01*
X38240778Y1983842D01*
X38375465Y1849155D01*
X38402402Y1768342D01*
X38402402Y1714468D01*
X38375465Y1633655D01*
X38213841Y1472031D01*
X38133028Y1445094D01*
X38079154Y1445094D01*
X42989847Y1109408D02*
X43447783Y651472D01*
X43528595Y624535D01*
X43582470Y624535D01*
X43663282Y651472D01*
X43771032Y759222D01*
X43797969Y840034D01*
X43797969Y893909D01*
X43771032Y974721D01*
X43313096Y1432657D01*
X44013468Y1755906D02*
X44390592Y1378782D01*
X43663282Y1836718D02*
X43932656Y1297970D01*
X44282842Y1648156D01*
X44444467Y2079155D02*
X44363654Y2052217D01*
X44309780Y2052217D01*
X44228967Y2079155D01*
X44202030Y2106092D01*
X44175093Y2186904D01*
X44175093Y2240779D01*
X44202030Y2321591D01*
X44309780Y2429341D01*
X44390592Y2456278D01*
X44444467Y2456278D01*
X44525279Y2429341D01*
X44552216Y2402403D01*
X44579154Y2321591D01*
X44579154Y2267716D01*
X44552216Y2186904D01*
X44444467Y2079155D01*
X44417529Y1998342D01*
X44417529Y1944468D01*
X44444467Y1863655D01*
X44552216Y1755906D01*
X44633028Y1728968D01*
X44686903Y1728968D01*
X44767715Y1755906D01*
X44875465Y1863655D01*
X44902402Y1944468D01*
X44902402Y1998342D01*
X44875465Y2079155D01*
X44767715Y2186904D01*
X44686903Y2213842D01*
X44633028Y2213842D01*
X44552216Y2186904D01*
X51489847Y879408D02*
X51947783Y421472D01*
X52028595Y394535D01*
X52082470Y394535D01*
X52163282Y421472D01*
X52271032Y529222D01*
X52297969Y610034D01*
X52297969Y663909D01*
X52271032Y744721D01*
X51813096Y1202657D01*
X52513468Y1525906D02*
X52890592Y1148782D01*
X52163282Y1606718D02*
X52432656Y1067970D01*
X52782842Y1418156D01*
X53213841Y1472031D02*
X53321590Y1579781D01*
X53348528Y1660593D01*
X53348528Y1714468D01*
X53321590Y1849155D01*
X53240778Y1983842D01*
X53025279Y2199341D01*
X52944467Y2226278D01*
X52890592Y2226278D01*
X52809780Y2199341D01*
X52702030Y2091591D01*
X52675093Y2010779D01*
X52675093Y1956904D01*
X52702030Y1876092D01*
X52836717Y1741405D01*
X52917529Y1714468D01*
X52971404Y1714468D01*
X53052216Y1741405D01*
X53159966Y1849155D01*
X53186903Y1929967D01*
X53186903Y1983842D01*
X53159966Y2064654D01*
X59299407Y7510153D02*
X58841471Y7052217D01*
X58814534Y6971405D01*
X58814534Y6917530D01*
X58841471Y6836718D01*
X58949221Y6728968D01*
X59030033Y6702031D01*
X59083908Y6702031D01*
X59164720Y6728968D01*
X59622656Y7186904D01*
X60134467Y6675094D02*
X60026717Y6782843D01*
X59945905Y6809781D01*
X59892030Y6809781D01*
X59757343Y6782843D01*
X59622656Y6702031D01*
X59407157Y6486532D01*
X59380219Y6405720D01*
X59380219Y6351845D01*
X59407157Y6271033D01*
X59514906Y6163283D01*
X59595719Y6136346D01*
X59649593Y6136346D01*
X59730406Y6163283D01*
X59865093Y6297970D01*
X59892030Y6378782D01*
X59892030Y6432657D01*
X59865093Y6513469D01*
X59757343Y6621219D01*
X59676531Y6648156D01*
X59622656Y6648156D01*
X59541844Y6621219D01*
X60484653Y5947784D02*
X60107529Y5570660D01*
X60565465Y6297970D02*
X60026717Y6028596D01*
X60376903Y5678410D01*
X41489847Y42109408D02*
X41947783Y41651472D01*
X42028595Y41624535D01*
X42082470Y41624535D01*
X42163282Y41651472D01*
X42271032Y41759222D01*
X42297969Y41840034D01*
X42297969Y41893909D01*
X42271032Y41974721D01*
X41813096Y42432657D01*
X42513468Y42755906D02*
X42890592Y42378782D01*
X42163282Y42836718D02*
X42432656Y42297970D01*
X42782842Y42648156D01*
X42567343Y43186904D02*
X42917529Y43537090D01*
X42944467Y43133029D01*
X43025279Y43213842D01*
X43106091Y43240779D01*
X43159966Y43240779D01*
X43240778Y43213842D01*
X43375465Y43079155D01*
X43402402Y42998342D01*
X43402402Y42944468D01*
X43375465Y42863655D01*
X43213841Y42702031D01*
X43133028Y42675094D01*
X43079154Y42675094D01*
X56489847Y11609407D02*
X56947783Y11151471D01*
X57028595Y11124534D01*
X57082470Y11124534D01*
X57163282Y11151471D01*
X57271032Y11259221D01*
X57297969Y11340033D01*
X57297969Y11393908D01*
X57271032Y11474720D01*
X56813096Y11932656D01*
X57324906Y12444467D02*
X57217157Y12336717D01*
X57190219Y12255905D01*
X57190219Y12202030D01*
X57217157Y12067343D01*
X57297969Y11932656D01*
X57513468Y11717157D01*
X57594280Y11690219D01*
X57648155Y11690219D01*
X57728967Y11717157D01*
X57836717Y11824906D01*
X57863654Y11905719D01*
X57863654Y11959593D01*
X57836717Y12040406D01*
X57702030Y12175093D01*
X57621218Y12202030D01*
X57567343Y12202030D01*
X57486531Y12175093D01*
X57378781Y12067343D01*
X57351844Y11986531D01*
X57351844Y11932656D01*
X57378781Y11851844D01*
X57567343Y12686903D02*
X57917529Y13037089D01*
X57944467Y12633028D01*
X58025279Y12713841D01*
X58106091Y12740778D01*
X58159966Y12740778D01*
X58240778Y12713841D01*
X58375465Y12579154D01*
X58402402Y12498341D01*
X58402402Y12444467D01*
X58375465Y12363654D01*
X58213841Y12202030D01*
X58133028Y12175093D01*
X58079154Y12175093D01*
%LPC*%
D13*
X53340000Y7620000D03*
X53340000Y53340000D03*
X38100000Y22860000D03*
X22860000Y22860000D03*
X7620000Y53340000D03*
X7620000Y7620000D03*
X22860000Y38100000D03*
X38100000Y38100000D03*
D10*
G36*
X23086166Y49105736D02*
X21737006Y47756576D01*
X20387846Y49105736D01*
X21737006Y50454896D01*
X23086166Y49105736D01*
X23086166Y49105736D01*
G37*
G36*
X19974896Y52217006D02*
X18625736Y50867846D01*
X17276576Y52217006D01*
X18625736Y53566166D01*
X19974896Y52217006D01*
X19974896Y52217006D01*
G37*
G36*
X18808169Y51050280D02*
X17529720Y49771831D01*
X16180561Y51120990D01*
X17459010Y52399439D01*
X18808169Y51050280D01*
X18808169Y51050280D01*
G37*
G36*
X21919439Y47939010D02*
X20640990Y46660561D01*
X19291831Y48009720D01*
X20570280Y49288169D01*
X21919439Y47939010D01*
X21919439Y47939010D01*
G37*
G36*
X20823424Y46842994D02*
X19474264Y45493834D01*
X18125104Y46842994D01*
X19474264Y48192154D01*
X20823424Y46842994D01*
X20823424Y46842994D01*
G37*
G36*
X17712154Y49954264D02*
X16362994Y48605104D01*
X15013834Y49954264D01*
X16362994Y51303424D01*
X17712154Y49954264D01*
X17712154Y49954264D01*
G37*
D14*
X20747056Y49954264D03*
X19474264Y51227056D03*
D10*
G36*
X57574264Y38326166D02*
X58923424Y36977006D01*
X57574264Y35627846D01*
X56225104Y36977006D01*
X57574264Y38326166D01*
X57574264Y38326166D01*
G37*
G36*
X54462994Y35214896D02*
X55812154Y33865736D01*
X54462994Y32516576D01*
X53113834Y33865736D01*
X54462994Y35214896D01*
X54462994Y35214896D01*
G37*
G36*
X55629720Y34048169D02*
X56908169Y32769720D01*
X55559010Y31420561D01*
X54280561Y32699010D01*
X55629720Y34048169D01*
X55629720Y34048169D01*
G37*
G36*
X58740990Y37159439D02*
X60019439Y35880990D01*
X58670280Y34531831D01*
X57391831Y35810280D01*
X58740990Y37159439D01*
X58740990Y37159439D01*
G37*
G36*
X59837006Y36063424D02*
X61186166Y34714264D01*
X59837006Y33365104D01*
X58487846Y34714264D01*
X59837006Y36063424D01*
X59837006Y36063424D01*
G37*
G36*
X56725736Y32952154D02*
X58074896Y31602994D01*
X56725736Y30253834D01*
X55376576Y31602994D01*
X56725736Y32952154D01*
X56725736Y32952154D01*
G37*
D14*
X56725736Y35987056D03*
X55452944Y34714264D03*
D10*
G36*
X53113834Y42334264D02*
X54462994Y43683424D01*
X55812154Y42334264D01*
X54462994Y40985104D01*
X53113834Y42334264D01*
X53113834Y42334264D01*
G37*
G36*
X56225104Y39222994D02*
X57574264Y40572154D01*
X58923424Y39222994D01*
X57574264Y37873834D01*
X56225104Y39222994D01*
X56225104Y39222994D01*
G37*
G36*
X57391831Y40389720D02*
X58670280Y41668169D01*
X60019439Y40319010D01*
X58740990Y39040561D01*
X57391831Y40389720D01*
X57391831Y40389720D01*
G37*
G36*
X54280561Y43500990D02*
X55559010Y44779439D01*
X56908169Y43430280D01*
X55629720Y42151831D01*
X54280561Y43500990D01*
X54280561Y43500990D01*
G37*
G36*
X55376576Y44597006D02*
X56725736Y45946166D01*
X58074896Y44597006D01*
X56725736Y43247846D01*
X55376576Y44597006D01*
X55376576Y44597006D01*
G37*
G36*
X58487846Y41485736D02*
X59837006Y42834896D01*
X61186166Y41485736D01*
X59837006Y40136576D01*
X58487846Y41485736D01*
X58487846Y41485736D01*
G37*
D14*
X55452944Y41485736D03*
X56725736Y40212944D03*
D10*
G36*
X49105736Y37873834D02*
X47756576Y39222994D01*
X49105736Y40572154D01*
X50454896Y39222994D01*
X49105736Y37873834D01*
X49105736Y37873834D01*
G37*
G36*
X52217006Y40985104D02*
X50867846Y42334264D01*
X52217006Y43683424D01*
X53566166Y42334264D01*
X52217006Y40985104D01*
X52217006Y40985104D01*
G37*
G36*
X51050280Y42151831D02*
X49771831Y43430280D01*
X51120990Y44779439D01*
X52399439Y43500990D01*
X51050280Y42151831D01*
X51050280Y42151831D01*
G37*
G36*
X47939010Y39040561D02*
X46660561Y40319010D01*
X48009720Y41668169D01*
X49288169Y40389720D01*
X47939010Y39040561D01*
X47939010Y39040561D01*
G37*
G36*
X46842994Y40136576D02*
X45493834Y41485736D01*
X46842994Y42834896D01*
X48192154Y41485736D01*
X46842994Y40136576D01*
X46842994Y40136576D01*
G37*
G36*
X49954264Y43247846D02*
X48605104Y44597006D01*
X49954264Y45946166D01*
X51303424Y44597006D01*
X49954264Y43247846D01*
X49954264Y43247846D01*
G37*
D14*
X49954264Y40212944D03*
X51227056Y41485736D03*
D10*
G36*
X53566166Y33865736D02*
X52217006Y32516576D01*
X50867846Y33865736D01*
X52217006Y35214896D01*
X53566166Y33865736D01*
X53566166Y33865736D01*
G37*
G36*
X50454896Y36977006D02*
X49105736Y35627846D01*
X47756576Y36977006D01*
X49105736Y38326166D01*
X50454896Y36977006D01*
X50454896Y36977006D01*
G37*
G36*
X49288169Y35810280D02*
X48009720Y34531831D01*
X46660561Y35880990D01*
X47939010Y37159439D01*
X49288169Y35810280D01*
X49288169Y35810280D01*
G37*
G36*
X52399439Y32699010D02*
X51120990Y31420561D01*
X49771831Y32769720D01*
X51050280Y34048169D01*
X52399439Y32699010D01*
X52399439Y32699010D01*
G37*
G36*
X51303424Y31602994D02*
X49954264Y30253834D01*
X48605104Y31602994D01*
X49954264Y32952154D01*
X51303424Y31602994D01*
X51303424Y31602994D01*
G37*
G36*
X48192154Y34714264D02*
X46842994Y33365104D01*
X45493834Y34714264D01*
X46842994Y36063424D01*
X48192154Y34714264D01*
X48192154Y34714264D01*
G37*
D14*
X51227056Y34714264D03*
X49954264Y35987056D03*
D10*
G36*
X33865736Y37873834D02*
X32516576Y39222994D01*
X33865736Y40572154D01*
X35214896Y39222994D01*
X33865736Y37873834D01*
X33865736Y37873834D01*
G37*
G36*
X36977006Y40985104D02*
X35627846Y42334264D01*
X36977006Y43683424D01*
X38326166Y42334264D01*
X36977006Y40985104D01*
X36977006Y40985104D01*
G37*
G36*
X35810280Y42151831D02*
X34531831Y43430280D01*
X35880990Y44779439D01*
X37159439Y43500990D01*
X35810280Y42151831D01*
X35810280Y42151831D01*
G37*
G36*
X32699010Y39040561D02*
X31420561Y40319010D01*
X32769720Y41668169D01*
X34048169Y40389720D01*
X32699010Y39040561D01*
X32699010Y39040561D01*
G37*
G36*
X31602994Y40136576D02*
X30253834Y41485736D01*
X31602994Y42834896D01*
X32952154Y41485736D01*
X31602994Y40136576D01*
X31602994Y40136576D01*
G37*
G36*
X34714264Y43247846D02*
X33365104Y44597006D01*
X34714264Y45946166D01*
X36063424Y44597006D01*
X34714264Y43247846D01*
X34714264Y43247846D01*
G37*
D14*
X34714264Y40212944D03*
X35987056Y41485736D03*
D10*
G36*
X23086166Y18625736D02*
X21737006Y17276576D01*
X20387846Y18625736D01*
X21737006Y19974896D01*
X23086166Y18625736D01*
X23086166Y18625736D01*
G37*
G36*
X19974896Y21737006D02*
X18625736Y20387846D01*
X17276576Y21737006D01*
X18625736Y23086166D01*
X19974896Y21737006D01*
X19974896Y21737006D01*
G37*
G36*
X18808169Y20570280D02*
X17529720Y19291831D01*
X16180561Y20640990D01*
X17459010Y21919439D01*
X18808169Y20570280D01*
X18808169Y20570280D01*
G37*
G36*
X21919439Y17459010D02*
X20640990Y16180561D01*
X19291831Y17529720D01*
X20570280Y18808169D01*
X21919439Y17459010D01*
X21919439Y17459010D01*
G37*
G36*
X20823424Y16362994D02*
X19474264Y15013834D01*
X18125104Y16362994D01*
X19474264Y17712154D01*
X20823424Y16362994D01*
X20823424Y16362994D01*
G37*
G36*
X17712154Y19474264D02*
X16362994Y18125104D01*
X15013834Y19474264D01*
X16362994Y20823424D01*
X17712154Y19474264D01*
X17712154Y19474264D01*
G37*
D14*
X20747056Y19474264D03*
X19474264Y20747056D03*
D10*
G36*
X11854264Y38326166D02*
X13203424Y36977006D01*
X11854264Y35627846D01*
X10505104Y36977006D01*
X11854264Y38326166D01*
X11854264Y38326166D01*
G37*
G36*
X8742994Y35214896D02*
X10092154Y33865736D01*
X8742994Y32516576D01*
X7393834Y33865736D01*
X8742994Y35214896D01*
X8742994Y35214896D01*
G37*
G36*
X9909720Y34048169D02*
X11188169Y32769720D01*
X9839010Y31420561D01*
X8560561Y32699010D01*
X9909720Y34048169D01*
X9909720Y34048169D01*
G37*
G36*
X13020990Y37159439D02*
X14299439Y35880990D01*
X12950280Y34531831D01*
X11671831Y35810280D01*
X13020990Y37159439D01*
X13020990Y37159439D01*
G37*
G36*
X14117006Y36063424D02*
X15466166Y34714264D01*
X14117006Y33365104D01*
X12767846Y34714264D01*
X14117006Y36063424D01*
X14117006Y36063424D01*
G37*
G36*
X11005736Y32952154D02*
X12354896Y31602994D01*
X11005736Y30253834D01*
X9656576Y31602994D01*
X11005736Y32952154D01*
X11005736Y32952154D01*
G37*
D14*
X11005736Y35987056D03*
X9732944Y34714264D03*
D10*
G36*
X7393834Y42334264D02*
X8742994Y43683424D01*
X10092154Y42334264D01*
X8742994Y40985104D01*
X7393834Y42334264D01*
X7393834Y42334264D01*
G37*
G36*
X10505104Y39222994D02*
X11854264Y40572154D01*
X13203424Y39222994D01*
X11854264Y37873834D01*
X10505104Y39222994D01*
X10505104Y39222994D01*
G37*
G36*
X11671831Y40389720D02*
X12950280Y41668169D01*
X14299439Y40319010D01*
X13020990Y39040561D01*
X11671831Y40389720D01*
X11671831Y40389720D01*
G37*
G36*
X8560561Y43500990D02*
X9839010Y44779439D01*
X11188169Y43430280D01*
X9909720Y42151831D01*
X8560561Y43500990D01*
X8560561Y43500990D01*
G37*
G36*
X9656576Y44597006D02*
X11005736Y45946166D01*
X12354896Y44597006D01*
X11005736Y43247846D01*
X9656576Y44597006D01*
X9656576Y44597006D01*
G37*
G36*
X12767846Y41485736D02*
X14117006Y42834896D01*
X15466166Y41485736D01*
X14117006Y40136576D01*
X12767846Y41485736D01*
X12767846Y41485736D01*
G37*
D14*
X9732944Y41485736D03*
X11005736Y40212944D03*
D10*
G36*
X3385736Y37873834D02*
X2036576Y39222994D01*
X3385736Y40572154D01*
X4734896Y39222994D01*
X3385736Y37873834D01*
X3385736Y37873834D01*
G37*
G36*
X6497006Y40985104D02*
X5147846Y42334264D01*
X6497006Y43683424D01*
X7846166Y42334264D01*
X6497006Y40985104D01*
X6497006Y40985104D01*
G37*
G36*
X5330280Y42151831D02*
X4051831Y43430280D01*
X5400990Y44779439D01*
X6679439Y43500990D01*
X5330280Y42151831D01*
X5330280Y42151831D01*
G37*
G36*
X2219010Y39040561D02*
X940561Y40319010D01*
X2289720Y41668169D01*
X3568169Y40389720D01*
X2219010Y39040561D01*
X2219010Y39040561D01*
G37*
G36*
X1122994Y40136576D02*
X-226166Y41485736D01*
X1122994Y42834896D01*
X2472154Y41485736D01*
X1122994Y40136576D01*
X1122994Y40136576D01*
G37*
G36*
X4234264Y43247846D02*
X2885104Y44597006D01*
X4234264Y45946166D01*
X5583424Y44597006D01*
X4234264Y43247846D01*
X4234264Y43247846D01*
G37*
D14*
X4234264Y40212944D03*
X5507056Y41485736D03*
D10*
G36*
X7846166Y33865736D02*
X6497006Y32516576D01*
X5147846Y33865736D01*
X6497006Y35214896D01*
X7846166Y33865736D01*
X7846166Y33865736D01*
G37*
G36*
X4734896Y36977006D02*
X3385736Y35627846D01*
X2036576Y36977006D01*
X3385736Y38326166D01*
X4734896Y36977006D01*
X4734896Y36977006D01*
G37*
G36*
X3568169Y35810280D02*
X2289720Y34531831D01*
X940561Y35880990D01*
X2219010Y37159439D01*
X3568169Y35810280D01*
X3568169Y35810280D01*
G37*
G36*
X6679439Y32699010D02*
X5400990Y31420561D01*
X4051831Y32769720D01*
X5330280Y34048169D01*
X6679439Y32699010D01*
X6679439Y32699010D01*
G37*
G36*
X5583424Y31602994D02*
X4234264Y30253834D01*
X2885104Y31602994D01*
X4234264Y32952154D01*
X5583424Y31602994D01*
X5583424Y31602994D01*
G37*
G36*
X2472154Y34714264D02*
X1122994Y33365104D01*
X-226166Y34714264D01*
X1122994Y36063424D01*
X2472154Y34714264D01*
X2472154Y34714264D01*
G37*
D14*
X5507056Y34714264D03*
X4234264Y35987056D03*
D10*
G36*
X57574264Y23086166D02*
X58923424Y21737006D01*
X57574264Y20387846D01*
X56225104Y21737006D01*
X57574264Y23086166D01*
X57574264Y23086166D01*
G37*
G36*
X54462994Y19974896D02*
X55812154Y18625736D01*
X54462994Y17276576D01*
X53113834Y18625736D01*
X54462994Y19974896D01*
X54462994Y19974896D01*
G37*
G36*
X55629720Y18808169D02*
X56908169Y17529720D01*
X55559010Y16180561D01*
X54280561Y17459010D01*
X55629720Y18808169D01*
X55629720Y18808169D01*
G37*
G36*
X58740990Y21919439D02*
X60019439Y20640990D01*
X58670280Y19291831D01*
X57391831Y20570280D01*
X58740990Y21919439D01*
X58740990Y21919439D01*
G37*
G36*
X59837006Y20823424D02*
X61186166Y19474264D01*
X59837006Y18125104D01*
X58487846Y19474264D01*
X59837006Y20823424D01*
X59837006Y20823424D01*
G37*
G36*
X56725736Y17712154D02*
X58074896Y16362994D01*
X56725736Y15013834D01*
X55376576Y16362994D01*
X56725736Y17712154D01*
X56725736Y17712154D01*
G37*
D14*
X56725736Y20747056D03*
X55452944Y19474264D03*
D10*
G36*
X53113834Y27094264D02*
X54462994Y28443424D01*
X55812154Y27094264D01*
X54462994Y25745104D01*
X53113834Y27094264D01*
X53113834Y27094264D01*
G37*
G36*
X56225104Y23982994D02*
X57574264Y25332154D01*
X58923424Y23982994D01*
X57574264Y22633834D01*
X56225104Y23982994D01*
X56225104Y23982994D01*
G37*
G36*
X57391831Y25149720D02*
X58670280Y26428169D01*
X60019439Y25079010D01*
X58740990Y23800561D01*
X57391831Y25149720D01*
X57391831Y25149720D01*
G37*
G36*
X54280561Y28260990D02*
X55559010Y29539439D01*
X56908169Y28190280D01*
X55629720Y26911831D01*
X54280561Y28260990D01*
X54280561Y28260990D01*
G37*
G36*
X55376576Y29357006D02*
X56725736Y30706166D01*
X58074896Y29357006D01*
X56725736Y28007846D01*
X55376576Y29357006D01*
X55376576Y29357006D01*
G37*
G36*
X58487846Y26245736D02*
X59837006Y27594896D01*
X61186166Y26245736D01*
X59837006Y24896576D01*
X58487846Y26245736D01*
X58487846Y26245736D01*
G37*
D14*
X55452944Y26245736D03*
X56725736Y24972944D03*
D10*
G36*
X57574264Y53566166D02*
X58923424Y52217006D01*
X57574264Y50867846D01*
X56225104Y52217006D01*
X57574264Y53566166D01*
X57574264Y53566166D01*
G37*
G36*
X54462994Y50454896D02*
X55812154Y49105736D01*
X54462994Y47756576D01*
X53113834Y49105736D01*
X54462994Y50454896D01*
X54462994Y50454896D01*
G37*
G36*
X55629720Y49288169D02*
X56908169Y48009720D01*
X55559010Y46660561D01*
X54280561Y47939010D01*
X55629720Y49288169D01*
X55629720Y49288169D01*
G37*
G36*
X58740990Y52399439D02*
X60019439Y51120990D01*
X58670280Y49771831D01*
X57391831Y51050280D01*
X58740990Y52399439D01*
X58740990Y52399439D01*
G37*
G36*
X59837006Y51303424D02*
X61186166Y49954264D01*
X59837006Y48605104D01*
X58487846Y49954264D01*
X59837006Y51303424D01*
X59837006Y51303424D01*
G37*
G36*
X56725736Y48192154D02*
X58074896Y46842994D01*
X56725736Y45493834D01*
X55376576Y46842994D01*
X56725736Y48192154D01*
X56725736Y48192154D01*
G37*
D14*
X56725736Y51227056D03*
X55452944Y49954264D03*
D10*
G36*
X53113834Y57574264D02*
X54462994Y58923424D01*
X55812154Y57574264D01*
X54462994Y56225104D01*
X53113834Y57574264D01*
X53113834Y57574264D01*
G37*
G36*
X56225104Y54462994D02*
X57574264Y55812154D01*
X58923424Y54462994D01*
X57574264Y53113834D01*
X56225104Y54462994D01*
X56225104Y54462994D01*
G37*
G36*
X57391831Y55629720D02*
X58670280Y56908169D01*
X60019439Y55559010D01*
X58740990Y54280561D01*
X57391831Y55629720D01*
X57391831Y55629720D01*
G37*
G36*
X54280561Y58740990D02*
X55559010Y60019439D01*
X56908169Y58670280D01*
X55629720Y57391831D01*
X54280561Y58740990D01*
X54280561Y58740990D01*
G37*
G36*
X55376576Y59837006D02*
X56725736Y61186166D01*
X58074896Y59837006D01*
X56725736Y58487846D01*
X55376576Y59837006D01*
X55376576Y59837006D01*
G37*
G36*
X58487846Y56725736D02*
X59837006Y58074896D01*
X61186166Y56725736D01*
X59837006Y55376576D01*
X58487846Y56725736D01*
X58487846Y56725736D01*
G37*
D14*
X55452944Y56725736D03*
X56725736Y55452944D03*
D10*
G36*
X49105736Y53113834D02*
X47756576Y54462994D01*
X49105736Y55812154D01*
X50454896Y54462994D01*
X49105736Y53113834D01*
X49105736Y53113834D01*
G37*
G36*
X52217006Y56225104D02*
X50867846Y57574264D01*
X52217006Y58923424D01*
X53566166Y57574264D01*
X52217006Y56225104D01*
X52217006Y56225104D01*
G37*
G36*
X51050280Y57391831D02*
X49771831Y58670280D01*
X51120990Y60019439D01*
X52399439Y58740990D01*
X51050280Y57391831D01*
X51050280Y57391831D01*
G37*
G36*
X47939010Y54280561D02*
X46660561Y55559010D01*
X48009720Y56908169D01*
X49288169Y55629720D01*
X47939010Y54280561D01*
X47939010Y54280561D01*
G37*
G36*
X46842994Y55376576D02*
X45493834Y56725736D01*
X46842994Y58074896D01*
X48192154Y56725736D01*
X46842994Y55376576D01*
X46842994Y55376576D01*
G37*
G36*
X49954264Y58487846D02*
X48605104Y59837006D01*
X49954264Y61186166D01*
X51303424Y59837006D01*
X49954264Y58487846D01*
X49954264Y58487846D01*
G37*
D14*
X49954264Y55452944D03*
X51227056Y56725736D03*
D10*
G36*
X53566166Y49105736D02*
X52217006Y47756576D01*
X50867846Y49105736D01*
X52217006Y50454896D01*
X53566166Y49105736D01*
X53566166Y49105736D01*
G37*
G36*
X50454896Y52217006D02*
X49105736Y50867846D01*
X47756576Y52217006D01*
X49105736Y53566166D01*
X50454896Y52217006D01*
X50454896Y52217006D01*
G37*
G36*
X49288169Y51050280D02*
X48009720Y49771831D01*
X46660561Y51120990D01*
X47939010Y52399439D01*
X49288169Y51050280D01*
X49288169Y51050280D01*
G37*
G36*
X52399439Y47939010D02*
X51120990Y46660561D01*
X49771831Y48009720D01*
X51050280Y49288169D01*
X52399439Y47939010D01*
X52399439Y47939010D01*
G37*
G36*
X51303424Y46842994D02*
X49954264Y45493834D01*
X48605104Y46842994D01*
X49954264Y48192154D01*
X51303424Y46842994D01*
X51303424Y46842994D01*
G37*
G36*
X48192154Y49954264D02*
X46842994Y48605104D01*
X45493834Y49954264D01*
X46842994Y51303424D01*
X48192154Y49954264D01*
X48192154Y49954264D01*
G37*
D14*
X51227056Y49954264D03*
X49954264Y51227056D03*
D10*
G36*
X49105736Y22633834D02*
X47756576Y23982994D01*
X49105736Y25332154D01*
X50454896Y23982994D01*
X49105736Y22633834D01*
X49105736Y22633834D01*
G37*
G36*
X52217006Y25745104D02*
X50867846Y27094264D01*
X52217006Y28443424D01*
X53566166Y27094264D01*
X52217006Y25745104D01*
X52217006Y25745104D01*
G37*
G36*
X51050280Y26911831D02*
X49771831Y28190280D01*
X51120990Y29539439D01*
X52399439Y28260990D01*
X51050280Y26911831D01*
X51050280Y26911831D01*
G37*
G36*
X47939010Y23800561D02*
X46660561Y25079010D01*
X48009720Y26428169D01*
X49288169Y25149720D01*
X47939010Y23800561D01*
X47939010Y23800561D01*
G37*
G36*
X46842994Y24896576D02*
X45493834Y26245736D01*
X46842994Y27594896D01*
X48192154Y26245736D01*
X46842994Y24896576D01*
X46842994Y24896576D01*
G37*
G36*
X49954264Y28007846D02*
X48605104Y29357006D01*
X49954264Y30706166D01*
X51303424Y29357006D01*
X49954264Y28007846D01*
X49954264Y28007846D01*
G37*
D14*
X49954264Y24972944D03*
X51227056Y26245736D03*
D10*
G36*
X53566166Y18625736D02*
X52217006Y17276576D01*
X50867846Y18625736D01*
X52217006Y19974896D01*
X53566166Y18625736D01*
X53566166Y18625736D01*
G37*
G36*
X50454896Y21737006D02*
X49105736Y20387846D01*
X47756576Y21737006D01*
X49105736Y23086166D01*
X50454896Y21737006D01*
X50454896Y21737006D01*
G37*
G36*
X49288169Y20570280D02*
X48009720Y19291831D01*
X46660561Y20640990D01*
X47939010Y21919439D01*
X49288169Y20570280D01*
X49288169Y20570280D01*
G37*
G36*
X52399439Y17459010D02*
X51120990Y16180561D01*
X49771831Y17529720D01*
X51050280Y18808169D01*
X52399439Y17459010D01*
X52399439Y17459010D01*
G37*
G36*
X51303424Y16362994D02*
X49954264Y15013834D01*
X48605104Y16362994D01*
X49954264Y17712154D01*
X51303424Y16362994D01*
X51303424Y16362994D01*
G37*
G36*
X48192154Y19474264D02*
X46842994Y18125104D01*
X45493834Y19474264D01*
X46842994Y20823424D01*
X48192154Y19474264D01*
X48192154Y19474264D01*
G37*
D14*
X51227056Y19474264D03*
X49954264Y20747056D03*
D10*
G36*
X49105736Y7393834D02*
X47756576Y8742994D01*
X49105736Y10092154D01*
X50454896Y8742994D01*
X49105736Y7393834D01*
X49105736Y7393834D01*
G37*
G36*
X52217006Y10505104D02*
X50867846Y11854264D01*
X52217006Y13203424D01*
X53566166Y11854264D01*
X52217006Y10505104D01*
X52217006Y10505104D01*
G37*
G36*
X51050280Y11671831D02*
X49771831Y12950280D01*
X51120990Y14299439D01*
X52399439Y13020990D01*
X51050280Y11671831D01*
X51050280Y11671831D01*
G37*
G36*
X47939010Y8560561D02*
X46660561Y9839010D01*
X48009720Y11188169D01*
X49288169Y9909720D01*
X47939010Y8560561D01*
X47939010Y8560561D01*
G37*
G36*
X46842994Y9656576D02*
X45493834Y11005736D01*
X46842994Y12354896D01*
X48192154Y11005736D01*
X46842994Y9656576D01*
X46842994Y9656576D01*
G37*
G36*
X49954264Y12767846D02*
X48605104Y14117006D01*
X49954264Y15466166D01*
X51303424Y14117006D01*
X49954264Y12767846D01*
X49954264Y12767846D01*
G37*
D14*
X49954264Y9732944D03*
X51227056Y11005736D03*
D10*
G36*
X37873834Y11854264D02*
X39222994Y13203424D01*
X40572154Y11854264D01*
X39222994Y10505104D01*
X37873834Y11854264D01*
X37873834Y11854264D01*
G37*
G36*
X40985104Y8742994D02*
X42334264Y10092154D01*
X43683424Y8742994D01*
X42334264Y7393834D01*
X40985104Y8742994D01*
X40985104Y8742994D01*
G37*
G36*
X42151831Y9909720D02*
X43430280Y11188169D01*
X44779439Y9839010D01*
X43500990Y8560561D01*
X42151831Y9909720D01*
X42151831Y9909720D01*
G37*
G36*
X39040561Y13020990D02*
X40319010Y14299439D01*
X41668169Y12950280D01*
X40389720Y11671831D01*
X39040561Y13020990D01*
X39040561Y13020990D01*
G37*
G36*
X40136576Y14117006D02*
X41485736Y15466166D01*
X42834896Y14117006D01*
X41485736Y12767846D01*
X40136576Y14117006D01*
X40136576Y14117006D01*
G37*
G36*
X43247846Y11005736D02*
X44597006Y12354896D01*
X45946166Y11005736D01*
X44597006Y9656576D01*
X43247846Y11005736D01*
X43247846Y11005736D01*
G37*
D14*
X40212944Y11005736D03*
X41485736Y9732944D03*
D10*
G36*
X42334264Y23086166D02*
X43683424Y21737006D01*
X42334264Y20387846D01*
X40985104Y21737006D01*
X42334264Y23086166D01*
X42334264Y23086166D01*
G37*
G36*
X39222994Y19974896D02*
X40572154Y18625736D01*
X39222994Y17276576D01*
X37873834Y18625736D01*
X39222994Y19974896D01*
X39222994Y19974896D01*
G37*
G36*
X40389720Y18808169D02*
X41668169Y17529720D01*
X40319010Y16180561D01*
X39040561Y17459010D01*
X40389720Y18808169D01*
X40389720Y18808169D01*
G37*
G36*
X43500990Y21919439D02*
X44779439Y20640990D01*
X43430280Y19291831D01*
X42151831Y20570280D01*
X43500990Y21919439D01*
X43500990Y21919439D01*
G37*
G36*
X44597006Y20823424D02*
X45946166Y19474264D01*
X44597006Y18125104D01*
X43247846Y19474264D01*
X44597006Y20823424D01*
X44597006Y20823424D01*
G37*
G36*
X41485736Y17712154D02*
X42834896Y16362994D01*
X41485736Y15013834D01*
X40136576Y16362994D01*
X41485736Y17712154D01*
X41485736Y17712154D01*
G37*
D14*
X41485736Y20747056D03*
X40212944Y19474264D03*
D10*
G36*
X37873834Y27094264D02*
X39222994Y28443424D01*
X40572154Y27094264D01*
X39222994Y25745104D01*
X37873834Y27094264D01*
X37873834Y27094264D01*
G37*
G36*
X40985104Y23982994D02*
X42334264Y25332154D01*
X43683424Y23982994D01*
X42334264Y22633834D01*
X40985104Y23982994D01*
X40985104Y23982994D01*
G37*
G36*
X42151831Y25149720D02*
X43430280Y26428169D01*
X44779439Y25079010D01*
X43500990Y23800561D01*
X42151831Y25149720D01*
X42151831Y25149720D01*
G37*
G36*
X39040561Y28260990D02*
X40319010Y29539439D01*
X41668169Y28190280D01*
X40389720Y26911831D01*
X39040561Y28260990D01*
X39040561Y28260990D01*
G37*
G36*
X40136576Y29357006D02*
X41485736Y30706166D01*
X42834896Y29357006D01*
X41485736Y28007846D01*
X40136576Y29357006D01*
X40136576Y29357006D01*
G37*
G36*
X43247846Y26245736D02*
X44597006Y27594896D01*
X45946166Y26245736D01*
X44597006Y24896576D01*
X43247846Y26245736D01*
X43247846Y26245736D01*
G37*
D14*
X40212944Y26245736D03*
X41485736Y24972944D03*
D10*
G36*
X42334264Y38326166D02*
X43683424Y36977006D01*
X42334264Y35627846D01*
X40985104Y36977006D01*
X42334264Y38326166D01*
X42334264Y38326166D01*
G37*
G36*
X39222994Y35214896D02*
X40572154Y33865736D01*
X39222994Y32516576D01*
X37873834Y33865736D01*
X39222994Y35214896D01*
X39222994Y35214896D01*
G37*
G36*
X40389720Y34048169D02*
X41668169Y32769720D01*
X40319010Y31420561D01*
X39040561Y32699010D01*
X40389720Y34048169D01*
X40389720Y34048169D01*
G37*
G36*
X43500990Y37159439D02*
X44779439Y35880990D01*
X43430280Y34531831D01*
X42151831Y35810280D01*
X43500990Y37159439D01*
X43500990Y37159439D01*
G37*
G36*
X44597006Y36063424D02*
X45946166Y34714264D01*
X44597006Y33365104D01*
X43247846Y34714264D01*
X44597006Y36063424D01*
X44597006Y36063424D01*
G37*
G36*
X41485736Y32952154D02*
X42834896Y31602994D01*
X41485736Y30253834D01*
X40136576Y31602994D01*
X41485736Y32952154D01*
X41485736Y32952154D01*
G37*
D14*
X41485736Y35987056D03*
X40212944Y34714264D03*
D10*
G36*
X42334264Y53566166D02*
X43683424Y52217006D01*
X42334264Y50867846D01*
X40985104Y52217006D01*
X42334264Y53566166D01*
X42334264Y53566166D01*
G37*
G36*
X39222994Y50454896D02*
X40572154Y49105736D01*
X39222994Y47756576D01*
X37873834Y49105736D01*
X39222994Y50454896D01*
X39222994Y50454896D01*
G37*
G36*
X40389720Y49288169D02*
X41668169Y48009720D01*
X40319010Y46660561D01*
X39040561Y47939010D01*
X40389720Y49288169D01*
X40389720Y49288169D01*
G37*
G36*
X43500990Y52399439D02*
X44779439Y51120990D01*
X43430280Y49771831D01*
X42151831Y51050280D01*
X43500990Y52399439D01*
X43500990Y52399439D01*
G37*
G36*
X44597006Y51303424D02*
X45946166Y49954264D01*
X44597006Y48605104D01*
X43247846Y49954264D01*
X44597006Y51303424D01*
X44597006Y51303424D01*
G37*
G36*
X41485736Y48192154D02*
X42834896Y46842994D01*
X41485736Y45493834D01*
X40136576Y46842994D01*
X41485736Y48192154D01*
X41485736Y48192154D01*
G37*
D14*
X41485736Y51227056D03*
X40212944Y49954264D03*
D10*
G36*
X37873834Y57574264D02*
X39222994Y58923424D01*
X40572154Y57574264D01*
X39222994Y56225104D01*
X37873834Y57574264D01*
X37873834Y57574264D01*
G37*
G36*
X40985104Y54462994D02*
X42334264Y55812154D01*
X43683424Y54462994D01*
X42334264Y53113834D01*
X40985104Y54462994D01*
X40985104Y54462994D01*
G37*
G36*
X42151831Y55629720D02*
X43430280Y56908169D01*
X44779439Y55559010D01*
X43500990Y54280561D01*
X42151831Y55629720D01*
X42151831Y55629720D01*
G37*
G36*
X39040561Y58740990D02*
X40319010Y60019439D01*
X41668169Y58670280D01*
X40389720Y57391831D01*
X39040561Y58740990D01*
X39040561Y58740990D01*
G37*
G36*
X40136576Y59837006D02*
X41485736Y61186166D01*
X42834896Y59837006D01*
X41485736Y58487846D01*
X40136576Y59837006D01*
X40136576Y59837006D01*
G37*
G36*
X43247846Y56725736D02*
X44597006Y58074896D01*
X45946166Y56725736D01*
X44597006Y55376576D01*
X43247846Y56725736D01*
X43247846Y56725736D01*
G37*
D14*
X40212944Y56725736D03*
X41485736Y55452944D03*
D10*
G36*
X33865736Y53113834D02*
X32516576Y54462994D01*
X33865736Y55812154D01*
X35214896Y54462994D01*
X33865736Y53113834D01*
X33865736Y53113834D01*
G37*
G36*
X36977006Y56225104D02*
X35627846Y57574264D01*
X36977006Y58923424D01*
X38326166Y57574264D01*
X36977006Y56225104D01*
X36977006Y56225104D01*
G37*
G36*
X35810280Y57391831D02*
X34531831Y58670280D01*
X35880990Y60019439D01*
X37159439Y58740990D01*
X35810280Y57391831D01*
X35810280Y57391831D01*
G37*
G36*
X32699010Y54280561D02*
X31420561Y55559010D01*
X32769720Y56908169D01*
X34048169Y55629720D01*
X32699010Y54280561D01*
X32699010Y54280561D01*
G37*
G36*
X31602994Y55376576D02*
X30253834Y56725736D01*
X31602994Y58074896D01*
X32952154Y56725736D01*
X31602994Y55376576D01*
X31602994Y55376576D01*
G37*
G36*
X34714264Y58487846D02*
X33365104Y59837006D01*
X34714264Y61186166D01*
X36063424Y59837006D01*
X34714264Y58487846D01*
X34714264Y58487846D01*
G37*
D14*
X34714264Y55452944D03*
X35987056Y56725736D03*
D10*
G36*
X38326166Y49105736D02*
X36977006Y47756576D01*
X35627846Y49105736D01*
X36977006Y50454896D01*
X38326166Y49105736D01*
X38326166Y49105736D01*
G37*
G36*
X35214896Y52217006D02*
X33865736Y50867846D01*
X32516576Y52217006D01*
X33865736Y53566166D01*
X35214896Y52217006D01*
X35214896Y52217006D01*
G37*
G36*
X34048169Y51050280D02*
X32769720Y49771831D01*
X31420561Y51120990D01*
X32699010Y52399439D01*
X34048169Y51050280D01*
X34048169Y51050280D01*
G37*
G36*
X37159439Y47939010D02*
X35880990Y46660561D01*
X34531831Y48009720D01*
X35810280Y49288169D01*
X37159439Y47939010D01*
X37159439Y47939010D01*
G37*
G36*
X36063424Y46842994D02*
X34714264Y45493834D01*
X33365104Y46842994D01*
X34714264Y48192154D01*
X36063424Y46842994D01*
X36063424Y46842994D01*
G37*
G36*
X32952154Y49954264D02*
X31602994Y48605104D01*
X30253834Y49954264D01*
X31602994Y51303424D01*
X32952154Y49954264D01*
X32952154Y49954264D01*
G37*
D14*
X35987056Y49954264D03*
X34714264Y51227056D03*
D10*
G36*
X38326166Y33865736D02*
X36977006Y32516576D01*
X35627846Y33865736D01*
X36977006Y35214896D01*
X38326166Y33865736D01*
X38326166Y33865736D01*
G37*
G36*
X35214896Y36977006D02*
X33865736Y35627846D01*
X32516576Y36977006D01*
X33865736Y38326166D01*
X35214896Y36977006D01*
X35214896Y36977006D01*
G37*
G36*
X34048169Y35810280D02*
X32769720Y34531831D01*
X31420561Y35880990D01*
X32699010Y37159439D01*
X34048169Y35810280D01*
X34048169Y35810280D01*
G37*
G36*
X37159439Y32699010D02*
X35880990Y31420561D01*
X34531831Y32769720D01*
X35810280Y34048169D01*
X37159439Y32699010D01*
X37159439Y32699010D01*
G37*
G36*
X36063424Y31602994D02*
X34714264Y30253834D01*
X33365104Y31602994D01*
X34714264Y32952154D01*
X36063424Y31602994D01*
X36063424Y31602994D01*
G37*
G36*
X32952154Y34714264D02*
X31602994Y33365104D01*
X30253834Y34714264D01*
X31602994Y36063424D01*
X32952154Y34714264D01*
X32952154Y34714264D01*
G37*
D14*
X35987056Y34714264D03*
X34714264Y35987056D03*
D10*
G36*
X33865736Y22633834D02*
X32516576Y23982994D01*
X33865736Y25332154D01*
X35214896Y23982994D01*
X33865736Y22633834D01*
X33865736Y22633834D01*
G37*
G36*
X36977006Y25745104D02*
X35627846Y27094264D01*
X36977006Y28443424D01*
X38326166Y27094264D01*
X36977006Y25745104D01*
X36977006Y25745104D01*
G37*
G36*
X35810280Y26911831D02*
X34531831Y28190280D01*
X35880990Y29539439D01*
X37159439Y28260990D01*
X35810280Y26911831D01*
X35810280Y26911831D01*
G37*
G36*
X32699010Y23800561D02*
X31420561Y25079010D01*
X32769720Y26428169D01*
X34048169Y25149720D01*
X32699010Y23800561D01*
X32699010Y23800561D01*
G37*
G36*
X31602994Y24896576D02*
X30253834Y26245736D01*
X31602994Y27594896D01*
X32952154Y26245736D01*
X31602994Y24896576D01*
X31602994Y24896576D01*
G37*
G36*
X34714264Y28007846D02*
X33365104Y29357006D01*
X34714264Y30706166D01*
X36063424Y29357006D01*
X34714264Y28007846D01*
X34714264Y28007846D01*
G37*
D14*
X34714264Y24972944D03*
X35987056Y26245736D03*
D10*
G36*
X38326166Y18625736D02*
X36977006Y17276576D01*
X35627846Y18625736D01*
X36977006Y19974896D01*
X38326166Y18625736D01*
X38326166Y18625736D01*
G37*
G36*
X35214896Y21737006D02*
X33865736Y20387846D01*
X32516576Y21737006D01*
X33865736Y23086166D01*
X35214896Y21737006D01*
X35214896Y21737006D01*
G37*
G36*
X34048169Y20570280D02*
X32769720Y19291831D01*
X31420561Y20640990D01*
X32699010Y21919439D01*
X34048169Y20570280D01*
X34048169Y20570280D01*
G37*
G36*
X37159439Y17459010D02*
X35880990Y16180561D01*
X34531831Y17529720D01*
X35810280Y18808169D01*
X37159439Y17459010D01*
X37159439Y17459010D01*
G37*
G36*
X36063424Y16362994D02*
X34714264Y15013834D01*
X33365104Y16362994D01*
X34714264Y17712154D01*
X36063424Y16362994D01*
X36063424Y16362994D01*
G37*
G36*
X32952154Y19474264D02*
X31602994Y18125104D01*
X30253834Y19474264D01*
X31602994Y20823424D01*
X32952154Y19474264D01*
X32952154Y19474264D01*
G37*
D14*
X35987056Y19474264D03*
X34714264Y20747056D03*
D10*
G36*
X33865736Y7393834D02*
X32516576Y8742994D01*
X33865736Y10092154D01*
X35214896Y8742994D01*
X33865736Y7393834D01*
X33865736Y7393834D01*
G37*
G36*
X36977006Y10505104D02*
X35627846Y11854264D01*
X36977006Y13203424D01*
X38326166Y11854264D01*
X36977006Y10505104D01*
X36977006Y10505104D01*
G37*
G36*
X35810280Y11671831D02*
X34531831Y12950280D01*
X35880990Y14299439D01*
X37159439Y13020990D01*
X35810280Y11671831D01*
X35810280Y11671831D01*
G37*
G36*
X32699010Y8560561D02*
X31420561Y9839010D01*
X32769720Y11188169D01*
X34048169Y9909720D01*
X32699010Y8560561D01*
X32699010Y8560561D01*
G37*
G36*
X31602994Y9656576D02*
X30253834Y11005736D01*
X31602994Y12354896D01*
X32952154Y11005736D01*
X31602994Y9656576D01*
X31602994Y9656576D01*
G37*
G36*
X34714264Y12767846D02*
X33365104Y14117006D01*
X34714264Y15466166D01*
X36063424Y14117006D01*
X34714264Y12767846D01*
X34714264Y12767846D01*
G37*
D14*
X34714264Y9732944D03*
X35987056Y11005736D03*
D10*
G36*
X22633834Y11854264D02*
X23982994Y13203424D01*
X25332154Y11854264D01*
X23982994Y10505104D01*
X22633834Y11854264D01*
X22633834Y11854264D01*
G37*
G36*
X25745104Y8742994D02*
X27094264Y10092154D01*
X28443424Y8742994D01*
X27094264Y7393834D01*
X25745104Y8742994D01*
X25745104Y8742994D01*
G37*
G36*
X26911831Y9909720D02*
X28190280Y11188169D01*
X29539439Y9839010D01*
X28260990Y8560561D01*
X26911831Y9909720D01*
X26911831Y9909720D01*
G37*
G36*
X23800561Y13020990D02*
X25079010Y14299439D01*
X26428169Y12950280D01*
X25149720Y11671831D01*
X23800561Y13020990D01*
X23800561Y13020990D01*
G37*
G36*
X24896576Y14117006D02*
X26245736Y15466166D01*
X27594896Y14117006D01*
X26245736Y12767846D01*
X24896576Y14117006D01*
X24896576Y14117006D01*
G37*
G36*
X28007846Y11005736D02*
X29357006Y12354896D01*
X30706166Y11005736D01*
X29357006Y9656576D01*
X28007846Y11005736D01*
X28007846Y11005736D01*
G37*
D14*
X24972944Y11005736D03*
X26245736Y9732944D03*
D10*
G36*
X27094264Y23086166D02*
X28443424Y21737006D01*
X27094264Y20387846D01*
X25745104Y21737006D01*
X27094264Y23086166D01*
X27094264Y23086166D01*
G37*
G36*
X23982994Y19974896D02*
X25332154Y18625736D01*
X23982994Y17276576D01*
X22633834Y18625736D01*
X23982994Y19974896D01*
X23982994Y19974896D01*
G37*
G36*
X25149720Y18808169D02*
X26428169Y17529720D01*
X25079010Y16180561D01*
X23800561Y17459010D01*
X25149720Y18808169D01*
X25149720Y18808169D01*
G37*
G36*
X28260990Y21919439D02*
X29539439Y20640990D01*
X28190280Y19291831D01*
X26911831Y20570280D01*
X28260990Y21919439D01*
X28260990Y21919439D01*
G37*
G36*
X29357006Y20823424D02*
X30706166Y19474264D01*
X29357006Y18125104D01*
X28007846Y19474264D01*
X29357006Y20823424D01*
X29357006Y20823424D01*
G37*
G36*
X26245736Y17712154D02*
X27594896Y16362994D01*
X26245736Y15013834D01*
X24896576Y16362994D01*
X26245736Y17712154D01*
X26245736Y17712154D01*
G37*
D14*
X26245736Y20747056D03*
X24972944Y19474264D03*
D10*
G36*
X22633834Y27094264D02*
X23982994Y28443424D01*
X25332154Y27094264D01*
X23982994Y25745104D01*
X22633834Y27094264D01*
X22633834Y27094264D01*
G37*
G36*
X25745104Y23982994D02*
X27094264Y25332154D01*
X28443424Y23982994D01*
X27094264Y22633834D01*
X25745104Y23982994D01*
X25745104Y23982994D01*
G37*
G36*
X26911831Y25149720D02*
X28190280Y26428169D01*
X29539439Y25079010D01*
X28260990Y23800561D01*
X26911831Y25149720D01*
X26911831Y25149720D01*
G37*
G36*
X23800561Y28260990D02*
X25079010Y29539439D01*
X26428169Y28190280D01*
X25149720Y26911831D01*
X23800561Y28260990D01*
X23800561Y28260990D01*
G37*
G36*
X24896576Y29357006D02*
X26245736Y30706166D01*
X27594896Y29357006D01*
X26245736Y28007846D01*
X24896576Y29357006D01*
X24896576Y29357006D01*
G37*
G36*
X28007846Y26245736D02*
X29357006Y27594896D01*
X30706166Y26245736D01*
X29357006Y24896576D01*
X28007846Y26245736D01*
X28007846Y26245736D01*
G37*
D14*
X24972944Y26245736D03*
X26245736Y24972944D03*
D10*
G36*
X27094264Y38326166D02*
X28443424Y36977006D01*
X27094264Y35627846D01*
X25745104Y36977006D01*
X27094264Y38326166D01*
X27094264Y38326166D01*
G37*
G36*
X23982994Y35214896D02*
X25332154Y33865736D01*
X23982994Y32516576D01*
X22633834Y33865736D01*
X23982994Y35214896D01*
X23982994Y35214896D01*
G37*
G36*
X25149720Y34048169D02*
X26428169Y32769720D01*
X25079010Y31420561D01*
X23800561Y32699010D01*
X25149720Y34048169D01*
X25149720Y34048169D01*
G37*
G36*
X28260990Y37159439D02*
X29539439Y35880990D01*
X28190280Y34531831D01*
X26911831Y35810280D01*
X28260990Y37159439D01*
X28260990Y37159439D01*
G37*
G36*
X29357006Y36063424D02*
X30706166Y34714264D01*
X29357006Y33365104D01*
X28007846Y34714264D01*
X29357006Y36063424D01*
X29357006Y36063424D01*
G37*
G36*
X26245736Y32952154D02*
X27594896Y31602994D01*
X26245736Y30253834D01*
X24896576Y31602994D01*
X26245736Y32952154D01*
X26245736Y32952154D01*
G37*
D14*
X26245736Y35987056D03*
X24972944Y34714264D03*
D10*
G36*
X22633834Y42334264D02*
X23982994Y43683424D01*
X25332154Y42334264D01*
X23982994Y40985104D01*
X22633834Y42334264D01*
X22633834Y42334264D01*
G37*
G36*
X25745104Y39222994D02*
X27094264Y40572154D01*
X28443424Y39222994D01*
X27094264Y37873834D01*
X25745104Y39222994D01*
X25745104Y39222994D01*
G37*
G36*
X26911831Y40389720D02*
X28190280Y41668169D01*
X29539439Y40319010D01*
X28260990Y39040561D01*
X26911831Y40389720D01*
X26911831Y40389720D01*
G37*
G36*
X23800561Y43500990D02*
X25079010Y44779439D01*
X26428169Y43430280D01*
X25149720Y42151831D01*
X23800561Y43500990D01*
X23800561Y43500990D01*
G37*
G36*
X24896576Y44597006D02*
X26245736Y45946166D01*
X27594896Y44597006D01*
X26245736Y43247846D01*
X24896576Y44597006D01*
X24896576Y44597006D01*
G37*
G36*
X28007846Y41485736D02*
X29357006Y42834896D01*
X30706166Y41485736D01*
X29357006Y40136576D01*
X28007846Y41485736D01*
X28007846Y41485736D01*
G37*
D14*
X24972944Y41485736D03*
X26245736Y40212944D03*
D10*
G36*
X27094264Y53566166D02*
X28443424Y52217006D01*
X27094264Y50867846D01*
X25745104Y52217006D01*
X27094264Y53566166D01*
X27094264Y53566166D01*
G37*
G36*
X23982994Y50454896D02*
X25332154Y49105736D01*
X23982994Y47756576D01*
X22633834Y49105736D01*
X23982994Y50454896D01*
X23982994Y50454896D01*
G37*
G36*
X25149720Y49288169D02*
X26428169Y48009720D01*
X25079010Y46660561D01*
X23800561Y47939010D01*
X25149720Y49288169D01*
X25149720Y49288169D01*
G37*
G36*
X28260990Y52399439D02*
X29539439Y51120990D01*
X28190280Y49771831D01*
X26911831Y51050280D01*
X28260990Y52399439D01*
X28260990Y52399439D01*
G37*
G36*
X29357006Y51303424D02*
X30706166Y49954264D01*
X29357006Y48605104D01*
X28007846Y49954264D01*
X29357006Y51303424D01*
X29357006Y51303424D01*
G37*
G36*
X26245736Y48192154D02*
X27594896Y46842994D01*
X26245736Y45493834D01*
X24896576Y46842994D01*
X26245736Y48192154D01*
X26245736Y48192154D01*
G37*
D14*
X26245736Y51227056D03*
X24972944Y49954264D03*
D10*
G36*
X22633834Y57574264D02*
X23982994Y58923424D01*
X25332154Y57574264D01*
X23982994Y56225104D01*
X22633834Y57574264D01*
X22633834Y57574264D01*
G37*
G36*
X25745104Y54462994D02*
X27094264Y55812154D01*
X28443424Y54462994D01*
X27094264Y53113834D01*
X25745104Y54462994D01*
X25745104Y54462994D01*
G37*
G36*
X26911831Y55629720D02*
X28190280Y56908169D01*
X29539439Y55559010D01*
X28260990Y54280561D01*
X26911831Y55629720D01*
X26911831Y55629720D01*
G37*
G36*
X23800561Y58740990D02*
X25079010Y60019439D01*
X26428169Y58670280D01*
X25149720Y57391831D01*
X23800561Y58740990D01*
X23800561Y58740990D01*
G37*
G36*
X24896576Y59837006D02*
X26245736Y61186166D01*
X27594896Y59837006D01*
X26245736Y58487846D01*
X24896576Y59837006D01*
X24896576Y59837006D01*
G37*
G36*
X28007846Y56725736D02*
X29357006Y58074896D01*
X30706166Y56725736D01*
X29357006Y55376576D01*
X28007846Y56725736D01*
X28007846Y56725736D01*
G37*
D14*
X24972944Y56725736D03*
X26245736Y55452944D03*
D10*
G36*
X18625736Y53113834D02*
X17276576Y54462994D01*
X18625736Y55812154D01*
X19974896Y54462994D01*
X18625736Y53113834D01*
X18625736Y53113834D01*
G37*
G36*
X21737006Y56225104D02*
X20387846Y57574264D01*
X21737006Y58923424D01*
X23086166Y57574264D01*
X21737006Y56225104D01*
X21737006Y56225104D01*
G37*
G36*
X20570280Y57391831D02*
X19291831Y58670280D01*
X20640990Y60019439D01*
X21919439Y58740990D01*
X20570280Y57391831D01*
X20570280Y57391831D01*
G37*
G36*
X17459010Y54280561D02*
X16180561Y55559010D01*
X17529720Y56908169D01*
X18808169Y55629720D01*
X17459010Y54280561D01*
X17459010Y54280561D01*
G37*
G36*
X16362994Y55376576D02*
X15013834Y56725736D01*
X16362994Y58074896D01*
X17712154Y56725736D01*
X16362994Y55376576D01*
X16362994Y55376576D01*
G37*
G36*
X19474264Y58487846D02*
X18125104Y59837006D01*
X19474264Y61186166D01*
X20823424Y59837006D01*
X19474264Y58487846D01*
X19474264Y58487846D01*
G37*
D14*
X19474264Y55452944D03*
X20747056Y56725736D03*
D10*
G36*
X18625736Y37873834D02*
X17276576Y39222994D01*
X18625736Y40572154D01*
X19974896Y39222994D01*
X18625736Y37873834D01*
X18625736Y37873834D01*
G37*
G36*
X21737006Y40985104D02*
X20387846Y42334264D01*
X21737006Y43683424D01*
X23086166Y42334264D01*
X21737006Y40985104D01*
X21737006Y40985104D01*
G37*
G36*
X20570280Y42151831D02*
X19291831Y43430280D01*
X20640990Y44779439D01*
X21919439Y43500990D01*
X20570280Y42151831D01*
X20570280Y42151831D01*
G37*
G36*
X17459010Y39040561D02*
X16180561Y40319010D01*
X17529720Y41668169D01*
X18808169Y40389720D01*
X17459010Y39040561D01*
X17459010Y39040561D01*
G37*
G36*
X16362994Y40136576D02*
X15013834Y41485736D01*
X16362994Y42834896D01*
X17712154Y41485736D01*
X16362994Y40136576D01*
X16362994Y40136576D01*
G37*
G36*
X19474264Y43247846D02*
X18125104Y44597006D01*
X19474264Y45946166D01*
X20823424Y44597006D01*
X19474264Y43247846D01*
X19474264Y43247846D01*
G37*
D14*
X19474264Y40212944D03*
X20747056Y41485736D03*
D10*
G36*
X23086166Y33865736D02*
X21737006Y32516576D01*
X20387846Y33865736D01*
X21737006Y35214896D01*
X23086166Y33865736D01*
X23086166Y33865736D01*
G37*
G36*
X19974896Y36977006D02*
X18625736Y35627846D01*
X17276576Y36977006D01*
X18625736Y38326166D01*
X19974896Y36977006D01*
X19974896Y36977006D01*
G37*
G36*
X18808169Y35810280D02*
X17529720Y34531831D01*
X16180561Y35880990D01*
X17459010Y37159439D01*
X18808169Y35810280D01*
X18808169Y35810280D01*
G37*
G36*
X21919439Y32699010D02*
X20640990Y31420561D01*
X19291831Y32769720D01*
X20570280Y34048169D01*
X21919439Y32699010D01*
X21919439Y32699010D01*
G37*
G36*
X20823424Y31602994D02*
X19474264Y30253834D01*
X18125104Y31602994D01*
X19474264Y32952154D01*
X20823424Y31602994D01*
X20823424Y31602994D01*
G37*
G36*
X17712154Y34714264D02*
X16362994Y33365104D01*
X15013834Y34714264D01*
X16362994Y36063424D01*
X17712154Y34714264D01*
X17712154Y34714264D01*
G37*
D14*
X20747056Y34714264D03*
X19474264Y35987056D03*
D10*
G36*
X18625736Y22633834D02*
X17276576Y23982994D01*
X18625736Y25332154D01*
X19974896Y23982994D01*
X18625736Y22633834D01*
X18625736Y22633834D01*
G37*
G36*
X21737006Y25745104D02*
X20387846Y27094264D01*
X21737006Y28443424D01*
X23086166Y27094264D01*
X21737006Y25745104D01*
X21737006Y25745104D01*
G37*
G36*
X20570280Y26911831D02*
X19291831Y28190280D01*
X20640990Y29539439D01*
X21919439Y28260990D01*
X20570280Y26911831D01*
X20570280Y26911831D01*
G37*
G36*
X17459010Y23800561D02*
X16180561Y25079010D01*
X17529720Y26428169D01*
X18808169Y25149720D01*
X17459010Y23800561D01*
X17459010Y23800561D01*
G37*
G36*
X16362994Y24896576D02*
X15013834Y26245736D01*
X16362994Y27594896D01*
X17712154Y26245736D01*
X16362994Y24896576D01*
X16362994Y24896576D01*
G37*
G36*
X19474264Y28007846D02*
X18125104Y29357006D01*
X19474264Y30706166D01*
X20823424Y29357006D01*
X19474264Y28007846D01*
X19474264Y28007846D01*
G37*
D14*
X19474264Y24972944D03*
X20747056Y26245736D03*
D10*
G36*
X18625736Y7393834D02*
X17276576Y8742994D01*
X18625736Y10092154D01*
X19974896Y8742994D01*
X18625736Y7393834D01*
X18625736Y7393834D01*
G37*
G36*
X21737006Y10505104D02*
X20387846Y11854264D01*
X21737006Y13203424D01*
X23086166Y11854264D01*
X21737006Y10505104D01*
X21737006Y10505104D01*
G37*
G36*
X20570280Y11671831D02*
X19291831Y12950280D01*
X20640990Y14299439D01*
X21919439Y13020990D01*
X20570280Y11671831D01*
X20570280Y11671831D01*
G37*
G36*
X17459010Y8560561D02*
X16180561Y9839010D01*
X17529720Y11188169D01*
X18808169Y9909720D01*
X17459010Y8560561D01*
X17459010Y8560561D01*
G37*
G36*
X16362994Y9656576D02*
X15013834Y11005736D01*
X16362994Y12354896D01*
X17712154Y11005736D01*
X16362994Y9656576D01*
X16362994Y9656576D01*
G37*
G36*
X19474264Y12767846D02*
X18125104Y14117006D01*
X19474264Y15466166D01*
X20823424Y14117006D01*
X19474264Y12767846D01*
X19474264Y12767846D01*
G37*
D14*
X19474264Y9732944D03*
X20747056Y11005736D03*
D10*
G36*
X7393834Y11854264D02*
X8742994Y13203424D01*
X10092154Y11854264D01*
X8742994Y10505104D01*
X7393834Y11854264D01*
X7393834Y11854264D01*
G37*
G36*
X10505104Y8742994D02*
X11854264Y10092154D01*
X13203424Y8742994D01*
X11854264Y7393834D01*
X10505104Y8742994D01*
X10505104Y8742994D01*
G37*
G36*
X11671831Y9909720D02*
X12950280Y11188169D01*
X14299439Y9839010D01*
X13020990Y8560561D01*
X11671831Y9909720D01*
X11671831Y9909720D01*
G37*
G36*
X8560561Y13020990D02*
X9839010Y14299439D01*
X11188169Y12950280D01*
X9909720Y11671831D01*
X8560561Y13020990D01*
X8560561Y13020990D01*
G37*
G36*
X9656576Y14117006D02*
X11005736Y15466166D01*
X12354896Y14117006D01*
X11005736Y12767846D01*
X9656576Y14117006D01*
X9656576Y14117006D01*
G37*
G36*
X12767846Y11005736D02*
X14117006Y12354896D01*
X15466166Y11005736D01*
X14117006Y9656576D01*
X12767846Y11005736D01*
X12767846Y11005736D01*
G37*
D14*
X9732944Y11005736D03*
X11005736Y9732944D03*
D10*
G36*
X11854264Y23086166D02*
X13203424Y21737006D01*
X11854264Y20387846D01*
X10505104Y21737006D01*
X11854264Y23086166D01*
X11854264Y23086166D01*
G37*
G36*
X8742994Y19974896D02*
X10092154Y18625736D01*
X8742994Y17276576D01*
X7393834Y18625736D01*
X8742994Y19974896D01*
X8742994Y19974896D01*
G37*
G36*
X9909720Y18808169D02*
X11188169Y17529720D01*
X9839010Y16180561D01*
X8560561Y17459010D01*
X9909720Y18808169D01*
X9909720Y18808169D01*
G37*
G36*
X13020990Y21919439D02*
X14299439Y20640990D01*
X12950280Y19291831D01*
X11671831Y20570280D01*
X13020990Y21919439D01*
X13020990Y21919439D01*
G37*
G36*
X14117006Y20823424D02*
X15466166Y19474264D01*
X14117006Y18125104D01*
X12767846Y19474264D01*
X14117006Y20823424D01*
X14117006Y20823424D01*
G37*
G36*
X11005736Y17712154D02*
X12354896Y16362994D01*
X11005736Y15013834D01*
X9656576Y16362994D01*
X11005736Y17712154D01*
X11005736Y17712154D01*
G37*
D14*
X11005736Y20747056D03*
X9732944Y19474264D03*
D10*
G36*
X7393834Y27094264D02*
X8742994Y28443424D01*
X10092154Y27094264D01*
X8742994Y25745104D01*
X7393834Y27094264D01*
X7393834Y27094264D01*
G37*
G36*
X10505104Y23982994D02*
X11854264Y25332154D01*
X13203424Y23982994D01*
X11854264Y22633834D01*
X10505104Y23982994D01*
X10505104Y23982994D01*
G37*
G36*
X11671831Y25149720D02*
X12950280Y26428169D01*
X14299439Y25079010D01*
X13020990Y23800561D01*
X11671831Y25149720D01*
X11671831Y25149720D01*
G37*
G36*
X8560561Y28260990D02*
X9839010Y29539439D01*
X11188169Y28190280D01*
X9909720Y26911831D01*
X8560561Y28260990D01*
X8560561Y28260990D01*
G37*
G36*
X9656576Y29357006D02*
X11005736Y30706166D01*
X12354896Y29357006D01*
X11005736Y28007846D01*
X9656576Y29357006D01*
X9656576Y29357006D01*
G37*
G36*
X12767846Y26245736D02*
X14117006Y27594896D01*
X15466166Y26245736D01*
X14117006Y24896576D01*
X12767846Y26245736D01*
X12767846Y26245736D01*
G37*
D14*
X9732944Y26245736D03*
X11005736Y24972944D03*
D10*
G36*
X11854264Y53566166D02*
X13203424Y52217006D01*
X11854264Y50867846D01*
X10505104Y52217006D01*
X11854264Y53566166D01*
X11854264Y53566166D01*
G37*
G36*
X8742994Y50454896D02*
X10092154Y49105736D01*
X8742994Y47756576D01*
X7393834Y49105736D01*
X8742994Y50454896D01*
X8742994Y50454896D01*
G37*
G36*
X9909720Y49288169D02*
X11188169Y48009720D01*
X9839010Y46660561D01*
X8560561Y47939010D01*
X9909720Y49288169D01*
X9909720Y49288169D01*
G37*
G36*
X13020990Y52399439D02*
X14299439Y51120990D01*
X12950280Y49771831D01*
X11671831Y51050280D01*
X13020990Y52399439D01*
X13020990Y52399439D01*
G37*
G36*
X14117006Y51303424D02*
X15466166Y49954264D01*
X14117006Y48605104D01*
X12767846Y49954264D01*
X14117006Y51303424D01*
X14117006Y51303424D01*
G37*
G36*
X11005736Y48192154D02*
X12354896Y46842994D01*
X11005736Y45493834D01*
X9656576Y46842994D01*
X11005736Y48192154D01*
X11005736Y48192154D01*
G37*
D14*
X11005736Y51227056D03*
X9732944Y49954264D03*
D10*
G36*
X7393834Y57574264D02*
X8742994Y58923424D01*
X10092154Y57574264D01*
X8742994Y56225104D01*
X7393834Y57574264D01*
X7393834Y57574264D01*
G37*
G36*
X10505104Y54462994D02*
X11854264Y55812154D01*
X13203424Y54462994D01*
X11854264Y53113834D01*
X10505104Y54462994D01*
X10505104Y54462994D01*
G37*
G36*
X11671831Y55629720D02*
X12950280Y56908169D01*
X14299439Y55559010D01*
X13020990Y54280561D01*
X11671831Y55629720D01*
X11671831Y55629720D01*
G37*
G36*
X8560561Y58740990D02*
X9839010Y60019439D01*
X11188169Y58670280D01*
X9909720Y57391831D01*
X8560561Y58740990D01*
X8560561Y58740990D01*
G37*
G36*
X9656576Y59837006D02*
X11005736Y61186166D01*
X12354896Y59837006D01*
X11005736Y58487846D01*
X9656576Y59837006D01*
X9656576Y59837006D01*
G37*
G36*
X12767846Y56725736D02*
X14117006Y58074896D01*
X15466166Y56725736D01*
X14117006Y55376576D01*
X12767846Y56725736D01*
X12767846Y56725736D01*
G37*
D14*
X9732944Y56725736D03*
X11005736Y55452944D03*
D10*
G36*
X3385736Y53113834D02*
X2036576Y54462994D01*
X3385736Y55812154D01*
X4734896Y54462994D01*
X3385736Y53113834D01*
X3385736Y53113834D01*
G37*
G36*
X6497006Y56225104D02*
X5147846Y57574264D01*
X6497006Y58923424D01*
X7846166Y57574264D01*
X6497006Y56225104D01*
X6497006Y56225104D01*
G37*
G36*
X5330280Y57391831D02*
X4051831Y58670280D01*
X5400990Y60019439D01*
X6679439Y58740990D01*
X5330280Y57391831D01*
X5330280Y57391831D01*
G37*
G36*
X2219010Y54280561D02*
X940561Y55559010D01*
X2289720Y56908169D01*
X3568169Y55629720D01*
X2219010Y54280561D01*
X2219010Y54280561D01*
G37*
G36*
X1122994Y55376576D02*
X-226166Y56725736D01*
X1122994Y58074896D01*
X2472154Y56725736D01*
X1122994Y55376576D01*
X1122994Y55376576D01*
G37*
G36*
X4234264Y58487846D02*
X2885104Y59837006D01*
X4234264Y61186166D01*
X5583424Y59837006D01*
X4234264Y58487846D01*
X4234264Y58487846D01*
G37*
D14*
X4234264Y55452944D03*
X5507056Y56725736D03*
D10*
G36*
X7846166Y49105736D02*
X6497006Y47756576D01*
X5147846Y49105736D01*
X6497006Y50454896D01*
X7846166Y49105736D01*
X7846166Y49105736D01*
G37*
G36*
X4734896Y52217006D02*
X3385736Y50867846D01*
X2036576Y52217006D01*
X3385736Y53566166D01*
X4734896Y52217006D01*
X4734896Y52217006D01*
G37*
G36*
X3568169Y51050280D02*
X2289720Y49771831D01*
X940561Y51120990D01*
X2219010Y52399439D01*
X3568169Y51050280D01*
X3568169Y51050280D01*
G37*
G36*
X6679439Y47939010D02*
X5400990Y46660561D01*
X4051831Y48009720D01*
X5330280Y49288169D01*
X6679439Y47939010D01*
X6679439Y47939010D01*
G37*
G36*
X5583424Y46842994D02*
X4234264Y45493834D01*
X2885104Y46842994D01*
X4234264Y48192154D01*
X5583424Y46842994D01*
X5583424Y46842994D01*
G37*
G36*
X2472154Y49954264D02*
X1122994Y48605104D01*
X-226166Y49954264D01*
X1122994Y51303424D01*
X2472154Y49954264D01*
X2472154Y49954264D01*
G37*
D14*
X5507056Y49954264D03*
X4234264Y51227056D03*
D10*
G36*
X7846166Y18625736D02*
X6497006Y17276576D01*
X5147846Y18625736D01*
X6497006Y19974896D01*
X7846166Y18625736D01*
X7846166Y18625736D01*
G37*
G36*
X4734896Y21737006D02*
X3385736Y20387846D01*
X2036576Y21737006D01*
X3385736Y23086166D01*
X4734896Y21737006D01*
X4734896Y21737006D01*
G37*
G36*
X3568169Y20570280D02*
X2289720Y19291831D01*
X940561Y20640990D01*
X2219010Y21919439D01*
X3568169Y20570280D01*
X3568169Y20570280D01*
G37*
G36*
X6679439Y17459010D02*
X5400990Y16180561D01*
X4051831Y17529720D01*
X5330280Y18808169D01*
X6679439Y17459010D01*
X6679439Y17459010D01*
G37*
G36*
X5583424Y16362994D02*
X4234264Y15013834D01*
X2885104Y16362994D01*
X4234264Y17712154D01*
X5583424Y16362994D01*
X5583424Y16362994D01*
G37*
G36*
X2472154Y19474264D02*
X1122994Y18125104D01*
X-226166Y19474264D01*
X1122994Y20823424D01*
X2472154Y19474264D01*
X2472154Y19474264D01*
G37*
D14*
X5507056Y19474264D03*
X4234264Y20747056D03*
D10*
G36*
X3385736Y7393834D02*
X2036576Y8742994D01*
X3385736Y10092154D01*
X4734896Y8742994D01*
X3385736Y7393834D01*
X3385736Y7393834D01*
G37*
G36*
X6497006Y10505104D02*
X5147846Y11854264D01*
X6497006Y13203424D01*
X7846166Y11854264D01*
X6497006Y10505104D01*
X6497006Y10505104D01*
G37*
G36*
X5330280Y11671831D02*
X4051831Y12950280D01*
X5400990Y14299439D01*
X6679439Y13020990D01*
X5330280Y11671831D01*
X5330280Y11671831D01*
G37*
G36*
X2219010Y8560561D02*
X940561Y9839010D01*
X2289720Y11188169D01*
X3568169Y9909720D01*
X2219010Y8560561D01*
X2219010Y8560561D01*
G37*
G36*
X1122994Y9656576D02*
X-226166Y11005736D01*
X1122994Y12354896D01*
X2472154Y11005736D01*
X1122994Y9656576D01*
X1122994Y9656576D01*
G37*
G36*
X4234264Y12767846D02*
X2885104Y14117006D01*
X4234264Y15466166D01*
X5583424Y14117006D01*
X4234264Y12767846D01*
X4234264Y12767846D01*
G37*
D14*
X4234264Y9732944D03*
X5507056Y11005736D03*
D10*
G36*
X3385736Y22633834D02*
X2036576Y23982994D01*
X3385736Y25332154D01*
X4734896Y23982994D01*
X3385736Y22633834D01*
X3385736Y22633834D01*
G37*
G36*
X6497006Y25745104D02*
X5147846Y27094264D01*
X6497006Y28443424D01*
X7846166Y27094264D01*
X6497006Y25745104D01*
X6497006Y25745104D01*
G37*
G36*
X5330280Y26911831D02*
X4051831Y28190280D01*
X5400990Y29539439D01*
X6679439Y28260990D01*
X5330280Y26911831D01*
X5330280Y26911831D01*
G37*
G36*
X2219010Y23800561D02*
X940561Y25079010D01*
X2289720Y26428169D01*
X3568169Y25149720D01*
X2219010Y23800561D01*
X2219010Y23800561D01*
G37*
G36*
X1122994Y24896576D02*
X-226166Y26245736D01*
X1122994Y27594896D01*
X2472154Y26245736D01*
X1122994Y24896576D01*
X1122994Y24896576D01*
G37*
G36*
X4234264Y28007846D02*
X2885104Y29357006D01*
X4234264Y30706166D01*
X5583424Y29357006D01*
X4234264Y28007846D01*
X4234264Y28007846D01*
G37*
D14*
X4234264Y24972944D03*
X5507056Y26245736D03*
D10*
G36*
X7846166Y3385736D02*
X6497006Y2036576D01*
X5147846Y3385736D01*
X6497006Y4734896D01*
X7846166Y3385736D01*
X7846166Y3385736D01*
G37*
G36*
X4734896Y6497006D02*
X3385736Y5147846D01*
X2036576Y6497006D01*
X3385736Y7846166D01*
X4734896Y6497006D01*
X4734896Y6497006D01*
G37*
G36*
X3568169Y5330280D02*
X2289720Y4051831D01*
X940561Y5400990D01*
X2219010Y6679439D01*
X3568169Y5330280D01*
X3568169Y5330280D01*
G37*
G36*
X6679439Y2219010D02*
X5400990Y940561D01*
X4051831Y2289720D01*
X5330280Y3568169D01*
X6679439Y2219010D01*
X6679439Y2219010D01*
G37*
G36*
X5583424Y1122994D02*
X4234264Y-226166D01*
X2885104Y1122994D01*
X4234264Y2472154D01*
X5583424Y1122994D01*
X5583424Y1122994D01*
G37*
G36*
X2472154Y4234264D02*
X1122994Y2885104D01*
X-226166Y4234264D01*
X1122994Y5583424D01*
X2472154Y4234264D01*
X2472154Y4234264D01*
G37*
D14*
X5507056Y4234264D03*
X4234264Y5507056D03*
D10*
G36*
X11854264Y7846166D02*
X13203424Y6497006D01*
X11854264Y5147846D01*
X10505104Y6497006D01*
X11854264Y7846166D01*
X11854264Y7846166D01*
G37*
G36*
X8742994Y4734896D02*
X10092154Y3385736D01*
X8742994Y2036576D01*
X7393834Y3385736D01*
X8742994Y4734896D01*
X8742994Y4734896D01*
G37*
G36*
X9909720Y3568169D02*
X11188169Y2289720D01*
X9839010Y940561D01*
X8560561Y2219010D01*
X9909720Y3568169D01*
X9909720Y3568169D01*
G37*
G36*
X13020990Y6679439D02*
X14299439Y5400990D01*
X12950280Y4051831D01*
X11671831Y5330280D01*
X13020990Y6679439D01*
X13020990Y6679439D01*
G37*
G36*
X14117006Y5583424D02*
X15466166Y4234264D01*
X14117006Y2885104D01*
X12767846Y4234264D01*
X14117006Y5583424D01*
X14117006Y5583424D01*
G37*
G36*
X11005736Y2472154D02*
X12354896Y1122994D01*
X11005736Y-226166D01*
X9656576Y1122994D01*
X11005736Y2472154D01*
X11005736Y2472154D01*
G37*
D14*
X11005736Y5507056D03*
X9732944Y4234264D03*
D10*
G36*
X23086166Y3385736D02*
X21737006Y2036576D01*
X20387846Y3385736D01*
X21737006Y4734896D01*
X23086166Y3385736D01*
X23086166Y3385736D01*
G37*
G36*
X19974896Y6497006D02*
X18625736Y5147846D01*
X17276576Y6497006D01*
X18625736Y7846166D01*
X19974896Y6497006D01*
X19974896Y6497006D01*
G37*
G36*
X18808169Y5330280D02*
X17529720Y4051831D01*
X16180561Y5400990D01*
X17459010Y6679439D01*
X18808169Y5330280D01*
X18808169Y5330280D01*
G37*
G36*
X21919439Y2219010D02*
X20640990Y940561D01*
X19291831Y2289720D01*
X20570280Y3568169D01*
X21919439Y2219010D01*
X21919439Y2219010D01*
G37*
G36*
X20823424Y1122994D02*
X19474264Y-226166D01*
X18125104Y1122994D01*
X19474264Y2472154D01*
X20823424Y1122994D01*
X20823424Y1122994D01*
G37*
G36*
X17712154Y4234264D02*
X16362994Y2885104D01*
X15013834Y4234264D01*
X16362994Y5583424D01*
X17712154Y4234264D01*
X17712154Y4234264D01*
G37*
D14*
X20747056Y4234264D03*
X19474264Y5507056D03*
D10*
G36*
X27094264Y7846166D02*
X28443424Y6497006D01*
X27094264Y5147846D01*
X25745104Y6497006D01*
X27094264Y7846166D01*
X27094264Y7846166D01*
G37*
G36*
X23982994Y4734896D02*
X25332154Y3385736D01*
X23982994Y2036576D01*
X22633834Y3385736D01*
X23982994Y4734896D01*
X23982994Y4734896D01*
G37*
G36*
X25149720Y3568169D02*
X26428169Y2289720D01*
X25079010Y940561D01*
X23800561Y2219010D01*
X25149720Y3568169D01*
X25149720Y3568169D01*
G37*
G36*
X28260990Y6679439D02*
X29539439Y5400990D01*
X28190280Y4051831D01*
X26911831Y5330280D01*
X28260990Y6679439D01*
X28260990Y6679439D01*
G37*
G36*
X29357006Y5583424D02*
X30706166Y4234264D01*
X29357006Y2885104D01*
X28007846Y4234264D01*
X29357006Y5583424D01*
X29357006Y5583424D01*
G37*
G36*
X26245736Y2472154D02*
X27594896Y1122994D01*
X26245736Y-226166D01*
X24896576Y1122994D01*
X26245736Y2472154D01*
X26245736Y2472154D01*
G37*
D14*
X26245736Y5507056D03*
X24972944Y4234264D03*
D10*
G36*
X38326166Y3385736D02*
X36977006Y2036576D01*
X35627846Y3385736D01*
X36977006Y4734896D01*
X38326166Y3385736D01*
X38326166Y3385736D01*
G37*
G36*
X35214896Y6497006D02*
X33865736Y5147846D01*
X32516576Y6497006D01*
X33865736Y7846166D01*
X35214896Y6497006D01*
X35214896Y6497006D01*
G37*
G36*
X34048169Y5330280D02*
X32769720Y4051831D01*
X31420561Y5400990D01*
X32699010Y6679439D01*
X34048169Y5330280D01*
X34048169Y5330280D01*
G37*
G36*
X37159439Y2219010D02*
X35880990Y940561D01*
X34531831Y2289720D01*
X35810280Y3568169D01*
X37159439Y2219010D01*
X37159439Y2219010D01*
G37*
G36*
X36063424Y1122994D02*
X34714264Y-226166D01*
X33365104Y1122994D01*
X34714264Y2472154D01*
X36063424Y1122994D01*
X36063424Y1122994D01*
G37*
G36*
X32952154Y4234264D02*
X31602994Y2885104D01*
X30253834Y4234264D01*
X31602994Y5583424D01*
X32952154Y4234264D01*
X32952154Y4234264D01*
G37*
D14*
X35987056Y4234264D03*
X34714264Y5507056D03*
D10*
G36*
X42334264Y7846166D02*
X43683424Y6497006D01*
X42334264Y5147846D01*
X40985104Y6497006D01*
X42334264Y7846166D01*
X42334264Y7846166D01*
G37*
G36*
X39222994Y4734896D02*
X40572154Y3385736D01*
X39222994Y2036576D01*
X37873834Y3385736D01*
X39222994Y4734896D01*
X39222994Y4734896D01*
G37*
G36*
X40389720Y3568169D02*
X41668169Y2289720D01*
X40319010Y940561D01*
X39040561Y2219010D01*
X40389720Y3568169D01*
X40389720Y3568169D01*
G37*
G36*
X43500990Y6679439D02*
X44779439Y5400990D01*
X43430280Y4051831D01*
X42151831Y5330280D01*
X43500990Y6679439D01*
X43500990Y6679439D01*
G37*
G36*
X44597006Y5583424D02*
X45946166Y4234264D01*
X44597006Y2885104D01*
X43247846Y4234264D01*
X44597006Y5583424D01*
X44597006Y5583424D01*
G37*
G36*
X41485736Y2472154D02*
X42834896Y1122994D01*
X41485736Y-226166D01*
X40136576Y1122994D01*
X41485736Y2472154D01*
X41485736Y2472154D01*
G37*
D14*
X41485736Y5507056D03*
X40212944Y4234264D03*
D10*
G36*
X53566166Y3385736D02*
X52217006Y2036576D01*
X50867846Y3385736D01*
X52217006Y4734896D01*
X53566166Y3385736D01*
X53566166Y3385736D01*
G37*
G36*
X50454896Y6497006D02*
X49105736Y5147846D01*
X47756576Y6497006D01*
X49105736Y7846166D01*
X50454896Y6497006D01*
X50454896Y6497006D01*
G37*
G36*
X49288169Y5330280D02*
X48009720Y4051831D01*
X46660561Y5400990D01*
X47939010Y6679439D01*
X49288169Y5330280D01*
X49288169Y5330280D01*
G37*
G36*
X52399439Y2219010D02*
X51120990Y940561D01*
X49771831Y2289720D01*
X51050280Y3568169D01*
X52399439Y2219010D01*
X52399439Y2219010D01*
G37*
G36*
X51303424Y1122994D02*
X49954264Y-226166D01*
X48605104Y1122994D01*
X49954264Y2472154D01*
X51303424Y1122994D01*
X51303424Y1122994D01*
G37*
G36*
X48192154Y4234264D02*
X46842994Y2885104D01*
X45493834Y4234264D01*
X46842994Y5583424D01*
X48192154Y4234264D01*
X48192154Y4234264D01*
G37*
D14*
X51227056Y4234264D03*
X49954264Y5507056D03*
D10*
G36*
X57574264Y7846166D02*
X58923424Y6497006D01*
X57574264Y5147846D01*
X56225104Y6497006D01*
X57574264Y7846166D01*
X57574264Y7846166D01*
G37*
G36*
X54462994Y4734896D02*
X55812154Y3385736D01*
X54462994Y2036576D01*
X53113834Y3385736D01*
X54462994Y4734896D01*
X54462994Y4734896D01*
G37*
G36*
X55629720Y3568169D02*
X56908169Y2289720D01*
X55559010Y940561D01*
X54280561Y2219010D01*
X55629720Y3568169D01*
X55629720Y3568169D01*
G37*
G36*
X58740990Y6679439D02*
X60019439Y5400990D01*
X58670280Y4051831D01*
X57391831Y5330280D01*
X58740990Y6679439D01*
X58740990Y6679439D01*
G37*
G36*
X59837006Y5583424D02*
X61186166Y4234264D01*
X59837006Y2885104D01*
X58487846Y4234264D01*
X59837006Y5583424D01*
X59837006Y5583424D01*
G37*
G36*
X56725736Y2472154D02*
X58074896Y1122994D01*
X56725736Y-226166D01*
X55376576Y1122994D01*
X56725736Y2472154D01*
X56725736Y2472154D01*
G37*
D14*
X56725736Y5507056D03*
X55452944Y4234264D03*
D10*
G36*
X37873834Y42334264D02*
X39222994Y43683424D01*
X40572154Y42334264D01*
X39222994Y40985104D01*
X37873834Y42334264D01*
X37873834Y42334264D01*
G37*
G36*
X40985104Y39222994D02*
X42334264Y40572154D01*
X43683424Y39222994D01*
X42334264Y37873834D01*
X40985104Y39222994D01*
X40985104Y39222994D01*
G37*
G36*
X42151831Y40389720D02*
X43430280Y41668169D01*
X44779439Y40319010D01*
X43500990Y39040561D01*
X42151831Y40389720D01*
X42151831Y40389720D01*
G37*
G36*
X39040561Y43500990D02*
X40319010Y44779439D01*
X41668169Y43430280D01*
X40389720Y42151831D01*
X39040561Y43500990D01*
X39040561Y43500990D01*
G37*
G36*
X40136576Y44597006D02*
X41485736Y45946166D01*
X42834896Y44597006D01*
X41485736Y43247846D01*
X40136576Y44597006D01*
X40136576Y44597006D01*
G37*
G36*
X43247846Y41485736D02*
X44597006Y42834896D01*
X45946166Y41485736D01*
X44597006Y40136576D01*
X43247846Y41485736D01*
X43247846Y41485736D01*
G37*
D14*
X40212944Y41485736D03*
X41485736Y40212944D03*
D10*
G36*
X53113834Y11854264D02*
X54462994Y13203424D01*
X55812154Y11854264D01*
X54462994Y10505104D01*
X53113834Y11854264D01*
X53113834Y11854264D01*
G37*
G36*
X56225104Y8742994D02*
X57574264Y10092154D01*
X58923424Y8742994D01*
X57574264Y7393834D01*
X56225104Y8742994D01*
X56225104Y8742994D01*
G37*
G36*
X57391831Y9909720D02*
X58670280Y11188169D01*
X60019439Y9839010D01*
X58740990Y8560561D01*
X57391831Y9909720D01*
X57391831Y9909720D01*
G37*
G36*
X54280561Y13020990D02*
X55559010Y14299439D01*
X56908169Y12950280D01*
X55629720Y11671831D01*
X54280561Y13020990D01*
X54280561Y13020990D01*
G37*
G36*
X55376576Y14117006D02*
X56725736Y15466166D01*
X58074896Y14117006D01*
X56725736Y12767846D01*
X55376576Y14117006D01*
X55376576Y14117006D01*
G37*
G36*
X58487846Y11005736D02*
X59837006Y12354896D01*
X61186166Y11005736D01*
X59837006Y9656576D01*
X58487846Y11005736D01*
X58487846Y11005736D01*
G37*
D14*
X55452944Y11005736D03*
X56725736Y9732944D03*
D15*
X46990000Y29210000D03*
X44450000Y29210000D03*
X44450000Y31750000D03*
X46990000Y31750000D03*
X31750000Y16510000D03*
X31750000Y13970000D03*
X29210000Y13970000D03*
X29210000Y16510000D03*
X29210000Y44450000D03*
X29210000Y46990000D03*
X31750000Y46990000D03*
X31750000Y44450000D03*
X16510000Y29210000D03*
X13970000Y29210000D03*
X13970000Y31750000D03*
X16510000Y31750000D03*
M02*
