G04 #@! TF.FileFunction,Legend,Top*
%FSLAX46Y46*%
G04 Gerber Fmt 4.6, Leading zero omitted, Abs format (unit mm)*
G04 Created by KiCad (PCBNEW 4.0.2-4+6225~38~ubuntu15.10.1-stable) date Tue Mar 22 22:05:39 2016*
%MOMM*%
G01*
G04 APERTURE LIST*
%ADD10C,0.254000*%
%ADD11C,0.152400*%
%ADD12C,0.150000*%
%ADD13C,1.708000*%
%ADD14C,6.108000*%
%ADD15C,1.905000*%
G04 APERTURE END LIST*
D10*
X59804784Y1113505D02*
X58026783Y1113507D01*
X59804784Y1113505D02*
X59804784Y2891506D01*
X59804784Y2891506D02*
X58026783Y1113507D01*
X59804784Y1367507D02*
X58280784Y1367507D01*
X59804784Y1621506D02*
X58534784Y1621506D01*
X59804784Y1875506D02*
X58788784Y1875506D01*
X59804784Y2129506D02*
X59042783Y2129507D01*
X59804784Y2383507D02*
X59296783Y2383507D01*
X59804784Y2637506D02*
X59550784Y2637506D01*
X635000Y2159000D02*
X635000Y1905000D01*
X889000Y2159000D02*
X889000Y1651000D01*
X1143000Y2159000D02*
X1143000Y1397000D01*
X1397000Y2159000D02*
X1397000Y1143000D01*
X1651000Y2159000D02*
X1651000Y889000D01*
X1905000Y2159000D02*
X1905000Y635000D01*
X381000Y2159000D02*
X2159000Y381000D01*
X2159000Y2159000D02*
X381000Y2159000D01*
X2159000Y2159000D02*
X2159000Y381000D01*
X45974000Y40386000D02*
X45466000Y40386000D01*
X45212000Y40132000D02*
X46228000Y40132000D01*
X46482000Y39878000D02*
X44958000Y39878000D01*
X44704000Y39624000D02*
X46736000Y39624000D01*
X46990000Y39370000D02*
X44450000Y39370000D01*
X45720000Y40640000D02*
X46990000Y39370000D01*
X44450000Y39370000D02*
X45720000Y40640000D01*
X45466000Y35814000D02*
X45974000Y35814000D01*
X46228000Y36068000D02*
X45212000Y36068000D01*
X44958000Y36322000D02*
X46482000Y36322000D01*
X46736000Y36576000D02*
X44704000Y36576000D01*
X44450000Y36830000D02*
X46990000Y36830000D01*
X45720000Y35560000D02*
X44450000Y36830000D01*
X46990000Y36830000D02*
X45720000Y35560000D01*
X16510000Y36830000D02*
X15240000Y35560000D01*
X15240000Y35560000D02*
X13970000Y36830000D01*
X13970000Y36830000D02*
X16510000Y36830000D01*
X16256000Y36576000D02*
X14224000Y36576000D01*
X14478000Y36322000D02*
X16002000Y36322000D01*
X15748000Y36068000D02*
X14732000Y36068000D01*
X14986000Y35814000D02*
X15494000Y35814000D01*
X13970000Y39370000D02*
X15240000Y40640000D01*
X15240000Y40640000D02*
X16510000Y39370000D01*
X16510000Y39370000D02*
X13970000Y39370000D01*
X14224000Y39624000D02*
X16256000Y39624000D01*
X16002000Y39878000D02*
X14478000Y39878000D01*
X14732000Y40132000D02*
X15748000Y40132000D01*
X15494000Y40386000D02*
X14986000Y40386000D01*
X15494000Y25146000D02*
X14986000Y25146000D01*
X14732000Y24892000D02*
X15748000Y24892000D01*
X16002000Y24638000D02*
X14478000Y24638000D01*
X14224000Y24384000D02*
X16256000Y24384000D01*
X16510000Y24130000D02*
X13970000Y24130000D01*
X15240000Y25400000D02*
X16510000Y24130000D01*
X13970000Y24130000D02*
X15240000Y25400000D01*
X14986000Y20574000D02*
X15494000Y20574000D01*
X15748000Y20828000D02*
X14732000Y20828000D01*
X14478000Y21082000D02*
X16002000Y21082000D01*
X16256000Y21336000D02*
X14224000Y21336000D01*
X13970000Y21590000D02*
X16510000Y21590000D01*
X15240000Y20320000D02*
X13970000Y21590000D01*
X16510000Y21590000D02*
X15240000Y20320000D01*
X46990000Y21590000D02*
X45720000Y20320000D01*
X45720000Y20320000D02*
X44450000Y21590000D01*
X44450000Y21590000D02*
X46990000Y21590000D01*
X46736000Y21336000D02*
X44704000Y21336000D01*
X44958000Y21082000D02*
X46482000Y21082000D01*
X46228000Y20828000D02*
X45212000Y20828000D01*
X45466000Y20574000D02*
X45974000Y20574000D01*
X44450000Y24130000D02*
X45720000Y25400000D01*
X45720000Y25400000D02*
X46990000Y24130000D01*
X46990000Y24130000D02*
X44450000Y24130000D01*
X44704000Y24384000D02*
X46736000Y24384000D01*
X46482000Y24638000D02*
X44958000Y24638000D01*
X45212000Y24892000D02*
X46228000Y24892000D01*
X45974000Y25146000D02*
X45466000Y25146000D01*
X45466000Y5334000D02*
X45974000Y5334000D01*
X46228000Y5588000D02*
X45212000Y5588000D01*
X44958000Y5842000D02*
X46482000Y5842000D01*
X46736000Y6096000D02*
X44704000Y6096000D01*
X44450000Y6350000D02*
X46990000Y6350000D01*
X45720000Y5080000D02*
X44450000Y6350000D01*
X46990000Y6350000D02*
X45720000Y5080000D01*
X45466000Y9906000D02*
X45974000Y9906000D01*
X46228000Y9652000D02*
X45212000Y9652000D01*
X44958000Y9398000D02*
X46482000Y9398000D01*
X46736000Y9144000D02*
X44704000Y9144000D01*
X44450000Y8890000D02*
X46990000Y8890000D01*
X45720000Y10160000D02*
X44450000Y8890000D01*
X46990000Y8890000D02*
X45720000Y10160000D01*
X15494000Y5334000D02*
X14986000Y5334000D01*
X14732000Y5588000D02*
X15748000Y5588000D01*
X16002000Y5842000D02*
X14478000Y5842000D01*
X14224000Y6096000D02*
X16256000Y6096000D01*
X16510000Y6350000D02*
X13970000Y6350000D01*
X15240000Y5080000D02*
X16510000Y6350000D01*
X13970000Y6350000D02*
X15240000Y5080000D01*
X15494000Y9906000D02*
X14986000Y9906000D01*
X14732000Y9652000D02*
X15748000Y9652000D01*
X16002000Y9398000D02*
X14478000Y9398000D01*
X14224000Y9144000D02*
X16256000Y9144000D01*
X16510000Y8890000D02*
X13970000Y8890000D01*
X15240000Y10160000D02*
X16510000Y8890000D01*
X13970000Y8890000D02*
X15240000Y10160000D01*
X45466000Y51054000D02*
X45974000Y51054000D01*
X46228000Y51308000D02*
X45212000Y51308000D01*
X44958000Y51562000D02*
X46482000Y51562000D01*
X46736000Y51816000D02*
X44704000Y51816000D01*
X44450000Y52070000D02*
X46990000Y52070000D01*
X45720000Y50800000D02*
X44450000Y52070000D01*
X46990000Y52070000D02*
X45720000Y50800000D01*
X45466000Y55626000D02*
X45974000Y55626000D01*
X46228000Y55372000D02*
X45212000Y55372000D01*
X44958000Y55118000D02*
X46482000Y55118000D01*
X46736000Y54864000D02*
X44704000Y54864000D01*
X44450000Y54610000D02*
X46990000Y54610000D01*
X45720000Y55880000D02*
X44450000Y54610000D01*
X46990000Y54610000D02*
X45720000Y55880000D01*
X14224000Y54864000D02*
X16256000Y54864000D01*
X14478000Y55118000D02*
X16002000Y55118000D01*
X14732000Y55372000D02*
X15748000Y55372000D01*
X14986000Y55626000D02*
X15494000Y55626000D01*
X14986000Y51054000D02*
X15494000Y51054000D01*
X14732000Y51308000D02*
X15748000Y51308000D01*
X14478000Y51562000D02*
X16002000Y51562000D01*
X14224000Y51816000D02*
X16256000Y51816000D01*
X15240000Y50800000D02*
X13970000Y52070000D01*
X16510000Y52070000D02*
X15240000Y50800000D01*
X13970000Y52070000D02*
X16510000Y52070000D01*
X16510000Y54610000D02*
X13970000Y54610000D01*
X15240000Y55880000D02*
X16510000Y54610000D01*
X13970000Y54610000D02*
X15240000Y55880000D01*
X48260000Y53340000D02*
X46990000Y52070000D01*
X46990000Y54610000D02*
X48260000Y53340000D01*
X12700000Y53340000D02*
X13970000Y52070000D01*
X13970000Y54610000D02*
X12700000Y53340000D01*
X48260000Y7620000D02*
X46990000Y6350000D01*
X46990000Y8890000D02*
X48260000Y7620000D01*
X12700000Y7620000D02*
X13970000Y6350000D01*
X13970000Y8890000D02*
X12700000Y7620000D01*
X43180000Y22860000D02*
X44450000Y21590000D01*
X44450000Y24130000D02*
X43180000Y22860000D01*
X17780000Y22860000D02*
X16510000Y21590000D01*
X16510000Y24130000D02*
X17780000Y22860000D01*
X43180000Y38100000D02*
X44450000Y36830000D01*
X43180000Y38100000D02*
X44450000Y39370000D01*
X17780000Y38100000D02*
X16510000Y36830000D01*
X17780000Y38100000D02*
X16510000Y39370000D01*
D11*
X43905715Y22515286D02*
X43905715Y23277286D01*
X44087143Y23277286D01*
X44196000Y23241000D01*
X44268572Y23168429D01*
X44304857Y23095857D01*
X44341143Y22950714D01*
X44341143Y22841857D01*
X44304857Y22696714D01*
X44268572Y22624143D01*
X44196000Y22551571D01*
X44087143Y22515286D01*
X43905715Y22515286D01*
X44631429Y22733000D02*
X44994286Y22733000D01*
X44558857Y22515286D02*
X44812857Y23277286D01*
X45066857Y22515286D01*
X45212000Y23277286D02*
X45647429Y23277286D01*
X45429715Y22515286D02*
X45429715Y23277286D01*
X45720000Y22442714D02*
X46300571Y22442714D01*
X46627142Y23277286D02*
X46772285Y23277286D01*
X46844857Y23241000D01*
X46917428Y23168429D01*
X46953714Y23023286D01*
X46953714Y22769286D01*
X46917428Y22624143D01*
X46844857Y22551571D01*
X46772285Y22515286D01*
X46627142Y22515286D01*
X46554571Y22551571D01*
X46482000Y22624143D01*
X46445714Y22769286D01*
X46445714Y23023286D01*
X46482000Y23168429D01*
X46554571Y23241000D01*
X46627142Y23277286D01*
X47280286Y23277286D02*
X47280286Y22660429D01*
X47316571Y22587857D01*
X47352857Y22551571D01*
X47425428Y22515286D01*
X47570571Y22515286D01*
X47643143Y22551571D01*
X47679428Y22587857D01*
X47715714Y22660429D01*
X47715714Y23277286D01*
X47969714Y23277286D02*
X48405143Y23277286D01*
X48187429Y22515286D02*
X48187429Y23277286D01*
X13552715Y22515286D02*
X13552715Y23277286D01*
X13734143Y23277286D01*
X13843000Y23241000D01*
X13915572Y23168429D01*
X13951857Y23095857D01*
X13988143Y22950714D01*
X13988143Y22841857D01*
X13951857Y22696714D01*
X13915572Y22624143D01*
X13843000Y22551571D01*
X13734143Y22515286D01*
X13552715Y22515286D01*
X14278429Y22733000D02*
X14641286Y22733000D01*
X14205857Y22515286D02*
X14459857Y23277286D01*
X14713857Y22515286D01*
X14859000Y23277286D02*
X15294429Y23277286D01*
X15076715Y22515286D02*
X15076715Y23277286D01*
X15367000Y22442714D02*
X15947571Y22442714D01*
X16129000Y22515286D02*
X16129000Y23277286D01*
X16491857Y22515286D02*
X16491857Y23277286D01*
X16927285Y22515286D01*
X16927285Y23277286D01*
X44141572Y37827857D02*
X44105286Y37791571D01*
X43996429Y37755286D01*
X43923858Y37755286D01*
X43815001Y37791571D01*
X43742429Y37864143D01*
X43706144Y37936714D01*
X43669858Y38081857D01*
X43669858Y38190714D01*
X43706144Y38335857D01*
X43742429Y38408429D01*
X43815001Y38481000D01*
X43923858Y38517286D01*
X43996429Y38517286D01*
X44105286Y38481000D01*
X44141572Y38444714D01*
X44831001Y37755286D02*
X44468144Y37755286D01*
X44468144Y38517286D01*
X45085001Y37755286D02*
X45085001Y38517286D01*
X45520429Y37755286D02*
X45193858Y38190714D01*
X45520429Y38517286D02*
X45085001Y38081857D01*
X45665572Y37682714D02*
X46246143Y37682714D01*
X46572714Y38517286D02*
X46717857Y38517286D01*
X46790429Y38481000D01*
X46863000Y38408429D01*
X46899286Y38263286D01*
X46899286Y38009286D01*
X46863000Y37864143D01*
X46790429Y37791571D01*
X46717857Y37755286D01*
X46572714Y37755286D01*
X46500143Y37791571D01*
X46427572Y37864143D01*
X46391286Y38009286D01*
X46391286Y38263286D01*
X46427572Y38408429D01*
X46500143Y38481000D01*
X46572714Y38517286D01*
X47225858Y38517286D02*
X47225858Y37900429D01*
X47262143Y37827857D01*
X47298429Y37791571D01*
X47371000Y37755286D01*
X47516143Y37755286D01*
X47588715Y37791571D01*
X47625000Y37827857D01*
X47661286Y37900429D01*
X47661286Y38517286D01*
X47915286Y38517286D02*
X48350715Y38517286D01*
X48133001Y37755286D02*
X48133001Y38517286D01*
X13915572Y37827857D02*
X13879286Y37791571D01*
X13770429Y37755286D01*
X13697858Y37755286D01*
X13589001Y37791571D01*
X13516429Y37864143D01*
X13480144Y37936714D01*
X13443858Y38081857D01*
X13443858Y38190714D01*
X13480144Y38335857D01*
X13516429Y38408429D01*
X13589001Y38481000D01*
X13697858Y38517286D01*
X13770429Y38517286D01*
X13879286Y38481000D01*
X13915572Y38444714D01*
X14605001Y37755286D02*
X14242144Y37755286D01*
X14242144Y38517286D01*
X14859001Y37755286D02*
X14859001Y38517286D01*
X15294429Y37755286D02*
X14967858Y38190714D01*
X15294429Y38517286D02*
X14859001Y38081857D01*
X15439572Y37682714D02*
X16020143Y37682714D01*
X16201572Y37755286D02*
X16201572Y38517286D01*
X16564429Y37755286D02*
X16564429Y38517286D01*
X16999857Y37755286D01*
X16999857Y38517286D01*
X15094858Y53757286D02*
X14732001Y53757286D01*
X14695715Y53394429D01*
X14732001Y53430714D01*
X14804572Y53467000D01*
X14986001Y53467000D01*
X15058572Y53430714D01*
X15094858Y53394429D01*
X15131143Y53321857D01*
X15131143Y53140429D01*
X15094858Y53067857D01*
X15058572Y53031571D01*
X14986001Y52995286D01*
X14804572Y52995286D01*
X14732001Y53031571D01*
X14695715Y53067857D01*
X15348857Y53757286D02*
X15602857Y52995286D01*
X15856857Y53757286D01*
X45574858Y53757286D02*
X45212001Y53757286D01*
X45175715Y53394429D01*
X45212001Y53430714D01*
X45284572Y53467000D01*
X45466001Y53467000D01*
X45538572Y53430714D01*
X45574858Y53394429D01*
X45611143Y53321857D01*
X45611143Y53140429D01*
X45574858Y53067857D01*
X45538572Y53031571D01*
X45466001Y52995286D01*
X45284572Y52995286D01*
X45212001Y53031571D01*
X45175715Y53067857D01*
X45828857Y53757286D02*
X46082857Y52995286D01*
X46336857Y53757286D01*
X45139428Y8001000D02*
X45066857Y8037286D01*
X44958000Y8037286D01*
X44849143Y8001000D01*
X44776571Y7928429D01*
X44740286Y7855857D01*
X44704000Y7710714D01*
X44704000Y7601857D01*
X44740286Y7456714D01*
X44776571Y7384143D01*
X44849143Y7311571D01*
X44958000Y7275286D01*
X45030571Y7275286D01*
X45139428Y7311571D01*
X45175714Y7347857D01*
X45175714Y7601857D01*
X45030571Y7601857D01*
X45502286Y7275286D02*
X45502286Y8037286D01*
X45937714Y7275286D01*
X45937714Y8037286D01*
X46300572Y7275286D02*
X46300572Y8037286D01*
X46482000Y8037286D01*
X46590857Y8001000D01*
X46663429Y7928429D01*
X46699714Y7855857D01*
X46736000Y7710714D01*
X46736000Y7601857D01*
X46699714Y7456714D01*
X46663429Y7384143D01*
X46590857Y7311571D01*
X46482000Y7275286D01*
X46300572Y7275286D01*
X14659428Y8001000D02*
X14586857Y8037286D01*
X14478000Y8037286D01*
X14369143Y8001000D01*
X14296571Y7928429D01*
X14260286Y7855857D01*
X14224000Y7710714D01*
X14224000Y7601857D01*
X14260286Y7456714D01*
X14296571Y7384143D01*
X14369143Y7311571D01*
X14478000Y7275286D01*
X14550571Y7275286D01*
X14659428Y7311571D01*
X14695714Y7347857D01*
X14695714Y7601857D01*
X14550571Y7601857D01*
X15022286Y7275286D02*
X15022286Y8037286D01*
X15457714Y7275286D01*
X15457714Y8037286D01*
X15820572Y7275286D02*
X15820572Y8037286D01*
X16002000Y8037286D01*
X16110857Y8001000D01*
X16183429Y7928429D01*
X16219714Y7855857D01*
X16256000Y7710714D01*
X16256000Y7601857D01*
X16219714Y7456714D01*
X16183429Y7384143D01*
X16110857Y7311571D01*
X16002000Y7275286D01*
X15820572Y7275286D01*
D12*
X58302027Y14662892D02*
G75*
G03X58302027Y14662892I-254001J0D01*
G01*
X58175026Y14662892D02*
G75*
G03X58175026Y14662892I-127000J0D01*
G01*
X43062027Y45142892D02*
G75*
G03X43062027Y45142892I-254001J0D01*
G01*
X42935026Y45142892D02*
G75*
G03X42935026Y45142892I-127000J0D01*
G01*
X60636893Y2911974D02*
G75*
G03X60636893Y2911974I-254001J0D01*
G01*
X60509892Y2911974D02*
G75*
G03X60509892Y2911974I-127000J0D01*
G01*
X48885975Y577108D02*
G75*
G03X48885975Y577108I-254001J0D01*
G01*
X48758974Y577108D02*
G75*
G03X48758974Y577108I-127000J0D01*
G01*
X45396893Y2911974D02*
G75*
G03X45396893Y2911974I-254001J0D01*
G01*
X45269892Y2911974D02*
G75*
G03X45269892Y2911974I-127000J0D01*
G01*
X33645975Y577108D02*
G75*
G03X33645975Y577108I-254001J0D01*
G01*
X33518974Y577108D02*
G75*
G03X33518974Y577108I-127000J0D01*
G01*
X30156893Y2911974D02*
G75*
G03X30156893Y2911974I-254001J0D01*
G01*
X30029892Y2911974D02*
G75*
G03X30029892Y2911974I-127000J0D01*
G01*
X18405975Y577108D02*
G75*
G03X18405975Y577108I-254001J0D01*
G01*
X18278974Y577108D02*
G75*
G03X18278974Y577108I-127000J0D01*
G01*
X14916893Y2911974D02*
G75*
G03X14916893Y2911974I-254001J0D01*
G01*
X14789892Y2911974D02*
G75*
G03X14789892Y2911974I-127000J0D01*
G01*
X3165975Y577108D02*
G75*
G03X3165975Y577108I-254001J0D01*
G01*
X3038974Y577108D02*
G75*
G03X3038974Y577108I-127000J0D01*
G01*
X831109Y27568026D02*
G75*
G03X831109Y27568026I-254001J0D01*
G01*
X704108Y27568026D02*
G75*
G03X704108Y27568026I-127000J0D01*
G01*
X831109Y12328026D02*
G75*
G03X831109Y12328026I-254001J0D01*
G01*
X704108Y12328026D02*
G75*
G03X704108Y12328026I-127000J0D01*
G01*
X3165975Y15817108D02*
G75*
G03X3165975Y15817108I-254001J0D01*
G01*
X3038974Y15817108D02*
G75*
G03X3038974Y15817108I-127000J0D01*
G01*
X3165975Y46297108D02*
G75*
G03X3165975Y46297108I-254001J0D01*
G01*
X3038974Y46297108D02*
G75*
G03X3038974Y46297108I-127000J0D01*
G01*
X831109Y58048026D02*
G75*
G03X831109Y58048026I-254001J0D01*
G01*
X704108Y58048026D02*
G75*
G03X704108Y58048026I-127000J0D01*
G01*
X12582027Y60382892D02*
G75*
G03X12582027Y60382892I-254001J0D01*
G01*
X12455026Y60382892D02*
G75*
G03X12455026Y60382892I-127000J0D01*
G01*
X14916893Y48631974D02*
G75*
G03X14916893Y48631974I-254001J0D01*
G01*
X14789892Y48631974D02*
G75*
G03X14789892Y48631974I-127000J0D01*
G01*
X12582027Y29902892D02*
G75*
G03X12582027Y29902892I-254001J0D01*
G01*
X12455026Y29902892D02*
G75*
G03X12455026Y29902892I-127000J0D01*
G01*
X14916893Y18151974D02*
G75*
G03X14916893Y18151974I-254001J0D01*
G01*
X14789892Y18151974D02*
G75*
G03X14789892Y18151974I-127000J0D01*
G01*
X12582027Y14662892D02*
G75*
G03X12582027Y14662892I-254001J0D01*
G01*
X12455026Y14662892D02*
G75*
G03X12455026Y14662892I-127000J0D01*
G01*
X16071109Y12328026D02*
G75*
G03X16071109Y12328026I-254001J0D01*
G01*
X15944108Y12328026D02*
G75*
G03X15944108Y12328026I-127000J0D01*
G01*
X16071109Y27568026D02*
G75*
G03X16071109Y27568026I-254001J0D01*
G01*
X15944108Y27568026D02*
G75*
G03X15944108Y27568026I-127000J0D01*
G01*
X18405975Y31057108D02*
G75*
G03X18405975Y31057108I-254001J0D01*
G01*
X18278974Y31057108D02*
G75*
G03X18278974Y31057108I-127000J0D01*
G01*
X16071109Y42808026D02*
G75*
G03X16071109Y42808026I-254001J0D01*
G01*
X15944108Y42808026D02*
G75*
G03X15944108Y42808026I-127000J0D01*
G01*
X16071109Y58048026D02*
G75*
G03X16071109Y58048026I-254001J0D01*
G01*
X15944108Y58048026D02*
G75*
G03X15944108Y58048026I-127000J0D01*
G01*
X27822027Y60382892D02*
G75*
G03X27822027Y60382892I-254001J0D01*
G01*
X27695026Y60382892D02*
G75*
G03X27695026Y60382892I-127000J0D01*
G01*
X30156893Y48631974D02*
G75*
G03X30156893Y48631974I-254001J0D01*
G01*
X30029892Y48631974D02*
G75*
G03X30029892Y48631974I-127000J0D01*
G01*
X27822027Y45142892D02*
G75*
G03X27822027Y45142892I-254001J0D01*
G01*
X27695026Y45142892D02*
G75*
G03X27695026Y45142892I-127000J0D01*
G01*
X30156893Y33391974D02*
G75*
G03X30156893Y33391974I-254001J0D01*
G01*
X30029892Y33391974D02*
G75*
G03X30029892Y33391974I-127000J0D01*
G01*
X27822027Y29902892D02*
G75*
G03X27822027Y29902892I-254001J0D01*
G01*
X27695026Y29902892D02*
G75*
G03X27695026Y29902892I-127000J0D01*
G01*
X30156893Y18151974D02*
G75*
G03X30156893Y18151974I-254001J0D01*
G01*
X30029892Y18151974D02*
G75*
G03X30029892Y18151974I-127000J0D01*
G01*
X27822027Y14662892D02*
G75*
G03X27822027Y14662892I-254001J0D01*
G01*
X27695026Y14662892D02*
G75*
G03X27695026Y14662892I-127000J0D01*
G01*
X31311109Y12328026D02*
G75*
G03X31311109Y12328026I-254001J0D01*
G01*
X31184108Y12328026D02*
G75*
G03X31184108Y12328026I-127000J0D01*
G01*
X33645975Y15817108D02*
G75*
G03X33645975Y15817108I-254001J0D01*
G01*
X33518974Y15817108D02*
G75*
G03X33518974Y15817108I-127000J0D01*
G01*
X31311109Y27568026D02*
G75*
G03X31311109Y27568026I-254001J0D01*
G01*
X31184108Y27568026D02*
G75*
G03X31184108Y27568026I-127000J0D01*
G01*
X33645975Y31057108D02*
G75*
G03X33645975Y31057108I-254001J0D01*
G01*
X33518974Y31057108D02*
G75*
G03X33518974Y31057108I-127000J0D01*
G01*
X33645975Y46297108D02*
G75*
G03X33645975Y46297108I-254001J0D01*
G01*
X33518974Y46297108D02*
G75*
G03X33518974Y46297108I-127000J0D01*
G01*
X31311109Y58048026D02*
G75*
G03X31311109Y58048026I-254001J0D01*
G01*
X31184108Y58048026D02*
G75*
G03X31184108Y58048026I-127000J0D01*
G01*
X43062027Y60382892D02*
G75*
G03X43062027Y60382892I-254001J0D01*
G01*
X42935026Y60382892D02*
G75*
G03X42935026Y60382892I-127000J0D01*
G01*
X45396893Y48631974D02*
G75*
G03X45396893Y48631974I-254001J0D01*
G01*
X45269892Y48631974D02*
G75*
G03X45269892Y48631974I-127000J0D01*
G01*
X45396893Y33391974D02*
G75*
G03X45396893Y33391974I-254001J0D01*
G01*
X45269892Y33391974D02*
G75*
G03X45269892Y33391974I-127000J0D01*
G01*
X43062027Y29902892D02*
G75*
G03X43062027Y29902892I-254001J0D01*
G01*
X42935026Y29902892D02*
G75*
G03X42935026Y29902892I-127000J0D01*
G01*
X45396893Y18151974D02*
G75*
G03X45396893Y18151974I-254001J0D01*
G01*
X45269892Y18151974D02*
G75*
G03X45269892Y18151974I-127000J0D01*
G01*
X43062027Y14662892D02*
G75*
G03X43062027Y14662892I-254001J0D01*
G01*
X42935026Y14662892D02*
G75*
G03X42935026Y14662892I-127000J0D01*
G01*
X46551109Y12328026D02*
G75*
G03X46551109Y12328026I-254001J0D01*
G01*
X46424108Y12328026D02*
G75*
G03X46424108Y12328026I-127000J0D01*
G01*
X48885975Y15817108D02*
G75*
G03X48885975Y15817108I-254001J0D01*
G01*
X48758974Y15817108D02*
G75*
G03X48758974Y15817108I-127000J0D01*
G01*
X46551109Y27568026D02*
G75*
G03X46551109Y27568026I-254001J0D01*
G01*
X46424108Y27568026D02*
G75*
G03X46424108Y27568026I-127000J0D01*
G01*
X48885975Y46297108D02*
G75*
G03X48885975Y46297108I-254001J0D01*
G01*
X48758974Y46297108D02*
G75*
G03X48758974Y46297108I-127000J0D01*
G01*
X46551109Y58048026D02*
G75*
G03X46551109Y58048026I-254001J0D01*
G01*
X46424108Y58048026D02*
G75*
G03X46424108Y58048026I-127000J0D01*
G01*
X58302027Y60382892D02*
G75*
G03X58302027Y60382892I-254001J0D01*
G01*
X58175026Y60382892D02*
G75*
G03X58175026Y60382892I-127000J0D01*
G01*
X60636893Y48631974D02*
G75*
G03X60636893Y48631974I-254001J0D01*
G01*
X60509892Y48631974D02*
G75*
G03X60509892Y48631974I-127000J0D01*
G01*
X58302027Y29902892D02*
G75*
G03X58302027Y29902892I-254001J0D01*
G01*
X58175026Y29902892D02*
G75*
G03X58175026Y29902892I-127000J0D01*
G01*
X60636893Y18151974D02*
G75*
G03X60636893Y18151974I-254001J0D01*
G01*
X60509892Y18151974D02*
G75*
G03X60509892Y18151974I-127000J0D01*
G01*
X3165975Y31057108D02*
G75*
G03X3165975Y31057108I-254001J0D01*
G01*
X3038974Y31057108D02*
G75*
G03X3038974Y31057108I-127000J0D01*
G01*
X831109Y42808026D02*
G75*
G03X831109Y42808026I-254001J0D01*
G01*
X704108Y42808026D02*
G75*
G03X704108Y42808026I-127000J0D01*
G01*
X12582027Y45142892D02*
G75*
G03X12582027Y45142892I-254001J0D01*
G01*
X12455026Y45142892D02*
G75*
G03X12455026Y45142892I-127000J0D01*
G01*
X14916893Y33391974D02*
G75*
G03X14916893Y33391974I-254001J0D01*
G01*
X14789892Y33391974D02*
G75*
G03X14789892Y33391974I-127000J0D01*
G01*
X18405975Y15817108D02*
G75*
G03X18405975Y15817108I-254001J0D01*
G01*
X18278974Y15817108D02*
G75*
G03X18278974Y15817108I-127000J0D01*
G01*
X31311109Y42808026D02*
G75*
G03X31311109Y42808026I-254001J0D01*
G01*
X31184108Y42808026D02*
G75*
G03X31184108Y42808026I-127000J0D01*
G01*
X48885975Y31057108D02*
G75*
G03X48885975Y31057108I-254001J0D01*
G01*
X48758974Y31057108D02*
G75*
G03X48758974Y31057108I-127000J0D01*
G01*
X46551109Y42808026D02*
G75*
G03X46551109Y42808026I-254001J0D01*
G01*
X46424108Y42808026D02*
G75*
G03X46424108Y42808026I-127000J0D01*
G01*
X58302027Y45142892D02*
G75*
G03X58302027Y45142892I-254001J0D01*
G01*
X58175026Y45142892D02*
G75*
G03X58175026Y45142892I-127000J0D01*
G01*
X60636893Y33391974D02*
G75*
G03X60636893Y33391974I-254001J0D01*
G01*
X60509892Y33391974D02*
G75*
G03X60509892Y33391974I-127000J0D01*
G01*
X18405975Y46297108D02*
G75*
G03X18405975Y46297108I-254001J0D01*
G01*
X18278974Y46297108D02*
G75*
G03X18278974Y46297108I-127000J0D01*
G01*
X58880728Y14561472D02*
X58422792Y14103536D01*
X58395855Y14022725D01*
X58395855Y13968849D01*
X58422792Y13888037D01*
X58530542Y13780288D01*
X58611354Y13753350D01*
X58665229Y13753350D01*
X58746041Y13780288D01*
X59203977Y14238223D01*
X59715787Y13726413D02*
X59608037Y13834163D01*
X59527225Y13861100D01*
X59473351Y13861100D01*
X59338663Y13834163D01*
X59203977Y13753350D01*
X58988477Y13537851D01*
X58961540Y13457039D01*
X58961539Y13403164D01*
X58988477Y13322352D01*
X59096227Y13214602D01*
X59177039Y13187665D01*
X59230915Y13187665D01*
X59311726Y13214602D01*
X59446413Y13349289D01*
X59473351Y13430101D01*
X59473350Y13483977D01*
X59446413Y13564788D01*
X59338663Y13672538D01*
X59257851Y13699476D01*
X59203977Y13699476D01*
X59123164Y13672538D01*
X59958224Y13483976D02*
X60308410Y13133790D01*
X59904349Y13106852D01*
X59985161Y13026040D01*
X60012098Y12945228D01*
X60012099Y12891353D01*
X59985161Y12810541D01*
X59850474Y12675854D01*
X59769663Y12648917D01*
X59715787Y12648917D01*
X59634975Y12675854D01*
X59473350Y12837479D01*
X59446413Y12918290D01*
X59446414Y12972166D01*
X43640728Y45041472D02*
X43182792Y44583536D01*
X43155855Y44502725D01*
X43155855Y44448849D01*
X43182792Y44368037D01*
X43290542Y44260288D01*
X43371354Y44233350D01*
X43425229Y44233350D01*
X43506041Y44260288D01*
X43963977Y44718223D01*
X44287225Y44017852D02*
X43910101Y43640728D01*
X44368037Y44368037D02*
X43829290Y44098663D01*
X44179476Y43748477D01*
X44718224Y43963976D02*
X45068410Y43613790D01*
X44664349Y43586852D01*
X44745161Y43506040D01*
X44772098Y43425228D01*
X44772099Y43371353D01*
X44745161Y43290541D01*
X44610474Y43155854D01*
X44529663Y43128917D01*
X44475787Y43128917D01*
X44394975Y43155854D01*
X44233350Y43317479D01*
X44206413Y43398290D01*
X44206414Y43452166D01*
X54219408Y2280152D02*
X53761472Y1822216D01*
X53734535Y1741405D01*
X53734535Y1687529D01*
X53761472Y1606717D01*
X53869222Y1498968D01*
X53950034Y1472030D01*
X54003909Y1472030D01*
X54084721Y1498968D01*
X54542657Y1956903D01*
X55054467Y1445093D02*
X54946717Y1552843D01*
X54865905Y1579780D01*
X54812031Y1579780D01*
X54677343Y1552843D01*
X54542657Y1472030D01*
X54327157Y1256531D01*
X54300220Y1175719D01*
X54300219Y1121844D01*
X54327157Y1041032D01*
X54434907Y933282D01*
X54515719Y906345D01*
X54569595Y906345D01*
X54650406Y933282D01*
X54785093Y1067969D01*
X54812031Y1148781D01*
X54812030Y1202657D01*
X54785093Y1283468D01*
X54677343Y1391218D01*
X54596531Y1418156D01*
X54542657Y1418156D01*
X54461844Y1391218D01*
X55404654Y717784D02*
X55027530Y340659D01*
X55485465Y1067969D02*
X54946718Y798595D01*
X55296904Y448409D01*
X47018088Y2698832D02*
X46560152Y2240896D01*
X46533215Y2160085D01*
X46533215Y2106209D01*
X46560152Y2025397D01*
X46667902Y1917648D01*
X46748714Y1890710D01*
X46802589Y1890710D01*
X46883401Y1917648D01*
X47341337Y2375583D01*
X47664585Y1675212D02*
X47287461Y1298088D01*
X47745397Y2025397D02*
X47206650Y1756023D01*
X47556836Y1405837D01*
X47610710Y974839D02*
X47718460Y867089D01*
X47799272Y840151D01*
X47853148Y840152D01*
X47987834Y867088D01*
X48122521Y947901D01*
X48338021Y1163400D01*
X48364958Y1244212D01*
X48364958Y1298088D01*
X48338021Y1378899D01*
X48230271Y1486649D01*
X48149458Y1513587D01*
X48095584Y1513587D01*
X48014772Y1486649D01*
X47880085Y1351962D01*
X47853148Y1271150D01*
X47853147Y1217275D01*
X47880085Y1136463D01*
X47987834Y1028713D01*
X48068646Y1001776D01*
X48122522Y1001776D01*
X48203334Y1028713D01*
X43021168Y1298088D02*
X43479104Y840152D01*
X43559915Y813215D01*
X43613791Y813215D01*
X43694603Y840152D01*
X43802352Y947902D01*
X43829290Y1028714D01*
X43829290Y1082589D01*
X43802352Y1163401D01*
X43344417Y1621337D01*
X44044788Y1944585D02*
X44421912Y1567461D01*
X43694603Y2025397D02*
X43963977Y1486650D01*
X44314163Y1836836D01*
X44475788Y2267834D02*
X44394975Y2240896D01*
X44341100Y2240897D01*
X44260288Y2267834D01*
X44233351Y2294772D01*
X44206413Y2375584D01*
X44206413Y2429458D01*
X44233351Y2510271D01*
X44341101Y2618021D01*
X44421912Y2644958D01*
X44475788Y2644958D01*
X44556600Y2618021D01*
X44583537Y2591083D01*
X44610474Y2510272D01*
X44610474Y2456396D01*
X44583537Y2375584D01*
X44475788Y2267834D01*
X44448850Y2187022D01*
X44448850Y2133148D01*
X44475788Y2052335D01*
X44583537Y1944585D01*
X44664349Y1917648D01*
X44718224Y1917648D01*
X44799036Y1944585D01*
X44906786Y2052335D01*
X44933723Y2133147D01*
X44933723Y2187023D01*
X44906786Y2267834D01*
X44799036Y2375584D01*
X44718224Y2402522D01*
X44664349Y2402521D01*
X44583537Y2375584D01*
X31778088Y2698832D02*
X31320152Y2240896D01*
X31293215Y2160085D01*
X31293215Y2106209D01*
X31320152Y2025397D01*
X31427902Y1917648D01*
X31508714Y1890710D01*
X31562589Y1890710D01*
X31643401Y1917648D01*
X32101337Y2375583D01*
X32316836Y2160084D02*
X32667022Y1809898D01*
X32262961Y1782961D01*
X32343773Y1702148D01*
X32370710Y1621337D01*
X32370711Y1567461D01*
X32343773Y1486649D01*
X32209086Y1351962D01*
X32128275Y1325025D01*
X32074399Y1325025D01*
X31993587Y1351962D01*
X31831962Y1513587D01*
X31805025Y1594399D01*
X31805026Y1648274D01*
X32855584Y1621336D02*
X33205770Y1271150D01*
X32801709Y1244212D01*
X32882521Y1163400D01*
X32909458Y1082588D01*
X32909459Y1028713D01*
X32882521Y947901D01*
X32747834Y813214D01*
X32667023Y786277D01*
X32613147Y786277D01*
X32532335Y813214D01*
X32370710Y974839D01*
X32343773Y1055650D01*
X32343774Y1109526D01*
X27781168Y1298088D02*
X28239104Y840152D01*
X28319915Y813215D01*
X28373791Y813215D01*
X28454603Y840152D01*
X28562352Y947902D01*
X28589290Y1028714D01*
X28589290Y1082589D01*
X28562352Y1163401D01*
X28104417Y1621337D01*
X28319916Y1836836D02*
X28670102Y2187022D01*
X28697039Y1782961D01*
X28777852Y1863773D01*
X28858663Y1890710D01*
X28912539Y1890711D01*
X28993351Y1863773D01*
X29128038Y1729086D01*
X29154975Y1648275D01*
X29154975Y1594399D01*
X29128038Y1513587D01*
X28966413Y1351962D01*
X28885601Y1325025D01*
X28831726Y1325026D01*
X28939476Y2348647D02*
X28939476Y2402521D01*
X28966414Y2483334D01*
X29101101Y2618021D01*
X29181912Y2644958D01*
X29235788Y2644958D01*
X29316600Y2618021D01*
X29370474Y2564146D01*
X29424350Y2456396D01*
X29424350Y1809899D01*
X29774536Y2160085D01*
X16538088Y2698832D02*
X16080152Y2240896D01*
X16053215Y2160085D01*
X16053215Y2106209D01*
X16080152Y2025397D01*
X16187902Y1917648D01*
X16268714Y1890710D01*
X16322589Y1890710D01*
X16403401Y1917648D01*
X16861337Y2375583D01*
X16861337Y1244212D02*
X16538088Y1567461D01*
X16699712Y1405837D02*
X17265397Y1971523D01*
X17130711Y1944585D01*
X17022961Y1944585D01*
X16942149Y1971523D01*
X17615584Y1621336D02*
X17992707Y1244212D01*
X17184585Y920964D01*
X12541168Y1298088D02*
X12999104Y840152D01*
X13079915Y813215D01*
X13133791Y813215D01*
X13214603Y840152D01*
X13322352Y947902D01*
X13349290Y1028714D01*
X13349290Y1082589D01*
X13322352Y1163401D01*
X12864417Y1621337D01*
X13995788Y1621337D02*
X13672539Y1298088D01*
X13834163Y1459712D02*
X13268477Y2025397D01*
X13295415Y1890711D01*
X13295415Y1782961D01*
X13268477Y1702149D01*
X13914975Y2671895D02*
X13807225Y2564145D01*
X13780288Y2483334D01*
X13780288Y2429459D01*
X13807225Y2294772D01*
X13888038Y2160085D01*
X14103537Y1944585D01*
X14184349Y1917648D01*
X14238224Y1917648D01*
X14319036Y1944585D01*
X14426786Y2052335D01*
X14453723Y2133147D01*
X14453723Y2187023D01*
X14426786Y2267834D01*
X14292099Y2402521D01*
X14211287Y2429459D01*
X14157412Y2429458D01*
X14076600Y2402521D01*
X13968850Y2294772D01*
X13941912Y2213959D01*
X13941912Y2160085D01*
X13968850Y2079272D01*
X5339848Y879408D02*
X5797784Y421472D01*
X5878595Y394535D01*
X5932471Y394535D01*
X6013283Y421472D01*
X6121032Y529222D01*
X6147970Y610034D01*
X6147970Y663909D01*
X6121032Y744721D01*
X5663097Y1202657D01*
X6040220Y1579780D02*
X6094095Y1633655D01*
X6174907Y1660592D01*
X6228781Y1660592D01*
X6309595Y1633655D01*
X6444281Y1552843D01*
X6578968Y1418156D01*
X6659781Y1283469D01*
X6686717Y1202657D01*
X6686718Y1148781D01*
X6659781Y1067970D01*
X6605905Y1014095D01*
X6525094Y987157D01*
X6471218Y987157D01*
X6390406Y1014095D01*
X6255719Y1094907D01*
X6121032Y1229594D01*
X6040220Y1364281D01*
X6013282Y1445093D01*
X6013283Y1498968D01*
X6040220Y1579780D01*
X7333216Y1741405D02*
X7009967Y1418156D01*
X7171591Y1579780D02*
X6605905Y2145465D01*
X6632843Y2010779D01*
X6632843Y1903029D01*
X6605905Y1822217D01*
X678528Y28400728D02*
X1136464Y27942792D01*
X1217275Y27915855D01*
X1271151Y27915855D01*
X1351963Y27942792D01*
X1459712Y28050542D01*
X1486650Y28131354D01*
X1486650Y28185229D01*
X1459712Y28266041D01*
X1001777Y28723977D01*
X1378900Y29101100D02*
X1432775Y29154975D01*
X1513587Y29181912D01*
X1567461Y29181912D01*
X1648275Y29154975D01*
X1782961Y29074163D01*
X1917648Y28939476D01*
X1998461Y28804789D01*
X2025397Y28723977D01*
X2025398Y28670101D01*
X1998461Y28589290D01*
X1944585Y28535415D01*
X1863774Y28508477D01*
X1809898Y28508477D01*
X1729086Y28535415D01*
X1594399Y28616227D01*
X1459712Y28750914D01*
X1378900Y28885601D01*
X1351962Y28966413D01*
X1351963Y29020288D01*
X1378900Y29101100D01*
X2240896Y29585974D02*
X2618021Y29208850D01*
X1890711Y29666785D02*
X2160085Y29128038D01*
X2510271Y29478224D01*
X678528Y13160728D02*
X1136464Y12702792D01*
X1217275Y12675855D01*
X1271151Y12675855D01*
X1351963Y12702792D01*
X1459712Y12810542D01*
X1486650Y12891354D01*
X1486650Y12945229D01*
X1459712Y13026041D01*
X1001777Y13483977D01*
X1378900Y13861100D02*
X1432775Y13914975D01*
X1513587Y13941912D01*
X1567461Y13941912D01*
X1648275Y13914975D01*
X1782961Y13834163D01*
X1917648Y13699476D01*
X1998461Y13564789D01*
X2025397Y13483977D01*
X2025398Y13430101D01*
X1998461Y13349290D01*
X1944585Y13295415D01*
X1863774Y13268477D01*
X1809898Y13268477D01*
X1729086Y13295415D01*
X1594399Y13376227D01*
X1459712Y13510914D01*
X1378900Y13645601D01*
X1351962Y13726413D01*
X1351963Y13780288D01*
X1378900Y13861100D01*
X1836836Y14211287D02*
X1836836Y14265161D01*
X1863774Y14345974D01*
X1998461Y14480661D01*
X2079272Y14507598D01*
X2133148Y14507598D01*
X2213960Y14480661D01*
X2267834Y14426786D01*
X2321710Y14319036D01*
X2321710Y13672539D01*
X2671896Y14022725D01*
X1298088Y17938832D02*
X840152Y17480896D01*
X813215Y17400085D01*
X813215Y17346209D01*
X840152Y17265397D01*
X947902Y17157648D01*
X1028714Y17130710D01*
X1082589Y17130710D01*
X1163401Y17157648D01*
X1621337Y17615583D01*
X1998460Y17238460D02*
X2052335Y17184585D01*
X2079272Y17103773D01*
X2079272Y17049899D01*
X2052335Y16969085D01*
X1971523Y16834399D01*
X1836836Y16699712D01*
X1702149Y16618899D01*
X1621337Y16591963D01*
X1567461Y16591962D01*
X1486650Y16618899D01*
X1432775Y16672775D01*
X1405837Y16753586D01*
X1405837Y16807462D01*
X1432775Y16888274D01*
X1513587Y17022961D01*
X1648274Y17157648D01*
X1782961Y17238460D01*
X1863773Y17265398D01*
X1917648Y17265397D01*
X1998460Y17238460D01*
X2375584Y16861336D02*
X2725770Y16511150D01*
X2321709Y16484212D01*
X2402521Y16403400D01*
X2429458Y16322588D01*
X2429459Y16268713D01*
X2402521Y16187901D01*
X2267834Y16053214D01*
X2187023Y16026277D01*
X2133147Y16026277D01*
X2052335Y16053214D01*
X1890710Y16214839D01*
X1863773Y16295650D01*
X1863774Y16349526D01*
X1298088Y48418832D02*
X840152Y47960896D01*
X813215Y47880085D01*
X813215Y47826209D01*
X840152Y47745397D01*
X947902Y47637648D01*
X1028714Y47610710D01*
X1082589Y47610710D01*
X1163401Y47637648D01*
X1621337Y48095583D01*
X1998460Y47718460D02*
X2052335Y47664585D01*
X2079272Y47583773D01*
X2079272Y47529899D01*
X2052335Y47449085D01*
X1971523Y47314399D01*
X1836836Y47179712D01*
X1702149Y47098899D01*
X1621337Y47071963D01*
X1567461Y47071962D01*
X1486650Y47098899D01*
X1432775Y47152775D01*
X1405837Y47233586D01*
X1405837Y47287462D01*
X1432775Y47368274D01*
X1513587Y47502961D01*
X1648274Y47637648D01*
X1782961Y47718460D01*
X1863773Y47745398D01*
X1917648Y47745397D01*
X1998460Y47718460D01*
X2375584Y47341336D02*
X2752707Y46964212D01*
X1944585Y46640964D01*
X678528Y58880728D02*
X1136464Y58422792D01*
X1217275Y58395855D01*
X1271151Y58395855D01*
X1351963Y58422792D01*
X1459712Y58530542D01*
X1486650Y58611354D01*
X1486650Y58665229D01*
X1459712Y58746041D01*
X1001777Y59203977D01*
X1378900Y59581100D02*
X1432775Y59634975D01*
X1513587Y59661912D01*
X1567461Y59661912D01*
X1648275Y59634975D01*
X1782961Y59554163D01*
X1917648Y59419476D01*
X1998461Y59284789D01*
X2025397Y59203977D01*
X2025398Y59150101D01*
X1998461Y59069290D01*
X1944585Y59015415D01*
X1863774Y58988477D01*
X1809898Y58988477D01*
X1729086Y59015415D01*
X1594399Y59096227D01*
X1459712Y59230914D01*
X1378900Y59365601D01*
X1351962Y59446413D01*
X1351963Y59500288D01*
X1378900Y59581100D01*
X2133148Y59850474D02*
X2052335Y59823536D01*
X1998460Y59823537D01*
X1917648Y59850474D01*
X1890711Y59877412D01*
X1863773Y59958224D01*
X1863773Y60012098D01*
X1890711Y60092911D01*
X1998461Y60200661D01*
X2079272Y60227598D01*
X2133148Y60227598D01*
X2213960Y60200661D01*
X2240897Y60173723D01*
X2267834Y60092912D01*
X2267834Y60039036D01*
X2240897Y59958224D01*
X2133148Y59850474D01*
X2106210Y59769662D01*
X2106210Y59715788D01*
X2133148Y59634975D01*
X2240897Y59527225D01*
X2321709Y59500288D01*
X2375584Y59500288D01*
X2456396Y59527225D01*
X2564146Y59634975D01*
X2591083Y59715787D01*
X2591083Y59769663D01*
X2564146Y59850474D01*
X2456396Y59958224D01*
X2375584Y59985162D01*
X2321709Y59985161D01*
X2240897Y59958224D01*
X13160728Y60281472D02*
X12702792Y59823536D01*
X12675855Y59742725D01*
X12675855Y59688849D01*
X12702792Y59608037D01*
X12810542Y59500288D01*
X12891354Y59473350D01*
X12945229Y59473350D01*
X13026041Y59500288D01*
X13483977Y59958223D01*
X13861100Y59581100D02*
X13914975Y59527225D01*
X13941912Y59446413D01*
X13941912Y59392539D01*
X13914975Y59311725D01*
X13834163Y59177039D01*
X13699476Y59042352D01*
X13564789Y58961539D01*
X13483977Y58934603D01*
X13430101Y58934602D01*
X13349290Y58961539D01*
X13295415Y59015415D01*
X13268477Y59096226D01*
X13268477Y59150102D01*
X13295415Y59230914D01*
X13376227Y59365601D01*
X13510914Y59500288D01*
X13645601Y59581100D01*
X13726413Y59608038D01*
X13780288Y59608037D01*
X13861100Y59581100D01*
X13753350Y58557479D02*
X13861100Y58449729D01*
X13941912Y58422791D01*
X13995788Y58422792D01*
X14130474Y58449728D01*
X14265161Y58530541D01*
X14480661Y58746040D01*
X14507598Y58826852D01*
X14507598Y58880728D01*
X14480661Y58961539D01*
X14372911Y59069289D01*
X14292098Y59096227D01*
X14238224Y59096227D01*
X14157412Y59069289D01*
X14022725Y58934602D01*
X13995788Y58853790D01*
X13995787Y58799915D01*
X14022725Y58719103D01*
X14130474Y58611353D01*
X14211286Y58584416D01*
X14265162Y58584416D01*
X14345974Y58611353D01*
X12541168Y47018088D02*
X12999104Y46560152D01*
X13079915Y46533215D01*
X13133791Y46533215D01*
X13214603Y46560152D01*
X13322352Y46667902D01*
X13349290Y46748714D01*
X13349290Y46802589D01*
X13322352Y46883401D01*
X12864417Y47341337D01*
X13995788Y47341337D02*
X13672539Y47018088D01*
X13834163Y47179712D02*
X13268477Y47745397D01*
X13295415Y47610711D01*
X13295415Y47502961D01*
X13268477Y47422149D01*
X13780288Y48257208D02*
X13834163Y48311083D01*
X13914975Y48338021D01*
X13968850Y48338021D01*
X14049663Y48311083D01*
X14184350Y48230271D01*
X14319036Y48095584D01*
X14399849Y47960897D01*
X14426785Y47880085D01*
X14426786Y47826210D01*
X14399849Y47745398D01*
X14345974Y47691523D01*
X14265162Y47664585D01*
X14211286Y47664585D01*
X14130474Y47691523D01*
X13995788Y47772335D01*
X13861101Y47907022D01*
X13780288Y48041709D01*
X13753350Y48122521D01*
X13753351Y48176396D01*
X13780288Y48257208D01*
X13160728Y29801472D02*
X12702792Y29343536D01*
X12675855Y29262725D01*
X12675855Y29208849D01*
X12702792Y29128037D01*
X12810542Y29020288D01*
X12891354Y28993350D01*
X12945229Y28993350D01*
X13026041Y29020288D01*
X13483977Y29478223D01*
X13483977Y28346852D02*
X13160728Y28670101D01*
X13322352Y28508477D02*
X13888037Y29074163D01*
X13753351Y29047225D01*
X13645601Y29047225D01*
X13564789Y29074163D01*
X14238224Y28723976D02*
X14588410Y28373790D01*
X14184349Y28346852D01*
X14265161Y28266040D01*
X14292098Y28185228D01*
X14292099Y28131353D01*
X14265161Y28050541D01*
X14130474Y27915854D01*
X14049663Y27888917D01*
X13995787Y27888917D01*
X13914975Y27915854D01*
X13753350Y28077479D01*
X13726413Y28158290D01*
X13726414Y28212166D01*
X12541168Y16538088D02*
X12999104Y16080152D01*
X13079915Y16053215D01*
X13133791Y16053215D01*
X13214603Y16080152D01*
X13322352Y16187902D01*
X13349290Y16268714D01*
X13349290Y16322589D01*
X13322352Y16403401D01*
X12864417Y16861337D01*
X13995788Y16861337D02*
X13672539Y16538088D01*
X13834163Y16699712D02*
X13268477Y17265397D01*
X13295415Y17130711D01*
X13295415Y17022961D01*
X13268477Y16942149D01*
X14103536Y17723334D02*
X14480661Y17346210D01*
X13753351Y17804145D02*
X14022725Y17265398D01*
X14372911Y17615584D01*
X13160728Y14561472D02*
X12702792Y14103536D01*
X12675855Y14022725D01*
X12675855Y13968849D01*
X12702792Y13888037D01*
X12810542Y13780288D01*
X12891354Y13753350D01*
X12945229Y13753350D01*
X13026041Y13780288D01*
X13483977Y14238223D01*
X13483977Y13106852D02*
X13160728Y13430101D01*
X13322352Y13268477D02*
X13888037Y13834163D01*
X13753351Y13807225D01*
X13645601Y13807225D01*
X13564789Y13834163D01*
X14561473Y13160727D02*
X14292098Y13430101D01*
X13995788Y13187665D01*
X14049662Y13187665D01*
X14130474Y13160727D01*
X14265161Y13026040D01*
X14292098Y12945228D01*
X14292099Y12891353D01*
X14265161Y12810541D01*
X14130474Y12675854D01*
X14049663Y12648917D01*
X13995787Y12648917D01*
X13914975Y12675854D01*
X13780288Y12810541D01*
X13753350Y12891353D01*
X13753351Y12945228D01*
X15918528Y13160728D02*
X16376464Y12702792D01*
X16457275Y12675855D01*
X16511151Y12675855D01*
X16591963Y12702792D01*
X16699712Y12810542D01*
X16726650Y12891354D01*
X16726650Y12945229D01*
X16699712Y13026041D01*
X16241777Y13483977D01*
X17373148Y13483977D02*
X17049899Y13160728D01*
X17211523Y13322352D02*
X16645837Y13888037D01*
X16672775Y13753351D01*
X16672775Y13645601D01*
X16645837Y13564789D01*
X17373148Y14130474D02*
X17292335Y14103536D01*
X17238460Y14103537D01*
X17157648Y14130474D01*
X17130711Y14157412D01*
X17103773Y14238224D01*
X17103773Y14292098D01*
X17130711Y14372911D01*
X17238461Y14480661D01*
X17319272Y14507598D01*
X17373148Y14507598D01*
X17453960Y14480661D01*
X17480897Y14453723D01*
X17507834Y14372912D01*
X17507834Y14319036D01*
X17480897Y14238224D01*
X17373148Y14130474D01*
X17346210Y14049662D01*
X17346210Y13995788D01*
X17373148Y13914975D01*
X17480897Y13807225D01*
X17561709Y13780288D01*
X17615584Y13780288D01*
X17696396Y13807225D01*
X17804146Y13914975D01*
X17831083Y13995787D01*
X17831083Y14049663D01*
X17804146Y14130474D01*
X17696396Y14238224D01*
X17615584Y14265162D01*
X17561709Y14265161D01*
X17480897Y14238224D01*
X15918528Y28400728D02*
X16376464Y27942792D01*
X16457275Y27915855D01*
X16511151Y27915855D01*
X16591963Y27942792D01*
X16699712Y28050542D01*
X16726650Y28131354D01*
X16726650Y28185229D01*
X16699712Y28266041D01*
X16241777Y28723977D01*
X16538088Y28912539D02*
X16538088Y28966413D01*
X16565026Y29047225D01*
X16699712Y29181912D01*
X16780524Y29208850D01*
X16834399Y29208850D01*
X16915212Y29181912D01*
X16969086Y29128038D01*
X17022961Y29020288D01*
X17022961Y28373790D01*
X17373148Y28723977D01*
X17157648Y29639848D02*
X17211523Y29693723D01*
X17292335Y29720661D01*
X17346210Y29720661D01*
X17427023Y29693723D01*
X17561710Y29612911D01*
X17696396Y29478224D01*
X17777209Y29343537D01*
X17804145Y29262725D01*
X17804146Y29208850D01*
X17777209Y29128038D01*
X17723334Y29074163D01*
X17642522Y29047225D01*
X17588646Y29047225D01*
X17507834Y29074163D01*
X17373148Y29154975D01*
X17238461Y29289662D01*
X17157648Y29424349D01*
X17130710Y29505161D01*
X17130711Y29559036D01*
X17157648Y29639848D01*
X16538088Y33178832D02*
X16080152Y32720896D01*
X16053215Y32640085D01*
X16053215Y32586209D01*
X16080152Y32505397D01*
X16187902Y32397648D01*
X16268714Y32370710D01*
X16322589Y32370710D01*
X16403401Y32397648D01*
X16861337Y32855583D01*
X17049899Y32559272D02*
X17103773Y32559272D01*
X17184585Y32532334D01*
X17319272Y32397648D01*
X17346210Y32316836D01*
X17346210Y32262961D01*
X17319272Y32182148D01*
X17265398Y32128274D01*
X17157648Y32074399D01*
X16511150Y32074399D01*
X16861337Y31724212D01*
X17400085Y31185464D02*
X17076836Y31508713D01*
X17238460Y31347089D02*
X17804145Y31912775D01*
X17669459Y31885837D01*
X17561709Y31885837D01*
X17480897Y31912775D01*
X15918528Y43640728D02*
X16376464Y43182792D01*
X16457275Y43155855D01*
X16511151Y43155855D01*
X16591963Y43182792D01*
X16699712Y43290542D01*
X16726650Y43371354D01*
X16726650Y43425229D01*
X16699712Y43506041D01*
X16241777Y43963977D01*
X16538088Y44152539D02*
X16538088Y44206413D01*
X16565026Y44287225D01*
X16699712Y44421912D01*
X16780524Y44448850D01*
X16834399Y44448850D01*
X16915212Y44421912D01*
X16969086Y44368038D01*
X17022961Y44260288D01*
X17022961Y43613790D01*
X17373148Y43963977D01*
X17076836Y44691287D02*
X17076836Y44745161D01*
X17103774Y44825974D01*
X17238461Y44960661D01*
X17319272Y44987598D01*
X17373148Y44987598D01*
X17453960Y44960661D01*
X17507834Y44906786D01*
X17561710Y44799036D01*
X17561710Y44152539D01*
X17911896Y44502725D01*
X15918528Y58880728D02*
X16376464Y58422792D01*
X16457275Y58395855D01*
X16511151Y58395855D01*
X16591963Y58422792D01*
X16699712Y58530542D01*
X16726650Y58611354D01*
X16726650Y58665229D01*
X16699712Y58746041D01*
X16241777Y59203977D01*
X16538088Y59392539D02*
X16538088Y59446413D01*
X16565026Y59527225D01*
X16699712Y59661912D01*
X16780524Y59688850D01*
X16834399Y59688850D01*
X16915212Y59661912D01*
X16969086Y59608038D01*
X17022961Y59500288D01*
X17022961Y58853790D01*
X17373148Y59203977D01*
X17480896Y60065974D02*
X17858021Y59688850D01*
X17130711Y60146785D02*
X17400085Y59608038D01*
X17750271Y59958224D01*
X28400728Y60281472D02*
X27942792Y59823536D01*
X27915855Y59742725D01*
X27915855Y59688849D01*
X27942792Y59608037D01*
X28050542Y59500288D01*
X28131354Y59473350D01*
X28185229Y59473350D01*
X28266041Y59500288D01*
X28723977Y59958223D01*
X28912539Y59661912D02*
X28966413Y59661912D01*
X29047225Y59634974D01*
X29181912Y59500288D01*
X29208850Y59419476D01*
X29208850Y59365601D01*
X29181912Y59284788D01*
X29128038Y59230914D01*
X29020288Y59177039D01*
X28373790Y59177039D01*
X28723977Y58826852D01*
X29801473Y58880727D02*
X29532098Y59150101D01*
X29235788Y58907665D01*
X29289662Y58907665D01*
X29370474Y58880727D01*
X29505161Y58746040D01*
X29532098Y58665228D01*
X29532099Y58611353D01*
X29505161Y58530541D01*
X29370474Y58395854D01*
X29289663Y58368917D01*
X29235787Y58368917D01*
X29154975Y58395854D01*
X29020288Y58530541D01*
X28993350Y58611353D01*
X28993351Y58665228D01*
X27781168Y47018088D02*
X28239104Y46560152D01*
X28319915Y46533215D01*
X28373791Y46533215D01*
X28454603Y46560152D01*
X28562352Y46667902D01*
X28589290Y46748714D01*
X28589290Y46802589D01*
X28562352Y46883401D01*
X28104417Y47341337D01*
X28400728Y47529899D02*
X28400728Y47583773D01*
X28427666Y47664585D01*
X28562352Y47799272D01*
X28643164Y47826210D01*
X28697039Y47826210D01*
X28777852Y47799272D01*
X28831726Y47745398D01*
X28885601Y47637648D01*
X28885601Y46991150D01*
X29235788Y47341337D01*
X29154975Y48391895D02*
X29047225Y48284145D01*
X29020288Y48203334D01*
X29020288Y48149459D01*
X29047225Y48014772D01*
X29128038Y47880085D01*
X29343537Y47664585D01*
X29424349Y47637648D01*
X29478224Y47637648D01*
X29559036Y47664585D01*
X29666786Y47772335D01*
X29693723Y47853147D01*
X29693723Y47907023D01*
X29666786Y47987834D01*
X29532099Y48122521D01*
X29451287Y48149459D01*
X29397412Y48149458D01*
X29316600Y48122521D01*
X29208850Y48014772D01*
X29181912Y47933959D01*
X29181912Y47880085D01*
X29208850Y47799272D01*
X28400728Y45041472D02*
X27942792Y44583536D01*
X27915855Y44502725D01*
X27915855Y44448849D01*
X27942792Y44368037D01*
X28050542Y44260288D01*
X28131354Y44233350D01*
X28185229Y44233350D01*
X28266041Y44260288D01*
X28723977Y44718223D01*
X28912539Y44421912D02*
X28966413Y44421912D01*
X29047225Y44394974D01*
X29181912Y44260288D01*
X29208850Y44179476D01*
X29208850Y44125601D01*
X29181912Y44044788D01*
X29128038Y43990914D01*
X29020288Y43937039D01*
X28373790Y43937039D01*
X28723977Y43586852D01*
X29478224Y43963976D02*
X29855347Y43586852D01*
X29047225Y43263604D01*
X27781168Y31778088D02*
X28239104Y31320152D01*
X28319915Y31293215D01*
X28373791Y31293215D01*
X28454603Y31320152D01*
X28562352Y31427902D01*
X28589290Y31508714D01*
X28589290Y31562589D01*
X28562352Y31643401D01*
X28104417Y32101337D01*
X28400728Y32289899D02*
X28400728Y32343773D01*
X28427666Y32424585D01*
X28562352Y32559272D01*
X28643164Y32586210D01*
X28697039Y32586210D01*
X28777852Y32559272D01*
X28831726Y32505398D01*
X28885601Y32397648D01*
X28885601Y31751150D01*
X29235788Y32101337D01*
X29235788Y32747834D02*
X29154975Y32720896D01*
X29101100Y32720897D01*
X29020288Y32747834D01*
X28993351Y32774772D01*
X28966413Y32855584D01*
X28966413Y32909458D01*
X28993351Y32990271D01*
X29101101Y33098021D01*
X29181912Y33124958D01*
X29235788Y33124958D01*
X29316600Y33098021D01*
X29343537Y33071083D01*
X29370474Y32990272D01*
X29370474Y32936396D01*
X29343537Y32855584D01*
X29235788Y32747834D01*
X29208850Y32667022D01*
X29208850Y32613148D01*
X29235788Y32532335D01*
X29343537Y32424585D01*
X29424349Y32397648D01*
X29478224Y32397648D01*
X29559036Y32424585D01*
X29666786Y32532335D01*
X29693723Y32613147D01*
X29693723Y32667023D01*
X29666786Y32747834D01*
X29559036Y32855584D01*
X29478224Y32882522D01*
X29424349Y32882521D01*
X29343537Y32855584D01*
X28400728Y29801472D02*
X27942792Y29343536D01*
X27915855Y29262725D01*
X27915855Y29208849D01*
X27942792Y29128037D01*
X28050542Y29020288D01*
X28131354Y28993350D01*
X28185229Y28993350D01*
X28266041Y29020288D01*
X28723977Y29478223D01*
X28912539Y29181912D02*
X28966413Y29181912D01*
X29047225Y29154974D01*
X29181912Y29020288D01*
X29208850Y28939476D01*
X29208850Y28885601D01*
X29181912Y28804788D01*
X29128038Y28750914D01*
X29020288Y28697039D01*
X28373790Y28697039D01*
X28723977Y28346852D01*
X28993350Y28077479D02*
X29101100Y27969729D01*
X29181912Y27942791D01*
X29235788Y27942792D01*
X29370474Y27969728D01*
X29505161Y28050541D01*
X29720661Y28266040D01*
X29747598Y28346852D01*
X29747598Y28400728D01*
X29720661Y28481539D01*
X29612911Y28589289D01*
X29532098Y28616227D01*
X29478224Y28616227D01*
X29397412Y28589289D01*
X29262725Y28454602D01*
X29235788Y28373790D01*
X29235787Y28319915D01*
X29262725Y28239103D01*
X29370474Y28131353D01*
X29451286Y28104416D01*
X29505162Y28104416D01*
X29585974Y28131353D01*
X27781168Y16538088D02*
X28239104Y16080152D01*
X28319915Y16053215D01*
X28373791Y16053215D01*
X28454603Y16080152D01*
X28562352Y16187902D01*
X28589290Y16268714D01*
X28589290Y16322589D01*
X28562352Y16403401D01*
X28104417Y16861337D01*
X28319916Y17076836D02*
X28670102Y17427022D01*
X28697039Y17022961D01*
X28777852Y17103773D01*
X28858663Y17130710D01*
X28912539Y17130711D01*
X28993351Y17103773D01*
X29128038Y16969086D01*
X29154975Y16888275D01*
X29154975Y16834399D01*
X29128038Y16753587D01*
X28966413Y16591962D01*
X28885601Y16565025D01*
X28831726Y16565026D01*
X29020288Y17777208D02*
X29074163Y17831083D01*
X29154975Y17858021D01*
X29208850Y17858021D01*
X29289663Y17831083D01*
X29424350Y17750271D01*
X29559036Y17615584D01*
X29639849Y17480897D01*
X29666785Y17400085D01*
X29666786Y17346210D01*
X29639849Y17265398D01*
X29585974Y17211523D01*
X29505162Y17184585D01*
X29451286Y17184585D01*
X29370474Y17211523D01*
X29235788Y17292335D01*
X29101101Y17427022D01*
X29020288Y17561709D01*
X28993350Y17642521D01*
X28993351Y17696396D01*
X29020288Y17777208D01*
X28400728Y14561472D02*
X27942792Y14103536D01*
X27915855Y14022725D01*
X27915855Y13968849D01*
X27942792Y13888037D01*
X28050542Y13780288D01*
X28131354Y13753350D01*
X28185229Y13753350D01*
X28266041Y13780288D01*
X28723977Y14238223D01*
X28939476Y14022724D02*
X29289662Y13672538D01*
X28885601Y13645601D01*
X28966413Y13564788D01*
X28993350Y13483977D01*
X28993351Y13430101D01*
X28966413Y13349289D01*
X28831726Y13214602D01*
X28750915Y13187665D01*
X28697039Y13187665D01*
X28616227Y13214602D01*
X28454602Y13376227D01*
X28427665Y13457039D01*
X28427666Y13510914D01*
X29262725Y12568104D02*
X28939476Y12891353D01*
X29101100Y12729729D02*
X29666785Y13295415D01*
X29532099Y13268477D01*
X29424349Y13268477D01*
X29343537Y13295415D01*
X31158528Y13160728D02*
X31616464Y12702792D01*
X31697275Y12675855D01*
X31751151Y12675855D01*
X31831963Y12702792D01*
X31939712Y12810542D01*
X31966650Y12891354D01*
X31966650Y12945229D01*
X31939712Y13026041D01*
X31481777Y13483977D01*
X31697276Y13699476D02*
X32047462Y14049662D01*
X32074399Y13645601D01*
X32155212Y13726413D01*
X32236023Y13753350D01*
X32289899Y13753351D01*
X32370711Y13726413D01*
X32505398Y13591726D01*
X32532335Y13510915D01*
X32532335Y13457039D01*
X32505398Y13376227D01*
X32343773Y13214602D01*
X32262961Y13187665D01*
X32209086Y13187666D01*
X32720896Y14345974D02*
X33098021Y13968850D01*
X32370711Y14426785D02*
X32640085Y13888038D01*
X32990271Y14238224D01*
X31778088Y17938832D02*
X31320152Y17480896D01*
X31293215Y17400085D01*
X31293215Y17346209D01*
X31320152Y17265397D01*
X31427902Y17157648D01*
X31508714Y17130710D01*
X31562589Y17130710D01*
X31643401Y17157648D01*
X32101337Y17615583D01*
X32316836Y17400084D02*
X32667022Y17049898D01*
X32262961Y17022961D01*
X32343773Y16942148D01*
X32370710Y16861337D01*
X32370711Y16807461D01*
X32343773Y16726649D01*
X32209086Y16591962D01*
X32128275Y16565025D01*
X32074399Y16565025D01*
X31993587Y16591962D01*
X31831962Y16753587D01*
X31805025Y16834399D01*
X31805026Y16888274D01*
X33178833Y16538087D02*
X32909458Y16807461D01*
X32613148Y16565025D01*
X32667022Y16565025D01*
X32747834Y16538087D01*
X32882521Y16403400D01*
X32909458Y16322588D01*
X32909459Y16268713D01*
X32882521Y16187901D01*
X32747834Y16053214D01*
X32667023Y16026277D01*
X32613147Y16026277D01*
X32532335Y16053214D01*
X32397648Y16187901D01*
X32370710Y16268713D01*
X32370711Y16322588D01*
X31158528Y28400728D02*
X31616464Y27942792D01*
X31697275Y27915855D01*
X31751151Y27915855D01*
X31831963Y27942792D01*
X31939712Y28050542D01*
X31966650Y28131354D01*
X31966650Y28185229D01*
X31939712Y28266041D01*
X31481777Y28723977D01*
X31697276Y28939476D02*
X32047462Y29289662D01*
X32074399Y28885601D01*
X32155212Y28966413D01*
X32236023Y28993350D01*
X32289899Y28993351D01*
X32370711Y28966413D01*
X32505398Y28831726D01*
X32532335Y28750915D01*
X32532335Y28697039D01*
X32505398Y28616227D01*
X32343773Y28454602D01*
X32262961Y28427665D01*
X32209086Y28427666D01*
X32532335Y29774535D02*
X32424585Y29666785D01*
X32397648Y29585974D01*
X32397648Y29532099D01*
X32424585Y29397412D01*
X32505398Y29262725D01*
X32720897Y29047225D01*
X32801709Y29020288D01*
X32855584Y29020288D01*
X32936396Y29047225D01*
X33044146Y29154975D01*
X33071083Y29235787D01*
X33071083Y29289663D01*
X33044146Y29370474D01*
X32909459Y29505161D01*
X32828647Y29532099D01*
X32774772Y29532098D01*
X32693960Y29505161D01*
X32586210Y29397412D01*
X32559272Y29316599D01*
X32559272Y29262725D01*
X32586210Y29181912D01*
X31778088Y33178832D02*
X31320152Y32720896D01*
X31293215Y32640085D01*
X31293215Y32586209D01*
X31320152Y32505397D01*
X31427902Y32397648D01*
X31508714Y32370710D01*
X31562589Y32370710D01*
X31643401Y32397648D01*
X32101337Y32855583D01*
X32316836Y32640084D02*
X32667022Y32289898D01*
X32262961Y32262961D01*
X32343773Y32182148D01*
X32370710Y32101337D01*
X32370711Y32047461D01*
X32343773Y31966649D01*
X32209086Y31831962D01*
X32128275Y31805025D01*
X32074399Y31805025D01*
X31993587Y31831962D01*
X31831962Y31993587D01*
X31805025Y32074399D01*
X31805026Y32128274D01*
X32855584Y32101336D02*
X33232707Y31724212D01*
X32424585Y31400964D01*
X31778088Y48418832D02*
X31320152Y47960896D01*
X31293215Y47880085D01*
X31293215Y47826209D01*
X31320152Y47745397D01*
X31427902Y47637648D01*
X31508714Y47610710D01*
X31562589Y47610710D01*
X31643401Y47637648D01*
X32101337Y48095583D01*
X32316836Y47880084D02*
X32667022Y47529898D01*
X32262961Y47502961D01*
X32343773Y47422148D01*
X32370710Y47341337D01*
X32370711Y47287461D01*
X32343773Y47206649D01*
X32209086Y47071962D01*
X32128275Y47045025D01*
X32074399Y47045025D01*
X31993587Y47071962D01*
X31831962Y47233587D01*
X31805025Y47314399D01*
X31805026Y47368274D01*
X32370710Y46694839D02*
X32478460Y46587089D01*
X32559272Y46560151D01*
X32613148Y46560152D01*
X32747834Y46587088D01*
X32882521Y46667901D01*
X33098021Y46883400D01*
X33124958Y46964212D01*
X33124958Y47018088D01*
X33098021Y47098899D01*
X32990271Y47206649D01*
X32909458Y47233587D01*
X32855584Y47233587D01*
X32774772Y47206649D01*
X32640085Y47071962D01*
X32613148Y46991150D01*
X32613147Y46937275D01*
X32640085Y46856463D01*
X32747834Y46748713D01*
X32828646Y46721776D01*
X32882522Y46721776D01*
X32963334Y46748713D01*
X31158528Y58880728D02*
X31616464Y58422792D01*
X31697275Y58395855D01*
X31751151Y58395855D01*
X31831963Y58422792D01*
X31939712Y58530542D01*
X31966650Y58611354D01*
X31966650Y58665229D01*
X31939712Y58746041D01*
X31481777Y59203977D01*
X32182148Y59527225D02*
X32559272Y59150101D01*
X31831963Y59608037D02*
X32101337Y59069290D01*
X32451523Y59419476D01*
X32397648Y60119848D02*
X32451523Y60173723D01*
X32532335Y60200661D01*
X32586210Y60200661D01*
X32667023Y60173723D01*
X32801710Y60092911D01*
X32936396Y59958224D01*
X33017209Y59823537D01*
X33044145Y59742725D01*
X33044146Y59688850D01*
X33017209Y59608038D01*
X32963334Y59554163D01*
X32882522Y59527225D01*
X32828646Y59527225D01*
X32747834Y59554163D01*
X32613148Y59634975D01*
X32478461Y59769662D01*
X32397648Y59904349D01*
X32370710Y59985161D01*
X32370711Y60039036D01*
X32397648Y60119848D01*
X43640728Y60281472D02*
X43182792Y59823536D01*
X43155855Y59742725D01*
X43155855Y59688849D01*
X43182792Y59608037D01*
X43290542Y59500288D01*
X43371354Y59473350D01*
X43425229Y59473350D01*
X43506041Y59500288D01*
X43963977Y59958223D01*
X44287225Y59257852D02*
X43910101Y58880728D01*
X44368037Y59608037D02*
X43829290Y59338663D01*
X44179476Y58988477D01*
X44502725Y58288104D02*
X44179476Y58611353D01*
X44341100Y58449729D02*
X44906785Y59015415D01*
X44772099Y58988477D01*
X44664349Y58988477D01*
X44583537Y59015415D01*
X43021168Y47018088D02*
X43479104Y46560152D01*
X43559915Y46533215D01*
X43613791Y46533215D01*
X43694603Y46560152D01*
X43802352Y46667902D01*
X43829290Y46748714D01*
X43829290Y46802589D01*
X43802352Y46883401D01*
X43344417Y47341337D01*
X44044788Y47664585D02*
X44421912Y47287461D01*
X43694603Y47745397D02*
X43963977Y47206650D01*
X44314163Y47556836D01*
X44179476Y48068647D02*
X44179476Y48122521D01*
X44206414Y48203334D01*
X44341101Y48338021D01*
X44421912Y48364958D01*
X44475788Y48364958D01*
X44556600Y48338021D01*
X44610474Y48284146D01*
X44664350Y48176396D01*
X44664350Y47529899D01*
X45014536Y47880085D01*
X43021168Y31778088D02*
X43479104Y31320152D01*
X43559915Y31293215D01*
X43613791Y31293215D01*
X43694603Y31320152D01*
X43802352Y31427902D01*
X43829290Y31508714D01*
X43829290Y31562589D01*
X43802352Y31643401D01*
X43344417Y32101337D01*
X44044788Y32424585D02*
X44421912Y32047461D01*
X43694603Y32505397D02*
X43963977Y31966650D01*
X44314163Y32316836D01*
X44583536Y32963334D02*
X44960661Y32586210D01*
X44233351Y33044145D02*
X44502725Y32505398D01*
X44852911Y32855584D01*
X43640728Y29801472D02*
X43182792Y29343536D01*
X43155855Y29262725D01*
X43155855Y29208849D01*
X43182792Y29128037D01*
X43290542Y29020288D01*
X43371354Y28993350D01*
X43425229Y28993350D01*
X43506041Y29020288D01*
X43963977Y29478223D01*
X44287225Y28777852D02*
X43910101Y28400728D01*
X44368037Y29128037D02*
X43829290Y28858663D01*
X44179476Y28508477D01*
X45041473Y28400727D02*
X44772098Y28670101D01*
X44475788Y28427665D01*
X44529662Y28427665D01*
X44610474Y28400727D01*
X44745161Y28266040D01*
X44772098Y28185228D01*
X44772099Y28131353D01*
X44745161Y28050541D01*
X44610474Y27915854D01*
X44529663Y27888917D01*
X44475787Y27888917D01*
X44394975Y27915854D01*
X44260288Y28050541D01*
X44233350Y28131353D01*
X44233351Y28185228D01*
X43021168Y16538088D02*
X43479104Y16080152D01*
X43559915Y16053215D01*
X43613791Y16053215D01*
X43694603Y16080152D01*
X43802352Y16187902D01*
X43829290Y16268714D01*
X43829290Y16322589D01*
X43802352Y16403401D01*
X43344417Y16861337D01*
X44044788Y17184585D02*
X44421912Y16807461D01*
X43694603Y17265397D02*
X43963977Y16726650D01*
X44314163Y17076836D01*
X44394975Y17911895D02*
X44287225Y17804145D01*
X44260288Y17723334D01*
X44260288Y17669459D01*
X44287225Y17534772D01*
X44368038Y17400085D01*
X44583537Y17184585D01*
X44664349Y17157648D01*
X44718224Y17157648D01*
X44799036Y17184585D01*
X44906786Y17292335D01*
X44933723Y17373147D01*
X44933723Y17427023D01*
X44906786Y17507834D01*
X44772099Y17642521D01*
X44691287Y17669459D01*
X44637412Y17669458D01*
X44556600Y17642521D01*
X44448850Y17534772D01*
X44421912Y17453959D01*
X44421912Y17400085D01*
X44448850Y17319272D01*
X43640728Y14561472D02*
X43182792Y14103536D01*
X43155855Y14022725D01*
X43155855Y13968849D01*
X43182792Y13888037D01*
X43290542Y13780288D01*
X43371354Y13753350D01*
X43425229Y13753350D01*
X43506041Y13780288D01*
X43963977Y14238223D01*
X44287225Y13537852D02*
X43910101Y13160728D01*
X44368037Y13888037D02*
X43829290Y13618663D01*
X44179476Y13268477D01*
X44718224Y13483976D02*
X45095347Y13106852D01*
X44287225Y12783604D01*
X46398528Y13160728D02*
X46856464Y12702792D01*
X46937275Y12675855D01*
X46991151Y12675855D01*
X47071963Y12702792D01*
X47179712Y12810542D01*
X47206650Y12891354D01*
X47206650Y12945229D01*
X47179712Y13026041D01*
X46721777Y13483977D01*
X47260525Y14022725D02*
X46991150Y13753350D01*
X47233587Y13457039D01*
X47233587Y13510914D01*
X47260525Y13591726D01*
X47395212Y13726413D01*
X47476023Y13753350D01*
X47529899Y13753351D01*
X47610711Y13726413D01*
X47745398Y13591726D01*
X47772335Y13510915D01*
X47772335Y13457039D01*
X47745398Y13376227D01*
X47610711Y13241540D01*
X47529899Y13214602D01*
X47476023Y13214603D01*
X47637648Y14399848D02*
X47691523Y14453723D01*
X47772335Y14480661D01*
X47826210Y14480661D01*
X47907023Y14453723D01*
X48041710Y14372911D01*
X48176396Y14238224D01*
X48257209Y14103537D01*
X48284145Y14022725D01*
X48284146Y13968850D01*
X48257209Y13888038D01*
X48203334Y13834163D01*
X48122522Y13807225D01*
X48068646Y13807225D01*
X47987834Y13834163D01*
X47853148Y13914975D01*
X47718461Y14049662D01*
X47637648Y14184349D01*
X47610710Y14265161D01*
X47610711Y14319036D01*
X47637648Y14399848D01*
X47018088Y17938832D02*
X46560152Y17480896D01*
X46533215Y17400085D01*
X46533215Y17346209D01*
X46560152Y17265397D01*
X46667902Y17157648D01*
X46748714Y17130710D01*
X46802589Y17130710D01*
X46883401Y17157648D01*
X47341337Y17615583D01*
X47880085Y17076835D02*
X47610710Y17346210D01*
X47314399Y17103773D01*
X47368274Y17103773D01*
X47449086Y17076835D01*
X47583773Y16942148D01*
X47610710Y16861337D01*
X47610711Y16807461D01*
X47583773Y16726649D01*
X47449086Y16591962D01*
X47368275Y16565025D01*
X47314399Y16565025D01*
X47233587Y16591962D01*
X47098900Y16726649D01*
X47071962Y16807461D01*
X47071963Y16861337D01*
X47880085Y15945464D02*
X47556836Y16268713D01*
X47718460Y16107089D02*
X48284145Y16672775D01*
X48149459Y16645837D01*
X48041709Y16645837D01*
X47960897Y16672775D01*
X46398528Y28400728D02*
X46856464Y27942792D01*
X46937275Y27915855D01*
X46991151Y27915855D01*
X47071963Y27942792D01*
X47179712Y28050542D01*
X47206650Y28131354D01*
X47206650Y28185229D01*
X47179712Y28266041D01*
X46721777Y28723977D01*
X47260525Y29262725D02*
X46991150Y28993350D01*
X47233587Y28697039D01*
X47233587Y28750914D01*
X47260525Y28831726D01*
X47395212Y28966413D01*
X47476023Y28993350D01*
X47529899Y28993351D01*
X47610711Y28966413D01*
X47745398Y28831726D01*
X47772335Y28750915D01*
X47772335Y28697039D01*
X47745398Y28616227D01*
X47610711Y28481540D01*
X47529899Y28454602D01*
X47476023Y28454603D01*
X47556836Y29451287D02*
X47556836Y29505161D01*
X47583774Y29585974D01*
X47718461Y29720661D01*
X47799272Y29747598D01*
X47853148Y29747598D01*
X47933960Y29720661D01*
X47987834Y29666786D01*
X48041710Y29559036D01*
X48041710Y28912539D01*
X48391896Y29262725D01*
X47018088Y48418832D02*
X46560152Y47960896D01*
X46533215Y47880085D01*
X46533215Y47826209D01*
X46560152Y47745397D01*
X46667902Y47637648D01*
X46748714Y47610710D01*
X46802589Y47610710D01*
X46883401Y47637648D01*
X47341337Y48095583D01*
X47880085Y47556835D02*
X47610710Y47826210D01*
X47314399Y47583773D01*
X47368274Y47583773D01*
X47449086Y47556835D01*
X47583773Y47422148D01*
X47610710Y47341337D01*
X47610711Y47287461D01*
X47583773Y47206649D01*
X47449086Y47071962D01*
X47368275Y47045025D01*
X47314399Y47045025D01*
X47233587Y47071962D01*
X47098900Y47206649D01*
X47071962Y47287461D01*
X47071963Y47341337D01*
X48418833Y47018087D02*
X48149458Y47287461D01*
X47853148Y47045025D01*
X47907022Y47045025D01*
X47987834Y47018087D01*
X48122521Y46883400D01*
X48149458Y46802588D01*
X48149459Y46748713D01*
X48122521Y46667901D01*
X47987834Y46533214D01*
X47907023Y46506277D01*
X47853147Y46506277D01*
X47772335Y46533214D01*
X47637648Y46667901D01*
X47610710Y46748713D01*
X47610711Y46802588D01*
X46398528Y58880728D02*
X46856464Y58422792D01*
X46937275Y58395855D01*
X46991151Y58395855D01*
X47071963Y58422792D01*
X47179712Y58530542D01*
X47206650Y58611354D01*
X47206650Y58665229D01*
X47179712Y58746041D01*
X46721777Y59203977D01*
X47260525Y59742725D02*
X46991150Y59473350D01*
X47233587Y59177039D01*
X47233587Y59230914D01*
X47260525Y59311726D01*
X47395212Y59446413D01*
X47476023Y59473350D01*
X47529899Y59473351D01*
X47610711Y59446413D01*
X47745398Y59311726D01*
X47772335Y59230915D01*
X47772335Y59177039D01*
X47745398Y59096227D01*
X47610711Y58961540D01*
X47529899Y58934602D01*
X47476023Y58934603D01*
X47772335Y60254535D02*
X47664585Y60146785D01*
X47637648Y60065974D01*
X47637648Y60012099D01*
X47664585Y59877412D01*
X47745398Y59742725D01*
X47960897Y59527225D01*
X48041709Y59500288D01*
X48095584Y59500288D01*
X48176396Y59527225D01*
X48284146Y59634975D01*
X48311083Y59715787D01*
X48311083Y59769663D01*
X48284146Y59850474D01*
X48149459Y59985161D01*
X48068647Y60012099D01*
X48014772Y60012098D01*
X47933960Y59985161D01*
X47826210Y59877412D01*
X47799272Y59796599D01*
X47799272Y59742725D01*
X47826210Y59661912D01*
X58880728Y60281472D02*
X58422792Y59823536D01*
X58395855Y59742725D01*
X58395855Y59688849D01*
X58422792Y59608037D01*
X58530542Y59500288D01*
X58611354Y59473350D01*
X58665229Y59473350D01*
X58746041Y59500288D01*
X59203977Y59958223D01*
X59742725Y59419475D02*
X59473350Y59688850D01*
X59177039Y59446413D01*
X59230914Y59446413D01*
X59311726Y59419475D01*
X59446413Y59284788D01*
X59473350Y59203977D01*
X59473351Y59150101D01*
X59446413Y59069289D01*
X59311726Y58934602D01*
X59230915Y58907665D01*
X59177039Y58907665D01*
X59096227Y58934602D01*
X58961540Y59069289D01*
X58934602Y59150101D01*
X58934603Y59203977D01*
X59958224Y59203976D02*
X60335347Y58826852D01*
X59527225Y58503604D01*
X58261168Y47018088D02*
X58719104Y46560152D01*
X58799915Y46533215D01*
X58853791Y46533215D01*
X58934603Y46560152D01*
X59042352Y46667902D01*
X59069290Y46748714D01*
X59069290Y46802589D01*
X59042352Y46883401D01*
X58584417Y47341337D01*
X59123165Y47880085D02*
X58853790Y47610710D01*
X59096227Y47314399D01*
X59096227Y47368274D01*
X59123165Y47449086D01*
X59257852Y47583773D01*
X59338663Y47610710D01*
X59392539Y47610711D01*
X59473351Y47583773D01*
X59608038Y47449086D01*
X59634975Y47368275D01*
X59634975Y47314399D01*
X59608038Y47233587D01*
X59473351Y47098900D01*
X59392539Y47071962D01*
X59338663Y47071963D01*
X59715788Y47987834D02*
X59634975Y47960896D01*
X59581100Y47960897D01*
X59500288Y47987834D01*
X59473351Y48014772D01*
X59446413Y48095584D01*
X59446413Y48149458D01*
X59473351Y48230271D01*
X59581101Y48338021D01*
X59661912Y48364958D01*
X59715788Y48364958D01*
X59796600Y48338021D01*
X59823537Y48311083D01*
X59850474Y48230272D01*
X59850474Y48176396D01*
X59823537Y48095584D01*
X59715788Y47987834D01*
X59688850Y47907022D01*
X59688850Y47853148D01*
X59715788Y47772335D01*
X59823537Y47664585D01*
X59904349Y47637648D01*
X59958224Y47637648D01*
X60039036Y47664585D01*
X60146786Y47772335D01*
X60173723Y47853147D01*
X60173723Y47907023D01*
X60146786Y47987834D01*
X60039036Y48095584D01*
X59958224Y48122522D01*
X59904349Y48122521D01*
X59823537Y48095584D01*
X58880728Y29801472D02*
X58422792Y29343536D01*
X58395855Y29262725D01*
X58395855Y29208849D01*
X58422792Y29128037D01*
X58530542Y29020288D01*
X58611354Y28993350D01*
X58665229Y28993350D01*
X58746041Y29020288D01*
X59203977Y29478223D01*
X59715787Y28966413D02*
X59608037Y29074163D01*
X59527225Y29101100D01*
X59473351Y29101100D01*
X59338663Y29074163D01*
X59203977Y28993350D01*
X58988477Y28777851D01*
X58961540Y28697039D01*
X58961539Y28643164D01*
X58988477Y28562352D01*
X59096227Y28454602D01*
X59177039Y28427665D01*
X59230915Y28427665D01*
X59311726Y28454602D01*
X59446413Y28589289D01*
X59473351Y28670101D01*
X59473350Y28723977D01*
X59446413Y28804788D01*
X59338663Y28912538D01*
X59257851Y28939476D01*
X59203977Y28939476D01*
X59123164Y28912538D01*
X59742725Y27808104D02*
X59419476Y28131353D01*
X59581100Y27969729D02*
X60146785Y28535415D01*
X60012099Y28508477D01*
X59904349Y28508477D01*
X59823537Y28535415D01*
X58261168Y16538088D02*
X58719104Y16080152D01*
X58799915Y16053215D01*
X58853791Y16053215D01*
X58934603Y16080152D01*
X59042352Y16187902D01*
X59069290Y16268714D01*
X59069290Y16322589D01*
X59042352Y16403401D01*
X58584417Y16861337D01*
X59096227Y17373147D02*
X58988477Y17265397D01*
X58961540Y17184585D01*
X58961540Y17130711D01*
X58988477Y16996023D01*
X59069290Y16861337D01*
X59284789Y16645837D01*
X59365601Y16618900D01*
X59419476Y16618899D01*
X59500288Y16645837D01*
X59608038Y16753587D01*
X59634975Y16834399D01*
X59634975Y16888275D01*
X59608038Y16969086D01*
X59473351Y17103773D01*
X59392539Y17130711D01*
X59338663Y17130710D01*
X59257852Y17103773D01*
X59150102Y16996023D01*
X59123164Y16915211D01*
X59123164Y16861337D01*
X59150102Y16780524D01*
X59419476Y17588647D02*
X59419476Y17642521D01*
X59446414Y17723334D01*
X59581101Y17858021D01*
X59661912Y17884958D01*
X59715788Y17884958D01*
X59796600Y17858021D01*
X59850474Y17804146D01*
X59904350Y17696396D01*
X59904350Y17049899D01*
X60254536Y17400085D01*
X1298088Y33178832D02*
X840152Y32720896D01*
X813215Y32640085D01*
X813215Y32586209D01*
X840152Y32505397D01*
X947902Y32397648D01*
X1028714Y32370710D01*
X1082589Y32370710D01*
X1163401Y32397648D01*
X1621337Y32855583D01*
X1998460Y32478460D02*
X2052335Y32424585D01*
X2079272Y32343773D01*
X2079272Y32289899D01*
X2052335Y32209085D01*
X1971523Y32074399D01*
X1836836Y31939712D01*
X1702149Y31858899D01*
X1621337Y31831963D01*
X1567461Y31831962D01*
X1486650Y31858899D01*
X1432775Y31912775D01*
X1405837Y31993586D01*
X1405837Y32047462D01*
X1432775Y32128274D01*
X1513587Y32262961D01*
X1648274Y32397648D01*
X1782961Y32478460D01*
X1863773Y32505398D01*
X1917648Y32505397D01*
X1998460Y32478460D01*
X2698833Y31778087D02*
X2429458Y32047461D01*
X2133148Y31805025D01*
X2187022Y31805025D01*
X2267834Y31778087D01*
X2402521Y31643400D01*
X2429458Y31562588D01*
X2429459Y31508713D01*
X2402521Y31427901D01*
X2267834Y31293214D01*
X2187023Y31266277D01*
X2133147Y31266277D01*
X2052335Y31293214D01*
X1917648Y31427901D01*
X1890710Y31508713D01*
X1890711Y31562588D01*
X678528Y43640728D02*
X1136464Y43182792D01*
X1217275Y43155855D01*
X1271151Y43155855D01*
X1351963Y43182792D01*
X1459712Y43290542D01*
X1486650Y43371354D01*
X1486650Y43425229D01*
X1459712Y43506041D01*
X1001777Y43963977D01*
X1378900Y44341100D02*
X1432775Y44394975D01*
X1513587Y44421912D01*
X1567461Y44421912D01*
X1648275Y44394975D01*
X1782961Y44314163D01*
X1917648Y44179476D01*
X1998461Y44044789D01*
X2025397Y43963977D01*
X2025398Y43910101D01*
X1998461Y43829290D01*
X1944585Y43775415D01*
X1863774Y43748477D01*
X1809898Y43748477D01*
X1729086Y43775415D01*
X1594399Y43856227D01*
X1459712Y43990914D01*
X1378900Y44125601D01*
X1351962Y44206413D01*
X1351963Y44260288D01*
X1378900Y44341100D01*
X2052335Y45014535D02*
X1944585Y44906785D01*
X1917648Y44825974D01*
X1917648Y44772099D01*
X1944585Y44637412D01*
X2025398Y44502725D01*
X2240897Y44287225D01*
X2321709Y44260288D01*
X2375584Y44260288D01*
X2456396Y44287225D01*
X2564146Y44394975D01*
X2591083Y44475787D01*
X2591083Y44529663D01*
X2564146Y44610474D01*
X2429459Y44745161D01*
X2348647Y44772099D01*
X2294772Y44772098D01*
X2213960Y44745161D01*
X2106210Y44637412D01*
X2079272Y44556599D01*
X2079272Y44502725D01*
X2106210Y44421912D01*
X13160728Y45041472D02*
X12702792Y44583536D01*
X12675855Y44502725D01*
X12675855Y44448849D01*
X12702792Y44368037D01*
X12810542Y44260288D01*
X12891354Y44233350D01*
X12945229Y44233350D01*
X13026041Y44260288D01*
X13483977Y44718223D01*
X13483977Y43586852D02*
X13160728Y43910101D01*
X13322352Y43748477D02*
X13888037Y44314163D01*
X13753351Y44287225D01*
X13645601Y44287225D01*
X13564789Y44314163D01*
X14022725Y43048104D02*
X13699476Y43371353D01*
X13861100Y43209729D02*
X14426785Y43775415D01*
X14292099Y43748477D01*
X14184349Y43748477D01*
X14103537Y43775415D01*
X12541168Y31778088D02*
X12999104Y31320152D01*
X13079915Y31293215D01*
X13133791Y31293215D01*
X13214603Y31320152D01*
X13322352Y31427902D01*
X13349290Y31508714D01*
X13349290Y31562589D01*
X13322352Y31643401D01*
X12864417Y32101337D01*
X13995788Y32101337D02*
X13672539Y31778088D01*
X13834163Y31939712D02*
X13268477Y32505397D01*
X13295415Y32370711D01*
X13295415Y32262961D01*
X13268477Y32182149D01*
X13699476Y32828647D02*
X13699476Y32882521D01*
X13726414Y32963334D01*
X13861101Y33098021D01*
X13941912Y33124958D01*
X13995788Y33124958D01*
X14076600Y33098021D01*
X14130474Y33044146D01*
X14184350Y32936396D01*
X14184350Y32289899D01*
X14534536Y32640085D01*
X16538088Y17938832D02*
X16080152Y17480896D01*
X16053215Y17400085D01*
X16053215Y17346209D01*
X16080152Y17265397D01*
X16187902Y17157648D01*
X16268714Y17130710D01*
X16322589Y17130710D01*
X16403401Y17157648D01*
X16861337Y17615583D01*
X16861337Y16484212D02*
X16538088Y16807461D01*
X16699712Y16645837D02*
X17265397Y17211523D01*
X17130711Y17184585D01*
X17022961Y17184585D01*
X16942149Y17211523D01*
X17130710Y16214839D02*
X17238460Y16107089D01*
X17319272Y16080151D01*
X17373148Y16080152D01*
X17507834Y16107088D01*
X17642521Y16187901D01*
X17858021Y16403400D01*
X17884958Y16484212D01*
X17884958Y16538088D01*
X17858021Y16618899D01*
X17750271Y16726649D01*
X17669458Y16753587D01*
X17615584Y16753587D01*
X17534772Y16726649D01*
X17400085Y16591962D01*
X17373148Y16511150D01*
X17373147Y16457275D01*
X17400085Y16376463D01*
X17507834Y16268713D01*
X17588646Y16241776D01*
X17642522Y16241776D01*
X17723334Y16268713D01*
X31158528Y43640728D02*
X31616464Y43182792D01*
X31697275Y43155855D01*
X31751151Y43155855D01*
X31831963Y43182792D01*
X31939712Y43290542D01*
X31966650Y43371354D01*
X31966650Y43425229D01*
X31939712Y43506041D01*
X31481777Y43963977D01*
X31697276Y44179476D02*
X32047462Y44529662D01*
X32074399Y44125601D01*
X32155212Y44206413D01*
X32236023Y44233350D01*
X32289899Y44233351D01*
X32370711Y44206413D01*
X32505398Y44071726D01*
X32532335Y43990915D01*
X32532335Y43937039D01*
X32505398Y43856227D01*
X32343773Y43694602D01*
X32262961Y43667665D01*
X32209086Y43667666D01*
X32613148Y44610474D02*
X32532335Y44583536D01*
X32478460Y44583537D01*
X32397648Y44610474D01*
X32370711Y44637412D01*
X32343773Y44718224D01*
X32343773Y44772098D01*
X32370711Y44852911D01*
X32478461Y44960661D01*
X32559272Y44987598D01*
X32613148Y44987598D01*
X32693960Y44960661D01*
X32720897Y44933723D01*
X32747834Y44852912D01*
X32747834Y44799036D01*
X32720897Y44718224D01*
X32613148Y44610474D01*
X32586210Y44529662D01*
X32586210Y44475788D01*
X32613148Y44394975D01*
X32720897Y44287225D01*
X32801709Y44260288D01*
X32855584Y44260288D01*
X32936396Y44287225D01*
X33044146Y44394975D01*
X33071083Y44475787D01*
X33071083Y44529663D01*
X33044146Y44610474D01*
X32936396Y44718224D01*
X32855584Y44745162D01*
X32801709Y44745161D01*
X32720897Y44718224D01*
X47018088Y33178832D02*
X46560152Y32720896D01*
X46533215Y32640085D01*
X46533215Y32586209D01*
X46560152Y32505397D01*
X46667902Y32397648D01*
X46748714Y32370710D01*
X46802589Y32370710D01*
X46883401Y32397648D01*
X47341337Y32855583D01*
X47880085Y32316835D02*
X47610710Y32586210D01*
X47314399Y32343773D01*
X47368274Y32343773D01*
X47449086Y32316835D01*
X47583773Y32182148D01*
X47610710Y32101337D01*
X47610711Y32047461D01*
X47583773Y31966649D01*
X47449086Y31831962D01*
X47368275Y31805025D01*
X47314399Y31805025D01*
X47233587Y31831962D01*
X47098900Y31966649D01*
X47071962Y32047461D01*
X47071963Y32101337D01*
X48095584Y32101336D02*
X48445770Y31751150D01*
X48041709Y31724212D01*
X48122521Y31643400D01*
X48149458Y31562588D01*
X48149459Y31508713D01*
X48122521Y31427901D01*
X47987834Y31293214D01*
X47907023Y31266277D01*
X47853147Y31266277D01*
X47772335Y31293214D01*
X47610710Y31454839D01*
X47583773Y31535650D01*
X47583774Y31589526D01*
X46398528Y43640728D02*
X46856464Y43182792D01*
X46937275Y43155855D01*
X46991151Y43155855D01*
X47071963Y43182792D01*
X47179712Y43290542D01*
X47206650Y43371354D01*
X47206650Y43425229D01*
X47179712Y43506041D01*
X46721777Y43963977D01*
X47260525Y44502725D02*
X46991150Y44233350D01*
X47233587Y43937039D01*
X47233587Y43990914D01*
X47260525Y44071726D01*
X47395212Y44206413D01*
X47476023Y44233350D01*
X47529899Y44233351D01*
X47610711Y44206413D01*
X47745398Y44071726D01*
X47772335Y43990915D01*
X47772335Y43937039D01*
X47745398Y43856227D01*
X47610711Y43721540D01*
X47529899Y43694602D01*
X47476023Y43694603D01*
X47960896Y44825974D02*
X48338021Y44448850D01*
X47610711Y44906785D02*
X47880085Y44368038D01*
X48230271Y44718224D01*
X58880728Y45041472D02*
X58422792Y44583536D01*
X58395855Y44502725D01*
X58395855Y44448849D01*
X58422792Y44368037D01*
X58530542Y44260288D01*
X58611354Y44233350D01*
X58665229Y44233350D01*
X58746041Y44260288D01*
X59203977Y44718223D01*
X59742725Y44179475D02*
X59473350Y44448850D01*
X59177039Y44206413D01*
X59230914Y44206413D01*
X59311726Y44179475D01*
X59446413Y44044788D01*
X59473350Y43963977D01*
X59473351Y43910101D01*
X59446413Y43829289D01*
X59311726Y43694602D01*
X59230915Y43667665D01*
X59177039Y43667665D01*
X59096227Y43694602D01*
X58961540Y43829289D01*
X58934602Y43910101D01*
X58934603Y43963977D01*
X59473350Y43317479D02*
X59581100Y43209729D01*
X59661912Y43182791D01*
X59715788Y43182792D01*
X59850474Y43209728D01*
X59985161Y43290541D01*
X60200661Y43506040D01*
X60227598Y43586852D01*
X60227598Y43640728D01*
X60200661Y43721539D01*
X60092911Y43829289D01*
X60012098Y43856227D01*
X59958224Y43856227D01*
X59877412Y43829289D01*
X59742725Y43694602D01*
X59715788Y43613790D01*
X59715787Y43559915D01*
X59742725Y43479103D01*
X59850474Y43371353D01*
X59931286Y43344416D01*
X59985162Y43344416D01*
X60065974Y43371353D01*
X58261168Y31778088D02*
X58719104Y31320152D01*
X58799915Y31293215D01*
X58853791Y31293215D01*
X58934603Y31320152D01*
X59042352Y31427902D01*
X59069290Y31508714D01*
X59069290Y31562589D01*
X59042352Y31643401D01*
X58584417Y32101337D01*
X59096227Y32613147D02*
X58988477Y32505397D01*
X58961540Y32424585D01*
X58961540Y32370711D01*
X58988477Y32236023D01*
X59069290Y32101337D01*
X59284789Y31885837D01*
X59365601Y31858900D01*
X59419476Y31858899D01*
X59500288Y31885837D01*
X59608038Y31993587D01*
X59634975Y32074399D01*
X59634975Y32128275D01*
X59608038Y32209086D01*
X59473351Y32343773D01*
X59392539Y32370711D01*
X59338663Y32370710D01*
X59257852Y32343773D01*
X59150102Y32236023D01*
X59123164Y32155211D01*
X59123164Y32101337D01*
X59150102Y32020524D01*
X59500288Y33017208D02*
X59554163Y33071083D01*
X59634975Y33098021D01*
X59688850Y33098021D01*
X59769663Y33071083D01*
X59904350Y32990271D01*
X60039036Y32855584D01*
X60119849Y32720897D01*
X60146785Y32640085D01*
X60146786Y32586210D01*
X60119849Y32505398D01*
X60065974Y32451523D01*
X59985162Y32424585D01*
X59931286Y32424585D01*
X59850474Y32451523D01*
X59715788Y32532335D01*
X59581101Y32667022D01*
X59500288Y32801709D01*
X59473350Y32882521D01*
X59473351Y32936396D01*
X59500288Y33017208D01*
X16538088Y48418832D02*
X16080152Y47960896D01*
X16053215Y47880085D01*
X16053215Y47826209D01*
X16080152Y47745397D01*
X16187902Y47637648D01*
X16268714Y47610710D01*
X16322589Y47610710D01*
X16403401Y47637648D01*
X16861337Y48095583D01*
X17049899Y47799272D02*
X17103773Y47799272D01*
X17184585Y47772334D01*
X17319272Y47637648D01*
X17346210Y47556836D01*
X17346210Y47502961D01*
X17319272Y47422148D01*
X17265398Y47368274D01*
X17157648Y47314399D01*
X16511150Y47314399D01*
X16861337Y46964212D01*
X17615584Y47341336D02*
X17965770Y46991150D01*
X17561709Y46964212D01*
X17642521Y46883400D01*
X17669458Y46802588D01*
X17669459Y46748713D01*
X17642521Y46667901D01*
X17507834Y46533214D01*
X17427023Y46506277D01*
X17373147Y46506277D01*
X17292335Y46533214D01*
X17130710Y46694839D01*
X17103773Y46775650D01*
X17103774Y46829526D01*
%LPC*%
D10*
G36*
X53113834Y11854264D02*
X54462994Y13203424D01*
X55812154Y11854264D01*
X54462994Y10505104D01*
X53113834Y11854264D01*
X53113834Y11854264D01*
G37*
G36*
X56225104Y8742994D02*
X57574264Y10092154D01*
X58923424Y8742994D01*
X57574264Y7393834D01*
X56225104Y8742994D01*
X56225104Y8742994D01*
G37*
G36*
X57391831Y9909720D02*
X58670280Y11188169D01*
X60019439Y9839010D01*
X58740990Y8560561D01*
X57391831Y9909720D01*
X57391831Y9909720D01*
G37*
G36*
X54280561Y13020990D02*
X55559010Y14299439D01*
X56908169Y12950280D01*
X55629720Y11671831D01*
X54280561Y13020990D01*
X54280561Y13020990D01*
G37*
G36*
X55376576Y14117006D02*
X56725736Y15466166D01*
X58074896Y14117006D01*
X56725736Y12767846D01*
X55376576Y14117006D01*
X55376576Y14117006D01*
G37*
G36*
X58487846Y11005736D02*
X59837006Y12354896D01*
X61186166Y11005736D01*
X59837006Y9656576D01*
X58487846Y11005736D01*
X58487846Y11005736D01*
G37*
D13*
X55452944Y11005736D03*
X56725736Y9732944D03*
D10*
G36*
X37873834Y42334264D02*
X39222994Y43683424D01*
X40572154Y42334264D01*
X39222994Y40985104D01*
X37873834Y42334264D01*
X37873834Y42334264D01*
G37*
G36*
X40985104Y39222994D02*
X42334264Y40572154D01*
X43683424Y39222994D01*
X42334264Y37873834D01*
X40985104Y39222994D01*
X40985104Y39222994D01*
G37*
G36*
X42151831Y40389720D02*
X43430280Y41668169D01*
X44779439Y40319010D01*
X43500990Y39040561D01*
X42151831Y40389720D01*
X42151831Y40389720D01*
G37*
G36*
X39040561Y43500990D02*
X40319010Y44779439D01*
X41668169Y43430280D01*
X40389720Y42151831D01*
X39040561Y43500990D01*
X39040561Y43500990D01*
G37*
G36*
X40136576Y44597006D02*
X41485736Y45946166D01*
X42834896Y44597006D01*
X41485736Y43247846D01*
X40136576Y44597006D01*
X40136576Y44597006D01*
G37*
G36*
X43247846Y41485736D02*
X44597006Y42834896D01*
X45946166Y41485736D01*
X44597006Y40136576D01*
X43247846Y41485736D01*
X43247846Y41485736D01*
G37*
D13*
X40212944Y41485736D03*
X41485736Y40212944D03*
D10*
G36*
X57574264Y7846166D02*
X58923424Y6497006D01*
X57574264Y5147846D01*
X56225104Y6497006D01*
X57574264Y7846166D01*
X57574264Y7846166D01*
G37*
G36*
X54462994Y4734896D02*
X55812154Y3385736D01*
X54462994Y2036576D01*
X53113834Y3385736D01*
X54462994Y4734896D01*
X54462994Y4734896D01*
G37*
G36*
X55629720Y3568169D02*
X56908169Y2289720D01*
X55559010Y940561D01*
X54280561Y2219010D01*
X55629720Y3568169D01*
X55629720Y3568169D01*
G37*
G36*
X58740990Y6679439D02*
X60019439Y5400990D01*
X58670280Y4051831D01*
X57391831Y5330280D01*
X58740990Y6679439D01*
X58740990Y6679439D01*
G37*
G36*
X59837006Y5583424D02*
X61186166Y4234264D01*
X59837006Y2885104D01*
X58487846Y4234264D01*
X59837006Y5583424D01*
X59837006Y5583424D01*
G37*
G36*
X56725736Y2472154D02*
X58074896Y1122994D01*
X56725736Y-226166D01*
X55376576Y1122994D01*
X56725736Y2472154D01*
X56725736Y2472154D01*
G37*
D13*
X56725736Y5507056D03*
X55452944Y4234264D03*
D10*
G36*
X53566166Y3385736D02*
X52217006Y2036576D01*
X50867846Y3385736D01*
X52217006Y4734896D01*
X53566166Y3385736D01*
X53566166Y3385736D01*
G37*
G36*
X50454896Y6497006D02*
X49105736Y5147846D01*
X47756576Y6497006D01*
X49105736Y7846166D01*
X50454896Y6497006D01*
X50454896Y6497006D01*
G37*
G36*
X49288169Y5330280D02*
X48009720Y4051831D01*
X46660561Y5400990D01*
X47939010Y6679439D01*
X49288169Y5330280D01*
X49288169Y5330280D01*
G37*
G36*
X52399439Y2219010D02*
X51120990Y940561D01*
X49771831Y2289720D01*
X51050280Y3568169D01*
X52399439Y2219010D01*
X52399439Y2219010D01*
G37*
G36*
X51303424Y1122994D02*
X49954264Y-226166D01*
X48605104Y1122994D01*
X49954264Y2472154D01*
X51303424Y1122994D01*
X51303424Y1122994D01*
G37*
G36*
X48192154Y4234264D02*
X46842994Y2885104D01*
X45493834Y4234264D01*
X46842994Y5583424D01*
X48192154Y4234264D01*
X48192154Y4234264D01*
G37*
D13*
X51227056Y4234264D03*
X49954264Y5507056D03*
D10*
G36*
X42334264Y7846166D02*
X43683424Y6497006D01*
X42334264Y5147846D01*
X40985104Y6497006D01*
X42334264Y7846166D01*
X42334264Y7846166D01*
G37*
G36*
X39222994Y4734896D02*
X40572154Y3385736D01*
X39222994Y2036576D01*
X37873834Y3385736D01*
X39222994Y4734896D01*
X39222994Y4734896D01*
G37*
G36*
X40389720Y3568169D02*
X41668169Y2289720D01*
X40319010Y940561D01*
X39040561Y2219010D01*
X40389720Y3568169D01*
X40389720Y3568169D01*
G37*
G36*
X43500990Y6679439D02*
X44779439Y5400990D01*
X43430280Y4051831D01*
X42151831Y5330280D01*
X43500990Y6679439D01*
X43500990Y6679439D01*
G37*
G36*
X44597006Y5583424D02*
X45946166Y4234264D01*
X44597006Y2885104D01*
X43247846Y4234264D01*
X44597006Y5583424D01*
X44597006Y5583424D01*
G37*
G36*
X41485736Y2472154D02*
X42834896Y1122994D01*
X41485736Y-226166D01*
X40136576Y1122994D01*
X41485736Y2472154D01*
X41485736Y2472154D01*
G37*
D13*
X41485736Y5507056D03*
X40212944Y4234264D03*
D10*
G36*
X38326166Y3385736D02*
X36977006Y2036576D01*
X35627846Y3385736D01*
X36977006Y4734896D01*
X38326166Y3385736D01*
X38326166Y3385736D01*
G37*
G36*
X35214896Y6497006D02*
X33865736Y5147846D01*
X32516576Y6497006D01*
X33865736Y7846166D01*
X35214896Y6497006D01*
X35214896Y6497006D01*
G37*
G36*
X34048169Y5330280D02*
X32769720Y4051831D01*
X31420561Y5400990D01*
X32699010Y6679439D01*
X34048169Y5330280D01*
X34048169Y5330280D01*
G37*
G36*
X37159439Y2219010D02*
X35880990Y940561D01*
X34531831Y2289720D01*
X35810280Y3568169D01*
X37159439Y2219010D01*
X37159439Y2219010D01*
G37*
G36*
X36063424Y1122994D02*
X34714264Y-226166D01*
X33365104Y1122994D01*
X34714264Y2472154D01*
X36063424Y1122994D01*
X36063424Y1122994D01*
G37*
G36*
X32952154Y4234264D02*
X31602994Y2885104D01*
X30253834Y4234264D01*
X31602994Y5583424D01*
X32952154Y4234264D01*
X32952154Y4234264D01*
G37*
D13*
X35987056Y4234264D03*
X34714264Y5507056D03*
D10*
G36*
X27094264Y7846166D02*
X28443424Y6497006D01*
X27094264Y5147846D01*
X25745104Y6497006D01*
X27094264Y7846166D01*
X27094264Y7846166D01*
G37*
G36*
X23982994Y4734896D02*
X25332154Y3385736D01*
X23982994Y2036576D01*
X22633834Y3385736D01*
X23982994Y4734896D01*
X23982994Y4734896D01*
G37*
G36*
X25149720Y3568169D02*
X26428169Y2289720D01*
X25079010Y940561D01*
X23800561Y2219010D01*
X25149720Y3568169D01*
X25149720Y3568169D01*
G37*
G36*
X28260990Y6679439D02*
X29539439Y5400990D01*
X28190280Y4051831D01*
X26911831Y5330280D01*
X28260990Y6679439D01*
X28260990Y6679439D01*
G37*
G36*
X29357006Y5583424D02*
X30706166Y4234264D01*
X29357006Y2885104D01*
X28007846Y4234264D01*
X29357006Y5583424D01*
X29357006Y5583424D01*
G37*
G36*
X26245736Y2472154D02*
X27594896Y1122994D01*
X26245736Y-226166D01*
X24896576Y1122994D01*
X26245736Y2472154D01*
X26245736Y2472154D01*
G37*
D13*
X26245736Y5507056D03*
X24972944Y4234264D03*
D10*
G36*
X23086166Y3385736D02*
X21737006Y2036576D01*
X20387846Y3385736D01*
X21737006Y4734896D01*
X23086166Y3385736D01*
X23086166Y3385736D01*
G37*
G36*
X19974896Y6497006D02*
X18625736Y5147846D01*
X17276576Y6497006D01*
X18625736Y7846166D01*
X19974896Y6497006D01*
X19974896Y6497006D01*
G37*
G36*
X18808169Y5330280D02*
X17529720Y4051831D01*
X16180561Y5400990D01*
X17459010Y6679439D01*
X18808169Y5330280D01*
X18808169Y5330280D01*
G37*
G36*
X21919439Y2219010D02*
X20640990Y940561D01*
X19291831Y2289720D01*
X20570280Y3568169D01*
X21919439Y2219010D01*
X21919439Y2219010D01*
G37*
G36*
X20823424Y1122994D02*
X19474264Y-226166D01*
X18125104Y1122994D01*
X19474264Y2472154D01*
X20823424Y1122994D01*
X20823424Y1122994D01*
G37*
G36*
X17712154Y4234264D02*
X16362994Y2885104D01*
X15013834Y4234264D01*
X16362994Y5583424D01*
X17712154Y4234264D01*
X17712154Y4234264D01*
G37*
D13*
X20747056Y4234264D03*
X19474264Y5507056D03*
D10*
G36*
X11854264Y7846166D02*
X13203424Y6497006D01*
X11854264Y5147846D01*
X10505104Y6497006D01*
X11854264Y7846166D01*
X11854264Y7846166D01*
G37*
G36*
X8742994Y4734896D02*
X10092154Y3385736D01*
X8742994Y2036576D01*
X7393834Y3385736D01*
X8742994Y4734896D01*
X8742994Y4734896D01*
G37*
G36*
X9909720Y3568169D02*
X11188169Y2289720D01*
X9839010Y940561D01*
X8560561Y2219010D01*
X9909720Y3568169D01*
X9909720Y3568169D01*
G37*
G36*
X13020990Y6679439D02*
X14299439Y5400990D01*
X12950280Y4051831D01*
X11671831Y5330280D01*
X13020990Y6679439D01*
X13020990Y6679439D01*
G37*
G36*
X14117006Y5583424D02*
X15466166Y4234264D01*
X14117006Y2885104D01*
X12767846Y4234264D01*
X14117006Y5583424D01*
X14117006Y5583424D01*
G37*
G36*
X11005736Y2472154D02*
X12354896Y1122994D01*
X11005736Y-226166D01*
X9656576Y1122994D01*
X11005736Y2472154D01*
X11005736Y2472154D01*
G37*
D13*
X11005736Y5507056D03*
X9732944Y4234264D03*
D10*
G36*
X7846166Y3385736D02*
X6497006Y2036576D01*
X5147846Y3385736D01*
X6497006Y4734896D01*
X7846166Y3385736D01*
X7846166Y3385736D01*
G37*
G36*
X4734896Y6497006D02*
X3385736Y5147846D01*
X2036576Y6497006D01*
X3385736Y7846166D01*
X4734896Y6497006D01*
X4734896Y6497006D01*
G37*
G36*
X3568169Y5330280D02*
X2289720Y4051831D01*
X940561Y5400990D01*
X2219010Y6679439D01*
X3568169Y5330280D01*
X3568169Y5330280D01*
G37*
G36*
X6679439Y2219010D02*
X5400990Y940561D01*
X4051831Y2289720D01*
X5330280Y3568169D01*
X6679439Y2219010D01*
X6679439Y2219010D01*
G37*
G36*
X5583424Y1122994D02*
X4234264Y-226166D01*
X2885104Y1122994D01*
X4234264Y2472154D01*
X5583424Y1122994D01*
X5583424Y1122994D01*
G37*
G36*
X2472154Y4234264D02*
X1122994Y2885104D01*
X-226166Y4234264D01*
X1122994Y5583424D01*
X2472154Y4234264D01*
X2472154Y4234264D01*
G37*
D13*
X5507056Y4234264D03*
X4234264Y5507056D03*
D10*
G36*
X3385736Y22633834D02*
X2036576Y23982994D01*
X3385736Y25332154D01*
X4734896Y23982994D01*
X3385736Y22633834D01*
X3385736Y22633834D01*
G37*
G36*
X6497006Y25745104D02*
X5147846Y27094264D01*
X6497006Y28443424D01*
X7846166Y27094264D01*
X6497006Y25745104D01*
X6497006Y25745104D01*
G37*
G36*
X5330280Y26911831D02*
X4051831Y28190280D01*
X5400990Y29539439D01*
X6679439Y28260990D01*
X5330280Y26911831D01*
X5330280Y26911831D01*
G37*
G36*
X2219010Y23800561D02*
X940561Y25079010D01*
X2289720Y26428169D01*
X3568169Y25149720D01*
X2219010Y23800561D01*
X2219010Y23800561D01*
G37*
G36*
X1122994Y24896576D02*
X-226166Y26245736D01*
X1122994Y27594896D01*
X2472154Y26245736D01*
X1122994Y24896576D01*
X1122994Y24896576D01*
G37*
G36*
X4234264Y28007846D02*
X2885104Y29357006D01*
X4234264Y30706166D01*
X5583424Y29357006D01*
X4234264Y28007846D01*
X4234264Y28007846D01*
G37*
D13*
X4234264Y24972944D03*
X5507056Y26245736D03*
D10*
G36*
X3385736Y7393834D02*
X2036576Y8742994D01*
X3385736Y10092154D01*
X4734896Y8742994D01*
X3385736Y7393834D01*
X3385736Y7393834D01*
G37*
G36*
X6497006Y10505104D02*
X5147846Y11854264D01*
X6497006Y13203424D01*
X7846166Y11854264D01*
X6497006Y10505104D01*
X6497006Y10505104D01*
G37*
G36*
X5330280Y11671831D02*
X4051831Y12950280D01*
X5400990Y14299439D01*
X6679439Y13020990D01*
X5330280Y11671831D01*
X5330280Y11671831D01*
G37*
G36*
X2219010Y8560561D02*
X940561Y9839010D01*
X2289720Y11188169D01*
X3568169Y9909720D01*
X2219010Y8560561D01*
X2219010Y8560561D01*
G37*
G36*
X1122994Y9656576D02*
X-226166Y11005736D01*
X1122994Y12354896D01*
X2472154Y11005736D01*
X1122994Y9656576D01*
X1122994Y9656576D01*
G37*
G36*
X4234264Y12767846D02*
X2885104Y14117006D01*
X4234264Y15466166D01*
X5583424Y14117006D01*
X4234264Y12767846D01*
X4234264Y12767846D01*
G37*
D13*
X4234264Y9732944D03*
X5507056Y11005736D03*
D10*
G36*
X7846166Y18625736D02*
X6497006Y17276576D01*
X5147846Y18625736D01*
X6497006Y19974896D01*
X7846166Y18625736D01*
X7846166Y18625736D01*
G37*
G36*
X4734896Y21737006D02*
X3385736Y20387846D01*
X2036576Y21737006D01*
X3385736Y23086166D01*
X4734896Y21737006D01*
X4734896Y21737006D01*
G37*
G36*
X3568169Y20570280D02*
X2289720Y19291831D01*
X940561Y20640990D01*
X2219010Y21919439D01*
X3568169Y20570280D01*
X3568169Y20570280D01*
G37*
G36*
X6679439Y17459010D02*
X5400990Y16180561D01*
X4051831Y17529720D01*
X5330280Y18808169D01*
X6679439Y17459010D01*
X6679439Y17459010D01*
G37*
G36*
X5583424Y16362994D02*
X4234264Y15013834D01*
X2885104Y16362994D01*
X4234264Y17712154D01*
X5583424Y16362994D01*
X5583424Y16362994D01*
G37*
G36*
X2472154Y19474264D02*
X1122994Y18125104D01*
X-226166Y19474264D01*
X1122994Y20823424D01*
X2472154Y19474264D01*
X2472154Y19474264D01*
G37*
D13*
X5507056Y19474264D03*
X4234264Y20747056D03*
D10*
G36*
X7846166Y49105736D02*
X6497006Y47756576D01*
X5147846Y49105736D01*
X6497006Y50454896D01*
X7846166Y49105736D01*
X7846166Y49105736D01*
G37*
G36*
X4734896Y52217006D02*
X3385736Y50867846D01*
X2036576Y52217006D01*
X3385736Y53566166D01*
X4734896Y52217006D01*
X4734896Y52217006D01*
G37*
G36*
X3568169Y51050280D02*
X2289720Y49771831D01*
X940561Y51120990D01*
X2219010Y52399439D01*
X3568169Y51050280D01*
X3568169Y51050280D01*
G37*
G36*
X6679439Y47939010D02*
X5400990Y46660561D01*
X4051831Y48009720D01*
X5330280Y49288169D01*
X6679439Y47939010D01*
X6679439Y47939010D01*
G37*
G36*
X5583424Y46842994D02*
X4234264Y45493834D01*
X2885104Y46842994D01*
X4234264Y48192154D01*
X5583424Y46842994D01*
X5583424Y46842994D01*
G37*
G36*
X2472154Y49954264D02*
X1122994Y48605104D01*
X-226166Y49954264D01*
X1122994Y51303424D01*
X2472154Y49954264D01*
X2472154Y49954264D01*
G37*
D13*
X5507056Y49954264D03*
X4234264Y51227056D03*
D10*
G36*
X3385736Y53113834D02*
X2036576Y54462994D01*
X3385736Y55812154D01*
X4734896Y54462994D01*
X3385736Y53113834D01*
X3385736Y53113834D01*
G37*
G36*
X6497006Y56225104D02*
X5147846Y57574264D01*
X6497006Y58923424D01*
X7846166Y57574264D01*
X6497006Y56225104D01*
X6497006Y56225104D01*
G37*
G36*
X5330280Y57391831D02*
X4051831Y58670280D01*
X5400990Y60019439D01*
X6679439Y58740990D01*
X5330280Y57391831D01*
X5330280Y57391831D01*
G37*
G36*
X2219010Y54280561D02*
X940561Y55559010D01*
X2289720Y56908169D01*
X3568169Y55629720D01*
X2219010Y54280561D01*
X2219010Y54280561D01*
G37*
G36*
X1122994Y55376576D02*
X-226166Y56725736D01*
X1122994Y58074896D01*
X2472154Y56725736D01*
X1122994Y55376576D01*
X1122994Y55376576D01*
G37*
G36*
X4234264Y58487846D02*
X2885104Y59837006D01*
X4234264Y61186166D01*
X5583424Y59837006D01*
X4234264Y58487846D01*
X4234264Y58487846D01*
G37*
D13*
X4234264Y55452944D03*
X5507056Y56725736D03*
D10*
G36*
X7393834Y57574264D02*
X8742994Y58923424D01*
X10092154Y57574264D01*
X8742994Y56225104D01*
X7393834Y57574264D01*
X7393834Y57574264D01*
G37*
G36*
X10505104Y54462994D02*
X11854264Y55812154D01*
X13203424Y54462994D01*
X11854264Y53113834D01*
X10505104Y54462994D01*
X10505104Y54462994D01*
G37*
G36*
X11671831Y55629720D02*
X12950280Y56908169D01*
X14299439Y55559010D01*
X13020990Y54280561D01*
X11671831Y55629720D01*
X11671831Y55629720D01*
G37*
G36*
X8560561Y58740990D02*
X9839010Y60019439D01*
X11188169Y58670280D01*
X9909720Y57391831D01*
X8560561Y58740990D01*
X8560561Y58740990D01*
G37*
G36*
X9656576Y59837006D02*
X11005736Y61186166D01*
X12354896Y59837006D01*
X11005736Y58487846D01*
X9656576Y59837006D01*
X9656576Y59837006D01*
G37*
G36*
X12767846Y56725736D02*
X14117006Y58074896D01*
X15466166Y56725736D01*
X14117006Y55376576D01*
X12767846Y56725736D01*
X12767846Y56725736D01*
G37*
D13*
X9732944Y56725736D03*
X11005736Y55452944D03*
D10*
G36*
X11854264Y53566166D02*
X13203424Y52217006D01*
X11854264Y50867846D01*
X10505104Y52217006D01*
X11854264Y53566166D01*
X11854264Y53566166D01*
G37*
G36*
X8742994Y50454896D02*
X10092154Y49105736D01*
X8742994Y47756576D01*
X7393834Y49105736D01*
X8742994Y50454896D01*
X8742994Y50454896D01*
G37*
G36*
X9909720Y49288169D02*
X11188169Y48009720D01*
X9839010Y46660561D01*
X8560561Y47939010D01*
X9909720Y49288169D01*
X9909720Y49288169D01*
G37*
G36*
X13020990Y52399439D02*
X14299439Y51120990D01*
X12950280Y49771831D01*
X11671831Y51050280D01*
X13020990Y52399439D01*
X13020990Y52399439D01*
G37*
G36*
X14117006Y51303424D02*
X15466166Y49954264D01*
X14117006Y48605104D01*
X12767846Y49954264D01*
X14117006Y51303424D01*
X14117006Y51303424D01*
G37*
G36*
X11005736Y48192154D02*
X12354896Y46842994D01*
X11005736Y45493834D01*
X9656576Y46842994D01*
X11005736Y48192154D01*
X11005736Y48192154D01*
G37*
D13*
X11005736Y51227056D03*
X9732944Y49954264D03*
D10*
G36*
X7393834Y27094264D02*
X8742994Y28443424D01*
X10092154Y27094264D01*
X8742994Y25745104D01*
X7393834Y27094264D01*
X7393834Y27094264D01*
G37*
G36*
X10505104Y23982994D02*
X11854264Y25332154D01*
X13203424Y23982994D01*
X11854264Y22633834D01*
X10505104Y23982994D01*
X10505104Y23982994D01*
G37*
G36*
X11671831Y25149720D02*
X12950280Y26428169D01*
X14299439Y25079010D01*
X13020990Y23800561D01*
X11671831Y25149720D01*
X11671831Y25149720D01*
G37*
G36*
X8560561Y28260990D02*
X9839010Y29539439D01*
X11188169Y28190280D01*
X9909720Y26911831D01*
X8560561Y28260990D01*
X8560561Y28260990D01*
G37*
G36*
X9656576Y29357006D02*
X11005736Y30706166D01*
X12354896Y29357006D01*
X11005736Y28007846D01*
X9656576Y29357006D01*
X9656576Y29357006D01*
G37*
G36*
X12767846Y26245736D02*
X14117006Y27594896D01*
X15466166Y26245736D01*
X14117006Y24896576D01*
X12767846Y26245736D01*
X12767846Y26245736D01*
G37*
D13*
X9732944Y26245736D03*
X11005736Y24972944D03*
D10*
G36*
X11854264Y23086166D02*
X13203424Y21737006D01*
X11854264Y20387846D01*
X10505104Y21737006D01*
X11854264Y23086166D01*
X11854264Y23086166D01*
G37*
G36*
X8742994Y19974896D02*
X10092154Y18625736D01*
X8742994Y17276576D01*
X7393834Y18625736D01*
X8742994Y19974896D01*
X8742994Y19974896D01*
G37*
G36*
X9909720Y18808169D02*
X11188169Y17529720D01*
X9839010Y16180561D01*
X8560561Y17459010D01*
X9909720Y18808169D01*
X9909720Y18808169D01*
G37*
G36*
X13020990Y21919439D02*
X14299439Y20640990D01*
X12950280Y19291831D01*
X11671831Y20570280D01*
X13020990Y21919439D01*
X13020990Y21919439D01*
G37*
G36*
X14117006Y20823424D02*
X15466166Y19474264D01*
X14117006Y18125104D01*
X12767846Y19474264D01*
X14117006Y20823424D01*
X14117006Y20823424D01*
G37*
G36*
X11005736Y17712154D02*
X12354896Y16362994D01*
X11005736Y15013834D01*
X9656576Y16362994D01*
X11005736Y17712154D01*
X11005736Y17712154D01*
G37*
D13*
X11005736Y20747056D03*
X9732944Y19474264D03*
D10*
G36*
X7393834Y11854264D02*
X8742994Y13203424D01*
X10092154Y11854264D01*
X8742994Y10505104D01*
X7393834Y11854264D01*
X7393834Y11854264D01*
G37*
G36*
X10505104Y8742994D02*
X11854264Y10092154D01*
X13203424Y8742994D01*
X11854264Y7393834D01*
X10505104Y8742994D01*
X10505104Y8742994D01*
G37*
G36*
X11671831Y9909720D02*
X12950280Y11188169D01*
X14299439Y9839010D01*
X13020990Y8560561D01*
X11671831Y9909720D01*
X11671831Y9909720D01*
G37*
G36*
X8560561Y13020990D02*
X9839010Y14299439D01*
X11188169Y12950280D01*
X9909720Y11671831D01*
X8560561Y13020990D01*
X8560561Y13020990D01*
G37*
G36*
X9656576Y14117006D02*
X11005736Y15466166D01*
X12354896Y14117006D01*
X11005736Y12767846D01*
X9656576Y14117006D01*
X9656576Y14117006D01*
G37*
G36*
X12767846Y11005736D02*
X14117006Y12354896D01*
X15466166Y11005736D01*
X14117006Y9656576D01*
X12767846Y11005736D01*
X12767846Y11005736D01*
G37*
D13*
X9732944Y11005736D03*
X11005736Y9732944D03*
D10*
G36*
X18625736Y7393834D02*
X17276576Y8742994D01*
X18625736Y10092154D01*
X19974896Y8742994D01*
X18625736Y7393834D01*
X18625736Y7393834D01*
G37*
G36*
X21737006Y10505104D02*
X20387846Y11854264D01*
X21737006Y13203424D01*
X23086166Y11854264D01*
X21737006Y10505104D01*
X21737006Y10505104D01*
G37*
G36*
X20570280Y11671831D02*
X19291831Y12950280D01*
X20640990Y14299439D01*
X21919439Y13020990D01*
X20570280Y11671831D01*
X20570280Y11671831D01*
G37*
G36*
X17459010Y8560561D02*
X16180561Y9839010D01*
X17529720Y11188169D01*
X18808169Y9909720D01*
X17459010Y8560561D01*
X17459010Y8560561D01*
G37*
G36*
X16362994Y9656576D02*
X15013834Y11005736D01*
X16362994Y12354896D01*
X17712154Y11005736D01*
X16362994Y9656576D01*
X16362994Y9656576D01*
G37*
G36*
X19474264Y12767846D02*
X18125104Y14117006D01*
X19474264Y15466166D01*
X20823424Y14117006D01*
X19474264Y12767846D01*
X19474264Y12767846D01*
G37*
D13*
X19474264Y9732944D03*
X20747056Y11005736D03*
D10*
G36*
X18625736Y22633834D02*
X17276576Y23982994D01*
X18625736Y25332154D01*
X19974896Y23982994D01*
X18625736Y22633834D01*
X18625736Y22633834D01*
G37*
G36*
X21737006Y25745104D02*
X20387846Y27094264D01*
X21737006Y28443424D01*
X23086166Y27094264D01*
X21737006Y25745104D01*
X21737006Y25745104D01*
G37*
G36*
X20570280Y26911831D02*
X19291831Y28190280D01*
X20640990Y29539439D01*
X21919439Y28260990D01*
X20570280Y26911831D01*
X20570280Y26911831D01*
G37*
G36*
X17459010Y23800561D02*
X16180561Y25079010D01*
X17529720Y26428169D01*
X18808169Y25149720D01*
X17459010Y23800561D01*
X17459010Y23800561D01*
G37*
G36*
X16362994Y24896576D02*
X15013834Y26245736D01*
X16362994Y27594896D01*
X17712154Y26245736D01*
X16362994Y24896576D01*
X16362994Y24896576D01*
G37*
G36*
X19474264Y28007846D02*
X18125104Y29357006D01*
X19474264Y30706166D01*
X20823424Y29357006D01*
X19474264Y28007846D01*
X19474264Y28007846D01*
G37*
D13*
X19474264Y24972944D03*
X20747056Y26245736D03*
D10*
G36*
X23086166Y33865736D02*
X21737006Y32516576D01*
X20387846Y33865736D01*
X21737006Y35214896D01*
X23086166Y33865736D01*
X23086166Y33865736D01*
G37*
G36*
X19974896Y36977006D02*
X18625736Y35627846D01*
X17276576Y36977006D01*
X18625736Y38326166D01*
X19974896Y36977006D01*
X19974896Y36977006D01*
G37*
G36*
X18808169Y35810280D02*
X17529720Y34531831D01*
X16180561Y35880990D01*
X17459010Y37159439D01*
X18808169Y35810280D01*
X18808169Y35810280D01*
G37*
G36*
X21919439Y32699010D02*
X20640990Y31420561D01*
X19291831Y32769720D01*
X20570280Y34048169D01*
X21919439Y32699010D01*
X21919439Y32699010D01*
G37*
G36*
X20823424Y31602994D02*
X19474264Y30253834D01*
X18125104Y31602994D01*
X19474264Y32952154D01*
X20823424Y31602994D01*
X20823424Y31602994D01*
G37*
G36*
X17712154Y34714264D02*
X16362994Y33365104D01*
X15013834Y34714264D01*
X16362994Y36063424D01*
X17712154Y34714264D01*
X17712154Y34714264D01*
G37*
D13*
X20747056Y34714264D03*
X19474264Y35987056D03*
D10*
G36*
X18625736Y37873834D02*
X17276576Y39222994D01*
X18625736Y40572154D01*
X19974896Y39222994D01*
X18625736Y37873834D01*
X18625736Y37873834D01*
G37*
G36*
X21737006Y40985104D02*
X20387846Y42334264D01*
X21737006Y43683424D01*
X23086166Y42334264D01*
X21737006Y40985104D01*
X21737006Y40985104D01*
G37*
G36*
X20570280Y42151831D02*
X19291831Y43430280D01*
X20640990Y44779439D01*
X21919439Y43500990D01*
X20570280Y42151831D01*
X20570280Y42151831D01*
G37*
G36*
X17459010Y39040561D02*
X16180561Y40319010D01*
X17529720Y41668169D01*
X18808169Y40389720D01*
X17459010Y39040561D01*
X17459010Y39040561D01*
G37*
G36*
X16362994Y40136576D02*
X15013834Y41485736D01*
X16362994Y42834896D01*
X17712154Y41485736D01*
X16362994Y40136576D01*
X16362994Y40136576D01*
G37*
G36*
X19474264Y43247846D02*
X18125104Y44597006D01*
X19474264Y45946166D01*
X20823424Y44597006D01*
X19474264Y43247846D01*
X19474264Y43247846D01*
G37*
D13*
X19474264Y40212944D03*
X20747056Y41485736D03*
D10*
G36*
X18625736Y53113834D02*
X17276576Y54462994D01*
X18625736Y55812154D01*
X19974896Y54462994D01*
X18625736Y53113834D01*
X18625736Y53113834D01*
G37*
G36*
X21737006Y56225104D02*
X20387846Y57574264D01*
X21737006Y58923424D01*
X23086166Y57574264D01*
X21737006Y56225104D01*
X21737006Y56225104D01*
G37*
G36*
X20570280Y57391831D02*
X19291831Y58670280D01*
X20640990Y60019439D01*
X21919439Y58740990D01*
X20570280Y57391831D01*
X20570280Y57391831D01*
G37*
G36*
X17459010Y54280561D02*
X16180561Y55559010D01*
X17529720Y56908169D01*
X18808169Y55629720D01*
X17459010Y54280561D01*
X17459010Y54280561D01*
G37*
G36*
X16362994Y55376576D02*
X15013834Y56725736D01*
X16362994Y58074896D01*
X17712154Y56725736D01*
X16362994Y55376576D01*
X16362994Y55376576D01*
G37*
G36*
X19474264Y58487846D02*
X18125104Y59837006D01*
X19474264Y61186166D01*
X20823424Y59837006D01*
X19474264Y58487846D01*
X19474264Y58487846D01*
G37*
D13*
X19474264Y55452944D03*
X20747056Y56725736D03*
D10*
G36*
X22633834Y57574264D02*
X23982994Y58923424D01*
X25332154Y57574264D01*
X23982994Y56225104D01*
X22633834Y57574264D01*
X22633834Y57574264D01*
G37*
G36*
X25745104Y54462994D02*
X27094264Y55812154D01*
X28443424Y54462994D01*
X27094264Y53113834D01*
X25745104Y54462994D01*
X25745104Y54462994D01*
G37*
G36*
X26911831Y55629720D02*
X28190280Y56908169D01*
X29539439Y55559010D01*
X28260990Y54280561D01*
X26911831Y55629720D01*
X26911831Y55629720D01*
G37*
G36*
X23800561Y58740990D02*
X25079010Y60019439D01*
X26428169Y58670280D01*
X25149720Y57391831D01*
X23800561Y58740990D01*
X23800561Y58740990D01*
G37*
G36*
X24896576Y59837006D02*
X26245736Y61186166D01*
X27594896Y59837006D01*
X26245736Y58487846D01*
X24896576Y59837006D01*
X24896576Y59837006D01*
G37*
G36*
X28007846Y56725736D02*
X29357006Y58074896D01*
X30706166Y56725736D01*
X29357006Y55376576D01*
X28007846Y56725736D01*
X28007846Y56725736D01*
G37*
D13*
X24972944Y56725736D03*
X26245736Y55452944D03*
D10*
G36*
X27094264Y53566166D02*
X28443424Y52217006D01*
X27094264Y50867846D01*
X25745104Y52217006D01*
X27094264Y53566166D01*
X27094264Y53566166D01*
G37*
G36*
X23982994Y50454896D02*
X25332154Y49105736D01*
X23982994Y47756576D01*
X22633834Y49105736D01*
X23982994Y50454896D01*
X23982994Y50454896D01*
G37*
G36*
X25149720Y49288169D02*
X26428169Y48009720D01*
X25079010Y46660561D01*
X23800561Y47939010D01*
X25149720Y49288169D01*
X25149720Y49288169D01*
G37*
G36*
X28260990Y52399439D02*
X29539439Y51120990D01*
X28190280Y49771831D01*
X26911831Y51050280D01*
X28260990Y52399439D01*
X28260990Y52399439D01*
G37*
G36*
X29357006Y51303424D02*
X30706166Y49954264D01*
X29357006Y48605104D01*
X28007846Y49954264D01*
X29357006Y51303424D01*
X29357006Y51303424D01*
G37*
G36*
X26245736Y48192154D02*
X27594896Y46842994D01*
X26245736Y45493834D01*
X24896576Y46842994D01*
X26245736Y48192154D01*
X26245736Y48192154D01*
G37*
D13*
X26245736Y51227056D03*
X24972944Y49954264D03*
D10*
G36*
X22633834Y42334264D02*
X23982994Y43683424D01*
X25332154Y42334264D01*
X23982994Y40985104D01*
X22633834Y42334264D01*
X22633834Y42334264D01*
G37*
G36*
X25745104Y39222994D02*
X27094264Y40572154D01*
X28443424Y39222994D01*
X27094264Y37873834D01*
X25745104Y39222994D01*
X25745104Y39222994D01*
G37*
G36*
X26911831Y40389720D02*
X28190280Y41668169D01*
X29539439Y40319010D01*
X28260990Y39040561D01*
X26911831Y40389720D01*
X26911831Y40389720D01*
G37*
G36*
X23800561Y43500990D02*
X25079010Y44779439D01*
X26428169Y43430280D01*
X25149720Y42151831D01*
X23800561Y43500990D01*
X23800561Y43500990D01*
G37*
G36*
X24896576Y44597006D02*
X26245736Y45946166D01*
X27594896Y44597006D01*
X26245736Y43247846D01*
X24896576Y44597006D01*
X24896576Y44597006D01*
G37*
G36*
X28007846Y41485736D02*
X29357006Y42834896D01*
X30706166Y41485736D01*
X29357006Y40136576D01*
X28007846Y41485736D01*
X28007846Y41485736D01*
G37*
D13*
X24972944Y41485736D03*
X26245736Y40212944D03*
D10*
G36*
X27094264Y38326166D02*
X28443424Y36977006D01*
X27094264Y35627846D01*
X25745104Y36977006D01*
X27094264Y38326166D01*
X27094264Y38326166D01*
G37*
G36*
X23982994Y35214896D02*
X25332154Y33865736D01*
X23982994Y32516576D01*
X22633834Y33865736D01*
X23982994Y35214896D01*
X23982994Y35214896D01*
G37*
G36*
X25149720Y34048169D02*
X26428169Y32769720D01*
X25079010Y31420561D01*
X23800561Y32699010D01*
X25149720Y34048169D01*
X25149720Y34048169D01*
G37*
G36*
X28260990Y37159439D02*
X29539439Y35880990D01*
X28190280Y34531831D01*
X26911831Y35810280D01*
X28260990Y37159439D01*
X28260990Y37159439D01*
G37*
G36*
X29357006Y36063424D02*
X30706166Y34714264D01*
X29357006Y33365104D01*
X28007846Y34714264D01*
X29357006Y36063424D01*
X29357006Y36063424D01*
G37*
G36*
X26245736Y32952154D02*
X27594896Y31602994D01*
X26245736Y30253834D01*
X24896576Y31602994D01*
X26245736Y32952154D01*
X26245736Y32952154D01*
G37*
D13*
X26245736Y35987056D03*
X24972944Y34714264D03*
D10*
G36*
X22633834Y27094264D02*
X23982994Y28443424D01*
X25332154Y27094264D01*
X23982994Y25745104D01*
X22633834Y27094264D01*
X22633834Y27094264D01*
G37*
G36*
X25745104Y23982994D02*
X27094264Y25332154D01*
X28443424Y23982994D01*
X27094264Y22633834D01*
X25745104Y23982994D01*
X25745104Y23982994D01*
G37*
G36*
X26911831Y25149720D02*
X28190280Y26428169D01*
X29539439Y25079010D01*
X28260990Y23800561D01*
X26911831Y25149720D01*
X26911831Y25149720D01*
G37*
G36*
X23800561Y28260990D02*
X25079010Y29539439D01*
X26428169Y28190280D01*
X25149720Y26911831D01*
X23800561Y28260990D01*
X23800561Y28260990D01*
G37*
G36*
X24896576Y29357006D02*
X26245736Y30706166D01*
X27594896Y29357006D01*
X26245736Y28007846D01*
X24896576Y29357006D01*
X24896576Y29357006D01*
G37*
G36*
X28007846Y26245736D02*
X29357006Y27594896D01*
X30706166Y26245736D01*
X29357006Y24896576D01*
X28007846Y26245736D01*
X28007846Y26245736D01*
G37*
D13*
X24972944Y26245736D03*
X26245736Y24972944D03*
D10*
G36*
X27094264Y23086166D02*
X28443424Y21737006D01*
X27094264Y20387846D01*
X25745104Y21737006D01*
X27094264Y23086166D01*
X27094264Y23086166D01*
G37*
G36*
X23982994Y19974896D02*
X25332154Y18625736D01*
X23982994Y17276576D01*
X22633834Y18625736D01*
X23982994Y19974896D01*
X23982994Y19974896D01*
G37*
G36*
X25149720Y18808169D02*
X26428169Y17529720D01*
X25079010Y16180561D01*
X23800561Y17459010D01*
X25149720Y18808169D01*
X25149720Y18808169D01*
G37*
G36*
X28260990Y21919439D02*
X29539439Y20640990D01*
X28190280Y19291831D01*
X26911831Y20570280D01*
X28260990Y21919439D01*
X28260990Y21919439D01*
G37*
G36*
X29357006Y20823424D02*
X30706166Y19474264D01*
X29357006Y18125104D01*
X28007846Y19474264D01*
X29357006Y20823424D01*
X29357006Y20823424D01*
G37*
G36*
X26245736Y17712154D02*
X27594896Y16362994D01*
X26245736Y15013834D01*
X24896576Y16362994D01*
X26245736Y17712154D01*
X26245736Y17712154D01*
G37*
D13*
X26245736Y20747056D03*
X24972944Y19474264D03*
D10*
G36*
X22633834Y11854264D02*
X23982994Y13203424D01*
X25332154Y11854264D01*
X23982994Y10505104D01*
X22633834Y11854264D01*
X22633834Y11854264D01*
G37*
G36*
X25745104Y8742994D02*
X27094264Y10092154D01*
X28443424Y8742994D01*
X27094264Y7393834D01*
X25745104Y8742994D01*
X25745104Y8742994D01*
G37*
G36*
X26911831Y9909720D02*
X28190280Y11188169D01*
X29539439Y9839010D01*
X28260990Y8560561D01*
X26911831Y9909720D01*
X26911831Y9909720D01*
G37*
G36*
X23800561Y13020990D02*
X25079010Y14299439D01*
X26428169Y12950280D01*
X25149720Y11671831D01*
X23800561Y13020990D01*
X23800561Y13020990D01*
G37*
G36*
X24896576Y14117006D02*
X26245736Y15466166D01*
X27594896Y14117006D01*
X26245736Y12767846D01*
X24896576Y14117006D01*
X24896576Y14117006D01*
G37*
G36*
X28007846Y11005736D02*
X29357006Y12354896D01*
X30706166Y11005736D01*
X29357006Y9656576D01*
X28007846Y11005736D01*
X28007846Y11005736D01*
G37*
D13*
X24972944Y11005736D03*
X26245736Y9732944D03*
D10*
G36*
X33865736Y7393834D02*
X32516576Y8742994D01*
X33865736Y10092154D01*
X35214896Y8742994D01*
X33865736Y7393834D01*
X33865736Y7393834D01*
G37*
G36*
X36977006Y10505104D02*
X35627846Y11854264D01*
X36977006Y13203424D01*
X38326166Y11854264D01*
X36977006Y10505104D01*
X36977006Y10505104D01*
G37*
G36*
X35810280Y11671831D02*
X34531831Y12950280D01*
X35880990Y14299439D01*
X37159439Y13020990D01*
X35810280Y11671831D01*
X35810280Y11671831D01*
G37*
G36*
X32699010Y8560561D02*
X31420561Y9839010D01*
X32769720Y11188169D01*
X34048169Y9909720D01*
X32699010Y8560561D01*
X32699010Y8560561D01*
G37*
G36*
X31602994Y9656576D02*
X30253834Y11005736D01*
X31602994Y12354896D01*
X32952154Y11005736D01*
X31602994Y9656576D01*
X31602994Y9656576D01*
G37*
G36*
X34714264Y12767846D02*
X33365104Y14117006D01*
X34714264Y15466166D01*
X36063424Y14117006D01*
X34714264Y12767846D01*
X34714264Y12767846D01*
G37*
D13*
X34714264Y9732944D03*
X35987056Y11005736D03*
D10*
G36*
X38326166Y18625736D02*
X36977006Y17276576D01*
X35627846Y18625736D01*
X36977006Y19974896D01*
X38326166Y18625736D01*
X38326166Y18625736D01*
G37*
G36*
X35214896Y21737006D02*
X33865736Y20387846D01*
X32516576Y21737006D01*
X33865736Y23086166D01*
X35214896Y21737006D01*
X35214896Y21737006D01*
G37*
G36*
X34048169Y20570280D02*
X32769720Y19291831D01*
X31420561Y20640990D01*
X32699010Y21919439D01*
X34048169Y20570280D01*
X34048169Y20570280D01*
G37*
G36*
X37159439Y17459010D02*
X35880990Y16180561D01*
X34531831Y17529720D01*
X35810280Y18808169D01*
X37159439Y17459010D01*
X37159439Y17459010D01*
G37*
G36*
X36063424Y16362994D02*
X34714264Y15013834D01*
X33365104Y16362994D01*
X34714264Y17712154D01*
X36063424Y16362994D01*
X36063424Y16362994D01*
G37*
G36*
X32952154Y19474264D02*
X31602994Y18125104D01*
X30253834Y19474264D01*
X31602994Y20823424D01*
X32952154Y19474264D01*
X32952154Y19474264D01*
G37*
D13*
X35987056Y19474264D03*
X34714264Y20747056D03*
D10*
G36*
X33865736Y22633834D02*
X32516576Y23982994D01*
X33865736Y25332154D01*
X35214896Y23982994D01*
X33865736Y22633834D01*
X33865736Y22633834D01*
G37*
G36*
X36977006Y25745104D02*
X35627846Y27094264D01*
X36977006Y28443424D01*
X38326166Y27094264D01*
X36977006Y25745104D01*
X36977006Y25745104D01*
G37*
G36*
X35810280Y26911831D02*
X34531831Y28190280D01*
X35880990Y29539439D01*
X37159439Y28260990D01*
X35810280Y26911831D01*
X35810280Y26911831D01*
G37*
G36*
X32699010Y23800561D02*
X31420561Y25079010D01*
X32769720Y26428169D01*
X34048169Y25149720D01*
X32699010Y23800561D01*
X32699010Y23800561D01*
G37*
G36*
X31602994Y24896576D02*
X30253834Y26245736D01*
X31602994Y27594896D01*
X32952154Y26245736D01*
X31602994Y24896576D01*
X31602994Y24896576D01*
G37*
G36*
X34714264Y28007846D02*
X33365104Y29357006D01*
X34714264Y30706166D01*
X36063424Y29357006D01*
X34714264Y28007846D01*
X34714264Y28007846D01*
G37*
D13*
X34714264Y24972944D03*
X35987056Y26245736D03*
D10*
G36*
X38326166Y33865736D02*
X36977006Y32516576D01*
X35627846Y33865736D01*
X36977006Y35214896D01*
X38326166Y33865736D01*
X38326166Y33865736D01*
G37*
G36*
X35214896Y36977006D02*
X33865736Y35627846D01*
X32516576Y36977006D01*
X33865736Y38326166D01*
X35214896Y36977006D01*
X35214896Y36977006D01*
G37*
G36*
X34048169Y35810280D02*
X32769720Y34531831D01*
X31420561Y35880990D01*
X32699010Y37159439D01*
X34048169Y35810280D01*
X34048169Y35810280D01*
G37*
G36*
X37159439Y32699010D02*
X35880990Y31420561D01*
X34531831Y32769720D01*
X35810280Y34048169D01*
X37159439Y32699010D01*
X37159439Y32699010D01*
G37*
G36*
X36063424Y31602994D02*
X34714264Y30253834D01*
X33365104Y31602994D01*
X34714264Y32952154D01*
X36063424Y31602994D01*
X36063424Y31602994D01*
G37*
G36*
X32952154Y34714264D02*
X31602994Y33365104D01*
X30253834Y34714264D01*
X31602994Y36063424D01*
X32952154Y34714264D01*
X32952154Y34714264D01*
G37*
D13*
X35987056Y34714264D03*
X34714264Y35987056D03*
D10*
G36*
X38326166Y49105736D02*
X36977006Y47756576D01*
X35627846Y49105736D01*
X36977006Y50454896D01*
X38326166Y49105736D01*
X38326166Y49105736D01*
G37*
G36*
X35214896Y52217006D02*
X33865736Y50867846D01*
X32516576Y52217006D01*
X33865736Y53566166D01*
X35214896Y52217006D01*
X35214896Y52217006D01*
G37*
G36*
X34048169Y51050280D02*
X32769720Y49771831D01*
X31420561Y51120990D01*
X32699010Y52399439D01*
X34048169Y51050280D01*
X34048169Y51050280D01*
G37*
G36*
X37159439Y47939010D02*
X35880990Y46660561D01*
X34531831Y48009720D01*
X35810280Y49288169D01*
X37159439Y47939010D01*
X37159439Y47939010D01*
G37*
G36*
X36063424Y46842994D02*
X34714264Y45493834D01*
X33365104Y46842994D01*
X34714264Y48192154D01*
X36063424Y46842994D01*
X36063424Y46842994D01*
G37*
G36*
X32952154Y49954264D02*
X31602994Y48605104D01*
X30253834Y49954264D01*
X31602994Y51303424D01*
X32952154Y49954264D01*
X32952154Y49954264D01*
G37*
D13*
X35987056Y49954264D03*
X34714264Y51227056D03*
D10*
G36*
X33865736Y53113834D02*
X32516576Y54462994D01*
X33865736Y55812154D01*
X35214896Y54462994D01*
X33865736Y53113834D01*
X33865736Y53113834D01*
G37*
G36*
X36977006Y56225104D02*
X35627846Y57574264D01*
X36977006Y58923424D01*
X38326166Y57574264D01*
X36977006Y56225104D01*
X36977006Y56225104D01*
G37*
G36*
X35810280Y57391831D02*
X34531831Y58670280D01*
X35880990Y60019439D01*
X37159439Y58740990D01*
X35810280Y57391831D01*
X35810280Y57391831D01*
G37*
G36*
X32699010Y54280561D02*
X31420561Y55559010D01*
X32769720Y56908169D01*
X34048169Y55629720D01*
X32699010Y54280561D01*
X32699010Y54280561D01*
G37*
G36*
X31602994Y55376576D02*
X30253834Y56725736D01*
X31602994Y58074896D01*
X32952154Y56725736D01*
X31602994Y55376576D01*
X31602994Y55376576D01*
G37*
G36*
X34714264Y58487846D02*
X33365104Y59837006D01*
X34714264Y61186166D01*
X36063424Y59837006D01*
X34714264Y58487846D01*
X34714264Y58487846D01*
G37*
D13*
X34714264Y55452944D03*
X35987056Y56725736D03*
D10*
G36*
X37873834Y57574264D02*
X39222994Y58923424D01*
X40572154Y57574264D01*
X39222994Y56225104D01*
X37873834Y57574264D01*
X37873834Y57574264D01*
G37*
G36*
X40985104Y54462994D02*
X42334264Y55812154D01*
X43683424Y54462994D01*
X42334264Y53113834D01*
X40985104Y54462994D01*
X40985104Y54462994D01*
G37*
G36*
X42151831Y55629720D02*
X43430280Y56908169D01*
X44779439Y55559010D01*
X43500990Y54280561D01*
X42151831Y55629720D01*
X42151831Y55629720D01*
G37*
G36*
X39040561Y58740990D02*
X40319010Y60019439D01*
X41668169Y58670280D01*
X40389720Y57391831D01*
X39040561Y58740990D01*
X39040561Y58740990D01*
G37*
G36*
X40136576Y59837006D02*
X41485736Y61186166D01*
X42834896Y59837006D01*
X41485736Y58487846D01*
X40136576Y59837006D01*
X40136576Y59837006D01*
G37*
G36*
X43247846Y56725736D02*
X44597006Y58074896D01*
X45946166Y56725736D01*
X44597006Y55376576D01*
X43247846Y56725736D01*
X43247846Y56725736D01*
G37*
D13*
X40212944Y56725736D03*
X41485736Y55452944D03*
D10*
G36*
X42334264Y53566166D02*
X43683424Y52217006D01*
X42334264Y50867846D01*
X40985104Y52217006D01*
X42334264Y53566166D01*
X42334264Y53566166D01*
G37*
G36*
X39222994Y50454896D02*
X40572154Y49105736D01*
X39222994Y47756576D01*
X37873834Y49105736D01*
X39222994Y50454896D01*
X39222994Y50454896D01*
G37*
G36*
X40389720Y49288169D02*
X41668169Y48009720D01*
X40319010Y46660561D01*
X39040561Y47939010D01*
X40389720Y49288169D01*
X40389720Y49288169D01*
G37*
G36*
X43500990Y52399439D02*
X44779439Y51120990D01*
X43430280Y49771831D01*
X42151831Y51050280D01*
X43500990Y52399439D01*
X43500990Y52399439D01*
G37*
G36*
X44597006Y51303424D02*
X45946166Y49954264D01*
X44597006Y48605104D01*
X43247846Y49954264D01*
X44597006Y51303424D01*
X44597006Y51303424D01*
G37*
G36*
X41485736Y48192154D02*
X42834896Y46842994D01*
X41485736Y45493834D01*
X40136576Y46842994D01*
X41485736Y48192154D01*
X41485736Y48192154D01*
G37*
D13*
X41485736Y51227056D03*
X40212944Y49954264D03*
D10*
G36*
X42334264Y38326166D02*
X43683424Y36977006D01*
X42334264Y35627846D01*
X40985104Y36977006D01*
X42334264Y38326166D01*
X42334264Y38326166D01*
G37*
G36*
X39222994Y35214896D02*
X40572154Y33865736D01*
X39222994Y32516576D01*
X37873834Y33865736D01*
X39222994Y35214896D01*
X39222994Y35214896D01*
G37*
G36*
X40389720Y34048169D02*
X41668169Y32769720D01*
X40319010Y31420561D01*
X39040561Y32699010D01*
X40389720Y34048169D01*
X40389720Y34048169D01*
G37*
G36*
X43500990Y37159439D02*
X44779439Y35880990D01*
X43430280Y34531831D01*
X42151831Y35810280D01*
X43500990Y37159439D01*
X43500990Y37159439D01*
G37*
G36*
X44597006Y36063424D02*
X45946166Y34714264D01*
X44597006Y33365104D01*
X43247846Y34714264D01*
X44597006Y36063424D01*
X44597006Y36063424D01*
G37*
G36*
X41485736Y32952154D02*
X42834896Y31602994D01*
X41485736Y30253834D01*
X40136576Y31602994D01*
X41485736Y32952154D01*
X41485736Y32952154D01*
G37*
D13*
X41485736Y35987056D03*
X40212944Y34714264D03*
D10*
G36*
X37873834Y27094264D02*
X39222994Y28443424D01*
X40572154Y27094264D01*
X39222994Y25745104D01*
X37873834Y27094264D01*
X37873834Y27094264D01*
G37*
G36*
X40985104Y23982994D02*
X42334264Y25332154D01*
X43683424Y23982994D01*
X42334264Y22633834D01*
X40985104Y23982994D01*
X40985104Y23982994D01*
G37*
G36*
X42151831Y25149720D02*
X43430280Y26428169D01*
X44779439Y25079010D01*
X43500990Y23800561D01*
X42151831Y25149720D01*
X42151831Y25149720D01*
G37*
G36*
X39040561Y28260990D02*
X40319010Y29539439D01*
X41668169Y28190280D01*
X40389720Y26911831D01*
X39040561Y28260990D01*
X39040561Y28260990D01*
G37*
G36*
X40136576Y29357006D02*
X41485736Y30706166D01*
X42834896Y29357006D01*
X41485736Y28007846D01*
X40136576Y29357006D01*
X40136576Y29357006D01*
G37*
G36*
X43247846Y26245736D02*
X44597006Y27594896D01*
X45946166Y26245736D01*
X44597006Y24896576D01*
X43247846Y26245736D01*
X43247846Y26245736D01*
G37*
D13*
X40212944Y26245736D03*
X41485736Y24972944D03*
D10*
G36*
X42334264Y23086166D02*
X43683424Y21737006D01*
X42334264Y20387846D01*
X40985104Y21737006D01*
X42334264Y23086166D01*
X42334264Y23086166D01*
G37*
G36*
X39222994Y19974896D02*
X40572154Y18625736D01*
X39222994Y17276576D01*
X37873834Y18625736D01*
X39222994Y19974896D01*
X39222994Y19974896D01*
G37*
G36*
X40389720Y18808169D02*
X41668169Y17529720D01*
X40319010Y16180561D01*
X39040561Y17459010D01*
X40389720Y18808169D01*
X40389720Y18808169D01*
G37*
G36*
X43500990Y21919439D02*
X44779439Y20640990D01*
X43430280Y19291831D01*
X42151831Y20570280D01*
X43500990Y21919439D01*
X43500990Y21919439D01*
G37*
G36*
X44597006Y20823424D02*
X45946166Y19474264D01*
X44597006Y18125104D01*
X43247846Y19474264D01*
X44597006Y20823424D01*
X44597006Y20823424D01*
G37*
G36*
X41485736Y17712154D02*
X42834896Y16362994D01*
X41485736Y15013834D01*
X40136576Y16362994D01*
X41485736Y17712154D01*
X41485736Y17712154D01*
G37*
D13*
X41485736Y20747056D03*
X40212944Y19474264D03*
D10*
G36*
X37873834Y11854264D02*
X39222994Y13203424D01*
X40572154Y11854264D01*
X39222994Y10505104D01*
X37873834Y11854264D01*
X37873834Y11854264D01*
G37*
G36*
X40985104Y8742994D02*
X42334264Y10092154D01*
X43683424Y8742994D01*
X42334264Y7393834D01*
X40985104Y8742994D01*
X40985104Y8742994D01*
G37*
G36*
X42151831Y9909720D02*
X43430280Y11188169D01*
X44779439Y9839010D01*
X43500990Y8560561D01*
X42151831Y9909720D01*
X42151831Y9909720D01*
G37*
G36*
X39040561Y13020990D02*
X40319010Y14299439D01*
X41668169Y12950280D01*
X40389720Y11671831D01*
X39040561Y13020990D01*
X39040561Y13020990D01*
G37*
G36*
X40136576Y14117006D02*
X41485736Y15466166D01*
X42834896Y14117006D01*
X41485736Y12767846D01*
X40136576Y14117006D01*
X40136576Y14117006D01*
G37*
G36*
X43247846Y11005736D02*
X44597006Y12354896D01*
X45946166Y11005736D01*
X44597006Y9656576D01*
X43247846Y11005736D01*
X43247846Y11005736D01*
G37*
D13*
X40212944Y11005736D03*
X41485736Y9732944D03*
D10*
G36*
X49105736Y7393834D02*
X47756576Y8742994D01*
X49105736Y10092154D01*
X50454896Y8742994D01*
X49105736Y7393834D01*
X49105736Y7393834D01*
G37*
G36*
X52217006Y10505104D02*
X50867846Y11854264D01*
X52217006Y13203424D01*
X53566166Y11854264D01*
X52217006Y10505104D01*
X52217006Y10505104D01*
G37*
G36*
X51050280Y11671831D02*
X49771831Y12950280D01*
X51120990Y14299439D01*
X52399439Y13020990D01*
X51050280Y11671831D01*
X51050280Y11671831D01*
G37*
G36*
X47939010Y8560561D02*
X46660561Y9839010D01*
X48009720Y11188169D01*
X49288169Y9909720D01*
X47939010Y8560561D01*
X47939010Y8560561D01*
G37*
G36*
X46842994Y9656576D02*
X45493834Y11005736D01*
X46842994Y12354896D01*
X48192154Y11005736D01*
X46842994Y9656576D01*
X46842994Y9656576D01*
G37*
G36*
X49954264Y12767846D02*
X48605104Y14117006D01*
X49954264Y15466166D01*
X51303424Y14117006D01*
X49954264Y12767846D01*
X49954264Y12767846D01*
G37*
D13*
X49954264Y9732944D03*
X51227056Y11005736D03*
D10*
G36*
X53566166Y18625736D02*
X52217006Y17276576D01*
X50867846Y18625736D01*
X52217006Y19974896D01*
X53566166Y18625736D01*
X53566166Y18625736D01*
G37*
G36*
X50454896Y21737006D02*
X49105736Y20387846D01*
X47756576Y21737006D01*
X49105736Y23086166D01*
X50454896Y21737006D01*
X50454896Y21737006D01*
G37*
G36*
X49288169Y20570280D02*
X48009720Y19291831D01*
X46660561Y20640990D01*
X47939010Y21919439D01*
X49288169Y20570280D01*
X49288169Y20570280D01*
G37*
G36*
X52399439Y17459010D02*
X51120990Y16180561D01*
X49771831Y17529720D01*
X51050280Y18808169D01*
X52399439Y17459010D01*
X52399439Y17459010D01*
G37*
G36*
X51303424Y16362994D02*
X49954264Y15013834D01*
X48605104Y16362994D01*
X49954264Y17712154D01*
X51303424Y16362994D01*
X51303424Y16362994D01*
G37*
G36*
X48192154Y19474264D02*
X46842994Y18125104D01*
X45493834Y19474264D01*
X46842994Y20823424D01*
X48192154Y19474264D01*
X48192154Y19474264D01*
G37*
D13*
X51227056Y19474264D03*
X49954264Y20747056D03*
D10*
G36*
X49105736Y22633834D02*
X47756576Y23982994D01*
X49105736Y25332154D01*
X50454896Y23982994D01*
X49105736Y22633834D01*
X49105736Y22633834D01*
G37*
G36*
X52217006Y25745104D02*
X50867846Y27094264D01*
X52217006Y28443424D01*
X53566166Y27094264D01*
X52217006Y25745104D01*
X52217006Y25745104D01*
G37*
G36*
X51050280Y26911831D02*
X49771831Y28190280D01*
X51120990Y29539439D01*
X52399439Y28260990D01*
X51050280Y26911831D01*
X51050280Y26911831D01*
G37*
G36*
X47939010Y23800561D02*
X46660561Y25079010D01*
X48009720Y26428169D01*
X49288169Y25149720D01*
X47939010Y23800561D01*
X47939010Y23800561D01*
G37*
G36*
X46842994Y24896576D02*
X45493834Y26245736D01*
X46842994Y27594896D01*
X48192154Y26245736D01*
X46842994Y24896576D01*
X46842994Y24896576D01*
G37*
G36*
X49954264Y28007846D02*
X48605104Y29357006D01*
X49954264Y30706166D01*
X51303424Y29357006D01*
X49954264Y28007846D01*
X49954264Y28007846D01*
G37*
D13*
X49954264Y24972944D03*
X51227056Y26245736D03*
D10*
G36*
X53566166Y49105736D02*
X52217006Y47756576D01*
X50867846Y49105736D01*
X52217006Y50454896D01*
X53566166Y49105736D01*
X53566166Y49105736D01*
G37*
G36*
X50454896Y52217006D02*
X49105736Y50867846D01*
X47756576Y52217006D01*
X49105736Y53566166D01*
X50454896Y52217006D01*
X50454896Y52217006D01*
G37*
G36*
X49288169Y51050280D02*
X48009720Y49771831D01*
X46660561Y51120990D01*
X47939010Y52399439D01*
X49288169Y51050280D01*
X49288169Y51050280D01*
G37*
G36*
X52399439Y47939010D02*
X51120990Y46660561D01*
X49771831Y48009720D01*
X51050280Y49288169D01*
X52399439Y47939010D01*
X52399439Y47939010D01*
G37*
G36*
X51303424Y46842994D02*
X49954264Y45493834D01*
X48605104Y46842994D01*
X49954264Y48192154D01*
X51303424Y46842994D01*
X51303424Y46842994D01*
G37*
G36*
X48192154Y49954264D02*
X46842994Y48605104D01*
X45493834Y49954264D01*
X46842994Y51303424D01*
X48192154Y49954264D01*
X48192154Y49954264D01*
G37*
D13*
X51227056Y49954264D03*
X49954264Y51227056D03*
D10*
G36*
X49105736Y53113834D02*
X47756576Y54462994D01*
X49105736Y55812154D01*
X50454896Y54462994D01*
X49105736Y53113834D01*
X49105736Y53113834D01*
G37*
G36*
X52217006Y56225104D02*
X50867846Y57574264D01*
X52217006Y58923424D01*
X53566166Y57574264D01*
X52217006Y56225104D01*
X52217006Y56225104D01*
G37*
G36*
X51050280Y57391831D02*
X49771831Y58670280D01*
X51120990Y60019439D01*
X52399439Y58740990D01*
X51050280Y57391831D01*
X51050280Y57391831D01*
G37*
G36*
X47939010Y54280561D02*
X46660561Y55559010D01*
X48009720Y56908169D01*
X49288169Y55629720D01*
X47939010Y54280561D01*
X47939010Y54280561D01*
G37*
G36*
X46842994Y55376576D02*
X45493834Y56725736D01*
X46842994Y58074896D01*
X48192154Y56725736D01*
X46842994Y55376576D01*
X46842994Y55376576D01*
G37*
G36*
X49954264Y58487846D02*
X48605104Y59837006D01*
X49954264Y61186166D01*
X51303424Y59837006D01*
X49954264Y58487846D01*
X49954264Y58487846D01*
G37*
D13*
X49954264Y55452944D03*
X51227056Y56725736D03*
D10*
G36*
X53113834Y57574264D02*
X54462994Y58923424D01*
X55812154Y57574264D01*
X54462994Y56225104D01*
X53113834Y57574264D01*
X53113834Y57574264D01*
G37*
G36*
X56225104Y54462994D02*
X57574264Y55812154D01*
X58923424Y54462994D01*
X57574264Y53113834D01*
X56225104Y54462994D01*
X56225104Y54462994D01*
G37*
G36*
X57391831Y55629720D02*
X58670280Y56908169D01*
X60019439Y55559010D01*
X58740990Y54280561D01*
X57391831Y55629720D01*
X57391831Y55629720D01*
G37*
G36*
X54280561Y58740990D02*
X55559010Y60019439D01*
X56908169Y58670280D01*
X55629720Y57391831D01*
X54280561Y58740990D01*
X54280561Y58740990D01*
G37*
G36*
X55376576Y59837006D02*
X56725736Y61186166D01*
X58074896Y59837006D01*
X56725736Y58487846D01*
X55376576Y59837006D01*
X55376576Y59837006D01*
G37*
G36*
X58487846Y56725736D02*
X59837006Y58074896D01*
X61186166Y56725736D01*
X59837006Y55376576D01*
X58487846Y56725736D01*
X58487846Y56725736D01*
G37*
D13*
X55452944Y56725736D03*
X56725736Y55452944D03*
D10*
G36*
X57574264Y53566166D02*
X58923424Y52217006D01*
X57574264Y50867846D01*
X56225104Y52217006D01*
X57574264Y53566166D01*
X57574264Y53566166D01*
G37*
G36*
X54462994Y50454896D02*
X55812154Y49105736D01*
X54462994Y47756576D01*
X53113834Y49105736D01*
X54462994Y50454896D01*
X54462994Y50454896D01*
G37*
G36*
X55629720Y49288169D02*
X56908169Y48009720D01*
X55559010Y46660561D01*
X54280561Y47939010D01*
X55629720Y49288169D01*
X55629720Y49288169D01*
G37*
G36*
X58740990Y52399439D02*
X60019439Y51120990D01*
X58670280Y49771831D01*
X57391831Y51050280D01*
X58740990Y52399439D01*
X58740990Y52399439D01*
G37*
G36*
X59837006Y51303424D02*
X61186166Y49954264D01*
X59837006Y48605104D01*
X58487846Y49954264D01*
X59837006Y51303424D01*
X59837006Y51303424D01*
G37*
G36*
X56725736Y48192154D02*
X58074896Y46842994D01*
X56725736Y45493834D01*
X55376576Y46842994D01*
X56725736Y48192154D01*
X56725736Y48192154D01*
G37*
D13*
X56725736Y51227056D03*
X55452944Y49954264D03*
D10*
G36*
X53113834Y27094264D02*
X54462994Y28443424D01*
X55812154Y27094264D01*
X54462994Y25745104D01*
X53113834Y27094264D01*
X53113834Y27094264D01*
G37*
G36*
X56225104Y23982994D02*
X57574264Y25332154D01*
X58923424Y23982994D01*
X57574264Y22633834D01*
X56225104Y23982994D01*
X56225104Y23982994D01*
G37*
G36*
X57391831Y25149720D02*
X58670280Y26428169D01*
X60019439Y25079010D01*
X58740990Y23800561D01*
X57391831Y25149720D01*
X57391831Y25149720D01*
G37*
G36*
X54280561Y28260990D02*
X55559010Y29539439D01*
X56908169Y28190280D01*
X55629720Y26911831D01*
X54280561Y28260990D01*
X54280561Y28260990D01*
G37*
G36*
X55376576Y29357006D02*
X56725736Y30706166D01*
X58074896Y29357006D01*
X56725736Y28007846D01*
X55376576Y29357006D01*
X55376576Y29357006D01*
G37*
G36*
X58487846Y26245736D02*
X59837006Y27594896D01*
X61186166Y26245736D01*
X59837006Y24896576D01*
X58487846Y26245736D01*
X58487846Y26245736D01*
G37*
D13*
X55452944Y26245736D03*
X56725736Y24972944D03*
D10*
G36*
X57574264Y23086166D02*
X58923424Y21737006D01*
X57574264Y20387846D01*
X56225104Y21737006D01*
X57574264Y23086166D01*
X57574264Y23086166D01*
G37*
G36*
X54462994Y19974896D02*
X55812154Y18625736D01*
X54462994Y17276576D01*
X53113834Y18625736D01*
X54462994Y19974896D01*
X54462994Y19974896D01*
G37*
G36*
X55629720Y18808169D02*
X56908169Y17529720D01*
X55559010Y16180561D01*
X54280561Y17459010D01*
X55629720Y18808169D01*
X55629720Y18808169D01*
G37*
G36*
X58740990Y21919439D02*
X60019439Y20640990D01*
X58670280Y19291831D01*
X57391831Y20570280D01*
X58740990Y21919439D01*
X58740990Y21919439D01*
G37*
G36*
X59837006Y20823424D02*
X61186166Y19474264D01*
X59837006Y18125104D01*
X58487846Y19474264D01*
X59837006Y20823424D01*
X59837006Y20823424D01*
G37*
G36*
X56725736Y17712154D02*
X58074896Y16362994D01*
X56725736Y15013834D01*
X55376576Y16362994D01*
X56725736Y17712154D01*
X56725736Y17712154D01*
G37*
D13*
X56725736Y20747056D03*
X55452944Y19474264D03*
D10*
G36*
X7846166Y33865736D02*
X6497006Y32516576D01*
X5147846Y33865736D01*
X6497006Y35214896D01*
X7846166Y33865736D01*
X7846166Y33865736D01*
G37*
G36*
X4734896Y36977006D02*
X3385736Y35627846D01*
X2036576Y36977006D01*
X3385736Y38326166D01*
X4734896Y36977006D01*
X4734896Y36977006D01*
G37*
G36*
X3568169Y35810280D02*
X2289720Y34531831D01*
X940561Y35880990D01*
X2219010Y37159439D01*
X3568169Y35810280D01*
X3568169Y35810280D01*
G37*
G36*
X6679439Y32699010D02*
X5400990Y31420561D01*
X4051831Y32769720D01*
X5330280Y34048169D01*
X6679439Y32699010D01*
X6679439Y32699010D01*
G37*
G36*
X5583424Y31602994D02*
X4234264Y30253834D01*
X2885104Y31602994D01*
X4234264Y32952154D01*
X5583424Y31602994D01*
X5583424Y31602994D01*
G37*
G36*
X2472154Y34714264D02*
X1122994Y33365104D01*
X-226166Y34714264D01*
X1122994Y36063424D01*
X2472154Y34714264D01*
X2472154Y34714264D01*
G37*
D13*
X5507056Y34714264D03*
X4234264Y35987056D03*
D10*
G36*
X3385736Y37873834D02*
X2036576Y39222994D01*
X3385736Y40572154D01*
X4734896Y39222994D01*
X3385736Y37873834D01*
X3385736Y37873834D01*
G37*
G36*
X6497006Y40985104D02*
X5147846Y42334264D01*
X6497006Y43683424D01*
X7846166Y42334264D01*
X6497006Y40985104D01*
X6497006Y40985104D01*
G37*
G36*
X5330280Y42151831D02*
X4051831Y43430280D01*
X5400990Y44779439D01*
X6679439Y43500990D01*
X5330280Y42151831D01*
X5330280Y42151831D01*
G37*
G36*
X2219010Y39040561D02*
X940561Y40319010D01*
X2289720Y41668169D01*
X3568169Y40389720D01*
X2219010Y39040561D01*
X2219010Y39040561D01*
G37*
G36*
X1122994Y40136576D02*
X-226166Y41485736D01*
X1122994Y42834896D01*
X2472154Y41485736D01*
X1122994Y40136576D01*
X1122994Y40136576D01*
G37*
G36*
X4234264Y43247846D02*
X2885104Y44597006D01*
X4234264Y45946166D01*
X5583424Y44597006D01*
X4234264Y43247846D01*
X4234264Y43247846D01*
G37*
D13*
X4234264Y40212944D03*
X5507056Y41485736D03*
D10*
G36*
X7393834Y42334264D02*
X8742994Y43683424D01*
X10092154Y42334264D01*
X8742994Y40985104D01*
X7393834Y42334264D01*
X7393834Y42334264D01*
G37*
G36*
X10505104Y39222994D02*
X11854264Y40572154D01*
X13203424Y39222994D01*
X11854264Y37873834D01*
X10505104Y39222994D01*
X10505104Y39222994D01*
G37*
G36*
X11671831Y40389720D02*
X12950280Y41668169D01*
X14299439Y40319010D01*
X13020990Y39040561D01*
X11671831Y40389720D01*
X11671831Y40389720D01*
G37*
G36*
X8560561Y43500990D02*
X9839010Y44779439D01*
X11188169Y43430280D01*
X9909720Y42151831D01*
X8560561Y43500990D01*
X8560561Y43500990D01*
G37*
G36*
X9656576Y44597006D02*
X11005736Y45946166D01*
X12354896Y44597006D01*
X11005736Y43247846D01*
X9656576Y44597006D01*
X9656576Y44597006D01*
G37*
G36*
X12767846Y41485736D02*
X14117006Y42834896D01*
X15466166Y41485736D01*
X14117006Y40136576D01*
X12767846Y41485736D01*
X12767846Y41485736D01*
G37*
D13*
X9732944Y41485736D03*
X11005736Y40212944D03*
D10*
G36*
X11854264Y38326166D02*
X13203424Y36977006D01*
X11854264Y35627846D01*
X10505104Y36977006D01*
X11854264Y38326166D01*
X11854264Y38326166D01*
G37*
G36*
X8742994Y35214896D02*
X10092154Y33865736D01*
X8742994Y32516576D01*
X7393834Y33865736D01*
X8742994Y35214896D01*
X8742994Y35214896D01*
G37*
G36*
X9909720Y34048169D02*
X11188169Y32769720D01*
X9839010Y31420561D01*
X8560561Y32699010D01*
X9909720Y34048169D01*
X9909720Y34048169D01*
G37*
G36*
X13020990Y37159439D02*
X14299439Y35880990D01*
X12950280Y34531831D01*
X11671831Y35810280D01*
X13020990Y37159439D01*
X13020990Y37159439D01*
G37*
G36*
X14117006Y36063424D02*
X15466166Y34714264D01*
X14117006Y33365104D01*
X12767846Y34714264D01*
X14117006Y36063424D01*
X14117006Y36063424D01*
G37*
G36*
X11005736Y32952154D02*
X12354896Y31602994D01*
X11005736Y30253834D01*
X9656576Y31602994D01*
X11005736Y32952154D01*
X11005736Y32952154D01*
G37*
D13*
X11005736Y35987056D03*
X9732944Y34714264D03*
D10*
G36*
X23086166Y18625736D02*
X21737006Y17276576D01*
X20387846Y18625736D01*
X21737006Y19974896D01*
X23086166Y18625736D01*
X23086166Y18625736D01*
G37*
G36*
X19974896Y21737006D02*
X18625736Y20387846D01*
X17276576Y21737006D01*
X18625736Y23086166D01*
X19974896Y21737006D01*
X19974896Y21737006D01*
G37*
G36*
X18808169Y20570280D02*
X17529720Y19291831D01*
X16180561Y20640990D01*
X17459010Y21919439D01*
X18808169Y20570280D01*
X18808169Y20570280D01*
G37*
G36*
X21919439Y17459010D02*
X20640990Y16180561D01*
X19291831Y17529720D01*
X20570280Y18808169D01*
X21919439Y17459010D01*
X21919439Y17459010D01*
G37*
G36*
X20823424Y16362994D02*
X19474264Y15013834D01*
X18125104Y16362994D01*
X19474264Y17712154D01*
X20823424Y16362994D01*
X20823424Y16362994D01*
G37*
G36*
X17712154Y19474264D02*
X16362994Y18125104D01*
X15013834Y19474264D01*
X16362994Y20823424D01*
X17712154Y19474264D01*
X17712154Y19474264D01*
G37*
D13*
X20747056Y19474264D03*
X19474264Y20747056D03*
D10*
G36*
X33865736Y37873834D02*
X32516576Y39222994D01*
X33865736Y40572154D01*
X35214896Y39222994D01*
X33865736Y37873834D01*
X33865736Y37873834D01*
G37*
G36*
X36977006Y40985104D02*
X35627846Y42334264D01*
X36977006Y43683424D01*
X38326166Y42334264D01*
X36977006Y40985104D01*
X36977006Y40985104D01*
G37*
G36*
X35810280Y42151831D02*
X34531831Y43430280D01*
X35880990Y44779439D01*
X37159439Y43500990D01*
X35810280Y42151831D01*
X35810280Y42151831D01*
G37*
G36*
X32699010Y39040561D02*
X31420561Y40319010D01*
X32769720Y41668169D01*
X34048169Y40389720D01*
X32699010Y39040561D01*
X32699010Y39040561D01*
G37*
G36*
X31602994Y40136576D02*
X30253834Y41485736D01*
X31602994Y42834896D01*
X32952154Y41485736D01*
X31602994Y40136576D01*
X31602994Y40136576D01*
G37*
G36*
X34714264Y43247846D02*
X33365104Y44597006D01*
X34714264Y45946166D01*
X36063424Y44597006D01*
X34714264Y43247846D01*
X34714264Y43247846D01*
G37*
D13*
X34714264Y40212944D03*
X35987056Y41485736D03*
D10*
G36*
X53566166Y33865736D02*
X52217006Y32516576D01*
X50867846Y33865736D01*
X52217006Y35214896D01*
X53566166Y33865736D01*
X53566166Y33865736D01*
G37*
G36*
X50454896Y36977006D02*
X49105736Y35627846D01*
X47756576Y36977006D01*
X49105736Y38326166D01*
X50454896Y36977006D01*
X50454896Y36977006D01*
G37*
G36*
X49288169Y35810280D02*
X48009720Y34531831D01*
X46660561Y35880990D01*
X47939010Y37159439D01*
X49288169Y35810280D01*
X49288169Y35810280D01*
G37*
G36*
X52399439Y32699010D02*
X51120990Y31420561D01*
X49771831Y32769720D01*
X51050280Y34048169D01*
X52399439Y32699010D01*
X52399439Y32699010D01*
G37*
G36*
X51303424Y31602994D02*
X49954264Y30253834D01*
X48605104Y31602994D01*
X49954264Y32952154D01*
X51303424Y31602994D01*
X51303424Y31602994D01*
G37*
G36*
X48192154Y34714264D02*
X46842994Y33365104D01*
X45493834Y34714264D01*
X46842994Y36063424D01*
X48192154Y34714264D01*
X48192154Y34714264D01*
G37*
D13*
X51227056Y34714264D03*
X49954264Y35987056D03*
D10*
G36*
X49105736Y37873834D02*
X47756576Y39222994D01*
X49105736Y40572154D01*
X50454896Y39222994D01*
X49105736Y37873834D01*
X49105736Y37873834D01*
G37*
G36*
X52217006Y40985104D02*
X50867846Y42334264D01*
X52217006Y43683424D01*
X53566166Y42334264D01*
X52217006Y40985104D01*
X52217006Y40985104D01*
G37*
G36*
X51050280Y42151831D02*
X49771831Y43430280D01*
X51120990Y44779439D01*
X52399439Y43500990D01*
X51050280Y42151831D01*
X51050280Y42151831D01*
G37*
G36*
X47939010Y39040561D02*
X46660561Y40319010D01*
X48009720Y41668169D01*
X49288169Y40389720D01*
X47939010Y39040561D01*
X47939010Y39040561D01*
G37*
G36*
X46842994Y40136576D02*
X45493834Y41485736D01*
X46842994Y42834896D01*
X48192154Y41485736D01*
X46842994Y40136576D01*
X46842994Y40136576D01*
G37*
G36*
X49954264Y43247846D02*
X48605104Y44597006D01*
X49954264Y45946166D01*
X51303424Y44597006D01*
X49954264Y43247846D01*
X49954264Y43247846D01*
G37*
D13*
X49954264Y40212944D03*
X51227056Y41485736D03*
D10*
G36*
X53113834Y42334264D02*
X54462994Y43683424D01*
X55812154Y42334264D01*
X54462994Y40985104D01*
X53113834Y42334264D01*
X53113834Y42334264D01*
G37*
G36*
X56225104Y39222994D02*
X57574264Y40572154D01*
X58923424Y39222994D01*
X57574264Y37873834D01*
X56225104Y39222994D01*
X56225104Y39222994D01*
G37*
G36*
X57391831Y40389720D02*
X58670280Y41668169D01*
X60019439Y40319010D01*
X58740990Y39040561D01*
X57391831Y40389720D01*
X57391831Y40389720D01*
G37*
G36*
X54280561Y43500990D02*
X55559010Y44779439D01*
X56908169Y43430280D01*
X55629720Y42151831D01*
X54280561Y43500990D01*
X54280561Y43500990D01*
G37*
G36*
X55376576Y44597006D02*
X56725736Y45946166D01*
X58074896Y44597006D01*
X56725736Y43247846D01*
X55376576Y44597006D01*
X55376576Y44597006D01*
G37*
G36*
X58487846Y41485736D02*
X59837006Y42834896D01*
X61186166Y41485736D01*
X59837006Y40136576D01*
X58487846Y41485736D01*
X58487846Y41485736D01*
G37*
D13*
X55452944Y41485736D03*
X56725736Y40212944D03*
D10*
G36*
X57574264Y38326166D02*
X58923424Y36977006D01*
X57574264Y35627846D01*
X56225104Y36977006D01*
X57574264Y38326166D01*
X57574264Y38326166D01*
G37*
G36*
X54462994Y35214896D02*
X55812154Y33865736D01*
X54462994Y32516576D01*
X53113834Y33865736D01*
X54462994Y35214896D01*
X54462994Y35214896D01*
G37*
G36*
X55629720Y34048169D02*
X56908169Y32769720D01*
X55559010Y31420561D01*
X54280561Y32699010D01*
X55629720Y34048169D01*
X55629720Y34048169D01*
G37*
G36*
X58740990Y37159439D02*
X60019439Y35880990D01*
X58670280Y34531831D01*
X57391831Y35810280D01*
X58740990Y37159439D01*
X58740990Y37159439D01*
G37*
G36*
X59837006Y36063424D02*
X61186166Y34714264D01*
X59837006Y33365104D01*
X58487846Y34714264D01*
X59837006Y36063424D01*
X59837006Y36063424D01*
G37*
G36*
X56725736Y32952154D02*
X58074896Y31602994D01*
X56725736Y30253834D01*
X55376576Y31602994D01*
X56725736Y32952154D01*
X56725736Y32952154D01*
G37*
D13*
X56725736Y35987056D03*
X55452944Y34714264D03*
D10*
G36*
X23086166Y49105736D02*
X21737006Y47756576D01*
X20387846Y49105736D01*
X21737006Y50454896D01*
X23086166Y49105736D01*
X23086166Y49105736D01*
G37*
G36*
X19974896Y52217006D02*
X18625736Y50867846D01*
X17276576Y52217006D01*
X18625736Y53566166D01*
X19974896Y52217006D01*
X19974896Y52217006D01*
G37*
G36*
X18808169Y51050280D02*
X17529720Y49771831D01*
X16180561Y51120990D01*
X17459010Y52399439D01*
X18808169Y51050280D01*
X18808169Y51050280D01*
G37*
G36*
X21919439Y47939010D02*
X20640990Y46660561D01*
X19291831Y48009720D01*
X20570280Y49288169D01*
X21919439Y47939010D01*
X21919439Y47939010D01*
G37*
G36*
X20823424Y46842994D02*
X19474264Y45493834D01*
X18125104Y46842994D01*
X19474264Y48192154D01*
X20823424Y46842994D01*
X20823424Y46842994D01*
G37*
G36*
X17712154Y49954264D02*
X16362994Y48605104D01*
X15013834Y49954264D01*
X16362994Y51303424D01*
X17712154Y49954264D01*
X17712154Y49954264D01*
G37*
D13*
X20747056Y49954264D03*
X19474264Y51227056D03*
D14*
X53340000Y7620000D03*
X53340000Y53340000D03*
X38100000Y22860000D03*
X22860000Y22860000D03*
X7620000Y53340000D03*
X7620000Y7620000D03*
X22860000Y38100000D03*
X38100000Y38100000D03*
D15*
X45720000Y33020000D03*
X45720000Y30480000D03*
X45720000Y27940000D03*
X33020000Y15240000D03*
X30480000Y15240000D03*
X27940000Y15240000D03*
X27940000Y45720000D03*
X30480000Y45720000D03*
X33020000Y45720000D03*
X15240000Y27940000D03*
X15240000Y30480000D03*
X15240000Y33020000D03*
M02*
