G04 #@! TF.FileFunction,Soldermask,Bot*
%FSLAX46Y46*%
G04 Gerber Fmt 4.6, Leading zero omitted, Abs format (unit mm)*
G04 Created by KiCad (PCBNEW 4.1.0-alpha+201609021633+7109~49~ubuntu16.04.1-product) date Sat Dec 31 16:59:14 2016*
%MOMM*%
%LPD*%
G01*
G04 APERTURE LIST*
%ADD10C,0.254000*%
%ADD11R,1.930400X1.574800*%
%ADD12C,6.108000*%
%ADD13R,3.008000X2.508000*%
%ADD14C,1.708000*%
%ADD15C,1.905000*%
G04 APERTURE END LIST*
D10*
D11*
X38100000Y16256000D03*
X38100000Y14224000D03*
X22860000Y16256000D03*
X22860000Y14224000D03*
D12*
X53340000Y7620000D03*
X53340000Y53340000D03*
X38100000Y22860000D03*
X22860000Y22860000D03*
X7620000Y53340000D03*
X7620000Y7620000D03*
X22860000Y38100000D03*
X38100000Y38100000D03*
D13*
X15240000Y13240000D03*
X15240000Y17240000D03*
X45720000Y13240000D03*
X45720000Y17240000D03*
D14*
X20747056Y49954264D03*
X19474264Y51227056D03*
X56725736Y35987056D03*
X55452944Y34714264D03*
X55452944Y41485736D03*
X56725736Y40212944D03*
X49954264Y40212944D03*
X51227056Y41485736D03*
X51227056Y34714264D03*
X49954264Y35987056D03*
X34714264Y40212944D03*
X35987056Y41485736D03*
X20747056Y19474264D03*
X19474264Y20747056D03*
X11005736Y35987056D03*
X9732944Y34714264D03*
X9732944Y41485736D03*
X11005736Y40212944D03*
X4234264Y40212944D03*
X5507056Y41485736D03*
X5507056Y34714264D03*
X4234264Y35987056D03*
X56725736Y20747056D03*
X55452944Y19474264D03*
X55452944Y26245736D03*
X56725736Y24972944D03*
X56725736Y51227056D03*
X55452944Y49954264D03*
X55452944Y56725736D03*
X56725736Y55452944D03*
X49954264Y55452944D03*
X51227056Y56725736D03*
X51227056Y49954264D03*
X49954264Y51227056D03*
X49954264Y24972944D03*
X51227056Y26245736D03*
X51227056Y19474264D03*
X49954264Y20747056D03*
X49954264Y9732944D03*
X51227056Y11005736D03*
X40212944Y11005736D03*
X41485736Y9732944D03*
X41485736Y20747056D03*
X40212944Y19474264D03*
X40212944Y26245736D03*
X41485736Y24972944D03*
X41485736Y35987056D03*
X40212944Y34714264D03*
X41485736Y51227056D03*
X40212944Y49954264D03*
X40212944Y56725736D03*
X41485736Y55452944D03*
X34714264Y55452944D03*
X35987056Y56725736D03*
X35987056Y49954264D03*
X34714264Y51227056D03*
X35987056Y34714264D03*
X34714264Y35987056D03*
X34714264Y24972944D03*
X35987056Y26245736D03*
X35987056Y19474264D03*
X34714264Y20747056D03*
X34714264Y9732944D03*
X35987056Y11005736D03*
X24972944Y11005736D03*
X26245736Y9732944D03*
X26245736Y20747056D03*
X24972944Y19474264D03*
X24972944Y26245736D03*
X26245736Y24972944D03*
X26245736Y35987056D03*
X24972944Y34714264D03*
X24972944Y41485736D03*
X26245736Y40212944D03*
X26245736Y51227056D03*
X24972944Y49954264D03*
X24972944Y56725736D03*
X26245736Y55452944D03*
X19474264Y55452944D03*
X20747056Y56725736D03*
X19474264Y40212944D03*
X20747056Y41485736D03*
X20747056Y34714264D03*
X19474264Y35987056D03*
X19474264Y24972944D03*
X20747056Y26245736D03*
X19474264Y9732944D03*
X20747056Y11005736D03*
X9732944Y11005736D03*
X11005736Y9732944D03*
X11005736Y20747056D03*
X9732944Y19474264D03*
X9732944Y26245736D03*
X11005736Y24972944D03*
X11005736Y51227056D03*
X9732944Y49954264D03*
X9732944Y56725736D03*
X11005736Y55452944D03*
X4234264Y55452944D03*
X5507056Y56725736D03*
X5507056Y49954264D03*
X4234264Y51227056D03*
X5507056Y19474264D03*
X4234264Y20747056D03*
X4234264Y9732944D03*
X5507056Y11005736D03*
X4234264Y24972944D03*
X5507056Y26245736D03*
X5507056Y4234264D03*
X4234264Y5507056D03*
X11005736Y5507056D03*
X9732944Y4234264D03*
X20747056Y4234264D03*
X19474264Y5507056D03*
X26245736Y5507056D03*
X24972944Y4234264D03*
X35987056Y4234264D03*
X34714264Y5507056D03*
X41485736Y5507056D03*
X40212944Y4234264D03*
X51227056Y4234264D03*
X49954264Y5507056D03*
X56725736Y5507056D03*
X55452944Y4234264D03*
X40212944Y41485736D03*
X41485736Y40212944D03*
X55452944Y11005736D03*
X56725736Y9732944D03*
D15*
X46990000Y29210000D03*
X44450000Y29210000D03*
X44450000Y31750000D03*
X46990000Y31750000D03*
X31750000Y16510000D03*
X31750000Y13970000D03*
X29210000Y13970000D03*
X29210000Y16510000D03*
X29210000Y44450000D03*
X29210000Y46990000D03*
X31750000Y46990000D03*
X31750000Y44450000D03*
X16510000Y29210000D03*
X13970000Y29210000D03*
X13970000Y31750000D03*
X16510000Y31750000D03*
M02*
