G04 #@! TF.FileFunction,Paste,Top*
%FSLAX46Y46*%
G04 Gerber Fmt 4.6, Leading zero omitted, Abs format (unit mm)*
G04 Created by KiCad (PCBNEW 4.0.5-e0-6337~49~ubuntu16.04.1) date Sat Dec 31 22:06:36 2016*
%MOMM*%
%LPD*%
G01*
G04 APERTURE LIST*
%ADD10C,0.254000*%
G04 APERTURE END LIST*
D10*
G36*
X22726955Y49105736D02*
X21737006Y48115787D01*
X20747057Y49105736D01*
X21737006Y50095685D01*
X22726955Y49105736D01*
X22726955Y49105736D01*
G37*
G36*
X19615685Y52217006D02*
X18625736Y51227057D01*
X17635787Y52217006D01*
X18625736Y53206955D01*
X19615685Y52217006D01*
X19615685Y52217006D01*
G37*
G36*
X18448959Y51050280D02*
X17529720Y50131041D01*
X16539771Y51120990D01*
X17459010Y52040229D01*
X18448959Y51050280D01*
X18448959Y51050280D01*
G37*
G36*
X21560229Y47939010D02*
X20640990Y47019771D01*
X19651041Y48009720D01*
X20570280Y48928959D01*
X21560229Y47939010D01*
X21560229Y47939010D01*
G37*
G36*
X20464213Y46842994D02*
X19474264Y45853045D01*
X18484315Y46842994D01*
X19474264Y47832943D01*
X20464213Y46842994D01*
X20464213Y46842994D01*
G37*
G36*
X17352943Y49954264D02*
X16362994Y48964315D01*
X15373045Y49954264D01*
X16362994Y50944213D01*
X17352943Y49954264D01*
X17352943Y49954264D01*
G37*
G36*
X57574264Y37966955D02*
X58564213Y36977006D01*
X57574264Y35987057D01*
X56584315Y36977006D01*
X57574264Y37966955D01*
X57574264Y37966955D01*
G37*
G36*
X54462994Y34855685D02*
X55452943Y33865736D01*
X54462994Y32875787D01*
X53473045Y33865736D01*
X54462994Y34855685D01*
X54462994Y34855685D01*
G37*
G36*
X55629720Y33688959D02*
X56548959Y32769720D01*
X55559010Y31779771D01*
X54639771Y32699010D01*
X55629720Y33688959D01*
X55629720Y33688959D01*
G37*
G36*
X58740990Y36800229D02*
X59660229Y35880990D01*
X58670280Y34891041D01*
X57751041Y35810280D01*
X58740990Y36800229D01*
X58740990Y36800229D01*
G37*
G36*
X59837006Y35704213D02*
X60826955Y34714264D01*
X59837006Y33724315D01*
X58847057Y34714264D01*
X59837006Y35704213D01*
X59837006Y35704213D01*
G37*
G36*
X56725736Y32592943D02*
X57715685Y31602994D01*
X56725736Y30613045D01*
X55735787Y31602994D01*
X56725736Y32592943D01*
X56725736Y32592943D01*
G37*
G36*
X53473045Y42334264D02*
X54462994Y43324213D01*
X55452943Y42334264D01*
X54462994Y41344315D01*
X53473045Y42334264D01*
X53473045Y42334264D01*
G37*
G36*
X56584315Y39222994D02*
X57574264Y40212943D01*
X58564213Y39222994D01*
X57574264Y38233045D01*
X56584315Y39222994D01*
X56584315Y39222994D01*
G37*
G36*
X57751041Y40389720D02*
X58670280Y41308959D01*
X59660229Y40319010D01*
X58740990Y39399771D01*
X57751041Y40389720D01*
X57751041Y40389720D01*
G37*
G36*
X54639771Y43500990D02*
X55559010Y44420229D01*
X56548959Y43430280D01*
X55629720Y42511041D01*
X54639771Y43500990D01*
X54639771Y43500990D01*
G37*
G36*
X55735787Y44597006D02*
X56725736Y45586955D01*
X57715685Y44597006D01*
X56725736Y43607057D01*
X55735787Y44597006D01*
X55735787Y44597006D01*
G37*
G36*
X58847057Y41485736D02*
X59837006Y42475685D01*
X60826955Y41485736D01*
X59837006Y40495787D01*
X58847057Y41485736D01*
X58847057Y41485736D01*
G37*
G36*
X49105736Y38233045D02*
X48115787Y39222994D01*
X49105736Y40212943D01*
X50095685Y39222994D01*
X49105736Y38233045D01*
X49105736Y38233045D01*
G37*
G36*
X52217006Y41344315D02*
X51227057Y42334264D01*
X52217006Y43324213D01*
X53206955Y42334264D01*
X52217006Y41344315D01*
X52217006Y41344315D01*
G37*
G36*
X51050280Y42511041D02*
X50131041Y43430280D01*
X51120990Y44420229D01*
X52040229Y43500990D01*
X51050280Y42511041D01*
X51050280Y42511041D01*
G37*
G36*
X47939010Y39399771D02*
X47019771Y40319010D01*
X48009720Y41308959D01*
X48928959Y40389720D01*
X47939010Y39399771D01*
X47939010Y39399771D01*
G37*
G36*
X46842994Y40495787D02*
X45853045Y41485736D01*
X46842994Y42475685D01*
X47832943Y41485736D01*
X46842994Y40495787D01*
X46842994Y40495787D01*
G37*
G36*
X49954264Y43607057D02*
X48964315Y44597006D01*
X49954264Y45586955D01*
X50944213Y44597006D01*
X49954264Y43607057D01*
X49954264Y43607057D01*
G37*
G36*
X53206955Y33865736D02*
X52217006Y32875787D01*
X51227057Y33865736D01*
X52217006Y34855685D01*
X53206955Y33865736D01*
X53206955Y33865736D01*
G37*
G36*
X50095685Y36977006D02*
X49105736Y35987057D01*
X48115787Y36977006D01*
X49105736Y37966955D01*
X50095685Y36977006D01*
X50095685Y36977006D01*
G37*
G36*
X48928959Y35810280D02*
X48009720Y34891041D01*
X47019771Y35880990D01*
X47939010Y36800229D01*
X48928959Y35810280D01*
X48928959Y35810280D01*
G37*
G36*
X52040229Y32699010D02*
X51120990Y31779771D01*
X50131041Y32769720D01*
X51050280Y33688959D01*
X52040229Y32699010D01*
X52040229Y32699010D01*
G37*
G36*
X50944213Y31602994D02*
X49954264Y30613045D01*
X48964315Y31602994D01*
X49954264Y32592943D01*
X50944213Y31602994D01*
X50944213Y31602994D01*
G37*
G36*
X47832943Y34714264D02*
X46842994Y33724315D01*
X45853045Y34714264D01*
X46842994Y35704213D01*
X47832943Y34714264D01*
X47832943Y34714264D01*
G37*
G36*
X33865736Y38233045D02*
X32875787Y39222994D01*
X33865736Y40212943D01*
X34855685Y39222994D01*
X33865736Y38233045D01*
X33865736Y38233045D01*
G37*
G36*
X36977006Y41344315D02*
X35987057Y42334264D01*
X36977006Y43324213D01*
X37966955Y42334264D01*
X36977006Y41344315D01*
X36977006Y41344315D01*
G37*
G36*
X35810280Y42511041D02*
X34891041Y43430280D01*
X35880990Y44420229D01*
X36800229Y43500990D01*
X35810280Y42511041D01*
X35810280Y42511041D01*
G37*
G36*
X32699010Y39399771D02*
X31779771Y40319010D01*
X32769720Y41308959D01*
X33688959Y40389720D01*
X32699010Y39399771D01*
X32699010Y39399771D01*
G37*
G36*
X31602994Y40495787D02*
X30613045Y41485736D01*
X31602994Y42475685D01*
X32592943Y41485736D01*
X31602994Y40495787D01*
X31602994Y40495787D01*
G37*
G36*
X34714264Y43607057D02*
X33724315Y44597006D01*
X34714264Y45586955D01*
X35704213Y44597006D01*
X34714264Y43607057D01*
X34714264Y43607057D01*
G37*
G36*
X22726955Y18625736D02*
X21737006Y17635787D01*
X20747057Y18625736D01*
X21737006Y19615685D01*
X22726955Y18625736D01*
X22726955Y18625736D01*
G37*
G36*
X19615685Y21737006D02*
X18625736Y20747057D01*
X17635787Y21737006D01*
X18625736Y22726955D01*
X19615685Y21737006D01*
X19615685Y21737006D01*
G37*
G36*
X18448959Y20570280D02*
X17529720Y19651041D01*
X16539771Y20640990D01*
X17459010Y21560229D01*
X18448959Y20570280D01*
X18448959Y20570280D01*
G37*
G36*
X21560229Y17459010D02*
X20640990Y16539771D01*
X19651041Y17529720D01*
X20570280Y18448959D01*
X21560229Y17459010D01*
X21560229Y17459010D01*
G37*
G36*
X20464213Y16362994D02*
X19474264Y15373045D01*
X18484315Y16362994D01*
X19474264Y17352943D01*
X20464213Y16362994D01*
X20464213Y16362994D01*
G37*
G36*
X17352943Y19474264D02*
X16362994Y18484315D01*
X15373045Y19474264D01*
X16362994Y20464213D01*
X17352943Y19474264D01*
X17352943Y19474264D01*
G37*
G36*
X11854264Y37966955D02*
X12844213Y36977006D01*
X11854264Y35987057D01*
X10864315Y36977006D01*
X11854264Y37966955D01*
X11854264Y37966955D01*
G37*
G36*
X8742994Y34855685D02*
X9732943Y33865736D01*
X8742994Y32875787D01*
X7753045Y33865736D01*
X8742994Y34855685D01*
X8742994Y34855685D01*
G37*
G36*
X9909720Y33688959D02*
X10828959Y32769720D01*
X9839010Y31779771D01*
X8919771Y32699010D01*
X9909720Y33688959D01*
X9909720Y33688959D01*
G37*
G36*
X13020990Y36800229D02*
X13940229Y35880990D01*
X12950280Y34891041D01*
X12031041Y35810280D01*
X13020990Y36800229D01*
X13020990Y36800229D01*
G37*
G36*
X14117006Y35704213D02*
X15106955Y34714264D01*
X14117006Y33724315D01*
X13127057Y34714264D01*
X14117006Y35704213D01*
X14117006Y35704213D01*
G37*
G36*
X11005736Y32592943D02*
X11995685Y31602994D01*
X11005736Y30613045D01*
X10015787Y31602994D01*
X11005736Y32592943D01*
X11005736Y32592943D01*
G37*
G36*
X7753045Y42334264D02*
X8742994Y43324213D01*
X9732943Y42334264D01*
X8742994Y41344315D01*
X7753045Y42334264D01*
X7753045Y42334264D01*
G37*
G36*
X10864315Y39222994D02*
X11854264Y40212943D01*
X12844213Y39222994D01*
X11854264Y38233045D01*
X10864315Y39222994D01*
X10864315Y39222994D01*
G37*
G36*
X12031041Y40389720D02*
X12950280Y41308959D01*
X13940229Y40319010D01*
X13020990Y39399771D01*
X12031041Y40389720D01*
X12031041Y40389720D01*
G37*
G36*
X8919771Y43500990D02*
X9839010Y44420229D01*
X10828959Y43430280D01*
X9909720Y42511041D01*
X8919771Y43500990D01*
X8919771Y43500990D01*
G37*
G36*
X10015787Y44597006D02*
X11005736Y45586955D01*
X11995685Y44597006D01*
X11005736Y43607057D01*
X10015787Y44597006D01*
X10015787Y44597006D01*
G37*
G36*
X13127057Y41485736D02*
X14117006Y42475685D01*
X15106955Y41485736D01*
X14117006Y40495787D01*
X13127057Y41485736D01*
X13127057Y41485736D01*
G37*
G36*
X3385736Y38233045D02*
X2395787Y39222994D01*
X3385736Y40212943D01*
X4375685Y39222994D01*
X3385736Y38233045D01*
X3385736Y38233045D01*
G37*
G36*
X6497006Y41344315D02*
X5507057Y42334264D01*
X6497006Y43324213D01*
X7486955Y42334264D01*
X6497006Y41344315D01*
X6497006Y41344315D01*
G37*
G36*
X5330280Y42511041D02*
X4411041Y43430280D01*
X5400990Y44420229D01*
X6320229Y43500990D01*
X5330280Y42511041D01*
X5330280Y42511041D01*
G37*
G36*
X2219010Y39399771D02*
X1299771Y40319010D01*
X2289720Y41308959D01*
X3208959Y40389720D01*
X2219010Y39399771D01*
X2219010Y39399771D01*
G37*
G36*
X1122994Y40495787D02*
X133045Y41485736D01*
X1122994Y42475685D01*
X2112943Y41485736D01*
X1122994Y40495787D01*
X1122994Y40495787D01*
G37*
G36*
X4234264Y43607057D02*
X3244315Y44597006D01*
X4234264Y45586955D01*
X5224213Y44597006D01*
X4234264Y43607057D01*
X4234264Y43607057D01*
G37*
G36*
X7486955Y33865736D02*
X6497006Y32875787D01*
X5507057Y33865736D01*
X6497006Y34855685D01*
X7486955Y33865736D01*
X7486955Y33865736D01*
G37*
G36*
X4375685Y36977006D02*
X3385736Y35987057D01*
X2395787Y36977006D01*
X3385736Y37966955D01*
X4375685Y36977006D01*
X4375685Y36977006D01*
G37*
G36*
X3208959Y35810280D02*
X2289720Y34891041D01*
X1299771Y35880990D01*
X2219010Y36800229D01*
X3208959Y35810280D01*
X3208959Y35810280D01*
G37*
G36*
X6320229Y32699010D02*
X5400990Y31779771D01*
X4411041Y32769720D01*
X5330280Y33688959D01*
X6320229Y32699010D01*
X6320229Y32699010D01*
G37*
G36*
X5224213Y31602994D02*
X4234264Y30613045D01*
X3244315Y31602994D01*
X4234264Y32592943D01*
X5224213Y31602994D01*
X5224213Y31602994D01*
G37*
G36*
X2112943Y34714264D02*
X1122994Y33724315D01*
X133045Y34714264D01*
X1122994Y35704213D01*
X2112943Y34714264D01*
X2112943Y34714264D01*
G37*
G36*
X57574264Y22726955D02*
X58564213Y21737006D01*
X57574264Y20747057D01*
X56584315Y21737006D01*
X57574264Y22726955D01*
X57574264Y22726955D01*
G37*
G36*
X54462994Y19615685D02*
X55452943Y18625736D01*
X54462994Y17635787D01*
X53473045Y18625736D01*
X54462994Y19615685D01*
X54462994Y19615685D01*
G37*
G36*
X55629720Y18448959D02*
X56548959Y17529720D01*
X55559010Y16539771D01*
X54639771Y17459010D01*
X55629720Y18448959D01*
X55629720Y18448959D01*
G37*
G36*
X58740990Y21560229D02*
X59660229Y20640990D01*
X58670280Y19651041D01*
X57751041Y20570280D01*
X58740990Y21560229D01*
X58740990Y21560229D01*
G37*
G36*
X59837006Y20464213D02*
X60826955Y19474264D01*
X59837006Y18484315D01*
X58847057Y19474264D01*
X59837006Y20464213D01*
X59837006Y20464213D01*
G37*
G36*
X56725736Y17352943D02*
X57715685Y16362994D01*
X56725736Y15373045D01*
X55735787Y16362994D01*
X56725736Y17352943D01*
X56725736Y17352943D01*
G37*
G36*
X53473045Y27094264D02*
X54462994Y28084213D01*
X55452943Y27094264D01*
X54462994Y26104315D01*
X53473045Y27094264D01*
X53473045Y27094264D01*
G37*
G36*
X56584315Y23982994D02*
X57574264Y24972943D01*
X58564213Y23982994D01*
X57574264Y22993045D01*
X56584315Y23982994D01*
X56584315Y23982994D01*
G37*
G36*
X57751041Y25149720D02*
X58670280Y26068959D01*
X59660229Y25079010D01*
X58740990Y24159771D01*
X57751041Y25149720D01*
X57751041Y25149720D01*
G37*
G36*
X54639771Y28260990D02*
X55559010Y29180229D01*
X56548959Y28190280D01*
X55629720Y27271041D01*
X54639771Y28260990D01*
X54639771Y28260990D01*
G37*
G36*
X55735787Y29357006D02*
X56725736Y30346955D01*
X57715685Y29357006D01*
X56725736Y28367057D01*
X55735787Y29357006D01*
X55735787Y29357006D01*
G37*
G36*
X58847057Y26245736D02*
X59837006Y27235685D01*
X60826955Y26245736D01*
X59837006Y25255787D01*
X58847057Y26245736D01*
X58847057Y26245736D01*
G37*
G36*
X57574264Y53206955D02*
X58564213Y52217006D01*
X57574264Y51227057D01*
X56584315Y52217006D01*
X57574264Y53206955D01*
X57574264Y53206955D01*
G37*
G36*
X54462994Y50095685D02*
X55452943Y49105736D01*
X54462994Y48115787D01*
X53473045Y49105736D01*
X54462994Y50095685D01*
X54462994Y50095685D01*
G37*
G36*
X55629720Y48928959D02*
X56548959Y48009720D01*
X55559010Y47019771D01*
X54639771Y47939010D01*
X55629720Y48928959D01*
X55629720Y48928959D01*
G37*
G36*
X58740990Y52040229D02*
X59660229Y51120990D01*
X58670280Y50131041D01*
X57751041Y51050280D01*
X58740990Y52040229D01*
X58740990Y52040229D01*
G37*
G36*
X59837006Y50944213D02*
X60826955Y49954264D01*
X59837006Y48964315D01*
X58847057Y49954264D01*
X59837006Y50944213D01*
X59837006Y50944213D01*
G37*
G36*
X56725736Y47832943D02*
X57715685Y46842994D01*
X56725736Y45853045D01*
X55735787Y46842994D01*
X56725736Y47832943D01*
X56725736Y47832943D01*
G37*
G36*
X53473045Y57574264D02*
X54462994Y58564213D01*
X55452943Y57574264D01*
X54462994Y56584315D01*
X53473045Y57574264D01*
X53473045Y57574264D01*
G37*
G36*
X56584315Y54462994D02*
X57574264Y55452943D01*
X58564213Y54462994D01*
X57574264Y53473045D01*
X56584315Y54462994D01*
X56584315Y54462994D01*
G37*
G36*
X57751041Y55629720D02*
X58670280Y56548959D01*
X59660229Y55559010D01*
X58740990Y54639771D01*
X57751041Y55629720D01*
X57751041Y55629720D01*
G37*
G36*
X54639771Y58740990D02*
X55559010Y59660229D01*
X56548959Y58670280D01*
X55629720Y57751041D01*
X54639771Y58740990D01*
X54639771Y58740990D01*
G37*
G36*
X55735787Y59837006D02*
X56725736Y60826955D01*
X57715685Y59837006D01*
X56725736Y58847057D01*
X55735787Y59837006D01*
X55735787Y59837006D01*
G37*
G36*
X58847057Y56725736D02*
X59837006Y57715685D01*
X60826955Y56725736D01*
X59837006Y55735787D01*
X58847057Y56725736D01*
X58847057Y56725736D01*
G37*
G36*
X49105736Y53473045D02*
X48115787Y54462994D01*
X49105736Y55452943D01*
X50095685Y54462994D01*
X49105736Y53473045D01*
X49105736Y53473045D01*
G37*
G36*
X52217006Y56584315D02*
X51227057Y57574264D01*
X52217006Y58564213D01*
X53206955Y57574264D01*
X52217006Y56584315D01*
X52217006Y56584315D01*
G37*
G36*
X51050280Y57751041D02*
X50131041Y58670280D01*
X51120990Y59660229D01*
X52040229Y58740990D01*
X51050280Y57751041D01*
X51050280Y57751041D01*
G37*
G36*
X47939010Y54639771D02*
X47019771Y55559010D01*
X48009720Y56548959D01*
X48928959Y55629720D01*
X47939010Y54639771D01*
X47939010Y54639771D01*
G37*
G36*
X46842994Y55735787D02*
X45853045Y56725736D01*
X46842994Y57715685D01*
X47832943Y56725736D01*
X46842994Y55735787D01*
X46842994Y55735787D01*
G37*
G36*
X49954264Y58847057D02*
X48964315Y59837006D01*
X49954264Y60826955D01*
X50944213Y59837006D01*
X49954264Y58847057D01*
X49954264Y58847057D01*
G37*
G36*
X53206955Y49105736D02*
X52217006Y48115787D01*
X51227057Y49105736D01*
X52217006Y50095685D01*
X53206955Y49105736D01*
X53206955Y49105736D01*
G37*
G36*
X50095685Y52217006D02*
X49105736Y51227057D01*
X48115787Y52217006D01*
X49105736Y53206955D01*
X50095685Y52217006D01*
X50095685Y52217006D01*
G37*
G36*
X48928959Y51050280D02*
X48009720Y50131041D01*
X47019771Y51120990D01*
X47939010Y52040229D01*
X48928959Y51050280D01*
X48928959Y51050280D01*
G37*
G36*
X52040229Y47939010D02*
X51120990Y47019771D01*
X50131041Y48009720D01*
X51050280Y48928959D01*
X52040229Y47939010D01*
X52040229Y47939010D01*
G37*
G36*
X50944213Y46842994D02*
X49954264Y45853045D01*
X48964315Y46842994D01*
X49954264Y47832943D01*
X50944213Y46842994D01*
X50944213Y46842994D01*
G37*
G36*
X47832943Y49954264D02*
X46842994Y48964315D01*
X45853045Y49954264D01*
X46842994Y50944213D01*
X47832943Y49954264D01*
X47832943Y49954264D01*
G37*
G36*
X49105736Y22993045D02*
X48115787Y23982994D01*
X49105736Y24972943D01*
X50095685Y23982994D01*
X49105736Y22993045D01*
X49105736Y22993045D01*
G37*
G36*
X52217006Y26104315D02*
X51227057Y27094264D01*
X52217006Y28084213D01*
X53206955Y27094264D01*
X52217006Y26104315D01*
X52217006Y26104315D01*
G37*
G36*
X51050280Y27271041D02*
X50131041Y28190280D01*
X51120990Y29180229D01*
X52040229Y28260990D01*
X51050280Y27271041D01*
X51050280Y27271041D01*
G37*
G36*
X47939010Y24159771D02*
X47019771Y25079010D01*
X48009720Y26068959D01*
X48928959Y25149720D01*
X47939010Y24159771D01*
X47939010Y24159771D01*
G37*
G36*
X46842994Y25255787D02*
X45853045Y26245736D01*
X46842994Y27235685D01*
X47832943Y26245736D01*
X46842994Y25255787D01*
X46842994Y25255787D01*
G37*
G36*
X49954264Y28367057D02*
X48964315Y29357006D01*
X49954264Y30346955D01*
X50944213Y29357006D01*
X49954264Y28367057D01*
X49954264Y28367057D01*
G37*
G36*
X53206955Y18625736D02*
X52217006Y17635787D01*
X51227057Y18625736D01*
X52217006Y19615685D01*
X53206955Y18625736D01*
X53206955Y18625736D01*
G37*
G36*
X50095685Y21737006D02*
X49105736Y20747057D01*
X48115787Y21737006D01*
X49105736Y22726955D01*
X50095685Y21737006D01*
X50095685Y21737006D01*
G37*
G36*
X48928959Y20570280D02*
X48009720Y19651041D01*
X47019771Y20640990D01*
X47939010Y21560229D01*
X48928959Y20570280D01*
X48928959Y20570280D01*
G37*
G36*
X52040229Y17459010D02*
X51120990Y16539771D01*
X50131041Y17529720D01*
X51050280Y18448959D01*
X52040229Y17459010D01*
X52040229Y17459010D01*
G37*
G36*
X50944213Y16362994D02*
X49954264Y15373045D01*
X48964315Y16362994D01*
X49954264Y17352943D01*
X50944213Y16362994D01*
X50944213Y16362994D01*
G37*
G36*
X47832943Y19474264D02*
X46842994Y18484315D01*
X45853045Y19474264D01*
X46842994Y20464213D01*
X47832943Y19474264D01*
X47832943Y19474264D01*
G37*
G36*
X49105736Y7753045D02*
X48115787Y8742994D01*
X49105736Y9732943D01*
X50095685Y8742994D01*
X49105736Y7753045D01*
X49105736Y7753045D01*
G37*
G36*
X52217006Y10864315D02*
X51227057Y11854264D01*
X52217006Y12844213D01*
X53206955Y11854264D01*
X52217006Y10864315D01*
X52217006Y10864315D01*
G37*
G36*
X51050280Y12031041D02*
X50131041Y12950280D01*
X51120990Y13940229D01*
X52040229Y13020990D01*
X51050280Y12031041D01*
X51050280Y12031041D01*
G37*
G36*
X47939010Y8919771D02*
X47019771Y9839010D01*
X48009720Y10828959D01*
X48928959Y9909720D01*
X47939010Y8919771D01*
X47939010Y8919771D01*
G37*
G36*
X46842994Y10015787D02*
X45853045Y11005736D01*
X46842994Y11995685D01*
X47832943Y11005736D01*
X46842994Y10015787D01*
X46842994Y10015787D01*
G37*
G36*
X49954264Y13127057D02*
X48964315Y14117006D01*
X49954264Y15106955D01*
X50944213Y14117006D01*
X49954264Y13127057D01*
X49954264Y13127057D01*
G37*
G36*
X38233045Y11854264D02*
X39222994Y12844213D01*
X40212943Y11854264D01*
X39222994Y10864315D01*
X38233045Y11854264D01*
X38233045Y11854264D01*
G37*
G36*
X41344315Y8742994D02*
X42334264Y9732943D01*
X43324213Y8742994D01*
X42334264Y7753045D01*
X41344315Y8742994D01*
X41344315Y8742994D01*
G37*
G36*
X42511041Y9909720D02*
X43430280Y10828959D01*
X44420229Y9839010D01*
X43500990Y8919771D01*
X42511041Y9909720D01*
X42511041Y9909720D01*
G37*
G36*
X39399771Y13020990D02*
X40319010Y13940229D01*
X41308959Y12950280D01*
X40389720Y12031041D01*
X39399771Y13020990D01*
X39399771Y13020990D01*
G37*
G36*
X40495787Y14117006D02*
X41485736Y15106955D01*
X42475685Y14117006D01*
X41485736Y13127057D01*
X40495787Y14117006D01*
X40495787Y14117006D01*
G37*
G36*
X43607057Y11005736D02*
X44597006Y11995685D01*
X45586955Y11005736D01*
X44597006Y10015787D01*
X43607057Y11005736D01*
X43607057Y11005736D01*
G37*
G36*
X42334264Y22726955D02*
X43324213Y21737006D01*
X42334264Y20747057D01*
X41344315Y21737006D01*
X42334264Y22726955D01*
X42334264Y22726955D01*
G37*
G36*
X39222994Y19615685D02*
X40212943Y18625736D01*
X39222994Y17635787D01*
X38233045Y18625736D01*
X39222994Y19615685D01*
X39222994Y19615685D01*
G37*
G36*
X40389720Y18448959D02*
X41308959Y17529720D01*
X40319010Y16539771D01*
X39399771Y17459010D01*
X40389720Y18448959D01*
X40389720Y18448959D01*
G37*
G36*
X43500990Y21560229D02*
X44420229Y20640990D01*
X43430280Y19651041D01*
X42511041Y20570280D01*
X43500990Y21560229D01*
X43500990Y21560229D01*
G37*
G36*
X44597006Y20464213D02*
X45586955Y19474264D01*
X44597006Y18484315D01*
X43607057Y19474264D01*
X44597006Y20464213D01*
X44597006Y20464213D01*
G37*
G36*
X41485736Y17352943D02*
X42475685Y16362994D01*
X41485736Y15373045D01*
X40495787Y16362994D01*
X41485736Y17352943D01*
X41485736Y17352943D01*
G37*
G36*
X38233045Y27094264D02*
X39222994Y28084213D01*
X40212943Y27094264D01*
X39222994Y26104315D01*
X38233045Y27094264D01*
X38233045Y27094264D01*
G37*
G36*
X41344315Y23982994D02*
X42334264Y24972943D01*
X43324213Y23982994D01*
X42334264Y22993045D01*
X41344315Y23982994D01*
X41344315Y23982994D01*
G37*
G36*
X42511041Y25149720D02*
X43430280Y26068959D01*
X44420229Y25079010D01*
X43500990Y24159771D01*
X42511041Y25149720D01*
X42511041Y25149720D01*
G37*
G36*
X39399771Y28260990D02*
X40319010Y29180229D01*
X41308959Y28190280D01*
X40389720Y27271041D01*
X39399771Y28260990D01*
X39399771Y28260990D01*
G37*
G36*
X40495787Y29357006D02*
X41485736Y30346955D01*
X42475685Y29357006D01*
X41485736Y28367057D01*
X40495787Y29357006D01*
X40495787Y29357006D01*
G37*
G36*
X43607057Y26245736D02*
X44597006Y27235685D01*
X45586955Y26245736D01*
X44597006Y25255787D01*
X43607057Y26245736D01*
X43607057Y26245736D01*
G37*
G36*
X42334264Y37966955D02*
X43324213Y36977006D01*
X42334264Y35987057D01*
X41344315Y36977006D01*
X42334264Y37966955D01*
X42334264Y37966955D01*
G37*
G36*
X39222994Y34855685D02*
X40212943Y33865736D01*
X39222994Y32875787D01*
X38233045Y33865736D01*
X39222994Y34855685D01*
X39222994Y34855685D01*
G37*
G36*
X40389720Y33688959D02*
X41308959Y32769720D01*
X40319010Y31779771D01*
X39399771Y32699010D01*
X40389720Y33688959D01*
X40389720Y33688959D01*
G37*
G36*
X43500990Y36800229D02*
X44420229Y35880990D01*
X43430280Y34891041D01*
X42511041Y35810280D01*
X43500990Y36800229D01*
X43500990Y36800229D01*
G37*
G36*
X44597006Y35704213D02*
X45586955Y34714264D01*
X44597006Y33724315D01*
X43607057Y34714264D01*
X44597006Y35704213D01*
X44597006Y35704213D01*
G37*
G36*
X41485736Y32592943D02*
X42475685Y31602994D01*
X41485736Y30613045D01*
X40495787Y31602994D01*
X41485736Y32592943D01*
X41485736Y32592943D01*
G37*
G36*
X42334264Y53206955D02*
X43324213Y52217006D01*
X42334264Y51227057D01*
X41344315Y52217006D01*
X42334264Y53206955D01*
X42334264Y53206955D01*
G37*
G36*
X39222994Y50095685D02*
X40212943Y49105736D01*
X39222994Y48115787D01*
X38233045Y49105736D01*
X39222994Y50095685D01*
X39222994Y50095685D01*
G37*
G36*
X40389720Y48928959D02*
X41308959Y48009720D01*
X40319010Y47019771D01*
X39399771Y47939010D01*
X40389720Y48928959D01*
X40389720Y48928959D01*
G37*
G36*
X43500990Y52040229D02*
X44420229Y51120990D01*
X43430280Y50131041D01*
X42511041Y51050280D01*
X43500990Y52040229D01*
X43500990Y52040229D01*
G37*
G36*
X44597006Y50944213D02*
X45586955Y49954264D01*
X44597006Y48964315D01*
X43607057Y49954264D01*
X44597006Y50944213D01*
X44597006Y50944213D01*
G37*
G36*
X41485736Y47832943D02*
X42475685Y46842994D01*
X41485736Y45853045D01*
X40495787Y46842994D01*
X41485736Y47832943D01*
X41485736Y47832943D01*
G37*
G36*
X38233045Y57574264D02*
X39222994Y58564213D01*
X40212943Y57574264D01*
X39222994Y56584315D01*
X38233045Y57574264D01*
X38233045Y57574264D01*
G37*
G36*
X41344315Y54462994D02*
X42334264Y55452943D01*
X43324213Y54462994D01*
X42334264Y53473045D01*
X41344315Y54462994D01*
X41344315Y54462994D01*
G37*
G36*
X42511041Y55629720D02*
X43430280Y56548959D01*
X44420229Y55559010D01*
X43500990Y54639771D01*
X42511041Y55629720D01*
X42511041Y55629720D01*
G37*
G36*
X39399771Y58740990D02*
X40319010Y59660229D01*
X41308959Y58670280D01*
X40389720Y57751041D01*
X39399771Y58740990D01*
X39399771Y58740990D01*
G37*
G36*
X40495787Y59837006D02*
X41485736Y60826955D01*
X42475685Y59837006D01*
X41485736Y58847057D01*
X40495787Y59837006D01*
X40495787Y59837006D01*
G37*
G36*
X43607057Y56725736D02*
X44597006Y57715685D01*
X45586955Y56725736D01*
X44597006Y55735787D01*
X43607057Y56725736D01*
X43607057Y56725736D01*
G37*
G36*
X33865736Y53473045D02*
X32875787Y54462994D01*
X33865736Y55452943D01*
X34855685Y54462994D01*
X33865736Y53473045D01*
X33865736Y53473045D01*
G37*
G36*
X36977006Y56584315D02*
X35987057Y57574264D01*
X36977006Y58564213D01*
X37966955Y57574264D01*
X36977006Y56584315D01*
X36977006Y56584315D01*
G37*
G36*
X35810280Y57751041D02*
X34891041Y58670280D01*
X35880990Y59660229D01*
X36800229Y58740990D01*
X35810280Y57751041D01*
X35810280Y57751041D01*
G37*
G36*
X32699010Y54639771D02*
X31779771Y55559010D01*
X32769720Y56548959D01*
X33688959Y55629720D01*
X32699010Y54639771D01*
X32699010Y54639771D01*
G37*
G36*
X31602994Y55735787D02*
X30613045Y56725736D01*
X31602994Y57715685D01*
X32592943Y56725736D01*
X31602994Y55735787D01*
X31602994Y55735787D01*
G37*
G36*
X34714264Y58847057D02*
X33724315Y59837006D01*
X34714264Y60826955D01*
X35704213Y59837006D01*
X34714264Y58847057D01*
X34714264Y58847057D01*
G37*
G36*
X37966955Y49105736D02*
X36977006Y48115787D01*
X35987057Y49105736D01*
X36977006Y50095685D01*
X37966955Y49105736D01*
X37966955Y49105736D01*
G37*
G36*
X34855685Y52217006D02*
X33865736Y51227057D01*
X32875787Y52217006D01*
X33865736Y53206955D01*
X34855685Y52217006D01*
X34855685Y52217006D01*
G37*
G36*
X33688959Y51050280D02*
X32769720Y50131041D01*
X31779771Y51120990D01*
X32699010Y52040229D01*
X33688959Y51050280D01*
X33688959Y51050280D01*
G37*
G36*
X36800229Y47939010D02*
X35880990Y47019771D01*
X34891041Y48009720D01*
X35810280Y48928959D01*
X36800229Y47939010D01*
X36800229Y47939010D01*
G37*
G36*
X35704213Y46842994D02*
X34714264Y45853045D01*
X33724315Y46842994D01*
X34714264Y47832943D01*
X35704213Y46842994D01*
X35704213Y46842994D01*
G37*
G36*
X32592943Y49954264D02*
X31602994Y48964315D01*
X30613045Y49954264D01*
X31602994Y50944213D01*
X32592943Y49954264D01*
X32592943Y49954264D01*
G37*
G36*
X37966955Y33865736D02*
X36977006Y32875787D01*
X35987057Y33865736D01*
X36977006Y34855685D01*
X37966955Y33865736D01*
X37966955Y33865736D01*
G37*
G36*
X34855685Y36977006D02*
X33865736Y35987057D01*
X32875787Y36977006D01*
X33865736Y37966955D01*
X34855685Y36977006D01*
X34855685Y36977006D01*
G37*
G36*
X33688959Y35810280D02*
X32769720Y34891041D01*
X31779771Y35880990D01*
X32699010Y36800229D01*
X33688959Y35810280D01*
X33688959Y35810280D01*
G37*
G36*
X36800229Y32699010D02*
X35880990Y31779771D01*
X34891041Y32769720D01*
X35810280Y33688959D01*
X36800229Y32699010D01*
X36800229Y32699010D01*
G37*
G36*
X35704213Y31602994D02*
X34714264Y30613045D01*
X33724315Y31602994D01*
X34714264Y32592943D01*
X35704213Y31602994D01*
X35704213Y31602994D01*
G37*
G36*
X32592943Y34714264D02*
X31602994Y33724315D01*
X30613045Y34714264D01*
X31602994Y35704213D01*
X32592943Y34714264D01*
X32592943Y34714264D01*
G37*
G36*
X33865736Y22993045D02*
X32875787Y23982994D01*
X33865736Y24972943D01*
X34855685Y23982994D01*
X33865736Y22993045D01*
X33865736Y22993045D01*
G37*
G36*
X36977006Y26104315D02*
X35987057Y27094264D01*
X36977006Y28084213D01*
X37966955Y27094264D01*
X36977006Y26104315D01*
X36977006Y26104315D01*
G37*
G36*
X35810280Y27271041D02*
X34891041Y28190280D01*
X35880990Y29180229D01*
X36800229Y28260990D01*
X35810280Y27271041D01*
X35810280Y27271041D01*
G37*
G36*
X32699010Y24159771D02*
X31779771Y25079010D01*
X32769720Y26068959D01*
X33688959Y25149720D01*
X32699010Y24159771D01*
X32699010Y24159771D01*
G37*
G36*
X31602994Y25255787D02*
X30613045Y26245736D01*
X31602994Y27235685D01*
X32592943Y26245736D01*
X31602994Y25255787D01*
X31602994Y25255787D01*
G37*
G36*
X34714264Y28367057D02*
X33724315Y29357006D01*
X34714264Y30346955D01*
X35704213Y29357006D01*
X34714264Y28367057D01*
X34714264Y28367057D01*
G37*
G36*
X37966955Y18625736D02*
X36977006Y17635787D01*
X35987057Y18625736D01*
X36977006Y19615685D01*
X37966955Y18625736D01*
X37966955Y18625736D01*
G37*
G36*
X34855685Y21737006D02*
X33865736Y20747057D01*
X32875787Y21737006D01*
X33865736Y22726955D01*
X34855685Y21737006D01*
X34855685Y21737006D01*
G37*
G36*
X33688959Y20570280D02*
X32769720Y19651041D01*
X31779771Y20640990D01*
X32699010Y21560229D01*
X33688959Y20570280D01*
X33688959Y20570280D01*
G37*
G36*
X36800229Y17459010D02*
X35880990Y16539771D01*
X34891041Y17529720D01*
X35810280Y18448959D01*
X36800229Y17459010D01*
X36800229Y17459010D01*
G37*
G36*
X35704213Y16362994D02*
X34714264Y15373045D01*
X33724315Y16362994D01*
X34714264Y17352943D01*
X35704213Y16362994D01*
X35704213Y16362994D01*
G37*
G36*
X32592943Y19474264D02*
X31602994Y18484315D01*
X30613045Y19474264D01*
X31602994Y20464213D01*
X32592943Y19474264D01*
X32592943Y19474264D01*
G37*
G36*
X33865736Y7753045D02*
X32875787Y8742994D01*
X33865736Y9732943D01*
X34855685Y8742994D01*
X33865736Y7753045D01*
X33865736Y7753045D01*
G37*
G36*
X36977006Y10864315D02*
X35987057Y11854264D01*
X36977006Y12844213D01*
X37966955Y11854264D01*
X36977006Y10864315D01*
X36977006Y10864315D01*
G37*
G36*
X35810280Y12031041D02*
X34891041Y12950280D01*
X35880990Y13940229D01*
X36800229Y13020990D01*
X35810280Y12031041D01*
X35810280Y12031041D01*
G37*
G36*
X32699010Y8919771D02*
X31779771Y9839010D01*
X32769720Y10828959D01*
X33688959Y9909720D01*
X32699010Y8919771D01*
X32699010Y8919771D01*
G37*
G36*
X31602994Y10015787D02*
X30613045Y11005736D01*
X31602994Y11995685D01*
X32592943Y11005736D01*
X31602994Y10015787D01*
X31602994Y10015787D01*
G37*
G36*
X34714264Y13127057D02*
X33724315Y14117006D01*
X34714264Y15106955D01*
X35704213Y14117006D01*
X34714264Y13127057D01*
X34714264Y13127057D01*
G37*
G36*
X22993045Y11854264D02*
X23982994Y12844213D01*
X24972943Y11854264D01*
X23982994Y10864315D01*
X22993045Y11854264D01*
X22993045Y11854264D01*
G37*
G36*
X26104315Y8742994D02*
X27094264Y9732943D01*
X28084213Y8742994D01*
X27094264Y7753045D01*
X26104315Y8742994D01*
X26104315Y8742994D01*
G37*
G36*
X27271041Y9909720D02*
X28190280Y10828959D01*
X29180229Y9839010D01*
X28260990Y8919771D01*
X27271041Y9909720D01*
X27271041Y9909720D01*
G37*
G36*
X24159771Y13020990D02*
X25079010Y13940229D01*
X26068959Y12950280D01*
X25149720Y12031041D01*
X24159771Y13020990D01*
X24159771Y13020990D01*
G37*
G36*
X25255787Y14117006D02*
X26245736Y15106955D01*
X27235685Y14117006D01*
X26245736Y13127057D01*
X25255787Y14117006D01*
X25255787Y14117006D01*
G37*
G36*
X28367057Y11005736D02*
X29357006Y11995685D01*
X30346955Y11005736D01*
X29357006Y10015787D01*
X28367057Y11005736D01*
X28367057Y11005736D01*
G37*
G36*
X27094264Y22726955D02*
X28084213Y21737006D01*
X27094264Y20747057D01*
X26104315Y21737006D01*
X27094264Y22726955D01*
X27094264Y22726955D01*
G37*
G36*
X23982994Y19615685D02*
X24972943Y18625736D01*
X23982994Y17635787D01*
X22993045Y18625736D01*
X23982994Y19615685D01*
X23982994Y19615685D01*
G37*
G36*
X25149720Y18448959D02*
X26068959Y17529720D01*
X25079010Y16539771D01*
X24159771Y17459010D01*
X25149720Y18448959D01*
X25149720Y18448959D01*
G37*
G36*
X28260990Y21560229D02*
X29180229Y20640990D01*
X28190280Y19651041D01*
X27271041Y20570280D01*
X28260990Y21560229D01*
X28260990Y21560229D01*
G37*
G36*
X29357006Y20464213D02*
X30346955Y19474264D01*
X29357006Y18484315D01*
X28367057Y19474264D01*
X29357006Y20464213D01*
X29357006Y20464213D01*
G37*
G36*
X26245736Y17352943D02*
X27235685Y16362994D01*
X26245736Y15373045D01*
X25255787Y16362994D01*
X26245736Y17352943D01*
X26245736Y17352943D01*
G37*
G36*
X22993045Y27094264D02*
X23982994Y28084213D01*
X24972943Y27094264D01*
X23982994Y26104315D01*
X22993045Y27094264D01*
X22993045Y27094264D01*
G37*
G36*
X26104315Y23982994D02*
X27094264Y24972943D01*
X28084213Y23982994D01*
X27094264Y22993045D01*
X26104315Y23982994D01*
X26104315Y23982994D01*
G37*
G36*
X27271041Y25149720D02*
X28190280Y26068959D01*
X29180229Y25079010D01*
X28260990Y24159771D01*
X27271041Y25149720D01*
X27271041Y25149720D01*
G37*
G36*
X24159771Y28260990D02*
X25079010Y29180229D01*
X26068959Y28190280D01*
X25149720Y27271041D01*
X24159771Y28260990D01*
X24159771Y28260990D01*
G37*
G36*
X25255787Y29357006D02*
X26245736Y30346955D01*
X27235685Y29357006D01*
X26245736Y28367057D01*
X25255787Y29357006D01*
X25255787Y29357006D01*
G37*
G36*
X28367057Y26245736D02*
X29357006Y27235685D01*
X30346955Y26245736D01*
X29357006Y25255787D01*
X28367057Y26245736D01*
X28367057Y26245736D01*
G37*
G36*
X27094264Y37966955D02*
X28084213Y36977006D01*
X27094264Y35987057D01*
X26104315Y36977006D01*
X27094264Y37966955D01*
X27094264Y37966955D01*
G37*
G36*
X23982994Y34855685D02*
X24972943Y33865736D01*
X23982994Y32875787D01*
X22993045Y33865736D01*
X23982994Y34855685D01*
X23982994Y34855685D01*
G37*
G36*
X25149720Y33688959D02*
X26068959Y32769720D01*
X25079010Y31779771D01*
X24159771Y32699010D01*
X25149720Y33688959D01*
X25149720Y33688959D01*
G37*
G36*
X28260990Y36800229D02*
X29180229Y35880990D01*
X28190280Y34891041D01*
X27271041Y35810280D01*
X28260990Y36800229D01*
X28260990Y36800229D01*
G37*
G36*
X29357006Y35704213D02*
X30346955Y34714264D01*
X29357006Y33724315D01*
X28367057Y34714264D01*
X29357006Y35704213D01*
X29357006Y35704213D01*
G37*
G36*
X26245736Y32592943D02*
X27235685Y31602994D01*
X26245736Y30613045D01*
X25255787Y31602994D01*
X26245736Y32592943D01*
X26245736Y32592943D01*
G37*
G36*
X22993045Y42334264D02*
X23982994Y43324213D01*
X24972943Y42334264D01*
X23982994Y41344315D01*
X22993045Y42334264D01*
X22993045Y42334264D01*
G37*
G36*
X26104315Y39222994D02*
X27094264Y40212943D01*
X28084213Y39222994D01*
X27094264Y38233045D01*
X26104315Y39222994D01*
X26104315Y39222994D01*
G37*
G36*
X27271041Y40389720D02*
X28190280Y41308959D01*
X29180229Y40319010D01*
X28260990Y39399771D01*
X27271041Y40389720D01*
X27271041Y40389720D01*
G37*
G36*
X24159771Y43500990D02*
X25079010Y44420229D01*
X26068959Y43430280D01*
X25149720Y42511041D01*
X24159771Y43500990D01*
X24159771Y43500990D01*
G37*
G36*
X25255787Y44597006D02*
X26245736Y45586955D01*
X27235685Y44597006D01*
X26245736Y43607057D01*
X25255787Y44597006D01*
X25255787Y44597006D01*
G37*
G36*
X28367057Y41485736D02*
X29357006Y42475685D01*
X30346955Y41485736D01*
X29357006Y40495787D01*
X28367057Y41485736D01*
X28367057Y41485736D01*
G37*
G36*
X27094264Y53206955D02*
X28084213Y52217006D01*
X27094264Y51227057D01*
X26104315Y52217006D01*
X27094264Y53206955D01*
X27094264Y53206955D01*
G37*
G36*
X23982994Y50095685D02*
X24972943Y49105736D01*
X23982994Y48115787D01*
X22993045Y49105736D01*
X23982994Y50095685D01*
X23982994Y50095685D01*
G37*
G36*
X25149720Y48928959D02*
X26068959Y48009720D01*
X25079010Y47019771D01*
X24159771Y47939010D01*
X25149720Y48928959D01*
X25149720Y48928959D01*
G37*
G36*
X28260990Y52040229D02*
X29180229Y51120990D01*
X28190280Y50131041D01*
X27271041Y51050280D01*
X28260990Y52040229D01*
X28260990Y52040229D01*
G37*
G36*
X29357006Y50944213D02*
X30346955Y49954264D01*
X29357006Y48964315D01*
X28367057Y49954264D01*
X29357006Y50944213D01*
X29357006Y50944213D01*
G37*
G36*
X26245736Y47832943D02*
X27235685Y46842994D01*
X26245736Y45853045D01*
X25255787Y46842994D01*
X26245736Y47832943D01*
X26245736Y47832943D01*
G37*
G36*
X22993045Y57574264D02*
X23982994Y58564213D01*
X24972943Y57574264D01*
X23982994Y56584315D01*
X22993045Y57574264D01*
X22993045Y57574264D01*
G37*
G36*
X26104315Y54462994D02*
X27094264Y55452943D01*
X28084213Y54462994D01*
X27094264Y53473045D01*
X26104315Y54462994D01*
X26104315Y54462994D01*
G37*
G36*
X27271041Y55629720D02*
X28190280Y56548959D01*
X29180229Y55559010D01*
X28260990Y54639771D01*
X27271041Y55629720D01*
X27271041Y55629720D01*
G37*
G36*
X24159771Y58740990D02*
X25079010Y59660229D01*
X26068959Y58670280D01*
X25149720Y57751041D01*
X24159771Y58740990D01*
X24159771Y58740990D01*
G37*
G36*
X25255787Y59837006D02*
X26245736Y60826955D01*
X27235685Y59837006D01*
X26245736Y58847057D01*
X25255787Y59837006D01*
X25255787Y59837006D01*
G37*
G36*
X28367057Y56725736D02*
X29357006Y57715685D01*
X30346955Y56725736D01*
X29357006Y55735787D01*
X28367057Y56725736D01*
X28367057Y56725736D01*
G37*
G36*
X18625736Y53473045D02*
X17635787Y54462994D01*
X18625736Y55452943D01*
X19615685Y54462994D01*
X18625736Y53473045D01*
X18625736Y53473045D01*
G37*
G36*
X21737006Y56584315D02*
X20747057Y57574264D01*
X21737006Y58564213D01*
X22726955Y57574264D01*
X21737006Y56584315D01*
X21737006Y56584315D01*
G37*
G36*
X20570280Y57751041D02*
X19651041Y58670280D01*
X20640990Y59660229D01*
X21560229Y58740990D01*
X20570280Y57751041D01*
X20570280Y57751041D01*
G37*
G36*
X17459010Y54639771D02*
X16539771Y55559010D01*
X17529720Y56548959D01*
X18448959Y55629720D01*
X17459010Y54639771D01*
X17459010Y54639771D01*
G37*
G36*
X16362994Y55735787D02*
X15373045Y56725736D01*
X16362994Y57715685D01*
X17352943Y56725736D01*
X16362994Y55735787D01*
X16362994Y55735787D01*
G37*
G36*
X19474264Y58847057D02*
X18484315Y59837006D01*
X19474264Y60826955D01*
X20464213Y59837006D01*
X19474264Y58847057D01*
X19474264Y58847057D01*
G37*
G36*
X18625736Y38233045D02*
X17635787Y39222994D01*
X18625736Y40212943D01*
X19615685Y39222994D01*
X18625736Y38233045D01*
X18625736Y38233045D01*
G37*
G36*
X21737006Y41344315D02*
X20747057Y42334264D01*
X21737006Y43324213D01*
X22726955Y42334264D01*
X21737006Y41344315D01*
X21737006Y41344315D01*
G37*
G36*
X20570280Y42511041D02*
X19651041Y43430280D01*
X20640990Y44420229D01*
X21560229Y43500990D01*
X20570280Y42511041D01*
X20570280Y42511041D01*
G37*
G36*
X17459010Y39399771D02*
X16539771Y40319010D01*
X17529720Y41308959D01*
X18448959Y40389720D01*
X17459010Y39399771D01*
X17459010Y39399771D01*
G37*
G36*
X16362994Y40495787D02*
X15373045Y41485736D01*
X16362994Y42475685D01*
X17352943Y41485736D01*
X16362994Y40495787D01*
X16362994Y40495787D01*
G37*
G36*
X19474264Y43607057D02*
X18484315Y44597006D01*
X19474264Y45586955D01*
X20464213Y44597006D01*
X19474264Y43607057D01*
X19474264Y43607057D01*
G37*
G36*
X22726955Y33865736D02*
X21737006Y32875787D01*
X20747057Y33865736D01*
X21737006Y34855685D01*
X22726955Y33865736D01*
X22726955Y33865736D01*
G37*
G36*
X19615685Y36977006D02*
X18625736Y35987057D01*
X17635787Y36977006D01*
X18625736Y37966955D01*
X19615685Y36977006D01*
X19615685Y36977006D01*
G37*
G36*
X18448959Y35810280D02*
X17529720Y34891041D01*
X16539771Y35880990D01*
X17459010Y36800229D01*
X18448959Y35810280D01*
X18448959Y35810280D01*
G37*
G36*
X21560229Y32699010D02*
X20640990Y31779771D01*
X19651041Y32769720D01*
X20570280Y33688959D01*
X21560229Y32699010D01*
X21560229Y32699010D01*
G37*
G36*
X20464213Y31602994D02*
X19474264Y30613045D01*
X18484315Y31602994D01*
X19474264Y32592943D01*
X20464213Y31602994D01*
X20464213Y31602994D01*
G37*
G36*
X17352943Y34714264D02*
X16362994Y33724315D01*
X15373045Y34714264D01*
X16362994Y35704213D01*
X17352943Y34714264D01*
X17352943Y34714264D01*
G37*
G36*
X18625736Y22993045D02*
X17635787Y23982994D01*
X18625736Y24972943D01*
X19615685Y23982994D01*
X18625736Y22993045D01*
X18625736Y22993045D01*
G37*
G36*
X21737006Y26104315D02*
X20747057Y27094264D01*
X21737006Y28084213D01*
X22726955Y27094264D01*
X21737006Y26104315D01*
X21737006Y26104315D01*
G37*
G36*
X20570280Y27271041D02*
X19651041Y28190280D01*
X20640990Y29180229D01*
X21560229Y28260990D01*
X20570280Y27271041D01*
X20570280Y27271041D01*
G37*
G36*
X17459010Y24159771D02*
X16539771Y25079010D01*
X17529720Y26068959D01*
X18448959Y25149720D01*
X17459010Y24159771D01*
X17459010Y24159771D01*
G37*
G36*
X16362994Y25255787D02*
X15373045Y26245736D01*
X16362994Y27235685D01*
X17352943Y26245736D01*
X16362994Y25255787D01*
X16362994Y25255787D01*
G37*
G36*
X19474264Y28367057D02*
X18484315Y29357006D01*
X19474264Y30346955D01*
X20464213Y29357006D01*
X19474264Y28367057D01*
X19474264Y28367057D01*
G37*
G36*
X18625736Y7753045D02*
X17635787Y8742994D01*
X18625736Y9732943D01*
X19615685Y8742994D01*
X18625736Y7753045D01*
X18625736Y7753045D01*
G37*
G36*
X21737006Y10864315D02*
X20747057Y11854264D01*
X21737006Y12844213D01*
X22726955Y11854264D01*
X21737006Y10864315D01*
X21737006Y10864315D01*
G37*
G36*
X20570280Y12031041D02*
X19651041Y12950280D01*
X20640990Y13940229D01*
X21560229Y13020990D01*
X20570280Y12031041D01*
X20570280Y12031041D01*
G37*
G36*
X17459010Y8919771D02*
X16539771Y9839010D01*
X17529720Y10828959D01*
X18448959Y9909720D01*
X17459010Y8919771D01*
X17459010Y8919771D01*
G37*
G36*
X16362994Y10015787D02*
X15373045Y11005736D01*
X16362994Y11995685D01*
X17352943Y11005736D01*
X16362994Y10015787D01*
X16362994Y10015787D01*
G37*
G36*
X19474264Y13127057D02*
X18484315Y14117006D01*
X19474264Y15106955D01*
X20464213Y14117006D01*
X19474264Y13127057D01*
X19474264Y13127057D01*
G37*
G36*
X7753045Y11854264D02*
X8742994Y12844213D01*
X9732943Y11854264D01*
X8742994Y10864315D01*
X7753045Y11854264D01*
X7753045Y11854264D01*
G37*
G36*
X10864315Y8742994D02*
X11854264Y9732943D01*
X12844213Y8742994D01*
X11854264Y7753045D01*
X10864315Y8742994D01*
X10864315Y8742994D01*
G37*
G36*
X12031041Y9909720D02*
X12950280Y10828959D01*
X13940229Y9839010D01*
X13020990Y8919771D01*
X12031041Y9909720D01*
X12031041Y9909720D01*
G37*
G36*
X8919771Y13020990D02*
X9839010Y13940229D01*
X10828959Y12950280D01*
X9909720Y12031041D01*
X8919771Y13020990D01*
X8919771Y13020990D01*
G37*
G36*
X10015787Y14117006D02*
X11005736Y15106955D01*
X11995685Y14117006D01*
X11005736Y13127057D01*
X10015787Y14117006D01*
X10015787Y14117006D01*
G37*
G36*
X13127057Y11005736D02*
X14117006Y11995685D01*
X15106955Y11005736D01*
X14117006Y10015787D01*
X13127057Y11005736D01*
X13127057Y11005736D01*
G37*
G36*
X11854264Y22726955D02*
X12844213Y21737006D01*
X11854264Y20747057D01*
X10864315Y21737006D01*
X11854264Y22726955D01*
X11854264Y22726955D01*
G37*
G36*
X8742994Y19615685D02*
X9732943Y18625736D01*
X8742994Y17635787D01*
X7753045Y18625736D01*
X8742994Y19615685D01*
X8742994Y19615685D01*
G37*
G36*
X9909720Y18448959D02*
X10828959Y17529720D01*
X9839010Y16539771D01*
X8919771Y17459010D01*
X9909720Y18448959D01*
X9909720Y18448959D01*
G37*
G36*
X13020990Y21560229D02*
X13940229Y20640990D01*
X12950280Y19651041D01*
X12031041Y20570280D01*
X13020990Y21560229D01*
X13020990Y21560229D01*
G37*
G36*
X14117006Y20464213D02*
X15106955Y19474264D01*
X14117006Y18484315D01*
X13127057Y19474264D01*
X14117006Y20464213D01*
X14117006Y20464213D01*
G37*
G36*
X11005736Y17352943D02*
X11995685Y16362994D01*
X11005736Y15373045D01*
X10015787Y16362994D01*
X11005736Y17352943D01*
X11005736Y17352943D01*
G37*
G36*
X7753045Y27094264D02*
X8742994Y28084213D01*
X9732943Y27094264D01*
X8742994Y26104315D01*
X7753045Y27094264D01*
X7753045Y27094264D01*
G37*
G36*
X10864315Y23982994D02*
X11854264Y24972943D01*
X12844213Y23982994D01*
X11854264Y22993045D01*
X10864315Y23982994D01*
X10864315Y23982994D01*
G37*
G36*
X12031041Y25149720D02*
X12950280Y26068959D01*
X13940229Y25079010D01*
X13020990Y24159771D01*
X12031041Y25149720D01*
X12031041Y25149720D01*
G37*
G36*
X8919771Y28260990D02*
X9839010Y29180229D01*
X10828959Y28190280D01*
X9909720Y27271041D01*
X8919771Y28260990D01*
X8919771Y28260990D01*
G37*
G36*
X10015787Y29357006D02*
X11005736Y30346955D01*
X11995685Y29357006D01*
X11005736Y28367057D01*
X10015787Y29357006D01*
X10015787Y29357006D01*
G37*
G36*
X13127057Y26245736D02*
X14117006Y27235685D01*
X15106955Y26245736D01*
X14117006Y25255787D01*
X13127057Y26245736D01*
X13127057Y26245736D01*
G37*
G36*
X11854264Y53206955D02*
X12844213Y52217006D01*
X11854264Y51227057D01*
X10864315Y52217006D01*
X11854264Y53206955D01*
X11854264Y53206955D01*
G37*
G36*
X8742994Y50095685D02*
X9732943Y49105736D01*
X8742994Y48115787D01*
X7753045Y49105736D01*
X8742994Y50095685D01*
X8742994Y50095685D01*
G37*
G36*
X9909720Y48928959D02*
X10828959Y48009720D01*
X9839010Y47019771D01*
X8919771Y47939010D01*
X9909720Y48928959D01*
X9909720Y48928959D01*
G37*
G36*
X13020990Y52040229D02*
X13940229Y51120990D01*
X12950280Y50131041D01*
X12031041Y51050280D01*
X13020990Y52040229D01*
X13020990Y52040229D01*
G37*
G36*
X14117006Y50944213D02*
X15106955Y49954264D01*
X14117006Y48964315D01*
X13127057Y49954264D01*
X14117006Y50944213D01*
X14117006Y50944213D01*
G37*
G36*
X11005736Y47832943D02*
X11995685Y46842994D01*
X11005736Y45853045D01*
X10015787Y46842994D01*
X11005736Y47832943D01*
X11005736Y47832943D01*
G37*
G36*
X7753045Y57574264D02*
X8742994Y58564213D01*
X9732943Y57574264D01*
X8742994Y56584315D01*
X7753045Y57574264D01*
X7753045Y57574264D01*
G37*
G36*
X10864315Y54462994D02*
X11854264Y55452943D01*
X12844213Y54462994D01*
X11854264Y53473045D01*
X10864315Y54462994D01*
X10864315Y54462994D01*
G37*
G36*
X12031041Y55629720D02*
X12950280Y56548959D01*
X13940229Y55559010D01*
X13020990Y54639771D01*
X12031041Y55629720D01*
X12031041Y55629720D01*
G37*
G36*
X8919771Y58740990D02*
X9839010Y59660229D01*
X10828959Y58670280D01*
X9909720Y57751041D01*
X8919771Y58740990D01*
X8919771Y58740990D01*
G37*
G36*
X10015787Y59837006D02*
X11005736Y60826955D01*
X11995685Y59837006D01*
X11005736Y58847057D01*
X10015787Y59837006D01*
X10015787Y59837006D01*
G37*
G36*
X13127057Y56725736D02*
X14117006Y57715685D01*
X15106955Y56725736D01*
X14117006Y55735787D01*
X13127057Y56725736D01*
X13127057Y56725736D01*
G37*
G36*
X3385736Y53473045D02*
X2395787Y54462994D01*
X3385736Y55452943D01*
X4375685Y54462994D01*
X3385736Y53473045D01*
X3385736Y53473045D01*
G37*
G36*
X6497006Y56584315D02*
X5507057Y57574264D01*
X6497006Y58564213D01*
X7486955Y57574264D01*
X6497006Y56584315D01*
X6497006Y56584315D01*
G37*
G36*
X5330280Y57751041D02*
X4411041Y58670280D01*
X5400990Y59660229D01*
X6320229Y58740990D01*
X5330280Y57751041D01*
X5330280Y57751041D01*
G37*
G36*
X2219010Y54639771D02*
X1299771Y55559010D01*
X2289720Y56548959D01*
X3208959Y55629720D01*
X2219010Y54639771D01*
X2219010Y54639771D01*
G37*
G36*
X1122994Y55735787D02*
X133045Y56725736D01*
X1122994Y57715685D01*
X2112943Y56725736D01*
X1122994Y55735787D01*
X1122994Y55735787D01*
G37*
G36*
X4234264Y58847057D02*
X3244315Y59837006D01*
X4234264Y60826955D01*
X5224213Y59837006D01*
X4234264Y58847057D01*
X4234264Y58847057D01*
G37*
G36*
X7486955Y49105736D02*
X6497006Y48115787D01*
X5507057Y49105736D01*
X6497006Y50095685D01*
X7486955Y49105736D01*
X7486955Y49105736D01*
G37*
G36*
X4375685Y52217006D02*
X3385736Y51227057D01*
X2395787Y52217006D01*
X3385736Y53206955D01*
X4375685Y52217006D01*
X4375685Y52217006D01*
G37*
G36*
X3208959Y51050280D02*
X2289720Y50131041D01*
X1299771Y51120990D01*
X2219010Y52040229D01*
X3208959Y51050280D01*
X3208959Y51050280D01*
G37*
G36*
X6320229Y47939010D02*
X5400990Y47019771D01*
X4411041Y48009720D01*
X5330280Y48928959D01*
X6320229Y47939010D01*
X6320229Y47939010D01*
G37*
G36*
X5224213Y46842994D02*
X4234264Y45853045D01*
X3244315Y46842994D01*
X4234264Y47832943D01*
X5224213Y46842994D01*
X5224213Y46842994D01*
G37*
G36*
X2112943Y49954264D02*
X1122994Y48964315D01*
X133045Y49954264D01*
X1122994Y50944213D01*
X2112943Y49954264D01*
X2112943Y49954264D01*
G37*
G36*
X7486955Y18625736D02*
X6497006Y17635787D01*
X5507057Y18625736D01*
X6497006Y19615685D01*
X7486955Y18625736D01*
X7486955Y18625736D01*
G37*
G36*
X4375685Y21737006D02*
X3385736Y20747057D01*
X2395787Y21737006D01*
X3385736Y22726955D01*
X4375685Y21737006D01*
X4375685Y21737006D01*
G37*
G36*
X3208959Y20570280D02*
X2289720Y19651041D01*
X1299771Y20640990D01*
X2219010Y21560229D01*
X3208959Y20570280D01*
X3208959Y20570280D01*
G37*
G36*
X6320229Y17459010D02*
X5400990Y16539771D01*
X4411041Y17529720D01*
X5330280Y18448959D01*
X6320229Y17459010D01*
X6320229Y17459010D01*
G37*
G36*
X5224213Y16362994D02*
X4234264Y15373045D01*
X3244315Y16362994D01*
X4234264Y17352943D01*
X5224213Y16362994D01*
X5224213Y16362994D01*
G37*
G36*
X2112943Y19474264D02*
X1122994Y18484315D01*
X133045Y19474264D01*
X1122994Y20464213D01*
X2112943Y19474264D01*
X2112943Y19474264D01*
G37*
G36*
X3385736Y7753045D02*
X2395787Y8742994D01*
X3385736Y9732943D01*
X4375685Y8742994D01*
X3385736Y7753045D01*
X3385736Y7753045D01*
G37*
G36*
X6497006Y10864315D02*
X5507057Y11854264D01*
X6497006Y12844213D01*
X7486955Y11854264D01*
X6497006Y10864315D01*
X6497006Y10864315D01*
G37*
G36*
X5330280Y12031041D02*
X4411041Y12950280D01*
X5400990Y13940229D01*
X6320229Y13020990D01*
X5330280Y12031041D01*
X5330280Y12031041D01*
G37*
G36*
X2219010Y8919771D02*
X1299771Y9839010D01*
X2289720Y10828959D01*
X3208959Y9909720D01*
X2219010Y8919771D01*
X2219010Y8919771D01*
G37*
G36*
X1122994Y10015787D02*
X133045Y11005736D01*
X1122994Y11995685D01*
X2112943Y11005736D01*
X1122994Y10015787D01*
X1122994Y10015787D01*
G37*
G36*
X4234264Y13127057D02*
X3244315Y14117006D01*
X4234264Y15106955D01*
X5224213Y14117006D01*
X4234264Y13127057D01*
X4234264Y13127057D01*
G37*
G36*
X3385736Y22993045D02*
X2395787Y23982994D01*
X3385736Y24972943D01*
X4375685Y23982994D01*
X3385736Y22993045D01*
X3385736Y22993045D01*
G37*
G36*
X6497006Y26104315D02*
X5507057Y27094264D01*
X6497006Y28084213D01*
X7486955Y27094264D01*
X6497006Y26104315D01*
X6497006Y26104315D01*
G37*
G36*
X5330280Y27271041D02*
X4411041Y28190280D01*
X5400990Y29180229D01*
X6320229Y28260990D01*
X5330280Y27271041D01*
X5330280Y27271041D01*
G37*
G36*
X2219010Y24159771D02*
X1299771Y25079010D01*
X2289720Y26068959D01*
X3208959Y25149720D01*
X2219010Y24159771D01*
X2219010Y24159771D01*
G37*
G36*
X1122994Y25255787D02*
X133045Y26245736D01*
X1122994Y27235685D01*
X2112943Y26245736D01*
X1122994Y25255787D01*
X1122994Y25255787D01*
G37*
G36*
X4234264Y28367057D02*
X3244315Y29357006D01*
X4234264Y30346955D01*
X5224213Y29357006D01*
X4234264Y28367057D01*
X4234264Y28367057D01*
G37*
G36*
X7486955Y3385736D02*
X6497006Y2395787D01*
X5507057Y3385736D01*
X6497006Y4375685D01*
X7486955Y3385736D01*
X7486955Y3385736D01*
G37*
G36*
X4375685Y6497006D02*
X3385736Y5507057D01*
X2395787Y6497006D01*
X3385736Y7486955D01*
X4375685Y6497006D01*
X4375685Y6497006D01*
G37*
G36*
X3208959Y5330280D02*
X2289720Y4411041D01*
X1299771Y5400990D01*
X2219010Y6320229D01*
X3208959Y5330280D01*
X3208959Y5330280D01*
G37*
G36*
X6320229Y2219010D02*
X5400990Y1299771D01*
X4411041Y2289720D01*
X5330280Y3208959D01*
X6320229Y2219010D01*
X6320229Y2219010D01*
G37*
G36*
X5224213Y1122994D02*
X4234264Y133045D01*
X3244315Y1122994D01*
X4234264Y2112943D01*
X5224213Y1122994D01*
X5224213Y1122994D01*
G37*
G36*
X2112943Y4234264D02*
X1122994Y3244315D01*
X133045Y4234264D01*
X1122994Y5224213D01*
X2112943Y4234264D01*
X2112943Y4234264D01*
G37*
G36*
X11854264Y7486955D02*
X12844213Y6497006D01*
X11854264Y5507057D01*
X10864315Y6497006D01*
X11854264Y7486955D01*
X11854264Y7486955D01*
G37*
G36*
X8742994Y4375685D02*
X9732943Y3385736D01*
X8742994Y2395787D01*
X7753045Y3385736D01*
X8742994Y4375685D01*
X8742994Y4375685D01*
G37*
G36*
X9909720Y3208959D02*
X10828959Y2289720D01*
X9839010Y1299771D01*
X8919771Y2219010D01*
X9909720Y3208959D01*
X9909720Y3208959D01*
G37*
G36*
X13020990Y6320229D02*
X13940229Y5400990D01*
X12950280Y4411041D01*
X12031041Y5330280D01*
X13020990Y6320229D01*
X13020990Y6320229D01*
G37*
G36*
X14117006Y5224213D02*
X15106955Y4234264D01*
X14117006Y3244315D01*
X13127057Y4234264D01*
X14117006Y5224213D01*
X14117006Y5224213D01*
G37*
G36*
X11005736Y2112943D02*
X11995685Y1122994D01*
X11005736Y133045D01*
X10015787Y1122994D01*
X11005736Y2112943D01*
X11005736Y2112943D01*
G37*
G36*
X22726955Y3385736D02*
X21737006Y2395787D01*
X20747057Y3385736D01*
X21737006Y4375685D01*
X22726955Y3385736D01*
X22726955Y3385736D01*
G37*
G36*
X19615685Y6497006D02*
X18625736Y5507057D01*
X17635787Y6497006D01*
X18625736Y7486955D01*
X19615685Y6497006D01*
X19615685Y6497006D01*
G37*
G36*
X18448959Y5330280D02*
X17529720Y4411041D01*
X16539771Y5400990D01*
X17459010Y6320229D01*
X18448959Y5330280D01*
X18448959Y5330280D01*
G37*
G36*
X21560229Y2219010D02*
X20640990Y1299771D01*
X19651041Y2289720D01*
X20570280Y3208959D01*
X21560229Y2219010D01*
X21560229Y2219010D01*
G37*
G36*
X20464213Y1122994D02*
X19474264Y133045D01*
X18484315Y1122994D01*
X19474264Y2112943D01*
X20464213Y1122994D01*
X20464213Y1122994D01*
G37*
G36*
X17352943Y4234264D02*
X16362994Y3244315D01*
X15373045Y4234264D01*
X16362994Y5224213D01*
X17352943Y4234264D01*
X17352943Y4234264D01*
G37*
G36*
X27094264Y7486955D02*
X28084213Y6497006D01*
X27094264Y5507057D01*
X26104315Y6497006D01*
X27094264Y7486955D01*
X27094264Y7486955D01*
G37*
G36*
X23982994Y4375685D02*
X24972943Y3385736D01*
X23982994Y2395787D01*
X22993045Y3385736D01*
X23982994Y4375685D01*
X23982994Y4375685D01*
G37*
G36*
X25149720Y3208959D02*
X26068959Y2289720D01*
X25079010Y1299771D01*
X24159771Y2219010D01*
X25149720Y3208959D01*
X25149720Y3208959D01*
G37*
G36*
X28260990Y6320229D02*
X29180229Y5400990D01*
X28190280Y4411041D01*
X27271041Y5330280D01*
X28260990Y6320229D01*
X28260990Y6320229D01*
G37*
G36*
X29357006Y5224213D02*
X30346955Y4234264D01*
X29357006Y3244315D01*
X28367057Y4234264D01*
X29357006Y5224213D01*
X29357006Y5224213D01*
G37*
G36*
X26245736Y2112943D02*
X27235685Y1122994D01*
X26245736Y133045D01*
X25255787Y1122994D01*
X26245736Y2112943D01*
X26245736Y2112943D01*
G37*
G36*
X37966955Y3385736D02*
X36977006Y2395787D01*
X35987057Y3385736D01*
X36977006Y4375685D01*
X37966955Y3385736D01*
X37966955Y3385736D01*
G37*
G36*
X34855685Y6497006D02*
X33865736Y5507057D01*
X32875787Y6497006D01*
X33865736Y7486955D01*
X34855685Y6497006D01*
X34855685Y6497006D01*
G37*
G36*
X33688959Y5330280D02*
X32769720Y4411041D01*
X31779771Y5400990D01*
X32699010Y6320229D01*
X33688959Y5330280D01*
X33688959Y5330280D01*
G37*
G36*
X36800229Y2219010D02*
X35880990Y1299771D01*
X34891041Y2289720D01*
X35810280Y3208959D01*
X36800229Y2219010D01*
X36800229Y2219010D01*
G37*
G36*
X35704213Y1122994D02*
X34714264Y133045D01*
X33724315Y1122994D01*
X34714264Y2112943D01*
X35704213Y1122994D01*
X35704213Y1122994D01*
G37*
G36*
X32592943Y4234264D02*
X31602994Y3244315D01*
X30613045Y4234264D01*
X31602994Y5224213D01*
X32592943Y4234264D01*
X32592943Y4234264D01*
G37*
G36*
X42334264Y7486955D02*
X43324213Y6497006D01*
X42334264Y5507057D01*
X41344315Y6497006D01*
X42334264Y7486955D01*
X42334264Y7486955D01*
G37*
G36*
X39222994Y4375685D02*
X40212943Y3385736D01*
X39222994Y2395787D01*
X38233045Y3385736D01*
X39222994Y4375685D01*
X39222994Y4375685D01*
G37*
G36*
X40389720Y3208959D02*
X41308959Y2289720D01*
X40319010Y1299771D01*
X39399771Y2219010D01*
X40389720Y3208959D01*
X40389720Y3208959D01*
G37*
G36*
X43500990Y6320229D02*
X44420229Y5400990D01*
X43430280Y4411041D01*
X42511041Y5330280D01*
X43500990Y6320229D01*
X43500990Y6320229D01*
G37*
G36*
X44597006Y5224213D02*
X45586955Y4234264D01*
X44597006Y3244315D01*
X43607057Y4234264D01*
X44597006Y5224213D01*
X44597006Y5224213D01*
G37*
G36*
X41485736Y2112943D02*
X42475685Y1122994D01*
X41485736Y133045D01*
X40495787Y1122994D01*
X41485736Y2112943D01*
X41485736Y2112943D01*
G37*
G36*
X53206955Y3385736D02*
X52217006Y2395787D01*
X51227057Y3385736D01*
X52217006Y4375685D01*
X53206955Y3385736D01*
X53206955Y3385736D01*
G37*
G36*
X50095685Y6497006D02*
X49105736Y5507057D01*
X48115787Y6497006D01*
X49105736Y7486955D01*
X50095685Y6497006D01*
X50095685Y6497006D01*
G37*
G36*
X48928959Y5330280D02*
X48009720Y4411041D01*
X47019771Y5400990D01*
X47939010Y6320229D01*
X48928959Y5330280D01*
X48928959Y5330280D01*
G37*
G36*
X52040229Y2219010D02*
X51120990Y1299771D01*
X50131041Y2289720D01*
X51050280Y3208959D01*
X52040229Y2219010D01*
X52040229Y2219010D01*
G37*
G36*
X50944213Y1122994D02*
X49954264Y133045D01*
X48964315Y1122994D01*
X49954264Y2112943D01*
X50944213Y1122994D01*
X50944213Y1122994D01*
G37*
G36*
X47832943Y4234264D02*
X46842994Y3244315D01*
X45853045Y4234264D01*
X46842994Y5224213D01*
X47832943Y4234264D01*
X47832943Y4234264D01*
G37*
G36*
X57574264Y7486955D02*
X58564213Y6497006D01*
X57574264Y5507057D01*
X56584315Y6497006D01*
X57574264Y7486955D01*
X57574264Y7486955D01*
G37*
G36*
X54462994Y4375685D02*
X55452943Y3385736D01*
X54462994Y2395787D01*
X53473045Y3385736D01*
X54462994Y4375685D01*
X54462994Y4375685D01*
G37*
G36*
X55629720Y3208959D02*
X56548959Y2289720D01*
X55559010Y1299771D01*
X54639771Y2219010D01*
X55629720Y3208959D01*
X55629720Y3208959D01*
G37*
G36*
X58740990Y6320229D02*
X59660229Y5400990D01*
X58670280Y4411041D01*
X57751041Y5330280D01*
X58740990Y6320229D01*
X58740990Y6320229D01*
G37*
G36*
X59837006Y5224213D02*
X60826955Y4234264D01*
X59837006Y3244315D01*
X58847057Y4234264D01*
X59837006Y5224213D01*
X59837006Y5224213D01*
G37*
G36*
X56725736Y2112943D02*
X57715685Y1122994D01*
X56725736Y133045D01*
X55735787Y1122994D01*
X56725736Y2112943D01*
X56725736Y2112943D01*
G37*
G36*
X38233045Y42334264D02*
X39222994Y43324213D01*
X40212943Y42334264D01*
X39222994Y41344315D01*
X38233045Y42334264D01*
X38233045Y42334264D01*
G37*
G36*
X41344315Y39222994D02*
X42334264Y40212943D01*
X43324213Y39222994D01*
X42334264Y38233045D01*
X41344315Y39222994D01*
X41344315Y39222994D01*
G37*
G36*
X42511041Y40389720D02*
X43430280Y41308959D01*
X44420229Y40319010D01*
X43500990Y39399771D01*
X42511041Y40389720D01*
X42511041Y40389720D01*
G37*
G36*
X39399771Y43500990D02*
X40319010Y44420229D01*
X41308959Y43430280D01*
X40389720Y42511041D01*
X39399771Y43500990D01*
X39399771Y43500990D01*
G37*
G36*
X40495787Y44597006D02*
X41485736Y45586955D01*
X42475685Y44597006D01*
X41485736Y43607057D01*
X40495787Y44597006D01*
X40495787Y44597006D01*
G37*
G36*
X43607057Y41485736D02*
X44597006Y42475685D01*
X45586955Y41485736D01*
X44597006Y40495787D01*
X43607057Y41485736D01*
X43607057Y41485736D01*
G37*
G36*
X53473045Y11854264D02*
X54462994Y12844213D01*
X55452943Y11854264D01*
X54462994Y10864315D01*
X53473045Y11854264D01*
X53473045Y11854264D01*
G37*
G36*
X56584315Y8742994D02*
X57574264Y9732943D01*
X58564213Y8742994D01*
X57574264Y7753045D01*
X56584315Y8742994D01*
X56584315Y8742994D01*
G37*
G36*
X57751041Y9909720D02*
X58670280Y10828959D01*
X59660229Y9839010D01*
X58740990Y8919771D01*
X57751041Y9909720D01*
X57751041Y9909720D01*
G37*
G36*
X54639771Y13020990D02*
X55559010Y13940229D01*
X56548959Y12950280D01*
X55629720Y12031041D01*
X54639771Y13020990D01*
X54639771Y13020990D01*
G37*
G36*
X55735787Y14117006D02*
X56725736Y15106955D01*
X57715685Y14117006D01*
X56725736Y13127057D01*
X55735787Y14117006D01*
X55735787Y14117006D01*
G37*
G36*
X58847057Y11005736D02*
X59837006Y11995685D01*
X60826955Y11005736D01*
X59837006Y10015787D01*
X58847057Y11005736D01*
X58847057Y11005736D01*
G37*
M02*
