M48
INCH,TZ
T1C0.020
T2C0.040
T3C0.120
T4C0.020
T5C0.120
%
G90
G05
T1
X022000Y-010000
X022000Y-010500
X022000Y-011000
X022000Y-011500
X022000Y-012000
X022000Y-012500
X022000Y-013000
X022000Y-013500
X022000Y-014000
X022000Y-016000
X022000Y-016500
X022000Y-017000
X022000Y-017500
X022000Y-018000
X022000Y-018500
X022000Y-019000
X022000Y-019500
X022000Y-020000
X022000Y-022000
X022000Y-022500
X022000Y-023000
X022000Y-023500
X022000Y-024000
X022000Y-024500
X022000Y-025000
X022000Y-025500
X022000Y-026000
X022000Y-028000
X022000Y-028500
X022000Y-029000
X022000Y-029500
X022000Y-030000
X022000Y-030500
X022000Y-031000
X022000Y-031500
X022000Y-032000
X046000Y-010000
X046000Y-010500
X046000Y-011000
X046000Y-011500
X046000Y-012000
X046000Y-012500
X046000Y-013000
X046000Y-013500
X046000Y-014000
X046000Y-016000
X046000Y-016500
X046000Y-017000
X046000Y-017500
X046000Y-018000
X046000Y-018500
X046000Y-019000
X046000Y-019500
X046000Y-020000
X046000Y-022000
X046000Y-022500
X046000Y-023000
X046000Y-023500
X046000Y-024000
X046000Y-024500
X046000Y-025000
X046000Y-025500
X046000Y-026000
X046000Y-028000
X046000Y-028500
X046000Y-029000
X046000Y-029500
X046000Y-030000
X046000Y-030500
X046000Y-031000
X046000Y-031500
X046000Y-032000
X070000Y-010000
X070000Y-010500
X070000Y-011000
X070000Y-011500
X070000Y-012000
X070000Y-012500
X070000Y-013000
X070000Y-013500
X070000Y-014000
X070000Y-016000
X070000Y-016500
X070000Y-017000
X070000Y-017500
X070000Y-018000
X070000Y-018500
X070000Y-019000
X070000Y-019500
X070000Y-020000
X070000Y-022000
X070000Y-022500
X070000Y-023000
X070000Y-023500
X070000Y-024000
X070000Y-024500
X070000Y-025000
X070000Y-025500
X070000Y-026000
X070000Y-028000
X070000Y-028500
X070000Y-029000
X070000Y-029500
X070000Y-030000
X070000Y-030500
X070000Y-031000
X070000Y-031500
X070000Y-032000
X076000Y-010000
X076000Y-010500
X076000Y-011000
X076000Y-011500
X076000Y-012000
X076000Y-012500
X076000Y-013000
X076000Y-013500
X076000Y-014000
X076000Y-016000
X076000Y-016500
X076000Y-017000
X076000Y-017500
X076000Y-018000
X076000Y-018500
X076000Y-019000
X076000Y-019500
X076000Y-020000
X076000Y-022000
X076000Y-022500
X076000Y-023000
X076000Y-023500
X076000Y-024000
X076000Y-024500
X076000Y-025000
X076000Y-025500
X076000Y-026000
X076000Y-028000
X076000Y-028500
X076000Y-029000
X076000Y-029500
X076000Y-030000
X076000Y-030500
X076000Y-031000
X076000Y-031500
X076000Y-032000
T2
X052000Y-011500
X052000Y-012484
X057000Y-013500
X057000Y-014500
X057000Y-015500
X057000Y-016500
X057000Y-017500
X057000Y-018500
X057000Y-019500
X057000Y-020500
X057000Y-021500
X057000Y-022500
X057000Y-023500
X057000Y-024500
X057000Y-025500
X057000Y-026500
X057000Y-027500
X057000Y-028500
X065000Y-017500
X065000Y-018500
X065000Y-019500
X065000Y-020500
X065000Y-021500
X065000Y-022500
X065000Y-023500
X065000Y-024500
X065000Y-025500
X065000Y-026500
X065000Y-027500
X065000Y-028500
X068750Y-014000
X068750Y-015000
X068750Y-016000
T3
X013000Y-012000
X013000Y-018000
X013000Y-024000
X013000Y-030000
X019000Y-012000
X019000Y-018000
X019000Y-024000
X019000Y-030000
X025000Y-012000
X025000Y-018000
X025000Y-024000
X025000Y-030000
X031000Y-012000
X031000Y-018000
X031000Y-024000
X031000Y-030000
X037000Y-012000
X037000Y-018000
X037000Y-024000
X037000Y-030000
X043000Y-012000
X043000Y-018000
X043000Y-024000
X043000Y-030000
X049000Y-012000
X049000Y-018000
X049000Y-024000
X049000Y-030000
X055000Y-012000
X055000Y-018000
X055000Y-024000
X055000Y-030000
X061000Y-012000
X061000Y-018000
X061000Y-024000
X061000Y-030000
X067000Y-012000
X067000Y-018000
X067000Y-024000
X067000Y-030000
X073000Y-012000
X073000Y-018000
X073000Y-024000
X073000Y-030000
X079000Y-012000
X079000Y-018000
X079000Y-024000
X079000Y-030000
T4
X018685Y-014134
X018685Y-015000
X018685Y-015866
X018685Y-020134
X018685Y-021000
X018685Y-021866
X018685Y-026134
X018685Y-027000
X018685Y-027866
X019000Y-014134
X019000Y-015000
X019000Y-015866
X019000Y-020134
X019000Y-021000
X019000Y-021866
X019000Y-026134
X019000Y-027000
X019000Y-027866
X019315Y-014134
X019315Y-015000
X019315Y-015866
X019315Y-020134
X019315Y-021000
X019315Y-021866
X019315Y-026134
X019315Y-027000
X019315Y-027866
X024685Y-014134
X024685Y-015000
X024685Y-015866
X024685Y-020134
X024685Y-021000
X024685Y-021866
X024685Y-026134
X024685Y-027000
X024685Y-027866
X025000Y-014134
X025000Y-015000
X025000Y-015866
X025000Y-020134
X025000Y-021000
X025000Y-021866
X025000Y-026134
X025000Y-027000
X025000Y-027866
X025315Y-014134
X025315Y-015000
X025315Y-015866
X025315Y-020134
X025315Y-021000
X025315Y-021866
X025315Y-026134
X025315Y-027000
X025315Y-027866
X033567Y-017685
X033567Y-018000
X033567Y-018315
X033567Y-023685
X033567Y-024000
X033567Y-024315
X034433Y-017685
X034433Y-018000
X034433Y-018315
X034433Y-023685
X034433Y-024000
X034433Y-024315
X042685Y-014134
X042685Y-015000
X042685Y-015866
X042685Y-020134
X042685Y-021000
X042685Y-021866
X042685Y-026134
X042685Y-027000
X042685Y-027866
X043000Y-014134
X043000Y-015000
X043000Y-015866
X043000Y-020134
X043000Y-021000
X043000Y-021866
X043000Y-026134
X043000Y-027000
X043000Y-027866
X043315Y-014134
X043315Y-015000
X043315Y-015866
X043315Y-020134
X043315Y-021000
X043315Y-021866
X043315Y-026134
X043315Y-027000
X043315Y-027866
T5
X057500Y-012000
X057500Y-030000
X064500Y-012000
X064500Y-030000
T0
M30
