%TF.GenerationSoftware,KiCad,Pcbnew,4.0.6-e0-6349~53~ubuntu16.04.1*%
%TF.CreationDate,2017-05-06T16:30:15+05:30*%
%TF.ProjectId,ultim_bus,756C74696D5F6275732E6B696361645F,rev?*%
%TF.FileFunction,Soldermask,Top*%
%FSLAX46Y46*%
G04 Gerber Fmt 4.6, Leading zero omitted, Abs format (unit mm)*
G04 Created by KiCad (PCBNEW 4.0.6-e0-6349~53~ubuntu16.04.1) date Sat May  6 16:30:15 2017*
%MOMM*%
%LPD*%
G01*
G04 APERTURE LIST*
%ADD10C,0.101600*%
%ADD11C,0.900000*%
%ADD12C,6.496000*%
%ADD13R,6.496000X6.496000*%
%ADD14C,6.000000*%
%ADD15O,2.432000X2.127200*%
%ADD16R,1.924000X1.924000*%
%ADD17R,1.924000X2.432000*%
%ADD18R,2.178000X1.924000*%
%ADD19R,1.400000X1.850000*%
%ADD20C,2.178000*%
%ADD21R,2.178000X2.178000*%
%ADD22C,1.924000*%
%ADD23C,3.448000*%
G04 APERTURE END LIST*
D10*
D11*
X85260000Y-60960000D03*
X87460000Y-60960000D03*
X85260000Y-60160000D03*
X85260000Y-61760000D03*
X87460000Y-61760000D03*
X87460000Y-60160000D03*
D12*
X63500000Y-60960000D03*
X170180000Y-60960000D03*
X124460000Y-60960000D03*
X109220000Y-60960000D03*
X48260000Y-60960000D03*
X185420000Y-60960000D03*
D11*
X85260000Y-45720000D03*
X87460000Y-45720000D03*
X85260000Y-44920000D03*
X85260000Y-46520000D03*
X87460000Y-46520000D03*
X87460000Y-44920000D03*
D12*
X200660000Y-30480000D03*
X33020000Y-30480000D03*
X78740000Y-30480000D03*
X93980000Y-30480000D03*
X139700000Y-30480000D03*
X154940000Y-30480000D03*
D13*
X185420000Y-30480000D03*
X48260000Y-30480000D03*
X63500000Y-30480000D03*
X109220000Y-30480000D03*
X124460000Y-30480000D03*
X170180000Y-30480000D03*
X200660000Y-60960000D03*
X33020000Y-60960000D03*
X78740000Y-60960000D03*
X93980000Y-60960000D03*
D12*
X139700000Y-60960000D03*
D13*
X154940000Y-60960000D03*
D14*
X185420000Y-45720000D03*
D13*
X200660000Y-45720000D03*
X33020000Y-45720000D03*
D14*
X48260000Y-45720000D03*
X63500000Y-45720000D03*
D13*
X78740000Y-45720000D03*
X93980000Y-45720000D03*
D14*
X109220000Y-45720000D03*
X124460000Y-45720000D03*
D12*
X139700000Y-45720000D03*
D13*
X154940000Y-45720000D03*
D14*
X170180000Y-45720000D03*
D13*
X185420000Y-76200000D03*
D14*
X200660000Y-76200000D03*
X33020000Y-76200000D03*
D13*
X48260000Y-76200000D03*
X63500000Y-76200000D03*
D14*
X78740000Y-76200000D03*
X93980000Y-76200000D03*
D13*
X109220000Y-76200000D03*
X124460000Y-76200000D03*
D14*
X139700000Y-76200000D03*
X154940000Y-76200000D03*
D13*
X170180000Y-76200000D03*
D11*
X48260000Y-35900000D03*
X48260000Y-40300000D03*
X49060000Y-35900000D03*
X47460000Y-35900000D03*
X47460000Y-40300000D03*
X49060000Y-40300000D03*
X48260000Y-38100000D03*
X49060000Y-38100000D03*
X47460000Y-38100000D03*
X48260000Y-51140000D03*
X48260000Y-55540000D03*
X49060000Y-51140000D03*
X47460000Y-51140000D03*
X47460000Y-55540000D03*
X49060000Y-55540000D03*
X48260000Y-53340000D03*
X49060000Y-53340000D03*
X47460000Y-53340000D03*
X48260000Y-66380000D03*
X48260000Y-70780000D03*
X49060000Y-66380000D03*
X47460000Y-66380000D03*
X47460000Y-70780000D03*
X49060000Y-70780000D03*
X48260000Y-68580000D03*
X49060000Y-68580000D03*
X47460000Y-68580000D03*
D15*
X174625000Y-40640000D03*
X174625000Y-38100000D03*
X174625000Y-35560000D03*
D16*
X172085000Y-38100000D03*
D17*
X172085000Y-35814000D03*
X172085000Y-40386000D03*
D11*
X63500000Y-35900000D03*
X63500000Y-40300000D03*
X64300000Y-35900000D03*
X62700000Y-35900000D03*
X62700000Y-40300000D03*
X64300000Y-40300000D03*
X63500000Y-38100000D03*
X64300000Y-38100000D03*
X62700000Y-38100000D03*
X109220000Y-35900000D03*
X109220000Y-40300000D03*
X110020000Y-35900000D03*
X108420000Y-35900000D03*
X108420000Y-40300000D03*
X110020000Y-40300000D03*
X109220000Y-38100000D03*
X110020000Y-38100000D03*
X108420000Y-38100000D03*
X63500000Y-51140000D03*
X63500000Y-55540000D03*
X64300000Y-51140000D03*
X62700000Y-51140000D03*
X62700000Y-55540000D03*
X64300000Y-55540000D03*
X63500000Y-53340000D03*
X64300000Y-53340000D03*
X62700000Y-53340000D03*
X109220000Y-51140000D03*
X109220000Y-55540000D03*
X110020000Y-51140000D03*
X108420000Y-51140000D03*
X108420000Y-55540000D03*
X110020000Y-55540000D03*
X109220000Y-53340000D03*
X110020000Y-53340000D03*
X108420000Y-53340000D03*
X63500000Y-66380000D03*
X63500000Y-70780000D03*
X64300000Y-66380000D03*
X62700000Y-66380000D03*
X62700000Y-70780000D03*
X64300000Y-70780000D03*
X63500000Y-68580000D03*
X64300000Y-68580000D03*
X62700000Y-68580000D03*
X109220000Y-66380000D03*
X109220000Y-70780000D03*
X110020000Y-66380000D03*
X108420000Y-66380000D03*
X108420000Y-70780000D03*
X110020000Y-70780000D03*
X109220000Y-68580000D03*
X110020000Y-68580000D03*
X108420000Y-68580000D03*
D18*
X122275600Y-40360600D03*
X130454400Y-40360600D03*
X130454400Y-35839400D03*
X122275600Y-35839400D03*
X133705600Y-40360600D03*
X141884400Y-40360600D03*
X141884400Y-35839400D03*
X133705600Y-35839400D03*
X122275600Y-55600600D03*
X130454400Y-55600600D03*
X130454400Y-51079400D03*
X122275600Y-51079400D03*
X133705600Y-55600600D03*
X141884400Y-55600600D03*
X141884400Y-51079400D03*
X133705600Y-51079400D03*
X130454400Y-66319400D03*
X122275600Y-66319400D03*
X122275600Y-70840600D03*
X130454400Y-70840600D03*
X141884400Y-66319400D03*
X133705600Y-66319400D03*
X133705600Y-70840600D03*
X141884400Y-70840600D03*
D19*
X149540000Y-57150000D03*
X147640000Y-57150000D03*
X149540000Y-54610000D03*
X147640000Y-54610000D03*
X149540000Y-52070000D03*
X147640000Y-52070000D03*
X149540000Y-49530000D03*
X147640000Y-49530000D03*
X149540000Y-46990000D03*
X147640000Y-46990000D03*
X149540000Y-44450000D03*
X147640000Y-44450000D03*
D20*
X132080000Y-31710000D03*
X132080000Y-29210000D03*
D21*
X144780000Y-41910000D03*
X165100000Y-44450000D03*
X165100000Y-49530000D03*
X144780000Y-59690000D03*
X144780000Y-62230000D03*
D20*
X144780000Y-34290000D03*
X144780000Y-36830000D03*
X144780000Y-39370000D03*
X144780000Y-44450000D03*
X144780000Y-46990000D03*
X144780000Y-49530000D03*
X144780000Y-52070000D03*
X144780000Y-54610000D03*
X144780000Y-57150000D03*
X144780000Y-64770000D03*
X144780000Y-67310000D03*
X144780000Y-69850000D03*
X144780000Y-72390000D03*
X165100000Y-72390000D03*
D22*
X165100000Y-69850000D03*
X165100000Y-67310000D03*
X165100000Y-64770000D03*
X165100000Y-62230000D03*
X165100000Y-59690000D03*
X165100000Y-57150000D03*
X165100000Y-54610000D03*
X165100000Y-52070000D03*
D20*
X165100000Y-46990000D03*
D23*
X146050000Y-30480000D03*
X146050000Y-76200000D03*
X163830000Y-76200000D03*
X163830000Y-30480000D03*
M02*
