%TF.GenerationSoftware,KiCad,Pcbnew,4.0.7-e0-6372~58~ubuntu16.04.1*%
%TF.CreationDate,2017-08-19T17:26:02+05:30*%
%TF.ProjectId,ultim_bus_conn,756C74696D5F6275735F636F6E6E2E6B,rev?*%
%TF.FileFunction,Legend,Top*%
%FSLAX46Y46*%
G04 Gerber Fmt 4.6, Leading zero omitted, Abs format (unit mm)*
G04 Created by KiCad (PCBNEW 4.0.7-e0-6372~58~ubuntu16.04.1) date Sat Aug 19 17:26:02 2017*
%MOMM*%
%LPD*%
G01*
G04 APERTURE LIST*
%ADD10C,0.050800*%
%ADD11C,0.010000*%
%ADD12C,0.002540*%
%ADD13C,0.127000*%
%ADD14C,6.000000*%
G04 APERTURE END LIST*
D10*
D11*
G36*
X87419962Y-51276685D02*
X87522538Y-51290389D01*
X87580308Y-51296512D01*
X87669965Y-51302992D01*
X87784328Y-51309451D01*
X87916213Y-51315515D01*
X88058438Y-51320808D01*
X88163651Y-51323942D01*
X88667995Y-51337308D01*
X88779113Y-51448117D01*
X88846249Y-51514279D01*
X88927382Y-51593091D01*
X89007999Y-51670481D01*
X89031001Y-51692348D01*
X89171772Y-51825769D01*
X89185182Y-52144136D01*
X89189985Y-52262552D01*
X89192402Y-52349902D01*
X89191709Y-52414160D01*
X89187180Y-52463303D01*
X89178089Y-52505305D01*
X89163713Y-52548140D01*
X89143882Y-52598405D01*
X89120112Y-52657051D01*
X89099339Y-52697043D01*
X89074210Y-52721028D01*
X89037374Y-52731650D01*
X88981479Y-52731555D01*
X88899172Y-52723389D01*
X88821846Y-52714280D01*
X88737988Y-52702378D01*
X88654680Y-52687271D01*
X88606923Y-52676455D01*
X88533259Y-52657272D01*
X88460303Y-52638319D01*
X88445102Y-52634378D01*
X88385340Y-52607217D01*
X88309047Y-52554533D01*
X88240350Y-52496647D01*
X88235066Y-52492158D01*
X88438243Y-52492158D01*
X88439011Y-52494755D01*
X88466624Y-52507385D01*
X88523215Y-52524064D01*
X88599165Y-52542728D01*
X88684855Y-52561316D01*
X88770666Y-52577764D01*
X88846980Y-52590009D01*
X88904178Y-52595989D01*
X88912283Y-52596250D01*
X88972181Y-52595229D01*
X89005834Y-52585988D01*
X89026023Y-52562242D01*
X89038818Y-52534039D01*
X89063460Y-52454062D01*
X89063456Y-52382445D01*
X89036621Y-52309445D01*
X88980773Y-52225317D01*
X88965175Y-52205351D01*
X88910580Y-52140067D01*
X88869601Y-52100885D01*
X88834178Y-52081391D01*
X88802025Y-52075483D01*
X88739570Y-52078455D01*
X88695638Y-52094046D01*
X88677741Y-52118167D01*
X88685497Y-52138891D01*
X88699012Y-52173700D01*
X88677797Y-52197766D01*
X88625664Y-52206769D01*
X88625554Y-52206769D01*
X88594895Y-52210276D01*
X88570009Y-52225595D01*
X88544304Y-52259926D01*
X88511183Y-52320470D01*
X88498453Y-52345541D01*
X88467031Y-52411569D01*
X88445767Y-52463440D01*
X88438243Y-52492158D01*
X88235066Y-52492158D01*
X88159462Y-52427937D01*
X88063395Y-52353049D01*
X87970375Y-52286077D01*
X87952786Y-52274240D01*
X87848971Y-52198363D01*
X87738105Y-52102846D01*
X87663708Y-52030267D01*
X87859824Y-52030267D01*
X87873580Y-52049715D01*
X87876850Y-52053356D01*
X87906058Y-52079443D01*
X87959241Y-52121466D01*
X88028238Y-52173130D01*
X88088657Y-52216693D01*
X88167706Y-52274431D01*
X88240466Y-52330613D01*
X88297415Y-52377723D01*
X88323461Y-52401993D01*
X88363507Y-52438818D01*
X88395014Y-52459282D01*
X88401231Y-52460769D01*
X88419807Y-52444480D01*
X88448614Y-52401590D01*
X88481697Y-52341063D01*
X88484532Y-52335360D01*
X88516146Y-52268217D01*
X88530663Y-52226539D01*
X88530031Y-52201668D01*
X88518033Y-52186429D01*
X88493756Y-52153346D01*
X88493129Y-52150712D01*
X88550634Y-52150712D01*
X88565438Y-52166550D01*
X88568394Y-52168444D01*
X88607835Y-52185830D01*
X88631993Y-52174031D01*
X88635396Y-52169042D01*
X88634546Y-52145783D01*
X88608421Y-52133314D01*
X88572343Y-52137704D01*
X88550634Y-52150712D01*
X88493129Y-52150712D01*
X88489692Y-52136274D01*
X88472786Y-52112403D01*
X88428944Y-52081742D01*
X88368479Y-52049308D01*
X88301703Y-52020121D01*
X88238931Y-51999198D01*
X88192288Y-51991547D01*
X88139536Y-51986492D01*
X88102191Y-51974743D01*
X88102026Y-51974639D01*
X88068162Y-51969867D01*
X88008427Y-51976728D01*
X87959678Y-51987287D01*
X87896658Y-52004012D01*
X87865445Y-52016686D01*
X87859824Y-52030267D01*
X87663708Y-52030267D01*
X87616124Y-51983846D01*
X87478965Y-51837518D01*
X87411039Y-51761536D01*
X87329241Y-51656028D01*
X87303423Y-51607858D01*
X87462204Y-51607858D01*
X87464010Y-51621723D01*
X87467376Y-51628173D01*
X87493006Y-51662760D01*
X87538076Y-51713300D01*
X87595932Y-51773363D01*
X87659922Y-51836519D01*
X87723391Y-51896337D01*
X87779686Y-51946388D01*
X87822153Y-51980240D01*
X87843365Y-51991550D01*
X87880868Y-51985909D01*
X87936447Y-51972215D01*
X87953928Y-51967127D01*
X88012007Y-51944473D01*
X88031356Y-51933231D01*
X88118462Y-51933231D01*
X88135182Y-51947918D01*
X88167308Y-51952769D01*
X88204026Y-51946081D01*
X88216154Y-51933231D01*
X88199433Y-51918543D01*
X88167308Y-51913692D01*
X88130589Y-51920381D01*
X88118462Y-51933231D01*
X88031356Y-51933231D01*
X88057301Y-51918158D01*
X88064828Y-51911650D01*
X88078035Y-51893755D01*
X88076675Y-51873833D01*
X88056734Y-51844794D01*
X88014195Y-51799554D01*
X87984564Y-51769996D01*
X87910114Y-51702756D01*
X87853929Y-51666954D01*
X87823841Y-51659692D01*
X87778718Y-51652694D01*
X87755597Y-51640705D01*
X87727922Y-51629730D01*
X87672625Y-51618458D01*
X87601079Y-51609150D01*
X87592701Y-51608342D01*
X87536105Y-51603635D01*
X87788634Y-51603635D01*
X87803438Y-51619473D01*
X87806394Y-51621367D01*
X87847180Y-51638000D01*
X87876951Y-51635003D01*
X87884000Y-51621769D01*
X87868130Y-51594176D01*
X87830984Y-51585868D01*
X87810343Y-51590628D01*
X87788634Y-51603635D01*
X87536105Y-51603635D01*
X87519620Y-51602264D01*
X87478430Y-51601737D01*
X87462204Y-51607858D01*
X87303423Y-51607858D01*
X87270716Y-51546838D01*
X87249892Y-51494321D01*
X87222707Y-51411124D01*
X87364055Y-51411124D01*
X87364492Y-51434291D01*
X87379749Y-51478275D01*
X87388512Y-51497385D01*
X87408691Y-51535679D01*
X87429701Y-51558780D01*
X87461972Y-51571757D01*
X87515932Y-51579677D01*
X87567893Y-51584542D01*
X87665222Y-51589200D01*
X87731319Y-51582372D01*
X87758862Y-51572452D01*
X87822397Y-51557079D01*
X87869816Y-51560636D01*
X87914391Y-51575799D01*
X87931256Y-51603335D01*
X87932846Y-51625594D01*
X87946723Y-51666941D01*
X87982477Y-51721031D01*
X88031294Y-51778326D01*
X88084358Y-51829287D01*
X88132856Y-51864376D01*
X88162973Y-51874616D01*
X88212402Y-51883877D01*
X88251904Y-51906312D01*
X88269114Y-51933896D01*
X88267832Y-51942666D01*
X88278166Y-51965464D01*
X88316347Y-51996097D01*
X88373205Y-52029878D01*
X88439570Y-52062124D01*
X88506271Y-52088150D01*
X88564139Y-52103270D01*
X88586129Y-52105278D01*
X88639818Y-52100005D01*
X88677882Y-52086997D01*
X88680192Y-52085301D01*
X88700900Y-52050112D01*
X88704615Y-52026702D01*
X88704758Y-52026390D01*
X88771322Y-52026390D01*
X88773834Y-52032273D01*
X88802683Y-52049114D01*
X88837868Y-52043942D01*
X88849888Y-52032971D01*
X88845212Y-52013877D01*
X88818755Y-52000305D01*
X88787761Y-51999748D01*
X88780687Y-52002902D01*
X88771322Y-52026390D01*
X88704758Y-52026390D01*
X88721437Y-51990183D01*
X88743692Y-51977969D01*
X88770145Y-51957333D01*
X88780795Y-51928388D01*
X88801378Y-51928388D01*
X88817754Y-51962312D01*
X88846269Y-51975834D01*
X88881558Y-51993231D01*
X88896601Y-52038048D01*
X88896761Y-52039412D01*
X88912725Y-52086511D01*
X88946725Y-52145985D01*
X88974915Y-52184301D01*
X89046538Y-52271855D01*
X89052341Y-52128794D01*
X89053927Y-52055176D01*
X89052666Y-51995439D01*
X89048838Y-51961642D01*
X89048408Y-51960365D01*
X89021798Y-51931396D01*
X88971903Y-51901107D01*
X88913655Y-51876325D01*
X88861988Y-51863879D01*
X88840273Y-51865199D01*
X88808596Y-51890679D01*
X88801378Y-51928388D01*
X88780795Y-51928388D01*
X88782825Y-51922871D01*
X88779703Y-51890130D01*
X88758745Y-51874657D01*
X88757196Y-51874616D01*
X88722027Y-51863801D01*
X88694433Y-51847422D01*
X88669527Y-51822325D01*
X88671337Y-51816000D01*
X88733923Y-51816000D01*
X88761481Y-51832414D01*
X88783922Y-51835539D01*
X88815040Y-51827134D01*
X88821846Y-51816000D01*
X88805091Y-51801437D01*
X88771847Y-51796462D01*
X88738604Y-51802664D01*
X88733923Y-51816000D01*
X88671337Y-51816000D01*
X88676698Y-51797267D01*
X88683322Y-51788807D01*
X88728579Y-51761663D01*
X88787277Y-51760666D01*
X88844905Y-51784659D01*
X88866741Y-51803429D01*
X88909859Y-51841063D01*
X88961565Y-51874895D01*
X89010522Y-51898827D01*
X89045396Y-51906760D01*
X89053221Y-51903753D01*
X89044145Y-51886778D01*
X89010758Y-51848220D01*
X88957590Y-51792864D01*
X88889172Y-51725493D01*
X88841879Y-51680537D01*
X88617717Y-51470141D01*
X88236204Y-51457415D01*
X88096868Y-51451938D01*
X87951198Y-51444783D01*
X87811259Y-51436638D01*
X87689113Y-51428192D01*
X87615312Y-51421968D01*
X87522640Y-51414171D01*
X87444656Y-51409493D01*
X87389269Y-51408276D01*
X87364386Y-51410860D01*
X87364055Y-51411124D01*
X87222707Y-51411124D01*
X87221204Y-51406526D01*
X87210808Y-51342722D01*
X87222095Y-51300372D01*
X87258456Y-51276940D01*
X87323281Y-51269889D01*
X87419962Y-51276685D01*
X87419962Y-51276685D01*
G37*
X87419962Y-51276685D02*
X87522538Y-51290389D01*
X87580308Y-51296512D01*
X87669965Y-51302992D01*
X87784328Y-51309451D01*
X87916213Y-51315515D01*
X88058438Y-51320808D01*
X88163651Y-51323942D01*
X88667995Y-51337308D01*
X88779113Y-51448117D01*
X88846249Y-51514279D01*
X88927382Y-51593091D01*
X89007999Y-51670481D01*
X89031001Y-51692348D01*
X89171772Y-51825769D01*
X89185182Y-52144136D01*
X89189985Y-52262552D01*
X89192402Y-52349902D01*
X89191709Y-52414160D01*
X89187180Y-52463303D01*
X89178089Y-52505305D01*
X89163713Y-52548140D01*
X89143882Y-52598405D01*
X89120112Y-52657051D01*
X89099339Y-52697043D01*
X89074210Y-52721028D01*
X89037374Y-52731650D01*
X88981479Y-52731555D01*
X88899172Y-52723389D01*
X88821846Y-52714280D01*
X88737988Y-52702378D01*
X88654680Y-52687271D01*
X88606923Y-52676455D01*
X88533259Y-52657272D01*
X88460303Y-52638319D01*
X88445102Y-52634378D01*
X88385340Y-52607217D01*
X88309047Y-52554533D01*
X88240350Y-52496647D01*
X88235066Y-52492158D01*
X88438243Y-52492158D01*
X88439011Y-52494755D01*
X88466624Y-52507385D01*
X88523215Y-52524064D01*
X88599165Y-52542728D01*
X88684855Y-52561316D01*
X88770666Y-52577764D01*
X88846980Y-52590009D01*
X88904178Y-52595989D01*
X88912283Y-52596250D01*
X88972181Y-52595229D01*
X89005834Y-52585988D01*
X89026023Y-52562242D01*
X89038818Y-52534039D01*
X89063460Y-52454062D01*
X89063456Y-52382445D01*
X89036621Y-52309445D01*
X88980773Y-52225317D01*
X88965175Y-52205351D01*
X88910580Y-52140067D01*
X88869601Y-52100885D01*
X88834178Y-52081391D01*
X88802025Y-52075483D01*
X88739570Y-52078455D01*
X88695638Y-52094046D01*
X88677741Y-52118167D01*
X88685497Y-52138891D01*
X88699012Y-52173700D01*
X88677797Y-52197766D01*
X88625664Y-52206769D01*
X88625554Y-52206769D01*
X88594895Y-52210276D01*
X88570009Y-52225595D01*
X88544304Y-52259926D01*
X88511183Y-52320470D01*
X88498453Y-52345541D01*
X88467031Y-52411569D01*
X88445767Y-52463440D01*
X88438243Y-52492158D01*
X88235066Y-52492158D01*
X88159462Y-52427937D01*
X88063395Y-52353049D01*
X87970375Y-52286077D01*
X87952786Y-52274240D01*
X87848971Y-52198363D01*
X87738105Y-52102846D01*
X87663708Y-52030267D01*
X87859824Y-52030267D01*
X87873580Y-52049715D01*
X87876850Y-52053356D01*
X87906058Y-52079443D01*
X87959241Y-52121466D01*
X88028238Y-52173130D01*
X88088657Y-52216693D01*
X88167706Y-52274431D01*
X88240466Y-52330613D01*
X88297415Y-52377723D01*
X88323461Y-52401993D01*
X88363507Y-52438818D01*
X88395014Y-52459282D01*
X88401231Y-52460769D01*
X88419807Y-52444480D01*
X88448614Y-52401590D01*
X88481697Y-52341063D01*
X88484532Y-52335360D01*
X88516146Y-52268217D01*
X88530663Y-52226539D01*
X88530031Y-52201668D01*
X88518033Y-52186429D01*
X88493756Y-52153346D01*
X88493129Y-52150712D01*
X88550634Y-52150712D01*
X88565438Y-52166550D01*
X88568394Y-52168444D01*
X88607835Y-52185830D01*
X88631993Y-52174031D01*
X88635396Y-52169042D01*
X88634546Y-52145783D01*
X88608421Y-52133314D01*
X88572343Y-52137704D01*
X88550634Y-52150712D01*
X88493129Y-52150712D01*
X88489692Y-52136274D01*
X88472786Y-52112403D01*
X88428944Y-52081742D01*
X88368479Y-52049308D01*
X88301703Y-52020121D01*
X88238931Y-51999198D01*
X88192288Y-51991547D01*
X88139536Y-51986492D01*
X88102191Y-51974743D01*
X88102026Y-51974639D01*
X88068162Y-51969867D01*
X88008427Y-51976728D01*
X87959678Y-51987287D01*
X87896658Y-52004012D01*
X87865445Y-52016686D01*
X87859824Y-52030267D01*
X87663708Y-52030267D01*
X87616124Y-51983846D01*
X87478965Y-51837518D01*
X87411039Y-51761536D01*
X87329241Y-51656028D01*
X87303423Y-51607858D01*
X87462204Y-51607858D01*
X87464010Y-51621723D01*
X87467376Y-51628173D01*
X87493006Y-51662760D01*
X87538076Y-51713300D01*
X87595932Y-51773363D01*
X87659922Y-51836519D01*
X87723391Y-51896337D01*
X87779686Y-51946388D01*
X87822153Y-51980240D01*
X87843365Y-51991550D01*
X87880868Y-51985909D01*
X87936447Y-51972215D01*
X87953928Y-51967127D01*
X88012007Y-51944473D01*
X88031356Y-51933231D01*
X88118462Y-51933231D01*
X88135182Y-51947918D01*
X88167308Y-51952769D01*
X88204026Y-51946081D01*
X88216154Y-51933231D01*
X88199433Y-51918543D01*
X88167308Y-51913692D01*
X88130589Y-51920381D01*
X88118462Y-51933231D01*
X88031356Y-51933231D01*
X88057301Y-51918158D01*
X88064828Y-51911650D01*
X88078035Y-51893755D01*
X88076675Y-51873833D01*
X88056734Y-51844794D01*
X88014195Y-51799554D01*
X87984564Y-51769996D01*
X87910114Y-51702756D01*
X87853929Y-51666954D01*
X87823841Y-51659692D01*
X87778718Y-51652694D01*
X87755597Y-51640705D01*
X87727922Y-51629730D01*
X87672625Y-51618458D01*
X87601079Y-51609150D01*
X87592701Y-51608342D01*
X87536105Y-51603635D01*
X87788634Y-51603635D01*
X87803438Y-51619473D01*
X87806394Y-51621367D01*
X87847180Y-51638000D01*
X87876951Y-51635003D01*
X87884000Y-51621769D01*
X87868130Y-51594176D01*
X87830984Y-51585868D01*
X87810343Y-51590628D01*
X87788634Y-51603635D01*
X87536105Y-51603635D01*
X87519620Y-51602264D01*
X87478430Y-51601737D01*
X87462204Y-51607858D01*
X87303423Y-51607858D01*
X87270716Y-51546838D01*
X87249892Y-51494321D01*
X87222707Y-51411124D01*
X87364055Y-51411124D01*
X87364492Y-51434291D01*
X87379749Y-51478275D01*
X87388512Y-51497385D01*
X87408691Y-51535679D01*
X87429701Y-51558780D01*
X87461972Y-51571757D01*
X87515932Y-51579677D01*
X87567893Y-51584542D01*
X87665222Y-51589200D01*
X87731319Y-51582372D01*
X87758862Y-51572452D01*
X87822397Y-51557079D01*
X87869816Y-51560636D01*
X87914391Y-51575799D01*
X87931256Y-51603335D01*
X87932846Y-51625594D01*
X87946723Y-51666941D01*
X87982477Y-51721031D01*
X88031294Y-51778326D01*
X88084358Y-51829287D01*
X88132856Y-51864376D01*
X88162973Y-51874616D01*
X88212402Y-51883877D01*
X88251904Y-51906312D01*
X88269114Y-51933896D01*
X88267832Y-51942666D01*
X88278166Y-51965464D01*
X88316347Y-51996097D01*
X88373205Y-52029878D01*
X88439570Y-52062124D01*
X88506271Y-52088150D01*
X88564139Y-52103270D01*
X88586129Y-52105278D01*
X88639818Y-52100005D01*
X88677882Y-52086997D01*
X88680192Y-52085301D01*
X88700900Y-52050112D01*
X88704615Y-52026702D01*
X88704758Y-52026390D01*
X88771322Y-52026390D01*
X88773834Y-52032273D01*
X88802683Y-52049114D01*
X88837868Y-52043942D01*
X88849888Y-52032971D01*
X88845212Y-52013877D01*
X88818755Y-52000305D01*
X88787761Y-51999748D01*
X88780687Y-52002902D01*
X88771322Y-52026390D01*
X88704758Y-52026390D01*
X88721437Y-51990183D01*
X88743692Y-51977969D01*
X88770145Y-51957333D01*
X88780795Y-51928388D01*
X88801378Y-51928388D01*
X88817754Y-51962312D01*
X88846269Y-51975834D01*
X88881558Y-51993231D01*
X88896601Y-52038048D01*
X88896761Y-52039412D01*
X88912725Y-52086511D01*
X88946725Y-52145985D01*
X88974915Y-52184301D01*
X89046538Y-52271855D01*
X89052341Y-52128794D01*
X89053927Y-52055176D01*
X89052666Y-51995439D01*
X89048838Y-51961642D01*
X89048408Y-51960365D01*
X89021798Y-51931396D01*
X88971903Y-51901107D01*
X88913655Y-51876325D01*
X88861988Y-51863879D01*
X88840273Y-51865199D01*
X88808596Y-51890679D01*
X88801378Y-51928388D01*
X88780795Y-51928388D01*
X88782825Y-51922871D01*
X88779703Y-51890130D01*
X88758745Y-51874657D01*
X88757196Y-51874616D01*
X88722027Y-51863801D01*
X88694433Y-51847422D01*
X88669527Y-51822325D01*
X88671337Y-51816000D01*
X88733923Y-51816000D01*
X88761481Y-51832414D01*
X88783922Y-51835539D01*
X88815040Y-51827134D01*
X88821846Y-51816000D01*
X88805091Y-51801437D01*
X88771847Y-51796462D01*
X88738604Y-51802664D01*
X88733923Y-51816000D01*
X88671337Y-51816000D01*
X88676698Y-51797267D01*
X88683322Y-51788807D01*
X88728579Y-51761663D01*
X88787277Y-51760666D01*
X88844905Y-51784659D01*
X88866741Y-51803429D01*
X88909859Y-51841063D01*
X88961565Y-51874895D01*
X89010522Y-51898827D01*
X89045396Y-51906760D01*
X89053221Y-51903753D01*
X89044145Y-51886778D01*
X89010758Y-51848220D01*
X88957590Y-51792864D01*
X88889172Y-51725493D01*
X88841879Y-51680537D01*
X88617717Y-51470141D01*
X88236204Y-51457415D01*
X88096868Y-51451938D01*
X87951198Y-51444783D01*
X87811259Y-51436638D01*
X87689113Y-51428192D01*
X87615312Y-51421968D01*
X87522640Y-51414171D01*
X87444656Y-51409493D01*
X87389269Y-51408276D01*
X87364386Y-51410860D01*
X87364055Y-51411124D01*
X87222707Y-51411124D01*
X87221204Y-51406526D01*
X87210808Y-51342722D01*
X87222095Y-51300372D01*
X87258456Y-51276940D01*
X87323281Y-51269889D01*
X87419962Y-51276685D01*
G36*
X90344483Y-48007996D02*
X90406843Y-48026680D01*
X90448091Y-48050256D01*
X90482154Y-48089491D01*
X90512858Y-48138164D01*
X90539138Y-48184547D01*
X90557228Y-48226273D01*
X90569184Y-48272955D01*
X90577065Y-48334208D01*
X90582927Y-48419647D01*
X90586020Y-48480087D01*
X90594825Y-48615967D01*
X90608393Y-48737653D01*
X90628794Y-48855041D01*
X90658095Y-48978025D01*
X90698366Y-49116500D01*
X90751674Y-49280361D01*
X90755973Y-49293117D01*
X90806870Y-49455117D01*
X90839548Y-49588101D01*
X90854579Y-49697317D01*
X90852539Y-49788010D01*
X90834001Y-49865425D01*
X90821789Y-49894496D01*
X90796980Y-49937203D01*
X90761981Y-49977350D01*
X90711363Y-50019058D01*
X90639691Y-50066449D01*
X90541536Y-50123646D01*
X90462311Y-50167301D01*
X90353424Y-50227817D01*
X90247180Y-50289966D01*
X90137848Y-50357453D01*
X90019696Y-50433982D01*
X89886992Y-50523258D01*
X89734006Y-50628987D01*
X89573034Y-50742123D01*
X89445278Y-50831383D01*
X89343087Y-50900093D01*
X89261032Y-50951498D01*
X89193680Y-50988844D01*
X89135600Y-51015374D01*
X89086484Y-51032773D01*
X89020495Y-51052310D01*
X88971279Y-51065285D01*
X88948556Y-51069158D01*
X88948105Y-51068937D01*
X88949540Y-51048958D01*
X88956269Y-50996474D01*
X88967432Y-50917568D01*
X88971945Y-50887170D01*
X89096969Y-50887170D01*
X89102283Y-50891170D01*
X89119811Y-50868385D01*
X89135988Y-50841051D01*
X89167380Y-50783963D01*
X89211324Y-50702114D01*
X89265159Y-50600498D01*
X89326222Y-50484108D01*
X89390161Y-50361204D01*
X89455046Y-50234933D01*
X89514111Y-50118005D01*
X89564874Y-50015495D01*
X89604852Y-49932477D01*
X89631562Y-49874025D01*
X89642462Y-49845525D01*
X89655137Y-49820058D01*
X89705330Y-49820058D01*
X89711101Y-49839471D01*
X89731400Y-49839597D01*
X89765666Y-49820858D01*
X89774977Y-49806557D01*
X89769206Y-49787145D01*
X89748908Y-49787019D01*
X89714641Y-49805758D01*
X89705330Y-49820058D01*
X89655137Y-49820058D01*
X89665327Y-49799584D01*
X89691308Y-49776320D01*
X89722826Y-49756135D01*
X89743755Y-49731430D01*
X89759003Y-49692145D01*
X89773480Y-49628214D01*
X89779932Y-49594670D01*
X89791708Y-49519941D01*
X89792365Y-49473315D01*
X89781918Y-49445438D01*
X89780169Y-49443208D01*
X89769151Y-49416104D01*
X89776043Y-49404551D01*
X89820581Y-49404551D01*
X89828897Y-49411330D01*
X89851347Y-49412148D01*
X89890333Y-49405246D01*
X89905396Y-49394581D01*
X89908030Y-49371818D01*
X89886374Y-49365782D01*
X89852431Y-49378704D01*
X89845609Y-49383466D01*
X89820581Y-49404551D01*
X89776043Y-49404551D01*
X89787585Y-49385206D01*
X89795869Y-49376593D01*
X89813658Y-49347303D01*
X90294184Y-49347303D01*
X90314436Y-49353993D01*
X90323915Y-49354154D01*
X90357604Y-49342487D01*
X90365385Y-49324846D01*
X90356106Y-49298827D01*
X90348238Y-49295539D01*
X90322775Y-49308906D01*
X90306769Y-49324846D01*
X90294184Y-49347303D01*
X89813658Y-49347303D01*
X89820455Y-49336112D01*
X89841091Y-49274761D01*
X89855483Y-49205290D01*
X89861336Y-49140447D01*
X89856357Y-49092983D01*
X89849253Y-49079917D01*
X89843722Y-49056222D01*
X89845270Y-49054226D01*
X89903415Y-49054226D01*
X89923667Y-49060916D01*
X89933146Y-49061077D01*
X89966835Y-49049410D01*
X89974615Y-49031769D01*
X89965337Y-49005750D01*
X89957469Y-49002462D01*
X89932006Y-49015829D01*
X89916000Y-49031769D01*
X89903415Y-49054226D01*
X89845270Y-49054226D01*
X89869747Y-49022679D01*
X89881549Y-49012031D01*
X89914869Y-48970107D01*
X89953333Y-48902567D01*
X89991630Y-48821450D01*
X90024450Y-48738793D01*
X90046480Y-48666633D01*
X90052769Y-48623981D01*
X90070532Y-48569597D01*
X90135177Y-48569597D01*
X90140947Y-48589009D01*
X90161246Y-48589135D01*
X90195512Y-48570396D01*
X90204823Y-48556096D01*
X90199052Y-48536683D01*
X90178754Y-48536557D01*
X90144488Y-48555296D01*
X90135177Y-48569597D01*
X90070532Y-48569597D01*
X90070947Y-48568328D01*
X90121039Y-48525016D01*
X90185635Y-48502081D01*
X90233119Y-48498415D01*
X90256592Y-48514672D01*
X90259808Y-48521636D01*
X90258071Y-48565145D01*
X90220049Y-48603574D01*
X90150719Y-48633462D01*
X90113634Y-48646985D01*
X90086831Y-48666647D01*
X90063914Y-48700960D01*
X90038490Y-48758433D01*
X90018830Y-48808993D01*
X89960201Y-48962575D01*
X90025030Y-48974737D01*
X90077374Y-48976533D01*
X90082472Y-48975125D01*
X90212221Y-48975125D01*
X90224466Y-48982466D01*
X90242814Y-48982923D01*
X90281536Y-48975393D01*
X90296166Y-48964735D01*
X90298095Y-48941404D01*
X90276616Y-48932516D01*
X90245664Y-48941001D01*
X90232323Y-48951304D01*
X90212221Y-48975125D01*
X90082472Y-48975125D01*
X90137371Y-48959963D01*
X90198198Y-48932042D01*
X90262176Y-48902165D01*
X90301841Y-48891221D01*
X90325868Y-48897194D01*
X90330638Y-48901284D01*
X90342678Y-48933993D01*
X90325685Y-48968523D01*
X90288786Y-48998273D01*
X90241106Y-49016641D01*
X90191772Y-49017027D01*
X90177171Y-49012294D01*
X90121055Y-49000756D01*
X90065947Y-49008143D01*
X90028721Y-49031858D01*
X90026351Y-49035511D01*
X89997972Y-49062294D01*
X89950413Y-49089387D01*
X89943312Y-49092478D01*
X89897724Y-49117439D01*
X89879320Y-49149895D01*
X89876656Y-49183455D01*
X89873141Y-49241544D01*
X89865703Y-49286467D01*
X89863364Y-49308642D01*
X89874372Y-49323569D01*
X89904598Y-49332624D01*
X89959911Y-49337182D01*
X90046184Y-49338622D01*
X90088235Y-49338637D01*
X90180388Y-49334701D01*
X90239354Y-49322716D01*
X90264081Y-49308706D01*
X90314518Y-49276142D01*
X90365284Y-49262982D01*
X90404381Y-49270947D01*
X90417307Y-49286740D01*
X90414594Y-49325195D01*
X90384375Y-49359269D01*
X90338202Y-49383445D01*
X90287630Y-49392210D01*
X90244212Y-49380047D01*
X90236016Y-49373277D01*
X90205694Y-49364723D01*
X90149971Y-49364998D01*
X90081067Y-49372364D01*
X90011202Y-49385083D01*
X89952597Y-49401418D01*
X89918848Y-49418384D01*
X89877262Y-49446644D01*
X89855010Y-49457069D01*
X89830608Y-49485495D01*
X89808520Y-49552522D01*
X89798882Y-49597786D01*
X89786705Y-49667673D01*
X89783631Y-49709833D01*
X89790469Y-49734725D01*
X89808025Y-49752808D01*
X89811026Y-49755120D01*
X89848070Y-49774062D01*
X89869244Y-49775366D01*
X89897326Y-49770590D01*
X89954345Y-49764133D01*
X90030258Y-49757071D01*
X90070145Y-49753808D01*
X90175339Y-49742508D01*
X90187892Y-49739824D01*
X90330078Y-49739824D01*
X90346357Y-49744153D01*
X90364789Y-49741915D01*
X90403866Y-49727540D01*
X90419213Y-49710731D01*
X90414644Y-49690163D01*
X90389795Y-49688394D01*
X90357958Y-49704225D01*
X90344289Y-49717492D01*
X90330078Y-49739824D01*
X90187892Y-49739824D01*
X90247304Y-49727121D01*
X90291788Y-49706383D01*
X90294289Y-49704488D01*
X90347389Y-49672737D01*
X90391168Y-49656139D01*
X90437889Y-49656235D01*
X90459609Y-49679297D01*
X90452950Y-49715744D01*
X90423879Y-49748950D01*
X90386271Y-49771432D01*
X90339956Y-49778515D01*
X90278967Y-49774012D01*
X90202885Y-49769990D01*
X90112162Y-49772846D01*
X90016944Y-49781328D01*
X89927379Y-49794182D01*
X89853614Y-49810154D01*
X89805795Y-49827992D01*
X89798151Y-49833406D01*
X89752486Y-49862455D01*
X89711095Y-49878530D01*
X89693008Y-49886950D01*
X89672740Y-49905222D01*
X89647964Y-49937123D01*
X89616350Y-49986431D01*
X89575571Y-50056924D01*
X89523297Y-50152379D01*
X89457200Y-50276574D01*
X89407719Y-50370690D01*
X89342668Y-50495659D01*
X89284515Y-50609054D01*
X89235498Y-50706376D01*
X89197851Y-50783127D01*
X89173811Y-50834811D01*
X89165614Y-50856929D01*
X89165757Y-50857347D01*
X89184203Y-50850382D01*
X89227432Y-50824842D01*
X89288534Y-50785011D01*
X89344918Y-50746244D01*
X89532972Y-50615600D01*
X89717976Y-50489673D01*
X89894942Y-50371722D01*
X90058883Y-50265007D01*
X90204812Y-50172788D01*
X90327739Y-50098324D01*
X90396145Y-50059219D01*
X90485028Y-50007940D01*
X90566369Y-49956963D01*
X90631079Y-49912240D01*
X90669683Y-49880126D01*
X90706294Y-49828326D01*
X90725726Y-49764152D01*
X90727690Y-49683092D01*
X90711895Y-49580635D01*
X90678052Y-49452268D01*
X90633382Y-49315077D01*
X90579047Y-49151099D01*
X90538291Y-49009751D01*
X90508393Y-48878150D01*
X90486630Y-48743410D01*
X90470282Y-48592648D01*
X90463591Y-48511224D01*
X90454733Y-48403702D01*
X90446136Y-48327187D01*
X90436068Y-48273659D01*
X90422795Y-48235099D01*
X90404586Y-48203487D01*
X90393960Y-48188918D01*
X90349130Y-48144763D01*
X90299388Y-48125689D01*
X90243119Y-48133005D01*
X90178706Y-48168021D01*
X90104536Y-48232046D01*
X90018993Y-48326389D01*
X89920462Y-48452359D01*
X89807328Y-48611265D01*
X89727798Y-48728923D01*
X89678430Y-48812199D01*
X89621402Y-48925585D01*
X89555696Y-49071274D01*
X89480292Y-49251458D01*
X89450714Y-49324846D01*
X89271133Y-49774231D01*
X89192702Y-50282231D01*
X89171101Y-50421637D01*
X89150915Y-50550961D01*
X89133068Y-50664357D01*
X89118485Y-50755978D01*
X89108089Y-50819980D01*
X89103131Y-50848846D01*
X89096969Y-50887170D01*
X88971945Y-50887170D01*
X88982168Y-50818326D01*
X88999614Y-50704830D01*
X88999981Y-50702478D01*
X89017464Y-50587713D01*
X89032107Y-50486064D01*
X89043059Y-50403892D01*
X89049475Y-50347562D01*
X89050505Y-50323438D01*
X89050503Y-50323431D01*
X89038361Y-50329292D01*
X89011510Y-50362406D01*
X88974252Y-50415887D01*
X88930888Y-50482845D01*
X88885721Y-50556394D01*
X88843050Y-50629645D01*
X88807177Y-50695711D01*
X88782405Y-50747705D01*
X88777286Y-50760923D01*
X88755803Y-50831977D01*
X88739780Y-50902021D01*
X88736942Y-50919673D01*
X88733211Y-50966446D01*
X88743538Y-50986264D01*
X88774325Y-50990494D01*
X88776847Y-50990500D01*
X88825144Y-51002142D01*
X88851958Y-51040268D01*
X88860613Y-51109678D01*
X88860624Y-51111417D01*
X88864322Y-51146333D01*
X88878726Y-51179202D01*
X88909316Y-51217549D01*
X88961572Y-51268898D01*
X89002577Y-51306350D01*
X89130082Y-51423718D01*
X89235814Y-51527345D01*
X89329010Y-51627260D01*
X89418910Y-51733494D01*
X89514755Y-51856079D01*
X89541330Y-51891258D01*
X89610713Y-51984349D01*
X89659562Y-52052764D01*
X89691265Y-52102726D01*
X89709208Y-52140459D01*
X89716778Y-52172186D01*
X89717361Y-52204131D01*
X89716757Y-52213642D01*
X89709731Y-52266106D01*
X89694034Y-52290900D01*
X89662403Y-52299408D01*
X89662000Y-52299447D01*
X89609280Y-52294934D01*
X89577781Y-52283162D01*
X89554325Y-52259470D01*
X89515199Y-52209547D01*
X89465489Y-52140271D01*
X89410278Y-52058519D01*
X89399531Y-52042058D01*
X89333078Y-51942580D01*
X89277055Y-51867267D01*
X89222745Y-51806222D01*
X89161429Y-51749548D01*
X89092980Y-51694046D01*
X88985583Y-51605486D01*
X88884938Y-51513932D01*
X88796643Y-51425158D01*
X88726298Y-51344941D01*
X88679501Y-51279055D01*
X88667345Y-51254959D01*
X88648544Y-51214682D01*
X88632713Y-51206067D01*
X88610323Y-51223655D01*
X88595501Y-51234482D01*
X88572466Y-51242059D01*
X88535776Y-51246616D01*
X88479988Y-51248388D01*
X88399657Y-51247606D01*
X88289343Y-51244501D01*
X88197215Y-51241285D01*
X88048536Y-51235144D01*
X87884669Y-51227159D01*
X87720575Y-51218135D01*
X87571212Y-51208877D01*
X87491833Y-51203318D01*
X87343224Y-51190912D01*
X87224930Y-51175866D01*
X87128742Y-51154270D01*
X87046451Y-51122215D01*
X86969847Y-51075793D01*
X86890723Y-51011096D01*
X86800869Y-50924214D01*
X86711692Y-50831857D01*
X86643260Y-50760793D01*
X86552239Y-50667429D01*
X86443780Y-50556988D01*
X86323034Y-50434691D01*
X86195154Y-50305760D01*
X86065290Y-50175416D01*
X85977259Y-50087423D01*
X85833844Y-49943626D01*
X85716790Y-49824589D01*
X85624123Y-49728163D01*
X85553867Y-49652198D01*
X85504050Y-49594545D01*
X85484283Y-49568386D01*
X85647196Y-49568386D01*
X86125713Y-50053334D01*
X86248469Y-50177943D01*
X86371786Y-50303493D01*
X86490595Y-50424799D01*
X86599831Y-50536675D01*
X86694427Y-50633936D01*
X86769315Y-50711397D01*
X86799615Y-50742998D01*
X86899293Y-50845364D01*
X86982581Y-50923133D01*
X87057849Y-50980158D01*
X87133470Y-51020294D01*
X87217813Y-51047393D01*
X87319251Y-51065308D01*
X87446154Y-51077894D01*
X87542077Y-51084762D01*
X87664621Y-51092224D01*
X87791116Y-51098658D01*
X87915806Y-51103912D01*
X88032930Y-51107835D01*
X88136732Y-51110273D01*
X88221453Y-51111076D01*
X88281335Y-51110089D01*
X88310619Y-51107163D01*
X88312218Y-51105113D01*
X88282255Y-51087561D01*
X88222957Y-51060335D01*
X88141985Y-51026347D01*
X88046999Y-50988511D01*
X87945659Y-50949739D01*
X87845624Y-50912944D01*
X87754555Y-50881037D01*
X87680112Y-50856933D01*
X87629955Y-50843543D01*
X87620231Y-50841991D01*
X87543111Y-50836768D01*
X87445637Y-50833916D01*
X87338588Y-50833330D01*
X87232747Y-50834905D01*
X87138894Y-50838533D01*
X87067811Y-50844109D01*
X87043846Y-50847659D01*
X86982556Y-50850570D01*
X86937029Y-50836198D01*
X86914745Y-50809413D01*
X86917059Y-50800000D01*
X86965692Y-50800000D01*
X86982413Y-50814688D01*
X87014538Y-50819539D01*
X87051257Y-50812850D01*
X87063385Y-50800000D01*
X87056902Y-50794305D01*
X87559795Y-50794305D01*
X87562450Y-50801350D01*
X87586662Y-50817177D01*
X87616047Y-50816947D01*
X87630000Y-50801153D01*
X87614555Y-50773912D01*
X87582653Y-50766447D01*
X87571066Y-50770889D01*
X87559795Y-50794305D01*
X87056902Y-50794305D01*
X87046664Y-50785313D01*
X87014538Y-50780462D01*
X86977820Y-50787150D01*
X86965692Y-50800000D01*
X86917059Y-50800000D01*
X86923186Y-50775086D01*
X86926267Y-50771113D01*
X86957532Y-50749209D01*
X87005501Y-50748351D01*
X87023221Y-50751352D01*
X87083220Y-50759939D01*
X87160143Y-50766845D01*
X87245199Y-50771818D01*
X87329593Y-50774607D01*
X87404532Y-50774963D01*
X87461222Y-50772634D01*
X87490870Y-50767368D01*
X87493231Y-50764762D01*
X87477734Y-50745746D01*
X87436638Y-50712839D01*
X87378034Y-50671241D01*
X87310014Y-50626152D01*
X87240669Y-50582771D01*
X87178090Y-50546299D01*
X87130369Y-50521935D01*
X87105597Y-50514878D01*
X87104878Y-50515199D01*
X87076147Y-50516447D01*
X87026117Y-50505689D01*
X87001182Y-50497789D01*
X86914264Y-50473778D01*
X86852268Y-50470188D01*
X86819238Y-50487249D01*
X86819154Y-50487385D01*
X86791535Y-50501492D01*
X86742566Y-50506620D01*
X86689118Y-50501930D01*
X86664444Y-50495064D01*
X86638889Y-50470388D01*
X86636378Y-50445321D01*
X86692154Y-50445321D01*
X86708190Y-50468935D01*
X86742290Y-50481308D01*
X86757119Y-50480383D01*
X86771507Y-50462436D01*
X87012265Y-50462436D01*
X87014453Y-50467708D01*
X87039187Y-50483314D01*
X87073811Y-50486569D01*
X87099172Y-50477192D01*
X87102462Y-50468999D01*
X87088211Y-50442680D01*
X87081987Y-50437960D01*
X87051049Y-50432155D01*
X87022321Y-50442731D01*
X87012265Y-50462436D01*
X86771507Y-50462436D01*
X86772375Y-50461354D01*
X86772547Y-50457589D01*
X86757498Y-50440437D01*
X86726633Y-50432000D01*
X86699138Y-50435205D01*
X86692154Y-50445321D01*
X86636378Y-50445321D01*
X86635477Y-50436333D01*
X86653560Y-50410442D01*
X86667731Y-50406192D01*
X86734668Y-50406171D01*
X86791135Y-50416345D01*
X86818177Y-50430096D01*
X86850959Y-50443988D01*
X86897807Y-50447721D01*
X86939347Y-50441170D01*
X86954558Y-50430977D01*
X86945438Y-50411727D01*
X86911149Y-50377816D01*
X86859731Y-50335179D01*
X86799225Y-50289750D01*
X86737670Y-50247464D01*
X86683108Y-50214254D01*
X86643578Y-50196055D01*
X86633891Y-50194308D01*
X86584241Y-50183946D01*
X86556212Y-50170752D01*
X86521945Y-50158179D01*
X86489223Y-50174100D01*
X86479105Y-50182842D01*
X86434245Y-50203930D01*
X86377487Y-50207251D01*
X86324342Y-50194499D01*
X86290318Y-50167366D01*
X86287741Y-50161950D01*
X86288033Y-50155231D01*
X86340462Y-50155231D01*
X86357182Y-50169918D01*
X86389308Y-50174769D01*
X86426026Y-50168081D01*
X86438154Y-50155231D01*
X86421433Y-50140543D01*
X86389308Y-50135692D01*
X86352589Y-50142381D01*
X86340462Y-50155231D01*
X86288033Y-50155231D01*
X86289013Y-50132705D01*
X86594462Y-50132705D01*
X86610498Y-50156320D01*
X86644597Y-50168693D01*
X86659427Y-50167768D01*
X86674682Y-50148739D01*
X86674855Y-50144973D01*
X86659806Y-50127822D01*
X86628941Y-50119385D01*
X86601446Y-50122589D01*
X86594462Y-50132705D01*
X86289013Y-50132705D01*
X86289238Y-50127546D01*
X86321539Y-50107678D01*
X86378779Y-50103374D01*
X86455095Y-50115662D01*
X86491885Y-50126165D01*
X86527411Y-50130017D01*
X86535846Y-50118678D01*
X86518983Y-50097582D01*
X86474881Y-50068407D01*
X86413274Y-50035731D01*
X86343893Y-50004132D01*
X86276470Y-49978186D01*
X86220739Y-49962471D01*
X86198145Y-49959846D01*
X86140879Y-49951768D01*
X86095818Y-49932653D01*
X86070911Y-49907556D01*
X86072721Y-49901231D01*
X86125538Y-49901231D01*
X86142259Y-49915918D01*
X86174385Y-49920769D01*
X86211103Y-49914081D01*
X86223231Y-49901231D01*
X86206510Y-49886543D01*
X86174385Y-49881692D01*
X86137666Y-49888381D01*
X86125538Y-49901231D01*
X86072721Y-49901231D01*
X86078082Y-49882498D01*
X86084707Y-49874037D01*
X86123953Y-49850136D01*
X86176472Y-49844773D01*
X86229055Y-49855489D01*
X86268496Y-49879826D01*
X86281846Y-49910731D01*
X86298197Y-49933655D01*
X86340785Y-49966421D01*
X86399908Y-50003525D01*
X86465867Y-50039458D01*
X86528963Y-50068713D01*
X86579496Y-50085785D01*
X86594037Y-50087970D01*
X86667070Y-50092670D01*
X86710246Y-50099012D01*
X86732776Y-50109440D01*
X86743873Y-50126399D01*
X86744460Y-50127895D01*
X86742611Y-50162323D01*
X86731695Y-50174483D01*
X86731911Y-50192773D01*
X86758966Y-50224814D01*
X86805554Y-50265359D01*
X86864366Y-50309160D01*
X86928093Y-50350971D01*
X86989427Y-50385544D01*
X87041061Y-50407632D01*
X87063385Y-50412628D01*
X87122032Y-50428832D01*
X87150300Y-50461205D01*
X87177932Y-50495536D01*
X87231510Y-50541508D01*
X87302040Y-50593267D01*
X87380528Y-50644957D01*
X87457979Y-50690723D01*
X87525400Y-50724708D01*
X87573797Y-50741057D01*
X87581154Y-50741707D01*
X87647040Y-50750947D01*
X87683622Y-50779896D01*
X87691053Y-50796562D01*
X87711585Y-50814589D01*
X87760373Y-50842634D01*
X87829336Y-50876349D01*
X87884482Y-50900655D01*
X88017436Y-50956473D01*
X88117424Y-50997570D01*
X88187229Y-51025002D01*
X88229635Y-51039827D01*
X88247426Y-51043102D01*
X88245462Y-51037776D01*
X88217018Y-51015256D01*
X88159892Y-50974288D01*
X88078233Y-50917615D01*
X88034994Y-50888108D01*
X88281149Y-50888108D01*
X88298932Y-50912617D01*
X88351917Y-50954074D01*
X88407985Y-50991882D01*
X88479258Y-51040632D01*
X88538791Y-51085868D01*
X88578135Y-51120947D01*
X88588114Y-51133517D01*
X88609884Y-51166768D01*
X88618007Y-51164788D01*
X88609619Y-51129908D01*
X88605713Y-51119203D01*
X88596131Y-51068246D01*
X88605930Y-51047178D01*
X88612807Y-51018509D01*
X88584480Y-50985297D01*
X88524177Y-50950064D01*
X88438881Y-50916577D01*
X88351136Y-50890058D01*
X88298554Y-50880578D01*
X88281149Y-50888108D01*
X88034994Y-50888108D01*
X87976191Y-50847981D01*
X87857916Y-50768129D01*
X87727557Y-50680803D01*
X87589263Y-50588745D01*
X87447185Y-50494699D01*
X87305472Y-50401409D01*
X87168274Y-50311618D01*
X87039739Y-50228069D01*
X86924019Y-50153506D01*
X86825261Y-50090672D01*
X86747617Y-50042310D01*
X86695235Y-50011164D01*
X86681030Y-50003505D01*
X86581229Y-49954917D01*
X86464346Y-49900210D01*
X86337227Y-49842370D01*
X86206717Y-49784381D01*
X86079663Y-49729226D01*
X85962909Y-49679891D01*
X85863303Y-49639358D01*
X85787689Y-49610613D01*
X85754482Y-49599615D01*
X85647196Y-49568386D01*
X85484283Y-49568386D01*
X85472696Y-49553053D01*
X85457832Y-49525574D01*
X85456390Y-49520281D01*
X85455463Y-49469450D01*
X85480557Y-49441980D01*
X85536882Y-49432733D01*
X85545297Y-49432607D01*
X85613336Y-49437668D01*
X85695664Y-49454357D01*
X85795820Y-49483911D01*
X85917339Y-49527570D01*
X86063759Y-49586572D01*
X86238617Y-49662156D01*
X86373160Y-49722563D01*
X86509117Y-49784472D01*
X86622010Y-49836707D01*
X86717976Y-49882780D01*
X86803149Y-49926202D01*
X86883668Y-49970487D01*
X86965668Y-50019147D01*
X87055285Y-50075692D01*
X87158657Y-50143637D01*
X87281919Y-50226492D01*
X87431208Y-50327770D01*
X87434615Y-50330085D01*
X87571902Y-50423445D01*
X87704225Y-50513588D01*
X87826738Y-50597200D01*
X87934598Y-50670971D01*
X88022959Y-50731586D01*
X88086976Y-50775735D01*
X88113254Y-50794044D01*
X88168714Y-50830484D01*
X88207820Y-50851204D01*
X88223956Y-50852870D01*
X88223510Y-50849603D01*
X88217339Y-50831095D01*
X88222074Y-50822455D01*
X88245391Y-50823144D01*
X88294970Y-50832623D01*
X88337307Y-50841622D01*
X88429119Y-50866244D01*
X88517642Y-50898706D01*
X88593174Y-50934629D01*
X88646010Y-50969635D01*
X88662855Y-50988501D01*
X88680159Y-51013166D01*
X88685988Y-51014923D01*
X88689084Y-50991229D01*
X88694460Y-50942772D01*
X88697134Y-50917231D01*
X88716674Y-50805785D01*
X88754153Y-50696131D01*
X88813505Y-50578954D01*
X88892994Y-50453269D01*
X88942828Y-50377176D01*
X88983131Y-50310707D01*
X89009369Y-50261665D01*
X89017231Y-50239359D01*
X89005204Y-50197074D01*
X88975699Y-50142507D01*
X88938583Y-50091296D01*
X88903719Y-50059077D01*
X88903366Y-50058876D01*
X88882500Y-50037655D01*
X88892493Y-50018393D01*
X88918113Y-50015925D01*
X88953312Y-50040541D01*
X88991499Y-50083748D01*
X89026086Y-50137054D01*
X89050482Y-50191968D01*
X89058254Y-50232017D01*
X89061746Y-50239094D01*
X89070075Y-50212257D01*
X89082162Y-50156218D01*
X89096928Y-50075690D01*
X89104895Y-50028231D01*
X89125805Y-49901838D01*
X89142723Y-49806093D01*
X89157699Y-49733039D01*
X89172781Y-49674717D01*
X89190018Y-49623169D01*
X89211459Y-49570436D01*
X89238069Y-49510936D01*
X89265905Y-49446796D01*
X89303328Y-49356281D01*
X89346204Y-49249603D01*
X89390398Y-49136976D01*
X89408509Y-49089960D01*
X89448438Y-48987350D01*
X89483290Y-48903868D01*
X89517635Y-48831302D01*
X89556040Y-48761437D01*
X89603077Y-48686061D01*
X89663314Y-48596960D01*
X89741320Y-48485921D01*
X89756352Y-48464729D01*
X89838077Y-48350444D01*
X89902328Y-48263277D01*
X89953644Y-48198061D01*
X89996565Y-48149630D01*
X90035633Y-48112817D01*
X90075386Y-48082453D01*
X90114740Y-48056842D01*
X90237645Y-47980685D01*
X90344483Y-48007996D01*
X90344483Y-48007996D01*
G37*
X90344483Y-48007996D02*
X90406843Y-48026680D01*
X90448091Y-48050256D01*
X90482154Y-48089491D01*
X90512858Y-48138164D01*
X90539138Y-48184547D01*
X90557228Y-48226273D01*
X90569184Y-48272955D01*
X90577065Y-48334208D01*
X90582927Y-48419647D01*
X90586020Y-48480087D01*
X90594825Y-48615967D01*
X90608393Y-48737653D01*
X90628794Y-48855041D01*
X90658095Y-48978025D01*
X90698366Y-49116500D01*
X90751674Y-49280361D01*
X90755973Y-49293117D01*
X90806870Y-49455117D01*
X90839548Y-49588101D01*
X90854579Y-49697317D01*
X90852539Y-49788010D01*
X90834001Y-49865425D01*
X90821789Y-49894496D01*
X90796980Y-49937203D01*
X90761981Y-49977350D01*
X90711363Y-50019058D01*
X90639691Y-50066449D01*
X90541536Y-50123646D01*
X90462311Y-50167301D01*
X90353424Y-50227817D01*
X90247180Y-50289966D01*
X90137848Y-50357453D01*
X90019696Y-50433982D01*
X89886992Y-50523258D01*
X89734006Y-50628987D01*
X89573034Y-50742123D01*
X89445278Y-50831383D01*
X89343087Y-50900093D01*
X89261032Y-50951498D01*
X89193680Y-50988844D01*
X89135600Y-51015374D01*
X89086484Y-51032773D01*
X89020495Y-51052310D01*
X88971279Y-51065285D01*
X88948556Y-51069158D01*
X88948105Y-51068937D01*
X88949540Y-51048958D01*
X88956269Y-50996474D01*
X88967432Y-50917568D01*
X88971945Y-50887170D01*
X89096969Y-50887170D01*
X89102283Y-50891170D01*
X89119811Y-50868385D01*
X89135988Y-50841051D01*
X89167380Y-50783963D01*
X89211324Y-50702114D01*
X89265159Y-50600498D01*
X89326222Y-50484108D01*
X89390161Y-50361204D01*
X89455046Y-50234933D01*
X89514111Y-50118005D01*
X89564874Y-50015495D01*
X89604852Y-49932477D01*
X89631562Y-49874025D01*
X89642462Y-49845525D01*
X89655137Y-49820058D01*
X89705330Y-49820058D01*
X89711101Y-49839471D01*
X89731400Y-49839597D01*
X89765666Y-49820858D01*
X89774977Y-49806557D01*
X89769206Y-49787145D01*
X89748908Y-49787019D01*
X89714641Y-49805758D01*
X89705330Y-49820058D01*
X89655137Y-49820058D01*
X89665327Y-49799584D01*
X89691308Y-49776320D01*
X89722826Y-49756135D01*
X89743755Y-49731430D01*
X89759003Y-49692145D01*
X89773480Y-49628214D01*
X89779932Y-49594670D01*
X89791708Y-49519941D01*
X89792365Y-49473315D01*
X89781918Y-49445438D01*
X89780169Y-49443208D01*
X89769151Y-49416104D01*
X89776043Y-49404551D01*
X89820581Y-49404551D01*
X89828897Y-49411330D01*
X89851347Y-49412148D01*
X89890333Y-49405246D01*
X89905396Y-49394581D01*
X89908030Y-49371818D01*
X89886374Y-49365782D01*
X89852431Y-49378704D01*
X89845609Y-49383466D01*
X89820581Y-49404551D01*
X89776043Y-49404551D01*
X89787585Y-49385206D01*
X89795869Y-49376593D01*
X89813658Y-49347303D01*
X90294184Y-49347303D01*
X90314436Y-49353993D01*
X90323915Y-49354154D01*
X90357604Y-49342487D01*
X90365385Y-49324846D01*
X90356106Y-49298827D01*
X90348238Y-49295539D01*
X90322775Y-49308906D01*
X90306769Y-49324846D01*
X90294184Y-49347303D01*
X89813658Y-49347303D01*
X89820455Y-49336112D01*
X89841091Y-49274761D01*
X89855483Y-49205290D01*
X89861336Y-49140447D01*
X89856357Y-49092983D01*
X89849253Y-49079917D01*
X89843722Y-49056222D01*
X89845270Y-49054226D01*
X89903415Y-49054226D01*
X89923667Y-49060916D01*
X89933146Y-49061077D01*
X89966835Y-49049410D01*
X89974615Y-49031769D01*
X89965337Y-49005750D01*
X89957469Y-49002462D01*
X89932006Y-49015829D01*
X89916000Y-49031769D01*
X89903415Y-49054226D01*
X89845270Y-49054226D01*
X89869747Y-49022679D01*
X89881549Y-49012031D01*
X89914869Y-48970107D01*
X89953333Y-48902567D01*
X89991630Y-48821450D01*
X90024450Y-48738793D01*
X90046480Y-48666633D01*
X90052769Y-48623981D01*
X90070532Y-48569597D01*
X90135177Y-48569597D01*
X90140947Y-48589009D01*
X90161246Y-48589135D01*
X90195512Y-48570396D01*
X90204823Y-48556096D01*
X90199052Y-48536683D01*
X90178754Y-48536557D01*
X90144488Y-48555296D01*
X90135177Y-48569597D01*
X90070532Y-48569597D01*
X90070947Y-48568328D01*
X90121039Y-48525016D01*
X90185635Y-48502081D01*
X90233119Y-48498415D01*
X90256592Y-48514672D01*
X90259808Y-48521636D01*
X90258071Y-48565145D01*
X90220049Y-48603574D01*
X90150719Y-48633462D01*
X90113634Y-48646985D01*
X90086831Y-48666647D01*
X90063914Y-48700960D01*
X90038490Y-48758433D01*
X90018830Y-48808993D01*
X89960201Y-48962575D01*
X90025030Y-48974737D01*
X90077374Y-48976533D01*
X90082472Y-48975125D01*
X90212221Y-48975125D01*
X90224466Y-48982466D01*
X90242814Y-48982923D01*
X90281536Y-48975393D01*
X90296166Y-48964735D01*
X90298095Y-48941404D01*
X90276616Y-48932516D01*
X90245664Y-48941001D01*
X90232323Y-48951304D01*
X90212221Y-48975125D01*
X90082472Y-48975125D01*
X90137371Y-48959963D01*
X90198198Y-48932042D01*
X90262176Y-48902165D01*
X90301841Y-48891221D01*
X90325868Y-48897194D01*
X90330638Y-48901284D01*
X90342678Y-48933993D01*
X90325685Y-48968523D01*
X90288786Y-48998273D01*
X90241106Y-49016641D01*
X90191772Y-49017027D01*
X90177171Y-49012294D01*
X90121055Y-49000756D01*
X90065947Y-49008143D01*
X90028721Y-49031858D01*
X90026351Y-49035511D01*
X89997972Y-49062294D01*
X89950413Y-49089387D01*
X89943312Y-49092478D01*
X89897724Y-49117439D01*
X89879320Y-49149895D01*
X89876656Y-49183455D01*
X89873141Y-49241544D01*
X89865703Y-49286467D01*
X89863364Y-49308642D01*
X89874372Y-49323569D01*
X89904598Y-49332624D01*
X89959911Y-49337182D01*
X90046184Y-49338622D01*
X90088235Y-49338637D01*
X90180388Y-49334701D01*
X90239354Y-49322716D01*
X90264081Y-49308706D01*
X90314518Y-49276142D01*
X90365284Y-49262982D01*
X90404381Y-49270947D01*
X90417307Y-49286740D01*
X90414594Y-49325195D01*
X90384375Y-49359269D01*
X90338202Y-49383445D01*
X90287630Y-49392210D01*
X90244212Y-49380047D01*
X90236016Y-49373277D01*
X90205694Y-49364723D01*
X90149971Y-49364998D01*
X90081067Y-49372364D01*
X90011202Y-49385083D01*
X89952597Y-49401418D01*
X89918848Y-49418384D01*
X89877262Y-49446644D01*
X89855010Y-49457069D01*
X89830608Y-49485495D01*
X89808520Y-49552522D01*
X89798882Y-49597786D01*
X89786705Y-49667673D01*
X89783631Y-49709833D01*
X89790469Y-49734725D01*
X89808025Y-49752808D01*
X89811026Y-49755120D01*
X89848070Y-49774062D01*
X89869244Y-49775366D01*
X89897326Y-49770590D01*
X89954345Y-49764133D01*
X90030258Y-49757071D01*
X90070145Y-49753808D01*
X90175339Y-49742508D01*
X90187892Y-49739824D01*
X90330078Y-49739824D01*
X90346357Y-49744153D01*
X90364789Y-49741915D01*
X90403866Y-49727540D01*
X90419213Y-49710731D01*
X90414644Y-49690163D01*
X90389795Y-49688394D01*
X90357958Y-49704225D01*
X90344289Y-49717492D01*
X90330078Y-49739824D01*
X90187892Y-49739824D01*
X90247304Y-49727121D01*
X90291788Y-49706383D01*
X90294289Y-49704488D01*
X90347389Y-49672737D01*
X90391168Y-49656139D01*
X90437889Y-49656235D01*
X90459609Y-49679297D01*
X90452950Y-49715744D01*
X90423879Y-49748950D01*
X90386271Y-49771432D01*
X90339956Y-49778515D01*
X90278967Y-49774012D01*
X90202885Y-49769990D01*
X90112162Y-49772846D01*
X90016944Y-49781328D01*
X89927379Y-49794182D01*
X89853614Y-49810154D01*
X89805795Y-49827992D01*
X89798151Y-49833406D01*
X89752486Y-49862455D01*
X89711095Y-49878530D01*
X89693008Y-49886950D01*
X89672740Y-49905222D01*
X89647964Y-49937123D01*
X89616350Y-49986431D01*
X89575571Y-50056924D01*
X89523297Y-50152379D01*
X89457200Y-50276574D01*
X89407719Y-50370690D01*
X89342668Y-50495659D01*
X89284515Y-50609054D01*
X89235498Y-50706376D01*
X89197851Y-50783127D01*
X89173811Y-50834811D01*
X89165614Y-50856929D01*
X89165757Y-50857347D01*
X89184203Y-50850382D01*
X89227432Y-50824842D01*
X89288534Y-50785011D01*
X89344918Y-50746244D01*
X89532972Y-50615600D01*
X89717976Y-50489673D01*
X89894942Y-50371722D01*
X90058883Y-50265007D01*
X90204812Y-50172788D01*
X90327739Y-50098324D01*
X90396145Y-50059219D01*
X90485028Y-50007940D01*
X90566369Y-49956963D01*
X90631079Y-49912240D01*
X90669683Y-49880126D01*
X90706294Y-49828326D01*
X90725726Y-49764152D01*
X90727690Y-49683092D01*
X90711895Y-49580635D01*
X90678052Y-49452268D01*
X90633382Y-49315077D01*
X90579047Y-49151099D01*
X90538291Y-49009751D01*
X90508393Y-48878150D01*
X90486630Y-48743410D01*
X90470282Y-48592648D01*
X90463591Y-48511224D01*
X90454733Y-48403702D01*
X90446136Y-48327187D01*
X90436068Y-48273659D01*
X90422795Y-48235099D01*
X90404586Y-48203487D01*
X90393960Y-48188918D01*
X90349130Y-48144763D01*
X90299388Y-48125689D01*
X90243119Y-48133005D01*
X90178706Y-48168021D01*
X90104536Y-48232046D01*
X90018993Y-48326389D01*
X89920462Y-48452359D01*
X89807328Y-48611265D01*
X89727798Y-48728923D01*
X89678430Y-48812199D01*
X89621402Y-48925585D01*
X89555696Y-49071274D01*
X89480292Y-49251458D01*
X89450714Y-49324846D01*
X89271133Y-49774231D01*
X89192702Y-50282231D01*
X89171101Y-50421637D01*
X89150915Y-50550961D01*
X89133068Y-50664357D01*
X89118485Y-50755978D01*
X89108089Y-50819980D01*
X89103131Y-50848846D01*
X89096969Y-50887170D01*
X88971945Y-50887170D01*
X88982168Y-50818326D01*
X88999614Y-50704830D01*
X88999981Y-50702478D01*
X89017464Y-50587713D01*
X89032107Y-50486064D01*
X89043059Y-50403892D01*
X89049475Y-50347562D01*
X89050505Y-50323438D01*
X89050503Y-50323431D01*
X89038361Y-50329292D01*
X89011510Y-50362406D01*
X88974252Y-50415887D01*
X88930888Y-50482845D01*
X88885721Y-50556394D01*
X88843050Y-50629645D01*
X88807177Y-50695711D01*
X88782405Y-50747705D01*
X88777286Y-50760923D01*
X88755803Y-50831977D01*
X88739780Y-50902021D01*
X88736942Y-50919673D01*
X88733211Y-50966446D01*
X88743538Y-50986264D01*
X88774325Y-50990494D01*
X88776847Y-50990500D01*
X88825144Y-51002142D01*
X88851958Y-51040268D01*
X88860613Y-51109678D01*
X88860624Y-51111417D01*
X88864322Y-51146333D01*
X88878726Y-51179202D01*
X88909316Y-51217549D01*
X88961572Y-51268898D01*
X89002577Y-51306350D01*
X89130082Y-51423718D01*
X89235814Y-51527345D01*
X89329010Y-51627260D01*
X89418910Y-51733494D01*
X89514755Y-51856079D01*
X89541330Y-51891258D01*
X89610713Y-51984349D01*
X89659562Y-52052764D01*
X89691265Y-52102726D01*
X89709208Y-52140459D01*
X89716778Y-52172186D01*
X89717361Y-52204131D01*
X89716757Y-52213642D01*
X89709731Y-52266106D01*
X89694034Y-52290900D01*
X89662403Y-52299408D01*
X89662000Y-52299447D01*
X89609280Y-52294934D01*
X89577781Y-52283162D01*
X89554325Y-52259470D01*
X89515199Y-52209547D01*
X89465489Y-52140271D01*
X89410278Y-52058519D01*
X89399531Y-52042058D01*
X89333078Y-51942580D01*
X89277055Y-51867267D01*
X89222745Y-51806222D01*
X89161429Y-51749548D01*
X89092980Y-51694046D01*
X88985583Y-51605486D01*
X88884938Y-51513932D01*
X88796643Y-51425158D01*
X88726298Y-51344941D01*
X88679501Y-51279055D01*
X88667345Y-51254959D01*
X88648544Y-51214682D01*
X88632713Y-51206067D01*
X88610323Y-51223655D01*
X88595501Y-51234482D01*
X88572466Y-51242059D01*
X88535776Y-51246616D01*
X88479988Y-51248388D01*
X88399657Y-51247606D01*
X88289343Y-51244501D01*
X88197215Y-51241285D01*
X88048536Y-51235144D01*
X87884669Y-51227159D01*
X87720575Y-51218135D01*
X87571212Y-51208877D01*
X87491833Y-51203318D01*
X87343224Y-51190912D01*
X87224930Y-51175866D01*
X87128742Y-51154270D01*
X87046451Y-51122215D01*
X86969847Y-51075793D01*
X86890723Y-51011096D01*
X86800869Y-50924214D01*
X86711692Y-50831857D01*
X86643260Y-50760793D01*
X86552239Y-50667429D01*
X86443780Y-50556988D01*
X86323034Y-50434691D01*
X86195154Y-50305760D01*
X86065290Y-50175416D01*
X85977259Y-50087423D01*
X85833844Y-49943626D01*
X85716790Y-49824589D01*
X85624123Y-49728163D01*
X85553867Y-49652198D01*
X85504050Y-49594545D01*
X85484283Y-49568386D01*
X85647196Y-49568386D01*
X86125713Y-50053334D01*
X86248469Y-50177943D01*
X86371786Y-50303493D01*
X86490595Y-50424799D01*
X86599831Y-50536675D01*
X86694427Y-50633936D01*
X86769315Y-50711397D01*
X86799615Y-50742998D01*
X86899293Y-50845364D01*
X86982581Y-50923133D01*
X87057849Y-50980158D01*
X87133470Y-51020294D01*
X87217813Y-51047393D01*
X87319251Y-51065308D01*
X87446154Y-51077894D01*
X87542077Y-51084762D01*
X87664621Y-51092224D01*
X87791116Y-51098658D01*
X87915806Y-51103912D01*
X88032930Y-51107835D01*
X88136732Y-51110273D01*
X88221453Y-51111076D01*
X88281335Y-51110089D01*
X88310619Y-51107163D01*
X88312218Y-51105113D01*
X88282255Y-51087561D01*
X88222957Y-51060335D01*
X88141985Y-51026347D01*
X88046999Y-50988511D01*
X87945659Y-50949739D01*
X87845624Y-50912944D01*
X87754555Y-50881037D01*
X87680112Y-50856933D01*
X87629955Y-50843543D01*
X87620231Y-50841991D01*
X87543111Y-50836768D01*
X87445637Y-50833916D01*
X87338588Y-50833330D01*
X87232747Y-50834905D01*
X87138894Y-50838533D01*
X87067811Y-50844109D01*
X87043846Y-50847659D01*
X86982556Y-50850570D01*
X86937029Y-50836198D01*
X86914745Y-50809413D01*
X86917059Y-50800000D01*
X86965692Y-50800000D01*
X86982413Y-50814688D01*
X87014538Y-50819539D01*
X87051257Y-50812850D01*
X87063385Y-50800000D01*
X87056902Y-50794305D01*
X87559795Y-50794305D01*
X87562450Y-50801350D01*
X87586662Y-50817177D01*
X87616047Y-50816947D01*
X87630000Y-50801153D01*
X87614555Y-50773912D01*
X87582653Y-50766447D01*
X87571066Y-50770889D01*
X87559795Y-50794305D01*
X87056902Y-50794305D01*
X87046664Y-50785313D01*
X87014538Y-50780462D01*
X86977820Y-50787150D01*
X86965692Y-50800000D01*
X86917059Y-50800000D01*
X86923186Y-50775086D01*
X86926267Y-50771113D01*
X86957532Y-50749209D01*
X87005501Y-50748351D01*
X87023221Y-50751352D01*
X87083220Y-50759939D01*
X87160143Y-50766845D01*
X87245199Y-50771818D01*
X87329593Y-50774607D01*
X87404532Y-50774963D01*
X87461222Y-50772634D01*
X87490870Y-50767368D01*
X87493231Y-50764762D01*
X87477734Y-50745746D01*
X87436638Y-50712839D01*
X87378034Y-50671241D01*
X87310014Y-50626152D01*
X87240669Y-50582771D01*
X87178090Y-50546299D01*
X87130369Y-50521935D01*
X87105597Y-50514878D01*
X87104878Y-50515199D01*
X87076147Y-50516447D01*
X87026117Y-50505689D01*
X87001182Y-50497789D01*
X86914264Y-50473778D01*
X86852268Y-50470188D01*
X86819238Y-50487249D01*
X86819154Y-50487385D01*
X86791535Y-50501492D01*
X86742566Y-50506620D01*
X86689118Y-50501930D01*
X86664444Y-50495064D01*
X86638889Y-50470388D01*
X86636378Y-50445321D01*
X86692154Y-50445321D01*
X86708190Y-50468935D01*
X86742290Y-50481308D01*
X86757119Y-50480383D01*
X86771507Y-50462436D01*
X87012265Y-50462436D01*
X87014453Y-50467708D01*
X87039187Y-50483314D01*
X87073811Y-50486569D01*
X87099172Y-50477192D01*
X87102462Y-50468999D01*
X87088211Y-50442680D01*
X87081987Y-50437960D01*
X87051049Y-50432155D01*
X87022321Y-50442731D01*
X87012265Y-50462436D01*
X86771507Y-50462436D01*
X86772375Y-50461354D01*
X86772547Y-50457589D01*
X86757498Y-50440437D01*
X86726633Y-50432000D01*
X86699138Y-50435205D01*
X86692154Y-50445321D01*
X86636378Y-50445321D01*
X86635477Y-50436333D01*
X86653560Y-50410442D01*
X86667731Y-50406192D01*
X86734668Y-50406171D01*
X86791135Y-50416345D01*
X86818177Y-50430096D01*
X86850959Y-50443988D01*
X86897807Y-50447721D01*
X86939347Y-50441170D01*
X86954558Y-50430977D01*
X86945438Y-50411727D01*
X86911149Y-50377816D01*
X86859731Y-50335179D01*
X86799225Y-50289750D01*
X86737670Y-50247464D01*
X86683108Y-50214254D01*
X86643578Y-50196055D01*
X86633891Y-50194308D01*
X86584241Y-50183946D01*
X86556212Y-50170752D01*
X86521945Y-50158179D01*
X86489223Y-50174100D01*
X86479105Y-50182842D01*
X86434245Y-50203930D01*
X86377487Y-50207251D01*
X86324342Y-50194499D01*
X86290318Y-50167366D01*
X86287741Y-50161950D01*
X86288033Y-50155231D01*
X86340462Y-50155231D01*
X86357182Y-50169918D01*
X86389308Y-50174769D01*
X86426026Y-50168081D01*
X86438154Y-50155231D01*
X86421433Y-50140543D01*
X86389308Y-50135692D01*
X86352589Y-50142381D01*
X86340462Y-50155231D01*
X86288033Y-50155231D01*
X86289013Y-50132705D01*
X86594462Y-50132705D01*
X86610498Y-50156320D01*
X86644597Y-50168693D01*
X86659427Y-50167768D01*
X86674682Y-50148739D01*
X86674855Y-50144973D01*
X86659806Y-50127822D01*
X86628941Y-50119385D01*
X86601446Y-50122589D01*
X86594462Y-50132705D01*
X86289013Y-50132705D01*
X86289238Y-50127546D01*
X86321539Y-50107678D01*
X86378779Y-50103374D01*
X86455095Y-50115662D01*
X86491885Y-50126165D01*
X86527411Y-50130017D01*
X86535846Y-50118678D01*
X86518983Y-50097582D01*
X86474881Y-50068407D01*
X86413274Y-50035731D01*
X86343893Y-50004132D01*
X86276470Y-49978186D01*
X86220739Y-49962471D01*
X86198145Y-49959846D01*
X86140879Y-49951768D01*
X86095818Y-49932653D01*
X86070911Y-49907556D01*
X86072721Y-49901231D01*
X86125538Y-49901231D01*
X86142259Y-49915918D01*
X86174385Y-49920769D01*
X86211103Y-49914081D01*
X86223231Y-49901231D01*
X86206510Y-49886543D01*
X86174385Y-49881692D01*
X86137666Y-49888381D01*
X86125538Y-49901231D01*
X86072721Y-49901231D01*
X86078082Y-49882498D01*
X86084707Y-49874037D01*
X86123953Y-49850136D01*
X86176472Y-49844773D01*
X86229055Y-49855489D01*
X86268496Y-49879826D01*
X86281846Y-49910731D01*
X86298197Y-49933655D01*
X86340785Y-49966421D01*
X86399908Y-50003525D01*
X86465867Y-50039458D01*
X86528963Y-50068713D01*
X86579496Y-50085785D01*
X86594037Y-50087970D01*
X86667070Y-50092670D01*
X86710246Y-50099012D01*
X86732776Y-50109440D01*
X86743873Y-50126399D01*
X86744460Y-50127895D01*
X86742611Y-50162323D01*
X86731695Y-50174483D01*
X86731911Y-50192773D01*
X86758966Y-50224814D01*
X86805554Y-50265359D01*
X86864366Y-50309160D01*
X86928093Y-50350971D01*
X86989427Y-50385544D01*
X87041061Y-50407632D01*
X87063385Y-50412628D01*
X87122032Y-50428832D01*
X87150300Y-50461205D01*
X87177932Y-50495536D01*
X87231510Y-50541508D01*
X87302040Y-50593267D01*
X87380528Y-50644957D01*
X87457979Y-50690723D01*
X87525400Y-50724708D01*
X87573797Y-50741057D01*
X87581154Y-50741707D01*
X87647040Y-50750947D01*
X87683622Y-50779896D01*
X87691053Y-50796562D01*
X87711585Y-50814589D01*
X87760373Y-50842634D01*
X87829336Y-50876349D01*
X87884482Y-50900655D01*
X88017436Y-50956473D01*
X88117424Y-50997570D01*
X88187229Y-51025002D01*
X88229635Y-51039827D01*
X88247426Y-51043102D01*
X88245462Y-51037776D01*
X88217018Y-51015256D01*
X88159892Y-50974288D01*
X88078233Y-50917615D01*
X88034994Y-50888108D01*
X88281149Y-50888108D01*
X88298932Y-50912617D01*
X88351917Y-50954074D01*
X88407985Y-50991882D01*
X88479258Y-51040632D01*
X88538791Y-51085868D01*
X88578135Y-51120947D01*
X88588114Y-51133517D01*
X88609884Y-51166768D01*
X88618007Y-51164788D01*
X88609619Y-51129908D01*
X88605713Y-51119203D01*
X88596131Y-51068246D01*
X88605930Y-51047178D01*
X88612807Y-51018509D01*
X88584480Y-50985297D01*
X88524177Y-50950064D01*
X88438881Y-50916577D01*
X88351136Y-50890058D01*
X88298554Y-50880578D01*
X88281149Y-50888108D01*
X88034994Y-50888108D01*
X87976191Y-50847981D01*
X87857916Y-50768129D01*
X87727557Y-50680803D01*
X87589263Y-50588745D01*
X87447185Y-50494699D01*
X87305472Y-50401409D01*
X87168274Y-50311618D01*
X87039739Y-50228069D01*
X86924019Y-50153506D01*
X86825261Y-50090672D01*
X86747617Y-50042310D01*
X86695235Y-50011164D01*
X86681030Y-50003505D01*
X86581229Y-49954917D01*
X86464346Y-49900210D01*
X86337227Y-49842370D01*
X86206717Y-49784381D01*
X86079663Y-49729226D01*
X85962909Y-49679891D01*
X85863303Y-49639358D01*
X85787689Y-49610613D01*
X85754482Y-49599615D01*
X85647196Y-49568386D01*
X85484283Y-49568386D01*
X85472696Y-49553053D01*
X85457832Y-49525574D01*
X85456390Y-49520281D01*
X85455463Y-49469450D01*
X85480557Y-49441980D01*
X85536882Y-49432733D01*
X85545297Y-49432607D01*
X85613336Y-49437668D01*
X85695664Y-49454357D01*
X85795820Y-49483911D01*
X85917339Y-49527570D01*
X86063759Y-49586572D01*
X86238617Y-49662156D01*
X86373160Y-49722563D01*
X86509117Y-49784472D01*
X86622010Y-49836707D01*
X86717976Y-49882780D01*
X86803149Y-49926202D01*
X86883668Y-49970487D01*
X86965668Y-50019147D01*
X87055285Y-50075692D01*
X87158657Y-50143637D01*
X87281919Y-50226492D01*
X87431208Y-50327770D01*
X87434615Y-50330085D01*
X87571902Y-50423445D01*
X87704225Y-50513588D01*
X87826738Y-50597200D01*
X87934598Y-50670971D01*
X88022959Y-50731586D01*
X88086976Y-50775735D01*
X88113254Y-50794044D01*
X88168714Y-50830484D01*
X88207820Y-50851204D01*
X88223956Y-50852870D01*
X88223510Y-50849603D01*
X88217339Y-50831095D01*
X88222074Y-50822455D01*
X88245391Y-50823144D01*
X88294970Y-50832623D01*
X88337307Y-50841622D01*
X88429119Y-50866244D01*
X88517642Y-50898706D01*
X88593174Y-50934629D01*
X88646010Y-50969635D01*
X88662855Y-50988501D01*
X88680159Y-51013166D01*
X88685988Y-51014923D01*
X88689084Y-50991229D01*
X88694460Y-50942772D01*
X88697134Y-50917231D01*
X88716674Y-50805785D01*
X88754153Y-50696131D01*
X88813505Y-50578954D01*
X88892994Y-50453269D01*
X88942828Y-50377176D01*
X88983131Y-50310707D01*
X89009369Y-50261665D01*
X89017231Y-50239359D01*
X89005204Y-50197074D01*
X88975699Y-50142507D01*
X88938583Y-50091296D01*
X88903719Y-50059077D01*
X88903366Y-50058876D01*
X88882500Y-50037655D01*
X88892493Y-50018393D01*
X88918113Y-50015925D01*
X88953312Y-50040541D01*
X88991499Y-50083748D01*
X89026086Y-50137054D01*
X89050482Y-50191968D01*
X89058254Y-50232017D01*
X89061746Y-50239094D01*
X89070075Y-50212257D01*
X89082162Y-50156218D01*
X89096928Y-50075690D01*
X89104895Y-50028231D01*
X89125805Y-49901838D01*
X89142723Y-49806093D01*
X89157699Y-49733039D01*
X89172781Y-49674717D01*
X89190018Y-49623169D01*
X89211459Y-49570436D01*
X89238069Y-49510936D01*
X89265905Y-49446796D01*
X89303328Y-49356281D01*
X89346204Y-49249603D01*
X89390398Y-49136976D01*
X89408509Y-49089960D01*
X89448438Y-48987350D01*
X89483290Y-48903868D01*
X89517635Y-48831302D01*
X89556040Y-48761437D01*
X89603077Y-48686061D01*
X89663314Y-48596960D01*
X89741320Y-48485921D01*
X89756352Y-48464729D01*
X89838077Y-48350444D01*
X89902328Y-48263277D01*
X89953644Y-48198061D01*
X89996565Y-48149630D01*
X90035633Y-48112817D01*
X90075386Y-48082453D01*
X90114740Y-48056842D01*
X90237645Y-47980685D01*
X90344483Y-48007996D01*
G36*
X90948145Y-50046016D02*
X90948818Y-50046363D01*
X91016925Y-50093784D01*
X91093158Y-50166138D01*
X91168493Y-50253248D01*
X91233901Y-50344936D01*
X91269990Y-50408493D01*
X91294852Y-50460818D01*
X91312253Y-50505694D01*
X91323746Y-50552177D01*
X91330888Y-50609325D01*
X91335231Y-50686193D01*
X91338332Y-50791839D01*
X91338746Y-50809031D01*
X91340617Y-50925431D01*
X91339050Y-51018221D01*
X91332746Y-51100800D01*
X91320405Y-51186566D01*
X91300730Y-51288917D01*
X91285072Y-51362903D01*
X91257871Y-51486147D01*
X91234764Y-51579118D01*
X91212362Y-51649899D01*
X91187278Y-51706571D01*
X91156124Y-51757216D01*
X91115512Y-51809915D01*
X91080128Y-51851788D01*
X91035710Y-51905542D01*
X91003679Y-51948241D01*
X90990649Y-51971035D01*
X90990615Y-51971504D01*
X90973003Y-51982816D01*
X90925874Y-51999962D01*
X90857791Y-52020005D01*
X90821907Y-52029362D01*
X90736091Y-52052184D01*
X90656508Y-52075598D01*
X90596981Y-52095473D01*
X90585059Y-52100145D01*
X90515682Y-52121099D01*
X90441498Y-52125032D01*
X90353884Y-52111105D01*
X90244221Y-52078480D01*
X90199308Y-52062588D01*
X90105050Y-52026955D01*
X89991808Y-51982225D01*
X89876340Y-51935091D01*
X89806615Y-51905731D01*
X89709825Y-51862922D01*
X89635889Y-51825262D01*
X89573046Y-51784966D01*
X89509531Y-51734252D01*
X89433582Y-51665333D01*
X89410392Y-51643515D01*
X89231015Y-51474077D01*
X89246135Y-51408291D01*
X89376755Y-51408291D01*
X89386479Y-51437474D01*
X89422194Y-51482544D01*
X89477329Y-51537788D01*
X89545310Y-51597492D01*
X89619568Y-51655941D01*
X89693528Y-51707423D01*
X89760620Y-51746222D01*
X89771341Y-51751364D01*
X89877428Y-51798394D01*
X89991295Y-51845675D01*
X90106330Y-51890807D01*
X90215919Y-51931386D01*
X90313451Y-51965011D01*
X90392314Y-51989279D01*
X90445895Y-52001788D01*
X90463077Y-52002663D01*
X90518716Y-51989422D01*
X90568364Y-51973183D01*
X90605187Y-51956637D01*
X90617515Y-51945845D01*
X90617210Y-51945517D01*
X90598507Y-51935070D01*
X90550067Y-51909041D01*
X90476751Y-51870015D01*
X90383422Y-51820574D01*
X90274940Y-51763300D01*
X90197348Y-51722435D01*
X90047651Y-51644787D01*
X89929692Y-51586167D01*
X89841574Y-51545713D01*
X89781398Y-51522563D01*
X89747266Y-51515858D01*
X89743316Y-51516435D01*
X89703487Y-51514407D01*
X89685889Y-51489537D01*
X89687406Y-51482042D01*
X89829192Y-51482042D01*
X89842354Y-51495724D01*
X89884799Y-51523841D01*
X89950853Y-51563359D01*
X90034847Y-51611244D01*
X90131106Y-51664461D01*
X90233961Y-51719975D01*
X90337738Y-51774752D01*
X90436766Y-51825757D01*
X90525373Y-51869955D01*
X90597887Y-51904313D01*
X90648636Y-51925794D01*
X90669569Y-51931664D01*
X90711564Y-51927132D01*
X90772758Y-51913844D01*
X90806416Y-51904594D01*
X90874676Y-51877434D01*
X90928939Y-51836019D01*
X90974707Y-51782774D01*
X91011773Y-51732853D01*
X91035708Y-51696989D01*
X91041219Y-51684245D01*
X91021556Y-51677598D01*
X90970432Y-51662537D01*
X90894109Y-51640847D01*
X90798849Y-51614313D01*
X90715282Y-51591360D01*
X90607410Y-51561411D01*
X90511552Y-51533866D01*
X90434590Y-51510776D01*
X90383405Y-51494192D01*
X90366164Y-51487312D01*
X90326665Y-51481664D01*
X90282710Y-51491533D01*
X90228452Y-51502120D01*
X90189388Y-51488287D01*
X90153547Y-51477251D01*
X90093892Y-51469517D01*
X90021593Y-51465277D01*
X89947818Y-51464725D01*
X89883738Y-51468055D01*
X89840523Y-51475461D01*
X89829192Y-51482042D01*
X89687406Y-51482042D01*
X89692976Y-51454539D01*
X89740154Y-51454539D01*
X89743824Y-51479249D01*
X89763159Y-51480524D01*
X89787402Y-51471987D01*
X89807013Y-51457457D01*
X90235569Y-51457457D01*
X90255821Y-51464147D01*
X90265300Y-51464308D01*
X90293508Y-51454539D01*
X90363347Y-51454539D01*
X90382785Y-51464445D01*
X90432618Y-51482463D01*
X90505543Y-51506418D01*
X90594256Y-51534135D01*
X90691454Y-51563438D01*
X90789834Y-51592153D01*
X90882091Y-51618104D01*
X90960923Y-51639117D01*
X91019027Y-51653016D01*
X91044765Y-51657477D01*
X91070551Y-51643332D01*
X91088270Y-51615731D01*
X91099924Y-51581020D01*
X91117056Y-51521705D01*
X91136827Y-51448705D01*
X91156396Y-51372938D01*
X91172923Y-51305321D01*
X91183568Y-51256771D01*
X91186000Y-51240026D01*
X91168058Y-51233996D01*
X91120213Y-51231474D01*
X91051438Y-51232002D01*
X90970705Y-51235122D01*
X90886988Y-51240375D01*
X90809257Y-51247303D01*
X90746485Y-51255448D01*
X90707646Y-51264350D01*
X90707308Y-51264481D01*
X90648378Y-51284463D01*
X90599846Y-51297123D01*
X90556471Y-51312785D01*
X90501751Y-51341626D01*
X90445536Y-51377091D01*
X90397678Y-51412621D01*
X90368025Y-51441662D01*
X90363347Y-51454539D01*
X90293508Y-51454539D01*
X90298989Y-51452641D01*
X90306769Y-51435000D01*
X90297490Y-51408981D01*
X90289623Y-51405692D01*
X90264160Y-51419060D01*
X90248154Y-51435000D01*
X90235569Y-51457457D01*
X89807013Y-51457457D01*
X89815807Y-51450942D01*
X89808869Y-51431576D01*
X89779231Y-51425231D01*
X89747407Y-51437448D01*
X89740154Y-51454539D01*
X89692976Y-51454539D01*
X89693313Y-51452879D01*
X89719522Y-51422188D01*
X89770353Y-51394688D01*
X89821536Y-51387487D01*
X89859861Y-51401178D01*
X89869857Y-51415462D01*
X89895130Y-51432710D01*
X89947538Y-51443211D01*
X90015743Y-51447062D01*
X90088407Y-51444363D01*
X90154193Y-51435213D01*
X90201764Y-51419710D01*
X90212375Y-51412477D01*
X90254204Y-51391133D01*
X90314024Y-51378058D01*
X90331144Y-51376740D01*
X90404119Y-51362330D01*
X90482625Y-51329365D01*
X90553845Y-51285046D01*
X90604965Y-51236571D01*
X90610967Y-51226828D01*
X90662715Y-51226828D01*
X90668486Y-51246240D01*
X90688785Y-51246366D01*
X90723051Y-51227627D01*
X90732362Y-51213326D01*
X90726591Y-51193914D01*
X90706292Y-51193788D01*
X90672026Y-51212527D01*
X90662715Y-51226828D01*
X90610967Y-51226828D01*
X90617823Y-51215702D01*
X90654503Y-51175806D01*
X90685921Y-51162886D01*
X90781559Y-51162886D01*
X90801883Y-51191021D01*
X90847914Y-51205111D01*
X90924922Y-51209909D01*
X90979770Y-51210308D01*
X91072611Y-51208697D01*
X91133727Y-51203158D01*
X91170362Y-51192628D01*
X91186860Y-51179964D01*
X91195997Y-51152829D01*
X91205219Y-51099009D01*
X91213788Y-51027891D01*
X91220967Y-50948862D01*
X91226020Y-50871312D01*
X91228210Y-50804626D01*
X91226799Y-50758194D01*
X91221291Y-50741385D01*
X91199834Y-50747239D01*
X91151138Y-50762731D01*
X91084906Y-50784757D01*
X91070956Y-50789487D01*
X90957177Y-50837966D01*
X90876491Y-50896978D01*
X90823272Y-50971779D01*
X90796955Y-51045479D01*
X90781673Y-51115956D01*
X90781559Y-51162886D01*
X90685921Y-51162886D01*
X90695539Y-51158931D01*
X90737331Y-51142749D01*
X90758731Y-51107590D01*
X90765286Y-51079835D01*
X90776937Y-51025730D01*
X90788037Y-50986011D01*
X90788698Y-50984228D01*
X90784015Y-50961214D01*
X90759397Y-50956308D01*
X90716283Y-50945660D01*
X90705774Y-50917874D01*
X90710303Y-50910380D01*
X90763107Y-50910380D01*
X90783359Y-50917070D01*
X90792838Y-50917231D01*
X90826527Y-50905564D01*
X90834308Y-50887923D01*
X90825029Y-50861904D01*
X90817162Y-50858616D01*
X90791698Y-50871983D01*
X90775692Y-50887923D01*
X90763107Y-50910380D01*
X90710303Y-50910380D01*
X90729157Y-50879183D01*
X90741139Y-50867941D01*
X90791001Y-50825051D01*
X90739385Y-50743162D01*
X90704632Y-50693623D01*
X90676184Y-50671707D01*
X90643233Y-50669911D01*
X90635743Y-50671192D01*
X90582750Y-50670236D01*
X90555830Y-50647808D01*
X90555928Y-50646946D01*
X90714575Y-50646946D01*
X90734983Y-50698863D01*
X90769307Y-50753281D01*
X90810201Y-50798143D01*
X90843182Y-50819231D01*
X90879447Y-50819658D01*
X90940796Y-50807919D01*
X91016349Y-50787136D01*
X91095229Y-50760431D01*
X91166557Y-50730927D01*
X91188475Y-50720126D01*
X91207104Y-50689848D01*
X91207379Y-50633990D01*
X91190861Y-50560591D01*
X91159112Y-50477692D01*
X91130460Y-50421478D01*
X91089001Y-50352218D01*
X91054875Y-50313173D01*
X91020051Y-50303615D01*
X90976497Y-50322813D01*
X90916184Y-50370037D01*
X90882863Y-50398983D01*
X90823133Y-50453869D01*
X90775444Y-50502270D01*
X90747244Y-50536435D01*
X90743077Y-50544419D01*
X90725714Y-50588588D01*
X90715431Y-50609587D01*
X90714575Y-50646946D01*
X90555928Y-50646946D01*
X90558596Y-50623541D01*
X90599846Y-50623541D01*
X90612089Y-50642283D01*
X90647835Y-50630939D01*
X90657896Y-50624917D01*
X90675980Y-50603463D01*
X90673392Y-50593495D01*
X90645538Y-50587875D01*
X90613591Y-50601589D01*
X90599846Y-50623541D01*
X90558596Y-50623541D01*
X90559983Y-50611383D01*
X90579000Y-50586384D01*
X90622702Y-50556458D01*
X90661091Y-50546000D01*
X90696408Y-50532335D01*
X90749061Y-50495341D01*
X90810564Y-50441017D01*
X90813293Y-50438370D01*
X90872425Y-50382307D01*
X90926501Y-50333691D01*
X90964958Y-50301978D01*
X90968397Y-50299494D01*
X91013007Y-50268248D01*
X90969097Y-50221508D01*
X90930487Y-50188954D01*
X90897783Y-50174789D01*
X90896939Y-50174769D01*
X90874900Y-50185436D01*
X90824390Y-50215820D01*
X90749134Y-50263498D01*
X90652862Y-50326045D01*
X90539299Y-50401038D01*
X90412173Y-50486052D01*
X90275210Y-50578665D01*
X90260460Y-50588697D01*
X90075547Y-50714442D01*
X89920176Y-50820092D01*
X89791721Y-50907742D01*
X89687558Y-50979484D01*
X89605062Y-51037411D01*
X89541607Y-51083618D01*
X89494568Y-51120198D01*
X89461321Y-51149243D01*
X89439241Y-51172848D01*
X89425701Y-51193106D01*
X89418078Y-51212109D01*
X89413745Y-51231953D01*
X89410079Y-51254729D01*
X89407464Y-51268923D01*
X89393771Y-51334558D01*
X89381907Y-51387681D01*
X89376755Y-51408291D01*
X89246135Y-51408291D01*
X89277009Y-51273973D01*
X89296707Y-51190884D01*
X89313874Y-51123258D01*
X89326344Y-51079346D01*
X89331309Y-51066941D01*
X89351997Y-51052197D01*
X89401122Y-51018333D01*
X89474714Y-50968036D01*
X89568801Y-50903988D01*
X89679411Y-50828873D01*
X89802572Y-50745377D01*
X89934313Y-50656181D01*
X90070663Y-50563972D01*
X90207649Y-50471432D01*
X90341300Y-50381245D01*
X90467645Y-50296096D01*
X90582712Y-50218669D01*
X90682529Y-50151647D01*
X90763125Y-50097715D01*
X90820528Y-50059557D01*
X90850766Y-50039856D01*
X90853951Y-50037944D01*
X90896221Y-50028236D01*
X90948145Y-50046016D01*
X90948145Y-50046016D01*
G37*
X90948145Y-50046016D02*
X90948818Y-50046363D01*
X91016925Y-50093784D01*
X91093158Y-50166138D01*
X91168493Y-50253248D01*
X91233901Y-50344936D01*
X91269990Y-50408493D01*
X91294852Y-50460818D01*
X91312253Y-50505694D01*
X91323746Y-50552177D01*
X91330888Y-50609325D01*
X91335231Y-50686193D01*
X91338332Y-50791839D01*
X91338746Y-50809031D01*
X91340617Y-50925431D01*
X91339050Y-51018221D01*
X91332746Y-51100800D01*
X91320405Y-51186566D01*
X91300730Y-51288917D01*
X91285072Y-51362903D01*
X91257871Y-51486147D01*
X91234764Y-51579118D01*
X91212362Y-51649899D01*
X91187278Y-51706571D01*
X91156124Y-51757216D01*
X91115512Y-51809915D01*
X91080128Y-51851788D01*
X91035710Y-51905542D01*
X91003679Y-51948241D01*
X90990649Y-51971035D01*
X90990615Y-51971504D01*
X90973003Y-51982816D01*
X90925874Y-51999962D01*
X90857791Y-52020005D01*
X90821907Y-52029362D01*
X90736091Y-52052184D01*
X90656508Y-52075598D01*
X90596981Y-52095473D01*
X90585059Y-52100145D01*
X90515682Y-52121099D01*
X90441498Y-52125032D01*
X90353884Y-52111105D01*
X90244221Y-52078480D01*
X90199308Y-52062588D01*
X90105050Y-52026955D01*
X89991808Y-51982225D01*
X89876340Y-51935091D01*
X89806615Y-51905731D01*
X89709825Y-51862922D01*
X89635889Y-51825262D01*
X89573046Y-51784966D01*
X89509531Y-51734252D01*
X89433582Y-51665333D01*
X89410392Y-51643515D01*
X89231015Y-51474077D01*
X89246135Y-51408291D01*
X89376755Y-51408291D01*
X89386479Y-51437474D01*
X89422194Y-51482544D01*
X89477329Y-51537788D01*
X89545310Y-51597492D01*
X89619568Y-51655941D01*
X89693528Y-51707423D01*
X89760620Y-51746222D01*
X89771341Y-51751364D01*
X89877428Y-51798394D01*
X89991295Y-51845675D01*
X90106330Y-51890807D01*
X90215919Y-51931386D01*
X90313451Y-51965011D01*
X90392314Y-51989279D01*
X90445895Y-52001788D01*
X90463077Y-52002663D01*
X90518716Y-51989422D01*
X90568364Y-51973183D01*
X90605187Y-51956637D01*
X90617515Y-51945845D01*
X90617210Y-51945517D01*
X90598507Y-51935070D01*
X90550067Y-51909041D01*
X90476751Y-51870015D01*
X90383422Y-51820574D01*
X90274940Y-51763300D01*
X90197348Y-51722435D01*
X90047651Y-51644787D01*
X89929692Y-51586167D01*
X89841574Y-51545713D01*
X89781398Y-51522563D01*
X89747266Y-51515858D01*
X89743316Y-51516435D01*
X89703487Y-51514407D01*
X89685889Y-51489537D01*
X89687406Y-51482042D01*
X89829192Y-51482042D01*
X89842354Y-51495724D01*
X89884799Y-51523841D01*
X89950853Y-51563359D01*
X90034847Y-51611244D01*
X90131106Y-51664461D01*
X90233961Y-51719975D01*
X90337738Y-51774752D01*
X90436766Y-51825757D01*
X90525373Y-51869955D01*
X90597887Y-51904313D01*
X90648636Y-51925794D01*
X90669569Y-51931664D01*
X90711564Y-51927132D01*
X90772758Y-51913844D01*
X90806416Y-51904594D01*
X90874676Y-51877434D01*
X90928939Y-51836019D01*
X90974707Y-51782774D01*
X91011773Y-51732853D01*
X91035708Y-51696989D01*
X91041219Y-51684245D01*
X91021556Y-51677598D01*
X90970432Y-51662537D01*
X90894109Y-51640847D01*
X90798849Y-51614313D01*
X90715282Y-51591360D01*
X90607410Y-51561411D01*
X90511552Y-51533866D01*
X90434590Y-51510776D01*
X90383405Y-51494192D01*
X90366164Y-51487312D01*
X90326665Y-51481664D01*
X90282710Y-51491533D01*
X90228452Y-51502120D01*
X90189388Y-51488287D01*
X90153547Y-51477251D01*
X90093892Y-51469517D01*
X90021593Y-51465277D01*
X89947818Y-51464725D01*
X89883738Y-51468055D01*
X89840523Y-51475461D01*
X89829192Y-51482042D01*
X89687406Y-51482042D01*
X89692976Y-51454539D01*
X89740154Y-51454539D01*
X89743824Y-51479249D01*
X89763159Y-51480524D01*
X89787402Y-51471987D01*
X89807013Y-51457457D01*
X90235569Y-51457457D01*
X90255821Y-51464147D01*
X90265300Y-51464308D01*
X90293508Y-51454539D01*
X90363347Y-51454539D01*
X90382785Y-51464445D01*
X90432618Y-51482463D01*
X90505543Y-51506418D01*
X90594256Y-51534135D01*
X90691454Y-51563438D01*
X90789834Y-51592153D01*
X90882091Y-51618104D01*
X90960923Y-51639117D01*
X91019027Y-51653016D01*
X91044765Y-51657477D01*
X91070551Y-51643332D01*
X91088270Y-51615731D01*
X91099924Y-51581020D01*
X91117056Y-51521705D01*
X91136827Y-51448705D01*
X91156396Y-51372938D01*
X91172923Y-51305321D01*
X91183568Y-51256771D01*
X91186000Y-51240026D01*
X91168058Y-51233996D01*
X91120213Y-51231474D01*
X91051438Y-51232002D01*
X90970705Y-51235122D01*
X90886988Y-51240375D01*
X90809257Y-51247303D01*
X90746485Y-51255448D01*
X90707646Y-51264350D01*
X90707308Y-51264481D01*
X90648378Y-51284463D01*
X90599846Y-51297123D01*
X90556471Y-51312785D01*
X90501751Y-51341626D01*
X90445536Y-51377091D01*
X90397678Y-51412621D01*
X90368025Y-51441662D01*
X90363347Y-51454539D01*
X90293508Y-51454539D01*
X90298989Y-51452641D01*
X90306769Y-51435000D01*
X90297490Y-51408981D01*
X90289623Y-51405692D01*
X90264160Y-51419060D01*
X90248154Y-51435000D01*
X90235569Y-51457457D01*
X89807013Y-51457457D01*
X89815807Y-51450942D01*
X89808869Y-51431576D01*
X89779231Y-51425231D01*
X89747407Y-51437448D01*
X89740154Y-51454539D01*
X89692976Y-51454539D01*
X89693313Y-51452879D01*
X89719522Y-51422188D01*
X89770353Y-51394688D01*
X89821536Y-51387487D01*
X89859861Y-51401178D01*
X89869857Y-51415462D01*
X89895130Y-51432710D01*
X89947538Y-51443211D01*
X90015743Y-51447062D01*
X90088407Y-51444363D01*
X90154193Y-51435213D01*
X90201764Y-51419710D01*
X90212375Y-51412477D01*
X90254204Y-51391133D01*
X90314024Y-51378058D01*
X90331144Y-51376740D01*
X90404119Y-51362330D01*
X90482625Y-51329365D01*
X90553845Y-51285046D01*
X90604965Y-51236571D01*
X90610967Y-51226828D01*
X90662715Y-51226828D01*
X90668486Y-51246240D01*
X90688785Y-51246366D01*
X90723051Y-51227627D01*
X90732362Y-51213326D01*
X90726591Y-51193914D01*
X90706292Y-51193788D01*
X90672026Y-51212527D01*
X90662715Y-51226828D01*
X90610967Y-51226828D01*
X90617823Y-51215702D01*
X90654503Y-51175806D01*
X90685921Y-51162886D01*
X90781559Y-51162886D01*
X90801883Y-51191021D01*
X90847914Y-51205111D01*
X90924922Y-51209909D01*
X90979770Y-51210308D01*
X91072611Y-51208697D01*
X91133727Y-51203158D01*
X91170362Y-51192628D01*
X91186860Y-51179964D01*
X91195997Y-51152829D01*
X91205219Y-51099009D01*
X91213788Y-51027891D01*
X91220967Y-50948862D01*
X91226020Y-50871312D01*
X91228210Y-50804626D01*
X91226799Y-50758194D01*
X91221291Y-50741385D01*
X91199834Y-50747239D01*
X91151138Y-50762731D01*
X91084906Y-50784757D01*
X91070956Y-50789487D01*
X90957177Y-50837966D01*
X90876491Y-50896978D01*
X90823272Y-50971779D01*
X90796955Y-51045479D01*
X90781673Y-51115956D01*
X90781559Y-51162886D01*
X90685921Y-51162886D01*
X90695539Y-51158931D01*
X90737331Y-51142749D01*
X90758731Y-51107590D01*
X90765286Y-51079835D01*
X90776937Y-51025730D01*
X90788037Y-50986011D01*
X90788698Y-50984228D01*
X90784015Y-50961214D01*
X90759397Y-50956308D01*
X90716283Y-50945660D01*
X90705774Y-50917874D01*
X90710303Y-50910380D01*
X90763107Y-50910380D01*
X90783359Y-50917070D01*
X90792838Y-50917231D01*
X90826527Y-50905564D01*
X90834308Y-50887923D01*
X90825029Y-50861904D01*
X90817162Y-50858616D01*
X90791698Y-50871983D01*
X90775692Y-50887923D01*
X90763107Y-50910380D01*
X90710303Y-50910380D01*
X90729157Y-50879183D01*
X90741139Y-50867941D01*
X90791001Y-50825051D01*
X90739385Y-50743162D01*
X90704632Y-50693623D01*
X90676184Y-50671707D01*
X90643233Y-50669911D01*
X90635743Y-50671192D01*
X90582750Y-50670236D01*
X90555830Y-50647808D01*
X90555928Y-50646946D01*
X90714575Y-50646946D01*
X90734983Y-50698863D01*
X90769307Y-50753281D01*
X90810201Y-50798143D01*
X90843182Y-50819231D01*
X90879447Y-50819658D01*
X90940796Y-50807919D01*
X91016349Y-50787136D01*
X91095229Y-50760431D01*
X91166557Y-50730927D01*
X91188475Y-50720126D01*
X91207104Y-50689848D01*
X91207379Y-50633990D01*
X91190861Y-50560591D01*
X91159112Y-50477692D01*
X91130460Y-50421478D01*
X91089001Y-50352218D01*
X91054875Y-50313173D01*
X91020051Y-50303615D01*
X90976497Y-50322813D01*
X90916184Y-50370037D01*
X90882863Y-50398983D01*
X90823133Y-50453869D01*
X90775444Y-50502270D01*
X90747244Y-50536435D01*
X90743077Y-50544419D01*
X90725714Y-50588588D01*
X90715431Y-50609587D01*
X90714575Y-50646946D01*
X90555928Y-50646946D01*
X90558596Y-50623541D01*
X90599846Y-50623541D01*
X90612089Y-50642283D01*
X90647835Y-50630939D01*
X90657896Y-50624917D01*
X90675980Y-50603463D01*
X90673392Y-50593495D01*
X90645538Y-50587875D01*
X90613591Y-50601589D01*
X90599846Y-50623541D01*
X90558596Y-50623541D01*
X90559983Y-50611383D01*
X90579000Y-50586384D01*
X90622702Y-50556458D01*
X90661091Y-50546000D01*
X90696408Y-50532335D01*
X90749061Y-50495341D01*
X90810564Y-50441017D01*
X90813293Y-50438370D01*
X90872425Y-50382307D01*
X90926501Y-50333691D01*
X90964958Y-50301978D01*
X90968397Y-50299494D01*
X91013007Y-50268248D01*
X90969097Y-50221508D01*
X90930487Y-50188954D01*
X90897783Y-50174789D01*
X90896939Y-50174769D01*
X90874900Y-50185436D01*
X90824390Y-50215820D01*
X90749134Y-50263498D01*
X90652862Y-50326045D01*
X90539299Y-50401038D01*
X90412173Y-50486052D01*
X90275210Y-50578665D01*
X90260460Y-50588697D01*
X90075547Y-50714442D01*
X89920176Y-50820092D01*
X89791721Y-50907742D01*
X89687558Y-50979484D01*
X89605062Y-51037411D01*
X89541607Y-51083618D01*
X89494568Y-51120198D01*
X89461321Y-51149243D01*
X89439241Y-51172848D01*
X89425701Y-51193106D01*
X89418078Y-51212109D01*
X89413745Y-51231953D01*
X89410079Y-51254729D01*
X89407464Y-51268923D01*
X89393771Y-51334558D01*
X89381907Y-51387681D01*
X89376755Y-51408291D01*
X89246135Y-51408291D01*
X89277009Y-51273973D01*
X89296707Y-51190884D01*
X89313874Y-51123258D01*
X89326344Y-51079346D01*
X89331309Y-51066941D01*
X89351997Y-51052197D01*
X89401122Y-51018333D01*
X89474714Y-50968036D01*
X89568801Y-50903988D01*
X89679411Y-50828873D01*
X89802572Y-50745377D01*
X89934313Y-50656181D01*
X90070663Y-50563972D01*
X90207649Y-50471432D01*
X90341300Y-50381245D01*
X90467645Y-50296096D01*
X90582712Y-50218669D01*
X90682529Y-50151647D01*
X90763125Y-50097715D01*
X90820528Y-50059557D01*
X90850766Y-50039856D01*
X90853951Y-50037944D01*
X90896221Y-50028236D01*
X90948145Y-50046016D01*
D12*
G36*
X71635620Y-52529740D02*
X71671180Y-52509420D01*
X71749920Y-52461160D01*
X71861680Y-52387500D01*
X71993760Y-52301140D01*
X72125840Y-52209700D01*
X72235060Y-52138580D01*
X72311260Y-52087780D01*
X72341740Y-52070000D01*
X72359520Y-52077620D01*
X72423020Y-52108100D01*
X72511920Y-52153820D01*
X72565260Y-52181760D01*
X72649080Y-52217320D01*
X72692260Y-52224940D01*
X72697340Y-52214780D01*
X72727820Y-52151280D01*
X72776080Y-52042060D01*
X72839580Y-51897280D01*
X72913240Y-51727100D01*
X72989440Y-51544220D01*
X73068180Y-51358800D01*
X73141840Y-51181000D01*
X73205340Y-51020980D01*
X73258680Y-50888900D01*
X73294240Y-50800000D01*
X73306940Y-50761900D01*
X73301860Y-50751740D01*
X73261220Y-50711100D01*
X73187560Y-50657760D01*
X73030080Y-50528220D01*
X72872600Y-50335180D01*
X72778620Y-50114200D01*
X72745600Y-49867820D01*
X72773540Y-49639220D01*
X72862440Y-49420780D01*
X73014840Y-49225200D01*
X73200260Y-49077880D01*
X73416160Y-48986440D01*
X73660000Y-48955960D01*
X73891140Y-48981360D01*
X74114660Y-49070260D01*
X74312780Y-49220120D01*
X74396600Y-49316640D01*
X74510900Y-49514760D01*
X74574400Y-49728120D01*
X74582020Y-49784000D01*
X74571860Y-50017680D01*
X74503280Y-50241200D01*
X74378820Y-50441860D01*
X74208640Y-50606960D01*
X74185780Y-50622200D01*
X74107040Y-50683160D01*
X74053700Y-50723800D01*
X74010520Y-50756820D01*
X74310240Y-51475640D01*
X74358500Y-51589940D01*
X74439780Y-51788060D01*
X74510900Y-51955700D01*
X74569320Y-52090320D01*
X74609960Y-52181760D01*
X74627740Y-52217320D01*
X74627740Y-52219860D01*
X74655680Y-52224940D01*
X74709020Y-52204620D01*
X74810620Y-52156360D01*
X74876660Y-52120800D01*
X74952860Y-52085240D01*
X74988420Y-52070000D01*
X75016360Y-52087780D01*
X75090020Y-52133500D01*
X75196700Y-52204620D01*
X75326240Y-52293520D01*
X75448160Y-52377340D01*
X75559920Y-52451000D01*
X75641200Y-52504340D01*
X75681840Y-52524660D01*
X75686920Y-52524660D01*
X75722480Y-52504340D01*
X75788520Y-52451000D01*
X75885040Y-52359560D01*
X76024740Y-52222400D01*
X76045060Y-52199540D01*
X76159360Y-52085240D01*
X76250800Y-51988720D01*
X76314300Y-51917600D01*
X76337160Y-51887120D01*
X76337160Y-51887120D01*
X76316840Y-51849020D01*
X76263500Y-51765200D01*
X76189840Y-51650900D01*
X76098400Y-51518820D01*
X75859640Y-51173380D01*
X75991720Y-50845720D01*
X76032360Y-50746660D01*
X76083160Y-50624740D01*
X76121260Y-50538380D01*
X76139040Y-50500280D01*
X76174600Y-50487580D01*
X76263500Y-50467260D01*
X76393040Y-50439320D01*
X76547980Y-50411380D01*
X76695300Y-50383440D01*
X76827380Y-50358040D01*
X76923900Y-50340260D01*
X76967080Y-50332640D01*
X76977240Y-50325020D01*
X76987400Y-50304700D01*
X76992480Y-50258980D01*
X76995020Y-50177700D01*
X76997560Y-50050700D01*
X76997560Y-49867820D01*
X76997560Y-49847500D01*
X76995020Y-49672240D01*
X76992480Y-49532540D01*
X76987400Y-49441100D01*
X76982320Y-49405540D01*
X76982320Y-49405540D01*
X76939140Y-49395380D01*
X76845160Y-49375060D01*
X76713080Y-49349660D01*
X76555600Y-49319180D01*
X76545440Y-49316640D01*
X76387960Y-49286160D01*
X76253340Y-49258220D01*
X76161900Y-49237900D01*
X76123800Y-49225200D01*
X76113640Y-49215040D01*
X76083160Y-49151540D01*
X76037440Y-49055020D01*
X75984100Y-48935640D01*
X75933300Y-48811180D01*
X75890120Y-48699420D01*
X75859640Y-48615600D01*
X75849480Y-48577500D01*
X75849480Y-48577500D01*
X75874880Y-48539400D01*
X75928220Y-48458120D01*
X76004420Y-48343820D01*
X76098400Y-48209200D01*
X76103480Y-48199040D01*
X76194920Y-48066960D01*
X76268580Y-47952660D01*
X76316840Y-47871380D01*
X76337160Y-47835820D01*
X76334620Y-47833280D01*
X76306680Y-47795180D01*
X76238100Y-47718980D01*
X76141580Y-47617380D01*
X76024740Y-47498000D01*
X75986640Y-47462440D01*
X75857100Y-47335440D01*
X75765660Y-47251620D01*
X75709780Y-47208440D01*
X75684380Y-47198280D01*
X75681840Y-47198280D01*
X75641200Y-47223680D01*
X75557380Y-47279560D01*
X75443080Y-47355760D01*
X75308460Y-47447200D01*
X75298300Y-47454820D01*
X75166220Y-47546260D01*
X75054460Y-47619920D01*
X74975720Y-47673260D01*
X74940160Y-47693580D01*
X74935080Y-47693580D01*
X74879200Y-47678340D01*
X74785220Y-47645320D01*
X74668380Y-47599600D01*
X74543920Y-47548800D01*
X74432160Y-47503080D01*
X74348340Y-47464980D01*
X74310240Y-47442120D01*
X74307700Y-47439580D01*
X74295000Y-47391320D01*
X74272140Y-47292260D01*
X74241660Y-47155100D01*
X74211180Y-46990000D01*
X74206100Y-46964600D01*
X74175620Y-46804580D01*
X74150220Y-46675040D01*
X74132440Y-46583600D01*
X74122280Y-46545500D01*
X74099420Y-46540420D01*
X74023220Y-46535340D01*
X73903840Y-46532800D01*
X73761600Y-46530260D01*
X73609200Y-46530260D01*
X73461880Y-46535340D01*
X73337420Y-46537880D01*
X73245980Y-46545500D01*
X73207880Y-46553120D01*
X73207880Y-46555660D01*
X73192640Y-46603920D01*
X73172320Y-46702980D01*
X73144380Y-46842680D01*
X73111360Y-47005240D01*
X73106280Y-47035720D01*
X73075800Y-47193200D01*
X73050400Y-47322740D01*
X73030080Y-47414180D01*
X73019920Y-47449740D01*
X73007220Y-47457360D01*
X72941180Y-47485300D01*
X72834500Y-47528480D01*
X72702420Y-47581820D01*
X72397620Y-47706280D01*
X72021700Y-47449740D01*
X71988680Y-47426880D01*
X71854060Y-47332900D01*
X71742300Y-47259240D01*
X71666100Y-47210980D01*
X71633080Y-47193200D01*
X71630540Y-47193200D01*
X71592440Y-47226220D01*
X71518780Y-47294800D01*
X71417180Y-47393860D01*
X71300340Y-47513240D01*
X71211440Y-47599600D01*
X71109840Y-47703740D01*
X71043800Y-47774860D01*
X71008240Y-47820580D01*
X70995540Y-47848520D01*
X70998080Y-47866300D01*
X71023480Y-47904400D01*
X71076820Y-47988220D01*
X71155560Y-48099980D01*
X71247000Y-48234600D01*
X71320660Y-48343820D01*
X71401940Y-48470820D01*
X71455280Y-48559720D01*
X71473060Y-48602900D01*
X71467980Y-48623220D01*
X71442580Y-48694340D01*
X71399400Y-48806100D01*
X71340980Y-48938180D01*
X71211440Y-49235360D01*
X71018400Y-49273460D01*
X70899020Y-49293780D01*
X70733920Y-49326800D01*
X70576440Y-49357280D01*
X70330060Y-49405540D01*
X70322440Y-50309780D01*
X70360540Y-50325020D01*
X70396100Y-50335180D01*
X70487540Y-50355500D01*
X70617080Y-50380900D01*
X70772020Y-50408840D01*
X70901560Y-50434240D01*
X71033640Y-50459640D01*
X71130160Y-50477420D01*
X71170800Y-50487580D01*
X71180960Y-50500280D01*
X71213980Y-50563780D01*
X71262240Y-50665380D01*
X71313040Y-50787300D01*
X71366380Y-50914300D01*
X71412100Y-51031140D01*
X71445120Y-51120040D01*
X71457820Y-51168300D01*
X71440040Y-51201320D01*
X71389240Y-51280060D01*
X71318120Y-51389280D01*
X71226680Y-51521360D01*
X71137780Y-51650900D01*
X71061580Y-51765200D01*
X71010780Y-51843940D01*
X70987920Y-51882040D01*
X70998080Y-51907440D01*
X71051420Y-51970940D01*
X71150480Y-52072540D01*
X71297800Y-52217320D01*
X71320660Y-52240180D01*
X71437500Y-52354480D01*
X71536560Y-52445920D01*
X71605140Y-52506880D01*
X71635620Y-52529740D01*
X71635620Y-52529740D01*
G37*
X71635620Y-52529740D02*
X71671180Y-52509420D01*
X71749920Y-52461160D01*
X71861680Y-52387500D01*
X71993760Y-52301140D01*
X72125840Y-52209700D01*
X72235060Y-52138580D01*
X72311260Y-52087780D01*
X72341740Y-52070000D01*
X72359520Y-52077620D01*
X72423020Y-52108100D01*
X72511920Y-52153820D01*
X72565260Y-52181760D01*
X72649080Y-52217320D01*
X72692260Y-52224940D01*
X72697340Y-52214780D01*
X72727820Y-52151280D01*
X72776080Y-52042060D01*
X72839580Y-51897280D01*
X72913240Y-51727100D01*
X72989440Y-51544220D01*
X73068180Y-51358800D01*
X73141840Y-51181000D01*
X73205340Y-51020980D01*
X73258680Y-50888900D01*
X73294240Y-50800000D01*
X73306940Y-50761900D01*
X73301860Y-50751740D01*
X73261220Y-50711100D01*
X73187560Y-50657760D01*
X73030080Y-50528220D01*
X72872600Y-50335180D01*
X72778620Y-50114200D01*
X72745600Y-49867820D01*
X72773540Y-49639220D01*
X72862440Y-49420780D01*
X73014840Y-49225200D01*
X73200260Y-49077880D01*
X73416160Y-48986440D01*
X73660000Y-48955960D01*
X73891140Y-48981360D01*
X74114660Y-49070260D01*
X74312780Y-49220120D01*
X74396600Y-49316640D01*
X74510900Y-49514760D01*
X74574400Y-49728120D01*
X74582020Y-49784000D01*
X74571860Y-50017680D01*
X74503280Y-50241200D01*
X74378820Y-50441860D01*
X74208640Y-50606960D01*
X74185780Y-50622200D01*
X74107040Y-50683160D01*
X74053700Y-50723800D01*
X74010520Y-50756820D01*
X74310240Y-51475640D01*
X74358500Y-51589940D01*
X74439780Y-51788060D01*
X74510900Y-51955700D01*
X74569320Y-52090320D01*
X74609960Y-52181760D01*
X74627740Y-52217320D01*
X74627740Y-52219860D01*
X74655680Y-52224940D01*
X74709020Y-52204620D01*
X74810620Y-52156360D01*
X74876660Y-52120800D01*
X74952860Y-52085240D01*
X74988420Y-52070000D01*
X75016360Y-52087780D01*
X75090020Y-52133500D01*
X75196700Y-52204620D01*
X75326240Y-52293520D01*
X75448160Y-52377340D01*
X75559920Y-52451000D01*
X75641200Y-52504340D01*
X75681840Y-52524660D01*
X75686920Y-52524660D01*
X75722480Y-52504340D01*
X75788520Y-52451000D01*
X75885040Y-52359560D01*
X76024740Y-52222400D01*
X76045060Y-52199540D01*
X76159360Y-52085240D01*
X76250800Y-51988720D01*
X76314300Y-51917600D01*
X76337160Y-51887120D01*
X76337160Y-51887120D01*
X76316840Y-51849020D01*
X76263500Y-51765200D01*
X76189840Y-51650900D01*
X76098400Y-51518820D01*
X75859640Y-51173380D01*
X75991720Y-50845720D01*
X76032360Y-50746660D01*
X76083160Y-50624740D01*
X76121260Y-50538380D01*
X76139040Y-50500280D01*
X76174600Y-50487580D01*
X76263500Y-50467260D01*
X76393040Y-50439320D01*
X76547980Y-50411380D01*
X76695300Y-50383440D01*
X76827380Y-50358040D01*
X76923900Y-50340260D01*
X76967080Y-50332640D01*
X76977240Y-50325020D01*
X76987400Y-50304700D01*
X76992480Y-50258980D01*
X76995020Y-50177700D01*
X76997560Y-50050700D01*
X76997560Y-49867820D01*
X76997560Y-49847500D01*
X76995020Y-49672240D01*
X76992480Y-49532540D01*
X76987400Y-49441100D01*
X76982320Y-49405540D01*
X76982320Y-49405540D01*
X76939140Y-49395380D01*
X76845160Y-49375060D01*
X76713080Y-49349660D01*
X76555600Y-49319180D01*
X76545440Y-49316640D01*
X76387960Y-49286160D01*
X76253340Y-49258220D01*
X76161900Y-49237900D01*
X76123800Y-49225200D01*
X76113640Y-49215040D01*
X76083160Y-49151540D01*
X76037440Y-49055020D01*
X75984100Y-48935640D01*
X75933300Y-48811180D01*
X75890120Y-48699420D01*
X75859640Y-48615600D01*
X75849480Y-48577500D01*
X75849480Y-48577500D01*
X75874880Y-48539400D01*
X75928220Y-48458120D01*
X76004420Y-48343820D01*
X76098400Y-48209200D01*
X76103480Y-48199040D01*
X76194920Y-48066960D01*
X76268580Y-47952660D01*
X76316840Y-47871380D01*
X76337160Y-47835820D01*
X76334620Y-47833280D01*
X76306680Y-47795180D01*
X76238100Y-47718980D01*
X76141580Y-47617380D01*
X76024740Y-47498000D01*
X75986640Y-47462440D01*
X75857100Y-47335440D01*
X75765660Y-47251620D01*
X75709780Y-47208440D01*
X75684380Y-47198280D01*
X75681840Y-47198280D01*
X75641200Y-47223680D01*
X75557380Y-47279560D01*
X75443080Y-47355760D01*
X75308460Y-47447200D01*
X75298300Y-47454820D01*
X75166220Y-47546260D01*
X75054460Y-47619920D01*
X74975720Y-47673260D01*
X74940160Y-47693580D01*
X74935080Y-47693580D01*
X74879200Y-47678340D01*
X74785220Y-47645320D01*
X74668380Y-47599600D01*
X74543920Y-47548800D01*
X74432160Y-47503080D01*
X74348340Y-47464980D01*
X74310240Y-47442120D01*
X74307700Y-47439580D01*
X74295000Y-47391320D01*
X74272140Y-47292260D01*
X74241660Y-47155100D01*
X74211180Y-46990000D01*
X74206100Y-46964600D01*
X74175620Y-46804580D01*
X74150220Y-46675040D01*
X74132440Y-46583600D01*
X74122280Y-46545500D01*
X74099420Y-46540420D01*
X74023220Y-46535340D01*
X73903840Y-46532800D01*
X73761600Y-46530260D01*
X73609200Y-46530260D01*
X73461880Y-46535340D01*
X73337420Y-46537880D01*
X73245980Y-46545500D01*
X73207880Y-46553120D01*
X73207880Y-46555660D01*
X73192640Y-46603920D01*
X73172320Y-46702980D01*
X73144380Y-46842680D01*
X73111360Y-47005240D01*
X73106280Y-47035720D01*
X73075800Y-47193200D01*
X73050400Y-47322740D01*
X73030080Y-47414180D01*
X73019920Y-47449740D01*
X73007220Y-47457360D01*
X72941180Y-47485300D01*
X72834500Y-47528480D01*
X72702420Y-47581820D01*
X72397620Y-47706280D01*
X72021700Y-47449740D01*
X71988680Y-47426880D01*
X71854060Y-47332900D01*
X71742300Y-47259240D01*
X71666100Y-47210980D01*
X71633080Y-47193200D01*
X71630540Y-47193200D01*
X71592440Y-47226220D01*
X71518780Y-47294800D01*
X71417180Y-47393860D01*
X71300340Y-47513240D01*
X71211440Y-47599600D01*
X71109840Y-47703740D01*
X71043800Y-47774860D01*
X71008240Y-47820580D01*
X70995540Y-47848520D01*
X70998080Y-47866300D01*
X71023480Y-47904400D01*
X71076820Y-47988220D01*
X71155560Y-48099980D01*
X71247000Y-48234600D01*
X71320660Y-48343820D01*
X71401940Y-48470820D01*
X71455280Y-48559720D01*
X71473060Y-48602900D01*
X71467980Y-48623220D01*
X71442580Y-48694340D01*
X71399400Y-48806100D01*
X71340980Y-48938180D01*
X71211440Y-49235360D01*
X71018400Y-49273460D01*
X70899020Y-49293780D01*
X70733920Y-49326800D01*
X70576440Y-49357280D01*
X70330060Y-49405540D01*
X70322440Y-50309780D01*
X70360540Y-50325020D01*
X70396100Y-50335180D01*
X70487540Y-50355500D01*
X70617080Y-50380900D01*
X70772020Y-50408840D01*
X70901560Y-50434240D01*
X71033640Y-50459640D01*
X71130160Y-50477420D01*
X71170800Y-50487580D01*
X71180960Y-50500280D01*
X71213980Y-50563780D01*
X71262240Y-50665380D01*
X71313040Y-50787300D01*
X71366380Y-50914300D01*
X71412100Y-51031140D01*
X71445120Y-51120040D01*
X71457820Y-51168300D01*
X71440040Y-51201320D01*
X71389240Y-51280060D01*
X71318120Y-51389280D01*
X71226680Y-51521360D01*
X71137780Y-51650900D01*
X71061580Y-51765200D01*
X71010780Y-51843940D01*
X70987920Y-51882040D01*
X70998080Y-51907440D01*
X71051420Y-51970940D01*
X71150480Y-52072540D01*
X71297800Y-52217320D01*
X71320660Y-52240180D01*
X71437500Y-52354480D01*
X71536560Y-52445920D01*
X71605140Y-52506880D01*
X71635620Y-52529740D01*
D11*
G36*
X104642937Y-46704288D02*
X105097117Y-46704410D01*
X105512287Y-46704628D01*
X105890111Y-46704953D01*
X106232249Y-46705398D01*
X106540364Y-46705975D01*
X106816118Y-46706695D01*
X107061173Y-46707570D01*
X107277191Y-46708613D01*
X107465833Y-46709834D01*
X107628763Y-46711246D01*
X107767642Y-46712861D01*
X107884132Y-46714691D01*
X107979895Y-46716747D01*
X108056593Y-46719042D01*
X108115888Y-46721587D01*
X108159443Y-46724394D01*
X108188918Y-46727476D01*
X108205977Y-46730843D01*
X108211330Y-46733300D01*
X108215550Y-46738998D01*
X108219420Y-46749961D01*
X108222953Y-46767950D01*
X108226165Y-46794728D01*
X108229071Y-46832056D01*
X108231686Y-46881696D01*
X108234026Y-46945409D01*
X108236105Y-47024957D01*
X108237939Y-47122101D01*
X108239543Y-47238605D01*
X108240931Y-47376228D01*
X108242120Y-47536733D01*
X108243123Y-47721881D01*
X108243957Y-47933434D01*
X108244636Y-48173154D01*
X108245176Y-48442803D01*
X108245591Y-48744141D01*
X108245898Y-49078932D01*
X108246110Y-49448936D01*
X108246243Y-49855915D01*
X108246312Y-50301630D01*
X108246333Y-50787845D01*
X108246333Y-50808942D01*
X108246275Y-51319639D01*
X108246096Y-51789403D01*
X108245787Y-52219633D01*
X108245338Y-52611729D01*
X108244742Y-52967091D01*
X108243989Y-53287118D01*
X108243072Y-53573211D01*
X108241980Y-53826769D01*
X108240706Y-54049192D01*
X108239241Y-54241879D01*
X108237575Y-54406231D01*
X108235701Y-54543646D01*
X108233609Y-54655526D01*
X108231291Y-54743269D01*
X108228738Y-54808275D01*
X108225941Y-54851945D01*
X108222892Y-54875677D01*
X108220933Y-54880933D01*
X108208515Y-54884138D01*
X108177001Y-54887086D01*
X108124992Y-54889784D01*
X108051088Y-54892243D01*
X107953889Y-54894470D01*
X107831996Y-54896474D01*
X107684008Y-54898264D01*
X107508527Y-54899848D01*
X107304151Y-54901237D01*
X107069482Y-54902437D01*
X106803120Y-54903458D01*
X106503665Y-54904309D01*
X106169717Y-54904998D01*
X105799876Y-54905534D01*
X105392743Y-54905926D01*
X104946918Y-54906183D01*
X104461001Y-54906312D01*
X104148942Y-54906333D01*
X103661007Y-54906314D01*
X103213644Y-54906247D01*
X102805091Y-54906117D01*
X102433587Y-54905908D01*
X102097369Y-54905606D01*
X101794676Y-54905196D01*
X101523746Y-54904661D01*
X101282818Y-54903988D01*
X101070130Y-54903161D01*
X100883920Y-54902165D01*
X100722427Y-54900984D01*
X100583888Y-54899604D01*
X100466543Y-54898010D01*
X100368629Y-54896186D01*
X100288385Y-54894117D01*
X100224050Y-54891789D01*
X100173861Y-54889185D01*
X100136057Y-54886292D01*
X100108875Y-54883092D01*
X100090556Y-54879573D01*
X100079336Y-54875718D01*
X100073455Y-54871512D01*
X100073300Y-54871330D01*
X100069732Y-54861759D01*
X100066457Y-54840900D01*
X100063465Y-54807091D01*
X100060743Y-54758671D01*
X100058280Y-54693977D01*
X100056063Y-54611347D01*
X100054080Y-54509119D01*
X100052321Y-54385632D01*
X100050772Y-54239223D01*
X100049422Y-54068230D01*
X100048259Y-53870991D01*
X100047272Y-53645844D01*
X100046448Y-53391127D01*
X100046342Y-53345945D01*
X102132077Y-53345945D01*
X102165591Y-53470037D01*
X102233829Y-53578905D01*
X102334364Y-53666752D01*
X102450323Y-53723008D01*
X102573283Y-53751182D01*
X102715457Y-53761641D01*
X102857452Y-53754043D01*
X102966700Y-53732191D01*
X103024964Y-53706426D01*
X103511672Y-53706426D01*
X103530216Y-53715291D01*
X103574921Y-53718552D01*
X103653027Y-53717352D01*
X103675301Y-53716606D01*
X103850821Y-53710417D01*
X103947785Y-53549112D01*
X103997463Y-53468156D01*
X104044499Y-53394390D01*
X104080764Y-53340483D01*
X104088619Y-53329689D01*
X104132487Y-53271570D01*
X104206218Y-53374577D01*
X104259238Y-53452073D01*
X104317440Y-53542196D01*
X104352503Y-53599292D01*
X104425057Y-53721000D01*
X104600028Y-53721000D01*
X104680091Y-53719229D01*
X104740888Y-53714512D01*
X104772570Y-53707743D01*
X104774959Y-53705125D01*
X104763875Y-53677274D01*
X104733885Y-53622101D01*
X104689795Y-53547352D01*
X104636413Y-53460776D01*
X104578546Y-53370117D01*
X104520999Y-53283124D01*
X104519017Y-53280265D01*
X104958873Y-53280265D01*
X104971564Y-53410657D01*
X105018699Y-53531465D01*
X105068594Y-53601544D01*
X105115284Y-53639959D01*
X105186508Y-53682896D01*
X105266574Y-53721677D01*
X105325333Y-53743540D01*
X105387721Y-53754330D01*
X105476878Y-53759926D01*
X105577567Y-53760399D01*
X105674552Y-53755819D01*
X105752595Y-53746256D01*
X105773586Y-53741478D01*
X105906024Y-53685879D01*
X106012584Y-53603338D01*
X106090278Y-53499935D01*
X106136113Y-53381753D01*
X106147098Y-53254874D01*
X106120243Y-53125379D01*
X106099995Y-53077770D01*
X106065011Y-53014492D01*
X106023894Y-52961516D01*
X105966778Y-52908250D01*
X105883794Y-52844098D01*
X105879194Y-52840713D01*
X105888936Y-52824385D01*
X105921423Y-52787454D01*
X105957736Y-52749931D01*
X106041268Y-52640220D01*
X106089230Y-52519072D01*
X106102462Y-52393669D01*
X106081802Y-52271193D01*
X106028091Y-52158827D01*
X105942167Y-52063754D01*
X105871959Y-52016018D01*
X105814239Y-51986196D01*
X105763499Y-51967707D01*
X105706375Y-51957890D01*
X105629506Y-51954089D01*
X105558167Y-51953583D01*
X105433728Y-51957766D01*
X105338913Y-51972976D01*
X105261599Y-52003199D01*
X105189666Y-52052426D01*
X105148818Y-52088291D01*
X105065793Y-52191506D01*
X105015196Y-52311307D01*
X104997469Y-52438908D01*
X105013052Y-52565522D01*
X105062386Y-52682363D01*
X105115540Y-52751857D01*
X105198045Y-52838587D01*
X105121229Y-52913190D01*
X105034329Y-53023370D01*
X104980003Y-53148449D01*
X104958873Y-53280265D01*
X104519017Y-53280265D01*
X104468580Y-53207543D01*
X104452620Y-53185607D01*
X104346274Y-53041797D01*
X104550053Y-52735936D01*
X104616433Y-52635717D01*
X104673767Y-52548035D01*
X104718254Y-52478796D01*
X104746094Y-52433904D01*
X104753833Y-52419370D01*
X104734338Y-52414401D01*
X104682527Y-52410658D01*
X104608417Y-52408775D01*
X104584395Y-52408667D01*
X104414957Y-52408667D01*
X104285995Y-52609750D01*
X104234129Y-52689735D01*
X104190959Y-52754636D01*
X104161308Y-52797317D01*
X104150173Y-52810833D01*
X104136004Y-52794638D01*
X104102588Y-52750595D01*
X104054988Y-52685514D01*
X104000772Y-52609750D01*
X103858231Y-52408667D01*
X103680871Y-52408667D01*
X103615410Y-52407910D01*
X103567607Y-52408606D01*
X103538301Y-52415206D01*
X103528331Y-52432158D01*
X103538539Y-52463912D01*
X103569764Y-52514919D01*
X103622846Y-52589629D01*
X103698624Y-52692490D01*
X103746789Y-52757917D01*
X103814959Y-52851559D01*
X103873348Y-52933161D01*
X103917730Y-52996704D01*
X103943877Y-53036166D01*
X103949091Y-53046048D01*
X103937168Y-53068677D01*
X103906303Y-53112015D01*
X103883480Y-53141298D01*
X103844406Y-53192836D01*
X103792377Y-53265354D01*
X103732813Y-53350832D01*
X103671132Y-53441254D01*
X103612753Y-53528604D01*
X103563096Y-53604862D01*
X103527579Y-53662014D01*
X103512055Y-53690813D01*
X103511672Y-53706426D01*
X103024964Y-53706426D01*
X103100910Y-53672842D01*
X103204450Y-53585591D01*
X103275031Y-53473471D01*
X103310363Y-53339513D01*
X103314152Y-53272051D01*
X103298169Y-53137607D01*
X103248590Y-53025758D01*
X103161806Y-52929217D01*
X103132734Y-52905749D01*
X103046460Y-52839946D01*
X103134056Y-52743193D01*
X103212830Y-52630156D01*
X103258704Y-52506641D01*
X103271874Y-52380298D01*
X103252534Y-52258776D01*
X103200878Y-52149725D01*
X103117102Y-52060793D01*
X103116675Y-52060467D01*
X102994561Y-51992293D01*
X102852978Y-51953714D01*
X102702721Y-51944729D01*
X102554588Y-51965339D01*
X102419374Y-52015544D01*
X102348184Y-52060447D01*
X102271544Y-52142114D01*
X102212727Y-52250512D01*
X102178153Y-52371606D01*
X102171707Y-52446388D01*
X102185780Y-52575689D01*
X102231255Y-52682640D01*
X102303743Y-52769320D01*
X102376827Y-52838859D01*
X102302560Y-52904067D01*
X102248997Y-52963317D01*
X102197943Y-53039124D01*
X102178936Y-53075262D01*
X102135716Y-53212422D01*
X102132077Y-53345945D01*
X100046342Y-53345945D01*
X100045775Y-53105178D01*
X100045242Y-52786336D01*
X100044836Y-52432937D01*
X100044547Y-52043320D01*
X100044361Y-51615823D01*
X100044267Y-51148784D01*
X100044250Y-50808086D01*
X100044263Y-50322456D01*
X100044313Y-49877376D01*
X100044417Y-49471065D01*
X100044592Y-49101739D01*
X100044853Y-48767615D01*
X100045218Y-48466912D01*
X100045702Y-48197847D01*
X100046324Y-47958636D01*
X100047098Y-47747497D01*
X100048043Y-47562648D01*
X100049173Y-47402306D01*
X100050507Y-47264688D01*
X100052060Y-47148012D01*
X100053849Y-47050494D01*
X100055891Y-46970353D01*
X100057461Y-46926500D01*
X100266500Y-46926500D01*
X100266500Y-50694167D01*
X108034667Y-50694167D01*
X108034667Y-46926500D01*
X100266500Y-46926500D01*
X100057461Y-46926500D01*
X100058202Y-46905806D01*
X100060798Y-46855070D01*
X100063697Y-46816362D01*
X100066915Y-46787900D01*
X100070469Y-46767902D01*
X100074374Y-46754583D01*
X100078648Y-46746163D01*
X100082047Y-46742047D01*
X100087997Y-46737491D01*
X100097530Y-46733315D01*
X100112427Y-46729504D01*
X100134473Y-46726040D01*
X100165450Y-46722907D01*
X100207139Y-46720089D01*
X100261325Y-46717569D01*
X100329789Y-46715330D01*
X100414314Y-46713356D01*
X100516683Y-46711631D01*
X100638679Y-46710137D01*
X100782084Y-46708858D01*
X100948681Y-46707778D01*
X101140252Y-46706879D01*
X101358580Y-46706147D01*
X101605447Y-46705563D01*
X101882637Y-46705111D01*
X102191932Y-46704775D01*
X102535115Y-46704538D01*
X102913968Y-46704384D01*
X103330274Y-46704295D01*
X103785815Y-46704257D01*
X104148086Y-46704250D01*
X104642937Y-46704288D01*
X104642937Y-46704288D01*
G37*
X104642937Y-46704288D02*
X105097117Y-46704410D01*
X105512287Y-46704628D01*
X105890111Y-46704953D01*
X106232249Y-46705398D01*
X106540364Y-46705975D01*
X106816118Y-46706695D01*
X107061173Y-46707570D01*
X107277191Y-46708613D01*
X107465833Y-46709834D01*
X107628763Y-46711246D01*
X107767642Y-46712861D01*
X107884132Y-46714691D01*
X107979895Y-46716747D01*
X108056593Y-46719042D01*
X108115888Y-46721587D01*
X108159443Y-46724394D01*
X108188918Y-46727476D01*
X108205977Y-46730843D01*
X108211330Y-46733300D01*
X108215550Y-46738998D01*
X108219420Y-46749961D01*
X108222953Y-46767950D01*
X108226165Y-46794728D01*
X108229071Y-46832056D01*
X108231686Y-46881696D01*
X108234026Y-46945409D01*
X108236105Y-47024957D01*
X108237939Y-47122101D01*
X108239543Y-47238605D01*
X108240931Y-47376228D01*
X108242120Y-47536733D01*
X108243123Y-47721881D01*
X108243957Y-47933434D01*
X108244636Y-48173154D01*
X108245176Y-48442803D01*
X108245591Y-48744141D01*
X108245898Y-49078932D01*
X108246110Y-49448936D01*
X108246243Y-49855915D01*
X108246312Y-50301630D01*
X108246333Y-50787845D01*
X108246333Y-50808942D01*
X108246275Y-51319639D01*
X108246096Y-51789403D01*
X108245787Y-52219633D01*
X108245338Y-52611729D01*
X108244742Y-52967091D01*
X108243989Y-53287118D01*
X108243072Y-53573211D01*
X108241980Y-53826769D01*
X108240706Y-54049192D01*
X108239241Y-54241879D01*
X108237575Y-54406231D01*
X108235701Y-54543646D01*
X108233609Y-54655526D01*
X108231291Y-54743269D01*
X108228738Y-54808275D01*
X108225941Y-54851945D01*
X108222892Y-54875677D01*
X108220933Y-54880933D01*
X108208515Y-54884138D01*
X108177001Y-54887086D01*
X108124992Y-54889784D01*
X108051088Y-54892243D01*
X107953889Y-54894470D01*
X107831996Y-54896474D01*
X107684008Y-54898264D01*
X107508527Y-54899848D01*
X107304151Y-54901237D01*
X107069482Y-54902437D01*
X106803120Y-54903458D01*
X106503665Y-54904309D01*
X106169717Y-54904998D01*
X105799876Y-54905534D01*
X105392743Y-54905926D01*
X104946918Y-54906183D01*
X104461001Y-54906312D01*
X104148942Y-54906333D01*
X103661007Y-54906314D01*
X103213644Y-54906247D01*
X102805091Y-54906117D01*
X102433587Y-54905908D01*
X102097369Y-54905606D01*
X101794676Y-54905196D01*
X101523746Y-54904661D01*
X101282818Y-54903988D01*
X101070130Y-54903161D01*
X100883920Y-54902165D01*
X100722427Y-54900984D01*
X100583888Y-54899604D01*
X100466543Y-54898010D01*
X100368629Y-54896186D01*
X100288385Y-54894117D01*
X100224050Y-54891789D01*
X100173861Y-54889185D01*
X100136057Y-54886292D01*
X100108875Y-54883092D01*
X100090556Y-54879573D01*
X100079336Y-54875718D01*
X100073455Y-54871512D01*
X100073300Y-54871330D01*
X100069732Y-54861759D01*
X100066457Y-54840900D01*
X100063465Y-54807091D01*
X100060743Y-54758671D01*
X100058280Y-54693977D01*
X100056063Y-54611347D01*
X100054080Y-54509119D01*
X100052321Y-54385632D01*
X100050772Y-54239223D01*
X100049422Y-54068230D01*
X100048259Y-53870991D01*
X100047272Y-53645844D01*
X100046448Y-53391127D01*
X100046342Y-53345945D01*
X102132077Y-53345945D01*
X102165591Y-53470037D01*
X102233829Y-53578905D01*
X102334364Y-53666752D01*
X102450323Y-53723008D01*
X102573283Y-53751182D01*
X102715457Y-53761641D01*
X102857452Y-53754043D01*
X102966700Y-53732191D01*
X103024964Y-53706426D01*
X103511672Y-53706426D01*
X103530216Y-53715291D01*
X103574921Y-53718552D01*
X103653027Y-53717352D01*
X103675301Y-53716606D01*
X103850821Y-53710417D01*
X103947785Y-53549112D01*
X103997463Y-53468156D01*
X104044499Y-53394390D01*
X104080764Y-53340483D01*
X104088619Y-53329689D01*
X104132487Y-53271570D01*
X104206218Y-53374577D01*
X104259238Y-53452073D01*
X104317440Y-53542196D01*
X104352503Y-53599292D01*
X104425057Y-53721000D01*
X104600028Y-53721000D01*
X104680091Y-53719229D01*
X104740888Y-53714512D01*
X104772570Y-53707743D01*
X104774959Y-53705125D01*
X104763875Y-53677274D01*
X104733885Y-53622101D01*
X104689795Y-53547352D01*
X104636413Y-53460776D01*
X104578546Y-53370117D01*
X104520999Y-53283124D01*
X104519017Y-53280265D01*
X104958873Y-53280265D01*
X104971564Y-53410657D01*
X105018699Y-53531465D01*
X105068594Y-53601544D01*
X105115284Y-53639959D01*
X105186508Y-53682896D01*
X105266574Y-53721677D01*
X105325333Y-53743540D01*
X105387721Y-53754330D01*
X105476878Y-53759926D01*
X105577567Y-53760399D01*
X105674552Y-53755819D01*
X105752595Y-53746256D01*
X105773586Y-53741478D01*
X105906024Y-53685879D01*
X106012584Y-53603338D01*
X106090278Y-53499935D01*
X106136113Y-53381753D01*
X106147098Y-53254874D01*
X106120243Y-53125379D01*
X106099995Y-53077770D01*
X106065011Y-53014492D01*
X106023894Y-52961516D01*
X105966778Y-52908250D01*
X105883794Y-52844098D01*
X105879194Y-52840713D01*
X105888936Y-52824385D01*
X105921423Y-52787454D01*
X105957736Y-52749931D01*
X106041268Y-52640220D01*
X106089230Y-52519072D01*
X106102462Y-52393669D01*
X106081802Y-52271193D01*
X106028091Y-52158827D01*
X105942167Y-52063754D01*
X105871959Y-52016018D01*
X105814239Y-51986196D01*
X105763499Y-51967707D01*
X105706375Y-51957890D01*
X105629506Y-51954089D01*
X105558167Y-51953583D01*
X105433728Y-51957766D01*
X105338913Y-51972976D01*
X105261599Y-52003199D01*
X105189666Y-52052426D01*
X105148818Y-52088291D01*
X105065793Y-52191506D01*
X105015196Y-52311307D01*
X104997469Y-52438908D01*
X105013052Y-52565522D01*
X105062386Y-52682363D01*
X105115540Y-52751857D01*
X105198045Y-52838587D01*
X105121229Y-52913190D01*
X105034329Y-53023370D01*
X104980003Y-53148449D01*
X104958873Y-53280265D01*
X104519017Y-53280265D01*
X104468580Y-53207543D01*
X104452620Y-53185607D01*
X104346274Y-53041797D01*
X104550053Y-52735936D01*
X104616433Y-52635717D01*
X104673767Y-52548035D01*
X104718254Y-52478796D01*
X104746094Y-52433904D01*
X104753833Y-52419370D01*
X104734338Y-52414401D01*
X104682527Y-52410658D01*
X104608417Y-52408775D01*
X104584395Y-52408667D01*
X104414957Y-52408667D01*
X104285995Y-52609750D01*
X104234129Y-52689735D01*
X104190959Y-52754636D01*
X104161308Y-52797317D01*
X104150173Y-52810833D01*
X104136004Y-52794638D01*
X104102588Y-52750595D01*
X104054988Y-52685514D01*
X104000772Y-52609750D01*
X103858231Y-52408667D01*
X103680871Y-52408667D01*
X103615410Y-52407910D01*
X103567607Y-52408606D01*
X103538301Y-52415206D01*
X103528331Y-52432158D01*
X103538539Y-52463912D01*
X103569764Y-52514919D01*
X103622846Y-52589629D01*
X103698624Y-52692490D01*
X103746789Y-52757917D01*
X103814959Y-52851559D01*
X103873348Y-52933161D01*
X103917730Y-52996704D01*
X103943877Y-53036166D01*
X103949091Y-53046048D01*
X103937168Y-53068677D01*
X103906303Y-53112015D01*
X103883480Y-53141298D01*
X103844406Y-53192836D01*
X103792377Y-53265354D01*
X103732813Y-53350832D01*
X103671132Y-53441254D01*
X103612753Y-53528604D01*
X103563096Y-53604862D01*
X103527579Y-53662014D01*
X103512055Y-53690813D01*
X103511672Y-53706426D01*
X103024964Y-53706426D01*
X103100910Y-53672842D01*
X103204450Y-53585591D01*
X103275031Y-53473471D01*
X103310363Y-53339513D01*
X103314152Y-53272051D01*
X103298169Y-53137607D01*
X103248590Y-53025758D01*
X103161806Y-52929217D01*
X103132734Y-52905749D01*
X103046460Y-52839946D01*
X103134056Y-52743193D01*
X103212830Y-52630156D01*
X103258704Y-52506641D01*
X103271874Y-52380298D01*
X103252534Y-52258776D01*
X103200878Y-52149725D01*
X103117102Y-52060793D01*
X103116675Y-52060467D01*
X102994561Y-51992293D01*
X102852978Y-51953714D01*
X102702721Y-51944729D01*
X102554588Y-51965339D01*
X102419374Y-52015544D01*
X102348184Y-52060447D01*
X102271544Y-52142114D01*
X102212727Y-52250512D01*
X102178153Y-52371606D01*
X102171707Y-52446388D01*
X102185780Y-52575689D01*
X102231255Y-52682640D01*
X102303743Y-52769320D01*
X102376827Y-52838859D01*
X102302560Y-52904067D01*
X102248997Y-52963317D01*
X102197943Y-53039124D01*
X102178936Y-53075262D01*
X102135716Y-53212422D01*
X102132077Y-53345945D01*
X100046342Y-53345945D01*
X100045775Y-53105178D01*
X100045242Y-52786336D01*
X100044836Y-52432937D01*
X100044547Y-52043320D01*
X100044361Y-51615823D01*
X100044267Y-51148784D01*
X100044250Y-50808086D01*
X100044263Y-50322456D01*
X100044313Y-49877376D01*
X100044417Y-49471065D01*
X100044592Y-49101739D01*
X100044853Y-48767615D01*
X100045218Y-48466912D01*
X100045702Y-48197847D01*
X100046324Y-47958636D01*
X100047098Y-47747497D01*
X100048043Y-47562648D01*
X100049173Y-47402306D01*
X100050507Y-47264688D01*
X100052060Y-47148012D01*
X100053849Y-47050494D01*
X100055891Y-46970353D01*
X100057461Y-46926500D01*
X100266500Y-46926500D01*
X100266500Y-50694167D01*
X108034667Y-50694167D01*
X108034667Y-46926500D01*
X100266500Y-46926500D01*
X100057461Y-46926500D01*
X100058202Y-46905806D01*
X100060798Y-46855070D01*
X100063697Y-46816362D01*
X100066915Y-46787900D01*
X100070469Y-46767902D01*
X100074374Y-46754583D01*
X100078648Y-46746163D01*
X100082047Y-46742047D01*
X100087997Y-46737491D01*
X100097530Y-46733315D01*
X100112427Y-46729504D01*
X100134473Y-46726040D01*
X100165450Y-46722907D01*
X100207139Y-46720089D01*
X100261325Y-46717569D01*
X100329789Y-46715330D01*
X100414314Y-46713356D01*
X100516683Y-46711631D01*
X100638679Y-46710137D01*
X100782084Y-46708858D01*
X100948681Y-46707778D01*
X101140252Y-46706879D01*
X101358580Y-46706147D01*
X101605447Y-46705563D01*
X101882637Y-46705111D01*
X102191932Y-46704775D01*
X102535115Y-46704538D01*
X102913968Y-46704384D01*
X103330274Y-46704295D01*
X103785815Y-46704257D01*
X104148086Y-46704250D01*
X104642937Y-46704288D01*
G36*
X102731215Y-53000845D02*
X102853398Y-53062558D01*
X102939617Y-53133001D01*
X102987516Y-53209843D01*
X102997000Y-53264086D01*
X102977513Y-53347849D01*
X102921105Y-53414359D01*
X102830852Y-53460225D01*
X102814495Y-53465140D01*
X102752478Y-53480873D01*
X102709084Y-53484449D01*
X102662405Y-53475931D01*
X102625921Y-53465685D01*
X102543213Y-53424990D01*
X102481017Y-53362249D01*
X102454730Y-53305746D01*
X102453150Y-53229068D01*
X102477535Y-53139778D01*
X102522587Y-53053809D01*
X102550496Y-53017842D01*
X102609736Y-52951541D01*
X102731215Y-53000845D01*
X102731215Y-53000845D01*
G37*
X102731215Y-53000845D02*
X102853398Y-53062558D01*
X102939617Y-53133001D01*
X102987516Y-53209843D01*
X102997000Y-53264086D01*
X102977513Y-53347849D01*
X102921105Y-53414359D01*
X102830852Y-53460225D01*
X102814495Y-53465140D01*
X102752478Y-53480873D01*
X102709084Y-53484449D01*
X102662405Y-53475931D01*
X102625921Y-53465685D01*
X102543213Y-53424990D01*
X102481017Y-53362249D01*
X102454730Y-53305746D01*
X102453150Y-53229068D01*
X102477535Y-53139778D01*
X102522587Y-53053809D01*
X102550496Y-53017842D01*
X102609736Y-52951541D01*
X102731215Y-53000845D01*
G36*
X102798044Y-52244110D02*
X102848002Y-52263388D01*
X102892795Y-52301205D01*
X102939672Y-52365299D01*
X102952822Y-52435838D01*
X102933387Y-52522568D01*
X102922109Y-52551447D01*
X102875855Y-52641125D01*
X102825473Y-52690404D01*
X102765008Y-52701176D01*
X102688505Y-52675336D01*
X102632998Y-52643406D01*
X102551748Y-52573952D01*
X102505791Y-52496500D01*
X102493475Y-52418212D01*
X102513146Y-52346247D01*
X102563149Y-52287766D01*
X102641832Y-52249931D01*
X102726316Y-52239333D01*
X102798044Y-52244110D01*
X102798044Y-52244110D01*
G37*
X102798044Y-52244110D02*
X102848002Y-52263388D01*
X102892795Y-52301205D01*
X102939672Y-52365299D01*
X102952822Y-52435838D01*
X102933387Y-52522568D01*
X102922109Y-52551447D01*
X102875855Y-52641125D01*
X102825473Y-52690404D01*
X102765008Y-52701176D01*
X102688505Y-52675336D01*
X102632998Y-52643406D01*
X102551748Y-52573952D01*
X102505791Y-52496500D01*
X102493475Y-52418212D01*
X102513146Y-52346247D01*
X102563149Y-52287766D01*
X102641832Y-52249931D01*
X102726316Y-52239333D01*
X102798044Y-52244110D01*
G36*
X105472489Y-52971909D02*
X105534807Y-52993598D01*
X105611758Y-53029385D01*
X105619788Y-53033564D01*
X105730406Y-53104073D01*
X105799206Y-53177198D01*
X105826060Y-53252616D01*
X105810840Y-53330004D01*
X105763680Y-53398240D01*
X105711934Y-53435974D01*
X105639875Y-53468234D01*
X105569375Y-53486023D01*
X105547583Y-53487119D01*
X105515700Y-53479994D01*
X105461655Y-53463164D01*
X105441750Y-53456283D01*
X105353897Y-53411149D01*
X105302460Y-53348334D01*
X105283335Y-53262418D01*
X105283000Y-53246642D01*
X105294913Y-53173906D01*
X105325719Y-53096075D01*
X105368018Y-53026649D01*
X105414412Y-52979128D01*
X105435634Y-52968165D01*
X105472489Y-52971909D01*
X105472489Y-52971909D01*
G37*
X105472489Y-52971909D02*
X105534807Y-52993598D01*
X105611758Y-53029385D01*
X105619788Y-53033564D01*
X105730406Y-53104073D01*
X105799206Y-53177198D01*
X105826060Y-53252616D01*
X105810840Y-53330004D01*
X105763680Y-53398240D01*
X105711934Y-53435974D01*
X105639875Y-53468234D01*
X105569375Y-53486023D01*
X105547583Y-53487119D01*
X105515700Y-53479994D01*
X105461655Y-53463164D01*
X105441750Y-53456283D01*
X105353897Y-53411149D01*
X105302460Y-53348334D01*
X105283335Y-53262418D01*
X105283000Y-53246642D01*
X105294913Y-53173906D01*
X105325719Y-53096075D01*
X105368018Y-53026649D01*
X105414412Y-52979128D01*
X105435634Y-52968165D01*
X105472489Y-52971909D01*
G36*
X105635141Y-52244679D02*
X105685969Y-52264655D01*
X105717879Y-52291288D01*
X105760502Y-52361702D01*
X105771348Y-52448196D01*
X105751915Y-52540676D01*
X105703698Y-52629049D01*
X105660719Y-52676694D01*
X105611083Y-52722472D01*
X105512569Y-52672027D01*
X105411349Y-52606162D01*
X105349836Y-52531410D01*
X105325839Y-52444925D01*
X105325333Y-52428860D01*
X105343856Y-52346430D01*
X105396478Y-52285120D01*
X105478782Y-52248487D01*
X105560753Y-52239333D01*
X105635141Y-52244679D01*
X105635141Y-52244679D01*
G37*
X105635141Y-52244679D02*
X105685969Y-52264655D01*
X105717879Y-52291288D01*
X105760502Y-52361702D01*
X105771348Y-52448196D01*
X105751915Y-52540676D01*
X105703698Y-52629049D01*
X105660719Y-52676694D01*
X105611083Y-52722472D01*
X105512569Y-52672027D01*
X105411349Y-52606162D01*
X105349836Y-52531410D01*
X105325839Y-52444925D01*
X105325333Y-52428860D01*
X105343856Y-52346430D01*
X105396478Y-52285120D01*
X105478782Y-52248487D01*
X105560753Y-52239333D01*
X105635141Y-52244679D01*
G36*
X101070833Y-48627258D02*
X101071671Y-48840214D01*
X101074149Y-49017872D01*
X101078214Y-49158647D01*
X101083815Y-49260950D01*
X101090899Y-49323195D01*
X101094295Y-49336984D01*
X101139462Y-49405618D01*
X101215360Y-49449950D01*
X101315839Y-49466467D01*
X101320928Y-49466500D01*
X101415024Y-49447587D01*
X101487706Y-49393686D01*
X101533440Y-49309048D01*
X101535653Y-49301495D01*
X101541727Y-49258178D01*
X101547051Y-49177773D01*
X101551459Y-49065523D01*
X101554788Y-48926668D01*
X101556872Y-48766450D01*
X101557548Y-48603958D01*
X101557667Y-47984833D01*
X101896333Y-47984833D01*
X101896333Y-48647741D01*
X101895964Y-48843840D01*
X101894719Y-49002480D01*
X101892391Y-49128530D01*
X101888773Y-49226861D01*
X101883658Y-49302341D01*
X101876838Y-49359839D01*
X101868106Y-49404225D01*
X101863417Y-49421491D01*
X101805770Y-49544366D01*
X101715848Y-49644029D01*
X101600359Y-49713773D01*
X101554991Y-49729917D01*
X101448906Y-49750516D01*
X101321331Y-49759329D01*
X101191508Y-49756102D01*
X101078679Y-49740582D01*
X101061467Y-49736413D01*
X100984726Y-49700287D01*
X100903053Y-49636777D01*
X100828179Y-49557411D01*
X100771834Y-49473722D01*
X100754585Y-49434750D01*
X100745501Y-49397438D01*
X100737907Y-49339508D01*
X100731615Y-49257182D01*
X100726437Y-49146680D01*
X100722185Y-49004225D01*
X100718672Y-48826037D01*
X100716419Y-48667458D01*
X100707887Y-47984833D01*
X101070833Y-47984833D01*
X101070833Y-48627258D01*
X101070833Y-48627258D01*
G37*
X101070833Y-48627258D02*
X101071671Y-48840214D01*
X101074149Y-49017872D01*
X101078214Y-49158647D01*
X101083815Y-49260950D01*
X101090899Y-49323195D01*
X101094295Y-49336984D01*
X101139462Y-49405618D01*
X101215360Y-49449950D01*
X101315839Y-49466467D01*
X101320928Y-49466500D01*
X101415024Y-49447587D01*
X101487706Y-49393686D01*
X101533440Y-49309048D01*
X101535653Y-49301495D01*
X101541727Y-49258178D01*
X101547051Y-49177773D01*
X101551459Y-49065523D01*
X101554788Y-48926668D01*
X101556872Y-48766450D01*
X101557548Y-48603958D01*
X101557667Y-47984833D01*
X101896333Y-47984833D01*
X101896333Y-48647741D01*
X101895964Y-48843840D01*
X101894719Y-49002480D01*
X101892391Y-49128530D01*
X101888773Y-49226861D01*
X101883658Y-49302341D01*
X101876838Y-49359839D01*
X101868106Y-49404225D01*
X101863417Y-49421491D01*
X101805770Y-49544366D01*
X101715848Y-49644029D01*
X101600359Y-49713773D01*
X101554991Y-49729917D01*
X101448906Y-49750516D01*
X101321331Y-49759329D01*
X101191508Y-49756102D01*
X101078679Y-49740582D01*
X101061467Y-49736413D01*
X100984726Y-49700287D01*
X100903053Y-49636777D01*
X100828179Y-49557411D01*
X100771834Y-49473722D01*
X100754585Y-49434750D01*
X100745501Y-49397438D01*
X100737907Y-49339508D01*
X100731615Y-49257182D01*
X100726437Y-49146680D01*
X100722185Y-49004225D01*
X100718672Y-48826037D01*
X100716419Y-48667458D01*
X100707887Y-47984833D01*
X101070833Y-47984833D01*
X101070833Y-48627258D01*
G36*
X105664000Y-48862254D02*
X105665290Y-49047240D01*
X105669144Y-49191793D01*
X105675534Y-49295376D01*
X105684435Y-49357450D01*
X105688653Y-49370449D01*
X105733084Y-49425360D01*
X105804831Y-49452747D01*
X105905527Y-49452791D01*
X106036804Y-49425671D01*
X106078319Y-49413526D01*
X106102380Y-49410020D01*
X106118179Y-49423257D01*
X106129994Y-49461514D01*
X106142104Y-49533068D01*
X106142914Y-49538469D01*
X106163606Y-49676928D01*
X106077845Y-49711467D01*
X105988345Y-49736559D01*
X105878577Y-49751652D01*
X105764233Y-49756042D01*
X105661009Y-49749024D01*
X105592822Y-49733228D01*
X105513003Y-49696473D01*
X105449879Y-49649199D01*
X105401377Y-49586295D01*
X105365423Y-49502652D01*
X105339942Y-49393160D01*
X105322861Y-49252707D01*
X105312105Y-49076185D01*
X105310595Y-49037875D01*
X105297559Y-48683333D01*
X104944333Y-48683333D01*
X104944333Y-48408167D01*
X105664000Y-48408167D01*
X105664000Y-48862254D01*
X105664000Y-48862254D01*
G37*
X105664000Y-48862254D02*
X105665290Y-49047240D01*
X105669144Y-49191793D01*
X105675534Y-49295376D01*
X105684435Y-49357450D01*
X105688653Y-49370449D01*
X105733084Y-49425360D01*
X105804831Y-49452747D01*
X105905527Y-49452791D01*
X106036804Y-49425671D01*
X106078319Y-49413526D01*
X106102380Y-49410020D01*
X106118179Y-49423257D01*
X106129994Y-49461514D01*
X106142104Y-49533068D01*
X106142914Y-49538469D01*
X106163606Y-49676928D01*
X106077845Y-49711467D01*
X105988345Y-49736559D01*
X105878577Y-49751652D01*
X105764233Y-49756042D01*
X105661009Y-49749024D01*
X105592822Y-49733228D01*
X105513003Y-49696473D01*
X105449879Y-49649199D01*
X105401377Y-49586295D01*
X105365423Y-49502652D01*
X105339942Y-49393160D01*
X105322861Y-49252707D01*
X105312105Y-49076185D01*
X105310595Y-49037875D01*
X105297559Y-48683333D01*
X104944333Y-48683333D01*
X104944333Y-48408167D01*
X105664000Y-48408167D01*
X105664000Y-48862254D01*
G36*
X102573667Y-49445333D02*
X103314500Y-49445333D01*
X103314500Y-49720500D01*
X102213833Y-49720500D01*
X102213833Y-47984833D01*
X102573667Y-47984833D01*
X102573667Y-49445333D01*
X102573667Y-49445333D01*
G37*
X102573667Y-49445333D02*
X103314500Y-49445333D01*
X103314500Y-49720500D01*
X102213833Y-49720500D01*
X102213833Y-47984833D01*
X102573667Y-47984833D01*
X102573667Y-49445333D01*
G36*
X104770675Y-48127708D02*
X104764417Y-48270583D01*
X104309333Y-48282599D01*
X104309333Y-49720500D01*
X103970667Y-49720500D01*
X103970667Y-48281167D01*
X103505000Y-48281167D01*
X103505000Y-47984833D01*
X104776934Y-47984833D01*
X104770675Y-48127708D01*
X104770675Y-48127708D01*
G37*
X104770675Y-48127708D02*
X104764417Y-48270583D01*
X104309333Y-48282599D01*
X104309333Y-49720500D01*
X103970667Y-49720500D01*
X103970667Y-48281167D01*
X103505000Y-48281167D01*
X103505000Y-47984833D01*
X104776934Y-47984833D01*
X104770675Y-48127708D01*
G36*
X106837925Y-48371125D02*
X106961147Y-48757417D01*
X107085774Y-48371125D01*
X107210402Y-47984833D01*
X107357951Y-47984833D01*
X107436418Y-47986272D01*
X107481362Y-47992051D01*
X107501540Y-48004364D01*
X107505760Y-48021875D01*
X107507606Y-48054714D01*
X107512545Y-48121773D01*
X107519951Y-48215099D01*
X107529199Y-48326741D01*
X107536143Y-48408167D01*
X107547989Y-48555354D01*
X107559537Y-48716215D01*
X107569647Y-48873726D01*
X107577178Y-49010865D01*
X107578664Y-49043167D01*
X107584542Y-49171848D01*
X107591207Y-49306999D01*
X107597813Y-49431986D01*
X107603173Y-49524708D01*
X107615284Y-49720500D01*
X107294454Y-49720500D01*
X107288852Y-49081245D01*
X107283250Y-48441991D01*
X107188000Y-48774288D01*
X107092750Y-49106584D01*
X106963208Y-49106625D01*
X106833666Y-49106667D01*
X106648250Y-48439917D01*
X106642648Y-49080208D01*
X106637046Y-49720500D01*
X106317603Y-49720500D01*
X106329011Y-49577625D01*
X106334002Y-49503332D01*
X106339741Y-49399144D01*
X106345602Y-49277478D01*
X106350959Y-49150749D01*
X106352238Y-49117250D01*
X106358785Y-48961122D01*
X106367038Y-48794752D01*
X106376467Y-48626532D01*
X106386541Y-48464856D01*
X106396731Y-48318115D01*
X106406506Y-48194705D01*
X106415337Y-48103017D01*
X106417417Y-48085375D01*
X106429972Y-47984833D01*
X106714704Y-47984833D01*
X106837925Y-48371125D01*
X106837925Y-48371125D01*
G37*
X106837925Y-48371125D02*
X106961147Y-48757417D01*
X107085774Y-48371125D01*
X107210402Y-47984833D01*
X107357951Y-47984833D01*
X107436418Y-47986272D01*
X107481362Y-47992051D01*
X107501540Y-48004364D01*
X107505760Y-48021875D01*
X107507606Y-48054714D01*
X107512545Y-48121773D01*
X107519951Y-48215099D01*
X107529199Y-48326741D01*
X107536143Y-48408167D01*
X107547989Y-48555354D01*
X107559537Y-48716215D01*
X107569647Y-48873726D01*
X107577178Y-49010865D01*
X107578664Y-49043167D01*
X107584542Y-49171848D01*
X107591207Y-49306999D01*
X107597813Y-49431986D01*
X107603173Y-49524708D01*
X107615284Y-49720500D01*
X107294454Y-49720500D01*
X107288852Y-49081245D01*
X107283250Y-48441991D01*
X107188000Y-48774288D01*
X107092750Y-49106584D01*
X106963208Y-49106625D01*
X106833666Y-49106667D01*
X106648250Y-48439917D01*
X106642648Y-49080208D01*
X106637046Y-49720500D01*
X106317603Y-49720500D01*
X106329011Y-49577625D01*
X106334002Y-49503332D01*
X106339741Y-49399144D01*
X106345602Y-49277478D01*
X106350959Y-49150749D01*
X106352238Y-49117250D01*
X106358785Y-48961122D01*
X106367038Y-48794752D01*
X106376467Y-48626532D01*
X106386541Y-48464856D01*
X106396731Y-48318115D01*
X106406506Y-48194705D01*
X106415337Y-48103017D01*
X106417417Y-48085375D01*
X106429972Y-47984833D01*
X106714704Y-47984833D01*
X106837925Y-48371125D01*
G36*
X105532773Y-47830047D02*
X105593700Y-47880862D01*
X105633147Y-47949474D01*
X105646385Y-48027918D01*
X105628687Y-48108225D01*
X105580961Y-48176961D01*
X105503203Y-48228000D01*
X105416227Y-48240471D01*
X105328723Y-48214169D01*
X105284624Y-48184035D01*
X105242925Y-48142031D01*
X105223961Y-48096960D01*
X105219500Y-48029995D01*
X105231898Y-47932702D01*
X105271583Y-47865048D01*
X105342290Y-47821494D01*
X105365387Y-47813682D01*
X105455092Y-47804998D01*
X105532773Y-47830047D01*
X105532773Y-47830047D01*
G37*
X105532773Y-47830047D02*
X105593700Y-47880862D01*
X105633147Y-47949474D01*
X105646385Y-48027918D01*
X105628687Y-48108225D01*
X105580961Y-48176961D01*
X105503203Y-48228000D01*
X105416227Y-48240471D01*
X105328723Y-48214169D01*
X105284624Y-48184035D01*
X105242925Y-48142031D01*
X105223961Y-48096960D01*
X105219500Y-48029995D01*
X105231898Y-47932702D01*
X105271583Y-47865048D01*
X105342290Y-47821494D01*
X105365387Y-47813682D01*
X105455092Y-47804998D01*
X105532773Y-47830047D01*
G36*
X119660132Y-46735141D02*
X119849330Y-46735704D01*
X120031803Y-46736553D01*
X120204802Y-46737693D01*
X120365580Y-46739121D01*
X120511388Y-46740837D01*
X120639478Y-46742843D01*
X120747101Y-46745137D01*
X120831511Y-46747719D01*
X120889958Y-46750591D01*
X120919694Y-46753751D01*
X120921045Y-46754101D01*
X120994650Y-46789801D01*
X121048272Y-46842954D01*
X121081256Y-46907582D01*
X121092948Y-46977706D01*
X121082692Y-47047346D01*
X121049833Y-47110525D01*
X120993717Y-47161264D01*
X120967218Y-47175553D01*
X120904819Y-47204312D01*
X120904409Y-48686141D01*
X120904000Y-50167969D01*
X121331194Y-50908641D01*
X121421737Y-51065615D01*
X121524897Y-51244444D01*
X121637416Y-51439483D01*
X121756038Y-51645090D01*
X121877507Y-51855620D01*
X121998568Y-52065429D01*
X122115963Y-52268874D01*
X122226437Y-52460312D01*
X122275756Y-52545770D01*
X122364967Y-52700722D01*
X122449309Y-52847946D01*
X122527458Y-52985082D01*
X122598089Y-53109771D01*
X122659877Y-53219652D01*
X122711497Y-53312365D01*
X122751624Y-53385552D01*
X122778934Y-53436852D01*
X122792102Y-53463905D01*
X122793125Y-53467254D01*
X122785259Y-53487854D01*
X122762954Y-53532330D01*
X122728145Y-53597359D01*
X122682767Y-53679615D01*
X122628756Y-53775774D01*
X122568047Y-53882511D01*
X122502577Y-53996503D01*
X122434279Y-54114423D01*
X122365091Y-54232948D01*
X122296948Y-54348754D01*
X122231784Y-54458515D01*
X122171537Y-54558906D01*
X122118141Y-54646605D01*
X122073532Y-54718285D01*
X122039645Y-54770622D01*
X122018416Y-54800292D01*
X122014599Y-54804468D01*
X121967124Y-54848125D01*
X116792875Y-54848125D01*
X116745400Y-54804468D01*
X116728606Y-54782746D01*
X116698539Y-54737288D01*
X116657134Y-54671420D01*
X116606325Y-54588466D01*
X116548050Y-54491753D01*
X116484242Y-54384605D01*
X116416838Y-54270346D01*
X116347772Y-54152303D01*
X116278981Y-54033800D01*
X116212400Y-53918163D01*
X116149963Y-53808717D01*
X116093608Y-53708786D01*
X116045267Y-53621695D01*
X116006879Y-53550771D01*
X115980377Y-53499338D01*
X115967697Y-53470720D01*
X115966874Y-53466933D01*
X115973139Y-53451738D01*
X116471817Y-53451738D01*
X116746508Y-53927681D01*
X117021198Y-54403625D01*
X121738654Y-54403625D01*
X122013694Y-53926873D01*
X122288735Y-53450121D01*
X122180627Y-53264091D01*
X122132108Y-53180084D01*
X122081391Y-53091405D01*
X122034699Y-53008982D01*
X122000228Y-52947315D01*
X121927937Y-52816567D01*
X119912125Y-52816125D01*
X120207748Y-53113781D01*
X120287725Y-53194852D01*
X120360741Y-53269905D01*
X120423638Y-53335609D01*
X120473257Y-53388634D01*
X120506440Y-53425650D01*
X120519732Y-53442697D01*
X120527043Y-53480230D01*
X120514704Y-53515316D01*
X120489692Y-53551070D01*
X120449306Y-53595828D01*
X120400048Y-53643770D01*
X120348420Y-53689074D01*
X120300926Y-53725919D01*
X120264067Y-53748484D01*
X120249480Y-53752750D01*
X120227132Y-53742200D01*
X120185787Y-53710232D01*
X120124908Y-53656363D01*
X120043960Y-53580114D01*
X119942408Y-53481002D01*
X119900810Y-53439741D01*
X119586375Y-53126732D01*
X119586375Y-53561522D01*
X119586186Y-53692308D01*
X119585480Y-53795011D01*
X119584051Y-53873296D01*
X119581691Y-53930830D01*
X119578191Y-53971276D01*
X119573345Y-53998301D01*
X119566944Y-54015570D01*
X119560102Y-54025343D01*
X119543266Y-54038829D01*
X119517807Y-54047459D01*
X119477181Y-54052237D01*
X119414844Y-54054165D01*
X119370754Y-54054375D01*
X119297007Y-54053988D01*
X119248052Y-54051820D01*
X119216932Y-54046360D01*
X119196690Y-54036094D01*
X119180370Y-54019512D01*
X119174053Y-54011627D01*
X119163921Y-53997620D01*
X119156117Y-53981895D01*
X119150392Y-53960501D01*
X119146497Y-53929484D01*
X119144185Y-53884892D01*
X119143207Y-53822771D01*
X119143314Y-53739170D01*
X119144259Y-53630136D01*
X119145120Y-53551238D01*
X119146336Y-53439830D01*
X119147363Y-53339621D01*
X119148164Y-53254754D01*
X119148700Y-53189372D01*
X119148937Y-53147619D01*
X119148846Y-53133611D01*
X119137874Y-53144389D01*
X119107423Y-53174776D01*
X119060394Y-53221863D01*
X118999693Y-53282739D01*
X118928221Y-53354496D01*
X118848882Y-53434225D01*
X118847221Y-53435894D01*
X118765795Y-53516741D01*
X118689946Y-53590133D01*
X118623010Y-53652994D01*
X118568322Y-53702247D01*
X118529218Y-53734816D01*
X118509337Y-53747556D01*
X118488907Y-53748152D01*
X118464469Y-53737567D01*
X118431225Y-53712398D01*
X118384375Y-53669244D01*
X118346618Y-53632190D01*
X118284367Y-53567657D01*
X118244516Y-53519575D01*
X118224581Y-53484681D01*
X118221125Y-53467521D01*
X118226451Y-53449558D01*
X118243771Y-53422344D01*
X118275090Y-53383608D01*
X118322416Y-53331079D01*
X118387757Y-53262484D01*
X118473120Y-53175551D01*
X118526566Y-53121867D01*
X118832007Y-52816125D01*
X118404557Y-52816125D01*
X118265238Y-52816235D01*
X118154412Y-52815593D01*
X118068828Y-52812739D01*
X118005238Y-52806213D01*
X117960392Y-52794556D01*
X117931040Y-52776308D01*
X117913932Y-52750009D01*
X117905820Y-52714200D01*
X117903454Y-52667420D01*
X117903583Y-52608211D01*
X117903625Y-52591107D01*
X117903249Y-52529737D01*
X117904298Y-52480980D01*
X117910033Y-52443390D01*
X117923717Y-52415522D01*
X117948611Y-52395933D01*
X117987977Y-52383178D01*
X118045078Y-52375811D01*
X118123176Y-52372388D01*
X118225532Y-52371465D01*
X118355409Y-52371596D01*
X118399196Y-52371625D01*
X118831267Y-52371625D01*
X118518258Y-52057189D01*
X118428898Y-51966371D01*
X118351404Y-51885517D01*
X118288051Y-51817128D01*
X118241114Y-51763706D01*
X118212868Y-51727753D01*
X118205250Y-51712990D01*
X118216746Y-51686392D01*
X118247271Y-51645976D01*
X118290876Y-51597523D01*
X118341613Y-51546817D01*
X118393534Y-51499641D01*
X118440690Y-51461778D01*
X118477134Y-51439010D01*
X118491177Y-51435000D01*
X118510107Y-51441738D01*
X118541067Y-51463065D01*
X118585936Y-51500648D01*
X118646590Y-51556153D01*
X118724908Y-51631247D01*
X118822767Y-51727597D01*
X118839345Y-51744083D01*
X119149812Y-52053166D01*
X119145134Y-51628775D01*
X119143453Y-51490249D01*
X119142794Y-51380203D01*
X119144651Y-51295374D01*
X119150515Y-51232496D01*
X119161879Y-51188302D01*
X119180236Y-51159528D01*
X119207078Y-51142909D01*
X119243897Y-51135179D01*
X119292186Y-51133073D01*
X119353436Y-51133325D01*
X119371546Y-51133375D01*
X119451777Y-51134496D01*
X119506137Y-51138371D01*
X119540445Y-51145763D01*
X119560519Y-51157438D01*
X119561428Y-51158321D01*
X119568921Y-51169469D01*
X119574780Y-51188540D01*
X119579198Y-51219092D01*
X119582365Y-51264686D01*
X119584473Y-51328878D01*
X119585714Y-51415230D01*
X119586279Y-51527298D01*
X119586375Y-51622142D01*
X119586375Y-52061017D01*
X119900810Y-51748008D01*
X120004977Y-51645240D01*
X120089018Y-51564457D01*
X120154393Y-51504357D01*
X120202558Y-51463639D01*
X120234973Y-51441001D01*
X120251435Y-51435000D01*
X120283640Y-51447050D01*
X120331929Y-51481515D01*
X120391031Y-51534218D01*
X120457277Y-51600807D01*
X120500369Y-51652289D01*
X120522644Y-51692492D01*
X120526437Y-51725242D01*
X120519732Y-51745052D01*
X120504448Y-51764412D01*
X120469823Y-51802842D01*
X120419016Y-51857013D01*
X120355186Y-51923594D01*
X120281491Y-51999256D01*
X120207748Y-52073968D01*
X119912125Y-52371625D01*
X121668589Y-52371625D01*
X121637294Y-52320031D01*
X121602471Y-52261823D01*
X121556078Y-52183049D01*
X121499623Y-52086349D01*
X121434614Y-51974365D01*
X121362559Y-51849736D01*
X121284966Y-51715105D01*
X121203344Y-51573113D01*
X121119201Y-51426400D01*
X121034044Y-51277608D01*
X120949382Y-51129378D01*
X120866723Y-50984351D01*
X120787576Y-50845167D01*
X120713448Y-50714468D01*
X120645847Y-50594896D01*
X120586282Y-50489090D01*
X120536260Y-50399693D01*
X120497291Y-50329345D01*
X120470882Y-50280688D01*
X120458540Y-50256361D01*
X120457896Y-50254659D01*
X120455786Y-50231630D01*
X120453779Y-50179011D01*
X120451895Y-50098962D01*
X120450154Y-49993643D01*
X120448575Y-49865212D01*
X120447179Y-49715830D01*
X120445985Y-49547656D01*
X120445013Y-49362850D01*
X120444282Y-49163573D01*
X120443814Y-48951983D01*
X120443627Y-48730240D01*
X120443625Y-48700636D01*
X120443625Y-47196375D01*
X118316989Y-47196375D01*
X118308437Y-50268187D01*
X117964729Y-50863500D01*
X117875018Y-51018868D01*
X117775473Y-51191244D01*
X117670521Y-51372961D01*
X117564590Y-51556356D01*
X117462106Y-51733764D01*
X117367496Y-51897521D01*
X117299940Y-52014437D01*
X117154356Y-52266399D01*
X117022857Y-52494050D01*
X116905664Y-52697010D01*
X116802995Y-52874897D01*
X116715071Y-53027331D01*
X116642110Y-53153931D01*
X116584332Y-53254316D01*
X116541957Y-53328107D01*
X116515205Y-53374921D01*
X116510081Y-53383962D01*
X116471817Y-53451738D01*
X115973139Y-53451738D01*
X115974593Y-53448214D01*
X115996661Y-53405010D01*
X116031444Y-53340273D01*
X116077311Y-53256953D01*
X116132628Y-53157999D01*
X116195763Y-53046362D01*
X116265083Y-52924993D01*
X116309919Y-52847074D01*
X116396007Y-52697890D01*
X116488884Y-52536959D01*
X116584742Y-52370876D01*
X116679776Y-52206236D01*
X116770179Y-52049633D01*
X116852145Y-51907663D01*
X116918823Y-51792187D01*
X116990062Y-51668821D01*
X117073259Y-51524738D01*
X117164500Y-51366716D01*
X117259870Y-51201537D01*
X117355455Y-51035979D01*
X117447341Y-50876823D01*
X117520341Y-50750372D01*
X117856000Y-50168931D01*
X117855590Y-48686622D01*
X117855180Y-47204312D01*
X117792781Y-47175553D01*
X117727983Y-47130866D01*
X117686683Y-47071549D01*
X117668225Y-47003581D01*
X117671955Y-46932941D01*
X117697218Y-46865606D01*
X117743358Y-46807557D01*
X117809721Y-46764771D01*
X117838954Y-46754101D01*
X117865501Y-46750910D01*
X117921048Y-46748009D01*
X118002847Y-46745396D01*
X118108151Y-46743071D01*
X118234211Y-46741035D01*
X118378279Y-46739288D01*
X118537606Y-46737830D01*
X118709446Y-46736660D01*
X118891049Y-46735780D01*
X119079667Y-46735187D01*
X119272552Y-46734883D01*
X119466957Y-46734868D01*
X119660132Y-46735141D01*
X119660132Y-46735141D01*
G37*
X119660132Y-46735141D02*
X119849330Y-46735704D01*
X120031803Y-46736553D01*
X120204802Y-46737693D01*
X120365580Y-46739121D01*
X120511388Y-46740837D01*
X120639478Y-46742843D01*
X120747101Y-46745137D01*
X120831511Y-46747719D01*
X120889958Y-46750591D01*
X120919694Y-46753751D01*
X120921045Y-46754101D01*
X120994650Y-46789801D01*
X121048272Y-46842954D01*
X121081256Y-46907582D01*
X121092948Y-46977706D01*
X121082692Y-47047346D01*
X121049833Y-47110525D01*
X120993717Y-47161264D01*
X120967218Y-47175553D01*
X120904819Y-47204312D01*
X120904409Y-48686141D01*
X120904000Y-50167969D01*
X121331194Y-50908641D01*
X121421737Y-51065615D01*
X121524897Y-51244444D01*
X121637416Y-51439483D01*
X121756038Y-51645090D01*
X121877507Y-51855620D01*
X121998568Y-52065429D01*
X122115963Y-52268874D01*
X122226437Y-52460312D01*
X122275756Y-52545770D01*
X122364967Y-52700722D01*
X122449309Y-52847946D01*
X122527458Y-52985082D01*
X122598089Y-53109771D01*
X122659877Y-53219652D01*
X122711497Y-53312365D01*
X122751624Y-53385552D01*
X122778934Y-53436852D01*
X122792102Y-53463905D01*
X122793125Y-53467254D01*
X122785259Y-53487854D01*
X122762954Y-53532330D01*
X122728145Y-53597359D01*
X122682767Y-53679615D01*
X122628756Y-53775774D01*
X122568047Y-53882511D01*
X122502577Y-53996503D01*
X122434279Y-54114423D01*
X122365091Y-54232948D01*
X122296948Y-54348754D01*
X122231784Y-54458515D01*
X122171537Y-54558906D01*
X122118141Y-54646605D01*
X122073532Y-54718285D01*
X122039645Y-54770622D01*
X122018416Y-54800292D01*
X122014599Y-54804468D01*
X121967124Y-54848125D01*
X116792875Y-54848125D01*
X116745400Y-54804468D01*
X116728606Y-54782746D01*
X116698539Y-54737288D01*
X116657134Y-54671420D01*
X116606325Y-54588466D01*
X116548050Y-54491753D01*
X116484242Y-54384605D01*
X116416838Y-54270346D01*
X116347772Y-54152303D01*
X116278981Y-54033800D01*
X116212400Y-53918163D01*
X116149963Y-53808717D01*
X116093608Y-53708786D01*
X116045267Y-53621695D01*
X116006879Y-53550771D01*
X115980377Y-53499338D01*
X115967697Y-53470720D01*
X115966874Y-53466933D01*
X115973139Y-53451738D01*
X116471817Y-53451738D01*
X116746508Y-53927681D01*
X117021198Y-54403625D01*
X121738654Y-54403625D01*
X122013694Y-53926873D01*
X122288735Y-53450121D01*
X122180627Y-53264091D01*
X122132108Y-53180084D01*
X122081391Y-53091405D01*
X122034699Y-53008982D01*
X122000228Y-52947315D01*
X121927937Y-52816567D01*
X119912125Y-52816125D01*
X120207748Y-53113781D01*
X120287725Y-53194852D01*
X120360741Y-53269905D01*
X120423638Y-53335609D01*
X120473257Y-53388634D01*
X120506440Y-53425650D01*
X120519732Y-53442697D01*
X120527043Y-53480230D01*
X120514704Y-53515316D01*
X120489692Y-53551070D01*
X120449306Y-53595828D01*
X120400048Y-53643770D01*
X120348420Y-53689074D01*
X120300926Y-53725919D01*
X120264067Y-53748484D01*
X120249480Y-53752750D01*
X120227132Y-53742200D01*
X120185787Y-53710232D01*
X120124908Y-53656363D01*
X120043960Y-53580114D01*
X119942408Y-53481002D01*
X119900810Y-53439741D01*
X119586375Y-53126732D01*
X119586375Y-53561522D01*
X119586186Y-53692308D01*
X119585480Y-53795011D01*
X119584051Y-53873296D01*
X119581691Y-53930830D01*
X119578191Y-53971276D01*
X119573345Y-53998301D01*
X119566944Y-54015570D01*
X119560102Y-54025343D01*
X119543266Y-54038829D01*
X119517807Y-54047459D01*
X119477181Y-54052237D01*
X119414844Y-54054165D01*
X119370754Y-54054375D01*
X119297007Y-54053988D01*
X119248052Y-54051820D01*
X119216932Y-54046360D01*
X119196690Y-54036094D01*
X119180370Y-54019512D01*
X119174053Y-54011627D01*
X119163921Y-53997620D01*
X119156117Y-53981895D01*
X119150392Y-53960501D01*
X119146497Y-53929484D01*
X119144185Y-53884892D01*
X119143207Y-53822771D01*
X119143314Y-53739170D01*
X119144259Y-53630136D01*
X119145120Y-53551238D01*
X119146336Y-53439830D01*
X119147363Y-53339621D01*
X119148164Y-53254754D01*
X119148700Y-53189372D01*
X119148937Y-53147619D01*
X119148846Y-53133611D01*
X119137874Y-53144389D01*
X119107423Y-53174776D01*
X119060394Y-53221863D01*
X118999693Y-53282739D01*
X118928221Y-53354496D01*
X118848882Y-53434225D01*
X118847221Y-53435894D01*
X118765795Y-53516741D01*
X118689946Y-53590133D01*
X118623010Y-53652994D01*
X118568322Y-53702247D01*
X118529218Y-53734816D01*
X118509337Y-53747556D01*
X118488907Y-53748152D01*
X118464469Y-53737567D01*
X118431225Y-53712398D01*
X118384375Y-53669244D01*
X118346618Y-53632190D01*
X118284367Y-53567657D01*
X118244516Y-53519575D01*
X118224581Y-53484681D01*
X118221125Y-53467521D01*
X118226451Y-53449558D01*
X118243771Y-53422344D01*
X118275090Y-53383608D01*
X118322416Y-53331079D01*
X118387757Y-53262484D01*
X118473120Y-53175551D01*
X118526566Y-53121867D01*
X118832007Y-52816125D01*
X118404557Y-52816125D01*
X118265238Y-52816235D01*
X118154412Y-52815593D01*
X118068828Y-52812739D01*
X118005238Y-52806213D01*
X117960392Y-52794556D01*
X117931040Y-52776308D01*
X117913932Y-52750009D01*
X117905820Y-52714200D01*
X117903454Y-52667420D01*
X117903583Y-52608211D01*
X117903625Y-52591107D01*
X117903249Y-52529737D01*
X117904298Y-52480980D01*
X117910033Y-52443390D01*
X117923717Y-52415522D01*
X117948611Y-52395933D01*
X117987977Y-52383178D01*
X118045078Y-52375811D01*
X118123176Y-52372388D01*
X118225532Y-52371465D01*
X118355409Y-52371596D01*
X118399196Y-52371625D01*
X118831267Y-52371625D01*
X118518258Y-52057189D01*
X118428898Y-51966371D01*
X118351404Y-51885517D01*
X118288051Y-51817128D01*
X118241114Y-51763706D01*
X118212868Y-51727753D01*
X118205250Y-51712990D01*
X118216746Y-51686392D01*
X118247271Y-51645976D01*
X118290876Y-51597523D01*
X118341613Y-51546817D01*
X118393534Y-51499641D01*
X118440690Y-51461778D01*
X118477134Y-51439010D01*
X118491177Y-51435000D01*
X118510107Y-51441738D01*
X118541067Y-51463065D01*
X118585936Y-51500648D01*
X118646590Y-51556153D01*
X118724908Y-51631247D01*
X118822767Y-51727597D01*
X118839345Y-51744083D01*
X119149812Y-52053166D01*
X119145134Y-51628775D01*
X119143453Y-51490249D01*
X119142794Y-51380203D01*
X119144651Y-51295374D01*
X119150515Y-51232496D01*
X119161879Y-51188302D01*
X119180236Y-51159528D01*
X119207078Y-51142909D01*
X119243897Y-51135179D01*
X119292186Y-51133073D01*
X119353436Y-51133325D01*
X119371546Y-51133375D01*
X119451777Y-51134496D01*
X119506137Y-51138371D01*
X119540445Y-51145763D01*
X119560519Y-51157438D01*
X119561428Y-51158321D01*
X119568921Y-51169469D01*
X119574780Y-51188540D01*
X119579198Y-51219092D01*
X119582365Y-51264686D01*
X119584473Y-51328878D01*
X119585714Y-51415230D01*
X119586279Y-51527298D01*
X119586375Y-51622142D01*
X119586375Y-52061017D01*
X119900810Y-51748008D01*
X120004977Y-51645240D01*
X120089018Y-51564457D01*
X120154393Y-51504357D01*
X120202558Y-51463639D01*
X120234973Y-51441001D01*
X120251435Y-51435000D01*
X120283640Y-51447050D01*
X120331929Y-51481515D01*
X120391031Y-51534218D01*
X120457277Y-51600807D01*
X120500369Y-51652289D01*
X120522644Y-51692492D01*
X120526437Y-51725242D01*
X120519732Y-51745052D01*
X120504448Y-51764412D01*
X120469823Y-51802842D01*
X120419016Y-51857013D01*
X120355186Y-51923594D01*
X120281491Y-51999256D01*
X120207748Y-52073968D01*
X119912125Y-52371625D01*
X121668589Y-52371625D01*
X121637294Y-52320031D01*
X121602471Y-52261823D01*
X121556078Y-52183049D01*
X121499623Y-52086349D01*
X121434614Y-51974365D01*
X121362559Y-51849736D01*
X121284966Y-51715105D01*
X121203344Y-51573113D01*
X121119201Y-51426400D01*
X121034044Y-51277608D01*
X120949382Y-51129378D01*
X120866723Y-50984351D01*
X120787576Y-50845167D01*
X120713448Y-50714468D01*
X120645847Y-50594896D01*
X120586282Y-50489090D01*
X120536260Y-50399693D01*
X120497291Y-50329345D01*
X120470882Y-50280688D01*
X120458540Y-50256361D01*
X120457896Y-50254659D01*
X120455786Y-50231630D01*
X120453779Y-50179011D01*
X120451895Y-50098962D01*
X120450154Y-49993643D01*
X120448575Y-49865212D01*
X120447179Y-49715830D01*
X120445985Y-49547656D01*
X120445013Y-49362850D01*
X120444282Y-49163573D01*
X120443814Y-48951983D01*
X120443627Y-48730240D01*
X120443625Y-48700636D01*
X120443625Y-47196375D01*
X118316989Y-47196375D01*
X118308437Y-50268187D01*
X117964729Y-50863500D01*
X117875018Y-51018868D01*
X117775473Y-51191244D01*
X117670521Y-51372961D01*
X117564590Y-51556356D01*
X117462106Y-51733764D01*
X117367496Y-51897521D01*
X117299940Y-52014437D01*
X117154356Y-52266399D01*
X117022857Y-52494050D01*
X116905664Y-52697010D01*
X116802995Y-52874897D01*
X116715071Y-53027331D01*
X116642110Y-53153931D01*
X116584332Y-53254316D01*
X116541957Y-53328107D01*
X116515205Y-53374921D01*
X116510081Y-53383962D01*
X116471817Y-53451738D01*
X115973139Y-53451738D01*
X115974593Y-53448214D01*
X115996661Y-53405010D01*
X116031444Y-53340273D01*
X116077311Y-53256953D01*
X116132628Y-53157999D01*
X116195763Y-53046362D01*
X116265083Y-52924993D01*
X116309919Y-52847074D01*
X116396007Y-52697890D01*
X116488884Y-52536959D01*
X116584742Y-52370876D01*
X116679776Y-52206236D01*
X116770179Y-52049633D01*
X116852145Y-51907663D01*
X116918823Y-51792187D01*
X116990062Y-51668821D01*
X117073259Y-51524738D01*
X117164500Y-51366716D01*
X117259870Y-51201537D01*
X117355455Y-51035979D01*
X117447341Y-50876823D01*
X117520341Y-50750372D01*
X117856000Y-50168931D01*
X117855590Y-48686622D01*
X117855180Y-47204312D01*
X117792781Y-47175553D01*
X117727983Y-47130866D01*
X117686683Y-47071549D01*
X117668225Y-47003581D01*
X117671955Y-46932941D01*
X117697218Y-46865606D01*
X117743358Y-46807557D01*
X117809721Y-46764771D01*
X117838954Y-46754101D01*
X117865501Y-46750910D01*
X117921048Y-46748009D01*
X118002847Y-46745396D01*
X118108151Y-46743071D01*
X118234211Y-46741035D01*
X118378279Y-46739288D01*
X118537606Y-46737830D01*
X118709446Y-46736660D01*
X118891049Y-46735780D01*
X119079667Y-46735187D01*
X119272552Y-46734883D01*
X119466957Y-46734868D01*
X119660132Y-46735141D01*
D13*
X70684571Y-53303714D02*
X70800685Y-53303714D01*
X70858743Y-53340000D01*
X70916800Y-53412571D01*
X70945828Y-53557714D01*
X70945828Y-53811714D01*
X70916800Y-53956857D01*
X70858743Y-54029429D01*
X70800685Y-54065714D01*
X70684571Y-54065714D01*
X70626514Y-54029429D01*
X70568457Y-53956857D01*
X70539428Y-53811714D01*
X70539428Y-53557714D01*
X70568457Y-53412571D01*
X70626514Y-53340000D01*
X70684571Y-53303714D01*
X71207086Y-53557714D02*
X71207086Y-54319714D01*
X71207086Y-53594000D02*
X71265143Y-53557714D01*
X71381257Y-53557714D01*
X71439314Y-53594000D01*
X71468343Y-53630286D01*
X71497372Y-53702857D01*
X71497372Y-53920571D01*
X71468343Y-53993143D01*
X71439314Y-54029429D01*
X71381257Y-54065714D01*
X71265143Y-54065714D01*
X71207086Y-54029429D01*
X71990857Y-54029429D02*
X71932800Y-54065714D01*
X71816686Y-54065714D01*
X71758629Y-54029429D01*
X71729600Y-53956857D01*
X71729600Y-53666571D01*
X71758629Y-53594000D01*
X71816686Y-53557714D01*
X71932800Y-53557714D01*
X71990857Y-53594000D01*
X72019886Y-53666571D01*
X72019886Y-53739143D01*
X71729600Y-53811714D01*
X72281143Y-53557714D02*
X72281143Y-54065714D01*
X72281143Y-53630286D02*
X72310171Y-53594000D01*
X72368229Y-53557714D01*
X72455314Y-53557714D01*
X72513371Y-53594000D01*
X72542400Y-53666571D01*
X72542400Y-54065714D01*
X72832686Y-54065714D02*
X72832686Y-53303714D01*
X72832686Y-53666571D02*
X73181029Y-53666571D01*
X73181029Y-54065714D02*
X73181029Y-53303714D01*
X73732572Y-54065714D02*
X73732572Y-53666571D01*
X73703543Y-53594000D01*
X73645486Y-53557714D01*
X73529372Y-53557714D01*
X73471315Y-53594000D01*
X73732572Y-54029429D02*
X73674515Y-54065714D01*
X73529372Y-54065714D01*
X73471315Y-54029429D01*
X73442286Y-53956857D01*
X73442286Y-53884286D01*
X73471315Y-53811714D01*
X73529372Y-53775429D01*
X73674515Y-53775429D01*
X73732572Y-53739143D01*
X74022858Y-54065714D02*
X74022858Y-53557714D01*
X74022858Y-53702857D02*
X74051886Y-53630286D01*
X74080915Y-53594000D01*
X74138972Y-53557714D01*
X74197029Y-53557714D01*
X74661486Y-54065714D02*
X74661486Y-53303714D01*
X74661486Y-54029429D02*
X74603429Y-54065714D01*
X74487315Y-54065714D01*
X74429257Y-54029429D01*
X74400229Y-53993143D01*
X74371200Y-53920571D01*
X74371200Y-53702857D01*
X74400229Y-53630286D01*
X74429257Y-53594000D01*
X74487315Y-53557714D01*
X74603429Y-53557714D01*
X74661486Y-53594000D01*
X74893715Y-53557714D02*
X75009829Y-54065714D01*
X75125943Y-53702857D01*
X75242058Y-54065714D01*
X75358172Y-53557714D01*
X75851658Y-54065714D02*
X75851658Y-53666571D01*
X75822629Y-53594000D01*
X75764572Y-53557714D01*
X75648458Y-53557714D01*
X75590401Y-53594000D01*
X75851658Y-54029429D02*
X75793601Y-54065714D01*
X75648458Y-54065714D01*
X75590401Y-54029429D01*
X75561372Y-53956857D01*
X75561372Y-53884286D01*
X75590401Y-53811714D01*
X75648458Y-53775429D01*
X75793601Y-53775429D01*
X75851658Y-53739143D01*
X76141944Y-54065714D02*
X76141944Y-53557714D01*
X76141944Y-53702857D02*
X76170972Y-53630286D01*
X76200001Y-53594000D01*
X76258058Y-53557714D01*
X76316115Y-53557714D01*
X76751543Y-54029429D02*
X76693486Y-54065714D01*
X76577372Y-54065714D01*
X76519315Y-54029429D01*
X76490286Y-53956857D01*
X76490286Y-53666571D01*
X76519315Y-53594000D01*
X76577372Y-53557714D01*
X76693486Y-53557714D01*
X76751543Y-53594000D01*
X76780572Y-53666571D01*
X76780572Y-53739143D01*
X76490286Y-53811714D01*
%LPC*%
D14*
X50800000Y-50800000D03*
X157480000Y-50800000D03*
X66040000Y-50800000D03*
X142240000Y-50800000D03*
X81280000Y-50800000D03*
X127000000Y-50800000D03*
X96520000Y-50800000D03*
X111760000Y-50800000D03*
M02*
