%TF.GenerationSoftware,KiCad,Pcbnew,4.0.7-e0-6372~58~ubuntu16.04.1*%
%TF.CreationDate,2017-08-19T17:26:02+05:30*%
%TF.ProjectId,ultim_bus_conn,756C74696D5F6275735F636F6E6E2E6B,rev?*%
%TF.FileFunction,Copper,L2,Bot,Signal*%
%FSLAX46Y46*%
G04 Gerber Fmt 4.6, Leading zero omitted, Abs format (unit mm)*
G04 Created by KiCad (PCBNEW 4.0.7-e0-6372~58~ubuntu16.04.1) date Sat Aug 19 17:26:02 2017*
%MOMM*%
%LPD*%
G01*
G04 APERTURE LIST*
%ADD10C,0.050800*%
%ADD11C,5.600000*%
%ADD12C,0.635000*%
%ADD13C,0.508000*%
G04 APERTURE END LIST*
D10*
D11*
X50800000Y-50800000D03*
X157480000Y-50800000D03*
X66040000Y-50800000D03*
X142240000Y-50800000D03*
X81280000Y-50800000D03*
X127000000Y-50800000D03*
X96520000Y-50800000D03*
X111760000Y-50800000D03*
D12*
X50800000Y-50800000D02*
X55245000Y-46355000D01*
X55245000Y-46355000D02*
X153035000Y-46355000D01*
X153035000Y-46355000D02*
X157480000Y-50800000D01*
D13*
G36*
X160566330Y-46941046D02*
X161029484Y-47250516D01*
X161338954Y-47713671D01*
X161469000Y-48367456D01*
X161469000Y-53232544D01*
X161338954Y-53886329D01*
X161029484Y-54349484D01*
X160566330Y-54658954D01*
X159912544Y-54789000D01*
X48367456Y-54789000D01*
X47713671Y-54658954D01*
X47250516Y-54349484D01*
X46941046Y-53886330D01*
X46889430Y-53626834D01*
X48511981Y-53626834D01*
X48832296Y-54156509D01*
X50266559Y-54654018D01*
X51782033Y-54564787D01*
X52767704Y-54156509D01*
X53088019Y-53626834D01*
X50800000Y-51338815D01*
X48511981Y-53626834D01*
X46889430Y-53626834D01*
X46811000Y-53232544D01*
X46811000Y-50266559D01*
X46945982Y-50266559D01*
X47035213Y-51782033D01*
X47443491Y-52767704D01*
X47973166Y-53088019D01*
X50261185Y-50800000D01*
X51338815Y-50800000D01*
X53626834Y-53088019D01*
X54156509Y-52767704D01*
X54576915Y-51555719D01*
X62223339Y-51555719D01*
X62803066Y-52958767D01*
X63875587Y-54033161D01*
X65277621Y-54615336D01*
X66795719Y-54616661D01*
X68198767Y-54036934D01*
X69273161Y-52964413D01*
X69855336Y-51562379D01*
X69855341Y-51555719D01*
X77463339Y-51555719D01*
X78043066Y-52958767D01*
X79115587Y-54033161D01*
X80517621Y-54615336D01*
X82035719Y-54616661D01*
X83438767Y-54036934D01*
X84513161Y-52964413D01*
X85095336Y-51562379D01*
X85095341Y-51555719D01*
X92703339Y-51555719D01*
X93283066Y-52958767D01*
X94355587Y-54033161D01*
X95757621Y-54615336D01*
X97275719Y-54616661D01*
X98678767Y-54036934D01*
X99753161Y-52964413D01*
X100335336Y-51562379D01*
X100335341Y-51555719D01*
X107943339Y-51555719D01*
X108523066Y-52958767D01*
X109595587Y-54033161D01*
X110997621Y-54615336D01*
X112515719Y-54616661D01*
X113918767Y-54036934D01*
X114993161Y-52964413D01*
X115575336Y-51562379D01*
X115575341Y-51555719D01*
X123183339Y-51555719D01*
X123763066Y-52958767D01*
X124835587Y-54033161D01*
X126237621Y-54615336D01*
X127755719Y-54616661D01*
X129158767Y-54036934D01*
X130233161Y-52964413D01*
X130815336Y-51562379D01*
X130815341Y-51555719D01*
X138423339Y-51555719D01*
X139003066Y-52958767D01*
X140075587Y-54033161D01*
X141477621Y-54615336D01*
X142995719Y-54616661D01*
X144398767Y-54036934D01*
X144809583Y-53626834D01*
X155191981Y-53626834D01*
X155512296Y-54156509D01*
X156946559Y-54654018D01*
X158462033Y-54564787D01*
X159447704Y-54156509D01*
X159768019Y-53626834D01*
X157480000Y-51338815D01*
X155191981Y-53626834D01*
X144809583Y-53626834D01*
X145473161Y-52964413D01*
X146055336Y-51562379D01*
X146056466Y-50266559D01*
X153625982Y-50266559D01*
X153715213Y-51782033D01*
X154123491Y-52767704D01*
X154653166Y-53088019D01*
X156941185Y-50800000D01*
X158018815Y-50800000D01*
X160306834Y-53088019D01*
X160836509Y-52767704D01*
X161334018Y-51333441D01*
X161244787Y-49817967D01*
X160836509Y-48832296D01*
X160306834Y-48511981D01*
X158018815Y-50800000D01*
X156941185Y-50800000D01*
X154653166Y-48511981D01*
X154123491Y-48832296D01*
X153625982Y-50266559D01*
X146056466Y-50266559D01*
X146056661Y-50044281D01*
X145476934Y-48641233D01*
X144810032Y-47973166D01*
X155191981Y-47973166D01*
X157480000Y-50261185D01*
X159768019Y-47973166D01*
X159447704Y-47443491D01*
X158013441Y-46945982D01*
X156497967Y-47035213D01*
X155512296Y-47443491D01*
X155191981Y-47973166D01*
X144810032Y-47973166D01*
X144404413Y-47566839D01*
X143002379Y-46984664D01*
X141484281Y-46983339D01*
X140081233Y-47563066D01*
X139006839Y-48635587D01*
X138424664Y-50037621D01*
X138423339Y-51555719D01*
X130815341Y-51555719D01*
X130816661Y-50044281D01*
X130236934Y-48641233D01*
X129164413Y-47566839D01*
X127762379Y-46984664D01*
X126244281Y-46983339D01*
X124841233Y-47563066D01*
X123766839Y-48635587D01*
X123184664Y-50037621D01*
X123183339Y-51555719D01*
X115575341Y-51555719D01*
X115576661Y-50044281D01*
X114996934Y-48641233D01*
X113924413Y-47566839D01*
X112522379Y-46984664D01*
X111004281Y-46983339D01*
X109601233Y-47563066D01*
X108526839Y-48635587D01*
X107944664Y-50037621D01*
X107943339Y-51555719D01*
X100335341Y-51555719D01*
X100336661Y-50044281D01*
X99756934Y-48641233D01*
X98684413Y-47566839D01*
X97282379Y-46984664D01*
X95764281Y-46983339D01*
X94361233Y-47563066D01*
X93286839Y-48635587D01*
X92704664Y-50037621D01*
X92703339Y-51555719D01*
X85095341Y-51555719D01*
X85096661Y-50044281D01*
X84516934Y-48641233D01*
X83444413Y-47566839D01*
X82042379Y-46984664D01*
X80524281Y-46983339D01*
X79121233Y-47563066D01*
X78046839Y-48635587D01*
X77464664Y-50037621D01*
X77463339Y-51555719D01*
X69855341Y-51555719D01*
X69856661Y-50044281D01*
X69276934Y-48641233D01*
X68204413Y-47566839D01*
X66802379Y-46984664D01*
X65284281Y-46983339D01*
X63881233Y-47563066D01*
X62806839Y-48635587D01*
X62224664Y-50037621D01*
X62223339Y-51555719D01*
X54576915Y-51555719D01*
X54654018Y-51333441D01*
X54564787Y-49817967D01*
X54156509Y-48832296D01*
X53626834Y-48511981D01*
X51338815Y-50800000D01*
X50261185Y-50800000D01*
X47973166Y-48511981D01*
X47443491Y-48832296D01*
X46945982Y-50266559D01*
X46811000Y-50266559D01*
X46811000Y-48367456D01*
X46889429Y-47973166D01*
X48511981Y-47973166D01*
X50800000Y-50261185D01*
X53088019Y-47973166D01*
X52767704Y-47443491D01*
X51333441Y-46945982D01*
X49817967Y-47035213D01*
X48832296Y-47443491D01*
X48511981Y-47973166D01*
X46889429Y-47973166D01*
X46941046Y-47713670D01*
X47250516Y-47250516D01*
X47713671Y-46941046D01*
X48367456Y-46811000D01*
X159912544Y-46811000D01*
X160566330Y-46941046D01*
X160566330Y-46941046D01*
G37*
X160566330Y-46941046D02*
X161029484Y-47250516D01*
X161338954Y-47713671D01*
X161469000Y-48367456D01*
X161469000Y-53232544D01*
X161338954Y-53886329D01*
X161029484Y-54349484D01*
X160566330Y-54658954D01*
X159912544Y-54789000D01*
X48367456Y-54789000D01*
X47713671Y-54658954D01*
X47250516Y-54349484D01*
X46941046Y-53886330D01*
X46889430Y-53626834D01*
X48511981Y-53626834D01*
X48832296Y-54156509D01*
X50266559Y-54654018D01*
X51782033Y-54564787D01*
X52767704Y-54156509D01*
X53088019Y-53626834D01*
X50800000Y-51338815D01*
X48511981Y-53626834D01*
X46889430Y-53626834D01*
X46811000Y-53232544D01*
X46811000Y-50266559D01*
X46945982Y-50266559D01*
X47035213Y-51782033D01*
X47443491Y-52767704D01*
X47973166Y-53088019D01*
X50261185Y-50800000D01*
X51338815Y-50800000D01*
X53626834Y-53088019D01*
X54156509Y-52767704D01*
X54576915Y-51555719D01*
X62223339Y-51555719D01*
X62803066Y-52958767D01*
X63875587Y-54033161D01*
X65277621Y-54615336D01*
X66795719Y-54616661D01*
X68198767Y-54036934D01*
X69273161Y-52964413D01*
X69855336Y-51562379D01*
X69855341Y-51555719D01*
X77463339Y-51555719D01*
X78043066Y-52958767D01*
X79115587Y-54033161D01*
X80517621Y-54615336D01*
X82035719Y-54616661D01*
X83438767Y-54036934D01*
X84513161Y-52964413D01*
X85095336Y-51562379D01*
X85095341Y-51555719D01*
X92703339Y-51555719D01*
X93283066Y-52958767D01*
X94355587Y-54033161D01*
X95757621Y-54615336D01*
X97275719Y-54616661D01*
X98678767Y-54036934D01*
X99753161Y-52964413D01*
X100335336Y-51562379D01*
X100335341Y-51555719D01*
X107943339Y-51555719D01*
X108523066Y-52958767D01*
X109595587Y-54033161D01*
X110997621Y-54615336D01*
X112515719Y-54616661D01*
X113918767Y-54036934D01*
X114993161Y-52964413D01*
X115575336Y-51562379D01*
X115575341Y-51555719D01*
X123183339Y-51555719D01*
X123763066Y-52958767D01*
X124835587Y-54033161D01*
X126237621Y-54615336D01*
X127755719Y-54616661D01*
X129158767Y-54036934D01*
X130233161Y-52964413D01*
X130815336Y-51562379D01*
X130815341Y-51555719D01*
X138423339Y-51555719D01*
X139003066Y-52958767D01*
X140075587Y-54033161D01*
X141477621Y-54615336D01*
X142995719Y-54616661D01*
X144398767Y-54036934D01*
X144809583Y-53626834D01*
X155191981Y-53626834D01*
X155512296Y-54156509D01*
X156946559Y-54654018D01*
X158462033Y-54564787D01*
X159447704Y-54156509D01*
X159768019Y-53626834D01*
X157480000Y-51338815D01*
X155191981Y-53626834D01*
X144809583Y-53626834D01*
X145473161Y-52964413D01*
X146055336Y-51562379D01*
X146056466Y-50266559D01*
X153625982Y-50266559D01*
X153715213Y-51782033D01*
X154123491Y-52767704D01*
X154653166Y-53088019D01*
X156941185Y-50800000D01*
X158018815Y-50800000D01*
X160306834Y-53088019D01*
X160836509Y-52767704D01*
X161334018Y-51333441D01*
X161244787Y-49817967D01*
X160836509Y-48832296D01*
X160306834Y-48511981D01*
X158018815Y-50800000D01*
X156941185Y-50800000D01*
X154653166Y-48511981D01*
X154123491Y-48832296D01*
X153625982Y-50266559D01*
X146056466Y-50266559D01*
X146056661Y-50044281D01*
X145476934Y-48641233D01*
X144810032Y-47973166D01*
X155191981Y-47973166D01*
X157480000Y-50261185D01*
X159768019Y-47973166D01*
X159447704Y-47443491D01*
X158013441Y-46945982D01*
X156497967Y-47035213D01*
X155512296Y-47443491D01*
X155191981Y-47973166D01*
X144810032Y-47973166D01*
X144404413Y-47566839D01*
X143002379Y-46984664D01*
X141484281Y-46983339D01*
X140081233Y-47563066D01*
X139006839Y-48635587D01*
X138424664Y-50037621D01*
X138423339Y-51555719D01*
X130815341Y-51555719D01*
X130816661Y-50044281D01*
X130236934Y-48641233D01*
X129164413Y-47566839D01*
X127762379Y-46984664D01*
X126244281Y-46983339D01*
X124841233Y-47563066D01*
X123766839Y-48635587D01*
X123184664Y-50037621D01*
X123183339Y-51555719D01*
X115575341Y-51555719D01*
X115576661Y-50044281D01*
X114996934Y-48641233D01*
X113924413Y-47566839D01*
X112522379Y-46984664D01*
X111004281Y-46983339D01*
X109601233Y-47563066D01*
X108526839Y-48635587D01*
X107944664Y-50037621D01*
X107943339Y-51555719D01*
X100335341Y-51555719D01*
X100336661Y-50044281D01*
X99756934Y-48641233D01*
X98684413Y-47566839D01*
X97282379Y-46984664D01*
X95764281Y-46983339D01*
X94361233Y-47563066D01*
X93286839Y-48635587D01*
X92704664Y-50037621D01*
X92703339Y-51555719D01*
X85095341Y-51555719D01*
X85096661Y-50044281D01*
X84516934Y-48641233D01*
X83444413Y-47566839D01*
X82042379Y-46984664D01*
X80524281Y-46983339D01*
X79121233Y-47563066D01*
X78046839Y-48635587D01*
X77464664Y-50037621D01*
X77463339Y-51555719D01*
X69855341Y-51555719D01*
X69856661Y-50044281D01*
X69276934Y-48641233D01*
X68204413Y-47566839D01*
X66802379Y-46984664D01*
X65284281Y-46983339D01*
X63881233Y-47563066D01*
X62806839Y-48635587D01*
X62224664Y-50037621D01*
X62223339Y-51555719D01*
X54576915Y-51555719D01*
X54654018Y-51333441D01*
X54564787Y-49817967D01*
X54156509Y-48832296D01*
X53626834Y-48511981D01*
X51338815Y-50800000D01*
X50261185Y-50800000D01*
X47973166Y-48511981D01*
X47443491Y-48832296D01*
X46945982Y-50266559D01*
X46811000Y-50266559D01*
X46811000Y-48367456D01*
X46889429Y-47973166D01*
X48511981Y-47973166D01*
X50800000Y-50261185D01*
X53088019Y-47973166D01*
X52767704Y-47443491D01*
X51333441Y-46945982D01*
X49817967Y-47035213D01*
X48832296Y-47443491D01*
X48511981Y-47973166D01*
X46889429Y-47973166D01*
X46941046Y-47713670D01*
X47250516Y-47250516D01*
X47713671Y-46941046D01*
X48367456Y-46811000D01*
X159912544Y-46811000D01*
X160566330Y-46941046D01*
M02*
