%TF.GenerationSoftware,KiCad,Pcbnew,4.0.6-e0-6349~53~ubuntu16.04.1*%
%TF.CreationDate,2017-05-18T16:40:30+05:30*%
%TF.ProjectId,ultim_bus_conn,756C74696D5F6275735F636F6E6E2E6B,rev?*%
%TF.FileFunction,Copper,L1,Top,Signal*%
%FSLAX46Y46*%
G04 Gerber Fmt 4.6, Leading zero omitted, Abs format (unit mm)*
G04 Created by KiCad (PCBNEW 4.0.6-e0-6349~53~ubuntu16.04.1) date Thu May 18 16:40:30 2017*
%MOMM*%
%LPD*%
G01*
G04 APERTURE LIST*
%ADD10C,0.050800*%
%ADD11C,5.600000*%
%ADD12C,0.635000*%
%ADD13C,0.508000*%
G04 APERTURE END LIST*
D10*
D11*
X50800000Y-50800000D03*
X157480000Y-50800000D03*
X66040000Y-50800000D03*
X142240000Y-50800000D03*
X81280000Y-50800000D03*
X127000000Y-50800000D03*
X96520000Y-50800000D03*
X111760000Y-50800000D03*
D12*
X81280000Y-50800000D02*
X85725000Y-55245000D01*
X85725000Y-55245000D02*
X122555000Y-55245000D01*
X122555000Y-55245000D02*
X127000000Y-50800000D01*
X66040000Y-50800000D02*
X70485000Y-46355000D01*
X70485000Y-46355000D02*
X137795000Y-46355000D01*
X137795000Y-46355000D02*
X142240000Y-50800000D01*
X96520000Y-50800000D02*
X111760000Y-50800000D01*
D13*
G36*
X94231981Y-47973166D02*
X96520000Y-50261185D01*
X98808019Y-47973166D01*
X98635870Y-47688500D01*
X109644130Y-47688500D01*
X109471981Y-47973166D01*
X111760000Y-50261185D01*
X114048019Y-47973166D01*
X113875870Y-47688500D01*
X115316000Y-47688500D01*
X115316000Y-49313910D01*
X115116509Y-48832296D01*
X114586834Y-48511981D01*
X112298815Y-50800000D01*
X114586834Y-53088019D01*
X115116509Y-52767704D01*
X115316000Y-52192594D01*
X115316000Y-53911500D01*
X113875870Y-53911500D01*
X114048019Y-53626834D01*
X111760000Y-51338815D01*
X109471981Y-53626834D01*
X109644130Y-53911500D01*
X98635870Y-53911500D01*
X98808019Y-53626834D01*
X96520000Y-51338815D01*
X94231981Y-53626834D01*
X94404130Y-53911500D01*
X92964000Y-53911500D01*
X92964000Y-52286090D01*
X93163491Y-52767704D01*
X93693166Y-53088019D01*
X95981185Y-50800000D01*
X97058815Y-50800000D01*
X99346834Y-53088019D01*
X99876509Y-52767704D01*
X100374018Y-51333441D01*
X100311201Y-50266559D01*
X107905982Y-50266559D01*
X107995213Y-51782033D01*
X108403491Y-52767704D01*
X108933166Y-53088019D01*
X111221185Y-50800000D01*
X108933166Y-48511981D01*
X108403491Y-48832296D01*
X107905982Y-50266559D01*
X100311201Y-50266559D01*
X100284787Y-49817967D01*
X99876509Y-48832296D01*
X99346834Y-48511981D01*
X97058815Y-50800000D01*
X95981185Y-50800000D01*
X93693166Y-48511981D01*
X93163491Y-48832296D01*
X92964000Y-49407406D01*
X92964000Y-47688500D01*
X94404130Y-47688500D01*
X94231981Y-47973166D01*
X94231981Y-47973166D01*
G37*
X94231981Y-47973166D02*
X96520000Y-50261185D01*
X98808019Y-47973166D01*
X98635870Y-47688500D01*
X109644130Y-47688500D01*
X109471981Y-47973166D01*
X111760000Y-50261185D01*
X114048019Y-47973166D01*
X113875870Y-47688500D01*
X115316000Y-47688500D01*
X115316000Y-49313910D01*
X115116509Y-48832296D01*
X114586834Y-48511981D01*
X112298815Y-50800000D01*
X114586834Y-53088019D01*
X115116509Y-52767704D01*
X115316000Y-52192594D01*
X115316000Y-53911500D01*
X113875870Y-53911500D01*
X114048019Y-53626834D01*
X111760000Y-51338815D01*
X109471981Y-53626834D01*
X109644130Y-53911500D01*
X98635870Y-53911500D01*
X98808019Y-53626834D01*
X96520000Y-51338815D01*
X94231981Y-53626834D01*
X94404130Y-53911500D01*
X92964000Y-53911500D01*
X92964000Y-52286090D01*
X93163491Y-52767704D01*
X93693166Y-53088019D01*
X95981185Y-50800000D01*
X97058815Y-50800000D01*
X99346834Y-53088019D01*
X99876509Y-52767704D01*
X100374018Y-51333441D01*
X100311201Y-50266559D01*
X107905982Y-50266559D01*
X107995213Y-51782033D01*
X108403491Y-52767704D01*
X108933166Y-53088019D01*
X111221185Y-50800000D01*
X108933166Y-48511981D01*
X108403491Y-48832296D01*
X107905982Y-50266559D01*
X100311201Y-50266559D01*
X100284787Y-49817967D01*
X99876509Y-48832296D01*
X99346834Y-48511981D01*
X97058815Y-50800000D01*
X95981185Y-50800000D01*
X93693166Y-48511981D01*
X93163491Y-48832296D01*
X92964000Y-49407406D01*
X92964000Y-47688500D01*
X94404130Y-47688500D01*
X94231981Y-47973166D01*
M02*
