G04 #@! TF.FileFunction,Legend,Bot*
%FSLAX46Y46*%
G04 Gerber Fmt 4.6, Leading zero omitted, Abs format (unit mm)*
G04 Created by KiCad (PCBNEW 4.0.2-4+6225~38~ubuntu15.10.1-stable) date Tue Mar 22 22:05:39 2016*
%MOMM*%
G01*
G04 APERTURE LIST*
%ADD10C,0.254000*%
%ADD11C,0.304800*%
%ADD12C,0.190500*%
%ADD13C,0.010000*%
%ADD14C,0.002540*%
%ADD15C,0.152400*%
%ADD16C,0.150000*%
%ADD17C,0.203200*%
%ADD18C,0.127000*%
%ADD19R,1.930400X1.574800*%
%ADD20C,1.708000*%
%ADD21C,6.108000*%
%ADD22R,5.588000X1.905000*%
%ADD23C,1.905000*%
%ADD24R,1.905000X5.588000*%
%ADD25R,3.008000X2.508000*%
G04 APERTURE END LIST*
D10*
X5080000Y43180000D02*
X5080000Y48260000D01*
X25400000Y43180000D02*
X5080000Y43180000D01*
X25400000Y48260000D02*
X25400000Y43180000D01*
X5080000Y48260000D02*
X25400000Y48260000D01*
D11*
X37156571Y7844971D02*
X36866285Y6828971D01*
X36575999Y7554686D01*
X36285714Y6828971D01*
X35995428Y7844971D01*
X35560000Y7844971D02*
X35197143Y6828971D01*
X34834285Y7844971D02*
X35197143Y6828971D01*
X35342285Y6466114D01*
X35414857Y6393543D01*
X35560000Y6320971D01*
X34036000Y6828971D02*
X34181142Y6901543D01*
X34253714Y6974114D01*
X34326285Y7119257D01*
X34326285Y7554686D01*
X34253714Y7699829D01*
X34181142Y7772400D01*
X34036000Y7844971D01*
X33818285Y7844971D01*
X33673142Y7772400D01*
X33600571Y7699829D01*
X33528000Y7554686D01*
X33528000Y7119257D01*
X33600571Y6974114D01*
X33673142Y6901543D01*
X33818285Y6828971D01*
X34036000Y6828971D01*
X32657143Y6828971D02*
X32802285Y6901543D01*
X32874857Y7046686D01*
X32874857Y8352971D01*
X31423428Y7844971D02*
X31423428Y6828971D01*
X32076571Y7844971D02*
X32076571Y7046686D01*
X32003999Y6901543D01*
X31858857Y6828971D01*
X31641142Y6828971D01*
X31495999Y6901543D01*
X31423428Y6974114D01*
X30697714Y6828971D02*
X30697714Y7844971D01*
X30697714Y7699829D02*
X30625142Y7772400D01*
X30480000Y7844971D01*
X30262285Y7844971D01*
X30117142Y7772400D01*
X30044571Y7627257D01*
X30044571Y6828971D01*
X30044571Y7627257D02*
X29972000Y7772400D01*
X29826857Y7844971D01*
X29609142Y7844971D01*
X29464000Y7772400D01*
X29391428Y7627257D01*
X29391428Y6828971D01*
X28665714Y6974114D02*
X28593142Y6901543D01*
X28665714Y6828971D01*
X28738285Y6901543D01*
X28665714Y6974114D01*
X28665714Y6828971D01*
X27286857Y6901543D02*
X27432000Y6828971D01*
X27722286Y6828971D01*
X27867428Y6901543D01*
X27940000Y6974114D01*
X28012571Y7119257D01*
X28012571Y7554686D01*
X27940000Y7699829D01*
X27867428Y7772400D01*
X27722286Y7844971D01*
X27432000Y7844971D01*
X27286857Y7772400D01*
X26416000Y6828971D02*
X26561142Y6901543D01*
X26633714Y6974114D01*
X26706285Y7119257D01*
X26706285Y7554686D01*
X26633714Y7699829D01*
X26561142Y7772400D01*
X26416000Y7844971D01*
X26198285Y7844971D01*
X26053142Y7772400D01*
X25980571Y7699829D01*
X25908000Y7554686D01*
X25908000Y7119257D01*
X25980571Y6974114D01*
X26053142Y6901543D01*
X26198285Y6828971D01*
X26416000Y6828971D01*
X25254857Y6828971D02*
X25254857Y7844971D01*
X25254857Y7699829D02*
X25182285Y7772400D01*
X25037143Y7844971D01*
X24819428Y7844971D01*
X24674285Y7772400D01*
X24601714Y7627257D01*
X24601714Y6828971D01*
X24601714Y7627257D02*
X24529143Y7772400D01*
X24384000Y7844971D01*
X24166285Y7844971D01*
X24021143Y7772400D01*
X23948571Y7627257D01*
X23948571Y6828971D01*
X40422285Y1952171D02*
X40422285Y2968171D01*
X40422285Y2823029D02*
X40349713Y2895600D01*
X40204571Y2968171D01*
X39986856Y2968171D01*
X39841713Y2895600D01*
X39769142Y2750457D01*
X39769142Y1952171D01*
X39769142Y2750457D02*
X39696571Y2895600D01*
X39551428Y2968171D01*
X39333713Y2968171D01*
X39188571Y2895600D01*
X39115999Y2750457D01*
X39115999Y1952171D01*
X37737142Y1952171D02*
X37737142Y2750457D01*
X37809713Y2895600D01*
X37954856Y2968171D01*
X38245142Y2968171D01*
X38390285Y2895600D01*
X37737142Y2024743D02*
X37882285Y1952171D01*
X38245142Y1952171D01*
X38390285Y2024743D01*
X38462856Y2169886D01*
X38462856Y2315029D01*
X38390285Y2460171D01*
X38245142Y2532743D01*
X37882285Y2532743D01*
X37737142Y2605314D01*
X37011428Y2968171D02*
X37011428Y1952171D01*
X37011428Y2823029D02*
X36938856Y2895600D01*
X36793714Y2968171D01*
X36575999Y2968171D01*
X36430856Y2895600D01*
X36358285Y2750457D01*
X36358285Y1952171D01*
X35632571Y1952171D02*
X35632571Y2968171D01*
X35632571Y3476171D02*
X35705142Y3403600D01*
X35632571Y3331029D01*
X35559999Y3403600D01*
X35632571Y3476171D01*
X35632571Y3331029D01*
X34253714Y1952171D02*
X34253714Y2750457D01*
X34326285Y2895600D01*
X34471428Y2968171D01*
X34761714Y2968171D01*
X34906857Y2895600D01*
X34253714Y2024743D02*
X34398857Y1952171D01*
X34761714Y1952171D01*
X34906857Y2024743D01*
X34979428Y2169886D01*
X34979428Y2315029D01*
X34906857Y2460171D01*
X34761714Y2532743D01*
X34398857Y2532743D01*
X34253714Y2605314D01*
X32874857Y2024743D02*
X33020000Y1952171D01*
X33310286Y1952171D01*
X33455428Y2024743D01*
X33528000Y2097314D01*
X33600571Y2242457D01*
X33600571Y2677886D01*
X33528000Y2823029D01*
X33455428Y2895600D01*
X33310286Y2968171D01*
X33020000Y2968171D01*
X32874857Y2895600D01*
X31568571Y1952171D02*
X31568571Y2750457D01*
X31641142Y2895600D01*
X31786285Y2968171D01*
X32076571Y2968171D01*
X32221714Y2895600D01*
X31568571Y2024743D02*
X31713714Y1952171D01*
X32076571Y1952171D01*
X32221714Y2024743D01*
X32294285Y2169886D01*
X32294285Y2315029D01*
X32221714Y2460171D01*
X32076571Y2532743D01*
X31713714Y2532743D01*
X31568571Y2605314D01*
X30625143Y1952171D02*
X30770285Y2024743D01*
X30842857Y2169886D01*
X30842857Y3476171D01*
X29826857Y1952171D02*
X29971999Y2024743D01*
X30044571Y2169886D01*
X30044571Y3476171D01*
X28593142Y1952171D02*
X28593142Y2750457D01*
X28665713Y2895600D01*
X28810856Y2968171D01*
X29101142Y2968171D01*
X29246285Y2895600D01*
X28593142Y2024743D02*
X28738285Y1952171D01*
X29101142Y1952171D01*
X29246285Y2024743D01*
X29318856Y2169886D01*
X29318856Y2315029D01*
X29246285Y2460171D01*
X29101142Y2532743D01*
X28738285Y2532743D01*
X28593142Y2605314D01*
X27867428Y1952171D02*
X27867428Y3476171D01*
X27867428Y2895600D02*
X27722285Y2968171D01*
X27431999Y2968171D01*
X27286856Y2895600D01*
X27214285Y2823029D01*
X27141714Y2677886D01*
X27141714Y2242457D01*
X27214285Y2097314D01*
X27286856Y2024743D01*
X27431999Y1952171D01*
X27722285Y1952171D01*
X27867428Y2024743D01*
X26561142Y2024743D02*
X26415999Y1952171D01*
X26125714Y1952171D01*
X25980571Y2024743D01*
X25907999Y2169886D01*
X25907999Y2242457D01*
X25980571Y2387600D01*
X26125714Y2460171D01*
X26343428Y2460171D01*
X26488571Y2532743D01*
X26561142Y2677886D01*
X26561142Y2750457D01*
X26488571Y2895600D01*
X26343428Y2968171D01*
X26125714Y2968171D01*
X25980571Y2895600D01*
X25254857Y2097314D02*
X25182285Y2024743D01*
X25254857Y1952171D01*
X25327428Y2024743D01*
X25254857Y2097314D01*
X25254857Y1952171D01*
X23876000Y2024743D02*
X24021143Y1952171D01*
X24311429Y1952171D01*
X24456571Y2024743D01*
X24529143Y2097314D01*
X24601714Y2242457D01*
X24601714Y2677886D01*
X24529143Y2823029D01*
X24456571Y2895600D01*
X24311429Y2968171D01*
X24021143Y2968171D01*
X23876000Y2895600D01*
X23005143Y1952171D02*
X23150285Y2024743D01*
X23222857Y2097314D01*
X23295428Y2242457D01*
X23295428Y2677886D01*
X23222857Y2823029D01*
X23150285Y2895600D01*
X23005143Y2968171D01*
X22787428Y2968171D01*
X22642285Y2895600D01*
X22569714Y2823029D01*
X22497143Y2677886D01*
X22497143Y2242457D01*
X22569714Y2097314D01*
X22642285Y2024743D01*
X22787428Y1952171D01*
X23005143Y1952171D01*
X21844000Y1952171D02*
X21844000Y2968171D01*
X21844000Y2823029D02*
X21771428Y2895600D01*
X21626286Y2968171D01*
X21408571Y2968171D01*
X21263428Y2895600D01*
X21190857Y2750457D01*
X21190857Y1952171D01*
X21190857Y2750457D02*
X21118286Y2895600D01*
X20973143Y2968171D01*
X20755428Y2968171D01*
X20610286Y2895600D01*
X20537714Y2750457D01*
X20537714Y1952171D01*
D12*
X41897905Y33375600D02*
X41994667Y33411886D01*
X42139810Y33411886D01*
X42284952Y33375600D01*
X42381714Y33303029D01*
X42430095Y33230457D01*
X42478476Y33085314D01*
X42478476Y32976457D01*
X42430095Y32831314D01*
X42381714Y32758743D01*
X42284952Y32686171D01*
X42139810Y32649886D01*
X42043048Y32649886D01*
X41897905Y32686171D01*
X41849524Y32722457D01*
X41849524Y32976457D01*
X42043048Y32976457D01*
X41414095Y32649886D02*
X41414095Y33411886D01*
X40833524Y32649886D01*
X40833524Y33411886D01*
X40349714Y32649886D02*
X40349714Y33411886D01*
X40107809Y33411886D01*
X39962667Y33375600D01*
X39865905Y33303029D01*
X39817524Y33230457D01*
X39769143Y33085314D01*
X39769143Y32976457D01*
X39817524Y32831314D01*
X39865905Y32758743D01*
X39962667Y32686171D01*
X40107809Y32649886D01*
X40349714Y32649886D01*
X41849524Y30207857D02*
X41897905Y30171571D01*
X42043048Y30135286D01*
X42139810Y30135286D01*
X42284952Y30171571D01*
X42381714Y30244143D01*
X42430095Y30316714D01*
X42478476Y30461857D01*
X42478476Y30570714D01*
X42430095Y30715857D01*
X42381714Y30788429D01*
X42284952Y30861000D01*
X42139810Y30897286D01*
X42043048Y30897286D01*
X41897905Y30861000D01*
X41849524Y30824714D01*
X41220571Y30897286D02*
X41027048Y30897286D01*
X40930286Y30861000D01*
X40833524Y30788429D01*
X40785143Y30643286D01*
X40785143Y30389286D01*
X40833524Y30244143D01*
X40930286Y30171571D01*
X41027048Y30135286D01*
X41220571Y30135286D01*
X41317333Y30171571D01*
X41414095Y30244143D01*
X41462476Y30389286D01*
X41462476Y30643286D01*
X41414095Y30788429D01*
X41317333Y30861000D01*
X41220571Y30897286D01*
X40591619Y30062714D02*
X39817524Y30062714D01*
X39575619Y30135286D02*
X39575619Y30897286D01*
X39575619Y30534429D02*
X38995048Y30534429D01*
X38995048Y30135286D02*
X38995048Y30897286D01*
X42430095Y27620686D02*
X42430095Y28382686D01*
X42188190Y28382686D01*
X42043048Y28346400D01*
X41946286Y28273829D01*
X41897905Y28201257D01*
X41849524Y28056114D01*
X41849524Y27947257D01*
X41897905Y27802114D01*
X41946286Y27729543D01*
X42043048Y27656971D01*
X42188190Y27620686D01*
X42430095Y27620686D01*
X41220571Y28382686D02*
X41027048Y28382686D01*
X40930286Y28346400D01*
X40833524Y28273829D01*
X40785143Y28128686D01*
X40785143Y27874686D01*
X40833524Y27729543D01*
X40930286Y27656971D01*
X41027048Y27620686D01*
X41220571Y27620686D01*
X41317333Y27656971D01*
X41414095Y27729543D01*
X41462476Y27874686D01*
X41462476Y28128686D01*
X41414095Y28273829D01*
X41317333Y28346400D01*
X41220571Y28382686D01*
X40591619Y27548114D02*
X39817524Y27548114D01*
X39575619Y27620686D02*
X39575619Y28382686D01*
X39575619Y28019829D02*
X38995048Y28019829D01*
X38995048Y27620686D02*
X38995048Y28382686D01*
X28310114Y21190857D02*
X27548114Y21190857D01*
X27548114Y20948952D01*
X27584400Y20803810D01*
X27656971Y20707048D01*
X27729543Y20658667D01*
X27874686Y20610286D01*
X27983543Y20610286D01*
X28128686Y20658667D01*
X28201257Y20707048D01*
X28273829Y20803810D01*
X28310114Y20948952D01*
X28310114Y21190857D01*
X28310114Y20174857D02*
X27548114Y20174857D01*
X28382686Y19932952D02*
X28382686Y19158857D01*
X28092400Y18965333D02*
X28092400Y18481524D01*
X28310114Y19062095D02*
X27548114Y18723428D01*
X28310114Y18384762D01*
X30752143Y20610286D02*
X30788429Y20658667D01*
X30824714Y20803810D01*
X30824714Y20900572D01*
X30788429Y21045714D01*
X30715857Y21142476D01*
X30643286Y21190857D01*
X30498143Y21239238D01*
X30389286Y21239238D01*
X30244143Y21190857D01*
X30171571Y21142476D01*
X30099000Y21045714D01*
X30062714Y20900572D01*
X30062714Y20803810D01*
X30099000Y20658667D01*
X30135286Y20610286D01*
X30824714Y20174857D02*
X30062714Y20174857D01*
X30897286Y19932952D02*
X30897286Y19158857D01*
X30607000Y18965333D02*
X30607000Y18481524D01*
X30824714Y19062095D02*
X30062714Y18723428D01*
X30824714Y18384762D01*
X32613600Y20610286D02*
X32577314Y20707048D01*
X32577314Y20852191D01*
X32613600Y20997333D01*
X32686171Y21094095D01*
X32758743Y21142476D01*
X32903886Y21190857D01*
X33012743Y21190857D01*
X33157886Y21142476D01*
X33230457Y21094095D01*
X33303029Y20997333D01*
X33339314Y20852191D01*
X33339314Y20755429D01*
X33303029Y20610286D01*
X33266743Y20561905D01*
X33012743Y20561905D01*
X33012743Y20755429D01*
X33339314Y20126476D02*
X32577314Y20126476D01*
X33339314Y19545905D01*
X32577314Y19545905D01*
X33339314Y19062095D02*
X32577314Y19062095D01*
X32577314Y18820190D01*
X32613600Y18675048D01*
X32686171Y18578286D01*
X32758743Y18529905D01*
X32903886Y18481524D01*
X33012743Y18481524D01*
X33157886Y18529905D01*
X33230457Y18578286D01*
X33303029Y18675048D01*
X33339314Y18820190D01*
X33339314Y19062095D01*
X20610286Y33375600D02*
X20707048Y33411886D01*
X20852191Y33411886D01*
X20997333Y33375600D01*
X21094095Y33303029D01*
X21142476Y33230457D01*
X21190857Y33085314D01*
X21190857Y32976457D01*
X21142476Y32831314D01*
X21094095Y32758743D01*
X20997333Y32686171D01*
X20852191Y32649886D01*
X20755429Y32649886D01*
X20610286Y32686171D01*
X20561905Y32722457D01*
X20561905Y32976457D01*
X20755429Y32976457D01*
X20126476Y32649886D02*
X20126476Y33411886D01*
X19545905Y32649886D01*
X19545905Y33411886D01*
X19062095Y32649886D02*
X19062095Y33411886D01*
X18820190Y33411886D01*
X18675048Y33375600D01*
X18578286Y33303029D01*
X18529905Y33230457D01*
X18481524Y33085314D01*
X18481524Y32976457D01*
X18529905Y32831314D01*
X18578286Y32758743D01*
X18675048Y32686171D01*
X18820190Y32649886D01*
X19062095Y32649886D01*
X20610286Y30207857D02*
X20658667Y30171571D01*
X20803810Y30135286D01*
X20900572Y30135286D01*
X21045714Y30171571D01*
X21142476Y30244143D01*
X21190857Y30316714D01*
X21239238Y30461857D01*
X21239238Y30570714D01*
X21190857Y30715857D01*
X21142476Y30788429D01*
X21045714Y30861000D01*
X20900572Y30897286D01*
X20803810Y30897286D01*
X20658667Y30861000D01*
X20610286Y30824714D01*
X20174857Y30135286D02*
X20174857Y30897286D01*
X19932952Y30062714D02*
X19158857Y30062714D01*
X18965333Y30353000D02*
X18481524Y30353000D01*
X19062095Y30135286D02*
X18723428Y30897286D01*
X18384762Y30135286D01*
X21190857Y27620686D02*
X21190857Y28382686D01*
X20948952Y28382686D01*
X20803810Y28346400D01*
X20707048Y28273829D01*
X20658667Y28201257D01*
X20610286Y28056114D01*
X20610286Y27947257D01*
X20658667Y27802114D01*
X20707048Y27729543D01*
X20803810Y27656971D01*
X20948952Y27620686D01*
X21190857Y27620686D01*
X20174857Y27620686D02*
X20174857Y28382686D01*
X19932952Y27548114D02*
X19158857Y27548114D01*
X18965333Y27838400D02*
X18481524Y27838400D01*
X19062095Y27620686D02*
X18723428Y28382686D01*
X18384762Y27620686D01*
X28310114Y42430095D02*
X27548114Y42430095D01*
X27548114Y42188190D01*
X27584400Y42043048D01*
X27656971Y41946286D01*
X27729543Y41897905D01*
X27874686Y41849524D01*
X27983543Y41849524D01*
X28128686Y41897905D01*
X28201257Y41946286D01*
X28273829Y42043048D01*
X28310114Y42188190D01*
X28310114Y42430095D01*
X27548114Y41220571D02*
X27548114Y41027048D01*
X27584400Y40930286D01*
X27656971Y40833524D01*
X27802114Y40785143D01*
X28056114Y40785143D01*
X28201257Y40833524D01*
X28273829Y40930286D01*
X28310114Y41027048D01*
X28310114Y41220571D01*
X28273829Y41317333D01*
X28201257Y41414095D01*
X28056114Y41462476D01*
X27802114Y41462476D01*
X27656971Y41414095D01*
X27584400Y41317333D01*
X27548114Y41220571D01*
X28382686Y40591619D02*
X28382686Y39817524D01*
X28310114Y39575619D02*
X27548114Y39575619D01*
X27910971Y39575619D02*
X27910971Y38995048D01*
X28310114Y38995048D02*
X27548114Y38995048D01*
X30752143Y41849524D02*
X30788429Y41897905D01*
X30824714Y42043048D01*
X30824714Y42139810D01*
X30788429Y42284952D01*
X30715857Y42381714D01*
X30643286Y42430095D01*
X30498143Y42478476D01*
X30389286Y42478476D01*
X30244143Y42430095D01*
X30171571Y42381714D01*
X30099000Y42284952D01*
X30062714Y42139810D01*
X30062714Y42043048D01*
X30099000Y41897905D01*
X30135286Y41849524D01*
X30062714Y41220571D02*
X30062714Y41027048D01*
X30099000Y40930286D01*
X30171571Y40833524D01*
X30316714Y40785143D01*
X30570714Y40785143D01*
X30715857Y40833524D01*
X30788429Y40930286D01*
X30824714Y41027048D01*
X30824714Y41220571D01*
X30788429Y41317333D01*
X30715857Y41414095D01*
X30570714Y41462476D01*
X30316714Y41462476D01*
X30171571Y41414095D01*
X30099000Y41317333D01*
X30062714Y41220571D01*
X30897286Y40591619D02*
X30897286Y39817524D01*
X30824714Y39575619D02*
X30062714Y39575619D01*
X30425571Y39575619D02*
X30425571Y38995048D01*
X30824714Y38995048D02*
X30062714Y38995048D01*
X32613600Y41897905D02*
X32577314Y41994667D01*
X32577314Y42139810D01*
X32613600Y42284952D01*
X32686171Y42381714D01*
X32758743Y42430095D01*
X32903886Y42478476D01*
X33012743Y42478476D01*
X33157886Y42430095D01*
X33230457Y42381714D01*
X33303029Y42284952D01*
X33339314Y42139810D01*
X33339314Y42043048D01*
X33303029Y41897905D01*
X33266743Y41849524D01*
X33012743Y41849524D01*
X33012743Y42043048D01*
X33339314Y41414095D02*
X32577314Y41414095D01*
X33339314Y40833524D01*
X32577314Y40833524D01*
X33339314Y40349714D02*
X32577314Y40349714D01*
X32577314Y40107809D01*
X32613600Y39962667D01*
X32686171Y39865905D01*
X32758743Y39817524D01*
X32903886Y39769143D01*
X33012743Y39769143D01*
X33157886Y39817524D01*
X33230457Y39865905D01*
X33303029Y39962667D01*
X33339314Y40107809D01*
X33339314Y40349714D01*
D10*
X37592000Y15494000D02*
X37592000Y14986000D01*
X38608000Y14986000D02*
X38608000Y15494000D01*
X22352000Y15494000D02*
X22352000Y14986000D01*
X23368000Y14986000D02*
X23368000Y15494000D01*
D13*
G36*
X29876476Y35394855D02*
X29331460Y35394709D01*
X28833256Y35394447D01*
X28379868Y35394056D01*
X27969302Y35393522D01*
X27599564Y35392830D01*
X27268659Y35391966D01*
X26974593Y35390916D01*
X26715372Y35389665D01*
X26489000Y35388200D01*
X26293484Y35386505D01*
X26126830Y35384567D01*
X25987042Y35382371D01*
X25872126Y35379903D01*
X25780089Y35377150D01*
X25708934Y35374096D01*
X25656669Y35370727D01*
X25621298Y35367029D01*
X25600828Y35362989D01*
X25594404Y35360040D01*
X25589340Y35353203D01*
X25584697Y35340047D01*
X25580457Y35318460D01*
X25576603Y35286326D01*
X25573115Y35241533D01*
X25569977Y35181965D01*
X25567169Y35105510D01*
X25564674Y35010052D01*
X25562473Y34893479D01*
X25560549Y34753675D01*
X25558883Y34588527D01*
X25557457Y34395921D01*
X25556253Y34173743D01*
X25555252Y33919879D01*
X25554437Y33632215D01*
X25553789Y33308637D01*
X25553291Y32947031D01*
X25552923Y32545282D01*
X25552668Y32101277D01*
X25552509Y31612903D01*
X25552425Y31078044D01*
X25552401Y30494587D01*
X25552400Y30469270D01*
X25552470Y29856434D01*
X25552685Y29292717D01*
X25553056Y28776441D01*
X25553595Y28305926D01*
X25554310Y27879491D01*
X25555213Y27495458D01*
X25556314Y27152147D01*
X25557624Y26847877D01*
X25559153Y26580970D01*
X25560912Y26349745D01*
X25562910Y26152523D01*
X25565159Y25987625D01*
X25567670Y25853369D01*
X25570451Y25748077D01*
X25573515Y25670070D01*
X25576871Y25617667D01*
X25580530Y25589188D01*
X25582881Y25582880D01*
X25597782Y25579034D01*
X25635599Y25575497D01*
X25698010Y25572259D01*
X25786694Y25569309D01*
X25903333Y25566637D01*
X26049605Y25564232D01*
X26227190Y25562084D01*
X26437768Y25560182D01*
X26683019Y25558516D01*
X26964622Y25557076D01*
X27284256Y25555851D01*
X27643603Y25554830D01*
X28044340Y25554003D01*
X28488149Y25553359D01*
X28976709Y25552889D01*
X29511699Y25552581D01*
X30094799Y25552425D01*
X30469270Y25552400D01*
X31054792Y25552423D01*
X31591627Y25552504D01*
X32081891Y25552660D01*
X32527696Y25552910D01*
X32931158Y25553273D01*
X33294389Y25553765D01*
X33619505Y25554407D01*
X33908619Y25555214D01*
X34163844Y25556207D01*
X34387296Y25557403D01*
X34581088Y25558819D01*
X34747334Y25560475D01*
X34888149Y25562388D01*
X35005645Y25564577D01*
X35101938Y25567059D01*
X35179140Y25569854D01*
X35239367Y25572978D01*
X35284732Y25576450D01*
X35317350Y25580289D01*
X35339333Y25584513D01*
X35352797Y25589139D01*
X35359855Y25594185D01*
X35360040Y25594404D01*
X35364322Y25605890D01*
X35368252Y25630921D01*
X35371842Y25671491D01*
X35375108Y25729595D01*
X35378065Y25807228D01*
X35380725Y25906384D01*
X35383104Y26029057D01*
X35385215Y26177242D01*
X35387074Y26352933D01*
X35388694Y26558125D01*
X35390089Y26794811D01*
X35391274Y27064988D01*
X35392263Y27370648D01*
X35392390Y27424867D01*
X32889508Y27424867D01*
X32849291Y27275955D01*
X32767406Y27145315D01*
X32646764Y27039898D01*
X32507613Y26972391D01*
X32360060Y26938582D01*
X32189452Y26926031D01*
X32019058Y26935149D01*
X31887961Y26961371D01*
X31818044Y26992289D01*
X31233993Y26992289D01*
X31211742Y26981651D01*
X31158095Y26977738D01*
X31064368Y26979178D01*
X31037639Y26980073D01*
X30827016Y26987500D01*
X30710658Y27181065D01*
X30651045Y27278213D01*
X30594601Y27366732D01*
X30551084Y27431421D01*
X30541658Y27444373D01*
X30489016Y27514116D01*
X30400538Y27390508D01*
X30336914Y27297513D01*
X30267072Y27189365D01*
X30224996Y27120850D01*
X30137932Y26974800D01*
X29927966Y26974800D01*
X29831891Y26976926D01*
X29758935Y26982586D01*
X29720916Y26990709D01*
X29718049Y26993850D01*
X29731351Y27027272D01*
X29767339Y27093479D01*
X29820246Y27183177D01*
X29884304Y27287070D01*
X29953745Y27395860D01*
X30022801Y27500251D01*
X30025181Y27503683D01*
X29497353Y27503683D01*
X29482124Y27347212D01*
X29425561Y27202242D01*
X29365688Y27118148D01*
X29309659Y27072050D01*
X29224191Y27020525D01*
X29128112Y26973988D01*
X29057600Y26947753D01*
X28982735Y26934805D01*
X28875746Y26928089D01*
X28754920Y26927521D01*
X28638538Y26933017D01*
X28544886Y26944493D01*
X28519697Y26950226D01*
X28360772Y27016945D01*
X28232899Y27115995D01*
X28139667Y27240079D01*
X28084665Y27381897D01*
X28071482Y27534152D01*
X28103708Y27689545D01*
X28128006Y27746677D01*
X28169987Y27822610D01*
X28219327Y27886181D01*
X28287867Y27950101D01*
X28387448Y28027083D01*
X28392967Y28031145D01*
X28381277Y28050738D01*
X28342293Y28095055D01*
X28298718Y28140083D01*
X28198479Y28271736D01*
X28140924Y28417114D01*
X28125046Y28567598D01*
X28149837Y28714569D01*
X28214291Y28849407D01*
X28317400Y28963495D01*
X28401649Y29020779D01*
X28470913Y29056565D01*
X28531802Y29078752D01*
X28600350Y29090532D01*
X28692593Y29095093D01*
X28778200Y29095700D01*
X28927527Y29090681D01*
X29041305Y29072430D01*
X29134081Y29036161D01*
X29220401Y28977089D01*
X29269418Y28934051D01*
X29369049Y28810193D01*
X29429765Y28666431D01*
X29451038Y28513311D01*
X29432338Y28361374D01*
X29373137Y28221165D01*
X29309352Y28137772D01*
X29210347Y28033696D01*
X29302526Y27944173D01*
X29406805Y27811957D01*
X29471997Y27661862D01*
X29497353Y27503683D01*
X30025181Y27503683D01*
X30085705Y27590949D01*
X30104856Y27617272D01*
X30232472Y27789844D01*
X29987936Y28156878D01*
X29908281Y28277140D01*
X29839480Y28382358D01*
X29786095Y28465445D01*
X29752688Y28519316D01*
X29743400Y28536756D01*
X29766795Y28542720D01*
X29828967Y28547211D01*
X29917900Y28549471D01*
X29946726Y28549600D01*
X30150052Y28549600D01*
X30304806Y28308300D01*
X30367046Y28212319D01*
X30418849Y28134437D01*
X30454431Y28083219D01*
X30467792Y28067000D01*
X30484796Y28086434D01*
X30524894Y28139286D01*
X30582015Y28217383D01*
X30647073Y28308300D01*
X30818123Y28549600D01*
X31030956Y28549600D01*
X31109508Y28550509D01*
X31166872Y28549673D01*
X31202040Y28541754D01*
X31214003Y28521411D01*
X31201753Y28483306D01*
X31164283Y28422097D01*
X31100585Y28332446D01*
X31009652Y28209012D01*
X30951853Y28130500D01*
X30870050Y28018130D01*
X30799982Y27920207D01*
X30746724Y27843956D01*
X30715348Y27796601D01*
X30709091Y27784743D01*
X30723399Y27757588D01*
X30760437Y27705582D01*
X30787824Y27670443D01*
X30834713Y27608597D01*
X30897148Y27521576D01*
X30968625Y27419002D01*
X31042642Y27310495D01*
X31112697Y27205676D01*
X31172286Y27114165D01*
X31214906Y27045584D01*
X31233535Y27011025D01*
X31233993Y26992289D01*
X31818044Y26992289D01*
X31726908Y27032590D01*
X31602660Y27137291D01*
X31517963Y27271835D01*
X31475564Y27432585D01*
X31471018Y27513539D01*
X31490198Y27674872D01*
X31549693Y27809091D01*
X31653833Y27924939D01*
X31688720Y27953102D01*
X31792248Y28032065D01*
X31687133Y28148168D01*
X31592604Y28283814D01*
X31537555Y28432031D01*
X31521751Y28583643D01*
X31544960Y28729469D01*
X31606946Y28860330D01*
X31707478Y28967048D01*
X31707991Y28967440D01*
X31854527Y29049248D01*
X32024427Y29095543D01*
X32204735Y29106325D01*
X32382495Y29081593D01*
X32544751Y29021348D01*
X32630179Y28967464D01*
X32722148Y28869464D01*
X32792728Y28739386D01*
X32834217Y28594073D01*
X32841952Y28504335D01*
X32825064Y28349173D01*
X32770494Y28220832D01*
X32683509Y28116817D01*
X32595807Y28033369D01*
X32684929Y27955120D01*
X32749204Y27884020D01*
X32810469Y27793051D01*
X32833277Y27749685D01*
X32885141Y27585094D01*
X32889508Y27424867D01*
X35392390Y27424867D01*
X35393070Y27713786D01*
X35393710Y28096398D01*
X35394197Y28520476D01*
X35394544Y28988016D01*
X35394767Y29501013D01*
X35394880Y30061460D01*
X35394900Y30470297D01*
X35394885Y31053053D01*
X35394824Y31587149D01*
X35394700Y32074723D01*
X35394490Y32517914D01*
X35394177Y32918862D01*
X35393739Y33279706D01*
X35393157Y33602584D01*
X35392412Y33889637D01*
X35391482Y34143004D01*
X35390349Y34364823D01*
X35388992Y34557233D01*
X35387392Y34722375D01*
X35385528Y34862386D01*
X35383381Y34979407D01*
X35380931Y35075576D01*
X35379048Y35128200D01*
X35128200Y35128200D01*
X35128200Y30607000D01*
X25806400Y30607000D01*
X25806400Y35128200D01*
X35128200Y35128200D01*
X35379048Y35128200D01*
X35378158Y35153033D01*
X35375042Y35213916D01*
X35371563Y35260366D01*
X35367702Y35294520D01*
X35363438Y35318518D01*
X35358751Y35334500D01*
X35353622Y35344605D01*
X35349543Y35349543D01*
X35342404Y35355011D01*
X35330965Y35360022D01*
X35313087Y35364596D01*
X35286633Y35368753D01*
X35249461Y35372512D01*
X35199433Y35375894D01*
X35134411Y35378918D01*
X35052254Y35381604D01*
X34950823Y35383973D01*
X34827980Y35386044D01*
X34681585Y35387836D01*
X34509500Y35389371D01*
X34309584Y35390667D01*
X34079698Y35391745D01*
X33817705Y35392624D01*
X33521464Y35393325D01*
X33188836Y35393867D01*
X32817682Y35394270D01*
X32405862Y35394555D01*
X31951239Y35394740D01*
X31451672Y35394846D01*
X30905023Y35394892D01*
X30470297Y35394900D01*
X29876476Y35394855D01*
X29876476Y35394855D01*
G37*
X29876476Y35394855D02*
X29331460Y35394709D01*
X28833256Y35394447D01*
X28379868Y35394056D01*
X27969302Y35393522D01*
X27599564Y35392830D01*
X27268659Y35391966D01*
X26974593Y35390916D01*
X26715372Y35389665D01*
X26489000Y35388200D01*
X26293484Y35386505D01*
X26126830Y35384567D01*
X25987042Y35382371D01*
X25872126Y35379903D01*
X25780089Y35377150D01*
X25708934Y35374096D01*
X25656669Y35370727D01*
X25621298Y35367029D01*
X25600828Y35362989D01*
X25594404Y35360040D01*
X25589340Y35353203D01*
X25584697Y35340047D01*
X25580457Y35318460D01*
X25576603Y35286326D01*
X25573115Y35241533D01*
X25569977Y35181965D01*
X25567169Y35105510D01*
X25564674Y35010052D01*
X25562473Y34893479D01*
X25560549Y34753675D01*
X25558883Y34588527D01*
X25557457Y34395921D01*
X25556253Y34173743D01*
X25555252Y33919879D01*
X25554437Y33632215D01*
X25553789Y33308637D01*
X25553291Y32947031D01*
X25552923Y32545282D01*
X25552668Y32101277D01*
X25552509Y31612903D01*
X25552425Y31078044D01*
X25552401Y30494587D01*
X25552400Y30469270D01*
X25552470Y29856434D01*
X25552685Y29292717D01*
X25553056Y28776441D01*
X25553595Y28305926D01*
X25554310Y27879491D01*
X25555213Y27495458D01*
X25556314Y27152147D01*
X25557624Y26847877D01*
X25559153Y26580970D01*
X25560912Y26349745D01*
X25562910Y26152523D01*
X25565159Y25987625D01*
X25567670Y25853369D01*
X25570451Y25748077D01*
X25573515Y25670070D01*
X25576871Y25617667D01*
X25580530Y25589188D01*
X25582881Y25582880D01*
X25597782Y25579034D01*
X25635599Y25575497D01*
X25698010Y25572259D01*
X25786694Y25569309D01*
X25903333Y25566637D01*
X26049605Y25564232D01*
X26227190Y25562084D01*
X26437768Y25560182D01*
X26683019Y25558516D01*
X26964622Y25557076D01*
X27284256Y25555851D01*
X27643603Y25554830D01*
X28044340Y25554003D01*
X28488149Y25553359D01*
X28976709Y25552889D01*
X29511699Y25552581D01*
X30094799Y25552425D01*
X30469270Y25552400D01*
X31054792Y25552423D01*
X31591627Y25552504D01*
X32081891Y25552660D01*
X32527696Y25552910D01*
X32931158Y25553273D01*
X33294389Y25553765D01*
X33619505Y25554407D01*
X33908619Y25555214D01*
X34163844Y25556207D01*
X34387296Y25557403D01*
X34581088Y25558819D01*
X34747334Y25560475D01*
X34888149Y25562388D01*
X35005645Y25564577D01*
X35101938Y25567059D01*
X35179140Y25569854D01*
X35239367Y25572978D01*
X35284732Y25576450D01*
X35317350Y25580289D01*
X35339333Y25584513D01*
X35352797Y25589139D01*
X35359855Y25594185D01*
X35360040Y25594404D01*
X35364322Y25605890D01*
X35368252Y25630921D01*
X35371842Y25671491D01*
X35375108Y25729595D01*
X35378065Y25807228D01*
X35380725Y25906384D01*
X35383104Y26029057D01*
X35385215Y26177242D01*
X35387074Y26352933D01*
X35388694Y26558125D01*
X35390089Y26794811D01*
X35391274Y27064988D01*
X35392263Y27370648D01*
X35392390Y27424867D01*
X32889508Y27424867D01*
X32849291Y27275955D01*
X32767406Y27145315D01*
X32646764Y27039898D01*
X32507613Y26972391D01*
X32360060Y26938582D01*
X32189452Y26926031D01*
X32019058Y26935149D01*
X31887961Y26961371D01*
X31818044Y26992289D01*
X31233993Y26992289D01*
X31211742Y26981651D01*
X31158095Y26977738D01*
X31064368Y26979178D01*
X31037639Y26980073D01*
X30827016Y26987500D01*
X30710658Y27181065D01*
X30651045Y27278213D01*
X30594601Y27366732D01*
X30551084Y27431421D01*
X30541658Y27444373D01*
X30489016Y27514116D01*
X30400538Y27390508D01*
X30336914Y27297513D01*
X30267072Y27189365D01*
X30224996Y27120850D01*
X30137932Y26974800D01*
X29927966Y26974800D01*
X29831891Y26976926D01*
X29758935Y26982586D01*
X29720916Y26990709D01*
X29718049Y26993850D01*
X29731351Y27027272D01*
X29767339Y27093479D01*
X29820246Y27183177D01*
X29884304Y27287070D01*
X29953745Y27395860D01*
X30022801Y27500251D01*
X30025181Y27503683D01*
X29497353Y27503683D01*
X29482124Y27347212D01*
X29425561Y27202242D01*
X29365688Y27118148D01*
X29309659Y27072050D01*
X29224191Y27020525D01*
X29128112Y26973988D01*
X29057600Y26947753D01*
X28982735Y26934805D01*
X28875746Y26928089D01*
X28754920Y26927521D01*
X28638538Y26933017D01*
X28544886Y26944493D01*
X28519697Y26950226D01*
X28360772Y27016945D01*
X28232899Y27115995D01*
X28139667Y27240079D01*
X28084665Y27381897D01*
X28071482Y27534152D01*
X28103708Y27689545D01*
X28128006Y27746677D01*
X28169987Y27822610D01*
X28219327Y27886181D01*
X28287867Y27950101D01*
X28387448Y28027083D01*
X28392967Y28031145D01*
X28381277Y28050738D01*
X28342293Y28095055D01*
X28298718Y28140083D01*
X28198479Y28271736D01*
X28140924Y28417114D01*
X28125046Y28567598D01*
X28149837Y28714569D01*
X28214291Y28849407D01*
X28317400Y28963495D01*
X28401649Y29020779D01*
X28470913Y29056565D01*
X28531802Y29078752D01*
X28600350Y29090532D01*
X28692593Y29095093D01*
X28778200Y29095700D01*
X28927527Y29090681D01*
X29041305Y29072430D01*
X29134081Y29036161D01*
X29220401Y28977089D01*
X29269418Y28934051D01*
X29369049Y28810193D01*
X29429765Y28666431D01*
X29451038Y28513311D01*
X29432338Y28361374D01*
X29373137Y28221165D01*
X29309352Y28137772D01*
X29210347Y28033696D01*
X29302526Y27944173D01*
X29406805Y27811957D01*
X29471997Y27661862D01*
X29497353Y27503683D01*
X30025181Y27503683D01*
X30085705Y27590949D01*
X30104856Y27617272D01*
X30232472Y27789844D01*
X29987936Y28156878D01*
X29908281Y28277140D01*
X29839480Y28382358D01*
X29786095Y28465445D01*
X29752688Y28519316D01*
X29743400Y28536756D01*
X29766795Y28542720D01*
X29828967Y28547211D01*
X29917900Y28549471D01*
X29946726Y28549600D01*
X30150052Y28549600D01*
X30304806Y28308300D01*
X30367046Y28212319D01*
X30418849Y28134437D01*
X30454431Y28083219D01*
X30467792Y28067000D01*
X30484796Y28086434D01*
X30524894Y28139286D01*
X30582015Y28217383D01*
X30647073Y28308300D01*
X30818123Y28549600D01*
X31030956Y28549600D01*
X31109508Y28550509D01*
X31166872Y28549673D01*
X31202040Y28541754D01*
X31214003Y28521411D01*
X31201753Y28483306D01*
X31164283Y28422097D01*
X31100585Y28332446D01*
X31009652Y28209012D01*
X30951853Y28130500D01*
X30870050Y28018130D01*
X30799982Y27920207D01*
X30746724Y27843956D01*
X30715348Y27796601D01*
X30709091Y27784743D01*
X30723399Y27757588D01*
X30760437Y27705582D01*
X30787824Y27670443D01*
X30834713Y27608597D01*
X30897148Y27521576D01*
X30968625Y27419002D01*
X31042642Y27310495D01*
X31112697Y27205676D01*
X31172286Y27114165D01*
X31214906Y27045584D01*
X31233535Y27011025D01*
X31233993Y26992289D01*
X31818044Y26992289D01*
X31726908Y27032590D01*
X31602660Y27137291D01*
X31517963Y27271835D01*
X31475564Y27432585D01*
X31471018Y27513539D01*
X31490198Y27674872D01*
X31549693Y27809091D01*
X31653833Y27924939D01*
X31688720Y27953102D01*
X31792248Y28032065D01*
X31687133Y28148168D01*
X31592604Y28283814D01*
X31537555Y28432031D01*
X31521751Y28583643D01*
X31544960Y28729469D01*
X31606946Y28860330D01*
X31707478Y28967048D01*
X31707991Y28967440D01*
X31854527Y29049248D01*
X32024427Y29095543D01*
X32204735Y29106325D01*
X32382495Y29081593D01*
X32544751Y29021348D01*
X32630179Y28967464D01*
X32722148Y28869464D01*
X32792728Y28739386D01*
X32834217Y28594073D01*
X32841952Y28504335D01*
X32825064Y28349173D01*
X32770494Y28220832D01*
X32683509Y28116817D01*
X32595807Y28033369D01*
X32684929Y27955120D01*
X32749204Y27884020D01*
X32810469Y27793051D01*
X32833277Y27749685D01*
X32885141Y27585094D01*
X32889508Y27424867D01*
X35392390Y27424867D01*
X35393070Y27713786D01*
X35393710Y28096398D01*
X35394197Y28520476D01*
X35394544Y28988016D01*
X35394767Y29501013D01*
X35394880Y30061460D01*
X35394900Y30470297D01*
X35394885Y31053053D01*
X35394824Y31587149D01*
X35394700Y32074723D01*
X35394490Y32517914D01*
X35394177Y32918862D01*
X35393739Y33279706D01*
X35393157Y33602584D01*
X35392412Y33889637D01*
X35391482Y34143004D01*
X35390349Y34364823D01*
X35388992Y34557233D01*
X35387392Y34722375D01*
X35385528Y34862386D01*
X35383381Y34979407D01*
X35380931Y35075576D01*
X35379048Y35128200D01*
X35128200Y35128200D01*
X35128200Y30607000D01*
X25806400Y30607000D01*
X25806400Y35128200D01*
X35128200Y35128200D01*
X35379048Y35128200D01*
X35378158Y35153033D01*
X35375042Y35213916D01*
X35371563Y35260366D01*
X35367702Y35294520D01*
X35363438Y35318518D01*
X35358751Y35334500D01*
X35353622Y35344605D01*
X35349543Y35349543D01*
X35342404Y35355011D01*
X35330965Y35360022D01*
X35313087Y35364596D01*
X35286633Y35368753D01*
X35249461Y35372512D01*
X35199433Y35375894D01*
X35134411Y35378918D01*
X35052254Y35381604D01*
X34950823Y35383973D01*
X34827980Y35386044D01*
X34681585Y35387836D01*
X34509500Y35389371D01*
X34309584Y35390667D01*
X34079698Y35391745D01*
X33817705Y35392624D01*
X33521464Y35393325D01*
X33188836Y35393867D01*
X32817682Y35394270D01*
X32405862Y35394555D01*
X31951239Y35394740D01*
X31451672Y35394846D01*
X30905023Y35394892D01*
X30470297Y35394900D01*
X29876476Y35394855D01*
G36*
X32170543Y27838986D02*
X32023923Y27764930D01*
X31920460Y27680399D01*
X31862981Y27588189D01*
X31851600Y27523097D01*
X31874985Y27422582D01*
X31942675Y27342770D01*
X32050978Y27287730D01*
X32070606Y27281832D01*
X32145027Y27262952D01*
X32197100Y27258661D01*
X32253114Y27268883D01*
X32296895Y27281178D01*
X32396145Y27330013D01*
X32470779Y27405302D01*
X32502324Y27473105D01*
X32504221Y27565119D01*
X32474958Y27672266D01*
X32420895Y27775429D01*
X32387406Y27818590D01*
X32316317Y27898151D01*
X32170543Y27838986D01*
X32170543Y27838986D01*
G37*
X32170543Y27838986D02*
X32023923Y27764930D01*
X31920460Y27680399D01*
X31862981Y27588189D01*
X31851600Y27523097D01*
X31874985Y27422582D01*
X31942675Y27342770D01*
X32050978Y27287730D01*
X32070606Y27281832D01*
X32145027Y27262952D01*
X32197100Y27258661D01*
X32253114Y27268883D01*
X32296895Y27281178D01*
X32396145Y27330013D01*
X32470779Y27405302D01*
X32502324Y27473105D01*
X32504221Y27565119D01*
X32474958Y27672266D01*
X32420895Y27775429D01*
X32387406Y27818590D01*
X32316317Y27898151D01*
X32170543Y27838986D01*
G36*
X32090347Y28747068D02*
X32030398Y28723935D01*
X31976647Y28678554D01*
X31920394Y28601641D01*
X31904614Y28516995D01*
X31927935Y28412919D01*
X31941469Y28378264D01*
X31996974Y28270650D01*
X32057433Y28211516D01*
X32129991Y28198589D01*
X32221794Y28229598D01*
X32288403Y28267913D01*
X32385903Y28351258D01*
X32441051Y28444200D01*
X32455830Y28538146D01*
X32432225Y28624504D01*
X32372221Y28694681D01*
X32277802Y28740083D01*
X32176421Y28752800D01*
X32090347Y28747068D01*
X32090347Y28747068D01*
G37*
X32090347Y28747068D02*
X32030398Y28723935D01*
X31976647Y28678554D01*
X31920394Y28601641D01*
X31904614Y28516995D01*
X31927935Y28412919D01*
X31941469Y28378264D01*
X31996974Y28270650D01*
X32057433Y28211516D01*
X32129991Y28198589D01*
X32221794Y28229598D01*
X32288403Y28267913D01*
X32385903Y28351258D01*
X32441051Y28444200D01*
X32455830Y28538146D01*
X32432225Y28624504D01*
X32372221Y28694681D01*
X32277802Y28740083D01*
X32176421Y28752800D01*
X32090347Y28747068D01*
G36*
X28881013Y27873709D02*
X28806232Y27847683D01*
X28713891Y27804738D01*
X28704255Y27799724D01*
X28571513Y27715113D01*
X28488954Y27627362D01*
X28456729Y27536861D01*
X28474992Y27443995D01*
X28531584Y27362112D01*
X28593679Y27316831D01*
X28680150Y27278119D01*
X28764750Y27256772D01*
X28790900Y27255457D01*
X28829160Y27264007D01*
X28894014Y27284203D01*
X28917900Y27292461D01*
X29023324Y27346621D01*
X29085049Y27422000D01*
X29107998Y27525098D01*
X29108400Y27544030D01*
X29094105Y27631313D01*
X29057138Y27724711D01*
X29006379Y27808022D01*
X28950706Y27865047D01*
X28925239Y27878202D01*
X28881013Y27873709D01*
X28881013Y27873709D01*
G37*
X28881013Y27873709D02*
X28806232Y27847683D01*
X28713891Y27804738D01*
X28704255Y27799724D01*
X28571513Y27715113D01*
X28488954Y27627362D01*
X28456729Y27536861D01*
X28474992Y27443995D01*
X28531584Y27362112D01*
X28593679Y27316831D01*
X28680150Y27278119D01*
X28764750Y27256772D01*
X28790900Y27255457D01*
X28829160Y27264007D01*
X28894014Y27284203D01*
X28917900Y27292461D01*
X29023324Y27346621D01*
X29085049Y27422000D01*
X29107998Y27525098D01*
X29108400Y27544030D01*
X29094105Y27631313D01*
X29057138Y27724711D01*
X29006379Y27808022D01*
X28950706Y27865047D01*
X28925239Y27878202D01*
X28881013Y27873709D01*
G36*
X28685831Y28746385D02*
X28624838Y28722414D01*
X28586546Y28690455D01*
X28535398Y28605957D01*
X28522382Y28502165D01*
X28545703Y28391189D01*
X28603563Y28285142D01*
X28655137Y28227967D01*
X28714700Y28173034D01*
X28832917Y28233568D01*
X28954382Y28312606D01*
X29028197Y28402308D01*
X29056993Y28506091D01*
X29057600Y28525368D01*
X29035373Y28624284D01*
X28972226Y28697856D01*
X28873462Y28741816D01*
X28775097Y28752800D01*
X28685831Y28746385D01*
X28685831Y28746385D01*
G37*
X28685831Y28746385D02*
X28624838Y28722414D01*
X28586546Y28690455D01*
X28535398Y28605957D01*
X28522382Y28502165D01*
X28545703Y28391189D01*
X28603563Y28285142D01*
X28655137Y28227967D01*
X28714700Y28173034D01*
X28832917Y28233568D01*
X28954382Y28312606D01*
X29028197Y28402308D01*
X29056993Y28506091D01*
X29057600Y28525368D01*
X29035373Y28624284D01*
X28972226Y28697856D01*
X28873462Y28741816D01*
X28775097Y28752800D01*
X28685831Y28746385D01*
G36*
X34163000Y33087291D02*
X34161995Y32831744D01*
X34159022Y32618553D01*
X34154143Y32449624D01*
X34147422Y32326860D01*
X34138921Y32252166D01*
X34134847Y32235619D01*
X34080646Y32153258D01*
X33989569Y32100060D01*
X33868993Y32080240D01*
X33862887Y32080200D01*
X33749972Y32102895D01*
X33662753Y32167577D01*
X33607872Y32269143D01*
X33605217Y32278206D01*
X33597928Y32330187D01*
X33591539Y32426672D01*
X33586249Y32561373D01*
X33582255Y32727999D01*
X33579754Y32920260D01*
X33578942Y33115250D01*
X33578800Y33858200D01*
X33172400Y33858200D01*
X33172400Y33062711D01*
X33172843Y32827392D01*
X33174337Y32637024D01*
X33177131Y32485764D01*
X33181472Y32367767D01*
X33187611Y32277192D01*
X33195795Y32208194D01*
X33206273Y32154930D01*
X33211900Y32134211D01*
X33281076Y31986761D01*
X33388982Y31867165D01*
X33527569Y31783473D01*
X33582011Y31764100D01*
X33709313Y31739381D01*
X33862403Y31728806D01*
X34018191Y31732678D01*
X34153586Y31751302D01*
X34174239Y31756305D01*
X34266329Y31799655D01*
X34364337Y31875868D01*
X34454186Y31971107D01*
X34521800Y32071534D01*
X34542498Y32118300D01*
X34553399Y32163075D01*
X34562512Y32232590D01*
X34570063Y32331382D01*
X34576276Y32463984D01*
X34581378Y32634931D01*
X34585594Y32848756D01*
X34588298Y33039050D01*
X34598536Y33858200D01*
X34163000Y33858200D01*
X34163000Y33087291D01*
X34163000Y33087291D01*
G37*
X34163000Y33087291D02*
X34161995Y32831744D01*
X34159022Y32618553D01*
X34154143Y32449624D01*
X34147422Y32326860D01*
X34138921Y32252166D01*
X34134847Y32235619D01*
X34080646Y32153258D01*
X33989569Y32100060D01*
X33868993Y32080240D01*
X33862887Y32080200D01*
X33749972Y32102895D01*
X33662753Y32167577D01*
X33607872Y32269143D01*
X33605217Y32278206D01*
X33597928Y32330187D01*
X33591539Y32426672D01*
X33586249Y32561373D01*
X33582255Y32727999D01*
X33579754Y32920260D01*
X33578942Y33115250D01*
X33578800Y33858200D01*
X33172400Y33858200D01*
X33172400Y33062711D01*
X33172843Y32827392D01*
X33174337Y32637024D01*
X33177131Y32485764D01*
X33181472Y32367767D01*
X33187611Y32277192D01*
X33195795Y32208194D01*
X33206273Y32154930D01*
X33211900Y32134211D01*
X33281076Y31986761D01*
X33388982Y31867165D01*
X33527569Y31783473D01*
X33582011Y31764100D01*
X33709313Y31739381D01*
X33862403Y31728806D01*
X34018191Y31732678D01*
X34153586Y31751302D01*
X34174239Y31756305D01*
X34266329Y31799655D01*
X34364337Y31875868D01*
X34454186Y31971107D01*
X34521800Y32071534D01*
X34542498Y32118300D01*
X34553399Y32163075D01*
X34562512Y32232590D01*
X34570063Y32331382D01*
X34576276Y32463984D01*
X34581378Y32634931D01*
X34585594Y32848756D01*
X34588298Y33039050D01*
X34598536Y33858200D01*
X34163000Y33858200D01*
X34163000Y33087291D01*
G36*
X28651200Y32805296D02*
X28649652Y32583313D01*
X28645028Y32409848D01*
X28637360Y32285549D01*
X28626678Y32211060D01*
X28621617Y32195462D01*
X28568299Y32129568D01*
X28482203Y32096703D01*
X28361368Y32096651D01*
X28203836Y32129195D01*
X28154017Y32143770D01*
X28125144Y32147977D01*
X28106186Y32132092D01*
X28092008Y32086183D01*
X28077475Y32000319D01*
X28076503Y31993838D01*
X28051673Y31827686D01*
X28154587Y31786239D01*
X28261986Y31756130D01*
X28393708Y31738018D01*
X28530920Y31732750D01*
X28654790Y31741171D01*
X28736614Y31760127D01*
X28832397Y31804233D01*
X28908145Y31860962D01*
X28966347Y31936446D01*
X29009493Y32036818D01*
X29040070Y32168209D01*
X29060568Y32336752D01*
X29073475Y32548578D01*
X29075287Y32594550D01*
X29090930Y33020000D01*
X29514800Y33020000D01*
X29514800Y33350200D01*
X28651200Y33350200D01*
X28651200Y32805296D01*
X28651200Y32805296D01*
G37*
X28651200Y32805296D02*
X28649652Y32583313D01*
X28645028Y32409848D01*
X28637360Y32285549D01*
X28626678Y32211060D01*
X28621617Y32195462D01*
X28568299Y32129568D01*
X28482203Y32096703D01*
X28361368Y32096651D01*
X28203836Y32129195D01*
X28154017Y32143770D01*
X28125144Y32147977D01*
X28106186Y32132092D01*
X28092008Y32086183D01*
X28077475Y32000319D01*
X28076503Y31993838D01*
X28051673Y31827686D01*
X28154587Y31786239D01*
X28261986Y31756130D01*
X28393708Y31738018D01*
X28530920Y31732750D01*
X28654790Y31741171D01*
X28736614Y31760127D01*
X28832397Y31804233D01*
X28908145Y31860962D01*
X28966347Y31936446D01*
X29009493Y32036818D01*
X29040070Y32168209D01*
X29060568Y32336752D01*
X29073475Y32548578D01*
X29075287Y32594550D01*
X29090930Y33020000D01*
X29514800Y33020000D01*
X29514800Y33350200D01*
X28651200Y33350200D01*
X28651200Y32805296D01*
G36*
X32359600Y32105600D02*
X31470600Y32105600D01*
X31470600Y31775400D01*
X32791400Y31775400D01*
X32791400Y33858200D01*
X32359600Y33858200D01*
X32359600Y32105600D01*
X32359600Y32105600D01*
G37*
X32359600Y32105600D02*
X31470600Y32105600D01*
X31470600Y31775400D01*
X32791400Y31775400D01*
X32791400Y33858200D01*
X32359600Y33858200D01*
X32359600Y32105600D01*
G36*
X29723190Y33686750D02*
X29730700Y33515300D01*
X30276800Y33500882D01*
X30276800Y31775400D01*
X30683200Y31775400D01*
X30683200Y33502600D01*
X31242000Y33502600D01*
X31242000Y33858200D01*
X30478840Y33858201D01*
X29715679Y33858201D01*
X29723190Y33686750D01*
X29723190Y33686750D01*
G37*
X29723190Y33686750D02*
X29730700Y33515300D01*
X30276800Y33500882D01*
X30276800Y31775400D01*
X30683200Y31775400D01*
X30683200Y33502600D01*
X31242000Y33502600D01*
X31242000Y33858200D01*
X30478840Y33858201D01*
X29715679Y33858201D01*
X29723190Y33686750D01*
G36*
X26524299Y33856474D02*
X26470365Y33849540D01*
X26446153Y33834764D01*
X26441089Y33813750D01*
X26438873Y33774343D01*
X26432946Y33693873D01*
X26424059Y33581882D01*
X26412962Y33447911D01*
X26404629Y33350200D01*
X26390413Y33173575D01*
X26376555Y32980542D01*
X26364424Y32791529D01*
X26355387Y32626962D01*
X26353604Y32588200D01*
X26346550Y32433782D01*
X26338552Y32271602D01*
X26330625Y32121617D01*
X26324193Y32010350D01*
X26309660Y31775400D01*
X26694656Y31775400D01*
X26701378Y32542506D01*
X26708100Y33309611D01*
X26936700Y32512099D01*
X27092151Y32512050D01*
X27247602Y32512000D01*
X27470100Y33312100D01*
X27476823Y32543750D01*
X27483545Y31775400D01*
X27866877Y31775400D01*
X27853187Y31946850D01*
X27847198Y32036002D01*
X27840311Y32161027D01*
X27833278Y32307027D01*
X27826850Y32459102D01*
X27825314Y32499300D01*
X27817458Y32686653D01*
X27807554Y32886298D01*
X27796240Y33088162D01*
X27784151Y33282174D01*
X27771923Y33458262D01*
X27760193Y33606355D01*
X27749596Y33716380D01*
X27747100Y33737550D01*
X27732034Y33858200D01*
X27390356Y33858200D01*
X27094624Y32931100D01*
X26945071Y33394650D01*
X26795518Y33858201D01*
X26618459Y33858201D01*
X26524299Y33856474D01*
X26524299Y33856474D01*
G37*
X26524299Y33856474D02*
X26470365Y33849540D01*
X26446153Y33834764D01*
X26441089Y33813750D01*
X26438873Y33774343D01*
X26432946Y33693873D01*
X26424059Y33581882D01*
X26412962Y33447911D01*
X26404629Y33350200D01*
X26390413Y33173575D01*
X26376555Y32980542D01*
X26364424Y32791529D01*
X26355387Y32626962D01*
X26353604Y32588200D01*
X26346550Y32433782D01*
X26338552Y32271602D01*
X26330625Y32121617D01*
X26324193Y32010350D01*
X26309660Y31775400D01*
X26694656Y31775400D01*
X26701378Y32542506D01*
X26708100Y33309611D01*
X26936700Y32512099D01*
X27092151Y32512050D01*
X27247602Y32512000D01*
X27470100Y33312100D01*
X27476823Y32543750D01*
X27483545Y31775400D01*
X27866877Y31775400D01*
X27853187Y31946850D01*
X27847198Y32036002D01*
X27840311Y32161027D01*
X27833278Y32307027D01*
X27826850Y32459102D01*
X27825314Y32499300D01*
X27817458Y32686653D01*
X27807554Y32886298D01*
X27796240Y33088162D01*
X27784151Y33282174D01*
X27771923Y33458262D01*
X27760193Y33606355D01*
X27749596Y33716380D01*
X27747100Y33737550D01*
X27732034Y33858200D01*
X27390356Y33858200D01*
X27094624Y32931100D01*
X26945071Y33394650D01*
X26795518Y33858201D01*
X26618459Y33858201D01*
X26524299Y33856474D01*
G36*
X28808673Y34043944D02*
X28735560Y33982966D01*
X28688224Y33900631D01*
X28672338Y33806499D01*
X28693576Y33710130D01*
X28750847Y33627647D01*
X28844156Y33566401D01*
X28948527Y33551435D01*
X29053533Y33582998D01*
X29106452Y33619158D01*
X29156490Y33669564D01*
X29179247Y33723649D01*
X29184600Y33804007D01*
X29169723Y33920758D01*
X29122101Y34001943D01*
X29037252Y34054207D01*
X29009536Y34063582D01*
X28901889Y34074002D01*
X28808673Y34043944D01*
X28808673Y34043944D01*
G37*
X28808673Y34043944D02*
X28735560Y33982966D01*
X28688224Y33900631D01*
X28672338Y33806499D01*
X28693576Y33710130D01*
X28750847Y33627647D01*
X28844156Y33566401D01*
X28948527Y33551435D01*
X29053533Y33582998D01*
X29106452Y33619158D01*
X29156490Y33669564D01*
X29179247Y33723649D01*
X29184600Y33804007D01*
X29169723Y33920758D01*
X29122101Y34001943D01*
X29037252Y34054207D01*
X29009536Y34063582D01*
X28901889Y34074002D01*
X28808673Y34043944D01*
D14*
G36*
X32504380Y53896260D02*
X32468820Y53916580D01*
X32390080Y53964840D01*
X32278320Y54038500D01*
X32146240Y54124860D01*
X32014160Y54216300D01*
X31904940Y54287420D01*
X31828740Y54338220D01*
X31798260Y54356000D01*
X31780480Y54348380D01*
X31716980Y54317900D01*
X31628080Y54272180D01*
X31574740Y54244240D01*
X31490920Y54208680D01*
X31447740Y54201060D01*
X31442660Y54211220D01*
X31412180Y54274720D01*
X31363920Y54383940D01*
X31300420Y54528720D01*
X31226760Y54698900D01*
X31150560Y54881780D01*
X31071820Y55067200D01*
X30998160Y55245000D01*
X30934660Y55405020D01*
X30881320Y55537100D01*
X30845760Y55626000D01*
X30833060Y55664100D01*
X30838140Y55674260D01*
X30878780Y55714900D01*
X30952440Y55768240D01*
X31109920Y55897780D01*
X31267400Y56090820D01*
X31361380Y56311800D01*
X31394400Y56558180D01*
X31366460Y56786780D01*
X31277560Y57005220D01*
X31125160Y57200800D01*
X30939740Y57348120D01*
X30723840Y57439560D01*
X30480000Y57470040D01*
X30248860Y57444640D01*
X30025340Y57355740D01*
X29827220Y57205880D01*
X29743400Y57109360D01*
X29629100Y56911240D01*
X29565600Y56697880D01*
X29557980Y56642000D01*
X29568140Y56408320D01*
X29636720Y56184800D01*
X29761180Y55984140D01*
X29931360Y55819040D01*
X29954220Y55803800D01*
X30032960Y55742840D01*
X30086300Y55702200D01*
X30129480Y55669180D01*
X29829760Y54950360D01*
X29781500Y54836060D01*
X29700220Y54637940D01*
X29629100Y54470300D01*
X29570680Y54335680D01*
X29530040Y54244240D01*
X29512260Y54208680D01*
X29512260Y54206140D01*
X29484320Y54201060D01*
X29430980Y54221380D01*
X29329380Y54269640D01*
X29263340Y54305200D01*
X29187140Y54340760D01*
X29151580Y54356000D01*
X29123640Y54338220D01*
X29049980Y54292500D01*
X28943300Y54221380D01*
X28813760Y54132480D01*
X28691840Y54048660D01*
X28580080Y53975000D01*
X28498800Y53921660D01*
X28458160Y53901340D01*
X28453080Y53901340D01*
X28417520Y53921660D01*
X28351480Y53975000D01*
X28254960Y54066440D01*
X28115260Y54203600D01*
X28094940Y54226460D01*
X27980640Y54340760D01*
X27889200Y54437280D01*
X27825700Y54508400D01*
X27802840Y54538880D01*
X27802840Y54538880D01*
X27823160Y54576980D01*
X27876500Y54660800D01*
X27950160Y54775100D01*
X28041600Y54907180D01*
X28280360Y55252620D01*
X28148280Y55580280D01*
X28107640Y55679340D01*
X28056840Y55801260D01*
X28018740Y55887620D01*
X28000960Y55925720D01*
X27965400Y55938420D01*
X27876500Y55958740D01*
X27746960Y55986680D01*
X27592020Y56014620D01*
X27444700Y56042560D01*
X27312620Y56067960D01*
X27216100Y56085740D01*
X27172920Y56093360D01*
X27162760Y56100980D01*
X27152600Y56121300D01*
X27147520Y56167020D01*
X27144980Y56248300D01*
X27142440Y56375300D01*
X27142440Y56558180D01*
X27142440Y56578500D01*
X27144980Y56753760D01*
X27147520Y56893460D01*
X27152600Y56984900D01*
X27157680Y57020460D01*
X27157680Y57020460D01*
X27200860Y57030620D01*
X27294840Y57050940D01*
X27426920Y57076340D01*
X27584400Y57106820D01*
X27594560Y57109360D01*
X27752040Y57139840D01*
X27886660Y57167780D01*
X27978100Y57188100D01*
X28016200Y57200800D01*
X28026360Y57210960D01*
X28056840Y57274460D01*
X28102560Y57370980D01*
X28155900Y57490360D01*
X28206700Y57614820D01*
X28249880Y57726580D01*
X28280360Y57810400D01*
X28290520Y57848500D01*
X28290520Y57848500D01*
X28265120Y57886600D01*
X28211780Y57967880D01*
X28135580Y58082180D01*
X28041600Y58216800D01*
X28036520Y58226960D01*
X27945080Y58359040D01*
X27871420Y58473340D01*
X27823160Y58554620D01*
X27802840Y58590180D01*
X27805380Y58592720D01*
X27833320Y58630820D01*
X27901900Y58707020D01*
X27998420Y58808620D01*
X28115260Y58928000D01*
X28153360Y58963560D01*
X28282900Y59090560D01*
X28374340Y59174380D01*
X28430220Y59217560D01*
X28455620Y59227720D01*
X28458160Y59227720D01*
X28498800Y59202320D01*
X28582620Y59146440D01*
X28696920Y59070240D01*
X28831540Y58978800D01*
X28841700Y58971180D01*
X28973780Y58879740D01*
X29085540Y58806080D01*
X29164280Y58752740D01*
X29199840Y58732420D01*
X29204920Y58732420D01*
X29260800Y58747660D01*
X29354780Y58780680D01*
X29471620Y58826400D01*
X29596080Y58877200D01*
X29707840Y58922920D01*
X29791660Y58961020D01*
X29829760Y58983880D01*
X29832300Y58986420D01*
X29845000Y59034680D01*
X29867860Y59133740D01*
X29898340Y59270900D01*
X29928820Y59436000D01*
X29933900Y59461400D01*
X29964380Y59621420D01*
X29989780Y59750960D01*
X30007560Y59842400D01*
X30017720Y59880500D01*
X30040580Y59885580D01*
X30116780Y59890660D01*
X30236160Y59893200D01*
X30378400Y59895740D01*
X30530800Y59895740D01*
X30678120Y59890660D01*
X30802580Y59888120D01*
X30894020Y59880500D01*
X30932120Y59872880D01*
X30932120Y59870340D01*
X30947360Y59822080D01*
X30967680Y59723020D01*
X30995620Y59583320D01*
X31028640Y59420760D01*
X31033720Y59390280D01*
X31064200Y59232800D01*
X31089600Y59103260D01*
X31109920Y59011820D01*
X31120080Y58976260D01*
X31132780Y58968640D01*
X31198820Y58940700D01*
X31305500Y58897520D01*
X31437580Y58844180D01*
X31742380Y58719720D01*
X32118300Y58976260D01*
X32151320Y58999120D01*
X32285940Y59093100D01*
X32397700Y59166760D01*
X32473900Y59215020D01*
X32506920Y59232800D01*
X32509460Y59232800D01*
X32547560Y59199780D01*
X32621220Y59131200D01*
X32722820Y59032140D01*
X32839660Y58912760D01*
X32928560Y58826400D01*
X33030160Y58722260D01*
X33096200Y58651140D01*
X33131760Y58605420D01*
X33144460Y58577480D01*
X33141920Y58559700D01*
X33116520Y58521600D01*
X33063180Y58437780D01*
X32984440Y58326020D01*
X32893000Y58191400D01*
X32819340Y58082180D01*
X32738060Y57955180D01*
X32684720Y57866280D01*
X32666940Y57823100D01*
X32672020Y57802780D01*
X32697420Y57731660D01*
X32740600Y57619900D01*
X32799020Y57487820D01*
X32928560Y57190640D01*
X33121600Y57152540D01*
X33240980Y57132220D01*
X33406080Y57099200D01*
X33563560Y57068720D01*
X33809940Y57020460D01*
X33817560Y56116220D01*
X33779460Y56100980D01*
X33743900Y56090820D01*
X33652460Y56070500D01*
X33522920Y56045100D01*
X33367980Y56017160D01*
X33238440Y55991760D01*
X33106360Y55966360D01*
X33009840Y55948580D01*
X32969200Y55938420D01*
X32959040Y55925720D01*
X32926020Y55862220D01*
X32877760Y55760620D01*
X32826960Y55638700D01*
X32773620Y55511700D01*
X32727900Y55394860D01*
X32694880Y55305960D01*
X32682180Y55257700D01*
X32699960Y55224680D01*
X32750760Y55145940D01*
X32821880Y55036720D01*
X32913320Y54904640D01*
X33002220Y54775100D01*
X33078420Y54660800D01*
X33129220Y54582060D01*
X33152080Y54543960D01*
X33141920Y54518560D01*
X33088580Y54455060D01*
X32989520Y54353460D01*
X32842200Y54208680D01*
X32819340Y54185820D01*
X32702500Y54071520D01*
X32603440Y53980080D01*
X32534860Y53919120D01*
X32504380Y53896260D01*
X32504380Y53896260D01*
G37*
X32504380Y53896260D02*
X32468820Y53916580D01*
X32390080Y53964840D01*
X32278320Y54038500D01*
X32146240Y54124860D01*
X32014160Y54216300D01*
X31904940Y54287420D01*
X31828740Y54338220D01*
X31798260Y54356000D01*
X31780480Y54348380D01*
X31716980Y54317900D01*
X31628080Y54272180D01*
X31574740Y54244240D01*
X31490920Y54208680D01*
X31447740Y54201060D01*
X31442660Y54211220D01*
X31412180Y54274720D01*
X31363920Y54383940D01*
X31300420Y54528720D01*
X31226760Y54698900D01*
X31150560Y54881780D01*
X31071820Y55067200D01*
X30998160Y55245000D01*
X30934660Y55405020D01*
X30881320Y55537100D01*
X30845760Y55626000D01*
X30833060Y55664100D01*
X30838140Y55674260D01*
X30878780Y55714900D01*
X30952440Y55768240D01*
X31109920Y55897780D01*
X31267400Y56090820D01*
X31361380Y56311800D01*
X31394400Y56558180D01*
X31366460Y56786780D01*
X31277560Y57005220D01*
X31125160Y57200800D01*
X30939740Y57348120D01*
X30723840Y57439560D01*
X30480000Y57470040D01*
X30248860Y57444640D01*
X30025340Y57355740D01*
X29827220Y57205880D01*
X29743400Y57109360D01*
X29629100Y56911240D01*
X29565600Y56697880D01*
X29557980Y56642000D01*
X29568140Y56408320D01*
X29636720Y56184800D01*
X29761180Y55984140D01*
X29931360Y55819040D01*
X29954220Y55803800D01*
X30032960Y55742840D01*
X30086300Y55702200D01*
X30129480Y55669180D01*
X29829760Y54950360D01*
X29781500Y54836060D01*
X29700220Y54637940D01*
X29629100Y54470300D01*
X29570680Y54335680D01*
X29530040Y54244240D01*
X29512260Y54208680D01*
X29512260Y54206140D01*
X29484320Y54201060D01*
X29430980Y54221380D01*
X29329380Y54269640D01*
X29263340Y54305200D01*
X29187140Y54340760D01*
X29151580Y54356000D01*
X29123640Y54338220D01*
X29049980Y54292500D01*
X28943300Y54221380D01*
X28813760Y54132480D01*
X28691840Y54048660D01*
X28580080Y53975000D01*
X28498800Y53921660D01*
X28458160Y53901340D01*
X28453080Y53901340D01*
X28417520Y53921660D01*
X28351480Y53975000D01*
X28254960Y54066440D01*
X28115260Y54203600D01*
X28094940Y54226460D01*
X27980640Y54340760D01*
X27889200Y54437280D01*
X27825700Y54508400D01*
X27802840Y54538880D01*
X27802840Y54538880D01*
X27823160Y54576980D01*
X27876500Y54660800D01*
X27950160Y54775100D01*
X28041600Y54907180D01*
X28280360Y55252620D01*
X28148280Y55580280D01*
X28107640Y55679340D01*
X28056840Y55801260D01*
X28018740Y55887620D01*
X28000960Y55925720D01*
X27965400Y55938420D01*
X27876500Y55958740D01*
X27746960Y55986680D01*
X27592020Y56014620D01*
X27444700Y56042560D01*
X27312620Y56067960D01*
X27216100Y56085740D01*
X27172920Y56093360D01*
X27162760Y56100980D01*
X27152600Y56121300D01*
X27147520Y56167020D01*
X27144980Y56248300D01*
X27142440Y56375300D01*
X27142440Y56558180D01*
X27142440Y56578500D01*
X27144980Y56753760D01*
X27147520Y56893460D01*
X27152600Y56984900D01*
X27157680Y57020460D01*
X27157680Y57020460D01*
X27200860Y57030620D01*
X27294840Y57050940D01*
X27426920Y57076340D01*
X27584400Y57106820D01*
X27594560Y57109360D01*
X27752040Y57139840D01*
X27886660Y57167780D01*
X27978100Y57188100D01*
X28016200Y57200800D01*
X28026360Y57210960D01*
X28056840Y57274460D01*
X28102560Y57370980D01*
X28155900Y57490360D01*
X28206700Y57614820D01*
X28249880Y57726580D01*
X28280360Y57810400D01*
X28290520Y57848500D01*
X28290520Y57848500D01*
X28265120Y57886600D01*
X28211780Y57967880D01*
X28135580Y58082180D01*
X28041600Y58216800D01*
X28036520Y58226960D01*
X27945080Y58359040D01*
X27871420Y58473340D01*
X27823160Y58554620D01*
X27802840Y58590180D01*
X27805380Y58592720D01*
X27833320Y58630820D01*
X27901900Y58707020D01*
X27998420Y58808620D01*
X28115260Y58928000D01*
X28153360Y58963560D01*
X28282900Y59090560D01*
X28374340Y59174380D01*
X28430220Y59217560D01*
X28455620Y59227720D01*
X28458160Y59227720D01*
X28498800Y59202320D01*
X28582620Y59146440D01*
X28696920Y59070240D01*
X28831540Y58978800D01*
X28841700Y58971180D01*
X28973780Y58879740D01*
X29085540Y58806080D01*
X29164280Y58752740D01*
X29199840Y58732420D01*
X29204920Y58732420D01*
X29260800Y58747660D01*
X29354780Y58780680D01*
X29471620Y58826400D01*
X29596080Y58877200D01*
X29707840Y58922920D01*
X29791660Y58961020D01*
X29829760Y58983880D01*
X29832300Y58986420D01*
X29845000Y59034680D01*
X29867860Y59133740D01*
X29898340Y59270900D01*
X29928820Y59436000D01*
X29933900Y59461400D01*
X29964380Y59621420D01*
X29989780Y59750960D01*
X30007560Y59842400D01*
X30017720Y59880500D01*
X30040580Y59885580D01*
X30116780Y59890660D01*
X30236160Y59893200D01*
X30378400Y59895740D01*
X30530800Y59895740D01*
X30678120Y59890660D01*
X30802580Y59888120D01*
X30894020Y59880500D01*
X30932120Y59872880D01*
X30932120Y59870340D01*
X30947360Y59822080D01*
X30967680Y59723020D01*
X30995620Y59583320D01*
X31028640Y59420760D01*
X31033720Y59390280D01*
X31064200Y59232800D01*
X31089600Y59103260D01*
X31109920Y59011820D01*
X31120080Y58976260D01*
X31132780Y58968640D01*
X31198820Y58940700D01*
X31305500Y58897520D01*
X31437580Y58844180D01*
X31742380Y58719720D01*
X32118300Y58976260D01*
X32151320Y58999120D01*
X32285940Y59093100D01*
X32397700Y59166760D01*
X32473900Y59215020D01*
X32506920Y59232800D01*
X32509460Y59232800D01*
X32547560Y59199780D01*
X32621220Y59131200D01*
X32722820Y59032140D01*
X32839660Y58912760D01*
X32928560Y58826400D01*
X33030160Y58722260D01*
X33096200Y58651140D01*
X33131760Y58605420D01*
X33144460Y58577480D01*
X33141920Y58559700D01*
X33116520Y58521600D01*
X33063180Y58437780D01*
X32984440Y58326020D01*
X32893000Y58191400D01*
X32819340Y58082180D01*
X32738060Y57955180D01*
X32684720Y57866280D01*
X32666940Y57823100D01*
X32672020Y57802780D01*
X32697420Y57731660D01*
X32740600Y57619900D01*
X32799020Y57487820D01*
X32928560Y57190640D01*
X33121600Y57152540D01*
X33240980Y57132220D01*
X33406080Y57099200D01*
X33563560Y57068720D01*
X33809940Y57020460D01*
X33817560Y56116220D01*
X33779460Y56100980D01*
X33743900Y56090820D01*
X33652460Y56070500D01*
X33522920Y56045100D01*
X33367980Y56017160D01*
X33238440Y55991760D01*
X33106360Y55966360D01*
X33009840Y55948580D01*
X32969200Y55938420D01*
X32959040Y55925720D01*
X32926020Y55862220D01*
X32877760Y55760620D01*
X32826960Y55638700D01*
X32773620Y55511700D01*
X32727900Y55394860D01*
X32694880Y55305960D01*
X32682180Y55257700D01*
X32699960Y55224680D01*
X32750760Y55145940D01*
X32821880Y55036720D01*
X32913320Y54904640D01*
X33002220Y54775100D01*
X33078420Y54660800D01*
X33129220Y54582060D01*
X33152080Y54543960D01*
X33141920Y54518560D01*
X33088580Y54455060D01*
X32989520Y54353460D01*
X32842200Y54208680D01*
X32819340Y54185820D01*
X32702500Y54071520D01*
X32603440Y53980080D01*
X32534860Y53919120D01*
X32504380Y53896260D01*
D13*
G36*
X49942750Y44687183D02*
X49720500Y44657492D01*
X49595333Y44644224D01*
X49401075Y44630185D01*
X49153290Y44616189D01*
X48867539Y44603050D01*
X48559385Y44591583D01*
X48331422Y44584794D01*
X47238677Y44555833D01*
X46997922Y44315747D01*
X46852461Y44172396D01*
X46676673Y44001636D01*
X46502003Y43833958D01*
X46452164Y43786580D01*
X46147161Y43497500D01*
X46118106Y42807706D01*
X46107700Y42551138D01*
X46102462Y42361880D01*
X46103965Y42222653D01*
X46113778Y42116177D01*
X46133473Y42025174D01*
X46164622Y41932363D01*
X46207590Y41823456D01*
X46259090Y41696391D01*
X46304099Y41609740D01*
X46358544Y41557773D01*
X46438356Y41534758D01*
X46559463Y41534964D01*
X46737795Y41552658D01*
X46905334Y41572395D01*
X47087027Y41598182D01*
X47267528Y41630912D01*
X47371000Y41654347D01*
X47530606Y41695910D01*
X47688677Y41736976D01*
X47721612Y41745515D01*
X47851098Y41804364D01*
X48016398Y41918513D01*
X48165242Y42043933D01*
X48176690Y42053658D01*
X47736474Y42053658D01*
X47734810Y42048032D01*
X47674981Y42020666D01*
X47552367Y41984529D01*
X47387810Y41944089D01*
X47202149Y41903816D01*
X47016224Y41868179D01*
X46850877Y41841647D01*
X46726947Y41828690D01*
X46709386Y41828126D01*
X46579607Y41830338D01*
X46506694Y41850360D01*
X46462952Y41901810D01*
X46435229Y41962917D01*
X46381836Y42136199D01*
X46381846Y42291369D01*
X46439988Y42449537D01*
X46560992Y42631813D01*
X46594787Y42675073D01*
X46713076Y42816521D01*
X46801866Y42901415D01*
X46878615Y42943652D01*
X46948279Y42956454D01*
X47083599Y42950014D01*
X47178784Y42916234D01*
X47217561Y42863972D01*
X47200756Y42819069D01*
X47171473Y42743650D01*
X47217441Y42691507D01*
X47330394Y42672000D01*
X47330633Y42672000D01*
X47397062Y42664403D01*
X47450980Y42631212D01*
X47506676Y42556827D01*
X47578436Y42425648D01*
X47606019Y42371328D01*
X47674099Y42228268D01*
X47720172Y42115881D01*
X47736474Y42053658D01*
X48176690Y42053658D01*
X48340500Y42192803D01*
X48548645Y42355062D01*
X48750188Y42500168D01*
X48788297Y42525815D01*
X49013229Y42690215D01*
X49253440Y42897166D01*
X49414634Y43054421D01*
X48989715Y43054421D01*
X48959911Y43012285D01*
X48952825Y43004396D01*
X48889542Y42947873D01*
X48774312Y42856824D01*
X48624819Y42744885D01*
X48493910Y42650500D01*
X48322638Y42525400D01*
X48164990Y42403672D01*
X48041601Y42301600D01*
X47985168Y42249016D01*
X47898403Y42169228D01*
X47830137Y42124889D01*
X47816666Y42121667D01*
X47776419Y42156960D01*
X47714003Y42249890D01*
X47642323Y42381030D01*
X47636181Y42393388D01*
X47567684Y42538864D01*
X47536230Y42629166D01*
X47537600Y42683052D01*
X47563595Y42716072D01*
X47616196Y42787751D01*
X47617554Y42793457D01*
X47492960Y42793457D01*
X47460884Y42759142D01*
X47454481Y42755038D01*
X47369024Y42717369D01*
X47316682Y42742933D01*
X47309308Y42753742D01*
X47311151Y42804138D01*
X47367755Y42831154D01*
X47445925Y42821641D01*
X47492960Y42793457D01*
X47617554Y42793457D01*
X47625000Y42824741D01*
X47661630Y42876460D01*
X47756622Y42942893D01*
X47887630Y43013166D01*
X48032311Y43076406D01*
X48168317Y43121739D01*
X48269377Y43138315D01*
X48383673Y43149268D01*
X48464587Y43174724D01*
X48464944Y43174949D01*
X48538315Y43185288D01*
X48667741Y43170423D01*
X48773364Y43147545D01*
X48909909Y43111308D01*
X48977537Y43083848D01*
X48989715Y43054421D01*
X49414634Y43054421D01*
X49517733Y43155000D01*
X49814910Y43472045D01*
X49962083Y43636672D01*
X50139312Y43865272D01*
X50195253Y43969642D01*
X49851225Y43969642D01*
X49847311Y43939600D01*
X49840020Y43925626D01*
X49784488Y43850687D01*
X49686836Y43741183D01*
X49561480Y43611047D01*
X49422837Y43474209D01*
X49285321Y43344603D01*
X49163348Y43236161D01*
X49071335Y43162814D01*
X49025376Y43138309D01*
X48944121Y43150530D01*
X48823698Y43180201D01*
X48785823Y43191226D01*
X48659985Y43240310D01*
X48618061Y43264667D01*
X48429334Y43264667D01*
X48393106Y43232844D01*
X48323500Y43222333D01*
X48243943Y43236825D01*
X48217667Y43264667D01*
X48253895Y43296490D01*
X48323500Y43307000D01*
X48403058Y43292509D01*
X48429334Y43264667D01*
X48618061Y43264667D01*
X48561848Y43297325D01*
X48545540Y43311426D01*
X48516925Y43350197D01*
X48519871Y43393363D01*
X48563077Y43456279D01*
X48655244Y43554300D01*
X48719445Y43618343D01*
X48880754Y43764030D01*
X49002488Y43841601D01*
X49067678Y43857333D01*
X49165444Y43872498D01*
X49215540Y43898473D01*
X49275503Y43922253D01*
X49395312Y43946674D01*
X49550329Y43966843D01*
X49568481Y43968592D01*
X49691095Y43978791D01*
X49143960Y43978791D01*
X49111884Y43944476D01*
X49105481Y43940371D01*
X49017111Y43904334D01*
X48952606Y43910826D01*
X48937334Y43939502D01*
X48971719Y43999286D01*
X49052201Y44017286D01*
X49096925Y44006974D01*
X49143960Y43978791D01*
X49691095Y43978791D01*
X49726825Y43981763D01*
X49816068Y43982905D01*
X49851225Y43969642D01*
X50195253Y43969642D01*
X50266116Y44101852D01*
X50311234Y44215637D01*
X50370135Y44395898D01*
X50063881Y44395898D01*
X50062935Y44345704D01*
X50029878Y44250404D01*
X50010891Y44208999D01*
X49967169Y44126030D01*
X49921648Y44075977D01*
X49851729Y44047860D01*
X49734814Y44030700D01*
X49622232Y44020160D01*
X49411353Y44010067D01*
X49268142Y44024862D01*
X49208465Y44046355D01*
X49070806Y44079663D01*
X48968067Y44071956D01*
X48871486Y44039103D01*
X48834947Y43979440D01*
X48831500Y43931213D01*
X48801434Y43841628D01*
X48723967Y43724433D01*
X48618198Y43600295D01*
X48503224Y43489879D01*
X48398145Y43413852D01*
X48332892Y43391667D01*
X48225796Y43371601D01*
X48140209Y43322992D01*
X48102920Y43263225D01*
X48105698Y43244224D01*
X48083308Y43194828D01*
X48000581Y43128458D01*
X47877389Y43055264D01*
X47733598Y42985398D01*
X47589079Y42929010D01*
X47463699Y42896250D01*
X47416055Y42891898D01*
X47299728Y42903323D01*
X47217256Y42931507D01*
X47212250Y42935181D01*
X47167383Y43011424D01*
X47159334Y43062147D01*
X47159024Y43062821D01*
X47014802Y43062821D01*
X47009359Y43050075D01*
X46946855Y43013587D01*
X46870619Y43024793D01*
X46844575Y43048564D01*
X46854707Y43089934D01*
X46912032Y43119340D01*
X46979184Y43120547D01*
X46994511Y43113712D01*
X47014802Y43062821D01*
X47159024Y43062821D01*
X47122888Y43141272D01*
X47074667Y43167734D01*
X47017353Y43212446D01*
X46994278Y43275160D01*
X46949681Y43275160D01*
X46914201Y43201657D01*
X46852417Y43172361D01*
X46775957Y43134668D01*
X46743364Y43037563D01*
X46743018Y43034607D01*
X46708429Y42932559D01*
X46634764Y42803700D01*
X46573685Y42720681D01*
X46418500Y42530981D01*
X46405929Y42840946D01*
X46402492Y43000453D01*
X46405225Y43129883D01*
X46413519Y43203110D01*
X46414450Y43205876D01*
X46472105Y43268642D01*
X46580211Y43334268D01*
X46706414Y43387962D01*
X46818360Y43414930D01*
X46865408Y43412069D01*
X46934043Y43356863D01*
X46949681Y43275160D01*
X46994278Y43275160D01*
X46989879Y43287114D01*
X46996645Y43358052D01*
X47042053Y43391577D01*
X47045409Y43391667D01*
X47121610Y43415098D01*
X47181395Y43450586D01*
X47235359Y43504963D01*
X47231438Y43518667D01*
X47095834Y43518667D01*
X47036124Y43483104D01*
X46987502Y43476333D01*
X46920080Y43494543D01*
X46905334Y43518667D01*
X46941637Y43550220D01*
X47013666Y43561000D01*
X47085691Y43547562D01*
X47095834Y43518667D01*
X47231438Y43518667D01*
X47219822Y43559256D01*
X47205469Y43577586D01*
X47107414Y43636398D01*
X46980233Y43638558D01*
X46855374Y43586573D01*
X46808062Y43545905D01*
X46714639Y43464364D01*
X46602610Y43391061D01*
X46496536Y43339209D01*
X46420975Y43322020D01*
X46404021Y43328535D01*
X46423687Y43365314D01*
X46496025Y43448857D01*
X46611221Y43568796D01*
X46759461Y43714766D01*
X46861929Y43812171D01*
X47347614Y44268028D01*
X48174224Y44295601D01*
X48476120Y44307467D01*
X48791737Y44322970D01*
X49094939Y44340617D01*
X49359589Y44358917D01*
X49519490Y44372403D01*
X49720281Y44389297D01*
X49889245Y44399432D01*
X50009250Y44402070D01*
X50063163Y44396470D01*
X50063881Y44395898D01*
X50370135Y44395898D01*
X50373391Y44405860D01*
X50395916Y44544103D01*
X50371460Y44635862D01*
X50292679Y44686631D01*
X50152224Y44701907D01*
X49942750Y44687183D01*
X49942750Y44687183D01*
G37*
X49942750Y44687183D02*
X49720500Y44657492D01*
X49595333Y44644224D01*
X49401075Y44630185D01*
X49153290Y44616189D01*
X48867539Y44603050D01*
X48559385Y44591583D01*
X48331422Y44584794D01*
X47238677Y44555833D01*
X46997922Y44315747D01*
X46852461Y44172396D01*
X46676673Y44001636D01*
X46502003Y43833958D01*
X46452164Y43786580D01*
X46147161Y43497500D01*
X46118106Y42807706D01*
X46107700Y42551138D01*
X46102462Y42361880D01*
X46103965Y42222653D01*
X46113778Y42116177D01*
X46133473Y42025174D01*
X46164622Y41932363D01*
X46207590Y41823456D01*
X46259090Y41696391D01*
X46304099Y41609740D01*
X46358544Y41557773D01*
X46438356Y41534758D01*
X46559463Y41534964D01*
X46737795Y41552658D01*
X46905334Y41572395D01*
X47087027Y41598182D01*
X47267528Y41630912D01*
X47371000Y41654347D01*
X47530606Y41695910D01*
X47688677Y41736976D01*
X47721612Y41745515D01*
X47851098Y41804364D01*
X48016398Y41918513D01*
X48165242Y42043933D01*
X48176690Y42053658D01*
X47736474Y42053658D01*
X47734810Y42048032D01*
X47674981Y42020666D01*
X47552367Y41984529D01*
X47387810Y41944089D01*
X47202149Y41903816D01*
X47016224Y41868179D01*
X46850877Y41841647D01*
X46726947Y41828690D01*
X46709386Y41828126D01*
X46579607Y41830338D01*
X46506694Y41850360D01*
X46462952Y41901810D01*
X46435229Y41962917D01*
X46381836Y42136199D01*
X46381846Y42291369D01*
X46439988Y42449537D01*
X46560992Y42631813D01*
X46594787Y42675073D01*
X46713076Y42816521D01*
X46801866Y42901415D01*
X46878615Y42943652D01*
X46948279Y42956454D01*
X47083599Y42950014D01*
X47178784Y42916234D01*
X47217561Y42863972D01*
X47200756Y42819069D01*
X47171473Y42743650D01*
X47217441Y42691507D01*
X47330394Y42672000D01*
X47330633Y42672000D01*
X47397062Y42664403D01*
X47450980Y42631212D01*
X47506676Y42556827D01*
X47578436Y42425648D01*
X47606019Y42371328D01*
X47674099Y42228268D01*
X47720172Y42115881D01*
X47736474Y42053658D01*
X48176690Y42053658D01*
X48340500Y42192803D01*
X48548645Y42355062D01*
X48750188Y42500168D01*
X48788297Y42525815D01*
X49013229Y42690215D01*
X49253440Y42897166D01*
X49414634Y43054421D01*
X48989715Y43054421D01*
X48959911Y43012285D01*
X48952825Y43004396D01*
X48889542Y42947873D01*
X48774312Y42856824D01*
X48624819Y42744885D01*
X48493910Y42650500D01*
X48322638Y42525400D01*
X48164990Y42403672D01*
X48041601Y42301600D01*
X47985168Y42249016D01*
X47898403Y42169228D01*
X47830137Y42124889D01*
X47816666Y42121667D01*
X47776419Y42156960D01*
X47714003Y42249890D01*
X47642323Y42381030D01*
X47636181Y42393388D01*
X47567684Y42538864D01*
X47536230Y42629166D01*
X47537600Y42683052D01*
X47563595Y42716072D01*
X47616196Y42787751D01*
X47617554Y42793457D01*
X47492960Y42793457D01*
X47460884Y42759142D01*
X47454481Y42755038D01*
X47369024Y42717369D01*
X47316682Y42742933D01*
X47309308Y42753742D01*
X47311151Y42804138D01*
X47367755Y42831154D01*
X47445925Y42821641D01*
X47492960Y42793457D01*
X47617554Y42793457D01*
X47625000Y42824741D01*
X47661630Y42876460D01*
X47756622Y42942893D01*
X47887630Y43013166D01*
X48032311Y43076406D01*
X48168317Y43121739D01*
X48269377Y43138315D01*
X48383673Y43149268D01*
X48464587Y43174724D01*
X48464944Y43174949D01*
X48538315Y43185288D01*
X48667741Y43170423D01*
X48773364Y43147545D01*
X48909909Y43111308D01*
X48977537Y43083848D01*
X48989715Y43054421D01*
X49414634Y43054421D01*
X49517733Y43155000D01*
X49814910Y43472045D01*
X49962083Y43636672D01*
X50139312Y43865272D01*
X50195253Y43969642D01*
X49851225Y43969642D01*
X49847311Y43939600D01*
X49840020Y43925626D01*
X49784488Y43850687D01*
X49686836Y43741183D01*
X49561480Y43611047D01*
X49422837Y43474209D01*
X49285321Y43344603D01*
X49163348Y43236161D01*
X49071335Y43162814D01*
X49025376Y43138309D01*
X48944121Y43150530D01*
X48823698Y43180201D01*
X48785823Y43191226D01*
X48659985Y43240310D01*
X48618061Y43264667D01*
X48429334Y43264667D01*
X48393106Y43232844D01*
X48323500Y43222333D01*
X48243943Y43236825D01*
X48217667Y43264667D01*
X48253895Y43296490D01*
X48323500Y43307000D01*
X48403058Y43292509D01*
X48429334Y43264667D01*
X48618061Y43264667D01*
X48561848Y43297325D01*
X48545540Y43311426D01*
X48516925Y43350197D01*
X48519871Y43393363D01*
X48563077Y43456279D01*
X48655244Y43554300D01*
X48719445Y43618343D01*
X48880754Y43764030D01*
X49002488Y43841601D01*
X49067678Y43857333D01*
X49165444Y43872498D01*
X49215540Y43898473D01*
X49275503Y43922253D01*
X49395312Y43946674D01*
X49550329Y43966843D01*
X49568481Y43968592D01*
X49691095Y43978791D01*
X49143960Y43978791D01*
X49111884Y43944476D01*
X49105481Y43940371D01*
X49017111Y43904334D01*
X48952606Y43910826D01*
X48937334Y43939502D01*
X48971719Y43999286D01*
X49052201Y44017286D01*
X49096925Y44006974D01*
X49143960Y43978791D01*
X49691095Y43978791D01*
X49726825Y43981763D01*
X49816068Y43982905D01*
X49851225Y43969642D01*
X50195253Y43969642D01*
X50266116Y44101852D01*
X50311234Y44215637D01*
X50370135Y44395898D01*
X50063881Y44395898D01*
X50062935Y44345704D01*
X50029878Y44250404D01*
X50010891Y44208999D01*
X49967169Y44126030D01*
X49921648Y44075977D01*
X49851729Y44047860D01*
X49734814Y44030700D01*
X49622232Y44020160D01*
X49411353Y44010067D01*
X49268142Y44024862D01*
X49208465Y44046355D01*
X49070806Y44079663D01*
X48968067Y44071956D01*
X48871486Y44039103D01*
X48834947Y43979440D01*
X48831500Y43931213D01*
X48801434Y43841628D01*
X48723967Y43724433D01*
X48618198Y43600295D01*
X48503224Y43489879D01*
X48398145Y43413852D01*
X48332892Y43391667D01*
X48225796Y43371601D01*
X48140209Y43322992D01*
X48102920Y43263225D01*
X48105698Y43244224D01*
X48083308Y43194828D01*
X48000581Y43128458D01*
X47877389Y43055264D01*
X47733598Y42985398D01*
X47589079Y42929010D01*
X47463699Y42896250D01*
X47416055Y42891898D01*
X47299728Y42903323D01*
X47217256Y42931507D01*
X47212250Y42935181D01*
X47167383Y43011424D01*
X47159334Y43062147D01*
X47159024Y43062821D01*
X47014802Y43062821D01*
X47009359Y43050075D01*
X46946855Y43013587D01*
X46870619Y43024793D01*
X46844575Y43048564D01*
X46854707Y43089934D01*
X46912032Y43119340D01*
X46979184Y43120547D01*
X46994511Y43113712D01*
X47014802Y43062821D01*
X47159024Y43062821D01*
X47122888Y43141272D01*
X47074667Y43167734D01*
X47017353Y43212446D01*
X46994278Y43275160D01*
X46949681Y43275160D01*
X46914201Y43201657D01*
X46852417Y43172361D01*
X46775957Y43134668D01*
X46743364Y43037563D01*
X46743018Y43034607D01*
X46708429Y42932559D01*
X46634764Y42803700D01*
X46573685Y42720681D01*
X46418500Y42530981D01*
X46405929Y42840946D01*
X46402492Y43000453D01*
X46405225Y43129883D01*
X46413519Y43203110D01*
X46414450Y43205876D01*
X46472105Y43268642D01*
X46580211Y43334268D01*
X46706414Y43387962D01*
X46818360Y43414930D01*
X46865408Y43412069D01*
X46934043Y43356863D01*
X46949681Y43275160D01*
X46994278Y43275160D01*
X46989879Y43287114D01*
X46996645Y43358052D01*
X47042053Y43391577D01*
X47045409Y43391667D01*
X47121610Y43415098D01*
X47181395Y43450586D01*
X47235359Y43504963D01*
X47231438Y43518667D01*
X47095834Y43518667D01*
X47036124Y43483104D01*
X46987502Y43476333D01*
X46920080Y43494543D01*
X46905334Y43518667D01*
X46941637Y43550220D01*
X47013666Y43561000D01*
X47085691Y43547562D01*
X47095834Y43518667D01*
X47231438Y43518667D01*
X47219822Y43559256D01*
X47205469Y43577586D01*
X47107414Y43636398D01*
X46980233Y43638558D01*
X46855374Y43586573D01*
X46808062Y43545905D01*
X46714639Y43464364D01*
X46602610Y43391061D01*
X46496536Y43339209D01*
X46420975Y43322020D01*
X46404021Y43328535D01*
X46423687Y43365314D01*
X46496025Y43448857D01*
X46611221Y43568796D01*
X46759461Y43714766D01*
X46861929Y43812171D01*
X47347614Y44268028D01*
X48174224Y44295601D01*
X48476120Y44307467D01*
X48791737Y44322970D01*
X49094939Y44340617D01*
X49359589Y44358917D01*
X49519490Y44372403D01*
X49720281Y44389297D01*
X49889245Y44399432D01*
X50009250Y44402070D01*
X50063163Y44396470D01*
X50063881Y44395898D01*
X50370135Y44395898D01*
X50373391Y44405860D01*
X50395916Y44544103D01*
X50371460Y44635862D01*
X50292679Y44686631D01*
X50152224Y44701907D01*
X49942750Y44687183D01*
G36*
X43606287Y51769342D02*
X43471175Y51728860D01*
X43381803Y51677778D01*
X43308000Y51592770D01*
X43241474Y51487312D01*
X43184535Y51386815D01*
X43145340Y51296410D01*
X43119434Y51195265D01*
X43102359Y51062549D01*
X43089658Y50877433D01*
X43082958Y50746478D01*
X43063881Y50452073D01*
X43034482Y50188419D01*
X42990280Y49934079D01*
X42926794Y49667613D01*
X42839541Y49367583D01*
X42724041Y49012551D01*
X42714725Y48984914D01*
X42604448Y48633915D01*
X42533647Y48345781D01*
X42501079Y48109147D01*
X42505500Y47912646D01*
X42545665Y47744912D01*
X42572125Y47681925D01*
X42625878Y47589393D01*
X42701707Y47502410D01*
X42811382Y47412042D01*
X42966669Y47309361D01*
X43179339Y47185434D01*
X43350993Y47090848D01*
X43586916Y46959729D01*
X43817111Y46825073D01*
X44053997Y46678852D01*
X44309993Y46513040D01*
X44597517Y46319607D01*
X44928988Y46090528D01*
X45277759Y45845400D01*
X45554566Y45652005D01*
X45775978Y45503133D01*
X45953765Y45391755D01*
X46099694Y45310839D01*
X46225534Y45253357D01*
X46331952Y45215660D01*
X46474928Y45173329D01*
X46581562Y45145216D01*
X46630796Y45136824D01*
X46631773Y45137304D01*
X46628665Y45180592D01*
X46614084Y45294308D01*
X46589898Y45465269D01*
X46580119Y45531133D01*
X46309234Y45531133D01*
X46297720Y45522464D01*
X46259744Y45571833D01*
X46224693Y45631056D01*
X46156678Y45754747D01*
X46061465Y45932086D01*
X45944823Y46152254D01*
X45812519Y46404432D01*
X45673984Y46670724D01*
X45533401Y46944311D01*
X45405426Y47197655D01*
X45295440Y47419762D01*
X45208821Y47599635D01*
X45150949Y47726279D01*
X45127334Y47788031D01*
X45099872Y47843207D01*
X44991118Y47843207D01*
X44978614Y47801147D01*
X44934634Y47800874D01*
X44860390Y47841475D01*
X44840216Y47872460D01*
X44852720Y47914520D01*
X44896700Y47914793D01*
X44970944Y47874192D01*
X44991118Y47843207D01*
X45099872Y47843207D01*
X45077791Y47887569D01*
X45021500Y47937973D01*
X44953210Y47981709D01*
X44907866Y48035234D01*
X44874828Y48120354D01*
X44843461Y48258871D01*
X44829482Y48331549D01*
X44803967Y48493462D01*
X44802543Y48594485D01*
X44825178Y48654884D01*
X44828967Y48659717D01*
X44852841Y48718441D01*
X44837906Y48743474D01*
X44741408Y48743474D01*
X44723390Y48728786D01*
X44674749Y48727013D01*
X44590280Y48741968D01*
X44557642Y48765075D01*
X44551936Y48814395D01*
X44598856Y48827473D01*
X44672400Y48799476D01*
X44687181Y48789157D01*
X44741408Y48743474D01*
X44837906Y48743474D01*
X44812899Y48785387D01*
X44794952Y48804049D01*
X44756409Y48867510D01*
X43715268Y48867510D01*
X43671389Y48853015D01*
X43650851Y48852667D01*
X43577858Y48877945D01*
X43561000Y48916167D01*
X43581105Y48972542D01*
X43598150Y48979667D01*
X43653321Y48950704D01*
X43688000Y48916167D01*
X43715268Y48867510D01*
X44756409Y48867510D01*
X44741681Y48891759D01*
X44696969Y49024686D01*
X44665787Y49175206D01*
X44653105Y49315698D01*
X44663893Y49418538D01*
X44679286Y49446847D01*
X44691270Y49498187D01*
X44687916Y49502510D01*
X44561934Y49502510D01*
X44518056Y49488015D01*
X44497517Y49487667D01*
X44424525Y49512945D01*
X44407667Y49551167D01*
X44427771Y49607542D01*
X44444817Y49614667D01*
X44499988Y49585704D01*
X44534667Y49551167D01*
X44561934Y49502510D01*
X44687916Y49502510D01*
X44634882Y49570863D01*
X44609311Y49593933D01*
X44537119Y49684770D01*
X44453780Y49831105D01*
X44370802Y50006859D01*
X44299693Y50185949D01*
X44251960Y50342295D01*
X44238334Y50434708D01*
X44199846Y50552541D01*
X44059785Y50552541D01*
X44047281Y50510480D01*
X44003301Y50510207D01*
X43929057Y50550808D01*
X43908883Y50581793D01*
X43921387Y50623853D01*
X43965367Y50624126D01*
X44039611Y50583525D01*
X44059785Y50552541D01*
X44199846Y50552541D01*
X44198948Y50555289D01*
X44090417Y50649133D01*
X43950458Y50698825D01*
X43847577Y50706768D01*
X43796719Y50671545D01*
X43789750Y50656456D01*
X43793514Y50562186D01*
X43875895Y50478923D01*
X44026109Y50414166D01*
X44106460Y50384867D01*
X44164534Y50342265D01*
X44214187Y50267921D01*
X44269272Y50143396D01*
X44311870Y50033848D01*
X44438898Y49701087D01*
X44298436Y49674736D01*
X44185024Y49670846D01*
X44173981Y49673896D01*
X43892855Y49673896D01*
X43866324Y49657990D01*
X43826570Y49657000D01*
X43742672Y49673315D01*
X43710975Y49696408D01*
X43706795Y49746958D01*
X43753333Y49766217D01*
X43820396Y49747831D01*
X43849301Y49725509D01*
X43892855Y49673896D01*
X44173981Y49673896D01*
X44055030Y49706748D01*
X43923237Y49767243D01*
X43784619Y49831976D01*
X43698679Y49855689D01*
X43646621Y49842746D01*
X43636286Y49833885D01*
X43610199Y49763016D01*
X43647016Y49688200D01*
X43726964Y49623742D01*
X43830270Y49583944D01*
X43937162Y49583109D01*
X43968797Y49593364D01*
X44090380Y49618363D01*
X44209782Y49602357D01*
X44290439Y49550974D01*
X44295574Y49543059D01*
X44357061Y49485030D01*
X44460106Y49426329D01*
X44475490Y49419632D01*
X44574265Y49365549D01*
X44614141Y49295228D01*
X44619912Y49222515D01*
X44627529Y49096655D01*
X44643644Y48999322D01*
X44648711Y48951275D01*
X44624861Y48918934D01*
X44559372Y48899316D01*
X44439526Y48889439D01*
X44252601Y48886320D01*
X44161491Y48886286D01*
X43961827Y48894815D01*
X43834068Y48920783D01*
X43780491Y48951138D01*
X43671212Y49021693D01*
X43561218Y49050205D01*
X43476508Y49032948D01*
X43448502Y48998730D01*
X43454380Y48915411D01*
X43519855Y48841585D01*
X43619896Y48789203D01*
X43729468Y48770213D01*
X43823540Y48796565D01*
X43841300Y48811233D01*
X43906998Y48829767D01*
X44027731Y48829172D01*
X44177023Y48813212D01*
X44328396Y48785654D01*
X44455374Y48750262D01*
X44528496Y48713503D01*
X44618599Y48652272D01*
X44666813Y48629683D01*
X44719684Y48568095D01*
X44767541Y48422869D01*
X44788423Y48324797D01*
X44814807Y48173375D01*
X44821467Y48082029D01*
X44806652Y48028097D01*
X44768613Y47988917D01*
X44762110Y47983907D01*
X44681849Y47942866D01*
X44635971Y47940041D01*
X44575127Y47950388D01*
X44451586Y47964379D01*
X44287108Y47979679D01*
X44200685Y47986749D01*
X43972767Y48011234D01*
X43945570Y48017049D01*
X43637499Y48017049D01*
X43602228Y48007668D01*
X43562291Y48012518D01*
X43477624Y48043664D01*
X43444372Y48080083D01*
X43454273Y48124648D01*
X43508112Y48128480D01*
X43577091Y48094180D01*
X43606708Y48065434D01*
X43637499Y48017049D01*
X43945570Y48017049D01*
X43816842Y48044572D01*
X43720460Y48089505D01*
X43715041Y48093610D01*
X43599990Y48162404D01*
X43505137Y48198366D01*
X43403908Y48198158D01*
X43356848Y48148190D01*
X43371275Y48069222D01*
X43434263Y47997275D01*
X43515748Y47948565D01*
X43616097Y47933218D01*
X43748239Y47942974D01*
X43913082Y47951689D01*
X44109649Y47945500D01*
X44315954Y47927123D01*
X44510012Y47899273D01*
X44669837Y47864666D01*
X44773444Y47826019D01*
X44790006Y47814288D01*
X44888947Y47751348D01*
X44978627Y47716518D01*
X45017817Y47698275D01*
X45061731Y47658686D01*
X45115413Y47589567D01*
X45183909Y47482733D01*
X45272264Y47329999D01*
X45385524Y47123179D01*
X45528734Y46854090D01*
X45635942Y46650173D01*
X45776886Y46379405D01*
X45902884Y46133717D01*
X46009089Y45922853D01*
X46090657Y45756558D01*
X46142744Y45644577D01*
X46160504Y45596655D01*
X46160194Y45595749D01*
X46120228Y45610839D01*
X46026565Y45666176D01*
X45894178Y45752477D01*
X45772012Y45836472D01*
X45364562Y46119534D01*
X44963720Y46392376D01*
X44580292Y46647936D01*
X44225086Y46879152D01*
X43908909Y47078960D01*
X43642566Y47240298D01*
X43494353Y47325025D01*
X43301772Y47436131D01*
X43125534Y47546581D01*
X42985329Y47643481D01*
X42901686Y47713061D01*
X42822363Y47825295D01*
X42780260Y47964339D01*
X42776006Y48139968D01*
X42810228Y48361959D01*
X42883555Y48640086D01*
X42980340Y48937333D01*
X43098065Y49292619D01*
X43186369Y49598873D01*
X43251149Y49884009D01*
X43298301Y50175944D01*
X43333723Y50502595D01*
X43348221Y50679015D01*
X43367413Y50911979D01*
X43386039Y51077761D01*
X43407854Y51193739D01*
X43436611Y51277286D01*
X43476064Y51345779D01*
X43499088Y51377345D01*
X43596218Y51473014D01*
X43703993Y51514341D01*
X43825910Y51498489D01*
X43965471Y51422621D01*
X44126173Y51283900D01*
X44311516Y51079491D01*
X44524999Y50806556D01*
X44770122Y50462259D01*
X44942437Y50207333D01*
X45049403Y50026903D01*
X45172963Y49781232D01*
X45315326Y49465573D01*
X45478701Y49075175D01*
X45542787Y48916167D01*
X45931878Y47942500D01*
X46101812Y46841833D01*
X46148614Y46539788D01*
X46192351Y46259586D01*
X46231019Y46013894D01*
X46262617Y45815380D01*
X46285141Y45676711D01*
X46295883Y45614167D01*
X46309234Y45531133D01*
X46580119Y45531133D01*
X46557971Y45680295D01*
X46520170Y45926203D01*
X46519374Y45931299D01*
X46481494Y46179955D01*
X46449770Y46400196D01*
X46426038Y46578234D01*
X46412138Y46700283D01*
X46409907Y46752552D01*
X46409911Y46752566D01*
X46436219Y46739868D01*
X46494396Y46668120D01*
X46575121Y46552246D01*
X46669075Y46407170D01*
X46766939Y46247814D01*
X46859393Y46089103D01*
X46937116Y45945959D01*
X46990789Y45833307D01*
X47001881Y45804667D01*
X47048427Y45650716D01*
X47083143Y45498956D01*
X47089293Y45460708D01*
X47097376Y45359367D01*
X47075002Y45316428D01*
X47008296Y45307264D01*
X47002832Y45307250D01*
X46898188Y45282026D01*
X46840092Y45199420D01*
X46821339Y45049032D01*
X46821315Y45045264D01*
X46813303Y44969612D01*
X46782094Y44898395D01*
X46715815Y44815311D01*
X46602594Y44704055D01*
X46513750Y44622909D01*
X46237489Y44368610D01*
X46008404Y44144087D01*
X45806479Y43927604D01*
X45611695Y43697429D01*
X45404032Y43431829D01*
X45346453Y43355609D01*
X45196123Y43153910D01*
X45090282Y43005678D01*
X45021592Y42897427D01*
X44982716Y42815674D01*
X44966315Y42746932D01*
X44965051Y42677717D01*
X44966360Y42657109D01*
X44981583Y42543438D01*
X45015593Y42489717D01*
X45084127Y42471284D01*
X45085000Y42471198D01*
X45199226Y42480976D01*
X45267474Y42506483D01*
X45318296Y42557815D01*
X45403069Y42665982D01*
X45510775Y42816081D01*
X45630397Y42993208D01*
X45653684Y43028874D01*
X45797665Y43244411D01*
X45919047Y43407589D01*
X46036719Y43539852D01*
X46169572Y43662646D01*
X46317877Y43782902D01*
X46550571Y43974781D01*
X46768636Y44173148D01*
X46959940Y44365491D01*
X47112355Y44539295D01*
X47213749Y44682047D01*
X47240087Y44734257D01*
X47280822Y44821523D01*
X47315122Y44840188D01*
X47363635Y44802080D01*
X47395749Y44778622D01*
X47445656Y44762207D01*
X47525152Y44752332D01*
X47646027Y44748493D01*
X47820076Y44750188D01*
X48059092Y44756914D01*
X48258701Y44763884D01*
X48580839Y44777188D01*
X48935884Y44794489D01*
X49291422Y44814041D01*
X49615041Y44834101D01*
X49787029Y44846146D01*
X50109014Y44873024D01*
X50365318Y44905624D01*
X50573726Y44952416D01*
X50752024Y45021868D01*
X50917998Y45122449D01*
X51089434Y45262627D01*
X51284117Y45450870D01*
X51477334Y45650976D01*
X51625603Y45804949D01*
X51822816Y46007237D01*
X52057811Y46246526D01*
X52319427Y46511504D01*
X52596501Y46790855D01*
X52877871Y47073265D01*
X53068607Y47263918D01*
X53379338Y47575478D01*
X53632955Y47833391D01*
X53833734Y48042313D01*
X53985954Y48206904D01*
X54093892Y48331820D01*
X54136721Y48388498D01*
X53783743Y48388498D01*
X52746955Y47337777D01*
X52480983Y47067790D01*
X52213798Y46795765D01*
X51956377Y46532935D01*
X51719699Y46290537D01*
X51514742Y46079805D01*
X51352484Y45911974D01*
X51286834Y45843505D01*
X51070866Y45621713D01*
X50890409Y45453213D01*
X50727327Y45329658D01*
X50563482Y45242697D01*
X50380738Y45183982D01*
X50160956Y45145166D01*
X49886000Y45117897D01*
X49678167Y45103016D01*
X49412656Y45086849D01*
X49138582Y45072908D01*
X48868422Y45061523D01*
X48614651Y45053025D01*
X48389747Y45047741D01*
X48206185Y45046003D01*
X48076441Y45048140D01*
X48012993Y45054481D01*
X48009528Y45058923D01*
X48074449Y45096952D01*
X48202927Y45155942D01*
X48378366Y45229581D01*
X48584169Y45311559D01*
X48803740Y45395566D01*
X49020482Y45475289D01*
X49217798Y45544419D01*
X49379091Y45596646D01*
X49487765Y45625657D01*
X49508834Y45629019D01*
X49675926Y45640337D01*
X49887120Y45646515D01*
X50119059Y45647785D01*
X50348381Y45644374D01*
X50551729Y45636513D01*
X50705743Y45624432D01*
X50757667Y45616739D01*
X50890462Y45610432D01*
X50989105Y45641572D01*
X51037387Y45699605D01*
X51032372Y45720000D01*
X50927000Y45720000D01*
X50890772Y45688177D01*
X50821167Y45677667D01*
X50741610Y45692158D01*
X50715334Y45720000D01*
X50729380Y45732339D01*
X49639779Y45732339D01*
X49634026Y45717075D01*
X49581567Y45682785D01*
X49517899Y45683281D01*
X49487667Y45717502D01*
X49521131Y45776524D01*
X49590253Y45792699D01*
X49615358Y45783073D01*
X49639779Y45732339D01*
X50729380Y45732339D01*
X50751562Y45751823D01*
X50821167Y45762333D01*
X50900725Y45747842D01*
X50927000Y45720000D01*
X51032372Y45720000D01*
X51019098Y45773980D01*
X51012423Y45782590D01*
X50944680Y45830047D01*
X50840749Y45831907D01*
X50802354Y45825404D01*
X50672358Y45806799D01*
X50505690Y45791837D01*
X50321403Y45781062D01*
X50138549Y45775018D01*
X49976182Y45774247D01*
X49853353Y45779294D01*
X49789116Y45790703D01*
X49784000Y45796350D01*
X49817577Y45837552D01*
X49906618Y45908850D01*
X50033593Y45998979D01*
X50180970Y46096671D01*
X50331218Y46190662D01*
X50466806Y46269686D01*
X50570201Y46322475D01*
X50623873Y46337765D01*
X50625432Y46337069D01*
X50687682Y46334365D01*
X50796081Y46357673D01*
X50850105Y46374790D01*
X51038428Y46426814D01*
X51172752Y46434594D01*
X51244318Y46397627D01*
X51244500Y46397333D01*
X51304342Y46366768D01*
X51410440Y46355658D01*
X51526244Y46365819D01*
X51579705Y46380696D01*
X51635074Y46434159D01*
X51640515Y46488472D01*
X51519667Y46488472D01*
X51484922Y46437307D01*
X51411040Y46410500D01*
X51378909Y46412503D01*
X51347735Y46451389D01*
X50826092Y46451389D01*
X50821352Y46439966D01*
X50767762Y46406153D01*
X50692743Y46399100D01*
X50637793Y46419418D01*
X50630667Y46437168D01*
X50661543Y46494193D01*
X50675028Y46504420D01*
X50742061Y46516998D01*
X50804304Y46494084D01*
X50826092Y46451389D01*
X51347735Y46451389D01*
X51345855Y46453733D01*
X51345482Y46461892D01*
X51378087Y46499053D01*
X51444961Y46517334D01*
X51504535Y46510391D01*
X51519667Y46488472D01*
X51640515Y46488472D01*
X51642466Y46507945D01*
X51603287Y46564043D01*
X51572584Y46573251D01*
X51427553Y46573297D01*
X51305207Y46551253D01*
X51246617Y46521460D01*
X51175588Y46491360D01*
X51074086Y46483271D01*
X50984081Y46497466D01*
X50951124Y46519549D01*
X50970884Y46561259D01*
X51045177Y46634733D01*
X51156583Y46727113D01*
X51287680Y46825542D01*
X51421049Y46917162D01*
X51539267Y46989116D01*
X51624916Y47028547D01*
X51645903Y47032333D01*
X51753478Y47054785D01*
X51814207Y47083371D01*
X51888454Y47110613D01*
X51959351Y47076117D01*
X51981273Y47057175D01*
X52078470Y47011485D01*
X52201445Y47004290D01*
X52316594Y47031920D01*
X52390311Y47090708D01*
X52395894Y47102442D01*
X52395261Y47117000D01*
X52281667Y47117000D01*
X52245439Y47085177D01*
X52175834Y47074667D01*
X52096276Y47089158D01*
X52070000Y47117000D01*
X52106229Y47148823D01*
X52175834Y47159333D01*
X52255391Y47144842D01*
X52281667Y47117000D01*
X52395261Y47117000D01*
X52393138Y47165806D01*
X51731334Y47165806D01*
X51696589Y47114641D01*
X51622706Y47087833D01*
X51590575Y47089836D01*
X51557522Y47131067D01*
X51557149Y47139225D01*
X51589754Y47176386D01*
X51656628Y47194667D01*
X51716202Y47187724D01*
X51731334Y47165806D01*
X52393138Y47165806D01*
X52392651Y47176984D01*
X52322666Y47220032D01*
X52198645Y47229357D01*
X52033294Y47202733D01*
X51953584Y47179977D01*
X51876610Y47171630D01*
X51858334Y47196197D01*
X51894871Y47241906D01*
X51990424Y47305118D01*
X52123907Y47375916D01*
X52274233Y47444382D01*
X52420315Y47500598D01*
X52541066Y47534646D01*
X52590019Y47540333D01*
X52714096Y47557836D01*
X52811728Y47599253D01*
X52865693Y47653629D01*
X52861772Y47667333D01*
X52747334Y47667333D01*
X52711106Y47635511D01*
X52641500Y47625000D01*
X52561943Y47639491D01*
X52535667Y47667333D01*
X52571895Y47699156D01*
X52641500Y47709667D01*
X52721058Y47695176D01*
X52747334Y47667333D01*
X52861772Y47667333D01*
X52850156Y47707922D01*
X52835802Y47726253D01*
X52750768Y47778038D01*
X52636978Y47789659D01*
X52523048Y47766441D01*
X52437592Y47713710D01*
X52408667Y47646749D01*
X52373239Y47597082D01*
X52280967Y47526087D01*
X52152867Y47445697D01*
X52009955Y47367842D01*
X51873247Y47304455D01*
X51763760Y47267466D01*
X51732253Y47262732D01*
X51574015Y47252549D01*
X51480468Y47238808D01*
X51431651Y47216214D01*
X51407609Y47179469D01*
X51406337Y47176228D01*
X51410344Y47101633D01*
X51433995Y47075288D01*
X51433528Y47035659D01*
X51374906Y46966236D01*
X51273966Y46878390D01*
X51146541Y46783487D01*
X51008466Y46692898D01*
X50875575Y46617989D01*
X50763701Y46570131D01*
X50715334Y46559307D01*
X50588264Y46524197D01*
X50527017Y46454055D01*
X50467148Y46379673D01*
X50351063Y46280065D01*
X50198248Y46167921D01*
X50028190Y46055926D01*
X49860379Y45956768D01*
X49714300Y45883134D01*
X49609441Y45847710D01*
X49593500Y45846302D01*
X49450748Y45826281D01*
X49371486Y45763559D01*
X49355387Y45727449D01*
X49310900Y45688392D01*
X49205191Y45627626D01*
X49055772Y45554577D01*
X48936289Y45501915D01*
X48648223Y45380975D01*
X48431582Y45291932D01*
X48280337Y45232496D01*
X48188457Y45200376D01*
X48149910Y45193280D01*
X48154167Y45204820D01*
X48215795Y45253613D01*
X48339569Y45342377D01*
X48516496Y45465168D01*
X48610181Y45529100D01*
X48076844Y45529100D01*
X48038313Y45475997D01*
X47923513Y45386173D01*
X47802032Y45304255D01*
X47647609Y45198632D01*
X47518621Y45100620D01*
X47433375Y45024615D01*
X47411753Y44997380D01*
X47364586Y44925336D01*
X47346986Y44929625D01*
X47365160Y45005200D01*
X47373621Y45028394D01*
X47394383Y45138800D01*
X47373152Y45184449D01*
X47358251Y45246564D01*
X47419627Y45318525D01*
X47550285Y45394862D01*
X47735092Y45467417D01*
X47925206Y45524875D01*
X48039133Y45545414D01*
X48076844Y45529100D01*
X48610181Y45529100D01*
X48737586Y45616042D01*
X48993849Y45789054D01*
X49276294Y45978261D01*
X49575930Y46177720D01*
X49883765Y46381485D01*
X50190810Y46583613D01*
X50488074Y46778161D01*
X50766565Y46959183D01*
X51017293Y47120737D01*
X51231268Y47256878D01*
X51399497Y47361662D01*
X51512991Y47429145D01*
X51543769Y47445739D01*
X51760004Y47551015D01*
X52013250Y47669545D01*
X52288675Y47794865D01*
X52571446Y47920509D01*
X52846731Y48040010D01*
X53099697Y48146904D01*
X53315511Y48234724D01*
X53479340Y48297005D01*
X53551289Y48320835D01*
X53783743Y48388498D01*
X54136721Y48388498D01*
X54161825Y48421718D01*
X54194031Y48481257D01*
X54197155Y48492726D01*
X54199165Y48602858D01*
X54144794Y48662377D01*
X54022756Y48682413D01*
X54004524Y48682685D01*
X53857107Y48671719D01*
X53678728Y48635561D01*
X53461724Y48571527D01*
X53198432Y48476933D01*
X52881189Y48349095D01*
X52502331Y48185329D01*
X52210820Y48054447D01*
X51916246Y47920310D01*
X51671644Y47807135D01*
X51463720Y47707311D01*
X51279177Y47613228D01*
X51104720Y47517278D01*
X50927054Y47411849D01*
X50732882Y47289334D01*
X50508910Y47142121D01*
X50241842Y46962601D01*
X49918383Y46743165D01*
X49911000Y46738149D01*
X49613546Y46535869D01*
X49326847Y46340560D01*
X49061401Y46159400D01*
X48827705Y45999564D01*
X48636256Y45868230D01*
X48497552Y45772575D01*
X48440617Y45732906D01*
X48320453Y45653952D01*
X48235724Y45609059D01*
X48200762Y45605448D01*
X48201729Y45612527D01*
X48215099Y45652627D01*
X48204841Y45671348D01*
X48154319Y45669855D01*
X48046898Y45649316D01*
X47955168Y45629819D01*
X47756243Y45576471D01*
X47564443Y45506138D01*
X47400791Y45428305D01*
X47286311Y45352459D01*
X47249816Y45311582D01*
X47212323Y45258140D01*
X47199694Y45254333D01*
X47192986Y45305670D01*
X47181337Y45410662D01*
X47175543Y45466000D01*
X47133207Y45707467D01*
X47052001Y45945051D01*
X46923407Y46198933D01*
X46751180Y46471251D01*
X46643206Y46636118D01*
X46555884Y46780135D01*
X46499034Y46886394D01*
X46482000Y46934722D01*
X46508059Y47026341D01*
X46571985Y47144568D01*
X46652405Y47255525D01*
X46727944Y47325333D01*
X46728708Y47325768D01*
X46773918Y47371749D01*
X46752266Y47413482D01*
X46696755Y47418829D01*
X46620491Y47365495D01*
X46537752Y47271880D01*
X46462815Y47156383D01*
X46409957Y47037403D01*
X46393116Y46950630D01*
X46385550Y46935296D01*
X46367504Y46993443D01*
X46341316Y47114861D01*
X46309323Y47289339D01*
X46292062Y47392167D01*
X46246757Y47666019D01*
X46210100Y47873465D01*
X46177652Y48031748D01*
X46144974Y48158113D01*
X46107628Y48269801D01*
X46061173Y48384057D01*
X46003518Y48512972D01*
X45943207Y48651942D01*
X45862122Y48848058D01*
X45769224Y49079193D01*
X45673471Y49323220D01*
X45634231Y49425087D01*
X45547717Y49647408D01*
X45472205Y49828285D01*
X45397792Y49985513D01*
X45314580Y50136887D01*
X45212667Y50300202D01*
X45082154Y50493255D01*
X44913140Y50733839D01*
X44880571Y50779753D01*
X44703500Y51027372D01*
X44564291Y51216234D01*
X44453106Y51357534D01*
X44360109Y51462468D01*
X44275463Y51542231D01*
X44189331Y51608019D01*
X44104063Y51663509D01*
X43837770Y51828517D01*
X43606287Y51769342D01*
X43606287Y51769342D01*
G37*
X43606287Y51769342D02*
X43471175Y51728860D01*
X43381803Y51677778D01*
X43308000Y51592770D01*
X43241474Y51487312D01*
X43184535Y51386815D01*
X43145340Y51296410D01*
X43119434Y51195265D01*
X43102359Y51062549D01*
X43089658Y50877433D01*
X43082958Y50746478D01*
X43063881Y50452073D01*
X43034482Y50188419D01*
X42990280Y49934079D01*
X42926794Y49667613D01*
X42839541Y49367583D01*
X42724041Y49012551D01*
X42714725Y48984914D01*
X42604448Y48633915D01*
X42533647Y48345781D01*
X42501079Y48109147D01*
X42505500Y47912646D01*
X42545665Y47744912D01*
X42572125Y47681925D01*
X42625878Y47589393D01*
X42701707Y47502410D01*
X42811382Y47412042D01*
X42966669Y47309361D01*
X43179339Y47185434D01*
X43350993Y47090848D01*
X43586916Y46959729D01*
X43817111Y46825073D01*
X44053997Y46678852D01*
X44309993Y46513040D01*
X44597517Y46319607D01*
X44928988Y46090528D01*
X45277759Y45845400D01*
X45554566Y45652005D01*
X45775978Y45503133D01*
X45953765Y45391755D01*
X46099694Y45310839D01*
X46225534Y45253357D01*
X46331952Y45215660D01*
X46474928Y45173329D01*
X46581562Y45145216D01*
X46630796Y45136824D01*
X46631773Y45137304D01*
X46628665Y45180592D01*
X46614084Y45294308D01*
X46589898Y45465269D01*
X46580119Y45531133D01*
X46309234Y45531133D01*
X46297720Y45522464D01*
X46259744Y45571833D01*
X46224693Y45631056D01*
X46156678Y45754747D01*
X46061465Y45932086D01*
X45944823Y46152254D01*
X45812519Y46404432D01*
X45673984Y46670724D01*
X45533401Y46944311D01*
X45405426Y47197655D01*
X45295440Y47419762D01*
X45208821Y47599635D01*
X45150949Y47726279D01*
X45127334Y47788031D01*
X45099872Y47843207D01*
X44991118Y47843207D01*
X44978614Y47801147D01*
X44934634Y47800874D01*
X44860390Y47841475D01*
X44840216Y47872460D01*
X44852720Y47914520D01*
X44896700Y47914793D01*
X44970944Y47874192D01*
X44991118Y47843207D01*
X45099872Y47843207D01*
X45077791Y47887569D01*
X45021500Y47937973D01*
X44953210Y47981709D01*
X44907866Y48035234D01*
X44874828Y48120354D01*
X44843461Y48258871D01*
X44829482Y48331549D01*
X44803967Y48493462D01*
X44802543Y48594485D01*
X44825178Y48654884D01*
X44828967Y48659717D01*
X44852841Y48718441D01*
X44837906Y48743474D01*
X44741408Y48743474D01*
X44723390Y48728786D01*
X44674749Y48727013D01*
X44590280Y48741968D01*
X44557642Y48765075D01*
X44551936Y48814395D01*
X44598856Y48827473D01*
X44672400Y48799476D01*
X44687181Y48789157D01*
X44741408Y48743474D01*
X44837906Y48743474D01*
X44812899Y48785387D01*
X44794952Y48804049D01*
X44756409Y48867510D01*
X43715268Y48867510D01*
X43671389Y48853015D01*
X43650851Y48852667D01*
X43577858Y48877945D01*
X43561000Y48916167D01*
X43581105Y48972542D01*
X43598150Y48979667D01*
X43653321Y48950704D01*
X43688000Y48916167D01*
X43715268Y48867510D01*
X44756409Y48867510D01*
X44741681Y48891759D01*
X44696969Y49024686D01*
X44665787Y49175206D01*
X44653105Y49315698D01*
X44663893Y49418538D01*
X44679286Y49446847D01*
X44691270Y49498187D01*
X44687916Y49502510D01*
X44561934Y49502510D01*
X44518056Y49488015D01*
X44497517Y49487667D01*
X44424525Y49512945D01*
X44407667Y49551167D01*
X44427771Y49607542D01*
X44444817Y49614667D01*
X44499988Y49585704D01*
X44534667Y49551167D01*
X44561934Y49502510D01*
X44687916Y49502510D01*
X44634882Y49570863D01*
X44609311Y49593933D01*
X44537119Y49684770D01*
X44453780Y49831105D01*
X44370802Y50006859D01*
X44299693Y50185949D01*
X44251960Y50342295D01*
X44238334Y50434708D01*
X44199846Y50552541D01*
X44059785Y50552541D01*
X44047281Y50510480D01*
X44003301Y50510207D01*
X43929057Y50550808D01*
X43908883Y50581793D01*
X43921387Y50623853D01*
X43965367Y50624126D01*
X44039611Y50583525D01*
X44059785Y50552541D01*
X44199846Y50552541D01*
X44198948Y50555289D01*
X44090417Y50649133D01*
X43950458Y50698825D01*
X43847577Y50706768D01*
X43796719Y50671545D01*
X43789750Y50656456D01*
X43793514Y50562186D01*
X43875895Y50478923D01*
X44026109Y50414166D01*
X44106460Y50384867D01*
X44164534Y50342265D01*
X44214187Y50267921D01*
X44269272Y50143396D01*
X44311870Y50033848D01*
X44438898Y49701087D01*
X44298436Y49674736D01*
X44185024Y49670846D01*
X44173981Y49673896D01*
X43892855Y49673896D01*
X43866324Y49657990D01*
X43826570Y49657000D01*
X43742672Y49673315D01*
X43710975Y49696408D01*
X43706795Y49746958D01*
X43753333Y49766217D01*
X43820396Y49747831D01*
X43849301Y49725509D01*
X43892855Y49673896D01*
X44173981Y49673896D01*
X44055030Y49706748D01*
X43923237Y49767243D01*
X43784619Y49831976D01*
X43698679Y49855689D01*
X43646621Y49842746D01*
X43636286Y49833885D01*
X43610199Y49763016D01*
X43647016Y49688200D01*
X43726964Y49623742D01*
X43830270Y49583944D01*
X43937162Y49583109D01*
X43968797Y49593364D01*
X44090380Y49618363D01*
X44209782Y49602357D01*
X44290439Y49550974D01*
X44295574Y49543059D01*
X44357061Y49485030D01*
X44460106Y49426329D01*
X44475490Y49419632D01*
X44574265Y49365549D01*
X44614141Y49295228D01*
X44619912Y49222515D01*
X44627529Y49096655D01*
X44643644Y48999322D01*
X44648711Y48951275D01*
X44624861Y48918934D01*
X44559372Y48899316D01*
X44439526Y48889439D01*
X44252601Y48886320D01*
X44161491Y48886286D01*
X43961827Y48894815D01*
X43834068Y48920783D01*
X43780491Y48951138D01*
X43671212Y49021693D01*
X43561218Y49050205D01*
X43476508Y49032948D01*
X43448502Y48998730D01*
X43454380Y48915411D01*
X43519855Y48841585D01*
X43619896Y48789203D01*
X43729468Y48770213D01*
X43823540Y48796565D01*
X43841300Y48811233D01*
X43906998Y48829767D01*
X44027731Y48829172D01*
X44177023Y48813212D01*
X44328396Y48785654D01*
X44455374Y48750262D01*
X44528496Y48713503D01*
X44618599Y48652272D01*
X44666813Y48629683D01*
X44719684Y48568095D01*
X44767541Y48422869D01*
X44788423Y48324797D01*
X44814807Y48173375D01*
X44821467Y48082029D01*
X44806652Y48028097D01*
X44768613Y47988917D01*
X44762110Y47983907D01*
X44681849Y47942866D01*
X44635971Y47940041D01*
X44575127Y47950388D01*
X44451586Y47964379D01*
X44287108Y47979679D01*
X44200685Y47986749D01*
X43972767Y48011234D01*
X43945570Y48017049D01*
X43637499Y48017049D01*
X43602228Y48007668D01*
X43562291Y48012518D01*
X43477624Y48043664D01*
X43444372Y48080083D01*
X43454273Y48124648D01*
X43508112Y48128480D01*
X43577091Y48094180D01*
X43606708Y48065434D01*
X43637499Y48017049D01*
X43945570Y48017049D01*
X43816842Y48044572D01*
X43720460Y48089505D01*
X43715041Y48093610D01*
X43599990Y48162404D01*
X43505137Y48198366D01*
X43403908Y48198158D01*
X43356848Y48148190D01*
X43371275Y48069222D01*
X43434263Y47997275D01*
X43515748Y47948565D01*
X43616097Y47933218D01*
X43748239Y47942974D01*
X43913082Y47951689D01*
X44109649Y47945500D01*
X44315954Y47927123D01*
X44510012Y47899273D01*
X44669837Y47864666D01*
X44773444Y47826019D01*
X44790006Y47814288D01*
X44888947Y47751348D01*
X44978627Y47716518D01*
X45017817Y47698275D01*
X45061731Y47658686D01*
X45115413Y47589567D01*
X45183909Y47482733D01*
X45272264Y47329999D01*
X45385524Y47123179D01*
X45528734Y46854090D01*
X45635942Y46650173D01*
X45776886Y46379405D01*
X45902884Y46133717D01*
X46009089Y45922853D01*
X46090657Y45756558D01*
X46142744Y45644577D01*
X46160504Y45596655D01*
X46160194Y45595749D01*
X46120228Y45610839D01*
X46026565Y45666176D01*
X45894178Y45752477D01*
X45772012Y45836472D01*
X45364562Y46119534D01*
X44963720Y46392376D01*
X44580292Y46647936D01*
X44225086Y46879152D01*
X43908909Y47078960D01*
X43642566Y47240298D01*
X43494353Y47325025D01*
X43301772Y47436131D01*
X43125534Y47546581D01*
X42985329Y47643481D01*
X42901686Y47713061D01*
X42822363Y47825295D01*
X42780260Y47964339D01*
X42776006Y48139968D01*
X42810228Y48361959D01*
X42883555Y48640086D01*
X42980340Y48937333D01*
X43098065Y49292619D01*
X43186369Y49598873D01*
X43251149Y49884009D01*
X43298301Y50175944D01*
X43333723Y50502595D01*
X43348221Y50679015D01*
X43367413Y50911979D01*
X43386039Y51077761D01*
X43407854Y51193739D01*
X43436611Y51277286D01*
X43476064Y51345779D01*
X43499088Y51377345D01*
X43596218Y51473014D01*
X43703993Y51514341D01*
X43825910Y51498489D01*
X43965471Y51422621D01*
X44126173Y51283900D01*
X44311516Y51079491D01*
X44524999Y50806556D01*
X44770122Y50462259D01*
X44942437Y50207333D01*
X45049403Y50026903D01*
X45172963Y49781232D01*
X45315326Y49465573D01*
X45478701Y49075175D01*
X45542787Y48916167D01*
X45931878Y47942500D01*
X46101812Y46841833D01*
X46148614Y46539788D01*
X46192351Y46259586D01*
X46231019Y46013894D01*
X46262617Y45815380D01*
X46285141Y45676711D01*
X46295883Y45614167D01*
X46309234Y45531133D01*
X46580119Y45531133D01*
X46557971Y45680295D01*
X46520170Y45926203D01*
X46519374Y45931299D01*
X46481494Y46179955D01*
X46449770Y46400196D01*
X46426038Y46578234D01*
X46412138Y46700283D01*
X46409907Y46752552D01*
X46409911Y46752566D01*
X46436219Y46739868D01*
X46494396Y46668120D01*
X46575121Y46552246D01*
X46669075Y46407170D01*
X46766939Y46247814D01*
X46859393Y46089103D01*
X46937116Y45945959D01*
X46990789Y45833307D01*
X47001881Y45804667D01*
X47048427Y45650716D01*
X47083143Y45498956D01*
X47089293Y45460708D01*
X47097376Y45359367D01*
X47075002Y45316428D01*
X47008296Y45307264D01*
X47002832Y45307250D01*
X46898188Y45282026D01*
X46840092Y45199420D01*
X46821339Y45049032D01*
X46821315Y45045264D01*
X46813303Y44969612D01*
X46782094Y44898395D01*
X46715815Y44815311D01*
X46602594Y44704055D01*
X46513750Y44622909D01*
X46237489Y44368610D01*
X46008404Y44144087D01*
X45806479Y43927604D01*
X45611695Y43697429D01*
X45404032Y43431829D01*
X45346453Y43355609D01*
X45196123Y43153910D01*
X45090282Y43005678D01*
X45021592Y42897427D01*
X44982716Y42815674D01*
X44966315Y42746932D01*
X44965051Y42677717D01*
X44966360Y42657109D01*
X44981583Y42543438D01*
X45015593Y42489717D01*
X45084127Y42471284D01*
X45085000Y42471198D01*
X45199226Y42480976D01*
X45267474Y42506483D01*
X45318296Y42557815D01*
X45403069Y42665982D01*
X45510775Y42816081D01*
X45630397Y42993208D01*
X45653684Y43028874D01*
X45797665Y43244411D01*
X45919047Y43407589D01*
X46036719Y43539852D01*
X46169572Y43662646D01*
X46317877Y43782902D01*
X46550571Y43974781D01*
X46768636Y44173148D01*
X46959940Y44365491D01*
X47112355Y44539295D01*
X47213749Y44682047D01*
X47240087Y44734257D01*
X47280822Y44821523D01*
X47315122Y44840188D01*
X47363635Y44802080D01*
X47395749Y44778622D01*
X47445656Y44762207D01*
X47525152Y44752332D01*
X47646027Y44748493D01*
X47820076Y44750188D01*
X48059092Y44756914D01*
X48258701Y44763884D01*
X48580839Y44777188D01*
X48935884Y44794489D01*
X49291422Y44814041D01*
X49615041Y44834101D01*
X49787029Y44846146D01*
X50109014Y44873024D01*
X50365318Y44905624D01*
X50573726Y44952416D01*
X50752024Y45021868D01*
X50917998Y45122449D01*
X51089434Y45262627D01*
X51284117Y45450870D01*
X51477334Y45650976D01*
X51625603Y45804949D01*
X51822816Y46007237D01*
X52057811Y46246526D01*
X52319427Y46511504D01*
X52596501Y46790855D01*
X52877871Y47073265D01*
X53068607Y47263918D01*
X53379338Y47575478D01*
X53632955Y47833391D01*
X53833734Y48042313D01*
X53985954Y48206904D01*
X54093892Y48331820D01*
X54136721Y48388498D01*
X53783743Y48388498D01*
X52746955Y47337777D01*
X52480983Y47067790D01*
X52213798Y46795765D01*
X51956377Y46532935D01*
X51719699Y46290537D01*
X51514742Y46079805D01*
X51352484Y45911974D01*
X51286834Y45843505D01*
X51070866Y45621713D01*
X50890409Y45453213D01*
X50727327Y45329658D01*
X50563482Y45242697D01*
X50380738Y45183982D01*
X50160956Y45145166D01*
X49886000Y45117897D01*
X49678167Y45103016D01*
X49412656Y45086849D01*
X49138582Y45072908D01*
X48868422Y45061523D01*
X48614651Y45053025D01*
X48389747Y45047741D01*
X48206185Y45046003D01*
X48076441Y45048140D01*
X48012993Y45054481D01*
X48009528Y45058923D01*
X48074449Y45096952D01*
X48202927Y45155942D01*
X48378366Y45229581D01*
X48584169Y45311559D01*
X48803740Y45395566D01*
X49020482Y45475289D01*
X49217798Y45544419D01*
X49379091Y45596646D01*
X49487765Y45625657D01*
X49508834Y45629019D01*
X49675926Y45640337D01*
X49887120Y45646515D01*
X50119059Y45647785D01*
X50348381Y45644374D01*
X50551729Y45636513D01*
X50705743Y45624432D01*
X50757667Y45616739D01*
X50890462Y45610432D01*
X50989105Y45641572D01*
X51037387Y45699605D01*
X51032372Y45720000D01*
X50927000Y45720000D01*
X50890772Y45688177D01*
X50821167Y45677667D01*
X50741610Y45692158D01*
X50715334Y45720000D01*
X50729380Y45732339D01*
X49639779Y45732339D01*
X49634026Y45717075D01*
X49581567Y45682785D01*
X49517899Y45683281D01*
X49487667Y45717502D01*
X49521131Y45776524D01*
X49590253Y45792699D01*
X49615358Y45783073D01*
X49639779Y45732339D01*
X50729380Y45732339D01*
X50751562Y45751823D01*
X50821167Y45762333D01*
X50900725Y45747842D01*
X50927000Y45720000D01*
X51032372Y45720000D01*
X51019098Y45773980D01*
X51012423Y45782590D01*
X50944680Y45830047D01*
X50840749Y45831907D01*
X50802354Y45825404D01*
X50672358Y45806799D01*
X50505690Y45791837D01*
X50321403Y45781062D01*
X50138549Y45775018D01*
X49976182Y45774247D01*
X49853353Y45779294D01*
X49789116Y45790703D01*
X49784000Y45796350D01*
X49817577Y45837552D01*
X49906618Y45908850D01*
X50033593Y45998979D01*
X50180970Y46096671D01*
X50331218Y46190662D01*
X50466806Y46269686D01*
X50570201Y46322475D01*
X50623873Y46337765D01*
X50625432Y46337069D01*
X50687682Y46334365D01*
X50796081Y46357673D01*
X50850105Y46374790D01*
X51038428Y46426814D01*
X51172752Y46434594D01*
X51244318Y46397627D01*
X51244500Y46397333D01*
X51304342Y46366768D01*
X51410440Y46355658D01*
X51526244Y46365819D01*
X51579705Y46380696D01*
X51635074Y46434159D01*
X51640515Y46488472D01*
X51519667Y46488472D01*
X51484922Y46437307D01*
X51411040Y46410500D01*
X51378909Y46412503D01*
X51347735Y46451389D01*
X50826092Y46451389D01*
X50821352Y46439966D01*
X50767762Y46406153D01*
X50692743Y46399100D01*
X50637793Y46419418D01*
X50630667Y46437168D01*
X50661543Y46494193D01*
X50675028Y46504420D01*
X50742061Y46516998D01*
X50804304Y46494084D01*
X50826092Y46451389D01*
X51347735Y46451389D01*
X51345855Y46453733D01*
X51345482Y46461892D01*
X51378087Y46499053D01*
X51444961Y46517334D01*
X51504535Y46510391D01*
X51519667Y46488472D01*
X51640515Y46488472D01*
X51642466Y46507945D01*
X51603287Y46564043D01*
X51572584Y46573251D01*
X51427553Y46573297D01*
X51305207Y46551253D01*
X51246617Y46521460D01*
X51175588Y46491360D01*
X51074086Y46483271D01*
X50984081Y46497466D01*
X50951124Y46519549D01*
X50970884Y46561259D01*
X51045177Y46634733D01*
X51156583Y46727113D01*
X51287680Y46825542D01*
X51421049Y46917162D01*
X51539267Y46989116D01*
X51624916Y47028547D01*
X51645903Y47032333D01*
X51753478Y47054785D01*
X51814207Y47083371D01*
X51888454Y47110613D01*
X51959351Y47076117D01*
X51981273Y47057175D01*
X52078470Y47011485D01*
X52201445Y47004290D01*
X52316594Y47031920D01*
X52390311Y47090708D01*
X52395894Y47102442D01*
X52395261Y47117000D01*
X52281667Y47117000D01*
X52245439Y47085177D01*
X52175834Y47074667D01*
X52096276Y47089158D01*
X52070000Y47117000D01*
X52106229Y47148823D01*
X52175834Y47159333D01*
X52255391Y47144842D01*
X52281667Y47117000D01*
X52395261Y47117000D01*
X52393138Y47165806D01*
X51731334Y47165806D01*
X51696589Y47114641D01*
X51622706Y47087833D01*
X51590575Y47089836D01*
X51557522Y47131067D01*
X51557149Y47139225D01*
X51589754Y47176386D01*
X51656628Y47194667D01*
X51716202Y47187724D01*
X51731334Y47165806D01*
X52393138Y47165806D01*
X52392651Y47176984D01*
X52322666Y47220032D01*
X52198645Y47229357D01*
X52033294Y47202733D01*
X51953584Y47179977D01*
X51876610Y47171630D01*
X51858334Y47196197D01*
X51894871Y47241906D01*
X51990424Y47305118D01*
X52123907Y47375916D01*
X52274233Y47444382D01*
X52420315Y47500598D01*
X52541066Y47534646D01*
X52590019Y47540333D01*
X52714096Y47557836D01*
X52811728Y47599253D01*
X52865693Y47653629D01*
X52861772Y47667333D01*
X52747334Y47667333D01*
X52711106Y47635511D01*
X52641500Y47625000D01*
X52561943Y47639491D01*
X52535667Y47667333D01*
X52571895Y47699156D01*
X52641500Y47709667D01*
X52721058Y47695176D01*
X52747334Y47667333D01*
X52861772Y47667333D01*
X52850156Y47707922D01*
X52835802Y47726253D01*
X52750768Y47778038D01*
X52636978Y47789659D01*
X52523048Y47766441D01*
X52437592Y47713710D01*
X52408667Y47646749D01*
X52373239Y47597082D01*
X52280967Y47526087D01*
X52152867Y47445697D01*
X52009955Y47367842D01*
X51873247Y47304455D01*
X51763760Y47267466D01*
X51732253Y47262732D01*
X51574015Y47252549D01*
X51480468Y47238808D01*
X51431651Y47216214D01*
X51407609Y47179469D01*
X51406337Y47176228D01*
X51410344Y47101633D01*
X51433995Y47075288D01*
X51433528Y47035659D01*
X51374906Y46966236D01*
X51273966Y46878390D01*
X51146541Y46783487D01*
X51008466Y46692898D01*
X50875575Y46617989D01*
X50763701Y46570131D01*
X50715334Y46559307D01*
X50588264Y46524197D01*
X50527017Y46454055D01*
X50467148Y46379673D01*
X50351063Y46280065D01*
X50198248Y46167921D01*
X50028190Y46055926D01*
X49860379Y45956768D01*
X49714300Y45883134D01*
X49609441Y45847710D01*
X49593500Y45846302D01*
X49450748Y45826281D01*
X49371486Y45763559D01*
X49355387Y45727449D01*
X49310900Y45688392D01*
X49205191Y45627626D01*
X49055772Y45554577D01*
X48936289Y45501915D01*
X48648223Y45380975D01*
X48431582Y45291932D01*
X48280337Y45232496D01*
X48188457Y45200376D01*
X48149910Y45193280D01*
X48154167Y45204820D01*
X48215795Y45253613D01*
X48339569Y45342377D01*
X48516496Y45465168D01*
X48610181Y45529100D01*
X48076844Y45529100D01*
X48038313Y45475997D01*
X47923513Y45386173D01*
X47802032Y45304255D01*
X47647609Y45198632D01*
X47518621Y45100620D01*
X47433375Y45024615D01*
X47411753Y44997380D01*
X47364586Y44925336D01*
X47346986Y44929625D01*
X47365160Y45005200D01*
X47373621Y45028394D01*
X47394383Y45138800D01*
X47373152Y45184449D01*
X47358251Y45246564D01*
X47419627Y45318525D01*
X47550285Y45394862D01*
X47735092Y45467417D01*
X47925206Y45524875D01*
X48039133Y45545414D01*
X48076844Y45529100D01*
X48610181Y45529100D01*
X48737586Y45616042D01*
X48993849Y45789054D01*
X49276294Y45978261D01*
X49575930Y46177720D01*
X49883765Y46381485D01*
X50190810Y46583613D01*
X50488074Y46778161D01*
X50766565Y46959183D01*
X51017293Y47120737D01*
X51231268Y47256878D01*
X51399497Y47361662D01*
X51512991Y47429145D01*
X51543769Y47445739D01*
X51760004Y47551015D01*
X52013250Y47669545D01*
X52288675Y47794865D01*
X52571446Y47920509D01*
X52846731Y48040010D01*
X53099697Y48146904D01*
X53315511Y48234724D01*
X53479340Y48297005D01*
X53551289Y48320835D01*
X53783743Y48388498D01*
X54136721Y48388498D01*
X54161825Y48421718D01*
X54194031Y48481257D01*
X54197155Y48492726D01*
X54199165Y48602858D01*
X54144794Y48662377D01*
X54022756Y48682413D01*
X54004524Y48682685D01*
X53857107Y48671719D01*
X53678728Y48635561D01*
X53461724Y48571527D01*
X53198432Y48476933D01*
X52881189Y48349095D01*
X52502331Y48185329D01*
X52210820Y48054447D01*
X51916246Y47920310D01*
X51671644Y47807135D01*
X51463720Y47707311D01*
X51279177Y47613228D01*
X51104720Y47517278D01*
X50927054Y47411849D01*
X50732882Y47289334D01*
X50508910Y47142121D01*
X50241842Y46962601D01*
X49918383Y46743165D01*
X49911000Y46738149D01*
X49613546Y46535869D01*
X49326847Y46340560D01*
X49061401Y46159400D01*
X48827705Y45999564D01*
X48636256Y45868230D01*
X48497552Y45772575D01*
X48440617Y45732906D01*
X48320453Y45653952D01*
X48235724Y45609059D01*
X48200762Y45605448D01*
X48201729Y45612527D01*
X48215099Y45652627D01*
X48204841Y45671348D01*
X48154319Y45669855D01*
X48046898Y45649316D01*
X47955168Y45629819D01*
X47756243Y45576471D01*
X47564443Y45506138D01*
X47400791Y45428305D01*
X47286311Y45352459D01*
X47249816Y45311582D01*
X47212323Y45258140D01*
X47199694Y45254333D01*
X47192986Y45305670D01*
X47181337Y45410662D01*
X47175543Y45466000D01*
X47133207Y45707467D01*
X47052001Y45945051D01*
X46923407Y46198933D01*
X46751180Y46471251D01*
X46643206Y46636118D01*
X46555884Y46780135D01*
X46499034Y46886394D01*
X46482000Y46934722D01*
X46508059Y47026341D01*
X46571985Y47144568D01*
X46652405Y47255525D01*
X46727944Y47325333D01*
X46728708Y47325768D01*
X46773918Y47371749D01*
X46752266Y47413482D01*
X46696755Y47418829D01*
X46620491Y47365495D01*
X46537752Y47271880D01*
X46462815Y47156383D01*
X46409957Y47037403D01*
X46393116Y46950630D01*
X46385550Y46935296D01*
X46367504Y46993443D01*
X46341316Y47114861D01*
X46309323Y47289339D01*
X46292062Y47392167D01*
X46246757Y47666019D01*
X46210100Y47873465D01*
X46177652Y48031748D01*
X46144974Y48158113D01*
X46107628Y48269801D01*
X46061173Y48384057D01*
X46003518Y48512972D01*
X45943207Y48651942D01*
X45862122Y48848058D01*
X45769224Y49079193D01*
X45673471Y49323220D01*
X45634231Y49425087D01*
X45547717Y49647408D01*
X45472205Y49828285D01*
X45397792Y49985513D01*
X45314580Y50136887D01*
X45212667Y50300202D01*
X45082154Y50493255D01*
X44913140Y50733839D01*
X44880571Y50779753D01*
X44703500Y51027372D01*
X44564291Y51216234D01*
X44453106Y51357534D01*
X44360109Y51462468D01*
X44275463Y51542231D01*
X44189331Y51608019D01*
X44104063Y51663509D01*
X43837770Y51828517D01*
X43606287Y51769342D01*
G36*
X42298352Y47353633D02*
X42296894Y47352881D01*
X42149330Y47250136D01*
X41984157Y47093368D01*
X41820933Y46904630D01*
X41679214Y46705973D01*
X41601022Y46568266D01*
X41547154Y46454895D01*
X41509453Y46357664D01*
X41484550Y46256950D01*
X41469077Y46133130D01*
X41459666Y45966582D01*
X41452948Y45737683D01*
X41452051Y45700433D01*
X41447996Y45448232D01*
X41451392Y45247187D01*
X41465052Y45068267D01*
X41491790Y44882441D01*
X41534418Y44660679D01*
X41568345Y44500378D01*
X41627280Y44233349D01*
X41677345Y44031911D01*
X41725882Y43878553D01*
X41780230Y43755763D01*
X41847732Y43646033D01*
X41935725Y43531851D01*
X42012390Y43441127D01*
X42108628Y43324659D01*
X42178030Y43232145D01*
X42206260Y43182758D01*
X42206334Y43181741D01*
X42244495Y43157233D01*
X42346608Y43120083D01*
X42494119Y43076656D01*
X42571869Y43056384D01*
X42757803Y43006936D01*
X42930234Y42956204D01*
X43059209Y42913142D01*
X43085039Y42903019D01*
X43235355Y42857620D01*
X43396088Y42849098D01*
X43585918Y42879273D01*
X43823523Y42949961D01*
X43920834Y42984394D01*
X44125058Y43061597D01*
X44370416Y43158512D01*
X44620598Y43260636D01*
X44771667Y43324249D01*
X44981379Y43417003D01*
X45141573Y43498600D01*
X45277735Y43585906D01*
X45415351Y43695788D01*
X45579906Y43845112D01*
X45630150Y43892385D01*
X46018800Y44259500D01*
X45986039Y44402036D01*
X45703030Y44402036D01*
X45681962Y44338807D01*
X45604579Y44241156D01*
X45485121Y44121460D01*
X45337828Y43992102D01*
X45176937Y43865461D01*
X45016689Y43753917D01*
X44871324Y43669852D01*
X44848095Y43658713D01*
X44618239Y43556814D01*
X44371527Y43454370D01*
X44122286Y43356585D01*
X43884843Y43268664D01*
X43673524Y43195811D01*
X43502654Y43143230D01*
X43386561Y43116127D01*
X43349334Y43114230D01*
X43228783Y43142919D01*
X43121213Y43178104D01*
X43041428Y43213953D01*
X43014718Y43237337D01*
X43015379Y43238048D01*
X43055902Y43260683D01*
X43160855Y43317077D01*
X43319706Y43401634D01*
X43521920Y43508757D01*
X43756965Y43632850D01*
X43925080Y43721391D01*
X44249424Y43889628D01*
X44505001Y44016639D01*
X44695923Y44104290D01*
X44826304Y44154447D01*
X44900257Y44168976D01*
X44908815Y44167725D01*
X44995112Y44172118D01*
X45033241Y44226004D01*
X45029953Y44242242D01*
X44722751Y44242242D01*
X44694233Y44212599D01*
X44602270Y44151679D01*
X44459151Y44066056D01*
X44277166Y43962305D01*
X44068603Y43847002D01*
X43845752Y43726722D01*
X43620901Y43608038D01*
X43406341Y43497528D01*
X43214359Y43401764D01*
X43057245Y43327323D01*
X42947289Y43280780D01*
X42901934Y43268061D01*
X42810945Y43277882D01*
X42678359Y43306671D01*
X42605432Y43326714D01*
X42457536Y43385559D01*
X42339965Y43475292D01*
X42240801Y43590656D01*
X42160492Y43698820D01*
X42108634Y43776524D01*
X42096693Y43804137D01*
X42139296Y43818539D01*
X42250064Y43851170D01*
X42415430Y43898165D01*
X42621827Y43955656D01*
X42802890Y44005386D01*
X43036611Y44070277D01*
X43244304Y44129958D01*
X43411056Y44179986D01*
X43521957Y44215917D01*
X43559312Y44230824D01*
X43644893Y44243062D01*
X43740129Y44221678D01*
X43857687Y44198740D01*
X43942326Y44228713D01*
X44019981Y44252623D01*
X44149233Y44269381D01*
X44305883Y44278567D01*
X44465728Y44279763D01*
X44604567Y44272548D01*
X44698200Y44256502D01*
X44722751Y44242242D01*
X45029953Y44242242D01*
X45017884Y44301833D01*
X44915667Y44301833D01*
X44907714Y44248295D01*
X44865822Y44245531D01*
X44813296Y44264029D01*
X44770805Y44295510D01*
X43842268Y44295510D01*
X43798389Y44281015D01*
X43777851Y44280667D01*
X43716732Y44301833D01*
X43565414Y44301833D01*
X43523299Y44280370D01*
X43415327Y44241331D01*
X43257324Y44189428D01*
X43065112Y44129376D01*
X42854516Y44065885D01*
X42641361Y44003670D01*
X42441470Y43947442D01*
X42270667Y43901914D01*
X42144776Y43871800D01*
X42089010Y43862133D01*
X42033140Y43892782D01*
X41994750Y43952583D01*
X41969499Y44027791D01*
X41932378Y44156306D01*
X41889542Y44314472D01*
X41847143Y44478634D01*
X41811334Y44625139D01*
X41788269Y44730329D01*
X41783000Y44766611D01*
X41821875Y44779676D01*
X41925539Y44785140D01*
X42074551Y44783996D01*
X42249472Y44777236D01*
X42430861Y44765854D01*
X42599278Y44750843D01*
X42735282Y44733197D01*
X42819434Y44713908D01*
X42820167Y44713625D01*
X42947848Y44670330D01*
X43053000Y44642901D01*
X43146981Y44608966D01*
X43265541Y44546477D01*
X43387338Y44469638D01*
X43491032Y44392655D01*
X43555279Y44329733D01*
X43565414Y44301833D01*
X43716732Y44301833D01*
X43704858Y44305945D01*
X43688000Y44344167D01*
X43708105Y44400542D01*
X43725150Y44407667D01*
X43780321Y44378704D01*
X43815000Y44344167D01*
X43842268Y44295510D01*
X44770805Y44295510D01*
X44751751Y44309626D01*
X44766784Y44351587D01*
X44831000Y44365333D01*
X44899953Y44338864D01*
X44915667Y44301833D01*
X45017884Y44301833D01*
X45017155Y44305430D01*
X44960370Y44371927D01*
X44850235Y44431511D01*
X44739339Y44447111D01*
X44656301Y44417448D01*
X44634643Y44386500D01*
X44579885Y44349128D01*
X44466335Y44326377D01*
X44318558Y44318032D01*
X44161118Y44323880D01*
X44018582Y44343705D01*
X43915512Y44377296D01*
X43892521Y44392967D01*
X43801892Y44439211D01*
X43672282Y44467541D01*
X43635188Y44470397D01*
X43477076Y44501619D01*
X43306981Y44573042D01*
X43152669Y44669068D01*
X43041910Y44774097D01*
X43028904Y44795207D01*
X42916785Y44795207D01*
X42904281Y44753147D01*
X42860301Y44752874D01*
X42786057Y44793475D01*
X42765883Y44824460D01*
X42778387Y44866520D01*
X42822367Y44866793D01*
X42896611Y44826192D01*
X42916785Y44795207D01*
X43028904Y44795207D01*
X43014051Y44819312D01*
X42934577Y44905754D01*
X42866503Y44933748D01*
X42659289Y44933748D01*
X42615254Y44872789D01*
X42515520Y44842259D01*
X42348670Y44831865D01*
X42229831Y44831000D01*
X42028676Y44834490D01*
X41896259Y44846491D01*
X41816882Y44869306D01*
X41781137Y44896745D01*
X41761340Y44955537D01*
X41741360Y45072148D01*
X41722793Y45226237D01*
X41707238Y45397465D01*
X41696290Y45565492D01*
X41691546Y45709977D01*
X41694603Y45810581D01*
X41706537Y45847000D01*
X41753028Y45834317D01*
X41858535Y45800750D01*
X42002038Y45753027D01*
X42032262Y45742778D01*
X42278784Y45637741D01*
X42453603Y45509881D01*
X42568910Y45347812D01*
X42625932Y45188129D01*
X42659043Y45035430D01*
X42659289Y44933748D01*
X42866503Y44933748D01*
X42845665Y44942317D01*
X42755117Y44977378D01*
X42708751Y45053556D01*
X42694548Y45113692D01*
X42669303Y45230919D01*
X42645254Y45316977D01*
X42643822Y45320840D01*
X42653968Y45370702D01*
X42707306Y45381333D01*
X42800720Y45404403D01*
X42823491Y45464606D01*
X42813679Y45480843D01*
X42699268Y45480843D01*
X42655389Y45466348D01*
X42634851Y45466000D01*
X42561858Y45491279D01*
X42545000Y45529500D01*
X42565105Y45585875D01*
X42582150Y45593000D01*
X42637321Y45564037D01*
X42672000Y45529500D01*
X42699268Y45480843D01*
X42813679Y45480843D01*
X42772827Y45548438D01*
X42746867Y45572795D01*
X42638832Y45665722D01*
X42750666Y45843148D01*
X42825965Y45950485D01*
X42887602Y45997968D01*
X42958996Y46001860D01*
X42975225Y45999084D01*
X43090042Y46001156D01*
X43148369Y46049749D01*
X43148156Y46051618D01*
X42804421Y46051618D01*
X42760204Y45939130D01*
X42685834Y45821224D01*
X42597232Y45724023D01*
X42525773Y45678334D01*
X42447198Y45677408D01*
X42314276Y45702842D01*
X42150577Y45747872D01*
X41979671Y45805732D01*
X41825128Y45869658D01*
X41777639Y45893062D01*
X41737275Y45958663D01*
X41736680Y46079688D01*
X41772468Y46238719D01*
X41841257Y46418335D01*
X41903338Y46540132D01*
X41993165Y46690195D01*
X42067105Y46774791D01*
X42142557Y46795501D01*
X42236923Y46753907D01*
X42367602Y46651587D01*
X42439798Y46588870D01*
X42569211Y46469951D01*
X42672539Y46365082D01*
X42733639Y46291059D01*
X42742666Y46273759D01*
X42780288Y46178060D01*
X42802567Y46132562D01*
X42804421Y46051618D01*
X43148156Y46051618D01*
X43142375Y46102329D01*
X43053000Y46102329D01*
X43026474Y46061720D01*
X42949024Y46086299D01*
X42927226Y46099347D01*
X42888043Y46145831D01*
X42893651Y46167428D01*
X42954001Y46179605D01*
X43023220Y46149891D01*
X43053000Y46102329D01*
X43142375Y46102329D01*
X43139371Y46128671D01*
X43098166Y46182834D01*
X43003479Y46247674D01*
X42920302Y46270333D01*
X42843783Y46299941D01*
X42729701Y46380096D01*
X42596444Y46497797D01*
X42590533Y46503533D01*
X42462413Y46625001D01*
X42345247Y46730337D01*
X42261924Y46799049D01*
X42254474Y46804431D01*
X42157819Y46872131D01*
X42252956Y46973399D01*
X42336612Y47043934D01*
X42407470Y47074624D01*
X42409299Y47074667D01*
X42457050Y47051556D01*
X42566490Y46985724D01*
X42729543Y46882422D01*
X42938133Y46746903D01*
X43184187Y46584419D01*
X43459627Y46400220D01*
X43756378Y46199560D01*
X43788336Y46177823D01*
X44188982Y45905376D01*
X44525620Y45676467D01*
X44803938Y45486560D01*
X45029625Y45331119D01*
X45208367Y45205609D01*
X45345852Y45105494D01*
X45447769Y45026239D01*
X45519804Y44963307D01*
X45567646Y44912163D01*
X45596981Y44868271D01*
X45613499Y44827097D01*
X45622885Y44784103D01*
X45630829Y44734755D01*
X45636494Y44704000D01*
X45666164Y44561792D01*
X45691869Y44446691D01*
X45703030Y44402036D01*
X45986039Y44402036D01*
X45919147Y44693059D01*
X45876468Y44873085D01*
X45839274Y45019608D01*
X45812255Y45114751D01*
X45801497Y45141627D01*
X45756674Y45173574D01*
X45650236Y45246945D01*
X45490787Y45355923D01*
X45286932Y45494693D01*
X45047278Y45657441D01*
X44780428Y45838351D01*
X44494989Y46031608D01*
X44199565Y46231395D01*
X43902761Y46431899D01*
X43613183Y46627303D01*
X43339436Y46811792D01*
X43090124Y46979551D01*
X42873854Y47124764D01*
X42699230Y47241617D01*
X42574857Y47324294D01*
X42509341Y47366979D01*
X42502441Y47371121D01*
X42410854Y47392155D01*
X42298352Y47353633D01*
X42298352Y47353633D01*
G37*
X42298352Y47353633D02*
X42296894Y47352881D01*
X42149330Y47250136D01*
X41984157Y47093368D01*
X41820933Y46904630D01*
X41679214Y46705973D01*
X41601022Y46568266D01*
X41547154Y46454895D01*
X41509453Y46357664D01*
X41484550Y46256950D01*
X41469077Y46133130D01*
X41459666Y45966582D01*
X41452948Y45737683D01*
X41452051Y45700433D01*
X41447996Y45448232D01*
X41451392Y45247187D01*
X41465052Y45068267D01*
X41491790Y44882441D01*
X41534418Y44660679D01*
X41568345Y44500378D01*
X41627280Y44233349D01*
X41677345Y44031911D01*
X41725882Y43878553D01*
X41780230Y43755763D01*
X41847732Y43646033D01*
X41935725Y43531851D01*
X42012390Y43441127D01*
X42108628Y43324659D01*
X42178030Y43232145D01*
X42206260Y43182758D01*
X42206334Y43181741D01*
X42244495Y43157233D01*
X42346608Y43120083D01*
X42494119Y43076656D01*
X42571869Y43056384D01*
X42757803Y43006936D01*
X42930234Y42956204D01*
X43059209Y42913142D01*
X43085039Y42903019D01*
X43235355Y42857620D01*
X43396088Y42849098D01*
X43585918Y42879273D01*
X43823523Y42949961D01*
X43920834Y42984394D01*
X44125058Y43061597D01*
X44370416Y43158512D01*
X44620598Y43260636D01*
X44771667Y43324249D01*
X44981379Y43417003D01*
X45141573Y43498600D01*
X45277735Y43585906D01*
X45415351Y43695788D01*
X45579906Y43845112D01*
X45630150Y43892385D01*
X46018800Y44259500D01*
X45986039Y44402036D01*
X45703030Y44402036D01*
X45681962Y44338807D01*
X45604579Y44241156D01*
X45485121Y44121460D01*
X45337828Y43992102D01*
X45176937Y43865461D01*
X45016689Y43753917D01*
X44871324Y43669852D01*
X44848095Y43658713D01*
X44618239Y43556814D01*
X44371527Y43454370D01*
X44122286Y43356585D01*
X43884843Y43268664D01*
X43673524Y43195811D01*
X43502654Y43143230D01*
X43386561Y43116127D01*
X43349334Y43114230D01*
X43228783Y43142919D01*
X43121213Y43178104D01*
X43041428Y43213953D01*
X43014718Y43237337D01*
X43015379Y43238048D01*
X43055902Y43260683D01*
X43160855Y43317077D01*
X43319706Y43401634D01*
X43521920Y43508757D01*
X43756965Y43632850D01*
X43925080Y43721391D01*
X44249424Y43889628D01*
X44505001Y44016639D01*
X44695923Y44104290D01*
X44826304Y44154447D01*
X44900257Y44168976D01*
X44908815Y44167725D01*
X44995112Y44172118D01*
X45033241Y44226004D01*
X45029953Y44242242D01*
X44722751Y44242242D01*
X44694233Y44212599D01*
X44602270Y44151679D01*
X44459151Y44066056D01*
X44277166Y43962305D01*
X44068603Y43847002D01*
X43845752Y43726722D01*
X43620901Y43608038D01*
X43406341Y43497528D01*
X43214359Y43401764D01*
X43057245Y43327323D01*
X42947289Y43280780D01*
X42901934Y43268061D01*
X42810945Y43277882D01*
X42678359Y43306671D01*
X42605432Y43326714D01*
X42457536Y43385559D01*
X42339965Y43475292D01*
X42240801Y43590656D01*
X42160492Y43698820D01*
X42108634Y43776524D01*
X42096693Y43804137D01*
X42139296Y43818539D01*
X42250064Y43851170D01*
X42415430Y43898165D01*
X42621827Y43955656D01*
X42802890Y44005386D01*
X43036611Y44070277D01*
X43244304Y44129958D01*
X43411056Y44179986D01*
X43521957Y44215917D01*
X43559312Y44230824D01*
X43644893Y44243062D01*
X43740129Y44221678D01*
X43857687Y44198740D01*
X43942326Y44228713D01*
X44019981Y44252623D01*
X44149233Y44269381D01*
X44305883Y44278567D01*
X44465728Y44279763D01*
X44604567Y44272548D01*
X44698200Y44256502D01*
X44722751Y44242242D01*
X45029953Y44242242D01*
X45017884Y44301833D01*
X44915667Y44301833D01*
X44907714Y44248295D01*
X44865822Y44245531D01*
X44813296Y44264029D01*
X44770805Y44295510D01*
X43842268Y44295510D01*
X43798389Y44281015D01*
X43777851Y44280667D01*
X43716732Y44301833D01*
X43565414Y44301833D01*
X43523299Y44280370D01*
X43415327Y44241331D01*
X43257324Y44189428D01*
X43065112Y44129376D01*
X42854516Y44065885D01*
X42641361Y44003670D01*
X42441470Y43947442D01*
X42270667Y43901914D01*
X42144776Y43871800D01*
X42089010Y43862133D01*
X42033140Y43892782D01*
X41994750Y43952583D01*
X41969499Y44027791D01*
X41932378Y44156306D01*
X41889542Y44314472D01*
X41847143Y44478634D01*
X41811334Y44625139D01*
X41788269Y44730329D01*
X41783000Y44766611D01*
X41821875Y44779676D01*
X41925539Y44785140D01*
X42074551Y44783996D01*
X42249472Y44777236D01*
X42430861Y44765854D01*
X42599278Y44750843D01*
X42735282Y44733197D01*
X42819434Y44713908D01*
X42820167Y44713625D01*
X42947848Y44670330D01*
X43053000Y44642901D01*
X43146981Y44608966D01*
X43265541Y44546477D01*
X43387338Y44469638D01*
X43491032Y44392655D01*
X43555279Y44329733D01*
X43565414Y44301833D01*
X43716732Y44301833D01*
X43704858Y44305945D01*
X43688000Y44344167D01*
X43708105Y44400542D01*
X43725150Y44407667D01*
X43780321Y44378704D01*
X43815000Y44344167D01*
X43842268Y44295510D01*
X44770805Y44295510D01*
X44751751Y44309626D01*
X44766784Y44351587D01*
X44831000Y44365333D01*
X44899953Y44338864D01*
X44915667Y44301833D01*
X45017884Y44301833D01*
X45017155Y44305430D01*
X44960370Y44371927D01*
X44850235Y44431511D01*
X44739339Y44447111D01*
X44656301Y44417448D01*
X44634643Y44386500D01*
X44579885Y44349128D01*
X44466335Y44326377D01*
X44318558Y44318032D01*
X44161118Y44323880D01*
X44018582Y44343705D01*
X43915512Y44377296D01*
X43892521Y44392967D01*
X43801892Y44439211D01*
X43672282Y44467541D01*
X43635188Y44470397D01*
X43477076Y44501619D01*
X43306981Y44573042D01*
X43152669Y44669068D01*
X43041910Y44774097D01*
X43028904Y44795207D01*
X42916785Y44795207D01*
X42904281Y44753147D01*
X42860301Y44752874D01*
X42786057Y44793475D01*
X42765883Y44824460D01*
X42778387Y44866520D01*
X42822367Y44866793D01*
X42896611Y44826192D01*
X42916785Y44795207D01*
X43028904Y44795207D01*
X43014051Y44819312D01*
X42934577Y44905754D01*
X42866503Y44933748D01*
X42659289Y44933748D01*
X42615254Y44872789D01*
X42515520Y44842259D01*
X42348670Y44831865D01*
X42229831Y44831000D01*
X42028676Y44834490D01*
X41896259Y44846491D01*
X41816882Y44869306D01*
X41781137Y44896745D01*
X41761340Y44955537D01*
X41741360Y45072148D01*
X41722793Y45226237D01*
X41707238Y45397465D01*
X41696290Y45565492D01*
X41691546Y45709977D01*
X41694603Y45810581D01*
X41706537Y45847000D01*
X41753028Y45834317D01*
X41858535Y45800750D01*
X42002038Y45753027D01*
X42032262Y45742778D01*
X42278784Y45637741D01*
X42453603Y45509881D01*
X42568910Y45347812D01*
X42625932Y45188129D01*
X42659043Y45035430D01*
X42659289Y44933748D01*
X42866503Y44933748D01*
X42845665Y44942317D01*
X42755117Y44977378D01*
X42708751Y45053556D01*
X42694548Y45113692D01*
X42669303Y45230919D01*
X42645254Y45316977D01*
X42643822Y45320840D01*
X42653968Y45370702D01*
X42707306Y45381333D01*
X42800720Y45404403D01*
X42823491Y45464606D01*
X42813679Y45480843D01*
X42699268Y45480843D01*
X42655389Y45466348D01*
X42634851Y45466000D01*
X42561858Y45491279D01*
X42545000Y45529500D01*
X42565105Y45585875D01*
X42582150Y45593000D01*
X42637321Y45564037D01*
X42672000Y45529500D01*
X42699268Y45480843D01*
X42813679Y45480843D01*
X42772827Y45548438D01*
X42746867Y45572795D01*
X42638832Y45665722D01*
X42750666Y45843148D01*
X42825965Y45950485D01*
X42887602Y45997968D01*
X42958996Y46001860D01*
X42975225Y45999084D01*
X43090042Y46001156D01*
X43148369Y46049749D01*
X43148156Y46051618D01*
X42804421Y46051618D01*
X42760204Y45939130D01*
X42685834Y45821224D01*
X42597232Y45724023D01*
X42525773Y45678334D01*
X42447198Y45677408D01*
X42314276Y45702842D01*
X42150577Y45747872D01*
X41979671Y45805732D01*
X41825128Y45869658D01*
X41777639Y45893062D01*
X41737275Y45958663D01*
X41736680Y46079688D01*
X41772468Y46238719D01*
X41841257Y46418335D01*
X41903338Y46540132D01*
X41993165Y46690195D01*
X42067105Y46774791D01*
X42142557Y46795501D01*
X42236923Y46753907D01*
X42367602Y46651587D01*
X42439798Y46588870D01*
X42569211Y46469951D01*
X42672539Y46365082D01*
X42733639Y46291059D01*
X42742666Y46273759D01*
X42780288Y46178060D01*
X42802567Y46132562D01*
X42804421Y46051618D01*
X43148156Y46051618D01*
X43142375Y46102329D01*
X43053000Y46102329D01*
X43026474Y46061720D01*
X42949024Y46086299D01*
X42927226Y46099347D01*
X42888043Y46145831D01*
X42893651Y46167428D01*
X42954001Y46179605D01*
X43023220Y46149891D01*
X43053000Y46102329D01*
X43142375Y46102329D01*
X43139371Y46128671D01*
X43098166Y46182834D01*
X43003479Y46247674D01*
X42920302Y46270333D01*
X42843783Y46299941D01*
X42729701Y46380096D01*
X42596444Y46497797D01*
X42590533Y46503533D01*
X42462413Y46625001D01*
X42345247Y46730337D01*
X42261924Y46799049D01*
X42254474Y46804431D01*
X42157819Y46872131D01*
X42252956Y46973399D01*
X42336612Y47043934D01*
X42407470Y47074624D01*
X42409299Y47074667D01*
X42457050Y47051556D01*
X42566490Y46985724D01*
X42729543Y46882422D01*
X42938133Y46746903D01*
X43184187Y46584419D01*
X43459627Y46400220D01*
X43756378Y46199560D01*
X43788336Y46177823D01*
X44188982Y45905376D01*
X44525620Y45676467D01*
X44803938Y45486560D01*
X45029625Y45331119D01*
X45208367Y45205609D01*
X45345852Y45105494D01*
X45447769Y45026239D01*
X45519804Y44963307D01*
X45567646Y44912163D01*
X45596981Y44868271D01*
X45613499Y44827097D01*
X45622885Y44784103D01*
X45630829Y44734755D01*
X45636494Y44704000D01*
X45666164Y44561792D01*
X45691869Y44446691D01*
X45703030Y44402036D01*
X45986039Y44402036D01*
X45919147Y44693059D01*
X45876468Y44873085D01*
X45839274Y45019608D01*
X45812255Y45114751D01*
X45801497Y45141627D01*
X45756674Y45173574D01*
X45650236Y45246945D01*
X45490787Y45355923D01*
X45286932Y45494693D01*
X45047278Y45657441D01*
X44780428Y45838351D01*
X44494989Y46031608D01*
X44199565Y46231395D01*
X43902761Y46431899D01*
X43613183Y46627303D01*
X43339436Y46811792D01*
X43090124Y46979551D01*
X42873854Y47124764D01*
X42699230Y47241617D01*
X42574857Y47324294D01*
X42509341Y47366979D01*
X42502441Y47371121D01*
X42410854Y47392155D01*
X42298352Y47353633D01*
G36*
X7246490Y23199811D02*
X6994226Y23199061D01*
X6750928Y23197928D01*
X6520263Y23196409D01*
X6305893Y23194505D01*
X6111482Y23192216D01*
X5940696Y23189542D01*
X5797197Y23186484D01*
X5684651Y23183040D01*
X5606722Y23179212D01*
X5567073Y23174998D01*
X5565272Y23174531D01*
X5467133Y23126931D01*
X5395637Y23056060D01*
X5351658Y22969890D01*
X5336069Y22876392D01*
X5349743Y22783538D01*
X5393555Y22699299D01*
X5468377Y22631647D01*
X5503708Y22612595D01*
X5586908Y22574250D01*
X5587454Y20598478D01*
X5588000Y18622707D01*
X5018407Y17635145D01*
X4897683Y17425846D01*
X4760137Y17187407D01*
X4610112Y16927355D01*
X4451949Y16653213D01*
X4289989Y16372506D01*
X4128575Y16092761D01*
X3972048Y15821500D01*
X3824749Y15566250D01*
X3758991Y15452306D01*
X3640044Y15245703D01*
X3527588Y15049405D01*
X3423389Y14866556D01*
X3329214Y14700305D01*
X3246830Y14553797D01*
X3178003Y14430179D01*
X3124500Y14332596D01*
X3088087Y14264197D01*
X3070530Y14228126D01*
X3069166Y14223660D01*
X3079653Y14196194D01*
X3109393Y14136892D01*
X3155806Y14050187D01*
X3216310Y13940512D01*
X3288324Y13812300D01*
X3369269Y13669984D01*
X3456564Y13517995D01*
X3547627Y13360768D01*
X3639878Y13202735D01*
X3730736Y13048327D01*
X3817620Y12901980D01*
X3897950Y12768124D01*
X3969145Y12651193D01*
X4028624Y12555620D01*
X4073806Y12485836D01*
X4102111Y12446276D01*
X4107200Y12440708D01*
X4170501Y12382500D01*
X11069499Y12382500D01*
X11132800Y12440708D01*
X11155191Y12469671D01*
X11195281Y12530282D01*
X11250488Y12618106D01*
X11318232Y12728711D01*
X11395933Y12857662D01*
X11481010Y13000526D01*
X11570882Y13152871D01*
X11662969Y13310262D01*
X11754691Y13468265D01*
X11843466Y13622448D01*
X11926715Y13768377D01*
X12001856Y13901618D01*
X12066309Y14017739D01*
X12117494Y14112305D01*
X12152830Y14180882D01*
X12169737Y14219039D01*
X12170833Y14224089D01*
X12162480Y14244349D01*
X11497576Y14244349D01*
X11131322Y13609758D01*
X10765068Y12975166D01*
X4475128Y12975166D01*
X4108407Y13610836D01*
X3741685Y14246505D01*
X3885830Y14494544D01*
X3950522Y14606554D01*
X4018145Y14724793D01*
X4080401Y14834690D01*
X4126362Y14916913D01*
X4222750Y15091243D01*
X5566624Y15091538D01*
X6910499Y15091833D01*
X6516335Y14694958D01*
X6409699Y14586863D01*
X6312344Y14486792D01*
X6228481Y14399187D01*
X6162323Y14328487D01*
X6118080Y14279132D01*
X6100357Y14256404D01*
X6090608Y14206359D01*
X6107060Y14159578D01*
X6140409Y14111906D01*
X6194258Y14052228D01*
X6259935Y13988306D01*
X6328772Y13927901D01*
X6392098Y13878774D01*
X6441243Y13848688D01*
X6460693Y13843000D01*
X6490490Y13857066D01*
X6545617Y13899690D01*
X6626789Y13971515D01*
X6734719Y14073181D01*
X6870122Y14205330D01*
X6925585Y14260345D01*
X7344833Y14677689D01*
X7344833Y14097970D01*
X7345085Y13923588D01*
X7346025Y13786651D01*
X7347931Y13682271D01*
X7351078Y13605560D01*
X7355744Y13551631D01*
X7362206Y13515598D01*
X7370740Y13492573D01*
X7379864Y13479542D01*
X7402311Y13461560D01*
X7436256Y13450053D01*
X7490424Y13443683D01*
X7573540Y13441113D01*
X7632327Y13440833D01*
X7730657Y13441349D01*
X7795930Y13444239D01*
X7837424Y13451520D01*
X7864413Y13465207D01*
X7886173Y13487317D01*
X7894595Y13497830D01*
X7908104Y13516506D01*
X7918510Y13537472D01*
X7926144Y13565998D01*
X7931336Y13607354D01*
X7934419Y13666810D01*
X7935723Y13749637D01*
X7935580Y13861105D01*
X7934321Y14006484D01*
X7933173Y14111681D01*
X7931551Y14260226D01*
X7930181Y14393838D01*
X7929114Y14506994D01*
X7928399Y14594169D01*
X7928084Y14649840D01*
X7928204Y14668517D01*
X7942833Y14654147D01*
X7983436Y14613631D01*
X8046140Y14550849D01*
X8127075Y14469680D01*
X8222371Y14374004D01*
X8328157Y14267700D01*
X8330371Y14265474D01*
X8438939Y14157678D01*
X8540071Y14059822D01*
X8629319Y13976007D01*
X8702236Y13910336D01*
X8754375Y13866911D01*
X8780883Y13849925D01*
X8808124Y13849130D01*
X8840707Y13863243D01*
X8885033Y13896801D01*
X8947500Y13954341D01*
X8997841Y14003746D01*
X9080844Y14089790D01*
X9133977Y14153899D01*
X9160558Y14200424D01*
X9165166Y14223305D01*
X9158064Y14247256D01*
X9134971Y14283541D01*
X9093213Y14335188D01*
X9030111Y14405227D01*
X8942990Y14496688D01*
X8829172Y14612598D01*
X8757912Y14684176D01*
X8350657Y15091833D01*
X8920589Y15091833D01*
X9106348Y15091686D01*
X9254117Y15092542D01*
X9368228Y15096347D01*
X9453015Y15105048D01*
X9512810Y15120591D01*
X9551946Y15144921D01*
X9574756Y15179987D01*
X9585572Y15227733D01*
X9588728Y15290105D01*
X9588555Y15369051D01*
X9588500Y15391856D01*
X9589000Y15473683D01*
X9587602Y15538693D01*
X9579955Y15588813D01*
X9561710Y15625969D01*
X9528518Y15652088D01*
X9476029Y15669095D01*
X9399895Y15678918D01*
X9295765Y15683482D01*
X9159290Y15684713D01*
X8986120Y15684538D01*
X8927738Y15684500D01*
X8351644Y15684500D01*
X8768988Y16103748D01*
X8888135Y16224838D01*
X8991460Y16332644D01*
X9075931Y16423829D01*
X9138514Y16495058D01*
X9176175Y16542995D01*
X9186333Y16562680D01*
X9171004Y16598143D01*
X9130304Y16652031D01*
X9072164Y16716635D01*
X9004515Y16784243D01*
X8935288Y16847145D01*
X8872413Y16897629D01*
X8823821Y16927986D01*
X8805096Y16933333D01*
X8779856Y16924348D01*
X8738576Y16895912D01*
X8678751Y16845802D01*
X8597879Y16771796D01*
X8493455Y16671670D01*
X8362976Y16543203D01*
X8340873Y16521222D01*
X7926916Y16109111D01*
X7933153Y16674966D01*
X7935396Y16859668D01*
X7936274Y17006395D01*
X7933798Y17119500D01*
X7925979Y17203338D01*
X7910827Y17262263D01*
X7886351Y17300628D01*
X7850562Y17322787D01*
X7801470Y17333094D01*
X7737085Y17335902D01*
X7655418Y17335565D01*
X7631271Y17335500D01*
X7524297Y17334004D01*
X7451816Y17328838D01*
X7406072Y17318981D01*
X7379307Y17303416D01*
X7378095Y17302238D01*
X7368105Y17287374D01*
X7360292Y17261946D01*
X7354402Y17221209D01*
X7350179Y17160418D01*
X7347368Y17074828D01*
X7345713Y16959693D01*
X7344961Y16810268D01*
X7344833Y16683810D01*
X7344833Y16098644D01*
X6925585Y16515988D01*
X6786697Y16653012D01*
X6674642Y16760723D01*
X6587476Y16840856D01*
X6523255Y16895147D01*
X6480035Y16925332D01*
X6458086Y16933333D01*
X6415146Y16917266D01*
X6350761Y16871313D01*
X6271958Y16801041D01*
X6183630Y16712257D01*
X6126173Y16643613D01*
X6096473Y16590009D01*
X6091416Y16546344D01*
X6100357Y16519929D01*
X6120735Y16494117D01*
X6166902Y16442877D01*
X6234644Y16370649D01*
X6319751Y16281873D01*
X6418011Y16180991D01*
X6516335Y16081375D01*
X6910499Y15684500D01*
X4568547Y15684500D01*
X4610274Y15753291D01*
X4656704Y15830901D01*
X4718562Y15935934D01*
X4793835Y16064867D01*
X4880514Y16214180D01*
X4976587Y16380351D01*
X5080044Y16559859D01*
X5188874Y16749182D01*
X5301065Y16944799D01*
X5414607Y17143188D01*
X5527490Y17340828D01*
X5637701Y17534198D01*
X5743232Y17719776D01*
X5842069Y17894041D01*
X5932203Y18053471D01*
X6011624Y18194545D01*
X6078319Y18313742D01*
X6130278Y18407539D01*
X6165490Y18472416D01*
X6181945Y18504851D01*
X6182804Y18507121D01*
X6185618Y18537826D01*
X6188294Y18607984D01*
X6190805Y18714716D01*
X6193127Y18855142D01*
X6195232Y19026383D01*
X6197094Y19225560D01*
X6198686Y19449791D01*
X6199982Y19696199D01*
X6200956Y19961902D01*
X6201580Y20244022D01*
X6201830Y20539679D01*
X6201833Y20579152D01*
X6201833Y22584833D01*
X9037347Y22584833D01*
X9043048Y20536958D01*
X9048750Y18489083D01*
X9507027Y17695333D01*
X9626642Y17488175D01*
X9759369Y17258341D01*
X9899305Y17016051D01*
X10040546Y16771524D01*
X10177192Y16534980D01*
X10303337Y16316637D01*
X10393413Y16160750D01*
X10587525Y15824800D01*
X10762856Y15521266D01*
X10919114Y15250653D01*
X11056006Y15013470D01*
X11173238Y14810225D01*
X11270520Y14641425D01*
X11347557Y14507577D01*
X11404056Y14409190D01*
X11439726Y14346771D01*
X11446558Y14334716D01*
X11497576Y14244349D01*
X12162480Y14244349D01*
X12160542Y14249048D01*
X12131118Y14306652D01*
X12084740Y14392968D01*
X12023584Y14504062D01*
X11949828Y14636001D01*
X11865648Y14784849D01*
X11773221Y14946675D01*
X11713440Y15050567D01*
X11598656Y15249480D01*
X11474821Y15464054D01*
X11347009Y15685498D01*
X11220297Y15905018D01*
X11099760Y16113821D01*
X10990473Y16303115D01*
X10901568Y16457083D01*
X10806583Y16621571D01*
X10695654Y16813682D01*
X10573999Y17024377D01*
X10446839Y17244617D01*
X10319392Y17465360D01*
X10196878Y17677568D01*
X10099544Y17846170D01*
X9652000Y18621424D01*
X9653092Y22574250D01*
X9736292Y22612595D01*
X9822689Y22672178D01*
X9877755Y22751267D01*
X9902365Y22841891D01*
X9897392Y22936078D01*
X9863708Y23025857D01*
X9802188Y23103256D01*
X9713705Y23160304D01*
X9674727Y23174531D01*
X9639332Y23178785D01*
X9565269Y23182654D01*
X9456203Y23186138D01*
X9315798Y23189238D01*
X9147718Y23191952D01*
X8955627Y23194282D01*
X8743191Y23196226D01*
X8514071Y23197786D01*
X8271934Y23198960D01*
X8020443Y23199750D01*
X7763263Y23200155D01*
X7504057Y23200175D01*
X7246490Y23199811D01*
X7246490Y23199811D01*
G37*
X7246490Y23199811D02*
X6994226Y23199061D01*
X6750928Y23197928D01*
X6520263Y23196409D01*
X6305893Y23194505D01*
X6111482Y23192216D01*
X5940696Y23189542D01*
X5797197Y23186484D01*
X5684651Y23183040D01*
X5606722Y23179212D01*
X5567073Y23174998D01*
X5565272Y23174531D01*
X5467133Y23126931D01*
X5395637Y23056060D01*
X5351658Y22969890D01*
X5336069Y22876392D01*
X5349743Y22783538D01*
X5393555Y22699299D01*
X5468377Y22631647D01*
X5503708Y22612595D01*
X5586908Y22574250D01*
X5587454Y20598478D01*
X5588000Y18622707D01*
X5018407Y17635145D01*
X4897683Y17425846D01*
X4760137Y17187407D01*
X4610112Y16927355D01*
X4451949Y16653213D01*
X4289989Y16372506D01*
X4128575Y16092761D01*
X3972048Y15821500D01*
X3824749Y15566250D01*
X3758991Y15452306D01*
X3640044Y15245703D01*
X3527588Y15049405D01*
X3423389Y14866556D01*
X3329214Y14700305D01*
X3246830Y14553797D01*
X3178003Y14430179D01*
X3124500Y14332596D01*
X3088087Y14264197D01*
X3070530Y14228126D01*
X3069166Y14223660D01*
X3079653Y14196194D01*
X3109393Y14136892D01*
X3155806Y14050187D01*
X3216310Y13940512D01*
X3288324Y13812300D01*
X3369269Y13669984D01*
X3456564Y13517995D01*
X3547627Y13360768D01*
X3639878Y13202735D01*
X3730736Y13048327D01*
X3817620Y12901980D01*
X3897950Y12768124D01*
X3969145Y12651193D01*
X4028624Y12555620D01*
X4073806Y12485836D01*
X4102111Y12446276D01*
X4107200Y12440708D01*
X4170501Y12382500D01*
X11069499Y12382500D01*
X11132800Y12440708D01*
X11155191Y12469671D01*
X11195281Y12530282D01*
X11250488Y12618106D01*
X11318232Y12728711D01*
X11395933Y12857662D01*
X11481010Y13000526D01*
X11570882Y13152871D01*
X11662969Y13310262D01*
X11754691Y13468265D01*
X11843466Y13622448D01*
X11926715Y13768377D01*
X12001856Y13901618D01*
X12066309Y14017739D01*
X12117494Y14112305D01*
X12152830Y14180882D01*
X12169737Y14219039D01*
X12170833Y14224089D01*
X12162480Y14244349D01*
X11497576Y14244349D01*
X11131322Y13609758D01*
X10765068Y12975166D01*
X4475128Y12975166D01*
X4108407Y13610836D01*
X3741685Y14246505D01*
X3885830Y14494544D01*
X3950522Y14606554D01*
X4018145Y14724793D01*
X4080401Y14834690D01*
X4126362Y14916913D01*
X4222750Y15091243D01*
X5566624Y15091538D01*
X6910499Y15091833D01*
X6516335Y14694958D01*
X6409699Y14586863D01*
X6312344Y14486792D01*
X6228481Y14399187D01*
X6162323Y14328487D01*
X6118080Y14279132D01*
X6100357Y14256404D01*
X6090608Y14206359D01*
X6107060Y14159578D01*
X6140409Y14111906D01*
X6194258Y14052228D01*
X6259935Y13988306D01*
X6328772Y13927901D01*
X6392098Y13878774D01*
X6441243Y13848688D01*
X6460693Y13843000D01*
X6490490Y13857066D01*
X6545617Y13899690D01*
X6626789Y13971515D01*
X6734719Y14073181D01*
X6870122Y14205330D01*
X6925585Y14260345D01*
X7344833Y14677689D01*
X7344833Y14097970D01*
X7345085Y13923588D01*
X7346025Y13786651D01*
X7347931Y13682271D01*
X7351078Y13605560D01*
X7355744Y13551631D01*
X7362206Y13515598D01*
X7370740Y13492573D01*
X7379864Y13479542D01*
X7402311Y13461560D01*
X7436256Y13450053D01*
X7490424Y13443683D01*
X7573540Y13441113D01*
X7632327Y13440833D01*
X7730657Y13441349D01*
X7795930Y13444239D01*
X7837424Y13451520D01*
X7864413Y13465207D01*
X7886173Y13487317D01*
X7894595Y13497830D01*
X7908104Y13516506D01*
X7918510Y13537472D01*
X7926144Y13565998D01*
X7931336Y13607354D01*
X7934419Y13666810D01*
X7935723Y13749637D01*
X7935580Y13861105D01*
X7934321Y14006484D01*
X7933173Y14111681D01*
X7931551Y14260226D01*
X7930181Y14393838D01*
X7929114Y14506994D01*
X7928399Y14594169D01*
X7928084Y14649840D01*
X7928204Y14668517D01*
X7942833Y14654147D01*
X7983436Y14613631D01*
X8046140Y14550849D01*
X8127075Y14469680D01*
X8222371Y14374004D01*
X8328157Y14267700D01*
X8330371Y14265474D01*
X8438939Y14157678D01*
X8540071Y14059822D01*
X8629319Y13976007D01*
X8702236Y13910336D01*
X8754375Y13866911D01*
X8780883Y13849925D01*
X8808124Y13849130D01*
X8840707Y13863243D01*
X8885033Y13896801D01*
X8947500Y13954341D01*
X8997841Y14003746D01*
X9080844Y14089790D01*
X9133977Y14153899D01*
X9160558Y14200424D01*
X9165166Y14223305D01*
X9158064Y14247256D01*
X9134971Y14283541D01*
X9093213Y14335188D01*
X9030111Y14405227D01*
X8942990Y14496688D01*
X8829172Y14612598D01*
X8757912Y14684176D01*
X8350657Y15091833D01*
X8920589Y15091833D01*
X9106348Y15091686D01*
X9254117Y15092542D01*
X9368228Y15096347D01*
X9453015Y15105048D01*
X9512810Y15120591D01*
X9551946Y15144921D01*
X9574756Y15179987D01*
X9585572Y15227733D01*
X9588728Y15290105D01*
X9588555Y15369051D01*
X9588500Y15391856D01*
X9589000Y15473683D01*
X9587602Y15538693D01*
X9579955Y15588813D01*
X9561710Y15625969D01*
X9528518Y15652088D01*
X9476029Y15669095D01*
X9399895Y15678918D01*
X9295765Y15683482D01*
X9159290Y15684713D01*
X8986120Y15684538D01*
X8927738Y15684500D01*
X8351644Y15684500D01*
X8768988Y16103748D01*
X8888135Y16224838D01*
X8991460Y16332644D01*
X9075931Y16423829D01*
X9138514Y16495058D01*
X9176175Y16542995D01*
X9186333Y16562680D01*
X9171004Y16598143D01*
X9130304Y16652031D01*
X9072164Y16716635D01*
X9004515Y16784243D01*
X8935288Y16847145D01*
X8872413Y16897629D01*
X8823821Y16927986D01*
X8805096Y16933333D01*
X8779856Y16924348D01*
X8738576Y16895912D01*
X8678751Y16845802D01*
X8597879Y16771796D01*
X8493455Y16671670D01*
X8362976Y16543203D01*
X8340873Y16521222D01*
X7926916Y16109111D01*
X7933153Y16674966D01*
X7935396Y16859668D01*
X7936274Y17006395D01*
X7933798Y17119500D01*
X7925979Y17203338D01*
X7910827Y17262263D01*
X7886351Y17300628D01*
X7850562Y17322787D01*
X7801470Y17333094D01*
X7737085Y17335902D01*
X7655418Y17335565D01*
X7631271Y17335500D01*
X7524297Y17334004D01*
X7451816Y17328838D01*
X7406072Y17318981D01*
X7379307Y17303416D01*
X7378095Y17302238D01*
X7368105Y17287374D01*
X7360292Y17261946D01*
X7354402Y17221209D01*
X7350179Y17160418D01*
X7347368Y17074828D01*
X7345713Y16959693D01*
X7344961Y16810268D01*
X7344833Y16683810D01*
X7344833Y16098644D01*
X6925585Y16515988D01*
X6786697Y16653012D01*
X6674642Y16760723D01*
X6587476Y16840856D01*
X6523255Y16895147D01*
X6480035Y16925332D01*
X6458086Y16933333D01*
X6415146Y16917266D01*
X6350761Y16871313D01*
X6271958Y16801041D01*
X6183630Y16712257D01*
X6126173Y16643613D01*
X6096473Y16590009D01*
X6091416Y16546344D01*
X6100357Y16519929D01*
X6120735Y16494117D01*
X6166902Y16442877D01*
X6234644Y16370649D01*
X6319751Y16281873D01*
X6418011Y16180991D01*
X6516335Y16081375D01*
X6910499Y15684500D01*
X4568547Y15684500D01*
X4610274Y15753291D01*
X4656704Y15830901D01*
X4718562Y15935934D01*
X4793835Y16064867D01*
X4880514Y16214180D01*
X4976587Y16380351D01*
X5080044Y16559859D01*
X5188874Y16749182D01*
X5301065Y16944799D01*
X5414607Y17143188D01*
X5527490Y17340828D01*
X5637701Y17534198D01*
X5743232Y17719776D01*
X5842069Y17894041D01*
X5932203Y18053471D01*
X6011624Y18194545D01*
X6078319Y18313742D01*
X6130278Y18407539D01*
X6165490Y18472416D01*
X6181945Y18504851D01*
X6182804Y18507121D01*
X6185618Y18537826D01*
X6188294Y18607984D01*
X6190805Y18714716D01*
X6193127Y18855142D01*
X6195232Y19026383D01*
X6197094Y19225560D01*
X6198686Y19449791D01*
X6199982Y19696199D01*
X6200956Y19961902D01*
X6201580Y20244022D01*
X6201830Y20539679D01*
X6201833Y20579152D01*
X6201833Y22584833D01*
X9037347Y22584833D01*
X9043048Y20536958D01*
X9048750Y18489083D01*
X9507027Y17695333D01*
X9626642Y17488175D01*
X9759369Y17258341D01*
X9899305Y17016051D01*
X10040546Y16771524D01*
X10177192Y16534980D01*
X10303337Y16316637D01*
X10393413Y16160750D01*
X10587525Y15824800D01*
X10762856Y15521266D01*
X10919114Y15250653D01*
X11056006Y15013470D01*
X11173238Y14810225D01*
X11270520Y14641425D01*
X11347557Y14507577D01*
X11404056Y14409190D01*
X11439726Y14346771D01*
X11446558Y14334716D01*
X11497576Y14244349D01*
X12162480Y14244349D01*
X12160542Y14249048D01*
X12131118Y14306652D01*
X12084740Y14392968D01*
X12023584Y14504062D01*
X11949828Y14636001D01*
X11865648Y14784849D01*
X11773221Y14946675D01*
X11713440Y15050567D01*
X11598656Y15249480D01*
X11474821Y15464054D01*
X11347009Y15685498D01*
X11220297Y15905018D01*
X11099760Y16113821D01*
X10990473Y16303115D01*
X10901568Y16457083D01*
X10806583Y16621571D01*
X10695654Y16813682D01*
X10573999Y17024377D01*
X10446839Y17244617D01*
X10319392Y17465360D01*
X10196878Y17677568D01*
X10099544Y17846170D01*
X9652000Y18621424D01*
X9653092Y22574250D01*
X9736292Y22612595D01*
X9822689Y22672178D01*
X9877755Y22751267D01*
X9902365Y22841891D01*
X9897392Y22936078D01*
X9863708Y23025857D01*
X9802188Y23103256D01*
X9713705Y23160304D01*
X9674727Y23174531D01*
X9639332Y23178785D01*
X9565269Y23182654D01*
X9456203Y23186138D01*
X9315798Y23189238D01*
X9147718Y23191952D01*
X8955627Y23194282D01*
X8743191Y23196226D01*
X8514071Y23197786D01*
X8271934Y23198960D01*
X8020443Y23199750D01*
X7763263Y23200155D01*
X7504057Y23200175D01*
X7246490Y23199811D01*
D10*
X44450000Y31496000D02*
X44450000Y32004000D01*
X44450000Y28956000D02*
X44450000Y29464000D01*
X46990000Y26924000D02*
X46990000Y26670000D01*
X46990000Y26670000D02*
X44450000Y26670000D01*
X44450000Y26670000D02*
X44450000Y26924000D01*
X46990000Y29464000D02*
X46990000Y28956000D01*
X46990000Y32004000D02*
X46990000Y31496000D01*
X44450000Y34036000D02*
X44450000Y34290000D01*
X44450000Y34290000D02*
X46990000Y34290000D01*
X46990000Y34290000D02*
X46990000Y34036000D01*
D15*
X48530000Y34290000D02*
X48530000Y26670000D01*
X48530000Y26670000D02*
X51070000Y26670000D01*
X51070000Y26670000D02*
X51070000Y34290000D01*
X51070000Y34290000D02*
X48530000Y34290000D01*
D10*
X31496000Y16510000D02*
X32004000Y16510000D01*
X28956000Y16510000D02*
X29464000Y16510000D01*
X26924000Y13970000D02*
X26670000Y13970000D01*
X26670000Y13970000D02*
X26670000Y16510000D01*
X26670000Y16510000D02*
X26924000Y16510000D01*
X29464000Y13970000D02*
X28956000Y13970000D01*
X32004000Y13970000D02*
X31496000Y13970000D01*
X34036000Y16510000D02*
X34290000Y16510000D01*
X34290000Y16510000D02*
X34290000Y13970000D01*
X34290000Y13970000D02*
X34036000Y13970000D01*
D15*
X34290000Y12430000D02*
X26670000Y12430000D01*
X26670000Y12430000D02*
X26670000Y9890000D01*
X26670000Y9890000D02*
X34290000Y9890000D01*
X34290000Y9890000D02*
X34290000Y12430000D01*
D10*
X29464000Y44450000D02*
X28956000Y44450000D01*
X32004000Y44450000D02*
X31496000Y44450000D01*
X34036000Y46990000D02*
X34290000Y46990000D01*
X34290000Y46990000D02*
X34290000Y44450000D01*
X34290000Y44450000D02*
X34036000Y44450000D01*
X31496000Y46990000D02*
X32004000Y46990000D01*
X28956000Y46990000D02*
X29464000Y46990000D01*
X26924000Y44450000D02*
X26670000Y44450000D01*
X26670000Y44450000D02*
X26670000Y46990000D01*
X26670000Y46990000D02*
X26924000Y46990000D01*
D15*
X26670000Y48530000D02*
X34290000Y48530000D01*
X34290000Y48530000D02*
X34290000Y51070000D01*
X34290000Y51070000D02*
X26670000Y51070000D01*
X26670000Y51070000D02*
X26670000Y48530000D01*
D10*
X16510000Y29464000D02*
X16510000Y28956000D01*
X16510000Y32004000D02*
X16510000Y31496000D01*
X13970000Y34036000D02*
X13970000Y34290000D01*
X13970000Y34290000D02*
X16510000Y34290000D01*
X16510000Y34290000D02*
X16510000Y34036000D01*
X13970000Y31496000D02*
X13970000Y32004000D01*
X13970000Y28956000D02*
X13970000Y29464000D01*
X16510000Y26924000D02*
X16510000Y26670000D01*
X16510000Y26670000D02*
X13970000Y26670000D01*
X13970000Y26670000D02*
X13970000Y26924000D01*
D15*
X12430000Y26670000D02*
X12430000Y34290000D01*
X12430000Y34290000D02*
X9890000Y34290000D01*
X9890000Y34290000D02*
X9890000Y26670000D01*
X9890000Y26670000D02*
X12430000Y26670000D01*
D16*
X16715000Y16240000D02*
X16715000Y14240000D01*
X13765000Y14240000D02*
X13765000Y16240000D01*
X47195000Y16240000D02*
X47195000Y14240000D01*
X44245000Y14240000D02*
X44245000Y16240000D01*
D17*
X40301333Y14877143D02*
X40349714Y14828762D01*
X40494857Y14780381D01*
X40591619Y14780381D01*
X40736761Y14828762D01*
X40833523Y14925524D01*
X40881904Y15022286D01*
X40930285Y15215810D01*
X40930285Y15360952D01*
X40881904Y15554476D01*
X40833523Y15651238D01*
X40736761Y15748000D01*
X40591619Y15796381D01*
X40494857Y15796381D01*
X40349714Y15748000D01*
X40301333Y15699619D01*
X39962666Y15796381D02*
X39333714Y15796381D01*
X39672380Y15409333D01*
X39527238Y15409333D01*
X39430476Y15360952D01*
X39382095Y15312571D01*
X39333714Y15215810D01*
X39333714Y14973905D01*
X39382095Y14877143D01*
X39430476Y14828762D01*
X39527238Y14780381D01*
X39817523Y14780381D01*
X39914285Y14828762D01*
X39962666Y14877143D01*
X20997333Y14877143D02*
X21045714Y14828762D01*
X21190857Y14780381D01*
X21287619Y14780381D01*
X21432761Y14828762D01*
X21529523Y14925524D01*
X21577904Y15022286D01*
X21626285Y15215810D01*
X21626285Y15360952D01*
X21577904Y15554476D01*
X21529523Y15651238D01*
X21432761Y15748000D01*
X21287619Y15796381D01*
X21190857Y15796381D01*
X21045714Y15748000D01*
X20997333Y15699619D01*
X20029714Y14780381D02*
X20610285Y14780381D01*
X20319999Y14780381D02*
X20319999Y15796381D01*
X20416761Y15651238D01*
X20513523Y15554476D01*
X20610285Y15506095D01*
D18*
X33455429Y53122286D02*
X33339315Y53122286D01*
X33281257Y53086000D01*
X33223200Y53013429D01*
X33194172Y52868286D01*
X33194172Y52614286D01*
X33223200Y52469143D01*
X33281257Y52396571D01*
X33339315Y52360286D01*
X33455429Y52360286D01*
X33513486Y52396571D01*
X33571543Y52469143D01*
X33600572Y52614286D01*
X33600572Y52868286D01*
X33571543Y53013429D01*
X33513486Y53086000D01*
X33455429Y53122286D01*
X32932914Y52868286D02*
X32932914Y52106286D01*
X32932914Y52832000D02*
X32874857Y52868286D01*
X32758743Y52868286D01*
X32700686Y52832000D01*
X32671657Y52795714D01*
X32642628Y52723143D01*
X32642628Y52505429D01*
X32671657Y52432857D01*
X32700686Y52396571D01*
X32758743Y52360286D01*
X32874857Y52360286D01*
X32932914Y52396571D01*
X32149143Y52396571D02*
X32207200Y52360286D01*
X32323314Y52360286D01*
X32381371Y52396571D01*
X32410400Y52469143D01*
X32410400Y52759429D01*
X32381371Y52832000D01*
X32323314Y52868286D01*
X32207200Y52868286D01*
X32149143Y52832000D01*
X32120114Y52759429D01*
X32120114Y52686857D01*
X32410400Y52614286D01*
X31858857Y52868286D02*
X31858857Y52360286D01*
X31858857Y52795714D02*
X31829829Y52832000D01*
X31771771Y52868286D01*
X31684686Y52868286D01*
X31626629Y52832000D01*
X31597600Y52759429D01*
X31597600Y52360286D01*
X31307314Y52360286D02*
X31307314Y53122286D01*
X31307314Y52759429D02*
X30958971Y52759429D01*
X30958971Y52360286D02*
X30958971Y53122286D01*
X30407428Y52360286D02*
X30407428Y52759429D01*
X30436457Y52832000D01*
X30494514Y52868286D01*
X30610628Y52868286D01*
X30668685Y52832000D01*
X30407428Y52396571D02*
X30465485Y52360286D01*
X30610628Y52360286D01*
X30668685Y52396571D01*
X30697714Y52469143D01*
X30697714Y52541714D01*
X30668685Y52614286D01*
X30610628Y52650571D01*
X30465485Y52650571D01*
X30407428Y52686857D01*
X30117142Y52360286D02*
X30117142Y52868286D01*
X30117142Y52723143D02*
X30088114Y52795714D01*
X30059085Y52832000D01*
X30001028Y52868286D01*
X29942971Y52868286D01*
X29478514Y52360286D02*
X29478514Y53122286D01*
X29478514Y52396571D02*
X29536571Y52360286D01*
X29652685Y52360286D01*
X29710743Y52396571D01*
X29739771Y52432857D01*
X29768800Y52505429D01*
X29768800Y52723143D01*
X29739771Y52795714D01*
X29710743Y52832000D01*
X29652685Y52868286D01*
X29536571Y52868286D01*
X29478514Y52832000D01*
X29246285Y52868286D02*
X29130171Y52360286D01*
X29014057Y52723143D01*
X28897942Y52360286D01*
X28781828Y52868286D01*
X28288342Y52360286D02*
X28288342Y52759429D01*
X28317371Y52832000D01*
X28375428Y52868286D01*
X28491542Y52868286D01*
X28549599Y52832000D01*
X28288342Y52396571D02*
X28346399Y52360286D01*
X28491542Y52360286D01*
X28549599Y52396571D01*
X28578628Y52469143D01*
X28578628Y52541714D01*
X28549599Y52614286D01*
X28491542Y52650571D01*
X28346399Y52650571D01*
X28288342Y52686857D01*
X27998056Y52360286D02*
X27998056Y52868286D01*
X27998056Y52723143D02*
X27969028Y52795714D01*
X27939999Y52832000D01*
X27881942Y52868286D01*
X27823885Y52868286D01*
X27388457Y52396571D02*
X27446514Y52360286D01*
X27562628Y52360286D01*
X27620685Y52396571D01*
X27649714Y52469143D01*
X27649714Y52759429D01*
X27620685Y52832000D01*
X27562628Y52868286D01*
X27446514Y52868286D01*
X27388457Y52832000D01*
X27359428Y52759429D01*
X27359428Y52686857D01*
X27649714Y52614286D01*
D11*
X54501142Y3302000D02*
X54646285Y3374571D01*
X54863999Y3374571D01*
X55081714Y3302000D01*
X55226856Y3156857D01*
X55299428Y3011714D01*
X55371999Y2721429D01*
X55371999Y2503714D01*
X55299428Y2213429D01*
X55226856Y2068286D01*
X55081714Y1923143D01*
X54863999Y1850571D01*
X54718856Y1850571D01*
X54501142Y1923143D01*
X54428571Y1995714D01*
X54428571Y2503714D01*
X54718856Y2503714D01*
X53775428Y1850571D02*
X53775428Y3374571D01*
X52904571Y1850571D01*
X52904571Y3374571D01*
X52178857Y1850571D02*
X52178857Y3374571D01*
X51816000Y3374571D01*
X51598285Y3302000D01*
X51453143Y3156857D01*
X51380571Y3011714D01*
X51308000Y2721429D01*
X51308000Y2503714D01*
X51380571Y2213429D01*
X51453143Y2068286D01*
X51598285Y1923143D01*
X51816000Y1850571D01*
X52178857Y1850571D01*
X53630286Y59254571D02*
X54356000Y59254571D01*
X54428571Y58528857D01*
X54356000Y58601429D01*
X54210857Y58674000D01*
X53848000Y58674000D01*
X53702857Y58601429D01*
X53630286Y58528857D01*
X53557714Y58383714D01*
X53557714Y58020857D01*
X53630286Y57875714D01*
X53702857Y57803143D01*
X53848000Y57730571D01*
X54210857Y57730571D01*
X54356000Y57803143D01*
X54428571Y57875714D01*
X53122285Y59254571D02*
X52614285Y57730571D01*
X52106285Y59254571D01*
X48296285Y22170571D02*
X48296285Y23694571D01*
X47933428Y23694571D01*
X47715713Y23622000D01*
X47570571Y23476857D01*
X47497999Y23331714D01*
X47425428Y23041429D01*
X47425428Y22823714D01*
X47497999Y22533429D01*
X47570571Y22388286D01*
X47715713Y22243143D01*
X47933428Y22170571D01*
X48296285Y22170571D01*
X46481999Y23694571D02*
X46191713Y23694571D01*
X46046571Y23622000D01*
X45901428Y23476857D01*
X45828856Y23186571D01*
X45828856Y22678571D01*
X45901428Y22388286D01*
X46046571Y22243143D01*
X46191713Y22170571D01*
X46481999Y22170571D01*
X46627142Y22243143D01*
X46772285Y22388286D01*
X46844856Y22678571D01*
X46844856Y23186571D01*
X46772285Y23476857D01*
X46627142Y23622000D01*
X46481999Y23694571D01*
X45538571Y22025429D02*
X44377428Y22025429D01*
X44014571Y22170571D02*
X44014571Y23694571D01*
X44014571Y22968857D02*
X43143714Y22968857D01*
X43143714Y22170571D02*
X43143714Y23694571D01*
X17235714Y22170571D02*
X17235714Y23694571D01*
X16872857Y23694571D01*
X16655142Y23622000D01*
X16510000Y23476857D01*
X16437428Y23331714D01*
X16364857Y23041429D01*
X16364857Y22823714D01*
X16437428Y22533429D01*
X16510000Y22388286D01*
X16655142Y22243143D01*
X16872857Y22170571D01*
X17235714Y22170571D01*
X15711714Y22170571D02*
X15711714Y23694571D01*
X15348857Y22025429D02*
X14187714Y22025429D01*
X13897428Y22606000D02*
X13171714Y22606000D01*
X14042571Y22170571D02*
X13534571Y23694571D01*
X13026571Y22170571D01*
X7910286Y59254571D02*
X8636000Y59254571D01*
X8708571Y58528857D01*
X8636000Y58601429D01*
X8490857Y58674000D01*
X8128000Y58674000D01*
X7982857Y58601429D01*
X7910286Y58528857D01*
X7837714Y58383714D01*
X7837714Y58020857D01*
X7910286Y57875714D01*
X7982857Y57803143D01*
X8128000Y57730571D01*
X8490857Y57730571D01*
X8636000Y57803143D01*
X8708571Y57875714D01*
X7402285Y59254571D02*
X6894285Y57730571D01*
X6386285Y59254571D01*
X8781142Y3302000D02*
X8926285Y3374571D01*
X9143999Y3374571D01*
X9361714Y3302000D01*
X9506856Y3156857D01*
X9579428Y3011714D01*
X9651999Y2721429D01*
X9651999Y2503714D01*
X9579428Y2213429D01*
X9506856Y2068286D01*
X9361714Y1923143D01*
X9143999Y1850571D01*
X8998856Y1850571D01*
X8781142Y1923143D01*
X8708571Y1995714D01*
X8708571Y2503714D01*
X8998856Y2503714D01*
X8055428Y1850571D02*
X8055428Y3374571D01*
X7184571Y1850571D01*
X7184571Y3374571D01*
X6458857Y1850571D02*
X6458857Y3374571D01*
X6096000Y3374571D01*
X5878285Y3302000D01*
X5733143Y3156857D01*
X5660571Y3011714D01*
X5588000Y2721429D01*
X5588000Y2503714D01*
X5660571Y2213429D01*
X5733143Y2068286D01*
X5878285Y1923143D01*
X6096000Y1850571D01*
X6458857Y1850571D01*
X16364857Y37555714D02*
X16437428Y37483143D01*
X16655142Y37410571D01*
X16800285Y37410571D01*
X17018000Y37483143D01*
X17163142Y37628286D01*
X17235714Y37773429D01*
X17308285Y38063714D01*
X17308285Y38281429D01*
X17235714Y38571714D01*
X17163142Y38716857D01*
X17018000Y38862000D01*
X16800285Y38934571D01*
X16655142Y38934571D01*
X16437428Y38862000D01*
X16364857Y38789429D01*
X15711714Y37410571D02*
X15711714Y38934571D01*
X15348857Y37265429D02*
X14187714Y37265429D01*
X13897428Y37846000D02*
X13171714Y37846000D01*
X14042571Y37410571D02*
X13534571Y38934571D01*
X13026571Y37410571D01*
X47425428Y37555714D02*
X47497999Y37483143D01*
X47715713Y37410571D01*
X47860856Y37410571D01*
X48078571Y37483143D01*
X48223713Y37628286D01*
X48296285Y37773429D01*
X48368856Y38063714D01*
X48368856Y38281429D01*
X48296285Y38571714D01*
X48223713Y38716857D01*
X48078571Y38862000D01*
X47860856Y38934571D01*
X47715713Y38934571D01*
X47497999Y38862000D01*
X47425428Y38789429D01*
X46481999Y38934571D02*
X46191713Y38934571D01*
X46046571Y38862000D01*
X45901428Y38716857D01*
X45828856Y38426571D01*
X45828856Y37918571D01*
X45901428Y37628286D01*
X46046571Y37483143D01*
X46191713Y37410571D01*
X46481999Y37410571D01*
X46627142Y37483143D01*
X46772285Y37628286D01*
X46844856Y37918571D01*
X46844856Y38426571D01*
X46772285Y38716857D01*
X46627142Y38862000D01*
X46481999Y38934571D01*
X45538571Y37265429D02*
X44377428Y37265429D01*
X44014571Y37410571D02*
X44014571Y38934571D01*
X44014571Y38208857D02*
X43143714Y38208857D01*
X43143714Y37410571D02*
X43143714Y38934571D01*
D17*
X49163619Y33019999D02*
X49163619Y32826476D01*
X49212000Y32729714D01*
X49308762Y32632952D01*
X49502286Y32584571D01*
X49840952Y32584571D01*
X50034476Y32632952D01*
X50131238Y32729714D01*
X50179619Y32826476D01*
X50179619Y33019999D01*
X50131238Y33116761D01*
X50034476Y33213523D01*
X49840952Y33261904D01*
X49502286Y33261904D01*
X49308762Y33213523D01*
X49212000Y33116761D01*
X49163619Y33019999D01*
X49502286Y31713714D02*
X50179619Y31713714D01*
X49502286Y32149142D02*
X50034476Y32149142D01*
X50131238Y32100761D01*
X50179619Y32003999D01*
X50179619Y31858857D01*
X50131238Y31762095D01*
X50082857Y31713714D01*
X49502286Y31375047D02*
X49502286Y30987999D01*
X49163619Y31229904D02*
X50034476Y31229904D01*
X50131238Y31181523D01*
X50179619Y31084761D01*
X50179619Y30987999D01*
X49502286Y30649333D02*
X50518286Y30649333D01*
X49550667Y30649333D02*
X49502286Y30552571D01*
X49502286Y30359048D01*
X49550667Y30262286D01*
X49599048Y30213905D01*
X49695810Y30165524D01*
X49986095Y30165524D01*
X50082857Y30213905D01*
X50131238Y30262286D01*
X50179619Y30359048D01*
X50179619Y30552571D01*
X50131238Y30649333D01*
X49502286Y29294667D02*
X50179619Y29294667D01*
X49502286Y29730095D02*
X50034476Y29730095D01*
X50131238Y29681714D01*
X50179619Y29584952D01*
X50179619Y29439810D01*
X50131238Y29343048D01*
X50082857Y29294667D01*
X49502286Y28956000D02*
X49502286Y28568952D01*
X49163619Y28810857D02*
X50034476Y28810857D01*
X50131238Y28762476D01*
X50179619Y28665714D01*
X50179619Y28568952D01*
X49260381Y28278667D02*
X49212000Y28230286D01*
X49163619Y28133524D01*
X49163619Y27891620D01*
X49212000Y27794858D01*
X49260381Y27746477D01*
X49357143Y27698096D01*
X49453905Y27698096D01*
X49599048Y27746477D01*
X50179619Y28327048D01*
X50179619Y27698096D01*
X32632952Y10780381D02*
X32632952Y11796381D01*
X32149142Y11457714D02*
X32149142Y10780381D01*
X32149142Y11360952D02*
X32100761Y11409333D01*
X32003999Y11457714D01*
X31858857Y11457714D01*
X31762095Y11409333D01*
X31713714Y11312571D01*
X31713714Y10780381D01*
X31229904Y11457714D02*
X31229904Y10441714D01*
X31229904Y11409333D02*
X31133142Y11457714D01*
X30939619Y11457714D01*
X30842857Y11409333D01*
X30794476Y11360952D01*
X30746095Y11264190D01*
X30746095Y10973905D01*
X30794476Y10877143D01*
X30842857Y10828762D01*
X30939619Y10780381D01*
X31133142Y10780381D01*
X31229904Y10828762D01*
X29875238Y11457714D02*
X29875238Y10780381D01*
X30310666Y11457714D02*
X30310666Y10925524D01*
X30262285Y10828762D01*
X30165523Y10780381D01*
X30020381Y10780381D01*
X29923619Y10828762D01*
X29875238Y10877143D01*
X29536571Y11457714D02*
X29149523Y11457714D01*
X29391428Y11796381D02*
X29391428Y10925524D01*
X29343047Y10828762D01*
X29246285Y10780381D01*
X29149523Y10780381D01*
X28859238Y11699619D02*
X28810857Y11748000D01*
X28714095Y11796381D01*
X28472191Y11796381D01*
X28375429Y11748000D01*
X28327048Y11699619D01*
X28278667Y11602857D01*
X28278667Y11506095D01*
X28327048Y11360952D01*
X28907619Y10780381D01*
X28278667Y10780381D01*
X33019999Y50276381D02*
X32826476Y50276381D01*
X32729714Y50228000D01*
X32632952Y50131238D01*
X32584571Y49937714D01*
X32584571Y49599048D01*
X32632952Y49405524D01*
X32729714Y49308762D01*
X32826476Y49260381D01*
X33019999Y49260381D01*
X33116761Y49308762D01*
X33213523Y49405524D01*
X33261904Y49599048D01*
X33261904Y49937714D01*
X33213523Y50131238D01*
X33116761Y50228000D01*
X33019999Y50276381D01*
X31713714Y49937714D02*
X31713714Y49260381D01*
X32149142Y49937714D02*
X32149142Y49405524D01*
X32100761Y49308762D01*
X32003999Y49260381D01*
X31858857Y49260381D01*
X31762095Y49308762D01*
X31713714Y49357143D01*
X31375047Y49937714D02*
X30987999Y49937714D01*
X31229904Y50276381D02*
X31229904Y49405524D01*
X31181523Y49308762D01*
X31084761Y49260381D01*
X30987999Y49260381D01*
X30649333Y49937714D02*
X30649333Y48921714D01*
X30649333Y49889333D02*
X30552571Y49937714D01*
X30359048Y49937714D01*
X30262286Y49889333D01*
X30213905Y49840952D01*
X30165524Y49744190D01*
X30165524Y49453905D01*
X30213905Y49357143D01*
X30262286Y49308762D01*
X30359048Y49260381D01*
X30552571Y49260381D01*
X30649333Y49308762D01*
X29294667Y49937714D02*
X29294667Y49260381D01*
X29730095Y49937714D02*
X29730095Y49405524D01*
X29681714Y49308762D01*
X29584952Y49260381D01*
X29439810Y49260381D01*
X29343048Y49308762D01*
X29294667Y49357143D01*
X28956000Y49937714D02*
X28568952Y49937714D01*
X28810857Y50276381D02*
X28810857Y49405524D01*
X28762476Y49308762D01*
X28665714Y49260381D01*
X28568952Y49260381D01*
X27698096Y49260381D02*
X28278667Y49260381D01*
X27988381Y49260381D02*
X27988381Y50276381D01*
X28085143Y50131238D01*
X28181905Y50034476D01*
X28278667Y49986095D01*
X11699619Y32632952D02*
X10683619Y32632952D01*
X11022286Y32149142D02*
X11699619Y32149142D01*
X11119048Y32149142D02*
X11070667Y32100761D01*
X11022286Y32003999D01*
X11022286Y31858857D01*
X11070667Y31762095D01*
X11167429Y31713714D01*
X11699619Y31713714D01*
X11022286Y31229904D02*
X12038286Y31229904D01*
X11070667Y31229904D02*
X11022286Y31133142D01*
X11022286Y30939619D01*
X11070667Y30842857D01*
X11119048Y30794476D01*
X11215810Y30746095D01*
X11506095Y30746095D01*
X11602857Y30794476D01*
X11651238Y30842857D01*
X11699619Y30939619D01*
X11699619Y31133142D01*
X11651238Y31229904D01*
X11022286Y29875238D02*
X11699619Y29875238D01*
X11022286Y30310666D02*
X11554476Y30310666D01*
X11651238Y30262285D01*
X11699619Y30165523D01*
X11699619Y30020381D01*
X11651238Y29923619D01*
X11602857Y29875238D01*
X11022286Y29536571D02*
X11022286Y29149523D01*
X10683619Y29391428D02*
X11554476Y29391428D01*
X11651238Y29343047D01*
X11699619Y29246285D01*
X11699619Y29149523D01*
X11699619Y28278667D02*
X11699619Y28859238D01*
X11699619Y28568952D02*
X10683619Y28568952D01*
X10828762Y28665714D01*
X10925524Y28762476D01*
X10973905Y28859238D01*
X15409333Y14877143D02*
X15457714Y14828762D01*
X15602857Y14780381D01*
X15699619Y14780381D01*
X15844761Y14828762D01*
X15941523Y14925524D01*
X15989904Y15022286D01*
X16038285Y15215810D01*
X16038285Y15360952D01*
X15989904Y15554476D01*
X15941523Y15651238D01*
X15844761Y15748000D01*
X15699619Y15796381D01*
X15602857Y15796381D01*
X15457714Y15748000D01*
X15409333Y15699619D01*
X15022285Y15699619D02*
X14973904Y15748000D01*
X14877142Y15796381D01*
X14635238Y15796381D01*
X14538476Y15748000D01*
X14490095Y15699619D01*
X14441714Y15602857D01*
X14441714Y15506095D01*
X14490095Y15360952D01*
X15070666Y14780381D01*
X14441714Y14780381D01*
X45889333Y14877143D02*
X45937714Y14828762D01*
X46082857Y14780381D01*
X46179619Y14780381D01*
X46324761Y14828762D01*
X46421523Y14925524D01*
X46469904Y15022286D01*
X46518285Y15215810D01*
X46518285Y15360952D01*
X46469904Y15554476D01*
X46421523Y15651238D01*
X46324761Y15748000D01*
X46179619Y15796381D01*
X46082857Y15796381D01*
X45937714Y15748000D01*
X45889333Y15699619D01*
X45018476Y15457714D02*
X45018476Y14780381D01*
X45260380Y15844762D02*
X45502285Y15119048D01*
X44873333Y15119048D01*
%LPC*%
D19*
X38100000Y16256000D03*
X38100000Y14224000D03*
X22860000Y16256000D03*
X22860000Y14224000D03*
D20*
X55452944Y11005736D03*
X56725736Y9732944D03*
X40212944Y41485736D03*
X41485736Y40212944D03*
X56725736Y5507056D03*
X55452944Y4234264D03*
X51227056Y4234264D03*
X49954264Y5507056D03*
X41485736Y5507056D03*
X40212944Y4234264D03*
X35987056Y4234264D03*
X34714264Y5507056D03*
X26245736Y5507056D03*
X24972944Y4234264D03*
X20747056Y4234264D03*
X19474264Y5507056D03*
X11005736Y5507056D03*
X9732944Y4234264D03*
X5507056Y4234264D03*
X4234264Y5507056D03*
X4234264Y24972944D03*
X5507056Y26245736D03*
X4234264Y9732944D03*
X5507056Y11005736D03*
X5507056Y19474264D03*
X4234264Y20747056D03*
X5507056Y49954264D03*
X4234264Y51227056D03*
X4234264Y55452944D03*
X5507056Y56725736D03*
X9732944Y56725736D03*
X11005736Y55452944D03*
X11005736Y51227056D03*
X9732944Y49954264D03*
X9732944Y26245736D03*
X11005736Y24972944D03*
X11005736Y20747056D03*
X9732944Y19474264D03*
X9732944Y11005736D03*
X11005736Y9732944D03*
X19474264Y9732944D03*
X20747056Y11005736D03*
X19474264Y24972944D03*
X20747056Y26245736D03*
X20747056Y34714264D03*
X19474264Y35987056D03*
X19474264Y40212944D03*
X20747056Y41485736D03*
X19474264Y55452944D03*
X20747056Y56725736D03*
X24972944Y56725736D03*
X26245736Y55452944D03*
X26245736Y51227056D03*
X24972944Y49954264D03*
X24972944Y41485736D03*
X26245736Y40212944D03*
X26245736Y35987056D03*
X24972944Y34714264D03*
X24972944Y26245736D03*
X26245736Y24972944D03*
X26245736Y20747056D03*
X24972944Y19474264D03*
X24972944Y11005736D03*
X26245736Y9732944D03*
X34714264Y9732944D03*
X35987056Y11005736D03*
X35987056Y19474264D03*
X34714264Y20747056D03*
X34714264Y24972944D03*
X35987056Y26245736D03*
X35987056Y34714264D03*
X34714264Y35987056D03*
X35987056Y49954264D03*
X34714264Y51227056D03*
X34714264Y55452944D03*
X35987056Y56725736D03*
X40212944Y56725736D03*
X41485736Y55452944D03*
X41485736Y51227056D03*
X40212944Y49954264D03*
X41485736Y35987056D03*
X40212944Y34714264D03*
X40212944Y26245736D03*
X41485736Y24972944D03*
X41485736Y20747056D03*
X40212944Y19474264D03*
X40212944Y11005736D03*
X41485736Y9732944D03*
X49954264Y9732944D03*
X51227056Y11005736D03*
X51227056Y19474264D03*
X49954264Y20747056D03*
X49954264Y24972944D03*
X51227056Y26245736D03*
X51227056Y49954264D03*
X49954264Y51227056D03*
X49954264Y55452944D03*
X51227056Y56725736D03*
X55452944Y56725736D03*
X56725736Y55452944D03*
X56725736Y51227056D03*
X55452944Y49954264D03*
X55452944Y26245736D03*
X56725736Y24972944D03*
X56725736Y20747056D03*
X55452944Y19474264D03*
X5507056Y34714264D03*
X4234264Y35987056D03*
X4234264Y40212944D03*
X5507056Y41485736D03*
X9732944Y41485736D03*
X11005736Y40212944D03*
X11005736Y35987056D03*
X9732944Y34714264D03*
X20747056Y19474264D03*
X19474264Y20747056D03*
X34714264Y40212944D03*
X35987056Y41485736D03*
X51227056Y34714264D03*
X49954264Y35987056D03*
X49954264Y40212944D03*
X51227056Y41485736D03*
X55452944Y41485736D03*
X56725736Y40212944D03*
X56725736Y35987056D03*
X55452944Y34714264D03*
X20747056Y49954264D03*
X19474264Y51227056D03*
D21*
X53340000Y7620000D03*
X53340000Y53340000D03*
X38100000Y22860000D03*
X22860000Y22860000D03*
X7620000Y53340000D03*
X7620000Y7620000D03*
X22860000Y38100000D03*
X38100000Y38100000D03*
D22*
X45720000Y33020000D03*
X45720000Y30480000D03*
X45720000Y27940000D03*
D23*
X45720000Y33020000D03*
X45720000Y30480000D03*
X45720000Y27940000D03*
D24*
X33020000Y15240000D03*
X30480000Y15240000D03*
X27940000Y15240000D03*
D23*
X33020000Y15240000D03*
X30480000Y15240000D03*
X27940000Y15240000D03*
D24*
X27940000Y45720000D03*
X30480000Y45720000D03*
X33020000Y45720000D03*
D23*
X27940000Y45720000D03*
X30480000Y45720000D03*
X33020000Y45720000D03*
D22*
X15240000Y27940000D03*
X15240000Y30480000D03*
X15240000Y33020000D03*
D23*
X15240000Y27940000D03*
X15240000Y30480000D03*
X15240000Y33020000D03*
D25*
X15240000Y13240000D03*
X15240000Y17240000D03*
X45720000Y13240000D03*
X45720000Y17240000D03*
M02*
