%TF.GenerationSoftware,KiCad,Pcbnew,4.0.7-e1-6374~58~ubuntu16.04.1*%
%TF.CreationDate,2017-08-11T22:02:44+05:30*%
%TF.ProjectId,ultim8x8,756C74696D3878382E6B696361645F70,2.0*%
%TF.FileFunction,Paste,Top*%
%FSLAX46Y46*%
G04 Gerber Fmt 4.6, Leading zero omitted, Abs format (unit mm)*
G04 Created by KiCad (PCBNEW 4.0.7-e1-6374~58~ubuntu16.04.1) date Fri Aug 11 22:02:44 2017*
%MOMM*%
%LPD*%
G01*
G04 APERTURE LIST*
%ADD10C,0.254000*%
G04 APERTURE END LIST*
D10*
G36*
X51936955Y-41064264D02*
X50947006Y-42054213D01*
X49957057Y-41064264D01*
X50947006Y-40074315D01*
X51936955Y-41064264D01*
X51936955Y-41064264D01*
G37*
G36*
X48825685Y-37952994D02*
X47835736Y-38942943D01*
X46845787Y-37952994D01*
X47835736Y-36963045D01*
X48825685Y-37952994D01*
X48825685Y-37952994D01*
G37*
G36*
X47658959Y-39119720D02*
X46739720Y-40038959D01*
X45749771Y-39049010D01*
X46669010Y-38129771D01*
X47658959Y-39119720D01*
X47658959Y-39119720D01*
G37*
G36*
X50770229Y-42230990D02*
X49850990Y-43150229D01*
X48861041Y-42160280D01*
X49780280Y-41241041D01*
X50770229Y-42230990D01*
X50770229Y-42230990D01*
G37*
G36*
X49674213Y-43327006D02*
X48684264Y-44316955D01*
X47694315Y-43327006D01*
X48684264Y-42337057D01*
X49674213Y-43327006D01*
X49674213Y-43327006D01*
G37*
G36*
X46562943Y-40215736D02*
X45572994Y-41205685D01*
X44583045Y-40215736D01*
X45572994Y-39225787D01*
X46562943Y-40215736D01*
X46562943Y-40215736D01*
G37*
G36*
X86784264Y-52203045D02*
X87774213Y-53192994D01*
X86784264Y-54182943D01*
X85794315Y-53192994D01*
X86784264Y-52203045D01*
X86784264Y-52203045D01*
G37*
G36*
X83672994Y-55314315D02*
X84662943Y-56304264D01*
X83672994Y-57294213D01*
X82683045Y-56304264D01*
X83672994Y-55314315D01*
X83672994Y-55314315D01*
G37*
G36*
X84839720Y-56481041D02*
X85758959Y-57400280D01*
X84769010Y-58390229D01*
X83849771Y-57470990D01*
X84839720Y-56481041D01*
X84839720Y-56481041D01*
G37*
G36*
X87950990Y-53369771D02*
X88870229Y-54289010D01*
X87880280Y-55278959D01*
X86961041Y-54359720D01*
X87950990Y-53369771D01*
X87950990Y-53369771D01*
G37*
G36*
X89047006Y-54465787D02*
X90036955Y-55455736D01*
X89047006Y-56445685D01*
X88057057Y-55455736D01*
X89047006Y-54465787D01*
X89047006Y-54465787D01*
G37*
G36*
X85935736Y-57577057D02*
X86925685Y-58567006D01*
X85935736Y-59556955D01*
X84945787Y-58567006D01*
X85935736Y-57577057D01*
X85935736Y-57577057D01*
G37*
G36*
X82683045Y-47835736D02*
X83672994Y-46845787D01*
X84662943Y-47835736D01*
X83672994Y-48825685D01*
X82683045Y-47835736D01*
X82683045Y-47835736D01*
G37*
G36*
X85794315Y-50947006D02*
X86784264Y-49957057D01*
X87774213Y-50947006D01*
X86784264Y-51936955D01*
X85794315Y-50947006D01*
X85794315Y-50947006D01*
G37*
G36*
X86961041Y-49780280D02*
X87880280Y-48861041D01*
X88870229Y-49850990D01*
X87950990Y-50770229D01*
X86961041Y-49780280D01*
X86961041Y-49780280D01*
G37*
G36*
X83849771Y-46669010D02*
X84769010Y-45749771D01*
X85758959Y-46739720D01*
X84839720Y-47658959D01*
X83849771Y-46669010D01*
X83849771Y-46669010D01*
G37*
G36*
X84945787Y-45572994D02*
X85935736Y-44583045D01*
X86925685Y-45572994D01*
X85935736Y-46562943D01*
X84945787Y-45572994D01*
X84945787Y-45572994D01*
G37*
G36*
X88057057Y-48684264D02*
X89047006Y-47694315D01*
X90036955Y-48684264D01*
X89047006Y-49674213D01*
X88057057Y-48684264D01*
X88057057Y-48684264D01*
G37*
G36*
X78315736Y-51936955D02*
X77325787Y-50947006D01*
X78315736Y-49957057D01*
X79305685Y-50947006D01*
X78315736Y-51936955D01*
X78315736Y-51936955D01*
G37*
G36*
X81427006Y-48825685D02*
X80437057Y-47835736D01*
X81427006Y-46845787D01*
X82416955Y-47835736D01*
X81427006Y-48825685D01*
X81427006Y-48825685D01*
G37*
G36*
X80260280Y-47658959D02*
X79341041Y-46739720D01*
X80330990Y-45749771D01*
X81250229Y-46669010D01*
X80260280Y-47658959D01*
X80260280Y-47658959D01*
G37*
G36*
X77149010Y-50770229D02*
X76229771Y-49850990D01*
X77219720Y-48861041D01*
X78138959Y-49780280D01*
X77149010Y-50770229D01*
X77149010Y-50770229D01*
G37*
G36*
X76052994Y-49674213D02*
X75063045Y-48684264D01*
X76052994Y-47694315D01*
X77042943Y-48684264D01*
X76052994Y-49674213D01*
X76052994Y-49674213D01*
G37*
G36*
X79164264Y-46562943D02*
X78174315Y-45572994D01*
X79164264Y-44583045D01*
X80154213Y-45572994D01*
X79164264Y-46562943D01*
X79164264Y-46562943D01*
G37*
G36*
X82416955Y-56304264D02*
X81427006Y-57294213D01*
X80437057Y-56304264D01*
X81427006Y-55314315D01*
X82416955Y-56304264D01*
X82416955Y-56304264D01*
G37*
G36*
X79305685Y-53192994D02*
X78315736Y-54182943D01*
X77325787Y-53192994D01*
X78315736Y-52203045D01*
X79305685Y-53192994D01*
X79305685Y-53192994D01*
G37*
G36*
X78138959Y-54359720D02*
X77219720Y-55278959D01*
X76229771Y-54289010D01*
X77149010Y-53369771D01*
X78138959Y-54359720D01*
X78138959Y-54359720D01*
G37*
G36*
X81250229Y-57470990D02*
X80330990Y-58390229D01*
X79341041Y-57400280D01*
X80260280Y-56481041D01*
X81250229Y-57470990D01*
X81250229Y-57470990D01*
G37*
G36*
X80154213Y-58567006D02*
X79164264Y-59556955D01*
X78174315Y-58567006D01*
X79164264Y-57577057D01*
X80154213Y-58567006D01*
X80154213Y-58567006D01*
G37*
G36*
X77042943Y-55455736D02*
X76052994Y-56445685D01*
X75063045Y-55455736D01*
X76052994Y-54465787D01*
X77042943Y-55455736D01*
X77042943Y-55455736D01*
G37*
G36*
X63075736Y-51936955D02*
X62085787Y-50947006D01*
X63075736Y-49957057D01*
X64065685Y-50947006D01*
X63075736Y-51936955D01*
X63075736Y-51936955D01*
G37*
G36*
X66187006Y-48825685D02*
X65197057Y-47835736D01*
X66187006Y-46845787D01*
X67176955Y-47835736D01*
X66187006Y-48825685D01*
X66187006Y-48825685D01*
G37*
G36*
X65020280Y-47658959D02*
X64101041Y-46739720D01*
X65090990Y-45749771D01*
X66010229Y-46669010D01*
X65020280Y-47658959D01*
X65020280Y-47658959D01*
G37*
G36*
X61909010Y-50770229D02*
X60989771Y-49850990D01*
X61979720Y-48861041D01*
X62898959Y-49780280D01*
X61909010Y-50770229D01*
X61909010Y-50770229D01*
G37*
G36*
X60812994Y-49674213D02*
X59823045Y-48684264D01*
X60812994Y-47694315D01*
X61802943Y-48684264D01*
X60812994Y-49674213D01*
X60812994Y-49674213D01*
G37*
G36*
X63924264Y-46562943D02*
X62934315Y-45572994D01*
X63924264Y-44583045D01*
X64914213Y-45572994D01*
X63924264Y-46562943D01*
X63924264Y-46562943D01*
G37*
G36*
X51936955Y-71544264D02*
X50947006Y-72534213D01*
X49957057Y-71544264D01*
X50947006Y-70554315D01*
X51936955Y-71544264D01*
X51936955Y-71544264D01*
G37*
G36*
X48825685Y-68432994D02*
X47835736Y-69422943D01*
X46845787Y-68432994D01*
X47835736Y-67443045D01*
X48825685Y-68432994D01*
X48825685Y-68432994D01*
G37*
G36*
X47658959Y-69599720D02*
X46739720Y-70518959D01*
X45749771Y-69529010D01*
X46669010Y-68609771D01*
X47658959Y-69599720D01*
X47658959Y-69599720D01*
G37*
G36*
X50770229Y-72710990D02*
X49850990Y-73630229D01*
X48861041Y-72640280D01*
X49780280Y-71721041D01*
X50770229Y-72710990D01*
X50770229Y-72710990D01*
G37*
G36*
X49674213Y-73807006D02*
X48684264Y-74796955D01*
X47694315Y-73807006D01*
X48684264Y-72817057D01*
X49674213Y-73807006D01*
X49674213Y-73807006D01*
G37*
G36*
X46562943Y-70695736D02*
X45572994Y-71685685D01*
X44583045Y-70695736D01*
X45572994Y-69705787D01*
X46562943Y-70695736D01*
X46562943Y-70695736D01*
G37*
G36*
X41064264Y-52203045D02*
X42054213Y-53192994D01*
X41064264Y-54182943D01*
X40074315Y-53192994D01*
X41064264Y-52203045D01*
X41064264Y-52203045D01*
G37*
G36*
X37952994Y-55314315D02*
X38942943Y-56304264D01*
X37952994Y-57294213D01*
X36963045Y-56304264D01*
X37952994Y-55314315D01*
X37952994Y-55314315D01*
G37*
G36*
X39119720Y-56481041D02*
X40038959Y-57400280D01*
X39049010Y-58390229D01*
X38129771Y-57470990D01*
X39119720Y-56481041D01*
X39119720Y-56481041D01*
G37*
G36*
X42230990Y-53369771D02*
X43150229Y-54289010D01*
X42160280Y-55278959D01*
X41241041Y-54359720D01*
X42230990Y-53369771D01*
X42230990Y-53369771D01*
G37*
G36*
X43327006Y-54465787D02*
X44316955Y-55455736D01*
X43327006Y-56445685D01*
X42337057Y-55455736D01*
X43327006Y-54465787D01*
X43327006Y-54465787D01*
G37*
G36*
X40215736Y-57577057D02*
X41205685Y-58567006D01*
X40215736Y-59556955D01*
X39225787Y-58567006D01*
X40215736Y-57577057D01*
X40215736Y-57577057D01*
G37*
G36*
X36963045Y-47835736D02*
X37952994Y-46845787D01*
X38942943Y-47835736D01*
X37952994Y-48825685D01*
X36963045Y-47835736D01*
X36963045Y-47835736D01*
G37*
G36*
X40074315Y-50947006D02*
X41064264Y-49957057D01*
X42054213Y-50947006D01*
X41064264Y-51936955D01*
X40074315Y-50947006D01*
X40074315Y-50947006D01*
G37*
G36*
X41241041Y-49780280D02*
X42160280Y-48861041D01*
X43150229Y-49850990D01*
X42230990Y-50770229D01*
X41241041Y-49780280D01*
X41241041Y-49780280D01*
G37*
G36*
X38129771Y-46669010D02*
X39049010Y-45749771D01*
X40038959Y-46739720D01*
X39119720Y-47658959D01*
X38129771Y-46669010D01*
X38129771Y-46669010D01*
G37*
G36*
X39225787Y-45572994D02*
X40215736Y-44583045D01*
X41205685Y-45572994D01*
X40215736Y-46562943D01*
X39225787Y-45572994D01*
X39225787Y-45572994D01*
G37*
G36*
X42337057Y-48684264D02*
X43327006Y-47694315D01*
X44316955Y-48684264D01*
X43327006Y-49674213D01*
X42337057Y-48684264D01*
X42337057Y-48684264D01*
G37*
G36*
X32595736Y-51936955D02*
X31605787Y-50947006D01*
X32595736Y-49957057D01*
X33585685Y-50947006D01*
X32595736Y-51936955D01*
X32595736Y-51936955D01*
G37*
G36*
X35707006Y-48825685D02*
X34717057Y-47835736D01*
X35707006Y-46845787D01*
X36696955Y-47835736D01*
X35707006Y-48825685D01*
X35707006Y-48825685D01*
G37*
G36*
X34540280Y-47658959D02*
X33621041Y-46739720D01*
X34610990Y-45749771D01*
X35530229Y-46669010D01*
X34540280Y-47658959D01*
X34540280Y-47658959D01*
G37*
G36*
X31429010Y-50770229D02*
X30509771Y-49850990D01*
X31499720Y-48861041D01*
X32418959Y-49780280D01*
X31429010Y-50770229D01*
X31429010Y-50770229D01*
G37*
G36*
X30332994Y-49674213D02*
X29343045Y-48684264D01*
X30332994Y-47694315D01*
X31322943Y-48684264D01*
X30332994Y-49674213D01*
X30332994Y-49674213D01*
G37*
G36*
X33444264Y-46562943D02*
X32454315Y-45572994D01*
X33444264Y-44583045D01*
X34434213Y-45572994D01*
X33444264Y-46562943D01*
X33444264Y-46562943D01*
G37*
G36*
X36696955Y-56304264D02*
X35707006Y-57294213D01*
X34717057Y-56304264D01*
X35707006Y-55314315D01*
X36696955Y-56304264D01*
X36696955Y-56304264D01*
G37*
G36*
X33585685Y-53192994D02*
X32595736Y-54182943D01*
X31605787Y-53192994D01*
X32595736Y-52203045D01*
X33585685Y-53192994D01*
X33585685Y-53192994D01*
G37*
G36*
X32418959Y-54359720D02*
X31499720Y-55278959D01*
X30509771Y-54289010D01*
X31429010Y-53369771D01*
X32418959Y-54359720D01*
X32418959Y-54359720D01*
G37*
G36*
X35530229Y-57470990D02*
X34610990Y-58390229D01*
X33621041Y-57400280D01*
X34540280Y-56481041D01*
X35530229Y-57470990D01*
X35530229Y-57470990D01*
G37*
G36*
X34434213Y-58567006D02*
X33444264Y-59556955D01*
X32454315Y-58567006D01*
X33444264Y-57577057D01*
X34434213Y-58567006D01*
X34434213Y-58567006D01*
G37*
G36*
X31322943Y-55455736D02*
X30332994Y-56445685D01*
X29343045Y-55455736D01*
X30332994Y-54465787D01*
X31322943Y-55455736D01*
X31322943Y-55455736D01*
G37*
G36*
X86784264Y-67443045D02*
X87774213Y-68432994D01*
X86784264Y-69422943D01*
X85794315Y-68432994D01*
X86784264Y-67443045D01*
X86784264Y-67443045D01*
G37*
G36*
X83672994Y-70554315D02*
X84662943Y-71544264D01*
X83672994Y-72534213D01*
X82683045Y-71544264D01*
X83672994Y-70554315D01*
X83672994Y-70554315D01*
G37*
G36*
X84839720Y-71721041D02*
X85758959Y-72640280D01*
X84769010Y-73630229D01*
X83849771Y-72710990D01*
X84839720Y-71721041D01*
X84839720Y-71721041D01*
G37*
G36*
X87950990Y-68609771D02*
X88870229Y-69529010D01*
X87880280Y-70518959D01*
X86961041Y-69599720D01*
X87950990Y-68609771D01*
X87950990Y-68609771D01*
G37*
G36*
X89047006Y-69705787D02*
X90036955Y-70695736D01*
X89047006Y-71685685D01*
X88057057Y-70695736D01*
X89047006Y-69705787D01*
X89047006Y-69705787D01*
G37*
G36*
X85935736Y-72817057D02*
X86925685Y-73807006D01*
X85935736Y-74796955D01*
X84945787Y-73807006D01*
X85935736Y-72817057D01*
X85935736Y-72817057D01*
G37*
G36*
X82683045Y-63075736D02*
X83672994Y-62085787D01*
X84662943Y-63075736D01*
X83672994Y-64065685D01*
X82683045Y-63075736D01*
X82683045Y-63075736D01*
G37*
G36*
X85794315Y-66187006D02*
X86784264Y-65197057D01*
X87774213Y-66187006D01*
X86784264Y-67176955D01*
X85794315Y-66187006D01*
X85794315Y-66187006D01*
G37*
G36*
X86961041Y-65020280D02*
X87880280Y-64101041D01*
X88870229Y-65090990D01*
X87950990Y-66010229D01*
X86961041Y-65020280D01*
X86961041Y-65020280D01*
G37*
G36*
X83849771Y-61909010D02*
X84769010Y-60989771D01*
X85758959Y-61979720D01*
X84839720Y-62898959D01*
X83849771Y-61909010D01*
X83849771Y-61909010D01*
G37*
G36*
X84945787Y-60812994D02*
X85935736Y-59823045D01*
X86925685Y-60812994D01*
X85935736Y-61802943D01*
X84945787Y-60812994D01*
X84945787Y-60812994D01*
G37*
G36*
X88057057Y-63924264D02*
X89047006Y-62934315D01*
X90036955Y-63924264D01*
X89047006Y-64914213D01*
X88057057Y-63924264D01*
X88057057Y-63924264D01*
G37*
G36*
X86784264Y-36963045D02*
X87774213Y-37952994D01*
X86784264Y-38942943D01*
X85794315Y-37952994D01*
X86784264Y-36963045D01*
X86784264Y-36963045D01*
G37*
G36*
X83672994Y-40074315D02*
X84662943Y-41064264D01*
X83672994Y-42054213D01*
X82683045Y-41064264D01*
X83672994Y-40074315D01*
X83672994Y-40074315D01*
G37*
G36*
X84839720Y-41241041D02*
X85758959Y-42160280D01*
X84769010Y-43150229D01*
X83849771Y-42230990D01*
X84839720Y-41241041D01*
X84839720Y-41241041D01*
G37*
G36*
X87950990Y-38129771D02*
X88870229Y-39049010D01*
X87880280Y-40038959D01*
X86961041Y-39119720D01*
X87950990Y-38129771D01*
X87950990Y-38129771D01*
G37*
G36*
X89047006Y-39225787D02*
X90036955Y-40215736D01*
X89047006Y-41205685D01*
X88057057Y-40215736D01*
X89047006Y-39225787D01*
X89047006Y-39225787D01*
G37*
G36*
X85935736Y-42337057D02*
X86925685Y-43327006D01*
X85935736Y-44316955D01*
X84945787Y-43327006D01*
X85935736Y-42337057D01*
X85935736Y-42337057D01*
G37*
G36*
X82683045Y-32595736D02*
X83672994Y-31605787D01*
X84662943Y-32595736D01*
X83672994Y-33585685D01*
X82683045Y-32595736D01*
X82683045Y-32595736D01*
G37*
G36*
X85794315Y-35707006D02*
X86784264Y-34717057D01*
X87774213Y-35707006D01*
X86784264Y-36696955D01*
X85794315Y-35707006D01*
X85794315Y-35707006D01*
G37*
G36*
X86961041Y-34540280D02*
X87880280Y-33621041D01*
X88870229Y-34610990D01*
X87950990Y-35530229D01*
X86961041Y-34540280D01*
X86961041Y-34540280D01*
G37*
G36*
X83849771Y-31429010D02*
X84769010Y-30509771D01*
X85758959Y-31499720D01*
X84839720Y-32418959D01*
X83849771Y-31429010D01*
X83849771Y-31429010D01*
G37*
G36*
X84945787Y-30332994D02*
X85935736Y-29343045D01*
X86925685Y-30332994D01*
X85935736Y-31322943D01*
X84945787Y-30332994D01*
X84945787Y-30332994D01*
G37*
G36*
X88057057Y-33444264D02*
X89047006Y-32454315D01*
X90036955Y-33444264D01*
X89047006Y-34434213D01*
X88057057Y-33444264D01*
X88057057Y-33444264D01*
G37*
G36*
X78315736Y-36696955D02*
X77325787Y-35707006D01*
X78315736Y-34717057D01*
X79305685Y-35707006D01*
X78315736Y-36696955D01*
X78315736Y-36696955D01*
G37*
G36*
X81427006Y-33585685D02*
X80437057Y-32595736D01*
X81427006Y-31605787D01*
X82416955Y-32595736D01*
X81427006Y-33585685D01*
X81427006Y-33585685D01*
G37*
G36*
X80260280Y-32418959D02*
X79341041Y-31499720D01*
X80330990Y-30509771D01*
X81250229Y-31429010D01*
X80260280Y-32418959D01*
X80260280Y-32418959D01*
G37*
G36*
X77149010Y-35530229D02*
X76229771Y-34610990D01*
X77219720Y-33621041D01*
X78138959Y-34540280D01*
X77149010Y-35530229D01*
X77149010Y-35530229D01*
G37*
G36*
X76052994Y-34434213D02*
X75063045Y-33444264D01*
X76052994Y-32454315D01*
X77042943Y-33444264D01*
X76052994Y-34434213D01*
X76052994Y-34434213D01*
G37*
G36*
X79164264Y-31322943D02*
X78174315Y-30332994D01*
X79164264Y-29343045D01*
X80154213Y-30332994D01*
X79164264Y-31322943D01*
X79164264Y-31322943D01*
G37*
G36*
X82416955Y-41064264D02*
X81427006Y-42054213D01*
X80437057Y-41064264D01*
X81427006Y-40074315D01*
X82416955Y-41064264D01*
X82416955Y-41064264D01*
G37*
G36*
X79305685Y-37952994D02*
X78315736Y-38942943D01*
X77325787Y-37952994D01*
X78315736Y-36963045D01*
X79305685Y-37952994D01*
X79305685Y-37952994D01*
G37*
G36*
X78138959Y-39119720D02*
X77219720Y-40038959D01*
X76229771Y-39049010D01*
X77149010Y-38129771D01*
X78138959Y-39119720D01*
X78138959Y-39119720D01*
G37*
G36*
X81250229Y-42230990D02*
X80330990Y-43150229D01*
X79341041Y-42160280D01*
X80260280Y-41241041D01*
X81250229Y-42230990D01*
X81250229Y-42230990D01*
G37*
G36*
X80154213Y-43327006D02*
X79164264Y-44316955D01*
X78174315Y-43327006D01*
X79164264Y-42337057D01*
X80154213Y-43327006D01*
X80154213Y-43327006D01*
G37*
G36*
X77042943Y-40215736D02*
X76052994Y-41205685D01*
X75063045Y-40215736D01*
X76052994Y-39225787D01*
X77042943Y-40215736D01*
X77042943Y-40215736D01*
G37*
G36*
X78315736Y-67176955D02*
X77325787Y-66187006D01*
X78315736Y-65197057D01*
X79305685Y-66187006D01*
X78315736Y-67176955D01*
X78315736Y-67176955D01*
G37*
G36*
X81427006Y-64065685D02*
X80437057Y-63075736D01*
X81427006Y-62085787D01*
X82416955Y-63075736D01*
X81427006Y-64065685D01*
X81427006Y-64065685D01*
G37*
G36*
X80260280Y-62898959D02*
X79341041Y-61979720D01*
X80330990Y-60989771D01*
X81250229Y-61909010D01*
X80260280Y-62898959D01*
X80260280Y-62898959D01*
G37*
G36*
X77149010Y-66010229D02*
X76229771Y-65090990D01*
X77219720Y-64101041D01*
X78138959Y-65020280D01*
X77149010Y-66010229D01*
X77149010Y-66010229D01*
G37*
G36*
X76052994Y-64914213D02*
X75063045Y-63924264D01*
X76052994Y-62934315D01*
X77042943Y-63924264D01*
X76052994Y-64914213D01*
X76052994Y-64914213D01*
G37*
G36*
X79164264Y-61802943D02*
X78174315Y-60812994D01*
X79164264Y-59823045D01*
X80154213Y-60812994D01*
X79164264Y-61802943D01*
X79164264Y-61802943D01*
G37*
G36*
X82416955Y-71544264D02*
X81427006Y-72534213D01*
X80437057Y-71544264D01*
X81427006Y-70554315D01*
X82416955Y-71544264D01*
X82416955Y-71544264D01*
G37*
G36*
X79305685Y-68432994D02*
X78315736Y-69422943D01*
X77325787Y-68432994D01*
X78315736Y-67443045D01*
X79305685Y-68432994D01*
X79305685Y-68432994D01*
G37*
G36*
X78138959Y-69599720D02*
X77219720Y-70518959D01*
X76229771Y-69529010D01*
X77149010Y-68609771D01*
X78138959Y-69599720D01*
X78138959Y-69599720D01*
G37*
G36*
X81250229Y-72710990D02*
X80330990Y-73630229D01*
X79341041Y-72640280D01*
X80260280Y-71721041D01*
X81250229Y-72710990D01*
X81250229Y-72710990D01*
G37*
G36*
X80154213Y-73807006D02*
X79164264Y-74796955D01*
X78174315Y-73807006D01*
X79164264Y-72817057D01*
X80154213Y-73807006D01*
X80154213Y-73807006D01*
G37*
G36*
X77042943Y-70695736D02*
X76052994Y-71685685D01*
X75063045Y-70695736D01*
X76052994Y-69705787D01*
X77042943Y-70695736D01*
X77042943Y-70695736D01*
G37*
G36*
X78315736Y-82416955D02*
X77325787Y-81427006D01*
X78315736Y-80437057D01*
X79305685Y-81427006D01*
X78315736Y-82416955D01*
X78315736Y-82416955D01*
G37*
G36*
X81427006Y-79305685D02*
X80437057Y-78315736D01*
X81427006Y-77325787D01*
X82416955Y-78315736D01*
X81427006Y-79305685D01*
X81427006Y-79305685D01*
G37*
G36*
X80260280Y-78138959D02*
X79341041Y-77219720D01*
X80330990Y-76229771D01*
X81250229Y-77149010D01*
X80260280Y-78138959D01*
X80260280Y-78138959D01*
G37*
G36*
X77149010Y-81250229D02*
X76229771Y-80330990D01*
X77219720Y-79341041D01*
X78138959Y-80260280D01*
X77149010Y-81250229D01*
X77149010Y-81250229D01*
G37*
G36*
X76052994Y-80154213D02*
X75063045Y-79164264D01*
X76052994Y-78174315D01*
X77042943Y-79164264D01*
X76052994Y-80154213D01*
X76052994Y-80154213D01*
G37*
G36*
X79164264Y-77042943D02*
X78174315Y-76052994D01*
X79164264Y-75063045D01*
X80154213Y-76052994D01*
X79164264Y-77042943D01*
X79164264Y-77042943D01*
G37*
G36*
X67443045Y-78315736D02*
X68432994Y-77325787D01*
X69422943Y-78315736D01*
X68432994Y-79305685D01*
X67443045Y-78315736D01*
X67443045Y-78315736D01*
G37*
G36*
X70554315Y-81427006D02*
X71544264Y-80437057D01*
X72534213Y-81427006D01*
X71544264Y-82416955D01*
X70554315Y-81427006D01*
X70554315Y-81427006D01*
G37*
G36*
X71721041Y-80260280D02*
X72640280Y-79341041D01*
X73630229Y-80330990D01*
X72710990Y-81250229D01*
X71721041Y-80260280D01*
X71721041Y-80260280D01*
G37*
G36*
X68609771Y-77149010D02*
X69529010Y-76229771D01*
X70518959Y-77219720D01*
X69599720Y-78138959D01*
X68609771Y-77149010D01*
X68609771Y-77149010D01*
G37*
G36*
X69705787Y-76052994D02*
X70695736Y-75063045D01*
X71685685Y-76052994D01*
X70695736Y-77042943D01*
X69705787Y-76052994D01*
X69705787Y-76052994D01*
G37*
G36*
X72817057Y-79164264D02*
X73807006Y-78174315D01*
X74796955Y-79164264D01*
X73807006Y-80154213D01*
X72817057Y-79164264D01*
X72817057Y-79164264D01*
G37*
G36*
X71544264Y-67443045D02*
X72534213Y-68432994D01*
X71544264Y-69422943D01*
X70554315Y-68432994D01*
X71544264Y-67443045D01*
X71544264Y-67443045D01*
G37*
G36*
X68432994Y-70554315D02*
X69422943Y-71544264D01*
X68432994Y-72534213D01*
X67443045Y-71544264D01*
X68432994Y-70554315D01*
X68432994Y-70554315D01*
G37*
G36*
X69599720Y-71721041D02*
X70518959Y-72640280D01*
X69529010Y-73630229D01*
X68609771Y-72710990D01*
X69599720Y-71721041D01*
X69599720Y-71721041D01*
G37*
G36*
X72710990Y-68609771D02*
X73630229Y-69529010D01*
X72640280Y-70518959D01*
X71721041Y-69599720D01*
X72710990Y-68609771D01*
X72710990Y-68609771D01*
G37*
G36*
X73807006Y-69705787D02*
X74796955Y-70695736D01*
X73807006Y-71685685D01*
X72817057Y-70695736D01*
X73807006Y-69705787D01*
X73807006Y-69705787D01*
G37*
G36*
X70695736Y-72817057D02*
X71685685Y-73807006D01*
X70695736Y-74796955D01*
X69705787Y-73807006D01*
X70695736Y-72817057D01*
X70695736Y-72817057D01*
G37*
G36*
X67443045Y-63075736D02*
X68432994Y-62085787D01*
X69422943Y-63075736D01*
X68432994Y-64065685D01*
X67443045Y-63075736D01*
X67443045Y-63075736D01*
G37*
G36*
X70554315Y-66187006D02*
X71544264Y-65197057D01*
X72534213Y-66187006D01*
X71544264Y-67176955D01*
X70554315Y-66187006D01*
X70554315Y-66187006D01*
G37*
G36*
X71721041Y-65020280D02*
X72640280Y-64101041D01*
X73630229Y-65090990D01*
X72710990Y-66010229D01*
X71721041Y-65020280D01*
X71721041Y-65020280D01*
G37*
G36*
X68609771Y-61909010D02*
X69529010Y-60989771D01*
X70518959Y-61979720D01*
X69599720Y-62898959D01*
X68609771Y-61909010D01*
X68609771Y-61909010D01*
G37*
G36*
X69705787Y-60812994D02*
X70695736Y-59823045D01*
X71685685Y-60812994D01*
X70695736Y-61802943D01*
X69705787Y-60812994D01*
X69705787Y-60812994D01*
G37*
G36*
X72817057Y-63924264D02*
X73807006Y-62934315D01*
X74796955Y-63924264D01*
X73807006Y-64914213D01*
X72817057Y-63924264D01*
X72817057Y-63924264D01*
G37*
G36*
X71544264Y-52203045D02*
X72534213Y-53192994D01*
X71544264Y-54182943D01*
X70554315Y-53192994D01*
X71544264Y-52203045D01*
X71544264Y-52203045D01*
G37*
G36*
X68432994Y-55314315D02*
X69422943Y-56304264D01*
X68432994Y-57294213D01*
X67443045Y-56304264D01*
X68432994Y-55314315D01*
X68432994Y-55314315D01*
G37*
G36*
X69599720Y-56481041D02*
X70518959Y-57400280D01*
X69529010Y-58390229D01*
X68609771Y-57470990D01*
X69599720Y-56481041D01*
X69599720Y-56481041D01*
G37*
G36*
X72710990Y-53369771D02*
X73630229Y-54289010D01*
X72640280Y-55278959D01*
X71721041Y-54359720D01*
X72710990Y-53369771D01*
X72710990Y-53369771D01*
G37*
G36*
X73807006Y-54465787D02*
X74796955Y-55455736D01*
X73807006Y-56445685D01*
X72817057Y-55455736D01*
X73807006Y-54465787D01*
X73807006Y-54465787D01*
G37*
G36*
X70695736Y-57577057D02*
X71685685Y-58567006D01*
X70695736Y-59556955D01*
X69705787Y-58567006D01*
X70695736Y-57577057D01*
X70695736Y-57577057D01*
G37*
G36*
X71544264Y-36963045D02*
X72534213Y-37952994D01*
X71544264Y-38942943D01*
X70554315Y-37952994D01*
X71544264Y-36963045D01*
X71544264Y-36963045D01*
G37*
G36*
X68432994Y-40074315D02*
X69422943Y-41064264D01*
X68432994Y-42054213D01*
X67443045Y-41064264D01*
X68432994Y-40074315D01*
X68432994Y-40074315D01*
G37*
G36*
X69599720Y-41241041D02*
X70518959Y-42160280D01*
X69529010Y-43150229D01*
X68609771Y-42230990D01*
X69599720Y-41241041D01*
X69599720Y-41241041D01*
G37*
G36*
X72710990Y-38129771D02*
X73630229Y-39049010D01*
X72640280Y-40038959D01*
X71721041Y-39119720D01*
X72710990Y-38129771D01*
X72710990Y-38129771D01*
G37*
G36*
X73807006Y-39225787D02*
X74796955Y-40215736D01*
X73807006Y-41205685D01*
X72817057Y-40215736D01*
X73807006Y-39225787D01*
X73807006Y-39225787D01*
G37*
G36*
X70695736Y-42337057D02*
X71685685Y-43327006D01*
X70695736Y-44316955D01*
X69705787Y-43327006D01*
X70695736Y-42337057D01*
X70695736Y-42337057D01*
G37*
G36*
X67443045Y-32595736D02*
X68432994Y-31605787D01*
X69422943Y-32595736D01*
X68432994Y-33585685D01*
X67443045Y-32595736D01*
X67443045Y-32595736D01*
G37*
G36*
X70554315Y-35707006D02*
X71544264Y-34717057D01*
X72534213Y-35707006D01*
X71544264Y-36696955D01*
X70554315Y-35707006D01*
X70554315Y-35707006D01*
G37*
G36*
X71721041Y-34540280D02*
X72640280Y-33621041D01*
X73630229Y-34610990D01*
X72710990Y-35530229D01*
X71721041Y-34540280D01*
X71721041Y-34540280D01*
G37*
G36*
X68609771Y-31429010D02*
X69529010Y-30509771D01*
X70518959Y-31499720D01*
X69599720Y-32418959D01*
X68609771Y-31429010D01*
X68609771Y-31429010D01*
G37*
G36*
X69705787Y-30332994D02*
X70695736Y-29343045D01*
X71685685Y-30332994D01*
X70695736Y-31322943D01*
X69705787Y-30332994D01*
X69705787Y-30332994D01*
G37*
G36*
X72817057Y-33444264D02*
X73807006Y-32454315D01*
X74796955Y-33444264D01*
X73807006Y-34434213D01*
X72817057Y-33444264D01*
X72817057Y-33444264D01*
G37*
G36*
X63075736Y-36696955D02*
X62085787Y-35707006D01*
X63075736Y-34717057D01*
X64065685Y-35707006D01*
X63075736Y-36696955D01*
X63075736Y-36696955D01*
G37*
G36*
X66187006Y-33585685D02*
X65197057Y-32595736D01*
X66187006Y-31605787D01*
X67176955Y-32595736D01*
X66187006Y-33585685D01*
X66187006Y-33585685D01*
G37*
G36*
X65020280Y-32418959D02*
X64101041Y-31499720D01*
X65090990Y-30509771D01*
X66010229Y-31429010D01*
X65020280Y-32418959D01*
X65020280Y-32418959D01*
G37*
G36*
X61909010Y-35530229D02*
X60989771Y-34610990D01*
X61979720Y-33621041D01*
X62898959Y-34540280D01*
X61909010Y-35530229D01*
X61909010Y-35530229D01*
G37*
G36*
X60812994Y-34434213D02*
X59823045Y-33444264D01*
X60812994Y-32454315D01*
X61802943Y-33444264D01*
X60812994Y-34434213D01*
X60812994Y-34434213D01*
G37*
G36*
X63924264Y-31322943D02*
X62934315Y-30332994D01*
X63924264Y-29343045D01*
X64914213Y-30332994D01*
X63924264Y-31322943D01*
X63924264Y-31322943D01*
G37*
G36*
X67176955Y-41064264D02*
X66187006Y-42054213D01*
X65197057Y-41064264D01*
X66187006Y-40074315D01*
X67176955Y-41064264D01*
X67176955Y-41064264D01*
G37*
G36*
X64065685Y-37952994D02*
X63075736Y-38942943D01*
X62085787Y-37952994D01*
X63075736Y-36963045D01*
X64065685Y-37952994D01*
X64065685Y-37952994D01*
G37*
G36*
X62898959Y-39119720D02*
X61979720Y-40038959D01*
X60989771Y-39049010D01*
X61909010Y-38129771D01*
X62898959Y-39119720D01*
X62898959Y-39119720D01*
G37*
G36*
X66010229Y-42230990D02*
X65090990Y-43150229D01*
X64101041Y-42160280D01*
X65020280Y-41241041D01*
X66010229Y-42230990D01*
X66010229Y-42230990D01*
G37*
G36*
X64914213Y-43327006D02*
X63924264Y-44316955D01*
X62934315Y-43327006D01*
X63924264Y-42337057D01*
X64914213Y-43327006D01*
X64914213Y-43327006D01*
G37*
G36*
X61802943Y-40215736D02*
X60812994Y-41205685D01*
X59823045Y-40215736D01*
X60812994Y-39225787D01*
X61802943Y-40215736D01*
X61802943Y-40215736D01*
G37*
G36*
X67176955Y-56304264D02*
X66187006Y-57294213D01*
X65197057Y-56304264D01*
X66187006Y-55314315D01*
X67176955Y-56304264D01*
X67176955Y-56304264D01*
G37*
G36*
X64065685Y-53192994D02*
X63075736Y-54182943D01*
X62085787Y-53192994D01*
X63075736Y-52203045D01*
X64065685Y-53192994D01*
X64065685Y-53192994D01*
G37*
G36*
X62898959Y-54359720D02*
X61979720Y-55278959D01*
X60989771Y-54289010D01*
X61909010Y-53369771D01*
X62898959Y-54359720D01*
X62898959Y-54359720D01*
G37*
G36*
X66010229Y-57470990D02*
X65090990Y-58390229D01*
X64101041Y-57400280D01*
X65020280Y-56481041D01*
X66010229Y-57470990D01*
X66010229Y-57470990D01*
G37*
G36*
X64914213Y-58567006D02*
X63924264Y-59556955D01*
X62934315Y-58567006D01*
X63924264Y-57577057D01*
X64914213Y-58567006D01*
X64914213Y-58567006D01*
G37*
G36*
X61802943Y-55455736D02*
X60812994Y-56445685D01*
X59823045Y-55455736D01*
X60812994Y-54465787D01*
X61802943Y-55455736D01*
X61802943Y-55455736D01*
G37*
G36*
X63075736Y-67176955D02*
X62085787Y-66187006D01*
X63075736Y-65197057D01*
X64065685Y-66187006D01*
X63075736Y-67176955D01*
X63075736Y-67176955D01*
G37*
G36*
X66187006Y-64065685D02*
X65197057Y-63075736D01*
X66187006Y-62085787D01*
X67176955Y-63075736D01*
X66187006Y-64065685D01*
X66187006Y-64065685D01*
G37*
G36*
X65020280Y-62898959D02*
X64101041Y-61979720D01*
X65090990Y-60989771D01*
X66010229Y-61909010D01*
X65020280Y-62898959D01*
X65020280Y-62898959D01*
G37*
G36*
X61909010Y-66010229D02*
X60989771Y-65090990D01*
X61979720Y-64101041D01*
X62898959Y-65020280D01*
X61909010Y-66010229D01*
X61909010Y-66010229D01*
G37*
G36*
X60812994Y-64914213D02*
X59823045Y-63924264D01*
X60812994Y-62934315D01*
X61802943Y-63924264D01*
X60812994Y-64914213D01*
X60812994Y-64914213D01*
G37*
G36*
X63924264Y-61802943D02*
X62934315Y-60812994D01*
X63924264Y-59823045D01*
X64914213Y-60812994D01*
X63924264Y-61802943D01*
X63924264Y-61802943D01*
G37*
G36*
X67176955Y-71544264D02*
X66187006Y-72534213D01*
X65197057Y-71544264D01*
X66187006Y-70554315D01*
X67176955Y-71544264D01*
X67176955Y-71544264D01*
G37*
G36*
X64065685Y-68432994D02*
X63075736Y-69422943D01*
X62085787Y-68432994D01*
X63075736Y-67443045D01*
X64065685Y-68432994D01*
X64065685Y-68432994D01*
G37*
G36*
X62898959Y-69599720D02*
X61979720Y-70518959D01*
X60989771Y-69529010D01*
X61909010Y-68609771D01*
X62898959Y-69599720D01*
X62898959Y-69599720D01*
G37*
G36*
X66010229Y-72710990D02*
X65090990Y-73630229D01*
X64101041Y-72640280D01*
X65020280Y-71721041D01*
X66010229Y-72710990D01*
X66010229Y-72710990D01*
G37*
G36*
X64914213Y-73807006D02*
X63924264Y-74796955D01*
X62934315Y-73807006D01*
X63924264Y-72817057D01*
X64914213Y-73807006D01*
X64914213Y-73807006D01*
G37*
G36*
X61802943Y-70695736D02*
X60812994Y-71685685D01*
X59823045Y-70695736D01*
X60812994Y-69705787D01*
X61802943Y-70695736D01*
X61802943Y-70695736D01*
G37*
G36*
X63075736Y-82416955D02*
X62085787Y-81427006D01*
X63075736Y-80437057D01*
X64065685Y-81427006D01*
X63075736Y-82416955D01*
X63075736Y-82416955D01*
G37*
G36*
X66187006Y-79305685D02*
X65197057Y-78315736D01*
X66187006Y-77325787D01*
X67176955Y-78315736D01*
X66187006Y-79305685D01*
X66187006Y-79305685D01*
G37*
G36*
X65020280Y-78138959D02*
X64101041Y-77219720D01*
X65090990Y-76229771D01*
X66010229Y-77149010D01*
X65020280Y-78138959D01*
X65020280Y-78138959D01*
G37*
G36*
X61909010Y-81250229D02*
X60989771Y-80330990D01*
X61979720Y-79341041D01*
X62898959Y-80260280D01*
X61909010Y-81250229D01*
X61909010Y-81250229D01*
G37*
G36*
X60812994Y-80154213D02*
X59823045Y-79164264D01*
X60812994Y-78174315D01*
X61802943Y-79164264D01*
X60812994Y-80154213D01*
X60812994Y-80154213D01*
G37*
G36*
X63924264Y-77042943D02*
X62934315Y-76052994D01*
X63924264Y-75063045D01*
X64914213Y-76052994D01*
X63924264Y-77042943D01*
X63924264Y-77042943D01*
G37*
G36*
X52203045Y-78315736D02*
X53192994Y-77325787D01*
X54182943Y-78315736D01*
X53192994Y-79305685D01*
X52203045Y-78315736D01*
X52203045Y-78315736D01*
G37*
G36*
X55314315Y-81427006D02*
X56304264Y-80437057D01*
X57294213Y-81427006D01*
X56304264Y-82416955D01*
X55314315Y-81427006D01*
X55314315Y-81427006D01*
G37*
G36*
X56481041Y-80260280D02*
X57400280Y-79341041D01*
X58390229Y-80330990D01*
X57470990Y-81250229D01*
X56481041Y-80260280D01*
X56481041Y-80260280D01*
G37*
G36*
X53369771Y-77149010D02*
X54289010Y-76229771D01*
X55278959Y-77219720D01*
X54359720Y-78138959D01*
X53369771Y-77149010D01*
X53369771Y-77149010D01*
G37*
G36*
X54465787Y-76052994D02*
X55455736Y-75063045D01*
X56445685Y-76052994D01*
X55455736Y-77042943D01*
X54465787Y-76052994D01*
X54465787Y-76052994D01*
G37*
G36*
X57577057Y-79164264D02*
X58567006Y-78174315D01*
X59556955Y-79164264D01*
X58567006Y-80154213D01*
X57577057Y-79164264D01*
X57577057Y-79164264D01*
G37*
G36*
X56304264Y-67443045D02*
X57294213Y-68432994D01*
X56304264Y-69422943D01*
X55314315Y-68432994D01*
X56304264Y-67443045D01*
X56304264Y-67443045D01*
G37*
G36*
X53192994Y-70554315D02*
X54182943Y-71544264D01*
X53192994Y-72534213D01*
X52203045Y-71544264D01*
X53192994Y-70554315D01*
X53192994Y-70554315D01*
G37*
G36*
X54359720Y-71721041D02*
X55278959Y-72640280D01*
X54289010Y-73630229D01*
X53369771Y-72710990D01*
X54359720Y-71721041D01*
X54359720Y-71721041D01*
G37*
G36*
X57470990Y-68609771D02*
X58390229Y-69529010D01*
X57400280Y-70518959D01*
X56481041Y-69599720D01*
X57470990Y-68609771D01*
X57470990Y-68609771D01*
G37*
G36*
X58567006Y-69705787D02*
X59556955Y-70695736D01*
X58567006Y-71685685D01*
X57577057Y-70695736D01*
X58567006Y-69705787D01*
X58567006Y-69705787D01*
G37*
G36*
X55455736Y-72817057D02*
X56445685Y-73807006D01*
X55455736Y-74796955D01*
X54465787Y-73807006D01*
X55455736Y-72817057D01*
X55455736Y-72817057D01*
G37*
G36*
X52203045Y-63075736D02*
X53192994Y-62085787D01*
X54182943Y-63075736D01*
X53192994Y-64065685D01*
X52203045Y-63075736D01*
X52203045Y-63075736D01*
G37*
G36*
X55314315Y-66187006D02*
X56304264Y-65197057D01*
X57294213Y-66187006D01*
X56304264Y-67176955D01*
X55314315Y-66187006D01*
X55314315Y-66187006D01*
G37*
G36*
X56481041Y-65020280D02*
X57400280Y-64101041D01*
X58390229Y-65090990D01*
X57470990Y-66010229D01*
X56481041Y-65020280D01*
X56481041Y-65020280D01*
G37*
G36*
X53369771Y-61909010D02*
X54289010Y-60989771D01*
X55278959Y-61979720D01*
X54359720Y-62898959D01*
X53369771Y-61909010D01*
X53369771Y-61909010D01*
G37*
G36*
X54465787Y-60812994D02*
X55455736Y-59823045D01*
X56445685Y-60812994D01*
X55455736Y-61802943D01*
X54465787Y-60812994D01*
X54465787Y-60812994D01*
G37*
G36*
X57577057Y-63924264D02*
X58567006Y-62934315D01*
X59556955Y-63924264D01*
X58567006Y-64914213D01*
X57577057Y-63924264D01*
X57577057Y-63924264D01*
G37*
G36*
X56304264Y-52203045D02*
X57294213Y-53192994D01*
X56304264Y-54182943D01*
X55314315Y-53192994D01*
X56304264Y-52203045D01*
X56304264Y-52203045D01*
G37*
G36*
X53192994Y-55314315D02*
X54182943Y-56304264D01*
X53192994Y-57294213D01*
X52203045Y-56304264D01*
X53192994Y-55314315D01*
X53192994Y-55314315D01*
G37*
G36*
X54359720Y-56481041D02*
X55278959Y-57400280D01*
X54289010Y-58390229D01*
X53369771Y-57470990D01*
X54359720Y-56481041D01*
X54359720Y-56481041D01*
G37*
G36*
X57470990Y-53369771D02*
X58390229Y-54289010D01*
X57400280Y-55278959D01*
X56481041Y-54359720D01*
X57470990Y-53369771D01*
X57470990Y-53369771D01*
G37*
G36*
X58567006Y-54465787D02*
X59556955Y-55455736D01*
X58567006Y-56445685D01*
X57577057Y-55455736D01*
X58567006Y-54465787D01*
X58567006Y-54465787D01*
G37*
G36*
X55455736Y-57577057D02*
X56445685Y-58567006D01*
X55455736Y-59556955D01*
X54465787Y-58567006D01*
X55455736Y-57577057D01*
X55455736Y-57577057D01*
G37*
G36*
X52203045Y-47835736D02*
X53192994Y-46845787D01*
X54182943Y-47835736D01*
X53192994Y-48825685D01*
X52203045Y-47835736D01*
X52203045Y-47835736D01*
G37*
G36*
X55314315Y-50947006D02*
X56304264Y-49957057D01*
X57294213Y-50947006D01*
X56304264Y-51936955D01*
X55314315Y-50947006D01*
X55314315Y-50947006D01*
G37*
G36*
X56481041Y-49780280D02*
X57400280Y-48861041D01*
X58390229Y-49850990D01*
X57470990Y-50770229D01*
X56481041Y-49780280D01*
X56481041Y-49780280D01*
G37*
G36*
X53369771Y-46669010D02*
X54289010Y-45749771D01*
X55278959Y-46739720D01*
X54359720Y-47658959D01*
X53369771Y-46669010D01*
X53369771Y-46669010D01*
G37*
G36*
X54465787Y-45572994D02*
X55455736Y-44583045D01*
X56445685Y-45572994D01*
X55455736Y-46562943D01*
X54465787Y-45572994D01*
X54465787Y-45572994D01*
G37*
G36*
X57577057Y-48684264D02*
X58567006Y-47694315D01*
X59556955Y-48684264D01*
X58567006Y-49674213D01*
X57577057Y-48684264D01*
X57577057Y-48684264D01*
G37*
G36*
X56304264Y-36963045D02*
X57294213Y-37952994D01*
X56304264Y-38942943D01*
X55314315Y-37952994D01*
X56304264Y-36963045D01*
X56304264Y-36963045D01*
G37*
G36*
X53192994Y-40074315D02*
X54182943Y-41064264D01*
X53192994Y-42054213D01*
X52203045Y-41064264D01*
X53192994Y-40074315D01*
X53192994Y-40074315D01*
G37*
G36*
X54359720Y-41241041D02*
X55278959Y-42160280D01*
X54289010Y-43150229D01*
X53369771Y-42230990D01*
X54359720Y-41241041D01*
X54359720Y-41241041D01*
G37*
G36*
X57470990Y-38129771D02*
X58390229Y-39049010D01*
X57400280Y-40038959D01*
X56481041Y-39119720D01*
X57470990Y-38129771D01*
X57470990Y-38129771D01*
G37*
G36*
X58567006Y-39225787D02*
X59556955Y-40215736D01*
X58567006Y-41205685D01*
X57577057Y-40215736D01*
X58567006Y-39225787D01*
X58567006Y-39225787D01*
G37*
G36*
X55455736Y-42337057D02*
X56445685Y-43327006D01*
X55455736Y-44316955D01*
X54465787Y-43327006D01*
X55455736Y-42337057D01*
X55455736Y-42337057D01*
G37*
G36*
X52203045Y-32595736D02*
X53192994Y-31605787D01*
X54182943Y-32595736D01*
X53192994Y-33585685D01*
X52203045Y-32595736D01*
X52203045Y-32595736D01*
G37*
G36*
X55314315Y-35707006D02*
X56304264Y-34717057D01*
X57294213Y-35707006D01*
X56304264Y-36696955D01*
X55314315Y-35707006D01*
X55314315Y-35707006D01*
G37*
G36*
X56481041Y-34540280D02*
X57400280Y-33621041D01*
X58390229Y-34610990D01*
X57470990Y-35530229D01*
X56481041Y-34540280D01*
X56481041Y-34540280D01*
G37*
G36*
X53369771Y-31429010D02*
X54289010Y-30509771D01*
X55278959Y-31499720D01*
X54359720Y-32418959D01*
X53369771Y-31429010D01*
X53369771Y-31429010D01*
G37*
G36*
X54465787Y-30332994D02*
X55455736Y-29343045D01*
X56445685Y-30332994D01*
X55455736Y-31322943D01*
X54465787Y-30332994D01*
X54465787Y-30332994D01*
G37*
G36*
X57577057Y-33444264D02*
X58567006Y-32454315D01*
X59556955Y-33444264D01*
X58567006Y-34434213D01*
X57577057Y-33444264D01*
X57577057Y-33444264D01*
G37*
G36*
X47835736Y-36696955D02*
X46845787Y-35707006D01*
X47835736Y-34717057D01*
X48825685Y-35707006D01*
X47835736Y-36696955D01*
X47835736Y-36696955D01*
G37*
G36*
X50947006Y-33585685D02*
X49957057Y-32595736D01*
X50947006Y-31605787D01*
X51936955Y-32595736D01*
X50947006Y-33585685D01*
X50947006Y-33585685D01*
G37*
G36*
X49780280Y-32418959D02*
X48861041Y-31499720D01*
X49850990Y-30509771D01*
X50770229Y-31429010D01*
X49780280Y-32418959D01*
X49780280Y-32418959D01*
G37*
G36*
X46669010Y-35530229D02*
X45749771Y-34610990D01*
X46739720Y-33621041D01*
X47658959Y-34540280D01*
X46669010Y-35530229D01*
X46669010Y-35530229D01*
G37*
G36*
X45572994Y-34434213D02*
X44583045Y-33444264D01*
X45572994Y-32454315D01*
X46562943Y-33444264D01*
X45572994Y-34434213D01*
X45572994Y-34434213D01*
G37*
G36*
X48684264Y-31322943D02*
X47694315Y-30332994D01*
X48684264Y-29343045D01*
X49674213Y-30332994D01*
X48684264Y-31322943D01*
X48684264Y-31322943D01*
G37*
G36*
X47835736Y-51936955D02*
X46845787Y-50947006D01*
X47835736Y-49957057D01*
X48825685Y-50947006D01*
X47835736Y-51936955D01*
X47835736Y-51936955D01*
G37*
G36*
X50947006Y-48825685D02*
X49957057Y-47835736D01*
X50947006Y-46845787D01*
X51936955Y-47835736D01*
X50947006Y-48825685D01*
X50947006Y-48825685D01*
G37*
G36*
X49780280Y-47658959D02*
X48861041Y-46739720D01*
X49850990Y-45749771D01*
X50770229Y-46669010D01*
X49780280Y-47658959D01*
X49780280Y-47658959D01*
G37*
G36*
X46669010Y-50770229D02*
X45749771Y-49850990D01*
X46739720Y-48861041D01*
X47658959Y-49780280D01*
X46669010Y-50770229D01*
X46669010Y-50770229D01*
G37*
G36*
X45572994Y-49674213D02*
X44583045Y-48684264D01*
X45572994Y-47694315D01*
X46562943Y-48684264D01*
X45572994Y-49674213D01*
X45572994Y-49674213D01*
G37*
G36*
X48684264Y-46562943D02*
X47694315Y-45572994D01*
X48684264Y-44583045D01*
X49674213Y-45572994D01*
X48684264Y-46562943D01*
X48684264Y-46562943D01*
G37*
G36*
X51936955Y-56304264D02*
X50947006Y-57294213D01*
X49957057Y-56304264D01*
X50947006Y-55314315D01*
X51936955Y-56304264D01*
X51936955Y-56304264D01*
G37*
G36*
X48825685Y-53192994D02*
X47835736Y-54182943D01*
X46845787Y-53192994D01*
X47835736Y-52203045D01*
X48825685Y-53192994D01*
X48825685Y-53192994D01*
G37*
G36*
X47658959Y-54359720D02*
X46739720Y-55278959D01*
X45749771Y-54289010D01*
X46669010Y-53369771D01*
X47658959Y-54359720D01*
X47658959Y-54359720D01*
G37*
G36*
X50770229Y-57470990D02*
X49850990Y-58390229D01*
X48861041Y-57400280D01*
X49780280Y-56481041D01*
X50770229Y-57470990D01*
X50770229Y-57470990D01*
G37*
G36*
X49674213Y-58567006D02*
X48684264Y-59556955D01*
X47694315Y-58567006D01*
X48684264Y-57577057D01*
X49674213Y-58567006D01*
X49674213Y-58567006D01*
G37*
G36*
X46562943Y-55455736D02*
X45572994Y-56445685D01*
X44583045Y-55455736D01*
X45572994Y-54465787D01*
X46562943Y-55455736D01*
X46562943Y-55455736D01*
G37*
G36*
X47835736Y-67176955D02*
X46845787Y-66187006D01*
X47835736Y-65197057D01*
X48825685Y-66187006D01*
X47835736Y-67176955D01*
X47835736Y-67176955D01*
G37*
G36*
X50947006Y-64065685D02*
X49957057Y-63075736D01*
X50947006Y-62085787D01*
X51936955Y-63075736D01*
X50947006Y-64065685D01*
X50947006Y-64065685D01*
G37*
G36*
X49780280Y-62898959D02*
X48861041Y-61979720D01*
X49850990Y-60989771D01*
X50770229Y-61909010D01*
X49780280Y-62898959D01*
X49780280Y-62898959D01*
G37*
G36*
X46669010Y-66010229D02*
X45749771Y-65090990D01*
X46739720Y-64101041D01*
X47658959Y-65020280D01*
X46669010Y-66010229D01*
X46669010Y-66010229D01*
G37*
G36*
X45572994Y-64914213D02*
X44583045Y-63924264D01*
X45572994Y-62934315D01*
X46562943Y-63924264D01*
X45572994Y-64914213D01*
X45572994Y-64914213D01*
G37*
G36*
X48684264Y-61802943D02*
X47694315Y-60812994D01*
X48684264Y-59823045D01*
X49674213Y-60812994D01*
X48684264Y-61802943D01*
X48684264Y-61802943D01*
G37*
G36*
X47835736Y-82416955D02*
X46845787Y-81427006D01*
X47835736Y-80437057D01*
X48825685Y-81427006D01*
X47835736Y-82416955D01*
X47835736Y-82416955D01*
G37*
G36*
X50947006Y-79305685D02*
X49957057Y-78315736D01*
X50947006Y-77325787D01*
X51936955Y-78315736D01*
X50947006Y-79305685D01*
X50947006Y-79305685D01*
G37*
G36*
X49780280Y-78138959D02*
X48861041Y-77219720D01*
X49850990Y-76229771D01*
X50770229Y-77149010D01*
X49780280Y-78138959D01*
X49780280Y-78138959D01*
G37*
G36*
X46669010Y-81250229D02*
X45749771Y-80330990D01*
X46739720Y-79341041D01*
X47658959Y-80260280D01*
X46669010Y-81250229D01*
X46669010Y-81250229D01*
G37*
G36*
X45572994Y-80154213D02*
X44583045Y-79164264D01*
X45572994Y-78174315D01*
X46562943Y-79164264D01*
X45572994Y-80154213D01*
X45572994Y-80154213D01*
G37*
G36*
X48684264Y-77042943D02*
X47694315Y-76052994D01*
X48684264Y-75063045D01*
X49674213Y-76052994D01*
X48684264Y-77042943D01*
X48684264Y-77042943D01*
G37*
G36*
X36963045Y-78315736D02*
X37952994Y-77325787D01*
X38942943Y-78315736D01*
X37952994Y-79305685D01*
X36963045Y-78315736D01*
X36963045Y-78315736D01*
G37*
G36*
X40074315Y-81427006D02*
X41064264Y-80437057D01*
X42054213Y-81427006D01*
X41064264Y-82416955D01*
X40074315Y-81427006D01*
X40074315Y-81427006D01*
G37*
G36*
X41241041Y-80260280D02*
X42160280Y-79341041D01*
X43150229Y-80330990D01*
X42230990Y-81250229D01*
X41241041Y-80260280D01*
X41241041Y-80260280D01*
G37*
G36*
X38129771Y-77149010D02*
X39049010Y-76229771D01*
X40038959Y-77219720D01*
X39119720Y-78138959D01*
X38129771Y-77149010D01*
X38129771Y-77149010D01*
G37*
G36*
X39225787Y-76052994D02*
X40215736Y-75063045D01*
X41205685Y-76052994D01*
X40215736Y-77042943D01*
X39225787Y-76052994D01*
X39225787Y-76052994D01*
G37*
G36*
X42337057Y-79164264D02*
X43327006Y-78174315D01*
X44316955Y-79164264D01*
X43327006Y-80154213D01*
X42337057Y-79164264D01*
X42337057Y-79164264D01*
G37*
G36*
X41064264Y-67443045D02*
X42054213Y-68432994D01*
X41064264Y-69422943D01*
X40074315Y-68432994D01*
X41064264Y-67443045D01*
X41064264Y-67443045D01*
G37*
G36*
X37952994Y-70554315D02*
X38942943Y-71544264D01*
X37952994Y-72534213D01*
X36963045Y-71544264D01*
X37952994Y-70554315D01*
X37952994Y-70554315D01*
G37*
G36*
X39119720Y-71721041D02*
X40038959Y-72640280D01*
X39049010Y-73630229D01*
X38129771Y-72710990D01*
X39119720Y-71721041D01*
X39119720Y-71721041D01*
G37*
G36*
X42230990Y-68609771D02*
X43150229Y-69529010D01*
X42160280Y-70518959D01*
X41241041Y-69599720D01*
X42230990Y-68609771D01*
X42230990Y-68609771D01*
G37*
G36*
X43327006Y-69705787D02*
X44316955Y-70695736D01*
X43327006Y-71685685D01*
X42337057Y-70695736D01*
X43327006Y-69705787D01*
X43327006Y-69705787D01*
G37*
G36*
X40215736Y-72817057D02*
X41205685Y-73807006D01*
X40215736Y-74796955D01*
X39225787Y-73807006D01*
X40215736Y-72817057D01*
X40215736Y-72817057D01*
G37*
G36*
X36963045Y-63075736D02*
X37952994Y-62085787D01*
X38942943Y-63075736D01*
X37952994Y-64065685D01*
X36963045Y-63075736D01*
X36963045Y-63075736D01*
G37*
G36*
X40074315Y-66187006D02*
X41064264Y-65197057D01*
X42054213Y-66187006D01*
X41064264Y-67176955D01*
X40074315Y-66187006D01*
X40074315Y-66187006D01*
G37*
G36*
X41241041Y-65020280D02*
X42160280Y-64101041D01*
X43150229Y-65090990D01*
X42230990Y-66010229D01*
X41241041Y-65020280D01*
X41241041Y-65020280D01*
G37*
G36*
X38129771Y-61909010D02*
X39049010Y-60989771D01*
X40038959Y-61979720D01*
X39119720Y-62898959D01*
X38129771Y-61909010D01*
X38129771Y-61909010D01*
G37*
G36*
X39225787Y-60812994D02*
X40215736Y-59823045D01*
X41205685Y-60812994D01*
X40215736Y-61802943D01*
X39225787Y-60812994D01*
X39225787Y-60812994D01*
G37*
G36*
X42337057Y-63924264D02*
X43327006Y-62934315D01*
X44316955Y-63924264D01*
X43327006Y-64914213D01*
X42337057Y-63924264D01*
X42337057Y-63924264D01*
G37*
G36*
X41064264Y-36963045D02*
X42054213Y-37952994D01*
X41064264Y-38942943D01*
X40074315Y-37952994D01*
X41064264Y-36963045D01*
X41064264Y-36963045D01*
G37*
G36*
X37952994Y-40074315D02*
X38942943Y-41064264D01*
X37952994Y-42054213D01*
X36963045Y-41064264D01*
X37952994Y-40074315D01*
X37952994Y-40074315D01*
G37*
G36*
X39119720Y-41241041D02*
X40038959Y-42160280D01*
X39049010Y-43150229D01*
X38129771Y-42230990D01*
X39119720Y-41241041D01*
X39119720Y-41241041D01*
G37*
G36*
X42230990Y-38129771D02*
X43150229Y-39049010D01*
X42160280Y-40038959D01*
X41241041Y-39119720D01*
X42230990Y-38129771D01*
X42230990Y-38129771D01*
G37*
G36*
X43327006Y-39225787D02*
X44316955Y-40215736D01*
X43327006Y-41205685D01*
X42337057Y-40215736D01*
X43327006Y-39225787D01*
X43327006Y-39225787D01*
G37*
G36*
X40215736Y-42337057D02*
X41205685Y-43327006D01*
X40215736Y-44316955D01*
X39225787Y-43327006D01*
X40215736Y-42337057D01*
X40215736Y-42337057D01*
G37*
G36*
X36963045Y-32595736D02*
X37952994Y-31605787D01*
X38942943Y-32595736D01*
X37952994Y-33585685D01*
X36963045Y-32595736D01*
X36963045Y-32595736D01*
G37*
G36*
X40074315Y-35707006D02*
X41064264Y-34717057D01*
X42054213Y-35707006D01*
X41064264Y-36696955D01*
X40074315Y-35707006D01*
X40074315Y-35707006D01*
G37*
G36*
X41241041Y-34540280D02*
X42160280Y-33621041D01*
X43150229Y-34610990D01*
X42230990Y-35530229D01*
X41241041Y-34540280D01*
X41241041Y-34540280D01*
G37*
G36*
X38129771Y-31429010D02*
X39049010Y-30509771D01*
X40038959Y-31499720D01*
X39119720Y-32418959D01*
X38129771Y-31429010D01*
X38129771Y-31429010D01*
G37*
G36*
X39225787Y-30332994D02*
X40215736Y-29343045D01*
X41205685Y-30332994D01*
X40215736Y-31322943D01*
X39225787Y-30332994D01*
X39225787Y-30332994D01*
G37*
G36*
X42337057Y-33444264D02*
X43327006Y-32454315D01*
X44316955Y-33444264D01*
X43327006Y-34434213D01*
X42337057Y-33444264D01*
X42337057Y-33444264D01*
G37*
G36*
X32595736Y-36696955D02*
X31605787Y-35707006D01*
X32595736Y-34717057D01*
X33585685Y-35707006D01*
X32595736Y-36696955D01*
X32595736Y-36696955D01*
G37*
G36*
X35707006Y-33585685D02*
X34717057Y-32595736D01*
X35707006Y-31605787D01*
X36696955Y-32595736D01*
X35707006Y-33585685D01*
X35707006Y-33585685D01*
G37*
G36*
X34540280Y-32418959D02*
X33621041Y-31499720D01*
X34610990Y-30509771D01*
X35530229Y-31429010D01*
X34540280Y-32418959D01*
X34540280Y-32418959D01*
G37*
G36*
X31429010Y-35530229D02*
X30509771Y-34610990D01*
X31499720Y-33621041D01*
X32418959Y-34540280D01*
X31429010Y-35530229D01*
X31429010Y-35530229D01*
G37*
G36*
X30332994Y-34434213D02*
X29343045Y-33444264D01*
X30332994Y-32454315D01*
X31322943Y-33444264D01*
X30332994Y-34434213D01*
X30332994Y-34434213D01*
G37*
G36*
X33444264Y-31322943D02*
X32454315Y-30332994D01*
X33444264Y-29343045D01*
X34434213Y-30332994D01*
X33444264Y-31322943D01*
X33444264Y-31322943D01*
G37*
G36*
X36696955Y-41064264D02*
X35707006Y-42054213D01*
X34717057Y-41064264D01*
X35707006Y-40074315D01*
X36696955Y-41064264D01*
X36696955Y-41064264D01*
G37*
G36*
X33585685Y-37952994D02*
X32595736Y-38942943D01*
X31605787Y-37952994D01*
X32595736Y-36963045D01*
X33585685Y-37952994D01*
X33585685Y-37952994D01*
G37*
G36*
X32418959Y-39119720D02*
X31499720Y-40038959D01*
X30509771Y-39049010D01*
X31429010Y-38129771D01*
X32418959Y-39119720D01*
X32418959Y-39119720D01*
G37*
G36*
X35530229Y-42230990D02*
X34610990Y-43150229D01*
X33621041Y-42160280D01*
X34540280Y-41241041D01*
X35530229Y-42230990D01*
X35530229Y-42230990D01*
G37*
G36*
X34434213Y-43327006D02*
X33444264Y-44316955D01*
X32454315Y-43327006D01*
X33444264Y-42337057D01*
X34434213Y-43327006D01*
X34434213Y-43327006D01*
G37*
G36*
X31322943Y-40215736D02*
X30332994Y-41205685D01*
X29343045Y-40215736D01*
X30332994Y-39225787D01*
X31322943Y-40215736D01*
X31322943Y-40215736D01*
G37*
G36*
X36696955Y-71544264D02*
X35707006Y-72534213D01*
X34717057Y-71544264D01*
X35707006Y-70554315D01*
X36696955Y-71544264D01*
X36696955Y-71544264D01*
G37*
G36*
X33585685Y-68432994D02*
X32595736Y-69422943D01*
X31605787Y-68432994D01*
X32595736Y-67443045D01*
X33585685Y-68432994D01*
X33585685Y-68432994D01*
G37*
G36*
X32418959Y-69599720D02*
X31499720Y-70518959D01*
X30509771Y-69529010D01*
X31429010Y-68609771D01*
X32418959Y-69599720D01*
X32418959Y-69599720D01*
G37*
G36*
X35530229Y-72710990D02*
X34610990Y-73630229D01*
X33621041Y-72640280D01*
X34540280Y-71721041D01*
X35530229Y-72710990D01*
X35530229Y-72710990D01*
G37*
G36*
X34434213Y-73807006D02*
X33444264Y-74796955D01*
X32454315Y-73807006D01*
X33444264Y-72817057D01*
X34434213Y-73807006D01*
X34434213Y-73807006D01*
G37*
G36*
X31322943Y-70695736D02*
X30332994Y-71685685D01*
X29343045Y-70695736D01*
X30332994Y-69705787D01*
X31322943Y-70695736D01*
X31322943Y-70695736D01*
G37*
G36*
X32595736Y-82416955D02*
X31605787Y-81427006D01*
X32595736Y-80437057D01*
X33585685Y-81427006D01*
X32595736Y-82416955D01*
X32595736Y-82416955D01*
G37*
G36*
X35707006Y-79305685D02*
X34717057Y-78315736D01*
X35707006Y-77325787D01*
X36696955Y-78315736D01*
X35707006Y-79305685D01*
X35707006Y-79305685D01*
G37*
G36*
X34540280Y-78138959D02*
X33621041Y-77219720D01*
X34610990Y-76229771D01*
X35530229Y-77149010D01*
X34540280Y-78138959D01*
X34540280Y-78138959D01*
G37*
G36*
X31429010Y-81250229D02*
X30509771Y-80330990D01*
X31499720Y-79341041D01*
X32418959Y-80260280D01*
X31429010Y-81250229D01*
X31429010Y-81250229D01*
G37*
G36*
X30332994Y-80154213D02*
X29343045Y-79164264D01*
X30332994Y-78174315D01*
X31322943Y-79164264D01*
X30332994Y-80154213D01*
X30332994Y-80154213D01*
G37*
G36*
X33444264Y-77042943D02*
X32454315Y-76052994D01*
X33444264Y-75063045D01*
X34434213Y-76052994D01*
X33444264Y-77042943D01*
X33444264Y-77042943D01*
G37*
G36*
X32595736Y-67176955D02*
X31605787Y-66187006D01*
X32595736Y-65197057D01*
X33585685Y-66187006D01*
X32595736Y-67176955D01*
X32595736Y-67176955D01*
G37*
G36*
X35707006Y-64065685D02*
X34717057Y-63075736D01*
X35707006Y-62085787D01*
X36696955Y-63075736D01*
X35707006Y-64065685D01*
X35707006Y-64065685D01*
G37*
G36*
X34540280Y-62898959D02*
X33621041Y-61979720D01*
X34610990Y-60989771D01*
X35530229Y-61909010D01*
X34540280Y-62898959D01*
X34540280Y-62898959D01*
G37*
G36*
X31429010Y-66010229D02*
X30509771Y-65090990D01*
X31499720Y-64101041D01*
X32418959Y-65020280D01*
X31429010Y-66010229D01*
X31429010Y-66010229D01*
G37*
G36*
X30332994Y-64914213D02*
X29343045Y-63924264D01*
X30332994Y-62934315D01*
X31322943Y-63924264D01*
X30332994Y-64914213D01*
X30332994Y-64914213D01*
G37*
G36*
X33444264Y-61802943D02*
X32454315Y-60812994D01*
X33444264Y-59823045D01*
X34434213Y-60812994D01*
X33444264Y-61802943D01*
X33444264Y-61802943D01*
G37*
G36*
X36696955Y-86784264D02*
X35707006Y-87774213D01*
X34717057Y-86784264D01*
X35707006Y-85794315D01*
X36696955Y-86784264D01*
X36696955Y-86784264D01*
G37*
G36*
X33585685Y-83672994D02*
X32595736Y-84662943D01*
X31605787Y-83672994D01*
X32595736Y-82683045D01*
X33585685Y-83672994D01*
X33585685Y-83672994D01*
G37*
G36*
X32418959Y-84839720D02*
X31499720Y-85758959D01*
X30509771Y-84769010D01*
X31429010Y-83849771D01*
X32418959Y-84839720D01*
X32418959Y-84839720D01*
G37*
G36*
X35530229Y-87950990D02*
X34610990Y-88870229D01*
X33621041Y-87880280D01*
X34540280Y-86961041D01*
X35530229Y-87950990D01*
X35530229Y-87950990D01*
G37*
G36*
X34434213Y-89047006D02*
X33444264Y-90036955D01*
X32454315Y-89047006D01*
X33444264Y-88057057D01*
X34434213Y-89047006D01*
X34434213Y-89047006D01*
G37*
G36*
X31322943Y-85935736D02*
X30332994Y-86925685D01*
X29343045Y-85935736D01*
X30332994Y-84945787D01*
X31322943Y-85935736D01*
X31322943Y-85935736D01*
G37*
G36*
X41064264Y-82683045D02*
X42054213Y-83672994D01*
X41064264Y-84662943D01*
X40074315Y-83672994D01*
X41064264Y-82683045D01*
X41064264Y-82683045D01*
G37*
G36*
X37952994Y-85794315D02*
X38942943Y-86784264D01*
X37952994Y-87774213D01*
X36963045Y-86784264D01*
X37952994Y-85794315D01*
X37952994Y-85794315D01*
G37*
G36*
X39119720Y-86961041D02*
X40038959Y-87880280D01*
X39049010Y-88870229D01*
X38129771Y-87950990D01*
X39119720Y-86961041D01*
X39119720Y-86961041D01*
G37*
G36*
X42230990Y-83849771D02*
X43150229Y-84769010D01*
X42160280Y-85758959D01*
X41241041Y-84839720D01*
X42230990Y-83849771D01*
X42230990Y-83849771D01*
G37*
G36*
X43327006Y-84945787D02*
X44316955Y-85935736D01*
X43327006Y-86925685D01*
X42337057Y-85935736D01*
X43327006Y-84945787D01*
X43327006Y-84945787D01*
G37*
G36*
X40215736Y-88057057D02*
X41205685Y-89047006D01*
X40215736Y-90036955D01*
X39225787Y-89047006D01*
X40215736Y-88057057D01*
X40215736Y-88057057D01*
G37*
G36*
X51936955Y-86784264D02*
X50947006Y-87774213D01*
X49957057Y-86784264D01*
X50947006Y-85794315D01*
X51936955Y-86784264D01*
X51936955Y-86784264D01*
G37*
G36*
X48825685Y-83672994D02*
X47835736Y-84662943D01*
X46845787Y-83672994D01*
X47835736Y-82683045D01*
X48825685Y-83672994D01*
X48825685Y-83672994D01*
G37*
G36*
X47658959Y-84839720D02*
X46739720Y-85758959D01*
X45749771Y-84769010D01*
X46669010Y-83849771D01*
X47658959Y-84839720D01*
X47658959Y-84839720D01*
G37*
G36*
X50770229Y-87950990D02*
X49850990Y-88870229D01*
X48861041Y-87880280D01*
X49780280Y-86961041D01*
X50770229Y-87950990D01*
X50770229Y-87950990D01*
G37*
G36*
X49674213Y-89047006D02*
X48684264Y-90036955D01*
X47694315Y-89047006D01*
X48684264Y-88057057D01*
X49674213Y-89047006D01*
X49674213Y-89047006D01*
G37*
G36*
X46562943Y-85935736D02*
X45572994Y-86925685D01*
X44583045Y-85935736D01*
X45572994Y-84945787D01*
X46562943Y-85935736D01*
X46562943Y-85935736D01*
G37*
G36*
X56304264Y-82683045D02*
X57294213Y-83672994D01*
X56304264Y-84662943D01*
X55314315Y-83672994D01*
X56304264Y-82683045D01*
X56304264Y-82683045D01*
G37*
G36*
X53192994Y-85794315D02*
X54182943Y-86784264D01*
X53192994Y-87774213D01*
X52203045Y-86784264D01*
X53192994Y-85794315D01*
X53192994Y-85794315D01*
G37*
G36*
X54359720Y-86961041D02*
X55278959Y-87880280D01*
X54289010Y-88870229D01*
X53369771Y-87950990D01*
X54359720Y-86961041D01*
X54359720Y-86961041D01*
G37*
G36*
X57470990Y-83849771D02*
X58390229Y-84769010D01*
X57400280Y-85758959D01*
X56481041Y-84839720D01*
X57470990Y-83849771D01*
X57470990Y-83849771D01*
G37*
G36*
X58567006Y-84945787D02*
X59556955Y-85935736D01*
X58567006Y-86925685D01*
X57577057Y-85935736D01*
X58567006Y-84945787D01*
X58567006Y-84945787D01*
G37*
G36*
X55455736Y-88057057D02*
X56445685Y-89047006D01*
X55455736Y-90036955D01*
X54465787Y-89047006D01*
X55455736Y-88057057D01*
X55455736Y-88057057D01*
G37*
G36*
X67176955Y-86784264D02*
X66187006Y-87774213D01*
X65197057Y-86784264D01*
X66187006Y-85794315D01*
X67176955Y-86784264D01*
X67176955Y-86784264D01*
G37*
G36*
X64065685Y-83672994D02*
X63075736Y-84662943D01*
X62085787Y-83672994D01*
X63075736Y-82683045D01*
X64065685Y-83672994D01*
X64065685Y-83672994D01*
G37*
G36*
X62898959Y-84839720D02*
X61979720Y-85758959D01*
X60989771Y-84769010D01*
X61909010Y-83849771D01*
X62898959Y-84839720D01*
X62898959Y-84839720D01*
G37*
G36*
X66010229Y-87950990D02*
X65090990Y-88870229D01*
X64101041Y-87880280D01*
X65020280Y-86961041D01*
X66010229Y-87950990D01*
X66010229Y-87950990D01*
G37*
G36*
X64914213Y-89047006D02*
X63924264Y-90036955D01*
X62934315Y-89047006D01*
X63924264Y-88057057D01*
X64914213Y-89047006D01*
X64914213Y-89047006D01*
G37*
G36*
X61802943Y-85935736D02*
X60812994Y-86925685D01*
X59823045Y-85935736D01*
X60812994Y-84945787D01*
X61802943Y-85935736D01*
X61802943Y-85935736D01*
G37*
G36*
X71544264Y-82683045D02*
X72534213Y-83672994D01*
X71544264Y-84662943D01*
X70554315Y-83672994D01*
X71544264Y-82683045D01*
X71544264Y-82683045D01*
G37*
G36*
X68432994Y-85794315D02*
X69422943Y-86784264D01*
X68432994Y-87774213D01*
X67443045Y-86784264D01*
X68432994Y-85794315D01*
X68432994Y-85794315D01*
G37*
G36*
X69599720Y-86961041D02*
X70518959Y-87880280D01*
X69529010Y-88870229D01*
X68609771Y-87950990D01*
X69599720Y-86961041D01*
X69599720Y-86961041D01*
G37*
G36*
X72710990Y-83849771D02*
X73630229Y-84769010D01*
X72640280Y-85758959D01*
X71721041Y-84839720D01*
X72710990Y-83849771D01*
X72710990Y-83849771D01*
G37*
G36*
X73807006Y-84945787D02*
X74796955Y-85935736D01*
X73807006Y-86925685D01*
X72817057Y-85935736D01*
X73807006Y-84945787D01*
X73807006Y-84945787D01*
G37*
G36*
X70695736Y-88057057D02*
X71685685Y-89047006D01*
X70695736Y-90036955D01*
X69705787Y-89047006D01*
X70695736Y-88057057D01*
X70695736Y-88057057D01*
G37*
G36*
X82416955Y-86784264D02*
X81427006Y-87774213D01*
X80437057Y-86784264D01*
X81427006Y-85794315D01*
X82416955Y-86784264D01*
X82416955Y-86784264D01*
G37*
G36*
X79305685Y-83672994D02*
X78315736Y-84662943D01*
X77325787Y-83672994D01*
X78315736Y-82683045D01*
X79305685Y-83672994D01*
X79305685Y-83672994D01*
G37*
G36*
X78138959Y-84839720D02*
X77219720Y-85758959D01*
X76229771Y-84769010D01*
X77149010Y-83849771D01*
X78138959Y-84839720D01*
X78138959Y-84839720D01*
G37*
G36*
X81250229Y-87950990D02*
X80330990Y-88870229D01*
X79341041Y-87880280D01*
X80260280Y-86961041D01*
X81250229Y-87950990D01*
X81250229Y-87950990D01*
G37*
G36*
X80154213Y-89047006D02*
X79164264Y-90036955D01*
X78174315Y-89047006D01*
X79164264Y-88057057D01*
X80154213Y-89047006D01*
X80154213Y-89047006D01*
G37*
G36*
X77042943Y-85935736D02*
X76052994Y-86925685D01*
X75063045Y-85935736D01*
X76052994Y-84945787D01*
X77042943Y-85935736D01*
X77042943Y-85935736D01*
G37*
G36*
X86784264Y-82683045D02*
X87774213Y-83672994D01*
X86784264Y-84662943D01*
X85794315Y-83672994D01*
X86784264Y-82683045D01*
X86784264Y-82683045D01*
G37*
G36*
X83672994Y-85794315D02*
X84662943Y-86784264D01*
X83672994Y-87774213D01*
X82683045Y-86784264D01*
X83672994Y-85794315D01*
X83672994Y-85794315D01*
G37*
G36*
X84839720Y-86961041D02*
X85758959Y-87880280D01*
X84769010Y-88870229D01*
X83849771Y-87950990D01*
X84839720Y-86961041D01*
X84839720Y-86961041D01*
G37*
G36*
X87950990Y-83849771D02*
X88870229Y-84769010D01*
X87880280Y-85758959D01*
X86961041Y-84839720D01*
X87950990Y-83849771D01*
X87950990Y-83849771D01*
G37*
G36*
X89047006Y-84945787D02*
X90036955Y-85935736D01*
X89047006Y-86925685D01*
X88057057Y-85935736D01*
X89047006Y-84945787D01*
X89047006Y-84945787D01*
G37*
G36*
X85935736Y-88057057D02*
X86925685Y-89047006D01*
X85935736Y-90036955D01*
X84945787Y-89047006D01*
X85935736Y-88057057D01*
X85935736Y-88057057D01*
G37*
G36*
X67443045Y-47835736D02*
X68432994Y-46845787D01*
X69422943Y-47835736D01*
X68432994Y-48825685D01*
X67443045Y-47835736D01*
X67443045Y-47835736D01*
G37*
G36*
X70554315Y-50947006D02*
X71544264Y-49957057D01*
X72534213Y-50947006D01*
X71544264Y-51936955D01*
X70554315Y-50947006D01*
X70554315Y-50947006D01*
G37*
G36*
X71721041Y-49780280D02*
X72640280Y-48861041D01*
X73630229Y-49850990D01*
X72710990Y-50770229D01*
X71721041Y-49780280D01*
X71721041Y-49780280D01*
G37*
G36*
X68609771Y-46669010D02*
X69529010Y-45749771D01*
X70518959Y-46739720D01*
X69599720Y-47658959D01*
X68609771Y-46669010D01*
X68609771Y-46669010D01*
G37*
G36*
X69705787Y-45572994D02*
X70695736Y-44583045D01*
X71685685Y-45572994D01*
X70695736Y-46562943D01*
X69705787Y-45572994D01*
X69705787Y-45572994D01*
G37*
G36*
X72817057Y-48684264D02*
X73807006Y-47694315D01*
X74796955Y-48684264D01*
X73807006Y-49674213D01*
X72817057Y-48684264D01*
X72817057Y-48684264D01*
G37*
G36*
X82683045Y-78315736D02*
X83672994Y-77325787D01*
X84662943Y-78315736D01*
X83672994Y-79305685D01*
X82683045Y-78315736D01*
X82683045Y-78315736D01*
G37*
G36*
X85794315Y-81427006D02*
X86784264Y-80437057D01*
X87774213Y-81427006D01*
X86784264Y-82416955D01*
X85794315Y-81427006D01*
X85794315Y-81427006D01*
G37*
G36*
X86961041Y-80260280D02*
X87880280Y-79341041D01*
X88870229Y-80330990D01*
X87950990Y-81250229D01*
X86961041Y-80260280D01*
X86961041Y-80260280D01*
G37*
G36*
X83849771Y-77149010D02*
X84769010Y-76229771D01*
X85758959Y-77219720D01*
X84839720Y-78138959D01*
X83849771Y-77149010D01*
X83849771Y-77149010D01*
G37*
G36*
X84945787Y-76052994D02*
X85935736Y-75063045D01*
X86925685Y-76052994D01*
X85935736Y-77042943D01*
X84945787Y-76052994D01*
X84945787Y-76052994D01*
G37*
G36*
X88057057Y-79164264D02*
X89047006Y-78174315D01*
X90036955Y-79164264D01*
X89047006Y-80154213D01*
X88057057Y-79164264D01*
X88057057Y-79164264D01*
G37*
M02*
