M48
INCH,TZ
T1C0.025
T2C0.040
T3C0.120
%
G90
G05
T1
X012150Y-028650
X012250Y-024400
X012432Y-034568
X012750Y-034243
X013167Y-013668
X013167Y-015332
X013167Y-019668
X013167Y-021332
X013167Y-025668
X013167Y-027332
X013167Y-031668
X013167Y-033332
X013668Y-013167
X013668Y-015833
X013668Y-019167
X013668Y-021833
X013668Y-025167
X013668Y-027833
X013668Y-031167
X013668Y-033833
X015332Y-013167
X015332Y-015833
X015332Y-019167
X015332Y-021833
X015332Y-025167
X015332Y-027833
X015332Y-031167
X015332Y-033833
X015833Y-013668
X015833Y-015332
X015833Y-019668
X015833Y-021332
X015833Y-025668
X015833Y-027332
X015833Y-031668
X015833Y-033332
X019167Y-013668
X019167Y-015332
X019167Y-019668
X019167Y-021332
X019167Y-025668
X019167Y-027332
X019167Y-031668
X019167Y-033332
X019668Y-013167
X019668Y-015833
X019668Y-019167
X019668Y-021833
X019668Y-025167
X019668Y-027833
X019668Y-031167
X019668Y-033833
X021332Y-013167
X021332Y-015833
X021332Y-019167
X021332Y-021833
X021332Y-025167
X021332Y-027833
X021332Y-031167
X021332Y-033833
X021833Y-013668
X021833Y-015332
X021833Y-019668
X021833Y-021332
X021833Y-025668
X021833Y-027332
X021833Y-031668
X021833Y-033332
X025167Y-013668
X025167Y-015332
X025167Y-019668
X025167Y-021332
X025167Y-025668
X025167Y-027332
X025167Y-031668
X025167Y-033332
X025668Y-013167
X025668Y-015833
X025668Y-019167
X025668Y-021833
X025668Y-025167
X025668Y-027833
X025668Y-031167
X025668Y-033833
X027332Y-013167
X027332Y-015833
X027332Y-019167
X027332Y-021833
X027332Y-025167
X027332Y-027833
X027332Y-031167
X027332Y-033833
X027833Y-013668
X027833Y-015332
X027833Y-019668
X027833Y-021332
X027833Y-025668
X027833Y-027332
X027833Y-031668
X027833Y-033332
X031167Y-013668
X031167Y-015332
X031167Y-019668
X031167Y-021332
X031167Y-025668
X031167Y-027332
X031167Y-031668
X031167Y-033332
X031668Y-013167
X031668Y-015833
X031668Y-019167
X031668Y-021833
X031668Y-025167
X031668Y-027833
X031668Y-031167
X031668Y-033833
X032750Y-035000
X033332Y-013167
X033332Y-015833
X033332Y-019167
X033332Y-021833
X033332Y-025167
X033332Y-027833
X033332Y-031167
X033332Y-033833
X033833Y-013668
X033833Y-015332
X033833Y-019668
X033833Y-021332
X033833Y-025668
X033833Y-027332
X033833Y-031668
X033833Y-033332
X034250Y-018600
X034250Y-034500
T2
X016793Y-023500
X017500Y-022793
X017500Y-024207
X018207Y-023500
X022793Y-017500
X022793Y-029500
X023500Y-016793
X023500Y-018207
X023500Y-028793
X023500Y-030207
X024207Y-017500
X024207Y-029500
X028793Y-023500
X029500Y-022793
X029500Y-024207
X030207Y-023500
T3
X014500Y-014500
X014500Y-020500
X014500Y-026500
X014500Y-032500
X020500Y-014500
X020500Y-020500
X020500Y-026500
X020500Y-032500
X026500Y-014500
X026500Y-020500
X026500Y-026500
X026500Y-032500
X032500Y-014500
X032500Y-020500
X032500Y-026500
X032500Y-032500
T0
M30
