%TF.GenerationSoftware,KiCad,Pcbnew,4.0.6-e0-6349~53~ubuntu16.04.1*%
%TF.CreationDate,2017-08-11T00:01:19+05:30*%
%TF.ProjectId,ultim8x8,756C74696D3878382E6B696361645F70,2.0*%
%TF.FileFunction,Soldermask,Top*%
%FSLAX46Y46*%
G04 Gerber Fmt 4.6, Leading zero omitted, Abs format (unit mm)*
G04 Created by KiCad (PCBNEW 4.0.6-e0-6349~53~ubuntu16.04.1) date Fri Aug 11 00:01:19 2017*
%MOMM*%
%LPD*%
G01*
G04 APERTURE LIST*
%ADD10C,0.254000*%
%ADD11C,6.108000*%
%ADD12C,2.032000*%
G04 APERTURE END LIST*
D10*
D11*
X82550000Y-82550000D03*
X82550000Y-36830000D03*
X67310000Y-67310000D03*
X52070000Y-67310000D03*
X36830000Y-36830000D03*
X36830000Y-82550000D03*
X52070000Y-52070000D03*
X67310000Y-52070000D03*
D10*
G36*
X52296166Y-41064264D02*
X50947006Y-42413424D01*
X49597846Y-41064264D01*
X50947006Y-39715104D01*
X52296166Y-41064264D01*
X52296166Y-41064264D01*
G37*
G36*
X49184896Y-37952994D02*
X47835736Y-39302154D01*
X46486576Y-37952994D01*
X47835736Y-36603834D01*
X49184896Y-37952994D01*
X49184896Y-37952994D01*
G37*
G36*
X48018169Y-39119720D02*
X46739720Y-40398169D01*
X45390561Y-39049010D01*
X46669010Y-37770561D01*
X48018169Y-39119720D01*
X48018169Y-39119720D01*
G37*
G36*
X51129439Y-42230990D02*
X49850990Y-43509439D01*
X48501831Y-42160280D01*
X49780280Y-40881831D01*
X51129439Y-42230990D01*
X51129439Y-42230990D01*
G37*
G36*
X50033424Y-43327006D02*
X48684264Y-44676166D01*
X47335104Y-43327006D01*
X48684264Y-41977846D01*
X50033424Y-43327006D01*
X50033424Y-43327006D01*
G37*
G36*
X46922154Y-40215736D02*
X45572994Y-41564896D01*
X44223834Y-40215736D01*
X45572994Y-38866576D01*
X46922154Y-40215736D01*
X46922154Y-40215736D01*
G37*
G36*
X86784264Y-51843834D02*
X88133424Y-53192994D01*
X86784264Y-54542154D01*
X85435104Y-53192994D01*
X86784264Y-51843834D01*
X86784264Y-51843834D01*
G37*
G36*
X83672994Y-54955104D02*
X85022154Y-56304264D01*
X83672994Y-57653424D01*
X82323834Y-56304264D01*
X83672994Y-54955104D01*
X83672994Y-54955104D01*
G37*
G36*
X84839720Y-56121831D02*
X86118169Y-57400280D01*
X84769010Y-58749439D01*
X83490561Y-57470990D01*
X84839720Y-56121831D01*
X84839720Y-56121831D01*
G37*
G36*
X87950990Y-53010561D02*
X89229439Y-54289010D01*
X87880280Y-55638169D01*
X86601831Y-54359720D01*
X87950990Y-53010561D01*
X87950990Y-53010561D01*
G37*
G36*
X89047006Y-54106576D02*
X90396166Y-55455736D01*
X89047006Y-56804896D01*
X87697846Y-55455736D01*
X89047006Y-54106576D01*
X89047006Y-54106576D01*
G37*
G36*
X85935736Y-57217846D02*
X87284896Y-58567006D01*
X85935736Y-59916166D01*
X84586576Y-58567006D01*
X85935736Y-57217846D01*
X85935736Y-57217846D01*
G37*
G36*
X82323834Y-47835736D02*
X83672994Y-46486576D01*
X85022154Y-47835736D01*
X83672994Y-49184896D01*
X82323834Y-47835736D01*
X82323834Y-47835736D01*
G37*
G36*
X85435104Y-50947006D02*
X86784264Y-49597846D01*
X88133424Y-50947006D01*
X86784264Y-52296166D01*
X85435104Y-50947006D01*
X85435104Y-50947006D01*
G37*
G36*
X86601831Y-49780280D02*
X87880280Y-48501831D01*
X89229439Y-49850990D01*
X87950990Y-51129439D01*
X86601831Y-49780280D01*
X86601831Y-49780280D01*
G37*
G36*
X83490561Y-46669010D02*
X84769010Y-45390561D01*
X86118169Y-46739720D01*
X84839720Y-48018169D01*
X83490561Y-46669010D01*
X83490561Y-46669010D01*
G37*
G36*
X84586576Y-45572994D02*
X85935736Y-44223834D01*
X87284896Y-45572994D01*
X85935736Y-46922154D01*
X84586576Y-45572994D01*
X84586576Y-45572994D01*
G37*
G36*
X87697846Y-48684264D02*
X89047006Y-47335104D01*
X90396166Y-48684264D01*
X89047006Y-50033424D01*
X87697846Y-48684264D01*
X87697846Y-48684264D01*
G37*
G36*
X78315736Y-52296166D02*
X76966576Y-50947006D01*
X78315736Y-49597846D01*
X79664896Y-50947006D01*
X78315736Y-52296166D01*
X78315736Y-52296166D01*
G37*
G36*
X81427006Y-49184896D02*
X80077846Y-47835736D01*
X81427006Y-46486576D01*
X82776166Y-47835736D01*
X81427006Y-49184896D01*
X81427006Y-49184896D01*
G37*
G36*
X80260280Y-48018169D02*
X78981831Y-46739720D01*
X80330990Y-45390561D01*
X81609439Y-46669010D01*
X80260280Y-48018169D01*
X80260280Y-48018169D01*
G37*
G36*
X77149010Y-51129439D02*
X75870561Y-49850990D01*
X77219720Y-48501831D01*
X78498169Y-49780280D01*
X77149010Y-51129439D01*
X77149010Y-51129439D01*
G37*
G36*
X76052994Y-50033424D02*
X74703834Y-48684264D01*
X76052994Y-47335104D01*
X77402154Y-48684264D01*
X76052994Y-50033424D01*
X76052994Y-50033424D01*
G37*
G36*
X79164264Y-46922154D02*
X77815104Y-45572994D01*
X79164264Y-44223834D01*
X80513424Y-45572994D01*
X79164264Y-46922154D01*
X79164264Y-46922154D01*
G37*
G36*
X82776166Y-56304264D02*
X81427006Y-57653424D01*
X80077846Y-56304264D01*
X81427006Y-54955104D01*
X82776166Y-56304264D01*
X82776166Y-56304264D01*
G37*
G36*
X79664896Y-53192994D02*
X78315736Y-54542154D01*
X76966576Y-53192994D01*
X78315736Y-51843834D01*
X79664896Y-53192994D01*
X79664896Y-53192994D01*
G37*
G36*
X78498169Y-54359720D02*
X77219720Y-55638169D01*
X75870561Y-54289010D01*
X77149010Y-53010561D01*
X78498169Y-54359720D01*
X78498169Y-54359720D01*
G37*
G36*
X81609439Y-57470990D02*
X80330990Y-58749439D01*
X78981831Y-57400280D01*
X80260280Y-56121831D01*
X81609439Y-57470990D01*
X81609439Y-57470990D01*
G37*
G36*
X80513424Y-58567006D02*
X79164264Y-59916166D01*
X77815104Y-58567006D01*
X79164264Y-57217846D01*
X80513424Y-58567006D01*
X80513424Y-58567006D01*
G37*
G36*
X77402154Y-55455736D02*
X76052994Y-56804896D01*
X74703834Y-55455736D01*
X76052994Y-54106576D01*
X77402154Y-55455736D01*
X77402154Y-55455736D01*
G37*
G36*
X63075736Y-52296166D02*
X61726576Y-50947006D01*
X63075736Y-49597846D01*
X64424896Y-50947006D01*
X63075736Y-52296166D01*
X63075736Y-52296166D01*
G37*
G36*
X66187006Y-49184896D02*
X64837846Y-47835736D01*
X66187006Y-46486576D01*
X67536166Y-47835736D01*
X66187006Y-49184896D01*
X66187006Y-49184896D01*
G37*
G36*
X65020280Y-48018169D02*
X63741831Y-46739720D01*
X65090990Y-45390561D01*
X66369439Y-46669010D01*
X65020280Y-48018169D01*
X65020280Y-48018169D01*
G37*
G36*
X61909010Y-51129439D02*
X60630561Y-49850990D01*
X61979720Y-48501831D01*
X63258169Y-49780280D01*
X61909010Y-51129439D01*
X61909010Y-51129439D01*
G37*
G36*
X60812994Y-50033424D02*
X59463834Y-48684264D01*
X60812994Y-47335104D01*
X62162154Y-48684264D01*
X60812994Y-50033424D01*
X60812994Y-50033424D01*
G37*
G36*
X63924264Y-46922154D02*
X62575104Y-45572994D01*
X63924264Y-44223834D01*
X65273424Y-45572994D01*
X63924264Y-46922154D01*
X63924264Y-46922154D01*
G37*
G36*
X52296166Y-71544264D02*
X50947006Y-72893424D01*
X49597846Y-71544264D01*
X50947006Y-70195104D01*
X52296166Y-71544264D01*
X52296166Y-71544264D01*
G37*
G36*
X49184896Y-68432994D02*
X47835736Y-69782154D01*
X46486576Y-68432994D01*
X47835736Y-67083834D01*
X49184896Y-68432994D01*
X49184896Y-68432994D01*
G37*
G36*
X48018169Y-69599720D02*
X46739720Y-70878169D01*
X45390561Y-69529010D01*
X46669010Y-68250561D01*
X48018169Y-69599720D01*
X48018169Y-69599720D01*
G37*
G36*
X51129439Y-72710990D02*
X49850990Y-73989439D01*
X48501831Y-72640280D01*
X49780280Y-71361831D01*
X51129439Y-72710990D01*
X51129439Y-72710990D01*
G37*
G36*
X50033424Y-73807006D02*
X48684264Y-75156166D01*
X47335104Y-73807006D01*
X48684264Y-72457846D01*
X50033424Y-73807006D01*
X50033424Y-73807006D01*
G37*
G36*
X46922154Y-70695736D02*
X45572994Y-72044896D01*
X44223834Y-70695736D01*
X45572994Y-69346576D01*
X46922154Y-70695736D01*
X46922154Y-70695736D01*
G37*
G36*
X41064264Y-51843834D02*
X42413424Y-53192994D01*
X41064264Y-54542154D01*
X39715104Y-53192994D01*
X41064264Y-51843834D01*
X41064264Y-51843834D01*
G37*
G36*
X37952994Y-54955104D02*
X39302154Y-56304264D01*
X37952994Y-57653424D01*
X36603834Y-56304264D01*
X37952994Y-54955104D01*
X37952994Y-54955104D01*
G37*
G36*
X39119720Y-56121831D02*
X40398169Y-57400280D01*
X39049010Y-58749439D01*
X37770561Y-57470990D01*
X39119720Y-56121831D01*
X39119720Y-56121831D01*
G37*
G36*
X42230990Y-53010561D02*
X43509439Y-54289010D01*
X42160280Y-55638169D01*
X40881831Y-54359720D01*
X42230990Y-53010561D01*
X42230990Y-53010561D01*
G37*
G36*
X43327006Y-54106576D02*
X44676166Y-55455736D01*
X43327006Y-56804896D01*
X41977846Y-55455736D01*
X43327006Y-54106576D01*
X43327006Y-54106576D01*
G37*
G36*
X40215736Y-57217846D02*
X41564896Y-58567006D01*
X40215736Y-59916166D01*
X38866576Y-58567006D01*
X40215736Y-57217846D01*
X40215736Y-57217846D01*
G37*
G36*
X36603834Y-47835736D02*
X37952994Y-46486576D01*
X39302154Y-47835736D01*
X37952994Y-49184896D01*
X36603834Y-47835736D01*
X36603834Y-47835736D01*
G37*
G36*
X39715104Y-50947006D02*
X41064264Y-49597846D01*
X42413424Y-50947006D01*
X41064264Y-52296166D01*
X39715104Y-50947006D01*
X39715104Y-50947006D01*
G37*
G36*
X40881831Y-49780280D02*
X42160280Y-48501831D01*
X43509439Y-49850990D01*
X42230990Y-51129439D01*
X40881831Y-49780280D01*
X40881831Y-49780280D01*
G37*
G36*
X37770561Y-46669010D02*
X39049010Y-45390561D01*
X40398169Y-46739720D01*
X39119720Y-48018169D01*
X37770561Y-46669010D01*
X37770561Y-46669010D01*
G37*
G36*
X38866576Y-45572994D02*
X40215736Y-44223834D01*
X41564896Y-45572994D01*
X40215736Y-46922154D01*
X38866576Y-45572994D01*
X38866576Y-45572994D01*
G37*
G36*
X41977846Y-48684264D02*
X43327006Y-47335104D01*
X44676166Y-48684264D01*
X43327006Y-50033424D01*
X41977846Y-48684264D01*
X41977846Y-48684264D01*
G37*
G36*
X32595736Y-52296166D02*
X31246576Y-50947006D01*
X32595736Y-49597846D01*
X33944896Y-50947006D01*
X32595736Y-52296166D01*
X32595736Y-52296166D01*
G37*
G36*
X35707006Y-49184896D02*
X34357846Y-47835736D01*
X35707006Y-46486576D01*
X37056166Y-47835736D01*
X35707006Y-49184896D01*
X35707006Y-49184896D01*
G37*
G36*
X34540280Y-48018169D02*
X33261831Y-46739720D01*
X34610990Y-45390561D01*
X35889439Y-46669010D01*
X34540280Y-48018169D01*
X34540280Y-48018169D01*
G37*
G36*
X31429010Y-51129439D02*
X30150561Y-49850990D01*
X31499720Y-48501831D01*
X32778169Y-49780280D01*
X31429010Y-51129439D01*
X31429010Y-51129439D01*
G37*
G36*
X30332994Y-50033424D02*
X28983834Y-48684264D01*
X30332994Y-47335104D01*
X31682154Y-48684264D01*
X30332994Y-50033424D01*
X30332994Y-50033424D01*
G37*
G36*
X33444264Y-46922154D02*
X32095104Y-45572994D01*
X33444264Y-44223834D01*
X34793424Y-45572994D01*
X33444264Y-46922154D01*
X33444264Y-46922154D01*
G37*
G36*
X37056166Y-56304264D02*
X35707006Y-57653424D01*
X34357846Y-56304264D01*
X35707006Y-54955104D01*
X37056166Y-56304264D01*
X37056166Y-56304264D01*
G37*
G36*
X33944896Y-53192994D02*
X32595736Y-54542154D01*
X31246576Y-53192994D01*
X32595736Y-51843834D01*
X33944896Y-53192994D01*
X33944896Y-53192994D01*
G37*
G36*
X32778169Y-54359720D02*
X31499720Y-55638169D01*
X30150561Y-54289010D01*
X31429010Y-53010561D01*
X32778169Y-54359720D01*
X32778169Y-54359720D01*
G37*
G36*
X35889439Y-57470990D02*
X34610990Y-58749439D01*
X33261831Y-57400280D01*
X34540280Y-56121831D01*
X35889439Y-57470990D01*
X35889439Y-57470990D01*
G37*
G36*
X34793424Y-58567006D02*
X33444264Y-59916166D01*
X32095104Y-58567006D01*
X33444264Y-57217846D01*
X34793424Y-58567006D01*
X34793424Y-58567006D01*
G37*
G36*
X31682154Y-55455736D02*
X30332994Y-56804896D01*
X28983834Y-55455736D01*
X30332994Y-54106576D01*
X31682154Y-55455736D01*
X31682154Y-55455736D01*
G37*
G36*
X86784264Y-67083834D02*
X88133424Y-68432994D01*
X86784264Y-69782154D01*
X85435104Y-68432994D01*
X86784264Y-67083834D01*
X86784264Y-67083834D01*
G37*
G36*
X83672994Y-70195104D02*
X85022154Y-71544264D01*
X83672994Y-72893424D01*
X82323834Y-71544264D01*
X83672994Y-70195104D01*
X83672994Y-70195104D01*
G37*
G36*
X84839720Y-71361831D02*
X86118169Y-72640280D01*
X84769010Y-73989439D01*
X83490561Y-72710990D01*
X84839720Y-71361831D01*
X84839720Y-71361831D01*
G37*
G36*
X87950990Y-68250561D02*
X89229439Y-69529010D01*
X87880280Y-70878169D01*
X86601831Y-69599720D01*
X87950990Y-68250561D01*
X87950990Y-68250561D01*
G37*
G36*
X89047006Y-69346576D02*
X90396166Y-70695736D01*
X89047006Y-72044896D01*
X87697846Y-70695736D01*
X89047006Y-69346576D01*
X89047006Y-69346576D01*
G37*
G36*
X85935736Y-72457846D02*
X87284896Y-73807006D01*
X85935736Y-75156166D01*
X84586576Y-73807006D01*
X85935736Y-72457846D01*
X85935736Y-72457846D01*
G37*
G36*
X82323834Y-63075736D02*
X83672994Y-61726576D01*
X85022154Y-63075736D01*
X83672994Y-64424896D01*
X82323834Y-63075736D01*
X82323834Y-63075736D01*
G37*
G36*
X85435104Y-66187006D02*
X86784264Y-64837846D01*
X88133424Y-66187006D01*
X86784264Y-67536166D01*
X85435104Y-66187006D01*
X85435104Y-66187006D01*
G37*
G36*
X86601831Y-65020280D02*
X87880280Y-63741831D01*
X89229439Y-65090990D01*
X87950990Y-66369439D01*
X86601831Y-65020280D01*
X86601831Y-65020280D01*
G37*
G36*
X83490561Y-61909010D02*
X84769010Y-60630561D01*
X86118169Y-61979720D01*
X84839720Y-63258169D01*
X83490561Y-61909010D01*
X83490561Y-61909010D01*
G37*
G36*
X84586576Y-60812994D02*
X85935736Y-59463834D01*
X87284896Y-60812994D01*
X85935736Y-62162154D01*
X84586576Y-60812994D01*
X84586576Y-60812994D01*
G37*
G36*
X87697846Y-63924264D02*
X89047006Y-62575104D01*
X90396166Y-63924264D01*
X89047006Y-65273424D01*
X87697846Y-63924264D01*
X87697846Y-63924264D01*
G37*
G36*
X86784264Y-36603834D02*
X88133424Y-37952994D01*
X86784264Y-39302154D01*
X85435104Y-37952994D01*
X86784264Y-36603834D01*
X86784264Y-36603834D01*
G37*
G36*
X83672994Y-39715104D02*
X85022154Y-41064264D01*
X83672994Y-42413424D01*
X82323834Y-41064264D01*
X83672994Y-39715104D01*
X83672994Y-39715104D01*
G37*
G36*
X84839720Y-40881831D02*
X86118169Y-42160280D01*
X84769010Y-43509439D01*
X83490561Y-42230990D01*
X84839720Y-40881831D01*
X84839720Y-40881831D01*
G37*
G36*
X87950990Y-37770561D02*
X89229439Y-39049010D01*
X87880280Y-40398169D01*
X86601831Y-39119720D01*
X87950990Y-37770561D01*
X87950990Y-37770561D01*
G37*
G36*
X89047006Y-38866576D02*
X90396166Y-40215736D01*
X89047006Y-41564896D01*
X87697846Y-40215736D01*
X89047006Y-38866576D01*
X89047006Y-38866576D01*
G37*
G36*
X85935736Y-41977846D02*
X87284896Y-43327006D01*
X85935736Y-44676166D01*
X84586576Y-43327006D01*
X85935736Y-41977846D01*
X85935736Y-41977846D01*
G37*
G36*
X82323834Y-32595736D02*
X83672994Y-31246576D01*
X85022154Y-32595736D01*
X83672994Y-33944896D01*
X82323834Y-32595736D01*
X82323834Y-32595736D01*
G37*
G36*
X85435104Y-35707006D02*
X86784264Y-34357846D01*
X88133424Y-35707006D01*
X86784264Y-37056166D01*
X85435104Y-35707006D01*
X85435104Y-35707006D01*
G37*
G36*
X86601831Y-34540280D02*
X87880280Y-33261831D01*
X89229439Y-34610990D01*
X87950990Y-35889439D01*
X86601831Y-34540280D01*
X86601831Y-34540280D01*
G37*
G36*
X83490561Y-31429010D02*
X84769010Y-30150561D01*
X86118169Y-31499720D01*
X84839720Y-32778169D01*
X83490561Y-31429010D01*
X83490561Y-31429010D01*
G37*
G36*
X84586576Y-30332994D02*
X85935736Y-28983834D01*
X87284896Y-30332994D01*
X85935736Y-31682154D01*
X84586576Y-30332994D01*
X84586576Y-30332994D01*
G37*
G36*
X87697846Y-33444264D02*
X89047006Y-32095104D01*
X90396166Y-33444264D01*
X89047006Y-34793424D01*
X87697846Y-33444264D01*
X87697846Y-33444264D01*
G37*
G36*
X78315736Y-37056166D02*
X76966576Y-35707006D01*
X78315736Y-34357846D01*
X79664896Y-35707006D01*
X78315736Y-37056166D01*
X78315736Y-37056166D01*
G37*
G36*
X81427006Y-33944896D02*
X80077846Y-32595736D01*
X81427006Y-31246576D01*
X82776166Y-32595736D01*
X81427006Y-33944896D01*
X81427006Y-33944896D01*
G37*
G36*
X80260280Y-32778169D02*
X78981831Y-31499720D01*
X80330990Y-30150561D01*
X81609439Y-31429010D01*
X80260280Y-32778169D01*
X80260280Y-32778169D01*
G37*
G36*
X77149010Y-35889439D02*
X75870561Y-34610990D01*
X77219720Y-33261831D01*
X78498169Y-34540280D01*
X77149010Y-35889439D01*
X77149010Y-35889439D01*
G37*
G36*
X76052994Y-34793424D02*
X74703834Y-33444264D01*
X76052994Y-32095104D01*
X77402154Y-33444264D01*
X76052994Y-34793424D01*
X76052994Y-34793424D01*
G37*
G36*
X79164264Y-31682154D02*
X77815104Y-30332994D01*
X79164264Y-28983834D01*
X80513424Y-30332994D01*
X79164264Y-31682154D01*
X79164264Y-31682154D01*
G37*
G36*
X82776166Y-41064264D02*
X81427006Y-42413424D01*
X80077846Y-41064264D01*
X81427006Y-39715104D01*
X82776166Y-41064264D01*
X82776166Y-41064264D01*
G37*
G36*
X79664896Y-37952994D02*
X78315736Y-39302154D01*
X76966576Y-37952994D01*
X78315736Y-36603834D01*
X79664896Y-37952994D01*
X79664896Y-37952994D01*
G37*
G36*
X78498169Y-39119720D02*
X77219720Y-40398169D01*
X75870561Y-39049010D01*
X77149010Y-37770561D01*
X78498169Y-39119720D01*
X78498169Y-39119720D01*
G37*
G36*
X81609439Y-42230990D02*
X80330990Y-43509439D01*
X78981831Y-42160280D01*
X80260280Y-40881831D01*
X81609439Y-42230990D01*
X81609439Y-42230990D01*
G37*
G36*
X80513424Y-43327006D02*
X79164264Y-44676166D01*
X77815104Y-43327006D01*
X79164264Y-41977846D01*
X80513424Y-43327006D01*
X80513424Y-43327006D01*
G37*
G36*
X77402154Y-40215736D02*
X76052994Y-41564896D01*
X74703834Y-40215736D01*
X76052994Y-38866576D01*
X77402154Y-40215736D01*
X77402154Y-40215736D01*
G37*
G36*
X78315736Y-67536166D02*
X76966576Y-66187006D01*
X78315736Y-64837846D01*
X79664896Y-66187006D01*
X78315736Y-67536166D01*
X78315736Y-67536166D01*
G37*
G36*
X81427006Y-64424896D02*
X80077846Y-63075736D01*
X81427006Y-61726576D01*
X82776166Y-63075736D01*
X81427006Y-64424896D01*
X81427006Y-64424896D01*
G37*
G36*
X80260280Y-63258169D02*
X78981831Y-61979720D01*
X80330990Y-60630561D01*
X81609439Y-61909010D01*
X80260280Y-63258169D01*
X80260280Y-63258169D01*
G37*
G36*
X77149010Y-66369439D02*
X75870561Y-65090990D01*
X77219720Y-63741831D01*
X78498169Y-65020280D01*
X77149010Y-66369439D01*
X77149010Y-66369439D01*
G37*
G36*
X76052994Y-65273424D02*
X74703834Y-63924264D01*
X76052994Y-62575104D01*
X77402154Y-63924264D01*
X76052994Y-65273424D01*
X76052994Y-65273424D01*
G37*
G36*
X79164264Y-62162154D02*
X77815104Y-60812994D01*
X79164264Y-59463834D01*
X80513424Y-60812994D01*
X79164264Y-62162154D01*
X79164264Y-62162154D01*
G37*
G36*
X82776166Y-71544264D02*
X81427006Y-72893424D01*
X80077846Y-71544264D01*
X81427006Y-70195104D01*
X82776166Y-71544264D01*
X82776166Y-71544264D01*
G37*
G36*
X79664896Y-68432994D02*
X78315736Y-69782154D01*
X76966576Y-68432994D01*
X78315736Y-67083834D01*
X79664896Y-68432994D01*
X79664896Y-68432994D01*
G37*
G36*
X78498169Y-69599720D02*
X77219720Y-70878169D01*
X75870561Y-69529010D01*
X77149010Y-68250561D01*
X78498169Y-69599720D01*
X78498169Y-69599720D01*
G37*
G36*
X81609439Y-72710990D02*
X80330990Y-73989439D01*
X78981831Y-72640280D01*
X80260280Y-71361831D01*
X81609439Y-72710990D01*
X81609439Y-72710990D01*
G37*
G36*
X80513424Y-73807006D02*
X79164264Y-75156166D01*
X77815104Y-73807006D01*
X79164264Y-72457846D01*
X80513424Y-73807006D01*
X80513424Y-73807006D01*
G37*
G36*
X77402154Y-70695736D02*
X76052994Y-72044896D01*
X74703834Y-70695736D01*
X76052994Y-69346576D01*
X77402154Y-70695736D01*
X77402154Y-70695736D01*
G37*
G36*
X78315736Y-82776166D02*
X76966576Y-81427006D01*
X78315736Y-80077846D01*
X79664896Y-81427006D01*
X78315736Y-82776166D01*
X78315736Y-82776166D01*
G37*
G36*
X81427006Y-79664896D02*
X80077846Y-78315736D01*
X81427006Y-76966576D01*
X82776166Y-78315736D01*
X81427006Y-79664896D01*
X81427006Y-79664896D01*
G37*
G36*
X80260280Y-78498169D02*
X78981831Y-77219720D01*
X80330990Y-75870561D01*
X81609439Y-77149010D01*
X80260280Y-78498169D01*
X80260280Y-78498169D01*
G37*
G36*
X77149010Y-81609439D02*
X75870561Y-80330990D01*
X77219720Y-78981831D01*
X78498169Y-80260280D01*
X77149010Y-81609439D01*
X77149010Y-81609439D01*
G37*
G36*
X76052994Y-80513424D02*
X74703834Y-79164264D01*
X76052994Y-77815104D01*
X77402154Y-79164264D01*
X76052994Y-80513424D01*
X76052994Y-80513424D01*
G37*
G36*
X79164264Y-77402154D02*
X77815104Y-76052994D01*
X79164264Y-74703834D01*
X80513424Y-76052994D01*
X79164264Y-77402154D01*
X79164264Y-77402154D01*
G37*
G36*
X67083834Y-78315736D02*
X68432994Y-76966576D01*
X69782154Y-78315736D01*
X68432994Y-79664896D01*
X67083834Y-78315736D01*
X67083834Y-78315736D01*
G37*
G36*
X70195104Y-81427006D02*
X71544264Y-80077846D01*
X72893424Y-81427006D01*
X71544264Y-82776166D01*
X70195104Y-81427006D01*
X70195104Y-81427006D01*
G37*
G36*
X71361831Y-80260280D02*
X72640280Y-78981831D01*
X73989439Y-80330990D01*
X72710990Y-81609439D01*
X71361831Y-80260280D01*
X71361831Y-80260280D01*
G37*
G36*
X68250561Y-77149010D02*
X69529010Y-75870561D01*
X70878169Y-77219720D01*
X69599720Y-78498169D01*
X68250561Y-77149010D01*
X68250561Y-77149010D01*
G37*
G36*
X69346576Y-76052994D02*
X70695736Y-74703834D01*
X72044896Y-76052994D01*
X70695736Y-77402154D01*
X69346576Y-76052994D01*
X69346576Y-76052994D01*
G37*
G36*
X72457846Y-79164264D02*
X73807006Y-77815104D01*
X75156166Y-79164264D01*
X73807006Y-80513424D01*
X72457846Y-79164264D01*
X72457846Y-79164264D01*
G37*
G36*
X71544264Y-67083834D02*
X72893424Y-68432994D01*
X71544264Y-69782154D01*
X70195104Y-68432994D01*
X71544264Y-67083834D01*
X71544264Y-67083834D01*
G37*
G36*
X68432994Y-70195104D02*
X69782154Y-71544264D01*
X68432994Y-72893424D01*
X67083834Y-71544264D01*
X68432994Y-70195104D01*
X68432994Y-70195104D01*
G37*
G36*
X69599720Y-71361831D02*
X70878169Y-72640280D01*
X69529010Y-73989439D01*
X68250561Y-72710990D01*
X69599720Y-71361831D01*
X69599720Y-71361831D01*
G37*
G36*
X72710990Y-68250561D02*
X73989439Y-69529010D01*
X72640280Y-70878169D01*
X71361831Y-69599720D01*
X72710990Y-68250561D01*
X72710990Y-68250561D01*
G37*
G36*
X73807006Y-69346576D02*
X75156166Y-70695736D01*
X73807006Y-72044896D01*
X72457846Y-70695736D01*
X73807006Y-69346576D01*
X73807006Y-69346576D01*
G37*
G36*
X70695736Y-72457846D02*
X72044896Y-73807006D01*
X70695736Y-75156166D01*
X69346576Y-73807006D01*
X70695736Y-72457846D01*
X70695736Y-72457846D01*
G37*
G36*
X67083834Y-63075736D02*
X68432994Y-61726576D01*
X69782154Y-63075736D01*
X68432994Y-64424896D01*
X67083834Y-63075736D01*
X67083834Y-63075736D01*
G37*
G36*
X70195104Y-66187006D02*
X71544264Y-64837846D01*
X72893424Y-66187006D01*
X71544264Y-67536166D01*
X70195104Y-66187006D01*
X70195104Y-66187006D01*
G37*
G36*
X71361831Y-65020280D02*
X72640280Y-63741831D01*
X73989439Y-65090990D01*
X72710990Y-66369439D01*
X71361831Y-65020280D01*
X71361831Y-65020280D01*
G37*
G36*
X68250561Y-61909010D02*
X69529010Y-60630561D01*
X70878169Y-61979720D01*
X69599720Y-63258169D01*
X68250561Y-61909010D01*
X68250561Y-61909010D01*
G37*
G36*
X69346576Y-60812994D02*
X70695736Y-59463834D01*
X72044896Y-60812994D01*
X70695736Y-62162154D01*
X69346576Y-60812994D01*
X69346576Y-60812994D01*
G37*
G36*
X72457846Y-63924264D02*
X73807006Y-62575104D01*
X75156166Y-63924264D01*
X73807006Y-65273424D01*
X72457846Y-63924264D01*
X72457846Y-63924264D01*
G37*
G36*
X71544264Y-51843834D02*
X72893424Y-53192994D01*
X71544264Y-54542154D01*
X70195104Y-53192994D01*
X71544264Y-51843834D01*
X71544264Y-51843834D01*
G37*
G36*
X68432994Y-54955104D02*
X69782154Y-56304264D01*
X68432994Y-57653424D01*
X67083834Y-56304264D01*
X68432994Y-54955104D01*
X68432994Y-54955104D01*
G37*
G36*
X69599720Y-56121831D02*
X70878169Y-57400280D01*
X69529010Y-58749439D01*
X68250561Y-57470990D01*
X69599720Y-56121831D01*
X69599720Y-56121831D01*
G37*
G36*
X72710990Y-53010561D02*
X73989439Y-54289010D01*
X72640280Y-55638169D01*
X71361831Y-54359720D01*
X72710990Y-53010561D01*
X72710990Y-53010561D01*
G37*
G36*
X73807006Y-54106576D02*
X75156166Y-55455736D01*
X73807006Y-56804896D01*
X72457846Y-55455736D01*
X73807006Y-54106576D01*
X73807006Y-54106576D01*
G37*
G36*
X70695736Y-57217846D02*
X72044896Y-58567006D01*
X70695736Y-59916166D01*
X69346576Y-58567006D01*
X70695736Y-57217846D01*
X70695736Y-57217846D01*
G37*
G36*
X71544264Y-36603834D02*
X72893424Y-37952994D01*
X71544264Y-39302154D01*
X70195104Y-37952994D01*
X71544264Y-36603834D01*
X71544264Y-36603834D01*
G37*
G36*
X68432994Y-39715104D02*
X69782154Y-41064264D01*
X68432994Y-42413424D01*
X67083834Y-41064264D01*
X68432994Y-39715104D01*
X68432994Y-39715104D01*
G37*
G36*
X69599720Y-40881831D02*
X70878169Y-42160280D01*
X69529010Y-43509439D01*
X68250561Y-42230990D01*
X69599720Y-40881831D01*
X69599720Y-40881831D01*
G37*
G36*
X72710990Y-37770561D02*
X73989439Y-39049010D01*
X72640280Y-40398169D01*
X71361831Y-39119720D01*
X72710990Y-37770561D01*
X72710990Y-37770561D01*
G37*
G36*
X73807006Y-38866576D02*
X75156166Y-40215736D01*
X73807006Y-41564896D01*
X72457846Y-40215736D01*
X73807006Y-38866576D01*
X73807006Y-38866576D01*
G37*
G36*
X70695736Y-41977846D02*
X72044896Y-43327006D01*
X70695736Y-44676166D01*
X69346576Y-43327006D01*
X70695736Y-41977846D01*
X70695736Y-41977846D01*
G37*
G36*
X67083834Y-32595736D02*
X68432994Y-31246576D01*
X69782154Y-32595736D01*
X68432994Y-33944896D01*
X67083834Y-32595736D01*
X67083834Y-32595736D01*
G37*
G36*
X70195104Y-35707006D02*
X71544264Y-34357846D01*
X72893424Y-35707006D01*
X71544264Y-37056166D01*
X70195104Y-35707006D01*
X70195104Y-35707006D01*
G37*
G36*
X71361831Y-34540280D02*
X72640280Y-33261831D01*
X73989439Y-34610990D01*
X72710990Y-35889439D01*
X71361831Y-34540280D01*
X71361831Y-34540280D01*
G37*
G36*
X68250561Y-31429010D02*
X69529010Y-30150561D01*
X70878169Y-31499720D01*
X69599720Y-32778169D01*
X68250561Y-31429010D01*
X68250561Y-31429010D01*
G37*
G36*
X69346576Y-30332994D02*
X70695736Y-28983834D01*
X72044896Y-30332994D01*
X70695736Y-31682154D01*
X69346576Y-30332994D01*
X69346576Y-30332994D01*
G37*
G36*
X72457846Y-33444264D02*
X73807006Y-32095104D01*
X75156166Y-33444264D01*
X73807006Y-34793424D01*
X72457846Y-33444264D01*
X72457846Y-33444264D01*
G37*
G36*
X63075736Y-37056166D02*
X61726576Y-35707006D01*
X63075736Y-34357846D01*
X64424896Y-35707006D01*
X63075736Y-37056166D01*
X63075736Y-37056166D01*
G37*
G36*
X66187006Y-33944896D02*
X64837846Y-32595736D01*
X66187006Y-31246576D01*
X67536166Y-32595736D01*
X66187006Y-33944896D01*
X66187006Y-33944896D01*
G37*
G36*
X65020280Y-32778169D02*
X63741831Y-31499720D01*
X65090990Y-30150561D01*
X66369439Y-31429010D01*
X65020280Y-32778169D01*
X65020280Y-32778169D01*
G37*
G36*
X61909010Y-35889439D02*
X60630561Y-34610990D01*
X61979720Y-33261831D01*
X63258169Y-34540280D01*
X61909010Y-35889439D01*
X61909010Y-35889439D01*
G37*
G36*
X60812994Y-34793424D02*
X59463834Y-33444264D01*
X60812994Y-32095104D01*
X62162154Y-33444264D01*
X60812994Y-34793424D01*
X60812994Y-34793424D01*
G37*
G36*
X63924264Y-31682154D02*
X62575104Y-30332994D01*
X63924264Y-28983834D01*
X65273424Y-30332994D01*
X63924264Y-31682154D01*
X63924264Y-31682154D01*
G37*
G36*
X67536166Y-41064264D02*
X66187006Y-42413424D01*
X64837846Y-41064264D01*
X66187006Y-39715104D01*
X67536166Y-41064264D01*
X67536166Y-41064264D01*
G37*
G36*
X64424896Y-37952994D02*
X63075736Y-39302154D01*
X61726576Y-37952994D01*
X63075736Y-36603834D01*
X64424896Y-37952994D01*
X64424896Y-37952994D01*
G37*
G36*
X63258169Y-39119720D02*
X61979720Y-40398169D01*
X60630561Y-39049010D01*
X61909010Y-37770561D01*
X63258169Y-39119720D01*
X63258169Y-39119720D01*
G37*
G36*
X66369439Y-42230990D02*
X65090990Y-43509439D01*
X63741831Y-42160280D01*
X65020280Y-40881831D01*
X66369439Y-42230990D01*
X66369439Y-42230990D01*
G37*
G36*
X65273424Y-43327006D02*
X63924264Y-44676166D01*
X62575104Y-43327006D01*
X63924264Y-41977846D01*
X65273424Y-43327006D01*
X65273424Y-43327006D01*
G37*
G36*
X62162154Y-40215736D02*
X60812994Y-41564896D01*
X59463834Y-40215736D01*
X60812994Y-38866576D01*
X62162154Y-40215736D01*
X62162154Y-40215736D01*
G37*
G36*
X67536166Y-56304264D02*
X66187006Y-57653424D01*
X64837846Y-56304264D01*
X66187006Y-54955104D01*
X67536166Y-56304264D01*
X67536166Y-56304264D01*
G37*
G36*
X64424896Y-53192994D02*
X63075736Y-54542154D01*
X61726576Y-53192994D01*
X63075736Y-51843834D01*
X64424896Y-53192994D01*
X64424896Y-53192994D01*
G37*
G36*
X63258169Y-54359720D02*
X61979720Y-55638169D01*
X60630561Y-54289010D01*
X61909010Y-53010561D01*
X63258169Y-54359720D01*
X63258169Y-54359720D01*
G37*
G36*
X66369439Y-57470990D02*
X65090990Y-58749439D01*
X63741831Y-57400280D01*
X65020280Y-56121831D01*
X66369439Y-57470990D01*
X66369439Y-57470990D01*
G37*
G36*
X65273424Y-58567006D02*
X63924264Y-59916166D01*
X62575104Y-58567006D01*
X63924264Y-57217846D01*
X65273424Y-58567006D01*
X65273424Y-58567006D01*
G37*
G36*
X62162154Y-55455736D02*
X60812994Y-56804896D01*
X59463834Y-55455736D01*
X60812994Y-54106576D01*
X62162154Y-55455736D01*
X62162154Y-55455736D01*
G37*
G36*
X63075736Y-67536166D02*
X61726576Y-66187006D01*
X63075736Y-64837846D01*
X64424896Y-66187006D01*
X63075736Y-67536166D01*
X63075736Y-67536166D01*
G37*
G36*
X66187006Y-64424896D02*
X64837846Y-63075736D01*
X66187006Y-61726576D01*
X67536166Y-63075736D01*
X66187006Y-64424896D01*
X66187006Y-64424896D01*
G37*
G36*
X65020280Y-63258169D02*
X63741831Y-61979720D01*
X65090990Y-60630561D01*
X66369439Y-61909010D01*
X65020280Y-63258169D01*
X65020280Y-63258169D01*
G37*
G36*
X61909010Y-66369439D02*
X60630561Y-65090990D01*
X61979720Y-63741831D01*
X63258169Y-65020280D01*
X61909010Y-66369439D01*
X61909010Y-66369439D01*
G37*
G36*
X60812994Y-65273424D02*
X59463834Y-63924264D01*
X60812994Y-62575104D01*
X62162154Y-63924264D01*
X60812994Y-65273424D01*
X60812994Y-65273424D01*
G37*
G36*
X63924264Y-62162154D02*
X62575104Y-60812994D01*
X63924264Y-59463834D01*
X65273424Y-60812994D01*
X63924264Y-62162154D01*
X63924264Y-62162154D01*
G37*
G36*
X67536166Y-71544264D02*
X66187006Y-72893424D01*
X64837846Y-71544264D01*
X66187006Y-70195104D01*
X67536166Y-71544264D01*
X67536166Y-71544264D01*
G37*
G36*
X64424896Y-68432994D02*
X63075736Y-69782154D01*
X61726576Y-68432994D01*
X63075736Y-67083834D01*
X64424896Y-68432994D01*
X64424896Y-68432994D01*
G37*
G36*
X63258169Y-69599720D02*
X61979720Y-70878169D01*
X60630561Y-69529010D01*
X61909010Y-68250561D01*
X63258169Y-69599720D01*
X63258169Y-69599720D01*
G37*
G36*
X66369439Y-72710990D02*
X65090990Y-73989439D01*
X63741831Y-72640280D01*
X65020280Y-71361831D01*
X66369439Y-72710990D01*
X66369439Y-72710990D01*
G37*
G36*
X65273424Y-73807006D02*
X63924264Y-75156166D01*
X62575104Y-73807006D01*
X63924264Y-72457846D01*
X65273424Y-73807006D01*
X65273424Y-73807006D01*
G37*
G36*
X62162154Y-70695736D02*
X60812994Y-72044896D01*
X59463834Y-70695736D01*
X60812994Y-69346576D01*
X62162154Y-70695736D01*
X62162154Y-70695736D01*
G37*
G36*
X63075736Y-82776166D02*
X61726576Y-81427006D01*
X63075736Y-80077846D01*
X64424896Y-81427006D01*
X63075736Y-82776166D01*
X63075736Y-82776166D01*
G37*
G36*
X66187006Y-79664896D02*
X64837846Y-78315736D01*
X66187006Y-76966576D01*
X67536166Y-78315736D01*
X66187006Y-79664896D01*
X66187006Y-79664896D01*
G37*
G36*
X65020280Y-78498169D02*
X63741831Y-77219720D01*
X65090990Y-75870561D01*
X66369439Y-77149010D01*
X65020280Y-78498169D01*
X65020280Y-78498169D01*
G37*
G36*
X61909010Y-81609439D02*
X60630561Y-80330990D01*
X61979720Y-78981831D01*
X63258169Y-80260280D01*
X61909010Y-81609439D01*
X61909010Y-81609439D01*
G37*
G36*
X60812994Y-80513424D02*
X59463834Y-79164264D01*
X60812994Y-77815104D01*
X62162154Y-79164264D01*
X60812994Y-80513424D01*
X60812994Y-80513424D01*
G37*
G36*
X63924264Y-77402154D02*
X62575104Y-76052994D01*
X63924264Y-74703834D01*
X65273424Y-76052994D01*
X63924264Y-77402154D01*
X63924264Y-77402154D01*
G37*
G36*
X51843834Y-78315736D02*
X53192994Y-76966576D01*
X54542154Y-78315736D01*
X53192994Y-79664896D01*
X51843834Y-78315736D01*
X51843834Y-78315736D01*
G37*
G36*
X54955104Y-81427006D02*
X56304264Y-80077846D01*
X57653424Y-81427006D01*
X56304264Y-82776166D01*
X54955104Y-81427006D01*
X54955104Y-81427006D01*
G37*
G36*
X56121831Y-80260280D02*
X57400280Y-78981831D01*
X58749439Y-80330990D01*
X57470990Y-81609439D01*
X56121831Y-80260280D01*
X56121831Y-80260280D01*
G37*
G36*
X53010561Y-77149010D02*
X54289010Y-75870561D01*
X55638169Y-77219720D01*
X54359720Y-78498169D01*
X53010561Y-77149010D01*
X53010561Y-77149010D01*
G37*
G36*
X54106576Y-76052994D02*
X55455736Y-74703834D01*
X56804896Y-76052994D01*
X55455736Y-77402154D01*
X54106576Y-76052994D01*
X54106576Y-76052994D01*
G37*
G36*
X57217846Y-79164264D02*
X58567006Y-77815104D01*
X59916166Y-79164264D01*
X58567006Y-80513424D01*
X57217846Y-79164264D01*
X57217846Y-79164264D01*
G37*
G36*
X56304264Y-67083834D02*
X57653424Y-68432994D01*
X56304264Y-69782154D01*
X54955104Y-68432994D01*
X56304264Y-67083834D01*
X56304264Y-67083834D01*
G37*
G36*
X53192994Y-70195104D02*
X54542154Y-71544264D01*
X53192994Y-72893424D01*
X51843834Y-71544264D01*
X53192994Y-70195104D01*
X53192994Y-70195104D01*
G37*
G36*
X54359720Y-71361831D02*
X55638169Y-72640280D01*
X54289010Y-73989439D01*
X53010561Y-72710990D01*
X54359720Y-71361831D01*
X54359720Y-71361831D01*
G37*
G36*
X57470990Y-68250561D02*
X58749439Y-69529010D01*
X57400280Y-70878169D01*
X56121831Y-69599720D01*
X57470990Y-68250561D01*
X57470990Y-68250561D01*
G37*
G36*
X58567006Y-69346576D02*
X59916166Y-70695736D01*
X58567006Y-72044896D01*
X57217846Y-70695736D01*
X58567006Y-69346576D01*
X58567006Y-69346576D01*
G37*
G36*
X55455736Y-72457846D02*
X56804896Y-73807006D01*
X55455736Y-75156166D01*
X54106576Y-73807006D01*
X55455736Y-72457846D01*
X55455736Y-72457846D01*
G37*
G36*
X51843834Y-63075736D02*
X53192994Y-61726576D01*
X54542154Y-63075736D01*
X53192994Y-64424896D01*
X51843834Y-63075736D01*
X51843834Y-63075736D01*
G37*
G36*
X54955104Y-66187006D02*
X56304264Y-64837846D01*
X57653424Y-66187006D01*
X56304264Y-67536166D01*
X54955104Y-66187006D01*
X54955104Y-66187006D01*
G37*
G36*
X56121831Y-65020280D02*
X57400280Y-63741831D01*
X58749439Y-65090990D01*
X57470990Y-66369439D01*
X56121831Y-65020280D01*
X56121831Y-65020280D01*
G37*
G36*
X53010561Y-61909010D02*
X54289010Y-60630561D01*
X55638169Y-61979720D01*
X54359720Y-63258169D01*
X53010561Y-61909010D01*
X53010561Y-61909010D01*
G37*
G36*
X54106576Y-60812994D02*
X55455736Y-59463834D01*
X56804896Y-60812994D01*
X55455736Y-62162154D01*
X54106576Y-60812994D01*
X54106576Y-60812994D01*
G37*
G36*
X57217846Y-63924264D02*
X58567006Y-62575104D01*
X59916166Y-63924264D01*
X58567006Y-65273424D01*
X57217846Y-63924264D01*
X57217846Y-63924264D01*
G37*
G36*
X56304264Y-51843834D02*
X57653424Y-53192994D01*
X56304264Y-54542154D01*
X54955104Y-53192994D01*
X56304264Y-51843834D01*
X56304264Y-51843834D01*
G37*
G36*
X53192994Y-54955104D02*
X54542154Y-56304264D01*
X53192994Y-57653424D01*
X51843834Y-56304264D01*
X53192994Y-54955104D01*
X53192994Y-54955104D01*
G37*
G36*
X54359720Y-56121831D02*
X55638169Y-57400280D01*
X54289010Y-58749439D01*
X53010561Y-57470990D01*
X54359720Y-56121831D01*
X54359720Y-56121831D01*
G37*
G36*
X57470990Y-53010561D02*
X58749439Y-54289010D01*
X57400280Y-55638169D01*
X56121831Y-54359720D01*
X57470990Y-53010561D01*
X57470990Y-53010561D01*
G37*
G36*
X58567006Y-54106576D02*
X59916166Y-55455736D01*
X58567006Y-56804896D01*
X57217846Y-55455736D01*
X58567006Y-54106576D01*
X58567006Y-54106576D01*
G37*
G36*
X55455736Y-57217846D02*
X56804896Y-58567006D01*
X55455736Y-59916166D01*
X54106576Y-58567006D01*
X55455736Y-57217846D01*
X55455736Y-57217846D01*
G37*
G36*
X51843834Y-47835736D02*
X53192994Y-46486576D01*
X54542154Y-47835736D01*
X53192994Y-49184896D01*
X51843834Y-47835736D01*
X51843834Y-47835736D01*
G37*
G36*
X54955104Y-50947006D02*
X56304264Y-49597846D01*
X57653424Y-50947006D01*
X56304264Y-52296166D01*
X54955104Y-50947006D01*
X54955104Y-50947006D01*
G37*
G36*
X56121831Y-49780280D02*
X57400280Y-48501831D01*
X58749439Y-49850990D01*
X57470990Y-51129439D01*
X56121831Y-49780280D01*
X56121831Y-49780280D01*
G37*
G36*
X53010561Y-46669010D02*
X54289010Y-45390561D01*
X55638169Y-46739720D01*
X54359720Y-48018169D01*
X53010561Y-46669010D01*
X53010561Y-46669010D01*
G37*
G36*
X54106576Y-45572994D02*
X55455736Y-44223834D01*
X56804896Y-45572994D01*
X55455736Y-46922154D01*
X54106576Y-45572994D01*
X54106576Y-45572994D01*
G37*
G36*
X57217846Y-48684264D02*
X58567006Y-47335104D01*
X59916166Y-48684264D01*
X58567006Y-50033424D01*
X57217846Y-48684264D01*
X57217846Y-48684264D01*
G37*
G36*
X56304264Y-36603834D02*
X57653424Y-37952994D01*
X56304264Y-39302154D01*
X54955104Y-37952994D01*
X56304264Y-36603834D01*
X56304264Y-36603834D01*
G37*
G36*
X53192994Y-39715104D02*
X54542154Y-41064264D01*
X53192994Y-42413424D01*
X51843834Y-41064264D01*
X53192994Y-39715104D01*
X53192994Y-39715104D01*
G37*
G36*
X54359720Y-40881831D02*
X55638169Y-42160280D01*
X54289010Y-43509439D01*
X53010561Y-42230990D01*
X54359720Y-40881831D01*
X54359720Y-40881831D01*
G37*
G36*
X57470990Y-37770561D02*
X58749439Y-39049010D01*
X57400280Y-40398169D01*
X56121831Y-39119720D01*
X57470990Y-37770561D01*
X57470990Y-37770561D01*
G37*
G36*
X58567006Y-38866576D02*
X59916166Y-40215736D01*
X58567006Y-41564896D01*
X57217846Y-40215736D01*
X58567006Y-38866576D01*
X58567006Y-38866576D01*
G37*
G36*
X55455736Y-41977846D02*
X56804896Y-43327006D01*
X55455736Y-44676166D01*
X54106576Y-43327006D01*
X55455736Y-41977846D01*
X55455736Y-41977846D01*
G37*
G36*
X51843834Y-32595736D02*
X53192994Y-31246576D01*
X54542154Y-32595736D01*
X53192994Y-33944896D01*
X51843834Y-32595736D01*
X51843834Y-32595736D01*
G37*
G36*
X54955104Y-35707006D02*
X56304264Y-34357846D01*
X57653424Y-35707006D01*
X56304264Y-37056166D01*
X54955104Y-35707006D01*
X54955104Y-35707006D01*
G37*
G36*
X56121831Y-34540280D02*
X57400280Y-33261831D01*
X58749439Y-34610990D01*
X57470990Y-35889439D01*
X56121831Y-34540280D01*
X56121831Y-34540280D01*
G37*
G36*
X53010561Y-31429010D02*
X54289010Y-30150561D01*
X55638169Y-31499720D01*
X54359720Y-32778169D01*
X53010561Y-31429010D01*
X53010561Y-31429010D01*
G37*
G36*
X54106576Y-30332994D02*
X55455736Y-28983834D01*
X56804896Y-30332994D01*
X55455736Y-31682154D01*
X54106576Y-30332994D01*
X54106576Y-30332994D01*
G37*
G36*
X57217846Y-33444264D02*
X58567006Y-32095104D01*
X59916166Y-33444264D01*
X58567006Y-34793424D01*
X57217846Y-33444264D01*
X57217846Y-33444264D01*
G37*
G36*
X47835736Y-37056166D02*
X46486576Y-35707006D01*
X47835736Y-34357846D01*
X49184896Y-35707006D01*
X47835736Y-37056166D01*
X47835736Y-37056166D01*
G37*
G36*
X50947006Y-33944896D02*
X49597846Y-32595736D01*
X50947006Y-31246576D01*
X52296166Y-32595736D01*
X50947006Y-33944896D01*
X50947006Y-33944896D01*
G37*
G36*
X49780280Y-32778169D02*
X48501831Y-31499720D01*
X49850990Y-30150561D01*
X51129439Y-31429010D01*
X49780280Y-32778169D01*
X49780280Y-32778169D01*
G37*
G36*
X46669010Y-35889439D02*
X45390561Y-34610990D01*
X46739720Y-33261831D01*
X48018169Y-34540280D01*
X46669010Y-35889439D01*
X46669010Y-35889439D01*
G37*
G36*
X45572994Y-34793424D02*
X44223834Y-33444264D01*
X45572994Y-32095104D01*
X46922154Y-33444264D01*
X45572994Y-34793424D01*
X45572994Y-34793424D01*
G37*
G36*
X48684264Y-31682154D02*
X47335104Y-30332994D01*
X48684264Y-28983834D01*
X50033424Y-30332994D01*
X48684264Y-31682154D01*
X48684264Y-31682154D01*
G37*
G36*
X47835736Y-52296166D02*
X46486576Y-50947006D01*
X47835736Y-49597846D01*
X49184896Y-50947006D01*
X47835736Y-52296166D01*
X47835736Y-52296166D01*
G37*
G36*
X50947006Y-49184896D02*
X49597846Y-47835736D01*
X50947006Y-46486576D01*
X52296166Y-47835736D01*
X50947006Y-49184896D01*
X50947006Y-49184896D01*
G37*
G36*
X49780280Y-48018169D02*
X48501831Y-46739720D01*
X49850990Y-45390561D01*
X51129439Y-46669010D01*
X49780280Y-48018169D01*
X49780280Y-48018169D01*
G37*
G36*
X46669010Y-51129439D02*
X45390561Y-49850990D01*
X46739720Y-48501831D01*
X48018169Y-49780280D01*
X46669010Y-51129439D01*
X46669010Y-51129439D01*
G37*
G36*
X45572994Y-50033424D02*
X44223834Y-48684264D01*
X45572994Y-47335104D01*
X46922154Y-48684264D01*
X45572994Y-50033424D01*
X45572994Y-50033424D01*
G37*
G36*
X48684264Y-46922154D02*
X47335104Y-45572994D01*
X48684264Y-44223834D01*
X50033424Y-45572994D01*
X48684264Y-46922154D01*
X48684264Y-46922154D01*
G37*
G36*
X52296166Y-56304264D02*
X50947006Y-57653424D01*
X49597846Y-56304264D01*
X50947006Y-54955104D01*
X52296166Y-56304264D01*
X52296166Y-56304264D01*
G37*
G36*
X49184896Y-53192994D02*
X47835736Y-54542154D01*
X46486576Y-53192994D01*
X47835736Y-51843834D01*
X49184896Y-53192994D01*
X49184896Y-53192994D01*
G37*
G36*
X48018169Y-54359720D02*
X46739720Y-55638169D01*
X45390561Y-54289010D01*
X46669010Y-53010561D01*
X48018169Y-54359720D01*
X48018169Y-54359720D01*
G37*
G36*
X51129439Y-57470990D02*
X49850990Y-58749439D01*
X48501831Y-57400280D01*
X49780280Y-56121831D01*
X51129439Y-57470990D01*
X51129439Y-57470990D01*
G37*
G36*
X50033424Y-58567006D02*
X48684264Y-59916166D01*
X47335104Y-58567006D01*
X48684264Y-57217846D01*
X50033424Y-58567006D01*
X50033424Y-58567006D01*
G37*
G36*
X46922154Y-55455736D02*
X45572994Y-56804896D01*
X44223834Y-55455736D01*
X45572994Y-54106576D01*
X46922154Y-55455736D01*
X46922154Y-55455736D01*
G37*
G36*
X47835736Y-67536166D02*
X46486576Y-66187006D01*
X47835736Y-64837846D01*
X49184896Y-66187006D01*
X47835736Y-67536166D01*
X47835736Y-67536166D01*
G37*
G36*
X50947006Y-64424896D02*
X49597846Y-63075736D01*
X50947006Y-61726576D01*
X52296166Y-63075736D01*
X50947006Y-64424896D01*
X50947006Y-64424896D01*
G37*
G36*
X49780280Y-63258169D02*
X48501831Y-61979720D01*
X49850990Y-60630561D01*
X51129439Y-61909010D01*
X49780280Y-63258169D01*
X49780280Y-63258169D01*
G37*
G36*
X46669010Y-66369439D02*
X45390561Y-65090990D01*
X46739720Y-63741831D01*
X48018169Y-65020280D01*
X46669010Y-66369439D01*
X46669010Y-66369439D01*
G37*
G36*
X45572994Y-65273424D02*
X44223834Y-63924264D01*
X45572994Y-62575104D01*
X46922154Y-63924264D01*
X45572994Y-65273424D01*
X45572994Y-65273424D01*
G37*
G36*
X48684264Y-62162154D02*
X47335104Y-60812994D01*
X48684264Y-59463834D01*
X50033424Y-60812994D01*
X48684264Y-62162154D01*
X48684264Y-62162154D01*
G37*
G36*
X47835736Y-82776166D02*
X46486576Y-81427006D01*
X47835736Y-80077846D01*
X49184896Y-81427006D01*
X47835736Y-82776166D01*
X47835736Y-82776166D01*
G37*
G36*
X50947006Y-79664896D02*
X49597846Y-78315736D01*
X50947006Y-76966576D01*
X52296166Y-78315736D01*
X50947006Y-79664896D01*
X50947006Y-79664896D01*
G37*
G36*
X49780280Y-78498169D02*
X48501831Y-77219720D01*
X49850990Y-75870561D01*
X51129439Y-77149010D01*
X49780280Y-78498169D01*
X49780280Y-78498169D01*
G37*
G36*
X46669010Y-81609439D02*
X45390561Y-80330990D01*
X46739720Y-78981831D01*
X48018169Y-80260280D01*
X46669010Y-81609439D01*
X46669010Y-81609439D01*
G37*
G36*
X45572994Y-80513424D02*
X44223834Y-79164264D01*
X45572994Y-77815104D01*
X46922154Y-79164264D01*
X45572994Y-80513424D01*
X45572994Y-80513424D01*
G37*
G36*
X48684264Y-77402154D02*
X47335104Y-76052994D01*
X48684264Y-74703834D01*
X50033424Y-76052994D01*
X48684264Y-77402154D01*
X48684264Y-77402154D01*
G37*
G36*
X36603834Y-78315736D02*
X37952994Y-76966576D01*
X39302154Y-78315736D01*
X37952994Y-79664896D01*
X36603834Y-78315736D01*
X36603834Y-78315736D01*
G37*
G36*
X39715104Y-81427006D02*
X41064264Y-80077846D01*
X42413424Y-81427006D01*
X41064264Y-82776166D01*
X39715104Y-81427006D01*
X39715104Y-81427006D01*
G37*
G36*
X40881831Y-80260280D02*
X42160280Y-78981831D01*
X43509439Y-80330990D01*
X42230990Y-81609439D01*
X40881831Y-80260280D01*
X40881831Y-80260280D01*
G37*
G36*
X37770561Y-77149010D02*
X39049010Y-75870561D01*
X40398169Y-77219720D01*
X39119720Y-78498169D01*
X37770561Y-77149010D01*
X37770561Y-77149010D01*
G37*
G36*
X38866576Y-76052994D02*
X40215736Y-74703834D01*
X41564896Y-76052994D01*
X40215736Y-77402154D01*
X38866576Y-76052994D01*
X38866576Y-76052994D01*
G37*
G36*
X41977846Y-79164264D02*
X43327006Y-77815104D01*
X44676166Y-79164264D01*
X43327006Y-80513424D01*
X41977846Y-79164264D01*
X41977846Y-79164264D01*
G37*
G36*
X41064264Y-67083834D02*
X42413424Y-68432994D01*
X41064264Y-69782154D01*
X39715104Y-68432994D01*
X41064264Y-67083834D01*
X41064264Y-67083834D01*
G37*
G36*
X37952994Y-70195104D02*
X39302154Y-71544264D01*
X37952994Y-72893424D01*
X36603834Y-71544264D01*
X37952994Y-70195104D01*
X37952994Y-70195104D01*
G37*
G36*
X39119720Y-71361831D02*
X40398169Y-72640280D01*
X39049010Y-73989439D01*
X37770561Y-72710990D01*
X39119720Y-71361831D01*
X39119720Y-71361831D01*
G37*
G36*
X42230990Y-68250561D02*
X43509439Y-69529010D01*
X42160280Y-70878169D01*
X40881831Y-69599720D01*
X42230990Y-68250561D01*
X42230990Y-68250561D01*
G37*
G36*
X43327006Y-69346576D02*
X44676166Y-70695736D01*
X43327006Y-72044896D01*
X41977846Y-70695736D01*
X43327006Y-69346576D01*
X43327006Y-69346576D01*
G37*
G36*
X40215736Y-72457846D02*
X41564896Y-73807006D01*
X40215736Y-75156166D01*
X38866576Y-73807006D01*
X40215736Y-72457846D01*
X40215736Y-72457846D01*
G37*
G36*
X36603834Y-63075736D02*
X37952994Y-61726576D01*
X39302154Y-63075736D01*
X37952994Y-64424896D01*
X36603834Y-63075736D01*
X36603834Y-63075736D01*
G37*
G36*
X39715104Y-66187006D02*
X41064264Y-64837846D01*
X42413424Y-66187006D01*
X41064264Y-67536166D01*
X39715104Y-66187006D01*
X39715104Y-66187006D01*
G37*
G36*
X40881831Y-65020280D02*
X42160280Y-63741831D01*
X43509439Y-65090990D01*
X42230990Y-66369439D01*
X40881831Y-65020280D01*
X40881831Y-65020280D01*
G37*
G36*
X37770561Y-61909010D02*
X39049010Y-60630561D01*
X40398169Y-61979720D01*
X39119720Y-63258169D01*
X37770561Y-61909010D01*
X37770561Y-61909010D01*
G37*
G36*
X38866576Y-60812994D02*
X40215736Y-59463834D01*
X41564896Y-60812994D01*
X40215736Y-62162154D01*
X38866576Y-60812994D01*
X38866576Y-60812994D01*
G37*
G36*
X41977846Y-63924264D02*
X43327006Y-62575104D01*
X44676166Y-63924264D01*
X43327006Y-65273424D01*
X41977846Y-63924264D01*
X41977846Y-63924264D01*
G37*
G36*
X41064264Y-36603834D02*
X42413424Y-37952994D01*
X41064264Y-39302154D01*
X39715104Y-37952994D01*
X41064264Y-36603834D01*
X41064264Y-36603834D01*
G37*
G36*
X37952994Y-39715104D02*
X39302154Y-41064264D01*
X37952994Y-42413424D01*
X36603834Y-41064264D01*
X37952994Y-39715104D01*
X37952994Y-39715104D01*
G37*
G36*
X39119720Y-40881831D02*
X40398169Y-42160280D01*
X39049010Y-43509439D01*
X37770561Y-42230990D01*
X39119720Y-40881831D01*
X39119720Y-40881831D01*
G37*
G36*
X42230990Y-37770561D02*
X43509439Y-39049010D01*
X42160280Y-40398169D01*
X40881831Y-39119720D01*
X42230990Y-37770561D01*
X42230990Y-37770561D01*
G37*
G36*
X43327006Y-38866576D02*
X44676166Y-40215736D01*
X43327006Y-41564896D01*
X41977846Y-40215736D01*
X43327006Y-38866576D01*
X43327006Y-38866576D01*
G37*
G36*
X40215736Y-41977846D02*
X41564896Y-43327006D01*
X40215736Y-44676166D01*
X38866576Y-43327006D01*
X40215736Y-41977846D01*
X40215736Y-41977846D01*
G37*
G36*
X36603834Y-32595736D02*
X37952994Y-31246576D01*
X39302154Y-32595736D01*
X37952994Y-33944896D01*
X36603834Y-32595736D01*
X36603834Y-32595736D01*
G37*
G36*
X39715104Y-35707006D02*
X41064264Y-34357846D01*
X42413424Y-35707006D01*
X41064264Y-37056166D01*
X39715104Y-35707006D01*
X39715104Y-35707006D01*
G37*
G36*
X40881831Y-34540280D02*
X42160280Y-33261831D01*
X43509439Y-34610990D01*
X42230990Y-35889439D01*
X40881831Y-34540280D01*
X40881831Y-34540280D01*
G37*
G36*
X37770561Y-31429010D02*
X39049010Y-30150561D01*
X40398169Y-31499720D01*
X39119720Y-32778169D01*
X37770561Y-31429010D01*
X37770561Y-31429010D01*
G37*
G36*
X38866576Y-30332994D02*
X40215736Y-28983834D01*
X41564896Y-30332994D01*
X40215736Y-31682154D01*
X38866576Y-30332994D01*
X38866576Y-30332994D01*
G37*
G36*
X41977846Y-33444264D02*
X43327006Y-32095104D01*
X44676166Y-33444264D01*
X43327006Y-34793424D01*
X41977846Y-33444264D01*
X41977846Y-33444264D01*
G37*
G36*
X32595736Y-37056166D02*
X31246576Y-35707006D01*
X32595736Y-34357846D01*
X33944896Y-35707006D01*
X32595736Y-37056166D01*
X32595736Y-37056166D01*
G37*
G36*
X35707006Y-33944896D02*
X34357846Y-32595736D01*
X35707006Y-31246576D01*
X37056166Y-32595736D01*
X35707006Y-33944896D01*
X35707006Y-33944896D01*
G37*
G36*
X34540280Y-32778169D02*
X33261831Y-31499720D01*
X34610990Y-30150561D01*
X35889439Y-31429010D01*
X34540280Y-32778169D01*
X34540280Y-32778169D01*
G37*
G36*
X31429010Y-35889439D02*
X30150561Y-34610990D01*
X31499720Y-33261831D01*
X32778169Y-34540280D01*
X31429010Y-35889439D01*
X31429010Y-35889439D01*
G37*
G36*
X30332994Y-34793424D02*
X28983834Y-33444264D01*
X30332994Y-32095104D01*
X31682154Y-33444264D01*
X30332994Y-34793424D01*
X30332994Y-34793424D01*
G37*
G36*
X33444264Y-31682154D02*
X32095104Y-30332994D01*
X33444264Y-28983834D01*
X34793424Y-30332994D01*
X33444264Y-31682154D01*
X33444264Y-31682154D01*
G37*
G36*
X37056166Y-41064264D02*
X35707006Y-42413424D01*
X34357846Y-41064264D01*
X35707006Y-39715104D01*
X37056166Y-41064264D01*
X37056166Y-41064264D01*
G37*
G36*
X33944896Y-37952994D02*
X32595736Y-39302154D01*
X31246576Y-37952994D01*
X32595736Y-36603834D01*
X33944896Y-37952994D01*
X33944896Y-37952994D01*
G37*
G36*
X32778169Y-39119720D02*
X31499720Y-40398169D01*
X30150561Y-39049010D01*
X31429010Y-37770561D01*
X32778169Y-39119720D01*
X32778169Y-39119720D01*
G37*
G36*
X35889439Y-42230990D02*
X34610990Y-43509439D01*
X33261831Y-42160280D01*
X34540280Y-40881831D01*
X35889439Y-42230990D01*
X35889439Y-42230990D01*
G37*
G36*
X34793424Y-43327006D02*
X33444264Y-44676166D01*
X32095104Y-43327006D01*
X33444264Y-41977846D01*
X34793424Y-43327006D01*
X34793424Y-43327006D01*
G37*
G36*
X31682154Y-40215736D02*
X30332994Y-41564896D01*
X28983834Y-40215736D01*
X30332994Y-38866576D01*
X31682154Y-40215736D01*
X31682154Y-40215736D01*
G37*
G36*
X37056166Y-71544264D02*
X35707006Y-72893424D01*
X34357846Y-71544264D01*
X35707006Y-70195104D01*
X37056166Y-71544264D01*
X37056166Y-71544264D01*
G37*
G36*
X33944896Y-68432994D02*
X32595736Y-69782154D01*
X31246576Y-68432994D01*
X32595736Y-67083834D01*
X33944896Y-68432994D01*
X33944896Y-68432994D01*
G37*
G36*
X32778169Y-69599720D02*
X31499720Y-70878169D01*
X30150561Y-69529010D01*
X31429010Y-68250561D01*
X32778169Y-69599720D01*
X32778169Y-69599720D01*
G37*
G36*
X35889439Y-72710990D02*
X34610990Y-73989439D01*
X33261831Y-72640280D01*
X34540280Y-71361831D01*
X35889439Y-72710990D01*
X35889439Y-72710990D01*
G37*
G36*
X34793424Y-73807006D02*
X33444264Y-75156166D01*
X32095104Y-73807006D01*
X33444264Y-72457846D01*
X34793424Y-73807006D01*
X34793424Y-73807006D01*
G37*
G36*
X31682154Y-70695736D02*
X30332994Y-72044896D01*
X28983834Y-70695736D01*
X30332994Y-69346576D01*
X31682154Y-70695736D01*
X31682154Y-70695736D01*
G37*
G36*
X32595736Y-82776166D02*
X31246576Y-81427006D01*
X32595736Y-80077846D01*
X33944896Y-81427006D01*
X32595736Y-82776166D01*
X32595736Y-82776166D01*
G37*
G36*
X35707006Y-79664896D02*
X34357846Y-78315736D01*
X35707006Y-76966576D01*
X37056166Y-78315736D01*
X35707006Y-79664896D01*
X35707006Y-79664896D01*
G37*
G36*
X34540280Y-78498169D02*
X33261831Y-77219720D01*
X34610990Y-75870561D01*
X35889439Y-77149010D01*
X34540280Y-78498169D01*
X34540280Y-78498169D01*
G37*
G36*
X31429010Y-81609439D02*
X30150561Y-80330990D01*
X31499720Y-78981831D01*
X32778169Y-80260280D01*
X31429010Y-81609439D01*
X31429010Y-81609439D01*
G37*
G36*
X30332994Y-80513424D02*
X28983834Y-79164264D01*
X30332994Y-77815104D01*
X31682154Y-79164264D01*
X30332994Y-80513424D01*
X30332994Y-80513424D01*
G37*
G36*
X33444264Y-77402154D02*
X32095104Y-76052994D01*
X33444264Y-74703834D01*
X34793424Y-76052994D01*
X33444264Y-77402154D01*
X33444264Y-77402154D01*
G37*
G36*
X32595736Y-67536166D02*
X31246576Y-66187006D01*
X32595736Y-64837846D01*
X33944896Y-66187006D01*
X32595736Y-67536166D01*
X32595736Y-67536166D01*
G37*
G36*
X35707006Y-64424896D02*
X34357846Y-63075736D01*
X35707006Y-61726576D01*
X37056166Y-63075736D01*
X35707006Y-64424896D01*
X35707006Y-64424896D01*
G37*
G36*
X34540280Y-63258169D02*
X33261831Y-61979720D01*
X34610990Y-60630561D01*
X35889439Y-61909010D01*
X34540280Y-63258169D01*
X34540280Y-63258169D01*
G37*
G36*
X31429010Y-66369439D02*
X30150561Y-65090990D01*
X31499720Y-63741831D01*
X32778169Y-65020280D01*
X31429010Y-66369439D01*
X31429010Y-66369439D01*
G37*
G36*
X30332994Y-65273424D02*
X28983834Y-63924264D01*
X30332994Y-62575104D01*
X31682154Y-63924264D01*
X30332994Y-65273424D01*
X30332994Y-65273424D01*
G37*
G36*
X33444264Y-62162154D02*
X32095104Y-60812994D01*
X33444264Y-59463834D01*
X34793424Y-60812994D01*
X33444264Y-62162154D01*
X33444264Y-62162154D01*
G37*
G36*
X37056166Y-86784264D02*
X35707006Y-88133424D01*
X34357846Y-86784264D01*
X35707006Y-85435104D01*
X37056166Y-86784264D01*
X37056166Y-86784264D01*
G37*
G36*
X33944896Y-83672994D02*
X32595736Y-85022154D01*
X31246576Y-83672994D01*
X32595736Y-82323834D01*
X33944896Y-83672994D01*
X33944896Y-83672994D01*
G37*
G36*
X32778169Y-84839720D02*
X31499720Y-86118169D01*
X30150561Y-84769010D01*
X31429010Y-83490561D01*
X32778169Y-84839720D01*
X32778169Y-84839720D01*
G37*
G36*
X35889439Y-87950990D02*
X34610990Y-89229439D01*
X33261831Y-87880280D01*
X34540280Y-86601831D01*
X35889439Y-87950990D01*
X35889439Y-87950990D01*
G37*
G36*
X34793424Y-89047006D02*
X33444264Y-90396166D01*
X32095104Y-89047006D01*
X33444264Y-87697846D01*
X34793424Y-89047006D01*
X34793424Y-89047006D01*
G37*
G36*
X31682154Y-85935736D02*
X30332994Y-87284896D01*
X28983834Y-85935736D01*
X30332994Y-84586576D01*
X31682154Y-85935736D01*
X31682154Y-85935736D01*
G37*
G36*
X41064264Y-82323834D02*
X42413424Y-83672994D01*
X41064264Y-85022154D01*
X39715104Y-83672994D01*
X41064264Y-82323834D01*
X41064264Y-82323834D01*
G37*
G36*
X37952994Y-85435104D02*
X39302154Y-86784264D01*
X37952994Y-88133424D01*
X36603834Y-86784264D01*
X37952994Y-85435104D01*
X37952994Y-85435104D01*
G37*
G36*
X39119720Y-86601831D02*
X40398169Y-87880280D01*
X39049010Y-89229439D01*
X37770561Y-87950990D01*
X39119720Y-86601831D01*
X39119720Y-86601831D01*
G37*
G36*
X42230990Y-83490561D02*
X43509439Y-84769010D01*
X42160280Y-86118169D01*
X40881831Y-84839720D01*
X42230990Y-83490561D01*
X42230990Y-83490561D01*
G37*
G36*
X43327006Y-84586576D02*
X44676166Y-85935736D01*
X43327006Y-87284896D01*
X41977846Y-85935736D01*
X43327006Y-84586576D01*
X43327006Y-84586576D01*
G37*
G36*
X40215736Y-87697846D02*
X41564896Y-89047006D01*
X40215736Y-90396166D01*
X38866576Y-89047006D01*
X40215736Y-87697846D01*
X40215736Y-87697846D01*
G37*
G36*
X52296166Y-86784264D02*
X50947006Y-88133424D01*
X49597846Y-86784264D01*
X50947006Y-85435104D01*
X52296166Y-86784264D01*
X52296166Y-86784264D01*
G37*
G36*
X49184896Y-83672994D02*
X47835736Y-85022154D01*
X46486576Y-83672994D01*
X47835736Y-82323834D01*
X49184896Y-83672994D01*
X49184896Y-83672994D01*
G37*
G36*
X48018169Y-84839720D02*
X46739720Y-86118169D01*
X45390561Y-84769010D01*
X46669010Y-83490561D01*
X48018169Y-84839720D01*
X48018169Y-84839720D01*
G37*
G36*
X51129439Y-87950990D02*
X49850990Y-89229439D01*
X48501831Y-87880280D01*
X49780280Y-86601831D01*
X51129439Y-87950990D01*
X51129439Y-87950990D01*
G37*
G36*
X50033424Y-89047006D02*
X48684264Y-90396166D01*
X47335104Y-89047006D01*
X48684264Y-87697846D01*
X50033424Y-89047006D01*
X50033424Y-89047006D01*
G37*
G36*
X46922154Y-85935736D02*
X45572994Y-87284896D01*
X44223834Y-85935736D01*
X45572994Y-84586576D01*
X46922154Y-85935736D01*
X46922154Y-85935736D01*
G37*
G36*
X56304264Y-82323834D02*
X57653424Y-83672994D01*
X56304264Y-85022154D01*
X54955104Y-83672994D01*
X56304264Y-82323834D01*
X56304264Y-82323834D01*
G37*
G36*
X53192994Y-85435104D02*
X54542154Y-86784264D01*
X53192994Y-88133424D01*
X51843834Y-86784264D01*
X53192994Y-85435104D01*
X53192994Y-85435104D01*
G37*
G36*
X54359720Y-86601831D02*
X55638169Y-87880280D01*
X54289010Y-89229439D01*
X53010561Y-87950990D01*
X54359720Y-86601831D01*
X54359720Y-86601831D01*
G37*
G36*
X57470990Y-83490561D02*
X58749439Y-84769010D01*
X57400280Y-86118169D01*
X56121831Y-84839720D01*
X57470990Y-83490561D01*
X57470990Y-83490561D01*
G37*
G36*
X58567006Y-84586576D02*
X59916166Y-85935736D01*
X58567006Y-87284896D01*
X57217846Y-85935736D01*
X58567006Y-84586576D01*
X58567006Y-84586576D01*
G37*
G36*
X55455736Y-87697846D02*
X56804896Y-89047006D01*
X55455736Y-90396166D01*
X54106576Y-89047006D01*
X55455736Y-87697846D01*
X55455736Y-87697846D01*
G37*
G36*
X67536166Y-86784264D02*
X66187006Y-88133424D01*
X64837846Y-86784264D01*
X66187006Y-85435104D01*
X67536166Y-86784264D01*
X67536166Y-86784264D01*
G37*
G36*
X64424896Y-83672994D02*
X63075736Y-85022154D01*
X61726576Y-83672994D01*
X63075736Y-82323834D01*
X64424896Y-83672994D01*
X64424896Y-83672994D01*
G37*
G36*
X63258169Y-84839720D02*
X61979720Y-86118169D01*
X60630561Y-84769010D01*
X61909010Y-83490561D01*
X63258169Y-84839720D01*
X63258169Y-84839720D01*
G37*
G36*
X66369439Y-87950990D02*
X65090990Y-89229439D01*
X63741831Y-87880280D01*
X65020280Y-86601831D01*
X66369439Y-87950990D01*
X66369439Y-87950990D01*
G37*
G36*
X65273424Y-89047006D02*
X63924264Y-90396166D01*
X62575104Y-89047006D01*
X63924264Y-87697846D01*
X65273424Y-89047006D01*
X65273424Y-89047006D01*
G37*
G36*
X62162154Y-85935736D02*
X60812994Y-87284896D01*
X59463834Y-85935736D01*
X60812994Y-84586576D01*
X62162154Y-85935736D01*
X62162154Y-85935736D01*
G37*
G36*
X71544264Y-82323834D02*
X72893424Y-83672994D01*
X71544264Y-85022154D01*
X70195104Y-83672994D01*
X71544264Y-82323834D01*
X71544264Y-82323834D01*
G37*
G36*
X68432994Y-85435104D02*
X69782154Y-86784264D01*
X68432994Y-88133424D01*
X67083834Y-86784264D01*
X68432994Y-85435104D01*
X68432994Y-85435104D01*
G37*
G36*
X69599720Y-86601831D02*
X70878169Y-87880280D01*
X69529010Y-89229439D01*
X68250561Y-87950990D01*
X69599720Y-86601831D01*
X69599720Y-86601831D01*
G37*
G36*
X72710990Y-83490561D02*
X73989439Y-84769010D01*
X72640280Y-86118169D01*
X71361831Y-84839720D01*
X72710990Y-83490561D01*
X72710990Y-83490561D01*
G37*
G36*
X73807006Y-84586576D02*
X75156166Y-85935736D01*
X73807006Y-87284896D01*
X72457846Y-85935736D01*
X73807006Y-84586576D01*
X73807006Y-84586576D01*
G37*
G36*
X70695736Y-87697846D02*
X72044896Y-89047006D01*
X70695736Y-90396166D01*
X69346576Y-89047006D01*
X70695736Y-87697846D01*
X70695736Y-87697846D01*
G37*
G36*
X82776166Y-86784264D02*
X81427006Y-88133424D01*
X80077846Y-86784264D01*
X81427006Y-85435104D01*
X82776166Y-86784264D01*
X82776166Y-86784264D01*
G37*
G36*
X79664896Y-83672994D02*
X78315736Y-85022154D01*
X76966576Y-83672994D01*
X78315736Y-82323834D01*
X79664896Y-83672994D01*
X79664896Y-83672994D01*
G37*
G36*
X78498169Y-84839720D02*
X77219720Y-86118169D01*
X75870561Y-84769010D01*
X77149010Y-83490561D01*
X78498169Y-84839720D01*
X78498169Y-84839720D01*
G37*
G36*
X81609439Y-87950990D02*
X80330990Y-89229439D01*
X78981831Y-87880280D01*
X80260280Y-86601831D01*
X81609439Y-87950990D01*
X81609439Y-87950990D01*
G37*
G36*
X80513424Y-89047006D02*
X79164264Y-90396166D01*
X77815104Y-89047006D01*
X79164264Y-87697846D01*
X80513424Y-89047006D01*
X80513424Y-89047006D01*
G37*
G36*
X77402154Y-85935736D02*
X76052994Y-87284896D01*
X74703834Y-85935736D01*
X76052994Y-84586576D01*
X77402154Y-85935736D01*
X77402154Y-85935736D01*
G37*
G36*
X86784264Y-82323834D02*
X88133424Y-83672994D01*
X86784264Y-85022154D01*
X85435104Y-83672994D01*
X86784264Y-82323834D01*
X86784264Y-82323834D01*
G37*
G36*
X83672994Y-85435104D02*
X85022154Y-86784264D01*
X83672994Y-88133424D01*
X82323834Y-86784264D01*
X83672994Y-85435104D01*
X83672994Y-85435104D01*
G37*
G36*
X84839720Y-86601831D02*
X86118169Y-87880280D01*
X84769010Y-89229439D01*
X83490561Y-87950990D01*
X84839720Y-86601831D01*
X84839720Y-86601831D01*
G37*
G36*
X87950990Y-83490561D02*
X89229439Y-84769010D01*
X87880280Y-86118169D01*
X86601831Y-84839720D01*
X87950990Y-83490561D01*
X87950990Y-83490561D01*
G37*
G36*
X89047006Y-84586576D02*
X90396166Y-85935736D01*
X89047006Y-87284896D01*
X87697846Y-85935736D01*
X89047006Y-84586576D01*
X89047006Y-84586576D01*
G37*
G36*
X85935736Y-87697846D02*
X87284896Y-89047006D01*
X85935736Y-90396166D01*
X84586576Y-89047006D01*
X85935736Y-87697846D01*
X85935736Y-87697846D01*
G37*
G36*
X67083834Y-47835736D02*
X68432994Y-46486576D01*
X69782154Y-47835736D01*
X68432994Y-49184896D01*
X67083834Y-47835736D01*
X67083834Y-47835736D01*
G37*
G36*
X70195104Y-50947006D02*
X71544264Y-49597846D01*
X72893424Y-50947006D01*
X71544264Y-52296166D01*
X70195104Y-50947006D01*
X70195104Y-50947006D01*
G37*
G36*
X71361831Y-49780280D02*
X72640280Y-48501831D01*
X73989439Y-49850990D01*
X72710990Y-51129439D01*
X71361831Y-49780280D01*
X71361831Y-49780280D01*
G37*
G36*
X68250561Y-46669010D02*
X69529010Y-45390561D01*
X70878169Y-46739720D01*
X69599720Y-48018169D01*
X68250561Y-46669010D01*
X68250561Y-46669010D01*
G37*
G36*
X69346576Y-45572994D02*
X70695736Y-44223834D01*
X72044896Y-45572994D01*
X70695736Y-46922154D01*
X69346576Y-45572994D01*
X69346576Y-45572994D01*
G37*
G36*
X72457846Y-48684264D02*
X73807006Y-47335104D01*
X75156166Y-48684264D01*
X73807006Y-50033424D01*
X72457846Y-48684264D01*
X72457846Y-48684264D01*
G37*
G36*
X82323834Y-78315736D02*
X83672994Y-76966576D01*
X85022154Y-78315736D01*
X83672994Y-79664896D01*
X82323834Y-78315736D01*
X82323834Y-78315736D01*
G37*
G36*
X85435104Y-81427006D02*
X86784264Y-80077846D01*
X88133424Y-81427006D01*
X86784264Y-82776166D01*
X85435104Y-81427006D01*
X85435104Y-81427006D01*
G37*
G36*
X86601831Y-80260280D02*
X87880280Y-78981831D01*
X89229439Y-80330990D01*
X87950990Y-81609439D01*
X86601831Y-80260280D01*
X86601831Y-80260280D01*
G37*
G36*
X83490561Y-77149010D02*
X84769010Y-75870561D01*
X86118169Y-77219720D01*
X84839720Y-78498169D01*
X83490561Y-77149010D01*
X83490561Y-77149010D01*
G37*
G36*
X84586576Y-76052994D02*
X85935736Y-74703834D01*
X87284896Y-76052994D01*
X85935736Y-77402154D01*
X84586576Y-76052994D01*
X84586576Y-76052994D01*
G37*
G36*
X87697846Y-79164264D02*
X89047006Y-77815104D01*
X90396166Y-79164264D01*
X89047006Y-80513424D01*
X87697846Y-79164264D01*
X87697846Y-79164264D01*
G37*
D12*
X44450000Y-61486051D03*
X42653949Y-59690000D03*
X44450000Y-57893949D03*
X46246051Y-59690000D03*
X57893949Y-44450000D03*
X59690000Y-42653949D03*
X61486051Y-44450000D03*
X59690000Y-46246051D03*
X59690000Y-73133949D03*
X61486051Y-74930000D03*
X59690000Y-76726051D03*
X57893949Y-74930000D03*
X76726051Y-59690000D03*
X74930000Y-61486051D03*
X73133949Y-59690000D03*
X74930000Y-57893949D03*
D11*
X36830000Y-52070000D03*
X82550000Y-52070000D03*
X36830000Y-67310000D03*
X82550000Y-67310000D03*
X67310000Y-36830000D03*
X52070000Y-36830000D03*
X52070000Y-82550000D03*
X67310000Y-82550000D03*
M02*
