%TF.GenerationSoftware,KiCad,Pcbnew,4.0.7-e1-6374~58~ubuntu16.04.1*%
%TF.CreationDate,2017-08-11T22:02:44+05:30*%
%TF.ProjectId,ultim8x8,756C74696D3878382E6B696361645F70,2.0*%
%TF.FileFunction,Soldermask,Bot*%
%FSLAX46Y46*%
G04 Gerber Fmt 4.6, Leading zero omitted, Abs format (unit mm)*
G04 Created by KiCad (PCBNEW 4.0.7-e1-6374~58~ubuntu16.04.1) date Fri Aug 11 22:02:44 2017*
%MOMM*%
%LPD*%
G01*
G04 APERTURE LIST*
%ADD10C,0.254000*%
%ADD11R,1.930400X1.574800*%
%ADD12C,6.108000*%
%ADD13R,3.008000X2.508000*%
%ADD14C,2.032000*%
G04 APERTURE END LIST*
D10*
D11*
X67310000Y-73914000D03*
X67310000Y-75946000D03*
X52070000Y-73914000D03*
X52070000Y-75946000D03*
D12*
X82550000Y-82550000D03*
X82550000Y-36830000D03*
X67310000Y-67310000D03*
X52070000Y-67310000D03*
X36830000Y-36830000D03*
X36830000Y-82550000D03*
X52070000Y-52070000D03*
X67310000Y-52070000D03*
D13*
X44450000Y-76930000D03*
X44450000Y-72930000D03*
X74930000Y-76930000D03*
X74930000Y-72930000D03*
D14*
X44450000Y-61486051D03*
X42653949Y-59690000D03*
X44450000Y-57893949D03*
X46246051Y-59690000D03*
X57893949Y-44450000D03*
X59690000Y-42653949D03*
X61486051Y-44450000D03*
X59690000Y-46246051D03*
X59690000Y-73133949D03*
X61486051Y-74930000D03*
X59690000Y-76726051D03*
X57893949Y-74930000D03*
X76726051Y-59690000D03*
X74930000Y-61486051D03*
X73133949Y-59690000D03*
X74930000Y-57893949D03*
D12*
X36830000Y-52070000D03*
X82550000Y-52070000D03*
X36830000Y-67310000D03*
X82550000Y-67310000D03*
X67310000Y-36830000D03*
X52070000Y-36830000D03*
X52070000Y-82550000D03*
X67310000Y-82550000D03*
M02*
