%TF.GenerationSoftware,KiCad,Pcbnew,4.0.7-e1-6374~58~ubuntu16.04.1*%
%TF.CreationDate,2017-08-11T22:02:44+05:30*%
%TF.ProjectId,ultim8x8,756C74696D3878382E6B696361645F70,2.0*%
%TF.FileFunction,Legend,Top*%
%FSLAX46Y46*%
G04 Gerber Fmt 4.6, Leading zero omitted, Abs format (unit mm)*
G04 Created by KiCad (PCBNEW 4.0.7-e1-6374~58~ubuntu16.04.1) date Fri Aug 11 22:02:44 2017*
%MOMM*%
%LPD*%
G01*
G04 APERTURE LIST*
%ADD10C,0.254000*%
%ADD11C,0.152400*%
%ADD12C,0.150000*%
%ADD13C,6.108000*%
%ADD14C,2.032000*%
G04 APERTURE END LIST*
D10*
X77216000Y-67564000D02*
X77216000Y-67056000D01*
X76962000Y-66802000D02*
X76962000Y-67818000D01*
X76708000Y-68072000D02*
X76708000Y-66548000D01*
X76454000Y-66294000D02*
X76454000Y-68326000D01*
X42164000Y-67564000D02*
X42164000Y-67056000D01*
X42418000Y-66802000D02*
X42418000Y-67818000D01*
X42672000Y-68072000D02*
X42672000Y-66548000D01*
X42926000Y-66294000D02*
X42926000Y-68326000D01*
X77216000Y-52324000D02*
X77216000Y-51816000D01*
X76962000Y-51562000D02*
X76962000Y-52578000D01*
X76708000Y-52832000D02*
X76708000Y-51308000D01*
X76454000Y-51054000D02*
X76454000Y-53086000D01*
X42164000Y-51816000D02*
X42164000Y-52324000D01*
X42418000Y-51562000D02*
X42418000Y-52578000D01*
X42672000Y-51308000D02*
X42672000Y-52832000D01*
X42926000Y-51054000D02*
X42926000Y-53086000D01*
X72644000Y-36576000D02*
X72644000Y-37084000D01*
X72898000Y-36322000D02*
X72898000Y-37338000D01*
X73152000Y-36068000D02*
X73152000Y-37592000D01*
X73406000Y-35814000D02*
X73406000Y-37846000D01*
X46736000Y-37084000D02*
X46736000Y-36576000D01*
X46482000Y-36322000D02*
X46482000Y-37338000D01*
X46228000Y-37592000D02*
X46228000Y-36068000D01*
X45974000Y-35814000D02*
X45974000Y-37846000D01*
X46990000Y-36830000D02*
X45720000Y-35560000D01*
X45720000Y-38100000D02*
X46990000Y-36830000D01*
X45720000Y-35560000D02*
X45720000Y-38100000D01*
X72390000Y-36830000D02*
X73660000Y-35560000D01*
X73660000Y-38100000D02*
X72390000Y-36830000D01*
X73660000Y-35560000D02*
X73660000Y-38100000D01*
X77470000Y-52070000D02*
X76200000Y-50800000D01*
X76200000Y-53340000D02*
X77470000Y-52070000D01*
X76200000Y-50800000D02*
X76200000Y-53340000D01*
X41910000Y-52070000D02*
X43180000Y-50800000D01*
X43180000Y-53340000D02*
X41910000Y-52070000D01*
X43180000Y-50800000D02*
X43180000Y-53340000D01*
X77470000Y-67310000D02*
X76200000Y-66040000D01*
X76200000Y-68580000D02*
X77470000Y-67310000D01*
X76200000Y-66040000D02*
X76200000Y-68580000D01*
X41910000Y-67310000D02*
X43180000Y-66040000D01*
X43180000Y-68580000D02*
X41910000Y-67310000D01*
X43180000Y-66040000D02*
X43180000Y-68580000D01*
X72644000Y-82423000D02*
X72644000Y-82677000D01*
X72390000Y-82550000D02*
X73660000Y-83820000D01*
X73660000Y-81280000D02*
X72390000Y-82550000D01*
X72898000Y-82042000D02*
X72898000Y-83058000D01*
X73152000Y-81788000D02*
X73152000Y-83312000D01*
X73406000Y-81534000D02*
X73406000Y-83566000D01*
X73660000Y-81280000D02*
X73660000Y-83820000D01*
X46736000Y-82423000D02*
X46736000Y-82804000D01*
X46482000Y-82042000D02*
X46482000Y-82931000D01*
X46228000Y-81788000D02*
X46228000Y-83185000D01*
X45974000Y-81661000D02*
X45974000Y-83439000D01*
X46990000Y-82550000D02*
X45720000Y-81280000D01*
X45720000Y-83820000D02*
X46990000Y-82550000D01*
X45720000Y-81280000D02*
X45720000Y-83820000D01*
X42164000Y-36576000D02*
X42164000Y-37084000D01*
X42418000Y-36322000D02*
X42418000Y-37338000D01*
X42672000Y-36068000D02*
X42672000Y-37592000D01*
X42926000Y-35814000D02*
X42926000Y-37846000D01*
X77216000Y-36576000D02*
X77216000Y-37084000D01*
X76962000Y-36322000D02*
X76962000Y-37338000D01*
X76708000Y-36068000D02*
X76708000Y-37592000D01*
X76454000Y-35814000D02*
X76454000Y-37846000D01*
X77216000Y-82296000D02*
X77216000Y-82804000D01*
X76962000Y-82042000D02*
X76962000Y-83058000D01*
X76708000Y-81788000D02*
X76708000Y-83312000D01*
X76454000Y-81534000D02*
X76454000Y-83566000D01*
X42164000Y-82296000D02*
X42164000Y-82804000D01*
X42418000Y-82042000D02*
X42418000Y-83058000D01*
X42672000Y-81788000D02*
X42672000Y-83312000D01*
X42926000Y-81534000D02*
X42926000Y-83566000D01*
X72644000Y-67056000D02*
X72644000Y-67564000D01*
X72898000Y-66802000D02*
X72898000Y-67818000D01*
X73152000Y-66548000D02*
X73152000Y-68072000D01*
X73406000Y-66294000D02*
X73406000Y-68326000D01*
X46736000Y-67056000D02*
X46736000Y-67564000D01*
X46482000Y-66802000D02*
X46482000Y-67818000D01*
X46228000Y-66548000D02*
X46228000Y-68072000D01*
X45974000Y-66294000D02*
X45974000Y-68326000D01*
X72644000Y-51816000D02*
X72644000Y-52324000D01*
X72898000Y-51562000D02*
X72898000Y-52578000D01*
X73152000Y-51308000D02*
X73152000Y-52832000D01*
X73406000Y-51054000D02*
X73406000Y-53086000D01*
X46736000Y-51816000D02*
X46736000Y-52324000D01*
X46482000Y-51562000D02*
X46482000Y-52578000D01*
X46228000Y-51308000D02*
X46228000Y-52832000D01*
X45974000Y-51054000D02*
X45974000Y-53086000D01*
X45720000Y-50800000D02*
X45720000Y-53340000D01*
X89014784Y-89056495D02*
X87236783Y-89056493D01*
X89014784Y-89056495D02*
X89014784Y-87278494D01*
X89014784Y-87278494D02*
X87236783Y-89056493D01*
X89014784Y-88802493D02*
X87490784Y-88802493D01*
X89014784Y-88548494D02*
X87744784Y-88548494D01*
X89014784Y-88294494D02*
X87998784Y-88294494D01*
X89014784Y-88040494D02*
X88252783Y-88040493D01*
X89014784Y-87786493D02*
X88506783Y-87786493D01*
X89014784Y-87532494D02*
X88760784Y-87532494D01*
X29845000Y-88011000D02*
X29845000Y-88265000D01*
X30099000Y-88011000D02*
X30099000Y-88519000D01*
X30353000Y-88011000D02*
X30353000Y-88773000D01*
X30607000Y-88011000D02*
X30607000Y-89027000D01*
X30861000Y-88011000D02*
X30861000Y-89281000D01*
X31115000Y-88011000D02*
X31115000Y-89535000D01*
X29591000Y-88011000D02*
X31369000Y-89789000D01*
X31369000Y-88011000D02*
X29591000Y-88011000D01*
X31369000Y-88011000D02*
X31369000Y-89789000D01*
X76200000Y-50800000D02*
X73660000Y-50800000D01*
X73660000Y-50800000D02*
X73660000Y-53340000D01*
X73660000Y-53340000D02*
X76200000Y-53340000D01*
X43180000Y-53340000D02*
X45720000Y-53340000D01*
X45720000Y-50800000D02*
X43180000Y-50800000D01*
X45720000Y-66040000D02*
X43180000Y-66040000D01*
X45720000Y-68580000D02*
X45720000Y-66040000D01*
X43180000Y-68580000D02*
X45720000Y-68580000D01*
X73660000Y-68580000D02*
X76200000Y-68580000D01*
X73660000Y-66040000D02*
X73660000Y-68580000D01*
X76200000Y-66040000D02*
X73660000Y-66040000D01*
X73660000Y-83820000D02*
X76200000Y-83820000D01*
X73660000Y-81280000D02*
X76200000Y-81280000D01*
X76200000Y-81280000D02*
X76200000Y-83820000D01*
X45720000Y-83820000D02*
X43180000Y-83820000D01*
X45720000Y-81280000D02*
X43180000Y-81280000D01*
X43180000Y-81280000D02*
X43180000Y-83820000D01*
X73660000Y-38100000D02*
X76200000Y-38100000D01*
X73660000Y-35560000D02*
X76200000Y-35560000D01*
X76200000Y-35560000D02*
X76200000Y-38100000D01*
X43180000Y-38100000D02*
X45720000Y-38100000D01*
X45720000Y-35560000D02*
X43180000Y-35560000D01*
X43180000Y-35560000D02*
X43180000Y-38100000D01*
X77470000Y-36830000D02*
X76200000Y-38100000D01*
X76200000Y-35560000D02*
X77470000Y-36830000D01*
X41910000Y-36830000D02*
X43180000Y-38100000D01*
X43180000Y-35560000D02*
X41910000Y-36830000D01*
X77470000Y-82550000D02*
X76200000Y-83820000D01*
X76200000Y-81280000D02*
X77470000Y-82550000D01*
X41910000Y-82550000D02*
X43180000Y-83820000D01*
X43180000Y-81280000D02*
X41910000Y-82550000D01*
X72390000Y-67310000D02*
X73660000Y-68580000D01*
X73660000Y-66040000D02*
X72390000Y-67310000D01*
X46990000Y-67310000D02*
X45720000Y-68580000D01*
X45720000Y-66040000D02*
X46990000Y-67310000D01*
X72390000Y-52070000D02*
X73660000Y-53340000D01*
X72390000Y-52070000D02*
X73660000Y-50800000D01*
X46990000Y-52070000D02*
X45720000Y-53340000D01*
X46990000Y-52070000D02*
X45720000Y-50800000D01*
D11*
X74113572Y-67007014D02*
X74113572Y-66245014D01*
X74295000Y-66245014D01*
X74403857Y-66281300D01*
X74476429Y-66353871D01*
X74512714Y-66426443D01*
X74549000Y-66571586D01*
X74549000Y-66680443D01*
X74512714Y-66825586D01*
X74476429Y-66898157D01*
X74403857Y-66970729D01*
X74295000Y-67007014D01*
X74113572Y-67007014D01*
X74839286Y-66789300D02*
X75202143Y-66789300D01*
X74766714Y-67007014D02*
X75020714Y-66245014D01*
X75274714Y-67007014D01*
X75419857Y-66245014D02*
X75855286Y-66245014D01*
X75637572Y-67007014D02*
X75637572Y-66245014D01*
X74168000Y-67540414D02*
X74313143Y-67540414D01*
X74385715Y-67576700D01*
X74458286Y-67649271D01*
X74494572Y-67794414D01*
X74494572Y-68048414D01*
X74458286Y-68193557D01*
X74385715Y-68266129D01*
X74313143Y-68302414D01*
X74168000Y-68302414D01*
X74095429Y-68266129D01*
X74022858Y-68193557D01*
X73986572Y-68048414D01*
X73986572Y-67794414D01*
X74022858Y-67649271D01*
X74095429Y-67576700D01*
X74168000Y-67540414D01*
X74821144Y-67540414D02*
X74821144Y-68157271D01*
X74857429Y-68229843D01*
X74893715Y-68266129D01*
X74966286Y-68302414D01*
X75111429Y-68302414D01*
X75184001Y-68266129D01*
X75220286Y-68229843D01*
X75256572Y-68157271D01*
X75256572Y-67540414D01*
X75510572Y-67540414D02*
X75946001Y-67540414D01*
X75728287Y-68302414D02*
X75728287Y-67540414D01*
X43633572Y-67007014D02*
X43633572Y-66245014D01*
X43815000Y-66245014D01*
X43923857Y-66281300D01*
X43996429Y-66353871D01*
X44032714Y-66426443D01*
X44069000Y-66571586D01*
X44069000Y-66680443D01*
X44032714Y-66825586D01*
X43996429Y-66898157D01*
X43923857Y-66970729D01*
X43815000Y-67007014D01*
X43633572Y-67007014D01*
X44359286Y-66789300D02*
X44722143Y-66789300D01*
X44286714Y-67007014D02*
X44540714Y-66245014D01*
X44794714Y-67007014D01*
X44939857Y-66245014D02*
X45375286Y-66245014D01*
X45157572Y-67007014D02*
X45157572Y-66245014D01*
X44050858Y-68302414D02*
X44050858Y-67540414D01*
X44413715Y-68302414D02*
X44413715Y-67540414D01*
X44849143Y-68302414D01*
X44849143Y-67540414D01*
X74476429Y-51694443D02*
X74440143Y-51730729D01*
X74331286Y-51767014D01*
X74258715Y-51767014D01*
X74149858Y-51730729D01*
X74077286Y-51658157D01*
X74041001Y-51585586D01*
X74004715Y-51440443D01*
X74004715Y-51331586D01*
X74041001Y-51186443D01*
X74077286Y-51113871D01*
X74149858Y-51041300D01*
X74258715Y-51005014D01*
X74331286Y-51005014D01*
X74440143Y-51041300D01*
X74476429Y-51077586D01*
X75165858Y-51767014D02*
X74803001Y-51767014D01*
X74803001Y-51005014D01*
X75419858Y-51767014D02*
X75419858Y-51005014D01*
X75855286Y-51767014D02*
X75528715Y-51331586D01*
X75855286Y-51005014D02*
X75419858Y-51440443D01*
X74168000Y-52300414D02*
X74313143Y-52300414D01*
X74385715Y-52336700D01*
X74458286Y-52409271D01*
X74494572Y-52554414D01*
X74494572Y-52808414D01*
X74458286Y-52953557D01*
X74385715Y-53026129D01*
X74313143Y-53062414D01*
X74168000Y-53062414D01*
X74095429Y-53026129D01*
X74022858Y-52953557D01*
X73986572Y-52808414D01*
X73986572Y-52554414D01*
X74022858Y-52409271D01*
X74095429Y-52336700D01*
X74168000Y-52300414D01*
X74821144Y-52300414D02*
X74821144Y-52917271D01*
X74857429Y-52989843D01*
X74893715Y-53026129D01*
X74966286Y-53062414D01*
X75111429Y-53062414D01*
X75184001Y-53026129D01*
X75220286Y-52989843D01*
X75256572Y-52917271D01*
X75256572Y-52300414D01*
X75510572Y-52300414D02*
X75946001Y-52300414D01*
X75728287Y-53062414D02*
X75728287Y-52300414D01*
X43996429Y-51694443D02*
X43960143Y-51730729D01*
X43851286Y-51767014D01*
X43778715Y-51767014D01*
X43669858Y-51730729D01*
X43597286Y-51658157D01*
X43561001Y-51585586D01*
X43524715Y-51440443D01*
X43524715Y-51331586D01*
X43561001Y-51186443D01*
X43597286Y-51113871D01*
X43669858Y-51041300D01*
X43778715Y-51005014D01*
X43851286Y-51005014D01*
X43960143Y-51041300D01*
X43996429Y-51077586D01*
X44685858Y-51767014D02*
X44323001Y-51767014D01*
X44323001Y-51005014D01*
X44939858Y-51767014D02*
X44939858Y-51005014D01*
X45375286Y-51767014D02*
X45048715Y-51331586D01*
X45375286Y-51005014D02*
X44939858Y-51440443D01*
X44050858Y-53062414D02*
X44050858Y-52300414D01*
X44413715Y-53062414D02*
X44413715Y-52300414D01*
X44849143Y-53062414D01*
X44849143Y-52300414D01*
X44304858Y-36412714D02*
X43942001Y-36412714D01*
X43905715Y-36775571D01*
X43942001Y-36739286D01*
X44014572Y-36703000D01*
X44196001Y-36703000D01*
X44268572Y-36739286D01*
X44304858Y-36775571D01*
X44341143Y-36848143D01*
X44341143Y-37029571D01*
X44304858Y-37102143D01*
X44268572Y-37138429D01*
X44196001Y-37174714D01*
X44014572Y-37174714D01*
X43942001Y-37138429D01*
X43905715Y-37102143D01*
X44558857Y-36412714D02*
X44812857Y-37174714D01*
X45066857Y-36412714D01*
X74784858Y-36412714D02*
X74422001Y-36412714D01*
X74385715Y-36775571D01*
X74422001Y-36739286D01*
X74494572Y-36703000D01*
X74676001Y-36703000D01*
X74748572Y-36739286D01*
X74784858Y-36775571D01*
X74821143Y-36848143D01*
X74821143Y-37029571D01*
X74784858Y-37102143D01*
X74748572Y-37138429D01*
X74676001Y-37174714D01*
X74494572Y-37174714D01*
X74422001Y-37138429D01*
X74385715Y-37102143D01*
X75038857Y-36412714D02*
X75292857Y-37174714D01*
X75546857Y-36412714D01*
X74349428Y-82169000D02*
X74276857Y-82132714D01*
X74168000Y-82132714D01*
X74059143Y-82169000D01*
X73986571Y-82241571D01*
X73950286Y-82314143D01*
X73914000Y-82459286D01*
X73914000Y-82568143D01*
X73950286Y-82713286D01*
X73986571Y-82785857D01*
X74059143Y-82858429D01*
X74168000Y-82894714D01*
X74240571Y-82894714D01*
X74349428Y-82858429D01*
X74385714Y-82822143D01*
X74385714Y-82568143D01*
X74240571Y-82568143D01*
X74712286Y-82894714D02*
X74712286Y-82132714D01*
X75147714Y-82894714D01*
X75147714Y-82132714D01*
X75510572Y-82894714D02*
X75510572Y-82132714D01*
X75692000Y-82132714D01*
X75800857Y-82169000D01*
X75873429Y-82241571D01*
X75909714Y-82314143D01*
X75946000Y-82459286D01*
X75946000Y-82568143D01*
X75909714Y-82713286D01*
X75873429Y-82785857D01*
X75800857Y-82858429D01*
X75692000Y-82894714D01*
X75510572Y-82894714D01*
X43869428Y-82169000D02*
X43796857Y-82132714D01*
X43688000Y-82132714D01*
X43579143Y-82169000D01*
X43506571Y-82241571D01*
X43470286Y-82314143D01*
X43434000Y-82459286D01*
X43434000Y-82568143D01*
X43470286Y-82713286D01*
X43506571Y-82785857D01*
X43579143Y-82858429D01*
X43688000Y-82894714D01*
X43760571Y-82894714D01*
X43869428Y-82858429D01*
X43905714Y-82822143D01*
X43905714Y-82568143D01*
X43760571Y-82568143D01*
X44232286Y-82894714D02*
X44232286Y-82132714D01*
X44667714Y-82894714D01*
X44667714Y-82132714D01*
X45030572Y-82894714D02*
X45030572Y-82132714D01*
X45212000Y-82132714D01*
X45320857Y-82169000D01*
X45393429Y-82241571D01*
X45429714Y-82314143D01*
X45466000Y-82459286D01*
X45466000Y-82568143D01*
X45429714Y-82713286D01*
X45393429Y-82785857D01*
X45320857Y-82858429D01*
X45212000Y-82894714D01*
X45030572Y-82894714D01*
D12*
X47615975Y-43872892D02*
G75*
G03X47615975Y-43872892I-254001J0D01*
G01*
X47488974Y-43872892D02*
G75*
G03X47488974Y-43872892I-127000J0D01*
G01*
X89846893Y-56778026D02*
G75*
G03X89846893Y-56778026I-254001J0D01*
G01*
X89719892Y-56778026D02*
G75*
G03X89719892Y-56778026I-127000J0D01*
G01*
X87512027Y-45027108D02*
G75*
G03X87512027Y-45027108I-254001J0D01*
G01*
X87385026Y-45027108D02*
G75*
G03X87385026Y-45027108I-127000J0D01*
G01*
X75761109Y-47361974D02*
G75*
G03X75761109Y-47361974I-254001J0D01*
G01*
X75634108Y-47361974D02*
G75*
G03X75634108Y-47361974I-127000J0D01*
G01*
X78095975Y-59112892D02*
G75*
G03X78095975Y-59112892I-254001J0D01*
G01*
X77968974Y-59112892D02*
G75*
G03X77968974Y-59112892I-127000J0D01*
G01*
X60521109Y-47361974D02*
G75*
G03X60521109Y-47361974I-254001J0D01*
G01*
X60394108Y-47361974D02*
G75*
G03X60394108Y-47361974I-127000J0D01*
G01*
X47615975Y-74352892D02*
G75*
G03X47615975Y-74352892I-254001J0D01*
G01*
X47488974Y-74352892D02*
G75*
G03X47488974Y-74352892I-127000J0D01*
G01*
X44126893Y-56778026D02*
G75*
G03X44126893Y-56778026I-254001J0D01*
G01*
X43999892Y-56778026D02*
G75*
G03X43999892Y-56778026I-127000J0D01*
G01*
X41792027Y-45027108D02*
G75*
G03X41792027Y-45027108I-254001J0D01*
G01*
X41665026Y-45027108D02*
G75*
G03X41665026Y-45027108I-127000J0D01*
G01*
X30041109Y-47361974D02*
G75*
G03X30041109Y-47361974I-254001J0D01*
G01*
X29914108Y-47361974D02*
G75*
G03X29914108Y-47361974I-127000J0D01*
G01*
X32375975Y-59112892D02*
G75*
G03X32375975Y-59112892I-254001J0D01*
G01*
X32248974Y-59112892D02*
G75*
G03X32248974Y-59112892I-127000J0D01*
G01*
X89846893Y-72018026D02*
G75*
G03X89846893Y-72018026I-254001J0D01*
G01*
X89719892Y-72018026D02*
G75*
G03X89719892Y-72018026I-127000J0D01*
G01*
X87512027Y-60267108D02*
G75*
G03X87512027Y-60267108I-254001J0D01*
G01*
X87385026Y-60267108D02*
G75*
G03X87385026Y-60267108I-127000J0D01*
G01*
X89846893Y-41538026D02*
G75*
G03X89846893Y-41538026I-254001J0D01*
G01*
X89719892Y-41538026D02*
G75*
G03X89719892Y-41538026I-127000J0D01*
G01*
X87512027Y-29787108D02*
G75*
G03X87512027Y-29787108I-254001J0D01*
G01*
X87385026Y-29787108D02*
G75*
G03X87385026Y-29787108I-127000J0D01*
G01*
X75761109Y-32121974D02*
G75*
G03X75761109Y-32121974I-254001J0D01*
G01*
X75634108Y-32121974D02*
G75*
G03X75634108Y-32121974I-127000J0D01*
G01*
X78095975Y-43872892D02*
G75*
G03X78095975Y-43872892I-254001J0D01*
G01*
X77968974Y-43872892D02*
G75*
G03X77968974Y-43872892I-127000J0D01*
G01*
X75761109Y-62601974D02*
G75*
G03X75761109Y-62601974I-254001J0D01*
G01*
X75634108Y-62601974D02*
G75*
G03X75634108Y-62601974I-127000J0D01*
G01*
X78095975Y-74352892D02*
G75*
G03X78095975Y-74352892I-254001J0D01*
G01*
X77968974Y-74352892D02*
G75*
G03X77968974Y-74352892I-127000J0D01*
G01*
X75761109Y-77841974D02*
G75*
G03X75761109Y-77841974I-254001J0D01*
G01*
X75634108Y-77841974D02*
G75*
G03X75634108Y-77841974I-127000J0D01*
G01*
X72272027Y-75507108D02*
G75*
G03X72272027Y-75507108I-254001J0D01*
G01*
X72145026Y-75507108D02*
G75*
G03X72145026Y-75507108I-127000J0D01*
G01*
X74606893Y-72018026D02*
G75*
G03X74606893Y-72018026I-254001J0D01*
G01*
X74479892Y-72018026D02*
G75*
G03X74479892Y-72018026I-127000J0D01*
G01*
X72272027Y-60267108D02*
G75*
G03X72272027Y-60267108I-254001J0D01*
G01*
X72145026Y-60267108D02*
G75*
G03X72145026Y-60267108I-127000J0D01*
G01*
X74606893Y-56778026D02*
G75*
G03X74606893Y-56778026I-254001J0D01*
G01*
X74479892Y-56778026D02*
G75*
G03X74479892Y-56778026I-127000J0D01*
G01*
X74606893Y-41538026D02*
G75*
G03X74606893Y-41538026I-254001J0D01*
G01*
X74479892Y-41538026D02*
G75*
G03X74479892Y-41538026I-127000J0D01*
G01*
X72272027Y-29787108D02*
G75*
G03X72272027Y-29787108I-254001J0D01*
G01*
X72145026Y-29787108D02*
G75*
G03X72145026Y-29787108I-127000J0D01*
G01*
X60521109Y-32121974D02*
G75*
G03X60521109Y-32121974I-254001J0D01*
G01*
X60394108Y-32121974D02*
G75*
G03X60394108Y-32121974I-127000J0D01*
G01*
X62855975Y-43872892D02*
G75*
G03X62855975Y-43872892I-254001J0D01*
G01*
X62728974Y-43872892D02*
G75*
G03X62728974Y-43872892I-127000J0D01*
G01*
X62855975Y-59112892D02*
G75*
G03X62855975Y-59112892I-254001J0D01*
G01*
X62728974Y-59112892D02*
G75*
G03X62728974Y-59112892I-127000J0D01*
G01*
X60521109Y-62601974D02*
G75*
G03X60521109Y-62601974I-254001J0D01*
G01*
X60394108Y-62601974D02*
G75*
G03X60394108Y-62601974I-127000J0D01*
G01*
X62855975Y-74352892D02*
G75*
G03X62855975Y-74352892I-254001J0D01*
G01*
X62728974Y-74352892D02*
G75*
G03X62728974Y-74352892I-127000J0D01*
G01*
X60521109Y-77841974D02*
G75*
G03X60521109Y-77841974I-254001J0D01*
G01*
X60394108Y-77841974D02*
G75*
G03X60394108Y-77841974I-127000J0D01*
G01*
X57032027Y-75507108D02*
G75*
G03X57032027Y-75507108I-254001J0D01*
G01*
X56905026Y-75507108D02*
G75*
G03X56905026Y-75507108I-127000J0D01*
G01*
X59366893Y-72018026D02*
G75*
G03X59366893Y-72018026I-254001J0D01*
G01*
X59239892Y-72018026D02*
G75*
G03X59239892Y-72018026I-127000J0D01*
G01*
X57032027Y-60267108D02*
G75*
G03X57032027Y-60267108I-254001J0D01*
G01*
X56905026Y-60267108D02*
G75*
G03X56905026Y-60267108I-127000J0D01*
G01*
X59366893Y-56778026D02*
G75*
G03X59366893Y-56778026I-254001J0D01*
G01*
X59239892Y-56778026D02*
G75*
G03X59239892Y-56778026I-127000J0D01*
G01*
X57032027Y-45027108D02*
G75*
G03X57032027Y-45027108I-254001J0D01*
G01*
X56905026Y-45027108D02*
G75*
G03X56905026Y-45027108I-127000J0D01*
G01*
X59366893Y-41538026D02*
G75*
G03X59366893Y-41538026I-254001J0D01*
G01*
X59239892Y-41538026D02*
G75*
G03X59239892Y-41538026I-127000J0D01*
G01*
X57032027Y-29787108D02*
G75*
G03X57032027Y-29787108I-254001J0D01*
G01*
X56905026Y-29787108D02*
G75*
G03X56905026Y-29787108I-127000J0D01*
G01*
X45281109Y-32121974D02*
G75*
G03X45281109Y-32121974I-254001J0D01*
G01*
X45154108Y-32121974D02*
G75*
G03X45154108Y-32121974I-127000J0D01*
G01*
X45281109Y-47361974D02*
G75*
G03X45281109Y-47361974I-254001J0D01*
G01*
X45154108Y-47361974D02*
G75*
G03X45154108Y-47361974I-127000J0D01*
G01*
X47615975Y-59112892D02*
G75*
G03X47615975Y-59112892I-254001J0D01*
G01*
X47488974Y-59112892D02*
G75*
G03X47488974Y-59112892I-127000J0D01*
G01*
X45281109Y-62601974D02*
G75*
G03X45281109Y-62601974I-254001J0D01*
G01*
X45154108Y-62601974D02*
G75*
G03X45154108Y-62601974I-127000J0D01*
G01*
X45281109Y-77841974D02*
G75*
G03X45281109Y-77841974I-254001J0D01*
G01*
X45154108Y-77841974D02*
G75*
G03X45154108Y-77841974I-127000J0D01*
G01*
X41792027Y-75507108D02*
G75*
G03X41792027Y-75507108I-254001J0D01*
G01*
X41665026Y-75507108D02*
G75*
G03X41665026Y-75507108I-127000J0D01*
G01*
X44126893Y-72018026D02*
G75*
G03X44126893Y-72018026I-254001J0D01*
G01*
X43999892Y-72018026D02*
G75*
G03X43999892Y-72018026I-127000J0D01*
G01*
X41792027Y-60267108D02*
G75*
G03X41792027Y-60267108I-254001J0D01*
G01*
X41665026Y-60267108D02*
G75*
G03X41665026Y-60267108I-127000J0D01*
G01*
X44126893Y-41538026D02*
G75*
G03X44126893Y-41538026I-254001J0D01*
G01*
X43999892Y-41538026D02*
G75*
G03X43999892Y-41538026I-127000J0D01*
G01*
X41792027Y-29787108D02*
G75*
G03X41792027Y-29787108I-254001J0D01*
G01*
X41665026Y-29787108D02*
G75*
G03X41665026Y-29787108I-127000J0D01*
G01*
X30041109Y-32121974D02*
G75*
G03X30041109Y-32121974I-254001J0D01*
G01*
X29914108Y-32121974D02*
G75*
G03X29914108Y-32121974I-127000J0D01*
G01*
X32375975Y-43872892D02*
G75*
G03X32375975Y-43872892I-254001J0D01*
G01*
X32248974Y-43872892D02*
G75*
G03X32248974Y-43872892I-127000J0D01*
G01*
X32375975Y-74352892D02*
G75*
G03X32375975Y-74352892I-254001J0D01*
G01*
X32248974Y-74352892D02*
G75*
G03X32248974Y-74352892I-127000J0D01*
G01*
X30041109Y-77841974D02*
G75*
G03X30041109Y-77841974I-254001J0D01*
G01*
X29914108Y-77841974D02*
G75*
G03X29914108Y-77841974I-127000J0D01*
G01*
X30041109Y-62601974D02*
G75*
G03X30041109Y-62601974I-254001J0D01*
G01*
X29914108Y-62601974D02*
G75*
G03X29914108Y-62601974I-127000J0D01*
G01*
X32375975Y-89592892D02*
G75*
G03X32375975Y-89592892I-254001J0D01*
G01*
X32248974Y-89592892D02*
G75*
G03X32248974Y-89592892I-127000J0D01*
G01*
X44126893Y-87258026D02*
G75*
G03X44126893Y-87258026I-254001J0D01*
G01*
X43999892Y-87258026D02*
G75*
G03X43999892Y-87258026I-127000J0D01*
G01*
X47615975Y-89592892D02*
G75*
G03X47615975Y-89592892I-254001J0D01*
G01*
X47488974Y-89592892D02*
G75*
G03X47488974Y-89592892I-127000J0D01*
G01*
X59366893Y-87258026D02*
G75*
G03X59366893Y-87258026I-254001J0D01*
G01*
X59239892Y-87258026D02*
G75*
G03X59239892Y-87258026I-127000J0D01*
G01*
X62855975Y-89592892D02*
G75*
G03X62855975Y-89592892I-254001J0D01*
G01*
X62728974Y-89592892D02*
G75*
G03X62728974Y-89592892I-127000J0D01*
G01*
X74606893Y-87258026D02*
G75*
G03X74606893Y-87258026I-254001J0D01*
G01*
X74479892Y-87258026D02*
G75*
G03X74479892Y-87258026I-127000J0D01*
G01*
X78095975Y-89592892D02*
G75*
G03X78095975Y-89592892I-254001J0D01*
G01*
X77968974Y-89592892D02*
G75*
G03X77968974Y-89592892I-127000J0D01*
G01*
X89846893Y-87258026D02*
G75*
G03X89846893Y-87258026I-254001J0D01*
G01*
X89719892Y-87258026D02*
G75*
G03X89719892Y-87258026I-127000J0D01*
G01*
X72272027Y-45027108D02*
G75*
G03X72272027Y-45027108I-254001J0D01*
G01*
X72145026Y-45027108D02*
G75*
G03X72145026Y-45027108I-127000J0D01*
G01*
X87512027Y-75507108D02*
G75*
G03X87512027Y-75507108I-254001J0D01*
G01*
X87385026Y-75507108D02*
G75*
G03X87385026Y-75507108I-127000J0D01*
G01*
X46890638Y-41389802D02*
X47348574Y-41847738D01*
X47429385Y-41874675D01*
X47483261Y-41874675D01*
X47564073Y-41847738D01*
X47671822Y-41739988D01*
X47698760Y-41659176D01*
X47698760Y-41605301D01*
X47671822Y-41524489D01*
X47213887Y-41066553D01*
X47510198Y-40877991D02*
X47510198Y-40824117D01*
X47537136Y-40743305D01*
X47671822Y-40608618D01*
X47752634Y-40581680D01*
X47806509Y-40581680D01*
X47887322Y-40608618D01*
X47941196Y-40662492D01*
X47995071Y-40770242D01*
X47995071Y-41416740D01*
X48345258Y-41066553D01*
X47968134Y-40312306D02*
X48318320Y-39962120D01*
X48345258Y-40366181D01*
X48426070Y-40285369D01*
X48506882Y-40258432D01*
X48560757Y-40258431D01*
X48641569Y-40285369D01*
X48776256Y-40420056D01*
X48803193Y-40500867D01*
X48803193Y-40554743D01*
X48776256Y-40635555D01*
X48614631Y-40797180D01*
X48533820Y-40824117D01*
X48479944Y-40824116D01*
X86328618Y-55229058D02*
X85870682Y-55686994D01*
X85843745Y-55767805D01*
X85843745Y-55821681D01*
X85870682Y-55902493D01*
X85978432Y-56010242D01*
X86059244Y-56037180D01*
X86113119Y-56037180D01*
X86193931Y-56010242D01*
X86651867Y-55552307D01*
X87163677Y-56064117D02*
X87055927Y-55956367D01*
X86975115Y-55929430D01*
X86921241Y-55929430D01*
X86786553Y-55956367D01*
X86651867Y-56037180D01*
X86436367Y-56252679D01*
X86409430Y-56333491D01*
X86409429Y-56387366D01*
X86436367Y-56468178D01*
X86544117Y-56575928D01*
X86624929Y-56602865D01*
X86678805Y-56602865D01*
X86759616Y-56575928D01*
X86894303Y-56441241D01*
X86921241Y-56360429D01*
X86921240Y-56306553D01*
X86894303Y-56225742D01*
X86786553Y-56117992D01*
X86705741Y-56091054D01*
X86651867Y-56091054D01*
X86571054Y-56117992D01*
X87567738Y-56468178D02*
X87621613Y-56522053D01*
X87648551Y-56602865D01*
X87648551Y-56656740D01*
X87621613Y-56737553D01*
X87540801Y-56872240D01*
X87406114Y-57006926D01*
X87271427Y-57087739D01*
X87190615Y-57114675D01*
X87136740Y-57114676D01*
X87055928Y-57087739D01*
X87002053Y-57033864D01*
X86975115Y-56953052D01*
X86975115Y-56899176D01*
X87002053Y-56818364D01*
X87082865Y-56683678D01*
X87217552Y-56548991D01*
X87352239Y-56468178D01*
X87433051Y-56441240D01*
X87486926Y-56441241D01*
X87567738Y-56468178D01*
X85709058Y-48291382D02*
X86166994Y-48749318D01*
X86247805Y-48776255D01*
X86301681Y-48776255D01*
X86382493Y-48749318D01*
X86490242Y-48641568D01*
X86517180Y-48560756D01*
X86517180Y-48506881D01*
X86490242Y-48426069D01*
X86032307Y-47968133D01*
X86571055Y-47429385D02*
X86301680Y-47698760D01*
X86544117Y-47995071D01*
X86544117Y-47941196D01*
X86571055Y-47860384D01*
X86705742Y-47725697D01*
X86786553Y-47698760D01*
X86840429Y-47698759D01*
X86921241Y-47725697D01*
X87055928Y-47860384D01*
X87082865Y-47941195D01*
X87082865Y-47995071D01*
X87055928Y-48075883D01*
X86921241Y-48210570D01*
X86840429Y-48237508D01*
X86786553Y-48237507D01*
X87433051Y-47698760D02*
X87540801Y-47591010D01*
X87567739Y-47510198D01*
X87567738Y-47456322D01*
X87540802Y-47321636D01*
X87459989Y-47186949D01*
X87244490Y-46971449D01*
X87163678Y-46944512D01*
X87109802Y-46944512D01*
X87028991Y-46971449D01*
X86921241Y-47079199D01*
X86894303Y-47160012D01*
X86894303Y-47213886D01*
X86921241Y-47294698D01*
X87055928Y-47429385D01*
X87136740Y-47456322D01*
X87190615Y-47456323D01*
X87271427Y-47429385D01*
X87379177Y-47321636D01*
X87406114Y-47240824D01*
X87406114Y-47186948D01*
X87379177Y-47106136D01*
X77990198Y-46890638D02*
X77532262Y-47348574D01*
X77505325Y-47429385D01*
X77505325Y-47483261D01*
X77532262Y-47564073D01*
X77640012Y-47671822D01*
X77720824Y-47698760D01*
X77774699Y-47698760D01*
X77855511Y-47671822D01*
X78313447Y-47213887D01*
X78852195Y-47752635D02*
X78582820Y-47483260D01*
X78286509Y-47725697D01*
X78340384Y-47725697D01*
X78421196Y-47752635D01*
X78555883Y-47887322D01*
X78582820Y-47968133D01*
X78582821Y-48022009D01*
X78555883Y-48102821D01*
X78421196Y-48237508D01*
X78340385Y-48264445D01*
X78286509Y-48264445D01*
X78205697Y-48237508D01*
X78071010Y-48102821D01*
X78044072Y-48022009D01*
X78044073Y-47968133D01*
X79175444Y-48453006D02*
X78798320Y-48830131D01*
X79256255Y-48102821D02*
X78717508Y-48372195D01*
X79067694Y-48722381D01*
X77370638Y-56629802D02*
X77828574Y-57087738D01*
X77909385Y-57114675D01*
X77963261Y-57114675D01*
X78044073Y-57087738D01*
X78151822Y-56979988D01*
X78178760Y-56899176D01*
X78178760Y-56845301D01*
X78151822Y-56764489D01*
X77693887Y-56306553D01*
X78232635Y-55767805D02*
X77963260Y-56037180D01*
X78205697Y-56333491D01*
X78205697Y-56279616D01*
X78232635Y-56198804D01*
X78367322Y-56064117D01*
X78448133Y-56037180D01*
X78502009Y-56037179D01*
X78582821Y-56064117D01*
X78717508Y-56198804D01*
X78744445Y-56279615D01*
X78744445Y-56333491D01*
X78717508Y-56414303D01*
X78582821Y-56548990D01*
X78502009Y-56575928D01*
X78448133Y-56575927D01*
X78448134Y-55552306D02*
X78798320Y-55202120D01*
X78825258Y-55606181D01*
X78906070Y-55525369D01*
X78986882Y-55498432D01*
X79040757Y-55498431D01*
X79121569Y-55525369D01*
X79256256Y-55660056D01*
X79283193Y-55740867D01*
X79283193Y-55794743D01*
X79256256Y-55875555D01*
X79094631Y-56037180D01*
X79013820Y-56064117D01*
X78959944Y-56064116D01*
X62750198Y-46890638D02*
X62292262Y-47348574D01*
X62265325Y-47429385D01*
X62265325Y-47483261D01*
X62292262Y-47564073D01*
X62400012Y-47671822D01*
X62480824Y-47698760D01*
X62534699Y-47698760D01*
X62615511Y-47671822D01*
X63073447Y-47213887D01*
X63288946Y-47429386D02*
X63639132Y-47779572D01*
X63235071Y-47806509D01*
X63315883Y-47887322D01*
X63342820Y-47968133D01*
X63342821Y-48022009D01*
X63315883Y-48102821D01*
X63181196Y-48237508D01*
X63100385Y-48264445D01*
X63046509Y-48264445D01*
X62965697Y-48237508D01*
X62804072Y-48075883D01*
X62777135Y-47995071D01*
X62777136Y-47941196D01*
X63719944Y-48345258D02*
X63693006Y-48264445D01*
X63693007Y-48210570D01*
X63719944Y-48129758D01*
X63746882Y-48102821D01*
X63827694Y-48075883D01*
X63881568Y-48075883D01*
X63962381Y-48102821D01*
X64070131Y-48210571D01*
X64097068Y-48291382D01*
X64097068Y-48345258D01*
X64070131Y-48426070D01*
X64043193Y-48453007D01*
X63962382Y-48479944D01*
X63908506Y-48479944D01*
X63827694Y-48453007D01*
X63719944Y-48345258D01*
X63639132Y-48318320D01*
X63585258Y-48318320D01*
X63504445Y-48345258D01*
X63396695Y-48453007D01*
X63369758Y-48533819D01*
X63369758Y-48587694D01*
X63396695Y-48668506D01*
X63504445Y-48776256D01*
X63585257Y-48803193D01*
X63639133Y-48803193D01*
X63719944Y-48776256D01*
X63827694Y-48668506D01*
X63854632Y-48587694D01*
X63854631Y-48533819D01*
X63827694Y-48453007D01*
X46890638Y-71869802D02*
X47348574Y-72327738D01*
X47429385Y-72354675D01*
X47483261Y-72354675D01*
X47564073Y-72327738D01*
X47671822Y-72219988D01*
X47698760Y-72139176D01*
X47698760Y-72085301D01*
X47671822Y-72004489D01*
X47213887Y-71546553D01*
X48345258Y-71546553D02*
X48022009Y-71869802D01*
X48183633Y-71708178D02*
X47617947Y-71142493D01*
X47644885Y-71277179D01*
X47644885Y-71384929D01*
X47617947Y-71465741D01*
X48614631Y-71277180D02*
X48722381Y-71169430D01*
X48749319Y-71088618D01*
X48749318Y-71034742D01*
X48722382Y-70900056D01*
X48641569Y-70765369D01*
X48426070Y-70549869D01*
X48345258Y-70522932D01*
X48291382Y-70522932D01*
X48210571Y-70549869D01*
X48102821Y-70657619D01*
X48075883Y-70738432D01*
X48075883Y-70792306D01*
X48102821Y-70873118D01*
X48237508Y-71007805D01*
X48318320Y-71034742D01*
X48372195Y-71034743D01*
X48453007Y-71007805D01*
X48560757Y-70900056D01*
X48587694Y-70819244D01*
X48587694Y-70765368D01*
X48560757Y-70684556D01*
X40608618Y-55229058D02*
X40150682Y-55686994D01*
X40123745Y-55767805D01*
X40123745Y-55821681D01*
X40150682Y-55902493D01*
X40258432Y-56010242D01*
X40339244Y-56037180D01*
X40393119Y-56037180D01*
X40473931Y-56010242D01*
X40931867Y-55552307D01*
X40931867Y-56683678D02*
X40608618Y-56360429D01*
X40770242Y-56522053D02*
X41335927Y-55956367D01*
X41201241Y-55983305D01*
X41093491Y-55983305D01*
X41012679Y-55956367D01*
X41659177Y-56387366D02*
X41713051Y-56387366D01*
X41793864Y-56414304D01*
X41928551Y-56548991D01*
X41955488Y-56629802D01*
X41955488Y-56683678D01*
X41928551Y-56764490D01*
X41874676Y-56818364D01*
X41766926Y-56872240D01*
X41120429Y-56872240D01*
X41470615Y-57222426D01*
X39989058Y-48291382D02*
X40446994Y-48749318D01*
X40527805Y-48776255D01*
X40581681Y-48776255D01*
X40662493Y-48749318D01*
X40770242Y-48641568D01*
X40797180Y-48560756D01*
X40797180Y-48506881D01*
X40770242Y-48426069D01*
X40312307Y-47968133D01*
X41443678Y-47968133D02*
X41120429Y-48291382D01*
X41282053Y-48129758D02*
X40716367Y-47564073D01*
X40743305Y-47698759D01*
X40743305Y-47806509D01*
X40716367Y-47887321D01*
X41982426Y-47429385D02*
X41659177Y-47752634D01*
X41820801Y-47591010D02*
X41255115Y-47025325D01*
X41282053Y-47160011D01*
X41282053Y-47267761D01*
X41255115Y-47348573D01*
X32270198Y-46890638D02*
X31812262Y-47348574D01*
X31785325Y-47429385D01*
X31785325Y-47483261D01*
X31812262Y-47564073D01*
X31920012Y-47671822D01*
X32000824Y-47698760D01*
X32054699Y-47698760D01*
X32135511Y-47671822D01*
X32593447Y-47213887D01*
X32970570Y-47591010D02*
X33024445Y-47644885D01*
X33051382Y-47725697D01*
X33051382Y-47779571D01*
X33024445Y-47860385D01*
X32943633Y-47995071D01*
X32808946Y-48129758D01*
X32674259Y-48210571D01*
X32593447Y-48237507D01*
X32539571Y-48237508D01*
X32458760Y-48210571D01*
X32404885Y-48156695D01*
X32377947Y-48075884D01*
X32377947Y-48022008D01*
X32404885Y-47941196D01*
X32485697Y-47806509D01*
X32620384Y-47671822D01*
X32755071Y-47591010D01*
X32835883Y-47564072D01*
X32889758Y-47564073D01*
X32970570Y-47591010D01*
X33644005Y-48264445D02*
X33536255Y-48156695D01*
X33455444Y-48129758D01*
X33401569Y-48129758D01*
X33266882Y-48156695D01*
X33132195Y-48237508D01*
X32916695Y-48453007D01*
X32889758Y-48533819D01*
X32889758Y-48587694D01*
X32916695Y-48668506D01*
X33024445Y-48776256D01*
X33105257Y-48803193D01*
X33159133Y-48803193D01*
X33239944Y-48776256D01*
X33374631Y-48641569D01*
X33401569Y-48560757D01*
X33401568Y-48506882D01*
X33374631Y-48426070D01*
X33266882Y-48318320D01*
X33186069Y-48291382D01*
X33132195Y-48291382D01*
X33051382Y-48318320D01*
X31650638Y-56629802D02*
X32108574Y-57087738D01*
X32189385Y-57114675D01*
X32243261Y-57114675D01*
X32324073Y-57087738D01*
X32431822Y-56979988D01*
X32458760Y-56899176D01*
X32458760Y-56845301D01*
X32431822Y-56764489D01*
X31973887Y-56306553D01*
X32351010Y-55929430D02*
X32404885Y-55875555D01*
X32485697Y-55848618D01*
X32539571Y-55848618D01*
X32620385Y-55875555D01*
X32755071Y-55956367D01*
X32889758Y-56091054D01*
X32970571Y-56225741D01*
X32997507Y-56306553D01*
X32997508Y-56360429D01*
X32970571Y-56441240D01*
X32916695Y-56495115D01*
X32835884Y-56522053D01*
X32782008Y-56522053D01*
X32701196Y-56495115D01*
X32566509Y-56414303D01*
X32431822Y-56279616D01*
X32351010Y-56144929D01*
X32324072Y-56064117D01*
X32324073Y-56010242D01*
X32351010Y-55929430D01*
X33051383Y-55229057D02*
X32782009Y-55498432D01*
X33024445Y-55794742D01*
X33024445Y-55740868D01*
X33051383Y-55660056D01*
X33186070Y-55525369D01*
X33266882Y-55498432D01*
X33320757Y-55498431D01*
X33401569Y-55525369D01*
X33536256Y-55660056D01*
X33563193Y-55740867D01*
X33563193Y-55794743D01*
X33536256Y-55875555D01*
X33401569Y-56010242D01*
X33320757Y-56037180D01*
X33266882Y-56037179D01*
X86328618Y-70469058D02*
X85870682Y-70926994D01*
X85843745Y-71007805D01*
X85843745Y-71061681D01*
X85870682Y-71142493D01*
X85978432Y-71250242D01*
X86059244Y-71277180D01*
X86113119Y-71277180D01*
X86193931Y-71250242D01*
X86651867Y-70792307D01*
X87163677Y-71304117D02*
X87055927Y-71196367D01*
X86975115Y-71169430D01*
X86921241Y-71169430D01*
X86786553Y-71196367D01*
X86651867Y-71277180D01*
X86436367Y-71492679D01*
X86409430Y-71573491D01*
X86409429Y-71627366D01*
X86436367Y-71708178D01*
X86544117Y-71815928D01*
X86624929Y-71842865D01*
X86678805Y-71842865D01*
X86759616Y-71815928D01*
X86894303Y-71681241D01*
X86921241Y-71600429D01*
X86921240Y-71546553D01*
X86894303Y-71465742D01*
X86786553Y-71357992D01*
X86705741Y-71331054D01*
X86651867Y-71331054D01*
X86571054Y-71357992D01*
X87379177Y-71627366D02*
X87433051Y-71627366D01*
X87513864Y-71654304D01*
X87648551Y-71788991D01*
X87675488Y-71869802D01*
X87675488Y-71923678D01*
X87648551Y-72004490D01*
X87594676Y-72058364D01*
X87486926Y-72112240D01*
X86840429Y-72112240D01*
X87190615Y-72462426D01*
X85709058Y-63531382D02*
X86166994Y-63989318D01*
X86247805Y-64016255D01*
X86301681Y-64016255D01*
X86382493Y-63989318D01*
X86490242Y-63881568D01*
X86517180Y-63800756D01*
X86517180Y-63746881D01*
X86490242Y-63666069D01*
X86032307Y-63208133D01*
X86544117Y-62696323D02*
X86436367Y-62804073D01*
X86409430Y-62884885D01*
X86409430Y-62938759D01*
X86436367Y-63073447D01*
X86517180Y-63208133D01*
X86732679Y-63423633D01*
X86813491Y-63450570D01*
X86867366Y-63450571D01*
X86948178Y-63423633D01*
X87055928Y-63315883D01*
X87082865Y-63235071D01*
X87082865Y-63181195D01*
X87055928Y-63100384D01*
X86921241Y-62965697D01*
X86840429Y-62938759D01*
X86786553Y-62938760D01*
X86705742Y-62965697D01*
X86597992Y-63073447D01*
X86571054Y-63154259D01*
X86571054Y-63208133D01*
X86597992Y-63288946D01*
X87702426Y-62669385D02*
X87379177Y-62992634D01*
X87540801Y-62831010D02*
X86975115Y-62265325D01*
X87002053Y-62400011D01*
X87002053Y-62507761D01*
X86975115Y-62588573D01*
X86328618Y-39989058D02*
X85870682Y-40446994D01*
X85843745Y-40527805D01*
X85843745Y-40581681D01*
X85870682Y-40662493D01*
X85978432Y-40770242D01*
X86059244Y-40797180D01*
X86113119Y-40797180D01*
X86193931Y-40770242D01*
X86651867Y-40312307D01*
X87190615Y-40851055D02*
X86921240Y-40581680D01*
X86624929Y-40824117D01*
X86678804Y-40824117D01*
X86759616Y-40851055D01*
X86894303Y-40985742D01*
X86921240Y-41066553D01*
X86921241Y-41120429D01*
X86894303Y-41201241D01*
X86759616Y-41335928D01*
X86678805Y-41362865D01*
X86624929Y-41362865D01*
X86544117Y-41335928D01*
X86409430Y-41201241D01*
X86382492Y-41120429D01*
X86382493Y-41066553D01*
X87298364Y-41443678D02*
X87271426Y-41362865D01*
X87271427Y-41308990D01*
X87298364Y-41228178D01*
X87325302Y-41201241D01*
X87406114Y-41174303D01*
X87459988Y-41174303D01*
X87540801Y-41201241D01*
X87648551Y-41308991D01*
X87675488Y-41389802D01*
X87675488Y-41443678D01*
X87648551Y-41524490D01*
X87621613Y-41551427D01*
X87540802Y-41578364D01*
X87486926Y-41578364D01*
X87406114Y-41551427D01*
X87298364Y-41443678D01*
X87217552Y-41416740D01*
X87163678Y-41416740D01*
X87082865Y-41443678D01*
X86975115Y-41551427D01*
X86948178Y-41632239D01*
X86948178Y-41686114D01*
X86975115Y-41766926D01*
X87082865Y-41874676D01*
X87163677Y-41901613D01*
X87217553Y-41901613D01*
X87298364Y-41874676D01*
X87406114Y-41766926D01*
X87433052Y-41686114D01*
X87433051Y-41632239D01*
X87406114Y-41551427D01*
X88128408Y-29850848D02*
X87670472Y-30308784D01*
X87643535Y-30389595D01*
X87643535Y-30443471D01*
X87670472Y-30524283D01*
X87778222Y-30632032D01*
X87859034Y-30658970D01*
X87912909Y-30658970D01*
X87993721Y-30632032D01*
X88451657Y-30174097D01*
X88990405Y-30712845D02*
X88721030Y-30443470D01*
X88424719Y-30685907D01*
X88478594Y-30685907D01*
X88559406Y-30712845D01*
X88694093Y-30847532D01*
X88721030Y-30928343D01*
X88721031Y-30982219D01*
X88694093Y-31063031D01*
X88559406Y-31197718D01*
X88478595Y-31224655D01*
X88424719Y-31224655D01*
X88343907Y-31197718D01*
X88209220Y-31063031D01*
X88182282Y-30982219D01*
X88182283Y-30928343D01*
X89205904Y-30928344D02*
X89583027Y-31305468D01*
X88774905Y-31628716D01*
X80889408Y-29469848D02*
X80431472Y-29927784D01*
X80404535Y-30008595D01*
X80404535Y-30062471D01*
X80431472Y-30143283D01*
X80539222Y-30251032D01*
X80620034Y-30277970D01*
X80673909Y-30277970D01*
X80754721Y-30251032D01*
X81212657Y-29793097D01*
X81751405Y-30331845D02*
X81482030Y-30062470D01*
X81185719Y-30304907D01*
X81239594Y-30304907D01*
X81320406Y-30331845D01*
X81455093Y-30466532D01*
X81482030Y-30547343D01*
X81482031Y-30601219D01*
X81455093Y-30682031D01*
X81320406Y-30816718D01*
X81239595Y-30843655D01*
X81185719Y-30843655D01*
X81104907Y-30816718D01*
X80970220Y-30682031D01*
X80943282Y-30601219D01*
X80943283Y-30547343D01*
X82263215Y-30843655D02*
X82155465Y-30735905D01*
X82074654Y-30708968D01*
X82020779Y-30708968D01*
X81886092Y-30735905D01*
X81751405Y-30816718D01*
X81535905Y-31032217D01*
X81508968Y-31113029D01*
X81508968Y-31166904D01*
X81535905Y-31247716D01*
X81643655Y-31355466D01*
X81724467Y-31382403D01*
X81778343Y-31382403D01*
X81859154Y-31355466D01*
X81993841Y-31220779D01*
X82020779Y-31139967D01*
X82020778Y-31086092D01*
X81993841Y-31005280D01*
X81886092Y-30897530D01*
X81805279Y-30870592D01*
X81751405Y-30870592D01*
X81670592Y-30897530D01*
X77370638Y-41389802D02*
X77828574Y-41847738D01*
X77909385Y-41874675D01*
X77963261Y-41874675D01*
X78044073Y-41847738D01*
X78151822Y-41739988D01*
X78178760Y-41659176D01*
X78178760Y-41605301D01*
X78151822Y-41524489D01*
X77693887Y-41066553D01*
X78232635Y-40527805D02*
X77963260Y-40797180D01*
X78205697Y-41093491D01*
X78205697Y-41039616D01*
X78232635Y-40958804D01*
X78367322Y-40824117D01*
X78448133Y-40797180D01*
X78502009Y-40797179D01*
X78582821Y-40824117D01*
X78717508Y-40958804D01*
X78744445Y-41039615D01*
X78744445Y-41093491D01*
X78717508Y-41174303D01*
X78582821Y-41308990D01*
X78502009Y-41335928D01*
X78448133Y-41335927D01*
X78771383Y-39989057D02*
X78502009Y-40258432D01*
X78744445Y-40554742D01*
X78744445Y-40500868D01*
X78771383Y-40420056D01*
X78906070Y-40285369D01*
X78986882Y-40258432D01*
X79040757Y-40258431D01*
X79121569Y-40285369D01*
X79256256Y-40420056D01*
X79283193Y-40500867D01*
X79283193Y-40554743D01*
X79256256Y-40635555D01*
X79121569Y-40770242D01*
X79040757Y-40797180D01*
X78986882Y-40797179D01*
X77990198Y-62130638D02*
X77532262Y-62588574D01*
X77505325Y-62669385D01*
X77505325Y-62723261D01*
X77532262Y-62804073D01*
X77640012Y-62911822D01*
X77720824Y-62938760D01*
X77774699Y-62938760D01*
X77855511Y-62911822D01*
X78313447Y-62453887D01*
X78852195Y-62992635D02*
X78582820Y-62723260D01*
X78286509Y-62965697D01*
X78340384Y-62965697D01*
X78421196Y-62992635D01*
X78555883Y-63127322D01*
X78582820Y-63208133D01*
X78582821Y-63262009D01*
X78555883Y-63342821D01*
X78421196Y-63477508D01*
X78340385Y-63504445D01*
X78286509Y-63504445D01*
X78205697Y-63477508D01*
X78071010Y-63342821D01*
X78044072Y-63262009D01*
X78044073Y-63208133D01*
X79040757Y-63288946D02*
X79094631Y-63288946D01*
X79175444Y-63315884D01*
X79310131Y-63450571D01*
X79337068Y-63531382D01*
X79337068Y-63585258D01*
X79310131Y-63666070D01*
X79256256Y-63719944D01*
X79148506Y-63773820D01*
X78502009Y-63773820D01*
X78852195Y-64124006D01*
X77370638Y-71869802D02*
X77828574Y-72327738D01*
X77909385Y-72354675D01*
X77963261Y-72354675D01*
X78044073Y-72327738D01*
X78151822Y-72219988D01*
X78178760Y-72139176D01*
X78178760Y-72085301D01*
X78151822Y-72004489D01*
X77693887Y-71546553D01*
X78232635Y-71007805D02*
X77963260Y-71277180D01*
X78205697Y-71573491D01*
X78205697Y-71519616D01*
X78232635Y-71438804D01*
X78367322Y-71304117D01*
X78448133Y-71277180D01*
X78502009Y-71277179D01*
X78582821Y-71304117D01*
X78717508Y-71438804D01*
X78744445Y-71519615D01*
X78744445Y-71573491D01*
X78717508Y-71654303D01*
X78582821Y-71788990D01*
X78502009Y-71815928D01*
X78448133Y-71815927D01*
X79364006Y-71007805D02*
X79040757Y-71331054D01*
X79202381Y-71169430D02*
X78636695Y-70603745D01*
X78663633Y-70738431D01*
X78663633Y-70846181D01*
X78636695Y-70926993D01*
X77990198Y-77370638D02*
X77532262Y-77828574D01*
X77505325Y-77909385D01*
X77505325Y-77963261D01*
X77532262Y-78044073D01*
X77640012Y-78151822D01*
X77720824Y-78178760D01*
X77774699Y-78178760D01*
X77855511Y-78151822D01*
X78313447Y-77693887D01*
X78852195Y-78232635D02*
X78582820Y-77963260D01*
X78286509Y-78205697D01*
X78340384Y-78205697D01*
X78421196Y-78232635D01*
X78555883Y-78367322D01*
X78582820Y-78448133D01*
X78582821Y-78502009D01*
X78555883Y-78582821D01*
X78421196Y-78717508D01*
X78340385Y-78744445D01*
X78286509Y-78744445D01*
X78205697Y-78717508D01*
X78071010Y-78582821D01*
X78044072Y-78502009D01*
X78044073Y-78448133D01*
X79229318Y-78609758D02*
X79283193Y-78663633D01*
X79310131Y-78744445D01*
X79310131Y-78798320D01*
X79283193Y-78879133D01*
X79202381Y-79013820D01*
X79067694Y-79148506D01*
X78933007Y-79229319D01*
X78852195Y-79256255D01*
X78798320Y-79256256D01*
X78717508Y-79229319D01*
X78663633Y-79175444D01*
X78636695Y-79094632D01*
X78636695Y-79040756D01*
X78663633Y-78959944D01*
X78744445Y-78825258D01*
X78879132Y-78690571D01*
X79013819Y-78609758D01*
X79094631Y-78582820D01*
X79148506Y-78582821D01*
X79229318Y-78609758D01*
X70469058Y-78771382D02*
X70926994Y-79229318D01*
X71007805Y-79256255D01*
X71061681Y-79256255D01*
X71142493Y-79229318D01*
X71250242Y-79121568D01*
X71277180Y-79040756D01*
X71277180Y-78986881D01*
X71250242Y-78906069D01*
X70792307Y-78448133D01*
X71492678Y-78124885D02*
X71869802Y-78502009D01*
X71142493Y-78044073D02*
X71411867Y-78582820D01*
X71762053Y-78232634D01*
X71546554Y-77693886D02*
X71923678Y-77316763D01*
X72246926Y-78124885D01*
X71088618Y-70469058D02*
X70630682Y-70926994D01*
X70603745Y-71007805D01*
X70603745Y-71061681D01*
X70630682Y-71142493D01*
X70738432Y-71250242D01*
X70819244Y-71277180D01*
X70873119Y-71277180D01*
X70953931Y-71250242D01*
X71411867Y-70792307D01*
X71735115Y-71492678D02*
X71357991Y-71869802D01*
X71815927Y-71142493D02*
X71277180Y-71411867D01*
X71627366Y-71762053D01*
X72462425Y-71842865D02*
X72354675Y-71735115D01*
X72273864Y-71708178D01*
X72219989Y-71708178D01*
X72085302Y-71735115D01*
X71950615Y-71815928D01*
X71735115Y-72031427D01*
X71708178Y-72112239D01*
X71708178Y-72166114D01*
X71735115Y-72246926D01*
X71842865Y-72354676D01*
X71923677Y-72381613D01*
X71977553Y-72381613D01*
X72058364Y-72354676D01*
X72193051Y-72219989D01*
X72219989Y-72139177D01*
X72219988Y-72085302D01*
X72193051Y-72004490D01*
X72085302Y-71896740D01*
X72004489Y-71869802D01*
X71950615Y-71869802D01*
X71869802Y-71896740D01*
X70469058Y-63531382D02*
X70926994Y-63989318D01*
X71007805Y-64016255D01*
X71061681Y-64016255D01*
X71142493Y-63989318D01*
X71250242Y-63881568D01*
X71277180Y-63800756D01*
X71277180Y-63746881D01*
X71250242Y-63666069D01*
X70792307Y-63208133D01*
X71492678Y-62884885D02*
X71869802Y-63262009D01*
X71142493Y-62804073D02*
X71411867Y-63342820D01*
X71762053Y-62992634D01*
X71869803Y-62130637D02*
X71600429Y-62400012D01*
X71842865Y-62696322D01*
X71842865Y-62642448D01*
X71869803Y-62561636D01*
X72004490Y-62426949D01*
X72085302Y-62400012D01*
X72139177Y-62400011D01*
X72219989Y-62426949D01*
X72354676Y-62561636D01*
X72381613Y-62642447D01*
X72381613Y-62696323D01*
X72354676Y-62777135D01*
X72219989Y-62911822D01*
X72139177Y-62938760D01*
X72085302Y-62938759D01*
X71088618Y-55229058D02*
X70630682Y-55686994D01*
X70603745Y-55767805D01*
X70603745Y-55821681D01*
X70630682Y-55902493D01*
X70738432Y-56010242D01*
X70819244Y-56037180D01*
X70873119Y-56037180D01*
X70953931Y-56010242D01*
X71411867Y-55552307D01*
X71735115Y-56252678D02*
X71357991Y-56629802D01*
X71815927Y-55902493D02*
X71277180Y-56171867D01*
X71627366Y-56522053D01*
X72273864Y-56791426D02*
X71896740Y-57168551D01*
X72354675Y-56441241D02*
X71815928Y-56710615D01*
X72166114Y-57060801D01*
X71088618Y-39989058D02*
X70630682Y-40446994D01*
X70603745Y-40527805D01*
X70603745Y-40581681D01*
X70630682Y-40662493D01*
X70738432Y-40770242D01*
X70819244Y-40797180D01*
X70873119Y-40797180D01*
X70953931Y-40770242D01*
X71411867Y-40312307D01*
X71735115Y-41012678D02*
X71357991Y-41389802D01*
X71815927Y-40662493D02*
X71277180Y-40931867D01*
X71627366Y-41282053D01*
X72139177Y-41147366D02*
X72193051Y-41147366D01*
X72273864Y-41174304D01*
X72408551Y-41308991D01*
X72435488Y-41389802D01*
X72435488Y-41443678D01*
X72408551Y-41524490D01*
X72354676Y-41578364D01*
X72246926Y-41632240D01*
X71600429Y-41632240D01*
X71950615Y-41982426D01*
X72888408Y-29850848D02*
X72430472Y-30308784D01*
X72403535Y-30389595D01*
X72403535Y-30443471D01*
X72430472Y-30524283D01*
X72538222Y-30632032D01*
X72619034Y-30658970D01*
X72672909Y-30658970D01*
X72753721Y-30632032D01*
X73211657Y-30174097D01*
X73534905Y-30874468D02*
X73157781Y-31251592D01*
X73615717Y-30524283D02*
X73076970Y-30793657D01*
X73427156Y-31143843D01*
X73750405Y-31844216D02*
X73427156Y-31520967D01*
X73588780Y-31682591D02*
X74154465Y-31116905D01*
X74019779Y-31143843D01*
X73912029Y-31143843D01*
X73831217Y-31116905D01*
X65649408Y-29469848D02*
X65191472Y-29927784D01*
X65164535Y-30008595D01*
X65164535Y-30062471D01*
X65191472Y-30143283D01*
X65299222Y-30251032D01*
X65380034Y-30277970D01*
X65433909Y-30277970D01*
X65514721Y-30251032D01*
X65972657Y-29793097D01*
X66295905Y-30493468D02*
X65918781Y-30870592D01*
X66376717Y-30143283D02*
X65837970Y-30412657D01*
X66188156Y-30762843D01*
X66888528Y-30708968D02*
X66942403Y-30762843D01*
X66969341Y-30843655D01*
X66969341Y-30897530D01*
X66942403Y-30978343D01*
X66861591Y-31113030D01*
X66726904Y-31247716D01*
X66592217Y-31328529D01*
X66511405Y-31355465D01*
X66457530Y-31355466D01*
X66376718Y-31328529D01*
X66322843Y-31274654D01*
X66295905Y-31193842D01*
X66295905Y-31139966D01*
X66322843Y-31059154D01*
X66403655Y-30924468D01*
X66538342Y-30789781D01*
X66673029Y-30708968D01*
X66753841Y-30682030D01*
X66807716Y-30682031D01*
X66888528Y-30708968D01*
X62130638Y-41389802D02*
X62588574Y-41847738D01*
X62669385Y-41874675D01*
X62723261Y-41874675D01*
X62804073Y-41847738D01*
X62911822Y-41739988D01*
X62938760Y-41659176D01*
X62938760Y-41605301D01*
X62911822Y-41524489D01*
X62453887Y-41066553D01*
X62669386Y-40851054D02*
X63019572Y-40500868D01*
X63046509Y-40904929D01*
X63127322Y-40824117D01*
X63208133Y-40797180D01*
X63262009Y-40797179D01*
X63342821Y-40824117D01*
X63477508Y-40958804D01*
X63504445Y-41039615D01*
X63504445Y-41093491D01*
X63477508Y-41174303D01*
X63315883Y-41335928D01*
X63235071Y-41362865D01*
X63181196Y-41362864D01*
X63854631Y-40797180D02*
X63962381Y-40689430D01*
X63989319Y-40608618D01*
X63989318Y-40554742D01*
X63962382Y-40420056D01*
X63881569Y-40285369D01*
X63666070Y-40069869D01*
X63585258Y-40042932D01*
X63531382Y-40042932D01*
X63450571Y-40069869D01*
X63342821Y-40177619D01*
X63315883Y-40258432D01*
X63315883Y-40312306D01*
X63342821Y-40393118D01*
X63477508Y-40527805D01*
X63558320Y-40554742D01*
X63612195Y-40554743D01*
X63693007Y-40527805D01*
X63800757Y-40420056D01*
X63827694Y-40339244D01*
X63827694Y-40285368D01*
X63800757Y-40204556D01*
X62130638Y-56629802D02*
X62588574Y-57087738D01*
X62669385Y-57114675D01*
X62723261Y-57114675D01*
X62804073Y-57087738D01*
X62911822Y-56979988D01*
X62938760Y-56899176D01*
X62938760Y-56845301D01*
X62911822Y-56764489D01*
X62453887Y-56306553D01*
X62669386Y-56091054D02*
X63019572Y-55740868D01*
X63046509Y-56144929D01*
X63127322Y-56064117D01*
X63208133Y-56037180D01*
X63262009Y-56037179D01*
X63342821Y-56064117D01*
X63477508Y-56198804D01*
X63504445Y-56279615D01*
X63504445Y-56333491D01*
X63477508Y-56414303D01*
X63315883Y-56575928D01*
X63235071Y-56602865D01*
X63181196Y-56602864D01*
X63208134Y-55552306D02*
X63585258Y-55175183D01*
X63908506Y-55983305D01*
X62750198Y-62130638D02*
X62292262Y-62588574D01*
X62265325Y-62669385D01*
X62265325Y-62723261D01*
X62292262Y-62804073D01*
X62400012Y-62911822D01*
X62480824Y-62938760D01*
X62534699Y-62938760D01*
X62615511Y-62911822D01*
X63073447Y-62453887D01*
X63288946Y-62669386D02*
X63639132Y-63019572D01*
X63235071Y-63046509D01*
X63315883Y-63127322D01*
X63342820Y-63208133D01*
X63342821Y-63262009D01*
X63315883Y-63342821D01*
X63181196Y-63477508D01*
X63100385Y-63504445D01*
X63046509Y-63504445D01*
X62965697Y-63477508D01*
X62804072Y-63315883D01*
X62777135Y-63235071D01*
X62777136Y-63181196D01*
X64124005Y-63504445D02*
X64016255Y-63396695D01*
X63935444Y-63369758D01*
X63881569Y-63369758D01*
X63746882Y-63396695D01*
X63612195Y-63477508D01*
X63396695Y-63693007D01*
X63369758Y-63773819D01*
X63369758Y-63827694D01*
X63396695Y-63908506D01*
X63504445Y-64016256D01*
X63585257Y-64043193D01*
X63639133Y-64043193D01*
X63719944Y-64016256D01*
X63854631Y-63881569D01*
X63881569Y-63800757D01*
X63881568Y-63746882D01*
X63854631Y-63666070D01*
X63746882Y-63558320D01*
X63666069Y-63531382D01*
X63612195Y-63531382D01*
X63531382Y-63558320D01*
X62130638Y-71869802D02*
X62588574Y-72327738D01*
X62669385Y-72354675D01*
X62723261Y-72354675D01*
X62804073Y-72327738D01*
X62911822Y-72219988D01*
X62938760Y-72139176D01*
X62938760Y-72085301D01*
X62911822Y-72004489D01*
X62453887Y-71546553D01*
X62669386Y-71331054D02*
X63019572Y-70980868D01*
X63046509Y-71384929D01*
X63127322Y-71304117D01*
X63208133Y-71277180D01*
X63262009Y-71277179D01*
X63342821Y-71304117D01*
X63477508Y-71438804D01*
X63504445Y-71519615D01*
X63504445Y-71573491D01*
X63477508Y-71654303D01*
X63315883Y-71815928D01*
X63235071Y-71842865D01*
X63181196Y-71842864D01*
X63531383Y-70469057D02*
X63262009Y-70738432D01*
X63504445Y-71034742D01*
X63504445Y-70980868D01*
X63531383Y-70900056D01*
X63666070Y-70765369D01*
X63746882Y-70738432D01*
X63800757Y-70738431D01*
X63881569Y-70765369D01*
X64016256Y-70900056D01*
X64043193Y-70980867D01*
X64043193Y-71034743D01*
X64016256Y-71115555D01*
X63881569Y-71250242D01*
X63800757Y-71277180D01*
X63746882Y-71277179D01*
X62750198Y-77370638D02*
X62292262Y-77828574D01*
X62265325Y-77909385D01*
X62265325Y-77963261D01*
X62292262Y-78044073D01*
X62400012Y-78151822D01*
X62480824Y-78178760D01*
X62534699Y-78178760D01*
X62615511Y-78151822D01*
X63073447Y-77693887D01*
X63288946Y-77909386D02*
X63639132Y-78259572D01*
X63235071Y-78286509D01*
X63315883Y-78367322D01*
X63342820Y-78448133D01*
X63342821Y-78502009D01*
X63315883Y-78582821D01*
X63181196Y-78717508D01*
X63100385Y-78744445D01*
X63046509Y-78744445D01*
X62965697Y-78717508D01*
X62804072Y-78555883D01*
X62777135Y-78475071D01*
X62777136Y-78421196D01*
X63935444Y-78933006D02*
X63558320Y-79310131D01*
X64016255Y-78582821D02*
X63477508Y-78852195D01*
X63827694Y-79202381D01*
X55229058Y-78771382D02*
X55686994Y-79229318D01*
X55767805Y-79256255D01*
X55821681Y-79256255D01*
X55902493Y-79229318D01*
X56010242Y-79121568D01*
X56037180Y-79040756D01*
X56037180Y-78986881D01*
X56010242Y-78906069D01*
X55552307Y-78448133D01*
X55767806Y-78232634D02*
X56117992Y-77882448D01*
X56144929Y-78286509D01*
X56225742Y-78205697D01*
X56306553Y-78178760D01*
X56360429Y-78178759D01*
X56441241Y-78205697D01*
X56575928Y-78340384D01*
X56602865Y-78421195D01*
X56602865Y-78475071D01*
X56575928Y-78555883D01*
X56414303Y-78717508D01*
X56333491Y-78744445D01*
X56279616Y-78744444D01*
X57222426Y-77909385D02*
X56899177Y-78232634D01*
X57060801Y-78071010D02*
X56495115Y-77505325D01*
X56522053Y-77640011D01*
X56522053Y-77747761D01*
X56495115Y-77828573D01*
X55848618Y-70469058D02*
X55390682Y-70926994D01*
X55363745Y-71007805D01*
X55363745Y-71061681D01*
X55390682Y-71142493D01*
X55498432Y-71250242D01*
X55579244Y-71277180D01*
X55633119Y-71277180D01*
X55713931Y-71250242D01*
X56171867Y-70792307D01*
X56387366Y-71007806D02*
X56737552Y-71357992D01*
X56333491Y-71384929D01*
X56414303Y-71465742D01*
X56441240Y-71546553D01*
X56441241Y-71600429D01*
X56414303Y-71681241D01*
X56279616Y-71815928D01*
X56198805Y-71842865D01*
X56144929Y-71842865D01*
X56064117Y-71815928D01*
X55902492Y-71654303D01*
X55875555Y-71573491D01*
X55875556Y-71519616D01*
X57087738Y-71708178D02*
X57141613Y-71762053D01*
X57168551Y-71842865D01*
X57168551Y-71896740D01*
X57141613Y-71977553D01*
X57060801Y-72112240D01*
X56926114Y-72246926D01*
X56791427Y-72327739D01*
X56710615Y-72354675D01*
X56656740Y-72354676D01*
X56575928Y-72327739D01*
X56522053Y-72273864D01*
X56495115Y-72193052D01*
X56495115Y-72139176D01*
X56522053Y-72058364D01*
X56602865Y-71923678D01*
X56737552Y-71788991D01*
X56872239Y-71708178D01*
X56953051Y-71681240D01*
X57006926Y-71681241D01*
X57087738Y-71708178D01*
X55229058Y-63531382D02*
X55686994Y-63989318D01*
X55767805Y-64016255D01*
X55821681Y-64016255D01*
X55902493Y-63989318D01*
X56010242Y-63881568D01*
X56037180Y-63800756D01*
X56037180Y-63746881D01*
X56010242Y-63666069D01*
X55552307Y-63208133D01*
X55848618Y-63019571D02*
X55848618Y-62965697D01*
X55875556Y-62884885D01*
X56010242Y-62750198D01*
X56091054Y-62723260D01*
X56144929Y-62723260D01*
X56225742Y-62750198D01*
X56279616Y-62804072D01*
X56333491Y-62911822D01*
X56333491Y-63558320D01*
X56683678Y-63208133D01*
X56953051Y-62938760D02*
X57060801Y-62831010D01*
X57087739Y-62750198D01*
X57087738Y-62696322D01*
X57060802Y-62561636D01*
X56979989Y-62426949D01*
X56764490Y-62211449D01*
X56683678Y-62184512D01*
X56629802Y-62184512D01*
X56548991Y-62211449D01*
X56441241Y-62319199D01*
X56414303Y-62400012D01*
X56414303Y-62453886D01*
X56441241Y-62534698D01*
X56575928Y-62669385D01*
X56656740Y-62696322D01*
X56710615Y-62696323D01*
X56791427Y-62669385D01*
X56899177Y-62561636D01*
X56926114Y-62480824D01*
X56926114Y-62426948D01*
X56899177Y-62346136D01*
X55848618Y-55229058D02*
X55390682Y-55686994D01*
X55363745Y-55767805D01*
X55363745Y-55821681D01*
X55390682Y-55902493D01*
X55498432Y-56010242D01*
X55579244Y-56037180D01*
X55633119Y-56037180D01*
X55713931Y-56010242D01*
X56171867Y-55552307D01*
X56360429Y-55848618D02*
X56414303Y-55848618D01*
X56495115Y-55875556D01*
X56629802Y-56010242D01*
X56656740Y-56091054D01*
X56656740Y-56144929D01*
X56629802Y-56225742D01*
X56575928Y-56279616D01*
X56468178Y-56333491D01*
X55821680Y-56333491D01*
X56171867Y-56683678D01*
X56818364Y-56683678D02*
X56791426Y-56602865D01*
X56791427Y-56548990D01*
X56818364Y-56468178D01*
X56845302Y-56441241D01*
X56926114Y-56414303D01*
X56979988Y-56414303D01*
X57060801Y-56441241D01*
X57168551Y-56548991D01*
X57195488Y-56629802D01*
X57195488Y-56683678D01*
X57168551Y-56764490D01*
X57141613Y-56791427D01*
X57060802Y-56818364D01*
X57006926Y-56818364D01*
X56926114Y-56791427D01*
X56818364Y-56683678D01*
X56737552Y-56656740D01*
X56683678Y-56656740D01*
X56602865Y-56683678D01*
X56495115Y-56791427D01*
X56468178Y-56872239D01*
X56468178Y-56926114D01*
X56495115Y-57006926D01*
X56602865Y-57114676D01*
X56683677Y-57141613D01*
X56737553Y-57141613D01*
X56818364Y-57114676D01*
X56926114Y-57006926D01*
X56953052Y-56926114D01*
X56953051Y-56872239D01*
X56926114Y-56791427D01*
X55229058Y-48291382D02*
X55686994Y-48749318D01*
X55767805Y-48776255D01*
X55821681Y-48776255D01*
X55902493Y-48749318D01*
X56010242Y-48641568D01*
X56037180Y-48560756D01*
X56037180Y-48506881D01*
X56010242Y-48426069D01*
X55552307Y-47968133D01*
X55848618Y-47779571D02*
X55848618Y-47725697D01*
X55875556Y-47644885D01*
X56010242Y-47510198D01*
X56091054Y-47483260D01*
X56144929Y-47483260D01*
X56225742Y-47510198D01*
X56279616Y-47564072D01*
X56333491Y-47671822D01*
X56333491Y-48318320D01*
X56683678Y-47968133D01*
X56306554Y-47213886D02*
X56683678Y-46836763D01*
X57006926Y-47644885D01*
X55848618Y-39989058D02*
X55390682Y-40446994D01*
X55363745Y-40527805D01*
X55363745Y-40581681D01*
X55390682Y-40662493D01*
X55498432Y-40770242D01*
X55579244Y-40797180D01*
X55633119Y-40797180D01*
X55713931Y-40770242D01*
X56171867Y-40312307D01*
X56360429Y-40608618D02*
X56414303Y-40608618D01*
X56495115Y-40635556D01*
X56629802Y-40770242D01*
X56656740Y-40851054D01*
X56656740Y-40904929D01*
X56629802Y-40985742D01*
X56575928Y-41039616D01*
X56468178Y-41093491D01*
X55821680Y-41093491D01*
X56171867Y-41443678D01*
X57222425Y-41362865D02*
X57114675Y-41255115D01*
X57033864Y-41228178D01*
X56979989Y-41228178D01*
X56845302Y-41255115D01*
X56710615Y-41335928D01*
X56495115Y-41551427D01*
X56468178Y-41632239D01*
X56468178Y-41686114D01*
X56495115Y-41766926D01*
X56602865Y-41874676D01*
X56683677Y-41901613D01*
X56737553Y-41901613D01*
X56818364Y-41874676D01*
X56953051Y-41739989D01*
X56979989Y-41659177D01*
X56979988Y-41605302D01*
X56953051Y-41524490D01*
X56845302Y-41416740D01*
X56764489Y-41389802D01*
X56710615Y-41389802D01*
X56629802Y-41416740D01*
X57775408Y-29723848D02*
X57317472Y-30181784D01*
X57290535Y-30262595D01*
X57290535Y-30316471D01*
X57317472Y-30397283D01*
X57425222Y-30505032D01*
X57506034Y-30531970D01*
X57559909Y-30531970D01*
X57640721Y-30505032D01*
X58098657Y-30047097D01*
X58287219Y-30343408D02*
X58341093Y-30343408D01*
X58421905Y-30370346D01*
X58556592Y-30505032D01*
X58583530Y-30585844D01*
X58583530Y-30639719D01*
X58556592Y-30720532D01*
X58502718Y-30774406D01*
X58394968Y-30828281D01*
X57748470Y-30828281D01*
X58098657Y-31178468D01*
X59176153Y-31124593D02*
X58906778Y-30855219D01*
X58610468Y-31097655D01*
X58664342Y-31097655D01*
X58745154Y-31124593D01*
X58879841Y-31259280D01*
X58906778Y-31340092D01*
X58906779Y-31393967D01*
X58879841Y-31474779D01*
X58745154Y-31609466D01*
X58664343Y-31636403D01*
X58610467Y-31636403D01*
X58529655Y-31609466D01*
X58394968Y-31474779D01*
X58368030Y-31393967D01*
X58368031Y-31340092D01*
X50409408Y-29469848D02*
X49951472Y-29927784D01*
X49924535Y-30008595D01*
X49924535Y-30062471D01*
X49951472Y-30143283D01*
X50059222Y-30251032D01*
X50140034Y-30277970D01*
X50193909Y-30277970D01*
X50274721Y-30251032D01*
X50732657Y-29793097D01*
X50921219Y-30089408D02*
X50975093Y-30089408D01*
X51055905Y-30116346D01*
X51190592Y-30251032D01*
X51217530Y-30331844D01*
X51217530Y-30385719D01*
X51190592Y-30466532D01*
X51136718Y-30520406D01*
X51028968Y-30574281D01*
X50382470Y-30574281D01*
X50732657Y-30924468D01*
X51594654Y-31032216D02*
X51217530Y-31409341D01*
X51675465Y-30682031D02*
X51136718Y-30951405D01*
X51486904Y-31301591D01*
X47510198Y-46890638D02*
X47052262Y-47348574D01*
X47025325Y-47429385D01*
X47025325Y-47483261D01*
X47052262Y-47564073D01*
X47160012Y-47671822D01*
X47240824Y-47698760D01*
X47294699Y-47698760D01*
X47375511Y-47671822D01*
X47833447Y-47213887D01*
X48022009Y-47510198D02*
X48075883Y-47510198D01*
X48156695Y-47537136D01*
X48291382Y-47671822D01*
X48318320Y-47752634D01*
X48318320Y-47806509D01*
X48291382Y-47887322D01*
X48237508Y-47941196D01*
X48129758Y-47995071D01*
X47483260Y-47995071D01*
X47833447Y-48345258D01*
X48560757Y-48048946D02*
X48614631Y-48048946D01*
X48695444Y-48075884D01*
X48830131Y-48210571D01*
X48857068Y-48291382D01*
X48857068Y-48345258D01*
X48830131Y-48426070D01*
X48776256Y-48479944D01*
X48668506Y-48533820D01*
X48022009Y-48533820D01*
X48372195Y-48884006D01*
X46890638Y-56629802D02*
X47348574Y-57087738D01*
X47429385Y-57114675D01*
X47483261Y-57114675D01*
X47564073Y-57087738D01*
X47671822Y-56979988D01*
X47698760Y-56899176D01*
X47698760Y-56845301D01*
X47671822Y-56764489D01*
X47213887Y-56306553D01*
X47510198Y-56117991D02*
X47510198Y-56064117D01*
X47537136Y-55983305D01*
X47671822Y-55848618D01*
X47752634Y-55821680D01*
X47806509Y-55821680D01*
X47887322Y-55848618D01*
X47941196Y-55902492D01*
X47995071Y-56010242D01*
X47995071Y-56656740D01*
X48345258Y-56306553D01*
X48884006Y-55767805D02*
X48560757Y-56091054D01*
X48722381Y-55929430D02*
X48156695Y-55363745D01*
X48183633Y-55498431D01*
X48183633Y-55606181D01*
X48156695Y-55686993D01*
X47510198Y-62130638D02*
X47052262Y-62588574D01*
X47025325Y-62669385D01*
X47025325Y-62723261D01*
X47052262Y-62804073D01*
X47160012Y-62911822D01*
X47240824Y-62938760D01*
X47294699Y-62938760D01*
X47375511Y-62911822D01*
X47833447Y-62453887D01*
X48022009Y-62750198D02*
X48075883Y-62750198D01*
X48156695Y-62777136D01*
X48291382Y-62911822D01*
X48318320Y-62992634D01*
X48318320Y-63046509D01*
X48291382Y-63127322D01*
X48237508Y-63181196D01*
X48129758Y-63235071D01*
X47483260Y-63235071D01*
X47833447Y-63585258D01*
X48749318Y-63369758D02*
X48803193Y-63423633D01*
X48830131Y-63504445D01*
X48830131Y-63558320D01*
X48803193Y-63639133D01*
X48722381Y-63773820D01*
X48587694Y-63908506D01*
X48453007Y-63989319D01*
X48372195Y-64016255D01*
X48318320Y-64016256D01*
X48237508Y-63989319D01*
X48183633Y-63935444D01*
X48156695Y-63854632D01*
X48156695Y-63800756D01*
X48183633Y-63719944D01*
X48264445Y-63585258D01*
X48399132Y-63450571D01*
X48533819Y-63369758D01*
X48614631Y-63342820D01*
X48668506Y-63342821D01*
X48749318Y-63369758D01*
X47510198Y-77370638D02*
X47052262Y-77828574D01*
X47025325Y-77909385D01*
X47025325Y-77963261D01*
X47052262Y-78044073D01*
X47160012Y-78151822D01*
X47240824Y-78178760D01*
X47294699Y-78178760D01*
X47375511Y-78151822D01*
X47833447Y-77693887D01*
X47833447Y-78825258D02*
X47510198Y-78502009D01*
X47671822Y-78663633D02*
X48237507Y-78097947D01*
X48102821Y-78124885D01*
X47995071Y-78124885D01*
X47914259Y-78097947D01*
X48479944Y-78825258D02*
X48453006Y-78744445D01*
X48453007Y-78690570D01*
X48479944Y-78609758D01*
X48506882Y-78582821D01*
X48587694Y-78555883D01*
X48641568Y-78555883D01*
X48722381Y-78582821D01*
X48830131Y-78690571D01*
X48857068Y-78771382D01*
X48857068Y-78825258D01*
X48830131Y-78906070D01*
X48803193Y-78933007D01*
X48722382Y-78959944D01*
X48668506Y-78959944D01*
X48587694Y-78933007D01*
X48479944Y-78825258D01*
X48399132Y-78798320D01*
X48345258Y-78798320D01*
X48264445Y-78825258D01*
X48156695Y-78933007D01*
X48129758Y-79013819D01*
X48129758Y-79067694D01*
X48156695Y-79148506D01*
X48264445Y-79256256D01*
X48345257Y-79283193D01*
X48399133Y-79283193D01*
X48479944Y-79256256D01*
X48587694Y-79148506D01*
X48614632Y-79067694D01*
X48614631Y-79013819D01*
X48587694Y-78933007D01*
X39989058Y-78771382D02*
X40446994Y-79229318D01*
X40527805Y-79256255D01*
X40581681Y-79256255D01*
X40662493Y-79229318D01*
X40770242Y-79121568D01*
X40797180Y-79040756D01*
X40797180Y-78986881D01*
X40770242Y-78906069D01*
X40312307Y-78448133D01*
X41443678Y-78448133D02*
X41120429Y-78771382D01*
X41282053Y-78609758D02*
X40716367Y-78044073D01*
X40743305Y-78178759D01*
X40743305Y-78286509D01*
X40716367Y-78367321D01*
X41389803Y-77370637D02*
X41120429Y-77640012D01*
X41362865Y-77936322D01*
X41362865Y-77882448D01*
X41389803Y-77801636D01*
X41524490Y-77666949D01*
X41605302Y-77640012D01*
X41659177Y-77640011D01*
X41739989Y-77666949D01*
X41874676Y-77801636D01*
X41901613Y-77882447D01*
X41901613Y-77936323D01*
X41874676Y-78017135D01*
X41739989Y-78151822D01*
X41659177Y-78178760D01*
X41605302Y-78178759D01*
X40608618Y-70469058D02*
X40150682Y-70926994D01*
X40123745Y-71007805D01*
X40123745Y-71061681D01*
X40150682Y-71142493D01*
X40258432Y-71250242D01*
X40339244Y-71277180D01*
X40393119Y-71277180D01*
X40473931Y-71250242D01*
X40931867Y-70792307D01*
X40931867Y-71923678D02*
X40608618Y-71600429D01*
X40770242Y-71762053D02*
X41335927Y-71196367D01*
X41201241Y-71223305D01*
X41093491Y-71223305D01*
X41012679Y-71196367D01*
X41793864Y-72031426D02*
X41416740Y-72408551D01*
X41874675Y-71681241D02*
X41335928Y-71950615D01*
X41686114Y-72300801D01*
X39989058Y-63531382D02*
X40446994Y-63989318D01*
X40527805Y-64016255D01*
X40581681Y-64016255D01*
X40662493Y-63989318D01*
X40770242Y-63881568D01*
X40797180Y-63800756D01*
X40797180Y-63746881D01*
X40770242Y-63666069D01*
X40312307Y-63208133D01*
X41443678Y-63208133D02*
X41120429Y-63531382D01*
X41282053Y-63369758D02*
X40716367Y-62804073D01*
X40743305Y-62938759D01*
X40743305Y-63046509D01*
X40716367Y-63127321D01*
X41066554Y-62453886D02*
X41416740Y-62103700D01*
X41443678Y-62507761D01*
X41524490Y-62426949D01*
X41605302Y-62400012D01*
X41659177Y-62400011D01*
X41739989Y-62426949D01*
X41874676Y-62561636D01*
X41901613Y-62642447D01*
X41901613Y-62696323D01*
X41874676Y-62777135D01*
X41713051Y-62938760D01*
X41632240Y-62965697D01*
X41578364Y-62965696D01*
X40608618Y-39989058D02*
X40150682Y-40446994D01*
X40123745Y-40527805D01*
X40123745Y-40581681D01*
X40150682Y-40662493D01*
X40258432Y-40770242D01*
X40339244Y-40797180D01*
X40393119Y-40797180D01*
X40473931Y-40770242D01*
X40931867Y-40312307D01*
X40931867Y-41443678D02*
X40608618Y-41120429D01*
X40770242Y-41282053D02*
X41335927Y-40716367D01*
X41201241Y-40743305D01*
X41093491Y-40743305D01*
X41012679Y-40716367D01*
X41847738Y-41228178D02*
X41901613Y-41282053D01*
X41928551Y-41362865D01*
X41928551Y-41416740D01*
X41901613Y-41497553D01*
X41820801Y-41632240D01*
X41686114Y-41766926D01*
X41551427Y-41847739D01*
X41470615Y-41874675D01*
X41416740Y-41874676D01*
X41335928Y-41847739D01*
X41282053Y-41793864D01*
X41255115Y-41713052D01*
X41255115Y-41659176D01*
X41282053Y-41578364D01*
X41362865Y-41443678D01*
X41497552Y-41308991D01*
X41632239Y-41228178D01*
X41713051Y-41201240D01*
X41766926Y-41201241D01*
X41847738Y-41228178D01*
X42408408Y-29850848D02*
X41950472Y-30308784D01*
X41923535Y-30389595D01*
X41923535Y-30443471D01*
X41950472Y-30524283D01*
X42058222Y-30632032D01*
X42139034Y-30658970D01*
X42192909Y-30658970D01*
X42273721Y-30632032D01*
X42731657Y-30174097D01*
X43108780Y-30551220D02*
X43162655Y-30605095D01*
X43189592Y-30685907D01*
X43189592Y-30739781D01*
X43162655Y-30820595D01*
X43081843Y-30955281D01*
X42947156Y-31089968D01*
X42812469Y-31170781D01*
X42731657Y-31197717D01*
X42677781Y-31197718D01*
X42596970Y-31170781D01*
X42543095Y-31116905D01*
X42516157Y-31036094D01*
X42516157Y-30982218D01*
X42543095Y-30901406D01*
X42623907Y-30766719D01*
X42758594Y-30632032D01*
X42893281Y-30551220D01*
X42974093Y-30524282D01*
X43027968Y-30524283D01*
X43108780Y-30551220D01*
X43001030Y-31574841D02*
X43108780Y-31682591D01*
X43189592Y-31709529D01*
X43243468Y-31709528D01*
X43378154Y-31682592D01*
X43512841Y-31601779D01*
X43728341Y-31386280D01*
X43755278Y-31305468D01*
X43755278Y-31251592D01*
X43728341Y-31170781D01*
X43620591Y-31063031D01*
X43539778Y-31036093D01*
X43485904Y-31036093D01*
X43405092Y-31063031D01*
X43270405Y-31197718D01*
X43243468Y-31278530D01*
X43243467Y-31332405D01*
X43270405Y-31413217D01*
X43378154Y-31520967D01*
X43458966Y-31547904D01*
X43512842Y-31547904D01*
X43593654Y-31520967D01*
X35169408Y-29469848D02*
X34711472Y-29927784D01*
X34684535Y-30008595D01*
X34684535Y-30062471D01*
X34711472Y-30143283D01*
X34819222Y-30251032D01*
X34900034Y-30277970D01*
X34953909Y-30277970D01*
X35034721Y-30251032D01*
X35492657Y-29793097D01*
X35869780Y-30170220D02*
X35923655Y-30224095D01*
X35950592Y-30304907D01*
X35950592Y-30358781D01*
X35923655Y-30439595D01*
X35842843Y-30574281D01*
X35708156Y-30708968D01*
X35573469Y-30789781D01*
X35492657Y-30816717D01*
X35438781Y-30816718D01*
X35357970Y-30789781D01*
X35304095Y-30735905D01*
X35277157Y-30655094D01*
X35277157Y-30601218D01*
X35304095Y-30520406D01*
X35384907Y-30385719D01*
X35519594Y-30251032D01*
X35654281Y-30170220D01*
X35735093Y-30143282D01*
X35788968Y-30143283D01*
X35869780Y-30170220D01*
X36139154Y-30924468D02*
X36112216Y-30843655D01*
X36112217Y-30789780D01*
X36139154Y-30708968D01*
X36166092Y-30682031D01*
X36246904Y-30655093D01*
X36300778Y-30655093D01*
X36381591Y-30682031D01*
X36489341Y-30789781D01*
X36516278Y-30870592D01*
X36516278Y-30924468D01*
X36489341Y-31005280D01*
X36462403Y-31032217D01*
X36381592Y-31059154D01*
X36327716Y-31059154D01*
X36246904Y-31032217D01*
X36139154Y-30924468D01*
X36058342Y-30897530D01*
X36004468Y-30897530D01*
X35923655Y-30924468D01*
X35815905Y-31032217D01*
X35788968Y-31113029D01*
X35788968Y-31166904D01*
X35815905Y-31247716D01*
X35923655Y-31355466D01*
X36004467Y-31382403D01*
X36058343Y-31382403D01*
X36139154Y-31355466D01*
X36246904Y-31247716D01*
X36273842Y-31166904D01*
X36273841Y-31113029D01*
X36246904Y-31032217D01*
X31650638Y-41389802D02*
X32108574Y-41847738D01*
X32189385Y-41874675D01*
X32243261Y-41874675D01*
X32324073Y-41847738D01*
X32431822Y-41739988D01*
X32458760Y-41659176D01*
X32458760Y-41605301D01*
X32431822Y-41524489D01*
X31973887Y-41066553D01*
X32351010Y-40689430D02*
X32404885Y-40635555D01*
X32485697Y-40608618D01*
X32539571Y-40608618D01*
X32620385Y-40635555D01*
X32755071Y-40716367D01*
X32889758Y-40851054D01*
X32970571Y-40985741D01*
X32997507Y-41066553D01*
X32997508Y-41120429D01*
X32970571Y-41201240D01*
X32916695Y-41255115D01*
X32835884Y-41282053D01*
X32782008Y-41282053D01*
X32701196Y-41255115D01*
X32566509Y-41174303D01*
X32431822Y-41039616D01*
X32351010Y-40904929D01*
X32324072Y-40824117D01*
X32324073Y-40770242D01*
X32351010Y-40689430D01*
X32728134Y-40312306D02*
X33105258Y-39935183D01*
X33428506Y-40743305D01*
X31650638Y-71869802D02*
X32108574Y-72327738D01*
X32189385Y-72354675D01*
X32243261Y-72354675D01*
X32324073Y-72327738D01*
X32431822Y-72219988D01*
X32458760Y-72139176D01*
X32458760Y-72085301D01*
X32431822Y-72004489D01*
X31973887Y-71546553D01*
X32351010Y-71169430D02*
X32404885Y-71115555D01*
X32485697Y-71088618D01*
X32539571Y-71088618D01*
X32620385Y-71115555D01*
X32755071Y-71196367D01*
X32889758Y-71331054D01*
X32970571Y-71465741D01*
X32997507Y-71546553D01*
X32997508Y-71600429D01*
X32970571Y-71681240D01*
X32916695Y-71735115D01*
X32835884Y-71762053D01*
X32782008Y-71762053D01*
X32701196Y-71735115D01*
X32566509Y-71654303D01*
X32431822Y-71519616D01*
X32351010Y-71384929D01*
X32324072Y-71304117D01*
X32324073Y-71250242D01*
X32351010Y-71169430D01*
X32728134Y-70792306D02*
X33078320Y-70442120D01*
X33105258Y-70846181D01*
X33186070Y-70765369D01*
X33266882Y-70738432D01*
X33320757Y-70738431D01*
X33401569Y-70765369D01*
X33536256Y-70900056D01*
X33563193Y-70980867D01*
X33563193Y-71034743D01*
X33536256Y-71115555D01*
X33374631Y-71277180D01*
X33293820Y-71304117D01*
X33239944Y-71304116D01*
X32270198Y-77370638D02*
X31812262Y-77828574D01*
X31785325Y-77909385D01*
X31785325Y-77963261D01*
X31812262Y-78044073D01*
X31920012Y-78151822D01*
X32000824Y-78178760D01*
X32054699Y-78178760D01*
X32135511Y-78151822D01*
X32593447Y-77693887D01*
X32970570Y-78071010D02*
X33024445Y-78124885D01*
X33051382Y-78205697D01*
X33051382Y-78259571D01*
X33024445Y-78340385D01*
X32943633Y-78475071D01*
X32808946Y-78609758D01*
X32674259Y-78690571D01*
X32593447Y-78717507D01*
X32539571Y-78717508D01*
X32458760Y-78690571D01*
X32404885Y-78636695D01*
X32377947Y-78555884D01*
X32377947Y-78502008D01*
X32404885Y-78421196D01*
X32485697Y-78286509D01*
X32620384Y-78151822D01*
X32755071Y-78071010D01*
X32835883Y-78044072D01*
X32889758Y-78044073D01*
X32970570Y-78071010D01*
X33320757Y-78528946D02*
X33374631Y-78528946D01*
X33455444Y-78555884D01*
X33590131Y-78690571D01*
X33617068Y-78771382D01*
X33617068Y-78825258D01*
X33590131Y-78906070D01*
X33536256Y-78959944D01*
X33428506Y-79013820D01*
X32782009Y-79013820D01*
X33132195Y-79364006D01*
X32270198Y-62130638D02*
X31812262Y-62588574D01*
X31785325Y-62669385D01*
X31785325Y-62723261D01*
X31812262Y-62804073D01*
X31920012Y-62911822D01*
X32000824Y-62938760D01*
X32054699Y-62938760D01*
X32135511Y-62911822D01*
X32593447Y-62453887D01*
X32970570Y-62831010D02*
X33024445Y-62884885D01*
X33051382Y-62965697D01*
X33051382Y-63019571D01*
X33024445Y-63100385D01*
X32943633Y-63235071D01*
X32808946Y-63369758D01*
X32674259Y-63450571D01*
X32593447Y-63477507D01*
X32539571Y-63477508D01*
X32458760Y-63450571D01*
X32404885Y-63396695D01*
X32377947Y-63315884D01*
X32377947Y-63262008D01*
X32404885Y-63181196D01*
X32485697Y-63046509D01*
X32620384Y-62911822D01*
X32755071Y-62831010D01*
X32835883Y-62804072D01*
X32889758Y-62804073D01*
X32970570Y-62831010D01*
X33455444Y-63693006D02*
X33078320Y-64070131D01*
X33536255Y-63342821D02*
X32997508Y-63612195D01*
X33347694Y-63962381D01*
X34676848Y-89417592D02*
X35134784Y-89875528D01*
X35215595Y-89902465D01*
X35269471Y-89902465D01*
X35350283Y-89875528D01*
X35458032Y-89767778D01*
X35484970Y-89686966D01*
X35484970Y-89633091D01*
X35458032Y-89552279D01*
X35000097Y-89094343D01*
X35377220Y-88717220D02*
X35431095Y-88663345D01*
X35511907Y-88636408D01*
X35565781Y-88636408D01*
X35646595Y-88663345D01*
X35781281Y-88744157D01*
X35915968Y-88878844D01*
X35996781Y-89013531D01*
X36023717Y-89094343D01*
X36023718Y-89148219D01*
X35996781Y-89229030D01*
X35942905Y-89282905D01*
X35862094Y-89309843D01*
X35808218Y-89309843D01*
X35727406Y-89282905D01*
X35592719Y-89202093D01*
X35458032Y-89067406D01*
X35377220Y-88932719D01*
X35350282Y-88851907D01*
X35350283Y-88798032D01*
X35377220Y-88717220D01*
X36670216Y-88555595D02*
X36346967Y-88878844D01*
X36508591Y-88717220D02*
X35942905Y-88151535D01*
X35969843Y-88286221D01*
X35969843Y-88393971D01*
X35942905Y-88474783D01*
X41915848Y-89036592D02*
X42373784Y-89494528D01*
X42454595Y-89521465D01*
X42508471Y-89521465D01*
X42589283Y-89494528D01*
X42697032Y-89386778D01*
X42723970Y-89305966D01*
X42723970Y-89252091D01*
X42697032Y-89171279D01*
X42239097Y-88713343D01*
X43370468Y-88713343D02*
X43047219Y-89036592D01*
X43208843Y-88874968D02*
X42643157Y-88309283D01*
X42670095Y-88443969D01*
X42670095Y-88551719D01*
X42643157Y-88632531D01*
X43289655Y-87662785D02*
X43181905Y-87770535D01*
X43154968Y-87851346D01*
X43154968Y-87905221D01*
X43181905Y-88039908D01*
X43262718Y-88174595D01*
X43478217Y-88390095D01*
X43559029Y-88417032D01*
X43612904Y-88417032D01*
X43693716Y-88390095D01*
X43801466Y-88282345D01*
X43828403Y-88201533D01*
X43828403Y-88147657D01*
X43801466Y-88066846D01*
X43666779Y-87932159D01*
X43585967Y-87905221D01*
X43532092Y-87905222D01*
X43451280Y-87932159D01*
X43343530Y-88039908D01*
X43316592Y-88120721D01*
X43316592Y-88174595D01*
X43343530Y-88255408D01*
X49916848Y-89417592D02*
X50374784Y-89875528D01*
X50455595Y-89902465D01*
X50509471Y-89902465D01*
X50590283Y-89875528D01*
X50698032Y-89767778D01*
X50724970Y-89686966D01*
X50724970Y-89633091D01*
X50698032Y-89552279D01*
X50240097Y-89094343D01*
X51371468Y-89094343D02*
X51048219Y-89417592D01*
X51209843Y-89255968D02*
X50644157Y-88690283D01*
X50671095Y-88824969D01*
X50671095Y-88932719D01*
X50644157Y-89013531D01*
X50994344Y-88340096D02*
X51371468Y-87962973D01*
X51694716Y-88771095D01*
X57155848Y-89036592D02*
X57613784Y-89494528D01*
X57694595Y-89521465D01*
X57748471Y-89521465D01*
X57829283Y-89494528D01*
X57937032Y-89386778D01*
X57963970Y-89305966D01*
X57963970Y-89252091D01*
X57937032Y-89171279D01*
X57479097Y-88713343D01*
X57694596Y-88497844D02*
X58044782Y-88147658D01*
X58071719Y-88551719D01*
X58152532Y-88470907D01*
X58233343Y-88443970D01*
X58287219Y-88443969D01*
X58368031Y-88470907D01*
X58502718Y-88605594D01*
X58529655Y-88686405D01*
X58529655Y-88740281D01*
X58502718Y-88821093D01*
X58341093Y-88982718D01*
X58260281Y-89009655D01*
X58206406Y-89009654D01*
X58314156Y-87986033D02*
X58314156Y-87932159D01*
X58341094Y-87851346D01*
X58475781Y-87716659D01*
X58556592Y-87689722D01*
X58610468Y-87689722D01*
X58691280Y-87716659D01*
X58745154Y-87770534D01*
X58799030Y-87878284D01*
X58799030Y-88524781D01*
X59149216Y-88174595D01*
X65156848Y-89417592D02*
X65614784Y-89875528D01*
X65695595Y-89902465D01*
X65749471Y-89902465D01*
X65830283Y-89875528D01*
X65938032Y-89767778D01*
X65964970Y-89686966D01*
X65964970Y-89633091D01*
X65938032Y-89552279D01*
X65480097Y-89094343D01*
X65695596Y-88878844D02*
X66045782Y-88528658D01*
X66072719Y-88932719D01*
X66153532Y-88851907D01*
X66234343Y-88824970D01*
X66288219Y-88824969D01*
X66369031Y-88851907D01*
X66503718Y-88986594D01*
X66530655Y-89067405D01*
X66530655Y-89121281D01*
X66503718Y-89202093D01*
X66342093Y-89363718D01*
X66261281Y-89390655D01*
X66207406Y-89390654D01*
X66234344Y-88340096D02*
X66584530Y-87989910D01*
X66611468Y-88393971D01*
X66692280Y-88313159D01*
X66773092Y-88286222D01*
X66826967Y-88286221D01*
X66907779Y-88313159D01*
X67042466Y-88447846D01*
X67069403Y-88528657D01*
X67069403Y-88582533D01*
X67042466Y-88663345D01*
X66880841Y-88824970D01*
X66800030Y-88851907D01*
X66746154Y-88851906D01*
X72395848Y-89036592D02*
X72853784Y-89494528D01*
X72934595Y-89521465D01*
X72988471Y-89521465D01*
X73069283Y-89494528D01*
X73177032Y-89386778D01*
X73203970Y-89305966D01*
X73203970Y-89252091D01*
X73177032Y-89171279D01*
X72719097Y-88713343D01*
X73419468Y-88390095D02*
X73796592Y-88767219D01*
X73069283Y-88309283D02*
X73338657Y-88848030D01*
X73688843Y-88497844D01*
X73850468Y-88066846D02*
X73769655Y-88093784D01*
X73715780Y-88093783D01*
X73634968Y-88066846D01*
X73608031Y-88039908D01*
X73581093Y-87959096D01*
X73581093Y-87905222D01*
X73608031Y-87824409D01*
X73715781Y-87716659D01*
X73796592Y-87689722D01*
X73850468Y-87689722D01*
X73931280Y-87716659D01*
X73958217Y-87743597D01*
X73985154Y-87824408D01*
X73985154Y-87878284D01*
X73958217Y-87959096D01*
X73850468Y-88066846D01*
X73823530Y-88147658D01*
X73823530Y-88201532D01*
X73850468Y-88282345D01*
X73958217Y-88390095D01*
X74039029Y-88417032D01*
X74092904Y-88417032D01*
X74173716Y-88390095D01*
X74281466Y-88282345D01*
X74308403Y-88201533D01*
X74308403Y-88147657D01*
X74281466Y-88066846D01*
X74173716Y-87959096D01*
X74092904Y-87932158D01*
X74039029Y-87932159D01*
X73958217Y-87959096D01*
X80396848Y-89417592D02*
X80854784Y-89875528D01*
X80935595Y-89902465D01*
X80989471Y-89902465D01*
X81070283Y-89875528D01*
X81178032Y-89767778D01*
X81204970Y-89686966D01*
X81204970Y-89633091D01*
X81178032Y-89552279D01*
X80720097Y-89094343D01*
X81420468Y-88771095D02*
X81797592Y-89148219D01*
X81070283Y-88690283D02*
X81339657Y-89229030D01*
X81689843Y-88878844D01*
X82120841Y-88824970D02*
X82228591Y-88717220D01*
X82255529Y-88636408D01*
X82255528Y-88582532D01*
X82228592Y-88447846D01*
X82147779Y-88313159D01*
X81932280Y-88097659D01*
X81851468Y-88070722D01*
X81797592Y-88070722D01*
X81716781Y-88097659D01*
X81609031Y-88205409D01*
X81582093Y-88286222D01*
X81582093Y-88340096D01*
X81609031Y-88420908D01*
X81743718Y-88555595D01*
X81824530Y-88582532D01*
X81878405Y-88582533D01*
X81959217Y-88555595D01*
X82066967Y-88447846D01*
X82093904Y-88367034D01*
X82093904Y-88313158D01*
X82066967Y-88232346D01*
X83302408Y-88016848D02*
X82844472Y-88474784D01*
X82817535Y-88555595D01*
X82817535Y-88609471D01*
X82844472Y-88690283D01*
X82952222Y-88798032D01*
X83033034Y-88824970D01*
X83086909Y-88824970D01*
X83167721Y-88798032D01*
X83625657Y-88340097D01*
X84137467Y-88851907D02*
X84029717Y-88744157D01*
X83948905Y-88717220D01*
X83895031Y-88717220D01*
X83760343Y-88744157D01*
X83625657Y-88824970D01*
X83410157Y-89040469D01*
X83383220Y-89121281D01*
X83383219Y-89175156D01*
X83410157Y-89255968D01*
X83517907Y-89363718D01*
X83598719Y-89390655D01*
X83652595Y-89390655D01*
X83733406Y-89363718D01*
X83868093Y-89229031D01*
X83895031Y-89148219D01*
X83895030Y-89094343D01*
X83868093Y-89013532D01*
X83760343Y-88905782D01*
X83679531Y-88878844D01*
X83625657Y-88878844D01*
X83544844Y-88905782D01*
X84487654Y-89579216D02*
X84110530Y-89956341D01*
X84568465Y-89229031D02*
X84029718Y-89498405D01*
X84379904Y-89848591D01*
X70469058Y-48291382D02*
X70926994Y-48749318D01*
X71007805Y-48776255D01*
X71061681Y-48776255D01*
X71142493Y-48749318D01*
X71250242Y-48641568D01*
X71277180Y-48560756D01*
X71277180Y-48506881D01*
X71250242Y-48426069D01*
X70792307Y-47968133D01*
X71492678Y-47644885D02*
X71869802Y-48022009D01*
X71142493Y-47564073D02*
X71411867Y-48102820D01*
X71762053Y-47752634D01*
X71546554Y-47213886D02*
X71896740Y-46863700D01*
X71923678Y-47267761D01*
X72004490Y-47186949D01*
X72085302Y-47160012D01*
X72139177Y-47160011D01*
X72219989Y-47186949D01*
X72354676Y-47321636D01*
X72381613Y-47402447D01*
X72381613Y-47456323D01*
X72354676Y-47537135D01*
X72193051Y-47698760D01*
X72112240Y-47725697D01*
X72058364Y-47725696D01*
X85709058Y-78771382D02*
X86166994Y-79229318D01*
X86247805Y-79256255D01*
X86301681Y-79256255D01*
X86382493Y-79229318D01*
X86490242Y-79121568D01*
X86517180Y-79040756D01*
X86517180Y-78986881D01*
X86490242Y-78906069D01*
X86032307Y-78448133D01*
X86544117Y-77936323D02*
X86436367Y-78044073D01*
X86409430Y-78124885D01*
X86409430Y-78178759D01*
X86436367Y-78313447D01*
X86517180Y-78448133D01*
X86732679Y-78663633D01*
X86813491Y-78690570D01*
X86867366Y-78690571D01*
X86948178Y-78663633D01*
X87055928Y-78555883D01*
X87082865Y-78475071D01*
X87082865Y-78421195D01*
X87055928Y-78340384D01*
X86921241Y-78205697D01*
X86840429Y-78178759D01*
X86786553Y-78178760D01*
X86705742Y-78205697D01*
X86597992Y-78313447D01*
X86571054Y-78394259D01*
X86571054Y-78448133D01*
X86597992Y-78528946D01*
X86786554Y-77693886D02*
X87136740Y-77343700D01*
X87163678Y-77747761D01*
X87244490Y-77666949D01*
X87325302Y-77640012D01*
X87379177Y-77640011D01*
X87459989Y-77666949D01*
X87594676Y-77801636D01*
X87621613Y-77882447D01*
X87621613Y-77936323D01*
X87594676Y-78017135D01*
X87433051Y-78178760D01*
X87352240Y-78205697D01*
X87298364Y-78205696D01*
%LPC*%
D13*
X82550000Y-82550000D03*
X82550000Y-36830000D03*
X67310000Y-67310000D03*
X52070000Y-67310000D03*
X36830000Y-36830000D03*
X36830000Y-82550000D03*
X52070000Y-52070000D03*
X67310000Y-52070000D03*
D10*
G36*
X52296166Y-41064264D02*
X50947006Y-42413424D01*
X49597846Y-41064264D01*
X50947006Y-39715104D01*
X52296166Y-41064264D01*
X52296166Y-41064264D01*
G37*
G36*
X49184896Y-37952994D02*
X47835736Y-39302154D01*
X46486576Y-37952994D01*
X47835736Y-36603834D01*
X49184896Y-37952994D01*
X49184896Y-37952994D01*
G37*
G36*
X48018169Y-39119720D02*
X46739720Y-40398169D01*
X45390561Y-39049010D01*
X46669010Y-37770561D01*
X48018169Y-39119720D01*
X48018169Y-39119720D01*
G37*
G36*
X51129439Y-42230990D02*
X49850990Y-43509439D01*
X48501831Y-42160280D01*
X49780280Y-40881831D01*
X51129439Y-42230990D01*
X51129439Y-42230990D01*
G37*
G36*
X50033424Y-43327006D02*
X48684264Y-44676166D01*
X47335104Y-43327006D01*
X48684264Y-41977846D01*
X50033424Y-43327006D01*
X50033424Y-43327006D01*
G37*
G36*
X46922154Y-40215736D02*
X45572994Y-41564896D01*
X44223834Y-40215736D01*
X45572994Y-38866576D01*
X46922154Y-40215736D01*
X46922154Y-40215736D01*
G37*
G36*
X86784264Y-51843834D02*
X88133424Y-53192994D01*
X86784264Y-54542154D01*
X85435104Y-53192994D01*
X86784264Y-51843834D01*
X86784264Y-51843834D01*
G37*
G36*
X83672994Y-54955104D02*
X85022154Y-56304264D01*
X83672994Y-57653424D01*
X82323834Y-56304264D01*
X83672994Y-54955104D01*
X83672994Y-54955104D01*
G37*
G36*
X84839720Y-56121831D02*
X86118169Y-57400280D01*
X84769010Y-58749439D01*
X83490561Y-57470990D01*
X84839720Y-56121831D01*
X84839720Y-56121831D01*
G37*
G36*
X87950990Y-53010561D02*
X89229439Y-54289010D01*
X87880280Y-55638169D01*
X86601831Y-54359720D01*
X87950990Y-53010561D01*
X87950990Y-53010561D01*
G37*
G36*
X89047006Y-54106576D02*
X90396166Y-55455736D01*
X89047006Y-56804896D01*
X87697846Y-55455736D01*
X89047006Y-54106576D01*
X89047006Y-54106576D01*
G37*
G36*
X85935736Y-57217846D02*
X87284896Y-58567006D01*
X85935736Y-59916166D01*
X84586576Y-58567006D01*
X85935736Y-57217846D01*
X85935736Y-57217846D01*
G37*
G36*
X82323834Y-47835736D02*
X83672994Y-46486576D01*
X85022154Y-47835736D01*
X83672994Y-49184896D01*
X82323834Y-47835736D01*
X82323834Y-47835736D01*
G37*
G36*
X85435104Y-50947006D02*
X86784264Y-49597846D01*
X88133424Y-50947006D01*
X86784264Y-52296166D01*
X85435104Y-50947006D01*
X85435104Y-50947006D01*
G37*
G36*
X86601831Y-49780280D02*
X87880280Y-48501831D01*
X89229439Y-49850990D01*
X87950990Y-51129439D01*
X86601831Y-49780280D01*
X86601831Y-49780280D01*
G37*
G36*
X83490561Y-46669010D02*
X84769010Y-45390561D01*
X86118169Y-46739720D01*
X84839720Y-48018169D01*
X83490561Y-46669010D01*
X83490561Y-46669010D01*
G37*
G36*
X84586576Y-45572994D02*
X85935736Y-44223834D01*
X87284896Y-45572994D01*
X85935736Y-46922154D01*
X84586576Y-45572994D01*
X84586576Y-45572994D01*
G37*
G36*
X87697846Y-48684264D02*
X89047006Y-47335104D01*
X90396166Y-48684264D01*
X89047006Y-50033424D01*
X87697846Y-48684264D01*
X87697846Y-48684264D01*
G37*
G36*
X78315736Y-52296166D02*
X76966576Y-50947006D01*
X78315736Y-49597846D01*
X79664896Y-50947006D01*
X78315736Y-52296166D01*
X78315736Y-52296166D01*
G37*
G36*
X81427006Y-49184896D02*
X80077846Y-47835736D01*
X81427006Y-46486576D01*
X82776166Y-47835736D01*
X81427006Y-49184896D01*
X81427006Y-49184896D01*
G37*
G36*
X80260280Y-48018169D02*
X78981831Y-46739720D01*
X80330990Y-45390561D01*
X81609439Y-46669010D01*
X80260280Y-48018169D01*
X80260280Y-48018169D01*
G37*
G36*
X77149010Y-51129439D02*
X75870561Y-49850990D01*
X77219720Y-48501831D01*
X78498169Y-49780280D01*
X77149010Y-51129439D01*
X77149010Y-51129439D01*
G37*
G36*
X76052994Y-50033424D02*
X74703834Y-48684264D01*
X76052994Y-47335104D01*
X77402154Y-48684264D01*
X76052994Y-50033424D01*
X76052994Y-50033424D01*
G37*
G36*
X79164264Y-46922154D02*
X77815104Y-45572994D01*
X79164264Y-44223834D01*
X80513424Y-45572994D01*
X79164264Y-46922154D01*
X79164264Y-46922154D01*
G37*
G36*
X82776166Y-56304264D02*
X81427006Y-57653424D01*
X80077846Y-56304264D01*
X81427006Y-54955104D01*
X82776166Y-56304264D01*
X82776166Y-56304264D01*
G37*
G36*
X79664896Y-53192994D02*
X78315736Y-54542154D01*
X76966576Y-53192994D01*
X78315736Y-51843834D01*
X79664896Y-53192994D01*
X79664896Y-53192994D01*
G37*
G36*
X78498169Y-54359720D02*
X77219720Y-55638169D01*
X75870561Y-54289010D01*
X77149010Y-53010561D01*
X78498169Y-54359720D01*
X78498169Y-54359720D01*
G37*
G36*
X81609439Y-57470990D02*
X80330990Y-58749439D01*
X78981831Y-57400280D01*
X80260280Y-56121831D01*
X81609439Y-57470990D01*
X81609439Y-57470990D01*
G37*
G36*
X80513424Y-58567006D02*
X79164264Y-59916166D01*
X77815104Y-58567006D01*
X79164264Y-57217846D01*
X80513424Y-58567006D01*
X80513424Y-58567006D01*
G37*
G36*
X77402154Y-55455736D02*
X76052994Y-56804896D01*
X74703834Y-55455736D01*
X76052994Y-54106576D01*
X77402154Y-55455736D01*
X77402154Y-55455736D01*
G37*
G36*
X63075736Y-52296166D02*
X61726576Y-50947006D01*
X63075736Y-49597846D01*
X64424896Y-50947006D01*
X63075736Y-52296166D01*
X63075736Y-52296166D01*
G37*
G36*
X66187006Y-49184896D02*
X64837846Y-47835736D01*
X66187006Y-46486576D01*
X67536166Y-47835736D01*
X66187006Y-49184896D01*
X66187006Y-49184896D01*
G37*
G36*
X65020280Y-48018169D02*
X63741831Y-46739720D01*
X65090990Y-45390561D01*
X66369439Y-46669010D01*
X65020280Y-48018169D01*
X65020280Y-48018169D01*
G37*
G36*
X61909010Y-51129439D02*
X60630561Y-49850990D01*
X61979720Y-48501831D01*
X63258169Y-49780280D01*
X61909010Y-51129439D01*
X61909010Y-51129439D01*
G37*
G36*
X60812994Y-50033424D02*
X59463834Y-48684264D01*
X60812994Y-47335104D01*
X62162154Y-48684264D01*
X60812994Y-50033424D01*
X60812994Y-50033424D01*
G37*
G36*
X63924264Y-46922154D02*
X62575104Y-45572994D01*
X63924264Y-44223834D01*
X65273424Y-45572994D01*
X63924264Y-46922154D01*
X63924264Y-46922154D01*
G37*
G36*
X52296166Y-71544264D02*
X50947006Y-72893424D01*
X49597846Y-71544264D01*
X50947006Y-70195104D01*
X52296166Y-71544264D01*
X52296166Y-71544264D01*
G37*
G36*
X49184896Y-68432994D02*
X47835736Y-69782154D01*
X46486576Y-68432994D01*
X47835736Y-67083834D01*
X49184896Y-68432994D01*
X49184896Y-68432994D01*
G37*
G36*
X48018169Y-69599720D02*
X46739720Y-70878169D01*
X45390561Y-69529010D01*
X46669010Y-68250561D01*
X48018169Y-69599720D01*
X48018169Y-69599720D01*
G37*
G36*
X51129439Y-72710990D02*
X49850990Y-73989439D01*
X48501831Y-72640280D01*
X49780280Y-71361831D01*
X51129439Y-72710990D01*
X51129439Y-72710990D01*
G37*
G36*
X50033424Y-73807006D02*
X48684264Y-75156166D01*
X47335104Y-73807006D01*
X48684264Y-72457846D01*
X50033424Y-73807006D01*
X50033424Y-73807006D01*
G37*
G36*
X46922154Y-70695736D02*
X45572994Y-72044896D01*
X44223834Y-70695736D01*
X45572994Y-69346576D01*
X46922154Y-70695736D01*
X46922154Y-70695736D01*
G37*
G36*
X41064264Y-51843834D02*
X42413424Y-53192994D01*
X41064264Y-54542154D01*
X39715104Y-53192994D01*
X41064264Y-51843834D01*
X41064264Y-51843834D01*
G37*
G36*
X37952994Y-54955104D02*
X39302154Y-56304264D01*
X37952994Y-57653424D01*
X36603834Y-56304264D01*
X37952994Y-54955104D01*
X37952994Y-54955104D01*
G37*
G36*
X39119720Y-56121831D02*
X40398169Y-57400280D01*
X39049010Y-58749439D01*
X37770561Y-57470990D01*
X39119720Y-56121831D01*
X39119720Y-56121831D01*
G37*
G36*
X42230990Y-53010561D02*
X43509439Y-54289010D01*
X42160280Y-55638169D01*
X40881831Y-54359720D01*
X42230990Y-53010561D01*
X42230990Y-53010561D01*
G37*
G36*
X43327006Y-54106576D02*
X44676166Y-55455736D01*
X43327006Y-56804896D01*
X41977846Y-55455736D01*
X43327006Y-54106576D01*
X43327006Y-54106576D01*
G37*
G36*
X40215736Y-57217846D02*
X41564896Y-58567006D01*
X40215736Y-59916166D01*
X38866576Y-58567006D01*
X40215736Y-57217846D01*
X40215736Y-57217846D01*
G37*
G36*
X36603834Y-47835736D02*
X37952994Y-46486576D01*
X39302154Y-47835736D01*
X37952994Y-49184896D01*
X36603834Y-47835736D01*
X36603834Y-47835736D01*
G37*
G36*
X39715104Y-50947006D02*
X41064264Y-49597846D01*
X42413424Y-50947006D01*
X41064264Y-52296166D01*
X39715104Y-50947006D01*
X39715104Y-50947006D01*
G37*
G36*
X40881831Y-49780280D02*
X42160280Y-48501831D01*
X43509439Y-49850990D01*
X42230990Y-51129439D01*
X40881831Y-49780280D01*
X40881831Y-49780280D01*
G37*
G36*
X37770561Y-46669010D02*
X39049010Y-45390561D01*
X40398169Y-46739720D01*
X39119720Y-48018169D01*
X37770561Y-46669010D01*
X37770561Y-46669010D01*
G37*
G36*
X38866576Y-45572994D02*
X40215736Y-44223834D01*
X41564896Y-45572994D01*
X40215736Y-46922154D01*
X38866576Y-45572994D01*
X38866576Y-45572994D01*
G37*
G36*
X41977846Y-48684264D02*
X43327006Y-47335104D01*
X44676166Y-48684264D01*
X43327006Y-50033424D01*
X41977846Y-48684264D01*
X41977846Y-48684264D01*
G37*
G36*
X32595736Y-52296166D02*
X31246576Y-50947006D01*
X32595736Y-49597846D01*
X33944896Y-50947006D01*
X32595736Y-52296166D01*
X32595736Y-52296166D01*
G37*
G36*
X35707006Y-49184896D02*
X34357846Y-47835736D01*
X35707006Y-46486576D01*
X37056166Y-47835736D01*
X35707006Y-49184896D01*
X35707006Y-49184896D01*
G37*
G36*
X34540280Y-48018169D02*
X33261831Y-46739720D01*
X34610990Y-45390561D01*
X35889439Y-46669010D01*
X34540280Y-48018169D01*
X34540280Y-48018169D01*
G37*
G36*
X31429010Y-51129439D02*
X30150561Y-49850990D01*
X31499720Y-48501831D01*
X32778169Y-49780280D01*
X31429010Y-51129439D01*
X31429010Y-51129439D01*
G37*
G36*
X30332994Y-50033424D02*
X28983834Y-48684264D01*
X30332994Y-47335104D01*
X31682154Y-48684264D01*
X30332994Y-50033424D01*
X30332994Y-50033424D01*
G37*
G36*
X33444264Y-46922154D02*
X32095104Y-45572994D01*
X33444264Y-44223834D01*
X34793424Y-45572994D01*
X33444264Y-46922154D01*
X33444264Y-46922154D01*
G37*
G36*
X37056166Y-56304264D02*
X35707006Y-57653424D01*
X34357846Y-56304264D01*
X35707006Y-54955104D01*
X37056166Y-56304264D01*
X37056166Y-56304264D01*
G37*
G36*
X33944896Y-53192994D02*
X32595736Y-54542154D01*
X31246576Y-53192994D01*
X32595736Y-51843834D01*
X33944896Y-53192994D01*
X33944896Y-53192994D01*
G37*
G36*
X32778169Y-54359720D02*
X31499720Y-55638169D01*
X30150561Y-54289010D01*
X31429010Y-53010561D01*
X32778169Y-54359720D01*
X32778169Y-54359720D01*
G37*
G36*
X35889439Y-57470990D02*
X34610990Y-58749439D01*
X33261831Y-57400280D01*
X34540280Y-56121831D01*
X35889439Y-57470990D01*
X35889439Y-57470990D01*
G37*
G36*
X34793424Y-58567006D02*
X33444264Y-59916166D01*
X32095104Y-58567006D01*
X33444264Y-57217846D01*
X34793424Y-58567006D01*
X34793424Y-58567006D01*
G37*
G36*
X31682154Y-55455736D02*
X30332994Y-56804896D01*
X28983834Y-55455736D01*
X30332994Y-54106576D01*
X31682154Y-55455736D01*
X31682154Y-55455736D01*
G37*
G36*
X86784264Y-67083834D02*
X88133424Y-68432994D01*
X86784264Y-69782154D01*
X85435104Y-68432994D01*
X86784264Y-67083834D01*
X86784264Y-67083834D01*
G37*
G36*
X83672994Y-70195104D02*
X85022154Y-71544264D01*
X83672994Y-72893424D01*
X82323834Y-71544264D01*
X83672994Y-70195104D01*
X83672994Y-70195104D01*
G37*
G36*
X84839720Y-71361831D02*
X86118169Y-72640280D01*
X84769010Y-73989439D01*
X83490561Y-72710990D01*
X84839720Y-71361831D01*
X84839720Y-71361831D01*
G37*
G36*
X87950990Y-68250561D02*
X89229439Y-69529010D01*
X87880280Y-70878169D01*
X86601831Y-69599720D01*
X87950990Y-68250561D01*
X87950990Y-68250561D01*
G37*
G36*
X89047006Y-69346576D02*
X90396166Y-70695736D01*
X89047006Y-72044896D01*
X87697846Y-70695736D01*
X89047006Y-69346576D01*
X89047006Y-69346576D01*
G37*
G36*
X85935736Y-72457846D02*
X87284896Y-73807006D01*
X85935736Y-75156166D01*
X84586576Y-73807006D01*
X85935736Y-72457846D01*
X85935736Y-72457846D01*
G37*
G36*
X82323834Y-63075736D02*
X83672994Y-61726576D01*
X85022154Y-63075736D01*
X83672994Y-64424896D01*
X82323834Y-63075736D01*
X82323834Y-63075736D01*
G37*
G36*
X85435104Y-66187006D02*
X86784264Y-64837846D01*
X88133424Y-66187006D01*
X86784264Y-67536166D01*
X85435104Y-66187006D01*
X85435104Y-66187006D01*
G37*
G36*
X86601831Y-65020280D02*
X87880280Y-63741831D01*
X89229439Y-65090990D01*
X87950990Y-66369439D01*
X86601831Y-65020280D01*
X86601831Y-65020280D01*
G37*
G36*
X83490561Y-61909010D02*
X84769010Y-60630561D01*
X86118169Y-61979720D01*
X84839720Y-63258169D01*
X83490561Y-61909010D01*
X83490561Y-61909010D01*
G37*
G36*
X84586576Y-60812994D02*
X85935736Y-59463834D01*
X87284896Y-60812994D01*
X85935736Y-62162154D01*
X84586576Y-60812994D01*
X84586576Y-60812994D01*
G37*
G36*
X87697846Y-63924264D02*
X89047006Y-62575104D01*
X90396166Y-63924264D01*
X89047006Y-65273424D01*
X87697846Y-63924264D01*
X87697846Y-63924264D01*
G37*
G36*
X86784264Y-36603834D02*
X88133424Y-37952994D01*
X86784264Y-39302154D01*
X85435104Y-37952994D01*
X86784264Y-36603834D01*
X86784264Y-36603834D01*
G37*
G36*
X83672994Y-39715104D02*
X85022154Y-41064264D01*
X83672994Y-42413424D01*
X82323834Y-41064264D01*
X83672994Y-39715104D01*
X83672994Y-39715104D01*
G37*
G36*
X84839720Y-40881831D02*
X86118169Y-42160280D01*
X84769010Y-43509439D01*
X83490561Y-42230990D01*
X84839720Y-40881831D01*
X84839720Y-40881831D01*
G37*
G36*
X87950990Y-37770561D02*
X89229439Y-39049010D01*
X87880280Y-40398169D01*
X86601831Y-39119720D01*
X87950990Y-37770561D01*
X87950990Y-37770561D01*
G37*
G36*
X89047006Y-38866576D02*
X90396166Y-40215736D01*
X89047006Y-41564896D01*
X87697846Y-40215736D01*
X89047006Y-38866576D01*
X89047006Y-38866576D01*
G37*
G36*
X85935736Y-41977846D02*
X87284896Y-43327006D01*
X85935736Y-44676166D01*
X84586576Y-43327006D01*
X85935736Y-41977846D01*
X85935736Y-41977846D01*
G37*
G36*
X82323834Y-32595736D02*
X83672994Y-31246576D01*
X85022154Y-32595736D01*
X83672994Y-33944896D01*
X82323834Y-32595736D01*
X82323834Y-32595736D01*
G37*
G36*
X85435104Y-35707006D02*
X86784264Y-34357846D01*
X88133424Y-35707006D01*
X86784264Y-37056166D01*
X85435104Y-35707006D01*
X85435104Y-35707006D01*
G37*
G36*
X86601831Y-34540280D02*
X87880280Y-33261831D01*
X89229439Y-34610990D01*
X87950990Y-35889439D01*
X86601831Y-34540280D01*
X86601831Y-34540280D01*
G37*
G36*
X83490561Y-31429010D02*
X84769010Y-30150561D01*
X86118169Y-31499720D01*
X84839720Y-32778169D01*
X83490561Y-31429010D01*
X83490561Y-31429010D01*
G37*
G36*
X84586576Y-30332994D02*
X85935736Y-28983834D01*
X87284896Y-30332994D01*
X85935736Y-31682154D01*
X84586576Y-30332994D01*
X84586576Y-30332994D01*
G37*
G36*
X87697846Y-33444264D02*
X89047006Y-32095104D01*
X90396166Y-33444264D01*
X89047006Y-34793424D01*
X87697846Y-33444264D01*
X87697846Y-33444264D01*
G37*
G36*
X78315736Y-37056166D02*
X76966576Y-35707006D01*
X78315736Y-34357846D01*
X79664896Y-35707006D01*
X78315736Y-37056166D01*
X78315736Y-37056166D01*
G37*
G36*
X81427006Y-33944896D02*
X80077846Y-32595736D01*
X81427006Y-31246576D01*
X82776166Y-32595736D01*
X81427006Y-33944896D01*
X81427006Y-33944896D01*
G37*
G36*
X80260280Y-32778169D02*
X78981831Y-31499720D01*
X80330990Y-30150561D01*
X81609439Y-31429010D01*
X80260280Y-32778169D01*
X80260280Y-32778169D01*
G37*
G36*
X77149010Y-35889439D02*
X75870561Y-34610990D01*
X77219720Y-33261831D01*
X78498169Y-34540280D01*
X77149010Y-35889439D01*
X77149010Y-35889439D01*
G37*
G36*
X76052994Y-34793424D02*
X74703834Y-33444264D01*
X76052994Y-32095104D01*
X77402154Y-33444264D01*
X76052994Y-34793424D01*
X76052994Y-34793424D01*
G37*
G36*
X79164264Y-31682154D02*
X77815104Y-30332994D01*
X79164264Y-28983834D01*
X80513424Y-30332994D01*
X79164264Y-31682154D01*
X79164264Y-31682154D01*
G37*
G36*
X82776166Y-41064264D02*
X81427006Y-42413424D01*
X80077846Y-41064264D01*
X81427006Y-39715104D01*
X82776166Y-41064264D01*
X82776166Y-41064264D01*
G37*
G36*
X79664896Y-37952994D02*
X78315736Y-39302154D01*
X76966576Y-37952994D01*
X78315736Y-36603834D01*
X79664896Y-37952994D01*
X79664896Y-37952994D01*
G37*
G36*
X78498169Y-39119720D02*
X77219720Y-40398169D01*
X75870561Y-39049010D01*
X77149010Y-37770561D01*
X78498169Y-39119720D01*
X78498169Y-39119720D01*
G37*
G36*
X81609439Y-42230990D02*
X80330990Y-43509439D01*
X78981831Y-42160280D01*
X80260280Y-40881831D01*
X81609439Y-42230990D01*
X81609439Y-42230990D01*
G37*
G36*
X80513424Y-43327006D02*
X79164264Y-44676166D01*
X77815104Y-43327006D01*
X79164264Y-41977846D01*
X80513424Y-43327006D01*
X80513424Y-43327006D01*
G37*
G36*
X77402154Y-40215736D02*
X76052994Y-41564896D01*
X74703834Y-40215736D01*
X76052994Y-38866576D01*
X77402154Y-40215736D01*
X77402154Y-40215736D01*
G37*
G36*
X78315736Y-67536166D02*
X76966576Y-66187006D01*
X78315736Y-64837846D01*
X79664896Y-66187006D01*
X78315736Y-67536166D01*
X78315736Y-67536166D01*
G37*
G36*
X81427006Y-64424896D02*
X80077846Y-63075736D01*
X81427006Y-61726576D01*
X82776166Y-63075736D01*
X81427006Y-64424896D01*
X81427006Y-64424896D01*
G37*
G36*
X80260280Y-63258169D02*
X78981831Y-61979720D01*
X80330990Y-60630561D01*
X81609439Y-61909010D01*
X80260280Y-63258169D01*
X80260280Y-63258169D01*
G37*
G36*
X77149010Y-66369439D02*
X75870561Y-65090990D01*
X77219720Y-63741831D01*
X78498169Y-65020280D01*
X77149010Y-66369439D01*
X77149010Y-66369439D01*
G37*
G36*
X76052994Y-65273424D02*
X74703834Y-63924264D01*
X76052994Y-62575104D01*
X77402154Y-63924264D01*
X76052994Y-65273424D01*
X76052994Y-65273424D01*
G37*
G36*
X79164264Y-62162154D02*
X77815104Y-60812994D01*
X79164264Y-59463834D01*
X80513424Y-60812994D01*
X79164264Y-62162154D01*
X79164264Y-62162154D01*
G37*
G36*
X82776166Y-71544264D02*
X81427006Y-72893424D01*
X80077846Y-71544264D01*
X81427006Y-70195104D01*
X82776166Y-71544264D01*
X82776166Y-71544264D01*
G37*
G36*
X79664896Y-68432994D02*
X78315736Y-69782154D01*
X76966576Y-68432994D01*
X78315736Y-67083834D01*
X79664896Y-68432994D01*
X79664896Y-68432994D01*
G37*
G36*
X78498169Y-69599720D02*
X77219720Y-70878169D01*
X75870561Y-69529010D01*
X77149010Y-68250561D01*
X78498169Y-69599720D01*
X78498169Y-69599720D01*
G37*
G36*
X81609439Y-72710990D02*
X80330990Y-73989439D01*
X78981831Y-72640280D01*
X80260280Y-71361831D01*
X81609439Y-72710990D01*
X81609439Y-72710990D01*
G37*
G36*
X80513424Y-73807006D02*
X79164264Y-75156166D01*
X77815104Y-73807006D01*
X79164264Y-72457846D01*
X80513424Y-73807006D01*
X80513424Y-73807006D01*
G37*
G36*
X77402154Y-70695736D02*
X76052994Y-72044896D01*
X74703834Y-70695736D01*
X76052994Y-69346576D01*
X77402154Y-70695736D01*
X77402154Y-70695736D01*
G37*
G36*
X78315736Y-82776166D02*
X76966576Y-81427006D01*
X78315736Y-80077846D01*
X79664896Y-81427006D01*
X78315736Y-82776166D01*
X78315736Y-82776166D01*
G37*
G36*
X81427006Y-79664896D02*
X80077846Y-78315736D01*
X81427006Y-76966576D01*
X82776166Y-78315736D01*
X81427006Y-79664896D01*
X81427006Y-79664896D01*
G37*
G36*
X80260280Y-78498169D02*
X78981831Y-77219720D01*
X80330990Y-75870561D01*
X81609439Y-77149010D01*
X80260280Y-78498169D01*
X80260280Y-78498169D01*
G37*
G36*
X77149010Y-81609439D02*
X75870561Y-80330990D01*
X77219720Y-78981831D01*
X78498169Y-80260280D01*
X77149010Y-81609439D01*
X77149010Y-81609439D01*
G37*
G36*
X76052994Y-80513424D02*
X74703834Y-79164264D01*
X76052994Y-77815104D01*
X77402154Y-79164264D01*
X76052994Y-80513424D01*
X76052994Y-80513424D01*
G37*
G36*
X79164264Y-77402154D02*
X77815104Y-76052994D01*
X79164264Y-74703834D01*
X80513424Y-76052994D01*
X79164264Y-77402154D01*
X79164264Y-77402154D01*
G37*
G36*
X67083834Y-78315736D02*
X68432994Y-76966576D01*
X69782154Y-78315736D01*
X68432994Y-79664896D01*
X67083834Y-78315736D01*
X67083834Y-78315736D01*
G37*
G36*
X70195104Y-81427006D02*
X71544264Y-80077846D01*
X72893424Y-81427006D01*
X71544264Y-82776166D01*
X70195104Y-81427006D01*
X70195104Y-81427006D01*
G37*
G36*
X71361831Y-80260280D02*
X72640280Y-78981831D01*
X73989439Y-80330990D01*
X72710990Y-81609439D01*
X71361831Y-80260280D01*
X71361831Y-80260280D01*
G37*
G36*
X68250561Y-77149010D02*
X69529010Y-75870561D01*
X70878169Y-77219720D01*
X69599720Y-78498169D01*
X68250561Y-77149010D01*
X68250561Y-77149010D01*
G37*
G36*
X69346576Y-76052994D02*
X70695736Y-74703834D01*
X72044896Y-76052994D01*
X70695736Y-77402154D01*
X69346576Y-76052994D01*
X69346576Y-76052994D01*
G37*
G36*
X72457846Y-79164264D02*
X73807006Y-77815104D01*
X75156166Y-79164264D01*
X73807006Y-80513424D01*
X72457846Y-79164264D01*
X72457846Y-79164264D01*
G37*
G36*
X71544264Y-67083834D02*
X72893424Y-68432994D01*
X71544264Y-69782154D01*
X70195104Y-68432994D01*
X71544264Y-67083834D01*
X71544264Y-67083834D01*
G37*
G36*
X68432994Y-70195104D02*
X69782154Y-71544264D01*
X68432994Y-72893424D01*
X67083834Y-71544264D01*
X68432994Y-70195104D01*
X68432994Y-70195104D01*
G37*
G36*
X69599720Y-71361831D02*
X70878169Y-72640280D01*
X69529010Y-73989439D01*
X68250561Y-72710990D01*
X69599720Y-71361831D01*
X69599720Y-71361831D01*
G37*
G36*
X72710990Y-68250561D02*
X73989439Y-69529010D01*
X72640280Y-70878169D01*
X71361831Y-69599720D01*
X72710990Y-68250561D01*
X72710990Y-68250561D01*
G37*
G36*
X73807006Y-69346576D02*
X75156166Y-70695736D01*
X73807006Y-72044896D01*
X72457846Y-70695736D01*
X73807006Y-69346576D01*
X73807006Y-69346576D01*
G37*
G36*
X70695736Y-72457846D02*
X72044896Y-73807006D01*
X70695736Y-75156166D01*
X69346576Y-73807006D01*
X70695736Y-72457846D01*
X70695736Y-72457846D01*
G37*
G36*
X67083834Y-63075736D02*
X68432994Y-61726576D01*
X69782154Y-63075736D01*
X68432994Y-64424896D01*
X67083834Y-63075736D01*
X67083834Y-63075736D01*
G37*
G36*
X70195104Y-66187006D02*
X71544264Y-64837846D01*
X72893424Y-66187006D01*
X71544264Y-67536166D01*
X70195104Y-66187006D01*
X70195104Y-66187006D01*
G37*
G36*
X71361831Y-65020280D02*
X72640280Y-63741831D01*
X73989439Y-65090990D01*
X72710990Y-66369439D01*
X71361831Y-65020280D01*
X71361831Y-65020280D01*
G37*
G36*
X68250561Y-61909010D02*
X69529010Y-60630561D01*
X70878169Y-61979720D01*
X69599720Y-63258169D01*
X68250561Y-61909010D01*
X68250561Y-61909010D01*
G37*
G36*
X69346576Y-60812994D02*
X70695736Y-59463834D01*
X72044896Y-60812994D01*
X70695736Y-62162154D01*
X69346576Y-60812994D01*
X69346576Y-60812994D01*
G37*
G36*
X72457846Y-63924264D02*
X73807006Y-62575104D01*
X75156166Y-63924264D01*
X73807006Y-65273424D01*
X72457846Y-63924264D01*
X72457846Y-63924264D01*
G37*
G36*
X71544264Y-51843834D02*
X72893424Y-53192994D01*
X71544264Y-54542154D01*
X70195104Y-53192994D01*
X71544264Y-51843834D01*
X71544264Y-51843834D01*
G37*
G36*
X68432994Y-54955104D02*
X69782154Y-56304264D01*
X68432994Y-57653424D01*
X67083834Y-56304264D01*
X68432994Y-54955104D01*
X68432994Y-54955104D01*
G37*
G36*
X69599720Y-56121831D02*
X70878169Y-57400280D01*
X69529010Y-58749439D01*
X68250561Y-57470990D01*
X69599720Y-56121831D01*
X69599720Y-56121831D01*
G37*
G36*
X72710990Y-53010561D02*
X73989439Y-54289010D01*
X72640280Y-55638169D01*
X71361831Y-54359720D01*
X72710990Y-53010561D01*
X72710990Y-53010561D01*
G37*
G36*
X73807006Y-54106576D02*
X75156166Y-55455736D01*
X73807006Y-56804896D01*
X72457846Y-55455736D01*
X73807006Y-54106576D01*
X73807006Y-54106576D01*
G37*
G36*
X70695736Y-57217846D02*
X72044896Y-58567006D01*
X70695736Y-59916166D01*
X69346576Y-58567006D01*
X70695736Y-57217846D01*
X70695736Y-57217846D01*
G37*
G36*
X71544264Y-36603834D02*
X72893424Y-37952994D01*
X71544264Y-39302154D01*
X70195104Y-37952994D01*
X71544264Y-36603834D01*
X71544264Y-36603834D01*
G37*
G36*
X68432994Y-39715104D02*
X69782154Y-41064264D01*
X68432994Y-42413424D01*
X67083834Y-41064264D01*
X68432994Y-39715104D01*
X68432994Y-39715104D01*
G37*
G36*
X69599720Y-40881831D02*
X70878169Y-42160280D01*
X69529010Y-43509439D01*
X68250561Y-42230990D01*
X69599720Y-40881831D01*
X69599720Y-40881831D01*
G37*
G36*
X72710990Y-37770561D02*
X73989439Y-39049010D01*
X72640280Y-40398169D01*
X71361831Y-39119720D01*
X72710990Y-37770561D01*
X72710990Y-37770561D01*
G37*
G36*
X73807006Y-38866576D02*
X75156166Y-40215736D01*
X73807006Y-41564896D01*
X72457846Y-40215736D01*
X73807006Y-38866576D01*
X73807006Y-38866576D01*
G37*
G36*
X70695736Y-41977846D02*
X72044896Y-43327006D01*
X70695736Y-44676166D01*
X69346576Y-43327006D01*
X70695736Y-41977846D01*
X70695736Y-41977846D01*
G37*
G36*
X67083834Y-32595736D02*
X68432994Y-31246576D01*
X69782154Y-32595736D01*
X68432994Y-33944896D01*
X67083834Y-32595736D01*
X67083834Y-32595736D01*
G37*
G36*
X70195104Y-35707006D02*
X71544264Y-34357846D01*
X72893424Y-35707006D01*
X71544264Y-37056166D01*
X70195104Y-35707006D01*
X70195104Y-35707006D01*
G37*
G36*
X71361831Y-34540280D02*
X72640280Y-33261831D01*
X73989439Y-34610990D01*
X72710990Y-35889439D01*
X71361831Y-34540280D01*
X71361831Y-34540280D01*
G37*
G36*
X68250561Y-31429010D02*
X69529010Y-30150561D01*
X70878169Y-31499720D01*
X69599720Y-32778169D01*
X68250561Y-31429010D01*
X68250561Y-31429010D01*
G37*
G36*
X69346576Y-30332994D02*
X70695736Y-28983834D01*
X72044896Y-30332994D01*
X70695736Y-31682154D01*
X69346576Y-30332994D01*
X69346576Y-30332994D01*
G37*
G36*
X72457846Y-33444264D02*
X73807006Y-32095104D01*
X75156166Y-33444264D01*
X73807006Y-34793424D01*
X72457846Y-33444264D01*
X72457846Y-33444264D01*
G37*
G36*
X63075736Y-37056166D02*
X61726576Y-35707006D01*
X63075736Y-34357846D01*
X64424896Y-35707006D01*
X63075736Y-37056166D01*
X63075736Y-37056166D01*
G37*
G36*
X66187006Y-33944896D02*
X64837846Y-32595736D01*
X66187006Y-31246576D01*
X67536166Y-32595736D01*
X66187006Y-33944896D01*
X66187006Y-33944896D01*
G37*
G36*
X65020280Y-32778169D02*
X63741831Y-31499720D01*
X65090990Y-30150561D01*
X66369439Y-31429010D01*
X65020280Y-32778169D01*
X65020280Y-32778169D01*
G37*
G36*
X61909010Y-35889439D02*
X60630561Y-34610990D01*
X61979720Y-33261831D01*
X63258169Y-34540280D01*
X61909010Y-35889439D01*
X61909010Y-35889439D01*
G37*
G36*
X60812994Y-34793424D02*
X59463834Y-33444264D01*
X60812994Y-32095104D01*
X62162154Y-33444264D01*
X60812994Y-34793424D01*
X60812994Y-34793424D01*
G37*
G36*
X63924264Y-31682154D02*
X62575104Y-30332994D01*
X63924264Y-28983834D01*
X65273424Y-30332994D01*
X63924264Y-31682154D01*
X63924264Y-31682154D01*
G37*
G36*
X67536166Y-41064264D02*
X66187006Y-42413424D01*
X64837846Y-41064264D01*
X66187006Y-39715104D01*
X67536166Y-41064264D01*
X67536166Y-41064264D01*
G37*
G36*
X64424896Y-37952994D02*
X63075736Y-39302154D01*
X61726576Y-37952994D01*
X63075736Y-36603834D01*
X64424896Y-37952994D01*
X64424896Y-37952994D01*
G37*
G36*
X63258169Y-39119720D02*
X61979720Y-40398169D01*
X60630561Y-39049010D01*
X61909010Y-37770561D01*
X63258169Y-39119720D01*
X63258169Y-39119720D01*
G37*
G36*
X66369439Y-42230990D02*
X65090990Y-43509439D01*
X63741831Y-42160280D01*
X65020280Y-40881831D01*
X66369439Y-42230990D01*
X66369439Y-42230990D01*
G37*
G36*
X65273424Y-43327006D02*
X63924264Y-44676166D01*
X62575104Y-43327006D01*
X63924264Y-41977846D01*
X65273424Y-43327006D01*
X65273424Y-43327006D01*
G37*
G36*
X62162154Y-40215736D02*
X60812994Y-41564896D01*
X59463834Y-40215736D01*
X60812994Y-38866576D01*
X62162154Y-40215736D01*
X62162154Y-40215736D01*
G37*
G36*
X67536166Y-56304264D02*
X66187006Y-57653424D01*
X64837846Y-56304264D01*
X66187006Y-54955104D01*
X67536166Y-56304264D01*
X67536166Y-56304264D01*
G37*
G36*
X64424896Y-53192994D02*
X63075736Y-54542154D01*
X61726576Y-53192994D01*
X63075736Y-51843834D01*
X64424896Y-53192994D01*
X64424896Y-53192994D01*
G37*
G36*
X63258169Y-54359720D02*
X61979720Y-55638169D01*
X60630561Y-54289010D01*
X61909010Y-53010561D01*
X63258169Y-54359720D01*
X63258169Y-54359720D01*
G37*
G36*
X66369439Y-57470990D02*
X65090990Y-58749439D01*
X63741831Y-57400280D01*
X65020280Y-56121831D01*
X66369439Y-57470990D01*
X66369439Y-57470990D01*
G37*
G36*
X65273424Y-58567006D02*
X63924264Y-59916166D01*
X62575104Y-58567006D01*
X63924264Y-57217846D01*
X65273424Y-58567006D01*
X65273424Y-58567006D01*
G37*
G36*
X62162154Y-55455736D02*
X60812994Y-56804896D01*
X59463834Y-55455736D01*
X60812994Y-54106576D01*
X62162154Y-55455736D01*
X62162154Y-55455736D01*
G37*
G36*
X63075736Y-67536166D02*
X61726576Y-66187006D01*
X63075736Y-64837846D01*
X64424896Y-66187006D01*
X63075736Y-67536166D01*
X63075736Y-67536166D01*
G37*
G36*
X66187006Y-64424896D02*
X64837846Y-63075736D01*
X66187006Y-61726576D01*
X67536166Y-63075736D01*
X66187006Y-64424896D01*
X66187006Y-64424896D01*
G37*
G36*
X65020280Y-63258169D02*
X63741831Y-61979720D01*
X65090990Y-60630561D01*
X66369439Y-61909010D01*
X65020280Y-63258169D01*
X65020280Y-63258169D01*
G37*
G36*
X61909010Y-66369439D02*
X60630561Y-65090990D01*
X61979720Y-63741831D01*
X63258169Y-65020280D01*
X61909010Y-66369439D01*
X61909010Y-66369439D01*
G37*
G36*
X60812994Y-65273424D02*
X59463834Y-63924264D01*
X60812994Y-62575104D01*
X62162154Y-63924264D01*
X60812994Y-65273424D01*
X60812994Y-65273424D01*
G37*
G36*
X63924264Y-62162154D02*
X62575104Y-60812994D01*
X63924264Y-59463834D01*
X65273424Y-60812994D01*
X63924264Y-62162154D01*
X63924264Y-62162154D01*
G37*
G36*
X67536166Y-71544264D02*
X66187006Y-72893424D01*
X64837846Y-71544264D01*
X66187006Y-70195104D01*
X67536166Y-71544264D01*
X67536166Y-71544264D01*
G37*
G36*
X64424896Y-68432994D02*
X63075736Y-69782154D01*
X61726576Y-68432994D01*
X63075736Y-67083834D01*
X64424896Y-68432994D01*
X64424896Y-68432994D01*
G37*
G36*
X63258169Y-69599720D02*
X61979720Y-70878169D01*
X60630561Y-69529010D01*
X61909010Y-68250561D01*
X63258169Y-69599720D01*
X63258169Y-69599720D01*
G37*
G36*
X66369439Y-72710990D02*
X65090990Y-73989439D01*
X63741831Y-72640280D01*
X65020280Y-71361831D01*
X66369439Y-72710990D01*
X66369439Y-72710990D01*
G37*
G36*
X65273424Y-73807006D02*
X63924264Y-75156166D01*
X62575104Y-73807006D01*
X63924264Y-72457846D01*
X65273424Y-73807006D01*
X65273424Y-73807006D01*
G37*
G36*
X62162154Y-70695736D02*
X60812994Y-72044896D01*
X59463834Y-70695736D01*
X60812994Y-69346576D01*
X62162154Y-70695736D01*
X62162154Y-70695736D01*
G37*
G36*
X63075736Y-82776166D02*
X61726576Y-81427006D01*
X63075736Y-80077846D01*
X64424896Y-81427006D01*
X63075736Y-82776166D01*
X63075736Y-82776166D01*
G37*
G36*
X66187006Y-79664896D02*
X64837846Y-78315736D01*
X66187006Y-76966576D01*
X67536166Y-78315736D01*
X66187006Y-79664896D01*
X66187006Y-79664896D01*
G37*
G36*
X65020280Y-78498169D02*
X63741831Y-77219720D01*
X65090990Y-75870561D01*
X66369439Y-77149010D01*
X65020280Y-78498169D01*
X65020280Y-78498169D01*
G37*
G36*
X61909010Y-81609439D02*
X60630561Y-80330990D01*
X61979720Y-78981831D01*
X63258169Y-80260280D01*
X61909010Y-81609439D01*
X61909010Y-81609439D01*
G37*
G36*
X60812994Y-80513424D02*
X59463834Y-79164264D01*
X60812994Y-77815104D01*
X62162154Y-79164264D01*
X60812994Y-80513424D01*
X60812994Y-80513424D01*
G37*
G36*
X63924264Y-77402154D02*
X62575104Y-76052994D01*
X63924264Y-74703834D01*
X65273424Y-76052994D01*
X63924264Y-77402154D01*
X63924264Y-77402154D01*
G37*
G36*
X51843834Y-78315736D02*
X53192994Y-76966576D01*
X54542154Y-78315736D01*
X53192994Y-79664896D01*
X51843834Y-78315736D01*
X51843834Y-78315736D01*
G37*
G36*
X54955104Y-81427006D02*
X56304264Y-80077846D01*
X57653424Y-81427006D01*
X56304264Y-82776166D01*
X54955104Y-81427006D01*
X54955104Y-81427006D01*
G37*
G36*
X56121831Y-80260280D02*
X57400280Y-78981831D01*
X58749439Y-80330990D01*
X57470990Y-81609439D01*
X56121831Y-80260280D01*
X56121831Y-80260280D01*
G37*
G36*
X53010561Y-77149010D02*
X54289010Y-75870561D01*
X55638169Y-77219720D01*
X54359720Y-78498169D01*
X53010561Y-77149010D01*
X53010561Y-77149010D01*
G37*
G36*
X54106576Y-76052994D02*
X55455736Y-74703834D01*
X56804896Y-76052994D01*
X55455736Y-77402154D01*
X54106576Y-76052994D01*
X54106576Y-76052994D01*
G37*
G36*
X57217846Y-79164264D02*
X58567006Y-77815104D01*
X59916166Y-79164264D01*
X58567006Y-80513424D01*
X57217846Y-79164264D01*
X57217846Y-79164264D01*
G37*
G36*
X56304264Y-67083834D02*
X57653424Y-68432994D01*
X56304264Y-69782154D01*
X54955104Y-68432994D01*
X56304264Y-67083834D01*
X56304264Y-67083834D01*
G37*
G36*
X53192994Y-70195104D02*
X54542154Y-71544264D01*
X53192994Y-72893424D01*
X51843834Y-71544264D01*
X53192994Y-70195104D01*
X53192994Y-70195104D01*
G37*
G36*
X54359720Y-71361831D02*
X55638169Y-72640280D01*
X54289010Y-73989439D01*
X53010561Y-72710990D01*
X54359720Y-71361831D01*
X54359720Y-71361831D01*
G37*
G36*
X57470990Y-68250561D02*
X58749439Y-69529010D01*
X57400280Y-70878169D01*
X56121831Y-69599720D01*
X57470990Y-68250561D01*
X57470990Y-68250561D01*
G37*
G36*
X58567006Y-69346576D02*
X59916166Y-70695736D01*
X58567006Y-72044896D01*
X57217846Y-70695736D01*
X58567006Y-69346576D01*
X58567006Y-69346576D01*
G37*
G36*
X55455736Y-72457846D02*
X56804896Y-73807006D01*
X55455736Y-75156166D01*
X54106576Y-73807006D01*
X55455736Y-72457846D01*
X55455736Y-72457846D01*
G37*
G36*
X51843834Y-63075736D02*
X53192994Y-61726576D01*
X54542154Y-63075736D01*
X53192994Y-64424896D01*
X51843834Y-63075736D01*
X51843834Y-63075736D01*
G37*
G36*
X54955104Y-66187006D02*
X56304264Y-64837846D01*
X57653424Y-66187006D01*
X56304264Y-67536166D01*
X54955104Y-66187006D01*
X54955104Y-66187006D01*
G37*
G36*
X56121831Y-65020280D02*
X57400280Y-63741831D01*
X58749439Y-65090990D01*
X57470990Y-66369439D01*
X56121831Y-65020280D01*
X56121831Y-65020280D01*
G37*
G36*
X53010561Y-61909010D02*
X54289010Y-60630561D01*
X55638169Y-61979720D01*
X54359720Y-63258169D01*
X53010561Y-61909010D01*
X53010561Y-61909010D01*
G37*
G36*
X54106576Y-60812994D02*
X55455736Y-59463834D01*
X56804896Y-60812994D01*
X55455736Y-62162154D01*
X54106576Y-60812994D01*
X54106576Y-60812994D01*
G37*
G36*
X57217846Y-63924264D02*
X58567006Y-62575104D01*
X59916166Y-63924264D01*
X58567006Y-65273424D01*
X57217846Y-63924264D01*
X57217846Y-63924264D01*
G37*
G36*
X56304264Y-51843834D02*
X57653424Y-53192994D01*
X56304264Y-54542154D01*
X54955104Y-53192994D01*
X56304264Y-51843834D01*
X56304264Y-51843834D01*
G37*
G36*
X53192994Y-54955104D02*
X54542154Y-56304264D01*
X53192994Y-57653424D01*
X51843834Y-56304264D01*
X53192994Y-54955104D01*
X53192994Y-54955104D01*
G37*
G36*
X54359720Y-56121831D02*
X55638169Y-57400280D01*
X54289010Y-58749439D01*
X53010561Y-57470990D01*
X54359720Y-56121831D01*
X54359720Y-56121831D01*
G37*
G36*
X57470990Y-53010561D02*
X58749439Y-54289010D01*
X57400280Y-55638169D01*
X56121831Y-54359720D01*
X57470990Y-53010561D01*
X57470990Y-53010561D01*
G37*
G36*
X58567006Y-54106576D02*
X59916166Y-55455736D01*
X58567006Y-56804896D01*
X57217846Y-55455736D01*
X58567006Y-54106576D01*
X58567006Y-54106576D01*
G37*
G36*
X55455736Y-57217846D02*
X56804896Y-58567006D01*
X55455736Y-59916166D01*
X54106576Y-58567006D01*
X55455736Y-57217846D01*
X55455736Y-57217846D01*
G37*
G36*
X51843834Y-47835736D02*
X53192994Y-46486576D01*
X54542154Y-47835736D01*
X53192994Y-49184896D01*
X51843834Y-47835736D01*
X51843834Y-47835736D01*
G37*
G36*
X54955104Y-50947006D02*
X56304264Y-49597846D01*
X57653424Y-50947006D01*
X56304264Y-52296166D01*
X54955104Y-50947006D01*
X54955104Y-50947006D01*
G37*
G36*
X56121831Y-49780280D02*
X57400280Y-48501831D01*
X58749439Y-49850990D01*
X57470990Y-51129439D01*
X56121831Y-49780280D01*
X56121831Y-49780280D01*
G37*
G36*
X53010561Y-46669010D02*
X54289010Y-45390561D01*
X55638169Y-46739720D01*
X54359720Y-48018169D01*
X53010561Y-46669010D01*
X53010561Y-46669010D01*
G37*
G36*
X54106576Y-45572994D02*
X55455736Y-44223834D01*
X56804896Y-45572994D01*
X55455736Y-46922154D01*
X54106576Y-45572994D01*
X54106576Y-45572994D01*
G37*
G36*
X57217846Y-48684264D02*
X58567006Y-47335104D01*
X59916166Y-48684264D01*
X58567006Y-50033424D01*
X57217846Y-48684264D01*
X57217846Y-48684264D01*
G37*
G36*
X56304264Y-36603834D02*
X57653424Y-37952994D01*
X56304264Y-39302154D01*
X54955104Y-37952994D01*
X56304264Y-36603834D01*
X56304264Y-36603834D01*
G37*
G36*
X53192994Y-39715104D02*
X54542154Y-41064264D01*
X53192994Y-42413424D01*
X51843834Y-41064264D01*
X53192994Y-39715104D01*
X53192994Y-39715104D01*
G37*
G36*
X54359720Y-40881831D02*
X55638169Y-42160280D01*
X54289010Y-43509439D01*
X53010561Y-42230990D01*
X54359720Y-40881831D01*
X54359720Y-40881831D01*
G37*
G36*
X57470990Y-37770561D02*
X58749439Y-39049010D01*
X57400280Y-40398169D01*
X56121831Y-39119720D01*
X57470990Y-37770561D01*
X57470990Y-37770561D01*
G37*
G36*
X58567006Y-38866576D02*
X59916166Y-40215736D01*
X58567006Y-41564896D01*
X57217846Y-40215736D01*
X58567006Y-38866576D01*
X58567006Y-38866576D01*
G37*
G36*
X55455736Y-41977846D02*
X56804896Y-43327006D01*
X55455736Y-44676166D01*
X54106576Y-43327006D01*
X55455736Y-41977846D01*
X55455736Y-41977846D01*
G37*
G36*
X51843834Y-32595736D02*
X53192994Y-31246576D01*
X54542154Y-32595736D01*
X53192994Y-33944896D01*
X51843834Y-32595736D01*
X51843834Y-32595736D01*
G37*
G36*
X54955104Y-35707006D02*
X56304264Y-34357846D01*
X57653424Y-35707006D01*
X56304264Y-37056166D01*
X54955104Y-35707006D01*
X54955104Y-35707006D01*
G37*
G36*
X56121831Y-34540280D02*
X57400280Y-33261831D01*
X58749439Y-34610990D01*
X57470990Y-35889439D01*
X56121831Y-34540280D01*
X56121831Y-34540280D01*
G37*
G36*
X53010561Y-31429010D02*
X54289010Y-30150561D01*
X55638169Y-31499720D01*
X54359720Y-32778169D01*
X53010561Y-31429010D01*
X53010561Y-31429010D01*
G37*
G36*
X54106576Y-30332994D02*
X55455736Y-28983834D01*
X56804896Y-30332994D01*
X55455736Y-31682154D01*
X54106576Y-30332994D01*
X54106576Y-30332994D01*
G37*
G36*
X57217846Y-33444264D02*
X58567006Y-32095104D01*
X59916166Y-33444264D01*
X58567006Y-34793424D01*
X57217846Y-33444264D01*
X57217846Y-33444264D01*
G37*
G36*
X47835736Y-37056166D02*
X46486576Y-35707006D01*
X47835736Y-34357846D01*
X49184896Y-35707006D01*
X47835736Y-37056166D01*
X47835736Y-37056166D01*
G37*
G36*
X50947006Y-33944896D02*
X49597846Y-32595736D01*
X50947006Y-31246576D01*
X52296166Y-32595736D01*
X50947006Y-33944896D01*
X50947006Y-33944896D01*
G37*
G36*
X49780280Y-32778169D02*
X48501831Y-31499720D01*
X49850990Y-30150561D01*
X51129439Y-31429010D01*
X49780280Y-32778169D01*
X49780280Y-32778169D01*
G37*
G36*
X46669010Y-35889439D02*
X45390561Y-34610990D01*
X46739720Y-33261831D01*
X48018169Y-34540280D01*
X46669010Y-35889439D01*
X46669010Y-35889439D01*
G37*
G36*
X45572994Y-34793424D02*
X44223834Y-33444264D01*
X45572994Y-32095104D01*
X46922154Y-33444264D01*
X45572994Y-34793424D01*
X45572994Y-34793424D01*
G37*
G36*
X48684264Y-31682154D02*
X47335104Y-30332994D01*
X48684264Y-28983834D01*
X50033424Y-30332994D01*
X48684264Y-31682154D01*
X48684264Y-31682154D01*
G37*
G36*
X47835736Y-52296166D02*
X46486576Y-50947006D01*
X47835736Y-49597846D01*
X49184896Y-50947006D01*
X47835736Y-52296166D01*
X47835736Y-52296166D01*
G37*
G36*
X50947006Y-49184896D02*
X49597846Y-47835736D01*
X50947006Y-46486576D01*
X52296166Y-47835736D01*
X50947006Y-49184896D01*
X50947006Y-49184896D01*
G37*
G36*
X49780280Y-48018169D02*
X48501831Y-46739720D01*
X49850990Y-45390561D01*
X51129439Y-46669010D01*
X49780280Y-48018169D01*
X49780280Y-48018169D01*
G37*
G36*
X46669010Y-51129439D02*
X45390561Y-49850990D01*
X46739720Y-48501831D01*
X48018169Y-49780280D01*
X46669010Y-51129439D01*
X46669010Y-51129439D01*
G37*
G36*
X45572994Y-50033424D02*
X44223834Y-48684264D01*
X45572994Y-47335104D01*
X46922154Y-48684264D01*
X45572994Y-50033424D01*
X45572994Y-50033424D01*
G37*
G36*
X48684264Y-46922154D02*
X47335104Y-45572994D01*
X48684264Y-44223834D01*
X50033424Y-45572994D01*
X48684264Y-46922154D01*
X48684264Y-46922154D01*
G37*
G36*
X52296166Y-56304264D02*
X50947006Y-57653424D01*
X49597846Y-56304264D01*
X50947006Y-54955104D01*
X52296166Y-56304264D01*
X52296166Y-56304264D01*
G37*
G36*
X49184896Y-53192994D02*
X47835736Y-54542154D01*
X46486576Y-53192994D01*
X47835736Y-51843834D01*
X49184896Y-53192994D01*
X49184896Y-53192994D01*
G37*
G36*
X48018169Y-54359720D02*
X46739720Y-55638169D01*
X45390561Y-54289010D01*
X46669010Y-53010561D01*
X48018169Y-54359720D01*
X48018169Y-54359720D01*
G37*
G36*
X51129439Y-57470990D02*
X49850990Y-58749439D01*
X48501831Y-57400280D01*
X49780280Y-56121831D01*
X51129439Y-57470990D01*
X51129439Y-57470990D01*
G37*
G36*
X50033424Y-58567006D02*
X48684264Y-59916166D01*
X47335104Y-58567006D01*
X48684264Y-57217846D01*
X50033424Y-58567006D01*
X50033424Y-58567006D01*
G37*
G36*
X46922154Y-55455736D02*
X45572994Y-56804896D01*
X44223834Y-55455736D01*
X45572994Y-54106576D01*
X46922154Y-55455736D01*
X46922154Y-55455736D01*
G37*
G36*
X47835736Y-67536166D02*
X46486576Y-66187006D01*
X47835736Y-64837846D01*
X49184896Y-66187006D01*
X47835736Y-67536166D01*
X47835736Y-67536166D01*
G37*
G36*
X50947006Y-64424896D02*
X49597846Y-63075736D01*
X50947006Y-61726576D01*
X52296166Y-63075736D01*
X50947006Y-64424896D01*
X50947006Y-64424896D01*
G37*
G36*
X49780280Y-63258169D02*
X48501831Y-61979720D01*
X49850990Y-60630561D01*
X51129439Y-61909010D01*
X49780280Y-63258169D01*
X49780280Y-63258169D01*
G37*
G36*
X46669010Y-66369439D02*
X45390561Y-65090990D01*
X46739720Y-63741831D01*
X48018169Y-65020280D01*
X46669010Y-66369439D01*
X46669010Y-66369439D01*
G37*
G36*
X45572994Y-65273424D02*
X44223834Y-63924264D01*
X45572994Y-62575104D01*
X46922154Y-63924264D01*
X45572994Y-65273424D01*
X45572994Y-65273424D01*
G37*
G36*
X48684264Y-62162154D02*
X47335104Y-60812994D01*
X48684264Y-59463834D01*
X50033424Y-60812994D01*
X48684264Y-62162154D01*
X48684264Y-62162154D01*
G37*
G36*
X47835736Y-82776166D02*
X46486576Y-81427006D01*
X47835736Y-80077846D01*
X49184896Y-81427006D01*
X47835736Y-82776166D01*
X47835736Y-82776166D01*
G37*
G36*
X50947006Y-79664896D02*
X49597846Y-78315736D01*
X50947006Y-76966576D01*
X52296166Y-78315736D01*
X50947006Y-79664896D01*
X50947006Y-79664896D01*
G37*
G36*
X49780280Y-78498169D02*
X48501831Y-77219720D01*
X49850990Y-75870561D01*
X51129439Y-77149010D01*
X49780280Y-78498169D01*
X49780280Y-78498169D01*
G37*
G36*
X46669010Y-81609439D02*
X45390561Y-80330990D01*
X46739720Y-78981831D01*
X48018169Y-80260280D01*
X46669010Y-81609439D01*
X46669010Y-81609439D01*
G37*
G36*
X45572994Y-80513424D02*
X44223834Y-79164264D01*
X45572994Y-77815104D01*
X46922154Y-79164264D01*
X45572994Y-80513424D01*
X45572994Y-80513424D01*
G37*
G36*
X48684264Y-77402154D02*
X47335104Y-76052994D01*
X48684264Y-74703834D01*
X50033424Y-76052994D01*
X48684264Y-77402154D01*
X48684264Y-77402154D01*
G37*
G36*
X36603834Y-78315736D02*
X37952994Y-76966576D01*
X39302154Y-78315736D01*
X37952994Y-79664896D01*
X36603834Y-78315736D01*
X36603834Y-78315736D01*
G37*
G36*
X39715104Y-81427006D02*
X41064264Y-80077846D01*
X42413424Y-81427006D01*
X41064264Y-82776166D01*
X39715104Y-81427006D01*
X39715104Y-81427006D01*
G37*
G36*
X40881831Y-80260280D02*
X42160280Y-78981831D01*
X43509439Y-80330990D01*
X42230990Y-81609439D01*
X40881831Y-80260280D01*
X40881831Y-80260280D01*
G37*
G36*
X37770561Y-77149010D02*
X39049010Y-75870561D01*
X40398169Y-77219720D01*
X39119720Y-78498169D01*
X37770561Y-77149010D01*
X37770561Y-77149010D01*
G37*
G36*
X38866576Y-76052994D02*
X40215736Y-74703834D01*
X41564896Y-76052994D01*
X40215736Y-77402154D01*
X38866576Y-76052994D01*
X38866576Y-76052994D01*
G37*
G36*
X41977846Y-79164264D02*
X43327006Y-77815104D01*
X44676166Y-79164264D01*
X43327006Y-80513424D01*
X41977846Y-79164264D01*
X41977846Y-79164264D01*
G37*
G36*
X41064264Y-67083834D02*
X42413424Y-68432994D01*
X41064264Y-69782154D01*
X39715104Y-68432994D01*
X41064264Y-67083834D01*
X41064264Y-67083834D01*
G37*
G36*
X37952994Y-70195104D02*
X39302154Y-71544264D01*
X37952994Y-72893424D01*
X36603834Y-71544264D01*
X37952994Y-70195104D01*
X37952994Y-70195104D01*
G37*
G36*
X39119720Y-71361831D02*
X40398169Y-72640280D01*
X39049010Y-73989439D01*
X37770561Y-72710990D01*
X39119720Y-71361831D01*
X39119720Y-71361831D01*
G37*
G36*
X42230990Y-68250561D02*
X43509439Y-69529010D01*
X42160280Y-70878169D01*
X40881831Y-69599720D01*
X42230990Y-68250561D01*
X42230990Y-68250561D01*
G37*
G36*
X43327006Y-69346576D02*
X44676166Y-70695736D01*
X43327006Y-72044896D01*
X41977846Y-70695736D01*
X43327006Y-69346576D01*
X43327006Y-69346576D01*
G37*
G36*
X40215736Y-72457846D02*
X41564896Y-73807006D01*
X40215736Y-75156166D01*
X38866576Y-73807006D01*
X40215736Y-72457846D01*
X40215736Y-72457846D01*
G37*
G36*
X36603834Y-63075736D02*
X37952994Y-61726576D01*
X39302154Y-63075736D01*
X37952994Y-64424896D01*
X36603834Y-63075736D01*
X36603834Y-63075736D01*
G37*
G36*
X39715104Y-66187006D02*
X41064264Y-64837846D01*
X42413424Y-66187006D01*
X41064264Y-67536166D01*
X39715104Y-66187006D01*
X39715104Y-66187006D01*
G37*
G36*
X40881831Y-65020280D02*
X42160280Y-63741831D01*
X43509439Y-65090990D01*
X42230990Y-66369439D01*
X40881831Y-65020280D01*
X40881831Y-65020280D01*
G37*
G36*
X37770561Y-61909010D02*
X39049010Y-60630561D01*
X40398169Y-61979720D01*
X39119720Y-63258169D01*
X37770561Y-61909010D01*
X37770561Y-61909010D01*
G37*
G36*
X38866576Y-60812994D02*
X40215736Y-59463834D01*
X41564896Y-60812994D01*
X40215736Y-62162154D01*
X38866576Y-60812994D01*
X38866576Y-60812994D01*
G37*
G36*
X41977846Y-63924264D02*
X43327006Y-62575104D01*
X44676166Y-63924264D01*
X43327006Y-65273424D01*
X41977846Y-63924264D01*
X41977846Y-63924264D01*
G37*
G36*
X41064264Y-36603834D02*
X42413424Y-37952994D01*
X41064264Y-39302154D01*
X39715104Y-37952994D01*
X41064264Y-36603834D01*
X41064264Y-36603834D01*
G37*
G36*
X37952994Y-39715104D02*
X39302154Y-41064264D01*
X37952994Y-42413424D01*
X36603834Y-41064264D01*
X37952994Y-39715104D01*
X37952994Y-39715104D01*
G37*
G36*
X39119720Y-40881831D02*
X40398169Y-42160280D01*
X39049010Y-43509439D01*
X37770561Y-42230990D01*
X39119720Y-40881831D01*
X39119720Y-40881831D01*
G37*
G36*
X42230990Y-37770561D02*
X43509439Y-39049010D01*
X42160280Y-40398169D01*
X40881831Y-39119720D01*
X42230990Y-37770561D01*
X42230990Y-37770561D01*
G37*
G36*
X43327006Y-38866576D02*
X44676166Y-40215736D01*
X43327006Y-41564896D01*
X41977846Y-40215736D01*
X43327006Y-38866576D01*
X43327006Y-38866576D01*
G37*
G36*
X40215736Y-41977846D02*
X41564896Y-43327006D01*
X40215736Y-44676166D01*
X38866576Y-43327006D01*
X40215736Y-41977846D01*
X40215736Y-41977846D01*
G37*
G36*
X36603834Y-32595736D02*
X37952994Y-31246576D01*
X39302154Y-32595736D01*
X37952994Y-33944896D01*
X36603834Y-32595736D01*
X36603834Y-32595736D01*
G37*
G36*
X39715104Y-35707006D02*
X41064264Y-34357846D01*
X42413424Y-35707006D01*
X41064264Y-37056166D01*
X39715104Y-35707006D01*
X39715104Y-35707006D01*
G37*
G36*
X40881831Y-34540280D02*
X42160280Y-33261831D01*
X43509439Y-34610990D01*
X42230990Y-35889439D01*
X40881831Y-34540280D01*
X40881831Y-34540280D01*
G37*
G36*
X37770561Y-31429010D02*
X39049010Y-30150561D01*
X40398169Y-31499720D01*
X39119720Y-32778169D01*
X37770561Y-31429010D01*
X37770561Y-31429010D01*
G37*
G36*
X38866576Y-30332994D02*
X40215736Y-28983834D01*
X41564896Y-30332994D01*
X40215736Y-31682154D01*
X38866576Y-30332994D01*
X38866576Y-30332994D01*
G37*
G36*
X41977846Y-33444264D02*
X43327006Y-32095104D01*
X44676166Y-33444264D01*
X43327006Y-34793424D01*
X41977846Y-33444264D01*
X41977846Y-33444264D01*
G37*
G36*
X32595736Y-37056166D02*
X31246576Y-35707006D01*
X32595736Y-34357846D01*
X33944896Y-35707006D01*
X32595736Y-37056166D01*
X32595736Y-37056166D01*
G37*
G36*
X35707006Y-33944896D02*
X34357846Y-32595736D01*
X35707006Y-31246576D01*
X37056166Y-32595736D01*
X35707006Y-33944896D01*
X35707006Y-33944896D01*
G37*
G36*
X34540280Y-32778169D02*
X33261831Y-31499720D01*
X34610990Y-30150561D01*
X35889439Y-31429010D01*
X34540280Y-32778169D01*
X34540280Y-32778169D01*
G37*
G36*
X31429010Y-35889439D02*
X30150561Y-34610990D01*
X31499720Y-33261831D01*
X32778169Y-34540280D01*
X31429010Y-35889439D01*
X31429010Y-35889439D01*
G37*
G36*
X30332994Y-34793424D02*
X28983834Y-33444264D01*
X30332994Y-32095104D01*
X31682154Y-33444264D01*
X30332994Y-34793424D01*
X30332994Y-34793424D01*
G37*
G36*
X33444264Y-31682154D02*
X32095104Y-30332994D01*
X33444264Y-28983834D01*
X34793424Y-30332994D01*
X33444264Y-31682154D01*
X33444264Y-31682154D01*
G37*
G36*
X37056166Y-41064264D02*
X35707006Y-42413424D01*
X34357846Y-41064264D01*
X35707006Y-39715104D01*
X37056166Y-41064264D01*
X37056166Y-41064264D01*
G37*
G36*
X33944896Y-37952994D02*
X32595736Y-39302154D01*
X31246576Y-37952994D01*
X32595736Y-36603834D01*
X33944896Y-37952994D01*
X33944896Y-37952994D01*
G37*
G36*
X32778169Y-39119720D02*
X31499720Y-40398169D01*
X30150561Y-39049010D01*
X31429010Y-37770561D01*
X32778169Y-39119720D01*
X32778169Y-39119720D01*
G37*
G36*
X35889439Y-42230990D02*
X34610990Y-43509439D01*
X33261831Y-42160280D01*
X34540280Y-40881831D01*
X35889439Y-42230990D01*
X35889439Y-42230990D01*
G37*
G36*
X34793424Y-43327006D02*
X33444264Y-44676166D01*
X32095104Y-43327006D01*
X33444264Y-41977846D01*
X34793424Y-43327006D01*
X34793424Y-43327006D01*
G37*
G36*
X31682154Y-40215736D02*
X30332994Y-41564896D01*
X28983834Y-40215736D01*
X30332994Y-38866576D01*
X31682154Y-40215736D01*
X31682154Y-40215736D01*
G37*
G36*
X37056166Y-71544264D02*
X35707006Y-72893424D01*
X34357846Y-71544264D01*
X35707006Y-70195104D01*
X37056166Y-71544264D01*
X37056166Y-71544264D01*
G37*
G36*
X33944896Y-68432994D02*
X32595736Y-69782154D01*
X31246576Y-68432994D01*
X32595736Y-67083834D01*
X33944896Y-68432994D01*
X33944896Y-68432994D01*
G37*
G36*
X32778169Y-69599720D02*
X31499720Y-70878169D01*
X30150561Y-69529010D01*
X31429010Y-68250561D01*
X32778169Y-69599720D01*
X32778169Y-69599720D01*
G37*
G36*
X35889439Y-72710990D02*
X34610990Y-73989439D01*
X33261831Y-72640280D01*
X34540280Y-71361831D01*
X35889439Y-72710990D01*
X35889439Y-72710990D01*
G37*
G36*
X34793424Y-73807006D02*
X33444264Y-75156166D01*
X32095104Y-73807006D01*
X33444264Y-72457846D01*
X34793424Y-73807006D01*
X34793424Y-73807006D01*
G37*
G36*
X31682154Y-70695736D02*
X30332994Y-72044896D01*
X28983834Y-70695736D01*
X30332994Y-69346576D01*
X31682154Y-70695736D01*
X31682154Y-70695736D01*
G37*
G36*
X32595736Y-82776166D02*
X31246576Y-81427006D01*
X32595736Y-80077846D01*
X33944896Y-81427006D01*
X32595736Y-82776166D01*
X32595736Y-82776166D01*
G37*
G36*
X35707006Y-79664896D02*
X34357846Y-78315736D01*
X35707006Y-76966576D01*
X37056166Y-78315736D01*
X35707006Y-79664896D01*
X35707006Y-79664896D01*
G37*
G36*
X34540280Y-78498169D02*
X33261831Y-77219720D01*
X34610990Y-75870561D01*
X35889439Y-77149010D01*
X34540280Y-78498169D01*
X34540280Y-78498169D01*
G37*
G36*
X31429010Y-81609439D02*
X30150561Y-80330990D01*
X31499720Y-78981831D01*
X32778169Y-80260280D01*
X31429010Y-81609439D01*
X31429010Y-81609439D01*
G37*
G36*
X30332994Y-80513424D02*
X28983834Y-79164264D01*
X30332994Y-77815104D01*
X31682154Y-79164264D01*
X30332994Y-80513424D01*
X30332994Y-80513424D01*
G37*
G36*
X33444264Y-77402154D02*
X32095104Y-76052994D01*
X33444264Y-74703834D01*
X34793424Y-76052994D01*
X33444264Y-77402154D01*
X33444264Y-77402154D01*
G37*
G36*
X32595736Y-67536166D02*
X31246576Y-66187006D01*
X32595736Y-64837846D01*
X33944896Y-66187006D01*
X32595736Y-67536166D01*
X32595736Y-67536166D01*
G37*
G36*
X35707006Y-64424896D02*
X34357846Y-63075736D01*
X35707006Y-61726576D01*
X37056166Y-63075736D01*
X35707006Y-64424896D01*
X35707006Y-64424896D01*
G37*
G36*
X34540280Y-63258169D02*
X33261831Y-61979720D01*
X34610990Y-60630561D01*
X35889439Y-61909010D01*
X34540280Y-63258169D01*
X34540280Y-63258169D01*
G37*
G36*
X31429010Y-66369439D02*
X30150561Y-65090990D01*
X31499720Y-63741831D01*
X32778169Y-65020280D01*
X31429010Y-66369439D01*
X31429010Y-66369439D01*
G37*
G36*
X30332994Y-65273424D02*
X28983834Y-63924264D01*
X30332994Y-62575104D01*
X31682154Y-63924264D01*
X30332994Y-65273424D01*
X30332994Y-65273424D01*
G37*
G36*
X33444264Y-62162154D02*
X32095104Y-60812994D01*
X33444264Y-59463834D01*
X34793424Y-60812994D01*
X33444264Y-62162154D01*
X33444264Y-62162154D01*
G37*
G36*
X37056166Y-86784264D02*
X35707006Y-88133424D01*
X34357846Y-86784264D01*
X35707006Y-85435104D01*
X37056166Y-86784264D01*
X37056166Y-86784264D01*
G37*
G36*
X33944896Y-83672994D02*
X32595736Y-85022154D01*
X31246576Y-83672994D01*
X32595736Y-82323834D01*
X33944896Y-83672994D01*
X33944896Y-83672994D01*
G37*
G36*
X32778169Y-84839720D02*
X31499720Y-86118169D01*
X30150561Y-84769010D01*
X31429010Y-83490561D01*
X32778169Y-84839720D01*
X32778169Y-84839720D01*
G37*
G36*
X35889439Y-87950990D02*
X34610990Y-89229439D01*
X33261831Y-87880280D01*
X34540280Y-86601831D01*
X35889439Y-87950990D01*
X35889439Y-87950990D01*
G37*
G36*
X34793424Y-89047006D02*
X33444264Y-90396166D01*
X32095104Y-89047006D01*
X33444264Y-87697846D01*
X34793424Y-89047006D01*
X34793424Y-89047006D01*
G37*
G36*
X31682154Y-85935736D02*
X30332994Y-87284896D01*
X28983834Y-85935736D01*
X30332994Y-84586576D01*
X31682154Y-85935736D01*
X31682154Y-85935736D01*
G37*
G36*
X41064264Y-82323834D02*
X42413424Y-83672994D01*
X41064264Y-85022154D01*
X39715104Y-83672994D01*
X41064264Y-82323834D01*
X41064264Y-82323834D01*
G37*
G36*
X37952994Y-85435104D02*
X39302154Y-86784264D01*
X37952994Y-88133424D01*
X36603834Y-86784264D01*
X37952994Y-85435104D01*
X37952994Y-85435104D01*
G37*
G36*
X39119720Y-86601831D02*
X40398169Y-87880280D01*
X39049010Y-89229439D01*
X37770561Y-87950990D01*
X39119720Y-86601831D01*
X39119720Y-86601831D01*
G37*
G36*
X42230990Y-83490561D02*
X43509439Y-84769010D01*
X42160280Y-86118169D01*
X40881831Y-84839720D01*
X42230990Y-83490561D01*
X42230990Y-83490561D01*
G37*
G36*
X43327006Y-84586576D02*
X44676166Y-85935736D01*
X43327006Y-87284896D01*
X41977846Y-85935736D01*
X43327006Y-84586576D01*
X43327006Y-84586576D01*
G37*
G36*
X40215736Y-87697846D02*
X41564896Y-89047006D01*
X40215736Y-90396166D01*
X38866576Y-89047006D01*
X40215736Y-87697846D01*
X40215736Y-87697846D01*
G37*
G36*
X52296166Y-86784264D02*
X50947006Y-88133424D01*
X49597846Y-86784264D01*
X50947006Y-85435104D01*
X52296166Y-86784264D01*
X52296166Y-86784264D01*
G37*
G36*
X49184896Y-83672994D02*
X47835736Y-85022154D01*
X46486576Y-83672994D01*
X47835736Y-82323834D01*
X49184896Y-83672994D01*
X49184896Y-83672994D01*
G37*
G36*
X48018169Y-84839720D02*
X46739720Y-86118169D01*
X45390561Y-84769010D01*
X46669010Y-83490561D01*
X48018169Y-84839720D01*
X48018169Y-84839720D01*
G37*
G36*
X51129439Y-87950990D02*
X49850990Y-89229439D01*
X48501831Y-87880280D01*
X49780280Y-86601831D01*
X51129439Y-87950990D01*
X51129439Y-87950990D01*
G37*
G36*
X50033424Y-89047006D02*
X48684264Y-90396166D01*
X47335104Y-89047006D01*
X48684264Y-87697846D01*
X50033424Y-89047006D01*
X50033424Y-89047006D01*
G37*
G36*
X46922154Y-85935736D02*
X45572994Y-87284896D01*
X44223834Y-85935736D01*
X45572994Y-84586576D01*
X46922154Y-85935736D01*
X46922154Y-85935736D01*
G37*
G36*
X56304264Y-82323834D02*
X57653424Y-83672994D01*
X56304264Y-85022154D01*
X54955104Y-83672994D01*
X56304264Y-82323834D01*
X56304264Y-82323834D01*
G37*
G36*
X53192994Y-85435104D02*
X54542154Y-86784264D01*
X53192994Y-88133424D01*
X51843834Y-86784264D01*
X53192994Y-85435104D01*
X53192994Y-85435104D01*
G37*
G36*
X54359720Y-86601831D02*
X55638169Y-87880280D01*
X54289010Y-89229439D01*
X53010561Y-87950990D01*
X54359720Y-86601831D01*
X54359720Y-86601831D01*
G37*
G36*
X57470990Y-83490561D02*
X58749439Y-84769010D01*
X57400280Y-86118169D01*
X56121831Y-84839720D01*
X57470990Y-83490561D01*
X57470990Y-83490561D01*
G37*
G36*
X58567006Y-84586576D02*
X59916166Y-85935736D01*
X58567006Y-87284896D01*
X57217846Y-85935736D01*
X58567006Y-84586576D01*
X58567006Y-84586576D01*
G37*
G36*
X55455736Y-87697846D02*
X56804896Y-89047006D01*
X55455736Y-90396166D01*
X54106576Y-89047006D01*
X55455736Y-87697846D01*
X55455736Y-87697846D01*
G37*
G36*
X67536166Y-86784264D02*
X66187006Y-88133424D01*
X64837846Y-86784264D01*
X66187006Y-85435104D01*
X67536166Y-86784264D01*
X67536166Y-86784264D01*
G37*
G36*
X64424896Y-83672994D02*
X63075736Y-85022154D01*
X61726576Y-83672994D01*
X63075736Y-82323834D01*
X64424896Y-83672994D01*
X64424896Y-83672994D01*
G37*
G36*
X63258169Y-84839720D02*
X61979720Y-86118169D01*
X60630561Y-84769010D01*
X61909010Y-83490561D01*
X63258169Y-84839720D01*
X63258169Y-84839720D01*
G37*
G36*
X66369439Y-87950990D02*
X65090990Y-89229439D01*
X63741831Y-87880280D01*
X65020280Y-86601831D01*
X66369439Y-87950990D01*
X66369439Y-87950990D01*
G37*
G36*
X65273424Y-89047006D02*
X63924264Y-90396166D01*
X62575104Y-89047006D01*
X63924264Y-87697846D01*
X65273424Y-89047006D01*
X65273424Y-89047006D01*
G37*
G36*
X62162154Y-85935736D02*
X60812994Y-87284896D01*
X59463834Y-85935736D01*
X60812994Y-84586576D01*
X62162154Y-85935736D01*
X62162154Y-85935736D01*
G37*
G36*
X71544264Y-82323834D02*
X72893424Y-83672994D01*
X71544264Y-85022154D01*
X70195104Y-83672994D01*
X71544264Y-82323834D01*
X71544264Y-82323834D01*
G37*
G36*
X68432994Y-85435104D02*
X69782154Y-86784264D01*
X68432994Y-88133424D01*
X67083834Y-86784264D01*
X68432994Y-85435104D01*
X68432994Y-85435104D01*
G37*
G36*
X69599720Y-86601831D02*
X70878169Y-87880280D01*
X69529010Y-89229439D01*
X68250561Y-87950990D01*
X69599720Y-86601831D01*
X69599720Y-86601831D01*
G37*
G36*
X72710990Y-83490561D02*
X73989439Y-84769010D01*
X72640280Y-86118169D01*
X71361831Y-84839720D01*
X72710990Y-83490561D01*
X72710990Y-83490561D01*
G37*
G36*
X73807006Y-84586576D02*
X75156166Y-85935736D01*
X73807006Y-87284896D01*
X72457846Y-85935736D01*
X73807006Y-84586576D01*
X73807006Y-84586576D01*
G37*
G36*
X70695736Y-87697846D02*
X72044896Y-89047006D01*
X70695736Y-90396166D01*
X69346576Y-89047006D01*
X70695736Y-87697846D01*
X70695736Y-87697846D01*
G37*
G36*
X82776166Y-86784264D02*
X81427006Y-88133424D01*
X80077846Y-86784264D01*
X81427006Y-85435104D01*
X82776166Y-86784264D01*
X82776166Y-86784264D01*
G37*
G36*
X79664896Y-83672994D02*
X78315736Y-85022154D01*
X76966576Y-83672994D01*
X78315736Y-82323834D01*
X79664896Y-83672994D01*
X79664896Y-83672994D01*
G37*
G36*
X78498169Y-84839720D02*
X77219720Y-86118169D01*
X75870561Y-84769010D01*
X77149010Y-83490561D01*
X78498169Y-84839720D01*
X78498169Y-84839720D01*
G37*
G36*
X81609439Y-87950990D02*
X80330990Y-89229439D01*
X78981831Y-87880280D01*
X80260280Y-86601831D01*
X81609439Y-87950990D01*
X81609439Y-87950990D01*
G37*
G36*
X80513424Y-89047006D02*
X79164264Y-90396166D01*
X77815104Y-89047006D01*
X79164264Y-87697846D01*
X80513424Y-89047006D01*
X80513424Y-89047006D01*
G37*
G36*
X77402154Y-85935736D02*
X76052994Y-87284896D01*
X74703834Y-85935736D01*
X76052994Y-84586576D01*
X77402154Y-85935736D01*
X77402154Y-85935736D01*
G37*
G36*
X86784264Y-82323834D02*
X88133424Y-83672994D01*
X86784264Y-85022154D01*
X85435104Y-83672994D01*
X86784264Y-82323834D01*
X86784264Y-82323834D01*
G37*
G36*
X83672994Y-85435104D02*
X85022154Y-86784264D01*
X83672994Y-88133424D01*
X82323834Y-86784264D01*
X83672994Y-85435104D01*
X83672994Y-85435104D01*
G37*
G36*
X84839720Y-86601831D02*
X86118169Y-87880280D01*
X84769010Y-89229439D01*
X83490561Y-87950990D01*
X84839720Y-86601831D01*
X84839720Y-86601831D01*
G37*
G36*
X87950990Y-83490561D02*
X89229439Y-84769010D01*
X87880280Y-86118169D01*
X86601831Y-84839720D01*
X87950990Y-83490561D01*
X87950990Y-83490561D01*
G37*
G36*
X89047006Y-84586576D02*
X90396166Y-85935736D01*
X89047006Y-87284896D01*
X87697846Y-85935736D01*
X89047006Y-84586576D01*
X89047006Y-84586576D01*
G37*
G36*
X85935736Y-87697846D02*
X87284896Y-89047006D01*
X85935736Y-90396166D01*
X84586576Y-89047006D01*
X85935736Y-87697846D01*
X85935736Y-87697846D01*
G37*
G36*
X67083834Y-47835736D02*
X68432994Y-46486576D01*
X69782154Y-47835736D01*
X68432994Y-49184896D01*
X67083834Y-47835736D01*
X67083834Y-47835736D01*
G37*
G36*
X70195104Y-50947006D02*
X71544264Y-49597846D01*
X72893424Y-50947006D01*
X71544264Y-52296166D01*
X70195104Y-50947006D01*
X70195104Y-50947006D01*
G37*
G36*
X71361831Y-49780280D02*
X72640280Y-48501831D01*
X73989439Y-49850990D01*
X72710990Y-51129439D01*
X71361831Y-49780280D01*
X71361831Y-49780280D01*
G37*
G36*
X68250561Y-46669010D02*
X69529010Y-45390561D01*
X70878169Y-46739720D01*
X69599720Y-48018169D01*
X68250561Y-46669010D01*
X68250561Y-46669010D01*
G37*
G36*
X69346576Y-45572994D02*
X70695736Y-44223834D01*
X72044896Y-45572994D01*
X70695736Y-46922154D01*
X69346576Y-45572994D01*
X69346576Y-45572994D01*
G37*
G36*
X72457846Y-48684264D02*
X73807006Y-47335104D01*
X75156166Y-48684264D01*
X73807006Y-50033424D01*
X72457846Y-48684264D01*
X72457846Y-48684264D01*
G37*
G36*
X82323834Y-78315736D02*
X83672994Y-76966576D01*
X85022154Y-78315736D01*
X83672994Y-79664896D01*
X82323834Y-78315736D01*
X82323834Y-78315736D01*
G37*
G36*
X85435104Y-81427006D02*
X86784264Y-80077846D01*
X88133424Y-81427006D01*
X86784264Y-82776166D01*
X85435104Y-81427006D01*
X85435104Y-81427006D01*
G37*
G36*
X86601831Y-80260280D02*
X87880280Y-78981831D01*
X89229439Y-80330990D01*
X87950990Y-81609439D01*
X86601831Y-80260280D01*
X86601831Y-80260280D01*
G37*
G36*
X83490561Y-77149010D02*
X84769010Y-75870561D01*
X86118169Y-77219720D01*
X84839720Y-78498169D01*
X83490561Y-77149010D01*
X83490561Y-77149010D01*
G37*
G36*
X84586576Y-76052994D02*
X85935736Y-74703834D01*
X87284896Y-76052994D01*
X85935736Y-77402154D01*
X84586576Y-76052994D01*
X84586576Y-76052994D01*
G37*
G36*
X87697846Y-79164264D02*
X89047006Y-77815104D01*
X90396166Y-79164264D01*
X89047006Y-80513424D01*
X87697846Y-79164264D01*
X87697846Y-79164264D01*
G37*
D14*
X44450000Y-61486051D03*
X42653949Y-59690000D03*
X44450000Y-57893949D03*
X46246051Y-59690000D03*
X57893949Y-44450000D03*
X59690000Y-42653949D03*
X61486051Y-44450000D03*
X59690000Y-46246051D03*
X59690000Y-73133949D03*
X61486051Y-74930000D03*
X59690000Y-76726051D03*
X57893949Y-74930000D03*
X76726051Y-59690000D03*
X74930000Y-61486051D03*
X73133949Y-59690000D03*
X74930000Y-57893949D03*
D13*
X36830000Y-52070000D03*
X82550000Y-52070000D03*
X36830000Y-67310000D03*
X82550000Y-67310000D03*
X67310000Y-36830000D03*
X52070000Y-36830000D03*
X52070000Y-82550000D03*
X67310000Y-82550000D03*
M02*
