%TF.GenerationSoftware,KiCad,Pcbnew,4.0.7-e1-6374~58~ubuntu16.04.1*%
%TF.CreationDate,2017-08-11T22:02:44+05:30*%
%TF.ProjectId,ultim8x8,756C74696D3878382E6B696361645F70,2.0*%
%TF.FileFunction,Profile,NP*%
%FSLAX46Y46*%
G04 Gerber Fmt 4.6, Leading zero omitted, Abs format (unit mm)*
G04 Created by KiCad (PCBNEW 4.0.7-e1-6374~58~ubuntu16.04.1) date Fri Aug 11 22:02:44 2017*
%MOMM*%
%LPD*%
G01*
G04 APERTURE LIST*
%ADD10C,0.254000*%
G04 APERTURE END LIST*
D10*
X90170000Y-58166000D02*
X90170000Y-45974000D01*
X61214000Y-90170000D02*
X73406000Y-90170000D01*
X29210000Y-61214000D02*
X29210000Y-73406000D01*
X45974000Y-29210000D02*
X58166000Y-29210000D01*
X90170000Y-61214000D02*
G75*
G02X90170000Y-58166000I0J1524000D01*
G01*
X61214000Y-29210000D02*
G75*
G02X58166000Y-29210000I-1524000J0D01*
G01*
X29210000Y-58166000D02*
G75*
G02X29210000Y-61214000I0J-1524000D01*
G01*
X61214000Y-90170000D02*
G75*
G03X58166000Y-90170000I-1524000J0D01*
G01*
X90170000Y-30734000D02*
G75*
G02X88646000Y-29210000I0J1524000D01*
G01*
X29210000Y-30734000D02*
G75*
G03X30734000Y-29210000I0J1524000D01*
G01*
X29210000Y-88646000D02*
G75*
G02X30734000Y-90170000I0J-1524000D01*
G01*
X90170000Y-88646000D02*
G75*
G03X88646000Y-90170000I0J-1524000D01*
G01*
X58166000Y-90170000D02*
X45974000Y-90170000D01*
X88646000Y-90170000D02*
X76454000Y-90170000D01*
X90170000Y-76454000D02*
X90170000Y-88646000D01*
X90170000Y-61214000D02*
X90170000Y-73406000D01*
X90170000Y-30734000D02*
X90170000Y-42926000D01*
X76454000Y-29210000D02*
X88646000Y-29210000D01*
X61214000Y-29210000D02*
X73406000Y-29210000D01*
X30734000Y-29210000D02*
X42926000Y-29210000D01*
X29210000Y-42926000D02*
X29210000Y-30734000D01*
X29210000Y-58166000D02*
X29210000Y-45974000D01*
X29210000Y-88646000D02*
X29210000Y-76454000D01*
X42926000Y-90170000D02*
X30734000Y-90170000D01*
X90170000Y-73406000D02*
G75*
G03X88646000Y-74930000I0J-1524000D01*
G01*
X88646000Y-74930000D02*
G75*
G03X90170000Y-76454000I1524000J0D01*
G01*
X90170000Y-42926000D02*
G75*
G03X88646000Y-44450000I0J-1524000D01*
G01*
X88646000Y-44450000D02*
G75*
G03X90170000Y-45974000I1524000J0D01*
G01*
X73406000Y-29210000D02*
G75*
G03X74930000Y-30734000I1524000J0D01*
G01*
X74930000Y-30734000D02*
G75*
G03X76454000Y-29210000I0J1524000D01*
G01*
X42926000Y-29210000D02*
G75*
G03X44450000Y-30734000I1524000J0D01*
G01*
X44450000Y-30734000D02*
G75*
G03X45974000Y-29210000I0J1524000D01*
G01*
X29210000Y-45974000D02*
G75*
G03X30734000Y-44450000I0J1524000D01*
G01*
X30734000Y-44450000D02*
G75*
G03X29210000Y-42926000I-1524000J0D01*
G01*
X29210000Y-76454000D02*
G75*
G03X30734000Y-74930000I0J1524000D01*
G01*
X30734000Y-74930000D02*
G75*
G03X29210000Y-73406000I-1524000J0D01*
G01*
X45974000Y-90170000D02*
G75*
G03X44450000Y-88646000I-1524000J0D01*
G01*
X44450000Y-88646000D02*
G75*
G03X42926000Y-90170000I0J-1524000D01*
G01*
X74930000Y-88646000D02*
G75*
G03X73406000Y-90170000I0J-1524000D01*
G01*
X76454000Y-90170000D02*
G75*
G03X74930000Y-88646000I-1524000J0D01*
G01*
M02*
